<svg xmlns="http://www.w3.org/2000/svg" width="21" height="21" fill="none" xmlns:v="https://vecta.io/nano"><path fill-rule="evenodd" d="M20.484 2.946c-.205-.556-.533-1.059-.958-1.473-.413-.425-.916-.753-1.473-.958-.451-.175-1.129-.384-2.378-.441L10.5 0 5.325.075C4.076.132 3.398.34 2.947.516c-.556.205-1.06.533-1.473.958a3.97 3.97 0 0 0-.958 1.473C.34 3.398.132 4.076.075 5.325L0 10.5l.075 5.176c.057 1.249.265 1.927.441 2.378a3.97 3.97 0 0 0 .958 1.473c.413.425.916.753 1.473.958.451.176 1.13.384 2.378.441L10.5 21l5.176-.075c1.249-.057 1.927-.265 2.378-.441a4.24 4.24 0 0 0 2.431-2.431c.175-.451.384-1.129.441-2.378L21 10.5l-.075-5.176c-.057-1.249-.265-1.927-.441-2.378zM8.454 20.955v-7.064H5.576v-3.393h2.878V8.001c0-2.896 1.747-4.472 4.301-4.472 1.223 0 2.274.092 2.58.133v3.026h-1.761c-1.389 0-1.658.668-1.658 1.648v2.161h3.321l-.433 3.393h-2.888v7.064H8.454z" fill="#fff"/></svg>