<svg xmlns="http://www.w3.org/2000/svg" width="19" height="18" fill="#ff6b00" xmlns:v="https://vecta.io/nano"><path d="M5.943 3.673a1 1 0 0 1 0 1.417L4.9 6.129l7.021 6.992 1.049-1.045a1 1 0 0 1 1.411 0l3.011 2.999c.381.379.391.991-.01 1.349-.701.626-1.817 1.477-2.776 1.565-2.053.188-5.787-1.976-9.199-5.374S-.178 5.499.011 3.454C.1 2.496.96 1.381 1.588.683c.358-.397.965-.386 1.344-.009l3.011 2.999zm4.103-2.007V.479c4.162 0 7.548 3.372 7.548 7.517h-1.192c0-3.49-2.851-6.33-6.356-6.33zm0 2.769V3.249c2.629 0 4.767 2.13 4.767 4.748h-1.192c0-1.963-1.604-3.561-3.575-3.561z"/></svg>