<svg xmlns="http://www.w3.org/2000/svg" width="148" height="26" fill="none" xmlns:v="https://vecta.io/nano"><g clip-path="url(#A)"><g fill="#9dbd32"><path d="M8.34 8.426h-.058c-.231-.029-.462-.26-.462-.491S7.676 2.193 10.908.952c.808-.317 1.558-.231 2.193.202.75.548 1.327 1.645 1.674 3.232.231 1.125.289 2.078.289 2.135 0 .231-.173.404-.433.375-.231-.029-.462-.26-.462-.491-.029-1.01-.375-3.751-1.501-4.531-.346-.26-.779-.289-1.327-.058-2.77 1.068-2.626 6.233-2.626 6.291 0 .173-.173.317-.375.317z"/><path d="M15.236 3.03L2.741 6.897s-.548.144-.664.289c-.115.173-.144.606-.144.606L0 22.681l14.486 2.713 1.097-22.393c-.144-.029-.317 0-.346.029z"/></g><path d="M19.536 4.934s-.029-.115-.087-.144-.144-.058-.144-.058l-2.049-.144-1.5-1.501c-.058-.058-.116-.058-.202-.087l-1.068 22.393 7.849-1.703-2.799-18.757z" fill="#608d2f"/><path d="M10.071 15.438c-.231-.289-.491-.548-.75-.779s-.548-.433-.837-.606a4.06 4.06 0 0 1-.519-.346 1.96 1.96 0 0 1-.346-.346c-.087-.115-.173-.231-.202-.346-.058-.115-.058-.231-.058-.346 0-.173.058-.317.115-.462s.144-.26.26-.346.26-.173.404-.231c.173-.058.346-.087.548-.115l.635.029c.202.029.404.058.577.115s.346.087.519.144l.404.173.952-2.886c-.144-.087-.317-.144-.519-.202a4.48 4.48 0 0 0-.664-.144c-.231-.029-.519-.058-.779-.058-.289 0-.577.029-.866.058-.664.087-1.241.26-1.76.519s-.952.577-1.299.981c-.346.375-.635.837-.837 1.327a4.89 4.89 0 0 0-.346 1.616c-.029.346.029.664.087.981a4.26 4.26 0 0 0 .346.837c.144.26.346.491.548.722s.462.433.693.606c.202.144.375.289.519.433s.26.26.346.404a2.64 2.64 0 0 1 .202.404c.029.144.058.289.058.433a.92.92 0 0 1-.087.404.9.9 0 0 1-.26.318c-.115.086-.231.144-.375.173s-.317.029-.519 0c-.231-.029-.433-.087-.635-.173l-.606-.289-.519-.317c-.144-.116-.289-.202-.404-.317l-.664 2.193c.115.144.26.289.404.404.173.144.346.26.577.404.202.115.462.231.693.346.26.115.519.202.808.26.606.144 1.183.173 1.731.087s1.068-.26 1.501-.548c.462-.317.837-.721 1.097-1.27.289-.548.433-1.212.462-1.962.029-.462-.058-.895-.173-1.27-.058-.346-.231-.693-.462-1.01z" fill="#fff"/><path d="M5.31 7.676h-.058a.45.45 0 0 1-.375-.491c.029-.231.837-5.743 4.3-6.983.866-.317 1.587-.231 2.164.202.664.548 1.039 1.616 1.097 3.203.029 1.125-.087 2.078-.087 2.135a.45.45 0 0 1-.491.375.45.45 0 0 1-.375-.491c.144-1.01.289-3.751-.693-4.531-.317-.26-.75-.289-1.299-.058C6.55 2.106 5.771 7.272 5.742 7.33a.46.46 0 0 1-.433.346z" fill="#9dbd32"/><g fill="#fff"><path d="M31.454 14.457c-.779-.433-1.183-.779-1.183-1.27 0-.635.548-1.039 1.443-1.039.808 0 1.501.231 1.933.433l.693-2.193c-.491-.288-1.414-.519-2.597-.519-2.712 0-4.559 1.529-4.559 3.723 0 1.241.866 2.164 2.02 2.828.952.548 1.27.923 1.27 1.472 0 .577-.462 1.039-1.327 1.039-.952.029-1.962-.375-2.511-.664l-.779 2.222c.577.404 1.76.75 3.03.75 2.77.029 4.761-1.356 4.761-3.809.029-1.327-.981-2.28-2.193-2.972zm11.023-4.588c-1.356 0-2.424.635-3.261 1.645l-.058-.029 1.183-6.175h-3.088l-3.001 15.756h3.088l1.039-5.396c.404-2.02 1.443-3.29 2.424-3.29.692 0 .952.462.952 1.125a6.98 6.98 0 0 1-.144 1.356l-1.154 6.175h3.117l1.212-6.377a10.58 10.58 0 0 0 .231-2.02c0-1.731-.923-2.77-2.539-2.77zm9.523 0c-3.723 0-6.175 3.347-6.175 7.07 0 2.395 1.472 4.3 4.242 4.3 3.636 0 6.089-3.261 6.089-7.07 0-2.193-1.299-4.3-4.155-4.3zm-1.529 9.032c-1.039 0-1.501-.895-1.501-2.02 0-1.76.923-4.646 2.597-4.646 1.097 0 1.443.952 1.443 1.847 0 1.904-.923 4.819-2.539 4.819zm13.591-9.032c-1.241 0-2.424.664-3.261 1.818h-.058l.173-1.645h-2.712l-.635 4.098-2.135 11.283h3.088l.837-4.559h.058c.346.231 1.039.404 1.818.404 3.607 0 6.002-3.722 6.002-7.474 0-2.078-.923-3.924-3.174-3.924zM61.09 18.93c-.548 0-.952-.173-1.27-.433l.519-2.886c.346-1.933 1.356-3.203 2.424-3.203.952 0 1.241.866 1.241 1.703 0 1.991-1.183 4.819-2.915 4.819zM71.623 5.425c-.981 0-1.76.779-1.76 1.789 0 .923.577 1.529 1.443 1.529h.058c.952 0 1.789-.635 1.818-1.789 0-.866-.606-1.529-1.558-1.529zm-4.3 15.612h3.088L72.488 10.1H69.4l-2.078 10.937zm13.014-10.966h-2.135l.116-.519c.173-1.039.808-1.991 1.818-1.991.404 0 .722.058.981.144l.606-2.424c-.346-.144-.923-.26-1.674-.26-1.097 0-2.193.317-3.03 1.039-1.039.895-1.529 2.193-1.789 3.492l-.087.519H73.7l-.433 2.337h1.443l-1.645 8.628h3.088l1.645-8.628h2.135l.404-2.337zm7.417.029l-1.876 4.906-.923 2.626h-.058l-.26-2.597-.491-4.906h-3.232l1.847 10.042a.63.63 0 0 1-.058.519c-.346.693-.952 1.356-1.674 1.847-.577.433-1.241.693-1.732.866l.837 2.626c.635-.144 1.933-.635 3.03-1.674 1.414-1.327 2.713-3.347 4.04-6.118l3.78-8.08h-3.232V10.1zm25.538 1.731c.577-.375 1.01-.866 1.558-1.183 1.703-.923 4.069-.635 4.444 2.049.375 2.828-.519 5.252-2.712 7.128-1.212 1.039-2.655 1.27-4.185.808-.519-.144-.634-.029-.692.462l-.577 3.116c-.087.491-.289.635-.722.577a1.09 1.09 0 0 0-.433 0c-.548.087-.663-.144-.577-.664.837-4.357 1.761-8.686 2.424-13.072.029-.231-.086-.606.26-.635.404-.058.837-.029 1.27.029.173.029.086.231.057.375 0 .318-.057.664-.115 1.01zm4.3 2.28c-.029-1.039-.058-1.933-1.039-2.366-.779-.317-1.703.058-2.453.952-.433.519-.779 1.125-1.01 1.76-.491 1.356-.577 2.799-.895 4.184-.086.375.145.52.433.606 1.039.375 1.991.26 2.828-.49 1.443-1.27 1.991-2.972 2.136-4.646zm-20.518 6.695c-2.28 0-3.665-1.472-3.636-3.982.029-1.933.664-3.694 1.991-5.137.895-.981 1.991-1.529 3.376-1.5 1.27.058 2.164.606 2.51 1.674.376 1.183-.028 2.424-.981 3.145-.894.635-1.904.866-2.972 1.01l-1.674.115c-.26 0-.462.029-.462.346-.115 1.962.779 3.174 2.886 2.857.404-.058.808-.26 1.212-.346.202-.029.519-.491.635.058.087.375.433.866-.202 1.154-.577.346-1.818.606-2.684.606zm-.75-6.031l1.183-.144a4.2 4.2 0 0 0 1.212-.346c.923-.404 1.357-1.299.981-2.049-.317-.693-1.299-.895-2.164-.433-.895.433-1.414 1.212-1.789 2.106-.375.808-.346.866.577.866zm24.038 1.875c.057-1.991.779-3.838 2.337-5.31 1.01-.952 2.193-1.299 3.578-1.125.982.115 1.79.779 1.992 1.76.259 1.125.057 2.164-.895 2.943-.895.721-1.962.952-3.088 1.097a10.88 10.88 0 0 1-1.673.115c-.404 0-.52.144-.52.519-.058 2.107 1.126 3.059 3.203 2.626.289-.058.549-.173.808-.202s.606-.577.779.029c.116.433.433.981-.375 1.241-.981.317-1.933.548-2.972.462-1.731-.144-2.886-1.299-3.117-3.117-.057-.289-.028-.606-.057-1.039zm2.828-1.876c1.039-.086 2.02-.144 2.857-.75.606-.433.808-1.183.519-1.789-.231-.491-.866-.75-1.587-.606-.346.058-.664.202-.952.404-.808.577-1.27 1.414-1.616 2.337-.116.318 0 .433.317.404.173-.029.346 0 .462 0zm-17.17-.634l2.164-3.001c.404-.635.895-.895 1.616-.779.26.029.52 0 .837 0-.144.433-.433.693-.664.952l-2.914 3.636c-.317.375-.317.664-.144 1.068l1.875 4.646h-1.558c-.346 0-.404-.26-.49-.491l-1.299-3.434c-.202-.058-.26.087-.317.202-.664 1.154-1.53 2.135-2.28 3.232-.26.375-.548.519-.981.491-.375-.029-.779 0-1.357 0l2.136-2.684 1.76-2.193c.26-.289.26-.548.116-.895l-1.645-3.896c-.173-.433-.26-.664.375-.635 1.212.029 1.212 0 1.674 1.154l.952 2.568c.058 0 .086.029.144.058zm33.734-6.089c.029.635-.202 1.212-.289 1.789-.058.404.029.577.462.519.288-.029.577-.058.837 0 .288.058.779-.318.808.288.057.779-.202 1.068-.866 1.068-1.645 0-1.645 0-1.933 1.587l-.808 4.502c-.202 1.183.086 1.501 1.24 1.472.318 0 .347.087.347.346 0 .952-.116 1.097-1.068 1.125-1.731.087-2.482-.721-2.309-2.424.202-2.02.722-3.982 1.068-5.945.087-.519.058-.721-.519-.693-.26.029-.779.202-.635-.404.086-.404-.087-1.097.721-.981.606.087.924-.087 1.01-.779.145-1.097.347-1.212 1.934-1.472zm6.089 2.107l1.038.115c.924.202.924.289.635 1.183-.144.433-.346.433-.721.289-.491-.202-1.039-.289-1.587-.144-.577.144-.981.462-1.155 1.01-.202.606 0 1.125.433 1.558.26.26.577.462.895.664 1.212.837 1.847 1.933 1.529 3.434-.288 1.356-1.356 2.251-2.914 2.482-.895.144-1.761 0-2.626-.346-.722-.288-.289-.692-.202-1.068.115-.462.375-.433.721-.26.548.289 1.154.375 1.789.317.693-.087 1.183-.404 1.443-1.068.231-.664.116-1.27-.346-1.76-.231-.231-.491-.433-.75-.635-1.53-1.039-2.049-2.164-1.645-3.549.433-1.385 1.702-2.193 3.463-2.222zm-16.132 10.503c-.981 0-.981 0-.808-.895l1.443-7.907.087-.923c.029-.404.144-.635.635-.606 1.01.029 1.067.058.865 1.068-.028.173-.144.346 0 .433.231.144.318-.116.433-.26.606-.808 1.299-1.414 2.395-1.414.404 0 .578.086.404.519-.057.202-.115.404-.115.635-.029.433-.202.577-.664.606-.75.029-1.298.491-1.731 1.068-.952 1.212-1.212 2.684-1.472 4.127l-.49 2.713c-.145.664-.376 1.01-.982.837z"/></g></g><defs><clipPath id="A"><path fill="#fff" d="M0 0h147.689v26H0z"/></clipPath></defs></svg>