<svg xmlns="http://www.w3.org/2000/svg" width="156" height="26" fill="none" xmlns:v="https://vecta.io/nano"><g clip-path="url(#A)"><g fill="#fff"><path d="M92.832 25.336l2.135-11.514.606-3.78h.923l-.346 2.309h.058c.952-1.443 2.309-2.453 3.723-2.453 2.02 0 2.799 1.674 2.799 3.434 0 3.607-2.481 7.763-5.886 7.763-1.039 0-1.731-.375-2.135-.375h-.058l-.837 4.617h-.981zm2.02-5.829c.491.375 1.212.606 2.078.606 2.828 0 4.79-4.011 4.79-6.752 0-1.27-.49-2.684-2.077-2.684-1.529 0-3.492 1.933-4.098 5.165l-.693 3.665zm15.121 1.501c-.029-.866.116-1.731.26-2.886h-.058c-1.212 2.308-2.597 2.972-3.982 2.972-1.616 0-2.597-1.414-2.597-3.319 0-3.665 2.597-7.936 6.752-7.936.751 0 1.616.087 2.165.289l-1.126 5.887c-.375 2.02-.519 3.838-.461 4.992h-.953zm1.414-10.215c-.231-.087-.635-.144-1.298-.144-3.088 0-5.483 3.434-5.512 6.81-.029 1.414.375 2.655 1.818 2.655 1.732 0 3.694-2.597 4.213-5.367l.779-3.953zm1.818 10.215l1.357-7.33.519-3.636h.866l-.289 2.597h.058c.635-1.443 1.702-2.684 3.059-2.684.144 0 .288-.058.404-.058l-.202.981c-.087-.029-.202-.029-.347-.029-1.414 0-2.972 2.251-3.405 4.588l-1.038 5.569h-.982zm10.331-13.332l-.462 2.337h2.511l-.173.866h-2.511l-1.183 6.349c-.144.721-.231 1.27-.231 1.847 0 .635.289 1.01.953 1.01.346 0 .577-.029.779-.087l.057.779a3.74 3.74 0 0 1-1.038.144c-1.27 0-1.761-.837-1.761-1.731 0-.577.058-1.125.231-1.933l1.212-6.348h-1.529l.144-.866h1.558l.347-1.933 1.096-.433zm1.934 13.332l1.414-7.676.461-3.29h.924l-.318 2.309h.058c.923-1.443 2.28-2.482 3.751-2.482 1.039 0 2.395.635 2.395 2.655 0 .548-.086 1.183-.202 1.76l-1.212 6.695h-.952l1.241-6.724a9.57 9.57 0 0 0 .144-1.616c0-1.126-.433-1.962-1.76-1.962-1.414 0-3.463 1.905-3.924 4.502l-1.039 5.8h-.981v.029zm16.39-.895c-.548.375-1.587.808-2.914.808-2.511 0-3.377-1.962-3.377-4.011 0-3.088 2.165-7.099 5.224-7.099 1.76 0 2.51 1.125 2.51 2.337 0 2.713-3.116 3.463-6.608 3.463-.116.491-.144 1.905.086 2.684.376 1.212 1.212 1.818 2.338 1.818 1.183 0 1.991-.433 2.482-.721l.259.721zm.462-7.936c0-.981-.693-1.529-1.703-1.529-1.644 0-3.116 1.789-3.78 4.098 2.799.029 5.483-.433 5.483-2.568zm1.616 8.831l1.356-7.33.52-3.636h.865l-.288 2.597h.057c.635-1.443 1.703-2.684 3.059-2.684.145 0 .289-.058.404-.058l-.202.981c-.086-.029-.202-.029-.346-.029-1.414 0-2.972 2.251-3.405 4.588l-1.039 5.569h-.981zm5.627-1.53a3.28 3.28 0 0 0 1.876.606c1.414 0 2.366-1.01 2.366-2.222 0-1.068-.433-1.703-1.443-2.366-1.068-.693-1.645-1.645-1.645-2.655 0-1.674 1.356-3.03 3.261-3.03.721 0 1.443.231 1.76.462l-.346.837c-.346-.202-.895-.433-1.529-.433-1.299 0-2.165.923-2.165 2.02 0 1.01.577 1.558 1.443 2.164 1.039.693 1.645 1.674 1.645 2.77 0 2.164-1.587 3.347-3.434 3.347-.952 0-1.818-.346-2.164-.635l.375-.866z"/></g><g fill="#9dbd32"><path d="M8.34 8.426h-.058c-.231-.029-.462-.26-.462-.491S7.676 2.193 10.908.952c.808-.317 1.558-.231 2.193.202.75.548 1.327 1.645 1.674 3.232.231 1.125.289 2.078.289 2.135 0 .231-.173.404-.433.375-.231-.029-.462-.26-.462-.491-.029-1.01-.375-3.751-1.501-4.531-.346-.26-.779-.289-1.327-.058-2.77 1.068-2.626 6.233-2.626 6.291 0 .173-.173.317-.375.317z"/><path d="M15.236 3.03L2.741 6.897s-.548.144-.664.289c-.115.173-.144.606-.144.606L0 22.681l14.486 2.713 1.097-22.393c-.144-.029-.317 0-.346.029z"/></g><path d="M19.536 4.934s-.029-.115-.087-.144-.144-.058-.144-.058l-2.049-.144-1.5-1.501c-.058-.058-.116-.058-.202-.087l-1.068 22.393 7.849-1.703-2.799-18.757z" fill="#608d2f"/><path d="M10.071 15.438c-.231-.289-.491-.548-.75-.779s-.548-.433-.837-.606a4.06 4.06 0 0 1-.519-.346 1.96 1.96 0 0 1-.346-.346c-.087-.115-.173-.231-.202-.346-.058-.115-.058-.231-.058-.346 0-.173.058-.317.115-.462s.144-.26.26-.346.26-.173.404-.231c.173-.058.346-.087.548-.115l.635.029c.202.029.404.058.577.115s.346.087.519.144l.404.173.952-2.886c-.144-.087-.317-.144-.519-.202a4.48 4.48 0 0 0-.664-.144c-.231-.029-.519-.058-.779-.058-.289 0-.577.029-.866.058-.664.087-1.241.26-1.76.519s-.952.577-1.299.981c-.346.375-.635.837-.837 1.327a4.89 4.89 0 0 0-.346 1.616c-.029.346.029.664.087.981a4.26 4.26 0 0 0 .346.837c.144.26.346.491.548.722s.462.433.693.606c.202.144.375.289.519.433s.26.26.346.404a2.64 2.64 0 0 1 .202.404c.029.144.058.289.058.433a.92.92 0 0 1-.087.404.9.9 0 0 1-.26.318c-.115.086-.231.144-.375.173s-.317.029-.519 0c-.231-.029-.433-.087-.635-.173l-.606-.289-.519-.317c-.144-.116-.289-.202-.404-.317l-.664 2.193c.115.144.26.289.404.404.173.144.346.26.577.404.202.115.462.231.693.346.26.115.519.202.808.26.606.144 1.183.173 1.731.087s1.068-.26 1.501-.548c.462-.317.837-.721 1.097-1.27.289-.548.433-1.212.462-1.962.029-.462-.058-.895-.173-1.27-.058-.346-.231-.693-.462-1.01z" fill="#fff"/><path d="M5.31 7.676h-.058a.45.45 0 0 1-.375-.491c.029-.231.837-5.743 4.3-6.983.866-.317 1.587-.231 2.164.202.664.548 1.039 1.616 1.097 3.203.029 1.125-.087 2.078-.087 2.135a.45.45 0 0 1-.491.375.45.45 0 0 1-.375-.491c.144-1.01.289-3.751-.693-4.531-.317-.26-.75-.289-1.299-.058C6.55 2.106 5.771 7.272 5.742 7.33a.46.46 0 0 1-.433.346z" fill="#9dbd32"/><g fill="#fff"><path d="M31.454 14.457c-.779-.433-1.183-.779-1.183-1.27 0-.635.548-1.039 1.443-1.039.808 0 1.501.231 1.933.433l.693-2.193c-.491-.288-1.414-.519-2.597-.519-2.712 0-4.559 1.529-4.559 3.723 0 1.241.866 2.164 2.02 2.828.952.548 1.27.923 1.27 1.472 0 .577-.462 1.039-1.327 1.039-.952.029-1.962-.375-2.511-.664l-.779 2.222c.577.404 1.76.75 3.03.75 2.77.029 4.761-1.356 4.761-3.809.029-1.327-.981-2.28-2.193-2.972zm11.023-4.588c-1.356 0-2.424.635-3.261 1.645l-.058-.029 1.183-6.175h-3.088l-3.001 15.756h3.088l1.039-5.396c.404-2.02 1.443-3.29 2.424-3.29.692 0 .952.462.952 1.125a6.98 6.98 0 0 1-.144 1.356l-1.154 6.175h3.117l1.212-6.377a10.58 10.58 0 0 0 .231-2.02c0-1.731-.923-2.77-2.539-2.77zm9.523 0c-3.722 0-6.175 3.347-6.175 7.07 0 2.395 1.472 4.3 4.242 4.3 3.636 0 6.089-3.261 6.089-7.07 0-2.193-1.299-4.3-4.155-4.3zm-1.529 9.032c-1.039 0-1.501-.895-1.501-2.02 0-1.76.923-4.646 2.597-4.646 1.097 0 1.443.952 1.443 1.847 0 1.904-.923 4.819-2.539 4.819zm13.591-9.032c-1.241 0-2.424.664-3.261 1.818h-.058l.173-1.645h-2.712l-.635 4.098-2.135 11.283h3.088l.837-4.559h.058c.346.231 1.039.404 1.818.404 3.607 0 6.002-3.722 6.002-7.474 0-2.078-.924-3.924-3.174-3.924zM61.09 18.93c-.548 0-.952-.173-1.27-.433l.519-2.886c.346-1.933 1.356-3.203 2.424-3.203.952 0 1.241.866 1.241 1.703 0 1.991-1.183 4.819-2.915 4.819zM71.623 5.425c-.981 0-1.76.779-1.76 1.789 0 .923.577 1.529 1.443 1.529h.058c.952 0 1.789-.635 1.818-1.789 0-.866-.606-1.529-1.558-1.529zm-4.3 15.612h3.088L72.488 10.1H69.4l-2.078 10.937zm13.014-10.966h-2.135l.115-.519c.173-1.039.808-1.991 1.818-1.991.404 0 .721.058.981.144l.606-2.424c-.346-.144-.924-.26-1.674-.26-1.097 0-2.193.317-3.03 1.039-1.039.895-1.529 2.193-1.789 3.492l-.087.519H73.7l-.433 2.337h1.443l-1.645 8.628h3.088l1.645-8.628h2.135l.404-2.337zm7.417.029l-1.876 4.906-.923 2.626h-.058l-.26-2.597-.491-4.906h-3.232l1.847 10.042a.63.63 0 0 1-.058.519c-.346.693-.952 1.356-1.674 1.847-.577.433-1.241.693-1.731.866l.837 2.626c.635-.144 1.933-.635 3.03-1.674 1.414-1.327 2.712-3.347 4.04-6.118l3.78-8.08h-3.232V10.1z"/></g></g><defs><clipPath id="A"><path fill="#fff" d="M0 0h155.711v26H0z"/></clipPath></defs></svg>