<svg width="95" height="27" viewBox="0 0 95 27" fill="none" xmlns="http://www.w3.org/2000/svg">
<path d="M24.6902 -0.015564H29.008V26.4911H24.6902V-0.015564Z" fill="#17313B"/>
<path d="M44.0263 18.0911C44.0263 22.1978 40.6472 22.5711 39.5208 22.5711C36.8926 22.5711 36.5172 20.1444 36.5172 18.8378V8.57111H32.1994V18.6511C32.1994 21.0778 32.9503 23.3178 34.4521 24.6244C35.7662 25.9311 37.4558 26.4911 39.5208 26.4911C41.0227 26.4911 42.9 26.1178 44.0263 24.9978V26.4911H48.3441V8.57111H44.0263V18.0911Z" fill="#17313B"/>
<path d="M56.792 2.03778H52.4742V8.57112H49.2828V12.6778H52.4742V26.4911H56.792V12.6778H59.9834V8.57112H56.792V2.03778Z" fill="#17313B"/>
<path d="M73.5 21.0778C72.5614 21.8244 71.2473 22.3844 69.9332 22.3844C66.9295 22.3844 64.8644 20.1444 64.8644 17.1578C64.8644 14.1711 66.9295 12.1178 69.9332 12.1178C71.2473 12.1178 72.5614 12.4911 73.5 13.4244L74.0632 13.9844L77.0669 11.1844L76.316 10.6244C74.6264 9.13108 72.3736 8.19775 69.9332 8.19775C64.6767 8.19775 60.7344 12.1178 60.7344 17.3444C60.7344 22.5711 64.6767 26.4911 69.9332 26.4911C72.3736 26.4911 74.6264 25.5578 76.316 24.0644L77.0669 23.5044L74.0632 20.5178L73.5 21.0778Z" fill="#17313B"/>
<path d="M92.273 10.0644C90.9589 8.75777 89.6448 8.19777 87.5798 8.19777C86.0779 8.19777 84.5761 8.5711 83.4497 9.6911V-0.015564H79.1319V26.4911H83.4497V16.5978C83.4497 12.4911 86.2656 12.1178 87.392 12.1178C90.0202 12.1178 89.8325 14.5444 89.8325 15.8511V26.3044H94.1503V16.0378C94.1503 13.6111 93.5871 11.3711 92.273 10.0644Z" fill="#17313B"/>
<path d="M69.7454 20.3311C71.4043 20.3311 72.7491 18.9939 72.7491 17.3444C72.7491 15.6949 71.4043 14.3577 69.7454 14.3577C68.0865 14.3577 66.7417 15.6949 66.7417 17.3444C66.7417 18.9939 68.0865 20.3311 69.7454 20.3311Z" fill="#EF4335"/>
<path d="M18.6828 19.9578C17.181 21.4511 14.9282 22.3845 12.4877 22.3845C7.79448 22.3845 4.41534 18.6511 4.41534 13.6111C4.41534 8.57114 7.79448 4.8378 12.6755 4.8378C14.9282 4.8378 17.181 5.77114 18.8706 7.45114L19.4337 8.01114L22.2497 5.21114L21.6865 4.65114C19.246 2.22447 16.0546 0.917803 12.6755 0.917803C5.54172 0.731136 0.285278 6.33114 0.285278 13.6111C0.285278 20.8911 5.54172 26.4911 12.4877 26.4911C15.8669 26.4911 19.246 25.1845 21.4988 22.7578L22.062 22.1978L19.246 19.3978L18.6828 19.9578Z" fill="#17313B"/>
</svg>
