<svg width="64" height="65" viewBox="0 0 64 65" fill="none" xmlns="http://www.w3.org/2000/svg">
<g clip-path="url(#clip0)">
<path fill-rule="evenodd" clip-rule="evenodd" d="M48.4517 60.566C51.0904 60.566 53.5918 59.6807 55.6182 58.0498L61.9912 64.4229C62.2354 64.667 62.5557 64.7891 62.8755 64.7891C63.1958 64.7891 63.5161 64.667 63.7598 64.4229C64.2486 63.9346 64.2486 63.1426 63.7598 62.6543L57.3863 56.2803C59.0171 54.252 59.9029 51.75 59.9029 49.1143C59.9029 42.8018 54.7656 37.6665 48.4517 37.6665C42.1372 37.6665 37 42.8018 37 49.1143C37 55.4287 42.1372 60.566 48.4517 60.566ZM48.4517 40.168C53.3867 40.168 57.4014 44.1812 57.4014 49.1143C57.4014 51.503 56.4707 53.751 54.7813 55.4439C53.0913 57.1338 50.8433 58.0645 48.4512 58.0645C43.5166 58.0645 39.5015 54.0493 39.5015 49.1143C39.5015 44.1812 43.5166 40.168 48.4517 40.168Z" fill="#7F8284"/>
<path fill-rule="evenodd" clip-rule="evenodd" d="M26.9152 22.4165H28.5899C35.7085 22.4165 41.5 28.2079 41.5 35.3265V36.465C40.6046 36.9596 39.767 37.5461 39 38.2118V35.3265C39 29.5864 34.33 24.9165 28.5901 24.9165H26.8845L21.8326 33.6665C21.6094 34.0533 21.1968 34.2915 20.7501 34.2915C20.3035 34.2915 19.8909 34.0533 19.6676 33.6665L14.6157 24.9165H12.9101C7.17 24.9165 2.5 29.5864 2.5 35.3265V41.4165H26.375H29.25H36.2427C35.745 42.2019 35.3208 43.0385 34.9796 43.9165H29.25H26.375H1.25C0.559625 43.9165 0 43.3568 0 42.6665V35.3265C0 28.2079 5.7915 22.4165 12.9101 22.4165H14.5847C12.9157 20.8019 11.875 18.5415 11.875 16.0415V7.72888C11.875 3.83475 15.0431 0.666504 18.9374 0.666504H30.4202C31.1106 0.666504 31.6702 1.22625 31.6702 1.9165V6.10413C31.6702 8.03788 30.8884 9.79213 29.625 11.0688V16.0415C29.625 18.5415 28.5842 20.8019 26.9152 22.4165ZM18.9374 3.1665C16.4217 3.1665 14.375 5.21313 14.375 7.72888V10.6665H24.6079C27.1235 10.6665 29.1702 8.61988 29.1702 6.10413V3.1665H18.9374ZM14.375 13.1665V16.0415C14.375 19.5566 17.2348 22.4165 20.75 22.4165C24.2652 22.4165 27.125 19.5566 27.125 16.0415V12.7011C26.3425 13.0008 25.4944 13.1665 24.6079 13.1665H14.375ZM17.5024 24.9165L20.75 30.5415L23.9976 24.9165H17.5024Z" fill="#FF6B00"/>
</g>
<defs>
<clipPath id="clip0">
<rect width="64" height="64" fill="white" transform="translate(0 0.666504)"/>
</clipPath>
</defs>
</svg>
