<svg width="64" height="65" viewBox="0 0 64 65" fill="none" xmlns="http://www.w3.org/2000/svg">
<g clip-path="url(#clip0)">
<path d="M62.9339 0.666504C62.9337 0.666504 62.9335 0.666504 62.9333 0.666504H1.06667C0.477733 0.666371 0.000133333 1.1437 0 1.73264C0 1.73277 0 1.73304 0 1.73317V23.0665H2.13333V2.79984H61.8667V26.2665H24.5333V28.3998H62.9333C63.5223 28.4 63.9999 27.9226 64 27.3337C64 27.3336 64 27.3333 64 27.3332V1.73317C64.0001 1.14424 63.5228 0.666637 62.9339 0.666504Z" fill="#FF6B00"/>
<path d="M56.5333 5.99976H35.2V8.13309H56.5333V5.99976Z" fill="#FF6B00"/>
<path d="M59.7333 12.3999H38.4V14.5332H59.7333V12.3999Z" fill="#FF6B00"/>
<path d="M55.4667 18.7998H34.1333V20.9331H55.4667V18.7998Z" fill="#FF6B00"/>
<path d="M34.0483 9.86297C33.318 8.10764 31.3031 7.27671 29.5479 8.00697C29.5179 8.01951 29.488 8.03231 29.4584 8.04564L20.8093 12.5323C21.1504 11.8254 21.3295 11.0512 21.3333 10.2664C21.3333 7.32097 18.9455 4.93311 16 4.93311C13.0545 4.93311 10.6667 7.32097 10.6667 10.2664C10.6707 11.4242 11.0551 12.5486 11.7607 13.4664H11.7163C8.68853 13.4867 5.98573 15.369 4.9168 18.2019L2.06933 28.0164C1.39147 29.7772 2.26933 31.7543 4.03027 32.4322C4.8332 32.7412 5.7232 32.736 6.52253 32.4175C7.44093 32.0475 8.1556 31.3003 8.48453 30.3664L9.6 26.8164V42.2542C8.68213 41.5487 7.55773 41.1643 6.4 41.1602C3.45893 41.1558 1.07107 43.5364 1.06667 46.4776C1.06453 47.918 1.64587 49.2978 2.67827 50.3023C1.03987 51.1394 0.00640003 52.8215 2.79262e-08 54.6612V63.5998C-0.000133305 64.1887 0.4772 64.6663 1.06613 64.6664C1.06627 64.6664 1.06653 64.6664 1.06667 64.6664H11.7333C12.3223 64.6666 12.7999 64.1892 12.8 63.6003C12.8 63.6002 12.8 63.5999 12.8 63.5998V54.6612C12.7948 53.1494 12.0924 51.7246 10.8965 50.7998H18.9703C17.7743 51.7246 17.0719 53.1494 17.0668 54.6612V63.5998C17.0667 64.1887 17.544 64.6663 18.1329 64.6664C18.1331 64.6664 18.1333 64.6664 18.1335 64.6664H28.8001C29.3891 64.6666 29.8667 64.1892 29.8668 63.6003C29.8668 63.6002 29.8668 63.5999 29.8668 63.5998V54.6612C29.8604 52.8215 28.8269 51.1394 27.1885 50.3023C29.2945 48.2467 29.3355 44.873 27.2799 42.767C26.014 41.47 24.1757 40.9054 22.4001 41.268V19.4476L32.1923 14.3632C33.9475 13.6331 34.7784 11.6182 34.0483 9.86297ZM16 7.06644C17.7673 7.06644 19.2 8.49911 19.2 10.2664C19.2 12.0338 17.7673 13.4664 16 13.4664C14.2335 13.4646 12.8019 12.033 12.8 10.2664C12.8 8.49911 14.2327 7.06644 16 7.06644ZM6.4 43.2935C8.16733 43.2935 9.6 44.7262 9.6 46.4935C9.6 48.2608 8.16733 49.6935 6.4 49.6935C4.63267 49.6935 3.2 48.2608 3.2 46.4935C3.20187 44.727 4.63347 43.2955 6.4 43.2935ZM10.6667 62.5331H2.13333V54.6612C2.13547 53.1184 3.38573 51.8683 4.92867 51.8664H7.87133C9.41413 51.8683 10.6645 53.1184 10.6667 54.6612V62.5331ZM27.7333 54.6612V62.5331H19.2V54.6612C19.2021 53.1184 20.4524 51.8683 21.9953 51.8664H24.938C26.4809 51.8683 27.7312 53.1184 27.7333 54.6612ZM23.4667 43.2935C25.2332 43.2954 26.6648 44.727 26.6667 46.4935C26.6667 48.2608 25.234 49.6935 23.4667 49.6935C21.6993 49.6935 20.2667 48.2608 20.2667 46.4935C20.2667 44.7262 21.6993 43.2935 23.4667 43.2935ZM32.0964 11.6424C31.9536 12.0088 31.6604 12.2964 31.2912 12.432L20.8423 17.8528C20.4887 18.0363 20.2667 18.4015 20.2667 18.7998V42.2542C18.2687 43.7315 17.5765 46.4052 18.6069 48.6664H17.0667V30.5331H14.9333V48.6664H11.2597C11.5632 47.9958 11.7231 47.2691 11.7293 46.5331H11.7333V19.8664C11.7332 19.2772 11.2555 18.7998 10.6664 18.7999C10.2007 18.8 9.7888 19.1023 9.64907 19.5467L6.464 29.682C6.22267 30.3476 5.48733 30.6916 4.82173 30.4502C4.77507 30.4332 4.72933 30.4136 4.6848 30.3914C4.06947 30.0734 3.80827 29.331 4.08907 28.6976L6.9364 18.8831C7.70427 16.9111 9.59987 15.609 11.7161 15.5998H19.2688C19.4397 15.6 19.6083 15.5588 19.76 15.48L30.3616 9.97697C30.9976 9.71164 31.7307 9.98311 32.0403 10.5988C32.2044 10.9234 32.2248 11.302 32.0964 11.6424Z" fill="#7F8284"/>
<path d="M44.2551 50.3023C46.3648 48.2469 46.4088 44.8702 44.3533 42.7605C42.2979 40.6507 38.9212 40.6067 36.8115 42.6622C34.7017 44.7177 34.6577 48.0943 36.7132 50.2041C36.7456 50.2373 36.7784 50.2701 36.8116 50.3023C35.1733 51.1394 34.1397 52.8215 34.1333 54.6613V63.5998C34.1332 64.1887 34.6105 64.6663 35.1995 64.6665C35.1996 64.6665 35.1999 64.6665 35.2 64.6665H45.8667C46.4556 64.6666 46.9332 64.1893 46.9333 63.6003C46.9333 63.6002 46.9333 63.5999 46.9333 63.5998V54.6613C46.9269 52.8215 45.8935 51.1394 44.2551 50.3023ZM40.5333 43.2935C42.3007 43.2935 43.7333 44.7262 43.7333 46.4935C43.7333 48.2609 42.3007 49.6935 40.5333 49.6935C38.766 49.6935 37.3333 48.2609 37.3333 46.4935C37.3352 44.727 38.7668 43.2955 40.5333 43.2935ZM44.8 62.5331H36.2667V54.6613C36.2688 53.1185 37.5191 51.8683 39.062 51.8665H42.0047C43.5475 51.8683 44.7979 53.1185 44.8 54.6613V62.5331Z" fill="#7F8284"/>
</g>
<defs>
<clipPath id="clip0">
<rect width="64" height="64" fill="white" transform="translate(0 0.666504)"/>
</clipPath>
</defs>
</svg>
