<svg width="64" height="52" viewBox="0 0 64 52" fill="none" xmlns="http://www.w3.org/2000/svg">
<path d="M3.66895 51.0046C2.01209 51.0046 0.668945 49.6615 0.668945 48.0046L0.668945 34.0046C0.668944 32.3478 2.01209 31.0046 3.66894 31.0046L11.6689 31.0046L11.6689 51.0046L3.66895 51.0046Z" fill="#FF6B00"/>
<path d="M15.5529 14.7564C13.6266 14.1356 12.8551 11.8245 14.0222 10.171L17.669 5.00454L26.2375 10.0068L21.2896 16.6052L15.5529 14.7564Z" fill="#FF6B00"/>
<path d="M25.5735 2.08369L21.7481 5.54253C20.6122 4.87026 19.2882 4.63029 17.9768 4.86938C16.5349 5.13227 15.2816 5.941 14.4478 7.14645L10.9964 12.1369C10.1907 12.1054 9.38144 12.2536 8.61883 12.5814C7.27229 13.1603 6.23174 14.2288 5.68879 15.5905L1.28853 26.6266C0.755226 27.9642 0.769636 29.4217 1.30682 30.7304C0.296604 31.7261 -0.331056 33.1091 -0.331055 34.6363L-0.331055 46.5172C-0.331055 49.543 2.13059 52.0046 5.15636 52.0046L52.2411 52.0046C58.5425 52.0046 63.6689 46.8781 63.6689 40.5768C63.6689 37.7092 62.607 35.0851 60.8561 33.0766C60.8355 33.0478 60.8137 33.0196 60.7895 32.9926L37.6682 7.3007C37.321 6.91501 36.7268 6.88368 36.341 7.23078C35.955 7.57813 35.9238 8.17271 36.2711 8.55802L40.931 13.7361L37.7636 16.5999L31.2623 12.1037L35.7831 8.01607L37.457 9.87587C37.8042 10.2616 38.3984 10.2929 38.7842 9.94579C38.9905 9.76021 39.0954 9.50409 39.0954 9.24696C39.0954 9.02291 39.0158 8.79811 38.8541 8.61842L33.3241 2.47377C32.3411 1.38649 30.9934 0.747302 29.5296 0.673621C28.0658 0.59994 26.6607 1.10066 25.5735 2.08369ZM18.3139 6.71853C19.2619 6.54573 20.2206 6.75249 21.0131 7.3007L24.703 9.85256L20.6852 15.6623L12.971 12.5865L15.9939 8.21569C16.542 7.423 17.3658 6.89133 18.3139 6.71853ZM33.0875 15.6512L30.4008 19.536L22.4766 16.3765L26.2489 10.9218L33.0875 15.6512ZM41.472 21.4499L40.1166 23.4098L32.1922 20.2502L34.6334 16.7205L41.472 21.4499ZM26.4982 20.0034L25.4121 22.727C25.22 23.209 25.4549 23.7557 25.9371 23.948C26.4192 24.1402 26.9658 23.9052 27.1582 23.4231L28.2441 20.6996L36.3411 23.928L34.2594 29.1489L24.8752 29.1489L27.845 21.7008C27.8904 21.5867 27.912 21.4689 27.912 21.3531C27.912 20.9798 27.6879 20.6266 27.32 20.4799C26.8379 20.2876 26.2913 20.5226 26.0989 21.0046L22.8516 29.1489L13.4674 29.1489L18.4011 16.775L26.4982 20.0034ZM20.6327 31.0285L20.6327 47.3357C20.6327 47.8547 21.0535 48.2755 21.5725 48.2755C22.0915 48.2755 22.5123 47.8547 22.5123 47.3357L22.5123 31.0285L31.2292 31.0285L31.2292 50.125L22.5123 50.125L22.5123 45.6792C22.5123 45.1602 22.0915 44.7394 21.5725 44.7394C21.0535 44.7394 20.6327 45.1602 20.6327 45.6792L20.6327 50.125L11.9158 50.125L11.9158 31.0286L20.6327 31.0285ZM33.1088 50.125L33.1088 31.0286L41.8258 31.0286L41.8258 50.125L33.1088 50.125ZM36.2829 29.1489L38.087 24.6241L49.4355 29.1489L36.2829 29.1489ZM47.441 23.2927L48.5936 22.2505L52.9772 27.1215L47.441 23.2927ZM50.009 27.354L41.9079 24.124L43.0178 22.5189L50.009 27.354ZM3.03455 27.3227L7.43481 16.2865C7.79168 15.3914 8.47585 14.6889 9.36114 14.3083C9.96976 14.0466 10.6235 13.9587 11.2634 14.0453C11.2708 14.0468 11.2783 14.0476 11.2857 14.049C11.569 14.089 11.8496 14.163 12.1221 14.2717L16.6551 16.079L11.4439 29.1489L5.15636 29.1489C4.35716 29.1489 3.59793 29.322 2.91238 29.6306C2.69923 28.8765 2.73619 28.0709 3.03455 27.3227ZM1.54854 46.5172L1.54854 34.6363C1.54854 32.6471 3.167 31.0285 5.15636 31.0285L10.0363 31.0285L10.0363 50.125L5.15636 50.125C3.167 50.125 1.54854 48.5066 1.54854 46.5172ZM52.2411 50.125L43.7054 50.125L43.7054 31.0286L52.2411 31.0286C57.5061 31.0286 61.7893 35.3119 61.7893 40.5768C61.7893 45.8417 57.506 50.125 52.2411 50.125ZM42.1884 15.1332L47.3361 20.8533L45.8529 22.1945L39.3516 17.6982L42.1884 15.1332ZM29.4351 2.55083C30.3976 2.5992 31.2835 3.01948 31.9285 3.73285L34.5258 6.61891L29.6743 11.0055L23.348 6.63031L26.8341 3.4781C27.549 2.83164 28.4726 2.50234 29.4351 2.55083Z" fill="#7F8284"/>
<path d="M47.7688 40.4588C47.7688 42.9439 49.7905 44.9656 52.2755 44.9656C54.7606 44.9656 56.7823 42.9439 56.7823 40.4588C56.7823 37.9737 54.7606 35.952 52.2755 35.952C49.7905 35.952 47.7688 37.9737 47.7688 40.4588ZM54.9028 40.4588C54.9028 41.9075 53.7243 43.086 52.2757 43.086C50.827 43.086 49.6485 41.9075 49.6485 40.4588C49.6485 39.0101 50.827 37.8316 52.2757 37.8316C53.7243 37.8316 54.9028 39.0101 54.9028 40.4588Z" fill="#7F8284"/>
</svg>
