<svg width="68" height="69" viewBox="0 0 68 69" fill="none" xmlns="http://www.w3.org/2000/svg">
<g clip-path="url(#clip0)">
<path d="M62.87 40.4954C62.5805 40.0958 62.0218 40.0064 61.6222 40.2961C61.2226 40.5857 61.1333 41.1442 61.4229 41.5439C63.2481 44.0631 64.213 47.0447 64.213 50.1665C64.213 58.2794 57.6128 64.8795 49.5 64.8795C41.3872 64.8795 34.787 58.2794 34.787 50.1665C34.787 42.0536 41.3872 35.4535 49.5 35.4535C52.9667 35.4535 56.333 36.6823 58.9789 38.9134C59.3562 39.2316 59.9198 39.1835 60.2379 38.8064C60.556 38.4291 60.5081 37.8655 60.1309 37.5474C57.1631 35.0446 53.3877 33.6665 49.5 33.6665C40.4019 33.6665 33 41.0684 33 50.1665C33 59.2646 40.4019 66.6665 49.5 66.6665C58.5981 66.6665 66 59.2646 66 50.1665C66 46.6656 64.9177 43.3214 62.87 40.4954Z" fill="#7F8284"/>
<path d="M43.9468 12.2636C49.5014 12.2636 54.109 16.3955 54.8574 21.7472L54.093 21.1826C53.6505 20.8555 53.0269 20.9492 52.7 21.3919C52.3731 21.8344 52.4669 22.458 52.9094 22.7848L55.368 24.6009C55.5404 24.7284 55.7481 24.7959 55.9598 24.7959C56.0116 24.7959 56.0636 24.7919 56.1154 24.7837C56.3789 24.7421 56.6146 24.5964 56.7699 24.3794L58.653 21.748C58.9732 21.3006 58.87 20.6784 58.4227 20.3582C57.9753 20.0381 57.3532 20.1412 57.033 20.5886L56.7525 20.9806C55.6635 14.9004 50.3356 10.2712 43.947 10.2712C43.3969 10.2712 42.9509 10.7171 42.9509 11.2673C42.9509 11.8176 43.3966 12.2636 43.9468 12.2636Z" fill="#7F8284"/>
<path d="M20.8977 55.3885C20.5706 54.9458 19.9469 54.8522 19.5046 55.1792C19.0621 55.506 18.9683 56.1296 19.2952 56.5721L19.8598 57.3364C14.5081 56.588 10.3762 51.9805 10.3762 46.426C10.3762 45.8758 9.93018 45.4299 9.38007 45.4299C8.82996 45.4299 8.38397 45.8758 8.38397 46.426C8.38397 52.8147 13.013 58.1425 19.0932 59.2314L18.7013 59.5119C18.2539 59.8321 18.1507 60.4543 18.471 60.9017C18.6654 61.1735 18.9714 61.3183 19.2818 61.3183C19.4825 61.3183 19.685 61.2577 19.8606 61.1322L22.4921 59.2491C22.709 59.0938 22.8547 58.8581 22.8963 58.5944C22.9378 58.3308 22.8721 58.0616 22.7136 57.8471L20.8977 55.3885Z" fill="#7F8284"/>
<path d="M58.0995 47.3924C58.1003 47.8354 58.0026 48.2726 57.8143 48.6688L53.9252 56.1348L50.8375 46.644H52.3091V44.6402H46.6052V46.644H48.8278L49.711 49.3581L46.2154 56.3011L43.0745 46.644H44.7039V44.6402H39V46.644H41.0648L44.9758 58.6665H47.1756L50.5542 51.9539L52.7407 58.6665H54.7741L59.3373 49.9301L59.5103 49.5654C60.652 47.163 59.7295 44.24 57.4499 43.0368C57.1473 42.877 56.8289 42.7529 56.5005 42.6665L56.0395 44.6101C57.2511 44.9287 58.1008 46.0763 58.0995 47.3924Z" fill="#7F8284"/>
<path d="M33.9997 8.67716C33.9996 8.67417 33.9996 8.67125 33.9995 8.66833C33.999 8.65006 33.9979 8.63401 33.9963 8.62026C33.9776 8.42669 33.8858 8.24272 33.7316 8.11065L25.2539 0.851147C25.131 0.745877 24.9808 0.686139 24.826 0.671551C24.8085 0.668402 24.7855 0.66656 24.7545 0.66656H8.27028C7.19132 0.66656 6.31345 1.5432 6.31345 2.6207V10.1501C6.31345 10.5741 6.65721 10.9179 7.08129 10.9179C7.50536 10.9179 7.84912 10.5741 7.84912 10.1501V2.6207C7.84912 2.38997 8.03801 2.20223 8.27028 2.20223H23.9867V6.54757C23.9867 8.1545 25.296 9.46173 26.9056 9.46173H32.4644V29.5585C32.4644 29.7893 32.2755 29.9771 32.0433 29.9771H27.2414V21.006C27.2414 19.7593 26.2256 18.745 24.9769 18.745H7.84912V10.4488C7.84912 10.0248 7.50536 9.681 7.08129 9.681C6.65721 9.681 6.31345 10.0248 6.31345 10.4488V18.745H2.2622C1.01477 18.745 0 19.7593 0 21.006V31.1237C0 32.3692 1.01485 33.3826 2.2622 33.3826H24.977C26.0926 33.3826 27.0216 32.5734 27.2071 31.5127H32.0432C33.1222 31.5127 34 30.6361 34 29.5585V8.6939C34 8.68783 33.9998 8.68277 33.9997 8.67716ZM26.9055 7.92606C26.1428 7.92606 25.5222 7.30765 25.5222 6.54757V3.10283L31.1549 7.92606H26.9055ZM25.7057 31.1237C25.7057 31.5224 25.3788 31.8469 24.9769 31.8469H2.2622C1.86154 31.8469 1.53567 31.5224 1.53567 31.1237V21.006C1.53567 20.6061 1.86162 20.2807 2.2622 20.2807H24.977C25.3721 20.2807 25.7058 20.6128 25.7058 21.006L25.7057 31.1237Z" fill="#FF6B00"/>
<path d="M15.2159 29.104L15.6297 26.7145L16.3149 29.135C16.3169 29.1421 16.319 29.1491 16.3212 29.1562C16.4191 29.4621 16.6912 29.6665 16.9997 29.6665H17.0058C17.3159 29.6638 17.5869 29.4546 17.6801 29.146C17.6818 29.1405 17.6834 29.1349 17.6849 29.1294L18.3458 26.7135L18.7852 29.1103C18.8487 29.457 19.1697 29.6843 19.5021 29.618C19.8346 29.5517 20.0525 29.217 19.989 28.8704L19.1458 24.2709C19.1454 24.2684 19.1449 24.266 19.1445 24.2636C19.0795 23.9306 18.8067 23.6854 18.481 23.6675C18.1567 23.6498 17.861 23.8627 17.7632 24.1857C17.7614 24.1914 17.7598 24.1972 17.7582 24.2029L16.9908 27.0082L16.1951 24.1973C16.1931 24.1902 16.191 24.1832 16.1888 24.1762C16.0864 23.856 15.7893 23.6473 15.466 23.6682C15.1424 23.6892 14.8719 23.9356 14.8083 24.2675C14.8076 24.2714 14.8069 24.2753 14.8062 24.2792L14.0099 28.8769C13.9497 29.2241 14.171 29.5565 14.5039 29.6192C14.8367 29.6818 15.1558 29.4513 15.2159 29.104Z" fill="#FF6B00"/>
<path d="M21.654 23.6665C21.2928 23.6665 21 23.9526 21 24.3055V29.0231C21 29.3343 21.2293 29.6001 21.543 29.6529C21.5897 29.6608 21.6238 29.6665 22.1658 29.6665C22.4251 29.6665 22.8008 29.6652 23.3498 29.6622C23.7109 29.6602 24.0021 29.3724 24 29.0195C23.998 28.6678 23.7056 28.3841 23.3461 28.3841C23.3448 28.3841 23.3436 28.3841 23.3423 28.3841C23.0269 28.3858 22.6326 28.3874 22.3079 28.388V24.3055C22.3079 23.9526 22.0151 23.6665 21.654 23.6665Z" fill="#FF6B00"/>
<path d="M7.29731 23.6665C6.90921 23.6665 6.59462 23.9526 6.59462 24.3056V25.9458H4.40538V24.3056C4.40538 23.9526 4.09079 23.6665 3.70269 23.6665C3.31459 23.6665 3 23.9526 3 24.3056V29.0274C3 29.3804 3.31459 29.6665 3.70269 29.6665C4.09079 29.6665 4.40538 29.3804 4.40538 29.0274V27.224H6.59462V29.0274C6.59462 29.3804 6.90921 29.6665 7.29731 29.6665C7.6854 29.6665 8 29.3804 8 29.0274V24.3056C8 23.9526 7.6854 23.6665 7.29731 23.6665Z" fill="#FF6B00"/>
<path d="M10.9954 29.6665C11.3586 29.6665 11.653 29.3804 11.653 29.0274V24.9447H12.3424C12.7056 24.9447 13 24.6586 13 24.3056C13 23.9526 12.7056 23.6665 12.3424 23.6665H9.6576C9.29441 23.6665 9 23.9526 9 24.3056C9 24.6586 9.29441 24.9447 9.6576 24.9447H10.3378V29.0274C10.3378 29.3804 10.6322 29.6665 10.9954 29.6665Z" fill="#FF6B00"/>
</g>
<defs>
<clipPath id="clip0">
<rect width="68" height="68" fill="white" transform="translate(0 0.666504)"/>
</clipPath>
</defs>
</svg>
