<svg width="68" height="69" viewBox="0 0 68 69" fill="none" xmlns="http://www.w3.org/2000/svg">
<g clip-path="url(#clip0)">
<path d="M62.87 40.4954C62.5805 40.0958 62.0218 40.0064 61.6222 40.2961C61.2226 40.5857 61.1333 41.1442 61.4229 41.5439C63.2481 44.0631 64.213 47.0447 64.213 50.1665C64.213 58.2794 57.6128 64.8795 49.5 64.8795C41.3872 64.8795 34.787 58.2794 34.787 50.1665C34.787 42.0536 41.3872 35.4535 49.5 35.4535C52.9667 35.4535 56.333 36.6823 58.9789 38.9134C59.3562 39.2316 59.9198 39.1835 60.2379 38.8064C60.556 38.4291 60.5081 37.8655 60.1309 37.5474C57.1631 35.0446 53.3877 33.6665 49.5 33.6665C40.4019 33.6665 33 41.0684 33 50.1665C33 59.2646 40.4019 66.6665 49.5 66.6665C58.5981 66.6665 66 59.2646 66 50.1665C66 46.6656 64.9177 43.3214 62.87 40.4954Z" fill="#7F8284"/>
<path d="M43.9468 12.2636C49.5014 12.2636 54.109 16.3955 54.8574 21.7472L54.093 21.1826C53.6505 20.8555 53.0269 20.9492 52.7 21.3919C52.3731 21.8344 52.4669 22.458 52.9094 22.7848L55.368 24.6009C55.5404 24.7284 55.7481 24.7959 55.9598 24.7959C56.0116 24.7959 56.0636 24.7919 56.1154 24.7837C56.3789 24.7421 56.6146 24.5964 56.7699 24.3794L58.653 21.748C58.9732 21.3006 58.87 20.6784 58.4227 20.3582C57.9753 20.0381 57.3532 20.1412 57.033 20.5886L56.7525 20.9806C55.6635 14.9004 50.3356 10.2712 43.947 10.2712C43.3969 10.2712 42.9509 10.7171 42.9509 11.2673C42.9509 11.8176 43.3966 12.2636 43.9468 12.2636Z" fill="#7F8284"/>
<path d="M20.8977 55.3885C20.5706 54.9458 19.9469 54.8522 19.5046 55.1792C19.0621 55.506 18.9683 56.1296 19.2952 56.5721L19.8597 57.3364C14.5081 56.588 10.3761 51.9805 10.3761 46.426C10.3761 45.8758 9.93015 45.4299 9.38004 45.4299C8.82993 45.4299 8.38394 45.8758 8.38394 46.426C8.38394 52.8147 13.013 58.1425 19.0931 59.2314L18.7012 59.5119C18.2539 59.8321 18.1507 60.4543 18.4709 60.9017C18.6654 61.1735 18.9714 61.3183 19.2817 61.3183C19.4824 61.3183 19.685 61.2577 19.8605 61.1322L22.4921 59.2491C22.709 59.0938 22.8547 58.8581 22.8962 58.5944C22.9378 58.3308 22.8721 58.0616 22.7136 57.8471L20.8977 55.3885Z" fill="#7F8284"/>
<path d="M58.0995 47.3924C58.1003 47.8354 58.0026 48.2726 57.8143 48.6688L53.9252 56.1348L50.8375 46.644H52.3091V44.6402H46.6052V46.644H48.8278L49.711 49.3581L46.2154 56.3011L43.0745 46.644H44.7039V44.6402H39V46.644H41.0648L44.9758 58.6665H47.1756L50.5542 51.9539L52.7407 58.6665H54.7741L59.3373 49.9301L59.5103 49.5654C60.652 47.163 59.7295 44.24 57.4499 43.0368C57.1473 42.877 56.8289 42.7529 56.5005 42.6665L56.0395 44.6101C57.2511 44.9287 58.1008 46.0763 58.0995 47.3924Z" fill="#7F8284"/>
<path d="M33.9997 8.67716C33.9996 8.67417 33.9996 8.67125 33.9995 8.66833C33.999 8.65006 33.9979 8.63401 33.9963 8.62026C33.9776 8.42669 33.8858 8.24272 33.7316 8.11065L25.2539 0.851147C25.131 0.745877 24.9808 0.686139 24.826 0.671551C24.8085 0.668402 24.7855 0.66656 24.7545 0.66656H8.27028C7.19132 0.66656 6.31345 1.5432 6.31345 2.6207V10.1501C6.31345 10.5741 6.65721 10.9179 7.08129 10.9179C7.50536 10.9179 7.84912 10.5741 7.84912 10.1501V2.6207C7.84912 2.38997 8.03801 2.20223 8.27028 2.20223H23.9867V6.54757C23.9867 8.1545 25.296 9.46173 26.9056 9.46173H32.4644V29.5585C32.4644 29.7893 32.2755 29.9771 32.0433 29.9771H27.2414V21.006C27.2414 19.7593 26.2256 18.745 24.9769 18.745H7.84912V10.4488C7.84912 10.0248 7.50536 9.681 7.08129 9.681C6.65721 9.681 6.31345 10.0248 6.31345 10.4488V18.745H2.2622C1.01477 18.745 0 19.7593 0 21.006V31.1237C0 32.3692 1.01485 33.3826 2.2622 33.3826H24.977C26.0926 33.3826 27.0216 32.5734 27.2071 31.5127H32.0432C33.1222 31.5127 34 30.6361 34 29.5585V8.6939C34 8.68783 33.9998 8.68277 33.9997 8.67716ZM26.9055 7.92606C26.1428 7.92606 25.5222 7.30765 25.5222 6.54757V3.10283L31.1549 7.92606H26.9055ZM25.7057 31.1237C25.7057 31.5224 25.3788 31.8469 24.9769 31.8469H2.2622C1.86154 31.8469 1.53567 31.5224 1.53567 31.1237V21.006C1.53567 20.6061 1.86162 20.2807 2.2622 20.2807H24.977C25.3721 20.2807 25.7058 20.6128 25.7058 21.006L25.7057 31.1237Z" fill="#FF6B00"/>
<path d="M6.44828 21.6665H3.85356C3.38611 21.6665 3.00719 22.0488 3.00719 22.5203V26.254C3.00237 26.2907 3 26.3281 3 26.3661C3 26.4041 3.00246 26.4415 3.00719 26.4782V29.8127C3.00719 30.2842 3.38611 30.6665 3.85356 30.6665C4.32101 30.6665 4.69993 30.2842 4.69993 29.8127V27.2198H6.28231C8.0475 27.2198 9 25.7525 9 24.3718C9 23.0275 8.12358 21.6665 6.44828 21.6665ZM6.28231 25.5123H4.69993V23.374H6.44828C7.26596 23.374 7.30734 24.2052 7.30734 24.3718C7.30726 24.4885 7.27857 25.5123 6.28231 25.5123Z" fill="#FF6B00"/>
<path d="M13.6755 25.3139H13.3245C12.8585 25.3139 12.4795 24.8782 12.4795 24.3428C12.4795 23.8086 12.8586 23.374 13.3245 23.374H15.1888C15.5974 23.374 15.9285 22.9917 15.9285 22.5203C15.9285 22.0488 15.5974 21.6665 15.1888 21.6665H13.3245C12.0427 21.6665 11 22.8671 11 24.3428C11 25.8198 12.0428 27.0214 13.3245 27.0214H13.6755C14.1415 27.0214 14.5205 27.456 14.5205 27.9902C14.5205 28.5244 14.1415 28.959 13.6755 28.959H11.7397C11.3312 28.959 11 29.3413 11 29.8128C11 30.2842 11.3312 30.6665 11.7397 30.6665H13.6755C14.9573 30.6665 16 29.4659 16 27.9902C16 26.5145 14.9573 25.3139 13.6755 25.3139Z" fill="#FF6B00"/>
<path d="M20.2593 21.6665H18.7713C18.3453 21.6665 18 22.0488 18 22.5203V29.8127C18 30.2842 18.3453 30.6665 18.7713 30.6665H20.2593C22.3219 30.6665 24 28.8123 24 26.5332V25.8022C24 23.5217 22.3219 21.6665 20.2593 21.6665ZM22.4574 26.5332C22.4574 27.8708 21.4714 28.959 20.2593 28.959H19.5426V23.374H20.2593C21.4713 23.374 22.4574 24.4633 22.4574 25.8022V26.5332Z" fill="#FF6B00"/>
</g>
<defs>
<clipPath id="clip0">
<rect width="68" height="68" fill="white" transform="translate(0 0.666504)"/>
</clipPath>
</defs>
</svg>
