<svg width="64" height="65" viewBox="0 0 64 65" fill="none" xmlns="http://www.w3.org/2000/svg">
<g clip-path="url(#clip0)">
<path d="M59.9927 16.6665H43.1655C40.9623 16.6792 39.1584 18.457 39.1455 20.6284L39.1327 22.1776H39.1198C36.2336 22.1903 33.9016 24.5141 33.9144 27.3586C33.9273 30.1395 36.2336 32.4252 39.0425 32.476L38.9909 39.6633H32.7033C32.7162 39.2824 32.7033 38.9014 32.6389 38.5332C32.2523 36.2602 30.3454 34.5205 28.0262 34.2919C26.5703 34.1395 25.1143 34.6221 24.032 35.5998C22.9368 36.5776 22.3184 37.9744 22.3184 39.4221C22.3184 39.4982 22.3184 39.5871 22.3184 39.6633H19.02C16.8038 39.676 15 41.4538 15 43.6506V60.5141C15 62.6982 16.8038 64.4887 19.02 64.5014H39.1455L59.8123 64.6665H59.838C59.838 64.6665 59.838 64.6665 59.8509 64.6665C60.9075 64.6665 61.9124 64.2602 62.6597 63.5237C63.4199 62.7871 63.858 61.7586 63.8709 60.7046L63.9997 41.5173V20.6538C64.0255 18.457 62.2217 16.6792 59.9927 16.6665ZM39.4805 55.384C39.4032 55.384 39.3259 55.384 39.2615 55.3967C39.0554 55.4348 38.8492 55.4475 38.6559 55.4475C37.7411 55.4475 36.8779 55.0792 36.2465 54.4443C35.6152 53.8094 35.2544 52.9586 35.2544 52.0443C35.2544 51.13 35.6281 50.2919 36.2723 49.6697C36.9165 49.0475 37.7669 48.6919 38.6817 48.6919C38.6946 48.6919 38.6946 48.6919 38.7075 48.6919C38.9136 48.6919 39.1198 48.7173 39.3259 48.7554C39.983 48.8824 40.6273 48.4633 40.7561 47.803C40.769 47.7268 40.7819 47.6633 40.7819 47.5871L40.8334 41.4411L47.1082 41.4919C47.0953 41.8729 47.1082 42.2538 47.1726 42.6348C47.5591 44.9078 49.466 46.6475 51.7852 46.876C51.9656 46.8887 52.146 46.9014 52.3135 46.9014C53.6019 46.9014 54.826 46.4316 55.7794 45.5681C56.8746 44.5903 57.4931 43.1935 57.4931 41.7459C57.4931 41.6697 57.4931 41.5808 57.4931 41.5046H62.2346L62.1057 60.6792C62.1057 61.2633 61.8609 61.8348 61.4357 62.2411C61.0234 62.6475 60.4694 62.8633 59.8896 62.8633L40.6659 62.711L40.7174 56.5649C40.6917 55.93 40.1505 55.384 39.4805 55.384ZM24.1866 40.0189C23.9676 38.8633 24.367 37.6951 25.2561 36.8951C25.9647 36.2602 26.9182 35.9427 27.8587 36.0443C29.3791 36.1967 30.616 37.3395 30.8737 38.8252C30.9381 39.2189 30.9381 39.6252 30.8737 40.0189C30.8093 40.3744 30.8995 40.73 31.1314 41.0094C31.3633 41.276 31.6983 41.4411 32.0591 41.4411H39.0038L38.9652 46.9268C36.2208 46.7744 33.7856 48.8189 33.515 51.5236C33.3604 52.9713 33.8371 54.4316 34.8164 55.5109C35.7827 56.5776 37.1871 57.1998 38.643 57.2125C38.7204 57.2125 38.8105 57.2125 38.8878 57.2125L38.8492 62.711H19.0328C17.8088 62.6983 16.8038 61.7078 16.8167 60.5014V43.6379C16.8167 42.4316 17.8088 41.4411 19.0328 41.4284H23.0013C23.362 41.4284 23.697 41.276 23.929 40.9967C24.1609 40.73 24.2511 40.3744 24.1866 40.0189ZM40.0603 23.8157L40.0861 23.9427C40.099 23.9427 40.1119 23.9427 40.1248 23.9427C40.1376 23.9427 40.1505 23.9427 40.1634 23.9427L40.1376 23.8157L40.1763 23.9427C40.1892 23.9427 40.2021 23.9427 40.215 23.93C40.2278 23.93 40.2407 23.93 40.2536 23.9173L40.215 23.7903L40.2665 23.9046C40.2794 23.9046 40.2923 23.9046 40.3051 23.8919L40.3438 23.8792C40.3567 23.8792 40.3696 23.8665 40.3953 23.8665L40.4469 23.8411C40.4598 23.8411 40.4598 23.8284 40.4726 23.8284C40.4855 23.8284 40.4984 23.8157 40.5113 23.803L40.4469 23.7014L40.5371 23.803C40.55 23.803 40.5499 23.7903 40.5628 23.7903C40.5757 23.7776 40.5886 23.7776 40.6015 23.7522C40.6144 23.7522 40.6144 23.7395 40.6273 23.7395C40.6401 23.7268 40.653 23.7268 40.653 23.7141L40.5628 23.6252L40.6659 23.7014C40.6788 23.6887 40.6788 23.6887 40.6917 23.676C40.7046 23.6633 40.7046 23.6633 40.7174 23.6506L40.7303 23.6379C40.7303 23.6252 40.7432 23.6252 40.7432 23.6125C40.7561 23.5998 40.7561 23.5998 40.769 23.5871L40.653 23.5109L40.769 23.5744C40.7819 23.5617 40.7819 23.5617 40.7819 23.549C40.7819 23.5363 40.7948 23.5363 40.7948 23.5236L40.8076 23.5109C40.8205 23.4982 40.8205 23.4856 40.8334 23.4729L40.8463 23.4475L40.7303 23.3967L40.8592 23.4348C40.8592 23.4221 40.8721 23.4094 40.8721 23.3967C40.8721 23.384 40.8849 23.3713 40.8849 23.3459L40.8978 23.3205C40.8978 23.3078 40.9107 23.2951 40.9107 23.2824V23.2697C40.9107 23.257 40.9236 23.2443 40.9236 23.2316C40.9236 23.2189 40.9236 23.2062 40.9365 23.1808C40.9365 23.1681 40.9365 23.1554 40.9365 23.1427C40.9365 23.13 40.9365 23.1173 40.9365 23.1046V23.0919C40.9365 23.0792 40.9365 23.0792 40.9365 23.0665L40.9494 20.6411C40.9494 19.4475 41.9544 18.457 43.1655 18.4443H59.9927C61.2167 18.457 62.2217 19.4475 62.2088 20.6538V39.7268H56.7973C56.4365 39.7268 56.1015 39.8792 55.8696 40.1586C55.6377 40.4379 55.5346 40.7935 55.6119 41.149C55.831 42.3046 55.4315 43.4729 54.5425 44.2729C53.8339 44.9078 52.8933 45.2125 51.9398 45.1236C50.4195 44.9713 49.1826 43.8284 48.9249 42.3554C48.8605 41.9617 48.8605 41.5554 48.9249 41.1617C48.9893 40.8062 48.8991 40.4506 48.6672 40.1713C48.4353 39.9046 48.1003 39.7395 47.7395 39.7395L40.8076 39.6887L40.8592 31.6252C40.8592 31.6125 40.8592 31.5998 40.8592 31.5871C40.8592 31.5744 40.8592 31.549 40.8592 31.5363C40.8592 31.5236 40.8592 31.5109 40.8592 31.4982V31.4856C40.8592 31.4729 40.8592 31.4602 40.8592 31.4475C40.8592 31.4348 40.8592 31.4221 40.8463 31.4094V31.384C40.8463 31.3713 40.8463 31.3586 40.8334 31.3586L40.8205 31.3205C40.8205 31.3078 40.8076 31.2951 40.8076 31.2824C40.8076 31.2697 40.7948 31.257 40.7948 31.257L40.7819 31.2316C40.7819 31.2189 40.769 31.2189 40.769 31.2062C40.769 31.1935 40.7561 31.1808 40.7561 31.1808L40.7432 31.1681C40.7432 31.1554 40.7303 31.1554 40.7303 31.1427C40.7174 31.13 40.7174 31.1173 40.7046 31.1046L40.6015 31.1808L40.7046 31.0919C40.7046 31.0792 40.6917 31.0792 40.6917 31.0665C40.6788 31.0538 40.6788 31.0538 40.6659 31.0411L40.5757 31.13L40.653 31.0284C40.6401 31.0157 40.6401 31.0157 40.6273 31.003L40.6015 30.9776L40.5113 31.0665L40.5886 30.9649C40.5757 30.9522 40.5757 30.9522 40.5628 30.9395C40.5499 30.9268 40.55 30.9268 40.5371 30.9141L40.4598 31.0157L40.5242 30.9014C40.5113 30.8887 40.5113 30.8887 40.4984 30.876C40.4855 30.8633 40.4855 30.8633 40.4726 30.8633L40.4082 30.9776L40.4598 30.8633C40.4469 30.8506 40.434 30.8506 40.434 30.8506C40.4211 30.8506 40.4082 30.8379 40.4082 30.8379L40.3953 30.8252C40.3825 30.8252 40.3696 30.8125 40.3567 30.8125L40.3309 30.7998C40.318 30.7998 40.3051 30.7871 40.2794 30.7871C40.2665 30.7871 40.2536 30.7871 40.2536 30.7744L40.215 30.8887L40.2407 30.7617C40.2278 30.7617 40.215 30.7617 40.2021 30.749C40.1892 30.749 40.1763 30.749 40.1634 30.749H40.1376C40.1248 30.749 40.1119 30.749 40.099 30.749C40.0861 30.749 40.0732 30.749 40.0603 30.749L40.0475 30.876V30.749C40.0346 30.749 40.0217 30.749 40.0088 30.749L39.1584 30.7363C38.2436 30.7236 37.3804 30.3681 36.749 29.7205C36.1048 29.0729 35.7569 28.2221 35.7698 27.3205C35.7827 25.4919 37.3159 23.9935 39.1713 23.9808L40.0732 23.9681C40.0861 23.9681 40.099 23.9681 40.099 23.9681L40.0603 23.8157Z" fill="#7F8284"/>
<path d="M29.2009 10.6585L25.8384 8.59599C27.3509 6.35849 26.8634 3.34599 24.7009 1.69599C23.5634 0.833489 22.1134 0.483489 20.7134 0.758489C19.3134 1.03349 18.0884 1.88349 17.3509 3.10849C17.3134 3.17099 17.2759 3.24599 17.2384 3.30849L14.5009 1.63349C13.6134 1.09599 12.5759 0.920989 11.5634 1.17099C10.5509 1.40849 9.70091 2.03349 9.15092 2.92099L0.563416 17.1335C-0.549083 18.971 0.0384163 21.396 1.86342 22.521L4.32592 24.0335C4.85091 24.3585 5.55091 24.196 5.87591 23.6585C5.90091 23.621 5.91341 23.596 5.92591 23.5585C6.26341 22.8585 6.85091 22.3335 7.58841 22.071C8.32591 21.8085 9.11341 21.8585 9.81341 22.196C10.5134 22.5335 11.0384 23.121 11.3009 23.8585C11.5634 24.596 11.5134 25.3835 11.1759 26.0835C11.0884 26.2585 10.9884 26.421 10.8759 26.5835C10.5009 27.071 10.5884 27.7835 11.0884 28.1585C11.1134 28.1835 11.1509 28.2085 11.1884 28.221L16.4509 31.4585C17.0634 31.8335 17.7634 32.0335 18.4759 32.0335C18.4759 32.0335 18.4759 32.0335 18.4884 32.0335C19.8384 32.0335 21.1009 31.321 21.8134 30.1835L23.6134 27.2585C23.7759 26.996 23.8259 26.671 23.7634 26.371C23.6884 26.0585 23.5009 25.8085 23.2384 25.6335C23.2009 25.6085 23.1634 25.5835 23.1259 25.571C21.4634 24.7835 20.7384 22.796 21.5259 21.1335C22.3009 19.4835 24.2759 18.7585 25.9259 19.521C26.1634 19.6335 26.3759 19.771 26.5759 19.9335C26.8259 20.1335 27.1259 20.221 27.4384 20.1835C27.7509 20.146 28.0259 19.996 28.2259 19.746C28.2509 19.7085 28.2884 19.671 28.3134 19.6335L30.5009 16.0835C31.6134 14.2335 31.0384 11.796 29.2009 10.6585ZM20.4884 19.4335C18.7759 21.671 19.1884 24.8835 21.4259 26.596C21.5384 26.6835 21.6634 26.771 21.7884 26.846L20.3009 29.2585C19.6884 30.2585 18.3634 30.5835 17.3509 29.971L12.6259 27.071C13.0509 26.2835 13.2509 25.4085 13.2009 24.521C13.1134 23.271 12.5634 22.1335 11.6259 21.321C10.6884 20.496 9.48841 20.096 8.23841 20.171C6.81342 20.2585 5.48841 21.021 4.67592 22.2085L2.76342 21.0335C1.75092 20.4085 1.42592 19.0585 2.03842 18.046L10.6384 3.85849C10.9384 3.37099 11.4009 3.02099 11.9509 2.88349C12.5009 2.74599 13.0759 2.83349 13.5759 3.12099L16.8759 5.14599C17.1759 5.33349 17.5384 5.37099 17.8634 5.25849C18.2009 5.14599 18.4634 4.89599 18.5884 4.55849C19.0009 3.48349 19.9134 2.70849 21.0509 2.48349C21.9634 2.30849 22.9134 2.53349 23.6509 3.09599C24.3634 3.63349 24.8134 4.42099 24.9384 5.30849C25.0634 6.19599 24.8259 7.07099 24.2759 7.78349C24.2259 7.84599 24.1759 7.90849 24.1134 7.97099C23.8759 8.23349 23.7759 8.57099 23.8259 8.92099C23.8759 9.27099 24.0759 9.57099 24.3759 9.75849L28.2759 12.146C29.3009 12.7835 29.6134 14.121 28.9884 15.146L27.1134 18.1835C26.9634 18.096 26.8009 18.0085 26.6384 17.9335C24.4884 16.9335 21.9509 17.546 20.4884 19.4335Z" fill="#FF6B00"/>
</g>
<defs>
<clipPath id="clip0">
<rect width="64" height="64" fill="white" transform="translate(0 0.666504)"/>
</clipPath>
</defs>
</svg>
