<?xml version="1.0" standalone="no"?>
<!DOCTYPE svg PUBLIC "-//W3C//DTD SVG 20010904//EN"
 "http://www.w3.org/TR/2001/REC-SVG-20010904/DTD/svg10.dtd">
<svg version="1.0" xmlns="http://www.w3.org/2000/svg"
 width="539.000000pt" height="532.000000pt" viewBox="0 0 539.000000 532.000000"
 preserveAspectRatio="xMidYMid meet">

<g transform="translate(0.000000,532.000000) scale(0.100000,-0.100000)"
fill="#000000" stroke="none">
<path d="M566 5085 c4 -8 7 -15 9 -15 2 0 5 7 9 15 3 9 0 15 -9 15 -9 0 -12
-6 -9 -15z"/>
<path d="M955 5093 c11 -2 29 -8 40 -13 25 -12 58 -7 63 8 2 8 -16 12 -60 11
-34 -1 -54 -3 -43 -6z"/>
<path d="M4327 4998 c0 -57 4 -154 8 -215 6 -96 4 -120 -11 -163 -17 -47 -17
-53 -2 -83 12 -22 19 -71 23 -162 3 -71 12 -209 20 -305 9 -112 16 -400 20
-800 5 -603 6 -626 25 -652 22 -30 26 -88 9 -120 -8 -15 -8 -26 1 -44 14 -26
6 -164 -11 -197 -17 -30 -3 -47 36 -47 20 0 46 -5 57 -11 19 -10 20 -9 14 17
-11 46 -28 403 -22 469 3 33 6 67 6 76 1 9 -11 29 -26 44 l-27 27 7 561 c4
309 8 589 11 622 2 33 7 114 10 180 4 66 9 127 10 135 2 8 6 121 10 250 4 129
10 295 13 368 4 72 6 137 4 142 -2 6 -43 10 -95 10 l-92 0 2 -102z"/>
<path d="M1165 5050 c-18 -20 -5 -37 35 -42 14 -2 30 -6 35 -10 6 -3 19 -2 30
3 19 7 19 8 -2 8 -12 1 -36 14 -52 30 -28 27 -31 28 -46 11z"/>
<path d="M1290 4763 c0 -3 7 -15 17 -25 15 -17 14 -19 -10 -42 -32 -29 -34
-47 -9 -69 29 -26 39 -21 52 31 23 84 16 112 -26 112 -13 0 -24 -3 -24 -7z"/>
<path d="M5034 4591 c-28 -14 -70 -34 -95 -45 -24 -10 -57 -24 -74 -31 -16 -8
-41 -16 -55 -20 -71 -18 -130 -48 -130 -66 0 -27 12 -29 50 -12 110 50 146 65
170 68 24 3 65 17 70 24 8 11 98 51 115 51 10 0 15 10 15 30 0 35 0 35 -66 1z"/>
<path d="M1512 4522 c-26 -8 -7 -242 19 -242 5 0 9 8 9 17 0 13 3 14 12 5 8
-8 6 -16 -11 -29 -33 -28 -51 -133 -41 -243 5 -49 11 -94 15 -100 10 -16 35 7
35 31 0 11 5 19 10 19 6 0 10 4 10 10 0 12 72 163 81 170 4 3 24 37 44 75 21
39 43 75 50 80 6 6 36 38 65 73 30 34 65 65 79 69 29 7 53 27 44 37 -4 3 -17
6 -30 6 -14 0 -32 4 -41 9 -17 9 -328 21 -350 13z"/>
<path d="M2101 4491 c-8 -5 -11 -16 -6 -31 5 -15 1 -28 -13 -43 -30 -34 -88
-119 -112 -168 -13 -24 -38 -65 -56 -92 -39 -56 -45 -84 -15 -66 26 17 51 4
51 -25 0 -16 -13 -35 -40 -56 -39 -31 -110 -155 -110 -193 0 -22 34 -30 87
-22 50 7 83 24 83 41 0 6 8 18 18 26 18 16 114 50 121 42 2 -2 8 -54 12 -114
5 -61 15 -131 24 -157 16 -46 16 -48 -4 -64 -12 -10 -24 -40 -32 -77 -12 -56
-11 -66 11 -134 13 -40 37 -97 52 -125 l29 -53 -37 0 c-50 0 -75 31 -67 85 3
22 10 45 15 52 7 8 5 17 -5 28 -18 17 -21 14 -47 -44 l-15 -33 -85 0 c-82 1
-86 0 -112 -29 -38 -41 -54 -37 -62 13 -4 22 -9 45 -12 50 -10 15 -44 -23 -44
-50 0 -30 -30 -82 -47 -82 -7 0 -13 -4 -13 -10 0 -5 -5 -10 -11 -10 -7 0 -21
-11 -33 -23 -25 -28 -86 -71 -86 -61 0 4 -8 -1 -19 -10 -15 -14 -23 -15 -45
-5 -21 10 -31 10 -50 0 -27 -15 -66 -1 -66 24 0 8 -3 15 -7 16 -5 0 -18 2 -31
3 -13 2 -35 15 -50 29 -23 23 -25 30 -14 47 6 11 12 34 12 51 0 16 5 40 12 52
19 36 27 89 17 108 -14 28 -38 12 -50 -35 -25 -92 -31 -105 -46 -108 -9 -2
-33 14 -55 35 -21 21 -43 35 -48 32 -14 -8 -13 -68 1 -82 8 -8 8 -17 -1 -33
-14 -26 -47 -60 -58 -60 -5 0 -16 -8 -26 -18 -21 -24 -76 -137 -76 -158 0 -8
-7 -28 -15 -44 -10 -18 -16 -66 -19 -130 -3 -90 -2 -100 14 -100 12 0 23 16
34 48 24 67 42 96 61 100 10 2 19 -5 22 -18 8 -31 83 -56 83 -28 0 31 36 98
52 98 17 0 24 -17 30 -70 2 -20 9 -25 33 -26 58 -1 65 -4 71 -29 13 -52 24
-22 24 65 l0 90 36 15 c20 8 47 15 60 15 20 0 25 -6 30 -40 7 -41 69 -118 107
-133 13 -5 17 -18 17 -51 0 -28 5 -46 14 -49 14 -6 27 -60 17 -75 -3 -5 -13
-12 -21 -15 -8 -3 13 -6 48 -6 65 -1 71 3 47 35 -8 10 -15 29 -15 40 0 17 5
20 25 16 18 -3 26 1 31 14 15 49 40 94 52 94 6 0 12 4 12 9 0 6 21 11 47 13
38 2 50 8 59 26 11 21 12 22 16 4 7 -24 70 -35 120 -21 53 14 34 46 -32 53 -8
0 -16 9 -18 19 -5 22 17 77 30 77 5 0 27 -18 48 -40 31 -31 40 -49 40 -74 0
-28 4 -35 26 -40 45 -12 57 9 50 86 -3 37 -2 69 3 72 15 10 71 -63 71 -92 0
-46 -24 -109 -50 -134 -14 -13 -54 -46 -90 -73 -36 -27 -71 -55 -78 -62 -7 -7
-19 -13 -27 -13 -7 0 -26 -6 -42 -14 -52 -26 -118 -54 -158 -67 -22 -7 -44
-16 -50 -20 -5 -4 -41 -19 -80 -34 -66 -25 -83 -27 -282 -32 -116 -3 -216 -9
-222 -12 -6 -4 -7 -27 -2 -66 5 -33 7 -63 5 -67 -2 -3 -42 -9 -87 -13 -67 -6
-96 -3 -145 11 -58 17 -61 20 -67 54 -3 20 -5 43 -3 50 4 16 -32 28 -93 29
-38 1 -48 5 -59 26 -37 69 -44 11 -31 -247 1 -12 9 -18 26 -18 37 0 30 -17
-10 -24 -32 -6 -34 -8 -20 -22 9 -9 34 -18 56 -21 36 -5 44 -11 58 -43 9 -20
24 -45 34 -55 13 -12 16 -25 12 -39 -4 -12 -9 -36 -10 -54 -2 -18 -11 -42 -21
-53 -14 -16 -15 -23 -6 -45 7 -13 12 -40 12 -58 0 -19 7 -47 15 -62 21 -40 21
-197 0 -218 -24 -24 -18 -45 18 -54 39 -11 61 2 53 34 -9 33 -10 675 -1 706 4
15 16 29 28 32 12 3 93 6 180 6 122 0 157 -3 157 -13 0 -7 -4 -17 -9 -23 -5
-5 -18 -43 -30 -84 -13 -41 -26 -84 -31 -95 -14 -31 -37 -103 -54 -175 -9 -36
-25 -94 -35 -130 -45 -149 -51 -173 -51 -191 0 -10 -12 -50 -26 -89 -25 -71
-65 -208 -89 -310 -24 -103 -38 -155 -51 -199 -8 -25 -14 -53 -14 -64 0 -11
-7 -45 -16 -76 -36 -126 -63 -232 -81 -311 -19 -84 -39 -310 -35 -378 l4 -52
353 0 353 0 0 32 c-1 23 12 52 41 94 27 41 43 77 47 108 7 50 24 59 43 23 10
-19 8 -35 -12 -97 -13 -41 -27 -94 -31 -118 l-6 -42 902 2 c847 3 903 4 902
20 -1 10 -4 28 -8 42 -5 19 -2 25 18 28 18 4 26 0 29 -14 3 -10 11 -18 17 -18
18 0 6 117 -14 139 -9 10 -16 26 -16 37 0 11 -13 31 -28 44 -16 14 -37 44 -47
68 -12 27 -25 42 -37 42 -15 0 -18 9 -18 54 0 30 -5 67 -11 83 -6 15 -15 51
-19 78 -4 28 -19 91 -33 140 -32 114 -50 229 -45 280 4 38 5 37 6 -10 1 -28 6
-55 10 -60 8 -10 29 -74 53 -165 22 -84 71 -235 80 -245 5 -5 9 -17 9 -27 0
-10 4 -18 8 -18 15 0 31 -46 21 -61 -22 -36 -1 -109 33 -109 16 0 47 -43 48
-67 0 -12 5 -23 12 -25 12 -4 31 -115 32 -191 l1 -47 137 0 136 0 7 31 c8 36
29 33 33 -4 l3 -27 329 0 329 0 4 48 3 47 2 -47 2 -48 39 0 c36 0 39 2 49 38
12 44 80 210 112 273 23 45 92 147 139 206 14 18 45 43 69 55 41 22 43 25 41
63 -3 39 -19 91 -40 129 -6 10 -12 32 -15 48 -2 17 -8 35 -13 42 -5 6 -12 28
-16 48 -5 26 -14 39 -28 44 -12 4 -34 20 -49 36 -25 27 -31 28 -89 25 -43 -2
-65 -9 -74 -20 -15 -21 -68 -22 -85 -2 -15 18 -18 60 -7 91 5 15 1 28 -17 47
l-24 26 -7 -26 c-3 -14 -3 -56 1 -94 4 -44 2 -85 -6 -112 -10 -39 -9 -48 9
-83 27 -51 28 -117 1 -144 -26 -26 -34 -25 -60 7 l-21 28 6 -70 c4 -38 11
-106 16 -150 5 -44 11 -114 13 -155 4 -60 3 -66 -3 -30 -20 106 -43 206 -52
225 -5 11 -11 53 -13 93 -3 40 -10 80 -16 87 -7 8 -10 22 -6 30 3 8 -3 43 -14
78 -11 34 -20 83 -20 109 0 26 -4 50 -10 53 -5 3 -10 30 -10 58 0 29 -4 47 -8
40 -4 -6 -7 80 -7 190 0 257 -22 438 -73 606 l-17 54 -7 -54 c-3 -30 -7 -85
-8 -124 -3 -64 -4 -59 -16 60 -7 72 -13 136 -13 144 -1 8 -4 11 -8 8 -3 -4
-12 1 -19 11 -16 21 -16 25 -18 -163 -1 -71 -7 -148 -13 -170 -7 -22 -19 -69
-28 -105 -30 -119 -79 -250 -93 -250 -8 0 28 153 78 335 30 108 37 175 17 175
-20 0 -29 25 -21 57 5 18 3 24 -5 19 -14 -9 -42 -62 -52 -101 -16 -60 -1 79
19 172 20 97 19 143 -4 143 -8 0 -14 5 -14 11 0 21 -34 84 -57 107 -16 14 -32
20 -46 17 -17 -4 -36 8 -78 48 -69 64 -97 87 -107 87 -4 0 -20 12 -35 26 -16
14 -31 23 -34 20 -14 -14 51 -136 72 -136 8 0 19 -9 25 -21 14 -25 -5 -53 -31
-46 -13 4 -18 -4 -23 -39 -3 -24 -3 -51 1 -60 3 -9 0 -20 -7 -24 -9 -6 -14
-49 -17 -154 -2 -80 -7 -182 -11 -227 -5 -44 -5 -82 0 -85 4 -3 7 -45 6 -95 0
-49 2 -92 6 -96 3 -3 6 8 6 25 0 41 13 41 25 0 8 -27 15 -33 40 -35 17 -1 22
1 11 4 -17 4 -18 13 -13 84 3 43 1 82 -4 85 -5 3 -9 -2 -9 -10 0 -16 -15 -22
-23 -8 -8 11 23 265 32 272 4 3 11 48 14 100 5 105 11 127 35 135 19 6 44 53
36 66 -3 5 2 9 10 9 20 0 21 -50 2 -88 -21 -43 -27 -159 -12 -240 l13 -71 -23
17 c-13 9 -24 26 -24 37 -1 20 -1 20 -15 1 -18 -24 -19 -36 -3 -73 6 -15 17
-46 23 -68 7 -22 15 -48 20 -58 5 -12 3 -17 -9 -17 -35 0 -7 -202 30 -209 10
-2 25 -8 33 -14 10 -9 16 -7 26 6 16 23 25 22 25 -3 0 -11 4 -20 10 -20 5 0 7
7 4 15 -4 8 -1 15 5 15 6 0 11 -11 11 -25 0 -18 -5 -25 -20 -25 -11 0 -20 4
-20 9 0 5 -20 12 -45 15 -24 4 -47 11 -50 17 -8 12 -45 12 -45 0 0 -6 4 -12 9
-15 4 -3 11 -24 15 -46 7 -47 25 -80 43 -80 16 0 17 27 2 69 -12 35 -6 52 13
33 6 -6 11 -31 10 -55 -1 -25 5 -57 13 -73 9 -17 15 -54 14 -89 l0 -60 -16 33
c-9 17 -22 32 -28 32 -12 0 -55 70 -55 88 0 27 -43 122 -55 122 -11 0 -25 20
-25 37 0 3 11 3 25 1 17 -4 25 -1 25 8 0 8 -9 14 -20 14 -11 0 -20 4 -20 9 0
5 -25 12 -55 16 -30 3 -55 10 -55 15 0 5 5 43 11 84 7 48 8 85 2 103 -8 25 -4
176 10 368 20 277 20 291 3 342 -9 28 -26 59 -36 68 -11 10 -20 23 -20 30 0
11 -33 45 -56 58 -11 6 -4 -65 11 -125 4 -16 3 -28 -2 -28 -5 0 -16 12 -25 28
-32 54 -117 130 -180 162 -30 14 -38 40 -12 40 8 0 13 4 10 9 -4 5 0 12 6 15
10 5 10 7 1 12 -7 3 -9 12 -6 20 3 8 0 14 -5 14 -6 0 -14 -9 -17 -20 -9 -30
-25 -24 -25 8 0 16 -7 51 -15 78 -8 27 -15 59 -15 71 0 25 -48 86 -61 77 -5
-3 -9 -37 -9 -76 0 -83 -12 -109 -90 -191 -87 -93 -181 -148 -227 -133 -17 5
-19 16 -18 92 2 96 7 105 73 124 18 5 49 20 67 34 19 14 38 26 43 26 5 0 29
21 53 47 24 25 58 61 75 80 40 41 74 110 67 131 -5 11 -2 14 10 9 22 -8 24 31
2 47 -8 6 -18 26 -21 44 -5 25 -3 32 10 32 9 0 16 -7 16 -15 0 -8 6 -15 14
-15 8 0 17 -6 19 -12 4 -10 6 -10 6 -1 1 19 -31 53 -51 53 -9 0 -20 9 -23 20
-3 11 -11 20 -16 20 -6 0 -7 -4 -4 -10 3 -5 1 -10 -5 -10 -6 0 -15 -12 -21
-27 -13 -34 -26 -20 -33 35 -3 25 -16 58 -31 77 -14 19 -25 39 -25 45 0 18
-70 80 -91 80 -29 0 -23 -22 16 -60 19 -18 32 -37 29 -42 -3 -5 -8 -7 -11 -5
-2 3 -19 -1 -37 -8 -30 -13 -35 -12 -55 6 -22 20 -29 35 -11 24 6 -3 10 3 10
14 0 28 -45 29 -62 1 -15 -24 -50 -28 -42 -5 4 9 -3 18 -18 24 -13 5 -30 16
-37 25 -12 14 -11 16 10 14 l24 -3 -3 108 c-2 97 -1 107 15 107 25 0 39 -11
48 -38 3 -13 18 -27 31 -32 13 -5 24 -14 24 -20 0 -5 5 -10 11 -10 6 0 26 -12
45 -26 33 -25 37 -26 97 -17 l62 10 -52 2 c-116 3 -195 69 -191 160 1 42 2 43
5 9 9 -86 94 -117 156 -57 17 17 31 35 30 40 -2 5 2 9 7 9 6 0 10 -4 10 -9 0
-4 12 -7 28 -6 41 3 42 3 42 25 0 24 -32 44 -47 29 -8 -8 -20 -4 -42 12 -27
20 -29 24 -15 32 22 12 120 -1 135 -19 8 -10 8 -14 0 -14 -6 0 -11 -15 -11
-32 l0 -33 19 24 18 24 6 -40 c7 -42 -8 -113 -27 -125 -8 -6 -8 -8 0 -8 15 0
39 37 48 73 8 32 26 36 33 7 3 -11 10 -20 15 -20 5 0 6 5 3 10 -3 6 -1 10 4
10 16 0 13 42 -4 64 -17 22 -20 86 -5 86 5 0 15 -9 22 -20 15 -24 33 -27 20
-4 -11 20 7 74 25 74 7 0 13 5 13 12 0 20 -41 99 -66 125 -13 14 -24 33 -24
41 0 13 3 12 15 -4 13 -16 16 -17 25 -4 6 8 8 24 5 35 -17 63 -24 172 -14 203
11 33 7 50 -22 117 -5 11 -11 33 -13 49 -3 16 -7 30 -9 32 -2 2 -39 7 -83 10
-97 7 -126 12 -120 22 3 5 -8 7 -23 4 -16 -2 -39 2 -52 9 -13 8 -33 14 -44 15
-11 1 -38 9 -60 18 -22 8 -52 15 -67 16 -21 0 -28 5 -28 20 0 12 -8 22 -22 25
-19 4 -487 25 -547 25 -9 0 -22 -4 -30 -9z m930 -392 c11 -16 26 -29 32 -29 7
0 18 -12 25 -27 7 -16 21 -44 32 -63 31 -57 50 -136 50 -206 0 -19 5 -34 15
-38 8 -3 15 -13 15 -22 0 -10 -3 -15 -6 -11 -4 3 -13 0 -21 -8 -8 -8 -25 -15
-37 -15 -27 0 -92 25 -100 39 -8 12 -232 12 -264 0 -14 -5 -31 -17 -37 -26
-11 -15 -14 -14 -30 10 -10 16 -26 27 -39 27 -29 0 -52 19 -59 48 -4 17 3 31
28 54 26 23 37 44 46 87 7 31 12 62 10 70 -6 32 80 93 152 106 20 4 41 13 48
21 7 9 30 13 65 13 48 -1 57 -5 75 -30z m85 3 c-18 -16 -18 -16 -6 6 6 13 14
21 18 18 3 -4 -2 -14 -12 -24z m-956 -662 c0 -5 -5 -10 -11 -10 -5 0 -7 5 -4
10 3 6 8 10 11 10 2 0 4 -4 4 -10z m228 -60 c10 -5 5 -11 -17 -20 -17 -7 -28
-16 -25 -21 3 -5 0 -9 -5 -9 -6 0 -10 15 -8 35 2 36 12 38 55 15z m245 -47
c-7 -2 -19 -2 -25 0 -7 3 -2 5 12 5 14 0 19 -2 13 -5z m247 -171 c0 -4 -5 -13
-11 -19 -8 -8 -5 -13 9 -18 22 -6 28 -18 36 -77 4 -22 2 -38 -4 -38 -6 0 -9
-5 -7 -12 3 -16 -47 -40 -67 -32 -22 8 -20 25 4 31 11 3 20 14 20 24 0 15 -7
19 -32 19 -43 0 -93 19 -107 41 -9 15 -8 19 4 19 8 0 15 -4 15 -10 0 -5 5 -10
10 -10 6 0 10 7 10 15 0 7 7 18 16 23 9 5 15 12 15 15 -3 21 2 26 27 30 49 7
62 7 62 -1z m-1738 -274 c-16 -16 -63 13 -60 36 2 13 9 20 20 18 9 -1 23 8 30
20 12 22 13 21 16 -21 2 -24 -1 -48 -6 -53z m46 65 c-4 -34 -28 -43 -28 -10 0
25 7 37 22 37 5 0 8 -12 6 -27z m472 -328 c10 -12 10 -15 -3 -15 -8 0 -17 7
-21 15 -3 8 -2 15 3 15 5 0 14 -7 21 -15z m890 -275 c0 -6 -9 -2 -20 7 -11 10
-20 19 -20 21 0 1 9 -2 20 -8 11 -6 20 -15 20 -20z m907 -42 c-3 -8 -6 -5 -6
6 -1 11 2 17 5 13 3 -3 4 -12 1 -19z m-30 -35 c-3 -10 -5 -2 -5 17 0 19 2 27
5 18 2 -10 2 -26 0 -35z m-477 24 c0 -7 -9 -20 -20 -30 -11 -9 -20 -23 -20
-30 0 -7 -8 -20 -19 -29 -17 -15 -18 -14 -13 31 2 25 9 52 15 59 13 16 57 16
57 -1z m504 -206 c-10 -23 -10 -55 0 -62 14 -11 2 -29 -13 -20 -8 5 -14 24
-13 42 0 19 -5 58 -11 87 -10 50 -9 54 14 76 l24 23 3 -65 c2 -36 0 -72 -4
-81z m-199 91 c-3 -17 -13 -36 -21 -43 -12 -10 -14 -4 -14 34 0 27 5 47 13 50
20 7 29 -9 22 -41z m115 8 c0 -5 -7 -10 -15 -10 -8 0 -15 5 -15 10 0 6 7 10
15 10 8 0 15 -4 15 -10z m-483 -92 c-3 -7 -5 -2 -5 12 0 14 2 19 5 13 2 -7 2
-19 0 -25z m1003 -85 c-7 -48 -17 -99 -22 -113 -5 -14 -9 -75 -10 -136 0 -93
4 -119 21 -155 25 -51 26 -59 5 -59 -8 0 -21 15 -29 34 -19 44 -41 60 -31 22
5 -19 3 -26 -9 -26 -19 0 -19 14 0 65 9 27 14 83 15 170 0 83 6 152 15 188 8
32 15 66 15 75 0 24 21 45 33 33 6 -6 4 -44 -3 -98z m-1090 53 c0 -35 -10 -56
-26 -56 -8 0 -14 4 -14 9 0 5 -7 11 -16 13 -14 3 -13 7 6 31 27 34 50 35 50 3z
m633 -111 c-7 -21 -13 -19 -13 6 0 11 4 18 10 14 5 -3 7 -12 3 -20z m-546 -7
c-3 -8 -6 -5 -6 6 -1 11 2 17 5 13 3 -3 4 -12 1 -19z m-190 -30 c-3 -7 -5 -2
-5 12 0 14 2 19 5 13 2 -7 2 -19 0 -25z m190 -30 c-3 -7 -5 -2 -5 12 0 14 2
19 5 13 2 -7 2 -19 0 -25z m543 28 c0 -2 -9 -6 -20 -9 -11 -3 -18 -1 -14 4 5
9 34 13 34 5z m540 -126 c0 -5 -4 -10 -10 -10 -5 0 -10 5 -10 10 0 6 5 10 10
10 6 0 10 -4 10 -10z m-500 -45 c0 -8 -2 -15 -4 -15 -2 0 -6 7 -10 15 -3 8 -1
15 4 15 6 0 10 -7 10 -15z m627 -192 c-2 -16 -4 -5 -4 22 0 28 2 40 4 28 2
-13 2 -35 0 -50z m-1291 -44 c13 -14 12 -19 -4 -39 -16 -19 -22 -21 -40 -11
-28 15 -28 48 1 79 20 22 22 22 26 5 1 -10 9 -25 17 -34z m1066 24 c22 -20 24
-45 3 -37 -8 4 -15 2 -15 -4 0 -5 7 -12 15 -16 8 -3 15 -10 15 -16 0 -7 -6 -8
-17 -2 -22 11 -43 5 -43 -13 0 -7 6 -16 13 -18 7 -3 5 -6 -5 -6 -15 -1 -18 8
-18 57 0 76 13 90 52 55z m-402 -107 c0 -3 -4 -8 -10 -11 -5 -3 -10 -1 -10 4
0 6 5 11 10 11 6 0 10 -2 10 -4z m73 -58 c3 -24 17 -68 32 -99 20 -45 24 -65
19 -102 -7 -48 -24 -65 -24 -24 0 30 -28 87 -42 87 -15 0 -2 -130 17 -166 8
-16 15 -44 15 -63 0 -28 -3 -33 -19 -28 -24 6 -17 -17 16 -53 17 -19 23 -37
23 -73 0 -35 4 -47 13 -45 15 6 22 117 8 131 -14 14 -14 67 -2 67 6 0 12 15
14 33 3 24 4 21 4 -13 1 -25 8 -85 16 -135 15 -82 15 -91 0 -107 -20 -22 -33
-23 -33 -3 0 19 -9 19 -34 0 -22 -17 -86 -20 -86 -5 0 6 6 10 13 10 8 0 8 3 2
8 -10 7 -20 135 -17 212 2 60 20 213 31 269 6 29 11 76 11 103 0 59 15 56 23
-4z m-116 0 c-3 -8 -6 -5 -6 6 -1 11 2 17 5 13 3 -3 4 -12 1 -19z m-7 -113
c-7 -8 -10 -21 -7 -28 3 -8 1 -20 -4 -28 -6 -10 -9 -1 -9 27 0 22 6 46 12 52
17 17 24 -4 8 -23z m7 -132 c-3 -10 -5 -4 -5 12 0 17 2 24 5 18 2 -7 2 -21 0
-30z m149 -60 c-11 -11 -19 6 -11 24 8 17 8 17 12 0 3 -10 2 -21 -1 -24z m41
15 c-3 -8 -6 -5 -6 6 -1 11 2 17 5 13 3 -3 4 -12 1 -19z m155 -65 c-5 -25 -6
-25 -13 -8 -4 11 -8 28 -8 39 -1 14 2 16 13 7 8 -7 11 -22 8 -38z m-979 -87
c10 -31 2 -76 -15 -76 -23 0 -45 30 -40 55 2 14 8 25 13 25 5 0 9 7 9 16 0 24
23 11 33 -20z m727 -215 c0 -29 51 -101 72 -101 10 0 18 -4 18 -8 0 -5 -14 -7
-30 -4 -29 4 -30 3 -21 -21 5 -14 7 -28 4 -31 -4 -3 3 -6 14 -6 26 0 37 -24
18 -40 -9 -7 -12 -30 -10 -73 2 -34 1 -51 -2 -37 -2 14 -8 30 -13 35 -10 13
-31 115 -26 124 5 8 -32 92 -44 101 -12 9 -32 79 -25 90 10 16 45 -7 45 -29z
m923 -153 c7 -7 14 -32 15 -55 3 -33 0 -43 -11 -43 -19 0 -27 21 -27 71 0 41
4 47 23 27z m-154 -127 c1 -61 -5 -48 -12 24 -3 36 -2 52 3 40 5 -11 9 -40 9
-64z m-1522 -92 c20 -52 -16 -92 -48 -53 -10 13 -10 20 4 43 9 16 14 31 10 35
-3 3 0 6 8 6 8 0 20 -14 26 -31z m1542 -26 c0 -36 -3 -43 -9 -28 -12 28 -12
75 0 75 6 0 10 -21 9 -47z m88 -90 c-3 -10 -5 -2 -5 17 0 19 2 27 5 18 2 -10
2 -26 0 -35z m-80 -15 c-3 -7 -5 -2 -5 12 0 14 2 19 5 13 2 -7 2 -19 0 -25z
m90 -80 c-2 -13 -4 -5 -4 17 -1 22 1 32 4 23 2 -10 2 -28 0 -40z m-70 0 c-3
-7 -5 -2 -5 12 0 14 2 19 5 13 2 -7 2 -19 0 -25z"/>
<path d="M3625 810 c3 -5 8 -10 11 -10 2 0 4 5 4 10 0 6 -5 10 -11 10 -5 0 -7
-4 -4 -10z"/>
<path d="M3490 704 c0 -8 5 -12 10 -9 6 3 10 10 10 16 0 5 -4 9 -10 9 -5 0
-10 -7 -10 -16z"/>
<path d="M2730 305 c0 -8 4 -15 10 -15 5 0 7 7 4 15 -4 8 -8 15 -10 15 -2 0
-4 -7 -4 -15z"/>
<path d="M3847 4476 c-7 -16 1 -26 20 -26 7 0 13 9 13 20 0 23 -25 27 -33 6z"/>
<path d="M485 4443 c-8 -30 -8 -350 0 -363 3 -5 4 -242 3 -527 -2 -745 -2
-733 -23 -733 -13 0 -15 23 -15 150 l0 150 -26 6 c-33 8 -41 -5 -49 -76 -12
-118 -18 -135 -45 -132 -32 4 -38 4 -197 -4 l-133 -6 0 -444 0 -443 30 1 c36
1 62 -19 55 -42 -3 -10 -1 -30 5 -45 15 -40 6 -46 -77 -54 -10 -1 -13 -118
-13 -547 l0 -547 47 7 c26 3 99 9 162 12 64 3 131 7 149 10 l34 5 -4 152 c-5
259 9 769 22 805 7 18 9 49 6 70 -18 102 -18 111 4 169 15 40 20 69 16 95 -7
43 9 78 35 78 10 0 26 -16 38 -35 13 -23 28 -35 42 -35 18 0 19 3 9 15 -8 10
-12 57 -11 157 1 79 -3 357 -9 617 -5 261 -11 718 -13 1015 -2 491 -4 541 -18
544 -11 2 -19 -7 -24 -25z"/>
<path d="M1071 4264 c-20 -14 -40 -16 -125 -10 -55 3 -122 9 -147 12 -28 3
-49 2 -53 -5 -4 -5 -14 -8 -24 -5 -9 3 -1 -4 18 -15 29 -17 54 -20 140 -21 58
0 123 -6 145 -12 22 -6 102 -12 178 -13 l138 -1 -3 25 c-3 25 -5 26 -88 29
-48 1 -99 9 -117 17 -38 18 -34 18 -62 -1z"/>
<path d="M1844 4047 c-11 -12 -24 -29 -28 -37 -4 -8 -15 -31 -25 -50 -25 -47
-17 -55 20 -20 42 38 69 80 69 108 0 28 -9 28 -36 -1z"/>
<path d="M3261 3498 c0 -7 4 -22 9 -33 7 -17 9 -15 9 13 1 17 -3 32 -9 32 -5
0 -10 -6 -9 -12z"/>
<path d="M3058 3433 c6 -2 18 -2 25 0 6 3 1 5 -13 5 -14 0 -19 -2 -12 -5z"/>
<path d="M3177 3170 c3 -11 7 -20 9 -20 2 0 4 9 4 20 0 11 -4 20 -9 20 -5 0
-7 -9 -4 -20z"/>
<path d="M3130 3172 c0 -5 7 -16 16 -23 14 -12 16 -11 13 5 -4 20 -29 35 -29
18z"/>
<path d="M3360 2523 c0 -4 5 -15 10 -23 8 -13 10 -13 10 2 0 9 -4 20 -10 23
-5 3 -10 3 -10 -2z"/>
<path d="M3752 2306 c41 -39 66 -48 46 -17 -10 17 -41 38 -73 49 -5 2 7 -13
27 -32z"/>
<path d="M4521 2105 c1 -27 4 -77 8 -110 7 -55 -9 -288 -22 -325 -3 -8 -8 -29
-11 -47 l-5 -32 44 15 c24 9 49 21 55 29 7 9 5 56 -9 171 -34 265 -39 298 -49
324 -9 22 -11 19 -11 -25z"/>
<path d="M3701 1414 c0 -11 3 -14 6 -6 3 7 2 16 -1 19 -3 4 -6 -2 -5 -13z"/>
<path d="M5053 1403 c-8 -3 -13 -23 -13 -48 0 -29 -5 -45 -15 -49 -22 -8 -18
-36 5 -36 15 0 20 7 20 25 0 17 8 29 25 37 29 13 35 62 9 72 -9 3 -16 6 -17 5
-1 0 -8 -3 -14 -6z"/>
<path d="M4430 1320 c0 -5 5 -10 10 -10 6 0 10 5 10 10 0 6 -4 10 -10 10 -5 0
-10 -4 -10 -10z"/>
<path d="M656 1284 c-21 -14 -52 -30 -70 -35 -24 -7 -36 -20 -54 -60 -53 -116
-50 -217 5 -206 13 2 26 0 29 -4 5 -8 -10 -13 -29 -10 -4 1 -10 -6 -13 -14 -4
-8 -11 -15 -18 -15 -6 0 -21 -18 -33 -39 -13 -22 -32 -42 -43 -46 -11 -3 -20
-13 -20 -21 0 -12 30 -14 179 -14 205 0 205 0 178 82 -8 24 -18 102 -21 173
-10 199 -16 235 -35 235 -9 0 -34 -12 -55 -26z"/>
<path d="M4475 1210 c3 -5 8 -10 11 -10 2 0 4 5 4 10 0 6 -5 10 -11 10 -5 0
-7 -4 -4 -10z"/>
<path d="M4270 1183 c0 -22 2 -25 10 -13 13 20 13 40 0 40 -5 0 -10 -12 -10
-27z"/>
<path d="M4928 337 c-25 -22 -42 -51 -56 -92 -28 -82 -50 -133 -61 -139 -5 -3
-12 -22 -15 -42 -4 -19 -10 -42 -13 -50 -9 -25 112 -18 173 10 104 48 148 120
142 229 -3 49 -5 53 -37 63 -19 6 -39 18 -45 26 -22 30 -49 29 -88 -5z"/>
<path d="M3400 50 c-10 -30 -5 -50 13 -50 14 0 17 3 10 13 -6 6 -13 19 -16 27
-3 8 -6 13 -7 10z"/>
</g>
</svg>
