<svg width="64" height="65" viewBox="0 0 64 65" fill="none" xmlns="http://www.w3.org/2000/svg">
<g clip-path="url(#clip0)">
<path d="M22.8927 60.6451C22.651 60.6451 22.4074 60.5619 22.2087 60.3927L15.3715 54.5708C15.1356 54.3697 15 54.0761 15 53.7659C15 53.4564 15.1362 53.1627 15.3715 52.9617L22.2087 47.1397C22.6527 46.7612 23.3196 46.8149 23.6981 47.2588C24.0761 47.7034 24.023 48.3703 23.5784 48.7482L17.6863 53.7659L23.5784 58.7836C24.023 59.1622 24.0761 59.829 23.6981 60.273C23.4888 60.5189 23.1916 60.6451 22.8927 60.6451Z" fill="#FF6B00"/>
<path d="M36.3904 60.6451C36.0914 60.6451 35.7943 60.5189 35.5855 60.273C35.207 59.829 35.2607 59.1622 35.7046 58.7836L41.5967 53.7659L35.7046 48.7482C35.2607 48.3703 35.207 47.7034 35.5855 47.2588C35.9635 46.8149 36.6309 46.7612 37.0743 47.1397L43.9116 52.9617C44.1475 53.1627 44.2831 53.4564 44.2831 53.7659C44.2831 54.0761 44.1475 54.3697 43.9116 54.5708L37.0743 60.3927C36.8756 60.5619 36.6321 60.6451 36.3904 60.6451Z" fill="#FF6B00"/>
<path d="M27.2211 65.0119C27.1486 65.0119 27.0755 65.0043 27.0018 64.9889C26.431 64.8687 26.0655 64.3079 26.1857 63.7372L30.4469 43.5054C30.5672 42.9347 31.1274 42.5691 31.6987 42.6894C32.2695 42.8097 32.635 43.3698 32.5147 43.9412L28.2535 64.1729C28.1486 64.6705 27.7099 65.0119 27.2211 65.0119Z" fill="#FF6B00"/>
<path d="M55.0755 27.6665H0.924528C0.413768 27.6665 0 27.4427 0 27.1665C0 26.8906 0.413768 26.6665 0.924528 26.6665H55.0755C55.5862 26.6665 56 26.8906 56 27.1665C56 27.4427 55.5862 27.6665 55.0755 27.6665Z" fill="#7F8284"/>
<path d="M18.053 23.3032C16.2098 23.3032 14.7092 21.8026 14.7092 19.9595C14.7092 18.1157 16.2098 16.6157 18.053 16.6157C19.8967 16.6157 21.3967 18.1157 21.3967 19.9595C21.3967 21.8026 19.8967 23.3032 18.053 23.3032ZM18.053 18.7289C17.3749 18.7289 16.8224 19.2808 16.8224 19.9595C16.8224 20.6381 17.3749 21.19 18.053 21.19C18.7316 21.19 19.2835 20.6381 19.2835 19.9595C19.2835 19.2808 18.7316 18.7289 18.053 18.7289Z" fill="#FF6B00"/>
<path d="M7.77954 23.2708C5.93579 23.2708 4.43579 21.7708 4.43579 19.927C4.43579 18.0833 5.93579 16.5833 7.77954 16.5833C9.62329 16.5833 11.1233 18.0833 11.1233 19.927C11.1233 21.7708 9.62329 23.2708 7.77954 23.2708ZM7.77954 18.6965C7.10147 18.6965 6.549 19.2489 6.549 19.927C6.549 20.6057 7.10147 21.1575 7.77954 21.1575C8.4582 21.1575 9.01008 20.6057 9.01008 19.927C9.01008 19.2489 8.4582 18.6965 7.77954 18.6965Z" fill="#FF6B00"/>
<path d="M28.3266 23.3351C26.4834 23.3351 24.9834 21.8351 24.9834 19.9914C24.9834 18.1482 26.4834 16.6482 28.3266 16.6482C30.1703 16.6482 31.6703 18.1482 31.6703 19.9914C31.6703 21.8351 30.1703 23.3351 28.3266 23.3351ZM28.3266 18.7608C27.6485 18.7608 27.0966 19.3127 27.0966 19.9914C27.0966 20.67 27.6485 21.2219 28.3266 21.2219C29.0052 21.2219 29.5571 20.67 29.5571 19.9914C29.5571 19.3127 29.0052 18.7608 28.3266 18.7608Z" fill="#FF6B00"/>
<path fill-rule="evenodd" clip-rule="evenodd" d="M45 61.6665H50.6816C54.1653 61.6665 57 58.8487 57 55.3845V17.9485C57 14.4848 54.1653 11.6665 50.6816 11.6665H6.3184C2.83467 11.6665 0 14.4848 0 17.9485V55.3845C0 58.8487 2.83467 61.6665 6.3184 61.6665H13V59.7953H6.3184C3.87233 59.7953 1.88208 57.8165 1.88208 55.3845V17.9485C1.88208 15.5165 3.87233 13.5377 6.3184 13.5377H50.6816C53.1277 13.5377 55.1179 15.5165 55.1179 17.9485V55.3845C55.1179 57.8165 53.1277 59.7953 50.6816 59.7953H45V61.6665Z" fill="#7F8284"/>
</g>
<defs>
<clipPath id="clip0">
<rect width="64" height="64" fill="white" transform="translate(0 0.666504)"/>
</clipPath>
</defs>
</svg>
