<svg width="40" height="30" viewBox="0 0 40 30" fill="none" xmlns="http://www.w3.org/2000/svg">
<path d="M40 15.635C40 16.8623 39.0293 17.8572 37.832 17.8572H31.6376L35.6438 26.0697C36.3645 27.5472 35.3163 29.2857 33.7046 29.2857H30.1901C29.369 29.2857 28.6182 28.8102 28.251 28.0573L23.5042 18.3264C23.3536 18.0178 23.2753 17.6776 23.2753 17.3326V2.93658C23.2753 1.70928 24.2459 0.714355 25.4433 0.714355H37.832C39.0293 0.714355 40 1.70928 40 2.93658V15.635Z" fill="#FF6B00"/>
<path d="M15.5323 0.714355C16.7297 0.714355 17.7004 1.70928 17.7004 2.93658V15.635C17.7004 16.8623 16.7297 17.8572 15.5323 17.8572H9.33799L13.3441 26.0697C14.0649 27.5472 13.0167 29.2857 11.405 29.2857H7.89048C7.0693 29.2857 6.3186 28.8102 5.95135 28.0573L1.20452 18.3264C1.054 18.0178 0.975632 17.6776 0.975632 17.3326V2.93658C0.975632 1.70928 1.94629 0.714355 3.14365 0.714355H15.5323Z" fill="#FF6B00"/>
</svg>
