<svg width="40" height="29" viewBox="0 0 40 29" fill="none" xmlns="http://www.w3.org/2000/svg">
<path d="M40 15.2726C40 16.4692 39.0293 17.4392 37.832 17.4392H31.6376L35.6438 25.4464C36.3645 26.887 35.3163 28.582 33.7046 28.582H30.1901C29.369 28.582 28.6182 28.1184 28.251 27.3843L23.5042 17.8967C23.3536 17.5959 23.2753 17.2641 23.2753 16.9278V2.89164C23.2753 1.69502 24.2459 0.724976 25.4433 0.724976H37.832C39.0293 0.724976 40 1.69503 40 2.89164V15.2726Z" fill="#FF6B00"/>
<path d="M15.5323 0.724976C16.7297 0.724976 17.7004 1.69503 17.7004 2.89164V15.2726C17.7004 16.4692 16.7297 17.4392 15.5323 17.4392H9.33799L13.3441 25.4464C14.0649 26.887 13.0167 28.582 11.405 28.582H7.89048C7.0693 28.582 6.3186 28.1184 5.95135 27.3843L1.20452 17.8967C1.054 17.5959 0.975632 17.2641 0.975632 16.9278V2.89164C0.975632 1.69502 1.94629 0.724976 3.14365 0.724976H15.5323Z" fill="#FF6B00"/>
</svg>
