<svg width="13" height="13" viewBox="0 0 13 13" fill="none" xmlns="http://www.w3.org/2000/svg">
<path d="M11.4766 13H1.52344C0.683365 13 0 12.3166 0 11.4766V1.52344C0 0.683365 0.683365 0 1.52344 0H11.4766C12.3166 0 13 0.683365 13 1.52344V11.4766C13 12.3166 12.3166 13 11.4766 13ZM1.52344 1.01562C1.24345 1.01562 1.01562 1.24345 1.01562 1.52344V11.4766C1.01562 11.7566 1.24345 11.9844 1.52344 11.9844H11.4766C11.7566 11.9844 11.9844 11.7566 11.9844 11.4766V1.52344C11.9844 1.24345 11.7566 1.01562 11.4766 1.01562H1.52344ZM10.9408 3.84271L10.1841 3.1651L5.48775 8.40995L2.76202 5.81892L2.06229 6.55495L5.54636 9.86703L10.9408 3.84271Z" fill="#FF6B00"/>
</svg>
