<svg width="60" height="64" viewBox="0 0 60 64" fill="none" xmlns="http://www.w3.org/2000/svg">
<path d="M23.9875 61.5H17.375C18.05 58.875 18.425 56.45 18.5375 54.15C18.3 54.15 18.075 54.15 17.8375 54.175C17.2375 54.2125 16.625 54.2375 16.0375 54.1625C15.9125 56.5 15.4875 58.9875 14.7375 61.7375C14.6 62.25 14.7125 62.7875 15.0375 63.225C15.4125 63.7125 16.0125 64.0125 16.6375 64.0125H24C24.6875 64.0125 25.25 63.45 25.25 62.7625C25.25 62.075 24.675 61.5 23.9875 61.5Z" fill="#7F8284"/>
<path d="M33.0875 16.725C33.0875 13.7 32.4125 10.925 31.125 8.5C30.9875 8.275 30.9 8.025 30.7375 7.8125C30.5375 7.55 30.275 7.3375 30.1125 7.05C29.9375 6.75 29.825 6.425 29.6375 6.1375C29.6125 6.1 29.5875 6.0625 29.5625 6.025C29.5375 6.025 29.5125 6.025 29.4875 6.0375C29.1 5.55 28.675 5.0875 28.225 4.6375C25.25 1.675 21.1625 0 17 0C16.9375 0 16.8625 0 16.8 0C16.7375 0 16.6625 0 16.6 0C12.4375 0 8.35 1.675 5.3625 4.625C2.175 7.7375 0.500003 11.925 0.500003 16.725C0.487503 22.4125 2.875 25.6625 4.975 28.525C6.4 30.475 7.7625 32.325 8.4 34.8625C6.7875 35.5625 5.65 37.1875 5.65 39.05C5.65 41.1 7 42.8375 8.8625 43.4125V45.775C8.8625 48.3375 10.95 50.4375 13.5125 50.4375H15.825C15.825 50.45 15.8375 50.4625 15.8375 50.4625H18.4375C18.4375 50.45 18.4375 50.4375 18.4375 50.4375H20.0625C22.625 50.4375 24.7125 48.35 24.7125 45.775V43.4125C26.575 42.8375 27.925 41.1 27.925 39.05C27.925 37.175 26.7875 35.5625 25.175 34.8625C25.8125 32.325 27.175 30.475 28.6 28.525C30.7125 25.6625 33.1 22.4125 33.0875 16.725ZM22.225 45.775C22.225 46.9625 21.2625 47.9375 20.075 47.9375H13.5375C12.35 47.9375 11.3875 46.975 11.3875 45.775V43.6125H22.2375V45.775H22.225ZM25.4375 39.0375C25.4375 40.175 24.5125 41.1125 23.3625 41.1125H10.225C9.0875 41.1125 8.15 40.1875 8.15 39.0375C8.15 37.9 9.075 36.9625 10.225 36.9625H23.3625C24.5125 36.975 25.4375 37.9 25.4375 39.0375ZM22.7125 34.475H10.875C10.15 31.35 8.5375 29.1625 6.9875 27.05C4.9375 24.25 2.9875 21.6125 3 16.7375C3 11.525 5.2375 8.25 7.1 6.4C9.675 3.875 13.2 2.45 16.775 2.5C16.7875 2.5 16.8 2.5 16.8125 2.5C20.3875 2.45 23.9125 3.875 26.4875 6.4C26.95 6.85 27.4375 7.4 27.9 8.0375C27.9125 8.0625 27.925 8.075 27.95 8.1C29.35 10.0375 30.5875 12.85 30.5875 16.7125C30.5875 21.5875 28.65 24.225 26.6 27.025C25.0375 29.1625 23.4375 31.3375 22.7125 34.475Z" fill="#FF6B00"/>
<path d="M58.7875 36.225L54.7625 30.625C54.1375 29.6125 54.2375 28.925 54.4 27.9C54.5125 27.1875 54.6375 26.3625 54.4875 25.4C54.3375 24.3875 54.0875 23.3375 53.725 22.2C51.125 13.9625 44 7.69998 35.6 6.24998C35.05 6.16248 34.5125 6.08748 33.975 6.03748C34 6.07498 34.0125 6.09998 34.0375 6.13748C34.6 6.96248 35.0375 7.86248 35.4375 8.77498C42.8125 10.15 49.05 15.6875 51.35 22.975C51.675 23.9875 51.8875 24.9 52.025 25.7875C52.1125 26.3875 52.0375 26.925 51.9375 27.5375C51.7625 28.7125 51.5375 30.175 52.675 32C52.6875 32.025 52.7 32.0375 52.7125 32.0625L56.65 37.55H53.725C53.0375 37.55 52.475 38.1125 52.475 38.8V49.3125C52.475 49.325 52.475 49.325 52.475 49.3375C52.475 49.475 52.475 49.6 52.4875 49.725C52.5 50.425 52.525 51.5875 52.3 51.7875C52.2875 51.8 51.975 52.0625 50.5375 51.85L45.8375 51.175C45.7875 51.1625 45.7375 51.1625 45.7 51.15C41.8875 50.5875 38.8125 49.325 36.8125 47.475C36.3 47.0125 35.5125 47.0375 35.05 47.55C34.5875 48.0625 34.6125 48.85 35.125 49.3125C37.3 51.3125 40.3 52.6875 44.075 53.4L42.1125 61.5H35.2125C34.525 61.5 33.9625 62.0625 33.9625 62.75C33.9625 63.4375 34.525 64 35.2125 64H42.575C43.4875 64 44.2375 63.3625 44.475 62.3625L46.5375 53.775L50.1875 54.3C51.3 54.4625 52.9125 54.575 53.9625 53.6375C55.05 52.675 55.025 51.2125 54.9875 49.65C54.9875 49.525 54.9875 49.4 54.975 49.275V40.025H56.95C58.125 40.025 58.9125 39.65 59.3 38.9C59.6875 38.15 59.5125 37.25 58.7875 36.225Z" fill="#7F8284"/>
<path d="M16.7875 9.3125C16.1 9.3125 15.5375 9.875 15.5375 10.5625V19.725C15.5375 20.4125 16.1 20.975 16.7875 20.975C17.475 20.975 18.0375 20.4125 18.0375 19.725V10.5625C18.0375 9.875 17.4875 9.3125 16.7875 9.3125Z" fill="#FF6B00"/>
<path d="M16.7875 25.1625C16.1 25.1625 15.5375 25.725 15.5375 26.4125V26.425C15.5375 27.1125 16.1 27.675 16.7875 27.675C17.475 27.675 18.0375 27.1125 18.0375 26.425C18.0375 25.7375 17.4875 25.1625 16.7875 25.1625Z" fill="#FF6B00"/>
<path d="M29.6 61.5C28.9125 61.5 28.35 62.0625 28.35 62.75C28.35 63.4375 28.9125 64 29.6 64H29.6125C30.3 64 30.8625 63.4375 30.8625 62.75C30.8625 62.0625 30.2875 61.5 29.6 61.5Z" fill="#7F8284"/>
</svg>
