<svg width="64" height="64" viewBox="0 0 64 64" fill="none" xmlns="http://www.w3.org/2000/svg">
<path d="M37.75 5C37.0601 5 36.5 5.56006 36.5 6.25C36.5 6.93994 37.0601 7.5 37.75 7.5C38.4399 7.5 39 6.93994 39 6.25C39 5.56006 38.4399 5 37.75 5Z" fill="#7F8284"/>
<path d="M47.75 5H42.75C42.0596 5 41.5 5.55957 41.5 6.25C41.5 6.94043 42.0596 7.5 42.75 7.5H47.75C48.4404 7.5 49 6.94043 49 6.25C49 5.55957 48.4404 5 47.75 5Z" fill="#7F8284"/>
<path d="M57.75 5H52.75C52.0596 5 51.5 5.55957 51.5 6.25C51.5 6.94043 52.0596 7.5 52.75 7.5H57.75C58.4404 7.5 59 6.94043 59 6.25C59 5.55957 58.4404 5 57.75 5Z" fill="#7F8284"/>
<path d="M60.25 0H3.75C1.68213 0 0 1.68213 0 3.75V60.25C0 62.3179 1.68213 64 3.75 64H60.25C62.3179 64 64 62.3179 64 60.25V3.75C64 1.68213 62.3179 0 60.25 0ZM61.5 60.25C61.5 60.9395 60.9395 61.5 60.25 61.5H3.75C3.06055 61.5 2.5 60.9395 2.5 60.25V12.5H61.5V60.25ZM61.5 10H2.5V3.75C2.5 3.06055 3.06055 2.5 3.75 2.5H60.25C60.9395 2.5 61.5 3.06055 61.5 3.75V10Z" fill="#7F8284"/>
<path d="M9.5 28.25H54.5C55.1904 28.25 55.75 27.6904 55.75 27V19.5C55.75 18.8096 55.1904 18.25 54.5 18.25H9.5C8.80957 18.25 8.25 18.8096 8.25 19.5V27C8.25 27.6904 8.80957 28.25 9.5 28.25ZM10.75 20.75H53.25V25.75H10.75V20.75Z" fill="#FF6B00"/>
<path d="M9.5 56.125H24.5C25.1904 56.125 25.75 55.5654 25.75 54.875V34.875C25.75 34.1846 25.1904 33.625 24.5 33.625H9.5C8.80957 33.625 8.25 34.1846 8.25 34.875V54.875C8.25 55.5654 8.80957 56.125 9.5 56.125ZM10.75 36.125H23.25V53.625H10.75V36.125Z" fill="#FF6B00"/>
<path d="M54.5 33.625H32C31.9878 33.625 31.9761 33.6265 31.9639 33.627C31.2778 33.6465 30.75 34.2124 30.75 34.875V54.875C30.75 54.8823 30.751 54.8896 30.751 54.897C30.7632 55.5869 31.3296 56.125 32 56.125H54.5C55.1738 56.125 55.7368 55.585 55.749 54.897C55.749 54.8896 55.75 54.8823 55.75 54.875V34.875C55.75 34.1924 55.1934 33.625 54.5 33.625ZM51.2124 36.125L43.25 43.2026L35.2876 36.125H51.2124ZM33.25 37.6587L41.3687 44.875L33.25 52.0913V37.6587ZM35.2876 53.625L43.25 46.5474L51.2124 53.625H35.2876ZM53.25 52.0913L45.1313 44.875L53.25 37.6587V52.0913Z" fill="#FF6B00"/>
</svg>
