<svg width="64" height="64" viewBox="0 0 64 64" fill="none" xmlns="http://www.w3.org/2000/svg">
<g clip-path="url(#clip0)">
<path d="M40 48C31.176 48 24 40.824 24 32C24 23.176 31.176 16 40 16C48.824 16 56 23.176 56 32C56 40.824 48.824 48 40 48ZM40 18.6667C32.648 18.6667 26.6667 24.648 26.6667 32C26.6667 39.352 32.648 45.3333 40 45.3333C47.352 45.3333 53.3333 39.352 53.3333 32C53.3333 24.648 47.352 18.6667 40 18.6667Z" fill="#FF6B00"/>
<path d="M62.6666 56C62.3253 56 61.984 55.8693 61.7226 55.6107L49.4133 43.3013C48.8933 42.7813 48.8933 41.936 49.4133 41.416C49.9333 40.896 50.7786 40.896 51.2986 41.416L63.608 53.7253C64.128 54.2453 64.128 55.0907 63.608 55.6107C63.3493 55.8693 63.008 56 62.6666 56Z" fill="#FF6B00"/>
<path d="M46.6667 5.33329H1.33333C0.597333 5.33329 0 4.73596 0 3.99996C0 3.26396 0.597333 2.66663 1.33333 2.66663H46.6667C47.4027 2.66663 48 3.26396 48 3.99996C48 4.73596 47.4027 5.33329 46.6667 5.33329Z" fill="#7F8284"/>
<path d="M46.6667 61.3333H1.33333C0.597333 61.3333 0 60.736 0 60C0 59.264 0.597333 58.6666 1.33333 58.6666H46.6667C47.4027 58.6666 48 59.264 48 60C48 60.736 47.4027 61.3333 46.6667 61.3333Z" fill="#7F8284"/>
<path d="M22.6667 18.6667H1.33333C0.597333 18.6667 0 18.0693 0 17.3333C0 16.5973 0.597333 16 1.33333 16H22.6667C23.4027 16 24 16.5973 24 17.3333C24 18.0693 23.4027 18.6667 22.6667 18.6667Z" fill="#7F8284"/>
<path d="M22.6667 48H1.33333C0.597333 48 0 47.4027 0 46.6667C0 45.9307 0.597333 45.3334 1.33333 45.3334H22.6667C23.4027 45.3334 24 45.9307 24 46.6667C24 47.4027 23.4027 48 22.6667 48Z" fill="#7F8284"/>
<path d="M17.3333 33.3333H1.33333C0.597333 33.3333 0 32.736 0 32C0 31.264 0.597333 30.6667 1.33333 30.6667H17.3333C18.0693 30.6667 18.6667 31.264 18.6667 32C18.6667 32.736 18.0693 33.3333 17.3333 33.3333Z" fill="#7F8284"/>
</g>
<defs>
<clipPath id="clip0">
<rect width="64" height="64" fill="white"/>
</clipPath>
</defs>
</svg>
