<svg width="64" height="50" viewBox="0 0 64 50" fill="none" xmlns="http://www.w3.org/2000/svg">
<path d="M18.875 16.75H30.4875C30.4875 16.75 30.4875 16.75 30.5 16.75C30.5625 16.75 30.625 16.75 30.6875 16.75H30.75C31.5875 16.7625 33.25 16.75 33.25 16.75H45.125C47.4375 16.75 49.325 14.8625 49.325 12.55V4.24999C49.325 1.93749 47.4375 0.0499878 45.125 0.0499878H37.55C36.8625 0.0499878 36.3 0.612488 36.3 1.29999C36.3 1.98749 36.8625 2.54999 37.55 2.54999H45.125C46.0625 2.54999 46.825 3.31249 46.825 4.24999V12.55C46.825 13.4875 46.0625 14.25 45.125 14.25H18.875C17.9375 14.25 17.175 13.4875 17.175 12.55V4.24999C17.175 3.31249 17.9375 2.54999 18.875 2.54999H26.4625C27.15 2.54999 27.7125 1.98749 27.7125 1.29999C27.7125 0.612488 27.15 0.0499878 26.4625 0.0499878H18.875C16.5625 0.0499878 14.675 1.93749 14.675 4.24999V12.55C14.675 14.8625 16.5625 16.75 18.875 16.75Z" fill="#FF6B00"/>
<path d="M59.8 33.25H56.2L49.8 25.425C49 24.45 47.8125 23.8875 46.55 23.8875H33.25L33.275 20.4125C33.275 19.95 32.9125 19.5625 32.45 19.55L31.65 19.525C31.175 19.5125 30.775 19.8875 30.775 20.375L30.75 23.875H17.4125C16.15 23.875 14.9625 24.4375 14.1625 25.4125L7.7625 33.25H4.2C1.875 33.25 0 35.125 0 37.45V45.75C0 48.075 1.875 49.95 4.2 49.95H12.5C14.825 49.95 16.7 48.075 16.7 45.75V37.45C16.7 35.125 14.825 33.25 12.5 33.25H10.9875L16.1 27C16.425 26.6 16.9125 26.375 17.4125 26.375H30.75V33.25H27.85C25.525 33.25 23.65 35.125 23.65 37.45V45.75C23.65 48.075 25.525 49.95 27.85 49.95H36.15C38.475 49.95 40.35 48.075 40.35 45.75V37.45C40.35 35.125 38.475 33.25 36.15 33.25H33.25V26.375H46.5375C47.05 26.375 47.5375 26.6 47.85 27L52.9625 33.25H51.5C49.175 33.25 47.3 35.125 47.3 37.45V45.75C47.3 48.075 49.175 49.95 51.5 49.95H59.8C62.125 49.95 64 48.075 64 45.75V37.45C64 35.1375 62.1125 33.25 59.8 33.25ZM12.5 35.75C13.4375 35.75 14.2 36.5125 14.2 37.45V45.75C14.2 46.6875 13.4375 47.45 12.5 47.45H4.2C3.2625 47.45 2.5 46.6875 2.5 45.75V37.45C2.5 36.5125 3.2625 35.75 4.2 35.75H12.5ZM36.15 35.75C37.0875 35.75 37.85 36.5125 37.85 37.45V45.75C37.85 46.6875 37.0875 47.45 36.15 47.45H27.85C26.9125 47.45 26.15 46.6875 26.15 45.75V37.45C26.15 36.5125 26.9125 35.75 27.85 35.75H36.15ZM61.5 45.75C61.5 46.6875 60.7375 47.45 59.8 47.45H51.5C50.5625 47.45 49.8 46.6875 49.8 45.75V37.45C49.8 36.5125 50.5625 35.75 51.5 35.75H59.8C60.7375 35.75 61.5 36.5125 61.5 37.45V45.75Z" fill="#7F8284"/>
<path d="M30.85 1.78748C31.1125 2.41248 31.85 2.72498 32.4875 2.46248C33.1125 2.19998 33.425 1.46248 33.1625 0.824975C32.9 0.199974 32.1625 -0.112526 31.525 0.149974C30.8875 0.412475 30.5875 1.14998 30.85 1.78748Z" fill="#FF6B00"/>
</svg>
