<svg width="64" height="64" viewBox="0 0 64 64" fill="none" xmlns="http://www.w3.org/2000/svg">
<path d="M59.672 38.1674H49.8555V34.0544C49.8555 31.7652 47.9931 29.9027 45.7039 29.9027H35.3786C35.014 28.9202 34.2325 28.1387 33.25 27.7741V25.8327H43.0665C45.4529 25.8327 47.3945 23.8912 47.3945 21.5047C47.3945 19.4481 47.3945 6.66198 47.3945 4.66736C47.3945 2.28098 45.453 0.339355 43.0665 0.339355H20.9335C18.5471 0.339355 16.6055 2.28086 16.6055 4.66736V21.5047C16.6055 23.8911 18.547 25.8327 20.9335 25.8327H30.75V27.7741C29.7675 28.1387 28.986 28.9202 28.6214 29.9027H18.2961C16.007 29.9027 14.1445 31.7651 14.1445 34.0544V38.1674H4.328C1.9415 38.1674 0 40.1089 0 42.4952V59.3326C0 61.719 1.9415 63.6606 4.328 63.6606H26.461C28.8474 63.6606 30.7889 61.7191 30.7889 59.3326C30.7889 57.276 30.7889 44.4899 30.7889 42.4952C30.7889 40.1089 28.8474 38.1672 26.461 38.1672H16.6445V34.0542C16.6445 33.1435 17.3854 32.4026 18.2961 32.4026H28.6214C29.1306 33.7747 30.4529 34.7551 32 34.7551C33.5471 34.7551 34.8694 33.7746 35.3786 32.4026H45.7039C46.6146 32.4026 47.3555 33.1435 47.3555 34.0542V38.1672H37.539C35.1526 38.1672 33.2111 40.1087 33.2111 42.4952V59.3326C33.2111 61.719 35.1526 63.6606 37.539 63.6606H59.672C62.0584 63.6606 64 61.7191 64 59.3326C64 57.276 64 44.4899 64 42.4952C64 40.1089 62.0585 38.1674 59.672 38.1674ZM28.2889 59.3326C28.2889 60.3405 27.4689 61.1606 26.461 61.1606H4.328C3.32013 61.1606 2.5 60.3406 2.5 59.3326V47.01H28.2889V59.3326ZM26.461 40.6674C27.4689 40.6674 28.2889 41.4874 28.2889 42.4954V44.5101H2.5V42.4954C2.5 41.4875 3.32 40.6674 4.328 40.6674H26.461ZM20.9335 23.3326C19.9256 23.3326 19.1055 22.5126 19.1055 21.5046V9.18211H20.224C20.9144 9.18211 21.474 8.62248 21.474 7.93211C21.474 7.24173 20.9144 6.68211 20.224 6.68211H19.1055V4.66736C19.1055 3.65948 19.9255 2.83936 20.9335 2.83936H43.0665C44.0744 2.83936 44.8945 3.65936 44.8945 4.66736V6.68211H30.224C29.5336 6.68211 28.974 7.24173 28.974 7.93211C28.974 8.62248 29.5336 9.18211 30.224 9.18211H44.8944V21.5047C44.8944 22.5126 44.0744 23.3327 43.0664 23.3327H20.9335V23.3326ZM32 32.2552C31.392 32.2552 30.8975 31.7606 30.8975 31.1527C30.8975 30.5449 31.3921 30.0501 32 30.0501C32.6079 30.0501 33.1025 30.5447 33.1025 31.1527C33.1025 31.7607 32.608 32.2552 32 32.2552ZM61.5 59.3326C61.5 60.3405 60.68 61.1606 59.672 61.1606H37.539C36.5311 61.1606 35.7111 60.3406 35.7111 59.3326V47.01H61.5V59.3326ZM61.5 44.51H35.7111V42.4952C35.7111 41.4874 36.5311 40.6672 37.539 40.6672H59.672C60.6799 40.6672 61.5 41.4872 61.5 42.4952V44.51Z" fill="#7F8284"/>
<path d="M32 10.25C28.7605 10.25 26.125 12.8855 26.125 16.125C26.125 19.3645 28.7605 22 32 22C35.2395 22 37.875 19.3645 37.875 16.125C37.875 12.8855 35.2395 10.25 32 10.25ZM32 19.5C30.139 19.5 28.625 17.986 28.625 16.125C28.625 14.264 30.139 12.75 32 12.75C33.861 12.75 35.375 14.264 35.375 16.125C35.375 17.986 33.861 19.5 32 19.5Z" fill="#FF6B00"/>
<path d="M9.80337 59.1394H20.9856C21.978 59.1394 22.5765 58.0334 22.0299 57.2024L16.4387 48.7024C15.9459 47.9529 14.8437 47.9519 14.3501 48.7024L8.75899 57.2024C8.21462 58.0301 8.80662 59.1394 9.80337 59.1394ZM15.3945 51.664L18.6671 56.6394H12.1217L15.3945 51.664Z" fill="#FF6B00"/>
<path d="M44.3652 59.6055H52.8457C53.5361 59.6055 54.0957 59.0458 54.0957 58.3555V49.875C54.0957 49.1846 53.5361 48.625 52.8457 48.625H44.3652C43.6749 48.625 43.1152 49.1846 43.1152 49.875V58.3555C43.1152 59.0458 43.6749 59.6055 44.3652 59.6055ZM45.6152 51.125H51.5957V57.1055H45.6152V51.125Z" fill="#FF6B00"/>
<path d="M25.2271 6.6821H25.224C24.5336 6.6821 23.9756 7.24172 23.9756 7.9321C23.9756 8.62247 24.5367 9.1821 25.2271 9.1821C25.9175 9.1821 26.4771 8.62247 26.4771 7.9321C26.4771 7.24172 25.9175 6.6821 25.2271 6.6821Z" fill="#FF6B00"/>
</svg>
