<svg width="64" height="64" viewBox="0 0 64 64" fill="none" xmlns="http://www.w3.org/2000/svg">
<path d="M32 44.7026C28.7692 44.7026 26.1409 42.0743 26.1409 38.8435C26.1409 35.6127 28.7692 32.9844 32 32.9844C35.2308 32.9844 37.8591 35.6127 37.8591 38.8435C37.8591 42.0743 35.2308 44.7026 32 44.7026ZM32 35.4845C30.1477 35.4845 28.6409 36.9914 28.6409 38.8436C28.6409 40.6958 30.1477 42.2028 32 42.2028C33.8521 42.2028 35.3591 40.6959 35.3591 38.8436C35.3591 36.9914 33.8521 35.4845 32 35.4845Z" fill="#FF6B00"/>
<path d="M39.5738 31.2025C38.7125 31.2262 38.065 30.2616 38.4188 29.4737C38.9539 28.2221 40.8083 28.5921 40.8238 29.9525C40.8363 30.6237 40.2446 31.2137 39.5738 31.2025Z" fill="#FF6B00"/>
<path d="M59.9964 4.14638C58.2251 4.14638 56.7189 5.30263 56.1926 6.90001H37.3741C36.5479 4.73613 34.4505 3.19501 31.9998 3.19501C29.5491 3.19501 27.4517 4.73601 26.6255 6.90001H7.80737C7.28113 5.30263 5.77487 4.14638 4.00362 4.14638C1.796 4.14638 0 5.94238 0 8.15001C0 10.3575 1.796 12.1536 4.00362 12.1536C5.77487 12.1536 7.28113 10.9974 7.80737 9.40001H14.9301C14.1166 9.93563 13.3481 10.5529 12.6353 11.2474C9.82213 13.9883 8.18825 17.6251 8.018 21.5114C6.1605 22.0481 4.79812 23.764 4.79812 25.7923C4.79812 28.2488 6.79663 30.2474 9.25313 30.2474C11.7096 30.2474 13.7083 28.2489 13.7083 25.7923C13.7083 23.7758 12.3616 22.068 10.5204 21.5208C10.8703 14.8096 16.5347 9.40001 23.2879 9.40001H26.2677C26.5004 12.3588 28.9824 14.6951 31.9999 14.6951C35.0174 14.6951 37.4994 12.3588 37.7321 9.40001H40.7119C47.4584 9.40001 53.1284 14.8114 53.4791 21.5189C51.6346 22.064 50.2849 23.7734 50.2849 25.7923C50.2849 28.2488 52.2834 30.2474 54.74 30.2474C57.1965 30.2474 59.1951 28.2489 59.1951 25.7923C59.1951 23.7665 57.836 22.0523 55.9818 21.5133C55.8118 17.6203 54.1726 13.9774 51.3524 11.2355C50.6429 10.5458 49.8784 9.93251 49.0694 9.39988H56.1926C56.7189 10.9973 58.2251 12.1535 59.9964 12.1535C62.204 12.1536 64 10.3575 64 8.15001C64 5.94238 62.204 4.14638 59.9964 4.14638ZM4.00362 9.65363C3.1745 9.65363 2.5 8.97913 2.5 8.15001C2.5 7.32088 3.1745 6.64638 4.00362 6.64638C4.83275 6.64638 5.50725 7.32088 5.50725 8.15001C5.50725 8.97913 4.83275 9.65363 4.00362 9.65363ZM11.2083 25.7923C11.2083 26.8703 10.3313 27.7474 9.25313 27.7474C8.17513 27.7474 7.29812 26.8704 7.29812 25.7923C7.29812 24.7141 8.17513 23.8371 9.25313 23.8371C10.3313 23.8371 11.2083 24.7141 11.2083 25.7923ZM31.9998 12.1951C30.2078 12.1951 28.7498 10.7371 28.7498 8.94513C28.7498 7.15301 30.2078 5.69513 31.9998 5.69513C33.7919 5.69513 35.2499 7.15313 35.2499 8.94513C35.2499 10.7371 33.7919 12.1951 31.9998 12.1951ZM56.695 25.7923C56.695 26.8703 55.8179 27.7474 54.7399 27.7474C53.6619 27.7474 52.7848 26.8704 52.7848 25.7923C52.7848 24.7141 53.6619 23.8371 54.7399 23.8371C55.8179 23.8371 56.695 24.7141 56.695 25.7923ZM59.9964 9.65363C59.1673 9.65363 58.4929 8.97913 58.4929 8.15001C58.4929 7.32088 59.1673 6.64638 59.9964 6.64638C60.8255 6.64638 61.5 7.32088 61.5 8.15001C61.5 8.97913 60.8254 9.65363 59.9964 9.65363Z" fill="#7F8284"/>
<path d="M42.9981 33.6378C42.6686 33.031 41.9099 32.8065 41.303 33.136C40.6964 33.4655 40.4718 34.2244 40.8013 34.8311L42.2923 37.5758C42.9963 38.8716 43.0108 40.4266 42.3314 41.7355L38.7684 48.6H25.2316L21.6684 41.7356C20.989 40.4268 21.0036 38.8716 21.7075 37.5759L30.75 20.9299V28.6321C30.75 29.3225 31.3096 29.8821 32 29.8821C32.6903 29.8821 33.25 29.3225 33.25 28.6321V20.93L35.7729 25.5741C36.1024 26.1809 36.8611 26.4054 37.468 26.0759C38.0746 25.7464 38.2993 24.9874 37.9698 24.3808L34.4621 17.9239C34.2434 17.5213 33.822 17.2705 33.3638 17.2705H30.6365C30.1784 17.2705 29.7568 17.5211 29.5381 17.9239L19.5108 36.3825C18.4101 38.4089 18.3873 40.8406 19.4496 42.8873L22.4151 48.6001H22.0673C21.3769 48.6001 20.8173 49.1598 20.8173 49.8501C20.8173 50.5405 21.3769 51.1001 22.0673 51.1001H22.8706L20.834 59.2519C20.7406 59.6253 20.8246 60.0209 21.0615 60.3243C21.2984 60.6276 21.6619 60.8049 22.0468 60.8049H41.9531C42.338 60.8049 42.7014 60.6276 42.9384 60.3243C43.1753 60.0209 43.2591 59.6254 43.1659 59.2519L41.1293 51.1001H41.9329C42.6231 51.1001 43.1829 50.5405 43.1829 49.8501C43.1829 49.1598 42.6231 48.6001 41.9329 48.6001H41.5851L44.5505 42.8873C45.613 40.8405 45.5901 38.4088 44.4894 36.3823L42.9981 33.6378ZM40.3523 58.305H23.6473L25.4474 51.1003H38.5521L40.3523 58.305Z" fill="#FF6B00"/>
</svg>
