<svg xmlns="http://www.w3.org/2000/svg" xmlns:xlink="http://www.w3.org/1999/xlink" width="592" height="596" fill="none" xmlns:v="https://vecta.io/nano"><style><![CDATA[.B{fill:#fafafa}.C{fill:#c6c6c6}.D{fill:#e0e0e0}]]></style><g clip-path="url(#M)"><path opacity=".08" d="M295.792 596c163.361 0 295.791-76.486 295.791-170.835s-132.43-170.836-295.791-170.836S0 330.815 0 425.165 132.43 596 295.792 596z" fill="#000" fill-opacity=".7"/><g class="D"><path d="M363.328 578.475l-61.98-35.763c-1.709-.997-1.709-2.565 0-3.562l39.468-22.94c1.709-.997 4.417-.997 6.126 0l61.98 35.763c1.71.998 1.71 2.565 0 3.562l-39.468 22.94c-1.709.997-4.416.997-6.126 0zm-87.199-50.154l-61.979-35.763c-1.71-.997-1.71-2.564 0-3.562l39.467-22.939c1.71-.998 4.417-.998 6.127 0l61.979 35.763c1.71.997 1.71 2.564 0 3.562l-39.467 22.939c-1.71.998-4.417.998-6.127 0zm-87.199-50.153l-61.979-35.763c-1.71-.997-1.71-2.565 0-3.562l39.467-22.94c1.71-.997 4.417-.997 6.127 0l61.98 35.763c1.709.998 1.709 2.565 0 3.562l-39.325 22.94c-1.71.997-4.56.997-6.27 0zM111.705 30.206l345.091 199.332v304.34c0 3.277-3.562 5.272-6.27 3.705l-5.841-3.42-326.853-188.645c-3.419-1.995-6.127-6.697-6.127-10.687V30.206z"/><path d="M119.542 25.647l345.233 199.331-7.979 4.56L111.705 30.206l7.837-4.559z"/></g><path d="M454.658 537.583s2.28-1.14 2.28-3.705V236.519v-6.981l7.837-4.56v302.916.855c-.285 1.994-1.425 3.847-3.278 4.844l-6.554 3.705-.285.285z" fill="#bcbcbc"/><use xlink:href="#N" class="C"/><use xlink:href="#N" fill="url(#A)"/><path d="M456.796 206.313c0-1.995-1.425-4.417-3.135-5.414L114.698 5.272c-1.71-.997-2.993-.142-2.993 1.852v16.528l345.091 199.331v-16.67z" fill="url(#B)"/><use xlink:href="#O" class="C"/><use xlink:href="#O" fill="url(#C)"/><g class="B"><path d="M126.096 22.797c0 1.852-1.282 2.565-2.85 1.71s-2.849-3.134-2.849-4.987 1.282-2.565 2.849-1.71 2.85 3.135 2.85 4.987z"/><use xlink:href="#P"/><path d="M149.321 36.19c0 1.852-1.283 2.565-2.85 1.71s-2.85-3.135-2.85-4.987 1.283-2.565 2.85-1.71 2.85 3.135 2.85 4.987z"/></g><path d="M136.355 62.122l37.472 21.657c.855.427 1.568 1.71 1.568 2.707v4.844c0 .997-.713 1.425-1.568.855l-37.472-21.657c-.855-.427-1.568-1.71-1.568-2.707v-4.844c0-.997.713-1.282 1.568-.855z" fill="url(#D)"/><path d="M126.239 65.399c.142.142.285.142.427.142s.285 0 .427-.142l1.14-1.14c.285.57.713.997 1.14 1.282.285.142.57.285.855.285s.57 0 .712-.143c.713-.427.998-1.282.998-2.28 0-1.852-.998-3.705-2.137-4.417-.57-.285-1.14-.285-1.71-.142-.713.428-.998 1.282-.998 2.28 0 .712.143 1.425.428 2.137l-1.425 1.282c-.142.285-.142.712.143.855zm1.994-4.132c0-.855.285-1.282.428-1.425h.142c.143 0 .285 0 .428.142.855.57 1.567 2.137 1.567 3.42 0 .855-.285 1.282-.427 1.425s-.285 0-.57-.142c-.855-.427-1.568-2.137-1.568-3.42z" fill="url(#E)"/><g class="C"><path d="M435.851 269.148c-.143 0-.285 0-.428-.143l-57.847-33.341c-.285-.142-.428-.427-.428-.57v-40.037c0-.285.143-.427.428-.57s.427-.142.712 0l57.848 33.483c.285.143.427.428.427.57v40.038c0 .285-.142.427-.427.57h-.285zm-57.278-34.481l56.423 32.628v-38.47l-56.423-32.628v38.47zm-19.52-44.027l-31.631-18.237c-.854-.428-1.567-.143-1.567.854v3.135c0 .997.713 2.137 1.567 2.707l31.631 18.238c.855.427 1.568.142 1.568-.855v-3.135c-.143-.997-.713-2.137-1.568-2.707zm-46.306-26.644l-31.631-18.237c-.855-.428-1.567-.143-1.567.854v3.135c0 .997.712 2.137 1.567 2.707l31.631 18.238c.855.427 1.567.142 1.567-.855v-3.135c0-1.14-.712-2.279-1.567-2.707zM266.44 137.21l-31.631-18.238c-.854-.427-1.567-.142-1.567.855v3.135c0 .997.713 2.137 1.567 2.707l31.631 18.237c.855.428 1.568.143 1.568-.855v-3.134c0-.998-.713-2.28-1.568-2.707zm53.573 41.462c.285 0 .57-.285.57-.57v-13.393c0-.285-.285-.57-.57-.57s-.57.285-.57.57v13.393c0 .427.285.57.57.57zm-46.306-26.644c.285 0 .57-.285.57-.57v-13.393c0-.285-.285-.57-.57-.57s-.57.285-.57.57v13.393c0 .285.285.57.57.57zm86.771 73.663c-.142 0-.285 0-.427-.143L128.661 91.901c-.285-.142-.428-.427-.428-.57V77.937c0-.285.143-.427.428-.57s.427-.142.712 0l231.533 133.648c.284.142.427.427.427.57v13.393c0 .285-.143.428-.427.57-.143.143-.285.143-.428.143zM129.801 90.903l229.965 132.793v-11.684L129.801 79.22v11.683zm291.517 194.202c.712.428 1.282 1.568 1.282 2.565s-.57 1.567-1.282 1.14-1.283-1.568-1.283-2.565c0-1.14.57-1.567 1.283-1.14zm-3.562-2.707v4.987c0 .712.285 1.425.854 1.71l5.557 3.134c.428.285.855-.142.855-.712v-4.987c0-.712-.285-1.425-.855-1.71l-.997-.57v-.57c0-.284-.143-.712-.428-.854l-2.849-1.568c-.143-.142-.428 0-.428.428v.57l-.997-.57c-.285-.285-.712 0-.712.712zm1.709 3.42c0-1.568.855-2.422 1.853-1.853s1.852 2.423 1.852 4.132-.855 2.423-1.852 1.853c-.998-.713-1.853-2.423-1.853-4.132zm16.386 23.082h-.143l-29.066-16.813c-.142 0-.142-.143-.142-.285v-26.787c0-.142 0-.285.142-.285h.428l28.923 16.671c.143 0 .143.142.143.285v26.786c0 .143 0 .285-.143.285l-.142.143zm-28.639-17.241l28.211 16.243v-25.931l-28.211-16.243v25.931z"/><path d="M435.851 308.9c-.143 0-.285 0-.285-.143l-9.689-14.533c-.142-.142 0-.427.142-.427s.428 0 .428.142l9.689 14.533c.142.143 0 .428-.143.428h-.142zm-19.378-28.924c-.142 0-.285 0-.285-.142L406.5 265.3c-.143-.142 0-.427.142-.427.143-.143.428 0 .428.142l9.688 14.534c.143.142 0 .427-.142.427 0-.142 0 0-.143 0z"/><path d="M406.784 292.229c-.142 0-.284-.142-.284-.285s0-.427.284-.427l9.119-3.135c.143 0 .428 0 .428.285 0 .143 0 .428-.285.428l-9.262 3.134h0zm19.805-6.839c-.142 0-.284-.142-.284-.285s-.001-.427.284-.427l9.119-3.135c.143 0 .428 0 .428.285 0 .143 0 .428-.285.428l-9.262 3.134c.143-.142 0 0 0 0zm-26.074-17.382l-16.1-9.262c-.285-.142-.57 0-.57.428v1.852c0 .427.285.855.57 1.14l16.1 9.261c.285.143.57 0 .57-.427v-1.853c0-.427-.285-.854-.57-1.139z"/></g><g class="B"><path d="M400.515 274.704l-27.641-15.958c-.285-.142-.57 0-.57.428v1.852c0 .427.285.855.57 1.14l27.641 15.958c.285.142.57 0 .57-.428v-1.852c0-.427-.285-.855-.57-1.14zm0 6.697l-27.641-15.958c-.285-.143-.57 0-.57.427v1.853c0 .427.285.854.57 1.139l27.641 15.958c.285.143.57 0 .57-.427v-1.852c0-.428-.285-.855-.57-1.14z"/></g><g class="C"><path d="M143.479 196.197c.997.57 1.71 2.137 1.71 3.704 0 1.425-.713 2.28-1.71 1.71s-1.71-2.137-1.71-3.704.855-2.28 1.71-1.71zm-4.987-3.705v6.982c0 .997.427 1.995 1.14 2.422l7.694 4.417c.57.285 1.14-.142 1.14-1.14v-6.981c0-.998-.428-1.995-1.14-2.423l-1.425-.854v-.713c0-.427-.285-.997-.57-1.14l-3.847-2.279c-.285-.143-.57 0-.57.57v.712l-1.425-.855c-.427-.142-.997.285-.997 1.282zm2.28 4.702c0-2.279 1.14-3.419 2.707-2.564 1.425.854 2.707 3.419 2.707 5.699s-1.14 3.419-2.707 2.565c-1.425-.855-2.707-3.42-2.707-5.7zm22.939 32.344h-.285l-40.465-23.367c-.142-.143-.284-.285-.284-.428v-37.472c0-.143.142-.285.284-.428s.285-.142.428 0l40.465 23.367c.142.143.285.285.285.428v37.472c0 .143-.143.285-.285.428.142 0 0 0-.143 0zm-39.895-24.222l39.468 22.797V191.78l-39.468-22.797v36.333z"/><path d="M163.711 229.538c-.142 0-.285-.143-.427-.285l-13.536-20.233c-.142-.285-.142-.57.142-.712s.57-.143.713.142l13.536 20.233c.142.285.142.57-.143.712 0 .143-.142.143-.285.143zm-26.929-40.608c-.142 0-.285-.142-.427-.285l-13.536-20.232c-.142-.285-.142-.57.143-.712s.569-.143.712.142l13.536 20.233c.142.284.142.569-.143.712-.142.142-.142.142-.285.142z"/><path d="M123.246 206.171c-.142 0-.427-.143-.427-.285-.143-.285 0-.57.285-.57l12.681-4.417c.285-.143.57 0 .57.285.142.285 0 .57-.285.57l-12.681 4.417h-.143zm27.642-9.689c-.143 0-.428-.143-.428-.285-.142-.285 0-.57.285-.57l12.824-4.417c.285-.142.57 0 .57.285.142.285 0 .57-.285.57l-12.824 4.417h-.142zm12.253 38.185l-16.1-9.261c-.285-.143-.57 0-.57.427v1.852c0 .428.285.855.57.998l16.1 9.261c.285.142.57 0 .57-.427v-1.853c0-.285-.285-.855-.57-.997z"/></g><g class="B"><path d="M163.141 241.364l-39.325-22.798c-.285-.142-.57 0-.57.428v1.852c0 .428.285.855.57 1.14l39.325 22.797c.285.143.57 0 .57-.427v-1.853c0-.427-.285-.997-.57-1.139zm0 6.696l-39.325-22.797c-.285-.142-.57 0-.57.428v1.852c0 .427.285.855.57 1.14l39.325 22.797c.285.142.57 0 .57-.428V249.2c0-.57-.285-.997-.57-1.14z"/></g><g class="C"><path d="M421.318 325.143c.712.427 1.282 1.567 1.282 2.564s-.57 1.568-1.282 1.14-1.283-1.567-1.283-2.564.57-1.568 1.283-1.14zm-3.562-2.707v4.986c0 .713.285 1.425.854 1.71l5.557 3.135c.428.285.855-.143.855-.713v-4.986c0-.713-.285-1.425-.855-1.71l-.997-.57v-.57c0-.285-.143-.712-.428-.855l-2.849-1.567c-.143-.143-.428 0-.428.427v.57l-.997-.57c-.285-.285-.712.143-.712.713zm1.709 3.419c0-1.567.855-2.422 1.853-1.852s1.852 2.422 1.852 4.132-.855 2.422-1.852 1.852-1.853-2.422-1.853-4.132zm16.386 23.082h-.143l-28.923-16.67c-.143 0-.143-.143-.143-.285v-26.787c0-.142 0-.285.143-.285h.427l28.924 16.671c.142 0 .142.142.142.285v26.786c0 .143 0 .285-.142.285h-.285zm-28.639-17.24l28.211 16.243v-25.932l-28.211-16.243v25.932z"/><path d="M435.851 348.937c-.143 0-.285 0-.285-.142l-9.689-14.534c-.142-.142 0-.427.142-.427.143-.142.428 0 .428.143l9.689 14.533c.142.142 0 .427-.143.427h-.142zm-19.378-28.924c-.142 0-.285 0-.285-.142l-9.688-14.533c-.143-.143 0-.428.142-.428.143-.142.428 0 .428.143l9.688 14.533c.143.142 0 .427-.142.427h-.143z"/><path d="M406.784 332.267c-.142 0-.284-.143-.284-.285s0-.428.284-.428l9.119-3.134c.143 0 .428 0 .428.285 0 .142 0 .427-.285.427l-9.262 3.135h0zm19.805-6.839c-.142 0-.284-.143-.284-.285s-.001-.428.284-.428l9.119-3.134c.143 0 .428 0 .428.285 0 .142 0 .427-.285.427l-9.262 3.135h0zm-26.074-17.241l-16.1-9.261c-.285-.142-.57 0-.57.428v1.852c0 .427.285.855.57 1.14l16.1 9.261c.285.142.57 0 .57-.427v-1.853c0-.427-.285-.997-.57-1.14z"/></g><g class="B"><path d="M400.515 314.884l-27.641-15.958c-.285-.142-.57 0-.57.428v1.852c0 .427.285.855.57 1.14l27.641 15.958c.285.142.57 0 .57-.428v-1.852c0-.57-.285-.997-.57-1.14zm0 6.697l-27.641-15.958c-.285-.143-.57 0-.57.427v1.852c0 .428.285.855.57 1.14L400.515 325c.285.143.57 0 .57-.427v-1.852c0-.57-.285-.998-.57-1.14z"/></g><g class="C"><path d="M421.318 365.18c.712.427 1.282 1.567 1.282 2.565s-.57 1.567-1.282 1.139-1.283-1.567-1.283-2.564.57-1.425 1.283-1.14zm-3.562-2.565v4.987c0 .713.285 1.425.854 1.71l5.557 3.135c.428.284.855-.143.855-.713v-4.987c0-.712-.285-1.425-.855-1.71l-.997-.569v-.57c0-.285-.143-.713-.428-.855l-2.849-1.568c-.143-.142-.428 0-.428.428v.57l-.997-.57c-.285-.285-.712 0-.712.712zm1.709 3.42c0-1.567.855-2.422 1.853-1.852s1.852 2.422 1.852 4.132-.855 2.422-1.852 1.852c-.998-.713-1.853-2.565-1.853-4.132zm16.386 23.082h-.143l-28.923-16.67c-.143 0-.143-.143-.143-.285v-26.787c0-.142 0-.285.143-.285h.427l28.924 16.671c.142 0 .142.142.142.285v26.786c0 .142 0 .285-.142.285h-.285zm-28.639-17.383l28.211 16.243v-25.931l-28.211-16.243v25.931z"/><path d="M435.851 389.117c-.143 0-.285 0-.285-.143l-9.689-14.533c-.142-.142 0-.427.142-.427.143-.143.428 0 .428.142l9.689 14.533c.142.143 0 .428-.143.428h-.142zm-19.378-29.066c-.142 0-.285 0-.285-.143l-9.688-14.533c-.143-.142 0-.427.142-.427.143-.143.428 0 .428.142l9.688 14.533c.143.143 0 .428-.142.428h-.143z"/><path d="M406.784 372.304c-.142 0-.284-.142-.284-.285s0-.427.284-.427l9.119-3.135c.143 0 .428 0 .428.285 0 .142 0 .427-.285.427l-9.262 3.135h0zm19.805-6.839c-.142 0-.284-.143-.284-.285s-.001-.427.284-.427l9.119-3.135c.143 0 .428 0 .428.285 0 .142 0 .427-.285.427l-9.262 3.135h0zm-26.074-17.24l-16.1-9.262c-.285-.142-.57 0-.57.428v1.852c0 .428.285.855.57 1.14l16.1 9.261c.285.143.57 0 .57-.427v-1.852c0-.428-.285-.855-.57-1.14z"/></g><g class="B"><path d="M400.515 354.921l-27.641-15.958c-.285-.142-.57 0-.57.428v1.852c0 .428.285.855.57 1.14l27.641 15.958c.285.142.57 0 .57-.428v-1.852c0-.427-.285-.855-.57-1.14zm0 6.697l-27.641-15.958c-.285-.142-.57 0-.57.427v1.853c0 .427.285.855.57 1.14l27.641 15.958c.285.142.57-.001.57-.428v-1.852c0-.428-.285-.998-.57-1.14z"/></g><g class="C"><path d="M441.55 318.874h-.142l-75.231-43.457c-.142-.143-.285-.285-.142-.428s.285-.285.427-.142l75.231 43.457c.142.142.284.285.142.427 0 .142-.143.143-.285.143z"/><path d="M441.55 359.053h-.142l-75.231-43.599c-.142-.143-.285-.285-.142-.428s.285-.285.427-.142l75.231 43.457c.142.142.284.285.142.427 0 .143-.143.285-.285.285zm-81.072 6.697c-.142 0-.427-.143-.427-.428V238.371c0-.142.142-.427.427-.427s.428.142.428.427v126.951c0 .143-.143.428-.428.428zm9.404-6.554v2.707c0 .57-.428.712-.855.285l-3.989-4.132c-.428-.428-.285-.712.284-.712l3.278.427c.712.285 1.282.855 1.282 1.425zm6.412 3.704v2.707c0 .57.427 1.14.854 1.283l3.99.57c.427 0 .285-.428-.285-.998l-3.277-3.419c-.713-.713-1.282-.713-1.282-.143z"/></g><path d="M435.138 396.811l-27.641-16.1c-.285-.143-.57 0-.57.427v1.852c0 .428.285.855.57 1.14l27.641 15.958c.285.142.57 0 .57-.427v-1.853c.143-.427-.142-.855-.57-.997z" class="B"/><g class="C"><path d="M295.792 250.767c1.424.855 2.564 3.277 2.564 5.415s-1.14 3.277-2.564 2.422-2.565-3.277-2.565-5.415 1.14-3.277 2.565-2.422zm-6.84-4.702v9.547c0 1.282.713 2.707 1.568 3.277l10.543 6.127c.855.427 1.568-.143 1.568-1.425v-9.547c0-1.282-.713-2.707-1.568-3.277l-1.852-1.14v-.997c0-.57-.285-1.282-.712-1.567l-5.415-3.135c-.427-.285-.712.143-.712.713v.997l-1.852-1.14c-.855-.427-1.568.285-1.568 1.567zm3.135 6.555c0-3.135 1.71-4.702 3.705-3.562s3.704 4.701 3.704 7.836-1.71 4.702-3.704 3.562-3.705-4.702-3.705-7.836zm56.85 73.378c-.142 0-.285 0-.427-.143l-104.154-60.127c-.285-.142-.428-.427-.428-.57v-86.914c0-.285.143-.427.428-.57s.427-.142.712 0l104.154 60.128c.285.142.427.427.427.57v86.913c0 .285-.142.428-.427.57 0 0-.142.143-.285.143zm-103.441-61.267l102.729 59.272v-85.204l-102.729-59.272v85.204z"/><path d="M244.783 265.728c-.285 0-.57-.285-.712-.57-.143-.427.142-.712.57-.855l39.467-9.974c.427-.142.712.143.855.57s-.143.713-.57.855l-39.467 9.974h-.143zm61.41-15.673c-.285 0-.57-.142-.713-.57s.143-.712.57-.855l42.745-10.971c.427-.142.712.143.854.57s-.142.712-.569.855l-42.745 10.971h-.142zm42.744 75.943c-.285 0-.427-.143-.57-.285l-40.465-56.85c-.284-.285-.142-.713.143-.998s.712-.142.997.143l40.465 56.85c.285.285.143.712-.142.997-.143 0-.285.143-.428.143zm-64.829-91.046c-.285 0-.427-.143-.57-.285l-39.325-56.138c-.285-.285-.142-.712.143-.997s.712-.143.997.142l39.325 56.138c.285.285.143.713-.142.997-.143.143-.285.143-.428.143zm-108.713 23.652c-.143 0-.428-.143-.428-.428V131.225c0-.142.143-.427.428-.427s.427.142.427.427v126.951c-.142.285-.285.428-.427.428zm62.122-84.634l-37.473-21.657c-.855-.428-1.567-.143-1.567.855v3.134c0 .998.712 2.137 1.567 2.707l37.473 21.658c.854.427 1.567.142 1.567-.855v-3.135c-.143-.997-.713-2.28-1.567-2.707z"/></g><path d="M238.372 184.514l-27.642-15.958c-.285-.143-.57 0-.57.427v1.852c0 .428.285.855.57 1.14l27.642 15.958c.285.143.569 0 .569-.427v-1.853c0-.427-.142-.997-.569-1.139z" class="B"/><g class="C"><use xlink:href="#Q"/><use xlink:href="#R"/><use xlink:href="#S"/><path d="M238.941 205.316h-.142l-54.855-31.631c-.143-.143-.285-.285-.143-.427s.285-.285.428-.143l54.855 31.631c.142.142.285.285.142.427 0 0-.142.143-.285.143z"/><path d="M238.941 208.593h-.142l-54.855-31.631c-.143-.143-.285-.285-.143-.427s.285-.285.428-.143l54.855 31.631c.142.142.285.285.142.427 0 .143-.142.143-.285.143z"/><path d="M238.941 212.012h-.142l-26.074-15.103c-.143-.142-.285-.285-.143-.427s.285-.285.428-.142l26.074 15.103c.142.142.285.285.142.427 0 0-.142.142-.285.142z"/><path d="M238.941 218.709h-.142l-54.855-31.631c-.143-.142-.285-.285-.143-.427s.285-.285.428-.143l54.855 31.631c.142.143.285.285.142.428 0 0-.142.142-.285.142z"/><path d="M238.941 221.986h-.142l-54.855-31.631c-.143-.142-.285-.285-.143-.427s.285-.285.428-.143l54.855 31.631c.142.143.285.285.142.428 0 .142-.142.142-.285.142z"/><use xlink:href="#T"/><path d="M238.941 228.683h-.142l-54.855-31.631c-.143-.143-.285-.285-.143-.428s.285-.285.428-.142l54.855 31.631c.142.142.285.285.142.427 0 .143-.142.143-.285.143z"/><path d="M238.941 231.96h-.142l-54.855-31.631c-.143-.143-.285-.285-.143-.428s.285-.285.428-.142l54.855 31.631c.142.142.285.285.142.427 0 .143-.142.143-.285.143z"/><path d="M238.941 235.379h-.142l-26.074-15.103c-.143-.142-.285-.285-.143-.427s.285-.285.428-.143l26.074 15.103c.142.143.285.285.142.428 0 0-.142.142-.285.142z"/><path d="M238.941 242.076h-.142l-54.855-31.631c-.143-.142-.285-.285-.143-.427s.285-.285.428-.143l54.855 31.631c.142.143.285.285.142.428 0 0-.142.142-.285.142z"/><path d="M238.941 245.353h-.142l-54.855-31.631c-.143-.142-.285-.285-.143-.427s.285-.285.428-.143l54.855 31.631c.142.143.285.285.142.428 0 .142-.142.142-.285.142z"/><path d="M238.941 248.773h-.142l-54.855-31.631c-.143-.143-.285-.285-.143-.428s.285-.285.428-.142l54.855 31.631c.142.142.285.285.142.427 0 0-.142.143-.285.143z"/><path d="M238.941 252.05h-.142l-54.855-31.631c-.143-.143-.285-.285-.143-.428s.285-.285.428-.142l54.855 31.631c.142.142.285.285.142.427 0 .143-.142.143-.285.143z"/><path d="M238.941 255.469h-.142l-54.855-31.773c-.143-.143-.285-.285-.143-.428s.285-.285.428-.142l54.855 31.631c.142.142.285.285.142.427 0 .143-.142.285-.285.285z"/><path d="M238.941 258.746h-.142l-26.074-15.103c-.143-.142-.285-.285-.143-.427s.285-.285.428-.143l26.074 15.103c.142.143.285.285.142.428 0 .142-.142.142-.285.142zM135.358 122.107c.285-.143.57-.143.997.142l20.09 11.541c.428.285.713.57.997 1.14l-11.113 3.989-10.971-16.812z"/><path d="M134.787 123.247c0-.428.143-.855.428-.998l11.113 19.235 11.114-6.412c.285.428.427.998.427 1.568v16.528c0 .997-.712 1.424-1.567.855l-20.09-11.541c-.855-.428-1.567-1.71-1.567-2.708l.142-16.527zm27.643 7.837c.142 0 .285 0 .285-.143.142-.142 0-.428-.143-.428l-.855-.57c-.143-.142-.428 0-.428.143-.143.142 0 .427.143.427l.855.571c0-.143.143 0 .143 0z"/><path d="M159.579 129.373l-1.71-.997c-.142-.143-.284-.285-.142-.428s.285-.285.427-.142l1.71.997c.143.143.285.285.143.428 0 .142-.143.142-.285.142 0 .143-.143.143-.143 0zm-3.562-1.995l-1.71-.997c-.142-.142-.285-.285-.142-.427s.285-.285.427-.143l1.71.997c.143.143.285.285.143.428 0 .142-.143.142-.285.142h-.143zm-3.562-2.137l-1.71-.997c-.142-.143-.285-.285-.142-.428s.285-.285.427-.142l1.71.997c.143.143.285.285.143.428 0 .142-.143.142-.285.142 0 .143-.143.143-.143 0zm-3.562-1.995l-1.71-.997c-.142-.142-.285-.285-.142-.427s.285-.285.427-.143l1.71.998c.143.142.285.284.143.427 0 .142-.143.142-.285.142h-.143zm-3.562-1.994l-1.71-.998c-.142-.142-.285-.285-.142-.427s.285-.285.427-.143l1.71.998c.143.142.285.285.143.427 0 .143-.143.143-.285.143h-.143zm-3.562-2.138l-1.71-.997c-.142-.142-.285-.285-.142-.427s.285-.285.427-.143l1.71.998c.143.142.285.285.143.427 0 .142-.143.142-.285.142 0 .143 0 0-.143 0zm-3.562-1.994l-1.71-.998c-.142-.142-.285-.285-.142-.427.142-.285.285-.285.427-.285l1.71.997c.142.143.285.285.142.428 0 .142-.142.142-.284.142 0 .143 0 .143-.143.143zm-3.562-2.137l-1.71-.998c-.142-.142-.285-.285-.142-.427s.285-.285.427-.143l1.71.998c.142.142.285.285.142.427 0 .143-.142.143-.285.143 0 .142 0 .142-.142 0zm-3.276-1.994c.142 0 .285 0 .285-.143.143-.143 0-.428-.143-.428l-.855-.57c-.143-.143-.428 0-.428.143-.142.142 0 .427.143.427l.855.571h.143zm32.342 50.722c.143 0 .428-.142.428-.427v-1.14c0-.143-.143-.428-.428-.428-.142 0-.427.143-.427.428v1.14c.142.285.285.427.427.427zm-.285-3.562v-2.137c0-.143.143-.428.428-.428.142 0 .427.143.427.428v2.137c0 .143-.142.428-.427.428-.285-.143-.428-.285-.428-.428zm0-4.417v-2.137c0-.143.143-.427.428-.427.142 0 .427.142.427.427v2.137c0 .143-.142.428-.427.428s-.428-.285-.428-.428zm0-4.274v-2.137c0-.143.143-.428.428-.428.142 0 .427.143.427.428v2.137c0 .142-.142.427-.427.427-.285-.142-.428-.285-.428-.427zm0-4.417v-2.137c0-.143.143-.428.428-.428.142 0 .427.143.427.428v2.137c0 .142-.142.427-.427.427s-.428-.285-.428-.427zm0-4.417v-2.137c0-.143.143-.428.428-.428.142 0 .427.143.427.428v2.137c0 .142-.142.427-.427.427s-.428-.142-.428-.427zm0-4.275v-2.137c0-.142.143-.427.428-.427.142 0 .427.142.427.427v2.137c0 .143-.142.428-.427.428-.285-.143-.428-.285-.428-.428zm.286-3.988c.142 0 .427-.142.427-.427v-1.141c0-.143-.142-.428-.427-.428-.143 0-.428.143-.428.428v1.141c.142.285.285.427.428.427zm-32.486 12.111c.143 0 .285 0 .285-.143.143-.142 0-.428-.142-.428l-.856-.57c-.142-.142-.427 0-.427.143-.143.142 0 .427.142.427l.856.571h.142zm28.353 16.384l-1.852-.997c-.143-.143-.285-.285-.143-.428s.285-.284.428-.142l1.852.997c.143.143.285.285.143.428 0 .142-.143.142-.285.142h-.143zm-3.562-2.137l-1.71-.997c-.142-.143-.285-.285-.142-.428s.285-.285.427-.142l1.71.997c.143.143.285.285.143.428 0 .142-.143.142-.285.142 0 .143-.143.143-.143 0zm-3.562-1.995l-1.71-.997c-.142-.143-.285-.285-.142-.427s.285-.285.427-.143l1.71.997c.143.143.285.285.143.428 0 .142-.143.142-.285.142h-.143zm-3.562-1.994l-1.852-.998c-.143-.142-.285-.285-.143-.427s.285-.285.428-.143l1.852.998c.143.142.285.285.143.427 0 .143-.143.143-.285.143h-.143zm-3.562-2.138l-1.71-.997c-.142-.142-.285-.285-.142-.427s.285-.285.427-.143l1.71.997c.143.143.285.285.143.428 0 .142-.143.142-.285.142h-.143zm-3.562-1.994l-1.852-.998c-.143-.142-.285-.285-.143-.427s.285-.285.428-.143l1.852.998c.143.142.285.285.143.427 0 .143-.143.143-.285.143h-.143zm-3.562-2.138l-1.71-.997c-.142-.142-.285-.285-.142-.427s.285-.285.427-.143l1.71.997c.142.143.285.285.142.428 0 .142-.142.142-.284.142 0 .143-.143 0-.143 0zm-3.562-1.994l-1.71-.998c-.142-.142-.285-.285-.142-.427s.285-.285.427-.143l1.71.998c.142.142.285.285.142.427 0 .143-.142.143-.285.143h-.142zm27.785 15.958c.142 0 .285 0 .285-.142.142-.143 0-.428-.143-.428l-.855-.57c-.143-.143-.428 0-.428.142-.143.143 0 .428.143.428l.855.57h.143zm-33.342-50.154c.143 0 .428-.142.428-.427v-1.14c0-.143-.143-.428-.428-.428-.142 0-.427.143-.427.428v1.282c0 .143.142.285.427.285zm-.427 25.789v-2.137c0-.142.142-.427.427-.427.143 0 .428.142.428.427v2.137c0 .143-.143.428-.428.428-.285-.143-.427-.285-.427-.428zm0-4.417v-2.137c0-.142.142-.427.427-.427.143 0 .428.142.428.427v2.137c0 .143-.143.428-.428.428s-.427-.143-.427-.428zm0-4.274v-2.137c0-.143.142-.428.427-.428.143 0 .428.143.428.428v2.137c0 .142-.143.427-.428.427-.285-.142-.427-.285-.427-.427zm0-4.417v-2.137c0-.143.142-.428.427-.428.143 0 .428.143.428.428v2.137c0 .142-.143.427-.428.427s-.427-.142-.427-.427zm0-4.274v-2.138c0-.142.142-.427.427-.427.143 0 .428.142.428.427v2.138c0 .142-.143.427-.428.427-.285-.142-.427-.285-.427-.427zm0-4.417v-2.138c0-.142.142-.427.427-.427.143 0 .428.142.428.427v2.138c0 .142-.143.427-.428.427s-.427-.142-.427-.427z"/><path d="M129.088 143.621c.143 0 .428-.142.428-.427v-1.14c0-.142-.143-.427-.428-.427-.142 0-.427.142-.427.427v1.14c0 .285.142.427.427.427zm1.14-29.636l-2.565-1.567c-.142 0-.142-.143-.142-.285v-2.992c0-.143 0-.285.142-.285h.428l2.564 1.567c.143 0 .143.143.143.285v2.992c0 .143 0 .285-.143.285h-.142-.285zm-2.137-4.274v2.137l1.852 1.14v-2.137l-1.852-1.14z"/><path d="M130.228 147.326l-2.565-1.567c-.142 0-.142-.143-.142-.285v-2.993c0-.142 0-.284.142-.284h.428l2.564 1.567c.143 0 .143.142.143.285v2.992c0 .142 0 .285-.143.285h-.142c-.285.142-.285 0-.285 0zm-2.137-4.132v2.137l1.852 1.14v-2.137l-1.852-1.14zm36.76-9.261l-2.565-1.568c-.142 0-.142-.142-.142-.285v-2.992c0-.142 0-.285.142-.285h.428l2.565 1.568c.142 0 .142.142.142.284v2.993c0 .142 0 .285-.142.285h-.143s-.142.142-.285 0zm-1.995-4.132v2.137l1.853 1.14v-2.138l-1.853-1.139zm1.995 37.615l-2.565-1.568c-.142 0-.142-.142-.142-.285v-2.992c0-.142 0-.285.142-.285h.428l2.565 1.568c.142 0 .142.142.142.285v2.992c0 .142 0 .285-.142.285h-.143-.285zm-1.995-4.275v2.137l1.853 1.14v-2.137l-1.853-1.14zm-35.193-33.768c0 .997.57 2.137 1.283 2.565s1.282 0 1.282-.998-.57-2.137-1.282-2.564c-.57-.428-1.283 0-1.283.997zm17.383-8.691c0 .997.57 2.137 1.282 2.564s1.283.001 1.283-.997-.57-2.137-1.283-2.565-1.282 0-1.282.998zm0 33.341c0 .997.57 2.137 1.282 2.564s1.283 0 1.283-.997-.57-2.137-1.283-2.565-1.282 0-1.282.998zm17.383-4.56c0 .997.57 2.137 1.282 2.565s1.283 0 1.283-.998-.57-2.137-1.283-2.564-1.282 0-1.282.997z"/></g><g class="B"><path d="M167.986 173.97l-43.172-24.934c-.855-.428-1.568-.143-1.568.854v3.135c0 .997.713 2.137 1.568 2.707l43.172 24.935c.855.427 1.567.142 1.567-.855v-3.135c0-.997-.712-2.28-1.567-2.707zm173.542 173.685c-.427 0-.997-.143-1.567-.428l-22.797-13.108c-1.852-.997-3.277-3.562-3.277-5.699v-6.269c0-1.14.427-1.853 1.14-2.28s1.567-.285 2.564.285l22.797 13.108c1.852.997 3.277 3.562 3.277 5.699v6.27c0 1.139-.427 1.852-1.14 2.279-.427 0-.712.143-.997.143zm-25.504-27.357c-.285 0-.428 0-.57.143-.427.285-.712.855-.712 1.71v6.269c0 1.852 1.282 4.132 2.849 4.987l22.797 13.108c.713.427 1.425.427 1.852.285.428-.285.713-.855.713-1.71v-6.269c0-1.852-1.282-4.132-2.85-4.987l-22.797-13.108c-.57-.285-.997-.428-1.282-.428zm22.227 22.512c-.285 0-.57-.142-.855-.285l-2.707-1.567c-.997-.57-1.71-1.852-1.71-2.992v-3.135c0-.569.285-1.139.57-1.282.428-.285.855-.142 1.425.143l2.707 1.567c.997.57 1.71 1.852 1.71 2.992v3.135c0 .57-.285 1.139-.57 1.282-.143.142-.428.142-.57.142zm-4.132-8.691h-.285c-.142.143-.285.285-.285.712v3.135c0 .855.57 1.995 1.425 2.422l2.707 1.568c.285.142.57.142.712.142.143-.142.285-.285.285-.712v-3.135c0-.855-.569-1.995-1.424-2.422l-2.708-1.567s-.284-.143-.427-.143zm-4.274-1.14l-11.114-6.412c-.285-.142-.57 0-.57.428v1.425c0 .427.285.855.57 1.14l11.114 6.411c.285.143.569 0 .569-.427v-1.425c0-.57-.284-.997-.569-1.14zm-29.067-8.834c-.427 0-.997-.142-1.567-.427l-22.797-13.108c-1.852-.998-3.277-3.562-3.277-5.7v-6.269c0-1.14.427-1.852 1.14-2.28s1.567-.285 2.564.285l22.798 13.109c1.852.997 3.277 3.562 3.277 5.699v6.269c0 1.14-.428 1.852-1.14 2.28-.285.142-.57.142-.998.142zm-25.504-27.356c-.285 0-.427 0-.57.142-.427.285-.712.855-.712 1.71v6.269c0 1.853 1.282 4.132 2.849 4.987l22.798 13.108c.712.428 1.424.428 1.852.285.427-.285.712-.854.712-1.709v-6.269c0-1.853-1.282-4.132-2.849-4.987l-22.797-13.109c-.428-.285-.855-.427-1.283-.427zm22.37 22.512c-.285 0-.57-.142-.855-.285l-2.707-1.567c-.998-.57-1.71-1.853-1.71-2.992v-3.135c0-.57.285-1.14.57-1.282.427-.285.855-.143 1.425.142l2.707 1.568c.997.569 1.71 1.852 1.71 2.992v3.134c0 .57-.285 1.14-.57 1.283-.143.142-.428.142-.57.142zm-4.132-8.549h-.285c-.143.143-.285.285-.285.713v3.134c0 .855.57 1.995 1.425 2.422l2.707 1.568c.285.142.57.142.712.142.143-.142.285-.285.285-.712v-3.135c0-.855-.57-1.995-1.425-2.422l-2.707-1.567c0-.143-.285-.143-.427-.143zm-4.275-1.282l-11.113-6.412c-.285-.142-.57 0-.57.428v1.424c0 .428.285.855.57 1.14l11.113 6.412c.285.142.57 0 .57-.428v-1.424c0-.428-.285-.998-.57-1.14z"/></g><g class="C"><path d="M260.171 300.636c-.427 0-.997-.143-1.567-.428L235.807 287.1c-1.852-.997-3.277-3.562-3.277-5.699v-6.269c0-1.14.427-1.853 1.14-2.28s1.567-.285 2.564.285l22.797 13.108c1.853.998 3.277 3.562 3.277 5.699v6.27c0 1.139-.427 1.852-1.139 2.279-.285.143-.57.143-.998.143zm-25.504-27.357c-.285 0-.428 0-.57.143-.427.285-.712.855-.712 1.71v6.269c0 1.852 1.282 4.132 2.849 4.987l22.797 13.108c.713.427 1.425.427 1.853.285.427-.285.712-.855.712-1.71v-6.269c0-1.852-1.282-4.132-2.85-4.987l-22.797-13.108c-.427-.285-.855-.428-1.282-.428zm22.37 22.655c-.285 0-.57-.143-.855-.285l-2.707-1.567c-.998-.57-1.71-1.853-1.71-2.992v-3.135c0-.57.285-1.14.57-1.282.427-.285.855-.143 1.424.142l2.708 1.567c.997.57 1.709 1.853 1.709 2.993v3.134c0 .57-.285 1.14-.57 1.282-.142 0-.427.143-.569.143zm-4.132-8.691h-.285c-.143.142-.285.285-.285.712v3.135c0 .854.57 1.994 1.424 2.422l2.708 1.567c.285.143.57.143.712.143.143-.143.285-.285.285-.713v-3.134c0-.855-.57-1.995-1.425-2.423l-2.707-1.567c-.142-.142-.285-.142-.427-.142z"/></g><g class="B"><path d="M248.488 285.96l-11.114-6.411c-.285-.143-.57 0-.57.427v1.425c0 .427.285.855.57 1.14l11.114 6.411c.285.143.57 0 .57-.427V287.1c.142-.427-.143-.855-.57-1.14zm-28.924-8.691c-.427 0-.997-.143-1.567-.428L195.2 263.733c-1.853-.997-3.277-3.562-3.277-5.699v-6.269c0-1.14.427-1.853 1.139-2.28s1.568-.285 2.565.285l22.797 13.108c1.852.998 3.277 3.562 3.277 5.7v6.269c0 1.14-.427 1.852-1.14 2.279-.285 0-.57.143-.997.143zm-25.504-27.357c-.285 0-.428 0-.57.143-.428.285-.713.855-.713 1.71v6.269c0 1.852 1.283 4.132 2.85 4.987l22.797 13.108c.713.427 1.425.427 1.852.285.428-.285.713-.855.713-1.71v-6.269c0-1.852-1.283-4.132-2.85-4.987l-22.797-13.108c-.57-.285-.855-.428-1.282-.428zm22.369 22.513c-.285 0-.57-.143-.855-.285l-2.707-1.568c-.997-.57-1.709-1.852-1.709-2.992v-3.134c0-.57.285-1.14.569-1.283.428-.285.855-.142 1.425.143l2.707 1.567c.998.57 1.71 1.852 1.71 2.992V271c0 .57-.285 1.14-.57 1.282s-.427.143-.57.143zm-4.132-8.692h-.285c-.142.143-.285.285-.285.713v3.134c0 .855.57 1.995 1.425 2.422l2.707 1.568c.285.142.57.142.713.142.142-.142.285-.285.285-.712v-3.135c0-.855-.57-1.995-1.425-2.422l-2.707-1.567c-.143 0-.285-.143-.428-.143zm-4.417-1.14l-11.113-6.411c-.285-.143-.57 0-.57.427v1.425c0 .427.285.855.57 1.14l11.113 6.411c.285.143.57 0 .57-.427v-1.425c.143-.57-.142-.997-.57-1.14z"/></g><g class="C"><path d="M435.851 512.933c-.143 0-.143 0-.285-.142l-75.23-43.457c-.143-.143-.285-.285-.285-.428v-93.61c0-.142.142-.427.285-.427.142-.143.427-.143.57 0l75.23 43.457c.142.142.285.285.285.427v93.61c0 .143-.143.428-.285.428-.143.142-.285.142-.285.142zm-74.803-44.311l74.233 42.886V419.18l-74.233-42.886v92.328zm68.961.854c-.142 0-.142 0-.285-.142l-63.689-36.76c-.143-.143-.285-.285-.285-.428v-46.734c0-.142.142-.427.285-.427.142-.143.427-.143.57 0l63.689 36.76c.143.143.285.285.285.428v46.733c0 .143-.142.428-.285.428-.142.142-.142.142-.285.142zm-63.119-37.615l62.549 36.191v-45.594l-62.549-36.191v45.594zm62.549 43.315l-16.243-9.262c-.285-.142-.57 0-.57.428v1.852c0 .428.285.855.57 1.14l16.101 9.261c.285.143.57 0 .57-.427v-1.852c.142-.428-.143-.855-.428-1.14z"/></g><g class="B"><path d="M429.439 481.872l-51.008-29.493c-.285-.143-.57 0-.57.427v1.852c0 .428.285.855.57 1.14l51.008 29.494c.285.142.57 0 .57-.428v-1.852c0-.427-.285-.855-.57-1.14zm0 13.394l-51.008-29.494c-.285-.143-.57 0-.57.427v1.853c0 .427.285.854.57 1.139l51.008 29.494c.285.143.57 0 .57-.427v-1.853c0-.427-.285-.854-.57-1.139zm0-6.697l-51.008-29.494c-.285-.142-.57 0-.57.428v1.852c0 .427.285.855.57 1.14l51.008 29.493c.285.143.57.001.57-.427v-1.852c0-.428-.285-.855-.57-1.14z"/></g><g class="C"><path d="M366.32 432.716c-.285 0-.428-.142-.57-.427 0-.285.142-.57.427-.57l22.085-3.42c.285 0 .57.143.57.428s-.142.57-.427.57l-22.085 3.419zm41.462-6.554c-.285 0-.428-.142-.57-.427 0-.285.142-.57.427-.57l22.228-3.42c.285 0 .57.143.57.428s-.143.57-.428.57l-22.227 3.419h0z"/><path d="M430.009 469.476c-.142 0-.285-.142-.427-.142l-22.085-29.209c-.143-.285-.143-.57.142-.712s.57-.143.713.142l22.085 29.067c.142.284.142.569-.143.712 0 .142-.142.142-.285.142zm-41.462-54.428c-.142 0-.285-.142-.427-.142l-22.228-29.066c-.142-.285-.142-.57.143-.713s.57-.142.712.143l22.227 29.066c.143.285.143.57-.142.712h-.285zm9.689 8.692c1.282.712 2.279 2.992 2.279 4.987s-.997 2.992-2.279 2.279-2.28-2.992-2.28-4.987.997-2.992 2.28-2.279zm-6.554-4.56v9.119c0 1.283.712 2.565 1.424 2.992l9.974 5.842c.855.427 1.425-.142 1.425-1.425v-9.119c0-1.282-.713-2.564-1.425-2.992l-1.71-.997v-.997c0-.57-.285-1.283-.712-1.425l-4.987-2.85c-.427-.285-.712.143-.712.713v.997l-1.71-.997c-.855-.713-1.567-.143-1.567 1.139zm2.992 6.127c0-2.992 1.567-4.417 3.419-3.419 1.995 1.139 3.42 4.416 3.42 7.409s-1.568 4.416-3.42 3.419-3.419-4.417-3.419-7.409zm-51.436 34.053c-.143 0-.143 0-.285-.142l-75.23-43.457c-.143-.143-.285-.285-.285-.428v-93.61c0-.142.142-.427.285-.427.142-.143.427-.143.57 0l75.23 43.457c.142.142.285.285.285.427v93.61c0 .143-.143.428-.285.428-.143.142-.285.142-.285.142zm-74.803-44.169l74.233 42.887V365.75l-74.233-42.887v92.328zm68.961.855c-.142 0-.142 0-.285-.143l-63.689-36.76c-.143-.142-.285-.285-.285-.427v-46.734c0-.143.142-.428.285-.428.142-.142.427-.142.57 0l63.689 36.761c.143.142.285.285.285.427v46.734c0 .142-.142.427-.285.427s-.142.143-.285.143zm-63.119-37.615l62.549 36.19v-45.594l-62.549-36.19v45.594zm62.549 43.314l-16.1-9.261c-.285-.143-.57 0-.57.427v1.853c0 .427.285.854.57 1.139l16.1 9.262c.285.142.57 0 .57-.428v-1.852c0-.427-.285-.855-.57-1.14z"/></g><g class="B"><path d="M336.826 428.442l-51.151-29.494c-.285-.142-.57 0-.57.428v1.852c0 .427.285.855.57 1.14l51.009 29.493c.285.143.57 0 .57-.427v-1.852c.142-.428-.143-.855-.428-1.14zm0 13.393l-51.008-29.494c-.285-.142-.57 0-.57.428v1.852c0 .428.285.855.57 1.14l51.008 29.494c.285.142.57 0 .57-.428v-1.852c0-.427-.285-.997-.57-1.14z"/><use xlink:href="#U"/></g><g class="C"><path d="M273.707 379.286c-.285 0-.428-.143-.57-.428 0-.285.142-.57.427-.57l22.085-3.419c.285 0 .57.142.57.427s-.143.57-.427.57l-22.085 3.42h0zm41.462-6.554c-.285 0-.427-.143-.57-.428 0-.285.143-.57.428-.57l22.227-3.419c.285 0 .57.142.57.427s-.143.57-.428.57l-22.227 3.42h0z"/><path d="M337.396 416.046c-.142 0-.285-.143-.427-.143l-22.085-29.208c-.142-.285-.142-.57.142-.713s.57-.142.713.143l22.085 29.066c.142.285.142.57-.143.712 0 0-.142.143-.285.143zm-41.462-54.428c-.143 0-.285-.143-.427-.143l-22.228-29.066c-.142-.285-.142-.57.143-.712s.57-.143.712.142l22.227 29.067c.143.285.143.569-.142.712-.143-.143-.143 0-.285 0zm9.689 8.691c1.282.713 2.279 2.992 2.279 4.987s-.997 2.992-2.279 2.28-2.28-2.992-2.28-4.987.997-2.992 2.28-2.28zm-6.554-4.702v9.119c0 1.283.712 2.565 1.424 2.992l9.974 5.842c.855.428 1.425-.142 1.425-1.425v-9.119c0-1.282-.713-2.564-1.425-2.992l-1.71-.997v-.997c0-.57-.285-1.283-.712-1.425l-4.987-2.85c-.427-.285-.712.143-.712.713v.997l-1.71-.997c-.855-.713-1.567 0-1.567 1.139zm2.992 6.27c0-2.993 1.567-4.417 3.419-3.42 1.995 1.14 3.42 4.417 3.42 7.409s-1.568 4.417-3.42 3.42c-1.852-1.14-3.419-4.417-3.419-7.409zm-51.436 34.053c-.143 0-.143 0-.285-.143l-75.23-43.457c-.143-.142-.285-.285-.285-.427v-93.61c0-.143.142-.428.285-.428.142-.142.427-.142.57 0l75.23 43.457c.142.142.285.285.285.427v93.611c0 .142-.143.427-.285.427-.143.143-.285.143-.285.143zm-74.803-44.312l74.233 42.887v-92.328l-74.233-42.887v92.328zm68.961.855c-.142 0-.142 0-.285-.143l-63.689-36.76c-.142-.142-.285-.285-.285-.427v-46.734c0-.143.143-.428.285-.428.142-.142.427-.142.57 0l63.689 36.76c.143.143.285.285.285.428v46.734c0 .142-.142.427-.285.427-.142.143-.142.143-.285.143zm-63.119-37.615l62.549 36.19v-45.594l-62.549-36.19v45.594zm62.549 43.457l-16.1-9.262c-.285-.142-.57 0-.57.428v1.852c0 .427.285.855.57 1.14l16.1 9.261c.285.143.57 0 .57-.427v-1.853c0-.427-.285-.997-.57-1.139z"/></g><g class="B"><path d="M244.213 375.011l-51.008-29.493c-.285-.143-.57 0-.57.427v1.852c0 .428.285.855.57 1.14l51.008 29.494c.285.142.57 0 .57-.428v-1.852c0-.427-.285-.997-.57-1.14zm0 13.393l-51.008-29.493c-.285-.143-.57 0-.57.427v1.852c0 .428.285.855.57 1.14l51.008 29.494c.285.142.57 0 .57-.427v-1.853c0-.57-.285-.997-.57-1.14zm0-6.696l-51.008-29.494c-.285-.142-.57 0-.57.428v1.852c0 .427.285.855.57 1.14l51.008 29.493c.285.143.57 0 .57-.427v-1.852c0-.428-.285-.998-.57-1.14z"/></g><g class="C"><path d="M221.701 325c-.142-5.557-4.132-12.253-8.976-14.818-4.845-2.707-8.692-.427-8.549 5.129s4.132 12.254 8.976 14.818c4.845 2.85 8.692.428 8.549-5.129zm-4.702-1.567l-5.129.285c-.997 0-1.852-.713-1.852-1.71l-.143-7.266c0-.998.428-1.14 1.14-.428l6.554 7.552c.57.854.285 1.567-.57 1.567z"/><use xlink:href="#V"/><path d="M145.759 264.731l-13.821-7.979c-.285-.143-.57 0-.57.427v1.852c0 .428.285.855.57 1.14l13.821 7.979c.284.143.569 0 .569-.427v-1.853c.143-.427-.142-.855-.569-1.139z"/></g><path d="M145.759 271.427l-21.943-12.681c-.285-.142-.57 0-.57.428v1.852c0 .427.285.855.57 1.14l21.943 12.681c.284.142.569 0 .569-.428v-1.852c.143-.427-.142-.997-.569-1.14z" class="B"/><g class="C"><path d="M152.17 290.235v9.831c0 .997.713 2.137 1.567 2.707l8.549 4.844c.855.428 1.568.143 1.568-.854v-9.832c0-.997-.713-2.137-1.568-2.707l-8.549-4.844c-.854-.57-1.567-.143-1.567.855zm-6.411-2.138l-13.821-7.979c-.285-.142-.57 0-.57.428v1.852c0 .428.285.855.57 1.14l13.821 7.979c.284.142.569 0 .569-.427v-1.853c.143-.427-.142-.997-.569-1.14z"/></g><path d="M145.759 294.795l-21.943-12.68c-.285-.143-.57 0-.57.427v1.852c0 .428.285.855.57 1.14l21.943 12.681c.284.142.569 0 .569-.427v-1.853c.143-.427-.142-.997-.569-1.14z" class="B"/><g class="C"><path d="M152.17 313.602v9.831c0 .997.713 2.137 1.567 2.707l8.549 4.844c.855.428 1.568.143 1.568-.855v-9.831c0-.997-.713-2.137-1.568-2.707l-8.549-4.844c-.854-.57-1.567-.143-1.567.855zm-6.411-2.138l-13.821-7.979c-.285-.142-.57 0-.57.428v1.852c0 .428.285.855.57.998l13.821 7.978c.284.143.569 0 .569-.427v-1.852c.143-.285-.142-.855-.569-.998z"/></g><g class="B"><path d="M145.759 318.161l-21.943-12.681c-.285-.142-.57 0-.57.428v1.852c0 .427.285.855.57 1.14l21.943 12.681c.284.142.569 0 .569-.428v-1.852c.143-.428-.142-.997-.569-1.14zm389.117-21.371l-49.014-28.212c-1.852-.997-3.277-3.562-3.277-5.699v-42.317c0-2.137 1.425-2.992 3.277-1.852l49.014 28.211c1.852.997 3.277 3.562 3.277 5.699v42.317c0 1.995-1.425 2.85-3.277 1.853z"/></g><path d="M536.443 297.929c-.57 0-1.283-.143-1.852-.57l-49.014-28.212c-1.995-1.139-3.705-3.989-3.705-6.411v-42.317c0-1.283.428-2.28 1.283-2.85.855-.427 1.994-.427 3.134.285l49.014 28.211c1.995 1.14 3.704 3.99 3.704 6.412v42.317c0 1.282-.427 2.28-1.282 2.85-.427.142-.855.285-1.282.285zm-1.14-1.852c.57.427 1.14.427 1.567.284s.57-.712.57-1.424V252.62c0-1.853-1.282-4.132-2.849-4.987l-49.014-28.212c-.57-.427-1.14-.427-1.567-.285-.428.285-.57.713-.57 1.425v42.317c0 1.853 1.282 4.132 2.849 4.987l49.014 28.212z" class="D"/><g class="C"><path d="M530.459 249.77l-15.246-8.834c-.855-.57-1.71-.142-1.71.998v17.525c0 .997.713 2.28 1.71 2.85l15.246 8.833c.854.57 1.709.143 1.709-.997V252.62c-.142-1.14-.855-2.28-1.709-2.85zm-23.795-13.678l-17.24-9.974c-.428-.142-.713 0-.713.428v2.279c0 .428.285.998.713 1.14l17.24 9.974c.428.142.713 0 .713-.428v-2.279c0-.428-.285-.998-.713-1.14zm0 8.691l-17.24-9.973c-.428-.143-.713 0-.713.427v2.28c0 .427.285.997.713 1.14l17.24 9.973c.428.143.713 0 .713-.427v-2.28c0-.427-.285-.855-.713-1.14zm0 8.834l-17.24-9.974c-.428-.142-.713 0-.713.428v2.28c0 .427.285.997.713 1.139l17.24 9.974c.428.143.713 0 .713-.427v-2.28c0-.427-.285-.997-.713-1.14zm24.649 22.94l-41.889-24.08c-.428-.142-.713 0-.713.428v2.279c0 .428.285.998.713 1.14l41.889 24.08c.428.142.713 0 .713-.428v-2.28c0-.427-.285-.854-.713-1.139zm0 8.833l-41.889-24.079c-.428-.142-.713 0-.713.427v2.28c0 .428.285.998.713 1.14l41.889 24.079c.428.143.713 0 .713-.427v-2.28c0-.427-.285-.997-.713-1.14zm9.832-41.604c.142 0 .427-.143.427-.285.143-.285 0-.57-.142-.713l-1.71-.997c-.285-.142-.57 0-.713.143-.142.285 0 .569.143.712l1.71.997c.142.143.285.143.285.143zm-5.272-2.992l-3.42-1.995c-.285-.142-.427-.57-.142-.712.142-.285.57-.428.712-.143l3.42 1.995c.285.142.427.57.142.712-.142.143-.285.285-.427.285s-.285-.142-.285-.142zm-6.982-3.99l-3.419-1.994c-.285-.143-.428-.57-.143-.713.143-.285.57-.427.713-.142l3.419 1.994c.285.143.428.57.143.713-.143.142-.285.285-.428.285s-.142-.143-.285-.143zm-6.981-3.989l-3.42-1.995c-.285-.142-.427-.57-.142-.712.142-.285.57-.428.712-.143l3.42 1.995c.285.142.427.57.142.712-.142.143-.285.285-.427.285 0 0-.143-.142-.285-.142zm-6.839-3.99l-3.42-1.994c-.285-.143-.427-.57-.142-.713.142-.285.569-.427.712-.142l3.419 1.994c.285.143.428.57.143.713-.143.142-.285.285-.427.285-.143-.143-.285-.143-.285-.143zm-6.982-3.989l-3.42-1.995c-.285-.142-.427-.57-.142-.712.142-.285.57-.428.712-.143l3.42 1.995c.285.142.427.57.142.712-.142.143-.285.285-.427.285 0-.142-.143-.142-.285-.142zm-6.839-3.99l-3.42-1.994c-.285-.143-.427-.57-.142-.713.142-.285.57-.427.712-.142l3.42 1.994c.285.143.427.57.142.713-.142.142-.285.285-.427.285-.143-.143-.285-.143-.285-.143zm-6.982-3.989l-3.419-1.995c-.285-.142-.428-.57-.143-.712.143-.285.57-.428.713-.143l3.419 1.995c.285.142.428.57.143.712-.143.143-.285.285-.428.285-.142-.142-.142-.142-.285-.142zm-6.981-3.99l-3.42-1.994c-.285-.143-.427-.57-.142-.713.142-.285.57-.427.712-.142l3.42 1.995c.285.142.427.569.142.712-.142.142-.285.285-.427.285 0-.143-.143-.143-.285-.143zm-6.555-3.989c.143 0 .428-.143.428-.285.142-.285 0-.57-.143-.713l-1.709-.997c-.285-.142-.57 0-.713.143-.142.285 0 .57.143.712l1.71.997c.142.143.142.143.284.143z"/><use xlink:href="#W"/><path d="M543.139 300.493v-3.704c0-.285.285-.57.57-.57s.57.285.57.57v3.704c0 .285-.285.57-.57.57s-.57-.285-.57-.57zm0-7.266v-3.705c0-.285.285-.57.57-.57s.57.285.57.57v3.705c0 .285-.285.57-.57.57s-.57-.285-.57-.57zm0-7.267v-3.704c0-.285.285-.57.57-.57s.57.285.57.57v3.704c0 .285-.285.57-.57.57s-.57-.285-.57-.57zm0-7.266v-3.705c0-.285.285-.57.57-.57s.57.285.57.57v3.705c0 .285-.285.57-.57.57s-.57-.285-.57-.57zm0-7.267v-3.704c0-.285.285-.57.57-.57s.57.285.57.57v3.704c0 .285-.285.57-.57.57s-.57-.285-.57-.57zm0-7.266v-3.705c0-.285.285-.57.57-.57s.57.285.57.57v3.705c0 .285-.285.57-.57.57s-.57-.285-.57-.57zm0-7.267v-3.704c0-.285.285-.57.57-.57s.57.285.57.57v3.704c0 .285-.285.57-.57.57s-.57-.285-.57-.57zm.57-6.839c.285 0 .57-.285.57-.57v-1.852c0-.285-.285-.57-.57-.57s-.57.285-.57.57v1.852c0 .427.285.57.57.57z"/><use xlink:href="#X"/><path d="M535.873 305.053l-3.42-1.995c-.285-.142-.427-.57-.142-.712.142-.285.57-.428.712-.143l3.42 1.995c.285.142.427.57.142.712-.142.143-.285.285-.427.285s-.285-.142-.285-.142zm-6.982-3.99l-3.419-1.994c-.285-.143-.428-.57-.143-.713.143-.285.57-.427.713-.142l3.419 1.994c.285.143.428.57.143.713-.143.142-.285.285-.428.285s-.142-.143-.285-.143zm-6.981-3.989l-3.42-1.995c-.285-.142-.427-.57-.142-.712s.57-.428.712-.143l3.42 1.995c.285.142.427.57.142.712-.142.143-.285.285-.427.285 0-.142-.143-.142-.285-.142zm-6.839-3.99l-3.42-1.994c-.285-.143-.427-.57-.142-.713.142-.285.569-.427.712-.142l3.419 1.995c.285.142.428.569.143.712-.143.142-.285.285-.427.285-.143-.143-.285-.143-.285-.143zm-6.982-3.989l-3.42-1.995c-.285-.142-.427-.57-.142-.712.142-.285.57-.428.712-.143l3.42 1.995c.285.143.427.57.142.712-.142.143-.285.285-.427.285-.143-.142-.143-.142-.285-.142zm-6.982-3.99l-3.419-1.994c-.285-.143-.428-.57-.143-.713.143-.285.57-.427.713-.142l3.419 1.995c.285.142.428.57.143.712-.143.142-.285.285-.428.285 0-.143-.142-.143-.285-.143zm-6.839-3.989l-3.419-1.995c-.285-.142-.428-.57-.143-.712.143-.285.57-.428.713-.143l3.419 1.995c.285.143.428.57.143.713-.143.142-.285.284-.428.284-.142-.142-.285-.142-.285-.142zm-6.981-3.989l-3.42-1.995c-.285-.143-.427-.57-.142-.713.142-.285.57-.427.712-.142l3.42 1.995c.285.142.427.57.142.712-.142.143-.285.285-.427.285 0-.142-.143-.142-.285-.142z"/><use xlink:href="#Y"/><path d="M476.458 211.3c.285 0 .57-.285.57-.57v-1.852c0-.285-.285-.57-.57-.57s-.57.285-.57.57v1.852c0 .285.285.57.57.57zm-.57 50.439v-3.705c0-.285.285-.57.57-.57s.57.285.57.57v3.705c0 .284-.285.569-.57.569s-.57-.285-.57-.569zm0-7.267v-3.705c0-.284.285-.569.57-.569s.57.285.57.569v3.705c0 .285-.285.57-.57.57s-.57-.285-.57-.57zm0-7.409v-3.705c0-.285.285-.57.57-.57s.57.285.57.57v3.705c0 .285-.285.57-.57.57s-.57-.143-.57-.57zm0-7.267v-3.704c0-.285.285-.57.57-.57s.57.285.57.57v3.704c0 .285-.285.57-.57.57s-.57-.142-.57-.57zm0-7.266v-3.705c0-.285.285-.57.57-.57s.57.285.57.57v3.705c0 .285-.285.57-.57.57s-.57-.285-.57-.57zm0-7.267v-3.704c0-.285.285-.57.57-.57s.57.285.57.57v3.704c0 .285-.285.57-.57.57s-.57-.285-.57-.57zm0-7.266v-3.705c0-.285.285-.57.57-.57s.57.285.57.57v3.705c0 .285-.285.57-.57.57s-.57-.285-.57-.57z"/><path d="M476.458 267.865c.285 0 .57-.285.57-.57v-1.852c0-.285-.285-.57-.57-.57s-.57.285-.57.57v1.852c0 .285.285.57.57.57zm2.28-57.135l-5.13-2.992c-.142-.142-.285-.285-.285-.427v-5.842c0-.143.143-.428.285-.428.143-.142.428-.142.57 0l5.13 2.993c.142.142.285.284.285.427v5.842c0 .142-.143.427-.285.427s-.143.143-.285.143-.143 0-.285-.143zm-4.275-8.264v4.56l3.99 2.279v-4.559l-3.99-2.28z"/><path d="M478.738 274.989l-5.13-2.992c-.142-.142-.285-.285-.285-.427v-5.842c0-.143.143-.428.285-.428.143-.142.428-.142.57 0l5.13 2.993c.142.142.285.285.285.427v5.842c0 .142-.143.427-.285.427s-.143.143-.285.143-.143 0-.285-.143zm-4.275-8.264v4.56l3.99 2.279v-4.559l-3.99-2.28zm71.526-17.097l-5.129-2.992c-.143-.143-.285-.285-.285-.428v-5.842c0-.142.142-.427.285-.427.142-.143.427-.143.57 0l5.129 2.992c.142.142.285.285.285.427v5.842c0 .143-.143.428-.285.428s-.143.142-.285.142c-.143-.142-.142-.142-.285-.142zm-4.274-8.264v4.559l3.989 2.28v-4.56l-3.989-2.279zm4.274 72.523l-5.129-2.992c-.143-.143-.285-.285-.285-.428v-5.842c0-.142.142-.427.285-.427.142-.142.427-.142.57 0l5.129 2.992c.142.143.285.285.285.428v5.841c0 .143-.143.428-.285.428s-.143.142-.285.142c-.143-.142-.142-.142-.285-.142zm-4.274-8.264v4.559l3.989 2.28v-4.559l-3.989-2.28zm-67.822-65.399c0 1.852 1.14 3.989 2.565 4.844s2.565 0 2.565-1.995c0-1.852-1.14-3.989-2.565-4.844s-2.565 0-2.565 1.995z"/><use xlink:href="#Z"/><path d="M507.661 288.098c0 1.852 1.14 3.989 2.565 4.844s2.565 0 2.565-1.995c0-1.852-1.14-3.989-2.565-4.844-1.425-.713-2.565.142-2.565 1.995zm33.484-8.977c0 1.852 1.139 3.99 2.564 4.845s2.565 0 2.565-1.995c0-1.852-1.14-3.99-2.565-4.845s-2.564 0-2.564 1.995z"/></g><path d="M534.876 382.136l-49.014-28.211c-1.852-.998-3.277-3.562-3.277-5.7v-42.317c0-2.137 1.425-2.992 3.277-1.852l49.014 28.211c1.852.998 3.277 3.562 3.277 5.7v42.317c0 1.994-1.425 2.849-3.277 1.852z" class="B"/><path d="M536.443 383.275c-.57 0-1.283-.142-1.852-.57l-49.014-28.211c-1.995-1.14-3.705-3.99-3.705-6.412v-42.317c0-1.282.428-2.279 1.283-2.849s1.994-.428 3.134.285l49.014 28.211c1.995 1.14 3.704 3.989 3.704 6.412v42.317c0 1.282-.427 2.279-1.282 2.849-.427.143-.855.285-1.282.285zm-1.14-1.852c.57.427 1.14.427 1.567.285.428-.285.57-.713.57-1.425v-42.317c0-1.852-1.282-4.132-2.849-4.987l-49.014-28.211c-.57-.428-1.14-.428-1.567-.285-.428.285-.57.712-.57 1.425v42.317c0 1.852 1.282 4.132 2.849 4.987l49.014 28.211z" class="D"/><g class="C"><path d="M519.63 348.367c0-5.842-4.132-13.108-9.261-16.1s-9.262-.57-9.262 5.414c0 5.842 4.132 13.108 9.262 16.1 5.129 2.85 9.261.428 9.261-5.414zm-4.987-1.852l-5.557.285c-.997 0-1.852-.713-1.852-1.852v-7.694c0-.998.57-1.283 1.282-.428l6.839 8.264c.57.713.285 1.425-.712 1.425zm26.502-17.383c.142 0 .427-.142.427-.285.143-.285 0-.57-.142-.712l-1.71-.998c-.285-.142-.57 0-.713.143-.142.285 0 .57.143.712l1.71.998a.44.44 0 0 0 .285.142zm-5.272-2.992l-3.42-1.995c-.285-.142-.427-.57-.142-.712.142-.285.57-.428.712-.143l3.42 1.995c.285.143.427.57.142.713-.142.142-.285.285-.427.285s-.285 0-.285-.143zm-6.982-3.989l-3.419-1.995c-.285-.143-.428-.57-.143-.713.143-.285.57-.427.713-.142l3.419 1.995c.285.142.428.57.143.712-.143.143-.285.285-.428.285s-.142-.142-.285-.142zm-6.981-3.99l-3.42-1.995c-.285-.142-.427-.57-.142-.712.142-.285.57-.427.712-.143l3.42 1.995c.285.143.427.57.142.713-.142.142-.285.285-.427.285 0 0-.143-.143-.285-.143zm-6.839-3.989l-3.42-1.995c-.285-.143-.427-.57-.142-.713.142-.284.569-.427.712-.142l3.419 1.995c.285.142.428.57.143.712-.143.143-.285.285-.427.285s-.285-.142-.285-.142zm-6.982-3.99l-3.42-1.995c-.285-.142-.427-.57-.142-.712.142-.285.57-.427.712-.142l3.42 1.994c.285.143.427.57.142.713-.142.142-.285.285-.427.285 0 0-.143-.143-.285-.143zm-6.839-3.989l-3.42-1.995c-.285-.143-.427-.57-.142-.712.142-.285.57-.428.712-.143l3.42 1.995c.285.142.427.57.142.712-.142.143-.285.285-.427.285-.143-.142-.285-.142-.285-.142zm-6.982-3.99l-3.419-1.995c-.285-.142-.428-.569-.143-.712.143-.285.57-.427.713-.142l3.419 1.994c.285.143.428.57.143.713-.143.142-.285.285-.428.285-.142-.143-.142-.143-.285-.143zm-6.981-3.989l-3.42-1.995c-.285-.143-.427-.57-.142-.712.142-.285.57-.428.712-.143l3.42 1.995c.285.142.427.57.142.712-.142.143-.285.285-.427.285 0-.142-.143-.142-.285-.142z"/><use xlink:href="#a"/><path d="M543.709 391.966c.285 0 .57-.284.57-.569v-1.853c0-.285-.285-.57-.57-.57s-.57.285-.57.57v1.853c0 .285.285.569.57.569zm-.57-6.126v-3.705c0-.285.285-.57.57-.57s.57.285.57.57v3.705c0 .285-.285.57-.57.57s-.57-.285-.57-.57zm0-7.267v-3.704c0-.285.285-.57.57-.57s.57.285.57.57v3.704c0 .285-.285.57-.57.57s-.57-.285-.57-.57zm0-7.266v-3.705c0-.285.285-.57.57-.57s.57.285.57.57v3.705c0 .285-.285.57-.57.57s-.57-.285-.57-.57zm0-7.267v-3.704c0-.285.285-.57.57-.57s.57.285.57.57v3.704c0 .285-.285.57-.57.57s-.57-.285-.57-.57zm0-7.266v-3.705c0-.285.285-.57.57-.57s.57.285.57.57v3.705c0 .285-.285.57-.57.57s-.57-.285-.57-.57zm0-7.267v-3.704c0-.285.285-.57.57-.57s.57.285.57.57v3.704c0 .285-.285.57-.57.57s-.57-.285-.57-.57zm0-7.266v-3.705c0-.285.285-.57.57-.57s.57.285.57.57v3.705c0 .284-.285.569-.57.569s-.57-.285-.57-.569z"/><use xlink:href="#b"/><path d="M480.732 358.483c.143 0 .428-.142.428-.285.142-.284 0-.569-.143-.712l-1.709-.997c-.285-.143-.57 0-.713.142-.142.285 0 .57.143.713l1.71.997c0 .142.142.142.284.142zm55.141 31.916l-3.42-1.994c-.285-.143-.427-.57-.142-.713.142-.285.57-.427.712-.142l3.42 1.994c.285.143.427.57.142.713-.142.142-.285.285-.427.285s-.285 0-.285-.143zm-6.982-3.989l-3.419-1.995c-.285-.142-.428-.57-.143-.712.143-.285.57-.428.713-.143l3.419 1.995c.285.142.428.57.143.712-.143.143-.285.285-.428.285s-.142-.142-.285-.142zm-6.981-3.99l-3.42-1.994c-.285-.143-.427-.57-.142-.713.142-.285.57-.427.712-.142l3.42 1.994c.285.143.427.57.142.713-.142.142-.285.285-.427.285 0 0-.143-.143-.285-.143zm-6.839-3.989l-3.42-1.995c-.285-.142-.427-.57-.142-.712.142-.285.569-.428.712-.143l3.419 1.995c.285.143.428.57.143.712-.143.143-.285.285-.427.285-.143-.142-.285-.142-.285-.142zm-6.982-3.99l-3.42-1.994c-.285-.143-.427-.57-.142-.713.142-.285.57-.427.712-.142l3.42 1.995c.285.142.427.569.142.712-.142.142-.285.285-.427.285-.143-.143-.143-.143-.285-.143zm-6.982-3.989l-3.419-1.995c-.285-.142-.428-.57-.143-.712.143-.285.57-.428.713-.143l3.419 1.995c.285.143.428.57.143.712-.143.143-.285.285-.428.285 0-.142-.142-.142-.285-.142zm-6.839-3.99l-3.419-1.994c-.285-.143-.428-.57-.143-.713.143-.285.57-.427.713-.142l3.419 1.995c.285.142.428.57.143.712-.143.142-.285.285-.428.285-.142-.143-.285-.143-.285-.143zm-6.981-3.989l-3.42-1.995c-.285-.142-.427-.57-.142-.712.142-.285.57-.428.712-.143l3.42 1.995c.285.143.427.57.142.713-.142.142-.285.284-.427.284 0-.142-.143-.142-.285-.142zm53.858 30.918c.142 0 .427-.142.427-.285.143-.285 0-.57-.142-.712l-1.71-.997c-.285-.143-.57 0-.713.142-.142.285 0 .57.143.713l1.71.997a.44.44 0 0 0 .285.142zm-64.687-96.745c.285 0 .57-.285.57-.57v-1.852c0-.285-.285-.57-.57-.57s-.57.285-.57.57v1.852c0 .285.285.57.57.57zm-.57 50.439v-3.705c0-.285.285-.57.57-.57s.57.285.57.57v3.705c0 .285-.285.57-.57.57s-.57-.285-.57-.57zm0-7.267v-3.704c0-.285.285-.57.57-.57s.57.285.57.57v3.704c0 .285-.285.57-.57.57s-.57-.285-.57-.57zm0-7.266v-3.705c0-.285.285-.57.57-.57s.57.285.57.57v3.705c0 .285-.285.57-.57.57s-.57-.285-.57-.57zm0-7.409v-3.705c0-.285.285-.57.57-.57s.57.285.57.57v3.705c0 .285-.285.57-.57.57s-.57-.143-.57-.57zm0-7.267v-3.704c0-.285.285-.57.57-.57s.57.285.57.57v3.704c0 .285-.285.57-.57.57s-.57-.142-.57-.57zm0-7.266v-3.705c0-.285.285-.57.57-.57s.57.285.57.57v3.705c0 .285-.285.57-.57.57s-.57-.285-.57-.57zm0-7.267v-3.704c0-.285.285-.57.57-.57s.57.285.57.57v3.704c0 .285-.285.57-.57.57s-.57-.285-.57-.57zm.57 49.869c.285 0 .57-.285.57-.57v-1.853c0-.285-.285-.57-.57-.57s-.57.285-.57.57v1.853c0 .285.285.57.57.57z"/><path d="M478.738 296.077l-5.13-2.993c-.142-.142-.285-.285-.285-.427v-5.842c0-.142.143-.427.285-.427.143-.143.428-.143.57 0l5.13 2.992c.142.142.285.285.285.427v5.842c0 .143-.143.428-.285.428s-.143.142-.285.142-.143 0-.285-.142zm-4.275-8.264v4.559l3.99 2.28v-4.56l-3.99-2.279zm4.275 72.523l-5.13-2.992c-.142-.143-.285-.285-.285-.428v-5.842c0-.142.143-.427.285-.427.143-.143.428-.143.57 0l5.13 2.992c.142.142.285.285.285.427v5.842c0 .143-.143.428-.285.428s-.143.142-.285.142-.143 0-.285-.142zm-4.275-8.264v4.559l3.99 2.28v-4.56l-3.99-2.279zm71.526-17.098l-5.129-2.992c-.143-.143-.285-.285-.285-.428v-5.841c0-.143.142-.428.285-.428.142-.142.427-.142.57 0l5.129 2.992c.142.143.285.285.285.428v5.841c0 .143-.143.428-.285.428s-.143.142-.285.142c-.143-.142-.142-.142-.285-.142zm-4.274-8.264v4.559l3.989 2.28v-4.559l-3.989-2.28zm4.274 72.523l-5.129-2.992c-.143-.142-.285-.285-.285-.427v-5.842c0-.143.142-.428.285-.428.142-.142.427-.142.57 0l5.129 2.992c.142.143.285.285.285.428v5.842c0 .142-.143.427-.285.427s-.143.143-.285.143c-.143-.143-.142-.143-.285-.143zm-4.274-8.264v4.56l3.989 2.279v-4.559l-3.989-2.28zm-67.822-65.399c0 1.852 1.14 3.99 2.565 4.845s2.565 0 2.565-1.995c0-1.852-1.14-3.99-2.565-4.845s-2.565 0-2.565 1.995zm33.768-16.385c0 1.852 1.14 3.989 2.565 4.844s2.565 0 2.565-1.995c0-1.852-1.14-3.989-2.565-4.844-1.425-.712-2.565.143-2.565 1.995zm0 64.259c0 1.852 1.14 3.989 2.565 4.844s2.565 0 2.565-1.994c0-1.853-1.14-3.99-2.565-4.845-1.425-.712-2.565.143-2.565 1.995zm33.484-8.976c0 1.852 1.139 3.989 2.564 4.844s2.565 0 2.565-1.995c0-1.852-1.14-3.989-2.565-4.844s-2.564.142-2.564 1.995z"/></g><path d="M534.876 467.482l-49.014-28.211c-1.852-.997-3.277-3.562-3.277-5.699v-42.317c0-2.137 1.425-2.992 3.277-1.852l49.014 28.211c1.852.997 3.277 3.562 3.277 5.699v42.317c0 1.995-1.425 2.85-3.277 1.852z" class="B"/><path d="M536.443 468.622c-.57 0-1.283-.143-1.852-.57l-49.014-28.212c-1.995-1.14-3.705-3.989-3.705-6.411v-42.317c0-1.283.428-2.28 1.283-2.85s1.994-.427 3.134.285l49.014 28.211c1.995 1.14 3.704 3.99 3.704 6.412v42.317c0 1.282-.427 2.28-1.282 2.85-.427.285-.855.285-1.282.285zm-1.14-1.853c.57.428 1.14.428 1.567.285.428-.285.57-.712.57-1.425v-42.317c0-1.852-1.282-4.132-2.849-4.986l-49.014-28.212c-.57-.427-1.14-.427-1.567-.285-.428.285-.57.713-.57 1.425v42.317c0 1.852 1.282 4.132 2.849 4.987l49.014 28.211z" class="D"/><g class="C"><path d="M531.883 458.933l-43.599-25.219 8.406-14.818 4.845 11.541-1.852 4.416 15.103-15.957 17.097 40.037zm-34.053-48.301c0 2.279 1.71 5.129 3.705 6.411 1.994 1.14 3.704.285 3.704-2.137s-1.71-5.129-3.704-6.412c-1.995-1.139-3.705-.285-3.705 2.138zm43.315 3.847c.142 0 .427-.143.427-.285.143-.285 0-.57-.142-.713l-1.71-.997c-.285-.143-.57 0-.713.142-.142.285 0 .57.143.713l1.71.997c.142.143.285.143.285.143zm-5.272-2.993l-3.42-1.994c-.285-.143-.427-.57-.142-.713.142-.285.57-.427.712-.142l3.42 1.995c.285.142.427.569.142.712-.142.142-.285.285-.427.285s-.285 0-.285-.143zm-6.982-3.989l-3.419-1.995c-.285-.142-.428-.57-.143-.712.143-.285.57-.428.713-.143l3.419 1.995c.285.143.428.57.143.712-.143.143-.285.285-.428.285s-.142 0-.285-.142zm-6.981-3.989l-3.42-1.995c-.285-.143-.427-.57-.142-.713.142-.285.57-.427.712-.142l3.42 1.995c.285.142.427.57.142.712-.142.142-.285.285-.427.285 0 0-.143 0-.285-.142zm-6.839-3.99l-3.42-1.995c-.285-.142-.427-.57-.142-.712.142-.285.569-.428.712-.143l3.419 1.995c.285.143.428.57.143.713-.143.142-.285.284-.427.284s-.285-.142-.285-.142zm-6.982-3.989l-3.42-1.995c-.285-.143-.427-.57-.142-.713.142-.285.57-.427.712-.142l3.42 1.995c.285.142.427.57.142.712-.142.143-.285.285-.427.285 0 0-.143-.142-.285-.142zm-6.839-3.99l-3.42-1.995c-.285-.142-.427-.57-.142-.712.142-.285.57-.428.712-.143l3.42 1.995c.285.143.427.57.142.713-.142.142-.285.285-.427.285s-.285-.143-.285-.143zm-6.982-3.989l-3.419-1.995c-.285-.143-.428-.57-.143-.713.143-.285.57-.427.713-.142l3.419 1.995c.285.142.428.57.143.712-.143.143-.285.285-.428.285-.142-.142-.142-.142-.285-.142zm-6.981-3.99l-3.42-1.995c-.285-.142-.427-.57-.142-.712.142-.285.57-.427.712-.142l3.42 1.994c.285.143.427.57.142.713-.142.142-.285.285-.427.285 0-.143-.143-.143-.285-.143zm-6.555-3.989c.143 0 .428-.143.428-.285.142-.285 0-.57-.143-.713l-1.709-.997c-.285-.142-.57 0-.713.142-.142.285 0 .57.143.713l1.71.997c.142.143.142.143.284.143zm62.977 97.742c.285 0 .57-.285.57-.57v-1.852c0-.285-.285-.57-.57-.57s-.57.285-.57.57v1.852c0 .285.285.57.57.57zm-.57-6.127v-3.704c0-.285.285-.57.57-.57s.57.285.57.57v3.704c0 .285-.285.57-.57.57s-.57-.142-.57-.57zm0-7.266v-3.705c0-.285.285-.57.57-.57s.57.285.57.57v3.705c0 .285-.285.57-.57.57s-.57-.285-.57-.57zm0-7.267v-3.562c0-.285.285-.57.57-.57s.57.285.57.57v3.705c0 .285-.285.57-.57.57-.285-.143-.57-.428-.57-.713zm0-7.266v-3.705c0-.285.285-.57.57-.57s.57.285.57.57v3.705c0 .285-.285.57-.57.57s-.57-.285-.57-.57zm0-7.267v-3.704c0-.285.285-.57.57-.57s.57.285.57.57v3.704c0 .285-.285.57-.57.57s-.57-.285-.57-.57zm0-7.266v-3.705c0-.285.285-.57.57-.57s.57.285.57.57v3.705c0 .284-.285.569-.57.569s-.57-.285-.57-.569zm0-7.267v-3.705c0-.285.285-.57.57-.57s.57.285.57.57v3.705c0 .285-.285.57-.57.57s-.57-.285-.57-.57zm.57-6.697c.285 0 .57-.285.57-.57v-1.852c0-.285-.285-.57-.57-.57s-.57.285-.57.57v1.852c0 .285.285.57.57.57z"/><path d="M480.732 443.83c.143 0 .428-.143.428-.285.142-.285 0-.57-.143-.713l-1.709-.997c-.285-.142-.57 0-.713.143-.142.285 0 .57.143.712l1.71.997c0 .143.142.143.284.143zm55.141 31.916l-3.42-1.995c-.285-.143-.427-.57-.142-.712.142-.285.57-.428.712-.143l3.42 1.995c.285.142.427.57.142.712-.142.143-.285.285-.427.285s-.285 0-.285-.142zm-6.982-3.99l-3.419-1.995c-.285-.142-.428-.569-.143-.712.143-.285.57-.427.713-.142l3.419 1.994c.285.143.428.57.143.713-.143.142-.285.285-.428.285s-.142 0-.285-.143zm-6.981-3.989l-3.42-1.995c-.285-.143-.427-.57-.142-.712.142-.285.57-.428.712-.143l3.42 1.995c.285.142.427.57.142.712-.142.143-.285.285-.427.285 0 0-.143-.142-.285-.142zm-6.839-3.99l-3.42-1.995c-.285-.142-.427-.569-.142-.712.142-.285.569-.427.712-.142l3.419 1.994c.285.143.428.57.143.713-.143.142-.285.285-.427.285s-.285-.143-.285-.143zm-6.982-3.989l-3.42-1.995c-.285-.142-.427-.57-.142-.712.142-.285.57-.428.712-.143l3.42 1.995c.285.142.427.57.142.712-.142.143-.285.285-.427.285-.143-.142-.143-.142-.285-.142zm-6.982-3.99l-3.419-1.994c-.285-.143-.428-.57-.143-.713.143-.285.57-.427.713-.142l3.419 1.994c.285.143.428.57.143.713-.143.142-.285.285-.428.285 0-.143-.142-.143-.285-.143zm-6.839-3.989l-3.419-1.995c-.285-.142-.428-.57-.143-.712.143-.285.57-.428.713-.143l3.419 1.995c.285.142.428.57.143.712-.143.143-.285.285-.428.285-.142-.142-.285-.142-.285-.142zm-6.981-3.99l-3.42-1.994c-.285-.143-.427-.57-.142-.713.142-.285.57-.427.712-.142l3.42 1.994c.285.143.427.57.142.713-.142.142-.285.285-.427.285 0-.143-.143-.143-.285-.143zm53.858 30.919c.142 0 .427-.143.427-.285.143-.285 0-.57-.142-.713l-1.71-.997c-.285-.142-.57 0-.713.143-.142.285 0 .57.143.712l1.71.997c.142.143.285.143.285.143zm-64.687-96.745c.285 0 .57-.285.57-.57v-1.852c0-.285-.285-.57-.57-.57s-.57.285-.57.57v1.852c0 .285.285.57.57.57zm-.57 50.438v-3.704c0-.285.285-.57.57-.57s.57.285.57.57v3.704c0 .285-.285.57-.57.57s-.57-.285-.57-.57zm0-7.266v-3.705c0-.285.285-.57.57-.57s.57.285.57.57v3.705c0 .285-.285.57-.57.57s-.57-.285-.57-.57zm0-7.267v-3.704c0-.285.285-.57.57-.57s.57.285.57.57v3.704c0 .285-.285.57-.57.57s-.57-.285-.57-.57zm0-7.266v-3.705c0-.285.285-.57.57-.57s.57.285.57.57v3.705c0 .285-.285.57-.57.57s-.57-.285-.57-.57zm0-7.409v-3.705c0-.285.285-.57.57-.57s.57.285.57.57v3.705c0 .285-.285.57-.57.57s-.57-.143-.57-.57zm0-7.267v-3.704c0-.285.285-.57.57-.57s.57.285.57.57v3.704c0 .285-.285.57-.57.57s-.57-.143-.57-.57zm0-7.267v-3.704c0-.285.285-.57.57-.57s.57.285.57.57v3.704c0 .285-.285.57-.57.57s-.57-.285-.57-.57zm.57 49.869c.285 0 .57-.285.57-.57v-1.995c0-.285-.285-.57-.57-.57s-.57.285-.57.57v1.853c0 .427.285.712.57.712z"/><path d="M478.738 381.423l-5.13-2.992c-.142-.143-.285-.285-.285-.428v-5.841c0-.143.143-.428.285-.428.143-.142.428-.142.57 0l5.13 2.992c.142.143.285.285.285.428v5.841c0 .143-.143.428-.285.428s-.143.142-.285.142-.143 0-.285-.142zm-4.275-8.264v4.559l3.99 2.28v-4.559l-3.99-2.28zm4.275 72.666l-5.13-2.993c-.142-.142-.285-.285-.285-.427v-5.842c0-.142.143-.427.285-.427.143-.143.428-.143.57 0l5.13 2.992c.142.142.285.285.285.427v5.842c0 .143-.143.428-.285.428s-.143.142-.285.142c-.143-.142-.143-.142-.285-.142zm-4.275-8.407v4.56l3.99 2.279v-4.559l-3.99-2.28zm71.526-17.098l-5.129-2.992c-.143-.142-.285-.285-.285-.427v-5.842c0-.142.142-.427.285-.427.142-.143.427-.143.57 0l5.129 2.992c.142.142.285.285.285.427v5.842c0 .142-.143.427-.285.427s-.143.143-.285.143c-.143-.143-.142-.143-.285-.143zm-4.274-8.264v4.56l3.989 2.28v-4.56l-3.989-2.28zm4.274 72.523l-5.129-2.992c-.143-.142-.285-.285-.285-.427v-5.842c0-.142.142-.427.285-.427.142-.143.427-.143.57 0l5.129 2.992c.142.142.285.285.285.427v5.842c0 .143-.143.427-.285.427s-.143.143-.285.143-.142-.143-.285-.143zm-4.274-8.264v4.56l3.989 2.28v-4.56l-3.989-2.28zm-67.822-65.398c0 1.852 1.14 3.989 2.565 4.844s2.565 0 2.565-1.995-1.14-3.989-2.565-4.844-2.565.142-2.565 1.995zm33.768-16.386c0 1.852 1.14 3.99 2.565 4.845s2.565 0 2.565-1.995c0-1.852-1.14-3.99-2.565-4.844-1.425-.713-2.565.142-2.565 1.994zm0 64.259c0 1.853 1.14 3.99 2.565 4.845s2.565 0 2.565-1.995c0-1.852-1.14-3.99-2.565-4.844-1.425-.713-2.565.142-2.565 1.994zm33.484-8.976c0 1.852 1.139 3.99 2.564 4.844s2.565 0 2.565-1.994c0-1.853-1.14-3.99-2.565-4.845-1.425-.712-2.564.143-2.564 1.995z"/></g><path d="M534.876 552.829l-49.014-28.211c-1.852-.998-3.277-3.563-3.277-5.7v-42.317c0-2.137 1.425-2.992 3.277-1.852l49.014 28.211c1.852.998 3.277 3.562 3.277 5.7v42.317c0 1.994-1.425 2.849-3.277 1.852z" class="B"/><path d="M536.443 553.968c-.57 0-1.283-.142-1.852-.57l-49.014-28.211c-1.995-1.14-3.705-3.99-3.705-6.412v-42.317c0-1.282.428-2.28 1.283-2.85.855-.427 1.994-.427 3.134.285l49.014 28.212c1.995 1.14 3.704 3.989 3.704 6.411v42.317c0 1.283-.427 2.28-1.282 2.85-.427.285-.855.285-1.282.285zm-1.14-1.852c.57.427 1.14.427 1.567.285.428-.285.57-.713.57-1.425v-42.317c0-1.852-1.282-4.132-2.849-4.987l-49.014-28.211c-.57-.428-1.14-.428-1.567-.285-.428.285-.57.712-.57 1.425v42.317c0 1.852 1.282 4.132 2.849 4.986l49.014 28.212z" class="D"/><g class="C"><path d="M541.145 499.968c.142 0 .427-.143.427-.285.143-.285 0-.57-.142-.713l-1.71-.997c-.285-.143-.57 0-.713.142-.142.285 0 .57.143.713l1.71.997c.142 0 .285.143.285.143zm-5.272-3.135l-3.42-1.995c-.285-.142-.427-.57-.142-.712.142-.285.57-.428.712-.143l3.42 1.995c.285.143.427.57.142.712-.142.143-.285.285-.427.285s-.285 0-.285-.142zm-6.982-3.99l-3.419-1.994c-.285-.143-.428-.57-.143-.713.143-.285.57-.427.713-.142l3.419 1.995c.285.142.428.569.143.712-.143.142-.285.285-.428.285s-.142 0-.285-.143zm-6.981-3.989l-3.42-1.995c-.285-.142-.427-.57-.142-.712.142-.285.57-.428.712-.143l3.42 1.995c.285.143.427.57.142.712-.142.143-.285.285-.427.285 0 0-.143 0-.285-.142zm-6.839-3.99l-3.42-1.994c-.285-.143-.427-.57-.142-.713.142-.285.569-.427.712-.142l3.419 1.995c.285.142.428.57.143.712-.143.142-.285.285-.427.285s-.285 0-.285-.143zm-6.982-3.989l-3.42-1.995c-.285-.142-.427-.57-.142-.712.142-.285.57-.428.712-.143l3.42 1.995c.285.143.427.57.142.713-.142.142-.285.284-.427.284 0 0-.143-.142-.285-.142zm-6.839-3.989l-3.42-1.995c-.285-.143-.427-.57-.142-.713.142-.285.57-.427.712-.142l3.42 1.995c.285.142.427.57.142.712-.142.143-.285.285-.427.285s-.285-.142-.285-.142zm-6.982-3.99l-3.419-1.995c-.285-.142-.428-.57-.143-.712.143-.285.57-.428.713-.143l3.419 1.995c.285.143.428.57.143.713-.143.142-.285.285-.428.285s-.142-.143-.285-.143zm-6.981-3.989l-3.42-1.995c-.285-.143-.427-.57-.142-.713.142-.285.57-.427.712-.142l3.42 1.995c.285.142.427.57.142.712-.142.143-.285.285-.427.285 0 0-.143-.142-.285-.142zm-6.555-3.99c.143 0 .428-.142.428-.285.142-.285 0-.57-.143-.712l-1.709-.998c-.285-.142-.57 0-.713.143-.142.285 0 .57.143.712l1.71.998c.142.142.142.142.284.142zm62.977 97.742c.285 0 .57-.285.57-.57v-1.852c0-.285-.285-.57-.57-.57s-.57.285-.57.57v1.852c0 .428.285.57.57.57zm-.57-6.126v-3.705c0-.285.285-.57.57-.57s.57.285.57.57v3.705c0 .285-.285.57-.57.57s-.57-.143-.57-.57zm0-7.267v-3.562c0-.285.285-.57.57-.57s.57.285.57.57v3.705c0 .285-.285.57-.57.57-.285-.143-.57-.285-.57-.713zm0-7.266v-3.705c0-.285.285-.57.57-.57s.57.285.57.57V542c0 .285-.285.569-.57.569s-.57-.284-.57-.569zm0-7.267v-3.704c0-.285.285-.57.57-.57s.57.285.57.57v3.704c0 .285-.285.57-.57.57s-.57-.285-.57-.57zm0-7.267v-3.704c0-.285.285-.57.57-.57s.57.285.57.57v3.704c0 .285-.285.57-.57.57s-.57-.285-.57-.57zm0-7.266v-3.705c0-.285.285-.57.57-.57s.57.285.57.57v3.705c0 .285-.285.57-.57.57s-.57-.285-.57-.57zm0-7.267v-3.704c0-.285.285-.57.57-.57s.57.285.57.57v3.704c0 .285-.285.57-.57.57s-.57-.285-.57-.57zm.57-6.696c.285 0 .57-.285.57-.57v-1.852c0-.285-.285-.57-.57-.57s-.57.285-.57.57v1.852c0 .285.285.57.57.57zm-62.977 22.939c.143 0 .428-.142.428-.285.142-.285 0-.57-.143-.712l-1.709-.998c-.285-.142-.57 0-.713.143-.142.285 0 .57.143.712l1.71.998c0 .142.142.142.284.142zm55.141 31.916l-3.42-1.995c-.285-.142-.427-.57-.142-.712.142-.285.57-.428.712-.143l3.42 1.995c.285.143.427.57.142.713-.142.142-.285.284-.427.284s-.285 0-.285-.142zm-6.982-3.989l-3.419-1.995c-.285-.143-.428-.57-.143-.713.143-.285.57-.427.713-.142l3.419 1.995c.285.142.428.57.143.712-.143.143-.285.285-.428.285s-.142 0-.285-.142zm-6.981-3.99l-3.42-1.995c-.285-.142-.427-.57-.142-.712.142-.285.57-.427.712-.143l3.42 1.995c.285.143.427.57.142.713-.142.142-.285.285-.427.285 0 0-.143 0-.285-.143zm-6.839-3.989l-3.562-1.995c-.285-.143-.428-.57-.143-.713.143-.284.57-.427.712-.142l3.42 1.995c.285.142.427.57.142.712-.142.143-.284.285-.427.285l-.142-.142zm-6.982-3.99l-3.42-1.995c-.285-.142-.427-.57-.142-.712.142-.285.57-.427.712-.142l3.42 1.994c.285.143.427.57.142.713-.142.142-.285.285-.427.285s-.143-.143-.285-.143zm-6.982-3.989l-3.419-1.995c-.285-.143-.428-.57-.143-.712.143-.285.57-.428.713-.143l3.419 1.995c.285.142.428.57.143.712-.143.143-.285.285-.428.285 0 0-.142-.142-.285-.142zm-6.839-3.99l-3.419-1.995c-.285-.142-.428-.569-.143-.712.143-.285.57-.427.713-.142l3.419 1.994c.285.143.428.57.143.713-.143.142-.285.285-.428.285-.142-.143-.285-.143-.285-.143zm-6.981-3.989l-3.42-1.995c-.285-.143-.427-.57-.142-.712.142-.285.57-.428.712-.143l3.42 1.995c.285.142.427.57.142.712-.142.143-.285.285-.427.285 0-.142-.143-.142-.285-.142z"/><path d="M541.145 564.227c.142 0 .427-.143.427-.285.143-.285 0-.57-.142-.713l-1.71-.997c-.285-.142-.57 0-.713.142-.142.285 0 .57.143.713l1.71.997c.142 0 .285.143.285.143zm-64.687-96.888c.285 0 .57-.285.57-.57v-1.852c0-.285-.285-.57-.57-.57s-.57.285-.57.57v1.852c0 .285.285.57.57.57zm-.57 50.439v-3.705c0-.285.285-.57.57-.57s.57.285.57.57v3.705c0 .285-.285.57-.57.57s-.57-.285-.57-.57zm0-7.267v-3.704c0-.285.285-.57.57-.57s.57.285.57.57v3.704c0 .285-.285.57-.57.57s-.57-.285-.57-.57zm0-7.266v-3.705c0-.285.285-.57.57-.57s.57.285.57.57v3.705c0 .285-.285.57-.57.57s-.57-.285-.57-.57zm0-7.267v-3.704c0-.285.285-.57.57-.57s.57.285.57.57v3.704c0 .285-.285.57-.57.57s-.57-.285-.57-.57zm0-7.267v-3.704c0-.285.285-.57.57-.57s.57.285.57.57v3.704c0 .285-.285.57-.57.57s-.57-.285-.57-.57zm0-7.409v-3.704c0-.285.285-.57.57-.57s.57.285.57.57v3.704c0 .285-.285.57-.57.57s-.57-.142-.57-.57zm0-7.266v-3.705c0-.285.285-.57.57-.57s.57.285.57.57v3.705c0 .285-.285.57-.57.57s-.57-.285-.57-.57zm.57 49.868c.285 0 .57-.285.57-.57v-1.852c0-.285-.285-.57-.57-.57s-.57.285-.57.57v1.852c0 .285.285.57.57.57z"/><path d="M478.738 466.912l-5.13-2.992c-.142-.143-.285-.285-.285-.428v-5.841c0-.143.143-.428.285-.428.143-.142.428-.142.57 0l5.13 2.992c.142.143.285.285.285.428v5.841c0 .143-.143.428-.285.428s-.143.142-.285.142c-.143-.142-.143-.142-.285-.142zm-4.275-8.264v4.559l3.99 2.28v-4.559l-3.99-2.28zm4.275 72.523l-5.13-2.992c-.142-.143-.285-.285-.285-.428v-5.841c0-.143.143-.428.285-.428.143-.142.428-.142.57 0l5.13 2.992c.142.143.285.285.285.428v5.842c0 .142-.143.427-.285.427s-.143.142-.285.142c-.143-.142-.143-.142-.285-.142zm-4.275-8.264v4.559l3.99 2.28v-4.559l-3.99-2.28zm71.526-17.24l-5.129-2.992c-.143-.143-.285-.285-.285-.428v-5.842c0-.142.142-.427.285-.427.142-.143.427-.143.57 0l5.129 2.992c.142.143.285.285.285.428v5.841c0 .143-.143.428-.285.428s-.143.142-.285.142-.142-.142-.285-.142zm-4.274-8.264v4.559l3.989 2.28v-4.56l-3.989-2.279zm4.274 72.523l-5.129-2.992c-.143-.143-.285-.285-.285-.428v-5.841c0-.143.142-.428.285-.428.142-.142.427-.142.57 0l5.129 2.992c.142.143.285.285.285.428v5.841c0 .143-.143.428-.285.428s-.143.142-.285.142-.142-.142-.285-.142zm-4.274-8.264v4.559l3.989 2.28v-4.559l-3.989-2.28zm-67.822-65.399c0 1.852 1.14 3.99 2.565 4.844s2.565 0 2.565-1.994c0-1.853-1.14-3.99-2.565-4.845-1.425-.712-2.565.143-2.565 1.995zm33.768-16.385c0 1.852 1.14 3.989 2.565 4.844s2.565 0 2.565-1.995c0-1.852-1.14-3.989-2.565-4.844-1.425-.713-2.565.142-2.565 1.995zm0 64.259c0 1.852 1.14 3.989 2.565 4.844s2.565 0 2.565-1.995-1.14-3.989-2.565-4.844c-1.425-.712-2.565.142-2.565 1.995zm33.484-8.977c0 1.853 1.139 3.99 2.564 4.845s2.565 0 2.565-1.995c0-1.852-1.14-3.989-2.565-4.844-1.425-.713-2.564.142-2.564 1.994zm-43.6-26.359l3.135 2.138c.142.142.427.427.427.712.143.855.428 1.71.713 2.565.142.285 0 .57-.143.712l-1.709 1.567c-.143.143-.285.428-.143.57l2.422 4.275c.143.142.428.285.57.285l2.137-.713c.285-.142.57 0 .713.143.57.712 1.282 1.425 1.852 1.994a1.09 1.09 0 0 1 .285.713l.285 3.704c0 .285.142.57.427.57l3.42 1.995c.142.143.427 0 .427-.142l.285-3.277c0-.285.285-.428.428-.285.57.142 1.14.142 1.567.142.285 0 .57.143.713.285l2.422 3.704c.142.143.427.285.57.143l2.137-1.282c.142-.143.285-.428.142-.57l-1.994-3.99c-.143-.142-.143-.57 0-.712.285-.428.427-.998.712-1.425 0-.285.285-.285.57-.285l2.992 1.282c.143.143.428 0 .428-.285v-3.847c0-.284-.143-.569-.285-.712l-3.135-2.137c-.143-.143-.427-.428-.427-.713-.143-.854-.428-1.709-.713-2.564-.142-.285 0-.57.143-.713l1.709-1.567c.143-.142.285-.427.143-.57l-2.422-4.274c-.143-.143-.428-.285-.57-.285l-2.137.712c-.285.143-.57 0-.713-.142-.57-.713-1.282-1.425-1.852-1.995a1.09 1.09 0 0 1-.285-.712l-.285-3.705c0-.285-.143-.57-.428-.57l-3.419-1.995c-.143-.142-.428 0-.428.143l-.284 3.277c0 .285-.285.427-.428.285-.57-.143-1.14-.143-1.567-.143a1.09 1.09 0 0 1-.713-.285l-2.422-3.704c-.142-.143-.427-.285-.57-.143l-2.137 1.283c-.142.142-.285.427-.142.57l1.994 3.989a.65.65 0 0 1 0 .713c-.285.427-.427.997-.712 1.424 0 .285-.285.285-.57.285l-2.992-1.282c-.143-.142-.428 0-.428.285v3.847a1.09 1.09 0 0 0 .285.712zm7.124 1.71c0-3.562 2.565-5.129 5.7-3.277s5.699 6.269 5.699 9.831-2.565 5.13-5.699 3.277-5.7-6.269-5.7-9.831z"/></g><path d="M304.483 532.453c0-.712.427-1.282 1.282-1.852l34.338-19.805c1.71-.997 4.417-.997 6.127 0l57.563 33.198c.854.428 1.282 1.14 1.282 1.853v6.696c0 .713-.428 1.283-1.282 1.852L369.455 574.2c-1.71.998-4.417.998-6.127 0l-57.563-33.198c-.855-.427-1.282-1.14-1.282-1.852v-6.697z" fill="url(#F)"/><g fill="#000"><path opacity=".1" d="M305.765 530.601l34.338-19.805c1.71-.997 4.417-.997 6.127 0l20.09 11.541v52.433c-1.14 0-2.28-.285-3.135-.712l-57.562-33.198c-.855-.428-1.283-1.14-1.283-1.853v-6.696c0-.713.57-1.14 1.425-1.71z"/><path opacity=".2" d="M366.32 522.337l37.472 21.657c.855.428 1.283 1.14 1.283 1.853v6.696c0 .713-.428 1.283-1.283 1.852L369.454 574.2c-.854.428-1.994.713-3.134.713v-52.576z"/></g><use xlink:href="#c" fill="url(#G)"/><g class="B"><path d="M366.32 562.517l-52.006-30.064 30.349-4.274-2.28 9.974-6.982 2.137 43.457-1.283-12.538 23.51zm-7.124-34.908c-1.853-1.14-4.56-1.282-5.984-.57-1.425.855-.998 2.422.854 3.562s4.56 1.282 5.985.57c1.424-.855 1.139-2.422-.855-3.562z"/></g><path d="M217.712 482.3c0-.713.427-1.283 1.282-1.852l34.338-19.805c1.71-.998 4.417-.998 6.127 0l57.562 33.198c.855.427 1.283 1.14 1.283 1.852v6.697c0 .712-.428 1.282-1.283 1.852l-34.338 19.805c-1.709.997-4.417.997-6.126 0l-57.563-33.198c-.855-.428-1.282-1.14-1.282-1.853V482.3z" fill="url(#H)"/><g fill="#000"><path opacity=".1" d="M218.994 480.448l34.338-19.805c1.71-.998 4.417-.998 6.127 0l20.09 11.541v52.433c-1.14 0-2.28-.285-3.135-.713l-57.562-33.198c-.855-.427-1.283-1.14-1.283-1.852v-6.697c0-.712.57-1.14 1.425-1.709z"/><path opacity=".2" d="M279.549 472.184l37.472 21.657c.855.427 1.283 1.14 1.283 1.852v6.697c0 .712-.428 1.282-1.283 1.852l-34.338 19.805c-.855.427-1.995.712-3.134.712v-52.575z"/></g><path d="M276.414 517.208l-57.562-33.198c-1.71-.998-1.71-2.565 0-3.562l34.338-19.805c1.709-.998 4.417-.998 6.126 0l57.563 33.198c1.71.997 1.71 2.564 0 3.562l-34.196 19.805c-1.71.997-4.559.997-6.269 0z" fill="url(#I)"/><g class="B"><path d="M279.549 512.363L227.4 482.3l30.491-4.275-2.279 9.974-6.982 2.137 43.457-1.14-12.538 23.367zm-7.124-34.908c-1.853-1.14-4.56-1.282-5.985-.57-1.424.855-.997 2.423.855 3.562s4.56 1.283 5.984.57c1.425-.855.998-2.422-.854-3.562z"/></g><path d="M130.941 432.146c0-.712.427-1.282 1.282-1.852l34.338-19.805c1.71-.997 4.417-.997 6.127 0l57.562 33.198c.855.428 1.282 1.14 1.282 1.853v6.696c0 .713-.427 1.283-1.282 1.852l-34.338 19.805c-1.71.998-4.417.998-6.127 0l-57.562-33.198c-.855-.427-1.282-1.14-1.282-1.852v-6.697z" fill="url(#J)"/><g fill="#000"><path opacity=".1" d="M132.223 430.294l34.338-19.805c1.71-.997 4.417-.997 6.127 0l20.089 11.541v52.433c-1.139 0-2.279-.285-3.134-.712l-57.563-33.198c-.855-.428-1.282-1.14-1.282-1.853v-6.696c.142-.57.57-1.14 1.425-1.71z"/><path opacity=".2" d="M192.777 422.173l37.473 21.657c.855.427 1.282 1.14 1.282 1.852v6.697c0 .712-.427 1.282-1.282 1.852l-34.338 19.805c-.855.427-1.995.712-3.135.712v-52.575z"/></g><path d="M189.643 467.054l-57.563-33.198c-1.709-.997-1.709-2.565 0-3.562l34.338-19.805c1.71-.997 4.417-.997 6.127 0l57.563 33.198c1.709.998 1.709 2.565 0 3.562l-34.338 19.805c-1.71.998-4.417.998-6.127 0z" fill="url(#K)"/><path d="M195.057 446.822c5.699-3.277 4.132-9.546-3.419-13.963-7.694-4.417-18.523-5.272-24.365-1.995s-4.132 9.546 3.42 13.963c7.694 4.417 18.665 5.272 24.364 1.995zm-8.834-3.705l-11.683-2.849c-2.137-.57-3.135-1.425-2.137-1.995l7.551-4.417c.997-.57 2.28-.427 2.992.427l6.269 8.407c.57.712-.712.855-2.992.427z" class="B"/><path d="M197.764 325l.998-.57c1.567-.855 2.849-3.134 2.849-4.986v-80.075c0-1.852-1.282-3.99-2.849-4.987l-98.74-57.277c-1.567-.855-4.132-.855-5.699 0l-.997.569c-1.567.855-2.85 3.135-2.85 4.987v80.075c0 1.852 1.282 3.989 2.85 4.987L192.065 325c1.567.855 4.132.855 5.699 0z" fill="url(#L)"/><g class="B"><path d="M188.218 312.034l-86.771-50.011 17.383-30.063 13.25 29.066-3.989 8.976 31.203-33.91 28.924 75.942zm-57.847-93.182c-3.135-1.853-5.842-.428-5.842 3.277s2.564 8.121 5.842 9.973c3.134 1.853 5.841.428 5.841-3.277 0-3.562-2.707-8.121-5.841-9.973z"/></g><path opacity=".4" d="M90.476 182.091c.142-1.425 2.28-3.419 3.705-2.564l100.45 57.135c.855.427 1.567 1.282 1.994 2.137l4.275-2.422c-.57-.855-1.282-1.71-1.995-2.138l-98.74-57.277c-1.567-.855-4.132-.855-5.699 0l-.997.57c-1.71.997-2.85 2.85-2.992 4.559z" fill="#fff"/><path opacity=".1" d="M195.485 325.713c2.137.142 5.699-2.138 6.126-6.127v-80.217c0-.855-.285-1.995-.855-2.992l-4.274 2.422c.57.855 1.282 1.852 1.282 4.417v78.935c0 1.139-.427 2.137-1.14 2.849-.285.428-.712.713-1.139.713z" fill="#000"/></g><defs><linearGradient id="A" x1="111.68" y1="111.425" x2="464.727" y2="111.425" xlink:href="#d"><stop offset=".006" stop-color="#ff994f"/><stop offset="1" stop-color="#ffb27a"/></linearGradient><linearGradient id="B" x1="111.68" y1="113.855" x2="456.842" y2="113.855" xlink:href="#d"><stop offset=".006" stop-color="#ff6b00"/><stop offset="1" stop-color="#ff8730"/></linearGradient><linearGradient id="C" x1="455.943" y1="210.811" x2="464.72" y2="210.811" xlink:href="#d"><stop offset=".006" stop-color="#d15800"/><stop offset="1" stop-color="#c76925"/></linearGradient><linearGradient id="D" x1="134.83" y1="77.121" x2="175.345" y2="77.121" xlink:href="#d"><stop offset=".006" stop-color="#ff6b00"/><stop offset="1" stop-color="#ff8730"/></linearGradient><linearGradient id="E" x1="126.055" y1="62.295" x2="131.942" y2="62.295" xlink:href="#d"><stop offset=".006" stop-color="#ff6b00"/><stop offset="1" stop-color="#ff8730"/></linearGradient><linearGradient id="F" x1="304.506" y1="542.42" x2="405.07" y2="542.42" xlink:href="#d"><stop offset=".006" stop-color="#ff6b00"/><stop offset="1" stop-color="#ff8730"/></linearGradient><linearGradient id="G" x1="304.506" y1="539.073" x2="405.07" y2="539.073" xlink:href="#d"><stop offset=".006" stop-color="#ff6b00"/><stop offset="1" stop-color="#ff8730"/></linearGradient><linearGradient id="H" x1="217.691" y1="492.291" x2="318.254" y2="492.291" xlink:href="#d"><stop offset=".006" stop-color="#ff6b00"/><stop offset="1" stop-color="#ff8730"/></linearGradient><linearGradient id="I" x1="217.691" y1="488.943" x2="318.254" y2="488.943" xlink:href="#d"><stop offset=".006" stop-color="#ff6b00"/><stop offset="1" stop-color="#ff8730"/></linearGradient><linearGradient id="J" x1="130.875" y1="442.161" x2="231.439" y2="442.161" xlink:href="#d"><stop offset=".006" stop-color="#ff6b00"/><stop offset="1" stop-color="#ff8730"/></linearGradient><linearGradient id="K" x1="130.875" y1="438.814" x2="231.439" y2="438.814" xlink:href="#d"><stop offset=".006" stop-color="#ff6b00"/><stop offset="1" stop-color="#ff8730"/></linearGradient><linearGradient id="L" x1="90.397" y1="251.023" x2="201.679" y2="251.023" xlink:href="#d"><stop offset=".006" stop-color="#ff6b00"/><stop offset="1" stop-color="#ff8730"/></linearGradient><clipPath id="M"><path fill="#fff" d="M0 0h591.726v596H0z"/></clipPath><path id="N" d="M464.775 218.282v-16.528c0-1.995-1.425-4.417-3.135-5.415L122.677.712c-1.71-.997-4.417-.997-6.127 0l-1.71.997c-1.71.997-3.135 3.42-3.135 5.272v16.528l345.091 199.332 7.979-4.559z"/><path id="O" d="M455.941 203.321c.57.997.855 1.995.855 2.992v16.528l7.836-4.559v-16.528c0-.998-.285-1.995-.855-2.992l-7.836 4.559z"/><path id="P" d="M137.78 29.494c0 1.852-1.283 2.565-2.85 1.71s-2.85-3.135-2.85-4.987 1.283-2.565 2.85-1.71 2.85 3.135 2.85 4.987z"/><path id="Q" d="M238.941 195.2h-.142l-54.855-31.631c-.143-.143-.285-.285-.143-.428s.285-.285.428-.142l54.855 31.631c.142.142.285.285.142.427 0 .143-.142.143-.285.143z"/><path id="R" d="M238.941 198.619h-.142l-54.855-31.631c-.143-.142-.285-.285-.143-.427s.285-.285.428-.143l54.855 31.631c.142.143.285.285.142.428 0 0-.142.142-.285.142z"/><path id="S" d="M238.941 201.896h-.142l-54.855-31.631c-.143-.142-.285-.285-.143-.427s.285-.285.428-.143l54.855 31.631c.142.143.285.285.142.428 0 .142-.142.142-.285.142z"/><path id="T" d="M238.941 225.406h-.142l-54.855-31.631c-.143-.143-.285-.285-.143-.428s.285-.285.428-.142l54.855 31.631c.142.142.285.285.142.427 0 0-.142.143-.285.143z"/><path id="U" d="M336.826 435.138l-51.008-29.493c-.285-.143-.57 0-.57.427v1.852c0 .428.285.855.57 1.14l51.008 29.494c.285.142.57 0 .57-.428v-1.852c0-.427-.285-.997-.57-1.14z"/><path id="V" d="M152.17 266.868v9.831c0 .997.713 2.137 1.567 2.707l8.549 4.844c.855.428 1.568.143 1.568-.854v-9.832c0-.997-.713-2.137-1.568-2.707l-8.549-4.844c-.854-.57-1.567-.143-1.567.855z"/><path id="W" d="M543.709 306.62c.285 0 .57-.285.57-.57v-1.852c0-.285-.285-.57-.57-.57s-.57.285-.57.57v1.852c0 .285.285.57.57.57z"/><path id="X" d="M480.732 273.137c.143 0 .428-.142.428-.285.142-.285 0-.57-.143-.712l-1.709-.998c-.285-.142-.57 0-.713.143-.142.285 0 .57.143.712l1.71.998c0 .142.142.142.284.142z"/><path id="Y" d="M541.145 308.045c.142 0 .427-.142.427-.285.143-.285 0-.57-.142-.712l-1.71-.998c-.285-.142-.57 0-.713.143-.142.285 0 .57.143.712l1.71.998a.44.44 0 0 0 .285.142z"/><path id="Z" d="M507.661 223.839c0 1.852 1.14 3.989 2.565 4.844s2.565 0 2.565-1.995c0-1.852-1.14-3.989-2.565-4.844-1.425-.713-2.565.142-2.565 1.995z"/><path id="a" d="M480.732 294.224c.143 0 .428-.142.428-.285.142-.285 0-.57-.143-.712l-1.709-.998c-.285-.142-.57 0-.713.143-.142.285 0 .57.143.712l1.71.998c.142.142.142.142.284.142z"/><path id="b" d="M543.709 335.401c.285 0 .57-.285.57-.57v-1.852c0-.285-.285-.57-.57-.57s-.57.285-.57.57v1.852c0 .428.285.57.57.57z"/><path id="c" d="M363.328 567.361l-57.563-33.198c-1.709-.997-1.709-2.565 0-3.562l34.338-19.805c1.71-.997 4.417-.997 6.127 0l57.563 33.198c1.709.998 1.709 2.565 0 3.562l-34.338 19.805c-1.71.998-4.417.998-6.127 0z"/><linearGradient id="d" gradientUnits="userSpaceOnUse"/></defs></svg>