<svg xmlns="http://www.w3.org/2000/svg" xmlns:xlink="http://www.w3.org/1999/xlink" width="740" height="641" fill="none"><style>.B{opacity:.5}.C{fill:#ff6b00}.D{fill:#fff}.E{fill:#a3a3a3}.F{fill:#b4b5b6}.G{fill:#ececec}.H{fill:#e1e1e1}.I{fill:#f3f7ff}.J{fill:#ff902c}.K{fill:#dcdbdc}.L{fill:#236bb3}</style><path d="M300.182 340.136c3.298 1.933 3.298 5.003 0 6.936l-65.954 38.322c-3.297 1.933-8.642 1.933-11.939 0l-57.767-33.432c-3.298-1.933-3.298-5.003 0-6.936l65.954-38.322c3.298-1.933 8.642-1.933 11.94 0l57.766 33.432z" class="I"/><path d="M302.568 343.888v.455c0 .114 0 .114-.113.228 0 .113 0 .113-.114.227 0 .114-.114.228-.114.228 0 .113-.113.113-.113.227-.114.114-.114.227-.228.341 0 .114-.114.114-.114.114l-.341.341-.113.114c-.114.113-.228.113-.228.227l-.227.228c-.114.113-.228.113-.341.227s-.228.114-.342.227l-65.953 38.322c-.228.114-.569.227-.796.455-.114 0-.114.113-.228.113-.227.114-.455.228-.682.228-.114 0-.114.114-.228.114s-.341.113-.454.113-.228.114-.342.114-.341.114-.454.114-.228 0-.342.113c-.341 0-.682.114-.909.114H226.153c-.114 0-.341 0-.455-.114-.114 0-.227 0-.341-.113-.227 0-.341-.114-.569-.114-.113 0-.227 0-.341-.114l-.909-.341h-.114c-.455-.114-.796-.341-1.137-.569l-57.767-33.431c-1.705-.91-2.501-2.275-2.501-3.525v4.889c0 1.251.796 2.502 2.501 3.525l57.767 33.432c.341.228.796.341 1.137.569h.114l.909.341h.341c.228 0 .342.114.569.114h.341c.114 0 .341 0 .455.113H230.133c.341 0 .682-.113.91-.113.113 0 .227 0 .227-.114.114 0 .341-.114.455-.114s.227-.114.341-.114.341-.113.455-.113h.227c.228-.114.455-.114.683-.228.113 0 .113-.113.227-.113.227-.114.569-.228.796-.455l65.954-38.322s.114 0 .114-.113c.113 0 .113-.114.227-.114.114-.114.227-.114.341-.228l.228-.227c.113-.114.227-.114.227-.227 0 0 0-.114.114-.114l.341-.341.114-.114s0-.114.113-.114c.114-.113.114-.227.228-.341l.113-.114v-.113c0-.114.114-.228.114-.228s0-.113.114-.113c0-.114 0-.114.114-.228v-5.572c-.342.228-.342.228-.342.341z" class="F"/><path fill="#eceff5" d="M224.56 359.467c-.114 0-.342-.114-.569-.114s-.569-.113-.796-.227c-.114 0-.227-.114-.455-.114-.455-.113-.91-.227-1.364-.455-.228-.113-.455-.227-.569-.227s-.227-.114-.341-.114c-.341-.113-.569-.341-.91-.455l-39.458-22.742v17.512l39.458 22.742c.341.114.569.342.91.455.114 0 .227.114.341.114.227.114.341.114.569.227h.113c.455.114.91.341 1.365.455h.114c.113 0 .227 0 .341.114.227.114.568.114.796.227H224.673c.228 0 .455.114.683.114v-17.398c-.455-.114-.683-.114-.796-.114z"/><path fill="#e6e9ef" d="M237.183 357.648a5.294 5.294 0 0 1-1.137.568c-.114 0-.228.114-.342.114l-1.023.341c-.114 0-.227.114-.341.114-.228.114-.455.114-.682.227-.114 0-.342.114-.455.114-.228 0-.455.114-.683.114-.113 0-.341.113-.454.113-.455.114-.91.114-1.365.228h-4.207c-.228 0-.455 0-.569-.114-.227 0-.341 0-.569-.114v17.512H225.925c.227 0 .455 0 .569.114h4.207c.455 0 .91-.114 1.365-.227h.113c.114 0 .228-.114.455-.114s.455-.114.682-.114c.114 0 .342-.114.455-.114.228 0 .455-.113.683-.227h.113c.114 0 .114 0 .228-.114l1.023-.341c.114 0 .228-.114.341-.114.455-.227.796-.341 1.137-.568l49.807-28.997v-17.512l-49.92 29.111z"/><path d="M287.332 318.303c4.889 2.843 4.889 7.391.114 10.12l-50.262 29.225c-4.776 2.843-12.622 2.843-17.512 0l-40.709-23.425 67.773-39.459 40.596 23.539z" class="J"/><path d="M265.156 317.848c2.388 1.365 2.388 3.639 0 5.117l-6.14 3.98c-2.388 1.365-6.368 1.365-8.756 0l-16.943-9.779c-1.479-.91-1.479-2.957 0-3.866l9.438-5.686a4.417 4.417 0 0 1 4.435 0l17.966 10.234z" class="D"/><path fill="#d2d1d2" d="M181.919 339.226v10.803l39.118 22.629c.227.114.455.227.796.455 0 0 .455.227.568.227h.114l1.137.341h.341c.228 0 .455.114.683.114h.454c.228 0 .796.114.796.114l1.024.114H230.248c.454 0 .796-.114 1.25-.228l.342-.114c.227 0 .341-.113.568-.113l.455-.114c.114 0 .341-.114.455-.114h.114c.113 0 .113 0 .227-.114.227-.113.569-.227.796-.341l.227-.113c.342-.114.683-.341.91-.455l51.285-29.907 4.094-2.388V341.273c0 .114 0 .114-.114.227 0 .114-.114.228-.114.342v.113c0 .114-.114.114-.114.228s-.113.227-.227.341v.114c0 .113-.114.113-.114.227-.113.114-.227.341-.341.455 0 0 0 .114-.114.114l-.113.113c-.114.228-.341.341-.569.569l-.114.114h-.113l-.341.341c-.114.113-.228.227-.342.227-.113.114-.341.228-.454.341s-.228.114-.342.228c0 0-.113 0-.113.113l-.455.228-49.807 28.997a5.294 5.294 0 0 1-1.137.568c-.113 0-.227.114-.341.114l-1.023.341c-.114 0-.114 0-.228.114h-.113c-.228.114-.455.114-.683.227-.113 0-.341.114-.455.114-.227 0-.454.114-.682.114-.114 0-.227 0-.455.113h-.113c-.455.114-.91.114-1.365.228h-4.094c-.227 0-.455 0-.568-.114H225.244c-.227 0-.455-.114-.682-.114H223.993c-.227 0-.568-.113-.796-.227-.113 0-.227 0-.341-.114h-.114c-.454-.113-.909-.227-1.364-.455h-.114c-.227-.113-.341-.113-.568-.227-.114 0-.228-.114-.342-.114-.341-.113-.568-.341-.909-.455l-39.459-22.742-1.251-.682v-17.512l1.137.682 39.459 22.743c.341.113.569.341.91.454.113 0 .227.114.341.114.227.114.455.228.568.228.455.113.91.341 1.365.454.114 0 .341.114.455.114.227.114.568.114.796.228.227 0 .341.113.568.113s.455.114.683.114.341 0 .568.114c.228 0 .455 0 .569.113h4.207c.455 0 .91-.113 1.365-.227.114 0 .341-.114.455-.114.227 0 .455-.113.682-.113.114 0 .341-.114.455-.114.227-.114.455-.114.682-.228.114 0 .228-.113.341-.113l1.024-.341c.113 0 .227-.114.341-.114.455-.228.796-.341 1.137-.569l49.693-28.997.455-.341c.113-.113.341-.227.454-.341s.342-.227.455-.341.228-.227.341-.227l.342-.342.227-.227.569-.569.227-.227c.114-.114.227-.341.341-.455 0-.114.114-.227.114-.227.114-.114.114-.228.227-.341 0-.114.114-.228.114-.342s.114-.227.114-.341.113-.227.113-.341v-.682 6.254l-4.093 2.388-48.329 28.201-1.478.682c-.114 0-.227.114-.455.114-.341.114-.796.341-1.137.455 0 0-.341.114-.455.114-.227.113-.454.113-.796.227h-.113c-.114 0-.228.114-.455.114s-.455.113-.796.113l-.569.114c-.568.114-1.023.114-1.592.228h-4.776c-.227 0-.455 0-.682-.114-.227 0-.455 0-.682-.114-.228 0-.455-.114-.683-.114s-.454-.113-.568-.113c-.341-.114-.569-.114-.91-.228h-.114c-.113 0-.227-.113-.454-.113a6.586 6.586 0 0 1-1.592-.569 5.58 5.58 0 0 0-.796-.341c-.114 0-.228-.114-.342-.114-.341-.227-.796-.341-1.137-.568l-35.706-20.469z"/><path d="M224.56 338.061c-.114 0-.342-.114-.569-.114s-.569-.113-.796-.227c-.114 0-.227-.114-.455-.114-.455-.113-.91-.227-1.364-.455-.228-.113-.455-.227-.569-.227s-.227-.114-.341-.114c-.341-.113-.569-.341-.91-.455l-39.458-22.742v16.623l39.458 23.631c.341.114.569.341.91.455.114 0 .227.114.341.114.227.114.341.114.569.227h.113c.455.114.91.341 1.365.455h.114c.113 0 .227 0 .341.114.227.114.568.114.796.227H224.673c.228 0 .455.114.683.114v-17.512h-.796z" class="I"/><path fill="#e6e9ef" d="M237.183 335.418a5.347 5.347 0 0 1-1.137.569c-.114 0-.228.113-.342.113l-1.023.341c-.114 0-.227.114-.341.114-.228.114-.455.114-.682.228-.114 0-.342.113-.455.113-.228 0-.455.114-.683.114-.113 0-.341.114-.454.114-.455.113-.91.113-1.365.227h-4.207c-.228 0-.455 0-.569-.114-.227 0-.341 0-.569-.113v17.512H225.925c.227 0 .455 0 .569.113h4.207c.455 0 .91-.113 1.365-.227h.113c.114 0 .228-.114.455-.114s.455-.114.682-.114c.114 0 .342-.113.455-.113.228 0 .455-.114.683-.228h.113c.114 0 .114 0 .228-.113l1.023-.342c.114 0 .228-.113.341-.113.455-.228.796-.341 1.137-.569l49.807-28.997v-17.512l-49.92 29.111z"/><path d="M287.332 297.493c4.889 2.843 4.889 7.392.114 10.121l-50.262 29.224c-4.776 2.843-12.622 2.843-17.512 0l-40.709-23.425 67.773-39.458 40.596 23.538z" class="J"/><path d="M265.156 297.039c2.388 1.364 2.388 3.638 0 5.117l-6.14 3.98c-2.388 1.364-6.368 1.364-8.756 0l-16.943-9.78c-1.479-.909-1.479-2.956 0-3.866l9.438-5.686a4.417 4.417 0 0 1 4.435 0l17.966 10.235z" class="D"/><path fill="#fca252" d="M181.919 318.417v10.802l39.118 22.629c.227.114.455.228.796.455 0 0 .455.228.568.228h.114l1.137.341h.341c.228 0 .455.114.683.114h.454c.228 0 .796.113.796.113l1.024.114H230.248c.454 0 .796-.114 1.25-.227l.342-.114c.227 0 .341-.114.568-.114l.455-.114c.114 0 .341-.113.455-.113h.114c.113 0 .113 0 .227-.114.227-.114.569-.227.796-.341l.227-.114c.342-.114.683-.341.91-.455l51.285-29.906 2.64-1.592.536.682c0-.114 0 .114 0 0 0 .114.333.522.333.749.114-.113 0 .114 0 0 0 .114.13.161.016.274v.114c0 .114-.114.114-.114.228-.113.113-.227.341-.341.454 0 0 0 .114-.114.114l-.113.114c-.114.227-.341.341-.569.568l-.114.114h-.113l-.341.341c-.114.114-.228.228-.342.228-.113.113-.341.227-.454.341s-.228.114-.342.227c0 0-.113 0-.113.114l-.455.227-49.807 28.997a5.3 5.3 0 0 1-1.137.569c-.113 0-.227.114-.341.114l-1.023.341c-.114 0-.114 0-.228.113h-.113c-.228.114-.455.114-.683.228-.113 0-.341.114-.455.114-.227 0-.454.113-.682.113-.114 0-.227 0-.455.114h-.113c-.455.114-.91.114-1.365.227h-4.094c-.227 0-.455 0-.568-.113H225.244c-.227 0-.455-.114-.682-.114H223.993c-.227 0-.568-.114-.796-.227-.113 0-.227 0-.341-.114h-.114c-.454-.114-.909-.228-1.364-.455h-.114c-.227-.114-.341-.114-.568-.227-.114 0-.228-.114-.342-.114-.341-.114-.568-.341-.909-.455l-39.459-22.743-1.251-.682v-17.512l1.137.682 39.459 22.743c.341.114.569.341.91.455.113 0 .227.114.341.114.227.113.455.227.568.227.455.114.91.341 1.365.455.114 0 .341.114.455.114.227.113.568.113.796.227.227 0 .341.114.568.114s.455.114.683.114.341 0 .568.113c.228 0 .455 0 .569.114h4.207c.455 0 .91-.114 1.365-.227.114 0 .341-.114.455-.114.227 0 .455-.114.682-.114.114 0 .341-.114.455-.114.227-.113.455-.113.682-.227.114 0 .228-.114.341-.114l1.024-.341c.113 0 .227-.114.341-.114.455-.227.796-.341 1.137-.568l49.693-28.997.455-.341c.113-.114.341-.228.454-.341s.342-.228.455-.341.228-.228.341-.228l.342-.341.227-.227.569-.569.227-.227c.114-.114.227-.342.341-.455 0-.114.114-.228.114-.228.114-.113.114-.227.227-.341 0-.114.114-.227.114-.341s.114-.227.114-.341.113-.228.113-.341v-.683 6.255l-4.093 2.388-48.329 28.201-1.478.682c-.114 0-.227.114-.455.114-.341.113-.796.341-1.137.454 0 0-.341.114-.455.114-.227.114-.454.114-.796.228h-.113c-.114 0-.228.113-.455.113s-.455.114-.796.114l-.569.114c-.568.113-1.023.113-1.592.227h-4.776c-.227 0-.455 0-.682-.114-.227 0-.455 0-.682-.113-.228 0-.455-.114-.683-.114s-.454-.114-.568-.114c-.341-.113-.569-.113-.91-.227h-.114c-.113 0-.227-.114-.454-.114a6.586 6.586 0 0 1-1.592-.568c-.228-.114-.455-.228-.796-.342-.114 0-.228-.113-.342-.113-.341-.228-.796-.341-1.137-.569l-35.706-20.468z"/><path d="M653.096 417.084v-64.935l84.3-48.822v64.934l-84.3 48.823z" class="G"/><path fill="#e7e7e7" d="M653.094 352.149l-105.457-61.028v65.097l105.457 60.866v-64.935z"/><path fill="#f0f0f0" d="M653.095 352.149L740 301.862l-108.061-62.331-86.905 50.125 108.061 62.493z"/><path d="M653.096 352.149v16.112L740 318.136v-16.274l-86.904 50.287z" class="G"/><path fill="#e7e7e7" d="M653.096 368.261l84.3-48.66v3.58l-84.3 48.66v-3.58z"/><path d="M545.034 289.656l108.061 62.493v16.112l-108.061-62.33v-16.275z" class="G"/><g class="H"><path d="M653.094 368.261l-105.457-60.866v3.58l105.457 60.866v-3.58z" class="B"/><path d="M680.761 361.914l28.805-16.6c1.302-.651 2.279-.163 2.279 1.302v17.088c0 1.465-.977 3.255-2.279 3.906l-28.805 16.6c-1.302.651-2.279.162-2.279-1.302V365.82c.163-1.465 1.14-3.092 2.279-3.906z"/></g><path d="M682.714 363.867l25.062-14.484c.814-.488 1.465-.163 1.465.813v12.857c0 .977-.651 2.116-1.465 2.604l-25.062 14.484c-.814.488-1.465.163-1.465-.814v-12.856c0-.977.651-2.116 1.465-2.604z" class="D"/><path fill="#fda150" d="M653.095 343.849v-64.934l84.3-48.66v64.934l-84.3 48.66z"/><path fill="#ee7e1a" d="M653.094 278.915L547.637 218.05v64.934l105.457 60.866v-64.935z"/><path d="M653.094 278.915l86.905-50.124-108.061-62.331-86.905 50.125 108.061 62.33z" class="J"/><path fill="#fda150" d="M653.095 278.915v16.275l86.904-50.125v-16.274l-86.904 50.124z"/><path fill="#f2994a" d="M653.095 295.189l84.3-48.66v3.581l-84.3 48.66v-3.581z"/><path fill="#ee7e1a" d="M545.033 216.585l108.061 62.33v16.274l-108.061-62.33v-16.274z"/><path fill="#d97317" d="M653.094 295.189l-105.457-60.865v3.58l105.457 60.866v-3.581z" class="B"/><path d="M680.761 288.842l28.805-16.599c1.302-.651 2.279-.163 2.279 1.302v17.088c0 1.464-.977 3.255-2.279 3.905l-28.805 16.6c-1.302.651-2.279.163-2.279-1.302v-17.088c.163-1.464 1.14-3.255 2.279-3.906z" class="H"/><path d="M682.714 290.795l25.062-14.484c.814-.488 1.465-.162 1.465.814v12.857c0 .976-.651 2.115-1.465 2.604l-25.062 14.484c-.814.488-1.465.162-1.465-.814v-12.857c0-.976.651-2.115 1.465-2.604z" class="D"/><path d="M732.84 297.793l-79.744 46.056-100.9-58.261-2.604 1.464 103.504 59.564 82.348-47.358-2.604-1.465z" class="H"/><g fill="url(#A)" class="B"><use xlink:href="#C"/><use xlink:href="#C"/><use xlink:href="#C"/><use xlink:href="#C"/><use xlink:href="#C"/><use xlink:href="#C"/><use xlink:href="#C"/><use xlink:href="#C"/><use xlink:href="#C"/><use xlink:href="#C"/><use xlink:href="#C"/><use xlink:href="#C"/><use xlink:href="#C"/><use xlink:href="#C"/><use xlink:href="#C"/><use xlink:href="#C"/><use xlink:href="#C"/><use xlink:href="#C"/><use xlink:href="#C"/><use xlink:href="#C"/><use xlink:href="#C"/><use xlink:href="#C"/><use xlink:href="#C"/><use xlink:href="#C"/></g><path d="M502.098 406.077c4.045 2.311 4.045 6.125 0 8.437l-80.674 46.809c-4.045 2.312-10.518 2.312-14.563 0l-95.699-55.246c-4.045-2.312-4.045-6.126 0-8.437l80.674-46.81c4.045-2.311 10.518-2.311 14.563 0l95.699 55.247z" class="I"/><path d="M505.102 410.584v.347c0 .116 0 .231-.115.231 0 .116 0 .231-.116.347 0 .116-.115.116-.115.231s-.116.231-.116.347-.115.116-.115.231c-.116.116-.116.231-.232.347 0 .115-.115.115-.115.231-.116.116-.231.347-.463.462l-.115.116c-.116.115-.231.231-.347.231-.115.116-.231.116-.231.231-.116.116-.231.116-.347.231s-.231.116-.346.232l-80.674 46.809c-.347.231-.694.347-.925.462-.116 0-.231.116-.347.116-.231.115-.578.231-.809.347-.115 0-.231.115-.347.115-.231 0-.346.116-.577.116-.116 0-.232.115-.463.115s-.347.116-.578.116c-.115 0-.231 0-.346.115-.347.116-.809.116-1.156.116h-4.045c-.116 0-.347 0-.463-.116-.231 0-.347-.115-.578-.115-.115 0-.231 0-.462-.116-.231 0-.462-.115-.693-.115-.116 0-.232-.116-.347-.116l-1.156-.347s-.116 0-.116-.115l-1.387-.694-95.699-55.015c-2.08-1.156-3.005-2.658-3.005-4.277v5.895c0 1.502 1.04 3.121 3.005 4.276l95.815 55.363 1.387.693h.116l1.155.347h.116c.116 0 .231 0 .231.115.231 0 .462.116.694.116H411.021c.231 0 .347.116.578.116h4.392c.347 0 .809-.116 1.156-.116.116 0 .231 0 .347-.116.231 0 .346-.115.578-.115.115 0 .231-.116.462-.116s.347-.115.578-.115h.115c.116 0 .116 0 .232-.116.231-.116.577-.231.809-.347.115 0 .231-.115.346-.115.347-.116.694-.347.925-.463l80.674-46.809s.116 0 .116-.116a.25.25 0 0 0 .231-.231c.115-.115.231-.115.346-.231s.232-.115.347-.231.231-.116.347-.231h.115l.116-.116.462-.462.116-.116s0-.115.116-.115c.115-.116.115-.231.231-.347l.115-.116v-.115c0-.116.116-.231.116-.347s.115-.115.115-.231v-.116c0-.115.116-.231.116-.346s0-.116.116-.231v-6.588c-.116.462-.116.577-.232.577z" class="F"/><path d="M479.328 391.83V389.638c0-.2 0-.399-.199-.598 0-.2 0-.399-.199-.399v-.399c0-.199-.2-.598-.2-.797s-.199-.399-.199-.598l-16.745-37.278-81.135-47.246 16.746 37.278c.199.399.398.997.598 1.595v.2c.199.398.199.996.398 1.594v.2c0 .598.2 1.196.2 1.794v2.193c0 .598-.2 1.196-.2 1.993v.199c-.199.598-.199 1.396-.398 1.994v.199l-.598 1.994v.199c-.2.797-.599 1.396-.798 2.193-.399.797-.598 1.395-.997 1.993v.2c-.398.598-.598 1.196-.996 1.594-.2.2-.399.599-.598.798-.2.399-.598.797-.798 1.196 0 .199-.199.199-.199.399-.399.598-.798 1.196-1.196 1.594-.399.598-.997.997-1.396 1.595-.398.399-.996.997-1.594 1.396h-.2c-.598.398-.997.797-1.595 1.196h-.199c-.598.398-.997.797-1.595.997l-52.827 30.5 81.135 47.245 52.827-30.5h.199c.2-.199.399-.199.598-.399s.399-.199.598-.398c.2 0 .2-.2.399-.2h.199s.2 0 .2-.199c.199-.2.398-.399.598-.399l.598-.598.199-.199.399-.399.598-.598.598-.598.598-.598.598-.598.399-.399.598-.598c.199-.199.398-.399.598-.797l.199-.2s.199-.199.199-.398c.2-.2.2-.399.399-.598s.199-.399.399-.598.399-.598.598-.798c0-.199.199-.199.199-.398l.598-1.197v-.398c0-.2.2-.399.2-.598.199-.2.199-.399.398-.798.2-.199.2-.398.399-.598v-.199c0-.199.199-.399.199-.598s.2-.399.2-.598.199-.399.199-.598v-.399c0-.199 0-.199.199-.399 0-.199.2-.398.2-.797 0-.199.199-.399.199-.797v-.798c0-.199.199-.398.199-.797 0-.2 0-.399.2-.598V392.03c-.2 0-.2 0-.2-.2z" class="K"/><g class="F"><path d="M479.051 387.055l-16.745-37.278c0-.199-.199-.199-.399-.399l-81.134-47.245h-.2v.399l81.135 47.245 16.745 37.278c1.794 3.987 1.196 9.569-1.196 15.35-2.592 5.781-6.578 10.765-11.163 13.356l-52.828 30.5-81.134-47.245v.398l.199.2 81.135 47.245-.2-.199c.2.399.598.399 1.196.199l52.828-30.5c7.82-4.644 12.512-13.538 13.038-16.646s.916-7.874-1.277-12.658zm-69.174 64.987c0-.199-.199-.398-.199-.598.199.2.199.399.199.598z"/><path d="M479.284 388.233l.522 3.131v2.609l-.477.05-80.927-46.492v-2.609c0-.598-.322-1.489-.521-2.087l-.484-1.44a9.617 9.617 0 0 0-.598-1.395l-2.392-5.582 81.225 46.509 3.652 7.306c0 .199 0-.2 0 0s0-.399 0 0c0 .199-.199 0 0 0 0 .199-.199-.2 0 0 0 .199 0-.2 0 0z"/></g><path fill="#c3d0d5" d="M284.565 230.957l7.974-4.585 311.382 179.612-8.174 4.784-311.182-179.811z"/><path fill="#0c0809" d="M298.522 66.694l8.173-4.784-.598 156.687-7.974 4.785.399-156.688z"/><path fill="#0d090a" d="M298.123 223.382l7.974-4.785 284.27 164.064-7.974 4.784-284.27-164.063z"/><path fill="#1ab2c7" d="M298.521 66.694l8.173-4.784 284.07 164.063-7.974 4.785L298.521 66.694z"/><path fill="url(#B)" d="M582.792 230.758l-.399 156.687-284.27-164.063.399-156.687 284.27 164.064z"/><path fill="#17a0b2" d="M582.79 230.758l7.974-4.785-.398 156.688-7.974 4.784.398-156.687z"/><path d="M603.922 405.984l.598-177.818V225.375c0-.199 0-.399-.199-.399 0-.199 0-.398-.199-.398 0-.2 0-.2-.2-.399 0-.199 0-.199-.199-.399 0-.199-.199-.199-.199-.398s-.2-.2-.2-.399-.199-.199-.199-.399 0-.199-.199-.398c0-.2-.2-.2-.2-.399s-.199-.399-.199-.399c0-.199-.199-.399-.199-.598-.2-.199-.2-.399-.399-.598-.199-.399-.399-.797-.598-.997s-.399-.598-.598-.797-.2-.399-.399-.399l-.399-.398-.398-.399-.399-.399-.199-.199-.399-.399-.399-.399-.398-.398-.2-.2-.199-.199c-.199-.199-.199-.199-.399-.199s-.199-.2-.398-.2-.2-.199-.399-.199-.2-.199-.399-.199L301.711 43.57l-.199-.199c-.199 0-.2-.199-.399-.199 0 0-.199 0-.199-.199-.2 0-.2-.199-.399-.199s-.199 0-.399-.199h-3.189c-.2 0-.399 0-.598.199-.2 0-.399.199-.598.399l-7.974 4.784c.199-.199.399-.199.598-.399.199 0 .399-.199.598-.199H290.548c.199 0 .398 0 .797.199.199 0 .598.199.797.199s.599.199.798.399.598.199.797.399L587.775 218.2l1.794 1.196c.598.398.997.996 1.595 1.395.598.598.997 1.196 1.396 1.794l1.196 1.994c.398.598.797 1.395.996 1.993.399.798.598 1.396.798 2.193s.398 1.395.398 2.193c.2.797.2 1.395.2 2.193l-.598 177.818v29.503c0 .598 0 1.196-.2 1.794s-.199.997-.398 1.595c-.2.399-.399.798-.598.997 0 .199-.2.199-.2.199-.199.399-.598.598-.996.798l7.974-4.785c.398-.199.598-.398.996-.797l.2-.199.398-.399c.2-.199.2-.399.399-.598 0-.199.199-.199.199-.399s.2-.398.2-.398c0-.2 0-.2.199-.399V435.887l.199-29.902z" class="F"/><path fill="#d2d1d2" d="M587.774 217.999c4.785 2.791 8.572 9.37 8.572 14.951l-.598 177.819-311.381-179.812.598-177.818c0-5.582 3.987-7.775 8.772-4.984l294.037 169.844zm-5.382 169.446l.399-156.687-284.27-164.064-.399 156.688 284.27 164.063z"/><path d="M595.748 410.769v29.503c0 5.582-3.987 7.775-8.771 4.984L292.939 275.611c-4.784-2.791-8.572-9.569-8.572-14.951v-29.504l311.381 179.613z" class="K"/><path fill="#174972" d="M480.863 554.593c-.892-.48-1.579-1.716-1.579-2.746v-99.048c0-1.03.687-2.265 1.579-2.746l35.418-20.454c.893-.481 2.266-.55 3.089-.069s1.51 1.647 1.51 2.677v6.589c0 1.03.687 1.442 1.579.893l44.273-25.466c.893-.48 2.265-.549 3.089-.069s1.51 1.648 1.51 2.677v152.314l-32.741 18.807-57.727-33.359z"/><path fill="#2982cc" d="M569.753 414.154c-.823-.48-2.196-.48-3.088.069l-44.274 25.603c-.892.48-1.578.068-1.578-.893v-6.589c0-1.03-.687-2.197-1.51-2.677s-2.197-.48-3.089.069l-35.35 20.317a3.594 3.594 0 0 0-1.098 1.167l20.317 11.738 71.181-41.116v-5.011c0-1.029-.687-2.196-1.511-2.677z"/><path fill="#1b5889" d="M569.683 415.939l-47.293 27.319c-.893.48-1.579.069-1.579-.892v-10.022c0-1.03-.686-1.441-1.579-.892l-35.35 20.317c-.892.481-1.578 1.716-1.578 2.746V550.2c0 1.03.686 2.265 1.578 2.746l57.727 33.359 29.653-17.092V416.831c0-1.029-.755-1.441-1.579-.892z"/><path fill="#0d3d5e" d="M482.717 551.71c.274.481.686.961 1.098 1.167l57.727 33.359 29.653-17.091v-68.504l-88.478 51.069z"/><path fill="#f5f5f5" d="M489.926 573.538l-.412-.275c-.687-.412-1.236-1.373-1.236-2.196v-92.94c0-.823.549-1.784 1.236-2.196l95.342-55.05c.686-.412 1.853-.412 2.539 0l.412.275c.687.411 1.236 1.372 1.236 2.196v92.939a2.8 2.8 0 0 1-1.236 2.197l-95.342 55.05c-.755.412-1.853.412-2.539 0z"/><use class="H" xlink:href="#D"/><path d="M491.161 572.783v-92.94c0-.823.549-1.784 1.236-2.196l95.341-55.05c.687-.412 1.236-.069 1.236.755v92.939a2.8 2.8 0 0 1-1.236 2.197l-95.273 55.05c-.755.412-1.304.068-1.304-.755z" class="G"/><path d="M498.712 480.873l82.849-47.843c.892-.48 1.578-.068 1.578.893v71.661c0 1.029-.686 2.265-1.578 2.745l-82.849 47.911c-.893.481-1.579.069-1.579-.892v-71.661c0-1.098.686-2.334 1.579-2.814z" class="D"/><path fill="#f9ce64" d="M507.701 583.834l-.412-.275c-.686-.412-1.235-1.373-1.235-2.196v-92.94c0-.823.549-1.784 1.235-2.196l95.342-55.05c.686-.412 1.853-.412 2.54 0l.412.275c.686.411 1.235 1.372 1.235 2.196v92.939c0 .824-.549 1.785-1.235 2.197l-95.342 55.05c-.687.343-1.854.343-2.54 0z"/><path fill="#c9971c" d="M511.957 490.345l-5.56-3.226c-.206.412-.343.824-.343 1.236v92.939c0 .824.549 1.785 1.235 2.197l.412.274c.686.412 1.853.412 2.54 0l1.716-.961v-92.459z"/><path fill="#eebd31" d="M508.938 583.079v-92.94c0-.823.549-1.784 1.235-2.196l95.342-55.05c.686-.412 1.235-.069 1.235.755v92.939c0 .824-.549 1.785-1.235 2.197l-95.342 55.05c-.618.343-1.235.068-1.235-.755z"/><path fill="#c9d3eb" d="M516.488 491.169l82.849-47.843c.892-.48 1.579-.068 1.579.893v71.661c0 1.029-.687 2.265-1.579 2.745l-82.849 47.843c-.892.48-1.579.068-1.579-.893v-71.66c0-1.03.687-2.266 1.579-2.746z"/><path fill="#f5f5f5" d="M525.478 594.061l-.411-.274a2.8 2.8 0 0 1-1.236-2.197v-92.939a2.8 2.8 0 0 1 1.236-2.197l95.341-55.05c.687-.411 1.854-.411 2.54 0l.412.275c.686.412 1.235 1.373 1.235 2.197v92.939c0 .824-.549 1.785-1.235 2.196l-95.342 55.05c-.686.412-1.853.412-2.54 0z"/><use x="35.622" y="20.592" class="H" xlink:href="#D"/><path d="M526.783 593.375v-92.94c0-.823.549-1.784 1.236-2.196l95.342-55.05c.686-.412 1.235-.069 1.235.755v92.939c0 .824-.549 1.785-1.235 2.197l-95.342 55.05c-.687.343-1.236 0-1.236-.755z" class="G"/><path d="M534.265 501.396l82.849-47.774c.893-.48 1.579-.068 1.579.893v71.661c0 1.029-.686 2.265-1.579 2.745l-82.849 47.843c-.892.48-1.578.068-1.578-.893v-71.66c0-1.03.686-2.266 1.578-2.815z" class="D"/><path fill="#0d3d5e" d="M541.61 586.236l8.855-5.148v10.296l-8.855-5.148z"/><path fill="#174972" d="M550.466 514.438v75.093c0 1.03-.687 1.441-1.579.892l-7.345-4.255-2.951 1.716 13.247 7.619c.893.48 2.266.48 3.158 0l91.772-52.991c.893-.48 1.579-1.716 1.579-2.745v-78.388c0-1.03-.686-2.197-1.51-2.677s-2.196-.481-3.089.069l-91.772 52.99c-.755.412-1.51 1.648-1.51 2.677z"/><path fill="#2982cc" d="M556.436 516.017l91.978-53.059v-1.579c0-1.03-.686-2.197-1.51-2.677s-2.197-.481-3.089.069l-91.772 52.99a3.608 3.608 0 0 0-1.099 1.167l5.492 3.089z"/><path d="M646.769 460.418l-91.704 52.991c-.892.48-1.579 1.716-1.579 2.745v78.525c0 1.03.687 1.441 1.579.892l91.773-52.99c.892-.481 1.578-1.716 1.578-2.746v-78.456c-.068-1.03-.755-1.441-1.647-.961z" class="L"/><path fill="#f1f1f1" fill-opacity=".3" d="M331.088 239.515V0l196.204 110.104v241.602L331.088 239.515z"/><g class="C"><path d="M362.985 31.306l-25.634-14.762v-5.586l25.634 14.762v5.586zm13.017 7.381L366.99 33.5v-5.586l9.012 5.187v5.586z" class="B"/><use class="B" xlink:href="#E"/><path d="M351.368 37.291l-14.018-7.98v-5.586l14.018 7.98v5.586zm21.029 12.169l-17.223-9.974V33.9l17.223 9.974v5.586z" class="B"/><use x="-3.804" y="10.573" class="B" xlink:href="#E"/><path d="M392.225 60.831l-6.409-3.591v-5.586l6.409 3.591v5.586z" class="B"/><path d="M347.563 47.864l-10.213-5.785v-5.586l10.213 5.785v5.586zm7.21 4.189l-3.405-1.995v-5.586l3.405 1.995v5.586z"/><path d="M364.988 58.038l-6.209-3.591v-5.785l6.209 3.79v5.586zm9.611 18.153L337.35 54.846V49.26l37.249 21.345v5.586zm13.218 7.581l-9.213-5.386V72.8l9.213 5.386v5.586zm-40.254-10.373l-10.213-5.785v-5.586l10.213 5.785v5.586z" class="B"/><use class="B" xlink:href="#F"/><path d="M381.408 92.949L375 89.358v-5.785l6.408 3.79v5.586zm-23.431-.798l-20.627-11.77v-5.586l20.627 11.77v5.586z" class="B"/><use xlink:href="#G"/><path d="M390.82 111.102l-10.013-5.785v-5.586l10.013 5.786v5.585zm-46.461-13.964l-7.009-3.99v-5.586l7.009 3.99v5.586zm13.218 7.581l-9.213-5.387v-5.586l9.213 5.386v5.586z" class="B"/><use x="-.6" y="12.368" class="B" xlink:href="#G"/><path d="M358.778 118.284l-21.428-12.369v-5.585l21.428 12.368v5.586zm23.831 13.565l-20.027-11.371v-5.586l20.027 11.371v5.586z" class="B"/><use x="6.609" y="93.162" xlink:href="#E"/><path d="M402.637 143.42l-6.408-3.591v-5.586l6.408 3.591v5.586zm-52.47-17.356l-12.817-7.381v-5.586l12.817 7.381v5.586z" class="B"/><path d="M403.637 54.647L421.46 64.82v-5.586L403.637 49.06v5.586z"/><path d="M407.442 69.608l14.019 7.98v-5.586l-14.019-7.98v5.586zm3.806 14.962l10.214 5.785V84.77l-10.214-5.785v5.586zm-4.606 10.174l14.819 8.379v-5.586l-14.819-8.379v5.586zm4.606 15.361l10.214 5.785v-5.586l-10.214-5.785v5.586zm-2.602 11.171l12.818 7.381v-5.585l-12.818-7.381v5.585zm5.807 16.159l7.009 3.99v-5.586l-7.009-3.99v5.586zm-6.609 8.977l13.618 7.78v-5.585l-13.618-7.781v5.586zm.802 13.166l12.818 7.382v-5.586l-12.818-7.381v5.585zm-49.065-28.128l-5.407-3.192v-5.585l5.407 3.192v5.585zm16.021 9.177l-12.216-6.982v-5.586l12.216 6.982v5.586zm-12.618 5.586L337.35 131.45v-5.585l25.634 14.762v5.586zm13.018 7.58l-9.012-5.386v-5.586l9.012 5.386v5.586zm10.213 5.785l-6.208-3.59v-5.586l6.208 3.591v5.585zm-34.847-7.181l-14.018-8.179v-5.586l14.018 8.179v5.586zm21.029 11.969l-17.223-9.775v-5.586l17.223 9.775v5.586zm10.014 5.785l-6.208-3.591v-5.585l6.208 3.591v5.585zm9.814 5.586l-6.409-3.591v-5.585l6.409 3.59v5.586zm-44.662-12.767l-10.213-5.985v-5.586l10.213 5.786v5.785zm7.21 4.189l-3.405-1.995v-5.586l3.405 1.995v5.586zm10.215 5.785l-6.209-3.591v-5.585l6.209 3.591v5.585zm9.611 18.353l-37.249-21.545v-5.585l37.249 21.545v5.585zm13.218 7.382l-9.213-5.187v-5.586l9.213 5.187v5.586zm-40.254-10.175l-10.213-5.984v-5.586l10.213 5.985v5.585z" class="B"/><use y="115.106" class="B" xlink:href="#F"/><path d="M381.408 207.855L375 204.264v-5.586l6.408 3.591v5.586zm-23.431-.598l-20.627-11.97v-5.586l20.627 11.97v5.586z" class="B"/><use y="114.906" class="B" xlink:href="#G"/><path d="M390.82 226.009l-10.013-5.786v-5.585l10.013 5.785v5.586zm-46.461-13.765l-7.009-3.99v-5.785l7.009 4.189v5.586zm13.218 7.381l-9.213-5.187v-5.586l9.213 5.187v5.586zm18.625 10.773l-14.82-8.379v-5.586l14.82 8.379v5.586zm-17.424 2.792l-21.428-12.169v-5.785l21.428 12.369v5.585zm23.831 13.765l-20.027-11.57v-5.586l20.027 11.57v5.586zm10.215 5.785l-6.208-3.591v-5.585l6.208 3.591v5.585zm9.813 5.586l-6.408-3.591v-5.585l6.408 3.59v5.586zm-52.47-17.356l-12.817-7.181v-5.586l12.817 7.182v5.585zm53.47-71.417l17.823 10.174v-5.586l-17.823-10.174v5.586zm3.805 14.962l14.019 7.979v-5.585l-14.019-7.98v5.586zm3.806 14.961l10.214 5.786v-5.586l-10.214-5.785v5.585zm-4.606 10.174l14.819 8.379v-5.586l-14.819-8.378v5.585zm4.606 15.361l10.214 5.785v-5.585l-10.214-5.786v5.586zm-2.602 11.371l12.818 7.182v-5.586l-12.818-7.182v5.586zm5.807 15.959l7.009 3.99v-5.586l-7.009-3.989v5.585zm-6.609 9.177l13.618 7.58v-5.585l-13.618-7.581v5.586zm.802 13.166l12.818 7.182v-5.586l-12.818-7.181v5.585zm-49.065-28.327l-5.407-2.993v-5.585l5.407 2.992v5.586zm16.021 9.376l-12.216-6.982v-5.586l12.216 6.982v5.586zm86.513-167.772l-25.634-14.563v-5.586l25.634 14.563v5.586zm13.017 7.581l-9.212-5.187V84.57l9.212 5.386v5.586z" class="B"/><path d="M485.345 101.327l-6.208-3.591V92.15l6.208 3.591v5.585z"/><path d="M450.5 94.146l-14.019-7.98V80.58l14.019 7.98v5.586zm20.826 11.969l-17.022-9.775v-5.586l17.022 9.775v5.586z" class="B"/><path d="M481.54 111.9l-6.208-3.591v-5.585l6.208 3.59v5.586z"/><use class="B" xlink:href="#H"/><path d="M446.695 104.718l-10.214-5.785v-5.586l10.214 5.785v5.585zm7.21 4.19l-3.404-1.995v-5.586l3.404 1.995v5.586z" class="B"/><use x="77.901" y="70.021" class="B" xlink:href="#E"/><path d="M473.731 133.046l-37.25-21.345v-5.586l37.25 21.345v5.586zm13.017 7.581l-9.212-5.386v-5.586l9.212 5.386v5.586zm-40.053-10.374l-10.214-5.785v-5.586l10.214 5.786v5.585z" class="B"/><use x="99.133" y="56.855" class="B" xlink:href="#F"/><use x="94.125" y="104.932" class="B" xlink:href="#E"/><path d="M457.109 149.005l-20.628-11.77v-5.585l20.628 11.77v5.585z"/><use x="99.131" y="56.655" class="B" xlink:href="#G"/><path d="M489.952 167.957l-10.014-5.785v-5.786l10.014 5.985v5.586zm-46.461-13.964l-7.01-3.99v-5.586l7.01 3.99v5.586zm13.016 7.381l-9.212-5.187v-5.586l9.212 5.187v5.586z" class="B"/><path d="M475.333 172.146l-14.819-8.378v-5.586l14.819 8.378v5.586z"/><path d="M457.91 174.939l-21.429-12.169v-5.585l21.429 12.168v5.586zm23.83 13.765l-20.026-11.571v-5.585l20.026 11.57v5.586zm10.213 5.785l-6.408-3.591v-5.586l6.408 3.591v5.586z" class="B"/></g><use x="10.413" y="82.589" class="B E" xlink:href="#H"/><g class="C"><path d="M449.298 182.719l-12.817-7.181v-5.586l12.817 7.182v5.585z" class="B"/><path d="M502.77 111.302l17.623 10.373v-5.585l-17.623-10.374v5.586z"/><path d="M506.574 126.263l13.818 8.18v-5.586l-13.818-8.179v5.585zm3.806 15.162l10.013 5.785v-5.586l-10.013-5.984v5.785zm-4.609 9.974l14.62 8.578v-5.585l-14.62-8.579v5.586zm4.609 15.561l10.013 5.785v-5.586l-10.013-5.785v5.586zm-2.605 11.171l12.617 7.381v-5.586l-12.617-7.381v5.586zm5.807 16.159l6.809 3.989v-5.585l-6.809-4.19v5.786z" class="B"/></g><path d="M506.975 203.267l13.417 7.78v-5.586l-13.417-7.78v5.586zm.8 13.166l12.617 7.381v-5.586l-12.617-7.381v5.586z" class="B E"/><path d="M458.709 188.105l-5.407-2.992v-5.586l5.407 2.993v5.585z" class="C"/><path d="M474.732 197.482l-12.216-6.983v-5.585l12.216 6.982v5.586zm-12.617 5.585l-25.634-14.762v-5.586l25.634 14.762v5.586zm13.017 7.381l-9.212-5.187v-5.585l9.212 5.187v5.585z" class="B E"/><use x="99.13" y="171.761" class="B C" xlink:href="#E"/><g class="E"><path d="M450.5 209.052l-14.019-7.98v-5.585l14.019 7.979v5.586zm20.826 12.169l-17.022-9.975v-5.585l17.022 9.974v5.586z" class="B"/><use x="95.325" y="182.334" class="B" xlink:href="#E"/><use y="115.106" class="B" xlink:href="#H"/><path d="M446.695 219.625l-10.214-5.785v-5.586l10.214 5.785v5.586zm7.21 4.189l-3.404-1.995v-5.585l3.404 1.994v5.586zm10.211 5.985l-6.208-3.591v-5.785l6.208 3.79v5.586zm9.615 18.153l-37.25-21.345v-5.586l37.25 21.346v5.585z" class="B"/></g><path d="M486.748 255.533l-9.212-5.386v-5.586l9.212 5.386v5.586z" class="B C"/><g class="E"><path d="M446.695 245.16l-10.214-5.786v-5.585l10.214 5.785v5.586z" class="B"/><use x="99.133" y="171.761" class="B" xlink:href="#F"/></g><g class="C"><path d="M480.34 264.71l-6.208-3.591v-5.786l6.208 3.791v5.586zm-23.231-.798l-20.628-11.77v-5.586l20.628 11.77v5.586z" class="B"/><use x="99.131" y="171.761" class="B" xlink:href="#G"/><path d="M489.952 282.863l-10.014-5.785v-5.586l10.014 5.786v5.585zm-46.461-13.964l-7.01-3.99v-5.586l7.01 3.99v5.586zm13.016 7.581l-9.212-5.387v-5.585l9.212 5.386v5.586zm18.826 10.772l-14.819-8.578v-5.586l14.819 8.578v5.586zm-17.423 2.793l-21.429-12.368v-5.586l21.429 12.368v5.586zm23.83 13.565l-20.026-11.371v-5.585l20.026 11.37v5.586zm10.213 5.985l-6.408-3.591v-5.586l6.408 3.591v5.586z" class="B"/><use x="10.413" y="197.695" class="B" xlink:href="#H"/><path d="M449.298 297.825l-12.817-7.381v-5.586l12.817 7.381v5.586z" class="B"/></g><path d="M502.77 226.407l17.623 10.174v-5.585l-17.623-10.174v5.585zm3.804 14.962l13.818 7.98v-5.586l-13.818-7.979v5.585zm3.806 14.962l10.013 5.785v-5.585l-10.013-5.786v5.586z" class="B E"/><path d="M505.771 266.505l14.62 8.379v-5.586l-14.62-8.379v5.586zm4.609 15.361l10.013 5.785v-5.586l-10.013-5.785v5.586zm-2.605 11.171l12.617 7.381v-5.585l-12.617-7.381v5.585zm5.807 16.159l6.809 3.99V307.6l-6.809-3.99v5.586zm-6.607 8.977l13.417 7.78v-5.586l-13.417-7.78v5.586zm.8 13.166l12.617 7.382v-5.586l-12.617-7.381v5.585zm-49.066-28.128l-5.407-3.191v-5.586l5.407 3.192v5.585zm16.023 9.177l-12.216-6.982v-5.586l12.216 6.982v5.586z" class="B C"/><path d="M443.869 500.574v3.588c.199 1.396-.598 2.592-2.193 3.589l-63.393 36.879c-3.189 1.794-8.173 1.794-11.363 0L190.498 442.763c-1.595-.997-2.393-2.193-2.393-3.389v-3.787c0 1.196.798 2.193 2.393 3.189L366.92 540.643c3.19 1.794 8.174 1.794 11.363 0l63.193-36.68c1.595-.997 2.393-2.193 2.393-3.389z" class="F"/><path d="M253.691 395.318c3.189-1.794 8.173-1.794 11.363 0l176.422 101.867c3.19 1.794 3.19 4.784 0 6.579l-63.193 36.68c-3.189 1.794-8.173 1.794-11.363 0L190.498 438.577c-3.19-1.794-3.19-4.784 0-6.579" class="K"/><g class="I"><path d="M270.836 404.488l-9.369-5.382c-.598-.399-1.396-.399-1.795 0l-4.983 2.99c-.598.399-.598.798 0 1.196l9.369 5.383a1.814 1.814 0 0 0 1.994 0l4.983-2.991c.399-.398.399-.996-.199-1.196zm14.951 8.572l-9.568-5.382c-.598-.399-1.396-.199-1.795 0l-4.983 2.99c-.598.399-.598.798 0 1.196l9.568 5.383c.598.398 1.396.199 1.994 0l4.984-2.991c.398-.398.398-.996-.2-1.196zm14.952 8.572l-9.568-5.382c-.598-.399-1.396-.199-1.794 0l-4.984 2.99c-.598.399-.598.798 0 1.196l9.569 5.383c.598.398 1.395.199 1.993 0l4.984-2.991c.398-.398.398-.797-.2-1.196zm14.951 8.772l-9.569-5.383c-.598-.398-1.396-.199-1.794 0l-4.984 2.99c-.598.399-.598.798 0 1.196l9.569 5.383c.598.399 1.395.199 1.993 0l4.984-2.99c.399-.598.399-.997-.199-1.196zm14.951 8.572l-9.569-5.383c-.598-.399-1.395-.199-1.794 0l-4.984 2.99c-.598.399-.598.798 0 1.196l9.569 5.383c.598.398 1.395.199 1.993 0l4.984-2.99c.399-.399.399-.997-.199-1.196zm14.951 8.572l-9.569-5.383c-.598-.399-1.395-.199-1.794 0l-4.984 2.99c-.598.399-.598.798 0 1.196l9.569 5.383a3.405 3.405 0 0 0 1.994 0l4.983-2.99c.399-.399.399-.798-.199-1.196zm14.951 8.571l-9.569-5.382c-.598-.199-1.395-.199-1.794 0l-4.983 2.99c-.598.399-.598.798 0 1.196l9.568 5.383a3.405 3.405 0 0 0 1.994 0l4.983-2.991c.399-.398.399-.797-.199-1.196zm14.95 8.772l-9.568-5.383c-.598-.199-1.396-.199-1.795 0l-4.983 2.991c-.598.398-.598.797 0 1.196l9.569 5.382a3.401 3.401 0 0 0 1.993 0l4.984-2.99c.398-.399.398-.997-.2-1.196zm14.951 8.572l-9.568-5.383c-.598-.199-1.396-.199-1.794 0l-4.984 2.99c-.598.399-.598.798 0 1.196l9.569 5.383c.598.399 1.395.199 1.993 0l4.984-2.99c.199-.399.399-.997-.2-1.196zm14.952 8.572l-9.569-5.383c-.598-.199-1.395-.199-1.794 0l-4.984 2.99c-.598.399-.598.798 0 1.197l9.569 5.382c.598.399 1.395.199 1.993 0l4.984-2.99c.199-.399.399-.798-.199-1.196zm14.952 8.771l-9.569-5.382c-.598-.2-1.395-.2-1.794 0l-4.984 2.99c-.598.398-.598.797 0 1.196l9.569 5.382c.598.399 1.395.2 1.993 0l4.984-2.99c.2-.598.399-.997-.199-1.196zm14.95 8.572l-9.369-5.382a1.81 1.81 0 0 0-1.994 0l-4.984 2.99c-.598.398-.598.797 0 1.196l9.37 5.382a1.81 1.81 0 0 0 1.993 0l4.984-2.99c.399-.399.399-.997 0-1.196zm-175.226-88.71l-9.37-5.382a1.81 1.81 0 0 0-1.993 0l-8.174 4.784c-.598.399-.598.798 0 1.196l9.37 5.383a1.813 1.813 0 0 0 1.993 0l8.174-4.785c.598-.398.598-.996 0-1.196zm14.951 8.572l-9.569-5.382c-.598-.399-1.395-.2-1.993 0l-8.174 4.784c-.598.399-.598.797 0 1.196l9.569 5.383c.598.398 1.396.199 1.994 0l8.173-4.785c.598-.398.598-.797 0-1.196zm14.951 8.572l-9.569-5.382c-.598-.399-1.395-.2-1.993 0l-8.173 4.784c-.598.399-.598.797 0 1.196l9.568 5.382c.598.399 1.396.2 1.994 0l8.173-4.784c.598-.399.598-.797 0-1.196zm14.952 8.771l-9.569-5.382c-.598-.399-1.395-.199-1.993 0l-8.173 4.784c-.598.399-.598.798 0 1.196l9.568 5.383c.598.399 1.396.199 1.994 0l8.173-4.784c.598-.399.598-.997 0-1.197zm14.951 8.572l-9.568-5.382c-.598-.399-1.396-.199-1.994 0l-8.173 4.784c-.598.399-.598.798 0 1.196l9.569 5.383c.598.398 1.395.199 1.993 0l8.173-4.785c.598-.398.598-.797 0-1.196zm14.951 8.572l-9.569-5.382c-.598-.399-1.396-.2-1.994 0l-8.173 4.784c-.598.399-.598.798 0 1.196l9.569 5.383a3.401 3.401 0 0 0 1.993 0l8.174-4.785c.598-.398.598-.797 0-1.196zm14.951 8.771l-9.569-5.382a3.405 3.405 0 0 0-1.994 0l-8.173 4.784c-.598.399-.598.798 0 1.196l9.569 5.383a3.401 3.401 0 0 0 1.993 0l8.174-4.784c.598-.399.598-.997 0-1.197zm14.952 8.572l-9.569-5.382a3.401 3.401 0 0 0-1.993 0l-8.174 4.784c-.598.399-.598.798 0 1.197l9.569 5.382a3.405 3.405 0 0 0 1.994 0l8.173-4.784c.598-.399.598-.997 0-1.197zm14.951 8.572l-9.569-5.382a3.401 3.401 0 0 0-1.993 0l-8.173 4.784c-.598.399-.598.798 0 1.196l9.568 5.383c.598.399 1.396.199 1.994 0l8.173-4.785c.598-.398.598-.797 0-1.196zm14.949 8.772l-9.568-5.383a3.405 3.405 0 0 0-1.994 0l-8.173 4.785c-.598.398-.598.797 0 1.196l9.569 5.382c.598.399 1.395.199 1.993 0l8.173-4.784c.598-.598.598-.997 0-1.196zm14.951 8.572l-9.369-5.582a3.405 3.405 0 0 0-1.994 0l-8.173 4.784c-.598.399-.598.798 0 1.196l9.569 5.383c.598.398 1.395.199 1.993 0l8.174-4.785c.398-.199.398-.797-.2-.996zm14.952 8.572l-9.369-5.383a1.813 1.813 0 0 0-1.993 0l-8.174 4.785c-.598.398-.598.797 0 1.196l9.37 5.382c.598.399 1.395.2 1.993 0l8.173-4.784c.598-.399.598-.798 0-1.196zm-163.465-78.145l-14.951-8.572-1.396-.797-8.173-4.784c-.598-.399-1.396-.2-1.994 0l-8.173 4.784c-.598.399-.598.797 0 1.196l8.173 4.784 1.396.798 14.951 8.572c.598.398 1.395.199 1.993 0l8.174-4.785c.598-.398.598-.797 0-1.196zm14.951 8.572l-9.569-5.382c-.598-.399-1.395-.199-1.993 0l-8.174 4.784c-.598.399-.598.798 0 1.196l9.569 5.383c.598.398 1.396.199 1.994 0l8.173-4.785c.399-.398.598-.797 0-1.196zm14.951 8.772l-9.569-5.383c-.598-.398-1.395-.199-1.993 0l-8.173 4.785c-.598.398-.598.797 0 1.196l9.568 5.382c.598.399 1.396.199 1.994 0l8.173-4.784c.399-.399.598-.997 0-1.196zm14.952 8.572l-9.568-5.383c-.599-.398-1.396-.199-1.994 0l-8.173 4.785c-.598.398-.598.797 0 1.196l9.568 5.382c.599.399 1.396.199 1.994 0l8.173-4.784c.399-.399.598-.997 0-1.196zm14.95 8.571l-9.568-5.382c-.598-.399-1.396-.199-1.994 0l-8.173 4.784c-.598.399-.598.798 0 1.196l9.569 5.383a3.401 3.401 0 0 0 1.993 0l8.173-4.785c.399-.398.399-.797 0-1.196zm14.952 8.772l-9.569-5.382a3.39 3.39 0 0 0-1.994 0l-8.173 4.784c-.598.399-.598.797 0 1.196l9.569 5.382c.598.2 1.395.2 1.993 0l8.174-4.784c.398-.598.398-.997 0-1.196zm14.951 8.572l-9.569-5.383a3.401 3.401 0 0 0-1.993 0l-8.174 4.785c-.598.398-.598.797 0 1.196l9.569 5.382a3.405 3.405 0 0 0 1.994 0l8.173-4.784c.398-.399.398-.997 0-1.196zm14.951 8.572l-9.569-5.383a3.401 3.401 0 0 0-1.993 0l-8.173 4.785c-.599.398-.599.797 0 1.196l9.568 5.382c.598.399 1.396.2 1.994 0l8.173-4.784c.399-.399.399-.798 0-1.196zM380.678 496.388l-9.569-5.383a3.401 3.401 0 0 0-1.993 0l-8.173 4.785c-.598.398-.598.797 0 1.196l9.568 5.382c.598.399 1.396.199 1.994 0l8.173-4.784c.399-.399.399-.798 0-1.196zm29.901 17.343l-14.951-8.572-2.591-1.595-6.778-3.987a3.405 3.405 0 0 0-1.994 0l-8.173 4.785c-.598.398-.598.797 0 1.196l6.778 3.987 2.591 1.594 14.952 8.572c.598.399 1.395.2 1.993 0l8.173-4.784c.399-.399.399-.997 0-1.196zM269.44 448.345l-9.569-5.383c-.598-.398-1.395-.199-1.993 0l-8.174 4.785c-.598.399-.598.797 0 1.196l9.569 5.382c.598.399 1.396.2 1.994 0l8.173-4.784c.598-.399.598-.797 0-1.196zm14.952 8.771l-9.569-5.382c-.598-.399-1.395-.2-1.993 0l-8.173 4.784c-.599.399-.599.797 0 1.196l9.568 5.383a3.405 3.405 0 0 0 1.994 0l8.173-4.785c.598-.399.598-.997 0-1.196zm14.95 8.572l-9.569-5.382c-.598-.399-1.395-.2-1.993 0l-8.173 4.784c-.598.399-.598.797 0 1.196l9.568 5.383c.598.398 1.396.199 1.994 0l8.173-4.785c.598-.398.598-.996 0-1.196zm14.951 8.572l-9.568-5.382c-.598-.399-1.396-.2-1.994 0l-8.173 4.784c-.598.399-.598.797 0 1.196l9.569 5.382c.598.399 1.395.2 1.993 0l8.173-4.784c.598-.399.598-.797 0-1.196zm14.951 8.572l-9.569-5.382c-.598-.399-1.396-.2-1.994 0l-8.173 4.784c-.598.399-.598.797 0 1.196l9.569 5.383c.598.398 1.395.199 1.993 0l8.174-4.785c.598-.399.598-.797 0-1.196zm14.952 8.771l-9.569-5.382c-.598-.399-1.395-.199-1.993 0l-8.174 4.784c-.598.399-.598.798 0 1.196l9.569 5.383c.598.398 1.395.199 1.993 0l8.174-4.785c.598-.398.598-.996 0-1.196zm14.951 8.572l-9.569-5.382c-.598-.399-1.395-.2-1.993 0l-8.174 4.784c-.598.399-.598.798 0 1.196l9.569 5.383a3.405 3.405 0 0 0 1.994 0l8.173-4.785c.598-.398.598-.797 0-1.196zm37.479 21.53l-31.298-18.141a2.21 2.21 0 0 0-1.595 0l-8.572 4.984c-.398.199-.398.598 0 .997l31.298 18.14c.598.399 1.395.2 1.993 0l8.174-4.784c.598-.399.598-.797 0-1.196zm-142.735-82.331l-31.297-18.14a2.2 2.2 0 0 0-1.595 0l-8.572 4.983c-.399.2-.399.598 0 .997l31.298 18.141a3.401 3.401 0 0 0 1.993 0l8.173-4.785c.598-.398.598-.797 0-1.196zm-35.682-4.385l-9.37-5.383c-.598-.398-1.395-.199-1.993 0l-10.167 5.781c-.598.399-.598.798 0 1.196l9.569 5.383c.598.399 1.395.199 1.993 0l10.167-5.781c.399-.399.399-.997-.199-1.196zm14.951 8.571l-9.569-5.382c-.598-.399-1.395-.199-1.993 0l-10.167 5.781c-.598.399-.598.798 0 1.196l9.569 5.383c.598.398 1.395.199 1.993 0l10.167-5.781c.598-.399.598-.798 0-1.197zm14.951 8.772l-9.569-5.383c-.598-.398-1.395-.199-1.993 0l-10.167 5.781c-.598.399-.598.798 0 1.197l9.569 5.382c.598.399 1.395.199 1.993 0l10.167-5.781c.598-.399.598-.997 0-1.196zm14.951 8.572l-9.569-5.383c-.598-.398-1.395-.199-1.993 0l-10.167 5.782c-.598.398-.598.797 0 1.196l9.569 5.382a3.401 3.401 0 0 0 1.993 0l10.167-5.781c.598-.399.598-.997 0-1.196zm59.805 34.487l-3.788-2.193-5.781-3.389-5.382-3.189-9.569-5.383-5.383-3.189-9.568-5.383-14.951-8.572c-.598-.398-1.396-.199-1.994 0l-10.167 5.781c-.598.399-.598.798 0 1.197l14.952 8.572 9.568 5.382 5.383 3.189 9.568 5.383 5.383 3.189 5.781 3.389 3.787 2.193a3.405 3.405 0 0 0 1.994 0l10.167-5.781c.598-.399.598-.997 0-1.196zm14.951 8.572l-9.569-5.382c-.598-.2-1.395-.2-1.993 0l-10.167 5.781c-.598.398-.598.797 0 1.196l9.569 5.382c.598.399 1.395.199 1.993 0l10.167-5.781c.598-.399.598-.797 0-1.196zm14.951 8.771l-9.568-5.382a3.39 3.39 0 0 0-1.994 0l-10.167 5.781c-.598.399-.598.797 0 1.196l9.569 5.382c.598.399 1.395.2 1.994 0l10.166-5.781c.598-.398.598-.996 0-1.196zm14.951 8.572l-9.568-5.382a3.39 3.39 0 0 0-1.994 0l-10.166 5.781c-.599.399-.599.797 0 1.196l9.568 5.382c.598.399 1.396.2 1.994 0l10.166-5.781c.598-.399.598-.997 0-1.196zm14.952 8.572l-9.569-5.382c-.598-.399-1.396-.2-1.994 0l-10.166 5.781c-.598.399-.598.797 0 1.196l9.568 5.382c.598.399 1.396.2 1.994 0l10.167-5.781c.598-.398.598-.797 0-1.196z"/></g><g fill-rule="evenodd"><path fill="#eebd31" d="M179.399 495.014L50.505 421.99c-2.64-.587-4.401.684-5.378 3.814l-11.02 39.746.196 20.634c6.063 1.956 8.606-13.789 13.202-12.322l39.214 15.549c4.009 1.467 2.542 13.593 6.552 15.353l21.221 10.072c2.542 1.174 8.019-14.277 8.899-9.681l24.252 135.635 35.767-137.757c.782-3.618-.196-6.65-3.13-7.628l-.88-.391z"/><path d="M123.4 505.12l24.34 135.67-128.789-73.832L.159 437.183c-.88-3.324 2.054-5.476 4.792-4.596l50.55 29.309c6.063 1.956 3.912-10.659 8.508-9.29l29.13 17.03c4.009 1.467-.36 14.841 3.649 16.699l25.05 14.61c1.441.712.725 1.139 1.562 4.175z" class="L"/><path fill="#c9d3eb" d="M233.507 582.871l-61.577-34.962-24.288 92.881 87.952-51.657c2.934-1.663 1.044-4.696-2.087-6.262z"/><path d="M198.44 576.609h-18.683v34.999h5.046V595.63h13.637v-4.565h-13.637v-9.891h13.637v-4.565zm8.659 4.911c0-1.522-1.227-2.767-2.727-2.767s-2.728 1.245-2.728 2.767 1.228 2.767 2.728 2.767 2.727-1.245 2.727-2.767zm-.477 6.917h-4.569v23.171h4.569v-23.171zm8.864-11.828h-4.569v34.999h4.569v-34.999zm23.455 28.221c-2.659 1.798-5.318 2.836-8.045 2.836-4.432 0-7.024-2.421-7.774-7.055h16.228c0-8.647-3.886-12.866-10.023-12.866-6.341 0-10.773 4.773-10.773 11.897 0 6.433 4.023 12.451 11.182 12.451 3.887 0 6.41-.9 9.205-2.767v-4.496zm-15.955-7.263c.614-3.666 2.727-5.81 6.205-5.81 3.205 0 5.25 2.213 5.387 5.81h-11.592zm49.843-20.958h-4.636l-10.433 15.01-10.364-15.01h-4.704v34.999h5.045v-26.284h.137l9.545 13.765h.819l9.614-13.765h.068v26.284h5.046l-.137-34.999zm22.433 30.849c-1.023.761-1.977 1.245-2.386 1.245-.546 0-.887-.346-.887-1.176v-12.035c0-5.326-3.682-7.678-8.387-7.678-3.341 0-5.863 1.038-7.636 3.182v5.049c2.182-2.628 4.773-3.873 7.296-3.873 2.795 0 4.159 1.176 4.159 4.081v1.245l-4.023 1.452c-3.682 1.384-7.841 2.767-7.841 7.402 0 3.043 2.25 5.741 5.659 5.741 2.114 0 4.227-.761 6.205-2.421.409 1.66 1.5 2.421 3.477 2.421 1.432 0 2.319-.415 4.432-1.799l-.068-2.836zm-7.841-.553c-1.227 1.176-2.591 1.937-4.023 1.937-1.909 0-3.273-1.384-3.273-3.251 0-2.767 3.409-4.081 7.296-5.465v6.779zm14.319-30.296h-4.569v34.999h4.569v-34.999zm15.887 11.62h-5.455l-10.228 11.482 11.524 11.897h6.136l-11.932-11.897 9.955-11.482zm20.517 16.656c-2.69 1.768-5.312 2.788-8.14 2.788-4.484 0-7.106-2.38-7.864-6.936h16.418c0-8.5-3.932-12.648-10.141-12.648-6.415 0-10.899 4.692-10.899 11.696 0 6.324 4.07 12.24 11.313 12.24 3.933 0 6.485-.884 9.313-2.72v-4.42zm-15.866-7.14c.62-3.604 2.759-5.712 6.277-5.712 3.243 0 5.312 2.176 5.45 5.712h-11.727zm18.971-9.18v22.984h4.622v-12.036c0-3.944 2.483-7.072 5.657-7.072 1.104 0 2.897.952 4.277 2.244l2.414-3.944c-1.931-1.768-3.656-2.652-5.587-2.652-2.208 0-4.416 1.7-6.761 5.712h-.069v-5.236h-4.553zm12.762 23.528c1.932 0 3.45-1.496 3.45-3.4s-1.518-3.4-3.45-3.4-3.449 1.496-3.449 3.4 1.518 3.4 3.449 3.4z" class="L"/></g><defs><linearGradient id="A" x1="327.858" x2="87.495" y1="464.483" y2="606.277" gradientUnits="userSpaceOnUse"><stop offset=".006" stop-color="#ff730e"/><stop offset="1" stop-color="#ff8730"/></linearGradient><linearGradient id="B" x1="440.457" x2="440.457" y1="66.695" y2="387.445" gradientUnits="userSpaceOnUse"><stop stop-color="#e0e0e0"/><stop offset="1" stop-color="#e9e8e9"/></linearGradient><path id="C" d="M209.933 518.665l-52.563 30.271c-1.151-.767-2.686-.384-3.837 0-1.151.766-1.151 1.532 0 2.299a3.49 3.49 0 0 0 3.837 0c.767-.384.767-1.15.767-1.533l52.563-30.271-.767-.766zm82.49-23.757c1.151.383 2.302.383 3.453-.383s1.151-1.533 0-2.299a3.49 3.49 0 0 0-3.837 0c-.767.383-1.151 1.149-.383 1.915l-154.621 88.897c-1.151-.383-2.302-.383-3.453.383s-1.151 1.533 0 2.299a3.49 3.49 0 0 0 3.837 0c.767-.383 1.151-1.149.383-1.916l154.621-88.896zm-107.429 9.579h50.645l36.833-21.074c1.151.383 2.302 0 3.069-.384 1.151-.766 1.151-1.532 0-2.299a3.49 3.49 0 0 0-3.836 0c-1.151.384-1.152 1.533-.384 1.916l-36.066 20.692H184.61l-84.024 48.663c-1.151-.383-2.302-.383-3.453.383s-1.151 1.533 0 2.299a3.49 3.49 0 0 0 3.837 0c.767-.383 1.151-1.149.383-1.916l83.641-48.28zm-47.959 65.906l86.327-49.812c1.151.383 2.302.383 3.453-.384s1.151-1.532 0-2.299a3.49 3.49 0 0 0-3.837 0c-.767.384-1.151 1.15-.384 1.916l-84.024 48.663v-16.093l52.179-29.888c1.151.384 2.302.384 3.453-.383s1.151-1.532 0-2.299a3.49 3.49 0 0 0-3.836 0c-.768.383-1.151 1.15-.384 1.916l-52.563 30.271-.384 18.392zm115.869-43.298l-94 54.41c-1.151-.383-2.302-.383-3.453.384s-1.151 1.532 0 2.299a3.49 3.49 0 0 0 3.837 0c.767-.384 1.151-1.15.384-1.916l91.698-52.878v15.327l-70.596 40.616c-1.151-.383-2.302-.383-3.453.383s-1.151 1.533 0 2.299 2.685.767 3.836 0c.768-.383 1.151-1.149.384-1.915l70.98-41 .383-18.009zm-12.661 16.859l-1.151-.766-95.151 54.794c-1.151-.383-2.302-.383-3.453.383s-1.151 1.533 0 2.299a3.49 3.49 0 0 0 3.837 0c.767-.383 1.151-1.149.383-1.916l95.535-54.794zm67.911-68.971a3.49 3.49 0 0 0-3.837 0c-.768.383-1.151 1.149-.384 1.916l-61.004 35.252h-53.331l-43.355 24.906c-1.151-.383-2.302-.383-3.453.383s-1.151 1.533 0 2.299a3.49 3.49 0 0 0 3.837 0c.767-.383 1.151-1.149.383-1.916l42.972-24.906h53.331l61.388-35.252c1.151.383 2.302.383 3.453-.383s1.151-1.916 0-2.299zm-3.837 22.99a3.49 3.49 0 0 0-3.837 0c-.767.383-1.151 1.15-.384 1.916l-34.914 20.308v27.589l-85.176 48.663c-1.151-.383-2.302-.383-3.453.383s-1.151 1.533 0 2.299a3.49 3.49 0 0 0 3.837 0c.767-.383 1.151-1.149.384-1.915l85.559-49.43v-27.589l34.531-19.925c1.151.383 2.302.383 3.453-.383 1.151-.383 1.151-1.149 0-1.916z"/><path id="D" d="M494.112 480.049l-5.56-3.226c-.206.412-.343.824-.343 1.236v92.939a2.8 2.8 0 0 0 1.236 2.197l.411.274c.687.412 1.854.412 2.54 0l1.716-.961v-92.459z"/><path id="E" d="M386.215 44.672l-6.208-3.591v-5.586l6.208 3.591v5.586z"/><path id="F" d="M371.194 86.964l-19.826-11.371v-5.586l19.826 11.371v5.586z"/><path id="G" d="M376.802 103.123l-14.82-8.578v-5.586l14.82 8.578v5.586z"/><path id="H" d="M491.153 117.486l-6.209-3.591v-5.586l6.209 3.591v5.586z"/></defs></svg>