<svg width="586" height="564" viewBox="0 0 586 564" fill="none" xmlns="http://www.w3.org/2000/svg">
<path d="M512.978 344.043L434.345 351.114L441.601 263.999L505.247 258.275C538.946 255.245 562.81 226.784 559.783 193.223C556.755 159.661 528.197 135.914 494.506 138.944L449.574 142.985L457.501 63.3274C462.294 32.8215 437.14 5.00925 402.769 0.581803C372.151 -4.18326 344.211 20.8851 339.75 55.1208L329.762 153.76L213.686 164.198L221.613 84.5405C226.415 54.0346 201.27 26.2223 166.899 21.7949C136.271 17.0298 108.332 42.0981 103.871 76.3329L93.8739 174.973L-7.20695 184.064C-40.9065 187.095 -64.7614 215.555 -61.7426 249.117C-58.7148 282.679 -22.6683 305.752 11.0313 302.721L89.6547 295.65L82.4078 382.764L18.7531 388.486C-14.9465 391.522 -38.8014 419.982 -35.7737 453.546C-32.7549 487.101 -4.18805 510.85 29.5026 507.823L74.4263 503.775L66.5165 583.441C61.7151 613.942 86.8598 641.757 121.231 646.181C144.36 651.617 180.12 629.605 184.259 591.644L194.238 493.002L310.314 482.57L302.396 562.226C297.585 592.727 322.739 620.542 357.11 624.966C380.249 630.411 416.008 608.399 420.129 570.429L430.126 471.797L531.216 462.698C564.915 459.671 588.761 431.212 585.742 397.647C571.49 365.097 542.933 341.351 512.978 344.043ZM314.533 361.889L198.475 372.328L205.722 285.212L321.789 274.774L314.533 361.889Z" fill="url(#paint0_linear)" fill-opacity="0.5"/>
<defs>
<linearGradient id="paint0_linear" x1="234.163" y1="14.2967" x2="289.768" y2="632.658" gradientUnits="userSpaceOnUse">
<stop stop-color="#F8F8F8"/>
<stop offset="1" stop-color="#E9E7E7"/>
</linearGradient>
</defs>
</svg>
