<svg xmlns="http://www.w3.org/2000/svg" width="586" height="564" fill="none" xmlns:v="https://vecta.io/nano"><path d="M512.978 344.043l-78.633 7.071 7.256-87.115 63.646-5.724c33.699-3.03 57.563-31.491 54.536-65.052s-31.586-57.309-65.277-54.279l-44.932 4.041 7.927-79.658C462.294 32.822 437.14 5.009 402.769.582c-30.618-4.765-58.558 20.303-63.019 54.539l-9.988 98.639-116.076 10.438 7.927-79.658c4.802-30.506-20.343-58.318-54.714-62.746-30.628-4.765-58.567 20.303-63.028 54.538l-9.997 98.64-101.081 9.091c-33.7 3.031-57.554 31.491-54.536 65.053 3.028 33.562 39.074 56.635 72.774 53.604l78.623-7.071-7.247 87.114-63.655 5.722c-33.7 3.036-57.555 31.496-54.527 65.06 3.019 33.555 31.586 57.304 65.276 54.277l44.924-4.048-7.91 79.666c-4.801 30.501 20.343 58.316 54.715 62.74 23.129 5.436 58.889-16.576 63.028-54.537l9.979-98.642 116.076-10.432-7.918 79.656c-4.811 30.501 20.343 58.316 54.714 62.74 23.139 5.445 58.898-16.567 63.019-54.537l9.997-98.632 101.09-9.099c33.699-3.027 57.545-31.486 54.526-65.051-14.252-32.55-42.809-56.296-72.764-53.604zm-198.445 17.846l-116.058 10.439 7.247-87.116 116.067-10.438-7.256 87.115z" fill="url(#A)" fill-opacity=".5"/><defs><linearGradient id="A" x1="234.163" y1="14.297" x2="289.768" y2="632.658" gradientUnits="userSpaceOnUse"><stop stop-color="#f8f8f8"/><stop offset="1" stop-color="#e9e7e7"/></linearGradient></defs></svg>