<svg xmlns="http://www.w3.org/2000/svg" width="56" height="64" fill="none" xmlns:v="https://vecta.io/nano"><g clip-path="url(#A)"><g fill="#ff6b00"><path d="M52.102 26.01c0-2.137-1.745-3.882-3.882-3.882H28.147c-2.137 0-3.882 1.745-3.882 3.882v1.58 32.577c0 2.137 1.745 3.882 3.882 3.882H48.22c2.137 0 3.882-1.745 3.882-3.882v-1.033V26.01zm-8.364-2.323l-.206.702c-.155.547-.671.929-1.239.929h-8.219c-.568 0-1.084-.382-1.239-.929l-.206-.702h11.11zm6.815 36.49A2.33 2.33 0 0 1 48.23 62.5H28.147a2.33 2.33 0 0 1-2.323-2.323v-24.73-9.427a2.33 2.33 0 0 1 2.323-2.323h2.86l.33 1.146c.351 1.208 1.477 2.044 2.726 2.044h8.219c1.26 0 2.375-.847 2.726-2.044l.33-1.136h2.881a2.33 2.33 0 0 1 2.323 2.323v25.277 8.87h.01zm-8.033-1.818h-8.673a.78.78 0 0 0-.774.774.78.78 0 0 0 .774.774h8.673c.434 0 .774-.351.774-.774s-.341-.774-.774-.774z"/><g fill-rule="evenodd"><path d="M4.568 2.447c.191-.379.644-.547 1.038-.386l11.815 4.817c.379.155.583.564.477.957l-1.452 5.379 5.053 2.094a.81.81 0 0 1 .5.7c.018.309-.144.601-.416.752l-7.466 4.137a.82.82 0 0 1-.791.002L3.302 15.409a.81.81 0 0 1-.386-.472L.035 5.541c-.093-.304.002-.634.242-.843a.82.82 0 0 1 .874-.128l4.037 1.817a.81.81 0 0 1 .332-.442.82.82 0 0 1 .77-.067l3.53 1.508a.81.81 0 0 1 .493.743v.411l1.8.827a.81.81 0 0 1 .458.582l1.28 6.63 2.288-8.475L5.687 3.842l-.476.945-1.458-.723.815-1.617zm8.024 16.204l-1.542-7.991-1.893-.87a.81.81 0 0 1-.472-.734V8.66l-1.929-.824a.81.81 0 0 1-.345.469.82.82 0 0 1-.778.057L2.119 6.78l2.26 7.372 8.213 4.499zm2.413-.098l4.32-2.394-3.304-1.369-1.016 3.763z"/></g></g><path fill-rule="evenodd" d="M3.409 21a22.65 22.65 0 0 0-.663 5.443c0 3.129.65 6.267 1.952 9.179l-2.712 1.564-1.553.894a.77.77 0 0 0-.434.692v8.88a.78.78 0 0 0 .382.671l2.317 1.341 5.314 3.058a.79.79 0 0 0 .898 0l7.579-4.378a.77.77 0 0 0 .434-.692v-.31c.733.289 1.487.547 2.251.754.465.124.929-.196.96-.681v-.031c.031-.351-.206-.671-.547-.774-.898-.248-1.786-.568-2.654-.94v-6.897a.78.78 0 0 0-.382-.671l-2.633-1.518c-.372-.217-.847-.093-1.053.279a.77.77 0 0 0 .279 1.053l1.476.857-6.154 3.552-6.144-3.552 3.072-1.776 3.072-1.776 1.631.94c.372.206.836.083 1.053-.289.207-.372.083-.836-.289-1.053l-2.003-1.157c-.227-.134-.527-.145-.774-.01l-2.034 1.177c-1.167-2.674-1.755-5.534-1.755-8.395 0-1.828.239-3.656.713-5.433H3.409zM20 6.148a20.89 20.89 0 0 1 5.225-.666 20.93 20.93 0 0 1 8.353 1.714v6.897a.78.78 0 0 0 .382.671l3.815 2.199 3.816 2.199c.289.165.609.165.898 0l3.315-1.91 2.711-1.563 1.553-.894a.77.77 0 0 0 .434-.692l-.01-8.88c0-.279-.145-.537-.392-.671L47.6 3.097c-.372-.207-.836-.083-1.053.289-.206.372-.083.836.289 1.053l1.353.774-6.144 3.552-6.144-3.552 3.072-1.776 3.072-1.776 1.755 1.012c.372.207.847.083 1.053-.289.217-.372.083-.836-.289-1.053L42.427.103c-.227-.134-.527-.145-.774-.01l-7.651 4.409h0a.77.77 0 0 0-.434.692v.31c-2.674-1.064-5.514-1.59-8.353-1.59-1.753 0-3.502.208-5.215.618v1.617zm28.943.398l-6.133 3.552h-.01v7.104l1.829-1.056 4.315-2.496V6.546zm-7.682 3.552l-6.144-3.542v7.094l1.829 1.056 4.315 2.496v-7.104zM3.379 48.264l4.314 2.495v-7.104l-6.144-3.552v7.104l1.83 1.057zm7.692 1.449l4.314-2.495v-7.104l-6.144 3.552v7.104l1.829-1.056z" fill="#7f8284"/></g><defs><clipPath id="A"><path fill="#fff" d="M0 0h55.771v64H0z"/></clipPath></defs></svg>