<svg xmlns="http://www.w3.org/2000/svg" width="64" height="64" fill="none" xmlns:v="https://vecta.io/nano"><path d="M21.52 4.521c-10.19 0-18.48 8.29-18.48 18.48 0 6.439 3.376 12.426 8.85 15.774l.591 4.362c.28 2.064 1.989 3.621 3.977 3.621h10.124c1.988 0 3.697-1.557 3.977-3.621l.591-4.362A18.53 18.53 0 0 0 40 23.001c0-10.19-8.29-18.48-18.48-18.48zm7.867 32.408a1.24 1.24 0 0 0-.619.915l-.672 4.959c-.111.824-.777 1.469-1.514 1.469H16.458c-.737 0-1.402-.645-1.514-1.469l-.672-4.959c-.052-.385-.281-.723-.619-.915-5.013-2.838-8.127-8.175-8.127-13.928 0-8.819 7.175-15.994 15.994-15.994s15.994 7.175 15.994 15.994c0 5.753-3.114 11.09-8.128 13.928zm-1.358 11.237H15.011c-.686 0-1.243.556-1.243 1.243s.556 1.243 1.243 1.243h13.018c.686 0 1.243-.556 1.243-1.243s-.556-1.243-1.243-1.243zm-1.577 3.895h-9.866c-.686 0-1.243.556-1.243 1.243 0 3.405 2.77 6.176 6.176 6.176s6.176-2.771 6.176-6.176c0-.686-.556-1.243-1.243-1.243zm-4.933 4.933c-1.599 0-2.964-1.022-3.475-2.447h6.95c-.511 1.425-1.876 2.447-3.475 2.447z" fill="#7f8284"/><path fill-rule="evenodd" d="M14.775 13.494c.2-.418.673-.605 1.086-.427l12.352 5.324c.396.171.61.624.499 1.058l-1.518 5.946 5.283 2.315c.301.132.504.432.522.774s-.15.664-.435.831l-7.806 4.573c-.257.15-.57.151-.827.002L13.452 27.82c-.194-.112-.339-.3-.403-.522l-3.012-10.385c-.097-.336.002-.7.253-.932a.82.82 0 0 1 .914-.142l4.22 2.008a.89.89 0 0 1 .347-.488c.239-.165.542-.193.805-.074l3.691 1.667c.313.141.515.464.515.821v.455l1.882.914c.249.121.427.36.479.643l1.338 7.328 2.392-9.367-10.927-4.709-.498 1.045-1.524-.799.852-1.787zm8.389 17.909l-1.613-8.833-1.979-.961c-.301-.146-.494-.463-.494-.811v-.437l-2.017-.911a.89.89 0 0 1-.361.518c-.243.165-.55.188-.813.063l-3.673-1.748 2.363 8.148 8.586 4.972zm2.523-.108l4.516-2.646-3.454-1.514-1.062 4.159z" fill="#ff6b00"/></svg>