<svg xmlns="http://www.w3.org/2000/svg" width="64" height="64" fill="none" xmlns:v="https://vecta.io/nano"><g clip-path="url(#A)" fill-rule="evenodd"><path d="M28 4c0 1.738 1.115 3.221 2.667 3.772v7.28L32 15l1.334.052v-7.28C34.885 7.221 36 5.738 36 4c0-2.205-1.795-4-4-4s-4 1.795-4 4zm16.926 16.958c-.578-.677-1.209-1.307-1.886-1.886l5.148-5.149a4.01 4.01 0 0 1 .782-4.553c1.557-1.56 4.099-1.56 5.656 0s1.56 4.099 0 5.659a3.99 3.99 0 0 1-2.827 1.168c-.59 0-1.181-.129-1.725-.388l-5.149 5.149zm4.022 12.375L49 32l-.051-1.333h7.28C56.779 29.115 58.262 28 60 28c2.205 0 4 1.795 4 4s-1.795 4-4 4c-1.738 0-3.221-1.115-3.771-2.667h-7.28zm-5.912 11.598c.677-.578 1.308-1.209 1.886-1.885l5.147 5.147c1.486-.709 3.325-.449 4.558.778 1.56 1.56 1.56 4.099 0 5.659-.779.779-1.803 1.168-2.827 1.168a3.99 3.99 0 0 1-2.829-1.168 4.01 4.01 0 0 1-.784-4.548l-5.15-5.15zm-12.369 4.017L32 49l1.334-.051v7.28C34.885 56.779 36 58.262 36 60c0 2.205-1.795 4-4 4s-4-1.795-4-4c0-1.738 1.115-3.221 2.667-3.772v-7.28zm-11.598-5.912c.578.677 1.209 1.308 1.885 1.886l-5.148 5.148a4.01 4.01 0 0 1-.779 4.558 3.98 3.98 0 0 1-2.827 1.168 3.99 3.99 0 0 1-2.829-1.168c-1.56-1.56-1.56-4.099 0-5.659 1.226-1.226 3.059-1.485 4.546-.781l5.153-5.153zm-4.018-12.37L15 32l.052 1.333h-7.28C7.221 34.885 5.738 36 4 36c-2.205 0-4-1.795-4-4s1.795-4 4-4c1.738 0 3.221 1.115 3.771 2.667h7.28zm5.907-11.593c-.677.579-1.307 1.209-1.886 1.886l-5.149-5.149c-.543.258-1.134.387-1.723.387-1.024 0-2.048-.389-2.829-1.168-1.557-1.56-1.557-4.096.003-5.656s4.099-1.56 5.656 0a4.01 4.01 0 0 1 .782 4.554l5.147 5.147zM30.667 4c0-.736.6-1.333 1.333-1.333s1.333.597 1.333 1.333-.6 1.333-1.333 1.333S30.667 4.736 30.667 4zm0 56c0-.736.6-1.333 1.333-1.333s1.333.597 1.333 1.333-.6 1.333-1.333 1.333-1.333-.597-1.333-1.333zM4 30.667c-.733 0-1.333.597-1.333 1.333s.6 1.333 1.333 1.333S5.333 32.736 5.333 32s-.6-1.333-1.333-1.333zM58.667 32c0-.736.6-1.333 1.333-1.333s1.333.597 1.333 1.333-.6 1.333-1.333 1.333-1.333-.597-1.333-1.333zM51.8 10.869a1.33 1.33 0 0 0-.944.389 1.34 1.34 0 0 0 0 1.888 1.34 1.34 0 0 0 1.885 0 1.34 1.34 0 0 0 0-1.888c-.259-.261-.6-.389-.941-.389zM11.256 50.856a1.34 1.34 0 0 1 .944-.389c.341 0 .683.131.941.387a1.34 1.34 0 0 1 0 1.888c-.52.52-1.365.52-1.885 0s-.52-1.365 0-1.885zm.944-39.987a1.33 1.33 0 0 0-.944.389 1.34 1.34 0 0 0 0 1.888c.52.517 1.365.52 1.885 0s.52-1.365 0-1.885a1.31 1.31 0 0 0-.941-.392zm38.656 39.987a1.34 1.34 0 0 1 .944-.389c.341 0 .683.131.941.387a1.34 1.34 0 0 1 0 1.888c-.52.52-1.365.52-1.885 0s-.52-1.365 0-1.885z" fill="#7f8284"/><path d="M24.398 21.541c.226-.458.761-.662 1.227-.468l13.963 5.831c.448.187.69.683.564 1.159l-1.716 6.512 5.972 2.535a.98.98 0 0 1 .59.848c.021.374-.17.727-.492.91l-8.824 5.008a.95.95 0 0 1-.935.002l-11.845-6.646c-.219-.123-.383-.328-.456-.572l-3.405-11.374a.99.99 0 0 1 .286-1.021.95.95 0 0 1 1.033-.156l4.771 2.2c.064-.217.202-.407.392-.535a.95.95 0 0 1 .91-.081l4.172 1.825a.98.98 0 0 1 .582.899v.498l2.127 1.001c.281.133.483.395.541.704l1.512 8.025 2.704-10.259-12.352-5.158-.563 1.144-1.723-.875.963-1.957zm9.483 19.615l-1.823-9.674-2.237-1.053a.98.98 0 0 1-.558-.888v-.479l-2.28-.997a.98.98 0 0 1-.408.567.95.95 0 0 1-.919.069l-4.152-1.914 2.671 8.924 9.706 5.446zm2.852-.118l5.105-2.898-3.905-1.658-1.201 4.555z" fill="#ff6b00"/></g><defs><clipPath id="A"><path fill="#fff" d="M0 0h64v64H0z"/></clipPath></defs></svg>