<svg xmlns="http://www.w3.org/2000/svg" width="64" height="64" fill="none" xmlns:v="https://vecta.io/nano"><g clip-path="url(#A)"><path d="M58.54 33.274c-.095-2.983-2.539-5.353-5.523-5.356h-8.35c-.01-.001-.019-.005-.025-.012l-2.379-2.604v-8.242c-.004-3.024-2.435-5.485-5.458-5.526-.096-2.983-2.541-5.353-5.526-5.357h-8.35c-.01.001-.019-.004-.025-.011l-3.03-3.315c-1.048-1.145-2.528-1.798-4.08-1.799H5.811C2.76 1.057.287 3.53.284 6.581v29.155c.003 3.051 2.476 5.524 5.527 5.527h16.21v16.212c.004 3.051 2.477 5.524 5.528 5.527h30.924c3.051-.004 5.523-2.476 5.527-5.527V38.798c-.004-3.025-2.436-5.485-5.461-5.524zM5.811 39.109c-1.862-.002-3.371-1.511-3.373-3.373V6.581a3.38 3.38 0 0 1 3.373-3.373h9.981c.947.001 1.85.399 2.489 1.098l3.031 3.315a2.19 2.19 0 0 0 1.616.712h8.35c1.796.002 3.275 1.409 3.369 3.201H15.178c-3.05.003-5.524 2.475-5.527 5.526v18.676c-.002 1.861-1.51 3.37-3.371 3.373h-.468zm16.21-10.789v10.79H10.653a5.5 5.5 0 0 0 1.153-3.373V17.061c.002-1.862 1.511-3.37 3.373-3.371h21.557c1.861.002 3.37 1.51 3.371 3.371v6.371c-.794-.418-1.677-.638-2.575-.639H27.55c-3.052.003-5.524 2.475-5.528 5.527zm5.528 32.528c-1.862-.002-3.371-1.51-3.373-3.371V28.32c.002-1.862 1.511-3.37 3.373-3.372h9.983a3.38 3.38 0 0 1 2.489 1.096l3.029 3.315a2.2 2.2 0 0 0 1.616.714h8.35c1.795.001 3.275 1.407 3.369 3.2H36.916c-3.051.003-5.523 2.475-5.526 5.526v18.676c-.003 1.862-1.511 3.37-3.373 3.372h-.467zm34.296-3.371c-.002 1.861-1.511 3.37-3.372 3.371H32.394l.031-.04.05-.068.097-.136.048-.07.096-.149.038-.061.239-.438.029-.063.075-.165.033-.079.061-.157.031-.082.057-.168.023-.072c.05-.16.092-.325.127-.492l.014-.075.031-.177.013-.092.022-.167.01-.094.013-.178.005-.083.007-.263V38.798c.002-1.861 1.511-3.37 3.371-3.371h21.557c1.861.002 3.37 1.51 3.372 3.371v18.678z" fill="#7f8284"/><g fill="#ff6b00"><path d="M4.243 55.138a7.11 7.11 0 0 1-2.089-5.067A1.07 1.07 0 0 0 1.077 49C.482 49.003 0 49.487 0 50.083c-.002 2.468.978 4.836 2.723 6.581a9.3 9.3 0 0 0 6.581 2.724h6.238l-2.829 2.911c-.415.427-.405 1.109.022 1.523s1.109.405 1.523-.022l4.521-4.651a1.08 1.08 0 0 0 .003-1.499l-4.521-4.692a1.08 1.08 0 0 0-1.523-.028c-.429.413-.441 1.095-.028 1.523l2.678 2.779H9.293c-1.896.004-3.714-.751-5.049-2.096zM59.841 8.99a7.11 7.11 0 0 1 2.088 5.067 1.07 1.07 0 0 0 1.077 1.07c.596-.003 1.077-.487 1.077-1.083.002-2.468-.978-4.836-2.723-6.581a9.3 9.3 0 0 0-6.581-2.724h-6.238l2.829-2.911c.415-.427.405-1.109-.022-1.523S50.241-.1 49.826.327l-4.521 4.651a1.08 1.08 0 0 0-.003 1.499l4.521 4.692a1.08 1.08 0 0 0 1.523.028c.429-.413.441-1.095.028-1.523l-2.678-2.779h6.095c1.895-.004 3.714.751 5.049 2.096z"/><path fill-rule="evenodd" d="M41.36 39.424c.182-.359.614-.518.991-.366l11.278 4.563c.362.146.557.535.456.907l-1.386 5.096 4.824 1.984c.275.113.46.371.477.663s-.137.569-.397.712l-7.127 3.919a.79.79 0 0 1-.755.002l-9.567-5.202a.77.77 0 0 1-.368-.448l-2.75-8.901a.76.76 0 0 1 .231-.799c.23-.198.556-.246.834-.122l3.853 1.722c.052-.169.163-.319.317-.418a.79.79 0 0 1 .735-.064l3.37 1.429c.285.121.47.398.47.703v.39l1.718.783a.77.77 0 0 1 .437.551l1.221 6.281 2.184-8.029-9.977-4.037-.455.896-1.391-.685.778-1.532zm7.659 15.351l-1.472-7.571-1.807-.824c-.275-.125-.451-.397-.451-.695v-.375l-1.841-.781c-.05.181-.166.34-.33.444a.79.79 0 0 1-.743.054l-3.353-1.498 2.158 6.984 7.839 4.262zm2.303-.093l4.124-2.268-3.154-1.297-.97 3.565z"/></g></g><defs><clipPath id="A"><path fill="#fff" d="M0 0h64v64H0z"/></clipPath></defs></svg>