<svg xmlns="http://www.w3.org/2000/svg" width="64" height="64" fill="none" xmlns:v="https://vecta.io/nano"><path d="M62.943 20.693H1.057C.473 20.693 0 20.22 0 19.636s.473-1.057 1.057-1.057h61.887c.584 0 1.057.474 1.057 1.057s-.473 1.057-1.057 1.057z" fill="#7f8284"/><path d="M18.053 15.637a3.35 3.35 0 0 1-3.344-3.344 3.35 3.35 0 0 1 3.344-3.344 3.35 3.35 0 0 1 3.344 3.344 3.35 3.35 0 0 1-3.344 3.344zm0-4.574c-.678 0-1.231.552-1.231 1.23s.553 1.231 1.231 1.231a1.231 1.231 0 1 0 0-2.461zM7.779 15.604a3.35 3.35 0 0 1-3.344-3.344 3.35 3.35 0 0 1 3.344-3.344 3.35 3.35 0 0 1 3.344 3.344 3.35 3.35 0 0 1-3.344 3.344zm0-4.574c-.678 0-1.231.552-1.231 1.231s.552 1.231 1.231 1.231a1.23 1.23 0 0 0 1.231-1.231c0-.678-.552-1.231-1.231-1.231z" fill="#ff6b00"/><path d="M56.906 60.239H7.094C3.183 60.239 0 57.057 0 53.145V10.868c0-3.912 3.183-7.094 7.094-7.094h49.811c3.911 0 7.094 3.183 7.094 7.094v42.277c0 3.912-3.183 7.094-7.094 7.094zM7.094 5.887a4.99 4.99 0 0 0-4.981 4.981v42.277a4.99 4.99 0 0 0 4.981 4.981h49.811a4.99 4.99 0 0 0 4.981-4.981V10.868a4.99 4.99 0 0 0-4.981-4.981H7.094z" fill="#7f8284"/><g fill="#ff6b00"><path d="M28.327 15.669a3.35 3.35 0 0 1-3.343-3.344 3.35 3.35 0 0 1 3.343-3.343 3.35 3.35 0 0 1 3.344 3.343 3.35 3.35 0 0 1-3.344 3.344zm0-4.574a1.23 1.23 0 1 0 0 2.461 1.23 1.23 0 1 0 0-2.461z"/><path fill-rule="evenodd" d="M21.436 26.635a1.15 1.15 0 0 1 1.463-.549l16.648 6.845a1.15 1.15 0 0 1 .673 1.36l-2.046 7.644 7.121 2.976a1.15 1.15 0 0 1 .117 2.063l-10.521 5.879c-.346.193-.768.194-1.115.003l-14.123-7.802a1.15 1.15 0 0 1-.544-.671l-4.06-13.352a1.15 1.15 0 0 1 .341-1.198c.339-.298.821-.369 1.231-.183l5.688 2.582a1.15 1.15 0 0 1 1.553-.723l4.975 2.143a1.15 1.15 0 0 1 .694 1.055v.584l2.536 1.175a1.15 1.15 0 0 1 .645.826l1.803 9.421 3.224-12.043-14.728-6.055-.671 1.343-2.054-1.028 1.148-2.298zm11.307 23.026L30.57 38.305l-2.668-1.236a1.15 1.15 0 0 1-.666-1.043v-.562l-2.718-1.171a1.15 1.15 0 0 1-1.583.747l-4.95-2.247 3.185 10.476 11.572 6.393zm3.4-.139l6.087-3.401-4.656-1.946-1.431 5.347z"/></g></svg>