<svg xmlns="http://www.w3.org/2000/svg" width="64" height="68" fill="none" fill-rule="evenodd" xmlns:v="https://vecta.io/nano"><path d="M30.75 30v1.435a3.62 3.62 0 0 0-2.129 2.129H18.296a4.16 4.16 0 0 0-4.152 4.152v4.113H4.328C1.942 41.828 0 43.77 0 46.156v16.837c0 2.386 1.942 4.328 4.328 4.328h22.133c2.386 0 4.328-1.941 4.328-4.328V46.156c0-2.386-1.942-4.328-4.328-4.328h-9.816v-4.113c0-.911.741-1.652 1.652-1.652h10.325a3.61 3.61 0 0 0 6.757 0h10.325c.911 0 1.652.741 1.652 1.652v4.113h-9.816c-2.386 0-4.328 1.941-4.328 4.328v16.837c0 2.386 1.941 4.328 4.328 4.328h22.133c2.386 0 4.328-1.941 4.328-4.328V46.156c0-2.386-1.941-4.328-4.328-4.328h-9.816v-4.113a4.16 4.16 0 0 0-4.152-4.152H35.379a3.62 3.62 0 0 0-2.129-2.129V30h-2.5zm-4.289 34.821a1.83 1.83 0 0 0 1.828-1.828V50.671H2.5v12.323a1.83 1.83 0 0 0 1.828 1.828h22.133zm1.828-18.665a1.83 1.83 0 0 0-1.828-1.828H4.328A1.83 1.83 0 0 0 2.5 46.156v2.015h25.789v-2.015zm2.609-11.343c0 .608.494 1.102 1.102 1.102s1.102-.495 1.102-1.102-.495-1.103-1.102-1.103-1.102.495-1.102 1.103zm28.774 30.008a1.83 1.83 0 0 0 1.828-1.828V50.671H35.711v12.323a1.83 1.83 0 0 0 1.828 1.828h22.133zM35.711 48.171H61.5v-2.015a1.83 1.83 0 0 0-1.828-1.828H37.539a1.83 1.83 0 0 0-1.828 1.828v2.015z" fill="#7f8284"/><path d="M23.436.635a1.15 1.15 0 0 1 1.463-.549l16.648 6.845a1.15 1.15 0 0 1 .673 1.36l-2.046 7.644 7.121 2.976a1.15 1.15 0 0 1 .117 2.063l-10.521 5.879c-.346.193-.768.195-1.115.003l-14.123-7.802a1.15 1.15 0 0 1-.544-.671L17.05 5.032a1.15 1.15 0 0 1 1.573-1.381l5.688 2.582a1.15 1.15 0 0 1 .468-.628c.323-.213.73-.248 1.085-.096l4.975 2.143a1.15 1.15 0 0 1 .694 1.055v.585l2.536 1.175a1.15 1.15 0 0 1 .645.826l1.803 9.421 3.224-12.043-14.728-6.055-.671 1.343-2.054-1.028L23.436.635zm11.307 23.026l-2.173-11.356-2.667-1.236a1.15 1.15 0 0 1-.666-1.043v-.562l-2.718-1.171a1.15 1.15 0 0 1-.486.666c-.328.212-.741.242-1.096.081l-4.95-2.247 3.185 10.475 11.572 6.393zm3.4-.139l6.087-3.402-4.656-1.946-1.431 5.347z" fill="#ff6b00"/></svg>