<svg xmlns="http://www.w3.org/2000/svg" width="703" height="519" fill="none" xmlns:v="https://vecta.io/nano"><path d="M642.03 335.802l-87.78 7.896 8.1-97.279 71.05-6.392c37.62-3.384 64.26-35.165 60.88-72.642s-35.26-63.995-72.87-60.611l-50.16 4.512 8.85-88.951c5.35-34.065-22.73-65.122-61.1-70.066-34.18-5.321-65.37 22.672-70.35 60.902L437.5 123.318l-129.58 11.656 8.85-88.951c5.36-34.065-22.711-65.122-61.081-70.066-34.19-5.321-65.38 22.672-70.36 60.901L174.17 147.006 61.33 157.158C23.71 160.542-2.921 192.323.449 229.8c3.38 37.478 43.62 63.243 81.24 59.859l87.771-7.896-8.09 97.277-71.06 6.39c-37.62 3.39-64.25 35.17-60.87 72.65 3.37 37.47 35.26 63.99 72.871 60.61l50.15-4.52-8.83 88.96c-5.36 34.06 22.71 65.12 61.08 70.06 25.82 6.07 65.739-18.51 70.359-60.9l11.141-110.15 129.58-11.65-8.841 88.95c-5.37 34.06 22.711 65.12 61.081 70.06 25.83 6.08 65.75-18.5 70.35-60.9l11.16-110.14 112.85-10.16c37.62-3.38 64.24-35.16 60.87-72.64-15.91-36.348-47.79-62.865-81.23-59.858zM420.5 355.73l-129.561 11.656 8.091-97.279 129.57-11.656-8.1 97.279z" fill="url(#A)" fill-opacity=".5"/><path d="M552.26 343.533l-.2 2.371 2.37-.214 87.78-7.896c32.14-2.891 63.31 22.582 79.09 58.366 3.09 36.23-22.68 66.88-59.09 70.15l-112.85 10.15-1.65.15-.16 1.64-11.15 110.14h-.01c-2.24 20.6-13.04 36.87-26.45 47.26-13.47 10.43-29.3 14.77-41.45 11.91l-.1-.03-.1-.01c-37.56-4.84-64.51-35.11-59.37-67.77l.01-.06.01-.05 8.84-88.96.24-2.4-2.41.22-129.57 11.65-1.65.15-.17 1.64-11.14 110.13c-2.24 20.61-13.06 36.88-26.46 47.27-13.46 10.43-29.29 14.76-41.45 11.91l-.1-.03-.11-.01c-37.56-4.84-64.5-35.11-59.36-67.77l.01-.06.01-.06 8.83-88.95.24-2.4-2.4.21-50.15 4.51c-36.53 3.29-67.44-22.42-70.71-58.79s22.54-67.19 59.06-70.47l71.06-6.4 1.67-.15.14-1.67 8.09-97.281.2-2.371-2.37.213-87.77 7.896c-18.31 1.647-37.31-3.806-52.13-14.249-14.81-10.437-25.31-25.758-26.93-43.797-3.28-36.371 22.54-67.185 59.06-70.471l112.84-10.152 1.66-.148.16-1.643 11.14-110.118c4.89-37.398 35.28-64.259 68.07-59.156l.03.004.02.003c37.57 4.841 64.5 35.107 59.37 67.773l-.01.056-.01.056-8.85 88.951-.23 2.407 2.4-.217 129.58-11.656 1.64-.148.17-1.642 11.15-110.119c4.88-37.398 35.27-64.259 68.05-59.156l.03.004.03.003c37.56 4.841 64.51 35.107 59.37 67.773l-.02.056v.057l-8.84 88.951-.24 2.406 2.41-.217 50.16-4.512c36.52-3.285 67.42 22.427 70.69 58.798 3.28 36.371-22.54 67.186-59.06 70.471l-71.05 6.392-1.67.151-.14 1.675-8.1 97.28zm-131.58 14.189l1.68-.15.14-1.676 8.1-97.279.19-2.371-2.37.213-129.57 11.656-1.67.151-.14 1.675-8.1 97.279-.2 2.371 2.38-.213 129.56-11.656z" stroke="#ebecee" stroke-opacity=".3" stroke-width="4"/><defs><linearGradient id="A" x1="330.78" y1="-32.416" x2="392.89" y2="658.086" gradientUnits="userSpaceOnUse"><stop stop-color="#f8f8f8"/><stop offset="1" stop-color="#e9e7e7"/></linearGradient></defs></svg>