<svg xmlns="http://www.w3.org/2000/svg" xmlns:xlink="http://www.w3.org/1999/xlink" width="226" height="340" fill="none" xmlns:v="https://vecta.io/nano"><g clip-path="url(#Q)"><path d="M211.126 177.649c0 28.285-9.82 48.344-25.56 58.013-.434.289-10.398 7.36-10.975 7.649-16.463 9.236-5.921-11.689-31.048-26.121-50.399-29.151-91.411-99.575-91.411-157.444 0-28.574-27.004-27.997-10.831-37.521.433-.289 14.152-8.659 14.585-8.947 16.463-8.947 38.99-7.216 63.829 7.071 50.543 28.863 91.411 99.431 91.411 157.301z" fill="url(#A)"/><g fill="#ff6b00"><path d="M99.353 251.248c-.144 0-.289 0-.433-.145-26.716-15.441-51.554-41.417-70.183-73.455C10.253 145.611 0 111.12 0 80.526c0-23.234 5.921-43.005 17.329-57.148.289-.289.722-.289 1.011-.144.289.289.433.722.144 1.01C7.365 38.098 1.444 57.581 1.444 80.526c0 30.306 10.109 64.652 28.593 96.401s43.178 57.725 69.605 73.022c.289.144.433.577.289 1.01-.144.144-.433.289-.578.289zm72.195-6.932c35.459-20.716 35.097-87.264-.808-148.639S76.983 1.341 41.525 22.057s-35.097 87.264.808 148.639 93.757 94.336 129.216 73.62z"/></g><path d="M165.493 246.63c.289 0 .433-.144.722-.289.578-.288 1.011-.721 1.589-1.01l-2.311 1.299z" fill="url(#B)"/><path d="M109.029 27.131C84.768 13.133 62.818 11.257 46.5 19.482c1.3-.433 2.744-.722 4.188-1.01 15.307-4.618 34.658-1.588 55.453 10.391 50.399 29.151 91.411 99.575 91.411 157.444 0 26.987-8.954 46.469-23.539 56.571 16.318-9.525 26.427-29.728 26.427-58.447 0-57.725-40.868-128.293-91.411-157.3z" fill="#fe9c55"/><path d="M111.628 99.864c-18.629-10.823-38.702-9.957-53.143-1.732s-16.318 68.26-9.531 72.878 61.085 34.635 70.327 40.119c10.686 6.35 50.543-1.587 50.543-12.7 0-6.638 1.733-58.879-12.708-71.001-8.809-7.216-26.86-16.596-45.489-27.564z" fill="#ff6b00"/><path d="M97.187 116.893l-8.376 10.823 2.888 11.69-6.643 52.818 9.675 5.484 2.599-55.705 9.965-10.679-3.466-13.565-6.643-.866z" fill="url(#C)"/><path d="M133.883 128.128c-2.882 10.473-19.91 15.882-37.987 12.084s-30.39-15.422-27.639-25.895c2.882-10.473 19.91-15.882 37.987-12.084 18.208 3.798 30.521 15.422 27.639 25.895z" fill="#5f5c5d" fill-opacity=".1"/><path opacity=".5" d="M80.436 145.034c-2.022-28.286 7.22-45.314 10.253-52.674-5.487-1.01-10.831-1.154-15.741-.577-3.177 7.504-9.531 26.554-6.209 50.22 2.599 18.328 7.942 36.078 11.841 47.479l5.199 3.03c-2.888-11.4-4.188-31.893-5.343-47.478z" fill="url(#D)"/><path d="M78.992 144.457c-2.166-29.151 6.787-43.583 9.386-50.51 4.766.144 0-2.453 4.91-1.299-14.152-3.608-27.293-1.876-36.68 4.762-9.387 6.783-12.708 22.513-13.141 39.541-.433 14.432.866 30.883 3.755 33.337 4.332 3.896 18.773 10.967 37.113 21.646-2.888-11.4-4.188-32.037-5.343-47.478z" fill="url(#E)"/><path d="M158.417 127.716c-6.932-5.772-20.795-12.988-34.947-20.925 4.332 2.453 4.477 4.185 8.376 6.494-3.177 9.813-9.387 16.163-17.329 29.151-9.242 15.297-17.329 43.871-19.351 55.849l23.972 13.998c13.863 8.37 51.698-2.742 51.698-13.709 0-6.639 2.022-58.735-12.419-70.858z" fill="url(#F)"/><path d="M95.166 198.285l-8.376-4.906 8.376 4.906z" fill="#e6e7e8"/><path d="M91.122 96.689c-5.343 1.732-9.675 10.391-9.098 20.781.722 12.7 4.621 16.885 4.621 16.885l11.553-16.885 6.932 21.503s10.542-2.887 17.329-9.669 12.852-13.133 9.242-18.905c-4.188-6.638-33.792-16.019-40.579-13.71z" fill="#ff6b00"/><path opacity=".5" d="M132.712 111.265c-3.321 9.236-9.964 19.626-17.474 32.037-9.242 15.297-17.329 43.871-19.35 55.849l3.033 1.732c2.455-8.082 7.365-22.224 15.741-37.233 11.408-20.348 27.726-40.407 31.337-44.448-3.755-2.165-8.809-5.339-13.286-7.937z" fill="url(#G)"/><path d="M132.134 110.399c-3.322 9.236-9.964 19.626-17.474 32.037-9.242 15.297-17.329 43.871-19.35 55.849l3.033 1.732c2.455-8.082 7.365-22.224 15.741-37.233 11.408-20.348 27.726-40.407 31.336-44.448-3.754-2.165-8.808-5.484-13.285-7.937z" fill="url(#H)"/><path d="M78.992 144.457c-2.022-28.286 7.221-45.314 10.253-52.674-5.488-1.01-10.831-1.154-15.741-.577-3.177 7.504-9.531 26.554-6.21 50.221 2.599 18.328 7.942 36.078 11.841 47.479l5.199 3.03c-2.888-11.4-4.188-32.037-5.343-47.478z" fill="url(#I)"/><path d="M105.13 139.117l-6.932-21.647-11.553 17.029-1.011-2.742 12.564-15.586 8.376 22.224-1.444.722z" fill="url(#J)"/><path d="M69.028 38.676c-2.744 11.689-2.166 46.757 6.643 54.261 6.932 5.917 13.286 2.02 13.719 10.679s-3.177 9.38 2.022 13.133c5.054 3.607 34.081 1.01 33.358-8.226-.722-8.659-2.599-11.689 1.444-19.771s15.596-21.07 13.863-32.47S78.559-2.742 69.028 38.676z" fill="url(#K)"/><path d="M64.406 37.088c-4.621-1.732-5.199-14.431 18.195-30.161 17.907-11.834 53.287-9.525 63.684 14.72 10.831 25.11 1.011 38.964-7.22 57.148-4.91 10.968-13.864 12.555-13.864 12.555s3.755-11.112 6.932-15.153c4.621-5.917 8.087-13.71 4.477-18.328-2.022-2.598-5.199-3.896-9.531.433-7.221 7.216-14.874-16.596-33.214-20.348-15.452-3.175-24.838 1.01-29.459-.866z" fill="url(#L)"/><path opacity=".8" d="M94.299 99.143c-2.166 0-4.188 0-7.509-1.01 1.444.866 2.311 2.309 2.455 5.196.433 8.658-3.177 9.38 2.022 13.132 1.877 1.299 6.787 2.02 12.419 2.02 8.231-8.225 7.509-21.791 7.509-21.791s-10.397 2.309-16.896 2.453z" fill="url(#M)"/><path opacity=".5" d="M130.546 69.414s6.21-6.494 4.043-9.813c-2.31-3.319-6.209 1.732-6.209 1.732l2.166 8.081z" fill="url(#N)"/><path d="M221.378 231.477c0 14.287-4.91 24.533-12.997 29.44-.289.144-13.719 8.514-14.007 8.659-8.376 4.618-3.033-5.917-15.741-13.277-25.56-14.72-46.355-50.509-46.355-79.949 0-14.576-13.43-14.576-5.199-19.482.289-.145 15.307-8.803 15.596-8.948 8.376-4.473 19.784-3.752 32.348 3.608 25.56 14.72 46.355 50.509 46.355 79.949z" fill="url(#O)"/><path d="M206.215 240.425c0 29.295-20.794 41.129-46.355 26.409s-46.355-50.51-46.355-79.949 20.795-41.129 46.355-26.409c25.561 14.864 46.355 50.653 46.355 79.949z" fill="url(#P)"/><path d="M162.026 159.465c-12.275-7.071-23.394-8.081-31.77-3.896 7.798-2.165 17.329-.577 27.726 5.484 25.561 14.72 46.356 50.509 46.356 79.949 0 15.297-5.632 25.832-14.586 30.305 11.264-3.175 18.629-14.431 18.629-31.893 0-29.439-20.795-65.229-46.355-79.949z" fill="#2ad5df"/><path d="M130.112 201.316l20.507 44.592c.577 1.155 2.021 1.299 2.888.433l35.813-37.665c1.589-1.588 1.444-4.185-.144-5.628l-12.131-10.968c-1.877-1.732-4.765-1.299-6.065.866l-19.351 32.47-9.386-22.657c-.578-1.299-1.589-2.165-2.888-2.309l-7.221-1.443c-1.588-.289-2.599 1.01-2.022 2.309z" fill="#fff"/></g><defs><linearGradient id="A" x1="80.024" y1="35.022" x2="218.285" y2="259.126" xlink:href="#R"><stop offset=".01" stop-color="#ff6b00"/><stop offset=".036" stop-color="#ff710a"/><stop offset=".08" stop-color="#ff8125"/><stop offset=".137" stop-color="#ff9a52"/><stop offset=".205" stop-color="#ffbe8f"/><stop offset=".282" stop-color="#ffebdd"/><stop offset=".313" stop-color="#fff"/><stop offset=".329" stop-color="#fff9f5"/><stop offset=".355" stop-color="#ffeadb"/><stop offset=".388" stop-color="#ffd2b1"/><stop offset=".427" stop-color="#ffaf76"/><stop offset=".471" stop-color="#ff842c"/><stop offset=".495" stop-color="#ff6b00"/></linearGradient><radialGradient id="B" cx="0" cy="0" r="1" gradientTransform="translate(167.319 245.867) scale(0.680312 0.679848)" xlink:href="#R"><stop stop-color="#fff"/><stop offset=".066" stop-color="#d8d8d8"/><stop offset=".162" stop-color="#a6a6a6"/><stop offset=".262" stop-color="#797979"/><stop offset=".366" stop-color="#545454"/><stop offset=".473" stop-color="#353535"/><stop offset=".585" stop-color="#1e1e1e"/><stop offset=".704" stop-color="#0d0d0d"/><stop offset=".835" stop-color="#030303"/><stop offset="1"/></radialGradient><linearGradient id="C" x1="98.536" y1="195.479" x2="93.021" y2="116.611" xlink:href="#R"><stop stop-color="#25054d"/><stop offset="1" stop-color="#45108a"/></linearGradient><linearGradient id="D" x1="67.815" y1="142.033" x2="90.688" y2="142.033" xlink:href="#R"><stop stop-color="#fff"/><stop offset="1" stop-color="#bcbec0"/></linearGradient><radialGradient id="E" cx="0" cy="0" r="1" gradientTransform="translate(97.3667 123.825) scale(65.7618 65.7178)" xlink:href="#R"><stop stop-color="#5c5c5c"/><stop offset="1" stop-color="#3a3a3a"/></radialGradient><radialGradient id="F" cx="0" cy="0" r="1" gradientTransform="translate(126.976 140.65) scale(77.2983 77.2467)" xlink:href="#R"><stop stop-color="#696969"/><stop offset="1" stop-color="#383838"/></radialGradient><linearGradient id="G" x1="95.953" y1="156.179" x2="146.135" y2="156.179" xlink:href="#R"><stop stop-color="#fff"/><stop offset="1" stop-color="#bcbec0"/></linearGradient><radialGradient id="H" cx="0" cy="0" r="1" gradientTransform="translate(123.554 123.288) scale(106.875 106.804)" xlink:href="#R"><stop stop-color="#595959"/><stop offset="1" stop-color="#3a3a3a"/></radialGradient><radialGradient id="I" cx="0" cy="0" r="1" gradientTransform="translate(93.0848 101.69) scale(170.016 169.902)" xlink:href="#R"><stop stop-color="#595959"/><stop offset="1" stop-color="#3a3a3a"/></radialGradient><radialGradient id="J" cx="0" cy="0" r="1" gradientTransform="translate(97.1265 120.97) scale(15.8246 15.814)" xlink:href="#R"><stop stop-color="#fff"/><stop offset="1"/></radialGradient><radialGradient id="K" cx="0" cy="0" r="1" gradientTransform="translate(93.7273 59.9247) scale(47.1238 47.0923)" xlink:href="#R"><stop offset=".03" stop-color="#fedfcb"/><stop offset="1" stop-color="#f9b69e"/></radialGradient><linearGradient id="L" x1="117.05" y1="96.028" x2="97.277" y2="-16.806" xlink:href="#R"><stop offset=".035" stop-color="#602213"/><stop offset=".571" stop-color="#6d310e"/><stop offset="1" stop-color="#7a4108"/></linearGradient><linearGradient id="M" x1="106.137" y1="111.605" x2="88.205" y2="93.898" xlink:href="#R"><stop stop-color="#fccbb5" stop-opacity="0"/><stop offset="1" stop-color="#c59584"/></linearGradient><linearGradient id="N" x1="128.692" y1="65.081" x2="136.616" y2="61.345" xlink:href="#R"><stop stop-color="#fccfb9" stop-opacity="0"/><stop offset="1" stop-color="#d29170"/></linearGradient><linearGradient id="O" x1="142.436" y1="146.841" x2="222.806" y2="280.486" xlink:href="#R"><stop stop-color="#1bb0d4"/><stop offset=".077" stop-color="#1ebfdd"/><stop offset=".225" stop-color="#27e8f6"/><stop offset=".273" stop-color="#2af6ff"/><stop offset=".753" stop-color="#138bbd"/><stop offset=".894" stop-color="#1ebfdd"/><stop offset="1" stop-color="#1aaad1"/></linearGradient><linearGradient id="P" x1="31.4" y1="242.472" x2="293.889" y2="183.591" xlink:href="#R"><stop offset=".035" stop-color="#138bbd"/><stop offset=".226" stop-color="#169ac7"/><stop offset=".595" stop-color="#1fc3df"/><stop offset="1" stop-color="#2af6ff"/></linearGradient><clipPath id="Q"><path fill="#fff" d="M0 0h226v340H0z"/></clipPath><linearGradient id="R" gradientUnits="userSpaceOnUse"/></defs></svg>