<svg xmlns="http://www.w3.org/2000/svg" width="476" height="442" fill="none" xmlns:v="https://vecta.io/nano"><path d="M61.607 322.169h71.875l-13.69-78.506H61.607c-30.804 0-54.762-23.894-54.762-54.614s23.958-54.613 54.762-54.613h41.072l-13.691-71.68c-6.845-27.307 13.69-54.613 44.494-61.44 27.381-6.827 54.762 13.653 61.607 44.373l17.113 88.747h106.101l-13.69-71.68c-6.845-27.307 13.691-54.613 44.494-61.44 27.381-6.827 54.762 13.653 61.608 44.373l17.113 88.747h92.41c30.804 0 54.762 23.893 54.762 54.613s-30.803 54.614-61.607 54.614h-71.875l13.69 78.506h58.185c30.804 0 54.762 23.894 54.762 54.614s-23.958 54.613-54.762 54.613h-41.072l13.691 71.681c6.845 27.306-13.69 54.613-44.494 61.44-20.536 6.826-54.762-10.24-61.607-44.374l-17.113-88.747H256.697l13.69 71.681c6.845 27.306-13.691 54.613-44.494 61.44-20.536 6.826-54.762-10.24-61.608-44.374l-17.113-88.747h-92.41C23.958 431.396 0 407.503 0 376.783c10.268-30.72 34.226-54.614 61.607-54.614zm181.399 0h106.101l-13.69-78.506H229.316l13.69 78.506z" fill="url(#A)" fill-opacity=".5"/><path d="M135.452 321.826l.409 2.343h-2.379-71.875c-26.076 0-49.422 22.789-59.606 52.938.168 29.454 23.165 52.289 52.761 52.289h92.41 1.652l.312 1.622 17.11 88.732c3.308 16.481 13.216 28.837 24.789 36.256 11.635 7.46 24.695 9.781 34.227 6.613l.097-.033.101-.022c30.009-6.651 49.488-33.068 42.987-59.001l-.014-.055-.011-.056-13.69-71.68-.453-2.376h2.418 106.101 1.651l.312 1.622 17.111 88.732c3.307 16.481 13.215 28.837 24.788 36.256 11.636 7.46 24.696 9.781 34.227 6.613l.098-.033.1-.022c30.01-6.651 49.488-33.068 42.987-59.001l-.014-.055-.01-.056-13.691-71.68-.454-2.376h2.418 41.072c29.704 0 52.762-23.003 52.762-52.613s-23.058-52.614-52.762-52.614h-58.185-1.681l-.289-1.656-13.69-78.507-.409-2.343h2.379 71.875c14.905 0 29.852-5.79 41.06-15.311 11.2-9.515 18.547-22.645 18.547-37.303 0-29.61-23.058-52.613-52.762-52.613h-92.41-1.651l-.313-1.622-17.108-88.718c-6.676-29.901-33.154-49.325-59.165-42.84l-.025.006-.026.006c-30.009 6.651-49.488 33.068-42.987 59.001l.014.055.011.056 13.69 71.681.454 2.375h-2.419-106.101-1.651l-.312-1.622-17.108-88.719c-6.677-29.901-33.155-49.324-59.165-42.839l-.026.006-.025.006c-30.01 6.651-49.488 33.068-42.987 59.001l.014.055.011.056 13.691 71.681.454 2.375h-2.418-41.072c-29.704 0-52.762 23.003-52.762 52.613s23.057 52.614 52.762 52.614h58.185 1.681l.289 1.656 13.69 78.507zm107.554 2.343h-1.682l-.288-1.656-13.691-78.507-.408-2.343h2.379 106.101 1.681l.289 1.656 13.691 78.507.408 2.343h-2.379-106.101z" stroke="#ff8a00" stroke-opacity=".4" stroke-width="4"/><defs><linearGradient id="A" x1="287.5" y1="0" x2="287.5" y2="566" gradientUnits="userSpaceOnUse"><stop stop-color="#f90"/><stop offset="1" stop-color="#ff6b00"/></linearGradient></defs></svg>