<svg xmlns="http://www.w3.org/2000/svg" width="113" height="96" fill="none" xmlns:v="https://vecta.io/nano"><g filter="url(#A)"><path d="M31 31.016c0 1.964 1.553 3.556 3.469 3.556h9.911l-6.41 13.14c-1.153 2.364.524 5.146 3.103 5.146h5.623c1.314 0 2.515-.761 3.103-1.965l7.595-15.569c.241-.494.366-1.038.366-1.59V10.699c0-1.964-1.553-3.556-3.469-3.556H34.469C32.553 7.143 31 8.735 31 10.699v20.317z" fill="#fff"/><path d="M70.148 7.143c-1.916 0-3.469 1.592-3.469 3.556v20.317c0 1.964 1.553 3.556 3.469 3.556h9.911l-6.41 13.14c-1.153 2.364.524 5.146 3.103 5.146h5.623c1.314 0 2.515-.761 3.103-1.965l7.595-15.569a3.63 3.63 0 0 0 .366-1.59V10.699c0-1.964-1.553-3.556-3.469-3.556H70.148z" fill="#fff"/></g><defs><filter id="A" x="0" y=".143" width="112.439" height="95.714" filterUnits="userSpaceOnUse" color-interpolation-filters="sRGB"><feFlood flood-opacity="0" result="A"/><feColorMatrix in="SourceAlpha" values="0 0 0 0 0 0 0 0 0 0 0 0 0 0 0 0 0 0 127 0"/><feOffset dx="-6" dy="18"/><feGaussianBlur stdDeviation="12.5"/><feColorMatrix values="0 0 0 0 0.429566 0 0 0 0 0.440262 0 0 0 0 0.454167 0 0 0 0.2 0"/><feBlend in2="A"/><feBlend in="SourceGraphic"/></filter></defs></svg>