<svg xmlns="http://www.w3.org/2000/svg" xmlns:xlink="http://www.w3.org/1999/xlink" width="226" height="348" fill="none" xmlns:v="https://vecta.io/nano"><g clip-path="url(#L)"><path d="M211.125 185.114c0 28.304-9.82 48.377-25.56 58.052-.434.289-10.398 7.365-10.975 7.654-16.463 9.242-5.921-11.697-31.048-26.138-50.399-29.171-91.411-99.787-91.411-157.695 0-28.593-27.004-28.015-10.831-37.546.433-.289 14.152-8.665 14.585-8.953 16.463-8.953 38.991-7.22 63.829 7.076 50.543 29.171 91.411 99.642 91.411 157.55z" fill="url(#A)"/><g fill="#ff6b00"><path d="M99.353 258.762c-.144 0-.289 0-.433-.144-26.716-15.452-51.554-41.445-70.183-73.504C10.253 153.199 0 118.686 0 88.071c0-23.394 5.921-43.178 17.329-57.186.289-.289.722-.289 1.011-.144.289.289.433.722.144 1.011C7.365 45.615 1.444 65.11 1.444 88.071c0 30.326 10.109 64.695 28.593 96.465s43.178 57.764 69.605 73.071c.289.144.433.578.289 1.011-.144.144-.433.144-.578.144zm72.24-6.804c35.459-20.73 35.097-87.323-.808-148.739S77.028 8.82 41.569 29.55s-35.097 87.322.808 148.739 93.757 94.399 129.216 73.669z"/></g><path d="M165.49 254.141c.289 0 .433-.144.722-.289.578-.289 1.011-.722 1.589-1.011l-2.311 1.3z" fill="url(#B)"/><path d="M109.027 34.495C84.766 20.487 62.816 18.61 46.498 26.841c1.3-.433 2.744-.722 4.188-1.011 15.307-4.621 34.658-1.588 55.453 10.397 50.399 29.171 91.411 99.642 91.411 157.55 0 27.005-8.954 46.5-23.539 56.608 16.318-9.531 26.427-29.748 26.427-58.485 0-57.764-40.868-128.235-91.411-157.406z" fill="#fb9953"/><path d="M105.621 94.801c-16.663-12.016-34.607-11.055-47.585-1.923s-14.58 75.783-8.492 80.91 54.634 38.452 62.965 44.54c9.453 7.05 45.182-1.762 45.182-14.099 0-7.37 1.442-65.369-11.376-78.827-7.851-8.171-23.872-18.585-40.695-30.602z" fill="#eaeaea"/><path d="M126.681 109.521c4.427 11.925-5.039 25.435-21.105 30.155s-32.808-1.116-37.235-13.041S73.38 101.2 89.446 96.48c16.165-4.782 32.809 1.117 37.235 13.041z" fill="#5f5c5d" fill-opacity=".1"/><path d="M77.101 144.149c-1.923-32.364 5.928-48.386 8.171-56.076 4.166.16 0-2.724 4.326-1.442-12.337-4.005-23.712-2.083-31.883 5.287-8.171 7.53-11.055 24.994-11.536 43.899-.481 16.022-.162 34.687 3.044 38.292 3.845 4.326 16.503 10.895 32.364 22.751-2.243-12.657-3.525-35.568-4.486-52.711z" fill="url(#C)"/><path d="M146.316 125.563c-6.088-6.408-18.105-14.419-30.441-23.231 3.845 2.723 4.005 4.646 7.37 7.21-2.724 10.894-8.332 17.944-15.061 32.364-8.011 16.983-15.06 48.706-16.823 62.004l20.829 15.541c12.176 9.293 45.021-3.044 45.021-15.221 0-7.37 1.602-65.208-10.895-78.667z" fill="url(#D)"/><path opacity=".5" d="M122.444 112.425c-3.044 9.774-8.972 20.668-15.701 33.806-8.332 16.022-14.74 44.06-16.663 56.717.961.641 2.403 1.763 3.204 2.404 2.243-8.492 5.447-21.63 12.978-37.491 10.094-21.63 24.994-42.618 28.198-47.104-3.524-2.243-8.011-5.768-12.016-8.332z" fill="url(#E)"/><path d="M122.282 112.425c-3.044 9.613-9.132 20.508-16.021 33.486-8.492 15.861-17.304 55.916-17.304 55.916l2.884 2.563s6.248-21.469 13.939-37.17c10.414-21.309 25.474-42.138 28.679-46.463l-12.177-8.332z" fill="url(#F)"/><path d="M77.422 151.518c-.801-26.756 3.044-42.938 4.326-49.988-2.243-.961-4.486-1.121-6.569-.641-1.282 7.21-4.005 25.155-2.564 47.585 1.122 17.304 3.365 34.287 4.967 45.021.641.962 3.365 2.403 4.326 3.044-1.282-10.574-4.005-30.281-4.486-45.021z" fill="url(#G)"/><path opacity=".8" d="M87.355 94c-2.403 0-4.646 0-8.331-1.122 1.602.961 2.564 2.563 2.724 5.768.481 9.613-3.525 10.415 2.243 14.58 2.083 1.442 7.53 2.243 13.779 2.243 9.132-9.132 8.331-24.193 8.331-24.193S94.565 93.68 87.355 94z" fill="url(#H)"/><path d="M221.379 238.978c0 14.297-4.91 24.55-12.997 29.46-.289.144-13.719 8.52-14.008 8.664-8.375 4.621-3.032-5.921-15.74-13.285-25.56-14.73-46.355-50.543-46.355-80.003 0-14.585-13.43-14.585-5.199-19.495.289-.145 15.307-8.809 15.596-8.953 8.376-4.477 19.784-3.755 32.348 3.61 25.56 14.874 46.355 50.687 46.355 80.002z" fill="url(#I)"/><path d="M206.216 248.076c0 29.315-20.794 41.157-46.355 26.427s-46.355-50.543-46.355-80.003 20.795-41.156 46.355-26.426 46.355 50.543 46.355 80.002z" fill="url(#J)"/><path d="M162.028 166.918c-12.275-7.076-23.394-8.087-31.77-3.899 7.798-2.166 17.329-.577 27.726 5.488 25.561 14.729 46.356 50.543 46.356 80.002 0 15.308-5.632 25.849-14.586 30.326 11.264-3.177 18.629-14.441 18.629-31.914 0-29.46-20.795-65.129-46.355-80.003z" fill="#1fc2de"/><path d="M130.113 208.941l20.507 44.623c.577 1.155 2.021 1.299 2.888.433l35.813-37.691c1.589-1.588 1.444-4.188-.144-5.632l-12.131-10.975a3.91 3.91 0 0 0-6.065.867l-19.351 32.347-9.386-22.672c-.578-1.3-1.589-2.166-2.888-2.311l-7.221-1.444c-1.588-.288-2.599 1.156-2.022 2.455z" fill="#fff"/><g fill="#eaeaea"><path d="M75.017 97.365c-11.215 15.861-3.525 31.403-3.525 31.403l14.259-4.006c-.32-.16-4.326-16.182 0-34.286 0-.16-9.132 4.646-10.735 6.889z"/><path d="M85.75 124.762l3.845 12.978s36.049-4.326 39.093-32.685c.161 0-25.955 22.751-42.938 19.707z"/></g><path d="M88.155 25.107s32.685 20.348 32.044 57.198c0 5.287-8.812 29-18.265 25.635 0 0-46.143-54.794-27.237-83.473 11.215-16.983 35.088-30.281 62.485-7.69l-49.027 8.331z" fill="#341c09"/><path d="M76.139 74.934s12.016 16.663 4.646 32.845c-2.083 4.486-7.69 23.071 21.469 17.464 0 0 30.922-12.818 22.591-22.431-5.448-6.409-10.575-15.541.48-45.502L76.139 74.934z" fill="#e8a476"/><path d="M125.003 102.812c.801 1.122 1.282 2.083 1.282 3.044-27.878 3.365-45.181-17.303-45.181-17.303l37.812-28.679s1.762 1.282 4.166 3.525c-8.011 25.154-3.205 33.486 1.922 39.413z" fill="#db9669"/><path d="M85.11 20.781s-7.851 2.083-9.934 24.834c-.16 2.563-4.486 5.447-6.088 11.696s-4.967 31.563 9.613 35.408c10.574 2.724 37.491-1.923 48.225-26.756 10.895-24.994-8.491-59.601-41.816-45.181z" fill="#f1b287"/><path d="M85.91 30.073s34.928-12.337 31.883 54.474l-8.972 37.651c52.872-4.005 40.856-78.506 40.856-78.506S148.555 5.4 113.147 8.764c0 .16-23.872 7.05-27.237 21.309z" fill="#221101"/><path d="M85.91 30.073s-8.011-3.685-15.221 16.983c0 0 3.365-58.8 58.159-36.209 0-.16-33.645-1.122-42.938 19.226z" fill="#341c09"/><path d="M113.629 69.327s4.967-12.337 12.016-7.851c2.243 1.442 4.486 4.166.481 10.414s-11.696 11.536-17.304 10.414l4.807-12.978z" fill="#f1b287"/><path opacity=".5" d="M117.955 73.973s8.171-5.127 5.608-8.812-6.088 1.122-6.088 1.122l.48 7.69z" fill="url(#K)"/></g><defs><linearGradient id="A" x1="80.023" y1="42.445" x2="218.418" y2="266.615" xlink:href="#M"><stop offset=".01" stop-color="#ff6b00"/><stop offset=".036" stop-color="#ff710a"/><stop offset=".08" stop-color="#ff8125"/><stop offset=".137" stop-color="#ff9a52"/><stop offset=".205" stop-color="#ffbe8f"/><stop offset=".282" stop-color="#ffebdd"/><stop offset=".313" stop-color="#fff"/><stop offset=".329" stop-color="#fff9f5"/><stop offset=".355" stop-color="#ffeadb"/><stop offset=".388" stop-color="#ffd2b1"/><stop offset=".427" stop-color="#ffaf76"/><stop offset=".471" stop-color="#ff842c"/><stop offset=".495" stop-color="#ff6b00"/></linearGradient><radialGradient id="B" cx="0" cy="0" r="1" gradientTransform="translate(167.316 253.431) scale(0.680307)" xlink:href="#M"><stop stop-color="#fff"/><stop offset=".066" stop-color="#d8d8d8"/><stop offset=".162" stop-color="#a6a6a6"/><stop offset=".262" stop-color="#797979"/><stop offset=".366" stop-color="#545454"/><stop offset=".473" stop-color="#353535"/><stop offset=".585" stop-color="#1e1e1e"/><stop offset=".704" stop-color="#0d0d0d"/><stop offset=".835" stop-color="#030303"/><stop offset="1"/></radialGradient><radialGradient id="C" cx="0" cy="0" r="1" gradientTransform="translate(93.1062 121.301) scale(57.2743 72.9609)" xlink:href="#M"><stop stop-color="#5c5c5c"/><stop offset="1" stop-color="#3a3a3a"/></radialGradient><radialGradient id="D" cx="0" cy="0" r="1" gradientTransform="translate(118.899 139.981) scale(67.3219 85.7603)" xlink:href="#M"><stop stop-color="#696969"/><stop offset="1" stop-color="#383838"/></radialGradient><linearGradient id="E" x1="89.192" y1="159.694" x2="134.454" y2="159.694" xlink:href="#M"><stop stop-color="#fff"/><stop offset="1" stop-color="#bcbec0"/></linearGradient><radialGradient id="F" cx="0" cy="0" r="1" gradientTransform="translate(114.541 125.587) scale(96.2986 109.538)" xlink:href="#M"><stop stop-color="#595959"/><stop offset="1" stop-color="#3a3a3a"/></radialGradient><radialGradient id="G" cx="0" cy="0" r="1" gradientTransform="translate(83.3769 111.072) scale(71.1565 161.568)" xlink:href="#M"><stop stop-color="#595959"/><stop offset="1" stop-color="#3a3a3a"/></radialGradient><linearGradient id="H" x1="100.489" y1="107.735" x2="80.58" y2="88.089" xlink:href="#M"><stop stop-color="#fff"/><stop offset="1" stop-color="#dbac9b"/></linearGradient><linearGradient id="I" x1="142.437" y1="154.338" x2="222.886" y2="288.025" xlink:href="#M"><stop stop-color="#1bb0d4"/><stop offset=".077" stop-color="#1ebfdd"/><stop offset=".225" stop-color="#27e8f6"/><stop offset=".273" stop-color="#2af6ff"/><stop offset=".753" stop-color="#138bbd"/><stop offset=".894" stop-color="#1ebfdd"/><stop offset="1" stop-color="#1aaad1"/></linearGradient><linearGradient id="J" x1="31.401" y1="250.033" x2="293.907" y2="191.188" xlink:href="#M"><stop offset=".035" stop-color="#138bbd"/><stop offset=".226" stop-color="#169ac7"/><stop offset=".595" stop-color="#1fc3df"/><stop offset="1" stop-color="#2af6ff"/></linearGradient><linearGradient id="K" x1="116.4" y1="70.331" x2="125.382" y2="66.1" xlink:href="#M"><stop stop-color="#fff"/><stop offset="1" stop-color="#bcbec0"/></linearGradient><clipPath id="L"><path fill="#fff" d="M0 0h226v348H0z"/></clipPath><linearGradient id="M" gradientUnits="userSpaceOnUse"/></defs></svg>