<svg width="36" height="36" viewBox="0 0 36 36" fill="none" xmlns="http://www.w3.org/2000/svg">
<g clip-path="url(#clip0)">
<path d="M4.50051 16.5C4.08801 16.5 3.67551 16.3305 3.38001 15.9975C2.82951 15.378 2.88501 14.43 3.50451 13.8795L10.2545 7.87955C10.5755 7.59305 11.0045 7.45955 11.4305 7.51205L23.105 8.92655L29.7185 2.66105C30.32 2.09405 31.271 2.11655 31.838 2.71955C32.408 3.32105 32.3825 4.27055 31.781 4.84055L24.656 11.5905C24.332 11.898 23.885 12.0435 23.444 11.991L11.741 10.5705L5.49651 16.122C5.21151 16.3755 4.85451 16.5 4.50051 16.5Z" fill="#FF6B00"/>
<path d="M31.8756 8.99995C31.5831 8.99995 31.2951 8.88595 31.0806 8.66995L25.8306 3.41995C25.5081 3.09895 25.4136 2.61445 25.5861 2.19445C25.7601 1.77445 26.1696 1.49995 26.6256 1.49995H31.8756C32.4966 1.49995 33.0006 2.00395 33.0006 2.62495V7.87495C33.0006 8.32945 32.7261 8.74045 32.3061 8.91445C32.1666 8.97145 32.0211 8.99995 31.8756 8.99995Z" fill="#FF6B00"/>
<path d="M10.4994 27.375V31.5H1.49939V27.375C1.49939 26.34 2.33939 25.5 3.37439 25.5H8.62439C9.65939 25.5 10.4994 26.34 10.4994 27.375Z" fill="#434343"/>
<path d="M22.5 18.375V31.5H13.5V18.375C13.5 17.34 14.34 16.5 15.375 16.5H20.625C21.66 16.5 22.5 17.34 22.5 18.375Z" fill="#FF6B00"/>
<path d="M34.5006 21.375V31.5H25.5006V21.375C25.5006 20.34 26.3406 19.5 27.3756 19.5H32.6256C33.6606 19.5 34.5006 20.34 34.5006 21.375Z" fill="#434343"/>
<path d="M34.875 36H1.125C0.504 36 0 35.496 0 34.875C0 34.254 0.504 33.75 1.125 33.75H34.875C35.496 33.75 36 34.254 36 34.875C36 35.496 35.496 36 34.875 36Z" fill="#434343"/>
</g>
<defs>
<clipPath id="clip0">
<rect width="36" height="36" fill="white"/>
</clipPath>
</defs>
</svg>
