<svg xmlns="http://www.w3.org/2000/svg" xmlns:xlink="http://www.w3.org/1999/xlink" width="240" height="240" fill="none" xmlns:v="https://vecta.io/nano"><path d="M205.23 116.838c0 46.602-37.753 84.216-84.154 84.216-46.568 0-84.155-37.78-84.155-84.216 0-46.602 37.753-84.216 84.155-84.216 46.567 0 84.154 37.614 84.154 84.216z" fill="url(#A)"/><path d="M92.306 196.061c-43.74-15.811-66.359-64.244-50.393-108.017s64.197-66.408 107.937-50.43c43.74 15.811 66.359 64.244 50.393 108.016-15.8 43.606-64.197 66.242-107.937 50.43z" fill="url(#B)"/><path d="M138.707 82.885c.166-.499.166-.333.499-.333.499.166.499.666.499.666-.167.333-.333.499-.499.333h-.167c0 .166 0 .333-.166.499-.333.333-.499.333-.832.166-1.164-.166-.166-1.997.666-1.332zm-3.992-34.951c.333.333.832 0 .499-.499s-.998-.333-.499.499l.167-.166-.167.166zm-13.97 74.064h-.333c-.332-.333-.332-.832-.332-.998 0-.333 0-.5-.167-.666v-.666c.167-.333.167-.333.167-.666-.499-.832-.666-.998-.167-1.664.333-.499.499-.832.499-1.332 0-.332.167-.665.333-.998s.333-.666.166-.999v-.333-1.165l-.166-.333c0-.166-.166-.332-.166-.499v-.666c.166-.499.166-.499.166-.832l-.166-.166s-.167.166-.333.166c-.499-.333-.499-.666-.333-1.498l.167-.665c.166-.333.166-.5.332-.833s.333-.665.333-.998c.333-1.165.333-1.165.831-1.498.499-.666.499-.666.499-.999-.166-.166.499-1.831.499-1.831l1.663-2.33c1.165-.499 1.165-.333 2.495-1.831l.665-1.498c-.166-.166-.665-1.332-.166-1.997.166-.166.166-.832.499-1.165.499-.666.832-.999 1.663-1.498.832-1.165.998-2.33 1.164-2.496-.332-.333-.499-.832-.499-.832 0-.333 0-.333-.332-.333 0 0-.333-.166-.499-.166.166.333-.499.499-.832.333l-.332.333c-.832 0-.333-.166-.499-.999v-.666-.333c-.167 0-.333-.166-.499-.333-.333-1.664.499-1.498.332-3.162-.166-1.332-.332-1.498-.166-1.831-.332-.166-.333-.333-.333-.666.167-.499.499-.666.832-.666.166-.166.166-.333.333-.499.332 0 .831 0 .998.166h2.661c.166-.166.665 0 .997 0 0 0 .167 0 .499-.166 0-.166-.332-2.497-.166-2.829 0 .166-.831-.333-.831-.832.332-.499.166-.666.166-.666l-.333-.166c-.166-.166-.332-.166-.499-.166-.332 0-.665.166-.831-.166-.167-.499-.167-.499-.333-.666 0-.333-.333-.499 0-.666.665-.166 1.331-.499 1.83-.166.166 0 .166-.166.332-.166l-.499-.832c.167-.499 0-.666.998-.166l.166.166h.333c.499-.499.499-.832.665-.999 0 0-.166.166-.332.166l-.333-.333-.166.333h-.333c0 .166-.333.333-.333.333-.166 0-.332-.166-.332-.166s-.166.166-.333.166c-.332 0-.332 0-.499-.166h-.332l.166.333c-.166.166-.333.333-.832.166 0 .166-.332.499-.499.499-.498 0-.665 0-.831-.333 0-.166 0-.499.166-.499h.499l-.332-.166c.166-.166.332-.499.498-.832 0 0-1.33 0-.498-1.165-.167-.166-.167-.499-.167-.666-.166-.166-.332-.499.167-.832h-.167l-.166-.166v.166s.166.499.166.832v.499.333c0 .166 0 .333-.166.499h-.499-.166c-.167.166-.333.333-.499.333-.167.166-.167.333-.333.333-.166.166-.333.166-.665.166 0 0 0 .166-.167.166s-.166 0-.332-.166c-.166 0-.333 0-.333-.166-.166 0-.166-.166-.166-.166 0-.166-.166-.333 0-.499-.166-.333.166-.666.333-.832v-.499c-.333-.333-.333-.333-.167-.666l-.166-.166c0-.166 0-.666.166-.666h.333.166v-.166h.333l-.167-.333c0-.166.167-.333.167-.333.166 0 .332-.166.499-.166l.332-.166s.167 0 .333.166v-.333-.166h-.166s-.333-.333-.333-.499c-.166 0-.499 0-.499-.499.166-.499.166-1.165.499-1.331 0-.166-.166-.499 0-.499.333-.499.665-.666.998-.166 0-.166 0-.333.333-.333h.499c-.167-.333-.167-.666.166-.666.166-.166.499-.333.499-.166.499.166.499.499.332.832v.333h-.166c.166.166.166.333 0 .499.998-.166 1.331.666.499 1.664.333.166.832.499.998 1.165.166.333.333.333.998.832 0 .166.166.333 0 .499.166.166.499.333.499.499 1.164 0 1.497 1.165.831 1.831.167.166.333.166.333.333h.499l-.166-.166c.498-.666.498 0 .831-1.664 0 0 0-.166.166-.166v-.333c.167-.166.499-.499.832-.333h.166c.167-.333.499-.499.832-.333 0-.166-.166-.166-.333-.333-.499-.166-.332-.499-.499-.832l-.166-.333c-.333-1.165-.665-1.165-.166-1.997 0-.166.332-.166.499-.166-.167 0 0-.499.499-.499-.167-.166-.167-.166-.167-.499l-.166-.166-.166.166s-.167.499-.333.666c-.665.333-.998.666-1.996-.166-.166 0-.499-.333-.499-.666-.166 0-.332-.166-.332-.499 0 0-.167-.166-.167-.333-.166-.166-.166-.333-.166-.499-.166-.166-.166-.166-.333-.499 0-.499-.332-.832-.332-1.331 0-.166.166-.166.166-.166h.166l-.166-.166.166-.166.167-.166c0-.166 0-.166.166-.333v-.499c0-.166.166-.166.166-.333h.167.166l.166-.166h.167v-.167-.333s0-.166.166-.166l-.166-.166a.36.36 0 0 1 .332-.333v-.166c0-.166 0-.166-.166-.333v-.333-.333-.333l.499-.166h-.333v-.166l-.166.166-.166.166h-.167a.36.36 0 0 1-.332-.333v-.333l.332-.333c-.166-.499.167-.666.333-.666a.36.36 0 0 1 .333-.333c0-.333 0-.666.332-.666h.333c0-.166.166-.333.332-.499 0 0 .333-.166.499-.166 0-.166.333-.333.499-.166.167-.166.333-.166.499 0h.167c.332-.333.498-.166.665-.166s.332 0 .665.166c.499 0 .499.166.832.333.332-.166.997.166 1.164.499.665-.499 2.162.166 2.993.499.333 0 .832.166 1.165.333-.832-.499-.666-.999-.333-.999.499 0 .499-.166.832 0l-.167-.166c-.332-.499-.166-.666 0-.832h.499c.166-.167.998.499.832.832 0 .333-.167.499-.333.333a.36.36 0 0 1 .333.333c0-.166.166-.166.166-.333-.166-.166 0-.499.166-.499 0-.166.167-.333.167-.499l.332-.166c.167 0 .499.166.499.333.167 0 .167-.166.333-.166-.166 0-.166-.166-.166-.333-.499-.166-.666-.166-.832-.499-.166.166-.333.166-.665.166l-.167.166h-.166l.832-.166-.167.333c-.166 0-.332 0-.332-.166h-.333c-.166 0-.166 0-.333-.166-.332.166-1.164-.499-1.164-.832-.166-.166-.332-.333-.332-.499v-.166c-.333 0-.499-.333-.333-.499 0-.166-.166-.166-.166-.333-.666-.166-.666-.499-.499-.832-.167-.333-.167-.499.166-.666 0-.166.333-.499.665-.333v-.166c0-.166-.166-.333 0-.333.499 0 .333-.333.666 0l.332.333v-.333c.333.166.333.166.499.333v.166.333l-.166.166c0 .166-.166.166-.333.166v.333.166.166s0 .166.167.166c0 0 .332.166.166.499 0 .166.332.333.166.499h.166l.167.333.831.499v.166.166l.167-.333c.499 0 .831.166.998.499.166-.333.831-.166 1.164 0h.499c.332-.166.499 0 .831 0-.166-.166-.831-.333-.998-.499l-.332-.666c-.167-.166-.998-.832-.998-.999-.166-.166-.333-.166-.333-.333 0-.333.333-.499.499-.333l.167.333.332-.333.333.166h.332c.167-.166.167-.333.832-.166v-.167c-.333-.333-.333-.333-.166-.666 0 0-.167 0 0 0-.333-.166-.499-.333-.333-.666 0 .166-.333-.333-.166-.499v-.333s0-.166-.167-.166c0-.166-.166-.166 0-.333h.167c0-.166 0-.166 0 0 0-.166 0 0 0 0h.166c-.166-.166-.166-.166.166 0-.166 0-.499-.333-.499-.333-.166.333-.665.166-.997 0h-.832c-.166.166-.499 0-.665 0h-.167c0 .166-.166.166-.332.166l-.167-.166c-.166.166-1.164-.333-1.33-.499h-.166l-.167-.166c-.332 0-.499-.333 0-.166v-.333-.166c.167-.166.333-.166.666 0l.665.166h.166c.166-.166.832.166.998.166 0 0 0-.166.166-.166h.333c.166 0 .832 0 1.33.166 0 0 .167.166.167.333h.166l.333.333v-.333l.499.166h.332.167l.499-.166h.332.166c.167 0 .499.166.832.333l.499.166.333.166c.166.166.332.333.499.333l.166.166.166-.333c.166 0 .333.166.333.166s.332.166.499.166c.166-.166.332-.333.499-.333-.167-.166-.167-.333 0-.333 0-.166.166-.166.332-.166h.167.166l.166-.166h-.166l-.333-.166-.166-.166-.333-.166c-.166 0-.332 0-.499-.166-.166 0-.166 0-.332-.166l-.333-.166-.332-.333c0-.166 0-.333.166-.333 0 0-.166 0-.333-.166l-.332-.333a.36.36 0 0 1 .332-.333s.333.166.499.166.166.166.166.166h.167s.166 0 .166.166c0 0-.166 0-.333-.166l.167.166v.166h.332l.167-.166h.166.166.167l.332.166.333.166.166.166v.166l-.166.166v.166h.166.167.332l.166.333.167-.333.332.166.167.166.166-.166h.166.499s0-.166-.166-.166l-.166-.166c0-.166-.167-.166 0-.333 0 0-.167 0-.167-.166s.167-.166.167-.166l.166-.166c23.45 11.651 40.58 33.953 45.403 60.582-.166-.333-.166-.666-.166-.666h-.166c-.166 0-.167 0-.167-.166-.166 0-.332-.167-.332-.167-.333-1.498-.333-1.498-.499-1.997s-.333-.832-.499-1.165c-.166 0-.333-.333-.333-.499 0 0-.166-.666-.332-.832-.167 0-.167-.166-.167-.333-.166-.499-.332-.666-.498-.999l-.167-.333s0-.167-.166-.499v.166s0 .166-.166.166v.166c0 .166 0 .166-.167.166 0 .333.167.499.167.832s.166.499.166.832v.666c0 .499 0 .999.166 1.498 0 .499.167.999.167 1.498v.333.832.333l.166.332c.166.666.166.833 0 1.165 0 0 0 .167-.166.167 0 .333 0 .499-.167.666 0 .333.499 2.163.832 2.829.166.333.166.832.665 4.161v.832c.333 0 .333.167.499.666 0 .166.166.166.166.333s.167.333.167.499.166.333.166.499 0 .333.166.5c.333.998.333 1.165.333 1.331 0 .832.166 1.332-.167 1.831-.166.333-.166.499-.166.499-.166 0-.332.167-.332.167-.167-.167-.167-.167-.666-2.996 0 .166 0 .333-.166.499 0 .167-.166.167-.333.167h-.166l-.333-.167c-.831-1.664-1.164-3.162-1.663-4.66-.499-1.664-.998-3.495-1.829-5.16-.499-.665-.665-1.497-.832-2.163l-.499-1.498c-.166-.333-.166-.333-.332-.999-.167-.333-.333-.665-.333-.998s-.166-.5-.333-.666c0 .166-.166.166-.166.333s-.332.333-.499.333c-.332-.167-1.663-1.498-1.996-1.998v-.333s0-.166.167-.166c-.167 0-.333-.333-.998-.999h-.166c-.167 0-.333-.166-.499-.333-.666-.666-.832-.999-1.165-1.664.167.166.167.166-.332.499h-.499c.166 0-.166.499-.499.333 0-.167-.499.499-.499.499-.333 0-1.829.166-2.162-.166-.166.166-.333.333-.832 0 1.331 2.829.998.832 2.994 3.162.998-.333.832 2.663.665 3.661l-.166.167c.166.665.499 1.165.499 1.664l-.998 2.33c.166.666.166 1.165-.665 1.165l-.333.333c-.499.666-.499.666-.332 1.664 0 .167-.167.333-.167.333l-.332.333c-.167.167-.333.499-.666.666l-.499.499c-.166.832-.499 1.165-.997 1.332a1.3 1.3 0 0 1-.666.665c-.332.333-.332.333-.831.5-.167.499-.832 1.498-1.331 1.498.166.332 0 .665-.166.832.332.166.665 1.165 1.164 1.331 0 0 .166-.166.166-.333.167-.166.499-.499.832-.499l.333.167c.166-.666.166-.666.332-.833.499-.166.499-.166.665-.499 0 0 .333-.166.499-.166h.333c.166-.5 0-.333.499-.666.166-1.332 1.497-.832 1.33.333 0 0 .167.665.167.998 0-.166.332.167.332.5 0 .166-.332.499-.499.499 0 0 0 .166.167.499s.166.666 0 1.165c-1.331 5.16 0 6.491-3.659 12.15-.665 1.165-2.329 4.827-2.827 5.992 0 0-.333.333-.499.333 0 0-.167 0-.167.333-.166.499-.499 1.664-.499 1.997l-.166.499-.499 1.498c-.166.499-.166.499-.166.832 0 .167.166.333.166.499.166.167.333.5.333.666 0 0 0 .333-.167.333-.166.167-.166.167-.166.333.333.499 0 .999-.166 1.498.166.166.166.499.166.832s0 .666.166.832c.499.5.666.666.333 1.332-.166.166-.166.166-.166.665-.167.5-.499 3.496-.499 3.828 0 0 .332.833-1.331 3.163l-.499.499c-.831.666-.831.666-.998.666s-.166 0-.332.333c-.333.333-.333.499-.499.665-.333.167-.499.5-.665.833s-.333.665-.666.998h-.499l.167.167s-.499.665-.665.832l-.167.333-.166.166c-.166.333-.166.333 0 .499 0 .167.166.5.166.666v.666c0 .333 0 .499-.166.832-.499 1.498-.499 1.498-.665 1.831 0 .166.166.166 0 .333-.167.333-.167.333-.499.665 0 .167-.333.333-.499.5s-.665.333-1.164.666c0 0-.499.332-.832.832v.166c0 .832 0 .832-2.994 4.494-1.164 1.498-1.164 1.498-2.993 3.162-1.996 1.831-2.661 1.997-2.994 1.997.166 0 0 .167-.166.333h-.499c-.166 0-.499.167-.665.167h-.167-.332s-.167.166-.499.166h-.333s-.998.333-1.33.499h-.333c-.333.167-.499.333-.665.333h-.167-.166l-.166-.166-.167-.333h-.166c-.166 0-.332 0-.332-.166 0 0-.167-.333 0-.5l.166-.333c0-.166 0-.332-.166-.332 0-.167-.167-.5 0-.666.665-.333.665-.5.665-1.332 0-.166 0-.333-.167-.499 0-.333-.166-.499-.166-.832 0-.832-.166-1.332-.499-1.831-.166-.333-.332-.666-.332-.999-.167-.499-.167-.665.166-1.165-.166-.166-.166-.665 0-.998 0-.333.166-.5 0-.832s.166-2.164.333-2.497c-.167-.333-.167-.666-.333-.832-.166-.499-.499-.999-.499-1.664 0-.167-.166-.5-.166-.666s-.167-.5-.167-.832c0 0 0-.167-.166-.333-.665-1.165-.665-1.165-.499-1.997 0 0 .166-1.166.166-1.498l.998-3.329c0-.499.167-.666.333-.999.166-.166.166-.333.166-.333.832-2.496.998-2.829.998-2.995-.499-1.166-.499-2.164-.333-2.331l.333-.332v-.167c0-.333-.166-.666-.333-1.165l-.498-1.498s-.167-.166-.167-.333c-.166-.166-.166-.333-.332-.665 0-.167.166-.333.166-.5-1.164.167-1.331-.166-1.331-.333-.499-.832-.831-1.498-1.164-1.997-.665-.832-1.33-1.664-1.497-2.829-.332-.5-.332-.666-.332-.999a.36.36 0 0 1 .332-.333h.167.332v-.665a1.28 1.28 0 0 1 .333-.833v-.665l-.166-.167v-.333s0-.166.166-.166c.166-.499.665-1.498.333-2.497-.167-.166-.167-.333-.167-.499-.166 0-.166 0-.332-.166s-.167-.167-.499-.833h-.499l-.998.333h-.333-.166c0 .167-.166.167-.166.167h-.499c-.333 0-.333-.167-.666-.333-.831-.832-.831-2.33-1.829-2.663h-.333-.332l-1.164.166c-.832.333-.998.5-1.497.832l-.167.167c-.166 0-.166 0-.332-.167-.333.167-.499.333-.665.5l-.333.333-.665.499h-.167-.166c-.499 0-.499.333-.998.666-.499 0-.499 0-1.164-.333-.166 0-.499-.167-.665-.167l-.333-.166c-.333 0-1.663.166-1.829.333-.333 0-.499.166-.998.499s-.665.499-1.331.666h-.166c-.333 0-.499 0-.665-.167-.333-.166-.499-.332-.998-.998-.166-.167-.998-.999-1.663-1.332-.167 0-.333-.166-.333-.166-.166-.167-.166-.167-.665-.832l-.499-.5c-.166-.166-.499-.332-.665-.499l-.499-.333-.167-.333-.166-.166-.333-.333c-.166-.666-.166-.666-.166-.999-.333-.499-.333-.665-.333-.998-.498-.333-1.164-.666-1.33-1.332l-.166-.166c-.499-.333-.499-.499-.499-.999v-.166c-.998.166-1.164-.167-1.497-.666zm56.879-30.291c.665 1.332.333.832 1.33 1.831.167.166 1.497 1.165 1.497 1.664l.333.333c.499-.499 1.33.166 1.164.832.166.832.499.166.333 1.165l.332.333c.167-.166.499-.333.998-.333-.166-.499 0-2.829.499-2.829l-.166-.333c-.166.333-.333.499-.499.333v.166c0 .166-.166.166-.333.166l-.499-.166c-.166 0-1.164-.333-1.496-.832-.333-.333-.333-.333-.666-.333s-.665-.333-1.995-2.164l-.333-.166-.333-.333s-.166 0-.332.166c.166 0 .166.333.166.499zM168.31 96.2c.998 1.331 1.331 3.162 2.661 4.161.167.166.333.665.167.832 0 .499.166.499.499.832.499.166.499.333 1.497 1.831.665.998.665 1.997 1.164 2.996 0 .166.166.332.166.499 1.164.832 1.497.998 1.996 2.829.166.666.332 1.332.831 1.665 2.495 1.83 2.495 1.83 2.661 2.33l.167.166c-.167-1.331-2.329-5.492-2.828-6.324-.332-.666-.831-1.332-1.33-1.831-.333-.333-.499-.666-.665-.999-.832-.998-.832-.998-.832-1.664-.333-.832-.832-2.497-1.663-2.996v-.166h-.166c-.167 0-.832-.5-.998-1.332 0-.166 0-.166-.333-.499s-.665-.832-.831-1.498c-.499-.999-.666-1.498-1.331-1.498h-.166l-.666.666zm-37.586-28.627v-.333h-.167c0 .166-.166.166-.332.333h.332.167zm26.111-24.3h.166.166.167.166c.333.166.499.166.665.166s.167 0 .333.166v-.166c-.166 0-.333-.166-.333-.166-.166-.166-.332-.166-.332-.166h-.167-.166-.166c-.333.166-.499.166-.499.166zm-16.798 14.979c0 .166 0 .166 0 0 .167.333.167.499.167.666v.166c.166.333.166.333.332.499-.166-.166.499-.166.499 0 .333.333.665.499.832.999l-.333.333.333.166a.36.36 0 0 1-.333.333c0 .166-.166.166-.166.333a7.01 7.01 0 0 0 .332.832h.167c-.167-.832 1.33-1.332.998-.166l-.167.166h.167v.499c0 .333-.167.666-.499.499 0 0 0-.166-.167-.166 0 .333.167.832-.166.832-.166.166-.333 0-.665.166v.166c.166-.166.166 0 .166 0 .832.666.665 1.165 0 .999-.333-.333-.166.166-.499-.333h-.166-.499v.333c.499-.333.665-.166.998.333h.166c.499-.333.998-.832 1.497-.999.499 0 .665 0 .831.333-.166-.333 0-.666.333-.666l.166-.333-.332.166c-.499-.666-.499-.999-.499-1.165l.166-.499-.333.166v-.499l-.166-.166c-.166-.166-.332-.333-.332-.666l.498-.166-.332-.333.166-.333c0-.166 0-.333.166-.333l.333-.333s-.166.166-.333.166h-.332-.832c-.166 0-.332-.166-.332-.166-.333 0-.333 0-.666-.499l-.499-.832c-.166-.166-.332-.333-.332-.499l-.166-.333c0-.499-.167-.666 0-.832a.36.36 0 0 1 .332-.333c-.166 0-.166-.166 0-.333v-.166-.666-.166l-.665.333c.333.166.333.166.499.333v.499l-.166.333c-.333.333-.333.499-.499.499.332.333.332.666.332.832zm-5.654 12.316v-.166h-.167l.167.166zm-2.329 18.141c.665.832.333.333 1.497.333.499-.166.499-.333.998.333-.166-.166.333-.333.499-.333.332-.499.831-1.165 1.164-.666h.166c0-.499-.166-.499.499-.999.167-.333 1.663-.499 1.497-.499.665 0 1.996-.832 2.495-.333 0-.166.166-.166.332-.166a.36.36 0 0 0 .333-.333c.333 0 .333-.333.665 0 .167-.166.832-.166.998.166 1.497-.666 1.497-.666 1.663-.666l.333.333c.166-.166.333-.333.499-.333.499 0 .499.666.332 1.165-.166.166-.166.333 0 .499l.333.333c.333.499.166.999 0 1.498s-.332.666 0 .832c-.166-.333.998-.166.998.333 5.322 2.164 4.657 1.831 7.484 3.162v-.166c.166-.166 0-.666-.166-.999-.333-1.165-.333-1.664.998-2.497.499-.166.665-.333 1.829.666h.333l.499.166c.665-.166.998.166 1.164.499 1.164 0 2.827.333 2.993.333v.166c.167-.166.499-.666.666-.666.166-.499.499-.666.998-.666l.332.333v-.333c.499-.166.333.166.998.499.333-.333.333-.166.832 0v-.333c.166-.333-.499-3.495-.499-4.161-.167-.166-.333-.333-.333-.832-.332-.333-.166-.166-.499-.666l.166-.333h-.332s-.166-.166-.166-.333c-.167 0-.499 0-.499-.166 0 .333 0 .333-.333.666-1.164.666-1.164 0-2.495-.499.167.499 0 .999-.166.999h-.499c-.665-.333-.166.166-.832-.499v-.166c0 .666-.332.999-.498.999-.333 0-.666-.666-.499-.999-.333.333-.666.499-.666-.499l.333-.166-.333 1.165v.166-.166l-.332-.499c-.333 0-.333 0-.499-.499l-.167-.166c-.498.333-.997-.499-.665-.999-.332-.166-.332-.166-.499-.499 0 0 0-.166.167-.166-.333-.499-.499-.999 0-1.165-.167 0-.499.166-.666-.166-.166 0-.499 0-.665-.166-.166.499-.333.999-.831.999l1.496 1.332c.666.333 1.331.832.666 1.332v.499h-.499c0 .166 0 .166-.167.166.333.499.832 1.331.333 1.331 0 0-.333 0-.333-.166-.166 0-.332.166-.332.166-.167 0-.333-.166-.499-.333-.832-.166-.665-.499-.998-1.332l.166.166c-.166 0-.332.166-.499.166-.332 0-.665-.499-.499-.666-.332-.166-.332-.666 0-.832-.499-.832-1.496-.832-1.33-1.498-.499-.499-.499-.499-.499-.666s-.333-.999-.333-1.165c-.499-.832-1.663-.999-2.494-1.165-.167 0-.167-.166-.167-.166-.166-.166-.332-.166-.499-.499l.167-.333-.333.166c0-.166-.166-.166-.499-.166-.499-.166-.333-.333-.499-.666-.166 0-.333 0-.499-.166-.166 0-.332 0-.499-.166l.167-.499-.832.166c0-.166-.166-.166-.166-.333l-.167-.166c.167.333.167.666 0 .832.167.166 2.661 2.33 2.994 2.497.166-.166.499-.166.998.166 0 0 .166.333.166.499.333 0 1.497.499 1.83.832.665.666.665.999.665 1.331l-.166.333c-.333.333-.666-.166-.998-.499h-.333l-.166.499.332-.166s.333.166.499.333c0 .166.167.832.167.999-.167 0-.333.333-.499.333 0 .333.499.499.166.666h-.333c.167.166.167.666-.499.499v.166c.998 1.332-.332 2.164-.997 1.165-.333 0-.333-.166-.499-.333-.998-.666-1.996-.499-1.331-1.664.166-.166.333-.166.499-.166.166-.166.333-.166.665 0h.499c.167-.333.167-.333.666-.333l.332-.166c-.166 0-.166-.166-.166-.333-.166-.166-.499-.832-.665-.999 0 .166-.832-.333-.998-.499a.36.36 0 0 1-.333-.333l-.333-.166-.332-.333h-.167c-.498 0-.997-.333-1.33-.666-.166-.166-.333-.166-.499-.333h-.166s-.333-.333-.333-.499c-.166.166-.333 0-.499 0 .166.499.166.999.166 1.332.666.499.666 1.498.832 2.164.166.499.166.666-.166.999h-.333c0 .499-1.33.666-1.33-.666 0-.999-.998-1.165-.499-2.164 0-.166.166-.166.332-.166 0 0-.499-.832-.499-.999-.166-.333.499-1.165.666-1.332.166 0 .332.166.499.166l.166-.166a.36.36 0 0 1-.333-.333c-.332-.333-.332-.333-.831-.666-.333.499-.832 1.498-1.165 1.332v-.166c-.498.499-1.33.333-2.162.166-.332.166-.332.166-.332.333s.332.999.332.999c-.166.499-.831 1.332-1.496 1.664-.167.666-.998 1.997-.499 2.33.166.166.332.666-.333 1.165-.166.166-.333.666-.499.832h.333c0 .166-.167.499-.333.499h-.499c-.166.166-.332.666-.332.832l-.666.333h-.998l-.332.166-.333-.333v.333c-.166.166-.166.166-.499.333zm5.489-4.66c-.167-.333-.666-.333-.832.166l-.166.333c0 .832 1.33.832.998-.499zM87.981 194.23c-3.16-1.331-6.154-2.829-8.981-4.66-.166-.166-.166-.333-.166-.333v-.166h-.333s-.333-.167-.998-1.165c-.333-.333-.333-.333-.499-.666v-.167l-.665-.665c-.333-.832-.333-.832-.499-.999v-.166c-.166-.167-.166-.333-.333-.333l-.665-.666c-.166-.166-.333-.333-.333-.499l-.832-.832s-.166-.333 0-.333c0 0 0-.167.166-.167v-.166c0-.167 0-.167-.166-.666-.166-.333-.166-.499-.333-.832 0-.167-.166-.499-.166-.666-.166-.333-.166-.666-.333-.832-.499-.666-.832-1.165-1.164-1.831-.166-.333-.333-.666-.499-.832l-.166-.333c-.333-.666-.333-.666-.333-.998 0-.167 0-.333-.499-.833-.166-.166-.166-.333-.333-.333l-.166-.332v-.333l.166-.333-.333-.167s-.166-.499-.166-.998c0-.333 0-.333-.333-1.332-.333-.166-.333-.166-.499-.665 0-.333-.333-1.165-.499-1.665 0-.166 0-.333-.166-.499s-.333-.333-.333-.666-.166-.499.166-.666c-.166-.166-.333-.332-.333-.665 0-.167-.166-.333-.166-.666l.166-.333-.333.167c-.333-.666-.499-.999-.499-1.498-.166-.333-.166-.666-.333-.999-.166-.166-.166-.333-.333-.499-.166-.333-.166-.5-.333-.666-1.331-.666-1.331-.666-1.331-.832 0 0-.499-.333-1.663-1.332l-.665-.499c-.333-.166-.333-.166-.499-.333s-.333-.333-.665-.499c-.166-.167-.333-.333-.665-.5-.333-.332-.499-.499-.665-.832l-.166-.499c-.499-.499-.665-.999-.499-1.331l-.166-.333c-1.663-2.497-1.663-2.497-1.829-2.996l-.499-.999c-.333-.666-.499-1.331-.832-1.831-.333-.665-.665-1.331-1.164-1.997-.665-.832-1.164-1.664-1.497-2.663 0-.166 0-.166.166-.998-.166 0-.333 0-.333-.167v-.499c-.499-.666-.166-1.498.166-2.164l.166-.333.166-.166-.499-.499-.333-.5c0-.166.166-.333.166-.499-.499-.499-.166-1.664 0-1.831l.166-.166v-.5l.166-.499v-.998a.36.36 0 0 1 .333-.333c.166 0 .333-.167.499-.333h.166v-.5c0-.166.166-.332.166-.332 0-.333 0-.333.166-.666.333-.333.499-.499.831-.499-.166-.167-.166-.167.166-.666l-.166-.167-.166-.665.166-.5c0-.166.166-.166.166-.166v-1.664c0-.167 0-.167.166-.167l.166-.166c-.166-.5-.166-.666-.166-.833-.166-1.664-.499-2.829-.665-3.328-.333.333-.333.499-.499.666h-.166c0 .166.166.332.166.499v.333l-.166.333c0 .166-.166.166-.333.166h-.499l-.333-.333h-.333-.166l-.166-.333v-.499c0-.167.166-.333.166-.333h-.166l-.166.167h-.333s-.166-.001-.333-.167l-.166-.333c0-.166-.499-1.165-.665-1.997h-.166c-.166 0-.333-.166-.333-.166 0-.167-.166-.333-.166-.5-.166-.333-.166-.666-.333-.998a.36.36 0 0 1 .333-.333c-.166-.167-.166-.333 0-.5v-.332c-.166-.333-.166-.333-.333-.999 0-.166-.166-.333-.166-.499-.166-.333-.333-.666-.333-.999h-.166l-.333-.333c-.166 0-.333-.166-.499-.333-.333-.166-.499-.333-.665-.499s-.333-.333-.665-.499c0 0-.333-.333-.333-.5l-.166-.333v-.332c-.166-1.831-.333-1.998-.832-2.497-.166.167-.333.167-.499.333s-.499.166-.832.166c-.166 0-.333-.332-.499-.499 0 0-.333-.166-.333-.333l-.166-.333c-.166 0-.166-.333-.333-.499l-.166-.166-.166-.167c-1.164-2.496-1.164-2.496-1.33-2.663l-.166-.333c0-.665 0-.665-.166-.832.333-1.165.333-1.331.333-1.498.166-1.165.166-1.498.499-1.831 0-.166.166-.332.166-.499.166-.333.166-.333.166-.832l.333-1.997c0-.333 0-.499.166-.666l.166-2.496c-.166-.832.166-1.165.333-1.332 0 0 0-.166.166-.166v-.166c0-.166 0-.333.166-.499 0-.333.166-.666.333-.832v-.499-.666c0 .166 0 .166-.166.333 0 .166-.166.333-.166.666 0 .166 0 .333-.166.666 0 .166-.166.333-.166.333l-.333.999c0 .166-.333 1.332-.499 1.664-.166.166-.166.333-.166.333.166.333-.166 1.498-.166 1.664-.166.333-.166.333-.333.499-.166.333-.333.333-.499.333 0 0-.333-.166-.333-.333s0-.333.166-.832c.166-.333.166-.333 0-1.165l-.166-.166c-.166 0 0-.666 0-.832.166-.333.166-.499.333-.832s.333-.666.333-.999v-.333-.333c-.166-.333-.166-.333-.166-.499-.166-.333 0-.666 0-.832v-.333l.166-.333c0-.166 0-.166.166-.499s.166-.333.333-.499h.166.166s.166 0 .166.166c0-.166 0-.166.166-.333v-.333-.666c.166-.499.166-.499.333-.832 0-.166 0-.333.333-.666 0 0 0-.333.166-.499 0-.166.166-.166.166-.333s0-.333.166-.499c.166-.333.333-.499.333-.666.166-.499.333-.666.665-1.165l.166-.333c.166-.499.166-.499.166-.832h-.166c-.166 0 0-.166 0-.333.333-.666.333-.666.333-.999.831-1.831.998-1.997 1.164-2.164.166-.666.499-1.165.831-1.664.166-.166.333-.499.499-.666s.166-.333.333-.499.333-.333.499-.666l.333-.333c.166-.832 2.495-2.829 2.495-2.996.665-.832 1.331-1.498 2.162-1.997.665-.499 1.331-.999 1.829-1.664l.333-.333.499-.499.333-.333.499-.499.499-.499h.166c0-.166 0-.333.166-.499 0-.166.166-.333.166-.333.166-.333.333-.333.333-.499 0 0 0-.333.166-.499.333-.333.333-.499.499-.666s.166-.166.499-.333h.166.166l.166-.166.665-.666.166-.166c-.499.499-.665.499-.665.499h-.166-.166c-.166 0-.166-.166-.166-.333s0-.166.333-.499l.333-.333c.166-.166.998-1.165 1.164-1.165 0 0 .499-.499.665-.499 0 0 .166 0 .166.166v-.166h.499l-.166-.166.333-.499.333-.333.333-.333v-.166l.499-.499v-.166l.499-.333a.36.36 0 0 0 .333-.333c.333-.333.333-.333.665-.499.166-.333.333-.499.333-.499.166-.166.166-.333.166-.499l.166-.166v-.167l.166-.166c-.166 0-.166 0-.166-.166l-.166.166c-.166 0-.333 0-.333-.166v-.166h-.333c-.166 0-.166 0-.166-.166h-.333c-.333 0-.333 0-.499.166-.166 0-.333-.166-.499-.166 2.328-2.33 4.823-4.327 7.484-6.325h.166.166l.333-.333c.333-.166.499-.333.499-.333l.499-.499c.333-.166.333-.166.665-.166h.166.166l.166.166c.166-.166.333-.166.665-.333l.333-.166c.333 0 .499-.166.832-.166h.499c.333 0 .499-.166.665-.166s.333 0 .333.166l.499-.166h.166c.166 0 .333 0 .333.166v.333c0 .166.166.333 0 .499l.166.166v.333l.166.166h-.166v.166l.333-.166c.166 0 .166.166.166.333v.166c.166 0 .166.166.166.166 0 .166.166.166.166.333h.333c.166-.166.333-.166.499-.166h.166.166c.166 0 .166 0 .333.166 0-.166.166-.166.333-.166h.333c.166 0 .333.166.333.166.166 0 .166 0 .333-.166 0 0 .166-.166.333-.166s.333 0 .333.166v.333c.166 0 .166 0 .166.166v.166c.166 0 .333.333.333.499l.166.666v-.333h.166c0-.166.166-.499.499-.666.166-.166.166-.166.665-.166v-.166h-.166c-.333.166-.333.166-.499.166s-.166 0-.166-.166l-.166-.166c0-.166.166-.333.333-.499h.166l-.166-.166c0-.166.166-.333.333-.499.333-.166.832-.333.998-.333.333-.166.333-.166.499-.166.166-.166.499-.166.832-.333.166 0 .333 0 .333-.166s.166-.166.499-.333l.333-.166c.166 0 .333 0 .499.166l.333-.166s.333.166.333.333c.166 0 .499.166.499.166v.499.166.166s0 .166.166.166h.166.166c.166 0 .333 0 .333.166v.166h.166l.333-.166h.333c.166 0 .166 0 .333.166 0 0 0-.166.166-.166h.333l.166.166.166-.333c.333 0 .499.333.499.499 0 0 0 .166-.166.166.166-.333.166-.333.333-.333l.333-.166s.333-.166.499-.166h-.166-.166l-.166-.166h-.166l.166.333h-.166-.166s-.166 0-.333-.166c-.166 0-.499.166-.499.166h-.166c-.166 0-.333.166-.333.166-.166 0-.333 0-.499-.166l-.166.166h-.333l-.333-.166s-.166-.166-.166-.333h.333l-.832-.166-.166-.166c-.166 0-.166 0-.333-.166v-.333c0-.166-.166-.166 0-.166.166-.166.166-.166.665-.333.166-.166.333-.166.499-.166s.499.166.499.166l.166-.333.499.166v-.333h.499.499c.166 0 .166-.166.333-.166 0 0 .333 0 .333.166s.166.499.166.499c-.166.166-.333.166-.499.333h-.166v.166c.166-.166.333-.333.499-.333h.166c0-.166-.166-.333 0-.333l.333-.333.499-.166s0-.166.166-.166l.499-.166h.333s.166 0 .333-.166h.166.333c.166 0 .166.166.166.333 0 0 0 .166-.166.333.166 0 .166.167.166.167s0 .333-.166.333v.166h.333.166c.166 0 .333 0 .333.166l.333-.333c-.166 0-.333-.166-.333-.166h-.166c-.166 0-.166 0-.166-.166 0 0 0-.333.166-.499v-.166l.333-.333.499-.166h.333s.166 0 .333.166h.166s.166.333.166.499c0 0 0 .166-.166.166l.166-.166h.499c0 .166 0 .166.166.166v.166l-.166.167-.166.166c-.166 0-.166 0-.333.166h.166.166l-.333.166h-.166-.166s.166 0 .166.166h.166l.166-.166.333-.166.166-.166v-.333s0-.166.166-.166h-.333c-.166 0-.166-.166-.166-.166v-.166c0-.166 0-.333.166-.333l.333-.166s.499 0 .499.166v.166l.332-.333.333-.166.832-.166.665-.166s.166 0 .166.166c0 0 0-.166.166-.166.998-.166 1.165-.166 1.331-.166h.166.167.332.333c.166 0 .166 0 .332.166.666-.333 2.495-.166 3.16-.166l.499.333-.166-.333h.499c.166 0 .499 0 .665.166.333 0 .499.166.499.166h.333c.166 0 .332 0 .332.166.333 0 1.331-.166 1.664 0 .166-.166.332 0 .499 0 .166-.166.332-.166.665-.166h.166c.166-.333.333-.333.499-.166.333-.166.665-.166.665-.166h.167.166.333.166l.166-.166h.166.167.166.166l.167.333.166-.333c.333-.166.333-.166.665-.166.167 0 .499.166.499.166.499-.166.665-.166.832-.166s.332 0 .665.166l.333.166h.166.166s.333 0 .333.166l.166.166h.167.166.166.166l.167.166c.332-.166.499-.166.499-.166l.499.333v-.333h.166c.333 0 .333 0 .499.166.166.333.333.499 0 .832 0 .166-.166.166-.333.166h-.166c0 .166-.166.166-.333.166 0 .167-.166.167-.332.167l-.167.166s-.166.166-.332.166h-.167l-.166.166c.166 0 0 .166 0 .166s0 .166 0 0v-.166h-.166l.166.166.166.166h.167v.166c.166.166.332.499 0 .832v.333l.332.333c0 .166-.166.666-.332.666h-.167c-.166.166-.332.333-.665.499v.166h-.332l.166.333h-.333c0 .333-.166.499-.166.666.333.499.333 1.664-.166 1.498 0 .167-1.83 1.165-1.996 1.332-.333 0-2.162.499-2.661.499-.499.499-.166-.166-.665.499-.167 0-.167.166-.167.166l-.332.333c-.167.167-.666.666-.832.499 0 0-.166.166-.332.166-.499.166-.666.499-1.165.499h-.499c0 .166-.499.666-.665.666-.166 1.165-1.829 1.664-1.996 2.33-.166.499-.499.832-.665.999-.499.499-.831 1.332-1.497 1.332h-.166v-.333l-.333.166v-.166h-.166c-.333 0-.333-.166-.499-.499 0 0-.166 0-.166-.166-.167.166-.333.166-.333 0-.499.333-.665 0-.665-.333l.333-.333h-.333c-.333-.333-.166-.333-.166-.666-.167-.166-.167-.166 0-.333-.167-.333 0-.499 0-.666-.167-.166-.167-.832 0-.999 0-.333.166-.499.332-.832-.166-.166 0-.499 0-.666-.166-.166 0-.499.167-.666-.167-.333.332-.832.665-.999.166-.166.166-.166.332-.166 0-.166.167-.166.333-.333l.166-.166c-.499-.666-.166-1.165.167-1.165 0-.166 0-.333.332-.333-.332-.166 0-.666.167-.832.166-.333.166-.499.332-.666v-.166c0-.166 0-.333.167-.499v-.166l.166-.167v-.166-.333h-.333c-.166 0-.499 0-.499-.166h-.332c-.167.166-.333.166-.499.166 0 0-.167-.166-.333-.166-.166.166-.665.166-.831-.166h-.167v-.166l-.166-.166c-.166-.166 0-.666 0-.666h.166v-.166c-.332.166-.166.166-.499.333h-.831s-.167.166-.499.333c-.333.333-.499.499-.665.499h-.333l-.499-.333v.333h-.166v.166c0 .166-.167.166-.167.333-.166 0-.166.166-.332.166s-.333.166-.499.166c.166 0 .166 0 .332.167.167 0 .167.333.167.499s0 .166-.167.333v.333.166c.499.166.666.333.666.499.166.166.499.166.499.333v.333.333s-.167.166-.167.333v.166c0 .166-.166.333-.166.333l-.333.166h-.332.166c.166 0 .166.166.333.166.166.166.166.166.166.333 0 0 .166 0 .166.166l.333.333c.166.166.166.333.166.333.167 0 .167.166 0 .333 0 .167-.166.167-.332.333l-.333.333-.333.333-.166.166s-.166.166-.333.166h-.498c-.166.333-.499.499-.832.499-.166 0-.166-.166-.333-.166s-.166-.166-.166-.333v-.666l-.166.166v.333c.166.166.333.666.333.832a.36.36 0 0 1-.333.333c.166.333-.333.832-.499.832h-.166-.166l-.166.499c-.166.167-.166.333-.499.333h-.333v.166l-.499.666h-.166c-.166 0-.333-.166-.333-.166v-.333c-.166-.333-.166-.333-.499-.333 0 0-.499 0-.499-.166-.166-.167-.166-.167-.166-.333h-.166c-.333 0-.499-.499-.499-.666s.166-.333.166-.333v-.166l-.166-.166c0-.166.166-.333.166-.499h-.166-.166c-.166 0-.333 0-.333-.166h-.333-.166-.499v.499l-.333.166h-.166s-.166 0-.166-.166c-.166 0-.166.166-.333.166 0 0 .166 0 .166.166 0 0 .166 0 .166.166 0 0 .333-.166.665-.166a.36.36 0 0 1 .333.333v.333c.166 0 .166.166.166.333s0 .333-.166.333h.166.166.166v.167.333h.166c.166 0 .333.166.333.166v.499c-.166.166-.166.333-.499.499l-.333.166c-.166 0-.333 0-.333-.166v-.166s-.166.166-.166.333-.166.166-.333.166c.665 0 .665.166.665.166.166.166.166.333.166.333s.166 0 .166-.166c.166 0 .333-.166.333-.166h.166.333c.832-.666 1.663-1.498 1.663-1.498.166 0 .333-.166.499-.166h.166c.166.166.166.333.166.499-.166.166-.166.333-.333.333.166.166 0 .499-.333.832.166.166.166.166.166.333v.166c0 .166-.166.333-.166.333v.666h-.166v.333c0 .166-.499.666-.665.832 0 0 0 0 0 .166.166.166.166.333.166.333s0 .166-.166.166l.166.166.333.166c0-.166.166-.166.166-.166.166 0 .333 0 .333.166v.333s0 .166.166.166c0 .166-.166.499-.166.499h-.166v.166c.166 0 .499.499.333.832 0 .166-.166.333-.166.333l-.333.499-.166.499-.166.166c0 .166.166.333 0 .499s-.333.166-.333.333v.166l-.499.499-.333.333c.166 0 .166.166.166.166v.166h.166s.166-.166.333-.166.166 0 .333.166v.499c.166 0 .166.166.166.166 0 .333-.166.499-.333.666l.166.166c0 .333-.166.499-.166.666v.166l-.166.166v.333c-.166.333-.166.333-.333.499l-.499.166.333.166-.166.333c-.166.167-.333.333-.499.333 0 0-.166 0-.166-.166h-.333c-.166 0-.333-.333-.333-.333-.166 0-.166-.166-.166-.333l-.499.333c-.166 0-.166 0-.333-.166v.166s-.166.166-.333.166h-.166-.166c-.166-.333 0-.832.166-.832h-.665-.333-.333s-.333-.166-.499-.166c0 0-.166-.166-.166-.333s0-.333.333-.499l.333-.333c0-.166 0-.333.166-.499l.333-.166h.166.333.166l-.333-.166.166-.166c0-.166.166-.166.333-.333l.665-.166-.333-.166c0-.166.166-.166.333-.333l.499-.499h.166-.166l-.333.166s0 .166-.166.166c-.166.166-.333.333-.499.333l-.499-.166.166.333c.333.166.166.333 0 .333h-.499l-.333-.333v.333c-.166 0-.166.166-.333.166h-.166c-.166 0-.166-.166-.166-.333h-.333c.333.166.665.499.499.999 0 .166-.333.333-.499.333 0 0-.665-.166-.832-.166s-.333-.166-.499-.333-.166-.166-.166-.666c-.333 0-.166-.166-.166-.333-.499 0-.832.166-.998.166s-.166.166-.333.166h.333c.499 0 .665.166.832.333.166.333.333.499.166.832-.333.333-.333.499-.499.666s-.333.166-.333.166.166.166 0 .166c0 0-.166.333-.333.333s-.166.166-.333.166c.166 0 .166 0 .166.167v.499h.333c.166 0 .499 0 .665.166v.167l.166-.167c-.166 0-.333-.333-.333-.333 0-.333 0-.333.333-.666l.499-.499h.166.333s.166.166.166.333c0 0 0 .333-.166.333 0 .167-.166.167-.166.167.166 0 .333 0 .333.166s.166.333 0 .499c0 .167-.166.167-.166.333s.166.166 0 .333c-.166.333-.333.999-1.331.999-.166 0-.166.166-.499.333-.665.333-1.497.499-1.829.499-.333.166-.499.333-.665.333h-.166-.166c-.665.499-1.33.999-1.497.999 0 0-.333 0-.499-.166-.333-.499-.166-.832.166-1.165h-.333c-.166 0-.333.166-.665.333-.166.166-.333.166-.665.333-.166 0-.166 0-.166-.166-.333.166-.333.166-.499.166l-.333.166c0 .166 0 .166-.333.333-.166.166-.333.166-.499.333 0 .166-.166.333-.166.333s0 0 0 .166c.166.499-.166.999-.499 1.165v-.499l-.166.333c-.166.333-.333.333-.499.333s-.333-.166-.333-.166c-.166.166-.333.166-.499.166-.166.166-.166.333-.333.333l-.499.166-.333-.333v.333h-.499-.166c0 .166 0 .166-.166.333l-.832.832-.333.333-.665.499h-.166c0 .166 0 .166-.166.333-.333.499-.333.499-.832.832h-.499l.333.333c-.333.333-.333.333-.665.499v.166c-.166.666-.166.666-.499.999h-.166c0 .333 0 .499-.166.666-.166.333-.499.499-.832.499l-.499-.166.166.499c-.832.666-1.497.999-2.328 1.498-1.164.666-2.328 1.332-3.326 2.164-.831.832-1.164 2.496-1.164 2.829 0 .499 0 .666-.166.999-.166.166-.166.333-.333.832-.333 1.331-.333 1.664-.499 1.831s-.166.333-.333.499-.166.333-.333.333c0 .333-.166.333-.166.499l-.333.333c-.333.167-.333.333-.665.333-.166 0-.333-.166-.499-.166-.166-.167 0-.5 0-.833 0-.166.166-.333.166-.333-.166 0-.166-.166-.166-.333s0-.333.166-.499c-.166-.166-.166-.333 0-.666-.166-.166 0-.499.166-.999V96.2v-.166c0-.499.333-.832.499-1.165.166-.166.333-.499.333-.666 0 0 0-.166-.166-.166v-.166c-.166-.166-.166-.333-.166-.666l-.499.499h-.333a.36.36 0 0 1-.333-.333v-.666l-.333-.333c-.333.166-.333.166-.499.166l-.333-.166c-.166 0-.166-.166-.166-.166l-.166-.166v.333h-.166l-.166.166-.333.333c0 .166.166.333.166.499-.166.666-.333.832-.665.832l-.333-.166v-.166c-.166 0-.166-.166-.333-.166v-.166s-.166 0-.166-.166c-.166 0-.166-.166-.333-.333v-.166h-.166-.166l-.499-.499v.166c-.166.166-.333.166-.499.166v.166s0 .166-.166.166l-.166.166s-.665.499-.831.499h-.333c0 .166-.166.166-.166.333h-.333v.333l-.333.166c-.166.166-.333.499-.499.499 0 .166-.499 1.831-1.164 2.663-.665.999-.832 1.165-1.164 2.164-.665 1.997-.832 2.33-.832 2.33 0 .167 0 .5-.166.666 0 .166 0 .333-.166.666v.333c.166.665.166.832 0 1.498v.499c0 .333 0 .333.333.666 0 0 .166.333.166.499h.166c.166 0 .166-.166.333-.166s.333 0 .499.166v-.166l.166-.167h.166c.166 0 .166.167.333.167.166-.167.166-.333.665-.833.499-1.331.499-1.498 2.495-2.663.333 0 .665.167.832.167h.166.166l.333.166c.166.5 0 .832 0 .999v.166c-.665.832-.665.832-.998 1.498-.333.832-.333.832-.333.999l-.333.499c-.166.333-.166.333-.333.832l-.166.333c-.166.333-.333.666-.333.832-.166.333-.166.666-.333.833l-.166.166h.333c.499.333.499.333.832.333 0-.167.166-.167.499-.167 1.164.5 1.331.666 1.331 1.332h.333l.333.333c0 .333 0 1.165-.333 1.831l-.499.332v.666c0 .333-.166.499-.166.832-.832 1.998-.832 1.998 0 4.494 0 .167 0 .333.166.499.166 0 .333.167.499.333.166 0 .166-.166.333-.166s.333-.167.333-.167l.499-.499h.166.166l.333.167s.166.166.333.166v.166c.333 0 .499.167.832.666.166.167.333.666.333.832.333-.166.333-.333.499-.665l.333-.333.166-.167v-.665c.166-.833.166-.833.831-1.498.166 0 .333-.167.499-.167h.166l.166-.166h.166.166c.832-.333.832-.333 1.164-.5 0-.166.333-.499.499-.499l.333-.166c.166 0 .499 0 .499.166.166.167.166.499.166.832-.166.333-.333.666-.499.832h.333.166v-.166c0-.333 0-.666.166-.832 0 0 .166-.167.333-.167h.166.166l.166.167c.166 0 .166.166.166.333v.499h.333.166l.333.166c.166.167.166.167.166.333 0 0 .333.333.333.5s-.166.333-.166.333c.166 0 .166.166.333.166h.665c.166 0 .499 0 .665.166l.166.167-.166.333h.499s.166.166.333.166l.665-.333v-.333-.166l.166-.166s.166 0 .166-.167h.166c0-.166 0-.166.166-.166l.166.166v.167c0 .166 0 .166-.166.166l.333.166v-.332h.499.499.499c.166 0 .333 0 .499.166.166 0 .333-.166.499-.166 0 0 .333.166.499.166s.166.333.166.333 0 .166-.166.333c.166.333 0 .665 0 .832s-.166.166-.166.333c0 0 .333.166.333.333s.166.332.166.499c0 .333-.166.333-.166.499h.333c.166 0 .333 0 .333.167l.333.665c.333 0 .333.167.665.666.333.666.499.832.499 1.498h.166l.166.499.166-.332c.333.166.333.166.499.665l.499.5c.166 0 .333.166.832.166-.166 0 .166-.166.166-.166.499.166.665.166.998.166s.665 0 .998.166c.166.167.499.333.665.333 1.164.167 1.497.832 1.663 1.332.166.333.166.666.333.832h.166c.166 0 .333.166.499.666 0 .166 0 .166.166 1.498l.499.998c.333.333.499.832.665 1.332.166.333 0 .665-.166.998 0 .167-.166.333-.166.5.333 0 .499.166.665.499l-.166.166c1.164.167 1.164.333 1.331.5v.499c.166-.166.499-.166.832-.166s1.829.832 2.495 1.497c0-.166 0-.166.166-.166h.166c.166 0 .166 0 .166.166.166.5.166.5.333.666l.333.333c0 .167.166.167 0 .333v.166.167c.166 0 .166 0 .333.166h.333c.333 0 .665.167.998.333.166.167.333.167.499.167h.166c.333 0 .499 0 .998.332h.499c1.331 0 2.162.833 2.994 1.665.499.499.832.832 1.331 1.165.166.166.333.166.333.333h.166c.166 0 .166 0 .166.166.166 0 .166.167.333.167h.333c.333 0 .832 0 .998.499.665.999.998 2.829.998 3.661 0 .5 0 .5-3.16 6.491 0 .167 0 .167-.998.999l.166.666c0 .499.166.832.166.998.166.5.166.833.166 1.332-.333 3.495-.333 3.495-.166 4.66 0 .167-.166.333-.166.499l-.832 1.498s0 .167.166.333.166.5.166.832c-.166.333-.333.5-.665.5 0 .166-.166.499-.333.499-.665.333-1.164.333-1.829.333-.499 0-.832 0-1.331.166v.333c0 .167 0 .333-.166.333h-.333-.166c-.166-.166-.333-.166-.499-.166-.333.333-.333.333-.998.832-.333 1.498-.333 1.831.166 2.496 0 .333-.665 2.83-.665 2.83.166.499.166.665 0 .832 0 .333-.166.499-.166.666 0 0-.166.333-.333.333h-.333v.166c-.166.499-.166.499-.166 1.498-.665 1.498-.832 1.997-1.331 1.997-.166 0-.499-.166-.665-.333-.333 0-.665-.166-.998-.333-.166 0-.499-.166-.665-.166.166.166.499.333.832.499.831.5 1.996 1.165 1.497 2.497l.166.166v.333c-.499.499-1.164.666-2.495.832v.167c.166.333.166.333.166.499.333.166.333.166.499.499-.166.5-.166.832-.665.832-.166 0-.499 0-.832-.166l.333.333s.166-.167.333-.167c.333 0 .499 0 .832.5.166.166.333.499.166.666a.36.36 0 0 1-.333.332h-.166c.499.833.665.833.665 1.498 0 .167 0 .333-.166.333h-.333c0 .499.499.666 1.164.832.499.167.998.333 1.331.833l.166.332c0 .167-.166.333-.166.5-.166 0 0 0 .166.166zM107.44 46.768h.499-.499zm-2.329.333c0 .166 0 0 0 0h0zm-8.149 11.817h-.333v.333h.166l.166-.333zm-.333-10.652l.166.166c.166 0 0-.166-.166-.166h0zm-.166 6.491h0 0 0zm-.998-1.664h0c.166-.166.166-.166 0 0h0zm-.166.499c0-.166 0-.166 0 0 0-.166 0-.166 0 0zm-1.164-5.825c.166 0 .166-.166 0 0 .333-.166.499-.333.665-.333v-.166l.166-.166-.333.166c-.166 0-.333.166-.499.166.166 0 .166.166 0 .333.166-.166.166 0 0 0zm.499 1.331s0 .166 0 0h.333-.333zm-.998-.166h0 .499v-.333c-.166.166-.333.166-.499.333zm-1.164 3.495c.166.166.333.166.333.166v.333c.166 0 .333-.166.499-.166l.166.333.166-.166c0-.333.166-.499.166-.666-.333-.333-.333-.499-.166-.832.166-.166.166-.333.333-.333 0 0 .166-.166.333-.166l.333-.333h-.166l-.333.166-.333.166c0 .333-.333.499-.665.832l-.166.499c-.333 0-.333.166-.499.166zm-1.164 3.994s0 .333-.166.499c.166.333.166.499 0 .499.166 0 .333-.166.333-.166s.166 0 .166.166c0-.166 0-.166.166-.166h.166v-.166c.166-.499.333-.499.665-.832.166-.166.333-.166.499-.166 0 0 .333-.167.499-.167s.499.167.499.333c.166 0 .333-.166.333-.166h.166c.166 0 .166-.167.333-.167v-.333l.499-.333h.166-.499a.36.36 0 0 1-.333-.333c0-.166 0-.333.166-.333 0 0-.166 0-.166-.166v-.499c-.166.167-.499.166-.665.333 0 .166 0 .499-.333.666l-.333.166c-.166.166-.333.166-.499.166 0 0-.166.166-.333.166s-.166 0-.166.166h-.166-.166-.166-.166c0 .166-.166.333-.333.499h-.166v.333zm-1.663-5.16c0-.166 0-.166 0 0 .166-.166.499-.166.499-.166.166 0 .333.333.333.333l-.166.333s.166 0 .166.166h.166c.166-.166.333-.333.665-.333-.166 0-.166-.166-.333-.333v-.333h.166s-.166-.166-.166-.333c0 0 0-.166.166-.333-.166 0-.166.167-.333.167l-.333.333-.499.499c-.166-.166-.333-.166-.333 0 0-.166 0 0 0 0zm-.166.666h0 0zm0 5.659c.166 0 .333.166.333.166s0 .166-.166.333h.166c.166 0 .499.166.499.333.166 0 .166-.166.333-.166.166-.166.333-.166.499-.166v-.166-.333c-.166.166-.499.166-.665.166 0 0-.499-.166-.499-.333-.333.166-.499.166-.499.166zm-2.994-4.66h0l.166.333.166-.167v-.166l-.166-.166-.166.166c.166-.166.166 0 0 0zm-6.819 9.154c.166 0 .333 0 .333.166a.36.36 0 0 0 .333.333h.166c.166 0 0 .166 0 .333 0 .333 0 .499-.166.666.166.166.333.333.499.666.499.166.998.166.998.666.166.333-.333.832-1.33 1.664 0 0 .166 0 .166.166v.499c-.166.499-.499.499-.665.499h-.166s-.166 0-.166-.166v.166l-.166.166v.333h.166.166v-.166c.166-.166.166-.166.333-.166s.166-.166.333-.166c0 0 .166-.166.166-.333.166-.166.166-.499.333-.666s.499-.666.665-.666c0-.166 0-.333.333-.666.499-.333.499-.499.998-.499s1.996-.499 2.827-1.332c.333-.333.499-.666.665-.999.166-.499.333-1.165.998-1.498.166 0 .333-.166.499-.166.166-.166.333-.166.665-.333-.166-.166 0-.166.333-.499v-.166l.166-.166h-.166c-.166-.333-.166-.499 0-.666 0 0 0-.166.166-.166-.166 0-.333.166-.499.166h-.333l-.333-.166c0-.166-.166-.499 0-.666 0 0 .166-.166.166-.333-.166-.166-.333-.166-.166-.333 0 0-.166 0-.166-.166s-.166-.166 0-.333v-.166h-.333l-.333.333s-.166.166-.333.166h-.166v.166h-.499l.166.333-.499.166c-.166 0-.166.166-.166.166l-.499-.166-.166.166c-.166 0-.333.166-.832.333 0 0-.166.166-.333.166-.333.166-.665.333-.832.499l-.998.499c-.166.166-.333.333-.665.499-.166.166-.333.333-.665.499l.166.166c.166.166 0 .333 0 .499-.499-.166-1.164.499-1.164.666zM44.241 87.545c0 .166-.166.333-.333.499-.333.832-.499.999-.499 1.331l.499-1.165c0-.166.166-.333.333-.666-.166.166-.166 0 0 0zm26.111 34.785h-.166v.166l.166-.166zm74.009-78.225s-.166-.166-.332 0c-.333 0 .665.333.332 0zm-.831-.666c-.167 0-.167-.166-.333-.166-.332.166.832.499.333.166zm3.326 1.165c-.166 0 .333.333.333.166.166.166-.167-.166-.333-.166zm3.326 2.33s-.166-.166-.332 0c-.333.166.665.333.332 0zm53.719 57.919v.333c0 .167 0 .499.167.666 0 .166.166.499.166.666 0 .333 0 .499.166.665 0 .167.167.167.167.167h.166l-.499-3.495h-.166-.167c-.166 0-.166.166-.166.333 0 .332 0 .332.166.665zm-54.55-58.918h0c-.499-.499-.333 0 0 0zm38.085 67.406c-.332.167-.166 1.166.666.999h.166.166c.333-.166.167-.666.167-.999-.167-.499-.666-.332-1.165 0zm-37.753-66.907c-.332-.333-.499 0 0 0h0zm55.05 61.082c-.166 0-.166.167-.333.167v.333c0 .332 0 .332.167.499l.166.333h.166c0-.333 0-.832-.166-1.332zm-20.789 48.766c.166 0 .333 0 .333-.167.332-.499.332-.665.332-.665v-.167-.333h.166c.333-.332.666-.998.666-.998.166-.5.166-.999.166-1.498s0-.999.166-1.332c0-.166.167-.499-.166-.832v-.499c0-.333 0-.333-.166-.499 0 0-.167-.167-.333-.167h-.166a.36.36 0 0 0-.333.333c-.166.166-.166.166-.499 1.498h-.166c-.166 0-.166 0-.333.166s-.166.333-.166.5c-.166.333-.333.499-.333.998l-.332.333v.333h-.167c-.166.166-.332.333-.499.832-.166.167-.332.333-.499.333-.166.333-.332.333-.332.499h-.166l-.167.333h-.166-.166c-.167 0-.333-.166-.333-.166l-.333.166s-.166.333-.166.5 0 .166.166.332c0 0 0 .167-.499.999-.166.166-.166.333-.499.999v.333c0 .166-.166.499 0 .832-.166.333-.166.333-.166.665 0 .5 0 .5-.831 1.831l-.666 1.165c-.332.333-.332.5-.499 1.165v.333c0 .167 0 .333-.166.666v.166c-.166.167-.166.333-.333.833-.166.332-.166.332-.166.499v.333.333c0 .166.333.332.499.332.333.167.333.333.499.333h.166c.333 0 .499-.166.666-.333s.166-.166.332-.166c.499-.333.499-.333 1.164-1.331.167-.167.333-.5.333-.666s.166-.333.166-.333c.333-.666 4.158-7.989 3.992-8.821zM149.85 47.101s-.167-.166-.167 0c-.332 0 .333.166.167 0zm-1.331-2.663s.499.166.167 0c-.167.166-.167 0-.167 0zm.333 1.165c.166 0-.166-.166-.333-.166s.167.166.333.166zm-.333-.333c-.166 0 .167.166.333.166 0 0-.166-.166-.333-.166zm.998-1.165c0 .166.499.166.166 0h-.166zm-1.497-.333s.167.166.333.166l-.333-.166zm.499.666c-.332-.166-.166 0 0 0h0zm-7.318 0c.998-.166-.499-1.332-.831-.832l-.166-.166c-.167-.166-.832-.166-.832.166-.333-.166-.333-.166-.832 0-.166.166-.166.166-.166.333h-.166v.166.166h-.167l-.332-.166c-.166 0-.166 0-.333.166h-.166c-.166 0-.166 0-.333.166-.166 0-.332 0-.499.166 0 .166.167.499.167.499a.51.51 0 0 0 .665 0c.166 0 .333.166.333.166h.166c.166.166.499 0 .665 0s.333.166.333 0c.166 0 .166 0 .332-.166h.333.333c.166 0 .166 0 .332-.166 0 0 .167 0 .167-.166v.166c.498.166.332-.166.498-.499v-.166c.333.166.499.166.499.166zm-70.017 66.408c-.166 0-.499 0-.665.333 0 .166-.166.333.166.832l.333.166.333-.166s.333-.166.333-.499v-.5c-.166 0-.499-.166-.499-.166zm.166 2.164c0 .166.333.166.333.166.166 0 .499-.333.499-.499s0-.333-.166-.333c0 0-.333-.167-.499-.167a.36.36 0 0 0-.333.333c.166 0 .166.333.166.5zm-.832 7.323c0 .166.166.166.333.166s.333 0 .333-.166l.166-.333s.166-.167.166-.333c0 0-.333-.333-.333-.499-.166 0-.333.166-.499.166 0 .167-.166.333-.166.499v.5zm43.408-5.493l-.166.167c0 .166 0 .333.166.333.166.166 0-.167 0-.5zm-45.57-4.66s-.166-.166-.665-.166h-.333l-.333.333-.166.333c0 .166-.166.499 0 .665 0 .167.333.333.499.333h.499s.333.167.499.167l.333-.167c.333-.166.499-.333.499-.666.166-.499-.166-.665-.333-.665 0-.167-.499-.167-.499-.167zm7.817-18.973c-.166 0-.333 0-.832.333l-.499.499c0 .166-.166.333-.333.499 0 0-.166.333-.166.499s0 .333.166.333l.333.166c.166 0 .499-.166.665-.333.333-.333.333-.333.665-.499.166-.333.166-.333.499-.666 0-.166 0-.333-.166-.333 0-.499-.166-.499-.333-.499zm-3.493 22.635c0-.167-.333-.5-.499-.5s-.333 0-.665.167l-.166.333c0 .166 0 .166-.166.333 0 .166 0 .333.166.665v.333l.333.167-.499.166-.166.167v.332h.166v.167c0 .166 0 .333.166.666 0 0-.166 0-.166.166s-.166.333-.166.666l.166.166c-.166 0-.333 0-.499.5 0 .332 0 .499.166.665h.166c.166 0 .333 0 .333-.166.166-.167.166-.333.166-.666l.166-.166c.166-.167.166-.333.333-.666 0-.166 0-.166-.166-.333l.333-.333c0-.499-.166-.666-.333-.832.166-.166.166-.333.333-.499 0-.167 0-.333-.333-.666v-.166c.665-.167.665-.333.832-.666zm-14.469-3.329l.333.167c.166 0 .166 0 .333-.167h.499c.333 0 .499-.166.499-.499.166-.5 0-.666-.333-.832-.166-.333-.499-.5-.832-.666h-.333c-.166 0-.333 0-.665.333-.166.166-.166.333-.166.499s.166.333.166.333h.166v.166c0 .167.333.666.333.666zm4.823.333c0 .333.166.499.333.666h.166c.166 0 .333-.167.333-.167.166-.166.166-.333.166-.333v-.332h.166c.166 0 .166.166.333.166s.333-.166.499-.166c0 0 .333.166.499.166l.166.333s.166.166.333.166c.333 0 .333-.166.499-.499.166 0 .166-.166.166-.333s0-.499-.166-.832c0-.333-.166-.666-.665-.832v-.5c0-.166 0-.332-.166-.332-.166-.167-.333-.167-.499-.167h-.166l-.166.333-.166-.333c-.166-.166-.166-.333-.499-.333l-.499.167-.333-.167c0-.166-.333-.333-.499-.333-.333 0-.665.333-.832.666 0 .333.166.333.333.499-.166 0-.166.167-.333.167l-.166.333h-.333l-.333.333-.166-.333c-.166 0-.499.333-.499.499v.499s.333.5.832.666c.166 0 .333 0 .333-.333h.499v.333l.499-.166.333-.167c.166 0 0 .666 0 .666zm-1.497-10.485c0-.333 0-.5-.499-.666-.333 0-.499.333-.499.499-.333.333-.333.333-.333.666 0 .166.166.333.166.333v.333c0 .166.166.499.333.665h.166c.166 0 .499-.499.665-.665v-.5c.166-.166.166-.333.166-.499-.166.166-.166-.166-.166-.166zm34.094 96.699c.166 0 .333-.5.333-.5 0-.166-.333-.333-.499-.333l-.333-.166h-.166c-.166 0-.166-.166-.333-.166h-.166-.166c-.166 0-.166-.167-.499-.167h-.166l.166.333-.499-.166c-.166 0-.166.166-.166.166.832.499 1.663.832 2.495.999zm-32.764-90.375h.166c.166 0 .166-.166.333-.166 0 0 .333-.167.333-.333s0-.333-.166-.5l-.333-.166c-.166 0-.333.166-.665.499v.5s.166.166.333.166zm-2.994.999c.166 0 .166 0 .333.166.166 0 .166.167.333.167h.166c.166 0 .333 0 .665-.167l.166-.333.166.333c.333 0 .499-.166.665-.333 0-.166-.333-.832-.499-.832-.166-.166-.166-.333-.499-.333v-.333c0-.166-.166-.333-.665-.499-.499-.499-.499-.499-.499-.666s-.333-1.165-.832-1.331h-.333c0-.499-.166-1.165-1.996-1.498-.166 0-.333.166-.499.333h-.333c-.333 0-.665.166-.665.166-.499.167-.665.666-.832.832-.333 0-.333.167-.665.333 0 .167-.166.167 0 .333 0 .167.166.167.333.167h.166c0 .166.166.166.166.332.166 0 .333 0 .333-.166.333-.166.333-.166.333-.333h.166c-.166.167-.166.499-.166.499v.333s.166.167.333.167h.333c.166 0 .333-.333.333-.5 0 0 .166-.499 0-.832h-.166l.166-.166v.166c0 .167.166.167.333.333s.166.167.333.167l.499.166c0 .166.166.666.831.666h.166c0 .166.166.166.166.333 0 .665 0 .832.166 1.165h.333-.166c-.166.166-.333.166-.499.499v.333l.166.166c.333 0 .333.167.499.167h.665zm54.052-21.304l-.333-.166c-.332-.166-.665 0-.665.166l.333.166-.333.166c-.166.999 1.83.499.998-.333zm21.122-41.276l-.333-.166h-.332c-.333 0-.499.333-.333.666h.333l-.167.166c-.166 0-.166.166-.332.166v.333h.166v.166l.166.166c-.166-.166-.332-.166-.665-.166l-.166.166v-.166s.166 0 .166-.166c.333-.166.333-.333.333-.832-.167-.333-.499-.333-.832-.499-.333 0-.831-.166-.998 0l-.166.166h-.166s-.333-.166-.499-.166l-.167.166-.166-.166c-.166 0-.333 0-.333.333 0 0-.166 0-.166.166h-.333-.498l-.167.333-.332-.333c-.333 0-.666.333 0 .832 0 .166.166.333.499.499.166 0 .332.166.498.166l.333.166h.166c.167.166.333.333.499.333.167.166.167.166.333 0 .166.166.333.333.665.333h.167.166c.166 0 0-.333 0-.499l-.333.166v-.166c.167-.166.167-.166.167-.499l.166.166c.166.499.332.333.499.333h.166c.499.166.832-.166.665-.333.167-.166.167-.333 0-.666.167 0 .333.166.499 0 .333 0 .499-.166.167-.666h-.167.167c.831.166.997-.166.665-.499zm-23.783 70.402c.333 0 .499-.166.499-.166 0 .665.333.832.998.499.499 0 .166-1.165-.832-.832.167-.666-.665-.999-.831-.832h-.333c-.332.166-.166.832 0 .998s.333.333.499.333zm8.981-24.299c-.166 0-.333.166-.499.499 0 0-.166.499 0 .499v.666c.166.166.665 0 .832-.166.332-.333.166-1.165 0-1.331l-.333-.166zm7.983-31.956a.36.36 0 0 0-.333-.333s-.166 0-.332.166h-.333s-.166.166-.166.333h-.167c-.166.166-.166.333 0 .333.167.166.167.333.167.333 0 .166.166.333.166.333h.333c.166 0 .166-.166.166-.333v-.166-.333c.499-.166.499-.166.499-.333zm-6.32 40.943c.333.167.499-.166.832-.333.166-.333 0-.999-.333-.999-.166 0-.333.166-.499.333.166-.499 0-.499-.166-.832-.167-.166-.499 0-.665.166-.499 0-.333.166-.333.166h-.166-.167v-.499c-.499-1.498-1.663.166-.665.832 0 0-.166 0-.333.166-.166 0-.332.333-.166.499 0 0 .333.166.333.333.332.166.665 0 .831-.333.167 0 .167.166.499-.166.499.166.665.333.665-.166l.167-.166c-.167.666-.167.999.166.999zm12.141-51.262c-.166.166 0 .333 0 .333.333 0 .166-.166 0-.333zm-3.16 12.816c.333 0 .499-.333.499-.666.166-.499-.166-1.165-.499-.832-.166 0-.499.333-.499.666v.333l.166.166v.166l.333.166zm-5.488-9.82s-.167 0 0 0c-.167.166-.333.499-.167.666v.166c.167.333.167.166.333 0h.333l.332-.333c.167-.499-.499-1.165-.831-.499zm-10.811 64.244c0-.499-.166-.333-.332-.666-.333-.166-.333-.166-.666.167v.332c-.166 0-.332.5-.332.666 0 0-.166 0-.166-.166-.167 0-.167 0-.333.166-.166 0-.166.333-.166.5-.167-.167-.167-.333-.666-.333-.166 0-.166 0-.332.166s0 1.165.499 1.165l.332-.166s.167-.167.167-.333c.166.666.997.666.997-.167.499-.166.666-.665.333-.998.333.333.665.166.665-.333zm9.813-17.642c.499-.333.831-.832 0-1.165-.665.166-.665.166-.998.999-.832 1.498.665 2.164.998.166zm-3.16-4.66c.332-.166.332-.499.332-.832 0 0-.332-.166-.498-.166h-.333c-.665 0-.166 1.331.499.999zm-9.48-7.822c.166.166.499.166.665-.166.333-.666-.665-1.498-.998-.333-.332-.333-.499-.333-.831 0-.333-.166-.499 0-.499.333l.333.166-.333.166c.166.333 1.164.499 1.663-.166zm12.307-22.136c0-.166 0-.166 0 0-.332-.166 0 .333 0 0zm-.665-5.825c.333 0 .499-.166.665-.333l.166-.166c.167-.166.333-.499.333-.666 0 0-.166-.499-.333-.499l-.332-.166c.166-.333 0-.832-.499-.333 0-.499-.998-.499-.998 0 0 0-.166 0-.166.167-.167-.167-.167 0-.333 0s-.333-.167-.499-.167c-.166.167-.332.167-.332.333l-.167-.166c-.166 0-.332.166-.332.166s0-.166-.167-.166c-.166-.333-.332-.499-.665-.167-.166 0-.333 0-.499.167-.166 0-.499.333-.499.499l.166.333-.332-.167c-.166.333-.166.666 0 .666 0 .499.332.666.665.666 0 .166-.166.333 0 .499 0 .166.166.166.166.333 0 0 .167.166.333.166l.333-.166.332.166.167.166c.166.333.499.166.831.166.333.166.333 0 .665-.166.333 0 .499-.166.832-.333.166-.666.333-.832.499-.832z" fill="#ff7918"/><path d="M236.664 117.67c-1.829-4.494-4.324-8.156-6.652-11.318-4.823-6.325-9.646-10.486-12.806-13.148l-3.825-2.996c-.832-.666-1.331-.999-1.331-.999s-1.829-1.332-5.322-3.662c-.831-.666-1.829-1.331-2.994-1.997l-3.658-2.164c-1.165-.666-2.329-1.498-3.659-2.164 0 .166.166.333.166.499 1.164.666 2.328 1.331 3.326 1.997 1.331.832 2.495 1.498 3.659 2.164l2.994 1.997c3.492 2.33 5.322 3.662 5.322 3.662a21.26 21.26 0 0 0 1.33.999l3.826 2.996c3.159 2.663 7.983 6.991 12.639 13.149 2.329 3.162 4.823 6.824 6.653 11.317 1.829 4.328 3.16 9.487 2.827 14.98-.166 5.492-2.162 11.151-5.821 16.144s-8.648 9.32-14.303 12.649c-11.642 6.99-26.111 10.818-41.412 12.982s-31.932 2.164-48.729.333-34.095-5.493-50.892-10.985c-16.964-5.659-33.429-13.315-48.064-23.967-7.151-5.326-13.97-11.65-19.126-18.973s-8.815-15.978-8.149-24.966c.499-8.987 5.655-16.976 12.141-22.635s14.469-9.653 22.286-12.483c8.981-3.162 18.294-5.16 27.275-6.324.333-.333.832-.666 1.164-.999-9.48 1.331-19.126 3.329-28.772 6.657-7.983 2.996-15.8 6.99-22.452 12.816C7.818 79.057 2.662 87.212 2.163 96.199c-.832 8.988 2.827 17.975 7.983 25.299 5.156 7.489 11.974 13.647 19.292 19.14 14.636 10.652 31.267 18.64 48.064 24.466 16.964 5.659 34.26 9.32 51.224 11.151s33.429 1.831 49.063-.333c15.467-2.164 29.936-6.158 41.744-13.481 5.821-3.495 10.977-7.989 14.469-13.149 3.659-5.159 5.655-10.984 5.821-16.477s-1.164-10.818-3.16-15.145z" fill="url(#C)"/><path d="M217.206 43.44l-.499-1.831-.666-1.331c0 .166-.998-2.164-4.656-3.828s-9.647-2.164-17.131-1.165c-14.802 1.831-35.092 8.821-58.209 19.806-11.476 5.492-23.783 11.983-36.256 19.639s-25.28 16.144-38.086 25.797-25.446 20.139-37.254 32.122c-5.821 5.992-11.476 12.483-16.132 19.473-2.328 3.495-4.49 7.323-5.987 11.318-.665 1.997-1.331 4.161-1.331 6.324-.166 1.165 0 2.164.166 3.329.166.499.333 1.165.499 1.664l.665 1.498c1.164 1.997 3.16 3.162 5.156 3.995s4.158 1.165 6.32 1.331c4.324.333 8.482 0 12.806-.666 8.316-1.331 16.465-3.828 24.448-6.491 2.162-.832 4.158-1.664 6.32-2.33 0-.166-.166-.166-.166-.333-1.996.833-4.158 1.498-6.154 2.331-7.817 2.663-15.966 5.159-24.282 6.491-4.158.665-8.482.998-12.64.665-2.162-.166-4.158-.665-6.154-1.331-1.829-.832-3.659-1.997-4.823-3.662-1.164-1.831-1.497-3.828-1.331-5.991.166-1.998.665-4.161 1.331-6.159 1.497-3.994 3.659-7.656 5.987-11.151 4.823-6.99 10.478-13.315 16.299-19.14 11.642-12.316 24.282-22.801 37.088-32.455 12.806-9.487 25.612-18.141 38.086-25.631 12.307-7.49 24.448-14.147 35.924-19.806 22.785-11.318 43.075-18.474 57.71-20.471 7.318-.999 13.305-.666 16.964.999 3.825 1.498 4.657 3.828 4.657 3.662-.166 0 1.663 1.831 1.331 5.825 0 3.995-2.329 9.653-6.32 15.811-3.493 5.492-8.316 11.484-14.303 17.809 0 .166.166.333.166.499 5.987-6.491 10.81-12.649 14.469-18.141 3.992-6.324 6.154-11.983 6.154-15.978.166-.832 0-1.831-.166-2.496z" fill="url(#D)"/><path d="M190.595 203.884c-.831-8.822-3.16-17.31-5.821-25.631-5.488-16.478-12.639-32.123-20.622-46.602-7.817-14.48-16.465-28.128-25.114-40.611s-17.629-23.634-26.443-33.62C95.298 37.781 78.168 23.135 64.364 16.311c-6.819-3.495-13.139-4.827-17.13-4.327-4.158.499-5.987 2.164-5.987 1.997.166 0-2.162.999-4.158 4.66s-3.326 9.82-2.661 17.476c.832 11.484 4.657 26.297 11.476 42.94.166-.333.333-.499.499-.832-6.653-16.311-10.644-30.791-11.476-42.108-.665-7.656.499-13.814 2.495-17.476s4.158-4.66 4.158-4.66c0 .166 1.829-1.498 5.987-1.997 3.659-.166 9.812.999 16.631 4.66 13.804 6.99 30.602 21.637 47.899 41.609 8.648 9.986 17.462 21.304 26.111 33.62s17.13 25.963 25.113 40.444c7.817 14.48 15.135 29.959 20.623 46.436 2.661 8.155 4.989 16.643 5.821 25.298.499 4.327.499 8.655-.167 12.982-.831 4.327-2.494 8.488-6.153 10.985a12.81 12.81 0 0 1-5.987 1.997c-2.162.166-4.325-.166-6.487-.499-4.324-.999-8.315-2.83-12.14-4.827-7.651-4.161-14.636-9.487-21.288-15.146-3.327-2.829-6.487-5.825-9.48-8.821h-.499c3.16 2.996 6.486 5.992 9.812 8.988 6.486 5.659 13.472 10.985 21.288 15.312 3.825 2.164 7.983 3.994 12.307 4.993s9.148.999 12.973-1.498c1.829-1.165 3.326-2.996 4.324-4.993 1.164-1.997 1.663-4.161 2.162-6.325.665-4.493.499-8.987.166-13.314z" fill="url(#E)"/><path d="M162.489 190.069l-2.329 4.661-2.827 5.492-3.16 5.326c-1.996 3.662-4.657 6.99-7.151 10.485-5.322 6.658-11.476 12.816-19.126 17.31-7.484 4.327-16.465 6.824-25.28 4.826-8.648-1.83-16.299-7.489-21.953-14.48-2.827-3.495-5.322-7.323-7.65-11.317-2.162-3.995-3.992-8.156-5.655-12.483-6.154-17.143-9.147-35.451-9.646-53.426s1.331-35.617 4.823-52.427 8.648-32.621 15.467-46.602c3.493-6.99 7.318-13.648 11.476-19.639s8.981-11.318 14.137-15.811c5.156-4.327 10.81-7.989 16.798-9.82 2.993-.999 5.987-1.498 8.814-1.664 2.994-.166 5.821.166 8.482.666 5.489 1.165 9.979 3.828 13.804 6.657 3.825 2.996 6.819 6.325 9.147 9.32 4.823 6.325 7.651 11.983 9.314 15.978.998 1.997 1.497 3.495 1.829 4.494.499.999.666 1.498.666 1.498l1.995 6.325c.333.999.666 2.164 1.165 3.329l.997 4.161v.333l.333.333c0-.166-.166-.499-.166-.666-.333-1.498-.666-2.829-.998-4.161s-.832-2.33-1.164-3.329c-1.331-3.994-2.162-6.158-2.162-6.158s-.167-.499-.666-1.498-.998-2.497-1.829-4.494c-1.663-3.994-4.491-9.653-9.314-16.144-2.494-3.162-5.322-6.491-9.147-9.487s-8.482-5.659-13.97-6.99a29.4 29.4 0 0 0-8.648-.832c-2.994.166-5.988.666-8.981 1.664-5.821 1.997-11.642 5.492-16.964 9.986s-10.145 9.82-14.469 15.811c-.998 1.498-2.162 2.996-3.16 4.66l-2.994 4.827c-1.996 3.162-3.659 6.824-5.488 10.319-6.819 14.147-11.974 30.125-15.301 46.935s-4.989 34.619-4.49 52.594c.333 17.975 3.326 36.283 9.48 53.592 3.16 8.488 7.318 16.976 13.139 23.967 5.655 7.156 13.471 12.982 22.452 14.979s18.461-.499 26.111-4.993c7.817-4.494 13.971-10.818 19.459-17.476 6.819-8.821 12.141-18.141 16.465-27.628-.499.333-.998.666-1.663.998z" fill="url(#F)"/><defs><linearGradient id="A" x1="36.892" y1="116.799" x2="205.287" y2="116.799" xlink:href="#G"><stop offset=".645" stop-color="#bdbdbd"/><stop offset="1" stop-color="#eee"/></linearGradient><radialGradient id="B" cx="0" cy="0" r="1" gradientTransform="translate(112.046 34.2463) rotate(109.936) scale(167.969 167.874)" xlink:href="#G"><stop offset=".052" stop-color="#e0e0e0"/><stop offset=".458" stop-color="#d1d1d1"/><stop offset="1" stop-color="#bcbcbc"/></radialGradient><linearGradient id="C" x1="75.54" y1="36.451" x2="166.153" y2="193.281" xlink:href="#G"><stop stop-color="#ff6b00"/><stop offset=".105" stop-color="#ff740f"/><stop offset=".273" stop-color="#ff8730"/><stop offset=".753" stop-color="#de5d00"/><stop offset=".894" stop-color="#ff7b1c"/><stop offset="1" stop-color="#ff6b00"/></linearGradient><linearGradient id="D" x1="92.394" y1="78.87" x2="123.859" y2="133.329" xlink:href="#G"><stop stop-color="#ff6b00"/><stop offset=".105" stop-color="#ff740f"/><stop offset=".273" stop-color="#ff8730"/><stop offset=".753" stop-color="#de5d00"/><stop offset=".894" stop-color="#ff7b1c"/><stop offset="1" stop-color="#ff6b00"/></linearGradient><linearGradient id="E" x1="49.557" y1="9.173" x2="178.153" y2="231.744" xlink:href="#G"><stop stop-color="#ff6b00"/><stop offset=".105" stop-color="#ff740f"/><stop offset=".273" stop-color="#ff8730"/><stop offset=".753" stop-color="#de5d00"/><stop offset=".894" stop-color="#ff7b1c"/><stop offset="1" stop-color="#ff6b00"/></linearGradient><linearGradient id="F" x1="68.128" y1="30.495" x2="171.506" y2="209.42" xlink:href="#G"><stop stop-color="#ff6b00"/><stop offset=".105" stop-color="#ff740f"/><stop offset=".273" stop-color="#ff8730"/><stop offset=".753" stop-color="#de5d00"/><stop offset=".894" stop-color="#ff7b1c"/><stop offset="1" stop-color="#ff6b00"/></linearGradient><linearGradient id="G" gradientUnits="userSpaceOnUse"/></defs></svg>