<svg width="26" height="36" viewBox="0 0 26 36" fill="none" xmlns="http://www.w3.org/2000/svg">
<g clip-path="url(#clip0)">
<path d="M23.625 27C22.668 27 21.786 26.7345 21 26.307V31.5C21 32.328 20.328 33 19.5 33H4.5C3.672 33 3 32.328 3 31.5V4.5C3 3.672 3.672 3 4.5 3H5.25C6.078 3 6.75 3.672 6.75 4.5C6.75 5.328 7.422 6 8.25 6H15.75C16.578 6 17.25 5.328 17.25 4.5C17.25 3.672 17.922 3 18.75 3H19.5C20.328 3 21 3.672 21 4.5V12.6915C21.7845 12.264 22.6695 12 23.625 12H24V4.5C24 2.019 21.981 0 19.5 0H4.5C2.019 0 0 2.019 0 4.5V31.5C0 33.981 2.019 36 4.5 36H19.5C21.981 36 24 33.981 24 31.5V27H23.625Z" fill="#434343"/>
<path d="M12.2344 22.4544C12.6994 22.8744 12.7294 23.5794 12.3244 24.0444C12.0994 24.2994 11.7994 24.4194 11.4844 24.4194C11.2144 24.4194 10.9444 24.3294 10.7344 24.1344L6.98438 20.7594C6.74438 20.5494 6.60938 20.2344 6.60938 19.9194C6.60938 19.6044 6.74438 19.2894 6.98438 19.0794L10.7344 15.7044C11.1994 15.2994 11.9044 15.3294 12.3244 15.7944C12.7294 16.2594 12.6994 16.9644 12.2344 17.3844L9.41438 19.9194L12.2344 22.4544Z" fill="#FF6B00"/>
<path d="M18.5793 15.2994L16.3293 25.0494C16.2033 25.6029 15.6993 26.0094 14.9793 25.8894C14.3793 25.7544 14.0043 25.1394 14.1393 24.5394L16.3893 14.7894C16.5243 14.1894 17.1393 13.8144 17.7393 13.9494C18.3393 14.0844 18.7143 14.6994 18.5793 15.2994Z" fill="#FF6B00"/>
<path d="M25.7344 20.7594L21.9844 24.1344C21.7744 24.3294 21.5044 24.4194 21.2344 24.4194C20.9194 24.4194 20.6194 24.2994 20.3944 24.0444C19.9894 23.5794 20.0194 22.8744 20.4844 22.4544L23.3044 19.9194L20.4844 17.3844C20.0194 16.9644 19.9894 16.2594 20.3944 15.7944C20.8144 15.3294 21.5194 15.2994 21.9844 15.7044L25.7344 19.0794C25.9744 19.2894 26.1094 19.6044 26.1094 19.9194C26.1094 20.2344 25.9744 20.5494 25.7344 20.7594Z" fill="#FF6B00"/>
</g>
<defs>
<clipPath id="clip0">
<rect width="26" height="36" fill="white"/>
</clipPath>
</defs>
</svg>
