<svg width="36" height="36" viewBox="0 0 36 36" fill="none" xmlns="http://www.w3.org/2000/svg">
<g clip-path="url(#clip0)">
<path d="M23.9994 33H20.9994V30H14.9994V33H11.9994C11.1714 33 10.4994 33.672 10.4994 34.5C10.4994 35.328 11.1714 36 11.9994 36H23.9994C24.8289 36 25.4994 35.328 25.4994 34.5C25.4994 33.672 24.8289 33 23.9994 33Z" fill="#434343"/>
<path d="M33.375 6.00002H32.16C31.845 7.02002 31.425 8.02502 30.93 9.00002H33V27H3V9.00002H5.82C5.97 8.29502 6.315 7.65002 6.84 7.12502C7.245 6.72002 7.695 6.33002 8.19 6.00002H2.625C1.185 6.00002 0 7.18502 0 8.62502V27.375C0 28.815 1.185 30 2.625 30H33.375C34.815 30 36 28.815 36 27.375V8.62502C36 7.18502 34.815 6.00002 33.375 6.00002Z" fill="#434343"/>
<path d="M29.8348 0.407993C29.6908 0.263993 29.4763 0.181493 29.2903 0.188993C25.0498 0.268493 20.1028 2.74349 16.9618 6.33899C13.5643 6.45899 10.7278 7.48349 8.95934 9.25199C8.76734 9.44399 8.69384 9.72449 8.76734 9.98549C8.84084 10.248 9.05084 10.449 9.31484 10.512L12.5083 11.277L12.4888 11.298C12.2218 11.5935 12.2338 12.048 12.5158 12.33L17.9113 17.7255C18.0568 17.8725 18.2488 17.9445 18.4423 17.9445C18.6223 17.9445 18.8008 17.8815 18.9433 17.7525L18.9643 17.733L19.7293 20.9265C19.7923 21.1905 19.9933 21.4005 20.2558 21.474C20.3233 21.4935 20.3908 21.5025 20.4598 21.5025C20.6563 21.5025 20.8468 21.426 20.9908 21.2835C22.7608 19.5135 23.7838 16.6785 23.9053 13.2795C27.5053 10.128 29.9758 5.18699 30.0553 0.950993C30.0583 0.748493 29.9788 0.551993 29.8348 0.407993Z" fill="#FF6B00"/>
<path d="M10.1279 15.708C9.12136 16.7145 7.83286 20.895 7.58536 21.723C7.50586 21.987 7.57936 22.2735 7.77286 22.4685C7.91536 22.611 8.10736 22.6875 8.30386 22.6875C8.37586 22.6875 8.44786 22.677 8.51986 22.656C9.34786 22.4085 13.5269 21.1215 14.5349 20.1135C15.7499 18.8985 15.7499 16.923 14.5349 15.7065C13.3169 14.4915 11.3414 14.493 10.1279 15.708Z" fill="#FF6B00"/>
</g>
<defs>
<clipPath id="clip0">
<rect width="36" height="36" fill="white"/>
</clipPath>
</defs>
</svg>
