<svg width="36" height="36" viewBox="0 0 36 36" fill="none" xmlns="http://www.w3.org/2000/svg">
<g clip-path="url(#clip0)">
<path d="M23.5194 7.85999C24.1554 7.74299 24.8964 7.72499 25.4994 7.79999V4.49999C25.4994 2.02499 23.4744 -7.62939e-06 20.9994 -7.62939e-06H5.99939C3.52439 -7.62939e-06 1.49939 2.02499 1.49939 4.49999V31.5C1.49939 33.975 3.52439 36 5.99939 36H20.9994C23.0694 36 24.8094 34.59 25.3344 32.685C23.7924 32.448 25.0854 32.745 23.6244 32.745C23.1234 32.745 22.6254 32.628 22.1544 32.445C21.8844 32.79 21.4644 33 20.9994 33H5.99939C5.17439 33 4.49939 32.325 4.49939 31.5V4.49999C4.49939 3.67499 5.17439 2.99999 5.99939 2.99999H6.74939C7.57439 2.99999 8.24939 3.67499 8.24939 4.49999C8.24939 5.32499 8.92439 5.99999 9.74939 5.99999H17.2494C18.0744 5.99999 18.7494 5.32499 18.7494 4.49999C18.7494 3.67499 19.4244 2.99999 20.2494 2.99999H20.9994C21.8244 2.99999 22.4994 3.67499 22.4994 4.49999V7.19999C22.8594 7.39499 23.1894 7.61999 23.5194 7.85999Z" fill="#434343"/>
<path d="M32.882 23.7495C32.771 23.5275 32.5895 23.3475 32.366 23.2395L30.0005 22.092V20.6295L32.147 20.0925C32.4665 20.013 32.735 19.797 32.882 19.503L34.382 16.503C34.6595 15.948 34.4345 15.273 33.8795 14.994C33.3245 14.7165 32.648 14.9415 32.3705 15.498L31.1015 18.0345L30.0005 18.3105V16.0005C30.0005 15.3795 29.4965 14.8755 28.8755 14.8755C28.8755 14.202 28.6985 13.575 28.4105 13.0125C28.838 12.1155 29.7305 11.5005 30.7505 11.5005C31.3715 11.5005 31.8755 10.9965 31.8755 10.3755C31.8755 9.7545 31.3715 9.2505 30.7505 9.2505C29.147 9.2505 27.6755 10.0485 26.7785 11.3055C26.177 10.962 25.4915 10.7505 24.7505 10.7505C24.0095 10.7505 23.324 10.962 22.7225 11.3055C21.8255 10.05 20.354 9.252 18.7505 9.252C18.1295 9.252 17.6255 9.756 17.6255 10.377C17.6255 10.998 18.1295 11.502 18.7505 11.502C19.7705 11.502 20.663 12.1185 21.0905 13.014C20.8025 13.5765 20.6255 14.2035 20.6255 14.877C20.0045 14.877 19.5005 15.381 19.5005 16.002V18.312L18.401 18.0375L17.132 15.501C16.8545 14.9445 16.1795 14.7195 15.623 14.997C15.0665 15.276 14.8415 15.951 15.1205 16.506L16.6205 19.506C16.7675 19.8 17.036 20.016 17.3555 20.0955L19.5005 20.6295V22.092L17.135 23.2395C16.9115 23.3475 16.73 23.526 16.6205 23.748L15.1205 26.7495C14.843 27.3045 15.068 27.9795 15.623 28.2585C15.785 28.3395 15.956 28.377 16.1255 28.377C16.538 28.377 16.9355 28.1505 17.132 27.7545L18.461 25.098L19.5005 24.5925V24.627C19.5005 27.135 21.2705 29.232 23.6255 29.7495V27C23.6255 26.379 23.6255 24.627 24.7505 24.627C25.8755 24.627 25.8755 26.379 25.8755 27V29.7495C28.2305 29.232 30.0005 27.135 30.0005 24.627V24.5925L31.04 25.0965L32.369 27.753C32.5655 28.149 32.963 28.3755 33.3755 28.3755C33.545 28.3755 33.716 28.338 33.878 28.257C34.4345 27.978 34.6595 27.303 34.3805 26.748L32.882 23.7495Z" fill="#FF6B00"/>
</g>
<defs>
<clipPath id="clip0">
<rect width="36" height="36" fill="white"/>
</clipPath>
</defs>
</svg>
