<svg width="36" height="36" viewBox="0 0 36 36" fill="none" xmlns="http://www.w3.org/2000/svg">
<path d="M7.89944 27.5449H5.20312C3.07068 27.5449 1.33594 25.8102 1.33594 23.6777V17.5688C1.33594 15.4363 3.07068 13.7016 5.20312 13.7016H7.89944C8.86871 13.7016 9.65726 14.4901 9.65726 15.4594V25.7871C9.65726 26.7564 8.86871 27.5449 7.89944 27.5449Z" fill="#FF6B00"/>
<path d="M17.8542 0C11.3264 0 5.97772 5.14462 5.64978 11.5922H7.76328C8.08875 6.30862 12.4899 2.10938 17.8545 2.10938C23.2205 2.10938 27.6233 6.31192 27.9454 11.5985C28.0168 11.5947 28.0885 11.5922 28.1608 11.5922H30.0587C29.7307 5.14462 24.382 0 17.8542 0Z" fill="#434343"/>
<path d="M30.8568 27.5449H28.1605C27.1913 27.5449 26.4027 26.7564 26.4027 25.7871V15.4594C26.4027 14.4901 27.1913 13.7016 28.1605 13.7016H30.8568C32.989 13.7016 34.724 15.4363 34.724 17.5688V23.6777C34.724 25.8102 32.989 27.5449 30.8568 27.5449Z" fill="#FF6B00"/>
<path d="M24.0883 33.8865H20.707C20.1248 33.8865 19.6523 33.4144 19.6523 32.8318C19.6523 32.2493 20.1248 31.7771 20.707 31.7771H24.0883C26.226 31.7771 27.9651 30.038 27.9651 27.9003V26.4902C27.9651 25.9077 28.4373 25.4355 29.0198 25.4355C29.6024 25.4355 30.0745 25.9077 30.0745 26.4902V27.9003C30.0745 31.2012 27.3892 33.8865 24.0883 33.8865Z" fill="#434343"/>
<path d="M18.03 36C15.9723 36 14.2982 34.5786 14.2982 32.8318C14.2982 31.085 15.9723 29.6636 18.03 29.6636C20.0877 29.6636 21.7618 31.085 21.7618 32.8318C21.7618 34.5786 20.0877 36 18.03 36Z" fill="#434343"/>
</svg>
