<svg width="36" height="36" viewBox="0 0 36 36" fill="none" xmlns="http://www.w3.org/2000/svg">
<g clip-path="url(#clip0)">
<path d="M22.3425 18.8295L19.3425 12.8295C18.8325 11.8125 17.169 11.8125 16.659 12.8295L13.659 18.8295C13.554 19.0365 13.5 19.2675 13.5 19.5V33H22.5V19.5C22.5 19.2675 22.446 19.0365 22.3425 18.8295ZM16.5 20.25V19.854L18 16.854L19.5 19.854V20.25H16.5Z" fill="#FF6B00"/>
<path d="M31.5 1.5H4.5C2.019 1.5 0 3.519 0 6V30C0 32.481 2.019 34.5 4.5 34.5H31.5C33.981 34.5 36 32.481 36 30V6C36 3.519 33.981 1.5 31.5 1.5ZM31.5 31.5H4.5C3.6735 31.5 3 30.828 3 30V9H33V30C33 30.828 32.3265 31.5 31.5 31.5Z" fill="#434343"/>
</g>
<defs>
<clipPath id="clip0">
<rect width="36" height="36" fill="white"/>
</clipPath>
</defs>
</svg>
