<svg width="217" height="226" viewBox="0 0 217 226" fill="none" xmlns="http://www.w3.org/2000/svg">
<path opacity="0.07" d="M124.576 141.916C123.559 141.777 122.542 141.429 121.729 140.942C119.288 139.48 119.288 137.183 121.729 135.721C124.169 134.259 128.101 134.259 130.474 135.721C131.288 136.208 131.83 136.765 132.101 137.392L148.847 127.438L113.186 106.278C110.203 104.468 105.322 104.468 102.339 106.278L66.7455 127.508L83.1523 137.252C82.5421 137.461 81.9319 137.67 81.3896 137.948C78.9489 139.41 78.9489 141.707 81.3896 143.169C83.8302 144.631 87.7624 144.631 90.1353 143.169C90.6777 142.89 91.0845 142.473 91.3557 142.125L107.762 151.87L124.576 141.916Z" fill="black"/>
<path opacity="0.07" d="M204.304 164.19L168.643 143.03L151.897 152.983C151.626 152.357 151.084 151.8 150.27 151.313C147.829 149.851 143.897 149.851 141.524 151.313C139.084 152.774 139.084 155.071 141.524 156.533C142.338 157.02 143.287 157.299 144.372 157.508L127.626 167.461L144.846 177.693C144.914 176.858 145.524 175.953 146.677 175.327C149.118 173.865 153.05 173.865 155.423 175.327C157.863 176.788 157.863 179.085 155.423 180.547C154.338 181.174 152.914 181.591 151.423 181.591L168.643 191.823L204.304 170.663C207.355 168.853 207.355 165.999 204.304 164.19Z" fill="black"/>
<path opacity="0.07" d="M73.5927 178.877C72.7792 178.389 71.83 178.111 70.813 177.902L87.5588 168.018L71.152 158.273C70.8808 158.621 70.4741 158.969 69.9317 159.318C67.491 160.779 63.5588 160.779 61.1859 159.318C58.7453 157.856 58.7453 155.559 61.1859 154.097C61.7283 153.819 62.3385 153.54 62.9486 153.401L46.5419 143.656L10.8808 164.816C7.89779 166.626 7.89779 169.48 10.8808 171.22L46.5419 192.38L63.2876 182.496C63.5588 183.123 64.1012 183.68 64.8469 184.097C67.2876 185.559 71.2198 185.559 73.5927 184.097C76.0334 182.635 76.0334 180.338 73.5927 178.877Z" fill="black"/>
<path opacity="0.07" d="M130.339 195.025C131.695 194.955 133.05 194.607 134.135 194.051C136.44 192.658 136.44 190.501 134.135 189.109C131.83 187.716 128.101 187.716 125.864 189.109C124.847 189.735 124.237 190.501 124.169 191.336L107.83 181.661L92.0335 191.058C92.9827 191.197 93.864 191.475 94.6098 191.962C96.9149 193.355 96.9149 195.512 94.6098 196.904C92.3047 198.297 88.5759 198.297 86.3386 196.904C85.5928 196.487 85.1183 195.93 84.8471 195.373L69.0505 204.77L102.745 224.747C105.593 226.417 110.203 226.417 112.983 224.747L146.678 204.77L130.339 195.025Z" fill="black"/>
<path d="M146.407 99.2481L114.339 80.2458C110.678 78.088 104.848 78.088 101.187 80.2458L67.6273 100.153L58.068 96.1158V105.791L73.6612 115.049V121.522C73.5934 122.705 74.3392 123.888 75.8307 124.793C78.746 126.533 83.4917 126.533 86.4748 124.793C87.085 124.445 87.6273 123.958 87.9663 123.54L107.831 135.304L128.102 123.262V114.631C130.61 114.213 133.39 114.631 135.288 115.814C136.238 116.371 136.915 117.067 137.254 117.833L157.526 105.791V96.1158L146.407 99.2481Z" fill="url(#paint0_linear)"/>
<path d="M126.204 114.352L125.865 114.84H126.069L107.832 125.628L87.9671 113.865C87.6281 114.352 87.0858 114.77 86.4756 115.118C83.5603 116.858 78.8146 116.858 75.8315 115.118C74.6112 114.422 73.9332 113.517 73.7298 112.612C73.3908 113.935 74.0688 115.396 75.8315 116.44C78.7468 118.181 83.4925 118.181 86.4756 116.44C87.0858 116.092 87.6281 115.605 87.9671 115.188L107.832 126.951L128.103 114.909V113.587L126.204 114.352Z" fill="white"/>
<path d="M128.102 113.587C126.882 113.378 125.661 113.03 124.712 112.403C121.797 110.663 121.797 107.879 124.712 106.139C127.627 104.399 132.373 104.399 135.356 106.139C136.305 106.696 136.983 107.392 137.322 108.158L157.593 96.1158L114.407 70.501C110.746 68.3432 104.915 68.3432 101.254 70.501L58.068 96.1158L77.9324 107.879C77.1866 108.088 76.4409 108.366 75.8307 108.784C72.9154 110.524 72.9154 113.308 75.8307 115.048C78.746 116.789 83.4917 116.789 86.4748 115.048C87.0849 114.7 87.6273 114.213 87.9663 113.796L107.831 125.559L128.102 113.587Z" fill="url(#paint1_linear)"/>
<path d="M77.9324 107.947L58.068 96.1837V97.5062L76.5765 108.504C76.9832 108.225 77.4578 108.086 77.9324 107.947Z" fill="white"/>
<path d="M137.255 108.158C136.916 107.392 136.306 106.696 135.289 106.139C132.374 104.399 127.628 104.399 124.645 106.139C122.882 107.183 122.204 108.575 122.543 109.967C122.746 109.062 123.492 108.158 124.645 107.462C127.56 105.721 132.306 105.721 135.289 107.462C136.238 108.018 136.916 108.714 137.255 109.48L157.526 97.4384V96.1158L137.255 108.158Z" fill="white"/>
<path d="M207.694 138.366L169.05 115.466L148.779 127.508C148.44 126.742 147.83 126.046 146.813 125.489C145.796 124.863 144.508 124.515 143.22 124.306C142.542 123.401 140.372 120.756 140.169 120.686C139.898 120.617 133.999 118.877 133.999 118.877V128.621C133.999 129.805 134.677 130.918 136.169 131.823C137.118 132.38 138.338 132.798 139.559 133.007L129.321 139.062L119.22 135.373V145.048L140.101 157.438C140.237 156.394 140.915 155.35 142.27 154.584C143.83 153.61 145.999 153.192 148.033 153.262V162.171L168.915 174.561L212.101 148.946C213.931 147.833 214.881 146.371 214.813 144.979V135.512L207.694 138.366Z" fill="url(#paint2_linear)"/>
<path d="M140.168 140.106V157.299C140.304 156.255 140.982 155.211 142.338 154.445C145.253 152.705 149.999 152.705 152.982 154.445C153.592 154.793 154.066 155.211 154.473 155.698C156.033 155.211 157.66 154.932 159.355 154.793V140.037H140.168V140.106Z" fill="url(#paint3_linear)"/>
<path d="M169.05 115.396L168.914 115.466V174.283L169.05 174.352L212.236 148.737C214.067 147.624 215.016 146.162 214.948 144.77V135.304L207.694 138.297L169.05 115.396Z" fill="url(#paint4_linear)"/>
<path d="M148.101 155.141V152.357L150.474 153.749L148.101 155.141Z" fill="#396CAA"/>
<path d="M214.813 135.861C214.609 137.044 213.728 138.227 212.169 139.132L168.982 164.747L150.813 153.958C150.813 153.68 150.677 153.053 150.677 153.053L148.101 152.357V153.68L168.982 166.069L212.169 140.455C214.27 139.202 215.152 137.531 214.813 135.861Z" fill="white"/>
<path d="M212.169 131.336L169.05 105.721L148.779 117.763C148.44 116.997 147.83 116.301 146.813 115.744C143.898 114.004 139.152 114.004 136.169 115.744C133.254 117.484 133.254 120.269 136.169 122.009C137.118 122.566 138.339 122.983 139.559 123.192L119.288 135.234L140.169 147.624C140.305 146.58 140.983 145.536 142.339 144.77C145.254 143.03 150 143.03 152.983 144.77C155.898 146.51 155.898 149.294 152.983 151.034C151.627 151.8 149.932 152.287 148.169 152.357L169.05 164.747L212.237 139.132C215.83 136.974 215.83 133.494 212.169 131.336Z" fill="url(#paint5_linear)"/>
<path d="M136.169 123.332C136.711 123.68 137.322 123.888 138 124.097L139.559 123.192C138.339 122.983 137.118 122.635 136.169 122.009C134.949 121.313 134.271 120.408 134.067 119.503C133.728 120.895 134.406 122.287 136.169 123.332Z" fill="white"/>
<path d="M155.084 148.529C155.423 147.206 154.745 145.745 152.983 144.7C150.067 142.96 145.322 142.96 142.339 144.7C140.983 145.466 140.305 146.51 140.169 147.554L119.288 135.164V136.487L140.169 148.877C140.305 147.833 140.983 146.789 142.339 146.023C145.254 144.283 150 144.283 152.983 146.023C154.135 146.719 154.813 147.624 155.084 148.529Z" fill="white"/>
<path d="M96.1011 144.909V135.234L86.2028 139.062L76.2367 133.146C75.8978 133.633 75.3554 134.051 74.7452 134.399C71.83 136.139 67.0842 136.139 64.1011 134.399C61.2537 132.728 61.1859 129.944 63.8978 128.204L66.2028 129.526V117.554H59.0164L58.3384 122.566L46.4062 115.396L8.23675 138.018L0.507935 135.164V144.84C0.507935 146.232 1.38929 147.624 3.2198 148.738L46.4062 174.422L66.6774 162.38C67.0164 163.076 67.6266 163.772 68.5757 164.329C71.491 166.069 76.2367 166.069 79.2198 164.329C80.7113 163.424 81.4571 162.241 81.3893 161.058V153.61L96.1011 144.909Z" fill="url(#paint6_linear)"/>
<path d="M46.4062 115.396L8.23675 138.018L0.507935 135.164V144.84C0.507935 146.232 1.38929 147.624 3.2198 148.738L46.4062 174.422V115.396Z" fill="url(#paint7_linear)"/>
<path d="M64.5763 117.554L64.3051 118.181L64.3729 118.25C64.3051 118.32 64.2373 118.32 64.1695 118.389C62.4068 119.433 61.7288 120.826 62.0678 122.218C62.2712 121.313 63.017 120.408 64.1695 119.712C64.7797 119.364 65.5255 119.016 66.2712 118.807V117.554H64.5763Z" fill="white"/>
<path d="M79.2201 148.389C78.271 147.833 77.1184 147.415 75.8981 147.276L96.1693 135.234L76.2371 123.471C75.8981 123.958 75.3557 124.375 74.7456 124.723C71.8303 126.464 67.0845 126.464 64.1015 124.723C61.1862 122.983 61.1862 120.199 64.1015 118.459C64.7117 118.111 65.4574 117.763 66.2032 117.554L46.4066 105.721L3.22013 131.336C-0.440889 133.494 -0.440889 136.974 3.22013 139.132L46.4066 164.747L66.6778 152.705C67.0167 153.401 67.6269 154.097 68.5761 154.654C71.4913 156.394 76.2371 156.394 79.2201 154.654C82.1354 152.914 82.1354 150.129 79.2201 148.389Z" fill="url(#paint8_linear)"/>
<path d="M79.2207 154.654C76.3054 156.394 71.5596 156.394 68.5766 154.654C67.6274 154.097 66.9495 153.401 66.6783 152.705L46.4071 164.747L3.22067 139.132C1.66135 138.227 0.779993 137.044 0.576603 135.861C0.23762 137.462 1.11898 139.132 3.22067 140.385L46.4071 166L66.6783 153.958C67.0173 154.654 67.6274 155.35 68.5766 155.907C71.4918 157.647 76.2376 157.647 79.2207 155.907C80.9834 154.863 81.6613 153.471 81.3224 152.079C81.0512 153.123 80.3732 153.958 79.2207 154.654Z" fill="white"/>
<path d="M75.8312 147.276C76.3736 147.345 76.916 147.485 77.3906 147.624L96.1024 136.557V135.234L75.8312 147.276Z" fill="white"/>
<path d="M147.83 178.459L136.644 171.846C138.407 171.777 140.101 171.359 141.457 170.524C142.678 169.828 143.424 168.853 143.559 167.949L143.627 168.018V167.461C143.627 167.461 143.627 167.461 143.627 167.392V157.717L134.135 161.475L136.305 163.007C134.339 162.937 132.305 163.424 130.746 164.329C129.39 165.095 128.712 166.139 128.576 167.183L107.695 154.793L95.4235 162.102L94.1354 157.717L87.4235 157.16V167.949L89.4574 167.392C89.932 167.531 90.3387 167.74 90.7455 168.018C93.6608 169.758 93.6608 172.543 90.7455 174.283C87.8303 176.023 83.0845 176.023 80.1015 174.283C79.1523 173.726 78.4743 173.03 78.2031 172.334L67.0167 179.016L57.9998 174.7V184.375L101.186 209.99C104.847 212.148 110.678 212.148 114.339 209.99L157.525 184.375V174.7L147.83 178.459Z" fill="url(#paint9_linear)"/>
<path d="M90.8815 158.204C90.407 157.925 89.9324 157.717 89.39 157.508L89.1866 157.16L87.5595 157.09V158.413C88.7798 158.621 89.9324 158.969 90.8815 159.526C92.1019 160.222 92.7798 161.127 92.9832 162.032C93.3222 160.64 92.5765 159.178 90.8815 158.204Z" fill="white"/>
<path d="M136.644 162.102C138.407 162.032 140.101 161.614 141.457 160.779C144.373 159.039 144.373 156.255 141.457 154.515C138.542 152.775 133.796 152.775 130.813 154.515C129.457 155.28 128.779 156.324 128.644 157.369L107.762 144.979L87.4913 157.021C88.7116 157.229 89.8642 157.577 90.8133 158.134C93.7286 159.874 93.7286 162.659 90.8133 164.399C87.8981 166.139 83.1523 166.139 80.1693 164.399C79.2201 163.842 78.5421 163.146 78.2709 162.45L57.9998 174.491L101.186 200.106C104.847 202.264 110.678 202.264 114.339 200.106L157.525 174.491L136.644 162.102Z" fill="url(#paint10_linear)"/>
<path d="M143.627 158.343C143.424 159.248 142.678 160.153 141.526 160.849C140.17 161.614 138.475 162.102 136.712 162.171L138.542 163.285C139.627 163.076 140.644 162.728 141.526 162.171C143.22 161.127 143.898 159.665 143.627 158.343Z" fill="white"/>
<path d="M114.339 200.106C110.678 202.264 104.847 202.264 101.186 200.106L57.9998 174.491V175.814L101.186 201.429C104.847 203.586 110.678 203.586 114.339 201.429L157.525 175.814V174.491L114.339 200.106Z" fill="white"/>
<path d="M46.6776 147.276C55.6265 147.276 62.881 142.975 62.881 137.67C62.881 132.365 55.6265 128.064 46.6776 128.064C37.7287 128.064 30.4742 132.365 30.4742 137.67C30.4742 142.975 37.7287 147.276 46.6776 147.276Z" fill="#ED660A"/>
<path d="M37.1175 16.9045C37.1175 16.9045 37.5243 26.0924 38.2022 32.2177C38.8802 38.4126 53.3209 27.4845 53.3209 27.4845V20.4544L37.1175 16.9045Z" fill="url(#paint11_linear)"/>
<path d="M44.8471 130.988C45.0505 131.545 48.7793 136.208 52.5759 137.392C54.2031 137.879 55.2878 137.949 56.0336 137.879C56.7793 137.809 57.1861 137.044 56.9827 136.348C56.3048 134.468 54.4743 130.57 49.7963 128.204C43.3556 125.002 44.8471 130.988 44.8471 130.988Z" fill="#474747"/>
<path d="M43.5588 132.798C43.5588 132.798 44.9825 136.208 45.3893 139.062C45.6605 140.802 44.7113 143.03 43.9656 144.561C43.491 145.466 42.2707 145.675 41.5249 144.979C40.3046 143.865 38.7453 141.846 38.4741 138.993C38.0673 134.19 38.4741 133.355 38.4741 133.355L43.5588 132.798Z" fill="#474747"/>
<path d="M34.5411 74.8859C34.5411 74.8859 34.0665 80.9416 34.5411 87.6237C35.0157 94.3058 36.7784 125.559 37.1174 133.146C37.1174 133.146 36.9818 135.443 41.253 134.955C45.5242 134.468 45.1852 131.893 45.1852 131.893C45.1852 131.893 51.2191 131.823 51.4225 128.134C51.6259 124.515 57.592 84.5611 57.592 70.1527L34.5411 74.8859Z" fill="url(#paint12_linear)"/>
<path d="M59.8303 43.6331L62.8133 48.3662L72.9828 60.9649C72.9828 60.9649 72.6438 62.1482 71.3557 62.4266C70.3387 62.6354 61.7964 54.2827 58.1354 50.5936C57.1862 49.6191 56.9828 48.0878 57.7286 46.9045L59.8303 43.6331Z" fill="#E0E0E0"/>
<path d="M54.066 24.2827C54.066 24.2827 58.7439 24.1435 60.3711 31.1041C61.9982 38.0647 63.2863 46.7654 61.8626 47.531C57.5914 49.6888 54.8795 47.183 54.8795 47.183L54.066 24.2827Z" fill="url(#paint13_linear)"/>
<path d="M55.4905 24.6305C54.6769 24.2825 53.7956 24.2129 52.982 24.4913C48.982 25.6746 33.9312 30.199 31.4905 32.3567C28.643 34.8625 35.7617 48.9925 35.6939 53.656C35.5583 58.3196 35.0837 63.7488 34.6769 68.7604C34.2702 73.772 33.7278 76.5563 37.7278 78.714C41.7278 80.8718 48.5752 80.9414 53.7278 76.9739C58.8803 72.9368 57.9312 70.2222 57.7278 67.2987C57.5244 64.3753 55.7617 51.7767 55.8973 48.2268C55.8973 48.2268 57.7278 46.8347 59.0159 44.5377C60.3719 42.1711 57.999 37.8556 56.982 35.0714C55.9651 32.2871 57.5244 29.0853 57.2532 26.7883C57.0498 25.5354 56.3041 24.9786 55.4905 24.6305Z" fill="url(#paint14_linear)"/>
<path d="M43.9645 34.097L45.6595 36.1155C45.8628 36.394 45.9984 36.742 45.9306 37.09L44.4391 47.8093C44.3713 48.0877 44.4391 48.4357 44.6425 48.6446L48.3035 53.865C48.4391 54.0738 48.8459 54.0738 48.9137 53.7954L51.151 47.1828C51.2188 46.9044 51.2188 46.626 51.151 46.4172L47.7612 36.5332C47.6934 36.3244 47.6934 36.1155 47.7612 35.8371L48.3713 33.2617L43.9645 34.097Z" fill="white"/>
<path d="M50.677 29.4335C51.016 32.0089 48.7109 34.3755 45.5923 34.7931C42.4736 35.2107 39.694 33.4706 39.355 30.9648C39.016 28.3894 41.3211 26.0228 44.4397 25.6052C47.5584 25.1179 50.3381 26.8581 50.677 29.4335Z" fill="white"/>
<path d="M49.0495 29.6424C49.2529 31.4522 47.6258 33.1923 45.3885 33.4707C43.1512 33.7491 41.1851 32.4962 40.9139 30.6865C40.7105 28.8767 42.3376 27.1366 44.5749 26.8582C46.8122 26.5798 48.8461 27.8327 49.0495 29.6424Z" fill="#E0E0E0"/>
<path d="M46.8121 23.6563C46.8121 23.6563 44.1003 21.3593 43.5579 22.5426C43.0155 23.7259 42.6088 28.6679 42.6088 28.6679L48.0325 30.1296L47.2189 25.0484C47.2189 25.118 48.2359 24.2131 46.8121 23.6563Z" fill="#E0E0E0"/>
<path d="M55.2875 18.227C55.0163 22.7513 51.2197 26.2316 46.7451 26.0228C42.3384 25.6748 38.9485 21.7769 39.2197 17.2525C39.4909 12.7281 43.2875 9.24786 47.7621 9.45668C52.2367 9.6655 55.4909 13.633 55.2875 18.227Z" fill="#FFC2B0"/>
<path d="M43.22 24.0042C43.1522 24.2826 43.1522 24.5611 43.0844 24.8395C43.6268 27.6933 47.8302 28.9462 47.8302 28.9462L47.22 25.1179C47.22 25.1179 47.6946 24.7003 47.559 24.213C45.8641 23.7258 43.8302 23.2386 43.22 24.0042Z" fill="#CECECE"/>
<path d="M55.2875 18.227C55.0163 22.7513 51.2197 26.2316 46.7451 26.0228C42.3384 25.6748 38.9485 21.7769 39.2197 17.2525C39.4909 12.7281 43.2875 9.24786 47.7621 9.45668C52.2367 9.6655 55.4909 13.633 55.2875 18.227Z" fill="#E0E0E0"/>
<path d="M27.4225 52.6818L28.3038 74.8164L31.4225 75.1644L33.5242 55.2572L27.4225 52.6818Z" fill="#E0E0E0"/>
<path d="M37.7275 50.8719C37.5241 50.1062 36.1682 49.4798 35.9648 48.4357C34.8801 43.2849 34.6089 35.6979 34.6089 35.6979L33.7275 46.0691C34.7445 49.1318 35.6258 51.9856 35.558 53.5865C35.4902 56.3011 35.2869 59.2942 35.0835 62.3568C35.0835 62.3568 38.8123 55.6051 37.7275 50.8719Z" fill="#ED660A"/>
<path d="M32.0331 31.8697C32.0331 31.8697 29.5247 32.8442 28.1009 40.7792C26.6772 48.7142 25.5925 56.6493 28.1687 57.6934C30.6772 58.7374 32.8467 59.5031 33.5925 57.3453C34.3382 55.1876 34.8128 44.9555 34.8806 41.336C34.9484 37.7166 35.084 32.6354 32.0331 31.8697Z" fill="url(#paint15_linear)"/>
<path d="M72.1684 59.9903C72.1684 59.9903 73.5244 60.4775 74.5413 61.5912C75.3549 62.4961 75.7616 63.2617 76.1684 63.8186C76.982 65.0019 77.5922 67.6469 77.1176 67.9253C76.643 68.2734 73.9311 63.6098 73.4566 64.6539C72.982 65.7676 73.4566 66.742 72.9142 66.742C72.3718 66.742 70.4057 62.0784 68.8464 60.6167C67.2871 59.155 72.1684 59.9903 72.1684 59.9903Z" fill="#E0E0E0"/>
<path d="M45.1858 131.823C45.1858 131.823 45.9316 131.823 46.8807 131.614L48.0332 82.9602L45.1858 131.823Z" fill="#999999"/>
<path d="M40.6438 105.58L38.9489 103.352L21.3218 92.9116C20.7794 92.5636 20.3049 91.6587 20.3049 90.8931V76.0671L19.2879 74.675L20.2371 74.1181C20.4404 73.9789 20.6438 73.9789 20.915 74.1877L40.915 86.0903C41.4574 86.4383 41.932 87.3432 41.932 88.1088V104.257C41.932 104.675 41.7964 105.023 41.5252 105.093L40.6438 105.58Z" fill="#FF6B00"/>
<path d="M28.4409 97.0898L27.2205 96.3241L20.3731 84.0735V75.9993L19.3561 74.6072L20.3053 74.0503C20.5087 73.9111 20.7121 73.9111 20.9833 74.1199L40.9833 86.0225C41.2544 86.2313 41.5256 86.5097 41.729 86.9274L28.4409 97.0898Z" fill="#FF6B00"/>
<path d="M19.7625 75.3014L19.2879 74.675L20.2371 74.1181C20.4404 73.9789 20.6438 73.9789 20.915 74.1877L21.254 74.3966L19.7625 75.3014Z" fill="#FF6B00"/>
<path d="M41.1188 86.1616C41.5934 86.5096 41.9324 87.2057 41.9324 87.9017L39.9663 89.085L39.0172 87.4145L41.1188 86.1616Z" fill="#FF6B00"/>
<path d="M39.9657 86.5792L19.9657 74.6767C19.4233 74.3286 18.9487 74.6767 18.9487 75.4423V91.5908C18.9487 92.3565 19.4233 93.2614 19.9657 93.6094L39.9657 105.512C40.5081 105.86 40.9826 105.512 40.9826 104.746V88.5978C40.9826 87.8321 40.5758 86.9272 39.9657 86.5792Z" fill="url(#paint16_linear)"/>
<path d="M40.3042 86.3706L20.3042 74.468C19.9652 74.2592 19.694 74.3288 19.4906 74.5376C19.6262 74.5376 19.8296 74.5376 20.033 74.6768L40.033 86.5794C40.5753 86.9274 41.0499 87.8323 41.0499 88.5979V104.746C41.0499 105.094 40.9821 105.303 40.8465 105.442C41.1177 105.373 41.3889 105.025 41.3889 104.538V88.3891C41.3211 87.6235 40.8465 86.7186 40.3042 86.3706Z" fill="white"/>
<path d="M35.898 98.1338L34.9489 97.577V89.2243L35.898 89.7812V98.1338Z" fill="url(#paint17_linear)"/>
<path d="M33.6602 96.8117L32.7111 96.2548V87.9022L33.6602 88.459V96.8117Z" fill="url(#paint18_linear)"/>
<path d="M31.4233 95.5586L30.4742 94.9322V86.5795L31.4233 87.1364V95.5586Z" fill="url(#paint19_linear)"/>
<path d="M28.305 74.6074C28.305 74.6074 27.4914 79.7582 27.627 81.4287C27.7626 83.0992 28.6439 85.8139 29.2541 85.7442C29.9321 85.6746 29.2541 79.0621 30.4067 79.7582C31.5592 80.3846 31.6948 81.5679 32.1694 81.1503C32.7117 80.7326 31.288 75.0946 31.627 72.6584C32.0338 70.2222 28.305 74.6074 28.305 74.6074Z" fill="#E0E0E0"/>
<path d="M50.3389 18.4358C54.4067 19.8975 55.1525 18.9926 55.2203 18.9926C55.2881 18.7142 55.2881 18.5054 55.2881 18.227C55.3559 17.3221 55.2203 16.4172 55.0169 15.582L44.5084 14.1202C44.5084 14.1202 46.2033 16.9045 50.3389 18.4358Z" fill="#CECECE"/>
<path d="M55.5587 9.94378C54.6096 9.10851 51.152 4.93217 45.0503 5.97626C41.1859 6.60271 37.9316 9.24772 37.2537 15.4426C36.7791 19.5493 38.2706 23.6561 40.9825 26.6491C41.1181 26.5795 41.2537 26.5099 41.3892 26.4403C42.9486 25.3962 43.0842 24.8394 43.0842 24.8394L43.4231 21.7071C43.4231 21.2895 43.0842 20.8719 42.6774 20.8719C42.3384 20.8719 41.9316 20.663 41.5248 20.1758C40.6435 18.9925 41.0503 17.1132 42.813 17.0435C43.7621 16.9739 44.1011 16.4867 44.2367 15.9995C44.3723 15.5818 44.7791 15.373 45.1859 15.5122C47.2198 16.2779 52.1689 17.8788 55.3554 16.9739C59.4232 15.721 56.5079 10.779 55.5587 9.94378Z" fill="url(#paint20_linear)"/>
<path d="M50.9492 22.1944L53.3898 21.4984C53.3898 21.4984 52.2373 23.3777 50.4746 23.8649C48.7797 24.3522 48.5085 22.8905 48.5085 22.8905L50.9492 22.1944Z" fill="white"/>
<path d="M32.5076 81.011L30.4059 79.7581L31.2195 81.0806L32.2364 81.4982L32.5076 81.011Z" fill="#FF6B00"/>
<path d="M42.5419 20.315C42.5419 20.8023 42.1351 21.1503 41.7284 21.1503C41.3216 21.1503 40.9148 20.7327 40.9148 20.315C40.9148 19.8974 41.2538 19.4102 41.6606 19.4102C42.0673 19.4102 42.5419 19.8278 42.5419 20.315Z" fill="white"/>
<path d="M168.71 144.213C177.36 144.213 184.371 140.037 184.371 134.886C184.371 129.735 177.36 125.559 168.71 125.559C160.061 125.559 153.049 129.735 153.049 134.886C153.049 140.037 160.061 144.213 168.71 144.213Z" fill="#ED660A"/>
<path d="M169.862 128.761C169.659 129.317 165.862 134.051 162.133 135.164C160.506 135.651 159.422 135.721 158.676 135.651C157.93 135.582 157.523 134.816 157.727 134.12C158.405 132.241 160.235 128.343 164.913 125.976C171.354 122.705 169.862 128.761 169.862 128.761Z" fill="#474747"/>
<path d="M171.152 130.57C171.152 130.57 169.728 133.981 169.321 136.835C169.05 138.575 169.999 140.872 170.745 142.334C171.22 143.238 172.44 143.447 173.186 142.751C174.406 141.637 175.965 139.619 176.237 136.765C176.643 131.962 176.237 131.127 176.237 131.127L171.152 130.57Z" fill="#474747"/>
<path d="M180.168 72.3802C180.168 72.3802 180.642 78.4359 180.168 85.1876C179.693 91.9394 177.93 123.332 177.591 130.849C177.591 130.849 177.727 133.146 173.456 132.659C169.117 132.171 169.456 129.596 169.456 129.596C169.456 129.596 163.422 129.526 163.218 125.837C163.015 122.148 156.981 82.0554 156.981 67.647L180.168 72.3802Z" fill="url(#paint21_linear)"/>
<path d="M169.524 129.596C169.524 129.596 168.778 129.596 167.761 129.387L166.609 80.524L169.524 129.596Z" fill="#999999"/>
<path d="M173.794 27.8327C183.557 32.0091 183.354 37.9255 183.354 37.9255C183.354 37.9255 181.455 59.7121 182.065 74.2597C182.337 80.3153 150.608 80.8026 155.354 64.5845C160.913 45.4429 158.811 29.9905 161.455 27.6239C164.099 25.3269 171.218 26.7887 173.794 27.8327Z" fill="url(#paint22_linear)"/>
<path d="M176.914 33.1226C176.371 35.1412 173.795 36.2549 171.083 35.4892C168.371 34.7932 166.609 32.5658 167.151 30.4776C167.693 28.4591 170.27 27.3454 172.982 28.111C175.693 28.8071 177.456 31.0345 176.914 33.1226Z" fill="#E0E0E0"/>
<path d="M172.779 36.3242C172.168 36.3242 171.558 36.2546 170.948 36.1154C169.524 35.7673 168.304 34.9321 167.423 33.888C166.541 32.7743 166.202 31.5214 166.541 30.3381C167.151 27.9715 170.067 26.649 173.118 27.4843C174.541 27.8323 175.829 28.6676 176.643 29.7117C177.524 30.8253 177.863 32.0782 177.524 33.2615C177.253 34.4448 176.372 35.4193 175.084 35.9065C174.338 36.185 173.592 36.3242 172.779 36.3242ZM171.287 28.5284C169.524 28.5284 168.101 29.3636 167.762 30.6861C167.558 31.4518 167.829 32.3567 168.44 33.1223C169.118 33.9576 170.135 34.584 171.287 34.9321C172.44 35.2105 173.66 35.2105 174.609 34.7929C175.49 34.4448 176.101 33.7488 176.304 32.9831C176.507 32.2175 176.236 31.3126 175.626 30.5469C174.948 29.7117 173.931 29.0852 172.779 28.7372C172.304 28.598 171.762 28.5284 171.287 28.5284Z" fill="white"/>
<path d="M169.862 27.415C169.862 27.415 169.93 27.8326 169.795 31.0345C169.727 32.009 173.185 32.9834 174.066 32.0786C174.947 31.1737 174.608 30.1992 174.812 26.8582C174.947 23.3083 169.862 27.415 169.862 27.415Z" fill="#E0E0E0"/>
<path d="M174.745 26.7188C174.745 26.7188 173.931 29.8511 169.728 31.104L169.796 28.2501L174.745 26.7188Z" fill="#CECECE"/>
<path d="M177.388 18.7141C178.405 22.8209 176.032 27.0668 171.964 28.1109C167.964 29.155 163.828 26.7188 162.811 22.5424C161.795 18.3661 164.167 14.1898 168.235 13.1457C172.235 12.1016 176.371 14.6074 177.388 18.7141Z" fill="#E0E0E0"/>
<path d="M171.829 20.9415C171.829 20.9415 167.693 22.7512 164.778 22.8208C161.93 22.8208 162.54 20.3846 162.54 20.3846L171.083 19.1317L171.829 20.9415Z" fill="#CECECE"/>
<path d="M163.965 21.4289C163.965 21.4289 167.558 19.828 170.744 20.5241C171.49 20.6633 172.168 21.0809 172.643 21.7073C172.778 21.9162 172.982 22.0554 173.253 22.125C173.795 22.2642 174.744 19.828 175.829 19.828C176.914 19.7584 177.66 20.5937 176.778 22.0554C175.897 23.5171 176.168 25.1876 176.575 25.3964C176.982 25.6053 181.389 22.1946 177.524 14.3292C173.66 6.46373 163.897 10.7097 162.338 12.3106C162.338 12.3106 160.711 13.7723 159.422 12.4498C159.355 12.4498 157.931 23.6563 163.965 21.4289Z" fill="url(#paint23_linear)"/>
<path d="M156.71 26.0227L151.422 23.7258C150.812 23.4473 150.338 22.9601 150.134 22.3337L144.914 6.88123L142.473 7.29886L146.677 26.51C146.88 27.4149 147.422 28.1805 148.236 28.5982L156.982 33.6794L156.71 26.0227Z" fill="#E0E0E0"/>
<path d="M211.423 28.5982L212.643 28.0414C213.66 27.5541 214.609 26.8581 215.423 26.0924L216.236 25.2572C216.711 24.7699 216.846 24.0739 216.575 23.4474C216.372 22.9602 215.829 22.7514 215.355 22.9602L212.846 24.2827C212.846 24.2827 213.253 23.169 213.05 22.821C212.846 22.5425 210.88 24.7003 209.999 26.3012C209.118 27.763 211.423 28.5982 211.423 28.5982Z" fill="#E0E0E0"/>
<path d="M190.474 34.7236L194.948 34.2364C196.033 34.0972 197.05 33.7492 197.999 33.2619L210.067 26.2318L211.491 28.5983L199.152 38.3431C198.745 38.6215 198.338 38.9 197.931 39.1088L190.609 42.3106L190.474 34.7236Z" fill="#E0E0E0"/>
<path d="M142.542 7.29897L142.067 6.74212C141.525 6.11567 141.186 5.35001 141.05 4.51474L140.711 2.28737C140.643 1.59131 140.847 0.895254 141.457 0.47762C141.457 0.47762 141.525 0.477621 141.525 0.408016C142.135 -0.00961769 142.948 0.268804 143.219 0.96486L144.304 3.67948C144.304 3.67948 143.965 2.28737 144.372 2.14816C144.711 2.00894 145.321 3.74908 144.914 4.72356C144.575 5.69804 144.914 6.95094 144.914 6.95094L142.542 7.29897Z" fill="#E0E0E0"/>
<path d="M167.085 25.953L165.119 25.3962C165.119 25.3962 166.068 26.9275 167.424 27.2755C168.78 27.6236 168.983 26.5099 168.983 26.5099L167.085 25.953Z" fill="white"/>
<path d="M164.169 26.5099C164.169 26.5099 155.355 24.7002 152.711 23.8649C149.999 23.0297 148.914 30.6167 149.118 32.496C149.321 34.445 158.474 36.5331 159.559 39.8742C160.643 43.2153 164.169 26.5099 164.169 26.5099Z" fill="url(#paint24_linear)"/>
<path d="M177.592 29.8511C177.592 29.8511 184.033 32.7049 194.745 34.0274C195.152 34.097 195.559 34.3754 195.694 34.7931C196.101 36.046 196.847 38.691 196.237 41.4056C196.033 42.5193 195.016 43.3545 193.864 43.3545C190.474 43.3545 183.287 43.633 182.067 46.9044C180.643 51.1504 177.592 29.8511 177.592 29.8511Z" fill="url(#paint25_linear)"/>
<path d="M173.863 35.8371L172.101 37.7861C171.897 38.0645 171.762 38.4125 171.829 38.7605L173.05 49.4798C173.118 49.7582 172.982 50.1062 172.846 50.3151L169.05 55.3963C168.914 55.6051 168.507 55.5355 168.44 55.2571L166.406 48.5749C166.338 48.2965 166.338 48.0181 166.406 47.8093L170.067 38.0645C170.134 37.8557 170.134 37.6469 170.134 37.3684L169.592 34.793L173.863 35.8371Z" fill="white"/>
<path d="M193.118 41.4057C191.219 41.6145 186.473 42.0321 182.812 42.3802C180.711 42.589 179.355 44.6075 179.897 46.6957C181.863 54.3523 179.287 66.6029 179.762 70.7096C180.304 75.6516 177.389 77.6006 177.389 77.6006C180.304 76.9741 182.27 75.7908 182.202 74.2595C181.795 65.35 182.338 53.6563 182.88 45.9997C184.982 43.6331 191.151 43.3546 194.134 43.4242C195.287 43.4242 196.236 42.589 196.44 41.4753C196.711 40.0136 196.643 38.6215 196.44 37.4382C196.372 37.5078 196.372 40.9881 193.118 41.4057Z" fill="#ED660A"/>
<path opacity="0.1" d="M110.407 186.115C120.217 186.115 128.17 181.41 128.17 175.605C128.17 169.8 120.217 165.094 110.407 165.094C100.597 165.094 92.6443 169.8 92.6443 175.605C92.6443 181.41 100.597 186.115 110.407 186.115Z" fill="black"/>
<path d="M96.1695 168.296C94.5424 168.992 93.5254 170.872 93.661 172.821C93.7288 173.726 93.8644 174.631 94 175.048C94.5424 176.162 96.1695 177.693 98.8813 176.579C101.593 175.466 107.559 169.758 107.763 165.999C108.237 159.039 100.441 166.487 96.1695 168.296Z" fill="#474747"/>
<path d="M111.966 179.851C111.966 179.851 111.356 183.888 111.627 184.654C111.966 185.42 113.796 186.951 116.576 186.603C119.356 186.255 127.288 183.471 129.051 178.111C131.762 169.758 113.728 178.738 113.728 178.738L111.966 179.851Z" fill="#474747"/>
<path d="M119.763 115.466L120.373 178.389C120.305 180.547 118.881 182.426 117.051 182.774C116.847 182.844 116.576 182.844 116.305 182.844C114.407 182.983 113.322 182.148 112.644 181.313C112.102 180.617 111.83 179.712 111.83 178.737L111.017 151.869L107.085 127.856L101.661 170.385C101.593 171.568 101.051 172.612 100.169 173.169C99.5592 173.586 98.7456 173.865 97.7287 173.865C96.1694 173.795 95.0846 172.96 94.4744 172.194C93.9321 171.568 93.6609 170.733 93.6609 169.897L95.8304 144.352L96.6439 111.707L119.763 115.466Z" fill="url(#paint26_linear)"/>
<path d="M111.762 59.0854L110.813 64.793C110.813 64.793 110.745 66.742 112.915 67.2988C115.016 67.8557 115.694 66.4636 115.694 66.4636L116.644 59.9903L111.762 59.0854Z" fill="#E0E0E0"/>
<path d="M123.49 55.9532C121.999 60.8952 117.321 63.749 113.05 62.2873C108.779 60.8952 106.541 55.7444 108.101 50.872C109.592 45.93 114.27 43.0762 118.541 44.5379C122.812 45.93 125.05 51.0808 123.49 55.9532Z" fill="#E0E0E0"/>
<path d="M112.035 64.9323C111.899 64.8627 103.018 59.0158 99.6957 65.1411C94.3398 75.1643 98.272 86.6492 96.3737 111.568C96.0347 115.744 101.865 118.25 104.577 119.921C107.018 121.382 109.73 122.218 112.509 122.218C115.289 122.218 120.577 119.712 120.441 115.953C119.56 98.8302 121.052 84.3522 122.408 70.3615C122.408 70.4311 120.713 68.5518 112.035 64.9323Z" fill="url(#paint27_linear)"/>
<path d="M107.085 127.856L101.661 170.385C101.593 171.568 101.051 172.612 100.17 173.169C100.034 173.239 99.8985 173.378 99.6951 173.447C100.848 172.612 104.102 136.905 104.712 132.937C105.39 128.97 107.085 127.856 107.085 127.856Z" fill="#999999"/>
<path d="M140.847 70.1529L148.304 54.9788L145.931 53.4475L138.27 65.002L140.847 70.1529Z" fill="#E0E0E0"/>
<path d="M91.8295 54.0738L95.4227 37.1597H98.2701L97.1854 51.22L91.8295 54.0738Z" fill="#E0E0E0"/>
<path d="M122.406 70.4312C122.406 70.4312 130.745 73.7723 137.864 64.5147C138.474 63.6795 139.762 63.8187 140.169 64.6539C140.779 66.1853 141.593 68.4822 140.644 70.64C136.305 80.176 121.593 79.8279 118.067 85.1875C114.474 90.4776 122.406 70.4312 122.406 70.4312Z" fill="url(#paint28_linear)"/>
<path d="M106.406 62.8441C106.406 62.8441 99.5586 63.4009 98.5416 57.2756C97.9993 54.1434 97.8637 52.264 97.8637 51.1503C97.8637 50.3847 97.2535 49.8974 96.5077 49.967C94.8806 50.1759 92.3044 50.6631 91.9654 51.8464C91.423 53.5169 90.4738 61.8 97.2535 74.5378C101.728 82.8209 106.406 62.8441 106.406 62.8441Z" fill="url(#paint29_linear)"/>
<path d="M95.4221 37.1596L95.4899 35.2106C95.4899 34.5146 95.6933 33.8881 96.0323 33.2617L97.9306 30.0598L98.4052 29.4334C98.8797 28.8069 99.6933 28.6677 100.303 29.0853L100.71 29.3638C101.253 29.7118 101.592 30.3382 101.524 31.0343L100.507 33.7489L101.727 33.4705C101.998 33.4009 102.202 33.6097 102.27 33.8185C102.337 34.0273 102.202 34.2362 101.998 34.3058L99.9645 35.141L98.134 37.8556L95.4221 37.1596Z" fill="#E0E0E0"/>
<path d="M148.304 55.0482L149.186 53.308C149.525 52.6816 149.66 52.0551 149.593 51.3591L149.457 47.6004L149.321 46.7651C149.186 45.9995 148.576 45.4426 147.83 45.5122H147.288C146.61 45.5122 146.067 45.9299 145.728 46.5563L145.254 49.4101L144.304 48.5749C144.101 48.4357 143.83 48.4357 143.694 48.6445C143.559 48.7837 143.559 49.0621 143.694 49.2013L145.05 50.9415L145.389 54.6305L148.304 55.0482Z" fill="#E0E0E0"/>
<path d="M116.982 83.2384C116.236 86.6491 120.643 112.125 115.761 121.452C118.202 120.477 120.575 118.459 120.439 115.953C119.829 103.702 120.372 92.844 121.253 82.4727C125.389 80.315 131.829 79.0621 136.439 75.5818C131.558 77.5307 117.66 80.2454 116.982 83.2384Z" fill="#ED660A"/>
<path d="M108.847 63.3312L110.067 62.0087C110.067 62.0087 112.101 64.1665 113.729 64.5145C113.729 64.5145 115.695 65.0714 116.644 65.141L117.457 67.3684C117.457 67.3684 111.017 66.8811 108.847 63.3312Z" fill="white"/>
<path d="M117.728 56.0921C118.067 56.0921 118.406 55.9529 118.609 55.6049C118.948 55.1177 118.745 52.8207 119.762 52.4031C121.389 51.7766 125.253 53.8648 125.66 47.8787C125.863 44.7465 124.372 43.9112 124.372 42.2407C124.372 42.2407 124.507 43.0759 116.643 42.5887C108.779 42.0318 106.27 49.2012 106.067 52.6119C105.863 56.0225 107.49 61.591 112.846 62.3566C113.728 62.4959 117.457 59.4332 117.389 59.0156C117.321 58.5979 115.897 58.6676 116.101 57.4843C116.236 56.5098 116.846 56.1618 117.728 56.0921Z" fill="url(#paint30_linear)"/>
<defs>
<linearGradient id="paint0_linear" x1="58.0447" y1="106.982" x2="157.541" y2="106.982" gradientUnits="userSpaceOnUse">
<stop stop-color="#FF6B00"/>
<stop offset="0.1052" stop-color="#FF740F"/>
<stop offset="0.2727" stop-color="#FF8730"/>
<stop offset="0.7525" stop-color="#DE5D00"/>
<stop offset="0.8939" stop-color="#FF7B1C"/>
<stop offset="1" stop-color="#FF6B00"/>
</linearGradient>
<linearGradient id="paint1_linear" x1="58.0447" y1="97.2955" x2="157.541" y2="97.2955" gradientUnits="userSpaceOnUse">
<stop stop-color="#FDFDFD"/>
<stop offset="0.6446" stop-color="#BDBDBD"/>
</linearGradient>
<linearGradient id="paint2_linear" x1="119.27" y1="144.916" x2="214.914" y2="144.916" gradientUnits="userSpaceOnUse">
<stop offset="0.00615385" stop-color="#FF6B00"/>
<stop offset="1" stop-color="#FF8730"/>
</linearGradient>
<linearGradient id="paint3_linear" x1="140.161" y1="148.69" x2="159.31" y2="148.69" gradientUnits="userSpaceOnUse">
<stop stop-color="#FF6B00"/>
<stop offset="0.1052" stop-color="#FF740F"/>
<stop offset="0.2727" stop-color="#FF8730"/>
<stop offset="0.7525" stop-color="#DE5D00"/>
<stop offset="0.8939" stop-color="#FF7B1C"/>
<stop offset="1" stop-color="#FF6B00"/>
</linearGradient>
<linearGradient id="paint4_linear" x1="168.867" y1="144.916" x2="214.913" y2="144.916" gradientUnits="userSpaceOnUse">
<stop stop-color="#FF6B00"/>
<stop offset="0.1052" stop-color="#FF740F"/>
<stop offset="0.2727" stop-color="#FF8730"/>
<stop offset="0.7525" stop-color="#DE5D00"/>
<stop offset="0.8939" stop-color="#FF7B1C"/>
<stop offset="1" stop-color="#FF6B00"/>
</linearGradient>
<linearGradient id="paint5_linear" x1="119.27" y1="135.23" x2="214.918" y2="135.23" gradientUnits="userSpaceOnUse">
<stop offset="0.00615385" stop-color="#FF6B00"/>
<stop offset="1" stop-color="#FF8730"/>
</linearGradient>
<linearGradient id="paint6_linear" x1="0.473019" y1="144.916" x2="96.1211" y2="144.916" gradientUnits="userSpaceOnUse">
<stop stop-color="#FF6B00"/>
<stop offset="0.1052" stop-color="#FF740F"/>
<stop offset="0.2727" stop-color="#FF8730"/>
<stop offset="0.7525" stop-color="#DE5D00"/>
<stop offset="0.8939" stop-color="#FF7B1C"/>
<stop offset="1" stop-color="#FF6B00"/>
</linearGradient>
<linearGradient id="paint7_linear" x1="0.473019" y1="144.916" x2="46.3738" y2="144.916" gradientUnits="userSpaceOnUse">
<stop stop-color="#FF6B00"/>
<stop offset="0.1052" stop-color="#FF740F"/>
<stop offset="0.2727" stop-color="#FF8730"/>
<stop offset="0.7525" stop-color="#DE5D00"/>
<stop offset="0.8939" stop-color="#FF7B1C"/>
<stop offset="1" stop-color="#FF6B00"/>
</linearGradient>
<linearGradient id="paint8_linear" x1="0.473348" y1="135.229" x2="96.1214" y2="135.229" gradientUnits="userSpaceOnUse">
<stop offset="0.00615385" stop-color="#FF6B00"/>
<stop offset="1" stop-color="#FF8730"/>
</linearGradient>
<linearGradient id="paint9_linear" x1="58.0457" y1="183.05" x2="157.542" y2="183.05" gradientUnits="userSpaceOnUse">
<stop stop-color="#FF6B00"/>
<stop offset="0.1052" stop-color="#FF740F"/>
<stop offset="0.2727" stop-color="#FF8730"/>
<stop offset="0.7525" stop-color="#DE5D00"/>
<stop offset="0.8939" stop-color="#FF7B1C"/>
<stop offset="1" stop-color="#FF6B00"/>
</linearGradient>
<linearGradient id="paint10_linear" x1="58.0457" y1="173.364" x2="157.542" y2="173.364" gradientUnits="userSpaceOnUse">
<stop stop-color="#FDFDFD"/>
<stop offset="0.6446" stop-color="#BDBDBD"/>
</linearGradient>
<linearGradient id="paint11_linear" x1="37.1264" y1="25.5171" x2="53.3767" y2="25.5171" gradientUnits="userSpaceOnUse">
<stop stop-color="#C8C8C8"/>
<stop offset="0.2038" stop-color="#CCCCCC"/>
<stop offset="0.3938" stop-color="#D7D7D7"/>
<stop offset="0.5202" stop-color="#E3E3E3"/>
<stop offset="0.8152" stop-color="#F3F3F3"/>
<stop offset="1" stop-color="white"/>
</linearGradient>
<linearGradient id="paint12_linear" x1="34.3371" y1="102.548" x2="57.6014" y2="102.548" gradientUnits="userSpaceOnUse">
<stop stop-color="#FDFDFD"/>
<stop offset="0.6446" stop-color="#BDBDBD"/>
</linearGradient>
<linearGradient id="paint13_linear" x1="54.0663" y1="36.3815" x2="62.5012" y2="36.3815" gradientUnits="userSpaceOnUse">
<stop offset="0.00615385" stop-color="#FF6B00"/>
<stop offset="1" stop-color="#FF8730"/>
</linearGradient>
<linearGradient id="paint14_linear" x1="30.7426" y1="52.2244" x2="59.3735" y2="52.2244" gradientUnits="userSpaceOnUse">
<stop offset="0.00615385" stop-color="#FF6B00"/>
<stop offset="1" stop-color="#FF8730"/>
</linearGradient>
<linearGradient id="paint15_linear" x1="26.5914" y1="45.3368" x2="34.8783" y2="45.3368" gradientUnits="userSpaceOnUse">
<stop offset="0.00615385" stop-color="#FF6B00"/>
<stop offset="1" stop-color="#FF8730"/>
</linearGradient>
<linearGradient id="paint16_linear" x1="18.9759" y1="90.1203" x2="41.0106" y2="90.1203" gradientUnits="userSpaceOnUse">
<stop stop-color="#C8C8C8"/>
<stop offset="0.2285" stop-color="#CFCFCF"/>
<stop offset="0.549" stop-color="#E1E1E1"/>
<stop offset="0.5808" stop-color="#E3E3E3"/>
<stop offset="0.9935" stop-color="#F3F3F3"/>
<stop offset="1" stop-color="#F3F3F3"/>
</linearGradient>
<linearGradient id="paint17_linear" x1="34.9354" y1="93.6823" x2="35.8867" y2="93.6823" gradientUnits="userSpaceOnUse">
<stop offset="0.00615385" stop-color="#FF6B00"/>
<stop offset="1" stop-color="#FF8730"/>
</linearGradient>
<linearGradient id="paint18_linear" x1="32.7126" y1="92.3654" x2="33.6639" y2="92.3654" gradientUnits="userSpaceOnUse">
<stop offset="0.00615385" stop-color="#FF6B00"/>
<stop offset="1" stop-color="#FF8730"/>
</linearGradient>
<linearGradient id="paint19_linear" x1="30.4907" y1="91.048" x2="31.442" y2="91.048" gradientUnits="userSpaceOnUse">
<stop offset="0.00615385" stop-color="#FF6B00"/>
<stop offset="1" stop-color="#FF8730"/>
</linearGradient>
<linearGradient id="paint20_linear" x1="37.118" y1="16.2358" x2="57.4392" y2="16.2358" gradientUnits="userSpaceOnUse">
<stop stop-color="#C8C8C8"/>
<stop offset="0.2038" stop-color="#CCCCCC"/>
<stop offset="0.3938" stop-color="#D7D7D7"/>
<stop offset="0.5202" stop-color="#E3E3E3"/>
<stop offset="0.8152" stop-color="#F3F3F3"/>
<stop offset="1" stop-color="white"/>
</linearGradient>
<linearGradient id="paint21_linear" x1="157.04" y1="100.192" x2="180.404" y2="100.192" gradientUnits="userSpaceOnUse">
<stop stop-color="#FDFDFD"/>
<stop offset="0.6446" stop-color="#BDBDBD"/>
</linearGradient>
<linearGradient id="paint22_linear" x1="154.897" y1="52.2736" x2="183.369" y2="52.2736" gradientUnits="userSpaceOnUse">
<stop offset="0.00615385" stop-color="#FF6B00"/>
<stop offset="1" stop-color="#FF8730"/>
</linearGradient>
<linearGradient id="paint23_linear" x1="159.224" y1="17.5369" x2="179.044" y2="17.5369" gradientUnits="userSpaceOnUse">
<stop stop-color="#C8C8C8"/>
<stop offset="0.2038" stop-color="#CCCCCC"/>
<stop offset="0.3938" stop-color="#D7D7D7"/>
<stop offset="0.5202" stop-color="#E3E3E3"/>
<stop offset="0.8152" stop-color="#F3F3F3"/>
<stop offset="1" stop-color="white"/>
</linearGradient>
<linearGradient id="paint24_linear" x1="149.08" y1="32.0962" x2="164.181" y2="32.0962" gradientUnits="userSpaceOnUse">
<stop offset="0.00615385" stop-color="#FF6B00"/>
<stop offset="1" stop-color="#FF8730"/>
</linearGradient>
<linearGradient id="paint25_linear" x1="177.622" y1="38.6748" x2="196.529" y2="38.6748" gradientUnits="userSpaceOnUse">
<stop offset="0.00615385" stop-color="#FF6B00"/>
<stop offset="1" stop-color="#FF8730"/>
</linearGradient>
<linearGradient id="paint26_linear" x1="93.6961" y1="147.279" x2="120.345" y2="147.279" gradientUnits="userSpaceOnUse">
<stop stop-color="#FDFDFD"/>
<stop offset="0.6446" stop-color="#BDBDBD"/>
</linearGradient>
<linearGradient id="paint27_linear" x1="96.3764" y1="92.2945" x2="122.414" y2="92.2945" gradientUnits="userSpaceOnUse">
<stop offset="0.00615385" stop-color="#FF6B00"/>
<stop offset="1" stop-color="#FF8730"/>
</linearGradient>
<linearGradient id="paint28_linear" x1="117.123" y1="75.0222" x2="141.094" y2="75.0222" gradientUnits="userSpaceOnUse">
<stop offset="0.00615385" stop-color="#FF6B00"/>
<stop offset="1" stop-color="#FF8730"/>
</linearGradient>
<linearGradient id="paint29_linear" x1="91.6204" y1="63.2554" x2="106.413" y2="63.2554" gradientUnits="userSpaceOnUse">
<stop offset="0.00615385" stop-color="#FF6B00"/>
<stop offset="1" stop-color="#FF8730"/>
</linearGradient>
<linearGradient id="paint30_linear" x1="106.078" y1="52.333" x2="125.648" y2="52.333" gradientUnits="userSpaceOnUse">
<stop stop-color="#C8C8C8"/>
<stop offset="0.2038" stop-color="#CCCCCC"/>
<stop offset="0.3938" stop-color="#D7D7D7"/>
<stop offset="0.5202" stop-color="#E3E3E3"/>
<stop offset="0.8152" stop-color="#F3F3F3"/>
<stop offset="1" stop-color="white"/>
</linearGradient>
</defs>
</svg>
