<svg xmlns="http://www.w3.org/2000/svg" xmlns:xlink="http://www.w3.org/1999/xlink" width="217" height="226" fill="none" xmlns:v="https://vecta.io/nano"><style><![CDATA[.B{fill:#fff}.C{fill:#e0e0e0}.D{fill:#ed660a}.E{fill:#cecece}.F{fill:#474747}]]></style><path opacity=".07" d="M124.576 141.916c-1.017-.139-2.034-.487-2.847-.974-2.441-1.462-2.441-3.759 0-5.221s6.372-1.462 8.745 0c.814.487 1.356 1.044 1.627 1.671l16.746-9.954-35.661-21.16c-2.983-1.81-7.864-1.81-10.847 0l-35.593 21.23 16.407 9.744c-.61.209-1.22.418-1.763.696-2.441 1.462-2.441 3.759 0 5.221s6.373 1.462 8.746 0c.542-.279.949-.696 1.22-1.044l16.406 9.745 16.814-9.954zm79.728 22.274l-35.661-21.16-16.746 9.953c-.271-.626-.813-1.183-1.627-1.67-2.441-1.462-6.373-1.462-8.746 0-2.44 1.461-2.44 3.758 0 5.22.814.487 1.763.766 2.848.975l-16.746 9.953 17.22 10.232c.068-.835.678-1.74 1.831-2.366 2.441-1.462 6.373-1.462 8.746 0 2.44 1.461 2.44 3.758 0 5.22-1.085.627-2.509 1.044-4 1.044l17.22 10.232 35.661-21.16c3.051-1.81 3.051-4.664 0-6.473zM73.593 178.877c-.813-.488-1.763-.766-2.78-.975l16.746-9.884-16.407-9.745c-.271.348-.678.696-1.22 1.045-2.441 1.461-6.373 1.461-8.746 0-2.441-1.462-2.441-3.759 0-5.221.542-.278 1.153-.557 1.763-.696l-16.407-9.745-35.661 21.16c-2.983 1.81-2.983 4.664 0 6.404l35.661 21.16 16.746-9.884c.271.627.814 1.184 1.559 1.601 2.441 1.462 6.373 1.462 8.746 0 2.441-1.462 2.441-3.759 0-5.22zm56.746 16.148c1.356-.07 2.711-.418 3.796-.974 2.305-1.393 2.305-3.55 0-4.942s-6.034-1.393-8.271 0c-1.017.626-1.627 1.392-1.695 2.227l-16.339-9.675-15.796 9.397c.949.139 1.831.417 2.576.904 2.305 1.393 2.305 3.55 0 4.942s-6.034 1.393-8.271 0c-.746-.417-1.22-.974-1.492-1.531L69.05 204.77l33.695 19.977c2.848 1.67 7.458 1.67 10.238 0l33.695-19.977-16.339-9.745z" fill="#000"/><path d="M146.407 99.248l-32.068-19.002c-3.661-2.158-9.491-2.158-13.152 0l-33.56 19.907-9.559-4.037v9.675l15.593 9.258v6.473c-.068 1.183.678 2.366 2.169 3.271 2.915 1.74 7.661 1.74 10.644 0a5.57 5.57 0 0 0 1.492-1.253l19.865 11.764 20.271-12.042v-8.631c2.508-.418 5.288 0 7.186 1.183.95.557 1.627 1.253 1.966 2.019l20.272-12.042v-9.675l-11.119 3.132z" fill="url(#A)"/><path d="M126.204 114.352l-.339.488h.204l-18.237 10.788-19.865-11.763c-.339.487-.881.905-1.492 1.253-2.915 1.74-7.661 1.74-10.644 0-1.22-.696-1.898-1.601-2.102-2.506-.339 1.323.339 2.784 2.102 3.828 2.915 1.741 7.661 1.741 10.644 0 .61-.348 1.153-.835 1.492-1.252l19.865 11.763 20.271-12.042v-1.322l-1.899.765z" class="B"/><path d="M128.102 113.587c-1.22-.209-2.441-.557-3.39-1.184-2.915-1.74-2.915-4.524 0-6.264s7.661-1.74 10.644 0c.949.557 1.627 1.253 1.966 2.019l20.271-12.042-43.186-25.615c-3.661-2.158-9.492-2.158-13.153 0L58.068 96.116l19.864 11.763c-.746.209-1.492.487-2.102.905-2.915 1.74-2.915 4.524 0 6.264s7.661 1.741 10.644 0c.61-.348 1.153-.835 1.492-1.252l19.865 11.763 20.271-11.972z" fill="url(#B)"/><path d="M77.932 107.947L58.068 96.184v1.323l18.508 10.998c.407-.279.881-.418 1.356-.557zm59.323.211c-.339-.766-.949-1.462-1.966-2.019-2.915-1.74-7.661-1.74-10.644 0-1.763 1.044-2.441 2.436-2.102 3.828.203-.905.949-1.809 2.102-2.505 2.915-1.741 7.661-1.741 10.644 0 .949.556 1.627 1.252 1.966 2.018l20.271-12.042v-1.323l-20.271 12.042z" class="B"/><path d="M207.694 138.366l-38.644-22.9-20.271 12.042c-.339-.766-.949-1.462-1.966-2.019-1.017-.626-2.305-.974-3.593-1.183-.678-.905-2.848-3.55-3.051-3.62l-6.17-1.809v9.744c0 1.184.678 2.297 2.17 3.202.949.557 2.169.975 3.39 1.184l-10.238 6.055-10.101-3.689v9.675l20.881 12.39c.136-1.044.814-2.088 2.169-2.854 1.56-.974 3.729-1.392 5.763-1.322v8.909l20.882 12.39 43.186-25.615c1.83-1.113 2.78-2.575 2.712-3.967v-9.467l-7.119 2.854z" fill="url(#C)"/><path d="M140.168 140.106v17.193c.136-1.044.814-2.088 2.17-2.854 2.915-1.74 7.661-1.74 10.644 0 .61.348 1.084.766 1.491 1.253 1.56-.487 3.187-.766 4.882-.905v-14.756h-19.187v.069z" fill="url(#D)"/><path d="M169.05 115.396l-.136.07v58.817l.136.069 43.186-25.615c1.831-1.113 2.78-2.575 2.712-3.967v-9.466l-7.254 2.993-38.644-22.901z" fill="url(#E)"/><path d="M148.101 155.141v-2.784l2.373 1.392-2.373 1.392z" fill="#396caa"/><path d="M214.813 135.861c-.204 1.183-1.085 2.366-2.644 3.271l-43.187 25.615-18.169-10.789c0-.278-.136-.905-.136-.905l-2.576-.696v1.323l20.881 12.389 43.187-25.614c2.101-1.253 2.983-2.924 2.644-4.594z" class="B"/><path d="M212.169 131.336l-43.119-25.615-20.271 12.042c-.339-.766-.949-1.462-1.966-2.019-2.915-1.74-7.661-1.74-10.644 0-2.915 1.74-2.915 4.525 0 6.265.949.557 2.17.974 3.39 1.183l-20.271 12.042 20.881 12.39c.136-1.044.814-2.088 2.17-2.854 2.915-1.74 7.661-1.74 10.644 0 2.915 1.74 2.915 4.524 0 6.264-1.356.766-3.051 1.253-4.814 1.323l20.881 12.39 43.187-25.615c3.593-2.158 3.593-5.638-.068-7.796z" fill="url(#F)"/><path d="M136.169 123.332c.542.348 1.153.556 1.831.765l1.559-.905c-1.22-.209-2.441-.557-3.39-1.183-1.22-.696-1.898-1.601-2.102-2.506-.339 1.392.339 2.784 2.102 3.829zm18.915 25.197c.339-1.323-.339-2.784-2.101-3.829-2.916-1.74-7.661-1.74-10.644 0-1.356.766-2.034 1.81-2.17 2.854l-20.881-12.39v1.323l20.881 12.39c.136-1.044.814-2.088 2.17-2.854 2.915-1.74 7.661-1.74 10.644 0 1.152.696 1.83 1.601 2.101 2.506z" class="B"/><path d="M96.101 144.909v-9.675l-9.898 3.828-9.966-5.916c-.339.487-.881.905-1.492 1.253-2.915 1.74-7.661 1.74-10.644 0-2.847-1.671-2.915-4.455-.203-6.195l2.305 1.322v-11.972h-7.186l-.678 5.012-11.932-7.17-38.169 22.622-7.729-2.854v9.676c0 1.392.881 2.784 2.712 3.898l43.186 25.684 20.271-12.042c.339.696.949 1.392 1.898 1.949 2.915 1.74 7.661 1.74 10.644 0 1.491-.905 2.237-2.088 2.169-3.271v-7.448l14.712-8.701z" fill="url(#G)"/><path d="M46.406 115.396L8.237 138.018.508 135.164v9.676c0 1.392.881 2.784 2.712 3.898l43.186 25.684v-59.026z" fill="url(#H)"/><path d="M64.576 117.554l-.271.627.068.069c-.068.07-.136.07-.203.139-1.763 1.044-2.441 2.437-2.102 3.829.203-.905.949-1.81 2.102-2.506.61-.348 1.356-.696 2.102-.905v-1.253h-1.695z" class="B"/><path d="M79.22 148.389a8.58 8.58 0 0 0-3.322-1.113l20.271-12.042-19.932-11.763c-.339.487-.881.904-1.492 1.252-2.915 1.741-7.661 1.741-10.644 0-2.915-1.74-2.915-4.524 0-6.264.61-.348 1.356-.696 2.102-.905l-19.797-11.833L3.22 131.336c-3.661 2.158-3.661 5.638 0 7.796l43.186 25.615 20.271-12.042c.339.696.949 1.392 1.898 1.949 2.915 1.74 7.661 1.74 10.644 0 2.915-1.74 2.915-4.525 0-6.265z" fill="url(#I)"/><path d="M79.221 154.654c-2.915 1.74-7.661 1.74-10.644 0-.949-.557-1.627-1.253-1.898-1.949l-20.271 12.042-43.186-25.615c-1.559-.905-2.441-2.088-2.644-3.271-.339 1.601.542 3.271 2.644 4.524L46.407 166l20.271-12.042c.339.696.949 1.392 1.898 1.949 2.915 1.74 7.661 1.74 10.644 0 1.763-1.044 2.441-2.436 2.102-3.828-.271 1.044-.949 1.879-2.102 2.575zm-3.39-7.378c.542.069 1.085.209 1.559.348l18.712-11.067v-1.323l-20.271 12.042z" class="B"/><path d="M147.83 178.459l-11.186-6.613c1.763-.069 3.457-.487 4.813-1.322 1.221-.696 1.967-1.671 2.102-2.575l.068.069v-.557-.069-9.675l-9.492 3.758 2.17 1.532c-1.966-.07-4 .417-5.559 1.322-1.356.766-2.034 1.81-2.17 2.854l-20.881-12.39-12.271 7.309-1.288-4.385-6.712-.557v10.789l2.034-.557a4.45 4.45 0 0 1 1.288.626c2.915 1.74 2.915 4.525 0 6.265s-7.661 1.74-10.644 0c-.949-.557-1.627-1.253-1.898-1.949l-11.186 6.682L58 174.7v9.675l43.186 25.615c3.661 2.158 9.492 2.158 13.153 0l43.186-25.615V174.7l-9.695 3.759z" fill="url(#J)"/><path d="M90.882 158.204c-.475-.279-.949-.487-1.492-.696l-.203-.348-1.627-.07v1.323c1.22.208 2.373.556 3.322 1.113 1.22.696 1.898 1.601 2.102 2.506.339-1.392-.407-2.854-2.102-3.828z" class="B"/><path d="M136.644 162.102c1.763-.07 3.457-.488 4.813-1.323 2.916-1.74 2.916-4.524 0-6.264s-7.661-1.74-10.644 0c-1.356.765-2.034 1.809-2.169 2.854l-20.882-12.39-20.271 12.042c1.22.208 2.373.556 3.322 1.113 2.915 1.74 2.915 4.525 0 6.265s-7.661 1.74-10.644 0c-.949-.557-1.627-1.253-1.898-1.949L58 174.491l43.186 25.615c3.661 2.158 9.492 2.158 13.153 0l43.186-25.615-20.881-12.389z" fill="url(#K)"/><path d="M143.627 158.343c-.203.905-.949 1.81-2.101 2.506-1.356.765-3.051 1.253-4.814 1.322l1.83 1.114c1.085-.209 2.102-.557 2.984-1.114 1.694-1.044 2.372-2.506 2.101-3.828zm-29.288 41.763c-3.661 2.158-9.492 2.158-13.153 0L58 174.491v1.323l43.186 25.615c3.661 2.157 9.492 2.157 13.153 0l43.186-25.615v-1.323l-43.186 25.615z" class="B"/><path d="M46.678 147.276c8.949 0 16.203-4.301 16.203-9.606s-7.254-9.606-16.203-9.606-16.203 4.301-16.203 9.606 7.255 9.606 16.203 9.606z" class="D"/><path d="M37.118 16.905s.407 9.188 1.085 15.313c.678 6.195 15.119-4.733 15.119-4.733v-7.03l-16.203-3.55z" fill="url(#L)"/><path d="M44.847 130.988c.203.557 3.932 5.22 7.729 6.404 1.627.487 2.712.557 3.458.487s1.153-.835.949-1.531c-.678-1.88-2.508-5.778-7.186-8.144-6.441-3.202-4.949 2.784-4.949 2.784zm-1.288 1.81s1.424 3.41 1.831 6.264c.271 1.74-.678 3.968-1.424 5.499-.475.905-1.695 1.114-2.441.418-1.22-1.114-2.78-3.133-3.051-5.986-.407-4.803 0-5.638 0-5.638l5.085-.557z" class="F"/><path d="M34.541 74.886s-.475 6.056 0 12.738l2.576 45.522s-.136 2.297 4.136 1.809 3.932-3.062 3.932-3.062 6.034-.07 6.237-3.759c.203-3.619 6.169-43.573 6.169-57.981l-23.051 4.733z" fill="url(#M)"/><path d="M59.83 43.633l2.983 4.733 10.17 12.599s-.339 1.183-1.627 1.462c-1.017.209-9.559-8.144-13.22-11.833-.949-.974-1.153-2.506-.407-3.689l2.102-3.271z" class="C"/><path d="M54.066 24.283s4.678-.139 6.305 6.821 2.915 15.661 1.492 16.427c-4.271 2.158-6.983-.348-6.983-.348l-.813-22.9z" fill="url(#N)"/><path d="M55.491 24.631c-.814-.348-1.695-.418-2.508-.139-4 1.183-19.051 5.708-21.491 7.865-2.847 2.506 4.271 16.636 4.203 21.299-.136 4.664-.61 10.093-1.017 15.104s-.949 7.796 3.051 9.954 10.847 2.227 16-1.74c5.152-4.037 4.203-6.752 4-9.675s-1.966-15.522-1.831-19.072c0 0 1.831-1.392 3.119-3.689 1.356-2.367-1.017-6.682-2.034-9.466s.542-5.986.271-8.283c-.203-1.253-.949-1.81-1.763-2.158z" fill="url(#O)"/><g class="B"><path d="M43.965 34.097l1.695 2.018c.203.279.339.627.271.975l-1.491 10.719c-.068.278 0 .626.203.835l3.661 5.22c.136.209.542.209.61-.07l2.237-6.613c.068-.278.068-.557 0-.766l-3.39-9.884c-.068-.209-.068-.418 0-.696l.61-2.575-4.407.835z"/><path d="M50.677 29.434c.339 2.575-1.966 4.942-5.085 5.36s-5.898-1.323-6.237-3.828c-.339-2.575 1.966-4.942 5.085-5.36 3.119-.487 5.898 1.253 6.237 3.828z"/></g><g class="C"><path d="M49.05 29.642c.203 1.81-1.424 3.55-3.661 3.828s-4.203-.974-4.475-2.784c-.203-1.81 1.424-3.55 3.661-3.828s4.271.974 4.475 2.784z"/><path d="M46.812 23.656s-2.712-2.297-3.254-1.114-.949 6.125-.949 6.125l5.424 1.462-.814-5.081c0 .07 1.017-.835-.407-1.392z"/></g><use xlink:href="#f" fill="#ffc2b0"/><path d="M43.22 24.004c-.068.278-.068.557-.136.835.542 2.854 4.746 4.107 4.746 4.107l-.61-3.828s.475-.418.339-.905c-1.695-.487-3.729-.974-4.339-.209z" class="E"/><g class="C"><use xlink:href="#f"/><path d="M27.423 52.682l.881 22.135 3.119.348 2.102-19.907-6.102-2.575z"/></g><path d="M37.728 50.872c-.203-.766-1.559-1.392-1.763-2.436-1.085-5.151-1.356-12.738-1.356-12.738l-.881 10.371c1.017 3.063 1.898 5.916 1.831 7.517-.068 2.715-.271 5.708-.474 8.77 0 0 3.729-6.752 2.644-11.485z" class="D"/><path d="M32.033 31.87s-2.508.974-3.932 8.91-2.508 15.87.068 16.914c2.508 1.044 4.678 1.81 5.424-.348s1.22-12.39 1.288-16.009.203-8.701-2.848-9.466z" fill="url(#P)"/><path d="M72.168 59.99a6.66 6.66 0 0 0 2.373 1.601c.814.905 1.22 1.67 1.627 2.227.814 1.183 1.424 3.828.949 4.107-.475.348-3.186-4.315-3.661-3.271-.475 1.114 0 2.088-.542 2.088s-2.508-4.664-4.068-6.125 3.322-.626 3.322-.626z" class="C"/><path d="M45.186 131.823s.746 0 1.695-.209l1.153-48.654-2.847 48.863z" fill="#999"/><g fill="#ff6b00"><path d="M40.644 105.58l-1.695-2.228-17.627-10.44c-.542-.348-1.017-1.253-1.017-2.019V76.067l-1.017-1.392.949-.557c.203-.139.407-.139.678.07l20 11.903c.542.348 1.017 1.253 1.017 2.019v16.148c0 .418-.136.766-.407.836l-.881.487z"/><path d="M28.441 97.09l-1.22-.766-6.847-12.251v-8.074l-1.017-1.392.949-.557c.203-.139.407-.139.678.07l20 11.903c.271.209.542.487.746.905L28.441 97.09z"/><path d="M19.763 75.301l-.475-.626.949-.557c.203-.139.407-.139.678.07l.339.209-1.492.905zm21.356 10.861c.475.348.814 1.044.814 1.74l-1.966 1.183-.949-1.67 2.102-1.253z"/></g><path d="M39.966 86.579l-20-11.903c-.542-.348-1.017 0-1.017.766v16.148c0 .766.475 1.671 1.017 2.019l20 11.903c.542.348 1.017 0 1.017-.766V88.598c0-.766-.407-1.671-1.017-2.019z" fill="url(#Q)"/><path d="M40.304 86.371l-20-11.903c-.339-.209-.61-.139-.814.07.136 0 .339 0 .542.139l20 11.903c.542.348 1.017 1.253 1.017 2.018v16.148c0 .348-.068.557-.203.696.271-.069.542-.417.542-.904V88.389c-.068-.766-.542-1.671-1.085-2.019z" class="B"/><path d="M35.898 98.134l-.949-.557v-8.353l.949.557v8.353z" fill="url(#R)"/><path d="M33.66 96.812l-.949-.557v-8.353l.949.557v8.353z" fill="url(#S)"/><path d="M31.423 95.559l-.949-.626V86.58l.949.557v8.422z" fill="url(#T)"/><path d="M28.305 74.607s-.814 5.151-.678 6.821 1.017 4.385 1.627 4.316c.678-.07 0-6.682 1.153-5.986 1.152.626 1.288 1.81 1.763 1.392.542-.418-.881-6.056-.542-8.492.407-2.436-3.322 1.949-3.322 1.949z" class="C"/><path d="M50.339 18.436c4.068 1.462 4.814.557 4.881.557.068-.278.068-.487.068-.766.068-.905-.068-1.81-.271-2.645L44.508 14.12s1.695 2.784 5.831 4.316z" class="E"/><path d="M55.559 9.944c-.949-.835-4.407-5.012-10.508-3.968-3.864.626-7.119 3.271-7.797 9.466-.475 4.107 1.017 8.213 3.729 11.207l.407-.209c1.559-1.044 1.695-1.601 1.695-1.601l.339-3.132c0-.418-.339-.835-.746-.835-.339 0-.746-.209-1.153-.696-.881-1.183-.474-3.063 1.288-3.132.949-.07 1.288-.557 1.424-1.044.136-.418.542-.626.949-.487 2.034.766 6.983 2.367 10.17 1.462 4.068-1.253 1.152-6.195.203-7.03z" fill="url(#U)"/><path d="M50.949 22.194l2.441-.696s-1.153 1.879-2.915 2.366c-1.695.487-1.966-.974-1.966-.974l2.441-.696z" class="B"/><path d="M32.508 81.011l-2.102-1.253.814 1.323 1.017.418.271-.487z" fill="#ff6b00"/><path d="M42.542 20.315c0 .487-.407.835-.813.835s-.814-.418-.814-.835.339-.905.746-.905.881.418.881.905z" class="B"/><path d="M168.71 144.213c8.65 0 15.661-4.176 15.661-9.327s-7.011-9.327-15.661-9.327-15.661 4.176-15.661 9.327 7.012 9.327 15.661 9.327z" class="D"/><path d="M169.862 128.761c-.203.556-4 5.29-7.729 6.403-1.627.487-2.711.557-3.457.487s-1.153-.835-.949-1.531c.678-1.879 2.508-5.777 7.186-8.144 6.441-3.271 4.949 2.785 4.949 2.785zm1.29 1.809s-1.424 3.411-1.831 6.265c-.271 1.74.678 4.037 1.424 5.499.475.904 1.695 1.113 2.441.417 1.22-1.114 2.779-3.132 3.051-5.986.406-4.803 0-5.638 0-5.638l-5.085-.557z" class="F"/><path d="M180.168 72.38s.474 6.056 0 12.807l-2.577 45.661s.136 2.297-4.135 1.81c-4.339-.488-4-3.063-4-3.063s-6.034-.07-6.238-3.759-6.237-43.782-6.237-58.19l23.187 4.733z" fill="url(#V)"/><path d="M169.524 129.596s-.746 0-1.763-.209l-1.152-48.863 2.915 49.072z" fill="#999"/><path d="M173.794 27.833c9.763 4.176 9.56 10.093 9.56 10.093s-1.899 21.787-1.289 36.334c.272 6.056-31.457 6.543-26.711-9.675 5.559-19.142 3.457-34.594 6.101-36.961 2.644-2.297 9.763-.835 12.339.209z" fill="url(#W)"/><path d="M176.914 33.123c-.543 2.019-3.119 3.132-5.831 2.367-2.712-.696-4.474-2.923-3.932-5.012.542-2.018 3.119-3.132 5.831-2.367 2.711.696 4.474 2.924 3.932 5.012z" class="C"/><path d="M172.779 36.324c-.611 0-1.221-.07-1.831-.209-1.424-.348-2.644-1.183-3.525-2.227-.882-1.114-1.221-2.367-.882-3.55.61-2.367 3.526-3.689 6.577-2.854 1.423.348 2.711 1.183 3.525 2.227.881 1.114 1.22 2.367.881 3.55-.271 1.183-1.152 2.158-2.44 2.645a6.45 6.45 0 0 1-2.305.418zm-1.492-7.796c-1.763 0-3.186.835-3.525 2.158-.204.766.067 1.671.678 2.436.678.835 1.695 1.462 2.847 1.81 1.153.278 2.373.278 3.322-.139.881-.348 1.492-1.044 1.695-1.81s-.068-1.671-.678-2.436c-.678-.835-1.695-1.462-2.847-1.81-.475-.139-1.017-.209-1.492-.209z" class="B"/><path d="M169.862 27.415s.068.418-.067 3.62c-.068.974 3.39 1.949 4.271 1.044s.542-1.879.746-5.22c.135-3.55-4.95.557-4.95.557z" class="C"/><path d="M174.745 26.719s-.814 3.132-5.017 4.385l.068-2.854 4.949-1.531z" class="E"/><path d="M177.388 18.714c1.017 4.107-1.356 8.353-5.424 9.397-4 1.044-8.136-1.392-9.153-5.568s1.356-8.353 5.424-9.397c4-1.044 8.136 1.462 9.153 5.568z" class="C"/><path d="M171.829 20.942s-4.136 1.81-7.051 1.879c-2.848 0-2.238-2.436-2.238-2.436l8.543-1.253.746 1.81z" class="E"/><path d="M163.965 21.429s3.593-1.601 6.779-.905a3.1 3.1 0 0 1 1.899 1.183c.135.209.339.348.61.418.542.139 1.491-2.297 2.576-2.297 1.085-.07 1.831.766.949 2.227s-.61 3.132-.203 3.341 4.814-3.202.949-11.067-13.627-3.62-15.186-2.019c0 0-1.627 1.462-2.916.139-.067 0-1.491 11.207 4.543 8.979z" fill="url(#X)"/><g class="C"><path d="M156.71 26.023l-5.288-2.297c-.61-.279-1.084-.766-1.288-1.392l-5.22-15.452-2.441.418 4.204 19.211c.203.905.745 1.67 1.559 2.088l8.746 5.081-.272-7.657zm54.713 2.575l1.22-.557c1.017-.487 1.966-1.183 2.78-1.949l.813-.835a1.63 1.63 0 0 0 .339-1.81.91.91 0 0 0-1.22-.487l-2.509 1.322s.407-1.114.204-1.462c-.204-.279-2.17 1.879-3.051 3.48-.881 1.462 1.424 2.297 1.424 2.297z"/><path d="M190.474 34.724l4.474-.487c1.085-.139 2.102-.487 3.051-.975l12.068-7.03 1.424 2.366-12.339 9.745-1.221.766-7.322 3.202-.135-7.587zM142.542 7.299l-.475-.557c-.542-.626-.881-1.392-1.017-2.227l-.339-2.227c-.068-.696.136-1.392.746-1.81 0 0 .068 0 .068-.07.61-.418 1.423-.139 1.694.557l1.085 2.715s-.339-1.392.068-1.531c.339-.139.949 1.601.542 2.575-.339.974 0 2.227 0 2.227l-2.372.348z"/></g><path d="M167.085 25.953l-1.966-.557s.949 1.531 2.305 1.879 1.559-.766 1.559-.766l-1.898-.557z" class="B"/><path d="M164.169 26.51s-8.814-1.81-11.458-2.645c-2.712-.835-3.797 6.752-3.593 8.631.203 1.949 9.356 4.037 10.441 7.378s4.61-13.364 4.61-13.364z" fill="url(#Y)"/><path d="M177.592 29.851s6.441 2.854 17.153 4.176c.407.07.814.348.949.766.407 1.253 1.153 3.898.543 6.612-.204 1.114-1.221 1.949-2.373 1.949-3.39 0-10.577.279-11.797 3.55-1.424 4.246-4.475-17.053-4.475-17.053z" fill="url(#Z)"/><path d="M173.863 35.837l-1.762 1.949c-.204.278-.339.626-.272.974l1.221 10.719c.068.278-.068.626-.204.835l-3.796 5.081c-.136.209-.543.139-.61-.139l-2.034-6.682c-.068-.278-.068-.557 0-.766l3.661-9.745c.067-.209.067-.418.067-.696l-.542-2.575 4.271 1.044z" class="B"/><path d="M193.118 41.406c-1.899.209-6.645.626-10.306.974-2.101.209-3.457 2.227-2.915 4.316 1.966 7.657-.61 19.907-.135 24.014.542 4.942-2.373 6.891-2.373 6.891 2.915-.626 4.881-1.81 4.813-3.341-.407-8.91.136-20.603.678-28.26 2.102-2.367 8.271-2.645 11.254-2.575 1.153 0 2.102-.835 2.306-1.949.271-1.462.203-2.854 0-4.037-.068.07-.068 3.55-3.322 3.968z" class="D"/><path opacity=".1" d="M110.407 186.115c9.81 0 17.763-4.705 17.763-10.51s-7.953-10.511-17.763-10.511-17.763 4.706-17.763 10.511 7.953 10.51 17.763 10.51z" fill="#000"/><path d="M96.17 168.296c-1.627.696-2.644 2.576-2.508 4.525.068.905.203 1.81.339 2.227.542 1.114 2.169 2.645 4.881 1.531s8.678-6.821 8.882-10.58c.474-6.96-7.322.488-11.594 2.297zm15.796 11.555s-.61 4.037-.339 4.803c.339.766 2.169 2.297 4.949 1.949s10.712-3.132 12.475-8.492c2.711-8.353-15.323.627-15.323.627l-1.762 1.113z" class="F"/><path d="M119.763 115.466l.61 62.923c-.068 2.158-1.492 4.037-3.322 4.385-.204.07-.475.07-.746.07-1.898.139-2.983-.696-3.661-1.531-.542-.696-.814-1.601-.814-2.576l-.813-26.868-3.932-24.013-5.424 42.529c-.068 1.183-.61 2.227-1.492 2.784-.61.417-1.423.696-2.44.696-1.559-.07-2.644-.905-3.254-1.671-.542-.626-.814-1.461-.814-2.297l2.169-25.545.814-32.645 23.119 3.759z" fill="url(#a)"/><g class="C"><path d="M111.762 59.085l-.949 5.708s-.068 1.949 2.102 2.506c2.101.557 2.779-.835 2.779-.835l.95-6.473-4.882-.905z"/><path d="M123.49 55.953c-1.491 4.942-6.169 7.796-10.44 6.334-4.271-1.392-6.509-6.543-4.949-11.415 1.491-4.942 6.169-7.796 10.44-6.334 4.271 1.392 6.509 6.543 4.949 11.415z"/></g><path d="M112.035 64.932c-.136-.07-9.017-5.916-12.339.209-5.356 10.023-1.424 21.508-3.322 46.427-.339 4.176 5.491 6.682 8.203 8.353 2.441 1.461 5.153 2.297 7.932 2.297s8.068-2.506 7.932-6.265c-.881-17.123.611-31.601 1.967-45.591 0 .07-1.695-1.81-10.373-5.429z" fill="url(#b)"/><path d="M107.085 127.856l-5.424 42.529c-.068 1.183-.61 2.227-1.491 2.784-.136.07-.272.209-.475.278 1.153-.835 4.407-36.542 5.017-40.51.678-3.967 2.373-5.081 2.373-5.081z" fill="#999"/><path d="M140.847 70.153l7.457-15.174-2.373-1.531-7.661 11.554 2.577 5.151zM91.83 54.074l3.593-16.914h2.847l-1.085 14.06-5.356 2.854z" class="C"/><path d="M122.406 70.431s8.339 3.341 15.458-5.916c.61-.835 1.898-.696 2.305.139.61 1.531 1.424 3.828.475 5.986-4.339 9.536-19.051 9.188-22.577 14.548-3.593 5.29 4.339-14.756 4.339-14.756z" fill="url(#c)"/><path d="M106.406 62.844s-6.847.557-7.864-5.568c-.542-3.132-.678-5.012-.678-6.125 0-.766-.61-1.253-1.356-1.183-1.627.209-4.203.696-4.542 1.879-.542 1.67-1.492 9.954 5.288 22.691 4.474 8.283 9.153-11.694 9.153-11.694z" fill="url(#d)"/><path d="M95.422 37.16l.068-1.949c0-.696.203-1.322.542-1.949l1.898-3.202.475-.626c.475-.626 1.288-.766 1.898-.348l.407.279a1.77 1.77 0 0 1 .814 1.671l-1.017 2.715 1.22-.278c.271-.07.475.139.543.348s-.068.418-.272.487l-2.034.835-1.831 2.715-2.712-.696zm52.882 17.888l.882-1.74c.339-.626.474-1.253.407-1.949l-.136-3.759-.136-.835c-.135-.766-.745-1.322-1.491-1.253h-.542c-.678 0-1.221.418-1.56 1.044l-.474 2.854-.95-.835c-.203-.139-.474-.139-.61.07-.135.139-.135.418 0 .557l1.356 1.74.339 3.689 2.915.418z" class="C"/><path d="M116.982 83.238c-.746 3.411 3.661 28.887-1.221 38.214 2.441-.975 4.814-2.993 4.678-5.499-.61-12.251-.067-23.109.814-33.48 4.136-2.158 10.576-3.411 15.186-6.891-4.881 1.949-18.779 4.664-19.457 7.657z" class="D"/><path d="M108.847 63.331l1.22-1.323s2.034 2.158 3.662 2.506c0 0 1.966.557 2.915.627l.813 2.227s-6.44-.487-8.61-4.037z" class="B"/><path d="M117.728 56.092a.98.98 0 0 0 .881-.487c.339-.487.136-2.784 1.153-3.202 1.627-.626 5.491 1.462 5.898-4.524.203-3.132-1.288-3.968-1.288-5.638 0 0 .135.835-7.729.348-7.864-.557-10.373 6.612-10.576 10.023s1.423 8.979 6.779 9.745c.882.139 4.611-2.923 4.543-3.341s-1.492-.348-1.288-1.531c.135-.974.745-1.322 1.627-1.392z" fill="url(#e)"/><defs><linearGradient id="A" x1="58.045" y1="106.982" x2="157.541" y2="106.982" xlink:href="#g"><stop stop-color="#ff6b00"/><stop offset=".105" stop-color="#ff740f"/><stop offset=".273" stop-color="#ff8730"/><stop offset=".753" stop-color="#de5d00"/><stop offset=".894" stop-color="#ff7b1c"/><stop offset="1" stop-color="#ff6b00"/></linearGradient><linearGradient id="B" x1="58.045" y1="97.296" x2="157.541" y2="97.296" xlink:href="#g"><stop stop-color="#fdfdfd"/><stop offset=".645" stop-color="#bdbdbd"/></linearGradient><linearGradient id="C" x1="119.27" y1="144.916" x2="214.914" y2="144.916" xlink:href="#g"><stop offset=".006" stop-color="#ff6b00"/><stop offset="1" stop-color="#ff8730"/></linearGradient><linearGradient id="D" x1="140.161" y1="148.69" x2="159.31" y2="148.69" xlink:href="#g"><stop stop-color="#ff6b00"/><stop offset=".105" stop-color="#ff740f"/><stop offset=".273" stop-color="#ff8730"/><stop offset=".753" stop-color="#de5d00"/><stop offset=".894" stop-color="#ff7b1c"/><stop offset="1" stop-color="#ff6b00"/></linearGradient><linearGradient id="E" x1="168.867" y1="144.916" x2="214.913" y2="144.916" xlink:href="#g"><stop stop-color="#ff6b00"/><stop offset=".105" stop-color="#ff740f"/><stop offset=".273" stop-color="#ff8730"/><stop offset=".753" stop-color="#de5d00"/><stop offset=".894" stop-color="#ff7b1c"/><stop offset="1" stop-color="#ff6b00"/></linearGradient><linearGradient id="F" x1="119.27" y1="135.23" x2="214.918" y2="135.23" xlink:href="#g"><stop offset=".006" stop-color="#ff6b00"/><stop offset="1" stop-color="#ff8730"/></linearGradient><linearGradient id="G" x1=".473" y1="144.916" x2="96.121" y2="144.916" xlink:href="#g"><stop stop-color="#ff6b00"/><stop offset=".105" stop-color="#ff740f"/><stop offset=".273" stop-color="#ff8730"/><stop offset=".753" stop-color="#de5d00"/><stop offset=".894" stop-color="#ff7b1c"/><stop offset="1" stop-color="#ff6b00"/></linearGradient><linearGradient id="H" x1=".473" y1="144.916" x2="46.374" y2="144.916" xlink:href="#g"><stop stop-color="#ff6b00"/><stop offset=".105" stop-color="#ff740f"/><stop offset=".273" stop-color="#ff8730"/><stop offset=".753" stop-color="#de5d00"/><stop offset=".894" stop-color="#ff7b1c"/><stop offset="1" stop-color="#ff6b00"/></linearGradient><linearGradient id="I" x1=".473" y1="135.229" x2="96.121" y2="135.229" xlink:href="#g"><stop offset=".006" stop-color="#ff6b00"/><stop offset="1" stop-color="#ff8730"/></linearGradient><linearGradient id="J" x1="58.046" y1="183.05" x2="157.542" y2="183.05" xlink:href="#g"><stop stop-color="#ff6b00"/><stop offset=".105" stop-color="#ff740f"/><stop offset=".273" stop-color="#ff8730"/><stop offset=".753" stop-color="#de5d00"/><stop offset=".894" stop-color="#ff7b1c"/><stop offset="1" stop-color="#ff6b00"/></linearGradient><linearGradient id="K" x1="58.046" y1="173.364" x2="157.542" y2="173.364" xlink:href="#g"><stop stop-color="#fdfdfd"/><stop offset=".645" stop-color="#bdbdbd"/></linearGradient><linearGradient id="L" x1="37.126" y1="25.517" x2="53.377" y2="25.517" xlink:href="#g"><stop stop-color="#c8c8c8"/><stop offset=".204" stop-color="#ccc"/><stop offset=".394" stop-color="#d7d7d7"/><stop offset=".52" stop-color="#e3e3e3"/><stop offset=".815" stop-color="#f3f3f3"/><stop offset="1" stop-color="#fff"/></linearGradient><linearGradient id="M" x1="34.337" y1="102.548" x2="57.601" y2="102.548" xlink:href="#g"><stop stop-color="#fdfdfd"/><stop offset=".645" stop-color="#bdbdbd"/></linearGradient><linearGradient id="N" x1="54.066" y1="36.382" x2="62.501" y2="36.382" xlink:href="#g"><stop offset=".006" stop-color="#ff6b00"/><stop offset="1" stop-color="#ff8730"/></linearGradient><linearGradient id="O" x1="30.743" y1="52.224" x2="59.374" y2="52.224" xlink:href="#g"><stop offset=".006" stop-color="#ff6b00"/><stop offset="1" stop-color="#ff8730"/></linearGradient><linearGradient id="P" x1="26.591" y1="45.337" x2="34.878" y2="45.337" xlink:href="#g"><stop offset=".006" stop-color="#ff6b00"/><stop offset="1" stop-color="#ff8730"/></linearGradient><linearGradient id="Q" x1="18.976" y1="90.12" x2="41.011" y2="90.12" xlink:href="#g"><stop stop-color="#c8c8c8"/><stop offset=".229" stop-color="#cfcfcf"/><stop offset=".549" stop-color="#e1e1e1"/><stop offset=".581" stop-color="#e3e3e3"/><stop offset=".994" stop-color="#f3f3f3"/></linearGradient><linearGradient id="R" x1="34.935" y1="93.682" x2="35.887" y2="93.682" xlink:href="#g"><stop offset=".006" stop-color="#ff6b00"/><stop offset="1" stop-color="#ff8730"/></linearGradient><linearGradient id="S" x1="32.713" y1="92.365" x2="33.664" y2="92.365" xlink:href="#g"><stop offset=".006" stop-color="#ff6b00"/><stop offset="1" stop-color="#ff8730"/></linearGradient><linearGradient id="T" x1="30.491" y1="91.048" x2="31.442" y2="91.048" xlink:href="#g"><stop offset=".006" stop-color="#ff6b00"/><stop offset="1" stop-color="#ff8730"/></linearGradient><linearGradient id="U" x1="37.118" y1="16.236" x2="57.439" y2="16.236" xlink:href="#g"><stop stop-color="#c8c8c8"/><stop offset=".204" stop-color="#ccc"/><stop offset=".394" stop-color="#d7d7d7"/><stop offset=".52" stop-color="#e3e3e3"/><stop offset=".815" stop-color="#f3f3f3"/><stop offset="1" stop-color="#fff"/></linearGradient><linearGradient id="V" x1="157.04" y1="100.192" x2="180.404" y2="100.192" xlink:href="#g"><stop stop-color="#fdfdfd"/><stop offset=".645" stop-color="#bdbdbd"/></linearGradient><linearGradient id="W" x1="154.897" y1="52.274" x2="183.369" y2="52.274" xlink:href="#g"><stop offset=".006" stop-color="#ff6b00"/><stop offset="1" stop-color="#ff8730"/></linearGradient><linearGradient id="X" x1="159.224" y1="17.537" x2="179.044" y2="17.537" xlink:href="#g"><stop stop-color="#c8c8c8"/><stop offset=".204" stop-color="#ccc"/><stop offset=".394" stop-color="#d7d7d7"/><stop offset=".52" stop-color="#e3e3e3"/><stop offset=".815" stop-color="#f3f3f3"/><stop offset="1" stop-color="#fff"/></linearGradient><linearGradient id="Y" x1="149.08" y1="32.096" x2="164.181" y2="32.096" xlink:href="#g"><stop offset=".006" stop-color="#ff6b00"/><stop offset="1" stop-color="#ff8730"/></linearGradient><linearGradient id="Z" x1="177.622" y1="38.675" x2="196.529" y2="38.675" xlink:href="#g"><stop offset=".006" stop-color="#ff6b00"/><stop offset="1" stop-color="#ff8730"/></linearGradient><linearGradient id="a" x1="93.696" y1="147.279" x2="120.345" y2="147.279" xlink:href="#g"><stop stop-color="#fdfdfd"/><stop offset=".645" stop-color="#bdbdbd"/></linearGradient><linearGradient id="b" x1="96.376" y1="92.295" x2="122.414" y2="92.295" xlink:href="#g"><stop offset=".006" stop-color="#ff6b00"/><stop offset="1" stop-color="#ff8730"/></linearGradient><linearGradient id="c" x1="117.123" y1="75.022" x2="141.094" y2="75.022" xlink:href="#g"><stop offset=".006" stop-color="#ff6b00"/><stop offset="1" stop-color="#ff8730"/></linearGradient><linearGradient id="d" x1="91.62" y1="63.255" x2="106.413" y2="63.255" xlink:href="#g"><stop offset=".006" stop-color="#ff6b00"/><stop offset="1" stop-color="#ff8730"/></linearGradient><linearGradient id="e" x1="106.078" y1="52.333" x2="125.648" y2="52.333" xlink:href="#g"><stop stop-color="#c8c8c8"/><stop offset=".204" stop-color="#ccc"/><stop offset=".394" stop-color="#d7d7d7"/><stop offset=".52" stop-color="#e3e3e3"/><stop offset=".815" stop-color="#f3f3f3"/><stop offset="1" stop-color="#fff"/></linearGradient><path id="f" d="M55.288 18.227c-.271 4.524-4.068 8.005-8.542 7.796-4.407-.348-7.797-4.246-7.525-8.77s4.068-8.005 8.542-7.796 7.729 4.176 7.525 8.77z"/><linearGradient id="g" gradientUnits="userSpaceOnUse"/></defs></svg>