<svg width="194" height="240" viewBox="0 0 194 240" fill="none" xmlns="http://www.w3.org/2000/svg">
<g opacity="0.5">
<path opacity="0.5" d="M37.5787 31.1052C37.8945 31.2631 38.2103 31.7368 38.3682 32.2104L39.4734 36.7894C39.4734 37.1052 39.6313 37.5789 39.9471 37.8947C40.7366 38.5262 41.5261 39.3157 42.3155 40.2631C42.4734 40.2631 42.4734 40.2631 42.6313 40.1052L45.3155 38.842C45.4734 38.6841 45.6313 38.6841 45.9471 38.842C46.105 38.9999 46.2629 38.9999 46.4208 39.3157L49.2629 43.421C49.5787 43.8947 49.7366 44.5262 49.4208 44.6841L47.8419 47.3683C47.3682 47.3683 47.3682 47.6841 47.3682 48.1578C47.8419 49.2631 48.1576 50.3683 48.4734 51.4736C48.6313 51.4736 48.6313 51.6315 48.7892 51.6315C48.7892 51.6315 48.7892 51.6315 48.9471 51.6315L52.4208 53.842C52.8945 54.1578 53.2103 54.6315 53.2103 55.1052L53.684 59.3683C53.684 59.842 53.5261 60.1578 53.0524 59.9999L49.7366 59.3683C49.4208 59.2104 49.2629 59.3683 49.105 59.5262C48.9471 60.3157 48.6313 61.1052 48.3155 61.8947C48.3155 62.0526 48.4734 62.2104 48.4734 62.3683L50.8419 66.7894C51.1576 67.2631 51.1576 67.8947 50.9997 68.0525L48.9471 69.9473C48.7892 70.1052 48.6313 70.1052 48.3155 69.9473C48.1576 69.7894 47.9997 69.6315 47.8419 69.4736L44.684 65.842C44.5261 65.6841 44.3682 65.3683 44.2103 65.3683C44.0524 65.3683 44.0524 65.2104 43.8945 65.2104C43.2629 65.3683 42.4734 65.3683 41.684 65.2104C41.684 65.3683 41.684 65.5262 41.684 65.6841L41.5261 69.6315C41.5261 70.1052 41.3682 70.421 40.8945 70.2631L37.4208 68.842C37.4208 68.842 37.4208 68.842 37.2629 68.842C36.9471 68.6841 36.6313 68.2104 36.4734 67.7368L35.3682 63.1578C35.3682 62.842 35.2103 62.3683 34.8945 62.0526C34.105 61.421 33.3155 60.6315 32.5261 59.6841C32.3682 59.6841 32.3682 59.6841 32.2103 59.842L29.5261 61.1052C29.3682 61.2631 29.2103 61.2631 28.8945 61.1052C28.7366 60.9473 28.5787 60.7894 28.4208 60.6315L25.5787 56.5262C25.2629 56.0526 25.2629 55.421 25.4208 55.2631L26.9997 52.5789C27.1576 52.421 27.1576 52.1052 27.1576 51.7894C26.684 50.6841 26.3682 49.5789 26.0524 48.4736C25.8945 48.4736 25.8945 48.3157 25.7366 48.3157C25.7366 48.3157 25.7366 48.3157 25.5787 48.3157L22.105 46.1052C22.105 46.1052 22.105 46.1052 21.9471 46.1052C21.6313 45.9473 21.3155 45.4736 21.1576 44.9999L20.684 40.5789C20.684 40.1052 20.8419 39.7894 21.3155 39.9473L24.6313 40.5789C24.9471 40.7368 25.105 40.5789 25.2629 40.421C25.4208 39.6315 25.7366 38.842 26.0524 38.0526C26.0524 37.8947 25.8945 37.7368 25.8945 37.5789L23.8419 33.1578C23.5261 32.6841 23.5261 32.0526 23.684 31.8947L25.8945 29.842C26.0524 29.6841 26.2103 29.6841 26.5261 29.842C26.684 29.9999 26.8419 30.1578 26.9997 30.3157L30.1576 33.9473C30.3155 34.1052 30.4734 34.421 30.6313 34.421C30.7892 34.421 30.7892 34.5789 30.9471 34.5789C31.5787 34.421 32.3682 34.421 33.1576 34.5789C33.1576 34.421 33.1576 34.2631 33.1576 34.1052L33.3155 30.1578C33.3155 29.6841 33.4734 29.3683 33.9471 29.5262L37.5787 31.1052C37.4208 31.1052 37.4208 31.1052 37.5787 31.1052Z" fill="url(#paint0_linear)"/>
</g>
<g opacity="0.5">
<path opacity="0.5" d="M39.7895 21.1579C39.7895 21.4737 39.6316 21.6316 39.3158 21.6316L36.9474 21.1579C36.7895 21 36.6316 21.1579 36.4737 21.3158C36.3158 21.9474 36.1579 22.4211 35.8421 22.8947C35.8421 23.0526 36 23.0526 36 23.2105L37.7369 26.3684C37.8948 26.6842 38.0527 27.1579 37.8948 27.3158L36.3158 28.7368C36.1579 28.8947 36 28.8947 35.8421 28.7368C35.6842 28.7368 35.6842 28.5789 35.5264 28.4211L33.3158 25.8947C33.1579 25.5789 33.1579 25.4211 33 25.2632H32.8421C32.3685 25.4211 31.7369 25.4211 31.2632 25.2632C31.2632 25.4211 31.2632 25.4211 31.2632 25.5789L31.1053 28.4211C31.1053 28.7368 30.9474 28.8947 30.6316 28.8947L28.1053 27.7895C27.7895 27.6316 27.6316 27.3158 27.6316 27L26.8421 23.8421C26.8421 23.5263 26.6842 23.3684 26.5263 23.0526C25.8948 22.5789 25.4211 22.1053 24.7895 21.4737H24.6316L22.7369 22.4211C22.579 22.5789 22.4211 22.5789 22.2632 22.4211C22.1053 22.4211 22.1053 22.2632 21.9474 22.1053L19.8948 19.2632C19.7369 18.9474 19.579 18.4737 19.7369 18.3158L20.8421 16.4211C21 16.2632 21 16.1053 21 15.7895C20.6842 15 20.3685 14.2105 20.2106 13.4211L20.0527 13.2632C20.0527 13.2632 20.0527 13.2632 19.8948 13.2632L17.3685 11.6842C17.0527 11.5263 16.8948 11.2105 16.8948 10.8947L16.579 7.89474C16.579 7.57895 16.7369 7.42105 17.0527 7.42105L19.4211 7.89474C19.579 8.05263 19.7369 7.89474 19.8948 7.73684C20.0527 7.10526 20.2106 6.63158 20.5263 6.15789C20.5263 6 20.3685 6 20.3685 5.8421L18.6316 2.68421C18.4737 2.36842 18.3158 1.89474 18.4737 1.73684L20.0527 0.315789C20.2106 0.157895 20.3685 0.157895 20.5263 0.315789C20.6842 0.315789 20.6842 0.473684 20.8421 0.631579L22.8948 3.15789C23.0527 3.31579 23.2106 3.47368 23.2106 3.47368H23.3685C23.8421 3.31579 24.4737 3.31579 24.9474 3.47368C24.9474 3.31579 24.9474 3.31579 24.9474 3.15789L25.2632 0.473684C25.2632 0.157895 25.4211 0 25.7369 0L28.2632 1.10526C28.579 1.26316 28.8948 1.57895 28.8948 1.89474L29.6842 5.05263C29.6842 5.36842 29.8421 5.52632 30 5.8421C30.6316 6.31579 31.1053 6.94737 31.7369 7.42105H31.8948L33.7895 6.47368C33.9474 6.31579 34.1053 6.31579 34.2632 6.47368C34.4211 6.47368 34.4211 6.63158 34.579 6.78947L36.3158 9.78947C36.4737 10.1053 36.6316 10.5789 36.4737 10.7368L35.3685 12.6316C35.2106 12.7895 35.2106 12.9474 35.2106 13.2632C35.5263 14.0526 35.8421 14.8421 36 15.6316L36.1579 15.7895C36.1579 15.7895 36.1579 15.7895 36.3158 15.7895L38.8421 17.3684C39.1579 17.5263 39.3158 17.8421 39.3158 18.1579L39.7895 21.1579ZM28.1053 22.5789C32.0527 24.7895 35.2106 23.0526 35.2106 18.4737C35.2106 14.0526 32.0527 8.52632 28.1053 6.31579C24.1579 4.10526 21 5.8421 21 10.4211C21.1579 14.8421 24.1579 20.2105 28.1053 22.5789Z" fill="url(#paint1_linear)"/>
</g>
<g opacity="0.5">
<path opacity="0.5" d="M56.2108 34.2631C56.2108 34.421 56.0529 34.5789 55.895 34.5789L54.3161 34.2631C54.1582 34.2631 54.0003 34.2631 54.0003 34.2631C53.8424 34.7368 53.8424 35.0526 53.6845 35.3684C53.6845 35.3684 53.6845 35.5263 53.8424 35.5263L54.9476 37.5789C55.1055 37.7368 55.1055 38.0526 54.9476 38.2105L53.5266 39.3158C53.5266 39.3158 53.3687 39.3158 53.2108 39.3158L53.0529 39.1579L51.6319 37.421C51.474 37.2631 51.6319 37.1052 51.474 37.1052C51.1582 37.1052 51.0003 37.1052 50.6845 37.1052V37.2631V39C50.6845 39.1579 50.5266 39.3158 50.3687 39.3158L48.6319 38.6842C48.474 38.5263 48.3161 38.3684 48.3161 38.2105L47.8424 36.1579C47.8424 36 47.6845 35.8421 47.6845 35.6842C47.2108 35.3684 46.895 35.0526 46.5792 34.5789H46.4213L44.8424 35.5263C44.8424 35.5263 44.6845 35.5263 44.5266 35.5263L44.3687 35.3684L42.6319 33.1579C42.474 33 42.474 32.6842 42.6319 32.5263L43.7371 30.9473C43.895 30.9473 43.895 30.7894 43.7371 30.6316C43.5792 30.1579 43.2634 29.6842 43.2634 29.0526C43.2634 29.0526 43.2634 29.0526 43.1055 28.8947L41.3687 27.7894C41.2108 27.6316 41.0529 27.4737 40.895 27.1579V25.2631C40.895 25.1052 41.0529 24.9473 41.2108 24.9473L42.7898 25.2631C42.9477 25.2631 43.1055 25.2631 43.1055 25.2631C43.2634 24.7894 43.2634 24.4737 43.4213 24.1579C43.4213 24.1579 43.4213 24 43.2634 24L41.5266 21.3158C41.3687 21.1579 41.3687 20.8421 41.5266 20.6842L42.474 19.7368C42.474 19.7368 42.6319 19.7368 42.7898 19.7368L42.9477 19.8947L45.1582 22.2631C45.1582 22.421 45.3161 22.421 45.474 22.5789H45.6319C45.9476 22.5789 46.2634 22.5789 46.7371 22.5789V22.421L46.895 20.5263C46.895 20.3684 47.0529 20.2105 47.2108 20.2105L48.7898 20.8421C48.9476 21 49.1055 21.1579 49.1055 21.4737L49.5792 23.6842C49.5792 23.8421 49.7371 24 49.7371 24.1579C50.2108 24.4737 50.0529 24.4737 50.3687 24.7894C50.3687 24.7894 51.474 24 51.6319 24C51.6319 24 51.7898 24 51.9476 24L52.1055 24.1579L54.0003 26.6842C54.1582 26.8421 54.1582 27.1579 54.0003 27.3158L53.2108 28.5789C53.0529 28.5789 53.0529 28.7368 53.2108 28.8947C53.3687 29.3684 53.6845 29.8421 53.6845 30.4737C53.6845 30.4737 53.6845 30.4737 53.8424 30.6316L55.5792 31.7368C55.7371 31.8947 55.895 32.0526 55.895 32.3684L56.2108 34.2631ZM48.474 35.0526C51.1582 36.4737 53.2108 35.3684 53.2108 32.3684C53.2108 29.3684 51.1582 25.7368 48.474 24.3158C45.7898 22.8947 43.7371 24 43.7371 27C43.895 30 45.9477 33.6316 48.474 35.0526Z" fill="url(#paint2_linear)"/>
</g>
<path d="M117.789 184.105L111.947 187.579L110.526 186.789L115.263 184.105L113.526 183.789L114.315 183L116.684 183.474L117.789 184.105Z" fill="#EAEAEA"/>
<path d="M111.79 180.632C113.369 181.579 112.579 182.684 111 183.632C109.105 184.737 107.211 185.053 105.632 184.105C104.053 183.158 104.842 182.053 106.421 180.947C108.158 180 110.369 179.684 111.79 180.632ZM106.737 183.632C107.211 183.947 108.316 183.789 109.579 183C110.842 182.21 111.316 181.737 110.684 181.263C110.211 180.947 109.105 181.105 107.842 181.895C106.579 182.684 106.105 183.316 106.737 183.632Z" fill="#EAEAEA"/>
<path d="M106.737 177.632C108.316 178.579 107.526 179.684 105.947 180.632C104.052 181.737 102 182.053 100.579 181.105C98.9999 180.158 99.7893 179.053 101.368 177.947C103.105 177.158 105.158 176.684 106.737 177.632ZM101.526 180.632C102 180.947 103.105 180.789 104.368 180C105.631 179.211 106.105 178.737 105.474 178.263C105 177.947 103.895 178.105 102.631 178.895C101.368 179.684 101.052 180.316 101.526 180.632Z" fill="#EAEAEA"/>
<path d="M133.263 193.105L127.263 196.579L126 195.789L130.737 192.947L129 192.632L129.789 191.842L132.158 192.474L133.263 193.105Z" fill="#EAEAEA"/>
<path d="M137.527 195.474C139.106 196.421 138.316 197.526 136.737 198.474C134.843 199.579 132.79 199.895 131.369 198.947C129.79 198 130.579 196.895 132.158 195.789C133.895 194.842 136.106 194.526 137.527 195.474ZM132.474 198.474C132.948 198.789 134.053 198.632 135.316 197.842C136.579 197.053 137.053 196.579 136.421 196.105C135.948 195.789 134.843 195.947 133.579 196.737C132.158 197.526 131.843 198.158 132.474 198.474Z" fill="#EAEAEA"/>
<path d="M122.211 186.474C123.79 187.421 123 188.526 121.421 189.474C119.526 190.579 117.474 190.895 116.053 189.947C114.474 189 115.263 187.895 116.842 186.789C118.421 186 120.632 185.684 122.211 186.474ZM117 189.474C117.474 189.789 118.579 189.631 119.842 188.842C121.105 188.053 121.579 187.579 120.948 187.105C120.474 186.789 119.369 186.947 118.105 187.737C116.842 188.684 116.526 189.158 117 189.474Z" fill="#EAEAEA"/>
<path d="M127.264 189.474C128.843 190.421 128.053 191.526 126.474 192.474C124.579 193.579 122.685 193.895 121.106 192.947C119.527 192 120.316 190.895 121.895 189.789C123.632 189 125.685 188.526 127.264 189.474ZM122.211 192.474C122.685 192.789 123.79 192.632 125.053 191.842C126.316 191.053 126.79 190.579 126.158 190.105C125.685 189.789 124.579 189.947 123.316 190.737C121.895 191.526 121.579 192.158 122.211 192.474Z" fill="#EAEAEA"/>
<path d="M142.737 198.474C144.316 199.421 143.526 200.526 141.947 201.474C140.052 202.579 138 202.895 136.579 201.947C135 201 135.789 199.895 137.368 198.789C139.105 197.842 141.158 197.526 142.737 198.474ZM137.526 201.316C138 201.632 139.105 201.474 140.368 200.684C141.631 199.895 142.105 199.421 141.474 198.947C141 198.632 139.895 198.789 138.631 199.579C137.368 200.526 137.052 201 137.526 201.316Z" fill="#EAEAEA"/>
<path d="M159 207.947L153 211.421L151.737 210.632L156.474 207.789L154.737 207.474L155.526 206.684L157.895 207.316L159 207.947Z" fill="#EAEAEA"/>
<path d="M147.948 201.316C149.527 202.263 148.737 203.368 147.158 204.316C145.264 205.421 143.211 205.737 141.79 204.789C140.211 203.842 141 202.737 142.579 201.632C144.158 200.842 146.369 200.526 147.948 201.316ZM142.737 204.316C143.211 204.632 144.316 204.474 145.579 203.684C146.842 202.895 147.316 202.421 146.685 201.947C146.211 201.632 145.106 201.789 143.842 202.579C142.579 203.526 142.106 204 142.737 204.316Z" fill="#EAEAEA"/>
<path d="M153.79 204.947L147.948 208.421L146.527 207.632L151.264 204.947L149.527 204.474L150.317 203.842L152.685 204.316L153.79 204.947Z" fill="#EAEAEA"/>
<path d="M163.264 210.316C164.843 211.263 164.053 212.368 162.474 213.316C160.579 214.421 158.527 214.737 157.106 213.789C155.527 212.842 156.316 211.737 157.895 210.632C159.632 209.684 161.685 209.368 163.264 210.316ZM158.211 213.316C158.685 213.632 159.79 213.474 161.053 212.684C162.316 211.895 162.79 211.421 162.158 210.947C161.685 210.632 160.579 210.789 159.316 211.579C157.895 212.368 157.579 213 158.211 213.316Z" fill="#EAEAEA"/>
<path d="M106.737 190.579L100.895 194.053L99.474 193.263L104.211 190.579L102.474 190.105L103.263 189.474L105.632 189.947L106.737 190.579Z" fill="#EAEAEA"/>
<path d="M111.947 193.579L105.947 197.053L104.684 196.263L109.421 193.421L107.684 193.105L108.474 192.316L110.842 192.947L111.947 193.579Z" fill="#EAEAEA"/>
<path d="M117.158 196.579L111.158 200.053L109.737 199.263L114.474 196.421L112.737 196.105L113.526 195.316L115.895 195.789L117.158 196.579Z" fill="#EAEAEA"/>
<path d="M121.422 198.947C123.001 199.895 122.211 201 120.632 201.947C118.737 203.053 116.685 203.368 115.264 202.421C113.685 201.474 114.474 200.368 116.053 199.263C117.79 198.316 119.843 198 121.422 198.947ZM116.211 201.789C116.685 202.105 117.79 201.947 119.053 201.158C120.316 200.368 120.79 199.895 120.158 199.421C119.685 199.105 118.58 199.263 117.316 200.053C116.053 201 115.737 201.474 116.211 201.789Z" fill="#EAEAEA"/>
<path d="M141.948 210.789C143.527 211.737 142.737 212.842 141.158 213.789C139.263 214.895 137.211 215.21 135.79 214.263C134.211 213.316 135 212.21 136.579 211.105C138.316 210.158 140.369 209.842 141.948 210.789ZM136.895 213.789C137.369 214.105 138.474 213.947 139.737 213.158C141 212.368 141.474 211.895 140.842 211.421C140.369 211.105 139.263 211.263 138 212.053C136.579 212.842 136.263 213.474 136.895 213.789Z" fill="#EAEAEA"/>
<path d="M137.684 208.421L131.684 211.895L130.263 211.105L135 208.263L133.421 207.947L134.21 207.316L136.579 207.789L137.684 208.421Z" fill="#EAEAEA"/>
<path d="M131.685 204.789C133.264 205.737 132.474 206.842 130.895 207.789C129 208.895 126.948 209.21 125.527 208.263C123.948 207.316 124.737 206.21 126.316 205.105C128.053 204.316 130.106 204 131.685 204.789ZM126.474 207.789C126.948 208.105 128.053 207.947 129.316 207.158C130.579 206.368 131.053 205.895 130.422 205.421C129.948 205.105 128.843 205.263 127.579 206.053C126.316 206.842 126 207.474 126.474 207.789Z" fill="#EAEAEA"/>
<path d="M126.474 201.79C128.053 202.737 127.263 203.842 125.684 204.79C123.79 205.895 121.737 206.211 120.316 205.263C118.737 204.316 119.526 203.211 121.105 202.105C122.842 201.316 125.053 201 126.474 201.79ZM121.421 204.79C121.895 205.105 123 204.947 124.263 204.158C125.526 203.368 126 202.895 125.369 202.421C124.895 202.105 123.79 202.263 122.526 203.053C121.105 204 120.79 204.474 121.421 204.79Z" fill="#EAEAEA"/>
<path d="M152.211 216.631C153.79 217.579 153 218.684 151.421 219.632C149.526 220.737 147.474 221.053 146.053 220.105C144.474 219.158 145.263 218.053 146.842 216.947C148.579 216.158 150.632 215.842 152.211 216.631ZM147.158 219.632C147.632 219.947 148.737 219.789 150 219C151.263 218.21 151.737 217.737 151.105 217.263C150.632 216.947 149.526 217.105 148.263 217.895C146.842 218.842 146.526 219.316 147.158 219.632Z" fill="#EAEAEA"/>
<path d="M147.158 213.789C148.737 214.737 147.947 215.842 146.368 216.789C144.473 217.895 142.421 218.21 141 217.263C139.421 216.316 140.21 215.21 141.789 214.105C143.368 213.158 145.579 212.842 147.158 213.789ZM141.947 216.631C142.421 216.947 143.526 216.789 144.789 216C146.052 215.21 146.526 214.737 145.895 214.263C145.421 213.947 144.316 214.105 143.052 214.895C141.789 215.842 141.474 216.316 141.947 216.631Z" fill="#EAEAEA"/>
<path d="M130.895 217.105C132.474 218.053 131.684 219.158 130.105 220.105C128.21 221.21 126.158 221.526 124.737 220.579C123.158 219.632 123.947 218.526 125.526 217.421C127.263 216.632 129.316 216.316 130.895 217.105ZM125.842 220.105C126.316 220.421 127.421 220.263 128.684 219.474C129.947 218.684 130.421 218.211 129.789 217.737C129.316 217.421 128.21 217.579 126.947 218.368C125.526 219.316 125.21 219.789 125.842 220.105Z" fill="#EAEAEA"/>
<path d="M141.158 223.105C142.737 224.053 141.947 225.158 140.368 226.105C138.474 227.21 136.421 227.526 135 226.579C133.421 225.631 134.21 224.526 135.789 223.421C137.526 222.631 139.579 222.158 141.158 223.105ZM136.105 226.105C136.579 226.421 137.684 226.263 138.947 225.474C140.21 224.684 140.684 224.21 140.052 223.737C139.579 223.421 138.474 223.579 137.21 224.368C135.789 225.158 135.473 225.789 136.105 226.105Z" fill="#EAEAEA"/>
<path d="M136.106 220.105C137.685 221.053 136.895 222.158 135.316 223.105C133.421 224.211 131.369 224.526 129.948 223.579C128.369 222.632 129.158 221.526 130.737 220.421C132.316 219.632 134.527 219.316 136.106 220.105ZM130.895 223.105C131.369 223.421 132.474 223.263 133.737 222.474C135 221.684 135.474 221.211 134.843 220.737C134.369 220.421 133.264 220.579 132 221.368C130.737 222.316 130.422 222.789 130.895 223.105Z" fill="#EAEAEA"/>
<path d="M125.843 214.263C127.422 215.21 126.632 216.316 125.053 217.263C123.158 218.368 121.106 218.684 119.685 217.737C118.106 216.789 118.895 215.684 120.474 214.579C122.053 213.632 124.264 213.316 125.843 214.263ZM120.632 217.263C121.106 217.579 122.211 217.421 123.474 216.632C124.737 215.842 125.211 215.368 124.58 214.895C124.106 214.579 123.001 214.737 121.737 215.526C120.474 216.316 120.158 216.947 120.632 217.263Z" fill="#EAEAEA"/>
<path d="M121.421 211.895L115.579 215.368L114.158 214.579L118.895 211.737L117.158 211.421L117.948 210.632L120.316 211.105L121.421 211.895Z" fill="#EAEAEA"/>
<path d="M116.369 208.895L110.369 212.368L108.948 211.579L113.685 208.895L111.948 208.421L112.895 207.789L115.106 208.263L116.369 208.895Z" fill="#EAEAEA"/>
<path d="M111.158 205.895L105.158 209.368L103.895 208.579L108.632 205.895L106.895 205.421L107.684 204.789L110.053 205.263L111.158 205.895Z" fill="#EAEAEA"/>
<path d="M94.1057 208.737C95.6847 209.684 94.8952 210.789 93.3162 211.737C91.4215 212.842 89.5268 213.158 87.9478 212.21C86.3689 211.263 87.1583 210.158 88.7373 209.053C90.4741 208.263 92.5268 207.789 94.1057 208.737ZM89.0531 211.737C89.5268 212.053 90.632 211.895 91.8952 211.105C93.1584 210.316 93.632 209.842 93.0005 209.368C92.5268 209.053 91.4215 209.21 90.1583 210C88.7373 210.789 88.4215 211.421 89.0531 211.737Z" fill="#EAEAEA"/>
<path d="M89.0526 205.737C90.6316 206.684 89.8421 207.789 88.2631 208.737C86.3684 209.842 84.3158 210.158 82.8947 209.211C81.3158 208.263 82.1052 207.158 83.6842 206.053C85.2631 205.263 87.4737 204.947 89.0526 205.737ZM83.8421 208.737C84.3158 209.053 85.421 208.895 86.6842 208.105C87.9474 207.316 88.421 206.842 87.7895 206.368C87.3158 206.053 86.2105 206.211 84.9474 207C83.6842 207.947 83.3684 208.421 83.8421 208.737Z" fill="#EAEAEA"/>
<path d="M83.8427 202.895C85.4216 203.842 84.6321 204.947 83.0532 205.895C81.1584 207 79.1058 207.316 77.6848 206.368C76.1058 205.421 76.8953 204.316 78.4742 203.21C80.2111 202.263 82.2637 201.947 83.8427 202.895ZM78.79 205.737C79.2637 206.053 80.369 205.895 81.6321 205.105C82.8953 204.316 83.369 203.842 82.7374 203.368C82.2637 203.053 81.1584 203.21 79.8953 204C78.4742 204.947 78.1584 205.421 78.79 205.737Z" fill="#EAEAEA"/>
<path d="M79.5791 200.526L73.5791 204L72.1581 203.21L76.8949 200.368L75.316 200.053L76.1055 199.263L78.4739 199.737L79.5791 200.526Z" fill="#EAEAEA"/>
<path d="M104.369 214.737C105.948 215.684 105.158 216.789 103.579 217.737C101.684 218.842 99.6318 219.158 98.2108 218.21C96.6318 217.263 97.4213 216.158 99.0002 215.053C100.737 214.105 102.948 213.789 104.369 214.737ZM99.316 217.737C99.7897 218.053 100.895 217.895 102.158 217.105C103.421 216.316 103.895 215.842 103.263 215.368C102.79 215.053 101.684 215.21 100.421 216C99.0002 216.789 98.6844 217.421 99.316 217.737Z" fill="#EAEAEA"/>
<path d="M100.105 212.368L94.1052 215.842L92.842 215.053L97.5789 212.21L95.842 211.895L96.6315 211.105L98.9999 211.737L100.105 212.368Z" fill="#EAEAEA"/>
<path d="M109.579 217.737C111.158 218.684 110.368 219.789 108.789 220.737C106.894 221.842 104.842 222.158 103.421 221.21C101.842 220.263 102.631 219.158 104.21 218.053C105.947 217.105 108 216.789 109.579 217.737ZM104.526 220.579C105 220.895 106.105 220.737 107.368 219.947C108.631 219.158 109.105 218.684 108.473 218.21C108 217.895 106.894 218.053 105.631 218.842C104.21 219.789 103.894 220.263 104.526 220.579Z" fill="#EAEAEA"/>
<path d="M130.106 229.579C131.685 230.526 130.895 231.632 129.316 232.579C127.422 233.684 125.369 234 123.948 233.053C122.369 232.105 123.158 231 124.737 229.895C126.474 228.947 128.527 228.632 130.106 229.579ZM125.053 232.579C125.527 232.895 126.632 232.737 127.895 231.947C129.158 231.158 129.632 230.684 129 230.21C128.527 229.895 127.422 230.053 126.158 230.842C124.737 231.632 124.421 232.263 125.053 232.579Z" fill="#EAEAEA"/>
<path d="M114.79 220.579C116.369 221.526 115.579 222.631 114 223.579C112.105 224.684 110.053 225 108.632 224.053C107.053 223.105 107.842 222 109.421 220.895C111 220.105 113.211 219.789 114.79 220.579ZM109.579 223.579C110.053 223.895 111.158 223.737 112.421 222.947C113.684 222.158 114.158 221.684 113.527 221.21C113.053 220.895 111.948 221.053 110.684 221.842C109.421 222.789 109.105 223.263 109.579 223.579Z" fill="#EAEAEA"/>
<path d="M120.79 224.21L114.79 227.684L113.369 226.895L118.106 224.21L116.369 223.737L117.158 223.105L119.527 223.579L120.79 224.21Z" fill="#EAEAEA"/>
<path d="M125.053 226.579C126.632 227.526 125.842 228.632 124.263 229.579C122.368 230.684 120.316 231 118.895 230.053C117.316 229.105 118.105 228 119.684 226.895C121.263 226.105 123.474 225.632 125.053 226.579ZM119.842 229.579C120.316 229.895 121.421 229.737 122.684 228.947C123.947 228.158 124.421 227.684 123.789 227.21C123.316 226.895 122.211 227.053 120.947 227.842C119.684 228.632 119.368 229.263 119.842 229.579Z" fill="#EAEAEA"/>
<path d="M36.7897 188.526C38.3686 189.474 37.5791 190.579 36.0002 191.526C34.1055 192.632 32.0528 192.947 30.6318 192C29.0528 191.053 29.8423 189.947 31.4213 188.842C33.1581 187.895 35.2107 187.579 36.7897 188.526ZM31.737 191.368C32.2107 191.684 33.316 191.526 34.5791 190.737C35.8423 189.947 36.316 189.474 35.6844 189C35.2107 188.684 34.1055 188.842 32.8423 189.632C31.4213 190.579 31.1055 191.053 31.737 191.368Z" fill="#EAEAEA"/>
<path d="M53.0531 198L47.0531 201.474L45.7899 200.684L50.5268 197.842L48.7899 197.526L49.5794 196.737L51.9478 197.368L53.0531 198Z" fill="#EAEAEA"/>
<path d="M47.0527 194.368C48.6317 195.316 47.8422 196.421 46.2633 197.526C44.3685 198.632 42.3159 198.947 40.8948 198C39.3159 197.053 40.1054 195.947 41.6843 194.842C43.4212 193.895 45.4738 193.421 47.0527 194.368ZM42.0001 197.368C42.4738 197.684 43.5791 197.526 44.8422 196.737C46.1054 195.947 46.5791 195.474 45.9475 195C45.4738 194.684 44.3685 194.842 43.1054 195.632C41.6843 196.421 41.3685 197.053 42.0001 197.368Z" fill="#EAEAEA"/>
<path d="M42.7892 192L36.7892 195.474L35.526 194.684L40.2628 192L38.526 191.684L39.3155 190.895L41.6839 191.368L42.7892 192Z" fill="#EAEAEA"/>
<path d="M58.2631 201L52.2631 204.474L50.842 203.684L55.5789 200.842L53.9999 200.526L54.7894 199.737L56.9999 200.21L58.2631 201Z" fill="#EAEAEA"/>
<path d="M62.5267 203.368C64.1057 204.316 63.3162 205.421 61.7373 206.368C59.8425 207.474 57.7899 207.789 56.3688 206.842C54.7899 205.895 55.5794 204.789 57.1583 203.684C58.8952 202.737 60.9478 202.421 62.5267 203.368ZM57.4741 206.211C57.9478 206.526 59.0531 206.368 60.3162 205.579C61.5794 204.789 62.0531 204.316 61.4215 203.842C60.9478 203.526 59.8425 203.684 58.5794 204.474C57.1583 205.421 56.8425 205.895 57.4741 206.211Z" fill="#EAEAEA"/>
<path d="M68.5262 206.842L62.5262 210.316L61.2631 209.526L65.9999 206.842L64.2631 206.526L65.0525 205.737L67.421 206.21L68.5262 206.842Z" fill="#EAEAEA"/>
<path d="M73.737 209.842L67.737 213.316L66.3159 212.526L71.0528 209.842L69.3159 209.368L70.1054 208.737L72.4738 209.21L73.737 209.842Z" fill="#EAEAEA"/>
<path d="M78.0006 212.211C79.5796 213.158 78.7901 214.263 77.2111 215.211C75.3164 216.316 73.2638 216.632 71.8427 215.684C70.2638 214.737 71.0532 213.632 72.6322 212.526C74.369 211.737 76.4217 211.263 78.0006 212.211ZM72.7901 215.211C73.2638 215.526 74.369 215.368 75.6322 214.579C76.8953 213.789 77.369 213.316 76.7374 212.842C76.2638 212.526 75.1585 212.684 73.8953 213.474C72.6322 214.263 72.3164 214.895 72.7901 215.211Z" fill="#EAEAEA"/>
<path d="M93.3157 221.053C94.8946 222 94.1051 223.105 92.5262 224.053C90.6315 225.158 88.5788 225.474 87.1578 224.526C85.5788 223.579 86.3683 222.474 87.9473 221.368C89.6841 220.579 91.8946 220.263 93.3157 221.053ZM88.263 224.053C88.7367 224.368 89.842 224.211 91.1051 223.421C92.3683 222.632 92.842 222.158 92.2104 221.684C91.7367 221.368 90.6315 221.526 89.3683 222.316C88.1051 223.263 87.6315 223.737 88.263 224.053Z" fill="#EAEAEA"/>
<path d="M89.0532 218.684L83.0532 222.158L81.79 221.368L86.5269 218.684L84.79 218.368L85.5795 217.579L87.9479 218.053L89.0532 218.684Z" fill="#EAEAEA"/>
<path d="M84 215.842L78 219.316L76.579 218.526L81.3158 215.684L79.579 215.368L80.5264 214.579L82.7369 215.053L84 215.842Z" fill="#EAEAEA"/>
<path d="M99.3161 224.684L93.474 228.158L92.053 227.368L96.7898 224.684L95.053 224.21L95.8425 223.579L98.2109 224.053L99.3161 224.684Z" fill="#EAEAEA"/>
<path d="M104.526 227.684L98.5261 231.158L97.2629 230.368L101.842 227.526L100.263 227.21L101.052 226.579L103.421 227.053L104.526 227.684Z" fill="#EAEAEA"/>
<path d="M114.001 233.053C115.58 234 114.79 235.105 113.211 236.053C111.317 237.158 109.264 237.474 107.843 236.526C106.264 235.579 107.053 234.474 108.632 233.368C110.369 232.421 112.422 232.105 114.001 233.053ZM108.79 235.895C109.264 236.211 110.369 236.053 111.632 235.263C112.895 234.474 113.369 234 112.738 233.526C112.264 233.211 111.159 233.368 109.895 234.158C108.632 235.105 108.317 235.579 108.79 235.895Z" fill="#EAEAEA"/>
<path d="M109.737 230.684L103.737 234.158L102.316 233.368L107.053 230.526L105.316 230.21L106.106 229.421L108.474 229.895L109.737 230.684Z" fill="#EAEAEA"/>
<path d="M119.053 235.895C120.632 236.842 119.842 237.947 118.263 238.895C116.369 240 114.316 240.316 112.895 239.368C111.316 238.421 112.105 237.316 113.684 236.211C115.421 235.421 117.474 235.105 119.053 235.895ZM114 238.895C114.474 239.211 115.579 239.053 116.842 238.263C118.105 237.474 118.579 237 117.947 236.526C117.474 236.211 116.369 236.368 115.105 237.158C113.684 238.105 113.369 238.579 114 238.895Z" fill="#EAEAEA"/>
<g opacity="0.03">
<path opacity="0.03" d="M193.579 165.789L148.263 192L43.7369 131.684L90.0001 104.368L193.579 165.789Z" fill="black"/>
</g>
<path d="M151.737 161.526V166.421L127.263 180.632V175.579L151.737 161.526Z" fill="#999999"/>
<path d="M127.263 175.579V180.632L69.474 147.316V142.263L127.263 175.579Z" fill="url(#paint3_linear)"/>
<path d="M151.737 161.526L127.263 175.579L69.474 142.263L93.7898 128.053L151.737 161.526Z" fill="url(#paint4_linear)"/>
<path opacity="0.5" d="M151.737 161.526L69.474 142.263L93.7898 128.053L151.737 161.526Z" fill="url(#paint5_linear)"/>
<path d="M129.158 166.263L133.421 163.737L133.579 118.737L129.316 121.105L129.158 166.263Z" fill="#999999"/>
<path d="M129.316 121.105L133.579 118.737L94.263 96.0001L89.9999 98.5264L129.316 121.105Z" fill="#C0C5D1"/>
<path d="M89.9998 98.5264L89.8419 143.684L129.158 166.263L129.316 121.105L89.9998 98.5264Z" fill="url(#paint6_linear)"/>
<path d="M186.632 82.8947L190.895 81.7895L74.0531 14.3684L69.9479 15.4737L186.632 82.8947Z" fill="url(#paint7_linear)"/>
<path d="M69.9479 15.4736L51.9479 104.053L168.632 171.474L186.632 82.8947L69.9479 15.4736Z" fill="url(#paint8_linear)"/>
<path d="M73.1053 22.5789L57.158 102.316L165.158 164.842L181.737 84.1579L73.1053 22.5789Z" fill="url(#paint9_linear)"/>
<g opacity="0.03">
<path opacity="0.03" d="M16.7367 177C0.631434 186.316 0.631433 201.316 16.5788 210.632C32.5262 219.947 58.5788 219.947 74.6841 210.632C90.7893 201.316 90.9472 186.316 74.842 177C58.8946 167.684 32.842 167.684 16.7367 177Z" fill="black"/>
</g>
<path d="M16.8946 172.263C2.05245 180.789 1.89456 194.842 16.7367 203.368C31.5788 211.895 55.5788 211.895 70.4209 203.368C85.263 194.842 85.4209 180.789 70.5788 172.263C55.8946 163.579 31.7367 163.579 16.8946 172.263Z" fill="url(#paint10_linear)"/>
<path d="M16.8946 165.316C2.05245 173.842 1.89456 187.895 16.7367 196.421C31.5788 204.947 55.5788 204.947 70.4209 196.421C85.263 187.895 85.4209 173.842 70.5788 165.316C55.8946 156.789 31.7367 156.789 16.8946 165.316Z" fill="url(#paint11_linear)"/>
<path d="M168.631 171.474L172.894 170.21L190.894 81.7894L186.631 82.8947L168.631 171.474Z" fill="#FF6B00"/>
<g opacity="0.5">
<path opacity="0.5" d="M94.1047 87.6314V90.9472L86.21 86.5262V83.0525L94.1047 87.6314Z" fill="url(#paint12_linear)"/>
</g>
<path d="M101.999 103.421V106.895L86.21 97.7367V94.2631L101.999 103.421Z" fill="url(#paint13_linear)"/>
<path d="M107.526 112.263V115.579L86.21 103.263V99.9472L107.526 112.263Z" fill="url(#paint14_linear)"/>
<path d="M110.841 108.474V111.947L104.052 108.158V104.684L110.841 108.474Z" fill="url(#paint15_linear)"/>
<path d="M101.999 86.5262V89.9999L86.21 80.842V77.3683L101.999 86.5262Z" fill="url(#paint16_linear)"/>
<path d="M111.789 103.421V106.895L86.21 92.0525V88.7367L111.789 103.421Z" fill="url(#paint17_linear)"/>
<path d="M110.842 91.5788V95.0525L104.21 91.263V87.7894L110.842 91.5788Z" fill="url(#paint18_linear)"/>
<path d="M119.684 102.316L119.526 105.789L96.631 92.5262V89.0525L119.684 102.316Z" fill="url(#paint19_linear)"/>
<path d="M110.842 86.0525V89.5262L86.21 75.1578V71.842L110.842 86.0525Z" fill="url(#paint20_linear)"/>
<path d="M121.578 97.8946V101.21L113.999 96.7894V93.4736L121.578 97.8946Z" fill="url(#paint21_linear)"/>
<path d="M117 83.9999V87.3156L94.105 74.2104V70.7367L117 83.9999Z" fill="url(#paint22_linear)"/>
<path d="M125.209 94.2631V97.7367L113.999 91.2631V87.7894L125.209 94.2631Z" fill="url(#paint23_linear)"/>
<path d="M129.315 85.421L129.157 88.7368L113.999 80.0525V76.5789L129.315 85.421Z" fill="url(#paint24_linear)"/>
<path d="M125.367 71.842V75.3157L113.999 68.6841V65.3683L125.367 71.842Z" fill="url(#paint25_linear)"/>
<path d="M130.578 80.5262V83.9999L113.999 74.3683V70.8946L130.578 80.5262Z" fill="url(#paint26_linear)"/>
<path d="M129.315 68.5262V71.842L113.999 63.1578V59.6841L129.315 68.5262Z" fill="url(#paint27_linear)"/>
<g opacity="0.5">
<g opacity="0.5">
<path opacity="0.5" d="M92.21 69.6314V73.1051L86.21 69.6314V66.1577L92.21 69.6314Z" fill="url(#paint28_linear)"/>
</g>
<g opacity="0.5">
<path opacity="0.5" d="M101.999 69.6315V73.1051L86.21 63.9473V60.4736L101.999 69.6315Z" fill="url(#paint29_linear)"/>
</g>
<g opacity="0.5">
<path opacity="0.5" d="M107.526 67.263V70.7367L86.3679 58.4209V54.9472L107.526 67.263Z" fill="url(#paint30_linear)"/>
</g>
</g>
<g opacity="0.5">
<path opacity="0.5" d="M102.157 58.421L102 61.8946L86.3679 52.7367V49.2631L102.157 58.421Z" fill="url(#paint31_linear)"/>
</g>
<g opacity="0.5">
<path opacity="0.5" d="M110.999 63.4736V66.9472L104.21 63.1578V59.6841L110.999 63.4736Z" fill="url(#paint32_linear)"/>
</g>
<path d="M94.2627 42.6314V46.1051L86.3679 41.5262V38.0525L94.2627 42.6314Z" fill="url(#paint33_linear)"/>
<path d="M102.157 41.5262V44.9999L86.3679 35.842V32.3683L102.157 41.5262Z" fill="url(#paint34_linear)"/>
<path d="M111.947 58.4209V61.8946L86.3679 47.0525V43.7367L111.947 58.4209Z" fill="url(#paint35_linear)"/>
<path d="M92.3679 24.6315V28.1052L86.3679 24.6315V21.1578L92.3679 24.6315Z" fill="url(#paint36_linear)"/>
<path d="M111 46.7367V50.0525L104.368 46.2631V42.7894L111 46.7367Z" fill="url(#paint37_linear)"/>
<path d="M119.684 57.3156V60.7893L96.7889 47.5262V44.0525L119.684 57.3156Z" fill="url(#paint38_linear)"/>
<path d="M110.999 41.0525V44.5262L86.3679 30.3157V26.842L110.999 41.0525Z" fill="url(#paint39_linear)"/>
<path d="M102.157 24.6315V28.1052L86.3679 18.9473V15.6315L102.157 24.6315Z" fill="url(#paint40_linear)"/>
<path d="M121.736 52.8946V56.2104L114.157 51.9473V48.4736L121.736 52.8946Z" fill="url(#paint41_linear)"/>
<path d="M117.158 38.9999V42.3156L94.2629 29.2104V25.7367L117.158 38.9999Z" fill="url(#paint42_linear)"/>
<path d="M125.368 49.2631V52.7367L114.157 46.2631V42.7894L125.368 49.2631Z" fill="url(#paint43_linear)"/>
<path d="M129.315 40.421V43.7368L114.157 35.0525V31.5789L129.315 40.421Z" fill="url(#paint44_linear)"/>
<g opacity="0.5">
<path opacity="0.5" d="M111 29.842V33.1578L104.368 29.3683V25.8946L111 29.842Z" fill="url(#paint45_linear)"/>
</g>
<g opacity="0.5">
<path opacity="0.5" d="M152.368 64.8946L152.21 68.3683L139.894 61.1052V57.7894L152.368 64.8946Z" fill="url(#paint46_linear)"/>
</g>
<g opacity="0.5">
<path opacity="0.5" d="M152.21 76.1051V79.5788L143.21 74.3683V70.8946L152.21 76.1051Z" fill="url(#paint47_linear)"/>
</g>
<g opacity="0.5">
<path opacity="0.5" d="M152.21 70.421V73.8947L129.315 60.6315V57.3157L152.21 70.421Z" fill="url(#paint48_linear)"/>
</g>
<g opacity="0.5">
<path opacity="0.5" d="M152.368 59.2104V62.6841L144.473 58.1052V54.6315L152.368 59.2104Z" fill="url(#paint49_linear)"/>
</g>
<g opacity="0.5">
<path opacity="0.5" d="M152.367 53.6841V56.9999L136.578 47.9999V44.5262L152.367 53.6841Z" fill="url(#paint50_linear)"/>
</g>
<g opacity="0.5">
<g opacity="0.5">
<path opacity="0.5" d="M125.21 116.842V120.316L113.842 113.684V110.368L125.21 116.842Z" fill="url(#paint51_linear)"/>
</g>
<g opacity="0.5">
<path opacity="0.5" d="M130.421 125.526V129L113.842 119.368V115.895L130.421 125.526Z" fill="url(#paint52_linear)"/>
</g>
<g opacity="0.5">
<path opacity="0.5" d="M129.158 113.526V116.842L114 108.158V104.684L129.158 113.526Z" fill="url(#paint53_linear)"/>
</g>
</g>
<g opacity="0.5">
<path opacity="0.5" d="M152.21 115.421V118.895L129.157 105.631V102.158L152.21 115.421Z" fill="url(#paint54_linear)"/>
</g>
<g opacity="0.5">
<path opacity="0.5" d="M152.21 104.21V107.684L144.315 103.105V99.6315L152.21 104.21Z" fill="url(#paint55_linear)"/>
</g>
<g opacity="0.5">
<g opacity="0.5">
<path opacity="0.5" d="M152.211 98.5262V102L136.421 92.9999V89.5262L152.211 98.5262Z" fill="url(#paint56_linear)"/>
</g>
<g opacity="0.5">
<path opacity="0.5" d="M152.211 92.9999V96.4736L136.421 87.3157V83.842L152.211 92.9999Z" fill="url(#paint57_linear)"/>
</g>
<g opacity="0.5">
<path opacity="0.5" d="M152.211 87.3157V90.7894L146.053 87.1578V83.842L152.211 87.3157Z" fill="url(#paint58_linear)"/>
</g>
</g>
<path d="M152.21 81.7893V85.1051L132.157 73.5788V70.1051L152.21 81.7893Z" fill="url(#paint59_linear)"/>
<g opacity="0.5">
<path opacity="0.5" d="M110.999 74.842V78.1577L104.21 74.3683V70.8946L110.999 74.842Z" fill="url(#paint60_linear)"/>
</g>
<g opacity="0.5">
<path opacity="0.5" d="M152.21 109.895V113.21L139.736 106.105V102.789L152.21 109.895Z" fill="url(#paint61_linear)"/>
</g>
<path d="M152.21 121.105L152.052 124.579L143.052 119.368L143.21 115.895L152.21 121.105Z" fill="url(#paint62_linear)"/>
<g opacity="0.5">
<g opacity="0.5">
<path opacity="0.5" d="M152.051 138V141.474L136.262 132.316V128.842L152.051 138Z" fill="url(#paint63_linear)"/>
</g>
<g opacity="0.5">
<path opacity="0.5" d="M152.052 132.316V135.789L145.894 132.158V128.842L152.052 132.316Z" fill="url(#paint64_linear)"/>
</g>
<g opacity="0.5">
<path opacity="0.5" d="M152.052 126.789V130.105L131.999 118.579V115.105L152.052 126.789Z" fill="url(#paint65_linear)"/>
</g>
</g>
<path d="M44.0532 185.053C48.9365 185.053 52.8953 182.013 52.8953 178.263C52.8953 174.513 48.9365 171.474 44.0532 171.474C39.1698 171.474 35.2111 174.513 35.2111 178.263C35.2111 182.013 39.1698 185.053 44.0532 185.053Z" fill="url(#paint66_linear)"/>
<path d="M44.0525 180.158C52.86 180.158 59.9998 175.987 59.9998 170.842C59.9998 165.697 52.86 161.526 44.0525 161.526C35.245 161.526 28.1051 165.697 28.1051 170.842C28.1051 175.987 35.245 180.158 44.0525 180.158Z" fill="url(#paint67_linear)"/>
<path d="M44.0525 174.158C52.86 174.158 59.9998 169.987 59.9998 164.842C59.9998 159.697 52.86 155.526 44.0525 155.526C35.245 155.526 28.1051 159.697 28.1051 164.842C28.1051 169.987 35.245 174.158 44.0525 174.158Z" fill="url(#paint68_linear)"/>
<path d="M44.0525 167.684C52.86 167.684 59.9998 163.513 59.9998 158.368C59.9998 153.223 52.86 149.053 44.0525 149.053C35.245 149.053 28.1051 153.223 28.1051 158.368C28.1051 163.513 35.245 167.684 44.0525 167.684Z" fill="url(#paint69_linear)"/>
<path d="M44.0525 161.684C52.86 161.684 59.9998 157.513 59.9998 152.369C59.9998 147.224 52.86 143.053 44.0525 143.053C35.245 143.053 28.1051 147.224 28.1051 152.369C28.1051 157.513 35.245 161.684 44.0525 161.684Z" fill="url(#paint70_linear)"/>
<path d="M44.0525 155.211C52.86 155.211 59.9998 151.04 59.9998 145.895C59.9998 140.75 52.86 136.579 44.0525 136.579C35.245 136.579 28.1051 140.75 28.1051 145.895C28.1051 151.04 35.245 155.211 44.0525 155.211Z" fill="url(#paint71_linear)"/>
<path opacity="0.65" d="M87.9474 89.0526C87.9474 64.7368 68.2105 45 43.8947 45C19.7368 45.1579 0 64.7368 0 89.0526C0 99.7895 3.94737 109.737 10.2632 117.316C10.4211 117.474 10.5789 117.632 10.7368 117.947C10.8947 118.105 11.0526 118.263 11.2105 118.421C11.3684 118.579 11.5263 118.895 11.8421 119.053C17.8421 125.684 21 131.842 22.4211 135.789C22.7368 137.053 23.2105 138.316 23.6842 139.421C23.6842 139.579 23.6842 139.579 23.8421 139.737C27.4737 147.316 35.0526 152.526 44.0526 152.526C54.4737 152.526 63.1579 145.421 65.6842 135.947C66.9474 132.474 69.6316 126.947 74.6842 120.947C82.8947 112.737 87.9474 101.526 87.9474 89.0526Z" fill="url(#paint72_linear)"/>
<path d="M46.8948 115.895L43.8947 114C54.4737 97.2631 55.8948 92.2105 55.8948 90.7894C55.4211 90.9473 54.7895 91.2631 54.3158 91.421C51.9474 92.3684 48.4737 93.9473 43.8947 93.7894C39.3158 93.7894 36 92.2105 33.7895 91.1052C33.1579 90.7894 32.5263 90.4736 32.0526 90.3158C31.7369 91.421 31.579 96 43.1053 113.684L40.1053 115.579C26.6842 95.0526 27.3158 89.8421 29.6842 87.4736C31.2632 85.8947 33.1579 86.8421 35.2105 87.7894C37.2632 88.7368 40.1053 90 43.8947 90.1579C47.8421 90.3157 50.8421 88.8947 52.8947 88.1052C54.9474 87.3157 56.8421 86.3684 58.4211 87.7894C60.4737 89.6842 61.2632 93.3158 46.8948 115.895Z" fill="url(#paint73_linear)"/>
<path d="M44.0529 147.158C41.5266 147.158 39.316 145.263 39.316 143.053V117.158C39.316 114.947 41.3687 113.053 44.0529 113.053C46.5792 113.053 48.7897 114.947 48.7897 117.158V143.053C48.6318 145.421 46.5792 147.158 44.0529 147.158Z" fill="url(#paint74_linear)"/>
<path opacity="0.3" d="M87.9474 89.0526C87.9474 64.7368 68.2105 45 43.8947 45C19.7368 45.1579 0 64.7368 0 89.0526C0 99.7895 3.94737 109.737 10.2632 117.316C10.4211 117.474 10.5789 117.632 10.7368 117.947C10.8947 118.105 11.0526 118.263 11.2105 118.421C11.3684 118.579 11.5263 118.895 11.8421 119.053C17.8421 125.684 21 131.842 22.4211 135.789C22.7368 137.053 23.2105 138.316 23.6842 139.421C23.6842 139.579 23.6842 139.579 23.8421 139.737C27.4737 147.316 35.0526 152.526 44.0526 152.526C54.4737 152.526 63.1579 145.421 65.6842 135.947C66.9474 132.474 69.6316 126.947 74.6842 120.947C82.8947 112.737 87.9474 101.526 87.9474 89.0526Z" fill="url(#paint75_linear)"/>
<defs>
<linearGradient id="paint0_linear" x1="20.9292" y1="49.8879" x2="53.7697" y2="49.8879" gradientUnits="userSpaceOnUse">
<stop offset="0.00615385" stop-color="#FF6B00"/>
<stop offset="1" stop-color="#FF8730"/>
</linearGradient>
<linearGradient id="paint1_linear" x1="16.5289" y1="14.4019" x2="39.7331" y2="14.4019" gradientUnits="userSpaceOnUse">
<stop offset="0.00615385" stop-color="#FF6B00"/>
<stop offset="1" stop-color="#FF8730"/>
</linearGradient>
<linearGradient id="paint2_linear" x1="40.8491" y1="29.4611" x2="56.2765" y2="29.4611" gradientUnits="userSpaceOnUse">
<stop offset="0.00615385" stop-color="#FF6B00"/>
<stop offset="1" stop-color="#FF8730"/>
</linearGradient>
<linearGradient id="paint3_linear" x1="69.396" y1="161.463" x2="127.266" y2="161.463" gradientUnits="userSpaceOnUse">
<stop stop-color="#C8C8C8"/>
<stop offset="0.2038" stop-color="#CCCCCC"/>
<stop offset="0.3938" stop-color="#D7D7D7"/>
<stop offset="0.5202" stop-color="#E3E3E3"/>
<stop offset="0.8152" stop-color="#F3F3F3"/>
<stop offset="1" stop-color="white"/>
</linearGradient>
<linearGradient id="paint4_linear" x1="69.4142" y1="151.863" x2="151.674" y2="151.863" gradientUnits="userSpaceOnUse">
<stop stop-color="#C8C8C8"/>
<stop offset="0.2285" stop-color="#CFCFCF"/>
<stop offset="0.549" stop-color="#E1E1E1"/>
<stop offset="0.5808" stop-color="#E3E3E3"/>
<stop offset="0.9935" stop-color="#F3F3F3"/>
<stop offset="1" stop-color="#F3F3F3"/>
</linearGradient>
<linearGradient id="paint5_linear" x1="69.4142" y1="144.769" x2="151.674" y2="144.769" gradientUnits="userSpaceOnUse">
<stop stop-color="#C8C8C8"/>
<stop offset="0.2038" stop-color="#CCCCCC"/>
<stop offset="0.3938" stop-color="#D7D7D7"/>
<stop offset="0.5202" stop-color="#E3E3E3"/>
<stop offset="0.8152" stop-color="#F3F3F3"/>
<stop offset="1" stop-color="white"/>
</linearGradient>
<linearGradient id="paint6_linear" x1="109.542" y1="166.316" x2="109.542" y2="98.4898" gradientUnits="userSpaceOnUse">
<stop stop-color="#C8C8C8"/>
<stop offset="0.2038" stop-color="#CCCCCC"/>
<stop offset="0.3938" stop-color="#D7D7D7"/>
<stop offset="0.5202" stop-color="#E3E3E3"/>
<stop offset="0.8152" stop-color="#F3F3F3"/>
<stop offset="1" stop-color="white"/>
</linearGradient>
<linearGradient id="paint7_linear" x1="69.9075" y1="48.6587" x2="190.841" y2="48.6587" gradientUnits="userSpaceOnUse">
<stop offset="0.00615385" stop-color="#FF6B00"/>
<stop offset="1" stop-color="#FF8730"/>
</linearGradient>
<linearGradient id="paint8_linear" x1="51.9455" y1="93.5016" x2="186.656" y2="93.5016" gradientUnits="userSpaceOnUse">
<stop stop-color="#C8C8C8"/>
<stop offset="0.2038" stop-color="#CCCCCC"/>
<stop offset="0.3938" stop-color="#D7D7D7"/>
<stop offset="0.5202" stop-color="#E3E3E3"/>
<stop offset="0.8152" stop-color="#F3F3F3"/>
<stop offset="1" stop-color="white"/>
</linearGradient>
<linearGradient id="paint9_linear" x1="57.0807" y1="93.7339" x2="181.755" y2="93.7339" gradientUnits="userSpaceOnUse">
<stop stop-color="#EDEDED"/>
<stop offset="0.3103" stop-color="#CBCBCB"/>
<stop offset="0.6946" stop-color="#DADADA"/>
<stop offset="1" stop-color="#EBEBEB"/>
</linearGradient>
<linearGradient id="paint10_linear" x1="43.8698" y1="184.049" x2="41.8456" y2="219.677" gradientUnits="userSpaceOnUse">
<stop stop-color="#FF6B00"/>
<stop offset="0.1052" stop-color="#FF740F"/>
<stop offset="0.2727" stop-color="#FF8730"/>
<stop offset="0.7525" stop-color="#DE5D00"/>
<stop offset="0.8939" stop-color="#FF7B1C"/>
<stop offset="1" stop-color="#FF6B00"/>
</linearGradient>
<linearGradient id="paint11_linear" x1="81.6756" y1="180.921" x2="5.64266" y2="180.921" gradientUnits="userSpaceOnUse">
<stop offset="0.00615385" stop-color="#FF6B00"/>
<stop offset="1" stop-color="#FF8730"/>
</linearGradient>
<linearGradient id="paint12_linear" x1="86.2106" y1="87.0354" x2="94.1055" y2="87.0354" gradientUnits="userSpaceOnUse">
<stop offset="0.00615385" stop-color="#FF6B00"/>
<stop offset="1" stop-color="#FF8730"/>
</linearGradient>
<linearGradient id="paint13_linear" x1="86.1796" y1="100.554" x2="101.951" y2="100.554" gradientUnits="userSpaceOnUse">
<stop offset="0.00615385" stop-color="#FF6B00"/>
<stop offset="1" stop-color="#FF8730"/>
</linearGradient>
<linearGradient id="paint14_linear" x1="86.1665" y1="107.776" x2="107.473" y2="107.776" gradientUnits="userSpaceOnUse">
<stop offset="0.00615385" stop-color="#FF6B00"/>
<stop offset="1" stop-color="#FF8730"/>
</linearGradient>
<linearGradient id="paint15_linear" x1="104.119" y1="108.3" x2="110.854" y2="108.3" gradientUnits="userSpaceOnUse">
<stop offset="0.00615385" stop-color="#FF6B00"/>
<stop offset="1" stop-color="#FF8730"/>
</linearGradient>
<linearGradient id="paint16_linear" x1="86.2243" y1="83.6833" x2="102.004" y2="83.6833" gradientUnits="userSpaceOnUse">
<stop offset="0.00615385" stop-color="#FF6B00"/>
<stop offset="1" stop-color="#FF8730"/>
</linearGradient>
<linearGradient id="paint17_linear" x1="86.1929" y1="97.7831" x2="111.867" y2="97.7831" gradientUnits="userSpaceOnUse">
<stop offset="0.00615385" stop-color="#FF6B00"/>
<stop offset="1" stop-color="#FF8730"/>
</linearGradient>
<linearGradient id="paint18_linear" x1="104.163" y1="91.4303" x2="110.903" y2="91.4303" gradientUnits="userSpaceOnUse">
<stop offset="0.00615385" stop-color="#FF6B00"/>
<stop offset="1" stop-color="#FF8730"/>
</linearGradient>
<linearGradient id="paint19_linear" x1="96.5888" y1="97.3898" x2="119.606" y2="97.3898" gradientUnits="userSpaceOnUse">
<stop offset="0.00615385" stop-color="#FF6B00"/>
<stop offset="1" stop-color="#FF8730"/>
</linearGradient>
<linearGradient id="paint20_linear" x1="86.242" y1="80.6268" x2="110.916" y2="80.6268" gradientUnits="userSpaceOnUse">
<stop offset="0.00615385" stop-color="#FF6B00"/>
<stop offset="1" stop-color="#FF8730"/>
</linearGradient>
<linearGradient id="paint21_linear" x1="113.959" y1="97.3431" x2="121.587" y2="97.3431" gradientUnits="userSpaceOnUse">
<stop offset="0.00615385" stop-color="#FF6B00"/>
<stop offset="1" stop-color="#FF8730"/>
</linearGradient>
<linearGradient id="paint22_linear" x1="94.1457" y1="79.0393" x2="117.012" y2="79.0393" gradientUnits="userSpaceOnUse">
<stop offset="0.00615385" stop-color="#FF6B00"/>
<stop offset="1" stop-color="#FF8730"/>
</linearGradient>
<linearGradient id="paint23_linear" x1="113.973" y1="92.7762" x2="125.275" y2="92.7762" gradientUnits="userSpaceOnUse">
<stop offset="0.00615385" stop-color="#FF6B00"/>
<stop offset="1" stop-color="#FF8730"/>
</linearGradient>
<linearGradient id="paint24_linear" x1="114.008" y1="82.6692" x2="129.237" y2="82.6692" gradientUnits="userSpaceOnUse">
<stop offset="0.00615385" stop-color="#FF6B00"/>
<stop offset="1" stop-color="#FF8730"/>
</linearGradient>
<linearGradient id="paint25_linear" x1="114.034" y1="70.291" x2="125.337" y2="70.291" gradientUnits="userSpaceOnUse">
<stop offset="0.00615385" stop-color="#FF6B00"/>
<stop offset="1" stop-color="#FF8730"/>
</linearGradient>
<linearGradient id="paint26_linear" x1="114.026" y1="77.4466" x2="130.623" y2="77.4466" gradientUnits="userSpaceOnUse">
<stop offset="0.00615385" stop-color="#FF6B00"/>
<stop offset="1" stop-color="#FF8730"/>
</linearGradient>
<linearGradient id="paint27_linear" x1="114.053" y1="65.7993" x2="129.286" y2="65.7993" gradientUnits="userSpaceOnUse">
<stop offset="0.00615385" stop-color="#FF6B00"/>
<stop offset="1" stop-color="#FF8730"/>
</linearGradient>
<linearGradient id="paint28_linear" x1="86.2597" y1="69.6186" x2="92.257" y2="69.6186" gradientUnits="userSpaceOnUse">
<stop offset="0.00615385" stop-color="#FF6B00"/>
<stop offset="1" stop-color="#FF8730"/>
</linearGradient>
<linearGradient id="paint29_linear" x1="86.2775" y1="66.8157" x2="102.049" y2="66.8157" gradientUnits="userSpaceOnUse">
<stop offset="0.00615385" stop-color="#FF6B00"/>
<stop offset="1" stop-color="#FF8730"/>
</linearGradient>
<linearGradient id="paint30_linear" x1="86.2907" y1="62.7973" x2="107.602" y2="62.7973" gradientUnits="userSpaceOnUse">
<stop offset="0.00615385" stop-color="#FF6B00"/>
<stop offset="1" stop-color="#FF8730"/>
</linearGradient>
<linearGradient id="paint31_linear" x1="86.3086" y1="55.5725" x2="102.084" y2="55.5725" gradientUnits="userSpaceOnUse">
<stop offset="0.00615385" stop-color="#FF6B00"/>
<stop offset="1" stop-color="#FF8730"/>
</linearGradient>
<linearGradient id="paint32_linear" x1="104.248" y1="63.3193" x2="110.979" y2="63.3193" gradientUnits="userSpaceOnUse">
<stop offset="0.00615385" stop-color="#FF6B00"/>
<stop offset="1" stop-color="#FF8730"/>
</linearGradient>
<linearGradient id="paint33_linear" x1="86.3398" y1="42.0521" x2="94.2297" y2="42.0521" gradientUnits="userSpaceOnUse">
<stop offset="0.00615385" stop-color="#FF6B00"/>
<stop offset="1" stop-color="#FF8730"/>
</linearGradient>
<linearGradient id="paint34_linear" x1="86.3531" y1="38.7015" x2="102.129" y2="38.7015" gradientUnits="userSpaceOnUse">
<stop offset="0.00615385" stop-color="#FF6B00"/>
<stop offset="1" stop-color="#FF8730"/>
</linearGradient>
<linearGradient id="paint35_linear" x1="86.3221" y1="52.8033" x2="111.992" y2="52.8033" gradientUnits="userSpaceOnUse">
<stop offset="0.00615385" stop-color="#FF6B00"/>
<stop offset="1" stop-color="#FF8730"/>
</linearGradient>
<linearGradient id="paint36_linear" x1="86.3886" y1="24.637" x2="92.3864" y2="24.637" gradientUnits="userSpaceOnUse">
<stop offset="0.00615385" stop-color="#FF6B00"/>
<stop offset="1" stop-color="#FF8730"/>
</linearGradient>
<linearGradient id="paint37_linear" x1="104.292" y1="46.4503" x2="111.027" y2="46.4503" gradientUnits="userSpaceOnUse">
<stop offset="0.00615385" stop-color="#FF6B00"/>
<stop offset="1" stop-color="#FF8730"/>
</linearGradient>
<linearGradient id="paint38_linear" x1="96.7177" y1="52.4103" x2="119.731" y2="52.4103" gradientUnits="userSpaceOnUse">
<stop offset="0.00615385" stop-color="#FF6B00"/>
<stop offset="1" stop-color="#FF8730"/>
</linearGradient>
<linearGradient id="paint39_linear" x1="86.3708" y1="35.647" x2="111.045" y2="35.647" gradientUnits="userSpaceOnUse">
<stop offset="0.00615385" stop-color="#FF6B00"/>
<stop offset="1" stop-color="#FF8730"/>
</linearGradient>
<linearGradient id="paint40_linear" x1="86.4017" y1="21.8334" x2="102.182" y2="21.8334" gradientUnits="userSpaceOnUse">
<stop offset="0.00615385" stop-color="#FF6B00"/>
<stop offset="1" stop-color="#FF8730"/>
</linearGradient>
<linearGradient id="paint41_linear" x1="114.084" y1="52.3635" x2="121.716" y2="52.3635" gradientUnits="userSpaceOnUse">
<stop offset="0.00615385" stop-color="#FF6B00"/>
<stop offset="1" stop-color="#FF8730"/>
</linearGradient>
<linearGradient id="paint42_linear" x1="94.27" y1="34.0587" x2="117.137" y2="34.0587" gradientUnits="userSpaceOnUse">
<stop offset="0.00615385" stop-color="#FF6B00"/>
<stop offset="1" stop-color="#FF8730"/>
</linearGradient>
<linearGradient id="paint43_linear" x1="114.101" y1="47.7945" x2="125.399" y2="47.7945" gradientUnits="userSpaceOnUse">
<stop offset="0.00615385" stop-color="#FF6B00"/>
<stop offset="1" stop-color="#FF8730"/>
</linearGradient>
<linearGradient id="paint44_linear" x1="114.132" y1="37.6873" x2="129.367" y2="37.6873" gradientUnits="userSpaceOnUse">
<stop offset="0.00615385" stop-color="#FF6B00"/>
<stop offset="1" stop-color="#FF8730"/>
</linearGradient>
<linearGradient id="paint45_linear" x1="104.341" y1="29.5806" x2="111.077" y2="29.5806" gradientUnits="userSpaceOnUse">
<stop offset="0.00615385" stop-color="#FF6B00"/>
<stop offset="1" stop-color="#FF8730"/>
</linearGradient>
<linearGradient id="paint46_linear" x1="139.922" y1="63.0127" x2="152.295" y2="63.0127" gradientUnits="userSpaceOnUse">
<stop offset="0.00615385" stop-color="#FF6B00"/>
<stop offset="1" stop-color="#FF8730"/>
</linearGradient>
<linearGradient id="paint47_linear" x1="143.259" y1="75.2369" x2="152.264" y2="75.2369" gradientUnits="userSpaceOnUse">
<stop offset="0.00615385" stop-color="#FF6B00"/>
<stop offset="1" stop-color="#FF8730"/>
</linearGradient>
<linearGradient id="paint48_linear" x1="129.309" y1="65.5795" x2="152.277" y2="65.5795" gradientUnits="userSpaceOnUse">
<stop offset="0.00615385" stop-color="#FF6B00"/>
<stop offset="1" stop-color="#FF8730"/>
</linearGradient>
<linearGradient id="paint49_linear" x1="144.419" y1="58.69" x2="152.313" y2="58.69" gradientUnits="userSpaceOnUse">
<stop offset="0.00615385" stop-color="#FF6B00"/>
<stop offset="1" stop-color="#FF8730"/>
</linearGradient>
<linearGradient id="paint50_linear" x1="136.55" y1="50.7877" x2="152.326" y2="50.7877" gradientUnits="userSpaceOnUse">
<stop offset="0.00615385" stop-color="#FF6B00"/>
<stop offset="1" stop-color="#FF8730"/>
</linearGradient>
<linearGradient id="paint51_linear" x1="113.911" y1="115.272" x2="125.209" y2="115.272" gradientUnits="userSpaceOnUse">
<stop offset="0.00615385" stop-color="#FF6B00"/>
<stop offset="1" stop-color="#FF8730"/>
</linearGradient>
<linearGradient id="paint52_linear" x1="113.898" y1="122.428" x2="130.491" y2="122.428" gradientUnits="userSpaceOnUse">
<stop offset="0.00615385" stop-color="#FF6B00"/>
<stop offset="1" stop-color="#FF8730"/>
</linearGradient>
<linearGradient id="paint53_linear" x1="113.924" y1="110.783" x2="129.159" y2="110.783" gradientUnits="userSpaceOnUse">
<stop offset="0.00615385" stop-color="#FF6B00"/>
<stop offset="1" stop-color="#FF8730"/>
</linearGradient>
<linearGradient id="paint54_linear" x1="129.184" y1="110.56" x2="152.153" y2="110.56" gradientUnits="userSpaceOnUse">
<stop offset="0.00615385" stop-color="#FF6B00"/>
<stop offset="1" stop-color="#FF8730"/>
</linearGradient>
<linearGradient id="paint55_linear" x1="144.294" y1="103.67" x2="152.184" y2="103.67" gradientUnits="userSpaceOnUse">
<stop offset="0.00615385" stop-color="#FF6B00"/>
<stop offset="1" stop-color="#FF8730"/>
</linearGradient>
<linearGradient id="paint56_linear" x1="136.422" y1="95.7707" x2="152.198" y2="95.7707" gradientUnits="userSpaceOnUse">
<stop offset="0.00615385" stop-color="#FF6B00"/>
<stop offset="1" stop-color="#FF8730"/>
</linearGradient>
<linearGradient id="paint57_linear" x1="136.44" y1="90.1507" x2="152.216" y2="90.1507" gradientUnits="userSpaceOnUse">
<stop offset="0.00615385" stop-color="#FF6B00"/>
<stop offset="1" stop-color="#FF8730"/>
</linearGradient>
<linearGradient id="paint58_linear" x1="146.041" y1="87.2929" x2="152.23" y2="87.2929" gradientUnits="userSpaceOnUse">
<stop offset="0.00615385" stop-color="#FF6B00"/>
<stop offset="1" stop-color="#FF8730"/>
</linearGradient>
<linearGradient id="paint59_linear" x1="132.081" y1="77.6313" x2="152.25" y2="77.6313" gradientUnits="userSpaceOnUse">
<stop offset="0.00615385" stop-color="#FF6B00"/>
<stop offset="1" stop-color="#FF8730"/>
</linearGradient>
<linearGradient id="paint60_linear" x1="104.217" y1="74.5612" x2="110.947" y2="74.5612" gradientUnits="userSpaceOnUse">
<stop offset="0.00615385" stop-color="#FF6B00"/>
<stop offset="1" stop-color="#FF8730"/>
</linearGradient>
<linearGradient id="paint61_linear" x1="139.794" y1="107.995" x2="152.166" y2="107.995" gradientUnits="userSpaceOnUse">
<stop offset="0.00615385" stop-color="#FF6B00"/>
<stop offset="1" stop-color="#FF8730"/>
</linearGradient>
<linearGradient id="paint62_linear" x1="143.13" y1="120.218" x2="152.14" y2="120.218" gradientUnits="userSpaceOnUse">
<stop offset="0.00615385" stop-color="#FF6B00"/>
<stop offset="1" stop-color="#FF8730"/>
</linearGradient>
<linearGradient id="paint63_linear" x1="136.31" y1="135.133" x2="152.09" y2="135.133" gradientUnits="userSpaceOnUse">
<stop offset="0.00615385" stop-color="#FF6B00"/>
<stop offset="1" stop-color="#FF8730"/>
</linearGradient>
<linearGradient id="paint64_linear" x1="145.911" y1="132.276" x2="152.104" y2="132.276" gradientUnits="userSpaceOnUse">
<stop offset="0.00615385" stop-color="#FF6B00"/>
<stop offset="1" stop-color="#FF8730"/>
</linearGradient>
<linearGradient id="paint65_linear" x1="131.952" y1="122.614" x2="152.122" y2="122.614" gradientUnits="userSpaceOnUse">
<stop offset="0.00615385" stop-color="#FF6B00"/>
<stop offset="1" stop-color="#FF8730"/>
</linearGradient>
<linearGradient id="paint66_linear" x1="-64.0043" y1="178.233" x2="-63.2148" y2="178.233" gradientUnits="userSpaceOnUse">
<stop stop-color="#999999"/>
<stop offset="1" stop-color="#EAEAEA"/>
</linearGradient>
<linearGradient id="paint67_linear" x1="79.0715" y1="202.167" x2="38.6247" y2="166.098" gradientUnits="userSpaceOnUse">
<stop offset="0.6446" stop-color="#BDBDBD"/>
<stop offset="1" stop-color="#FDFDFD"/>
</linearGradient>
<linearGradient id="paint68_linear" x1="79.0715" y1="196.106" x2="38.6247" y2="160.037" gradientUnits="userSpaceOnUse">
<stop offset="0.6446" stop-color="#BDBDBD"/>
<stop offset="1" stop-color="#FDFDFD"/>
</linearGradient>
<linearGradient id="paint69_linear" x1="79.0715" y1="189.709" x2="38.6247" y2="153.64" gradientUnits="userSpaceOnUse">
<stop offset="0.6446" stop-color="#BDBDBD"/>
<stop offset="1" stop-color="#FDFDFD"/>
</linearGradient>
<linearGradient id="paint70_linear" x1="79.0715" y1="183.648" x2="38.6247" y2="147.58" gradientUnits="userSpaceOnUse">
<stop offset="0.6446" stop-color="#BDBDBD"/>
<stop offset="1" stop-color="#FDFDFD"/>
</linearGradient>
<linearGradient id="paint71_linear" x1="79.4181" y1="177.56" x2="38.9713" y2="141.491" gradientUnits="userSpaceOnUse">
<stop offset="0.6446" stop-color="#BDBDBD"/>
<stop offset="1" stop-color="#FDFDFD"/>
</linearGradient>
<linearGradient id="paint72_linear" x1="165.265" y1="203.202" x2="24.4186" y2="77.6008" gradientUnits="userSpaceOnUse">
<stop stop-color="#CCCCCC"/>
<stop offset="0.0302515" stop-color="#CCCCCC"/>
<stop offset="0.0342502" stop-color="#CCCCCC"/>
<stop offset="0.2374" stop-color="#CFCFCF"/>
<stop offset="0.3434" stop-color="#D5D5D5"/>
<stop offset="0.4063" stop-color="#DFDFDF"/>
<stop offset="0.4949" stop-color="#F5F5F5"/>
<stop offset="0.5859" stop-color="#E3E3E3"/>
<stop offset="0.688" stop-color="#D7D7D7"/>
<stop offset="0.858" stop-color="#C8C8C8"/>
<stop offset="1" stop-color="#C3C3C3"/>
</linearGradient>
<linearGradient id="paint73_linear" x1="44.4163" y1="123.606" x2="44.1194" y2="100.449" gradientUnits="userSpaceOnUse">
<stop stop-color="#FF6B00"/>
<stop offset="0.1052" stop-color="#FF740F"/>
<stop offset="0.2727" stop-color="#FF8730"/>
<stop offset="0.7525" stop-color="#DE5D00"/>
<stop offset="0.8939" stop-color="#FF7B1C"/>
<stop offset="1" stop-color="#FF6B00"/>
</linearGradient>
<linearGradient id="paint74_linear" x1="43.9967" y1="156.157" x2="43.9967" y2="115.977" gradientUnits="userSpaceOnUse">
<stop stop-color="#FF6B00"/>
<stop offset="0.1052" stop-color="#FF740F"/>
<stop offset="0.2727" stop-color="#FF8730"/>
<stop offset="0.8939" stop-color="#FF7B1C"/>
<stop offset="1" stop-color="#FF6B00"/>
</linearGradient>
<linearGradient id="paint75_linear" x1="104.742" y1="151.277" x2="-4.35046" y2="49.8159" gradientUnits="userSpaceOnUse">
<stop stop-color="#BFBFBF"/>
<stop offset="0.1067" stop-color="#C2C2C2"/>
<stop offset="0.1779" stop-color="#CBCBCB"/>
<stop offset="0.2387" stop-color="#DADADA"/>
<stop offset="0.2934" stop-color="#EFEFEF"/>
<stop offset="0.3159" stop-color="#FAFAFA"/>
<stop offset="0.346" stop-color="#F2F2F2"/>
<stop offset="0.4246" stop-color="#E5E5E5"/>
<stop offset="0.522" stop-color="#DCDCDC"/>
<stop offset="0.6946" stop-color="#DADADA"/>
<stop offset="1" stop-color="#EBEBEB"/>
</linearGradient>
</defs>
</svg>
