<svg xmlns="http://www.w3.org/2000/svg" xmlns:xlink="http://www.w3.org/1999/xlink" width="194" height="240" fill="none" xmlns:v="https://vecta.io/nano"><style><![CDATA[.B{opacity:.25}.C{opacity:.5}]]></style><path d="M37.579 31.105c.316.158.632.632.79 1.105l1.105 4.579c0 .316.158.789.474 1.105.79.632 1.579 1.421 2.368 2.368.158 0 .158 0 .316-.158l2.684-1.263c.158-.158.316-.158.632 0 .158.158.316.158.474.474l2.842 4.105c.316.474.474 1.105.158 1.263l-1.579 2.684c-.474 0-.474.316-.474.79.474 1.105.789 2.21 1.105 3.316.158 0 .158.158.316.158h.158l3.474 2.21c.474.316.789.79.789 1.263l.474 4.263c0 .474-.158.79-.632.632l-3.316-.632c-.316-.158-.474 0-.632.158-.158.789-.474 1.579-.789 2.368 0 .158.158.316.158.474l2.369 4.421c.316.474.316 1.105.158 1.263l-2.053 1.895c-.158.158-.316.158-.632 0l-.474-.474-3.158-3.632c-.158-.158-.316-.474-.474-.474s-.158-.158-.316-.158c-.632.158-1.421.158-2.211 0v.474l-.158 3.947c0 .474-.158.79-.632.632l-3.474-1.421h-.158c-.316-.158-.632-.632-.79-1.105l-1.105-4.579c0-.316-.158-.79-.474-1.105-.79-.632-1.579-1.421-2.368-2.368-.158 0-.158 0-.316.158l-2.684 1.263c-.158.158-.316.158-.632 0l-.474-.474-2.842-4.105c-.316-.474-.316-1.105-.158-1.263L27 52.579c.158-.158.158-.474.158-.789-.474-1.105-.789-2.211-1.105-3.316-.158 0-.158-.158-.316-.158h-.158l-3.474-2.21h-.158c-.316-.158-.632-.632-.79-1.105l-.474-4.421c0-.474.158-.789.631-.632l3.316.632c.316.158.474 0 .632-.158.158-.789.474-1.579.79-2.368 0-.158-.158-.316-.158-.474l-2.053-4.421c-.316-.474-.316-1.105-.158-1.263l2.21-2.053c.158-.158.316-.158.632 0l.474.474 3.158 3.632c.158.158.316.474.474.474s.158.158.316.158c.632-.158 1.421-.158 2.211 0v-.474l.158-3.947c0-.474.158-.79.632-.632l3.632 1.579c-.158 0-.158 0 0 0z" fill="url(#A)" class="B"/><path d="M39.79 21.158c0 .316-.158.474-.474.474l-2.368-.474c-.158-.158-.316 0-.474.158-.158.632-.316 1.105-.632 1.579 0 .158.158.158.158.316l1.737 3.158c.158.316.316.79.158.947l-1.579 1.421c-.158.158-.316.158-.474 0-.158 0-.158-.158-.316-.316l-2.211-2.526c-.158-.316-.158-.474-.316-.631h-.158a2.69 2.69 0 0 1-1.579 0v.316l-.158 2.842c0 .316-.158.474-.474.474l-2.526-1.105c-.316-.158-.474-.474-.474-.79l-.79-3.158c0-.316-.158-.474-.316-.789-.631-.474-1.105-.947-1.737-1.579h-.158l-1.895.947c-.158.158-.316.158-.474 0-.158 0-.158-.158-.316-.316l-2.053-2.842c-.158-.316-.316-.79-.158-.947l1.105-1.895c.158-.158.158-.316.158-.632-.316-.79-.631-1.579-.789-2.368l-.158-.158h-.158l-2.526-1.579c-.316-.158-.474-.474-.474-.79l-.316-3c0-.316.158-.474.474-.474l2.368.474c.158.158.316 0 .474-.158.158-.632.316-1.105.631-1.579 0-.158-.158-.158-.158-.316l-1.737-3.158c-.158-.316-.316-.789-.158-.947L20.053.316c.158-.158.316-.158.474 0 .158 0 .158.158.316.316l2.053 2.526.316.316h.158a2.69 2.69 0 0 1 1.579 0v-.316l.316-2.684c0-.316.158-.474.474-.474l2.526 1.105c.316.158.632.474.632.789l.789 3.158c0 .316.158.474.316.789.632.474 1.105 1.105 1.737 1.579h.158l1.895-.947c.158-.158.316-.158.474 0 .158 0 .158.158.316.316l1.737 3c.158.316.316.789.158.947l-1.105 1.895c-.158.158-.158.316-.158.632.316.789.632 1.579.789 2.368l.158.158h.158l2.526 1.579c.316.158.474.474.474.79l.474 3zm-11.684 1.421c3.947 2.211 7.105.474 7.105-4.105 0-4.421-3.158-9.947-7.105-12.158S21 5.842 21 10.421c.158 4.421 3.158 9.789 7.105 12.158z" fill="url(#B)" class="B"/><path d="M56.211 34.263a.34.34 0 0 1-.316.316l-1.579-.316H54c-.158.474-.158.789-.316 1.105 0 0 0 .158.158.158l1.105 2.053c.158.158.158.474 0 .632l-1.421 1.105h-.316l-.158-.158-1.421-1.737c-.158-.158 0-.316-.158-.316h-.789v.158V39a.34.34 0 0 1-.316.316l-1.737-.632c-.158-.158-.316-.316-.316-.474l-.474-2.053c0-.158-.158-.316-.158-.474a3.69 3.69 0 0 1-1.105-1.105h-.158l-1.579.947h-.316l-.158-.158-1.737-2.211c-.158-.158-.158-.474 0-.632l1.105-1.579c.158 0 .158-.158 0-.316-.158-.474-.474-.947-.474-1.579l-.158-.158-1.737-1.105c-.158-.158-.316-.316-.474-.631v-1.895a.34.34 0 0 1 .316-.316l1.579.316h.316c.158-.474.158-.789.316-1.105 0 0 0-.158-.158-.158l-1.737-2.684c-.158-.158-.158-.474 0-.632l.947-.947h.316l.158.158 2.211 2.368c0 .158.158.158.316.316h.158 1.105v-.158l.158-1.895a.34.34 0 0 1 .316-.316l1.579.632c.158.158.316.316.316.632l.474 2.21c0 .158.158.316.158.474.474.316.316.316.632.631 0 0 1.105-.789 1.263-.789h.316l.158.158L54 26.684c.158.158.158.474 0 .632l-.79 1.263c-.158 0-.158.158 0 .316.158.474.474.947.474 1.579l.158.158 1.737 1.105c.158.158.316.316.316.632l.316 1.895zm-7.737.789c2.684 1.421 4.737.316 4.737-2.684s-2.053-6.632-4.737-8.053S43.737 24 43.737 27c.158 3 2.211 6.632 4.737 8.053z" fill="url(#C)" class="B"/><g fill="#eaeaea"><path d="M117.789 184.105l-5.842 3.474-1.421-.79 4.737-2.684-1.737-.316.789-.789 2.369.474 1.105.631zm-5.999-3.473c1.579.947.789 2.052-.79 3-1.895 1.105-3.789 1.421-5.368.473s-.79-2.052.789-3.158c1.737-.947 3.948-1.263 5.369-.315zm-5.053 3c.474.315 1.579.157 2.842-.632s1.737-1.263 1.105-1.737c-.473-.316-1.579-.158-2.842.632s-1.737 1.421-1.105 1.737zm0-6c1.579.947.789 2.052-.79 3-1.895 1.105-3.947 1.421-5.368.473-1.579-.947-.79-2.052.789-3.158 1.737-.789 3.79-1.263 5.369-.315zm-5.211 3c.474.315 1.579.157 2.842-.632s1.737-1.263 1.106-1.737c-.474-.316-1.579-.158-2.843.632s-1.579 1.421-1.105 1.737zm31.737 12.473l-6 3.474-1.263-.79 4.737-2.842-1.737-.315.789-.79 2.369.632 1.105.631zm4.264 2.369c1.579.947.789 2.052-.79 3-1.894 1.105-3.947 1.421-5.368.473-1.579-.947-.79-2.052.789-3.158 1.737-.947 3.948-1.263 5.369-.315zm-5.053 3c.474.315 1.579.158 2.842-.632s1.737-1.263 1.105-1.737c-.473-.316-1.578-.158-2.842.632-1.421.789-1.736 1.421-1.105 1.737zm-10.263-12c1.579.947.789 2.052-.79 3-1.895 1.105-3.947 1.421-5.368.473-1.579-.947-.79-2.052.789-3.158 1.579-.789 3.79-1.105 5.369-.315zm-5.211 3c.474.315 1.579.157 2.842-.632s1.737-1.263 1.106-1.737c-.474-.316-1.579-.158-2.843.632-1.263.947-1.579 1.421-1.105 1.737zm10.264 0c1.579.947.789 2.052-.79 3-1.895 1.105-3.789 1.421-5.368.473s-.79-2.052.789-3.158c1.737-.789 3.79-1.263 5.369-.315zm-5.053 3c.474.315 1.579.158 2.842-.632s1.737-1.263 1.105-1.737c-.473-.316-1.579-.158-2.842.632-1.421.789-1.737 1.421-1.105 1.737zm20.526 6c1.579.947.789 2.052-.79 3-1.895 1.105-3.947 1.421-5.368.473-1.579-.947-.79-2.052.789-3.158 1.737-.947 3.79-1.263 5.369-.315zm-5.211 2.842c.474.316 1.579.158 2.842-.632s1.737-1.263 1.106-1.737c-.474-.315-1.579-.158-2.843.632-1.263.947-1.579 1.421-1.105 1.737z"/><path d="M159 207.947l-6 3.474-1.263-.789 4.737-2.843-1.737-.315.789-.79 2.369.632 1.105.631zm-11.052-6.631c1.579.947.789 2.052-.79 3-1.894 1.105-3.947 1.421-5.368.473-1.579-.947-.79-2.052.789-3.157 1.579-.79 3.79-1.106 5.369-.316zm-5.211 3c.474.316 1.579.158 2.842-.632s1.737-1.263 1.106-1.737c-.474-.315-1.579-.158-2.843.632-1.263.947-1.736 1.421-1.105 1.737zm11.053.631l-5.842 3.474-1.421-.789 4.737-2.685-1.737-.473.79-.632 2.368.474 1.105.631zm9.474 5.369c1.579.947.789 2.052-.79 3-1.895 1.105-3.947 1.421-5.368.473-1.579-.947-.79-2.052.789-3.157 1.737-.948 3.79-1.264 5.369-.316zm-5.053 3c.474.316 1.579.158 2.842-.632s1.737-1.263 1.105-1.737c-.473-.315-1.579-.158-2.842.632-1.421.789-1.737 1.421-1.105 1.737zm-51.474-22.737l-5.842 3.474-1.421-.79 4.737-2.684-1.737-.474.789-.631 2.369.473 1.105.632zm5.21 3l-6 3.474-1.263-.79 4.737-2.842-1.737-.316.79-.789 2.368.631 1.105.632zm5.211 3l-6 3.474-1.421-.79 4.737-2.842-1.737-.316.789-.789 2.369.473 1.263.79zm4.264 2.368c1.579.948.789 2.053-.79 3-1.895 1.106-3.947 1.421-5.368.474-1.579-.947-.79-2.053.789-3.158 1.737-.947 3.79-1.263 5.369-.316zm-5.211 2.842c.474.316 1.579.158 2.842-.631s1.737-1.263 1.105-1.737c-.473-.316-1.578-.158-2.842.632-1.263.947-1.579 1.421-1.105 1.736z"/><path d="M141.948 210.789c1.579.948.789 2.053-.79 3-1.895 1.106-3.947 1.421-5.368.474-1.579-.947-.79-2.053.789-3.158 1.737-.947 3.79-1.263 5.369-.316zm-5.053 3c.474.316 1.579.158 2.842-.631s1.737-1.263 1.105-1.737c-.473-.316-1.579-.158-2.842.632-1.421.789-1.737 1.421-1.105 1.736zm.789-5.368l-6 3.474-1.421-.79 4.737-2.842-1.579-.316.789-.631 2.369.473 1.105.632zm-5.999-3.632c1.579.948.789 2.053-.79 3-1.895 1.106-3.947 1.421-5.368.474-1.579-.947-.79-2.053.789-3.158 1.737-.789 3.79-1.105 5.369-.316zm-5.211 3c.474.316 1.579.158 2.842-.631s1.737-1.263 1.106-1.737c-.474-.316-1.579-.158-2.843.632s-1.579 1.421-1.105 1.736zm0-5.999c1.579.947.789 2.052-.79 3-1.894 1.105-3.947 1.421-5.368.473-1.579-.947-.79-2.052.789-3.158 1.737-.789 3.948-1.105 5.369-.315zm-5.053 3c.474.315 1.579.157 2.842-.632s1.737-1.263 1.106-1.737c-.474-.316-1.579-.158-2.843.632-1.421.947-1.736 1.421-1.105 1.737zm30.79 11.841c1.579.948.789 2.053-.79 3.001-1.895 1.105-3.947 1.421-5.368.473-1.579-.947-.79-2.052.789-3.158 1.737-.789 3.79-1.105 5.369-.316zm-5.053 3.001c.474.315 1.579.157 2.842-.632s1.737-1.263 1.105-1.737c-.473-.316-1.579-.158-2.842.632-1.421.947-1.737 1.421-1.105 1.737z"/><path d="M147.158 213.789c1.579.948.789 2.053-.79 3-1.895 1.106-3.947 1.421-5.368.474-1.579-.947-.79-2.053.789-3.158 1.579-.947 3.79-1.263 5.369-.316zm-5.211 2.842c.474.316 1.579.158 2.842-.631s1.737-1.263 1.106-1.737c-.474-.316-1.579-.158-2.843.632-1.263.947-1.578 1.421-1.105 1.736zm-11.052.474c1.579.948.789 2.053-.79 3-1.895 1.105-3.947 1.421-5.368.474-1.579-.947-.79-2.053.789-3.158 1.737-.789 3.79-1.105 5.369-.316zm-5.053 3c.474.316 1.579.158 2.842-.631s1.737-1.263 1.105-1.737c-.473-.316-1.579-.158-2.842.631-1.421.948-1.737 1.421-1.105 1.737zm15.316 3c1.579.948.789 2.053-.79 3-1.894 1.105-3.947 1.421-5.368.474-1.579-.948-.79-2.053.789-3.158 1.737-.79 3.79-1.263 5.369-.316zm-5.053 3c.474.316 1.579.158 2.842-.631s1.737-1.264 1.105-1.737c-.473-.316-1.578-.158-2.842.631-1.421.79-1.737 1.421-1.105 1.737zm.001-6c1.579.948.789 2.053-.79 3-1.895 1.106-3.947 1.421-5.368.474-1.579-.947-.79-2.053.789-3.158 1.579-.789 3.79-1.105 5.369-.316zm-5.211 3c.474.316 1.579.158 2.842-.631s1.737-1.263 1.106-1.737c-.474-.316-1.579-.158-2.843.631-1.263.948-1.578 1.421-1.105 1.737z"/><path d="M125.843 214.263c1.579.947.789 2.053-.79 3-1.895 1.105-3.947 1.421-5.368.474-1.579-.948-.79-2.053.789-3.158 1.579-.947 3.79-1.263 5.369-.316zm-5.211 3c.474.316 1.579.158 2.842-.631s1.737-1.264 1.106-1.737c-.474-.316-1.579-.158-2.843.631s-1.579 1.421-1.105 1.737zm.789-5.368l-5.842 3.473-1.421-.789 4.737-2.842-1.737-.316.79-.789 2.368.473 1.105.79zm-5.052-3l-6 3.473-1.421-.789 4.737-2.684-1.737-.474.947-.632 2.211.474 1.263.632zm-5.211-3l-6 3.473-1.263-.789 4.737-2.684-1.737-.474.789-.632 2.369.474 1.105.632zm-17.052 2.842c1.579.947.79 2.052-.79 3-1.895 1.105-3.789 1.421-5.368.473s-.79-2.052.79-3.157c1.737-.79 3.789-1.264 5.368-.316zm-5.053 3c.474.316 1.579.158 2.842-.632s1.737-1.263 1.105-1.737c-.474-.315-1.579-.158-2.842.632-1.421.789-1.737 1.421-1.105 1.737zm0-6c1.579.947.79 2.052-.79 3-1.895 1.105-3.947 1.421-5.368.474-1.579-.948-.79-2.053.79-3.158 1.579-.79 3.789-1.106 5.368-.316zm-5.21 3c.474.316 1.579.158 2.842-.632s1.737-1.263 1.105-1.737c-.474-.315-1.579-.157-2.842.632-1.263.947-1.579 1.421-1.105 1.737zm0-5.842c1.579.947.789 2.052-.789 3-1.895 1.105-3.947 1.421-5.368.473-1.579-.947-.789-2.052.789-3.158 1.737-.947 3.79-1.263 5.368-.315zm-5.053 2.842c.474.316 1.579.158 2.842-.632s1.737-1.263 1.105-1.737c-.474-.315-1.579-.158-2.842.632-1.421.947-1.737 1.421-1.105 1.737zm.789-5.211l-6 3.474-1.421-.79 4.737-2.842-1.579-.315.79-.79 2.368.474 1.105.789z"/><path d="M104.369 214.737c1.579.947.789 2.052-.79 3-1.895 1.105-3.947 1.421-5.368.473-1.579-.947-.79-2.052.789-3.157 1.737-.948 3.948-1.264 5.369-.316zm-5.053 3c.474.316 1.579.158 2.842-.632s1.737-1.263 1.105-1.737c-.473-.315-1.579-.158-2.842.632-1.421.789-1.737 1.421-1.105 1.737zm.789-5.369l-6 3.474-1.263-.789 4.737-2.843-1.737-.315.79-.79 2.368.632 1.105.631zm9.474 5.369c1.579.947.789 2.052-.79 3-1.895 1.105-3.947 1.421-5.368.473-1.579-.947-.79-2.052.789-3.157 1.737-.948 3.79-1.264 5.369-.316zm-5.053 2.842c.474.316 1.579.158 2.842-.632s1.737-1.263 1.105-1.737c-.473-.315-1.579-.157-2.842.632-1.421.947-1.737 1.421-1.105 1.737zm25.58 9c1.579.947.789 2.053-.79 3-1.894 1.105-3.947 1.421-5.368.474-1.579-.948-.79-2.053.789-3.158 1.737-.948 3.79-1.263 5.369-.316zm-5.053 3c.474.316 1.579.158 2.842-.632s1.737-1.263 1.105-1.737c-.473-.315-1.578-.157-2.842.632-1.421.79-1.737 1.421-1.105 1.737z"/><path d="M114.79 220.579c1.579.947.789 2.052-.79 3-1.895 1.105-3.947 1.421-5.368.474-1.579-.948-.79-2.053.789-3.158 1.579-.79 3.79-1.106 5.369-.316zm-5.211 3c.474.316 1.579.158 2.842-.632s1.737-1.263 1.106-1.737c-.474-.315-1.579-.157-2.843.632-1.263.947-1.579 1.421-1.105 1.737zm11.211.631l-6 3.474-1.421-.789 4.737-2.685-1.737-.473.789-.632 2.369.474 1.263.631zm4.263 2.369c1.579.947.789 2.053-.79 3-1.895 1.105-3.947 1.421-5.368.474-1.579-.948-.79-2.053.789-3.158 1.579-.79 3.79-1.263 5.369-.316zm-5.211 3c.474.316 1.579.158 2.842-.632s1.737-1.263 1.105-1.737c-.473-.315-1.578-.157-2.842.632s-1.579 1.421-1.105 1.737zM36.79 188.526c1.579.948.789 2.053-.79 3-1.895 1.106-3.947 1.421-5.368.474-1.579-.947-.789-2.053.79-3.158 1.737-.947 3.789-1.263 5.368-.316zm-5.053 2.842c.474.316 1.579.158 2.842-.631s1.737-1.263 1.105-1.737c-.474-.316-1.579-.158-2.842.632-1.421.947-1.737 1.421-1.105 1.736zM53.053 198l-6 3.474-1.263-.79 4.737-2.842-1.737-.316.789-.789 2.368.631 1.105.632zm-6-3.632c1.579.948.789 2.053-.789 3.158-1.895 1.106-3.947 1.421-5.369.474-1.579-.947-.789-2.053.79-3.158 1.737-.947 3.789-1.421 5.368-.474zm-5.053 3c.474.316 1.579.158 2.842-.631s1.737-1.263 1.105-1.737c-.474-.316-1.579-.158-2.842.632-1.421.789-1.737 1.421-1.105 1.736zm.789-5.368l-6 3.474-1.263-.79L40.263 192l-1.737-.316.789-.789 2.368.473 1.105.632zm15.474 9l-6 3.474-1.421-.79 4.737-2.842-1.579-.316.79-.789 2.21.473 1.263.79zm4.264 2.368c1.579.948.79 2.053-.789 3-1.895 1.106-3.947 1.421-5.368.474-1.579-.947-.789-2.053.789-3.158 1.737-.947 3.79-1.263 5.368-.316zm-5.053 2.843c.474.315 1.579.157 2.842-.632s1.737-1.263 1.105-1.737c-.474-.316-1.579-.158-2.842.632-1.421.947-1.737 1.421-1.105 1.737zm11.052.631l-6 3.474-1.263-.79L66 206.842l-1.737-.316.789-.789 2.369.473 1.105.632zm5.211 3l-6 3.474-1.421-.79 4.737-2.684-1.737-.474.79-.631 2.368.473 1.263.632zm4.264 2.369c1.579.947.789 2.052-.79 3-1.895 1.105-3.947 1.421-5.368.473-1.579-.947-.789-2.052.79-3.158 1.737-.789 3.79-1.263 5.368-.315zm-5.211 3c.474.315 1.579.157 2.842-.632s1.737-1.263 1.105-1.737c-.474-.316-1.579-.158-2.842.632s-1.579 1.421-1.105 1.737zm20.526 5.842c1.579.947.789 2.052-.79 3-1.895 1.105-3.947 1.421-5.368.473-1.579-.947-.789-2.052.79-3.158 1.737-.789 3.947-1.105 5.368-.315zm-5.053 3c.474.315 1.579.158 2.842-.632s1.737-1.263 1.105-1.737c-.474-.316-1.579-.158-2.842.632-1.263.947-1.737 1.421-1.105 1.737zm.79-5.369l-6 3.474-1.263-.79 4.737-2.684-1.737-.316.789-.789 2.368.474 1.105.631zM84 215.842l-6 3.474-1.421-.79 4.737-2.842-1.737-.316.947-.789 2.211.474 1.263.789zm15.316 8.842l-5.842 3.474-1.421-.79 4.737-2.684-1.737-.474.79-.631 2.368.474 1.105.631zm5.21 3l-6 3.474-1.263-.79 4.579-2.842-1.579-.316.789-.631 2.369.474 1.105.631zm9.475 5.369c1.579.947.789 2.052-.79 3-1.894 1.105-3.947 1.421-5.368.473-1.579-.947-.79-2.052.789-3.158 1.737-.947 3.79-1.263 5.369-.315zm-5.211 2.842c.474.316 1.579.158 2.842-.632s1.737-1.263 1.106-1.737c-.474-.315-1.579-.158-2.843.632-1.263.947-1.578 1.421-1.105 1.737z"/><path d="M109.737 230.684l-6 3.474-1.421-.79 4.737-2.842-1.737-.316.79-.789 2.368.474 1.263.789zm9.316 5.211c1.579.947.789 2.052-.79 3-1.894 1.105-3.947 1.421-5.368.473-1.579-.947-.79-2.052.789-3.157 1.737-.79 3.79-1.106 5.369-.316zm-5.053 3c.474.316 1.579.158 2.842-.632s1.737-1.263 1.105-1.737c-.473-.315-1.578-.158-2.842.632-1.421.947-1.736 1.421-1.105 1.737z"/></g><path opacity=".001" d="M193.579 165.789L148.263 192 43.737 131.684 90 104.368l103.579 61.421z" fill="#000"/><path d="M151.737 161.526v4.895l-24.474 14.211v-5.053l24.474-14.053z" fill="#999"/><path d="M127.263 175.579v5.053l-57.789-33.316v-5.053l57.789 33.316z" fill="url(#D)"/><path d="M151.737 161.526l-24.474 14.053-57.789-33.316 24.316-14.21 57.947 33.473z" fill="url(#E)"/><path d="M151.737 161.526l-82.263-19.263 24.316-14.21 57.947 33.473z" fill="url(#F)" class="C"/><path d="M129.158 166.263l4.263-2.526.158-45-4.263 2.368-.158 45.158z" fill="#999"/><path d="M129.316 121.105l4.263-2.368L94.263 96 90 98.526l39.316 22.579z" fill="#c0c5d1"/><path d="M90 98.526l-.158 45.158 39.316 22.579.158-45.158L90 98.526z" fill="url(#G)"/><path d="M186.632 82.895l4.263-1.105L74.053 14.368l-4.105 1.105 116.684 67.421z" fill="url(#H)"/><path d="M69.948 15.474l-18 88.579 116.684 67.421 18-88.579L69.948 15.474z" fill="url(#I)"/><path d="M73.105 22.579l-15.947 79.737 108 62.526 16.579-80.684L73.105 22.579z" fill="url(#J)"/><path opacity=".001" d="M16.737 177c-16.105 9.316-16.105 24.316-.158 33.632s42 9.315 58.105 0 16.263-24.316.158-33.632c-15.947-9.316-42-9.316-58.105 0z" fill="#000"/><path d="M16.895 172.263c-14.842 8.526-15 22.579-.158 31.105s38.842 8.527 53.684 0 15-22.579.158-31.105c-14.684-8.684-38.842-8.684-53.684 0z" fill="url(#K)"/><path d="M16.895 165.316c-14.842 8.526-15 22.579-.158 31.105s38.842 8.526 53.684 0 15-22.579.158-31.105c-14.684-8.527-38.842-8.527-53.684 0z" fill="url(#L)"/><path d="M168.631 171.474l4.263-1.264 18-88.421-4.263 1.105-18 88.579z" fill="#ff6b00"/><path d="M94.105 87.631v3.316l-7.895-4.421v-3.474l7.895 4.579z" fill="url(#M)" class="B"/><path d="M101.999 103.421v3.474L86.21 97.737v-3.474l15.789 9.158z" fill="url(#N)"/><path d="M107.526 112.263v3.316L86.21 103.263v-3.316l21.316 12.316z" fill="url(#O)"/><path d="M110.841 108.474v3.473l-6.789-3.789v-3.474l6.789 3.79z" fill="url(#P)"/><path d="M101.999 86.526V90L86.21 80.842v-3.474l15.789 9.158z" fill="url(#Q)"/><path d="M111.789 103.421v3.474L86.21 92.053v-3.316l25.579 14.684z" fill="url(#R)"/><path d="M110.842 91.579v3.474l-6.632-3.789v-3.474l6.632 3.789z" fill="url(#S)"/><path d="M119.684 102.316l-.158 3.473-22.895-13.263v-3.474l23.053 13.264z" fill="url(#T)"/><path d="M110.842 86.053v3.474L86.21 75.158v-3.316l24.632 14.21z" fill="url(#U)"/><path d="M121.578 97.895v3.315l-7.579-4.421v-3.316l7.579 4.421z" fill="url(#V)"/><path d="M117 84v3.316L94.105 74.21v-3.474L117 84z" fill="url(#W)"/><path d="M125.209 94.263v3.474l-11.21-6.474v-3.474l11.21 6.474z" fill="url(#X)"/><path d="M129.315 85.421l-.158 3.316-15.158-8.684v-3.474l15.316 8.842z" fill="url(#Y)"/><path d="M125.367 71.842v3.474l-11.368-6.632v-3.316l11.368 6.474z" fill="url(#Z)"/><path d="M130.578 80.526V84l-16.579-9.632v-3.474l16.579 9.632z" fill="url(#a)"/><path d="M129.315 68.526v3.316l-15.316-8.684v-3.474l15.316 8.842z" fill="url(#b)"/><g class="C"><path d="M92.21 69.631v3.474l-6-3.474v-3.474l6 3.474z" fill="url(#c)" class="B"/><path d="M101.999 69.632v3.474L86.21 63.947v-3.474l15.789 9.158z" fill="url(#d)" class="B"/><path d="M107.526 67.263v3.474L86.368 58.421v-3.474l21.158 12.316z" fill="url(#e)" class="B"/></g><path d="M102.157 58.421L102 61.895l-15.632-9.158v-3.474l15.789 9.158z" fill="url(#f)" class="B"/><path d="M110.999 63.474v3.474l-6.789-3.789v-3.474l6.789 3.789z" fill="url(#g)" class="B"/><path d="M94.263 42.631v3.474l-7.895-4.579v-3.474l7.895 4.579z" fill="url(#h)"/><path d="M102.157 41.526V45l-15.789-9.158v-3.474l15.789 9.158z" fill="url(#i)"/><path d="M111.947 58.421v3.474L86.368 47.053v-3.316l25.579 14.684z" fill="url(#j)"/><path d="M92.368 24.632v3.474l-6-3.474v-3.474l6 3.474z" fill="url(#k)"/><path d="M111 46.737v3.316l-6.632-3.789v-3.474L111 46.737z" fill="url(#l)"/><path d="M119.684 57.316v3.474L96.789 47.526v-3.474l22.895 13.263z" fill="url(#m)"/><path d="M110.999 41.053v3.474L86.368 30.316v-3.474l24.631 14.211z" fill="url(#n)"/><path d="M102.157 24.632v3.474l-15.789-9.158v-3.316l15.789 9z" fill="url(#o)"/><path d="M121.736 52.895v3.316l-7.579-4.263v-3.474l7.579 4.421z" fill="url(#p)"/><path d="M117.158 39v3.316L94.263 29.21v-3.474L117.158 39z" fill="url(#q)"/><path d="M125.368 49.263v3.474l-11.211-6.474v-3.474l11.211 6.474z" fill="url(#r)"/><path d="M129.315 40.421v3.316l-15.158-8.684v-3.474l15.158 8.842z" fill="url(#s)"/><path d="M111 29.842v3.316l-6.632-3.79v-3.474L111 29.842z" fill="url(#t)" class="B"/><path d="M152.368 64.895l-.158 3.474-12.316-7.263v-3.316l12.474 7.105z" fill="url(#u)" class="B"/><path d="M152.21 76.105v3.474l-9-5.21v-3.474l9 5.21z" fill="url(#v)" class="B"/><path d="M152.21 70.421v3.474l-22.895-13.263v-3.316l22.895 13.105z" fill="url(#w)" class="B"/><path d="M152.368 59.21v3.474l-7.895-4.579v-3.474l7.895 4.579z" fill="url(#x)" class="B"/><path d="M152.367 53.684V57l-15.789-9v-3.474l15.789 9.158z" fill="url(#y)" class="B"/><g class="C"><path d="M125.21 116.842v3.474l-11.368-6.632v-3.316l11.368 6.474z" fill="url(#z)" class="B"/><path d="M130.421 125.526V129l-16.579-9.632v-3.473l16.579 9.631z" fill="url(#AA)" class="B"/><path d="M129.158 113.526v3.316L114 108.158v-3.474l15.158 8.842z" fill="url(#AB)" class="B"/></g><path d="M152.21 115.421v3.474l-23.053-13.264v-3.473l23.053 13.263z" fill="url(#AC)" class="B"/><path d="M152.21 104.21v3.474l-7.895-4.579v-3.474l7.895 4.578z" fill="url(#AD)" class="B"/><g class="C"><path d="M152.211 98.526V102l-15.79-9v-3.474l15.79 9z" fill="url(#AE)" class="B"/><path d="M152.211 93v3.474l-15.79-9.158v-3.474L152.211 93z" fill="url(#AF)" class="B"/><path d="M152.211 87.316v3.474l-6.158-3.632v-3.316l6.158 3.474z" fill="url(#AG)" class="B"/></g><path d="M152.21 81.789v3.316l-20.053-11.526v-3.474l20.053 11.684z" fill="url(#AH)"/><path d="M110.999 74.842v3.316l-6.789-3.789v-3.474l6.789 3.947z" fill="url(#AI)" class="B"/><path d="M152.21 109.895v3.315l-12.474-7.105v-3.316l12.474 7.106z" fill="url(#AJ)" class="B"/><path d="M152.21 121.105l-.158 3.474-9-5.211.158-3.473 9 5.21z" fill="url(#AK)"/><g class="C"><path d="M152.051 138v3.474l-15.789-9.158v-3.474L152.051 138z" fill="url(#AL)" class="B"/><path d="M152.052 132.316v3.473l-6.158-3.631v-3.316l6.158 3.474z" fill="url(#AM)" class="B"/><path d="M152.052 126.789v3.316l-20.053-11.526v-3.474l20.053 11.684z" fill="url(#AN)" class="B"/></g><path d="M44.053 185.053c4.883 0 8.842-3.04 8.842-6.79s-3.959-6.789-8.842-6.789-8.842 3.039-8.842 6.789 3.959 6.79 8.842 6.79z" fill="url(#AO)"/><use xlink:href="#AY" fill="url(#AP)"/><use xlink:href="#AY" y="-6" fill="url(#AQ)"/><path d="M44.053 167.684c8.807 0 15.947-4.171 15.947-9.316s-7.14-9.315-15.947-9.315-15.947 4.17-15.947 9.315 7.14 9.316 15.947 9.316z" fill="url(#AR)"/><path d="M44.053 161.684c8.807 0 15.947-4.171 15.947-9.315s-7.14-9.316-15.947-9.316-15.947 4.171-15.947 9.316 7.14 9.315 15.947 9.315z" fill="url(#AS)"/><use xlink:href="#AY" y="-24.947" fill="url(#AT)"/><use xlink:href="#AZ" opacity=".65" fill="url(#AU)"/><path d="M46.895 115.895l-3-1.895c10.579-16.737 12-21.79 12-23.211-.474.158-1.105.474-1.579.632-2.368.947-5.842 2.526-10.421 2.368-4.579 0-7.895-1.579-10.105-2.684-.632-.316-1.263-.632-1.737-.789-.316 1.105-.474 5.684 11.053 23.368l-3 1.895C26.684 95.053 27.316 89.842 29.684 87.474c1.579-1.579 3.474-.632 5.526.316s4.895 2.211 8.684 2.368c3.947.158 6.947-1.263 9-2.053s3.947-1.737 5.526-.316c2.053 1.895 2.842 5.526-11.526 28.106z" fill="url(#AV)"/><path d="M44.053 147.158c-2.526 0-4.737-1.895-4.737-4.105v-25.895c0-2.211 2.053-4.105 4.737-4.105 2.526 0 4.737 1.894 4.737 4.105v25.895c-.158 2.368-2.211 4.105-4.737 4.105z" fill="url(#AW)"/><use xlink:href="#AZ" opacity=".3" fill="url(#AX)"/><defs><linearGradient id="A" x1="20.929" y1="49.888" x2="53.77" y2="49.888" xlink:href="#Aa"><stop offset=".006" stop-color="#ff6b00"/><stop offset="1" stop-color="#ff8730"/></linearGradient><linearGradient id="B" x1="16.529" y1="14.402" x2="39.733" y2="14.402" xlink:href="#Aa"><stop offset=".006" stop-color="#ff6b00"/><stop offset="1" stop-color="#ff8730"/></linearGradient><linearGradient id="C" x1="40.849" y1="29.461" x2="56.277" y2="29.461" xlink:href="#Aa"><stop offset=".006" stop-color="#ff6b00"/><stop offset="1" stop-color="#ff8730"/></linearGradient><linearGradient id="D" x1="69.396" y1="161.463" x2="127.266" y2="161.463" xlink:href="#Aa"><stop stop-color="#c8c8c8"/><stop offset=".204" stop-color="#ccc"/><stop offset=".394" stop-color="#d7d7d7"/><stop offset=".52" stop-color="#e3e3e3"/><stop offset=".815" stop-color="#f3f3f3"/><stop offset="1" stop-color="#fff"/></linearGradient><linearGradient id="E" x1="69.414" y1="151.863" x2="151.674" y2="151.863" xlink:href="#Aa"><stop stop-color="#c8c8c8"/><stop offset=".229" stop-color="#cfcfcf"/><stop offset=".549" stop-color="#e1e1e1"/><stop offset=".581" stop-color="#e3e3e3"/><stop offset=".994" stop-color="#f3f3f3"/></linearGradient><linearGradient id="F" x1="69.414" y1="144.769" x2="151.674" y2="144.769" xlink:href="#Aa"><stop stop-color="#c8c8c8"/><stop offset=".204" stop-color="#ccc"/><stop offset=".394" stop-color="#d7d7d7"/><stop offset=".52" stop-color="#e3e3e3"/><stop offset=".815" stop-color="#f3f3f3"/><stop offset="1" stop-color="#fff"/></linearGradient><linearGradient id="G" x1="109.542" y1="166.316" x2="109.542" y2="98.49" xlink:href="#Aa"><stop stop-color="#c8c8c8"/><stop offset=".204" stop-color="#ccc"/><stop offset=".394" stop-color="#d7d7d7"/><stop offset=".52" stop-color="#e3e3e3"/><stop offset=".815" stop-color="#f3f3f3"/><stop offset="1" stop-color="#fff"/></linearGradient><linearGradient id="H" x1="69.908" y1="48.659" x2="190.841" y2="48.659" xlink:href="#Aa"><stop offset=".006" stop-color="#ff6b00"/><stop offset="1" stop-color="#ff8730"/></linearGradient><linearGradient id="I" x1="51.946" y1="93.502" x2="186.656" y2="93.502" xlink:href="#Aa"><stop stop-color="#c8c8c8"/><stop offset=".204" stop-color="#ccc"/><stop offset=".394" stop-color="#d7d7d7"/><stop offset=".52" stop-color="#e3e3e3"/><stop offset=".815" stop-color="#f3f3f3"/><stop offset="1" stop-color="#fff"/></linearGradient><linearGradient id="J" x1="57.081" y1="93.734" x2="181.755" y2="93.734" xlink:href="#Aa"><stop stop-color="#ededed"/><stop offset=".31" stop-color="#cbcbcb"/><stop offset=".695" stop-color="#dadada"/><stop offset="1" stop-color="#ebebeb"/></linearGradient><linearGradient id="K" x1="43.87" y1="184.049" x2="41.846" y2="219.677" xlink:href="#Aa"><stop stop-color="#ff6b00"/><stop offset=".105" stop-color="#ff740f"/><stop offset=".273" stop-color="#ff8730"/><stop offset=".753" stop-color="#de5d00"/><stop offset=".894" stop-color="#ff7b1c"/><stop offset="1" stop-color="#ff6b00"/></linearGradient><linearGradient id="L" x1="81.676" y1="180.921" x2="5.643" y2="180.921" xlink:href="#Aa"><stop offset=".006" stop-color="#ff6b00"/><stop offset="1" stop-color="#ff8730"/></linearGradient><linearGradient id="M" x1="86.211" y1="87.035" x2="94.106" y2="87.035" xlink:href="#Aa"><stop offset=".006" stop-color="#ff6b00"/><stop offset="1" stop-color="#ff8730"/></linearGradient><linearGradient id="N" x1="86.18" y1="100.554" x2="101.951" y2="100.554" xlink:href="#Aa"><stop offset=".006" stop-color="#ff6b00"/><stop offset="1" stop-color="#ff8730"/></linearGradient><linearGradient id="O" x1="86.167" y1="107.776" x2="107.473" y2="107.776" xlink:href="#Aa"><stop offset=".006" stop-color="#ff6b00"/><stop offset="1" stop-color="#ff8730"/></linearGradient><linearGradient id="P" x1="104.119" y1="108.3" x2="110.854" y2="108.3" xlink:href="#Aa"><stop offset=".006" stop-color="#ff6b00"/><stop offset="1" stop-color="#ff8730"/></linearGradient><linearGradient id="Q" x1="86.224" y1="83.683" x2="102.004" y2="83.683" xlink:href="#Aa"><stop offset=".006" stop-color="#ff6b00"/><stop offset="1" stop-color="#ff8730"/></linearGradient><linearGradient id="R" x1="86.193" y1="97.783" x2="111.867" y2="97.783" xlink:href="#Aa"><stop offset=".006" stop-color="#ff6b00"/><stop offset="1" stop-color="#ff8730"/></linearGradient><linearGradient id="S" x1="104.163" y1="91.43" x2="110.903" y2="91.43" xlink:href="#Aa"><stop offset=".006" stop-color="#ff6b00"/><stop offset="1" stop-color="#ff8730"/></linearGradient><linearGradient id="T" x1="96.589" y1="97.39" x2="119.606" y2="97.39" xlink:href="#Aa"><stop offset=".006" stop-color="#ff6b00"/><stop offset="1" stop-color="#ff8730"/></linearGradient><linearGradient id="U" x1="86.242" y1="80.627" x2="110.916" y2="80.627" xlink:href="#Aa"><stop offset=".006" stop-color="#ff6b00"/><stop offset="1" stop-color="#ff8730"/></linearGradient><linearGradient id="V" x1="113.959" y1="97.343" x2="121.587" y2="97.343" xlink:href="#Aa"><stop offset=".006" stop-color="#ff6b00"/><stop offset="1" stop-color="#ff8730"/></linearGradient><linearGradient id="W" x1="94.146" y1="79.039" x2="117.012" y2="79.039" xlink:href="#Aa"><stop offset=".006" stop-color="#ff6b00"/><stop offset="1" stop-color="#ff8730"/></linearGradient><linearGradient id="X" x1="113.973" y1="92.776" x2="125.275" y2="92.776" xlink:href="#Aa"><stop offset=".006" stop-color="#ff6b00"/><stop offset="1" stop-color="#ff8730"/></linearGradient><linearGradient id="Y" x1="114.008" y1="82.669" x2="129.237" y2="82.669" xlink:href="#Aa"><stop offset=".006" stop-color="#ff6b00"/><stop offset="1" stop-color="#ff8730"/></linearGradient><linearGradient id="Z" x1="114.034" y1="70.291" x2="125.337" y2="70.291" xlink:href="#Aa"><stop offset=".006" stop-color="#ff6b00"/><stop offset="1" stop-color="#ff8730"/></linearGradient><linearGradient id="a" x1="114.026" y1="77.447" x2="130.623" y2="77.447" xlink:href="#Aa"><stop offset=".006" stop-color="#ff6b00"/><stop offset="1" stop-color="#ff8730"/></linearGradient><linearGradient id="b" x1="114.053" y1="65.799" x2="129.286" y2="65.799" xlink:href="#Aa"><stop offset=".006" stop-color="#ff6b00"/><stop offset="1" stop-color="#ff8730"/></linearGradient><linearGradient id="c" x1="86.26" y1="69.619" x2="92.257" y2="69.619" xlink:href="#Aa"><stop offset=".006" stop-color="#ff6b00"/><stop offset="1" stop-color="#ff8730"/></linearGradient><linearGradient id="d" x1="86.278" y1="66.816" x2="102.049" y2="66.816" xlink:href="#Aa"><stop offset=".006" stop-color="#ff6b00"/><stop offset="1" stop-color="#ff8730"/></linearGradient><linearGradient id="e" x1="86.291" y1="62.797" x2="107.602" y2="62.797" xlink:href="#Aa"><stop offset=".006" stop-color="#ff6b00"/><stop offset="1" stop-color="#ff8730"/></linearGradient><linearGradient id="f" x1="86.309" y1="55.573" x2="102.084" y2="55.573" xlink:href="#Aa"><stop offset=".006" stop-color="#ff6b00"/><stop offset="1" stop-color="#ff8730"/></linearGradient><linearGradient id="g" x1="104.248" y1="63.319" x2="110.979" y2="63.319" xlink:href="#Aa"><stop offset=".006" stop-color="#ff6b00"/><stop offset="1" stop-color="#ff8730"/></linearGradient><linearGradient id="h" x1="86.34" y1="42.052" x2="94.23" y2="42.052" xlink:href="#Aa"><stop offset=".006" stop-color="#ff6b00"/><stop offset="1" stop-color="#ff8730"/></linearGradient><linearGradient id="i" x1="86.353" y1="38.702" x2="102.129" y2="38.702" xlink:href="#Aa"><stop offset=".006" stop-color="#ff6b00"/><stop offset="1" stop-color="#ff8730"/></linearGradient><linearGradient id="j" x1="86.322" y1="52.803" x2="111.992" y2="52.803" xlink:href="#Aa"><stop offset=".006" stop-color="#ff6b00"/><stop offset="1" stop-color="#ff8730"/></linearGradient><linearGradient id="k" x1="86.389" y1="24.637" x2="92.386" y2="24.637" xlink:href="#Aa"><stop offset=".006" stop-color="#ff6b00"/><stop offset="1" stop-color="#ff8730"/></linearGradient><linearGradient id="l" x1="104.292" y1="46.45" x2="111.027" y2="46.45" xlink:href="#Aa"><stop offset=".006" stop-color="#ff6b00"/><stop offset="1" stop-color="#ff8730"/></linearGradient><linearGradient id="m" x1="96.718" y1="52.41" x2="119.731" y2="52.41" xlink:href="#Aa"><stop offset=".006" stop-color="#ff6b00"/><stop offset="1" stop-color="#ff8730"/></linearGradient><linearGradient id="n" x1="86.371" y1="35.647" x2="111.045" y2="35.647" xlink:href="#Aa"><stop offset=".006" stop-color="#ff6b00"/><stop offset="1" stop-color="#ff8730"/></linearGradient><linearGradient id="o" x1="86.402" y1="21.833" x2="102.182" y2="21.833" xlink:href="#Aa"><stop offset=".006" stop-color="#ff6b00"/><stop offset="1" stop-color="#ff8730"/></linearGradient><linearGradient id="p" x1="114.084" y1="52.364" x2="121.716" y2="52.364" xlink:href="#Aa"><stop offset=".006" stop-color="#ff6b00"/><stop offset="1" stop-color="#ff8730"/></linearGradient><linearGradient id="q" x1="94.27" y1="34.059" x2="117.137" y2="34.059" xlink:href="#Aa"><stop offset=".006" stop-color="#ff6b00"/><stop offset="1" stop-color="#ff8730"/></linearGradient><linearGradient id="r" x1="114.101" y1="47.795" x2="125.399" y2="47.795" xlink:href="#Aa"><stop offset=".006" stop-color="#ff6b00"/><stop offset="1" stop-color="#ff8730"/></linearGradient><linearGradient id="s" x1="114.132" y1="37.687" x2="129.367" y2="37.687" xlink:href="#Aa"><stop offset=".006" stop-color="#ff6b00"/><stop offset="1" stop-color="#ff8730"/></linearGradient><linearGradient id="t" x1="104.341" y1="29.581" x2="111.077" y2="29.581" xlink:href="#Aa"><stop offset=".006" stop-color="#ff6b00"/><stop offset="1" stop-color="#ff8730"/></linearGradient><linearGradient id="u" x1="139.922" y1="63.013" x2="152.295" y2="63.013" xlink:href="#Aa"><stop offset=".006" stop-color="#ff6b00"/><stop offset="1" stop-color="#ff8730"/></linearGradient><linearGradient id="v" x1="143.259" y1="75.237" x2="152.264" y2="75.237" xlink:href="#Aa"><stop offset=".006" stop-color="#ff6b00"/><stop offset="1" stop-color="#ff8730"/></linearGradient><linearGradient id="w" x1="129.309" y1="65.58" x2="152.277" y2="65.58" xlink:href="#Aa"><stop offset=".006" stop-color="#ff6b00"/><stop offset="1" stop-color="#ff8730"/></linearGradient><linearGradient id="x" x1="144.419" y1="58.69" x2="152.313" y2="58.69" xlink:href="#Aa"><stop offset=".006" stop-color="#ff6b00"/><stop offset="1" stop-color="#ff8730"/></linearGradient><linearGradient id="y" x1="136.55" y1="50.788" x2="152.326" y2="50.788" xlink:href="#Aa"><stop offset=".006" stop-color="#ff6b00"/><stop offset="1" stop-color="#ff8730"/></linearGradient><linearGradient id="z" x1="113.911" y1="115.272" x2="125.209" y2="115.272" xlink:href="#Aa"><stop offset=".006" stop-color="#ff6b00"/><stop offset="1" stop-color="#ff8730"/></linearGradient><linearGradient id="AA" x1="113.898" y1="122.428" x2="130.491" y2="122.428" xlink:href="#Aa"><stop offset=".006" stop-color="#ff6b00"/><stop offset="1" stop-color="#ff8730"/></linearGradient><linearGradient id="AB" x1="113.924" y1="110.783" x2="129.159" y2="110.783" xlink:href="#Aa"><stop offset=".006" stop-color="#ff6b00"/><stop offset="1" stop-color="#ff8730"/></linearGradient><linearGradient id="AC" x1="129.184" y1="110.56" x2="152.153" y2="110.56" xlink:href="#Aa"><stop offset=".006" stop-color="#ff6b00"/><stop offset="1" stop-color="#ff8730"/></linearGradient><linearGradient id="AD" x1="144.294" y1="103.67" x2="152.184" y2="103.67" xlink:href="#Aa"><stop offset=".006" stop-color="#ff6b00"/><stop offset="1" stop-color="#ff8730"/></linearGradient><linearGradient id="AE" x1="136.422" y1="95.771" x2="152.198" y2="95.771" xlink:href="#Aa"><stop offset=".006" stop-color="#ff6b00"/><stop offset="1" stop-color="#ff8730"/></linearGradient><linearGradient id="AF" x1="136.44" y1="90.151" x2="152.216" y2="90.151" xlink:href="#Aa"><stop offset=".006" stop-color="#ff6b00"/><stop offset="1" stop-color="#ff8730"/></linearGradient><linearGradient id="AG" x1="146.041" y1="87.293" x2="152.23" y2="87.293" xlink:href="#Aa"><stop offset=".006" stop-color="#ff6b00"/><stop offset="1" stop-color="#ff8730"/></linearGradient><linearGradient id="AH" x1="132.081" y1="77.631" x2="152.25" y2="77.631" xlink:href="#Aa"><stop offset=".006" stop-color="#ff6b00"/><stop offset="1" stop-color="#ff8730"/></linearGradient><linearGradient id="AI" x1="104.217" y1="74.561" x2="110.947" y2="74.561" xlink:href="#Aa"><stop offset=".006" stop-color="#ff6b00"/><stop offset="1" stop-color="#ff8730"/></linearGradient><linearGradient id="AJ" x1="139.794" y1="107.995" x2="152.166" y2="107.995" xlink:href="#Aa"><stop offset=".006" stop-color="#ff6b00"/><stop offset="1" stop-color="#ff8730"/></linearGradient><linearGradient id="AK" x1="143.13" y1="120.218" x2="152.14" y2="120.218" xlink:href="#Aa"><stop offset=".006" stop-color="#ff6b00"/><stop offset="1" stop-color="#ff8730"/></linearGradient><linearGradient id="AL" x1="136.31" y1="135.133" x2="152.09" y2="135.133" xlink:href="#Aa"><stop offset=".006" stop-color="#ff6b00"/><stop offset="1" stop-color="#ff8730"/></linearGradient><linearGradient id="AM" x1="145.911" y1="132.276" x2="152.104" y2="132.276" xlink:href="#Aa"><stop offset=".006" stop-color="#ff6b00"/><stop offset="1" stop-color="#ff8730"/></linearGradient><linearGradient id="AN" x1="131.952" y1="122.614" x2="152.122" y2="122.614" xlink:href="#Aa"><stop offset=".006" stop-color="#ff6b00"/><stop offset="1" stop-color="#ff8730"/></linearGradient><linearGradient id="AO" x1="-64.004" y1="178.233" x2="-63.215" y2="178.233" xlink:href="#Aa"><stop stop-color="#999"/><stop offset="1" stop-color="#eaeaea"/></linearGradient><linearGradient id="AP" x1="79.072" y1="202.167" x2="38.625" y2="166.098" xlink:href="#Aa"><stop offset=".645" stop-color="#bdbdbd"/><stop offset="1" stop-color="#fdfdfd"/></linearGradient><linearGradient id="AQ" x1="79.072" y1="202.106" x2="38.625" y2="166.037" xlink:href="#Aa"><stop offset=".645" stop-color="#bdbdbd"/><stop offset="1" stop-color="#fdfdfd"/></linearGradient><linearGradient id="AR" x1="79.072" y1="189.709" x2="38.625" y2="153.64" xlink:href="#Aa"><stop offset=".645" stop-color="#bdbdbd"/><stop offset="1" stop-color="#fdfdfd"/></linearGradient><linearGradient id="AS" x1="79.072" y1="183.648" x2="38.625" y2="147.58" xlink:href="#Aa"><stop offset=".645" stop-color="#bdbdbd"/><stop offset="1" stop-color="#fdfdfd"/></linearGradient><linearGradient id="AT" x1="79.418" y1="202.507" x2="38.971" y2="166.438" xlink:href="#Aa"><stop offset=".645" stop-color="#bdbdbd"/><stop offset="1" stop-color="#fdfdfd"/></linearGradient><linearGradient id="AU" x1="165.265" y1="203.202" x2="24.419" y2="77.601" xlink:href="#Aa"><stop stop-color="#ccc"/><stop offset=".034" stop-color="#ccc"/><stop offset=".237" stop-color="#cfcfcf"/><stop offset=".343" stop-color="#d5d5d5"/><stop offset=".406" stop-color="#dfdfdf"/><stop offset=".495" stop-color="#f5f5f5"/><stop offset=".586" stop-color="#e3e3e3"/><stop offset=".688" stop-color="#d7d7d7"/><stop offset=".858" stop-color="#c8c8c8"/><stop offset="1" stop-color="#c3c3c3"/></linearGradient><linearGradient id="AV" x1="44.416" y1="123.606" x2="44.119" y2="100.449" xlink:href="#Aa"><stop stop-color="#ff6b00"/><stop offset=".105" stop-color="#ff740f"/><stop offset=".273" stop-color="#ff8730"/><stop offset=".753" stop-color="#de5d00"/><stop offset=".894" stop-color="#ff7b1c"/><stop offset="1" stop-color="#ff6b00"/></linearGradient><linearGradient id="AW" x1="43.997" y1="156.157" x2="43.997" y2="115.977" xlink:href="#Aa"><stop stop-color="#ff6b00"/><stop offset=".105" stop-color="#ff740f"/><stop offset=".273" stop-color="#ff8730"/><stop offset=".894" stop-color="#ff7b1c"/><stop offset="1" stop-color="#ff6b00"/></linearGradient><linearGradient id="AX" x1="104.742" y1="151.277" x2="-4.35" y2="49.816" xlink:href="#Aa"><stop stop-color="#bfbfbf"/><stop offset=".107" stop-color="#c2c2c2"/><stop offset=".178" stop-color="#cbcbcb"/><stop offset=".239" stop-color="#dadada"/><stop offset=".293" stop-color="#efefef"/><stop offset=".316" stop-color="#fafafa"/><stop offset=".346" stop-color="#f2f2f2"/><stop offset=".425" stop-color="#e5e5e5"/><stop offset=".522" stop-color="#dcdcdc"/><stop offset=".695" stop-color="#dadada"/><stop offset="1" stop-color="#ebebeb"/></linearGradient><path id="AY" d="M44.053 180.158c8.807 0 15.947-4.171 15.947-9.316s-7.14-9.316-15.947-9.316-15.947 4.171-15.947 9.316 7.14 9.316 15.947 9.316z"/><path id="AZ" d="M87.947 89.053C87.947 64.737 68.211 45 43.895 45 19.737 45.158 0 64.737 0 89.053c0 10.737 3.947 20.684 10.263 28.263.158.158.316.316.474.631l.474.474c.158.158.316.474.632.632 6 6.631 9.158 12.789 10.579 16.736.316 1.264.789 2.527 1.263 3.632 0 .158 0 .158.158.316 3.632 7.579 11.211 12.789 20.211 12.789 10.421 0 19.105-7.105 21.632-16.579 1.263-3.473 3.947-9 9-15 8.21-8.21 13.263-19.421 13.263-31.894z"/><linearGradient id="Aa" gradientUnits="userSpaceOnUse"/></defs></svg>