<svg width="36" height="36" viewBox="0 0 36 36" fill="none" xmlns="http://www.w3.org/2000/svg">
<g clip-path="url(#clip0)">
<path d="M23.9994 33H20.9994V30H14.9994V33H11.9994C11.1714 33 10.4994 33.672 10.4994 34.5C10.4994 35.328 11.1714 36 11.9994 36H23.9994C24.8289 36 25.4994 35.328 25.4994 34.5C25.4994 33.672 24.8289 33 23.9994 33Z" fill="#434343"/>
<path d="M33.375 6H32.16C31.845 7.02 31.425 8.025 30.93 9H33V27H3V9H5.82C5.97 8.295 6.315 7.65 6.84 7.125C7.245 6.72 7.695 6.33 8.19 6H2.625C1.185 6 0 7.185 0 8.625V27.375C0 28.815 1.185 30 2.625 30H33.375C34.815 30 36 28.815 36 27.375V8.625C36 7.185 34.815 6 33.375 6Z" fill="#434343"/>
<path d="M14.625 11.5326C15.09 11.9526 15.12 12.6576 14.715 13.1226C14.49 13.3776 14.19 13.4976 13.875 13.4976C13.605 13.4976 13.335 13.4076 13.125 13.2126L9.375 9.83755C9.135 9.62755 9 9.31255 9 8.99755C9 8.68255 9.135 8.36755 9.375 8.15755L13.125 4.78256C13.59 4.37756 14.295 4.40756 14.715 4.87256C15.12 5.33756 15.09 6.04256 14.625 6.46256L11.805 8.99755L14.625 11.5326Z" fill="#FF6B00"/>
<path d="M20.9695 4.3775L18.7195 14.1275C18.5935 14.681 18.0895 15.0875 17.3695 14.9675C16.7695 14.8325 16.3945 14.2175 16.5295 13.6175L18.7795 3.8675C18.9145 3.2675 19.5295 2.8925 20.1295 3.0275C20.7295 3.1625 21.1045 3.7775 20.9695 4.3775Z" fill="#FF6B00"/>
<path d="M28.1248 9.83755L24.3748 13.2126C24.1648 13.4076 23.8948 13.4976 23.6248 13.4976C23.3098 13.4976 23.0098 13.3776 22.7848 13.1226C22.3798 12.6576 22.4098 11.9526 22.8748 11.5326L25.6948 8.99755L22.8748 6.46256C22.4098 6.04256 22.3798 5.33756 22.7848 4.87256C23.2048 4.40756 23.9098 4.37756 24.3748 4.78256L28.1248 8.15755C28.3648 8.36755 28.4998 8.68255 28.4998 8.99755C28.4998 9.31255 28.3648 9.62755 28.1248 9.83755Z" fill="#FF6B00"/>
</g>
<defs>
<clipPath id="clip0">
<rect width="36" height="36" fill="white"/>
</clipPath>
</defs>
</svg>
