<svg width="40" height="40" viewBox="0 0 40 40" fill="none" xmlns="http://www.w3.org/2000/svg">
<g clip-path="url(#clip0)">
<path d="M17.54 23.3953C17.5786 23.4446 17.616 23.4953 17.6533 23.5466C17.616 23.4953 17.5786 23.4446 17.54 23.3953Z" fill="#78B9EB"/>
<path d="M17.1293 22.9214C17.1566 22.9494 17.1806 22.9794 17.2072 23.008C17.1807 22.9794 17.1566 22.9494 17.1293 22.9214Z" fill="#78B9EB"/>
<path d="M17.922 23.9574C17.946 23.9981 17.9727 24.0374 17.996 24.0787C17.9726 24.0374 17.946 24.0001 17.922 23.9574Z" fill="#78B9EB"/>
<path d="M18.2666 24.642C18.2846 24.6867 18.2993 24.7333 18.3166 24.7753C18.2993 24.7333 18.2846 24.6866 18.2666 24.642Z" fill="#78B9EB"/>
<path d="M16.5421 22.4126C16.5841 22.4446 16.6281 22.4753 16.6694 22.5079C16.628 22.4746 16.584 22.4446 16.5421 22.4126Z" fill="#78B9EB"/>
<path d="M15.9886 22.0453C16.0426 22.076 16.0953 22.1119 16.1486 22.1419C16.0953 22.1093 16.0426 22.0766 15.9886 22.0453Z" fill="#78B9EB"/>
<path d="M16.3434 31.0667C16.7374 30.8187 17.1067 30.5346 17.4474 30.2174C17.5414 30.1287 17.624 30.0274 17.6921 29.9174C18.0574 29.3281 18.3274 28.6847 18.4921 28.0114C18.1674 29.2553 17.4047 30.3407 16.3434 31.0667Z" fill="#78B9EB"/>
<path d="M13.994 21.3787C14.0573 21.386 14.1193 21.3973 14.1813 21.4073C14.1193 21.4 14.0573 21.386 13.994 21.3787Z" fill="#78B9EB"/>
<path d="M15.426 21.76C15.4493 21.77 15.4707 21.7827 15.4926 21.7927C15.4707 21.7827 15.4492 21.77 15.426 21.76Z" fill="#78B9EB"/>
<path d="M18.4713 25.2527C18.4887 25.3153 18.5047 25.378 18.52 25.4414C18.5047 25.378 18.4887 25.3153 18.4713 25.2527Z" fill="#78B9EB"/>
<path d="M13.3086 32C13.1573 32 13.01 31.9847 12.862 31.9713C13.01 31.9833 13.1573 32 13.3086 32Z" fill="#78B9EB"/>
<path d="M14.6827 31.8213L14.6027 31.842L14.6827 31.8213Z" fill="#78B9EB"/>
<path d="M18.616 25.9686C18.6213 26.0079 18.6294 26.046 18.634 26.0853C18.6293 26.046 18.6213 26.0079 18.616 25.9686Z" fill="#78B9EB"/>
<path d="M12.642 31.9547C12.426 31.926 12.2113 31.886 12 31.8334C12.2113 31.886 12.426 31.926 12.642 31.9547Z" fill="#78B9EB"/>
<path d="M14.0227 31.9507C13.992 31.9547 13.9634 31.9607 13.9327 31.964C13.9627 31.9607 13.9927 31.9547 14.0227 31.9507Z" fill="#78B9EB"/>
<path d="M16.2566 31.1254C16.162 31.1874 16.0646 31.2454 15.9659 31.302C16.0666 31.2487 16.16 31.1854 16.2566 31.1254Z" fill="#78B9EB"/>
<path d="M18.6627 26.746C18.6627 26.8039 18.6566 26.8607 18.654 26.918C18.6566 26.8607 18.662 26.8 18.6627 26.746Z" fill="#78B9EB"/>
<path d="M18.6066 27.426C18.5953 27.5047 18.5853 27.584 18.5706 27.6613C18.5847 27.5827 18.596 27.5047 18.6066 27.426Z" fill="#78B9EB"/>
<path d="M14.6587 21.506C14.716 21.5207 14.774 21.5333 14.8307 21.55C14.774 21.5333 14.716 21.5207 14.6587 21.506Z" fill="#78B9EB"/>
<path d="M1.99999 29.3334H2.73334C3.286 29.3334 3.77999 29.676 3.97467 30.1934C4.05069 30.3934 4.13264 30.59 4.22069 30.7834C4.45139 31.2874 4.34538 31.8814 3.95405 32.2741L3.43334 32.8001C2.91405 33.3208 2.91405 34.1635 3.43334 34.6841L5.31733 36.5681C5.83803 37.0874 6.68069 37.0874 7.20131 36.5681L7.72467 36.0468C8.11733 35.6554 8.71131 35.5494 9.21538 35.7801C9.40874 35.8688 9.60538 35.9508 9.80538 36.0261C10.3227 36.2201 10.6661 36.7141 10.6667 37.2668V38.0002C10.6667 38.7368 11.2633 39.3335 12.0001 39.3335H14.6667C15.4033 39.3335 16.0001 38.7369 16.0001 38.0002V37.2668C16.0001 36.7142 16.3427 36.2202 16.8601 36.0255C17.0601 35.9495 17.2567 35.8675 17.4501 35.7795C17.954 35.5488 18.548 35.6548 18.9408 36.0461L19.4641 36.5675C19.9848 37.0868 20.8275 37.0868 21.3481 36.5675L23.2321 34.6835C23.7514 34.1628 23.7514 33.3201 23.2321 32.7995L22.7108 32.2761C22.3194 31.8835 22.2134 31.2895 22.4441 30.7854C22.5328 30.5921 22.6148 30.3954 22.6901 30.1954C22.8841 29.6768 23.3795 29.3334 23.9335 29.3334H24.6669C25.4035 29.3334 26.0002 28.7368 26.0002 28V25.3334C26.0002 24.5968 25.4036 24 24.6669 24H23.9335C23.3808 24 22.8869 23.6574 22.6922 23.14C22.6162 22.94 22.5342 22.7434 22.4462 22.55C22.2148 22.0461 22.3215 21.4521 22.7128 21.0593L23.2341 20.536C23.7534 20.0153 23.7534 19.1726 23.2341 18.652L21.35 16.768C20.8293 16.2487 19.9866 16.2487 19.466 16.768L18.9426 17.2893C18.55 17.6807 17.956 17.7867 17.4519 17.556C17.2586 17.4673 17.0619 17.3853 16.8619 17.31C16.3433 17.116 15.9999 16.6207 15.9999 16.0666V15.3332C15.9999 14.5966 15.4033 13.9999 14.6665 13.9999H12C11.2633 13.9999 10.6666 14.5965 10.6666 15.3332V16.0666C10.6666 16.6193 10.324 17.1132 9.80663 17.3079C9.60663 17.3839 9.40999 17.4659 9.21663 17.5539C8.71264 17.7846 8.11866 17.6786 7.72592 17.2873L7.19991 16.7666C6.6792 16.2473 5.83655 16.2473 5.31592 16.7666L3.43459 18.6519C2.9153 19.1726 2.9153 20.0153 3.43459 20.5359L3.95592 21.0593C4.34725 21.4519 4.45389 22.0459 4.22256 22.55C4.13389 22.7433 4.05186 22.94 3.97655 23.14C3.78186 23.6579 3.28655 24.0007 2.73319 24H1.99999C1.26334 24 0.666626 24.5966 0.666626 25.3333V28C0.666626 28.7367 1.26334 29.3334 1.99999 29.3334ZM12 21.5C12.436 21.39 12.884 21.334 13.3333 21.3334C13.554 21.3347 13.7747 21.35 13.994 21.3787C14.0574 21.386 14.1194 21.3974 14.1814 21.4074C14.3434 21.4327 14.5021 21.466 14.6587 21.506C14.7161 21.5207 14.774 21.5334 14.8308 21.55C15.0334 21.608 15.2321 21.678 15.4261 21.76C15.4494 21.77 15.4708 21.7827 15.4927 21.7927C15.662 21.868 15.8274 21.9527 15.988 22.0453C16.042 22.0767 16.0947 22.112 16.148 22.142C16.2814 22.2267 16.4147 22.3173 16.5414 22.4127C16.5834 22.4447 16.6274 22.4747 16.6687 22.508C16.8294 22.6373 16.9834 22.7753 17.1287 22.9214C17.1561 22.9493 17.1801 22.9793 17.2067 23.008C17.324 23.1314 17.4354 23.2607 17.5401 23.3953C17.5787 23.4446 17.6161 23.4953 17.6534 23.5467C17.7487 23.68 17.8387 23.8133 17.9201 23.9574C17.944 23.9981 17.9708 24.0374 17.994 24.0787C18.0954 24.2607 18.1854 24.4494 18.2648 24.6421C18.2827 24.6868 18.2974 24.7328 18.3148 24.7754C18.3734 24.9307 18.4255 25.0888 18.4694 25.2501C18.4868 25.3128 18.5028 25.3754 18.5181 25.4388C18.5588 25.6128 18.5908 25.7888 18.6141 25.9661C18.6194 26.0054 18.6275 26.0435 18.6321 26.0828C18.6541 26.2768 18.6661 26.4714 18.6668 26.6668C18.6668 26.6934 18.6668 26.7194 18.6628 26.746C18.6628 26.8027 18.6568 26.8607 18.6541 26.9181C18.6462 27.0894 18.6308 27.2588 18.6068 27.426C18.5961 27.5047 18.5848 27.5827 18.5708 27.6614C18.5481 27.7807 18.5187 27.8967 18.4887 28.0134C18.324 28.6868 18.054 29.33 17.6887 29.9194C17.6208 30.0294 17.538 30.1307 17.444 30.2194C17.1048 30.5354 16.7361 30.8194 16.3433 31.0668L16.2567 31.1234C16.1601 31.1834 16.0633 31.2468 15.966 31.3C15.5626 31.5287 15.1313 31.7027 14.6826 31.8193L14.6026 31.84C14.4113 31.8867 14.218 31.9234 14.0226 31.9487C13.9926 31.9527 13.9626 31.9587 13.9326 31.9621C13.734 31.986 13.5333 31.9987 13.3333 32H13.3087C13.1573 32 13.01 31.9847 12.862 31.9714C12.7894 31.9647 12.714 31.9653 12.642 31.956C12.426 31.9274 12.2113 31.886 12 31.8334C9.14663 31.0954 7.43131 28.1841 8.16928 25.3307C8.6553 23.4521 10.122 21.9861 12 21.5Z" fill="#FF6B00"/>
<path d="M17.996 24.0787C18.0974 24.2608 18.1874 24.4494 18.2667 24.6421C18.1874 24.4494 18.0974 24.2608 17.996 24.0787Z" fill="#78B9EB"/>
<path d="M18.3167 24.778C18.3753 24.9333 18.4274 25.0913 18.4713 25.2526C18.4274 25.0913 18.3753 24.9333 18.3167 24.778Z" fill="#78B9EB"/>
<path d="M18.6666 26.6667C18.6659 26.4727 18.6553 26.2787 18.634 26.0853C18.6573 26.3046 18.6666 26.5253 18.6626 26.746C18.6666 26.7193 18.6666 26.6934 18.6666 26.6667Z" fill="#78B9EB"/>
<path d="M18.52 25.4413C18.5607 25.6153 18.5926 25.7913 18.616 25.9686C18.5926 25.7913 18.5607 25.6153 18.52 25.4413Z" fill="#78B9EB"/>
<path d="M14.1813 21.4073C14.3434 21.4327 14.502 21.466 14.6587 21.506C14.502 21.4666 14.3434 21.4327 14.1813 21.4073Z" fill="#78B9EB"/>
<path d="M13.3334 21.3334C13.5541 21.3347 13.7747 21.35 13.9941 21.3787C13.7747 21.35 13.554 21.3347 13.3334 21.3334Z" fill="#78B9EB"/>
<path d="M15.4933 21.7927C15.6626 21.868 15.828 21.952 15.9887 22.0454C15.828 21.9527 15.6626 21.868 15.4933 21.7927Z" fill="#78B9EB"/>
<path d="M14.8307 21.55C15.0333 21.608 15.232 21.678 15.426 21.76C15.232 21.678 15.0333 21.608 14.8307 21.55Z" fill="#78B9EB"/>
<path d="M17.6533 23.5466C17.7486 23.68 17.8386 23.8133 17.92 23.9573C17.8386 23.816 17.7486 23.6787 17.6533 23.5466Z" fill="#78B9EB"/>
<path d="M17.2073 23.0079C17.324 23.1313 17.4353 23.2606 17.5407 23.3953C17.436 23.2607 17.3247 23.1313 17.2073 23.0079Z" fill="#78B9EB"/>
<path d="M16.1487 22.1421C16.282 22.2268 16.4153 22.3174 16.542 22.4128C16.4147 22.3174 16.284 22.2267 16.1487 22.1421Z" fill="#78B9EB"/>
<path d="M16.6666 22.5079C16.828 22.6366 16.9813 22.7746 17.1266 22.9213C16.9813 22.7753 16.8273 22.6373 16.6666 22.5079Z" fill="#78B9EB"/>
<path d="M15.966 31.302C15.5607 31.5267 15.13 31.7007 14.6827 31.8213C15.1314 31.7047 15.5627 31.5307 15.966 31.302Z" fill="#78B9EB"/>
<path d="M14.6 31.842C14.4087 31.8887 14.2153 31.9254 14.02 31.9507C14.2153 31.9253 14.4087 31.8887 14.6 31.842Z" fill="#78B9EB"/>
<path d="M13.3334 32C13.5341 31.9993 13.7341 31.9874 13.9334 31.964C13.726 31.988 13.5181 31.9993 13.3094 31.9987L13.3334 32Z" fill="#78B9EB"/>
<path d="M12.862 31.97C12.7894 31.9634 12.7141 31.964 12.642 31.9547C12.714 31.964 12.7893 31.9634 12.862 31.97Z" fill="#78B9EB"/>
<path d="M18.654 26.918C18.6466 27.0859 18.63 27.2553 18.6066 27.4259C18.6307 27.2587 18.646 27.0893 18.654 26.918Z" fill="#78B9EB"/>
<path d="M16.3434 31.0667C16.3147 31.0853 16.286 31.1053 16.2567 31.1233L16.3434 31.0667Z" fill="#78B9EB"/>
<path d="M18.5707 27.6614C18.5494 27.778 18.5173 27.8961 18.4886 28.0134C18.5186 27.8967 18.5479 27.7808 18.5707 27.6614Z" fill="#78B9EB"/>
<path d="M38 14H35.9034C35.6241 14.0027 35.3734 13.8266 35.2821 13.5627C35.0754 12.9434 34.8254 12.3393 34.5334 11.7553C34.4094 11.5033 34.4614 11.2 34.6614 11.0027L36.148 9.51398C36.928 8.73328 36.928 7.46734 36.148 6.68664L33.3133 3.85664C32.5326 3.07664 31.2667 3.07664 30.486 3.85664L29 5.34203C28.8034 5.54203 28.5 5.59406 28.248 5.4707C27.664 5.17734 27.06 4.92601 26.44 4.71805C26.1747 4.62734 25.9974 4.37672 26 4.09672V2C26 0.895312 25.1047 0 24 0H20C18.8953 0 18 0.895312 18 2V4.09664C18.0027 4.37594 17.8267 4.62664 17.5627 4.71797C16.9434 4.92594 16.3393 5.17727 15.7553 5.47C15.5033 5.59398 15.1993 5.54266 15.0027 5.34203L13.514 3.85539C12.732 3.07742 11.4687 3.07742 10.6867 3.85539L7.85738 6.68469C7.07667 7.46539 7.07667 8.73203 7.85738 9.51266L10.0434 11.7027C10.3081 11.9587 10.73 11.952 10.9861 11.688C11.2361 11.43 11.2368 11.0206 10.9874 10.7613L8.80003 8.57203C8.54003 8.31133 8.54003 7.89 8.80003 7.62937L11.6293 4.80008C11.8893 4.54008 12.312 4.54008 12.572 4.80008L14.0613 6.28672C14.6639 6.89273 15.5873 7.04469 16.352 6.66273C16.88 6.39805 17.426 6.17141 17.986 5.98344C18.7939 5.71008 19.3367 4.95008 19.3333 4.0968V2C19.3333 1.63203 19.632 1.33336 20 1.33336H24C24.3679 1.33336 24.6666 1.63203 24.6666 2V4.09664C24.6632 4.95 25.2059 5.7093 26.0139 5.98266C26.5739 6.17062 27.1206 6.39797 27.6486 6.66266C28.4133 7.04266 29.3353 6.89062 29.9386 6.28602L31.4279 4.8C31.6879 4.54 32.1106 4.54 32.3706 4.8L35.1999 7.63C35.4599 7.89 35.4599 8.31203 35.1999 8.57203L33.7132 10.0613C33.1079 10.664 32.9559 11.5873 33.3372 12.352C33.6019 12.88 33.8286 13.426 34.0165 13.986C34.2899 14.794 35.0499 15.3373 35.9032 15.3334H38C38.368 15.3334 38.6667 15.632 38.6667 16V20C38.6667 20.368 38.368 20.6666 38 20.6666H35.9034C35.05 20.6633 34.2907 21.2059 34.0174 22.014C33.8294 22.574 33.6021 23.1206 33.3374 23.6487C32.9567 24.4134 33.1087 25.336 33.714 25.9387L35.2007 27.428C35.4607 27.688 35.4607 28.1106 35.2007 28.3706L32.37 31.1999C32.11 31.4599 31.6879 31.4599 31.4279 31.1999L29.2372 29.0139C28.9812 28.7492 28.5593 28.7426 28.2946 28.9986C28.0299 29.2546 28.0232 29.6766 28.2793 29.9412C28.2846 29.9466 28.29 29.952 28.2959 29.9573L30.4859 32.1433C31.2666 32.9233 32.5325 32.9233 33.3132 32.1433L36.1425 29.3146C36.9232 28.5333 36.9232 27.268 36.1425 26.4866L34.658 25C34.458 24.8034 34.406 24.5 34.5293 24.248C34.8227 23.664 35.074 23.06 35.282 22.44C35.3727 22.1747 35.6233 21.9973 35.9033 22H38C39.1047 22 40 21.1047 40 20V16C40 14.8953 39.1047 14 38 14Z" fill="#7F8284"/>
<path d="M28.128 11.872C24.7414 8.4927 19.2587 8.4927 15.872 11.872C15.616 12.1367 15.6233 12.5586 15.8886 12.8147C16.1473 13.0639 16.5566 13.0639 16.8146 12.8147C19.6593 9.932 24.3026 9.90067 27.1853 12.7454C30.0681 15.59 30.0993 20.2333 27.2546 23.1161C27.2313 23.1394 27.2086 23.1627 27.1853 23.1854C26.9207 23.4414 26.9133 23.8633 27.1693 24.128C27.4253 24.3927 27.8473 24.4 28.112 24.144C28.1173 24.1387 28.1227 24.1333 28.128 24.128C31.5074 20.7413 31.5074 15.2586 28.128 11.872Z" fill="#7F8284"/>
</g>
<defs>
<clipPath id="clip0">
<rect width="40" height="40" fill="white"/>
</clipPath>
</defs>
</svg>
