<svg width="38" height="42" viewBox="0 0 38 42" fill="none" xmlns="http://www.w3.org/2000/svg">
<path d="M32.7323 16.8005L15.2 16.8005L30.2468 34.3328C30.2468 34.3328 31.0063 34.1914 31.2926 33.9319C31.5789 33.6723 31.7577 33.315 31.7938 32.9302L33.2479 17.3626C33.2544 17.2911 33.2458 17.219 33.2228 17.151C33.1998 17.083 33.1629 17.0205 33.1143 16.9676C33.0658 16.9147 33.0067 16.8725 32.9409 16.8437C32.8751 16.815 32.8041 16.8002 32.7323 16.8005Z" fill="#FF6B00"/>
<path d="M30.6696 15.7692V11.1283C30.6696 11.0167 30.6334 10.9082 30.5665 10.8189L29.0195 8.75631C28.9715 8.69227 28.9092 8.64029 28.8376 8.60449C28.766 8.56869 28.687 8.55005 28.607 8.55005C28.5269 8.55005 28.448 8.56869 28.3764 8.60449C28.3048 8.64029 28.2425 8.69227 28.1945 8.75631L26.6475 10.8189C26.5806 10.9082 26.5444 11.0167 26.5444 11.1283V15.7692H30.6696Z" fill="#FF6B00"/>
<path d="M25.5131 15.7692V9.0657C25.5131 8.92894 25.4587 8.79778 25.362 8.70108C25.2653 8.60438 25.1342 8.55005 24.9974 8.55005H21.9035C21.7667 8.55005 21.6356 8.60438 21.5389 8.70108C21.4422 8.79778 21.3878 8.92894 21.3878 9.0657V15.7692H25.5131Z" fill="#FF6B00"/>
<path d="M20.3565 15.7692V11.1283C20.3565 11.0167 20.3204 10.9082 20.2534 10.8189L18.7064 8.75631C18.6584 8.69227 18.5961 8.64029 18.5245 8.60449C18.4529 8.56869 18.374 8.55005 18.2939 8.55005C18.2139 8.55005 18.1349 8.56869 18.0633 8.60449C17.9917 8.64029 17.9294 8.69227 17.8814 8.75631L16.3344 10.8189C16.2675 10.9082 16.2313 11.0167 16.2313 11.1283V15.7692H20.3565Z" fill="#FF6B00"/>
<path d="M32.8235 40.7536L2.34852 4.27508C2.24842 4.15458 2.11348 4.06785 1.96211 4.02672C1.81075 3.98559 1.65034 3.99207 1.50281 4.04528C1.35528 4.0985 1.22781 4.19584 1.13782 4.32402C1.04782 4.4522 0.999694 4.60497 1 4.76146V39.7201C1 40.3248 1.24081 40.9047 1.66945 41.3322C2.09808 41.7598 2.67944 42 3.28563 42H32.2369C32.3818 42.0002 32.5237 41.9592 32.6461 41.8818C32.7685 41.8045 32.8662 41.6938 32.9278 41.563C32.9893 41.4322 33.0123 41.2865 32.9938 41.1432C32.9753 40.9998 32.9163 40.8647 32.8235 40.7536ZM3.28563 40.4801C3.08357 40.4801 2.88978 40.4 2.7469 40.2575C2.60402 40.1149 2.52375 39.9216 2.52375 39.7201V36.6802H3.28563C3.48769 36.6802 3.68147 36.6001 3.82435 36.4576C3.96723 36.3151 4.0475 36.1218 4.0475 35.9202C4.0475 35.7187 3.96723 35.5254 3.82435 35.3829C3.68147 35.2403 3.48769 35.1603 3.28563 35.1603H2.52375V31.3604H3.28563C3.48769 31.3604 3.68147 31.2803 3.82435 31.1378C3.96723 30.9953 4.0475 30.802 4.0475 30.6004C4.0475 30.3989 3.96723 30.2056 3.82435 30.0631C3.68147 29.9205 3.48769 29.8405 3.28563 29.8405H2.52375V26.0406H3.28563C3.48769 26.0406 3.68147 25.9606 3.82435 25.818C3.96723 25.6755 4.0475 25.4822 4.0475 25.2807C4.0475 25.0791 3.96723 24.8858 3.82435 24.7433C3.68147 24.6008 3.48769 24.5207 3.28563 24.5207H2.52375V20.7208H3.28563C3.48769 20.7208 3.68147 20.6408 3.82435 20.4982C3.96723 20.3557 4.0475 20.1624 4.0475 19.9609C4.0475 19.7593 3.96723 19.566 3.82435 19.4235C3.68147 19.281 3.48769 19.2009 3.28563 19.2009H2.52375V15.401H3.28563C3.48769 15.401 3.68147 15.321 3.82435 15.1785C3.96723 15.0359 4.0475 14.8426 4.0475 14.6411C4.0475 14.4395 3.96723 14.2462 3.82435 14.1037C3.68147 13.9612 3.48769 13.8811 3.28563 13.8811H2.52375V6.85898L30.6065 40.4801H3.28563Z" fill="#7F8284"/>
<path d="M7.71244 37H21.2488C21.3915 37.0002 21.5312 36.957 21.6517 36.8752C21.7721 36.7935 21.8683 36.6767 21.9289 36.5385C21.9895 36.4003 22.0121 36.2465 21.9939 36.0951C21.9757 35.9437 21.9176 35.801 21.8263 35.6837L8.32739 18.2905C8.22886 18.1633 8.09603 18.0717 7.94704 18.0282C7.79804 17.9848 7.64015 17.9916 7.49493 18.0478C7.34971 18.104 7.22424 18.2068 7.13566 18.3422C7.04707 18.4776 6.9997 18.6389 7 18.8042V36.1974C6.99976 36.4035 7.0736 36.6018 7.20623 36.7512C7.33886 36.9006 7.52012 36.9897 7.71244 37ZM8.46238 21.0275L19.6515 35.3947H8.46238V21.0275Z" fill="#7F8284"/>
</svg>
