<svg width="42" height="38" viewBox="0 0 42 38" fill="none" xmlns="http://www.w3.org/2000/svg">
<path d="M41.9848 7.46513C41.9836 7.01289 41.6167 6.64695 41.1645 6.64695H6.87734L5.91642 0.705178C5.85219 0.307901 5.50905 0.0158691 5.10661 0.0158691H0.820312C0.367254 0.0158691 0 0.383123 0 0.836182C0 1.28924 0.367254 1.65649 0.820312 1.65649H4.40828L5.36689 7.58448L6.13126 13.4871C6.13134 13.4879 6.13151 13.4886 6.13159 13.4893C6.13175 13.4906 6.13192 13.492 6.13208 13.4933L8.08828 27.752C8.28959 29.2198 9.51284 30.3385 10.9648 30.4101C10.2947 31.2123 9.89034 32.2486 9.89034 33.3786C9.89034 35.9181 11.9326 37.9842 14.4427 37.9842C16.9529 37.9842 18.9951 35.9182 18.9951 33.3786C18.9951 32.2503 18.5919 31.2155 17.9237 30.4138H28.0089C27.3407 31.2155 26.9375 32.2504 26.9375 33.3786C26.9375 35.9181 28.9797 37.9842 31.4899 37.9842C34.0001 37.9842 36.0422 35.9182 36.0422 33.3786C36.0422 32.2235 35.6198 31.1665 34.9229 30.3572C36.7818 30.0518 38.2877 28.5405 38.5532 26.605L40.2546 14.2019H41.1797C41.3976 14.2019 41.6066 14.1152 41.7605 13.9609C41.9144 13.8066 42.0006 13.5975 42 13.3795L41.9848 7.46513ZM40.3462 8.28757L40.3573 12.5614H7.66574L7.11236 8.28757H40.3462ZM17.3545 33.3787C17.3545 35.0136 16.0483 36.3437 14.4427 36.3437C12.8372 36.3437 11.531 35.0136 11.531 33.3787C11.531 31.7438 12.8372 30.4139 14.4427 30.4139C16.0483 30.4138 17.3545 31.7438 17.3545 33.3787ZM31.4898 36.3436C29.8843 36.3436 28.578 35.0135 28.578 33.3786C28.578 31.7437 29.8843 30.4138 31.4898 30.4138C33.0953 30.4138 34.4015 31.7438 34.4015 33.3786C34.4015 35.0134 33.0953 36.3436 31.4898 36.3436ZM36.9277 26.3821C36.7407 27.7452 35.5806 28.7732 34.2293 28.7732H11.1129C10.4126 28.7732 9.81094 28.2383 9.71365 27.5291L7.88542 14.202H38.5985L36.9277 26.3821Z" fill="#7F8284"/>
<path d="M29.2128 26.1005V16.5693H34.9613L33.2197 26.1005H29.2128Z" fill="#FF6B00"/>
<path d="M25.3691 16.5693V26.1005H21.3622V16.5693H25.3691Z" fill="#FF6B00"/>
<path d="M13.5116 26.1005L12.6408 16.5693H17.5185V26.1005H13.5116Z" fill="#FF6B00"/>
</svg>
