<svg width="40" height="40" viewBox="0 0 40 40" fill="none" xmlns="http://www.w3.org/2000/svg">
<path d="M22 3V13H32C32 7.47734 27.5227 3 22 3Z" fill="#FF6B00"/>
<path d="M36.6666 0H3.33336C1.49336 0.00203125 0.00203125 1.49336 0 3.33336V30C0.00203125 31.84 1.49336 33.3313 3.33336 33.3334H15.682L13.5487 38.6667H9.33336C8.96539 38.6667 8.66672 38.9654 8.66672 39.3334C8.66672 39.7013 8.96539 40 9.33336 40H30.6667C31.0347 40 31.3334 39.7013 31.3334 39.3334C31.3334 38.9654 31.0347 38.6667 30.6667 38.6667H26.4514L24.318 33.3334H36.6667C38.5066 33.3313 39.998 31.84 40 30V3.33336C39.998 1.49336 38.5066 0.00203125 36.6666 0ZM3.33336 1.33336H36.6667C37.7714 1.33336 38.6667 2.22867 38.6667 3.33336V28H1.33336V3.33336C1.33336 2.22867 2.22867 1.33336 3.33336 1.33336ZM25.0153 38.6666H14.9847L17.118 33.3333H22.882L25.0153 38.6666ZM36.6666 32H3.33336C2.22867 32 1.33336 31.1047 1.33336 30V29.3334H38.6667V30C38.6666 31.1047 37.7713 32 36.6666 32Z" fill="#7F8284"/>
<path d="M19.6666 26.3333C25.5545 26.3266 30.3266 21.5546 30.3332 15.6666C30.3332 15.2987 30.0345 15 29.6666 15H20.3333V5.66664C20.3333 5.29867 20.0346 5 19.6666 5C13.7753 5 9 9.77531 9 15.6666C9 21.558 13.7752 26.3333 19.6666 26.3333ZM18.9999 6.36734V15.6666C18.9999 16.0346 19.2986 16.3333 19.6666 16.3333H28.9659C28.6005 21.472 24.1385 25.342 18.9998 24.9766C13.8612 24.6113 9.99117 20.1493 10.3565 15.0106C10.6859 10.38 14.3699 6.69664 18.9999 6.36734Z" fill="#7F8284"/>
</svg>
