<svg width="724" height="1212" viewBox="0 0 724 1212" fill="none" xmlns="http://www.w3.org/2000/svg">
<g clip-path="url(#clip0)">
<path d="M72.8792 211.968L284.502 1H723.002V1212.5L71.2676 550.282C-21.2852 456.241 -20.5654 305.123 72.8792 211.968Z" fill="#FF6B00"/>
<mask id="mask0" mask-type="alpha" maskUnits="userSpaceOnUse" x="2" y="0" width="722" height="1213">
<path d="M73.321 211.969L286.002 0.5H724L723.002 1212.5L71.4866 550.505C-21.1521 456.376 -20.3323 305.088 73.321 211.969Z" fill="#FF6B00"/>
</mask>
<g mask="url(#mask0)">
<path opacity="0.3" d="M732.645 608.254H624.895L645.419 490.494H732.645C778.824 490.494 814.74 454.654 814.74 408.574C814.74 362.494 778.824 326.654 732.645 326.654H671.073L691.598 219.133C701.86 178.173 671.074 137.213 624.895 126.973C583.847 116.733 542.8 147.453 532.538 193.533L506.883 326.654H347.824L368.347 219.133C378.609 178.173 347.823 137.213 301.645 126.973C260.597 116.733 219.549 147.453 209.287 193.533L183.632 326.654H45.0968C-1.08182 326.654 -36.998 362.494 -36.998 408.574C-36.998 454.654 9.17994 490.494 55.3585 490.494H163.109L142.585 608.254H55.3585C9.17994 608.254 -26.7363 644.094 -26.7363 690.174C-26.7363 736.254 9.17994 772.095 55.3585 772.095H116.931L96.4063 879.615C86.1444 920.575 116.93 961.535 163.109 971.775C193.895 982.015 245.204 956.415 255.466 905.215L281.121 772.095H440.18L419.657 879.615C409.395 920.575 440.181 961.535 486.359 971.775C517.145 982.015 568.455 956.415 578.717 905.215L604.371 772.095H742.907C789.086 772.095 825.002 736.254 825.002 690.174C809.609 644.094 773.693 608.254 732.645 608.254ZM460.705 608.254H301.645L322.169 490.494H481.228L460.705 608.254Z" fill="#F5520C" fill-opacity="0.7"/>
<path d="M690.645 631.823H582.895L603.419 513.924H690.645C736.824 513.924 772.74 478.042 772.74 431.908C772.74 385.773 736.824 349.891 690.645 349.891H629.073L649.598 242.244C659.86 201.236 629.074 160.228 582.895 149.976C541.847 139.723 500.8 170.48 490.538 216.614L464.883 349.891H305.824L326.347 242.244C336.609 201.236 305.823 160.228 259.645 149.976C218.597 139.723 177.549 170.48 167.287 216.614L141.632 349.891H3.09679C-43.0818 349.891 -78.998 385.773 -78.998 431.908C-78.998 478.042 -32.8201 513.924 13.3585 513.924H121.109L100.585 631.823H13.3585C-32.8201 631.823 -68.7363 667.706 -68.7363 713.84C-68.7363 759.974 -32.8201 795.857 13.3585 795.857H74.9306L54.4063 903.504C44.1444 944.512 74.9303 985.52 121.109 995.772C151.895 1006.02 203.204 980.394 213.466 929.134L239.121 795.857H398.18L377.657 903.504C367.395 944.512 398.181 985.52 444.359 995.772C475.145 1006.02 526.455 980.394 536.717 929.134L562.371 795.857H700.907C747.086 795.857 783.002 759.974 783.002 713.84C767.609 667.706 731.693 631.823 690.645 631.823ZM418.705 631.823H259.645L280.169 513.924H439.228L418.705 631.823Z" fill="url(#paint0_linear)" fill-opacity="0.5"/>
<path d="M580.925 631.48L580.517 633.823H582.895H690.645C730.385 633.823 765.691 668.597 781.001 714.164C780.834 759.036 745.875 793.857 700.907 793.857H562.371H560.72L560.408 795.479L534.756 928.741C534.755 928.744 534.754 928.747 534.754 928.751C529.739 953.788 514.704 972.566 497.154 983.837C479.539 995.15 459.646 998.755 444.991 993.875L444.893 993.842L444.793 993.82C399.411 983.745 369.678 943.628 379.597 903.989L379.611 903.934L379.621 903.878L400.145 796.231L400.598 793.857H398.18H239.121H237.469L237.157 795.479L211.505 928.741C211.505 928.744 211.504 928.747 211.503 928.751C206.488 953.788 191.454 972.566 173.903 983.837C156.288 995.15 136.396 998.755 121.741 993.875L121.643 993.842L121.542 993.82C76.1608 983.745 46.4274 943.628 56.3465 903.989L56.3603 903.934L56.371 903.878L76.8952 796.231L77.348 793.857H74.9306H13.3585C-31.7173 793.857 -66.7363 758.868 -66.7363 713.84C-66.7363 668.812 -31.7173 633.823 13.3585 633.823H100.585H102.267L102.556 632.166L123.079 514.267L123.487 511.924H121.109H13.3585C-9.23234 511.924 -31.8672 503.138 -48.8405 488.693C-65.8063 474.255 -76.998 454.274 -76.998 431.908C-76.998 386.88 -41.979 351.891 3.09679 351.891H141.632H143.284L143.596 350.269L169.246 217.02C179.34 171.702 219.486 142.007 259.16 151.916L259.185 151.922L259.211 151.928C304.593 162.003 334.326 202.12 324.407 241.759L324.393 241.814L324.383 241.87L303.859 349.517L303.406 351.891H305.824H464.883H466.535L466.847 350.269L492.49 217.048C492.492 217.039 492.494 217.03 492.496 217.02C502.59 171.702 542.737 142.007 582.41 151.916L582.436 151.922L582.462 151.928C627.843 162.003 657.577 202.12 647.657 241.759L647.644 241.814L647.633 241.87L627.109 349.517L626.656 351.891H629.073H690.645C735.721 351.891 770.74 386.88 770.74 431.908C770.74 476.936 735.721 511.924 690.645 511.924H603.419H601.737L601.448 513.581L580.925 631.48ZM418.705 633.823H420.386L420.675 632.166L441.198 514.267L441.606 511.924H439.228H280.169H278.487L278.199 513.581L257.674 631.48L257.266 633.823H259.645H418.705Z" stroke="#FF8A00" stroke-opacity="0.4" stroke-width="4"/>
</g>
</g>
<defs>
<linearGradient id="paint0_linear" x1="352.002" y1="148" x2="352.002" y2="998" gradientUnits="userSpaceOnUse">
<stop stop-color="#FF9900"/>
<stop offset="1" stop-color="#FF6B00"/>
</linearGradient>
<clipPath id="clip0">
<rect width="724" height="1212" fill="white"/>
</clipPath>
</defs>
</svg>
