<svg xmlns="http://www.w3.org/2000/svg" xmlns:xlink="http://www.w3.org/1999/xlink" width="64" height="62" fill="none" xmlns:v="https://vecta.io/nano"><path fill-rule="evenodd" d="M32.079 31.893a14.7 14.7 0 0 0 14.696-14.696A14.7 14.7 0 0 0 32.079 2.5a14.7 14.7 0 0 0-14.697 14.697 14.7 14.7 0 0 0 14.697 14.696zm0 2.5a17.2 17.2 0 0 0 17.196-17.196A17.2 17.2 0 0 0 32.079 0a17.2 17.2 0 0 0-17.197 17.197 17.2 17.2 0 0 0 17.197 17.196z" fill="#7f8284"/><path d="M26.498 27.045h11.387c.454 0 .862-.417.862-.913v-1.134c-.011-3.44-2.574-6.219-5.726-6.207h-1.658c-3.132-.008-5.677 2.757-5.685 6.176v1.165c-.002.498.364.905.821.913zm.823-2.047c.002-2.435 1.81-4.41 4.041-4.413h1.658c2.229 0 4.082 1.98 4.082 4.413v.253h-9.781v-.253zm4.891-7.583a4.471 4.471 0 1 0 0-8.942 4.471 4.471 0 0 0 0 8.942zm0-7.147c1.478 0 2.676 1.198 2.676 2.676s-1.198 2.676-2.676 2.676-2.676-1.198-2.676-2.676 1.198-2.676 2.676-2.676z" fill="#ff6b00"/><g fill-rule="evenodd"><path d="M2.5 45.914v12.735h12.735V45.914H2.5zM0 61.148h17.735V43.414H0v17.735z" fill="#7f8284"/><use xlink:href="#B" fill="#ff6b00"/><path d="M25.632 45.914v12.735h12.735V45.914H25.632zm-2.5 15.235h17.735V43.414H23.132v17.735z" fill="#7f8284"/><use xlink:href="#B" x="23.132" y="0.001" fill="#ff6b00"/><path d="M48.766 45.914v12.735h12.735V45.914H48.766zm-2.5 15.235h17.735V43.414H46.266v17.735z" fill="#7f8284"/><use xlink:href="#B" x="46.265" y="0.001" fill="#ff6b00"/><g fill="#7f8284"><path d="M9.193 40.27v3.377h-2.5V37.77H56.23v5.877h-2.5V40.27H9.193z"/><path d="M33.097 34.008v5.012h-2.5v-5.012h2.5z"/></g></g><defs ><path id="B" d="M13.045 51.06l-4.948 4.948-2.635-2.635 1.414-1.414 1.221 1.221 3.534-3.534 1.414 1.414z"/></defs></svg>