<svg xmlns="http://www.w3.org/2000/svg" width="64" height="65" fill="none" xmlns:v="https://vecta.io/nano"><g clip-path="url(#A)"><path fill-rule="evenodd" d="M56.774.317C60.759.317 64 3.56 64 7.543c0 3.633-2.697 6.64-6.194 7.143v20.243C61.577 37.959 64 42.6 64 47.801a16.54 16.54 0 0 1-16.516 16.516c-8.758 0-15.927-6.858-16.463-15.484H0V7.543h49.548c0-3.983 3.241-7.226 7.226-7.226zm5.161 7.226a5.17 5.17 0 0 0-5.161-5.161 5.17 5.17 0 0 0-5.161 5.161 5.17 5.17 0 0 0 5.161 5.161 5.17 5.17 0 0 0 5.161-5.161zM31.805 42.64c.324-.983.733-1.925 1.227-2.817l2.065-2.909c3.029-3.443 7.453-5.629 12.387-5.629 3.01 0 5.825.823 8.258 2.236V14.687a7.18 7.18 0 0 1-3.287-1.365l-6.314 6.313c.194.404.311.85.311 1.326a3.1 3.1 0 0 1-3.097 3.097 3.1 3.1 0 0 1-3.097-3.097c0-.477.117-.923.31-1.327l-2.08-2.08c-.404.194-.849.311-1.326.311s-.923-.117-1.328-.31l-5.177 5.177c.194.404.311.849.311 1.326a3.1 3.1 0 0 1-3.097 3.097 3.1 3.1 0 0 1-3.097-3.097 3.1 3.1 0 0 1 3.097-3.097 3.07 3.07 0 0 1 1.328.31l5.177-5.177c-.194-.404-.311-.85-.311-1.326a3.1 3.1 0 0 1 3.097-3.097 3.1 3.1 0 0 1 3.097 3.097 3.07 3.07 0 0 1-.31 1.327l2.08 2.08c.404-.194.849-.311 1.326-.311s.923.117 1.328.311l6.313-6.313a7.22 7.22 0 0 1-1.143-2.255H2.065v37.161H31.02c.043-.7.121-1.39.249-2.064l.536-2.065zm14.647-9.238c-7.487.533-13.419 6.779-13.419 14.399a14.33 14.33 0 0 0 1.468 6.304l1.022 1.794c2.601 3.832 6.993 6.354 11.962 6.354s9.361-2.522 11.962-6.354l1.022-1.794a14.33 14.33 0 0 0 1.468-6.304c0-7.62-5.932-13.866-13.419-14.399h-2.065zm-2.065-12.44c0-.57-.463-1.032-1.032-1.032s-1.032.462-1.032 1.032.463 1.032 1.032 1.032 1.032-.462 1.032-1.032zm-7.226-7.226c-.569 0-1.032.462-1.032 1.032s.464 1.032 1.032 1.032 1.032-.462 1.032-1.032-.463-1.032-1.032-1.032zm-9.29 11.355c.569 0 1.032-.462 1.032-1.032s-.463-1.032-1.032-1.032-1.032.462-1.032 1.032.463 1.032 1.032 1.032z" fill="#7f8284"/><g clip-path="url(#B)"><path d="M52.708 44.485v-4.959a5.21 5.21 0 0 0-5.208-5.208 5.21 5.21 0 0 0-5.208 5.208v4.959c-1.903 1.527-3.125 3.869-3.125 6.499 0 4.602 3.731 8.333 8.333 8.333s8.333-3.731 8.333-8.333c0-2.63-1.222-4.972-3.125-6.499zm-8.333-4.959a3.13 3.13 0 0 1 3.125-3.125 3.13 3.13 0 0 1 3.125 3.125v3.736a8.29 8.29 0 0 0-6.25 0v-3.736zM47.5 57.234a6.26 6.26 0 0 1-6.25-6.25 6.26 6.26 0 0 1 6.25-6.25 6.26 6.26 0 0 1 6.25 6.25 6.26 6.26 0 0 1-6.25 6.25zm2.083-6.25c0 1.15-.933 2.083-2.083 2.083s-2.083-.933-2.083-2.083.933-2.083 2.083-2.083 2.083.933 2.083 2.083z" fill="#ff6b00"/></g><g fill="#7f8284"><path d="M5.193 43.317h16.554c.66 0 1.253-.606 1.253-1.327v-1.649c-.016-5.001-3.743-9.041-8.325-9.024h-2.411c-4.553-.011-8.253 4.009-8.264 8.98v1.694c-.003.724.529 1.316 1.193 1.327zm1.197-2.976c.003-3.54 2.631-6.411 5.874-6.415h2.411c3.24 0 5.935 2.878 5.935 6.415v.367H6.39v-.367zm7.11-11.024a6.5 6.5 0 1 0 0-13 6.5 6.5 0 1 0 0 13zm0-10.39a3.89 3.89 0 1 1 0 7.78 3.89 3.89 0 1 1 0-7.78z"/></g></g><defs><clipPath id="A"><path fill="#fff" transform="translate(0 .317)" d="M0 0h64v64H0z"/></clipPath><clipPath id="B"><path fill="#fff" transform="translate(35 34.317)" d="M0 0h25v25H0z"/></clipPath></defs></svg>