<svg width="58" height="42" viewBox="0 0 58 42" fill="none" xmlns="http://www.w3.org/2000/svg">
<path fill-rule="evenodd" clip-rule="evenodd" d="M57.8064 0V27.3858V41.2903H31.0204H0V2.38419e-05L57.8064 0ZM31.0204 39.2258H55.7419V25.9778V2.06454H2.06452V39.2258C2.06452 39.2258 19.7124 39.2258 31.0204 39.2258Z" fill="#7F8284"/>
<path d="M5.19311 35.7744H21.7472C22.4072 35.7744 23 35.1681 23 34.4477V32.7984C22.9841 27.7975 19.2573 23.7577 14.6754 23.7745H12.2644C7.71095 23.7627 4.01075 27.7828 4.00001 32.7535V34.4477C3.99721 35.1717 4.52934 35.7637 5.19311 35.7744ZM6.38995 32.7984C6.39275 29.2578 9.02074 26.3877 12.2644 26.3832H14.6754C17.9158 26.3832 20.6101 29.2614 20.6101 32.7984V33.1657H6.38995V32.7984Z" fill="#7F8284"/>
<path d="M13.4997 21.7744C17.0899 21.7744 20 18.8643 20 15.2742C20 11.6845 17.0899 8.77441 13.4997 8.77441C9.91013 8.77441 7 11.6845 7 15.2742C7 18.8643 9.91013 21.7744 13.4997 21.7744ZM13.4997 11.3843C15.6483 11.3843 17.3901 13.1256 17.3901 15.2742C17.3901 17.4227 15.6483 19.1645 13.4997 19.1645C11.3512 19.1645 9.60989 17.4227 9.60989 15.2742C9.60989 13.1256 11.3512 11.3843 13.4997 11.3843Z" fill="#7F8284"/>
<rect x="32" y="9" width="19" height="2" fill="#FF6B00"/>
<rect x="32" y="14.2256" width="19" height="2" fill="#FF6B00"/>
<rect x="32" y="26.2256" width="14" height="2" fill="#7F8284"/>
<rect x="48" y="26.2256" width="3" height="2" fill="#7F8284"/>
<rect x="32" y="21.2256" width="14" height="2" fill="#7F8284"/>
<rect x="48" y="21.2256" width="3" height="2" fill="#7F8284"/>
<rect x="32" y="31.2256" width="14" height="2" fill="#7F8284"/>
<rect x="48" y="31.2256" width="3" height="2" fill="#7F8284"/>
</svg>
