<svg xmlns="http://www.w3.org/2000/svg" width="64" height="64" fill="none" xmlns:v="https://vecta.io/nano"><path d="M32 45.419c-5.123 0-9.29 4.168-9.29 9.29S26.877 64 32 64s9.29-4.168 9.29-9.29-4.167-9.29-9.29-9.29zm-3.946 15.336c.515-1.715 2.111-2.949 3.946-2.949s3.431 1.235 3.946 2.949c-1.136.743-2.491 1.18-3.946 1.18s-2.81-.437-3.946-1.18zm1.882-7.078c0-1.139.926-2.065 2.065-2.065s2.064.926 2.064 2.065-.926 2.064-2.064 2.064-2.065-.926-2.065-2.064zm7.642 5.621c-.562-1.178-1.473-2.145-2.603-2.77.712-.741 1.155-1.743 1.155-2.85 0-2.277-1.852-4.129-4.129-4.129s-4.129 1.852-4.129 4.129c0 1.107.443 2.109 1.155 2.851-1.13.626-2.041 1.592-2.603 2.771a7.2 7.2 0 0 1-1.648-4.589c0-3.985 3.242-7.226 7.226-7.226s7.226 3.241 7.226 7.226c0 1.74-.619 3.339-1.649 4.588z" fill="#ff6b00"/><path d="M32 0c-5.123 0-9.29 4.168-9.29 9.29a9.24 9.24 0 0 0 .654 3.404c-.532-.186-1.093-.308-1.687-.308a3.1 3.1 0 0 0-3.097 3.097v2.552c0 1.885-1.004 3.658-2.621 4.629a7.46 7.46 0 0 0-3.239 4.039l-.024.072L0 25.718v17.637h32a3.1 3.1 0 0 0 3.097-3.097 3.07 3.07 0 0 0-.227-1.151c1.316-.358 2.292-1.55 2.292-2.978 0-.796-.311-1.515-.805-2.064.495-.549.805-1.269.805-2.065s-.311-1.515-.805-2.064c.495-.549.805-1.269.805-2.065a3.1 3.1 0 0 0-3.096-3.097h-5.162c-1.139 0-2.064-.926-2.064-2.064v-5.161c0-.198-.037-.386-.059-.578a9.24 9.24 0 0 0 5.22 1.61c5.123 0 9.29-4.168 9.29-9.29S37.123 0 32 0zM12.387 41.29H2.065V27.96l10.323.86v12.47zm16.516-14.452h5.162c.569 0 1.031.463 1.031 1.032s-.462 1.032-1.032 1.032h-7.226v2.065h7.226c.57 0 1.032.463 1.032 1.032s-.462 1.032-1.032 1.032h-7.226v2.065h7.226c.57 0 1.032.463 1.032 1.032s-.462 1.032-1.032 1.032h-7.226v2.065H32a1.03 1.03 0 0 1 1.032 1.032c0 .57-.462 1.033-1.032 1.033H14.452V28.038l.228-.681c.407-1.221 1.238-2.259 2.343-2.921a7.5 7.5 0 0 0 3.623-6.399v-2.552c0-.569.463-1.032 1.032-1.032a3.1 3.1 0 0 1 3.097 3.097v5.161c-.001 2.276 1.851 4.128 4.128 4.128zM32 16.516c-3.983 0-7.226-3.241-7.226-7.226S28.017 2.065 32 2.065s7.226 3.241 7.226 7.226-3.242 7.226-7.226 7.226zm22.709 6.194c-5.123 0-9.29 4.168-9.29 9.29s4.167 9.29 9.29 9.29S64 37.122 64 32s-4.167-9.29-9.29-9.29zm0 16.516c-3.983 0-7.226-3.241-7.226-7.226s3.242-7.226 7.226-7.226 7.226 3.241 7.226 7.226-3.242 7.226-7.226 7.226zm-.875-21.129l1.379 2.198 1.54-7.705-2.024-.406-.553 2.77c-2.667-3.53-6.018-6.172-10.385-8.215l-.874 1.87c4.796 2.243 8.265 5.258 10.917 9.488zM6.738 20.208l1.871.874c2.241-4.794 5.256-8.263 9.486-10.917l2.197-1.378-7.704-1.541-.405 2.023 2.77.554c-3.532 2.668-6.174 6.019-8.216 10.385zm3.427 25.696l-1.379-2.198-1.54 7.705 2.024.406.553-2.77c2.667 3.53 6.018 6.172 10.385 8.215l.875-1.87c-4.797-2.243-8.266-5.258-10.918-9.487zm47.097-2.112l-1.872-.874c-2.241 4.794-5.256 8.263-9.486 10.917l-2.197 1.378 7.704 1.541.406-2.024-2.77-.554c3.531-2.667 6.173-6.018 8.215-10.383z" fill="#7f8284"/><path d="M36.724 7.69l-5.484 5.76-2.964-3.114 1.448-1.379 1.516 1.592 4.036-4.239 1.449 1.379zm23 22l-5.484 5.76-2.964-3.114 1.449-1.379 1.516 1.592 4.036-4.239 1.449 1.379z" fill="#ff6b00" fill-rule="evenodd"/></svg>