<svg xmlns="http://www.w3.org/2000/svg" width="58" height="42" fill="none" xmlns:v="https://vecta.io/nano"><g fill="#7f8284"><path fill-rule="evenodd" d="M57.806 0v27.386V41.29H31.02 0V0h57.806zM31.02 39.226h24.722V25.978 2.065H2.065v37.161H31.02z"/><path d="M5.193 35.774h16.554c.66 0 1.253-.606 1.253-1.327v-1.649c-.016-5.001-3.743-9.041-8.325-9.024h-2.411c-4.553-.011-8.253 4.009-8.264 8.98v1.694c-.003.724.529 1.316 1.193 1.327zm1.197-2.976c.003-3.541 2.631-6.411 5.874-6.415h2.411c3.24 0 5.935 2.878 5.935 6.415v.367H6.39v-.367zm7.11-11.024a6.5 6.5 0 1 0 0-13 6.5 6.5 0 0 0 0 13zm0-10.39a3.89 3.89 0 1 1 0 7.78 3.89 3.89 0 1 1 0-7.78z"/></g><path d="M32 9h19v2H32zm0 5.226h19v2H32z" fill="#ff6b00"/><path d="M32 26.226h14v2H32zm16 0h3v2h-3zm-16-5h14v2H32zm16 0h3v2h-3zm-16 10h14v2H32zm16 0h3v2h-3z" fill="#7f8284"/></svg>