<svg xmlns="http://www.w3.org/2000/svg" width="64" height="64" fill="none" xmlns:v="https://vecta.io/nano"><path d="M51.612 15.911l7.955-7.955-1.46-1.46-6.496 6.496-2.367-2.367-1.459 1.46 3.826 3.826z" fill="#ff6b00"/><path d="M63.998 10.322C63.998 4.631 59.367 0 53.676 0c-3.367 0-6.352 1.628-8.238 4.129H3.097A3.1 3.1 0 0 0 0 7.226v35.096a3.1 3.1 0 0 0 3.097 3.097h18.995l.04.08c.378.755.577 1.598.577 2.44v4.24a7.26 7.26 0 0 0 .754 3.213l2.343 4.718v3.841l18.58.048v-3.787l1.651-2.202a7.27 7.27 0 0 0 1.445-4.335v-8.258h9.29a3.1 3.1 0 0 0 3.097-3.097V18.56c2.501-1.886 4.129-4.871 4.129-8.238zM53.676 2.064a8.27 8.27 0 0 1 8.258 8.258 8.27 8.27 0 0 1-8.258 8.258 8.27 8.27 0 0 1-8.258-8.258 8.27 8.27 0 0 1 8.258-8.258zm-8.238 14.451H6.193v-6.193h37.16c0 2.326.782 4.465 2.084 6.193zm-.02 37.16c0 1.11-.367 2.209-1.032 3.097l-2.065 2.753v2.406l-14.451-.039v-2.266l-2.559-5.153c-.352-.709-.538-1.502-.538-2.295v-4.24c0-1.161-.275-2.325-.795-3.364l-1.203-2.405c-.043-.088-.067-.188-.067-.286 0-.352.287-.638.737-.638 3.009 0 5.456 2.448 5.456 5.457v1.768 2.064h2.064v-2.064-1.768-15.736c0-.569.463-1.032 1.032-1.032s1.032.463 1.032 1.032v9.29 4.129h2.064v-4.129c0-.569.464-1.032 1.032-1.032s1.032.464 1.032 1.032v4.129h2.064v-4.129c0-.569.464-1.032 1.032-1.032s1.032.464 1.032 1.032v2.064 2.065h2.064v-2.065c0-.569.463-1.032 1.032-1.032s1.032.463 1.032 1.032v11.355zm12.387-11.355c0 .569-.464 1.032-1.032 1.032h-9.29v-1.032a3.1 3.1 0 0 0-3.097-3.097 3.08 3.08 0 0 0-1.152.227c-.356-1.316-1.549-2.291-2.977-2.291-.796 0-1.515.311-2.064.805-.549-.495-1.269-.805-2.064-.805-.363 0-.708.074-1.032.19v-6.383a3.1 3.1 0 0 0-3.097-3.097 3.1 3.1 0 0 0-3.097 3.097v10.588c-1.384-1.456-3.35-2.373-5.554-2.373a2.71 2.71 0 0 0-2.703 2.702 2.74 2.74 0 0 0 .285 1.21l.131.26H3.097c-.569 0-1.032-.463-1.032-1.032V7.226c0-.569.463-1.032 1.032-1.032h41.125c-.288.656-.513 1.346-.66 2.064H4.129V18.58h43.379c1.723 1.29 3.853 2.065 6.168 2.065a10.25 10.25 0 0 0 4.129-.868v22.545z" fill="#7f8284"/><path d="M45.418 37.16H55.74V22.709H45.418V37.16zm2.064-12.387h6.193v10.322h-6.193V24.773z" fill="#ff6b00"/><path d="M5 29v10m4-8v8m4-6v6m4-10v10" stroke="#ff6b00" stroke-width="2"/></svg>