<svg width="74" height="76" viewBox="0 0 74 76" fill="none" xmlns="http://www.w3.org/2000/svg">
<g clip-path="url(#clip0)">
<path d="M69.2593 52.614L64.8461 67.5355L56.1826 65.1661L69.2593 52.614Z" fill="#E4761B"/>
<path fill-rule="evenodd" clip-rule="evenodd" d="M69.4426 52.3126L64.9076 67.6461L56.0049 65.2114L69.4426 52.3126ZM56.3602 65.121L64.7844 67.4249L69.0757 52.9155L56.3602 65.121Z" fill="#E4761B"/>
<path d="M56.1826 65.1662L64.5386 53.7173L69.2593 52.614L56.1826 65.1662Z" fill="#E4761B"/>
<path fill-rule="evenodd" clip-rule="evenodd" d="M69.5595 52.4508L56.245 65.2313L56.1094 65.1127L64.4852 53.6368L69.5595 52.4508ZM64.5917 53.7976L56.8619 64.3885L68.9585 52.777L64.5917 53.7976Z" fill="#E4761B"/>
<path d="M62.7666 41.3641L69.2597 52.614L64.5391 53.7172L62.7666 41.3641ZM62.7666 41.3641L66.9446 38.4702L69.2597 52.614L62.7666 41.3641Z" fill="#F6851B"/>
<path fill-rule="evenodd" clip-rule="evenodd" d="M67.0106 38.3145L69.3461 52.5831L69.3988 52.6743L64.4634 53.8278L62.6794 41.3942L62.6465 41.3372L67.0106 38.3145ZM62.9226 41.8155L69.1203 52.5537L64.6144 53.6068L62.9226 41.8155ZM69.0903 52.1399L62.8864 41.391L66.8783 38.6261L69.0903 52.1399Z" fill="#F6851B"/>
<path d="M57.4492 32.8634L69.4588 27.9438L68.8619 30.6388L57.4492 32.8634ZM68.4821 33.8763L57.4492 32.8634L68.8619 30.6388L68.4821 33.8763Z" fill="#763D16"/>
<path fill-rule="evenodd" clip-rule="evenodd" d="M69.5835 27.7947L68.9503 30.6539L68.5607 33.9744L57.4401 32.9535L57.4348 32.8491L57.4141 32.7798L69.5835 27.7947ZM58.3326 32.5989L68.7855 30.5614L69.3322 28.0931L58.3326 32.5989ZM58.0864 32.8312L68.7567 30.7512L68.4016 33.7782L58.0864 32.8312Z" fill="#763D16"/>
<path d="M68.4821 33.8763L66.9447 38.4703L57.4492 32.8634L68.4821 33.8763ZM70.8876 29.0833L68.8619 30.6388L69.4587 27.9438L70.8876 29.0833ZM68.4821 33.8763L68.8619 30.6388L70.4716 31.9772L68.4821 33.8763Z" fill="#763D16"/>
<path fill-rule="evenodd" clip-rule="evenodd" d="M69.4019 27.7828L71.0344 29.0847L69.0068 30.6416L70.6075 31.9726L68.5608 33.9263L66.9951 38.605L57.4033 32.9413L57.4576 32.7734L68.4026 33.7782L68.7472 30.841L68.7199 30.8619L68.7727 30.6237L68.7916 30.4627L68.8057 30.4745L69.4019 27.7828ZM68.9324 30.815L68.6012 33.6377L70.3358 31.9819L68.9324 30.815ZM69.004 30.4157L70.7409 29.082L69.5158 28.105L69.004 30.4157ZM68.3601 33.9559L57.842 32.9903L66.8945 38.3356L68.3601 33.9559Z" fill="#763D16"/>
<path d="M46.8682 61.5308L49.8705 62.4894L56.1828 65.1662L46.8682 61.5308Z" fill="#E2761B"/>
<path fill-rule="evenodd" clip-rule="evenodd" d="M46.835 61.6149L46.8953 61.4445L49.9017 62.4043L56.2178 65.0828L56.1496 65.2503L46.835 61.6149ZM49.5716 62.4888L50.4004 62.8123L49.8388 62.5741L49.5716 62.4888Z" fill="#E2761B"/>
<path d="M66.9441 38.4702L68.4815 33.8763L69.8018 34.8891L66.9441 38.4702ZM66.9441 38.4702L54.4824 34.3646L57.4486 32.8634L66.9441 38.4702Z" fill="#763D16"/>
<path fill-rule="evenodd" clip-rule="evenodd" d="M57.4519 32.7604L66.8938 38.3356L68.4359 33.7274L69.9299 34.8735L67.0147 38.5267L66.9461 38.4893L66.9157 38.5562L54.2471 34.3823L57.4519 32.7604ZM67.1918 38.0147L69.6735 34.9048L68.5269 34.0252L67.1918 38.0147ZM66.1769 38.1223L54.7176 34.3469L57.4452 32.9665L66.1769 38.1223Z" fill="#763D16"/>
<path d="M60.4148 18.7739L57.4486 32.8634L54.4824 34.3646L60.4148 18.7739Z" fill="#763D16"/>
<path fill-rule="evenodd" clip-rule="evenodd" d="M54.6506 34.1785L57.3697 32.8024L60.0887 19.8869L54.6506 34.1785ZM60.3309 18.7418L60.5039 18.7926L57.5288 32.9246L54.3154 34.5508L60.3309 18.7418Z" fill="#763D16"/>
<path d="M69.4588 27.9438L57.4492 32.8634L60.4154 18.7739L69.4588 27.9438Z" fill="#763D16"/>
<path fill-rule="evenodd" clip-rule="evenodd" d="M60.3612 18.5905L69.6175 27.9763L57.3252 33.0117L60.3612 18.5905ZM60.4689 18.9572L57.5725 32.7149L69.2993 27.9112L60.4689 18.9572Z" fill="#763D16"/>
<path d="M60.415 18.774L72.9491 17.327L69.4584 27.9439L60.415 18.774Z" fill="#763D16"/>
<path fill-rule="evenodd" clip-rule="evenodd" d="M73.0794 17.2209L69.4983 28.1128L60.2207 18.7054L73.0794 17.2209ZM60.61 18.8425L69.419 27.7749L72.8193 17.433L60.61 18.8425Z" fill="#763D16"/>
<path d="M66.9441 38.4703L62.7661 41.3641L54.4824 34.3646L66.9441 38.4703Z" fill="#F6851B"/>
<path fill-rule="evenodd" clip-rule="evenodd" d="M54.4238 34.4335L54.5105 34.2786L67.1447 38.4411L62.7604 41.4778L54.4238 34.4335ZM54.8966 34.5962L62.7713 41.2502L66.7431 38.4992L54.8966 34.5962Z" fill="#F6851B"/>
<path d="M72.4065 7.1803L72.9491 17.3269L60.415 18.7738L72.4065 7.1803Z" fill="#763D16"/>
<path fill-rule="evenodd" clip-rule="evenodd" d="M72.487 6.97754L73.0447 17.4071L60.1611 18.8944L72.487 6.97754ZM60.6705 18.6535L72.855 17.2469L72.3275 7.38325L60.6705 18.6535Z" fill="#763D16"/>
<path d="M72.4068 7.1803L47.3568 25.3935L47.0312 13.0404L72.4068 7.1803Z" fill="#E2761B"/>
<path fill-rule="evenodd" clip-rule="evenodd" d="M47.1232 13.1118L47.4423 25.2193L71.9939 7.36833L47.1232 13.1118ZM72.386 7.09216L72.4595 7.25342L47.2705 25.5678L46.9385 12.9689L72.386 7.09216Z" fill="#E2761B"/>
<path d="M28.4023 11.5574L47.0316 13.0405L47.3571 25.3936L28.4023 11.5574Z" fill="#F6851B"/>
<path fill-rule="evenodd" clip-rule="evenodd" d="M28.0898 11.4418L47.119 12.9567L47.4515 25.5751L28.0898 11.4418ZM28.7131 11.6728L47.261 25.2121L46.9424 13.1241L28.7131 11.6728Z" fill="#F6851B"/>
<path d="M54.4826 34.3646L47.3564 25.3936L60.415 18.7739L54.4826 34.3646Z" fill="#763D16"/>
<path fill-rule="evenodd" clip-rule="evenodd" d="M60.5828 18.5875L54.5107 34.5452L47.2168 25.3631L60.5828 18.5875ZM47.4963 25.4242L54.4547 34.1839L60.2474 18.9603L47.4963 25.4242Z" fill="#763D16"/>
<path d="M54.4827 34.3646L62.7664 41.3642L51.1367 42.6483L54.4827 34.3646Z" fill="#E4761B"/>
<path fill-rule="evenodd" clip-rule="evenodd" d="M54.4456 34.215L62.9855 41.431L50.9961 42.7548L54.4456 34.215ZM54.5197 34.5144L51.2772 42.5418L62.5472 41.2974L54.5197 34.5144Z" fill="#E4761B"/>
<path d="M51.1366 42.6483L47.3564 25.3937L54.4826 34.3646L51.1366 42.6483Z" fill="#E4761B"/>
<path fill-rule="evenodd" clip-rule="evenodd" d="M47.2676 25.413L47.4267 25.3374L54.5856 34.3496L51.1103 42.9535L47.2676 25.413ZM47.5277 25.7553L51.1618 42.3432L54.3785 34.3796L47.5277 25.7553Z" fill="#E4761B"/>
<path d="M60.415 18.7738L47.3564 25.3935L72.4064 7.1803L60.415 18.7738Z" fill="#763D16"/>
<path fill-rule="evenodd" clip-rule="evenodd" d="M48.3253 24.8014L60.3624 18.6995L71.4158 8.01283L48.3253 24.8014ZM47.3037 25.3205L72.3537 7.1073L72.4698 7.24546L60.4685 18.8485L47.3978 25.4743L47.3037 25.3205Z" fill="#763D16"/>
<path d="M28.5649 64.8768L34.4792 71.0444L26.4307 63.7192L28.5649 64.8768Z" fill="#C0AD9E"/>
<path fill-rule="evenodd" clip-rule="evenodd" d="M26.3691 63.786L26.4731 63.6396L28.6197 64.8039L34.5438 70.9816L34.4177 71.1111L26.3691 63.786ZM27.0423 64.1541L32.5725 69.1872L28.5087 64.9495L27.0423 64.1541Z" fill="#C0AD9E"/>
<path d="M56.1826 65.1663L58.986 54.5132L64.5386 53.7174L56.1826 65.1663Z" fill="#CD6116"/>
<path fill-rule="evenodd" clip-rule="evenodd" d="M64.7387 53.5973L56.2562 65.2194L56.0957 65.1431L58.9144 54.432L64.7387 53.5973ZM59.0588 54.5941L56.3925 64.7258L64.3397 53.8372L59.0588 54.5941Z" fill="#CD6116"/>
<path d="M4.58203 35.1965L14.8191 24.4349L5.90235 33.9123L4.58203 35.1965Z" fill="#E2761B"/>
<path d="M64.5394 53.7173L58.9868 54.5131L62.767 41.3641L64.5394 53.7173ZM47.3571 25.3936L37.3914 25.0681L28.4023 11.5574L47.3571 25.3936Z" fill="#F6851B"/>
<path fill-rule="evenodd" clip-rule="evenodd" d="M28.3262 11.6074L28.4548 11.4843L47.6466 25.4935L37.341 25.1569L28.3262 11.6074ZM28.7575 11.9291L37.44 24.9791L47.0659 25.2936L28.7575 11.9291ZM59.1115 54.4037L64.4362 53.6405L62.7364 41.7944L59.1115 54.4037ZM62.6791 41.3391L62.8556 41.3512L64.6409 53.7939L58.8604 54.6224L62.6791 41.3391Z" fill="#F6851B"/>
<path d="M62.7663 41.3641L58.9862 54.5131L58.6787 48.0924L62.7663 41.3641Z" fill="#E4751F"/>
<path fill-rule="evenodd" clip-rule="evenodd" d="M58.7702 48.1155L59.0502 53.9624L62.4925 41.9886L58.7702 48.1155ZM62.6888 41.317L62.853 41.389L59.073 54.5379L58.8957 54.5173L58.5869 48.0689L62.6888 41.317Z" fill="#E4751F"/>
<path d="M51.1367 42.6483L62.7664 41.3641L58.6788 48.0924L51.1367 42.6483Z" fill="#CD6116"/>
<path fill-rule="evenodd" clip-rule="evenodd" d="M62.9393 41.254L58.7055 48.2229L50.8936 42.5841L62.9393 41.254ZM51.3802 42.7123L58.6526 47.9617L62.5939 41.4741L51.3802 42.7123Z" fill="#CD6116"/>
<path d="M37.3906 25.0681L47.3564 25.3937L51.1365 42.6483L37.3906 25.0681Z" fill="#F6851B"/>
<path fill-rule="evenodd" clip-rule="evenodd" d="M37.2012 24.9714L47.4306 25.3056L51.2257 42.629L51.0662 42.704L37.2012 24.9714ZM37.582 25.1648L50.9641 42.2799L47.284 25.4818L37.582 25.1648Z" fill="#F6851B"/>
<path d="M37.391 25.068L10.4962 0.180786L28.402 11.5573L37.391 25.068ZM28.3839 68.6567L5.01596 75.8914L0.349609 58.0761L28.3839 68.6567Z" fill="#E4761B"/>
<path fill-rule="evenodd" clip-rule="evenodd" d="M10.4348 0.247319L10.5447 0.104614L28.4666 11.4914L37.4663 25.0181L37.3296 25.1345L10.4348 0.247319ZM11.2905 0.792762L36.8951 24.4861L28.3373 11.6235L11.2905 0.792762ZM0.217773 57.9298L28.6624 68.6654L4.95242 76.0059L0.217773 57.9298ZM0.481442 58.2227L5.07949 75.7772L28.1054 68.6485L0.481442 58.2227Z" fill="#E4761B"/>
<path d="M8.05371 39.6458L16.88 32.7186L24.2774 34.4369L8.05371 39.6458Z" fill="#763D16"/>
<path fill-rule="evenodd" clip-rule="evenodd" d="M16.8594 32.6208L24.618 34.423L8.0825 39.732L7.99902 39.5748L16.8594 32.6208ZM16.9029 32.8166L8.50754 39.4056L23.9391 34.451L16.9029 32.8166Z" fill="#763D16"/>
<path d="M24.2783 34.437L16.8809 32.7187L20.8418 16.3684L24.2783 34.437Z" fill="#763D16"/>
<path fill-rule="evenodd" clip-rule="evenodd" d="M16.9903 32.6514L24.1635 34.3175L20.8312 16.7965L16.9903 32.6514ZM20.7539 16.3472L20.9307 16.3516L24.3931 34.5565L16.7715 32.7862L20.7539 16.3472Z" fill="#763D16"/>
<path d="M5.90234 33.9123L16.8809 32.7186L8.05465 39.6458L5.90234 33.9123Z" fill="#763D16"/>
<path fill-rule="evenodd" clip-rule="evenodd" d="M17.1851 32.5947L8.01301 39.7933L5.77637 33.8352L17.1851 32.5947ZM6.0276 33.9898L8.09557 39.4986L16.576 32.8429L6.0276 33.9898Z" fill="#763D16"/>
<path d="M58.6788 48.0924L54.121 45.7954L51.1367 42.6483L58.6788 48.0924Z" fill="#CD6116"/>
<path fill-rule="evenodd" clip-rule="evenodd" d="M51.0713 42.7105L51.1898 42.575L58.732 48.019L58.6383 48.1731L54.0664 45.869L51.0713 42.7105ZM51.8671 43.2869L54.176 45.7217L57.7022 47.4988L51.8671 43.2869Z" fill="#CD6116"/>
<path d="M5.90175 33.9126L5.12402 29.8069L16.8803 32.7188L5.90175 33.9126Z" fill="#763D16"/>
<path fill-rule="evenodd" clip-rule="evenodd" d="M5.00879 29.6851L16.9019 32.6309L16.89 32.8086L5.8283 34.0114L5.00879 29.6851ZM5.23897 29.9284L5.9749 33.8135L16.3636 32.6839L5.23897 29.9284Z" fill="#763D16"/>
<path d="M53.1807 50.9681L54.1212 45.7953L58.679 48.0923L53.1807 50.9681Z" fill="#233447"/>
<path fill-rule="evenodd" clip-rule="evenodd" d="M54.0538 45.6602L58.877 48.0909L53.0586 51.134L54.0538 45.6602ZM54.1885 45.9306L53.3028 50.8022L58.481 48.0939L54.1885 45.9306Z" fill="#233447"/>
<path d="M58.9865 54.5129L53.1807 50.9679L58.679 48.0922L58.9865 54.5129Z" fill="#F6851B"/>
<path fill-rule="evenodd" clip-rule="evenodd" d="M58.7625 47.9465L59.0849 54.6792L52.9971 50.962L58.7625 47.9465ZM53.3641 50.9742L58.8879 54.347L58.5954 48.2381L53.3641 50.9742Z" fill="#F6851B"/>
<path d="M16.8809 32.7187L5.12461 29.8068L4.16602 26.3522L16.8809 32.7187ZM20.8419 16.3684L16.8809 32.7187L4.16602 26.3522L20.8419 16.3684ZM20.8419 16.3684L37.3911 25.0681L24.2783 34.437L20.8419 16.3684Z" fill="#763D16"/>
<path fill-rule="evenodd" clip-rule="evenodd" d="M20.7026 16.5569L4.35326 26.3452L16.8192 32.5871L20.7026 16.5569ZM16.1124 32.4354L4.30699 26.5243L5.19701 29.7318L16.1124 32.4354ZM4.05984 26.3101L3.97754 26.3594L4.089 26.4152L5.05098 29.8819L16.8488 32.8042L16.9414 32.8505L20.8306 16.7965L24.2153 34.5928L37.5625 25.0564L20.9458 16.3213L20.98 16.1801L20.8384 16.2648L20.7174 16.2012L20.7406 16.3233L4.16152 26.2492L4.02382 26.1803L4.05984 26.3101ZM20.9651 16.5358L24.3402 34.2813L37.2185 25.0799L20.9651 16.5358Z" fill="#763D16"/>
<path d="M24.2783 34.437L37.3911 25.0681L43.2331 42.9196L24.2783 34.437ZM43.2331 42.9196L25.1103 42.5398L24.2783 34.437L43.2331 42.9196Z" fill="#E4761B"/>
<path fill-rule="evenodd" clip-rule="evenodd" d="M37.438 24.923L43.3819 43.0856L43.2122 43.0097L25.0278 42.6286L24.193 34.4982L24.0967 34.4551L24.1823 34.394L24.1716 34.2905L24.2672 34.3333L37.438 24.923ZM24.3835 34.5835L42.7881 42.8199L25.1914 42.4511L24.3835 34.5835ZM43.0829 42.7537L24.4585 34.4189L37.3428 25.2133L43.0829 42.7537Z" fill="#E4761B"/>
<path d="M8.05371 39.6459L24.2774 34.437L25.1094 42.5398L8.05371 39.6459ZM51.1361 42.6483L43.2322 42.9196L37.3902 25.0681L51.1361 42.6483Z" fill="#F6851B"/>
<path fill-rule="evenodd" clip-rule="evenodd" d="M37.3046 25.0962L37.4618 25.0123L51.3171 42.7325L43.1677 43.0122L37.3046 25.0962ZM37.6368 25.5298L43.2973 42.8268L50.9557 42.5639L37.6368 25.5298ZM24.3563 34.3167L25.2118 42.6488L8.03888 39.735L8.02637 39.5597L24.3563 34.3167ZM8.43447 39.6187L25.0076 42.4307L24.1991 34.5571L8.43447 39.6187Z" fill="#F6851B"/>
<path d="M54.121 45.7954L53.1805 50.9682L51.1367 42.6483L54.121 45.7954Z" fill="#CD6116"/>
<path fill-rule="evenodd" clip-rule="evenodd" d="M50.9678 42.3384L54.2185 45.7664L53.2698 50.9843L53.093 50.9897L50.9678 42.3384ZM51.3063 42.9582L53.1676 50.5353L54.0241 45.8243L51.3063 42.9582Z" fill="#CD6116"/>
<path d="M10.4961 0.180786L37.3909 25.068L20.8416 16.3683L10.4961 0.180786Z" fill="#763D16"/>
<path fill-rule="evenodd" clip-rule="evenodd" d="M10.4199 0.229699L10.5575 0.114624L37.4524 25.0018L37.3489 25.1482L20.7784 16.4374L10.4199 0.229699ZM10.9515 0.725599L20.905 16.2996L36.827 24.6696L10.9515 0.725599Z" fill="#763D16"/>
<path d="M0.349609 58.0762L23.0302 57.1357L28.3839 68.6569L0.349609 58.0762Z" fill="#E4761B"/>
<path fill-rule="evenodd" clip-rule="evenodd" d="M23.0865 57.0427L28.559 68.8196L0.317383 58.1607L0.345569 57.9857L23.0865 57.0427ZM0.796144 58.1481L28.2082 68.4939L22.9734 57.2284L0.796144 58.1481Z" fill="#E4761B"/>
<path d="M28.3839 68.6569L23.0303 57.1357L34.1716 56.5931L28.3839 68.6569Z" fill="#CD6116"/>
<path fill-rule="evenodd" clip-rule="evenodd" d="M34.3188 56.4954L28.3826 68.8686L22.8916 57.0519L34.3188 56.4954ZM23.1689 57.2195L28.3852 68.4451L34.0244 56.6908L23.1689 57.2195Z" fill="#CD6116"/>
<path d="M53.1806 50.9682L58.9864 54.5132L62.1878 62.0554L53.1806 50.9682ZM25.1102 42.5399L0.349609 58.0763L8.05451 39.646L25.1102 42.5399ZM23.0302 57.1358L0.349609 58.0763L25.1102 42.5399L23.0302 57.1358ZM51.1369 42.6484L52.6199 48.0382L45.4576 48.4542L51.1369 42.6484ZM45.4576 48.4542L43.233 42.9197L51.1369 42.6484L45.4576 48.4542Z" fill="#F6851B"/>
<path fill-rule="evenodd" clip-rule="evenodd" d="M7.99852 39.5447L25.0911 42.4448L25.227 42.3595L25.2119 42.4653L25.3589 42.4902L25.1935 42.594L23.1089 57.2229L0.377071 58.1655L0.155963 58.3042L0.211085 58.1724L0.0126953 58.1806L0.27697 58.0148L7.99852 39.5447ZM8.10996 39.747L0.542715 57.848L24.8609 42.5892L8.10996 39.747ZM24.9929 42.7199L0.685984 57.9717L22.951 57.0484L24.9929 42.7199ZM51.2376 42.6743L51.3591 42.5501L51.2048 42.5554L51.182 42.4725L51.0973 42.5591L43.1007 42.8336L45.3514 48.433L45.2293 48.5579L45.3977 48.5481L45.4251 48.6163L45.4976 48.5423L52.7365 48.1219L51.2376 42.6743ZM43.3647 43.0055L45.4896 48.2918L50.9141 42.7464L43.3647 43.0055ZM51.0911 42.824L45.6854 48.3502L52.5028 47.9543L51.0911 42.824ZM53.1102 51.0251L53.2275 50.8909L59.0581 54.451L62.2707 62.0199L62.1173 62.1122L53.1102 51.0251ZM53.5824 51.3195L61.8543 61.5016L58.9143 54.5751L53.5824 51.3195Z" fill="#F6851B"/>
<path d="M34.479 71.0443L28.3838 68.6569L49.5813 72.2199L34.479 71.0443Z" fill="#C0AD9E"/>
<path fill-rule="evenodd" clip-rule="evenodd" d="M28.3506 68.7411L28.3986 68.5677L49.5961 72.1308L49.5741 72.3101L34.4583 71.1335L28.3506 68.7411ZM29.228 68.8906L34.4992 70.9552L47.5598 71.9719L29.228 68.8906Z" fill="#C0AD9E"/>
<path d="M8.05467 39.6459L4.58203 35.1966L5.90236 33.9125L8.05467 39.6459Z" fill="#763D16"/>
<path fill-rule="evenodd" clip-rule="evenodd" d="M5.93754 33.7513L8.13844 39.6142L7.98249 39.7017L4.45996 35.1884L5.93754 33.7513ZM4.70233 35.205L7.76137 39.1244L5.8654 34.0738L4.70233 35.205Z" fill="#763D16"/>
<path d="M51.9868 69.5793L49.5813 72.2199L28.3838 68.6569L51.9868 69.5793Z" fill="#D7C1B3"/>
<path fill-rule="evenodd" clip-rule="evenodd" d="M28.3691 68.746L28.3877 68.5664L52.1849 69.4964L49.6153 72.3172L28.3691 68.746ZM29.7965 68.8025L49.548 72.1225L51.7894 69.662L29.7965 68.8025Z" fill="#D7C1B3"/>
<path d="M53.1263 63.1043L28.3838 68.6569L34.1715 56.5931L53.1263 63.1043Z" fill="#E4761B"/>
<path fill-rule="evenodd" clip-rule="evenodd" d="M34.1249 56.4814L53.458 63.1226L28.2217 68.786L34.1249 56.4814ZM34.2184 56.7048L28.5461 68.5278L52.7949 63.086L34.2184 56.7048Z" fill="#E4761B"/>
<path d="M28.3838 68.657L53.1263 63.1044L51.9868 69.5794L28.3838 68.657Z" fill="#D7C1B3"/>
<path fill-rule="evenodd" clip-rule="evenodd" d="M53.2381 62.9862L52.0615 69.6726L28.3796 68.7471L28.3633 68.5685L53.2381 62.9862ZM29.0783 68.5934L51.9107 69.4857L53.013 63.2221L29.0783 68.5934Z" fill="#D7C1B3"/>
<path d="M4.16644 26.3521L3.35254 12.4435L20.8423 16.3683L4.16644 26.3521ZM5.90275 33.9123L3.49723 31.4706L5.12503 29.8066L5.90275 33.9123Z" fill="#763D16"/>
<path fill-rule="evenodd" clip-rule="evenodd" d="M3.25488 12.329L21.0826 16.3296L4.08451 26.5063L3.25488 12.329ZM3.44946 12.558L4.24763 26.1979L20.6013 16.407L3.44946 12.558ZM5.18125 29.6195L6.04656 34.1875L3.37014 31.4708L5.18125 29.6195ZM3.62359 31.4704L5.75821 33.6371L5.06807 29.9938L3.62359 31.4704Z" fill="#763D16"/>
<path d="M39.1816 46.5008L43.233 42.9197L42.6543 51.6736L39.1816 46.5008Z" fill="#CD6116"/>
<path fill-rule="evenodd" clip-rule="evenodd" d="M43.3369 42.7063L42.7261 51.9441L39.0615 46.4854L43.3369 42.7063ZM39.2999 46.5161L42.5806 51.4029L43.1274 43.1328L39.2999 46.5161Z" fill="#CD6116"/>
<path d="M43.2328 42.9197L39.1814 46.5008L33.2852 49.5575L43.2328 42.9197Z" fill="#CD6116"/>
<path fill-rule="evenodd" clip-rule="evenodd" d="M34.6991 48.7221L39.1293 46.4255L42.1733 43.7347L34.6991 48.7221ZM33.2344 49.482L43.182 42.8442L43.2921 42.9872L39.2323 46.5758L33.3262 49.6375L33.2344 49.482Z" fill="#CD6116"/>
<path d="M62.1878 62.0551L61.0845 61.2412L53.1807 50.968L62.1878 62.0551Z" fill="#F6851B"/>
<path fill-rule="evenodd" clip-rule="evenodd" d="M53.1094 51.0233L53.2512 50.9111L62.2584 61.9983L62.1345 62.128L61.021 61.3066L53.1094 51.0233ZM57.4184 56.3274L61.1488 61.1762L61.6696 61.5603L57.4184 56.3274Z" fill="#F6851B"/>
<path d="M33.2855 49.5573L25.1104 42.5397L43.2331 42.9195L33.2855 49.5573Z" fill="#CD6116"/>
<path fill-rule="evenodd" clip-rule="evenodd" d="M24.8594 42.444L43.5219 42.8351L33.278 49.6706L24.8594 42.444ZM25.36 42.6354L33.2917 49.444L42.9431 43.0039L25.36 42.6354Z" fill="#CD6116"/>
<path d="M42.6543 51.6736L43.2331 42.9197L45.4577 48.4542L42.6543 51.6736Z" fill="#E4751F"/>
<path fill-rule="evenodd" clip-rule="evenodd" d="M43.1424 42.9135L43.3165 42.8857L45.5618 48.4716L42.5459 51.935L43.1424 42.9135ZM43.2967 43.3213L42.7618 51.4117L45.3527 48.4363L43.2967 43.3213Z" fill="#E4751F"/>
<path d="M2.7002 27.7268L4.16521 26.3522L5.1238 29.8067L2.7002 27.7268Z" fill="#763D16"/>
<path fill-rule="evenodd" clip-rule="evenodd" d="M4.21297 26.184L5.29099 30.0689L2.56543 27.7298L4.21297 26.184ZM2.83616 27.7238L4.95781 29.5446L4.11865 26.5205L2.83616 27.7238Z" fill="#763D16"/>
<path d="M42.654 51.6735L33.2852 49.5574L39.1814 46.5007L42.654 51.6735Z" fill="#233447"/>
<path fill-rule="evenodd" clip-rule="evenodd" d="M39.2112 46.3833L42.8555 51.8118L33.0234 49.5911L39.2112 46.3833ZM33.5463 49.5237L42.452 51.5353L39.151 46.6182L33.5463 49.5237Z" fill="#233447"/>
<path d="M20.8423 16.3683L3.35254 12.4435L10.4968 0.180786L20.8423 16.3683Z" fill="#763D16"/>
<path fill-rule="evenodd" clip-rule="evenodd" d="M10.4919 0.00744629L21.0354 16.5048L3.21094 12.5049L10.4919 0.00744629ZM10.499 0.35448L3.49156 12.3825L20.6466 16.2322L10.499 0.35448Z" fill="#763D16"/>
<path d="M49.5808 72.2201L50.5756 74.933L34.4785 71.0444L49.5808 72.2201Z" fill="#C0AD9E"/>
<path fill-rule="evenodd" clip-rule="evenodd" d="M34.458 71.1323L34.4863 70.9542L49.6465 72.1344L50.7195 75.0606L34.458 71.1323ZM35.6015 71.2224L50.4332 74.8054L49.5167 72.3057L35.6015 71.2224Z" fill="#C0AD9E"/>
<path d="M34.1714 56.5931L33.2852 49.5574L42.654 51.6735L34.1714 56.5931Z" fill="#F6851B"/>
<path fill-rule="evenodd" clip-rule="evenodd" d="M33.1787 49.4409L42.8982 51.6362L34.0981 56.7399L33.1787 49.4409ZM33.3904 49.6742L34.2435 56.4465L42.4086 51.7111L33.3904 49.6742Z" fill="#F6851B"/>
<path d="M25.1104 42.5397L33.2855 49.5573L34.1718 56.593L25.1104 42.5397Z" fill="#E4751F"/>
<path fill-rule="evenodd" clip-rule="evenodd" d="M25.0342 42.5888L25.1691 42.4712L33.3707 49.5115L34.2613 56.5818L34.0956 56.6421L25.0342 42.5888ZM25.5233 43.0136L34.0322 56.21L33.2 49.6033L25.5233 43.0136Z" fill="#E4751F"/>
<path d="M45.4577 48.454L52.62 48.038L61.0845 61.2413L45.4577 48.454ZM25.1102 42.5397L34.1716 56.593L23.0303 57.1356L25.1102 42.5397Z" fill="#F6851B"/>
<path fill-rule="evenodd" clip-rule="evenodd" d="M25.0554 42.2871L34.333 56.6758L22.9258 57.2314L25.0554 42.2871ZM25.1661 42.7925L23.1357 57.0401L34.0112 56.5104L25.1661 42.7925ZM52.6681 47.9448L61.1612 61.1926L61.0278 61.3114L45.2215 48.3773L52.6681 47.9448ZM45.6949 48.531L60.7015 60.8107L52.5729 48.1315L45.6949 48.531Z" fill="#F6851B"/>
<path d="M45.4577 48.4541L54.3564 62.001L42.6543 51.6735L45.4577 48.4541Z" fill="#E4751F"/>
<path fill-rule="evenodd" clip-rule="evenodd" d="M45.4681 48.3048L54.4322 61.9513L54.2968 62.0688L42.5273 51.6819L45.4681 48.3048ZM42.7817 51.6652L53.9106 61.4868L45.4479 48.6035L42.7817 51.6652Z" fill="#E4751F"/>
<path d="M42.6543 51.6735L54.3564 62.0009L53.1265 63.1042L42.6543 51.6735Z" fill="#F6851B"/>
<path fill-rule="evenodd" clip-rule="evenodd" d="M42.5869 51.7346L42.7134 51.6057L54.4917 62.0004L53.1195 63.2313L42.5869 51.7346ZM43.8712 52.8687L53.132 62.9772L54.2196 62.0015L43.8712 52.8687Z" fill="#F6851B"/>
<path d="M53.1257 63.1043L34.1709 56.5931L42.6535 51.6735L53.1257 63.1043ZM61.0838 61.2413L54.3556 62.001L45.457 48.4541L61.0838 61.2413Z" fill="#F6851B"/>
<path fill-rule="evenodd" clip-rule="evenodd" d="M45.3823 48.5038L45.5152 48.3842L61.3079 61.3072L54.3114 62.0971L45.3823 48.5038ZM45.8578 48.8982L54.4016 61.9049L60.8615 61.1756L45.8578 48.8982ZM42.672 51.5588L53.1933 63.0432L53.0972 63.1898L33.9551 56.6143L42.672 51.5588ZM34.3886 56.572L52.8198 62.9033L42.6369 51.7883L34.3886 56.572Z" fill="#F6851B"/>
<path d="M62.8566 67.6078L59.9628 73.4136L50.5758 74.9329L62.8566 67.6078ZM50.5758 74.9329L49.5811 72.2199L51.9866 69.5792L50.5758 74.9329Z" fill="#C0AD9E"/>
<path fill-rule="evenodd" clip-rule="evenodd" d="M63.0754 67.3722L60.0233 73.4955L50.6486 75.0128L50.5902 75.2342L49.4775 72.1995L51.92 69.5184L52.0743 69.6023L50.72 74.7418L63.0754 67.3722ZM50.562 74.6317L51.8055 69.9126L49.6851 72.2403L50.562 74.6317ZM51.0292 74.768L59.9028 73.3318L62.6384 67.8434L51.0292 74.768Z" fill="#C0AD9E"/>
<path d="M51.9869 69.5792L53.7594 68.8738L50.5762 74.9329L51.9869 69.5792ZM50.5762 74.9329L53.7594 68.8738L62.857 67.6078L50.5762 74.9329Z" fill="#C0AD9E"/>
<path fill-rule="evenodd" clip-rule="evenodd" d="M53.736 68.7858L53.7008 68.7907L53.6948 68.8022L51.911 69.512L50.4912 74.8999L50.3467 75.1749L62.9032 67.6854L62.8444 67.5182L53.9212 68.76L53.9531 68.6994L53.736 68.7858ZM53.5655 69.0483L50.8665 74.1856L52.0626 69.6464L53.5655 69.0483ZM50.8054 74.6907L53.8177 68.957L62.4269 67.7589L50.8054 74.6907Z" fill="#C0AD9E"/>
<path d="M61.0847 61.2413L63.3093 62.5978L56.5449 63.4117L61.0847 61.2413Z" fill="#161616"/>
<path fill-rule="evenodd" clip-rule="evenodd" d="M61.0898 61.1385L63.5791 62.6564L56.5557 63.5014L56.5059 63.3301L61.0898 61.1385ZM57.0796 63.2562L63.0394 62.5391L61.0794 61.344L57.0796 63.2562Z" fill="#161616"/>
<path d="M56.5449 63.4117L54.3564 62.001L61.0847 61.2413L56.5449 63.4117ZM55.7672 64.4788L63.9966 63.4841L62.8572 67.6078L55.7672 64.4788Z" fill="#161616"/>
<path fill-rule="evenodd" clip-rule="evenodd" d="M54.6181 62.0624L56.551 63.3084L60.5605 61.3915L54.6181 62.0624ZM61.074 61.1515L61.1232 61.3229L56.5379 63.5151L54.0938 61.9396L61.074 61.1515ZM64.1192 63.3781L62.9159 67.7328L55.4288 64.4286L64.1192 63.3781ZM56.1045 64.5291L62.7974 67.4828L63.873 63.5901L56.1045 64.5291Z" fill="#161616"/>
<path d="M62.8564 67.6079L53.7588 68.8739L55.7664 64.4789L62.8564 67.6079ZM53.7588 68.8739L51.9863 69.5793L53.1258 63.1043L53.7588 68.8739ZM53.1258 63.1043L54.3557 62.001L56.5442 63.4117L53.1258 63.1043ZM63.3086 62.5978L63.9959 63.4841L55.7664 64.4789L63.3086 62.5978Z" fill="#161616"/>
<path fill-rule="evenodd" clip-rule="evenodd" d="M54.3466 61.8876L56.5931 63.3357L56.536 63.5018L53.2277 63.2042L53.8129 68.5378L55.7212 64.3601L55.7746 64.3836L63.3439 62.4958L64.1651 63.5547L56.1043 64.5291L63.1839 67.6535L53.7821 68.962L51.8691 69.7232L53.0196 63.1855L52.9107 63.1757L54.3466 61.8876ZM53.105 63.7441L52.1035 69.4353L53.6614 68.8153L53.105 63.7441ZM53.9095 68.7616L55.8116 64.5976L62.5288 67.5621L53.9095 68.7616ZM57.2004 64.2144L63.8266 63.4134L63.2732 62.6999L57.2004 64.2144ZM53.3408 63.0328L56.1865 63.2888L54.3647 62.1144L53.3408 63.0328Z" fill="#161616"/>
<path d="M55.7666 64.4788L56.5443 63.4117L63.3087 62.5978L55.7666 64.4788ZM53.126 63.1042L55.7666 64.4788L53.759 68.8738L53.126 63.1042Z" fill="#161616"/>
<path fill-rule="evenodd" clip-rule="evenodd" d="M56.5942 63.4968L55.9864 64.3308L61.881 62.8607L56.5942 63.4968ZM55.7393 64.3627L56.4944 63.3267L63.2979 62.5081L63.3306 62.6856L55.8307 64.556L53.7049 69.21L53.0176 62.9459L55.7393 64.3627ZM55.6316 64.5105L53.2343 63.2626L53.8131 68.5378L55.6063 64.612L55.5468 64.6269L55.6316 64.5105Z" fill="#161616"/>
<path d="M56.5443 63.4118L55.7666 64.479L53.126 63.1044L56.5443 63.4118Z" fill="#161616"/>
<path fill-rule="evenodd" clip-rule="evenodd" d="M53.085 63.1844L53.1348 63.0142L56.7122 63.3359L55.7946 64.595L53.085 63.1844ZM53.5743 63.2353L55.7401 64.3627L56.378 63.4875L53.5743 63.2353Z" fill="#161616"/>
</g>
<defs>
<clipPath id="clip0">
<rect width="73.0816" height="76" fill="white"/>
</clipPath>
</defs>
</svg>
