<svg xmlns="http://www.w3.org/2000/svg" width="74" height="76" fill="none" xmlns:v="https://vecta.io/nano"><style><![CDATA[.B{fill-rule:evenodd}.C{fill:#763d16}.D{fill:#f6851b}.E{fill:#cd6116}.F{fill:#e4761b}.G{fill:#c0ad9e}.H{fill:#e4751f}.I{fill:#e2761b}]]></style><g clip-path="url(#A)"><g class="F"><path d="M69.259 52.614l-4.413 14.922-8.664-2.369 13.077-12.552z"/><path d="M69.443 52.313l-4.535 15.334-8.903-2.435 13.438-12.899zM56.36 65.121l8.424 2.304 4.291-14.509L56.36 65.121z" class="B"/><path d="M56.183 65.166l8.356-11.449 4.721-1.103-13.077 12.552z"/><path d="M69.56 52.451L56.245 65.231l-.136-.119 8.376-11.476 5.074-1.186zm-4.968 1.347l-7.73 10.591 12.097-11.611-4.367 1.021z" class="B"/></g><g class="D"><path d="M62.767 41.364l6.493 11.25-4.721 1.103-1.773-12.353zm0 0l4.178-2.894 2.315 14.144-6.493-11.25z"/><path d="M67.011 38.315l2.336 14.269.053.091-4.935 1.154-1.784-12.434-.033-.057 4.364-3.023zm-4.088 3.501l6.198 10.738-4.506 1.053-1.692-11.791zM69.09 52.14l-6.204-10.749 3.992-2.765L69.09 52.14z" class="B"/></g><g class="C"><path d="M57.449 32.863l12.01-4.92-.597 2.695-11.413 2.225zm11.033 1.013l-11.033-1.013 11.413-2.225-.38 3.238z"/><path d="M69.584 27.795l-.633 2.859-.39 3.321-11.121-1.021-.005-.104-.021-.069 12.169-4.985zm-11.251 4.804l10.453-2.038.547-2.468-11 4.506zm-.246.232l10.67-2.08-.355 3.027-10.315-.947z" class="B"/><path d="M68.482 33.876l-1.537 4.594-9.495-5.607 11.033 1.013zm2.406-4.793l-2.026 1.555.597-2.695 1.429 1.14zm-2.406 4.793l.38-3.238 1.61 1.338-1.989 1.899z"/><path d="M69.402 27.783l1.633 1.302-2.028 1.557 1.601 1.331-2.047 1.954-1.566 4.679-9.592-5.664.054-.168 10.945 1.005.345-2.937-.027.021.053-.238.019-.161.014.012.596-2.692zm-.469 3.032l-.331 2.823 1.735-1.656-1.403-1.167zm.072-.399l1.737-1.334-1.225-.977-.512 2.311zm-.644 3.54l-10.518-.966 9.052 5.345 1.466-4.38z" class="B"/></g><g class="I"><path d="M46.868 61.531l3.002.959 6.312 2.677-9.315-3.635z"/><path d="M46.835 61.615l.06-.17 3.006.96 6.316 2.679-.068.167-9.315-3.635zm2.737.874l.829.324-.562-.238-.267-.085z" class="B"/></g><g class="C"><path d="M66.944 38.47l1.537-4.594 1.32 1.013-2.858 3.581zm0 0l-12.462-4.106 2.966-1.501 9.496 5.607z"/><path d="M57.452 32.76l9.442 5.575 1.542-4.608 1.494 1.146-2.915 3.653-.069-.037-.03.067-12.669-4.174 3.205-1.622zm9.74 5.254l2.482-3.11-1.147-.88-1.335 3.989zm-1.015.108l-11.459-3.775 2.728-1.38 8.732 5.156z" class="B"/><path d="M60.415 18.774l-2.966 14.089-2.966 1.501 5.932-15.591z"/><path d="M54.651 34.179l2.719-1.376 2.719-12.915-5.438 14.292zm5.68-15.437l.173.051-2.975 14.132-3.213 1.626 6.016-15.809z" class="B"/><path d="M69.459 27.944l-12.01 4.92 2.966-14.089 9.043 9.17z"/><path d="M60.361 18.591l9.256 9.386-12.292 5.035 3.036-14.421zm.108.367l-2.896 13.758 11.727-4.804-8.83-8.954z" class="B"/><path d="M60.415 18.774l12.534-1.447-3.491 10.617-9.043-9.17z"/><path d="M73.079 17.221l-3.581 10.892-9.278-9.407 12.859-1.485zM60.61 18.843l8.809 8.932 3.4-10.342-12.209 1.41z" class="B"/></g><g class="D"><path d="M66.944 38.47l-4.178 2.894-8.284-6.999 12.462 4.106z"/><path d="M54.424 34.434l.087-.155 12.634 4.163-4.384 3.037-8.337-7.044zm.473.163l7.875 6.654 3.972-2.751-11.846-3.903z" class="B"/></g><g class="C"><path d="M72.407 7.18l.543 10.147-12.534 1.447L72.407 7.18z"/><path d="M72.487 6.978l.558 10.43-12.884 1.487L72.487 6.978zM60.671 18.654l12.185-1.407-.528-9.864-11.657 11.27z" class="B"/></g><g class="I"><path d="M72.407 7.18l-25.05 18.213-.326-12.353 25.376-5.86z"/><path d="M47.123 13.112l.319 12.108L71.994 7.368l-24.871 5.743zm25.263-6.02l.074.161-25.189 18.314-.332-12.599 25.447-5.877z" class="B"/></g><g class="D"><path d="M28.402 11.557l18.629 1.483.326 12.353-18.955-13.836z"/><path d="M28.09 11.442l19.029 1.515.333 12.618L28.09 11.442zm.623.231l18.548 13.539-.319-12.088-18.229-1.451z" class="B"/></g><g class="C"><path d="M54.483 34.365l-7.126-8.971 13.059-6.62-5.932 15.591z"/><path d="M60.583 18.588l-6.072 15.958-7.294-9.182 13.366-6.776zm-13.086 6.837l6.958 8.76 5.793-15.224-12.751 6.464z" class="B"/></g><g class="F"><path d="M54.483 34.365l8.284 7-11.63 1.284 3.346-8.284z"/><path d="M54.446 34.215l8.54 7.216-11.989 1.324 3.45-8.54zm.074.299l-3.242 8.027 11.27-1.244-8.027-6.783z" class="B"/><path d="M51.137 42.648l-3.78-17.255 7.126 8.971-3.346 8.284z"/><path d="M47.268 25.413l.159-.076 7.159 9.012-3.475 8.604-3.843-17.54zm.26.342l3.634 16.588 3.217-7.964-6.851-8.624z" class="B"/></g><g class="C"><path d="M60.415 18.774l-13.059 6.62L72.406 7.18 60.415 18.774z"/><path d="M48.325 24.801L60.362 18.7 71.416 8.013 48.325 24.801zm-1.022.519l25.05-18.213.116.138-12.001 11.603-13.071 6.626-.094-.154z" class="B"/></g><g class="G"><path d="M28.565 64.877l5.914 6.168-8.048-7.325 2.134 1.158z"/><path d="M26.369 63.786l.104-.146 2.147 1.164 5.924 6.178-.126.129-8.049-7.325zm.673.368l5.53 5.033-4.064-4.238-1.466-.795z" class="B"/></g><g class="E"><path d="M56.183 65.166l2.803-10.653 5.553-.796-8.356 11.449z"/><path d="M64.739 53.597l-8.482 11.622-.16-.076 2.819-10.711 5.824-.835zm-5.68.997l-2.666 10.132 7.947-10.889-5.281.757z" class="B"/></g><path d="M4.582 35.197l10.237-10.762-8.917 9.477-1.32 1.284z" class="I"/><g class="D"><path d="M64.539 53.717l-5.553.796 3.78-13.149 1.772 12.353zM47.357 25.394l-9.966-.325-8.989-13.511 18.955 13.836z"/><path d="M28.326 11.607l.129-.123 19.192 14.009-10.306-.337-9.015-13.549zm.431.322l8.682 13.05 9.626.315-18.308-13.365zm30.354 42.475l5.325-.763-1.7-11.846-3.625 12.609zm3.568-13.065l.177.012 1.785 12.443-5.781.828 3.819-13.283z" class="B"/></g><g class="H"><path d="M62.766 41.364l-3.78 13.149-.307-6.421 4.088-6.728z"/><path d="M58.77 48.116l.28 5.847 3.442-11.974-3.722 6.127zm3.919-6.798l.164.072-3.78 13.149-.177-.021-.309-6.448 4.102-6.752z" class="B"/></g><g class="E"><path d="M51.137 42.648l11.63-1.284-4.088 6.728-7.542-5.444z"/><path d="M62.939 41.254l-4.234 6.969-7.812-5.639 12.046-1.33zM51.38 42.712l7.272 5.249 3.941-6.488-11.214 1.238z" class="B"/></g><g class="D"><path d="M37.391 25.068l9.966.326 3.78 17.255-13.746-17.58z"/><path d="M37.201 24.971l10.229.334 3.795 17.323-.16.075-13.865-17.733zm.381.193L50.964 42.28l-3.68-16.798-9.702-.317z" class="B"/></g><g class="F"><path d="M37.391 25.068L10.496.181l17.906 11.377 8.989 13.511zm-9.007 43.589L5.016 75.891.35 58.076l28.034 10.581z"/><path d="M10.435.247l.11-.143 17.922 11.387 9 13.527-.137.116L10.435.247zm.856.545l25.605 23.693-8.558-12.863L11.291.793zM.218 57.93l28.445 10.736-23.71 7.34L.218 57.93zm.264.293l4.598 17.554 23.026-7.129L.481 58.223z" class="B"/></g><g class="C"><path d="M8.054 39.646l8.826-6.927 7.397 1.718-16.224 5.209z"/><path d="M16.859 32.621l7.759 1.802-16.535 5.309-.083-.157 8.86-6.954zm.043.196l-8.395 6.589 15.432-4.955-7.036-1.634z" class="B"/><path d="M24.278 34.437l-7.397-1.718 3.961-16.35 3.437 18.069z"/><path d="M16.99 32.651l7.173 1.666-3.332-17.521-3.841 15.855zm3.764-16.304l.177.004 3.462 18.205-7.622-1.77 3.982-16.439z" class="B"/><path d="M5.902 33.912l10.979-1.194-8.826 6.927-2.152-5.733z"/><path d="M17.185 32.595l-9.172 7.199-2.237-5.958 11.409-1.24zM6.028 33.99l2.068 5.509 8.48-6.656L6.028 33.99z" class="B"/></g><g class="E"><path d="M58.679 48.092l-4.558-2.297-2.984-3.147 7.542 5.444z"/><path d="M51.071 42.711l.118-.136 7.542 5.444-.094.154-4.572-2.304-2.995-3.158zm.796.576l2.309 2.435 3.526 1.777-5.835-4.212z" class="B"/></g><g class="C"><path d="M5.902 33.913l-.778-4.106 11.756 2.912-10.979 1.194z"/><path d="M5.009 29.685l11.893 2.946-.012.178-11.062 1.203-.82-4.326zm.23.243l.736 3.885 10.389-1.13-11.125-2.756z" class="B"/></g><g fill="#233447"><path d="M53.181 50.968l.941-5.173 4.558 2.297-5.498 2.876z"/><path d="M54.054 45.66l4.823 2.431-5.818 3.043.995-5.474zm.135.27l-.886 4.872 5.178-2.708-4.293-2.163z" class="B"/></g><g class="D"><path d="M58.987 54.513l-5.806-3.545 5.498-2.876.307 6.421z"/><path d="M58.763 47.947l.322 6.733-6.088-3.717 5.765-3.016zm-5.398 3.028l5.524 3.373-.293-6.109-5.231 2.736z" class="B"/></g><g class="C"><path d="M16.881 32.719L5.125 29.807l-.959-3.455 12.715 6.366zm3.961-16.35l-3.961 16.35-12.715-6.366 16.676-9.984zm0 0l16.549 8.7-13.113 9.369-3.436-18.069z"/><path d="M20.703 16.557L4.353 26.345l12.466 6.242 3.883-16.03zm-4.59 15.879L4.307 26.524l.89 3.207 10.915 2.704zM4.06 26.31l-.082.049.111.056.962 3.467 11.798 2.922.093.046 3.889-16.054 3.385 17.796 13.347-9.536-16.617-8.735.034-.141-.142.085-.121-.064.023.122-16.579 9.926-.138-.069.036.13zm16.905-9.774l3.375 17.746 12.878-9.201-16.253-8.544z" class="B"/></g><g class="F"><path d="M24.278 34.437l13.113-9.369 5.842 17.852-18.955-8.483zm18.955 8.483l-18.123-.38-.832-8.103 18.955 8.483z"/><path d="M37.438 24.923l5.944 18.163-.17-.076-18.184-.381-.835-8.13-.096-.043.086-.061-.011-.103.096.043 13.171-9.41zm-13.054 9.661l18.405 8.236-17.597-.369-.808-7.868zm18.699 8.17l-18.624-8.335 12.884-9.206 5.74 17.54z" class="B"/></g><g class="D"><path d="M8.054 39.646l16.224-5.209.832 8.103-17.056-2.894zm43.082 3.002l-7.904.271-5.842-17.851 13.746 17.58z"/><path d="M37.305 25.096l.157-.084 13.855 17.72-8.149.28-5.863-17.916zm.332.434l5.66 17.297 7.658-.263L37.637 25.53zm-13.28 8.787l.855 8.332-17.173-2.914-.013-.175 16.33-5.243zM8.434 39.619l16.573 2.812-.808-7.874-15.765 5.062z" class="B"/></g><g class="E"><path d="M54.121 45.795l-.941 5.173-2.044-8.32 2.984 3.147z"/><path d="M50.968 42.338l3.251 3.428-.949 5.218-.177.005-2.125-8.651zm.339.62l1.861 7.577.856-4.711-2.718-2.866z" class="B"/></g><g class="C"><path d="M10.496.181l26.895 24.887-16.549-8.7L10.496.181z"/><path d="M10.42.23l.138-.115 26.895 24.887-.103.146-16.57-8.711L10.42.23zm.532.496L20.905 16.3l15.922 8.37L10.952.726z" class="B"/></g><g class="F"><path d="M.35 58.076l22.681-.941 5.354 11.521L.35 58.076z"/><path d="M23.087 57.043l5.473 11.777L.317 58.161l.028-.175 22.741-.943zM.796 58.148l27.412 10.346-5.235-11.265-22.177.92z" class="B"/></g><g class="E"><path d="M28.384 68.657L23.03 57.136l11.141-.543-5.788 12.064z"/><path d="M34.319 56.495l-5.936 12.373-5.491-11.817 11.427-.557zm-11.15.724l5.216 11.226 5.639-11.754-10.855.529z" class="B"/></g><g class="D"><path d="M53.181 50.968l5.806 3.545 3.201 7.542-9.007-11.087zM25.11 42.54L.35 58.076l7.705-18.43L25.11 42.54zm-2.08 14.596L.35 58.076 25.11 42.54l-2.08 14.596zm28.107-14.487l1.483 5.39-7.162.416 5.679-5.806zm-5.679 5.806l-2.225-5.535 7.904-.271-5.679 5.806z"/><path d="M7.999 39.545l17.093 2.9.136-.085-.015.106.147.025-.165.104-2.085 14.629-22.732.943-.221.139.055-.132-.198.008.264-.166 7.722-18.47zm.111.202L.543 57.848l24.318-15.259L8.11 39.747zm16.883 2.973L.686 57.972l22.265-.923 2.042-14.328zm26.245-.046l.121-.124-.154.005-.023-.083-.085.087-7.997.274 2.251 5.599-.122.125.168-.01.027.068.072-.074 7.239-.42-1.499-5.448zm-7.873.331l2.125 5.286 5.424-5.545-7.549.259zm7.726-.181l-5.406 5.526 6.817-.396-1.412-5.13zm2.019 8.201l.117-.134 5.831 3.56 3.213 7.569-.153.092-9.007-11.087zm.472.294l8.272 10.182-2.94-6.927-5.332-3.256z" class="B"/></g><g class="G"><path d="M34.479 71.044l-6.095-2.387 21.197 3.563-15.102-1.176z"/><path d="M28.351 68.741l.048-.173 21.198 3.563-.022.179-15.116-1.177-6.108-2.392zm.877.15l5.271 2.065 13.061 1.017-18.332-3.081z" class="B"/></g><g class="C"><path d="M8.055 39.646l-3.473-4.449 1.32-1.284 2.152 5.733z"/><path d="M5.938 33.751l2.201 5.863-.156.088-3.523-4.513 1.478-1.437zm-1.235 1.454l3.059 3.919-1.896-5.051-1.163 1.131z" class="B"/></g><g fill="#d7c1b3"><path d="M51.987 69.579l-2.406 2.641-21.197-3.563 23.603.922z"/><path d="M28.369 68.746l.019-.18 23.797.93-2.57 2.821-21.246-3.571zm1.427.056l19.752 3.32 2.241-2.46-21.993-.86z" class="B"/></g><g class="F"><path d="M53.126 63.104l-24.742 5.553 5.788-12.064 18.955 6.511z"/><path d="M34.125 56.481l19.333 6.641-25.236 5.663 5.903-12.305zm.094.223l-5.672 11.823 24.249-5.442-18.576-6.381z" class="B"/></g><g fill="#d7c1b3"><path d="M28.384 68.657l24.743-5.553-1.139 6.475-23.603-.922z"/><path d="M53.238 62.986l-1.177 6.686-23.682-.925-.016-.179 24.875-5.582zm-24.16 5.607l22.832.892 1.102-6.264-23.935 5.371z" class="B"/></g><g class="C"><path d="M4.166 26.352l-.814-13.909 17.49 3.925-16.676 9.984zm1.736 7.56l-2.406-2.442 1.628-1.664.778 4.106z"/><path d="M3.255 12.329l17.828 4.001L4.085 26.506l-.83-14.177zm.195.229l.798 13.64 16.354-9.791-17.152-3.849zM5.181 29.62l.865 4.568-2.676-2.717 1.811-1.851zM3.624 31.47l2.135 2.167-.69-3.643-1.444 1.477z" class="B"/></g><g class="E"><path d="M39.182 46.501l4.051-3.581-.579 8.754-3.473-5.173z"/><path d="M43.337 42.706l-.611 9.238-3.665-5.459 4.275-3.779zm-4.037 3.81l3.281 4.887.547-8.27-3.828 3.383z" class="B"/><path d="M43.233 42.92l-4.051 3.581-5.896 3.057 9.948-6.638z"/><path d="M34.699 48.722l4.43-2.297 3.044-2.691-7.474 4.987zm-1.465.76l9.948-6.638.11.143-4.06 3.589-5.906 3.062-.092-.156z" class="B"/></g><g class="D"><path d="M62.188 62.055l-1.103-.814-7.904-10.273 9.007 11.087z"/><path d="M53.109 51.023l.142-.112 9.007 11.087-.124.13-1.114-.821-7.912-10.283zm4.309 5.304l3.73 4.849.521.384-4.251-5.233z" class="B"/></g><g class="E"><path d="M33.286 49.557L25.11 42.54l18.123.38-9.948 6.638z"/><path d="M24.859 42.444l18.663.391-10.244 6.836-8.419-7.227zm.501.191l7.932 6.809 9.651-6.44-17.583-.369z" class="B"/></g><g class="H"><path d="M42.654 51.674l.579-8.754 2.225 5.535-2.803 3.219z"/><path d="M43.142 42.914l.174-.028 2.245 5.586-3.016 3.463.596-9.022zm.154.408l-.535 8.09 2.591-2.975-2.056-5.115z" class="B"/></g><g class="C"><path d="M2.7 27.727l1.465-1.375.959 3.454-2.424-2.08z"/><path d="M4.213 26.184l1.078 3.885-2.726-2.339 1.648-1.546zm-1.377 1.54l2.122 1.821-.839-3.024-1.282 1.203z" class="B"/></g><g fill="#233447"><path d="M42.654 51.674l-9.369-2.116 5.896-3.057 3.473 5.173z"/><path d="M39.211 46.383l3.644 5.429-9.832-2.221 6.188-3.208zm-5.665 3.14l8.906 2.012-3.301-4.917-5.605 2.905z" class="B"/></g><g class="C"><path d="M20.842 16.368l-17.49-3.925L10.497.181l10.346 16.188z"/><path d="M10.492.007l10.544 16.497-17.824-4L10.492.007zm.007.347L3.492 12.383l17.155 3.85L10.499.354z" class="B"/></g><g class="G"><path d="M49.581 72.22l.995 2.713-16.097-3.889 15.102 1.176z"/><path d="M34.458 71.132l.028-.178 15.16 1.18 1.073 2.926-16.261-3.928zm1.144.09l14.832 3.583-.916-2.5-13.915-1.083z" class="B"/></g><g class="D"><path d="M34.171 56.593l-.886-7.036 9.369 2.116-8.483 4.92z"/><path d="M33.179 49.441l9.72 2.195-8.8 5.104-.919-7.299zm.212.233l.853 6.772 8.165-4.735-9.018-2.037z" class="B"/></g><g class="H"><path d="M25.11 42.54l8.175 7.018.886 7.036L25.11 42.54z"/><path d="M25.034 42.589l.135-.118 8.202 7.04.891 7.07-.166.06-9.061-14.053zm.489.425l8.509 13.196-.832-6.607-7.677-6.59z" class="B"/></g><g class="D"><path d="M45.458 48.454l7.162-.416 8.465 13.203-15.627-12.787zM25.11 42.54l9.061 14.053-11.141.543 2.08-14.596z"/><path d="M25.055 42.287l9.278 14.389-11.407.556 2.13-14.944zm.111.505l-2.03 14.248 10.876-.53-8.845-13.718zm27.502 5.152l8.493 13.248-.133.119-15.806-12.934 7.447-.432zm-6.973.586l15.007 12.28-8.129-12.679-6.878.399z" class="B"/></g><g class="H"><path d="M45.458 48.454l8.899 13.547-11.702-10.327 2.803-3.219z"/><path d="M45.468 48.305l8.964 13.647-.135.117-11.769-10.387 2.941-3.377zm-2.686 3.36l11.129 9.822-8.463-12.883-2.666 3.062z" class="B"/></g><g class="D"><path d="M42.654 51.674l11.702 10.327-1.23 1.103-10.472-11.431z"/><path d="M42.587 51.735l.127-.129L54.492 62l-1.372 1.231-10.533-11.497zm1.284 1.134l9.261 10.109 1.088-.976-10.348-9.133z" class="B"/><path d="M53.126 63.104l-18.955-6.511 8.483-4.92 10.472 11.431zm7.958-1.863l-6.728.76-8.899-13.547 15.627 12.787z"/><path d="M45.382 48.504l.133-.12 15.793 12.923-6.996.79-8.929-13.593zm.475.394l8.544 13.007 6.46-.729-15.004-12.277zm-3.186 2.661l10.521 11.484-.096.147-19.142-6.575 8.717-5.056zm-8.283 5.013l18.431 6.331-10.183-11.115-8.248 4.784z" class="B"/></g><g class="G"><path d="M62.857 67.608l-2.894 5.806-9.387 1.519 12.281-7.325zm-12.281 7.325l-.995-2.713 2.406-2.641-1.411 5.354z"/><path d="M63.075 67.372l-3.052 6.123-9.375 1.517-.058.221-1.113-3.035 2.443-2.681.154.084-1.354 5.139 12.355-7.37zm-12.513 7.259l1.244-4.719-2.12 2.328.877 2.391zm.467.136l8.874-1.436 2.736-5.488-11.609 6.925z" class="B"/><path d="M51.987 69.579l1.773-.705-3.183 6.059 1.411-5.354zm-1.411 5.354l3.183-6.059 9.098-1.266-12.281 7.325z"/><path d="M53.736 68.786l-.035.005-.006.011-1.784.71-1.42 5.388-.145.275 12.557-7.489-.059-.167-8.923 1.242.032-.061-.217.086zm-.17.263l-2.699 5.137 1.196-4.539 1.503-.598zm-2.76 5.642l3.012-5.734 8.609-1.198-11.622 6.932z" class="B"/></g><g fill="#161616"><path d="M61.085 61.241l2.225 1.356-6.764.814 4.54-2.17z"/><path d="M61.09 61.139l2.489 1.518-7.023.845-.05-.171 4.584-2.192zm-4.01 2.118l5.96-.717-1.96-1.195-4 1.912z" class="B"/><path d="M56.545 63.412l-2.188-1.411 6.728-.76-4.54 2.17zm-.778 1.067l8.229-.995-1.139 4.124-7.09-3.129z"/><path d="M54.618 62.062l1.933 1.246 4.009-1.917-5.942.671zm6.456-.911l.049.171-4.585 2.192-2.444-1.575 6.98-.788zm3.045 2.227l-1.203 4.355-7.487-3.304 8.69-1.05zm-8.015 1.151l6.693 2.954 1.076-3.893-7.768.939z" class="B"/><path d="M62.856 67.608l-9.098 1.266 2.008-4.395 7.09 3.129zm-9.098 1.266l-1.773.705 1.139-6.475.633 5.77zm-.633-5.77l1.23-1.103 2.188 1.411-3.418-.307zm10.183-.507l.687.886-8.23.995 7.542-1.881z"/><path d="M54.347 61.888l2.246 1.448-.057.166-3.308-.298.585 5.334 1.908-4.178.053.023 7.569-1.888.821 1.059-8.061.974 7.08 3.124-9.402 1.309-1.913.761 1.15-6.538-.109-.01 1.436-1.288zm-1.242 1.857l-1.001 5.691 1.558-.62-.556-5.071zm.805 5.017l1.902-4.164 6.717 2.965-8.619 1.2zm3.291-4.547l6.626-.801-.553-.714-6.073 1.514zm-3.86-1.182l2.846.256-1.822-1.174-1.024.918z" class="B"/><path d="M55.767 64.479l.778-1.067 6.764-.814-7.542 1.881zm-2.641-1.375l2.641 1.375-2.008 4.395-.633-5.77z"/><path d="M56.594 63.497l-.608.834 5.895-1.47-5.287.636zm-.855.866l.755-1.036 6.804-.819.033.178-7.5 1.87-2.126 4.654-.687-6.264 2.722 1.417zm-.108.148l-2.397-1.248.579 5.275 1.793-3.926-.059.015.085-.116z" class="B"/><path d="M56.544 63.412l-.778 1.067-2.641-1.375 3.418.307z"/><path d="M53.085 63.184l.05-.17 3.577.322-.918 1.259-2.71-1.411zm.489.051l2.166 1.127.638-.875-2.804-.252z" class="B"/></g></g><defs><clipPath id="A"><path fill="#fff" d="M0 0h73.082v76H0z"/></clipPath></defs></svg>