<svg width="96" height="96" viewBox="0 0 96 96" fill="none" xmlns="http://www.w3.org/2000/svg">
<path d="M86.3996 48C86.3996 60.3475 80.5706 71.3346 71.5145 78.3595C65.0179 83.4001 56.8598 86.4 47.9996 86.4C39.2194 86.4 31.1287 83.4534 24.6602 78.4942C15.5038 71.4772 9.59961 60.4275 9.59961 48C9.59961 26.7922 26.7919 9.59998 47.9996 9.59998C69.2074 9.59998 86.3996 26.7922 86.3996 48Z" fill="#F2F2F2"/>
<path d="M76 27.2L71.5872 78.3156C65.0477 83.3837 56.8358 86.3999 47.9172 86.3999C39.079 86.3999 30.935 83.4373 24.4238 78.4511L20 27.2H76Z" fill="#E64C18"/>
<path d="M48 32V85.6L66.3146 80.3729L70.4 32H48Z" fill="#F36518"/>
<path d="M30.4004 39.2L32.2198 60.4209H56.4031L55.6119 69.1868L48.0005 71.2171L40.0731 69.0297L39.874 63.5644H32.4896L33.414 74.3395L48.0005 78.3999L62.5867 74.3395L64.3944 53.256H38.9268L38.2948 46.3846L38.2946 46.3843L64.9965 46.2465L65.6004 39.2H30.4004Z" fill="white"/>
<path d="M32.0776 12V15.6281H28.7216V12H25.5996V22.4H28.7216V19.014H32.0776V22.4H35.1996V12H32.0776Z" fill="black"/>
<path d="M47.1998 12H36.7998V15.6001H40.1819V22.4H43.8177V15.6001H47.1998V12Z" fill="black"/>
<path d="M65.6767 19.0943V12H62.4004V19.0943V22.4H65.6767H70.4004V19.0943H65.6767Z" fill="black"/>
<path d="M56.7011 12L54.3999 15.7084L52.0984 12H48.7998V22.4H52.0984V17.2401L54.3999 20.9489L56.7011 17.2401V22.4H59.9998V12H56.7011Z" fill="black"/>
</svg>
