<svg xmlns="http://www.w3.org/2000/svg" width="96" height="96" fill="none" xmlns:v="https://vecta.io/nano"><path d="M86.4 48c0 12.347-5.829 23.335-14.885 30.359C65.018 83.4 56.86 86.4 48 86.4c-8.78 0-16.871-2.947-23.339-7.906C15.504 71.477 9.6 60.428 9.6 48 9.6 26.792 26.792 9.6 48 9.6S86.4 26.792 86.4 48z" fill="#f2f2f2"/><path d="M76 27.2l-4.413 51.116c-6.539 5.068-14.751 8.084-23.67 8.084-8.838 0-16.982-2.963-23.493-7.949L20 27.2h56z" fill="#e64c18"/><path d="M48 32v53.6l18.315-5.227L70.4 32H48z" fill="#f36518"/><path d="M30.4 39.2l1.819 21.221h24.183l-.791 8.766-7.611 2.03-7.927-2.187-.199-5.465H32.49l.924 10.775 14.587 4.06 14.586-4.06 1.808-21.083H38.927l-.632-6.871h0l26.702-.138.604-7.046H30.4z" fill="#fff"/><path d="M32.078 12v3.628h-3.356V12H25.6v10.4h3.122v-3.386h3.356V22.4H35.2V12h-3.122zM47.2 12H36.8v3.6h3.382v6.8h3.636v-6.8H47.2V12zm18.477 7.094V12H62.4v7.094V22.4h3.276H70.4v-3.306h-4.724zM56.701 12L54.4 15.708 52.098 12H48.8v10.4h3.299v-5.16l2.302 3.709 2.301-3.709v5.16H60V12h-3.299z" fill="#000"/></svg>