<svg xmlns="http://www.w3.org/2000/svg" width="97" height="96" fill="none" xmlns:v="https://vecta.io/nano"><path d="M86.492 10.4H10.509v75.2h75.983V10.4z" fill="#f7df1e"/><path d="M61.777 69.434c1.532 2.474 3.525 4.293 7.049 4.293 2.961 0 4.852-1.464 4.852-3.487 0-2.424-1.943-3.282-5.203-4.693l-1.787-.758c-5.157-2.173-8.582-4.896-8.582-10.651 0-5.302 4.084-9.338 10.465-9.338 4.543 0 7.81 1.564 10.164 5.66l-5.565 3.535c-1.225-2.173-2.547-3.029-4.599-3.029-2.093 0-3.42 1.313-3.42 3.029 0 2.121 1.328 2.979 4.394 4.293l1.786.757c6.072 2.576 9.5 5.201 9.5 11.105 0 6.364-5.054 9.851-11.841 9.851-6.637 0-10.924-3.128-13.022-7.229l5.807-3.337zm-25.244.613c1.123 1.97 2.144 3.636 4.599 3.636 2.348 0 3.829-.909 3.829-4.442V45.204h7.146v24.132c0 7.32-4.338 10.651-10.67 10.651-5.722 0-9.035-2.929-10.72-6.457l5.817-3.484z" fill="#000"/></svg>