<svg xmlns="http://www.w3.org/2000/svg" xmlns:xlink="http://www.w3.org/1999/xlink" width="1562" height="854" fill="none" xmlns:v="https://vecta.io/nano"><style><![CDATA[.B{fill-rule:evenodd}.C{opacity:.5}.D{fill-opacity:.78}.E{fill:#ff6b00}]]></style><use xlink:href="#T" fill="url(#A)"/><use xlink:href="#T" opacity=".063" fill="#6d6d6d"/><path d="M1380.38 255.866c65.46 0 118.54-53.061 118.54-118.515s-53.08-118.515-118.54-118.515c-65.47 0-118.54 53.061-118.54 118.515s53.07 118.515 118.54 118.515z" fill="url(#B)"/><g fill="#fff"><path d="M1308.44 174l-2.03-2.925h-.12-2.11V174h-2.43v-10.5h4.54c.93 0 1.74.155 2.42.465.69.31 1.22.75 1.59 1.32s.55 1.245.55 2.025-.19 1.455-.57 2.025c-.37.56-.9.99-1.59 1.29l2.36 3.375h-2.61zm-.05-6.69c0-.59-.19-1.04-.57-1.35-.38-.32-.93-.48-1.66-.48h-1.98v3.66h1.98c.73 0 1.28-.16 1.66-.48s.57-.77.57-1.35z"/><use xlink:href="#U"/><path d="M1336.89 163.5V174h-1.99l-5.24-6.375V174h-2.4v-10.5h2.01l5.22 6.375V163.5h2.4zm3.99 0h4.77c1.14 0 2.14.22 3.01.66.88.43 1.56 1.04 2.04 1.83.49.79.74 1.71.74 2.76s-.25 1.97-.74 2.76c-.48.79-1.16 1.405-2.04 1.845-.87.43-1.87.645-3.01.645h-4.77v-10.5zm4.65 8.505c1.05 0 1.88-.29 2.5-.87.63-.59.95-1.385.95-2.385s-.32-1.79-.95-2.37c-.62-.59-1.45-.885-2.5-.885h-2.22v6.51h2.22z"/><use xlink:href="#V"/><use xlink:href="#W"/><path d="M1400.13 163.5V174h-2l-5.23-6.375V174h-2.4v-10.5h2.01l5.22 6.375V163.5h2.4zm8.65 10.68c-1.5 0-2.67-.415-3.51-1.245-.83-.83-1.25-2.015-1.25-3.555v-5.88h2.43v5.79c0 1.88.78 2.82 2.34 2.82.76 0 1.34-.225 1.74-.675.4-.46.6-1.175.6-2.145v-5.79h2.4v5.88c0 1.54-.42 2.725-1.26 3.555-.83.83-1.99 1.245-3.49 1.245z"/><use xlink:href="#W" x="48.51"/><path d="M1440.97 168.54c.6.19 1.07.51 1.41.96.34.44.51.985.51 1.635 0 .92-.36 1.63-1.08 2.13-.71.49-1.75.735-3.12.735h-5.43v-10.5h5.13c1.28 0 2.26.245 2.94.735.69.49 1.04 1.155 1.04 1.995 0 .51-.13.965-.38 1.365a2.52 2.52 0 0 1-1.02.945zm-5.29-3.21v2.475h2.41c.6 0 1.06-.105 1.37-.315s.46-.52.46-.93-.15-.715-.46-.915c-.31-.21-.77-.315-1.37-.315h-2.41zm2.83 6.84c.64 0 1.12-.105 1.44-.315.33-.21.5-.535.5-.975 0-.87-.65-1.305-1.94-1.305h-2.83v2.595h2.83zm15.85-.12V174h-8.13v-10.5h7.94v1.95h-5.52v2.28h4.87v1.89h-4.87v2.43h5.71zm10.12 1.95l-2.02-2.925h-.12-2.12V174h-2.43v-10.5h4.55c.93 0 1.73.155 2.41.465.69.31 1.22.75 1.59 1.32s.56 1.245.56 2.025-.19 1.455-.57 2.025c-.37.56-.9.99-1.59 1.29l2.35 3.375h-2.61zm-.04-6.69c0-.59-.19-1.04-.57-1.35-.38-.32-.94-.48-1.67-.48h-1.98v3.66h1.98c.73 0 1.29-.16 1.67-.48s.57-.77.57-1.35z"/><use xlink:href="#V" x="-5.8" y="18"/><path d="M1369.81 192l-2.02-2.925h-.12-2.12V192h-2.43v-10.5h4.55c.93 0 1.73.155 2.41.465.69.31 1.22.75 1.59 1.32s.56 1.245.56 2.025-.19 1.455-.57 2.025c-.37.56-.9.99-1.59 1.29l2.35 3.375h-2.61zm-.04-6.69c0-.59-.19-1.04-.57-1.35-.38-.32-.94-.48-1.67-.48h-1.98v3.66h1.98c.73 0 1.29-.16 1.67-.48s.57-.77.57-1.35zm12.8 4.44h-4.88l-.93 2.25h-2.49l4.68-10.5h2.4l4.7 10.5h-2.55l-.93-2.25zm-.77-1.845l-1.66-4.02-1.67 4.02h3.33z"/><use xlink:href="#X"/><path d="M1400.99 181.5h2.43v8.52h5.27V192h-7.7v-10.5zm18.68 8.55V192h-8.13v-10.5h7.94v1.95h-5.52v2.28h4.87v1.89h-4.87v2.43h5.71z"/></g><g class="E"><path d="M1380.04 367.356V268h-1v99.356c0-3.863.23.644.5.644.28 0 .5-.288.5-.644z" class="B"/><path d="M1376.04 366h7.64l-3.82 6.301-3.82-6.301zm7.64-97.699h-7.64l3.82-6.301 3.82 6.301zM813 824v-8l-4 4.089 4 3.911z"/></g><path d="M313.515 580.695H39.356V502h274.16c21.754 0 39.356 17.598 39.356 39.347s-17.602 39.348-39.356 39.348z" fill="url(#C)" class="C"/><path d="M41.356 578.695h272.16c20.649 0 37.356-16.703 37.356-37.348S334.164 504 313.515 504H41.356v74.695zm272.16 2c21.754 0 39.356-17.598 39.356-39.348S335.269 502 313.515 502H39.356v78.695h274.16z" fill="#f8bcb2" class="B C"/><path d="M39.355 502C17.602 502 0 519.598 0 541.347s17.602 39.348 39.355 39.348c11.624 0 21.92-4.981 29.226-12.95 16.772-16.602 14.115-56.946 70.575-65.745H39.355z" fill="url(#D)"/><path d="M39.355 571.564c16.691 0 30.222-13.529 30.222-30.217s-13.531-30.216-30.222-30.216-30.222 13.528-30.222 30.216 13.531 30.217 30.222 30.217z" fill="url(#E)"/><path d="M193.92 546.18c-1.5 0-2.67-.415-3.51-1.245-.83-.83-1.245-2.015-1.245-3.555v-5.88h2.43v5.79c0 1.88.78 2.82 2.34 2.82.76 0 1.34-.225 1.74-.675.4-.46.6-1.175.6-2.145v-5.79h2.4v5.88c0 1.54-.42 2.725-1.26 3.555-.83.83-1.995 1.245-3.495 1.245zm12.106 0c-.83 0-1.635-.11-2.415-.33-.77-.23-1.39-.525-1.86-.885l.825-1.83c.45.33.985.595 1.605.795a6.03 6.03 0 0 0 1.86.3c.69 0 1.2-.1 1.53-.3.33-.21.495-.485.495-.825 0-.25-.1-.455-.3-.615-.19-.17-.44-.305-.75-.405-.3-.1-.71-.21-1.23-.33l-1.965-.57a3.25 3.25 0 0 1-1.32-.915c-.36-.42-.54-.98-.54-1.68 0-.61.165-1.16.495-1.65.33-.5.825-.895 1.485-1.185.67-.29 1.485-.435 2.445-.435a8.07 8.07 0 0 1 1.965.24c.64.16 1.2.39 1.68.69l-.75 1.845c-.97-.55-1.94-.825-2.91-.825-.68 0-1.185.11-1.515.33-.32.22-.48.51-.48.87s.185.63.555.81c.38.17.955.34 1.725.51l1.965.57c.51.19.945.49 1.305.9.37.41.555.965.555 1.665a2.87 2.87 0 0 1-.51 1.65c-.33.49-.83.88-1.5 1.17s-1.485.435-2.445.435zm15.745-2.13V546h-8.13v-10.5h7.935v1.95h-5.52v2.28h4.875v1.89h-4.875v2.43h5.715zm10.124 1.95l-2.025-2.925h-.12-2.115V546h-2.43v-10.5h4.545c.93 0 1.735.155 2.415.465.69.31 1.22.75 1.59 1.32s.555 1.245.555 2.025-.19 1.455-.57 2.025c-.37.56-.9.99-1.59 1.29l2.355 3.375h-2.61zm-.045-6.69c0-.59-.19-1.04-.57-1.35-.38-.32-.935-.48-1.665-.48h-1.98v3.66h1.98c.73 0 1.285-.16 1.665-.48s.57-.77.57-1.35z" fill="#000"/><path d="M39.002 528a6.77 6.77 0 0 0-6.751 6.751 6.77 6.77 0 0 0 6.751 6.75 6.77 6.77 0 0 0 6.75-6.75 6.77 6.77 0 0 0-6.75-6.751zm11.585 18.896c-.177-.443-.413-.855-.678-1.238-1.356-2.005-3.449-3.332-5.807-3.656-.295-.029-.619.03-.855.207-1.238.913-2.712 1.385-4.245 1.385s-3.007-.472-4.245-1.385c-.236-.177-.56-.266-.855-.207a8.33 8.33 0 0 0-5.807 3.656c-.265.383-.501.825-.678 1.238-.088.177-.059.383.029.56.236.412.531.825.796 1.179a11.23 11.23 0 0 0 1.356 1.533c.413.412.884.796 1.356 1.179 2.329 1.739 5.129 2.653 8.018 2.653s5.689-.914 8.018-2.653c.472-.354.943-.767 1.356-1.179.472-.472.943-.973 1.356-1.533a10.37 10.37 0 0 0 .796-1.179c.147-.177.177-.384.088-.56z" fill="#ff7a59"/><g class="E"><path d="M431 812v8l4-4.089-4-3.911z"/><path d="M915.13 546.5c0 .276-.291.5-.65.5h-99.701c-.358 0-.649-.224-.649-.5s.291-.5.649-.5h99.701c.359 0 .65.224.65.5z" class="B"/><path d="M814.15 551v-9.134l-6.151 4.65L814.15 551z"/><path d="M1372.5 594c.28 0 .5.144.5.322v49.356c0 .178-.22.322-.5.322s-.5-.144-.5-.322v-49.356c0-.178.22-.322.5-.322z" class="B"/><path d="M1377.13 644H1368l4.65 6.151 4.48-6.151z"/><path d="M623.5 707c.276 0 .5.144.5.322v49.356c0 .178-.224.322-.5.322s-.5-.144-.5-.322v-49.356c0-.178.224-.322.5-.322z" class="B"/><path d="M628.134 707.151h-9.133l4.65-6.151 4.483 6.151z"/><path d="M623.5 650c-.276 0-.5-.161-.5-.36v-55.28c0-.199.224-.36.5-.36s.5.161.5.36v55.28c0 .199-.224.36-.5.36z" class="B"/><path d="M619 593.821h9.133l-4.65-6.151-4.483 6.151z"/><path d="M176.5 591c.276 0 .5.153.5.341v52.318c0 .188-.224.341-.5.341s-.5-.153-.5-.341v-52.318c0-.188.224-.341.5-.341z" class="B"/><path d="M181.133 644H172l4.65 6.151 4.483-6.151zM172 595.151h9.133L176.484 589 172 595.151zm0 107h9.133L176.484 696 172 702.151z"/><path d="M1195.13 546.5c0 .276-.2.5-.44.5h-67.12c-.24 0-.44-.224-.44-.5s.2-.5.44-.5h67.12c.24 0 .44.224.44.5z" class="B"/><path d="M1194.88 551v-9.133l6.15 4.649-6.15 4.484z"/><use xlink:href="#Y" class="B"/><path d="M172 490.849h9.133l-4.65 6.151-4.483-6.151z"/><path d="M1379.53 497c-.21 0-.38-.115-.38-.257v-47.601c0-.142.17-.257.38-.257.2 0 .37.115.37.257v47.601c0 .142-.17.257-.37.257z" class="B"/><path d="M1375.04 496.746h9.14l-4.65 6.151-4.49-6.151z"/><use xlink:href="#Y" x="447" class="B"/><path d="M619.13 490.849h9.133l-4.65 6.151-4.483-6.151z"/></g><path d="M760.515 580.695h-274.16V502h274.16c21.754 0 39.356 17.598 39.356 39.347s-17.602 39.348-39.356 39.348z" fill="url(#F)" class="C"/><path d="M488.355 578.695h272.16c20.649 0 37.356-16.703 37.356-37.348S781.164 504 760.515 504h-272.16v74.695zm272.16 2c21.754 0 39.356-17.598 39.356-39.348S782.269 502 760.515 502h-274.16v78.695h274.16z" fill="#fbbb60" class="B C"/><path d="M486.355 502C464.602 502 447 519.598 447 541.347s17.602 39.348 39.355 39.348c11.624 0 21.92-4.981 29.226-12.95 16.772-16.602 14.115-56.946 70.575-65.745h-99.801z" fill="url(#G)"/><path d="M486.356 571.564c16.691 0 30.222-13.529 30.222-30.217s-13.531-30.216-30.222-30.216-30.223 13.528-30.223 30.216 13.531 30.217 30.223 30.217z" fill="url(#H)"/><g fill="#000"><use xlink:href="#Z"/><path d="M660.533 544.05V546h-8.13v-10.5h7.935v1.95h-5.52v2.28h4.875v1.89h-4.875v2.43h5.715z"/><use xlink:href="#a"/><path d="M681.181 539.775c.92.15 1.625.495 2.115 1.035.49.53.735 1.19.735 1.98 0 .61-.16 1.175-.48 1.695-.32.51-.81.92-1.47 1.23-.65.31-1.45.465-2.4.465a8.55 8.55 0 0 1-2.19-.285c-.71-.2-1.315-.48-1.815-.84l.945-1.86c.4.3.86.535 1.38.705.53.16 1.07.24 1.62.24.61 0 1.09-.115 1.44-.345a1.15 1.15 0 0 0 .525-1.005c0-.86-.655-1.29-1.965-1.29h-1.11v-1.605l2.16-2.445h-4.47v-1.95h7.35v1.575l-2.37 2.7z"/></g><path d="M498.328 530.888c-1.175-.679-2.228-1.01-3.126-1.143-.234-.511-.807-1.113-1.973-1.778-3.825-2.185-7.648-.023-7.648-.023l-5.101 2.944 2.549 1.471 5.099-2.944s1.276-.737 2.549 0 0 1.473 0 1.473l-5.098 2.944 2.549 1.471 5.103-2.946c.076-.044 1.311-.712 2.545.002 1.276.736 0 1.471 0 1.471l-5.099 2.944 2.55 1.473 6.374-3.681s2.55-1.471-1.273-3.678z" fill="#f16822"/><path d="M480.48 530.888s-1.276.737-1.276 2.207v7.353s0 1.473-1.276.736-1.275-2.207-1.275-2.207v-7.352l.013-.269c.14-1.294 1.26-1.941 1.26-1.941l-2.549-1.471c-.081.046-1.276.782-1.276 2.207v7.352s0 1.474-1.276.737-1.276-2.207-1.276-2.207v-7.352c0-1.471 1.276-2.208 1.276-2.208L470.276 525s-1.276.737-1.276 2.207v7.352s0 4.418 3.825 6.625c1.173.677 1.985.73 2.55.48.564.901 1.376 1.787 2.549 2.464 3.825 2.208 3.825-2.207 3.825-2.207v-7.352c0-1.474 1.276-2.208 1.276-2.208l-2.545-1.473z" fill="#808285"/><path d="M484.306 537.529l2.549 1.471v2.944l-2.549-1.471v-2.944zm6.371-.753s-1.276.737-1.276 2.207v7.352s0 1.474-1.276.737-1.276-2.207-1.276-2.207l-2.549-1.474s0 4.418 3.825 6.625 3.825-2.207 3.825-2.207v-7.352c0-1.471 1.276-2.208 1.276-2.208l-2.549-1.473zm7.65 7.359l5.099 2.944v-2.944l-5.099-2.944s-3.825-2.153-3.825 2.207 3.825 6.625 3.825 6.625l1.276.736s1.276.737 1.276 2.208-1.276.736-1.276.736l-5.101-2.944v2.944l5.099 2.945s3.825 2.207 3.825-2.208-2.55-5.888-2.55-5.888l-2.549-1.471s-1.276-.736-1.276-2.207 1.276-.739 1.276-.739z" fill="#bcbec0"/><path d="M1522.52 585.695h-274.16V507h274.16c21.75 0 39.35 17.598 39.35 39.347s-17.6 39.348-39.35 39.348z" fill="url(#I)" class="C"/><path d="M1250.36 583.695h272.16c20.64 0 37.35-16.703 37.35-37.348S1543.16 509 1522.52 509h-272.16v74.695zm272.16 2c21.75 0 39.35-17.598 39.35-39.348S1544.27 507 1522.52 507h-274.16v78.695h274.16z" fill="#92f2c4" class="B C"/><path d="M1248.36 507c-21.76 0-39.36 17.598-39.36 39.347s17.6 39.348 39.36 39.348c11.62 0 21.91-4.981 29.22-12.95 16.77-16.602 14.12-56.946 70.58-65.745h-99.8z" fill="url(#J)"/><path d="M1248.36 576.564c16.69 0 30.22-13.529 30.22-30.217s-13.53-30.216-30.22-30.216c-16.7 0-30.23 13.528-30.23 30.216s13.53 30.217 30.23 30.217z" fill="url(#K)"/><g fill="#000"><path d="M1342.87 551.18c-.83 0-1.63-.11-2.41-.33-.77-.23-1.39-.525-1.86-.885l.82-1.83c.45.33.99.595 1.61.795a6.03 6.03 0 0 0 1.86.3c.69 0 1.2-.1 1.53-.3.33-.21.49-.485.49-.825 0-.25-.1-.455-.3-.615-.19-.17-.44-.305-.75-.405-.3-.1-.71-.21-1.23-.33l-1.96-.57a3.25 3.25 0 0 1-1.32-.915c-.36-.42-.54-.98-.54-1.68 0-.61.16-1.16.49-1.65.33-.5.83-.895 1.49-1.185.67-.29 1.48-.435 2.44-.435a8.11 8.11 0 0 1 1.97.24c.64.16 1.2.39 1.68.69l-.75 1.845c-.97-.55-1.94-.825-2.91-.825-.68 0-1.19.11-1.52.33-.32.22-.48.51-.48.87s.19.63.56.81c.38.17.95.34 1.72.51l1.97.57a3.18 3.18 0 0 1 1.3.9c.37.41.56.965.56 1.665a2.87 2.87 0 0 1-.51 1.65c-.33.49-.83.88-1.5 1.17s-1.49.435-2.45.435zm17.17-.18l-.01-6.3-3.09 5.19h-1.1l-3.07-5.055V551h-2.28v-10.5h2.01l3.93 6.525 3.87-6.525h1.99l.03 10.5h-2.28z"/><use xlink:href="#U" x="52.04" y="377"/><use xlink:href="#b"/><use xlink:href="#c"/><use xlink:href="#X" x="19.71" y="359"/><use xlink:href="#V" x="65.72" y="377"/><path d="M1444.27 540.5V551h-1.99l-5.24-6.375V551h-2.4v-10.5h2.01l5.22 6.375V540.5h2.4z"/><use xlink:href="#c" x="56.57"/><use xlink:href="#b" x="79.73"/><use xlink:href="#U" x="157.28" y="377"/><path d="M1489.42 551.18c-1.07 0-2.04-.23-2.91-.69-.86-.47-1.54-1.115-2.04-1.935-.49-.83-.73-1.765-.73-2.805s.24-1.97.73-2.79a5.2 5.2 0 0 1 2.04-1.935c.87-.47 1.85-.705 2.93-.705.91 0 1.73.16 2.46.48a4.93 4.93 0 0 1 1.86 1.38l-1.56 1.44c-.71-.82-1.59-1.23-2.64-1.23-.65 0-1.23.145-1.74.435a3.04 3.04 0 0 0-1.2 1.185c-.28.51-.42 1.09-.42 1.74s.14 1.23.42 1.74c.29.51.69.91 1.2 1.2.51.28 1.09.42 1.74.42 1.05 0 1.93-.415 2.64-1.245l1.56 1.44c-.5.61-1.12 1.075-1.86 1.395s-1.57.48-2.48.48z"/><use xlink:href="#c" x="105.11"/></g><path d="M1243.37 542.312c-.13 0-.22.031-.28.094s-.09.184-.09.354v1.812c0 .17.03.292.09.354s.15.094.28.094.22-.031.28-.095c.08-.079.1-.235.1-.353v-1.812c0-.118-.02-.274-.1-.353-.06-.063-.15-.095-.28-.095zm4.51 0c-.13 0-.22.031-.28.094s-.1.184-.1.354v1.812c0 .17.04.292.1.354s.15.094.28.094c.12 0 .21-.031.28-.095.08-.079.09-.235.09-.353v-1.812c0-.118-.01-.274-.09-.353-.07-.063-.16-.095-.28-.095zm-7.24-3.786c.13 0 .22-.031.28-.095.08-.078.1-.234.1-.352v-1.813c0-.117-.02-.274-.1-.352-.06-.064-.15-.095-.28-.095s-.22.03-.28.093-.09.185-.09.354v1.813c0 .17.03.292.09.354s.15.093.28.093zm7.24-2.707c-.13 0-.22.03-.28.093s-.1.185-.1.354v1.813c0 .17.04.292.1.354s.15.093.28.093c.12 0 .21-.031.28-.095.08-.078.09-.234.09-.352v-1.813c0-.117-.01-.274-.09-.352-.07-.064-.16-.095-.28-.095zm4.5 2.707c.13 0 .22-.031.28-.095.08-.078.1-.234.1-.352v-1.813c0-.117-.02-.274-.1-.352-.06-.064-.15-.095-.28-.095-.12 0-.21.03-.28.093-.06.062-.09.185-.09.354v1.813c0 .17.03.292.09.354.07.063.16.093.28.093zm2.73 3.786c-.12 0-.21.031-.28.094-.06.062-.09.184-.09.354v1.812c0 .17.03.292.09.354.07.063.16.094.28.094.13 0 .22-.031.28-.095.08-.079.1-.235.1-.353v-1.812c0-.118-.02-.274-.1-.353-.06-.063-.15-.095-.28-.095zm7.37-9.243a2.07 2.07 0 0 0-2.06-2.069h-25.36c-1.14 0-2.06.928-2.06 2.069v15.277h29.48v-15.277zm-7.46 1.745c.9-.519.92-.628 1.22-.628.32 0 .7.198.7.572v4.35c0 .753-1.53.757-1.53 0v-3.084c-.21.053-.43-.018-.57-.218-.09-.129-.13-.272-.13-.426 0-.224.1-.437.31-.566zm-4.54 1.237c0-1.141.66-1.852 1.9-1.852 1.27 0 1.91.72 1.91 1.852v1.812c0 1.151-.66 1.851-1.9 1.852-1.25.001-1.91-.706-1.91-1.852v-1.812zm-7.21-1.237c.9-.518.92-.628 1.22-.628.33 0 .71.198.71.572v4.35c0 .753-1.54.756-1.54 0v-3.084c-.64.166-.99-.844-.39-1.21zm-4.54 1.237c0-1.128.65-1.852 1.91-1.852 1.27 0 1.91.725 1.91 1.852v1.812c0 1.168-.68 1.852-1.91 1.852-1.26 0-1.91-.727-1.91-1.852v-1.812zm1.96 9.55c0 .754-1.53.757-1.53 0v-3.084c-.64.167-1-.843-.39-1.21l.9-.546c.33-.213 1.02-.003 1.02.49v4.35zm4.44-.402c-.31.734-.97 1.009-1.76 1.009-.8 0-1.45-.283-1.76-1.009-.23-.558-.11-1.108-.15-2.655 0-1.146.67-1.852 1.91-1.852 1.26 0 1.91.723 1.91 1.852-.03 1.558.09 2.103-.15 2.655zm4.66-.842c0 1.132-.65 1.851-1.91 1.851-1.27 0-1.91-.732-1.91-1.851v-1.813c0-1.143.66-1.852 1.91-1.852 1.27 0 1.91.73 1.91 1.852v1.813zm0-6.494c0 1.146-.66 1.852-1.91 1.852s-1.91-.711-1.91-1.852v-1.812c0-1.121.64-1.852 1.91-1.852 1.24 0 1.91.705 1.91 1.852v1.812zm2.64 7.738c0 .755-1.53.755-1.53 0v-3.084c-.64.164-.99-.844-.39-1.21.9-.518.92-.629 1.22-.629.32 0 .7.2.7.573v4.35zm4.59-1.244c0 1.158-.67 1.851-1.91 1.851-1.25 0-1.9-.716-1.9-1.851v-1.813c0-1.147.66-1.852 1.9-1.852 1.25 0 1.91.704 1.91 1.852v1.813zm5.45 6.927h-29.39l-.04 5.269c-.02 2.412 1.92 4.378 4.32 4.385l20.69.062c2.43.007 4.38-1.988 4.36-4.425l-.01-1.014.07-4.277z" fill="#2bce80"/><path d="M760.515 853.262h-274.16v-78.695h274.16c21.754 0 39.356 17.599 39.356 39.348s-17.602 39.347-39.356 39.347z" fill="url(#L)" class="C"/><path d="M488.355 851.262h272.16c20.649 0 37.356-16.703 37.356-37.347s-16.707-37.348-37.356-37.348h-272.16v74.695zm272.16 2c21.754 0 39.356-17.598 39.356-39.347s-17.602-39.348-39.356-39.348h-274.16v78.695h274.16z" fill="#a8c1ec" class="B C"/><path d="M486.355 774.567c-21.753 0-39.355 17.599-39.355 39.348s17.602 39.347 39.355 39.347c11.624 0 21.92-4.98 29.226-12.949 16.772-16.603 14.115-56.946 70.575-65.746h-99.801z" fill="url(#M)"/><path d="M486.356 844.131c16.691 0 30.222-13.528 30.222-30.216s-13.531-30.216-30.222-30.216-30.223 13.528-30.223 30.216 13.531 30.216 30.223 30.216z" fill="url(#N)"/><g fill="#000"><path d="M619 818.567l-.015-6.3-3.09 5.19H614.8l-3.075-5.055v6.165h-2.28v-10.5h2.01l3.93 6.525 3.87-6.525h1.995l.03 10.5H619zm14.401-1.95v1.95h-8.13v-10.5h7.935v1.95h-5.52v2.28h4.875v1.89h-4.875v2.43h5.715zm5.609-6.57h-3.36v-1.98h9.15v1.98h-3.36v8.52h-2.43v-8.52z"/><use xlink:href="#d"/><path d="M669.619 818.567l-.015-6.3-3.09 5.19h-1.095l-3.075-5.055v6.165h-2.28v-10.5h2.01l3.93 6.525 3.87-6.525h1.995l.03 10.5h-2.28z"/><use xlink:href="#d" x="28.811"/><use xlink:href="#e"/><path d="M703.765 814.442l-1.41 1.47v2.655h-2.415v-10.5h2.415v4.905l4.65-4.905h2.7l-4.35 4.68 4.605 5.82h-2.835l-3.36-4.125z"/></g><path d="M495.75 820.567a5.26 5.26 0 0 1-5.25-5.25 5.26 5.26 0 0 1 5.25-5.25h2.917v-2.333c0-1.287-1.047-2.333-2.334-2.333h-1.166v-2.334c0-1.286-1.047-2.333-2.334-2.333H476.5c-1.73 0-3.16 1.265-3.44 2.916-.026.095-.06.189-.06.292v17.792c0 1.93 1.57 3.5 3.5 3.5h19.833c1.287 0 2.334-1.046 2.334-2.333v-2.334h-2.917zm-20.417-16.333a1.17 1.17 0 0 1 1.167-1.167h16.333v2.334H476.5a1.17 1.17 0 0 1-1.167-1.167z" fill="url(#O)"/><path d="M500.125 811.817h-4.375c-1.93 0-3.5 1.571-3.5 3.5s1.57 3.5 3.5 3.5h4.375c.483 0 .875-.392.875-.875v-5.25c0-.483-.392-.875-.875-.875z" fill="url(#P)"/><g class="E"><path d="M181.133 366H172l4.649 6.151 4.484-6.151zm438.734-.089H629l-4.65 6.151-4.483-6.151zM514.762 196.259l-6.324 6.59-1.218-7.614 7.542 1.024z"/><path d="M1373.38 701v119.375H811v-.75h561.62V701h.76zM177 702.003L177.484 816H431v-.748H178.227L177.746 702l-.746.003z" class="B"/></g><g fill="#434343"><path d="M157.756 392.8c1.259 0 2.24.277 2.944.832s1.056 1.333 1.056 2.336c0 1.429-.464 2.539-1.392 3.328-.917.779-2.186 1.168-3.808 1.168h-3.168l-.72 3.536H151.5l2.24-11.2h4.016zm-1.184 6.624c1.28 0 2.267-.283 2.96-.848s1.04-1.397 1.04-2.496c0-.736-.25-1.296-.752-1.68s-1.221-.576-2.16-.576h-2.944l-1.136 5.6h2.992zm8.541-7.296h1.136L163.881 404h-1.136l2.368-11.872z"/><use xlink:href="#f"/><use xlink:href="#g"/><use xlink:href="#h"/><use xlink:href="#i"/><path d="M170.013 419.52c.714 0 1.349.144 1.904.432.565.288 1.002.699 1.312 1.232s.464 1.163.464 1.888c0 .949-.208 1.808-.624 2.576-.406.757-.971 1.355-1.696 1.792-.726.427-1.542.64-2.448.64-.811 0-1.494-.165-2.048-.496-.544-.331-.934-.805-1.168-1.424l-.368 1.84h-1.088l2.368-11.872h1.136l-.944 4.72c.405-.427.874-.752 1.408-.976a4.47 4.47 0 0 1 1.792-.352zm-1.104 7.552c.693 0 1.312-.165 1.856-.496.554-.341.986-.811 1.296-1.408.32-.597.48-1.275.48-2.032 0-.821-.246-1.461-.736-1.92-.48-.469-1.158-.704-2.032-.704-.694 0-1.318.171-1.872.512-.544.331-.976.8-1.296 1.408-.31.597-.464 1.275-.464 2.032 0 .821.24 1.461.72 1.92.49.459 1.173.688 2.048.688z"/><use xlink:href="#h" x="-11.664" y="24"/><use xlink:href="#j"/><path d="M940.139 541.096c-1.088 0-2.026-.192-2.816-.576-.789-.395-1.392-.939-1.808-1.632-.405-.704-.608-1.52-.608-2.448 0-1.237.278-2.368.832-3.392.566-1.024 1.366-1.835 2.4-2.432 1.035-.608 2.23-.912 3.584-.912.896 0 1.691.144 2.384.432.694.277 1.227.677 1.6 1.2l-.832.736c-.714-.875-1.797-1.312-3.248-1.312-1.098 0-2.069.256-2.912.768-.842.501-1.493 1.179-1.952 2.032s-.688 1.792-.688 2.816c0 1.12.358 2.011 1.072 2.672.726.661 1.755.992 3.088.992 1.462 0 2.646-.443 3.552-1.328l.688.784c-.49.512-1.114.907-1.872 1.184s-1.578.416-2.464.416z"/><use xlink:href="#k"/><use xlink:href="#l"/><use xlink:href="#l" x="16.969"/><path d="M998.993 532.584l-1.68 8.416h-1.088l.272-1.344c-.789.949-1.872 1.424-3.248 1.424-.939 0-1.675-.24-2.208-.72-.523-.491-.784-1.168-.784-2.032 0-.299.032-.613.096-.944l.96-4.8h1.136l-.96 4.8c-.053.299-.08.549-.08.752 0 .619.176 1.093.528 1.424.363.331.901.496 1.616.496.896 0 1.637-.251 2.224-.752s.981-1.232 1.184-2.192l.896-4.528h1.136zm7.277-.064c.95 0 1.69.245 2.21.736.53.48.8 1.147.8 2 0 .299-.03.619-.1.96l-.96 4.784h-1.13l.96-4.8c.05-.299.08-.555.08-.768 0-.608-.19-1.072-.56-1.392-.37-.331-.9-.496-1.62-.496-.91 0-1.65.251-2.24.752-.59.491-.98 1.221-1.18 2.192l-.9 4.512h-1.14l1.67-8.416h1.09l-.28 1.344c.8-.939 1.9-1.408 3.3-1.408zm6.72.064h1.13l-1.66 8.416h-1.14l1.67-8.416zm1.05-1.84a.77.77 0 0 1-.56-.224c-.14-.149-.21-.325-.21-.528 0-.245.08-.448.24-.608a.89.89 0 0 1 .64-.256c.23 0 .42.075.56.224.15.139.23.304.23.496 0 .256-.09.469-.26.64a.86.86 0 0 1-.64.256zm5.39 10.336c-.79 0-1.48-.144-2.07-.432-.58-.299-1.04-.715-1.36-1.248-.31-.544-.46-1.173-.46-1.888 0-.949.21-1.803.62-2.56.42-.757 1-1.349 1.75-1.776.74-.437 1.59-.656 2.53-.656.77 0 1.44.144 2 .432a2.99 2.99 0 0 1 1.31 1.248l-.96.56c-.48-.832-1.3-1.248-2.45-1.248-.69 0-1.32.171-1.89.512a3.66 3.66 0 0 0-1.31 1.408c-.31.597-.46 1.275-.46 2.032 0 .821.24 1.461.72 1.92.49.459 1.18.688 2.08.688.54 0 1.04-.101 1.5-.304a2.94 2.94 0 0 0 1.15-.912l.82.624a3.87 3.87 0 0 1-1.51 1.184 4.87 4.87 0 0 1-2.01.416z"/><use xlink:href="#m"/><path d="M1037.16 538.456l-.06.528c0 .747.4 1.12 1.21 1.12a2.11 2.11 0 0 0 1.3-.432l.27.864c-.48.363-1.1.544-1.87.544-.63 0-1.13-.171-1.5-.512s-.55-.811-.55-1.408a2.74 2.74 0 0 1 .07-.656l.97-4.96h-1.49l.18-.96h1.5l.37-1.84h1.14l-.37 1.84h2.56l-.19.96h-2.56l-.98 4.912zm6.34-5.872h1.14l-1.67 8.416h-1.13l1.66-8.416zm1.06-1.84c-.23 0-.41-.075-.56-.224-.14-.149-.21-.325-.21-.528 0-.245.08-.448.24-.608a.86.86 0 0 1 .64-.256.77.77 0 0 1 .56.224c.15.139.22.304.22.496 0 .256-.08.469-.25.64s-.39.256-.64.256zm5.32 10.336c-.77 0-1.44-.144-2.02-.432-.57-.299-1.02-.715-1.34-1.248-.31-.544-.46-1.173-.46-1.888 0-.949.2-1.803.62-2.56s.99-1.349 1.73-1.776c.74-.437 1.58-.656 2.51-.656 1.17 0 2.1.32 2.78.96.7.64 1.04 1.504 1.04 2.592 0 .949-.2 1.808-.62 2.576a4.68 4.68 0 0 1-1.74 1.792c-.74.427-1.57.64-2.5.64zm.08-1.008c.69 0 1.32-.165 1.87-.496.56-.341.99-.811 1.3-1.408.32-.608.48-1.285.48-2.032 0-.821-.25-1.461-.74-1.92-.48-.469-1.16-.704-2.03-.704-.69 0-1.32.171-1.87.512-.56.341-.99.816-1.31 1.424-.31.597-.47 1.269-.47 2.016 0 .821.24 1.461.72 1.92.49.459 1.17.688 2.05.688z"/><use xlink:href="#n"/><path d="M1085.28 532.584l-4.75 8.416h-1.11l-1.41-6.88-3.93 6.88h-1.09l-1.65-8.416h1.04l1.36 7.136 4.07-7.136h.96l1.4 7.136 4-7.136h1.11zm1.63 0h1.13l-1.66 8.416h-1.14l1.67-8.416zm1.05-1.84a.77.77 0 0 1-.56-.224.78.78 0 0 1-.2-.528c0-.245.08-.448.24-.608a.86.86 0 0 1 .64-.256.77.77 0 0 1 .56.224c.15.139.22.304.22.496 0 .256-.08.469-.26.64a.86.86 0 0 1-.64.256zm3.41 7.712a3.14 3.14 0 0 0-.07.528c0 .747.41 1.12 1.22 1.12a2.08 2.08 0 0 0 1.29-.432l.28.864c-.48.363-1.11.544-1.88.544-.63 0-1.13-.171-1.5-.512-.36-.341-.54-.811-.54-1.408a3.39 3.39 0 0 1 .06-.656l.98-4.96h-1.49l.17-.96h1.51l.37-1.84h1.13l-.37 1.84h2.56l-.19.96h-2.56l-.97 4.912zm10.45-5.936c.95 0 1.68.245 2.21.736.53.48.8 1.147.8 2 0 .299-.04.619-.1.96l-.96 4.784h-1.14l.96-4.8c.06-.299.08-.555.08-.768 0-.608-.18-1.072-.56-1.392-.36-.331-.9-.496-1.61-.496-.91 0-1.66.251-2.24.752-.59.491-.98 1.221-1.19 2.192l-.89 4.512h-1.14l2.37-11.872h1.14l-.95 4.72c.78-.885 1.85-1.328 3.22-1.328z"/><use xlink:href="#g" x="808.414" y="161"/><path d="M998.918 565.08c-.768 0-1.44-.144-2.016-.432-.576-.299-1.024-.715-1.344-1.248-.309-.544-.464-1.173-.464-1.888 0-.949.208-1.803.624-2.56a4.54 4.54 0 0 1 1.728-1.776c.747-.437 1.584-.656 2.512-.656 1.172 0 2.102.32 2.782.96.7.64 1.04 1.504 1.04 2.592 0 .949-.21 1.808-.62 2.576-.42.757-1 1.355-1.75 1.792-.73.427-1.564.64-2.492.64zm.08-1.008c.694 0 1.322-.165 1.872-.496.55-.341.99-.811 1.3-1.408.32-.608.48-1.285.48-2.032 0-.821-.25-1.461-.74-1.92-.48-.469-1.16-.704-2.032-.704-.693 0-1.317.171-1.872.512s-.992.816-1.312 1.424c-.309.597-.464 1.269-.464 2.016 0 .821.24 1.461.72 1.92.491.459 1.174.688 2.048.688zm11.982-7.552c.95 0 1.69.245 2.21.736.53.48.8 1.147.8 2 0 .299-.03.619-.1.96l-.96 4.784h-1.13l.96-4.8c.05-.299.08-.555.08-.768 0-.608-.19-1.072-.56-1.392-.37-.331-.9-.496-1.62-.496-.91 0-1.65.251-2.24.752-.59.491-.98 1.221-1.18 2.192l-.9 4.512h-1.13l1.66-8.416h1.09l-.27 1.344c.8-.939 1.89-1.408 3.29-1.408zm6.88 5.936l-.07.528c0 .747.41 1.12 1.22 1.12a2.13 2.13 0 0 0 1.3-.432l.27.864c-.48.363-1.11.544-1.87.544-.63 0-1.14-.171-1.51-.512-.36-.341-.54-.811-.54-1.408a3.39 3.39 0 0 1 .06-.656l.98-4.96h-1.49l.18-.96h1.5l.37-1.84h1.13l-.36 1.84h2.56l-.2.96h-2.56l-.97 4.912zm7.14-4.336a3.34 3.34 0 0 1 1.41-1.2c.56-.267 1.24-.4 2.04-.4l-.2 1.104-.32-.016c-.91 0-1.66.261-2.24.784s-.97 1.301-1.17 2.336l-.85 4.272h-1.14l1.67-8.416h1.09l-.29 1.536zm13.11-1.536l-1.68 8.416h-1.09l.28-1.328a4.31 4.31 0 0 1-1.44 1.04 4.53 4.53 0 0 1-1.84.368c-.72 0-1.35-.144-1.91-.432-.55-.288-.98-.699-1.29-1.232-.31-.544-.47-1.179-.47-1.904 0-.949.21-1.803.61-2.56.42-.757.99-1.349 1.71-1.776a4.64 4.64 0 0 1 2.43-.656c.8 0 1.48.16 2.02.48.54.309.94.757 1.18 1.344l.36-1.76h1.13zm-5.53 7.488c.69 0 1.31-.165 1.87-.496a3.47 3.47 0 0 0 1.29-1.408c.32-.608.48-1.285.48-2.032 0-.821-.24-1.461-.73-1.92-.48-.469-1.16-.704-2.03-.704-.7 0-1.32.171-1.88.512a3.63 3.63 0 0 0-1.31 1.424c-.31.597-.46 1.269-.46 2.016 0 .821.24 1.461.72 1.92.49.459 1.17.688 2.05.688zm10.82 1.008c-.79 0-1.47-.144-2.06-.432-.59-.299-1.04-.715-1.36-1.248-.31-.544-.46-1.173-.46-1.888 0-.949.2-1.803.62-2.56a4.57 4.57 0 0 1 1.74-1.776c.75-.437 1.59-.656 2.53-.656.78 0 1.45.144 2 .432.57.277 1 .693 1.31 1.248l-.96.56c-.48-.832-1.29-1.248-2.44-1.248-.7 0-1.33.171-1.89.512s-.99.811-1.31 1.408c-.31.597-.47 1.275-.47 2.032 0 .821.24 1.461.72 1.92.49.459 1.19.688 2.08.688.55 0 1.05-.101 1.51-.304a2.94 2.94 0 0 0 1.15-.912l.81.624c-.37.501-.87.896-1.5 1.184-.62.277-1.29.416-2.02.416z"/><use xlink:href="#o"/><path d="M1321.61 673.8l-6.02 11.2h-1.25l-1.37-9.504-5.22 9.504h-1.25l-1.53-11.2h1.17l1.32 9.648 5.27-9.648h1.1l1.36 9.664 5.23-9.664h1.19zm1.31 2.784h1.13l-1.66 8.416h-1.14l1.67-8.416zm1.05-1.84a.77.77 0 0 1-.56-.224c-.14-.149-.21-.325-.21-.528 0-.245.08-.448.24-.608.17-.171.39-.256.64-.256.23 0 .41.075.56.224.15.139.23.304.23.496 0 .256-.09.469-.26.64a.86.86 0 0 1-.64.256z"/><use xlink:href="#p"/><use xlink:href="#n" x="280.21" y="144"/><use xlink:href="#q"/><use xlink:href="#r"/><path d="M1376.97 676.584l-1.47 7.392c-.29 1.472-.83 2.539-1.63 3.2-.79.672-1.88 1.008-3.26 1.008-.79 0-1.51-.112-2.15-.336-.63-.213-1.16-.523-1.6-.928l.67-.864c.35.352.79.624 1.33.816.56.203 1.16.304 1.83.304 1.05 0 1.87-.245 2.46-.736s.98-1.248 1.18-2.272l.2-.928c-.41.459-.9.816-1.48 1.072-.56.245-1.19.368-1.88.368-1.12 0-2.03-.304-2.71-.912-.67-.608-1.01-1.435-1.01-2.48 0-.896.21-1.707.61-2.432.42-.725.99-1.296 1.71-1.712.74-.416 1.57-.624 2.48-.624.8 0 1.49.165 2.07.496a2.62 2.62 0 0 1 1.21 1.424l.36-1.856h1.08zm-5.58 7.088c.69 0 1.32-.16 1.87-.48.57-.32 1-.763 1.31-1.328.32-.565.48-1.2.48-1.904 0-.768-.24-1.365-.73-1.792-.49-.437-1.18-.656-2.05-.656-.7 0-1.33.16-1.89.48-.55.32-.99.763-1.31 1.328-.31.565-.46 1.2-.46 1.904 0 .768.24 1.371.73 1.808.49.427 1.18.64 2.05.64zm8.14-2.56a2.56 2.56 0 0 0-.02.336c0 .853.24 1.504.72 1.952.49.448 1.22.672 2.18.672a4.37 4.37 0 0 0 1.55-.272c.49-.192.89-.453 1.2-.784l.51.816c-.39.395-.89.704-1.49.928a5.41 5.41 0 0 1-1.87.32c-1.22 0-2.18-.32-2.88-.96-.69-.64-1.04-1.515-1.04-2.624 0-.939.2-1.787.59-2.544.41-.757.96-1.349 1.67-1.776.71-.437 1.51-.656 2.4-.656 1.12 0 2.01.32 2.67.96.66.629.99 1.499.99 2.608a5.63 5.63 0 0 1-.11 1.024h-7.07zm3.48-3.632c-.84 0-1.56.251-2.16.752-.59.501-1 1.179-1.21 2.032h6c.01-.075.01-.176.01-.304 0-.789-.24-1.397-.72-1.824-.48-.437-1.12-.656-1.92-.656z"/><use xlink:href="#o" x="339.42" y="120"/><path d="M1397.07 685.08a6.47 6.47 0 0 1-1.93-.288c-.61-.192-1.08-.437-1.41-.736l.54-.896c.32.277.75.501 1.27.672s1.07.256 1.65.256c.8 0 1.41-.128 1.84-.384.43-.267.65-.64.65-1.12 0-.267-.09-.48-.27-.64a1.67 1.67 0 0 0-.64-.368c-.26-.085-.63-.181-1.12-.288-.59-.128-1.06-.256-1.42-.384-.37-.128-.68-.331-.93-.608-.26-.277-.39-.661-.39-1.152 0-.8.34-1.435 1-1.904.66-.48 1.54-.72 2.65-.72.55 0 1.07.075 1.59.224.52.139.94.325 1.26.56l-.48.912c-.32-.235-.7-.411-1.14-.528-.42-.128-.86-.192-1.32-.192-.77 0-1.37.139-1.8.416-.42.277-.64.651-.64 1.12a.89.89 0 0 0 .28.672c.18.171.4.299.67.384a12.78 12.78 0 0 0 1.12.272l1.39.384c.36.117.67.315.93.592.25.277.38.651.38 1.12 0 .821-.34 1.467-1.02 1.936-.67.459-1.57.688-2.71.688zm15.33-8.56c.72 0 1.35.144 1.91.432s1 .699 1.31 1.232.46 1.163.46 1.888c0 .949-.21 1.808-.62 2.576a4.58 4.58 0 0 1-1.7 1.792c-.72.427-1.54.64-2.45.64-.8 0-1.47-.155-2.01-.464-.55-.32-.94-.779-1.19-1.376l-.96 4.864h-1.13l2.29-11.52h1.08l-.27 1.344a4.04 4.04 0 0 1 1.44-1.04 4.53 4.53 0 0 1 1.84-.368zm-1.1 7.552c.69 0 1.31-.165 1.85-.496.56-.341.99-.811 1.3-1.408.32-.597.48-1.275.48-2.032 0-.821-.24-1.461-.74-1.92-.48-.469-1.15-.704-2.03-.704-.69 0-1.31.171-1.87.512-.54.331-.98.8-1.3 1.408-.3.597-.46 1.275-.46 2.032 0 .821.24 1.461.72 1.92.49.459 1.17.688 2.05.688zm15.55-7.488l-1.68 8.416h-1.09l.27-1.328a4.31 4.31 0 0 1-1.44 1.04c-.55.245-1.17.368-1.84.368-.71 0-1.35-.144-1.9-.432a3.12 3.12 0 0 1-1.3-1.232c-.31-.544-.46-1.179-.46-1.904 0-.949.2-1.803.6-2.56a4.59 4.59 0 0 1 1.72-1.776c.72-.437 1.53-.656 2.43-.656.8 0 1.47.16 2.01.48.55.309.94.757 1.19 1.344l.35-1.76h1.14zm-5.54 7.488c.69 0 1.32-.165 1.87-.496.56-.341.99-.811 1.3-1.408.32-.608.48-1.285.48-2.032 0-.821-.25-1.461-.74-1.92-.48-.469-1.16-.704-2.03-.704-.69 0-1.32.171-1.87.512-.56.341-.99.816-1.31 1.424-.31.597-.47 1.269-.47 2.016 0 .821.24 1.461.72 1.92.49.459 1.18.688 2.05.688zm8.68-7.488h1.14l-1.66 8.416h-1.14l1.66-8.416zm1.06-1.84a.77.77 0 0 1-.56-.224c-.14-.149-.21-.325-.21-.528 0-.245.08-.448.24-.608.17-.171.39-.256.64-.256.23 0 .41.075.56.224.15.139.23.304.23.496 0 .256-.09.469-.26.64a.86.86 0 0 1-.64.256zm11.62-1.616L1440.31 685h-1.09l.27-1.328a4.12 4.12 0 0 1-1.44 1.04c-.55.245-1.17.368-1.84.368-.71 0-1.35-.144-1.9-.432a3.12 3.12 0 0 1-1.3-1.232c-.31-.544-.46-1.179-.46-1.904 0-.949.2-1.803.6-2.56a4.59 4.59 0 0 1 1.72-1.776c.72-.437 1.53-.656 2.43-.656.79 0 1.45.16 2 .48a2.72 2.72 0 0 1 1.2 1.344l1.04-5.216h1.13zm-6.22 10.944c.69 0 1.32-.165 1.87-.496.56-.341.99-.811 1.3-1.408.32-.608.48-1.285.48-2.032 0-.821-.25-1.461-.74-1.92-.48-.469-1.15-.704-2.03-.704-.69 0-1.32.171-1.87.512-.56.341-.99.816-1.31 1.424-.31.597-.47 1.269-.47 2.016 0 .821.24 1.461.72 1.92.49.459 1.18.688 2.05.688zM133.864 674.8l-2.24 11.2h-1.136l1.776-8.88-5.792 7.456h-.56l-2.992-7.6-1.792 9.024h-1.136l2.24-11.2h.96l3.232 8.32 6.4-8.32h1.04zm10.529 2.784l-1.68 8.416h-1.088l.272-1.328c-.405.448-.885.795-1.44 1.04s-1.168.368-1.84.368c-.714 0-1.349-.144-1.904-.432a3.14 3.14 0 0 1-1.296-1.232c-.309-.544-.464-1.179-.464-1.904 0-.949.203-1.803.608-2.56.416-.757.987-1.349 1.712-1.776.726-.437 1.536-.656 2.432-.656.8 0 1.472.16 2.016.48.544.309.939.757 1.184 1.344l.352-1.76h1.136zm-5.536 7.488c.694 0 1.318-.165 1.872-.496a3.51 3.51 0 0 0 1.296-1.408c.32-.608.48-1.285.48-2.032 0-.821-.245-1.461-.736-1.92-.48-.469-1.157-.704-2.032-.704-.693 0-1.317.171-1.872.512s-.992.816-1.312 1.424c-.309.597-.464 1.269-.464 2.016 0 .821.24 1.461.72 1.92.491.459 1.174.688 2.048.688z"/><use xlink:href="#s"/><use xlink:href="#f" x="-10.305" y="282"/><path d="M177.052 677.584l-1.472 7.392c-.288 1.472-.832 2.539-1.632 3.2-.789.672-1.877 1.008-3.264 1.008-.789 0-1.504-.112-2.144-.336a4.4 4.4 0 0 1-1.6-.928l.672-.864c.342.352.784.624 1.328.816.555.203 1.163.304 1.824.304 1.056 0 1.878-.245 2.464-.736s.982-1.248 1.184-2.272l.192-.928c-.405.459-.896.816-1.472 1.072-.565.245-1.194.368-1.888.368-1.12 0-2.021-.304-2.704-.912-.672-.608-1.008-1.435-1.008-2.48 0-.896.203-1.707.608-2.432.416-.725.987-1.296 1.712-1.712.736-.416 1.563-.624 2.48-.624.8 0 1.488.165 2.064.496.576.32.982.795 1.216 1.424l.352-1.856h1.088zm-5.584 7.088c.694 0 1.318-.16 1.872-.48a3.34 3.34 0 0 0 1.312-1.328c.32-.565.48-1.2.48-1.904 0-.768-.245-1.365-.736-1.792-.49-.437-1.173-.656-2.048-.656-.704 0-1.333.16-1.888.48s-.992.763-1.312 1.328c-.309.565-.464 1.2-.464 1.904 0 .768.246 1.371.736 1.808.491.427 1.174.64 2.048.64zm8.137-2.56c-.011.075-.016.187-.016.336 0 .853.24 1.504.72 1.952.491.448 1.216.672 2.176.672.555 0 1.072-.091 1.552-.272.491-.192.891-.453 1.2-.784l.512.816c-.395.395-.891.704-1.488.928-.587.213-1.211.32-1.872.32-1.216 0-2.176-.32-2.88-.96-.693-.64-1.04-1.515-1.04-2.624 0-.939.197-1.787.592-2.544a4.53 4.53 0 0 1 1.664-1.776 4.51 4.51 0 0 1 2.4-.656c1.12 0 2.011.32 2.672.96.661.629.992 1.499.992 2.608a5.23 5.23 0 0 1-.112 1.024h-7.072zm3.488-3.632c-.843 0-1.563.251-2.16.752s-1.003 1.179-1.216 2.032h6a2.21 2.21 0 0 0 .016-.304c0-.789-.24-1.397-.72-1.824-.48-.437-1.12-.656-1.92-.656zm12.74-2.656l-.88 4.4h5.808l-.208 1.024h-5.808l-.944 4.752h-1.168l2.24-11.2h7.68l-.208 1.024h-6.512z"/><use xlink:href="#t"/><use xlink:href="#s" x="67.125"/><path d="M233.91 674.128L231.542 686h-1.088l.272-1.328c-.406.448-.886.795-1.44 1.04s-1.168.368-1.84.368c-.715 0-1.35-.144-1.904-.432s-.987-.699-1.296-1.232c-.31-.544-.464-1.179-.464-1.904 0-.949.202-1.803.608-2.56a4.57 4.57 0 0 1 1.712-1.776 4.62 4.62 0 0 1 2.432-.656c.789 0 1.456.16 2 .48.554.309.954.757 1.2 1.344l1.04-5.216h1.136zm-6.224 10.944c.693 0 1.317-.165 1.872-.496.554-.341.986-.811 1.296-1.408.32-.608.48-1.285.48-2.032 0-.821-.246-1.461-.736-1.92-.48-.469-1.158-.704-2.032-.704-.694 0-1.318.171-1.872.512s-.992.816-1.312 1.424c-.31.597-.464 1.269-.464 2.016 0 .821.24 1.461.72 1.92.49.459 1.173.688 2.048.688z"/><use xlink:href="#u"/><path d="M1338.5 391.8c1.26 0 2.24.277 2.95.832.7.555 1.05 1.333 1.05 2.336 0 1.429-.46 2.539-1.39 3.328-.92.779-2.19 1.168-3.81 1.168h-3.17l-.72 3.536h-1.16l2.24-11.2h4.01zm-1.18 6.624c1.28 0 2.26-.283 2.96-.848.69-.565 1.04-1.397 1.04-2.496 0-.736-.25-1.296-.75-1.68-.51-.384-1.23-.576-2.16-.576h-2.95l-1.13 5.6h2.99zm15.33-3.84l-1.68 8.416h-1.09l.27-1.328a4.12 4.12 0 0 1-1.44 1.04c-.55.245-1.17.368-1.84.368-.71 0-1.35-.144-1.9-.432a3.12 3.12 0 0 1-1.3-1.232c-.31-.544-.46-1.179-.46-1.904 0-.949.2-1.803.61-2.56s.98-1.349 1.71-1.776c.72-.437 1.53-.656 2.43-.656.8 0 1.47.16 2.02.48a2.73 2.73 0 0 1 1.18 1.344l.35-1.76h1.14zm-5.54 7.488c.69 0 1.32-.165 1.87-.496.56-.341.99-.811 1.3-1.408.32-.608.48-1.285.48-2.032 0-.821-.25-1.461-.74-1.92-.48-.469-1.15-.704-2.03-.704-.69 0-1.32.171-1.87.512-.56.341-.99.816-1.31 1.424-.31.597-.47 1.269-.47 2.016 0 .821.24 1.461.72 1.92.49.459 1.18.688 2.05.688zm15.77-7.488l-6.14 9.504c-.51.789-.99 1.333-1.44 1.632-.45.309-.98.464-1.6.464a3.15 3.15 0 0 1-1.15-.208c-.37-.128-.65-.309-.85-.544l.61-.832c.38.405.88.608 1.48.608.38 0 .71-.101 1.01-.304s.61-.555.93-1.056l.59-.896-2.09-8.368h1.15l1.74 7.168 4.59-7.168h1.17zm2.28 8.496a6.49 6.49 0 0 1-1.94-.288c-.61-.192-1.08-.437-1.41-.736l.55-.896c.32.277.74.501 1.26.672s1.07.256 1.65.256c.8 0 1.41-.128 1.84-.384.44-.267.65-.64.65-1.12 0-.267-.09-.48-.27-.64a1.67 1.67 0 0 0-.64-.368c-.25-.085-.63-.181-1.12-.288l-1.42-.384c-.36-.128-.67-.331-.93-.608s-.38-.661-.38-1.152c0-.8.33-1.435.99-1.904.66-.48 1.55-.72 2.65-.72a5.64 5.64 0 0 1 1.59.224c.52.139.94.325 1.26.56l-.48.912c-.32-.235-.7-.411-1.13-.528a4.62 4.62 0 0 0-1.33-.192c-.77 0-1.37.139-1.79.416-.43.277-.64.651-.64 1.12 0 .277.09.501.27.672s.4.299.67.384a12.78 12.78 0 0 0 1.12.272 11.18 11.18 0 0 1 1.39.384c.37.117.67.315.93.592s.38.651.38 1.12c0 .821-.34 1.467-1.02 1.936-.67.459-1.57.688-2.7.688zm13.31 0c-.77 0-1.44-.144-2.02-.432-.57-.299-1.02-.715-1.34-1.248-.31-.544-.47-1.173-.47-1.888 0-.949.21-1.803.63-2.56a4.48 4.48 0 0 1 1.73-1.776c.74-.437 1.58-.656 2.51-.656 1.17 0 2.1.32 2.78.96.7.64 1.04 1.504 1.04 2.592 0 .949-.21 1.808-.62 2.576-.42.757-1 1.355-1.75 1.792-.73.427-1.56.64-2.49.64zm.08-1.008c.69 0 1.32-.165 1.87-.496.56-.341.99-.811 1.3-1.408.32-.608.48-1.285.48-2.032 0-.821-.25-1.461-.74-1.92-.48-.469-1.16-.704-2.03-.704-.69 0-1.32.171-1.87.512a3.58 3.58 0 0 0-1.32 1.424c-.3.597-.46 1.269-.46 2.016 0 .821.24 1.461.72 1.92.49.459 1.17.688 2.05.688z"/><use xlink:href="#v"/><use xlink:href="#m" x="366.48" y="-138"/><path d="M1405.63 403.08c-.79 0-1.48-.144-2.07-.432-.58-.299-1.04-.715-1.36-1.248-.31-.544-.46-1.173-.46-1.888 0-.949.21-1.803.62-2.56.42-.757 1-1.349 1.75-1.776.74-.437 1.59-.656 2.52-.656.78 0 1.45.144 2 .432a2.96 2.96 0 0 1 1.32 1.248l-.96.56c-.48-.832-1.3-1.248-2.45-1.248-.69 0-1.32.171-1.89.512a3.66 3.66 0 0 0-1.31 1.408c-.31.597-.47 1.275-.47 2.032 0 .821.24 1.461.72 1.92.5.459 1.19.688 2.08.688.55 0 1.05-.101 1.51-.304a2.94 2.94 0 0 0 1.15-.912l.82.624a3.87 3.87 0 0 1-1.51 1.184 4.87 4.87 0 0 1-2.01.416zm7.45-11.952h1.13L1411.84 403h-1.13l2.37-11.872z"/><use xlink:href="#q" x="67.77" y="-282"/><path d="M1433.81 392.008c-.5 0-.9.133-1.18.4-.29.267-.5.683-.61 1.248l-.19.928h2.57l-.19.96h-2.54l-1.49 7.456h-1.14l1.49-7.456h-1.5l.17-.96h1.52l.21-1.056c.16-.8.48-1.413.96-1.84.49-.427 1.13-.64 1.92-.64a3.13 3.13 0 0 1 .96.144c.3.096.54.229.74.4l-.5.832c-.31-.277-.71-.416-1.2-.416zm4.06 11.072c-.76 0-1.44-.144-2.01-.432a3.3 3.3 0 0 1-1.35-1.248c-.3-.544-.46-1.173-.46-1.888 0-.949.21-1.803.62-2.56.42-.757 1-1.349 1.73-1.776.75-.437 1.59-.656 2.51-.656 1.18 0 2.11.32 2.79.96.69.64 1.04 1.504 1.04 2.592 0 .949-.21 1.808-.63 2.576a4.54 4.54 0 0 1-1.74 1.792c-.74.427-1.57.64-2.5.64zm.08-1.008c.7 0 1.32-.165 1.88-.496a3.54 3.54 0 0 0 1.29-1.408c.32-.608.48-1.285.48-2.032 0-.821-.24-1.461-.73-1.92-.48-.469-1.16-.704-2.04-.704-.69 0-1.31.171-1.87.512a3.63 3.63 0 0 0-1.31 1.424c-.31.597-.46 1.269-.46 2.016 0 .821.24 1.461.72 1.92.49.459 1.17.688 2.04.688z"/><use xlink:href="#r" x="87.27" y="-282"/><use xlink:href="#v" x="-61.18" y="24"/><use xlink:href="#m" x="305.3" y="-114"/><use xlink:href="#p" x="15.09" y="-258"/><path d="M1361.55 415.128L1359.18 427h-1.09l.27-1.328a4.12 4.12 0 0 1-1.44 1.04c-.55.245-1.17.368-1.84.368-.71 0-1.35-.144-1.9-.432a3.12 3.12 0 0 1-1.3-1.232c-.31-.544-.46-1.179-.46-1.904 0-.949.2-1.803.61-2.56s.98-1.349 1.71-1.776c.72-.437 1.53-.656 2.43-.656.79 0 1.46.16 2 .48a2.72 2.72 0 0 1 1.2 1.344l1.04-5.216h1.14zm-6.23 10.944c.7 0 1.32-.165 1.87-.496.56-.341.99-.811 1.3-1.408.32-.608.48-1.285.48-2.032 0-.821-.25-1.461-.74-1.92-.48-.469-1.15-.704-2.03-.704-.69 0-1.32.171-1.87.512a3.63 3.63 0 0 0-1.31 1.424c-.31.597-.47 1.269-.47 2.016 0 .821.24 1.461.72 1.92.49.459 1.18.688 2.05.688zm10.77 1.008c-.77 0-1.44-.144-2.02-.432-.58-.299-1.02-.715-1.34-1.248-.31-.544-.47-1.173-.47-1.888 0-.949.21-1.803.63-2.56a4.52 4.52 0 0 1 1.72-1.776c.75-.437 1.59-.656 2.52-.656 1.17 0 2.1.32 2.78.96.69.64 1.04 1.504 1.04 2.592 0 .949-.21 1.808-.62 2.576-.42.757-1 1.355-1.75 1.792-.73.427-1.57.64-2.49.64zm.08-1.008c.69 0 1.31-.165 1.87-.496a3.54 3.54 0 0 0 1.29-1.408c.32-.608.48-1.285.48-2.032 0-.821-.24-1.461-.73-1.92-.48-.469-1.16-.704-2.03-.704-.7 0-1.32.171-1.88.512a3.63 3.63 0 0 0-1.31 1.424c-.31.597-.46 1.269-.46 2.016 0 .821.24 1.461.72 1.92.49.459 1.17.688 2.05.688zm18.17-7.552c.95 0 1.68.24 2.19.72.53.469.79 1.131.79 1.984 0 .245-.04.576-.11.992l-.96 4.784h-1.14l.96-4.8c.05-.245.08-.507.08-.784 0-.597-.18-1.056-.53-1.376-.35-.331-.87-.496-1.55-.496-.85 0-1.56.24-2.13.72-.56.469-.94 1.168-1.13 2.096l-.93 4.64h-1.14l.96-4.8c.05-.299.08-.555.08-.768 0-.608-.17-1.072-.53-1.392-.34-.331-.86-.496-1.55-.496-.86 0-1.58.251-2.14.752-.57.491-.95 1.221-1.15 2.192l-.9 4.512h-1.14l1.67-8.416h1.09l-.28 1.344c.77-.939 1.83-1.408 3.19-1.408.7 0 1.29.144 1.76.432a2.22 2.22 0 0 1 .99 1.248c.42-.555.92-.971 1.52-1.248.61-.288 1.28-.432 2.03-.432zm14.97 0c.94 0 1.68.245 2.2.736.54.48.8 1.147.8 2 0 .299-.03.619-.09.96l-.96 4.784h-1.14l.96-4.8c.05-.299.08-.555.08-.768 0-.608-.19-1.072-.56-1.392-.36-.331-.9-.496-1.61-.496-.91 0-1.66.251-2.24.752-.59.491-.99 1.221-1.19 2.192l-.89 4.512h-1.14l1.66-8.416h1.09l-.27 1.344c.8-.939 1.9-1.408 3.3-1.408zm14.31.064l-1.68 8.416h-1.09l.28-1.344c-.79.949-1.88 1.424-3.25 1.424-.94 0-1.68-.24-2.21-.72-.52-.491-.78-1.168-.78-2.032 0-.299.03-.613.09-.944l.96-4.8h1.14l-.96 4.8a3.82 3.82 0 0 0-.08.752c0 .619.17 1.093.53 1.424s.9.496 1.61.496c.9 0 1.64-.251 2.23-.752.58-.501.98-1.232 1.18-2.192l.9-4.528h1.13zm13.47-.064c.95 0 1.68.24 2.19.72.53.469.79 1.131.79 1.984 0 .245-.04.576-.11.992L1429 427h-1.14l.96-4.8c.05-.245.08-.507.08-.784 0-.597-.18-1.056-.53-1.376-.35-.331-.87-.496-1.55-.496-.85 0-1.56.24-2.13.72-.56.469-.94 1.168-1.13 2.096l-.93 4.64h-1.14l.96-4.8c.05-.299.08-.555.08-.768 0-.608-.17-1.072-.53-1.392-.34-.331-.86-.496-1.55-.496-.86 0-1.58.251-2.14.752-.57.491-.95 1.221-1.15 2.192l-.9 4.512h-1.14l1.67-8.416h1.09l-.28 1.344c.77-.939 1.83-1.408 3.19-1.408.7 0 1.29.144 1.76.432a2.22 2.22 0 0 1 .99 1.248c.42-.555.92-.971 1.52-1.248.61-.288 1.28-.432 2.03-.432zm10.76 0c.72 0 1.35.144 1.91.432s1 .699 1.31 1.232.46 1.163.46 1.888c0 .949-.21 1.808-.62 2.576a4.58 4.58 0 0 1-1.7 1.792c-.72.427-1.54.64-2.45.64-.81 0-1.49-.165-2.04-.496s-.94-.805-1.17-1.424l-.37 1.84h-1.09l2.37-11.872h1.14l-.95 4.72a4.21 4.21 0 0 1 1.41-.976 4.45 4.45 0 0 1 1.79-.352zm-1.1 7.552c.69 0 1.31-.165 1.85-.496.56-.341.99-.811 1.3-1.408.32-.597.48-1.275.48-2.032 0-.821-.25-1.461-.74-1.92-.48-.469-1.15-.704-2.03-.704-.69 0-1.32.171-1.87.512-.54.331-.98.8-1.3 1.408-.31.597-.46 1.275-.46 2.032 0 .821.24 1.461.72 1.92.49.459 1.17.688 2.05.688zm7.24-2.96c-.01.075-.01.187-.01.336 0 .853.24 1.504.72 1.952.49.448 1.21.672 2.17.672a4.33 4.33 0 0 0 1.55-.272c.49-.192.89-.453 1.2-.784l.52.816c-.4.395-.9.704-1.49.928a5.45 5.45 0 0 1-1.87.32c-1.22 0-2.18-.32-2.88-.96s-1.04-1.515-1.04-2.624c0-.939.19-1.787.59-2.544s.96-1.349 1.66-1.776c.72-.437 1.52-.656 2.4-.656 1.12 0 2.01.32 2.67.96.66.629 1 1.499 1 2.608a4.92 4.92 0 0 1-.12 1.024h-7.07zm3.49-3.632c-.84 0-1.56.251-2.16.752s-1 1.179-1.22 2.032h6c.01-.075.02-.176.02-.304 0-.789-.24-1.397-.72-1.824-.48-.437-1.12-.656-1.92-.656z"/><use xlink:href="#r" x="95.7" y="-258"/><use xlink:href="#w"/><use xlink:href="#x"/><path d="M563.231 404.08c-.768 0-1.44-.144-2.016-.432-.576-.299-1.024-.715-1.344-1.248-.31-.544-.464-1.173-.464-1.888 0-.949.208-1.803.624-2.56a4.54 4.54 0 0 1 1.728-1.776c.746-.437 1.584-.656 2.512-.656 1.173 0 2.101.32 2.784.96.693.64 1.04 1.504 1.04 2.592 0 .949-.208 1.808-.624 2.576a4.62 4.62 0 0 1-1.744 1.792c-.736.427-1.568.64-2.496.64zm.08-1.008c.693 0 1.317-.165 1.872-.496.554-.341.986-.811 1.296-1.408.32-.608.48-1.285.48-2.032 0-.821-.246-1.461-.736-1.92-.48-.469-1.158-.704-2.032-.704-.694 0-1.318.171-1.872.512s-.992.816-1.312 1.424c-.31.597-.464 1.269-.464 2.016 0 .821.24 1.461.72 1.92.49.459 1.173.688 2.048.688z"/><use xlink:href="#y"/><use xlink:href="#z"/><use xlink:href="#AA"/><use xlink:href="#u" x="361.172" y="-282"/><use xlink:href="#h" x="416.945"/><use xlink:href="#i" x="416.945"/><path d="M627.041 395.584h1.136L626.513 404h-1.136l1.664-8.416zm1.056-1.84a.76.76 0 0 1-.56-.224.75.75 0 0 1-.208-.528c0-.245.08-.448.24-.608.171-.171.384-.256.64-.256a.76.76 0 0 1 .56.224c.15.139.224.304.224.496 0 .256-.085.469-.256.64s-.384.256-.64.256zm7.353 1.776c.949 0 1.685.245 2.208.736.533.48.8 1.147.8 2a5.22 5.22 0 0 1-.096.96l-.96 4.784h-1.136l.96-4.8a4.51 4.51 0 0 0 .08-.768c0-.608-.187-1.072-.56-1.392-.363-.331-.901-.496-1.616-.496-.907 0-1.653.251-2.24.752-.587.491-.981 1.221-1.184 2.192L630.81 404h-1.136l1.664-8.416h1.088l-.272 1.344c.8-.939 1.899-1.408 3.296-1.408zm10.812 0c.715 0 1.35.144 1.904.432a3.11 3.11 0 0 1 1.312 1.232c.31.533.464 1.163.464 1.888 0 .949-.208 1.808-.624 2.576-.405.757-.97 1.355-1.696 1.792-.725.427-1.541.64-2.448.64-.8 0-1.472-.155-2.016-.464-.544-.32-.938-.779-1.184-1.376l-.96 4.864h-1.136l2.288-11.52h1.088l-.272 1.344a3.97 3.97 0 0 1 1.44-1.04c.555-.245 1.168-.368 1.84-.368zm-1.104 7.552c.694 0 1.312-.165 1.856-.496a3.51 3.51 0 0 0 1.296-1.408c.32-.597.48-1.275.48-2.032 0-.821-.245-1.461-.736-1.92-.48-.469-1.157-.704-2.032-.704-.693 0-1.317.171-1.872.512-.544.331-.976.8-1.296 1.408-.309.597-.464 1.275-.464 2.032 0 .821.24 1.461.72 1.92.491.459 1.174.688 2.048.688zm15.452-7.488L658.93 404h-1.088l.272-1.344c-.789.949-1.872 1.424-3.248 1.424-.939 0-1.675-.24-2.208-.72-.523-.491-.784-1.168-.784-2.032 0-.299.032-.613.096-.944l.96-4.8h1.136l-.96 4.8c-.053.299-.08.549-.08.752 0 .619.176 1.093.528 1.424.363.331.901.496 1.616.496.896 0 1.637-.251 2.224-.752s.981-1.232 1.184-2.192l.896-4.528h1.136z"/><use xlink:href="#j" x="477.359" y="-24"/><path d="M682.159 395.584l-1.68 8.416h-1.088l.272-1.328c-.405.448-.885.795-1.44 1.04s-1.168.368-1.84.368c-.715 0-1.349-.144-1.904-.432s-.987-.699-1.296-1.232c-.309-.544-.464-1.179-.464-1.904 0-.949.203-1.803.608-2.56.416-.757.987-1.349 1.712-1.776a4.62 4.62 0 0 1 2.432-.656c.8 0 1.472.16 2.016.48.544.309.939.757 1.184 1.344l.352-1.76h1.136zm-5.536 7.488c.693 0 1.317-.165 1.872-.496a3.51 3.51 0 0 0 1.296-1.408c.32-.608.48-1.285.48-2.032 0-.821-.245-1.461-.736-1.92-.48-.469-1.157-.704-2.032-.704-.693 0-1.317.171-1.872.512s-.992.816-1.312 1.424c-.309.597-.464 1.269-.464 2.016 0 .821.24 1.461.72 1.92.491.459 1.173.688 2.048.688zm12.796-7.552c.949 0 1.685.245 2.208.736.533.48.8 1.147.8 2a5.22 5.22 0 0 1-.096.96l-.96 4.784h-1.136l.96-4.8a4.51 4.51 0 0 0 .08-.768c0-.608-.187-1.072-.56-1.392-.363-.331-.902-.496-1.616-.496-.907 0-1.654.251-2.24.752-.587.491-.982 1.221-1.184 2.192l-.896 4.512h-1.136l1.664-8.416h1.088l-.272 1.344c.8-.939 1.898-1.408 3.296-1.408zm15.131-3.392L702.182 404h-1.088l.272-1.328c-.405.448-.885.795-1.44 1.04s-1.168.368-1.84.368c-.714 0-1.349-.144-1.904-.432a3.14 3.14 0 0 1-1.296-1.232c-.309-.544-.464-1.179-.464-1.904 0-.949.203-1.803.608-2.56.416-.757.987-1.349 1.712-1.776.726-.437 1.536-.656 2.432-.656.79 0 1.456.16 2 .48.555.309.955.757 1.2 1.344l1.04-5.216h1.136zm-6.224 10.944c.694 0 1.318-.165 1.872-.496a3.51 3.51 0 0 0 1.296-1.408c.32-.608.48-1.285.48-2.032 0-.821-.245-1.461-.736-1.92-.48-.469-1.157-.704-2.032-.704-.693 0-1.317.171-1.872.512s-.992.816-1.312 1.424c-.309.597-.464 1.269-.464 2.016 0 .821.24 1.461.72 1.92.491.459 1.174.688 2.048.688z"/><use xlink:href="#y" x="-3.75" y="24"/><use xlink:href="#f" x="407.601" y="24"/><path d="M587.855 416.128h1.136L586.623 428h-1.136l2.368-11.872zm4.296 0h1.136L590.919 428h-1.136l2.368-11.872z"/><use xlink:href="#u" x="359.375" y="-258"/><path d="M611.056 417.008c-.501 0-.896.133-1.184.4s-.491.683-.608 1.248l-.192.928h2.576l-.192.96h-2.544L607.424 428h-1.136l1.488-7.456h-1.504l.176-.96h1.52l.208-1.056c.16-.8.48-1.413.96-1.84.491-.427 1.131-.64 1.92-.64.341 0 .661.048.96.144s.544.229.736.4l-.496.832c-.309-.277-.709-.416-1.2-.416z"/><use xlink:href="#t" x="409.281" y="-258"/><use xlink:href="#s" x="476.406" y="-258"/><use xlink:href="#y" x="63.625" y="24"/><path d="M644.076 425.456l-.064.528c0 .747.406 1.12 1.216 1.12.48 0 .912-.144 1.296-.432l.272.864c-.48.363-1.104.544-1.872.544-.629 0-1.13-.171-1.504-.512-.362-.341-.544-.811-.544-1.408a3.23 3.23 0 0 1 .064-.656l.976-4.96h-1.488l.176-.96h1.504l.368-1.84h1.136l-.368 1.84h2.56l-.192.96h-2.56l-.976 4.912zm6.34-5.872h1.136L649.888 428h-1.136l1.664-8.416zm1.056-1.84a.76.76 0 0 1-.56-.224.75.75 0 0 1-.208-.528c0-.245.08-.448.24-.608.171-.171.384-.256.64-.256a.76.76 0 0 1 .56.224c.15.139.224.304.224.496 0 .256-.085.469-.256.64s-.384.256-.64.256zm5.321 10.336c-.768 0-1.44-.144-2.016-.432-.576-.299-1.024-.715-1.344-1.248-.309-.544-.464-1.173-.464-1.888 0-.949.208-1.803.624-2.56a4.54 4.54 0 0 1 1.728-1.776c.747-.437 1.584-.656 2.512-.656 1.173 0 2.101.32 2.784.96.693.64 1.04 1.504 1.04 2.592 0 .949-.208 1.808-.624 2.576-.416.757-.997 1.355-1.744 1.792-.736.427-1.568.64-2.496.64zm.08-1.008c.693 0 1.317-.165 1.872-.496a3.51 3.51 0 0 0 1.296-1.408c.32-.608.48-1.285.48-2.032 0-.821-.245-1.461-.736-1.92-.48-.469-1.157-.704-2.032-.704-.693 0-1.317.171-1.872.512s-.992.816-1.312 1.424c-.309.597-.464 1.269-.464 2.016 0 .821.24 1.461.72 1.92.491.459 1.173.688 2.048.688z"/><use xlink:href="#s" x="517.203" y="-258"/><use xlink:href="#u" x="439.203" y="-258"/><use xlink:href="#w" x="36.594" y="280"/><use xlink:href="#x" x="36.594" y="280"/><use xlink:href="#k" x="-349.68" y="143"/><path d="M614.629 675.584L609.221 684h-1.168l-2.08-8.416h1.136l1.744 7.184 4.592-7.184h1.184zm1.584 0h1.136L615.685 684h-1.136l1.664-8.416zm1.056-1.84a.76.76 0 0 1-.56-.224c-.139-.149-.208-.325-.208-.528 0-.245.08-.448.24-.608.171-.171.384-.256.64-.256a.76.76 0 0 1 .56.224c.149.139.224.304.224.496 0 .256-.085.469-.256.64s-.384.256-.64.256zm11.625-1.616L626.526 684h-1.088l.272-1.328c-.405.448-.885.795-1.44 1.04s-1.168.368-1.84.368c-.715 0-1.349-.144-1.904-.432s-.987-.699-1.296-1.232c-.309-.544-.464-1.179-.464-1.904 0-.949.203-1.803.608-2.56.416-.757.987-1.349 1.712-1.776a4.62 4.62 0 0 1 2.432-.656c.789 0 1.456.16 2 .48.555.309.955.757 1.2 1.344l1.04-5.216h1.136zm-6.224 10.944c.693 0 1.317-.165 1.872-.496a3.51 3.51 0 0 0 1.296-1.408c.32-.608.48-1.285.48-2.032 0-.821-.245-1.461-.736-1.92-.48-.469-1.157-.704-2.032-.704-.693 0-1.317.171-1.872.512s-.992.816-1.312 1.424c-.309.597-.464 1.269-.464 2.016 0 .821.24 1.461.72 1.92.491.459 1.173.688 2.048.688z"/><use xlink:href="#z" x="51.297" y="280"/><use xlink:href="#AA" x="51.297" y="280"/><path d="M653.842 672.8h1.168l-2.24 11.2h-1.168l2.24-11.2zm4.828 0h4.256c1.109 0 2.058.187 2.848.56.8.373 1.402.907 1.808 1.6.416.683.624 1.483.624 2.4 0 1.301-.288 2.453-.864 3.456s-1.392 1.787-2.448 2.352c-1.046.555-2.262.832-3.648.832h-4.816l2.24-11.2zm2.608 10.176c1.162 0 2.176-.235 3.04-.704.874-.48 1.541-1.141 2-1.984.469-.843.704-1.803.704-2.88 0-1.109-.358-1.984-1.072-2.624s-1.766-.96-3.152-.96h-3.168l-1.824 9.152h3.472z"/></g><use xlink:href="#AB" fill="url(#Q)"/><use xlink:href="#AB" opacity=".063" fill="#6d6d6d"/><path d="M403.539 242.866c65.467 0 118.539-53.061 118.539-118.515S469.006 5.836 403.539 5.836 285 58.897 285 124.351s53.072 118.515 118.539 118.515z" fill="url(#R)"/><g fill="#fff"><use xlink:href="#Z" x="-270.064" y="-372"/><path d="M390.469 172.05V174h-8.13v-10.5h7.935v1.95h-5.52v2.28h4.875v1.89h-4.875v2.43h5.715z"/><use xlink:href="#a" x="-270.064" y="-372"/><use xlink:href="#e" x="-282.002" y="-644.567"/><path d="M417.938 163.5h2.43V174h-2.43v-10.5zm8.597 1.98h-3.36v-1.98h9.15v1.98h-3.36V174h-2.43v-8.52zm16.727 6.57V174h-8.13v-10.5h7.935v1.95h-5.52v2.28h4.875v1.89h-4.875v2.43h5.715z"/><use xlink:href="#AC" class="D"/><use xlink:href="#AC" y="15" class="D"/><use xlink:href="#AC" x="15" class="D"/><path d="M1383.16 93.777c-1.46-1.465-3.84-1.466-5.3 0a3.74 3.74 0 0 0 0 5.303c1.46 1.466 3.84 1.466 5.3 0a3.76 3.76 0 0 0 0-5.303zm-1.77 3.535a1.25 1.25 0 0 1-1.77 0c-.48-.488-.48-1.278 0-1.767a1.25 1.25 0 0 1 1.77 0c.49.487.49 1.28 0 1.767zm12.38-3.535c-1.47-1.466-3.84-1.466-5.31 0a3.76 3.76 0 0 0 0 5.303c1.47 1.466 3.84 1.466 5.31 0a3.76 3.76 0 0 0 0-5.303zm-1.77 3.535a1.25 1.25 0 0 1-1.77 0c-.49-.488-.49-1.278 0-1.767a1.25 1.25 0 0 1 1.77 0c.49.489.49 1.279 0 1.767zm12.37-3.535c-1.46-1.465-3.83-1.466-5.3 0a3.76 3.76 0 0 0 0 5.303c1.47 1.466 3.84 1.466 5.3 0a3.76 3.76 0 0 0 0-5.303zm-1.76 3.535a1.25 1.25 0 0 1-1.77 0c-.49-.487-.49-1.28 0-1.767a1.25 1.25 0 0 1 1.77 0c.48.487.48 1.28 0 1.767z" class="D"/><use xlink:href="#AC" x="15" y="15" class="D"/><path d="M1406.29 115.75a1.25 1.25 0 0 0-1.25 1.25 11.26 11.26 0 0 1-11.25 11.25 1.25 1.25 0 1 0 0 2.5 13.77 13.77 0 0 0 13.75-13.75 1.25 1.25 0 0 0-1.25-1.25zm-5 0a1.25 1.25 0 0 0-1.25 1.25c0 3.446-2.8 6.25-6.25 6.25a1.25 1.25 0 1 0 0 2.5 8.76 8.76 0 0 0 8.75-8.75 1.25 1.25 0 0 0-1.25-1.25zm10.15-21.973L1393.77 76.1c-1.47-1.465-3.84-1.466-5.31 0l-17.67 17.677a3.74 3.74 0 0 0 0 5.303l7.42 7.421h-16.92a3.76 3.76 0 0 0-3.75 3.75v25a3.76 3.76 0 0 0 3.75 3.75h25c2.07 0 3.75-1.682 3.75-3.75V117.7c1.28.381 2.72.064 3.73-.944l17.67-17.677a3.74 3.74 0 0 0 0-5.303zm-23.9 41.474a1.25 1.25 0 0 1-1.25 1.25h-25a1.25 1.25 0 0 1-1.25-1.25v-25a1.25 1.25 0 0 1 1.25-1.25h19.93 5.07a1.25 1.25 0 0 1 1.25 1.25v25zm22.14-37.939L1392 114.989a1.25 1.25 0 0 1-1.77-.001l-.19-.188v-4.55c0-2.068-1.68-3.75-3.75-3.75h-4.55l-9.19-9.189c-.48-.488-.49-1.277 0-1.767l17.68-17.677a1.25 1.25 0 0 1 1.77 0l17.68 17.677c.48.488.48 1.279 0 1.767zm-40.89-17.311a13.77 13.77 0 0 0-13.75 13.75 1.25 1.25 0 1 0 2.5 0 11.27 11.27 0 0 1 11.25-11.25 1.25 1.25 0 1 0 0-2.5zm0 5c-4.82 0-8.75 3.925-8.75 8.75a1.25 1.25 0 1 0 2.5 0c0-3.446 2.81-6.25 6.25-6.25a1.25 1.25 0 0 0 0-2.5z" class="D"/></g><path d="M177 302.722l119.335-107.851-.67-.742L176 302.278V367h1v-64.278zm446.5-1.422L507.664 196.371l.672-.742L624.5 300.857V366.5h-1v-65.2z" class="B E"/><g clip-path="url(#S)" fill="#d6d8dc"><path d="M387.461 109.67l-1.003 5.04-1.597-5.181a1.24 1.24 0 0 0-1.548-.818c-.442.136-.752.497-.844.919l-1.573 5.085-1.002-5.061a1.24 1.24 0 0 0-1.454-.975 1.24 1.24 0 0 0-.974 1.455l1.846 9.264a1.45 1.45 0 0 0 2.735-.03l.008-.026 1.623-5.245 1.618 5.248a.55.55 0 0 0 .018.053c.206.575.752.958 1.361.958a1.45 1.45 0 0 0 1.37-.988c.016-.049 1.844-9.215 1.844-9.215.134-.671-.301-1.322-.972-1.456a1.24 1.24 0 0 0-1.456.973zm18.043.483a1.24 1.24 0 0 0-.972-1.456 1.24 1.24 0 0 0-1.456.973l-1.004 5.044-1.597-5.184a1.24 1.24 0 0 0-1.547-.819c-.442.136-.752.497-.845.919l-1.573 5.081-1.001-5.057a1.24 1.24 0 0 0-1.454-.975 1.24 1.24 0 0 0-.975 1.455l1.847 9.264c.206.575.752.958 1.361.958.632-.006 1.176-.404 1.37-.988l.009-.025 1.625-5.246 1.615 5.247.018.054a1.45 1.45 0 0 0 1.363.959c.633-.007 1.177-.405 1.372-.989.016-.049 1.844-9.215 1.844-9.215zm6.391 10.203c.625 0 1.171-.383 1.377-.958l.018-.054 1.616-5.247 1.625 5.246c.002.008.005.017.008.025.195.584.739.981 1.354.988.625 0 1.171-.383 1.377-.958.021-.058 1.847-9.264 1.847-9.264a1.24 1.24 0 0 0-.974-1.455 1.24 1.24 0 0 0-1.455.974l-1 5.058-1.574-5.081c-.092-.422-.402-.783-.845-.919-.653-.202-1.346.165-1.547.818l-1.594 5.177-1.003-5.037a1.24 1.24 0 0 0-1.456-.972 1.24 1.24 0 0 0-.972 1.456l1.844 9.215c.195.584.739.981 1.354.988zm-12.602 4.398a1.24 1.24 0 0 0-1.238 1.238 1.24 1.24 0 0 0 1.238 1.238h.003c.684 0 1.236-.554 1.236-1.238a1.24 1.24 0 0 0-1.239-1.238zm36.344 7.312l-5.867-5.867 2.181-2.182c.342-.341.454-.851.286-1.304a1.24 1.24 0 0 0-1.065-.805l-4.587-.359v-16.912a2.86 2.86 0 0 0-2.857-2.853h-6.047a19 19 0 0 0 .679-5.051c0-10.514-8.554-19.067-19.067-19.067s-19.067 8.554-19.067 19.067c0 1.723.227 3.415.675 5.051h-6.047a2.86 2.86 0 0 0-2.854 2.853v19.736a2.86 2.86 0 0 0 2.854 2.857h18.899a1.24 1.24 0 0 0 1.238-1.238 1.24 1.24 0 0 0-1.238-1.238h-18.899c-.205 0-.378-.174-.378-.381v-19.736c0-.204.173-.378.378-.378h33.923 7.193 7.758c.207 0 .381.173.381.378v16.719l-4.075-.319a1.24 1.24 0 0 0-1.331 1.331l.187 2.386h-14.058a1.24 1.24 0 0 0-1.238 1.238 1.24 1.24 0 0 0 1.238 1.238h14.251l.491 6.277a1.24 1.24 0 0 0 .805 1.064c.453.168.963.056 1.304-.285l2.182-2.182 5.867 5.868c.232.232.547.362.875.362a1.24 1.24 0 0 0 .876-.362l4.155-4.155a1.24 1.24 0 0 0-.001-1.751zm-52.153-30.282a16.47 16.47 0 0 1-.737-3.813h5.195c.048 1.298.17 2.573.369 3.813h-4.827zm4.458-6.289h-5.194c.185-2.499.926-4.846 2.1-6.917 1.175.463 2.466.856 3.84 1.178-.419 1.818-.672 3.749-.746 5.739zm-1.675-9.027c1.583-2.004 3.617-3.635 5.948-4.739a16.6 16.6 0 0 0-1.167 1.784c-.666 1.171-1.231 2.469-1.693 3.858-1.097-.254-2.133-.555-3.088-.903zm11.788 15.316h-7.232c-.216-1.235-.352-2.51-.404-3.813h7.636v3.813zm0-6.289h-7.637c.077-1.842.324-3.611.711-5.252a48.18 48.18 0 0 0 6.926.621v4.631zm0-7.11c-2.13-.043-4.244-.222-6.232-.536 1.385-3.972 3.65-6.834 6.232-7.538v8.074zm2.476-8.074c2.567.7 4.821 3.534 6.208 7.472-1.971.333-4.077.53-6.208.592v-8.064zm7.228 21.473h-7.228v-3.813h7.635a28.79 28.79 0 0 1-.407 3.813zm-7.228-6.289v-4.641c2.371-.066 4.716-.293 6.909-.681a28.07 28.07 0 0 1 .727 5.323h-7.636 0zm7.007-11.982a16.61 16.61 0 0 0-1.168-1.784 16.69 16.69 0 0 1 5.849 4.616 25.1 25.1 0 0 1-3.019.932c-.456-1.354-1.011-2.619-1.662-3.764zm7.56 18.271h-4.827c.2-1.244.324-2.519.372-3.813h5.195a16.48 16.48 0 0 1-.74 3.813zm-4.455-6.289c-.076-2.025-.335-3.991-.767-5.837 1.359-.337 2.631-.745 3.781-1.221a16.49 16.49 0 0 1 2.181 7.058h-5.195zm19.964 39.851l-5.867-5.868c-.232-.232-.547-.362-.875-.362a1.24 1.24 0 0 0-.876.362l-1.156 1.157-.549-7.017 7.017.549-1.157 1.156a1.24 1.24 0 0 0 0 1.751l5.867 5.868-2.404 2.404z"/></g><defs><linearGradient id="A" x1="1468.43" y1="225.336" x2="1292.47" y2="49.34" xlink:href="#AD"><stop offset=".159" stop-color="#fffcfb"/><stop offset="1" stop-color="#c6cdc6"/></linearGradient><linearGradient id="B" x1="1464.28" y1="221.178" x2="1296.63" y2="53.5" xlink:href="#AD"><stop offset=".204" stop-color="#4f5b72"/><stop offset="1" stop-color="#343a46"/></linearGradient><linearGradient id="C" x1="92.374" y1="449.111" x2="276.866" y2="633.64" xlink:href="#AD"><stop offset=".159" stop-color="#fffcfb"/><stop offset="1" stop-color="#d7d7dc"/></linearGradient><linearGradient id="D" x1="32.448" y1="492.604" x2="90.492" y2="550.66" xlink:href="#AD"><stop stop-color="#ff6c55"/></linearGradient><linearGradient id="E" x1="18.037" y1="519.992" x2="60.768" y2="562.731" xlink:href="#AD"><stop offset=".159" stop-color="#fffcfb"/><stop offset="1" stop-color="#eaeeea"/></linearGradient><linearGradient id="F" x1="539.374" y1="449.111" x2="723.866" y2="633.64" xlink:href="#AD"><stop offset=".159" stop-color="#fffcfb"/><stop offset="1" stop-color="#d7d7dc"/></linearGradient><linearGradient id="G" x1="479.448" y1="492.656" x2="537.492" y2="550.712" xlink:href="#AD"><stop stop-color="#ff6b00"/><stop offset="1" stop-color="#ff9f00"/></linearGradient><linearGradient id="H" x1="465.038" y1="519.992" x2="507.769" y2="562.731" xlink:href="#AD"><stop offset=".159" stop-color="#fffcfb"/><stop offset="1" stop-color="#eaeeea"/></linearGradient><linearGradient id="I" x1="1301.37" y1="454.111" x2="1485.87" y2="638.64" xlink:href="#AD"><stop offset=".159" stop-color="#fffcfb"/><stop offset="1" stop-color="#d7d7dc"/></linearGradient><linearGradient id="J" x1="1217.5" y1="504" x2="1299.49" y2="555.717" xlink:href="#AD"><stop stop-color="#12b366"/><stop offset="1" stop-color="#18ce77"/></linearGradient><linearGradient id="K" x1="1227.04" y1="524.992" x2="1269.77" y2="567.731" xlink:href="#AD"><stop offset=".159" stop-color="#fffcfb"/><stop offset="1" stop-color="#eaeeea"/></linearGradient><linearGradient id="L" x1="539.374" y1="721.678" x2="723.866" y2="906.208" xlink:href="#AD"><stop offset=".159" stop-color="#fffcfb"/><stop offset="1" stop-color="#d7d7dc"/></linearGradient><linearGradient id="M" x1="479.405" y1="765.143" x2="537.45" y2="823.199" xlink:href="#AD"><stop stop-color="#0072da"/><stop offset="1" stop-color="#0045f0"/></linearGradient><linearGradient id="N" x1="465.038" y1="792.559" x2="507.769" y2="835.298" xlink:href="#AD"><stop offset=".159" stop-color="#fffcfb"/><stop offset="1" stop-color="#eaeeea"/></linearGradient><linearGradient id="O" x1="478.977" y1="797.8" x2="494.828" y2="807.193" xlink:href="#AD"><stop stop-color="#0072da"/><stop offset="1" stop-color="#0045f0"/></linearGradient><linearGradient id="P" x1="494.288" y1="810.979" x2="499.155" y2="814.421" xlink:href="#AD"><stop stop-color="#0072da"/><stop offset="1" stop-color="#0045f0"/></linearGradient><linearGradient id="Q" x1="491.432" y1="212.336" x2="315.472" y2="36.34" xlink:href="#AD"><stop offset=".159" stop-color="#fffcfb"/><stop offset="1" stop-color="#c6cdc6"/></linearGradient><linearGradient id="R" x1="487.44" y1="208.178" x2="319.796" y2="40.5" xlink:href="#AD"><stop offset=".204" stop-color="#4f5b72"/><stop offset="1" stop-color="#343a46"/></linearGradient><clipPath id="S"><path fill="#fff" transform="translate(372 76)" d="M0 0h64v64H0z"/></clipPath><path id="T" d="M1380.38 261.703c68.69 0 124.37-55.674 124.37-124.352S1449.07 13 1380.38 13 1256 68.674 1256 137.351s55.69 124.352 124.38 124.352z"/><path id="U" d="M1321.19 171.75h-4.87l-.93 2.25h-2.49l4.68-10.5h2.4l4.69 10.5h-2.55l-.93-2.25zm-.76-1.845l-1.67-4.02-1.66 4.02h3.33z"/><path id="V" d="M1359.85 174.18c-1.09 0-2.07-.235-2.95-.705-.87-.47-1.56-1.115-2.06-1.935-.49-.83-.73-1.76-.73-2.79s.24-1.955.73-2.775c.5-.83 1.19-1.48 2.06-1.95.88-.47 1.86-.705 2.95-.705s2.07.235 2.94.705 1.56 1.12 2.06 1.95c.5.82.75 1.745.75 2.775s-.25 1.96-.75 2.79c-.5.82-1.19 1.465-2.06 1.935s-1.85.705-2.94.705zm0-2.07c.62 0 1.18-.14 1.68-.42.5-.29.89-.69 1.17-1.2a3.46 3.46 0 0 0 .44-1.74 3.46 3.46 0 0 0-.44-1.74c-.28-.51-.67-.905-1.17-1.185-.5-.29-1.06-.435-1.68-.435s-1.18.145-1.68.435c-.5.28-.89.675-1.18 1.185-.28.51-.42 1.09-.42 1.74s.14 1.23.42 1.74c.29.51.68.91 1.18 1.2.5.28 1.06.42 1.68.42z"/><path id="W" d="M1378.48 174l-.01-6.3-3.09 5.19h-1.1l-3.07-5.055V174h-2.28v-10.5h2.01l3.93 6.525 3.87-6.525h1.99l.03 10.5h-2.28z"/><path id="X" d="M1393.52 192.18c-1.07 0-2.04-.23-2.91-.69-.86-.47-1.54-1.115-2.04-1.935-.49-.83-.74-1.765-.74-2.805s.25-1.97.74-2.79a5.2 5.2 0 0 1 2.04-1.935c.87-.47 1.84-.705 2.92-.705.91 0 1.73.16 2.46.48a4.93 4.93 0 0 1 1.86 1.38l-1.56 1.44c-.71-.82-1.59-1.23-2.64-1.23-.65 0-1.23.145-1.74.435a3.04 3.04 0 0 0-1.2 1.185c-.28.51-.42 1.09-.42 1.74s.14 1.23.42 1.74c.29.51.69.91 1.2 1.2.51.28 1.09.42 1.74.42 1.05 0 1.93-.415 2.64-1.245l1.56 1.44c-.5.61-1.12 1.075-1.86 1.395s-1.56.48-2.47.48z"/><path id="Y" d="M176.5 491c-.276 0-.5-.132-.5-.296v-45.408c0-.164.224-.296.5-.296s.5.132.5.296v45.408c0 .164-.224.296-.5.296z"/><path id="Z" d="M649.547 535.5l-3.435 10.5h-2.61l-2.31-7.11-2.385 7.11h-2.595l-3.45-10.5h2.52l2.37 7.38 2.475-7.38h2.25l2.4 7.44 2.445-7.44h2.325z"/><path id="a" d="M671.677 540.54c.6.19 1.07.51 1.41.96.34.44.51.985.51 1.635 0 .92-.36 1.63-1.08 2.13-.71.49-1.75.735-3.12.735h-5.43v-10.5h5.13c1.28 0 2.26.245 2.94.735a2.32 2.32 0 0 1 1.035 1.995c0 .51-.125.965-.375 1.365a2.52 2.52 0 0 1-1.02.945zm-5.295-3.21v2.475h2.415c.6 0 1.055-.105 1.365-.315s.465-.52.465-.93-.155-.715-.465-.915c-.31-.21-.765-.315-1.365-.315h-2.415zm2.835 6.84c.64 0 1.12-.105 1.44-.315.33-.21.495-.535.495-.975 0-.87-.645-1.305-1.935-1.305h-2.835v2.595h2.835z"/><path id="b" d="M1385.99 551l-2.03-2.925h-.12-2.11V551h-2.43v-10.5h4.54c.93 0 1.74.155 2.42.465.69.31 1.22.75 1.59 1.32s.55 1.245.55 2.025-.19 1.455-.57 2.025c-.37.56-.9.99-1.59 1.29l2.36 3.375h-2.61zm-.05-6.69c0-.59-.19-1.04-.57-1.35-.38-.32-.93-.48-1.66-.48h-1.98v3.66h1.98c.73 0 1.28-.16 1.66-.48s.57-.77.57-1.35z"/><path id="c" d="M1393.86 542.48h-3.36v-1.98h9.15v1.98h-3.36V551h-2.43v-8.52z"/><path id="d" d="M653.995 816.317h-4.875l-.93 2.25h-2.49l4.68-10.5h2.4l4.695 10.5h-2.55l-.93-2.25zm-.765-1.845l-1.665-4.02-1.665 4.02h3.33z"/><path id="e" d="M692.325 818.747c-.83 0-1.635-.11-2.415-.33-.77-.23-1.39-.525-1.86-.885l.825-1.83c.45.33.985.595 1.605.795a6.03 6.03 0 0 0 1.86.3c.69 0 1.2-.1 1.53-.3.33-.21.495-.485.495-.825 0-.25-.1-.455-.3-.615-.19-.17-.44-.305-.75-.405-.3-.1-.71-.21-1.23-.33l-1.965-.57a3.25 3.25 0 0 1-1.32-.915c-.36-.42-.54-.98-.54-1.68 0-.61.165-1.16.495-1.65.33-.5.825-.895 1.485-1.185.67-.29 1.485-.435 2.445-.435a8.07 8.07 0 0 1 1.965.24c.64.16 1.2.39 1.68.69l-.75 1.845c-.97-.55-1.94-.825-2.91-.825-.68 0-1.185.11-1.515.33-.32.22-.48.51-.48.87s.185.63.555.81c.38.17.955.34 1.725.51l1.965.57c.51.19.945.49 1.305.9.37.41.555.965.555 1.665a2.87 2.87 0 0 1-.51 1.65c-.33.49-.83.88-1.5 1.17s-1.485.435-2.445.435z"/><path id="f" d="M176.402 395.584l-1.68 8.416h-1.088l.272-1.328c-.406.448-.886.795-1.44 1.04s-1.168.368-1.84.368c-.715 0-1.35-.144-1.904-.432s-.987-.699-1.296-1.232c-.31-.544-.464-1.179-.464-1.904 0-.949.202-1.803.608-2.56a4.57 4.57 0 0 1 1.712-1.776 4.62 4.62 0 0 1 2.432-.656c.8 0 1.472.16 2.016.48a2.7 2.7 0 0 1 1.184 1.344l.352-1.76h1.136zm-5.536 7.488c.693 0 1.317-.165 1.872-.496.554-.341.986-.811 1.296-1.408.32-.608.48-1.285.48-2.032 0-.821-.246-1.461-.736-1.92-.48-.469-1.158-.704-2.032-.704-.694 0-1.318.171-1.872.512s-.992.816-1.312 1.424c-.31.597-.464 1.269-.464 2.016 0 .821.24 1.461.72 1.92.49.459 1.173.688 2.048.688z"/><path id="g" d="M181.693 404.08c-.789 0-1.477-.144-2.064-.432-.586-.299-1.04-.715-1.36-1.248-.309-.544-.464-1.173-.464-1.888 0-.949.208-1.803.624-2.56a4.51 4.51 0 0 1 1.744-1.776c.747-.437 1.59-.656 2.528-.656.779 0 1.446.144 2 .432.566.277 1.003.693 1.312 1.248l-.96.56c-.48-.832-1.296-1.248-2.448-1.248-.693 0-1.322.171-1.888.512-.554.341-.992.811-1.312 1.408-.309.597-.464 1.275-.464 2.032 0 .821.24 1.461.72 1.92.491.459 1.184.688 2.08.688.544 0 1.046-.101 1.504-.304a2.93 2.93 0 0 0 1.152-.912l.816.624c-.373.501-.874.896-1.504 1.184-.618.277-1.29.416-2.016.416z"/><path id="h" d="M187.816 400.112a2.72 2.72 0 0 0-.016.336c0 .853.24 1.504.72 1.952.491.448 1.216.672 2.176.672.555 0 1.072-.091 1.552-.272.491-.192.891-.453 1.2-.784l.512.816c-.394.395-.89.704-1.488.928-.586.213-1.21.32-1.872.32-1.216 0-2.176-.32-2.88-.96-.693-.64-1.04-1.515-1.04-2.624 0-.939.198-1.787.592-2.544.406-.757.96-1.349 1.664-1.776a4.51 4.51 0 0 1 2.4-.656c1.12 0 2.011.32 2.672.96.662.629.992 1.499.992 2.608a5.23 5.23 0 0 1-.112 1.024h-7.072zm3.488-3.632c-.842 0-1.562.251-2.16.752s-1.002 1.179-1.216 2.032h6a2.21 2.21 0 0 0 .016-.304c0-.789-.24-1.397-.72-1.824-.48-.437-1.12-.656-1.92-.656z"/><path id="i" d="M198.865 404.08a6.49 6.49 0 0 1-1.936-.288c-.608-.192-1.078-.437-1.408-.736l.544-.896c.32.277.741.501 1.264.672s1.072.256 1.648.256c.8 0 1.413-.128 1.84-.384.437-.267.656-.64.656-1.12 0-.267-.091-.48-.272-.64a1.71 1.71 0 0 0-.64-.368c-.256-.085-.63-.181-1.12-.288l-1.424-.384c-.363-.128-.672-.331-.928-.608s-.384-.661-.384-1.152a2.21 2.21 0 0 1 .992-1.904c.661-.48 1.546-.72 2.656-.72a5.64 5.64 0 0 1 1.584.224c.522.139.944.325 1.264.56l-.48.912c-.32-.235-.699-.411-1.136-.528a4.6 4.6 0 0 0-1.328-.192c-.768 0-1.366.139-1.792.416s-.64.651-.64 1.12c0 .277.09.501.272.672s.405.299.672.384c.277.085.65.176 1.12.272.576.128 1.04.256 1.392.384a2.14 2.14 0 0 1 .928.592c.256.277.384.651.384 1.12 0 .821-.342 1.467-1.024 1.936-.672.459-1.574.688-2.704.688z"/><path id="j" d="M186.577 425.456l-.064.528c0 .747.405 1.12 1.216 1.12.48 0 .912-.144 1.296-.432l.272.864c-.48.363-1.104.544-1.872.544-.63 0-1.131-.171-1.504-.512-.363-.341-.544-.811-.544-1.408a3.16 3.16 0 0 1 .064-.656l.976-4.96h-1.488l.176-.96h1.504l.368-1.84h1.136l-.368 1.84h2.56l-.192.96h-2.56l-.976 4.912z"/><path id="k" d="M949.504 541.08c-.768 0-1.44-.144-2.016-.432-.576-.299-1.024-.715-1.344-1.248-.309-.544-.464-1.173-.464-1.888 0-.949.208-1.803.624-2.56a4.54 4.54 0 0 1 1.728-1.776c.747-.437 1.584-.656 2.512-.656 1.174 0 2.102.32 2.784.96.694.64 1.04 1.504 1.04 2.592 0 .949-.208 1.808-.624 2.576-.416.757-.997 1.355-1.744 1.792-.736.427-1.568.64-2.496.64zm.08-1.008c.694 0 1.318-.165 1.872-.496a3.51 3.51 0 0 0 1.296-1.408c.32-.608.48-1.285.48-2.032 0-.821-.245-1.461-.736-1.92-.48-.469-1.157-.704-2.032-.704-.693 0-1.317.171-1.872.512s-.992.816-1.312 1.424c-.309.597-.464 1.269-.464 2.016 0 .821.24 1.461.72 1.92.491.459 1.174.688 2.048.688z"/><path id="l" d="M967.759 532.52c.95 0 1.68.24 2.192.72.523.469.784 1.131.784 1.984 0 .245-.037.576-.112.992l-.96 4.784h-1.136l.96-4.8c.054-.245.08-.507.08-.784 0-.597-.176-1.056-.528-1.376-.352-.331-.869-.496-1.552-.496-.853 0-1.562.24-2.128.72-.565.469-.944 1.168-1.136 2.096l-.928 4.64h-1.136l.96-4.8a4.41 4.41 0 0 0 .08-.768c0-.608-.176-1.072-.528-1.392-.341-.331-.858-.496-1.552-.496-.864 0-1.578.251-2.144.752-.565.491-.949 1.221-1.152 2.192l-.896 4.512h-1.136l1.664-8.416h1.088l-.272 1.344c.768-.939 1.83-1.408 3.184-1.408.704 0 1.291.144 1.76.432.48.288.811.704.992 1.248a3.97 3.97 0 0 1 1.52-1.248c.608-.288 1.286-.432 2.032-.432z"/><path id="m" d="M1033.85 532.584l-1.68 8.416h-1.08l.27-1.328a4.31 4.31 0 0 1-1.44 1.04 4.53 4.53 0 0 1-1.84.368c-.72 0-1.35-.144-1.91-.432-.55-.288-.98-.699-1.29-1.232-.31-.544-.47-1.179-.47-1.904 0-.949.21-1.803.61-2.56.42-.757.99-1.349 1.71-1.776a4.65 4.65 0 0 1 2.44-.656c.8 0 1.47.16 2.01.48.55.309.94.757 1.19 1.344l.35-1.76h1.13zm-5.53 7.488c.69 0 1.32-.165 1.87-.496.56-.341.99-.811 1.3-1.408.32-.608.48-1.285.48-2.032 0-.821-.25-1.461-.74-1.92-.48-.469-1.16-.704-2.03-.704-.69 0-1.32.171-1.87.512a3.58 3.58 0 0 0-1.32 1.424c-.3.597-.46 1.269-.46 2.016 0 .821.24 1.461.72 1.92.49.459 1.17.688 2.05.688z"/><path id="n" d="M1061.94 532.52c.95 0 1.69.245 2.21.736.53.48.8 1.147.8 2 0 .299-.03.619-.1.96l-.96 4.784h-1.13l.96-4.8c.05-.299.08-.555.08-.768 0-.608-.19-1.072-.56-1.392-.36-.331-.9-.496-1.62-.496-.9 0-1.65.251-2.24.752-.58.491-.98 1.221-1.18 2.192l-.9 4.512h-1.13l1.66-8.416h1.09l-.27 1.344c.8-.939 1.9-1.408 3.29-1.408z"/><path id="o" d="M1050.53 562.456l-.06.528c0 .747.4 1.12 1.21 1.12a2.13 2.13 0 0 0 1.3-.432l.27.864c-.48.363-1.1.544-1.87.544-.63 0-1.13-.171-1.51-.512-.36-.341-.54-.811-.54-1.408a3.39 3.39 0 0 1 .06-.656l.98-4.96h-1.49l.18-.96h1.5l.37-1.84h1.14l-.37 1.84h2.56l-.19.96h-2.56l-.98 4.912z"/><path id="p" d="M1331.32 676.52c.95 0 1.69.245 2.21.736.54.48.8 1.147.8 2 0 .299-.03.619-.09.96l-.96 4.784h-1.14l.96-4.8c.05-.299.08-.555.08-.768 0-.608-.19-1.072-.56-1.392-.36-.331-.9-.496-1.62-.496-.9 0-1.65.251-2.24.752-.58.491-.98 1.221-1.18 2.192l-.9 4.512h-1.13l1.66-8.416h1.09l-.27 1.344c.8-.939 1.9-1.408 3.29-1.408z"/><path id="q" d="M1348.29 681.112c-.01.075-.01.187-.01.336 0 .853.24 1.504.72 1.952.49.448 1.21.672 2.17.672a4.33 4.33 0 0 0 1.55-.272c.49-.192.89-.453 1.2-.784l.52.816c-.4.395-.89.704-1.49.928a5.45 5.45 0 0 1-1.87.32c-1.22 0-2.18-.32-2.88-.96s-1.04-1.515-1.04-2.624c0-.939.19-1.787.59-2.544s.96-1.349 1.66-1.776c.72-.437 1.52-.656 2.4-.656 1.12 0 2.01.32 2.67.96.67.629 1 1.499 1 2.608a4.92 4.92 0 0 1-.12 1.024h-7.07zm3.49-3.632c-.84 0-1.56.251-2.16.752s-1 1.179-1.22 2.032h6c.01-.075.02-.176.02-.304 0-.789-.24-1.397-.72-1.824-.48-.437-1.12-.656-1.92-.656z"/><path id="r" d="M1359.36 678.12c.37-.544.84-.944 1.4-1.2.57-.267 1.25-.4 2.05-.4l-.21 1.104-.32-.016c-.9 0-1.65.261-2.24.784-.57.523-.96 1.301-1.16 2.336l-.85 4.272h-1.14l1.67-8.416h1.08l-.28 1.536z"/><path id="s" d="M151.653 677.52c.95 0 1.686.245 2.208.736.534.48.8 1.147.8 2a5.22 5.22 0 0 1-.096.96l-.96 4.784h-1.136l.96-4.8a4.41 4.41 0 0 0 .08-.768c0-.608-.186-1.072-.56-1.392-.362-.331-.901-.496-1.616-.496-.906 0-1.653.251-2.24.752-.586.491-.981 1.221-1.184 2.192l-.896 4.512h-1.136l1.664-8.416h1.088l-.272 1.344c.8-.939 1.899-1.408 3.296-1.408z"/><path id="t" d="M211.501 677.584l-1.68 8.416h-1.088l.272-1.344c-.79.949-1.872 1.424-3.248 1.424-.939 0-1.675-.24-2.208-.72-.523-.491-.784-1.168-.784-2.032 0-.299.032-.613.096-.944l.96-4.8h1.136l-.96 4.8c-.054.299-.08.549-.08.752 0 .619.176 1.093.528 1.424.362.331.901.496 1.616.496.896 0 1.637-.251 2.224-.752s.981-1.232 1.184-2.192l.896-4.528h1.136z"/><path id="u" d="M237.153 686.08c-.672 0-1.317-.096-1.936-.288-.608-.192-1.077-.437-1.408-.736l.544-.896c.32.277.742.501 1.264.672s1.072.256 1.648.256c.8 0 1.414-.128 1.84-.384.438-.267.656-.64.656-1.12 0-.267-.09-.48-.272-.64-.17-.16-.384-.283-.64-.368s-.629-.181-1.12-.288l-1.424-.384a2.28 2.28 0 0 1-.928-.608c-.256-.277-.384-.661-.384-1.152 0-.8.331-1.435.992-1.904.662-.48 1.547-.72 2.656-.72a5.64 5.64 0 0 1 1.584.224c.523.139.944.325 1.264.56l-.48.912c-.32-.235-.698-.411-1.136-.528a4.59 4.59 0 0 0-1.328-.192c-.768 0-1.365.139-1.792.416s-.64.651-.64 1.12c0 .277.091.501.272.672s.406.299.672.384a12.69 12.69 0 0 0 1.12.272c.576.128 1.04.256 1.392.384.363.117.672.315.928.592s.384.651.384 1.12c0 .821-.341 1.467-1.024 1.936-.672.459-1.573.688-2.704.688z"/><path id="v" d="M1387.22 396.12a3.34 3.34 0 0 1 1.41-1.2c.56-.267 1.25-.4 2.05-.4l-.21 1.104-.32-.016c-.91 0-1.66.261-2.24.784s-.97 1.301-1.17 2.336l-.85 4.272h-1.13l1.66-8.416h1.09l-.29 1.536z"/><path id="w" d="M548.654 392.8c1.259 0 2.24.277 2.944.832s1.056 1.333 1.056 2.336c0 1.429-.464 2.539-1.392 3.328-.917.779-2.186 1.168-3.808 1.168h-3.168l-.72 3.536h-1.168l2.24-11.2h4.016zm-1.184 6.624c1.28 0 2.267-.283 2.96-.848s1.04-1.397 1.04-2.496c0-.736-.25-1.296-.752-1.68s-1.221-.576-2.16-.576h-2.944l-1.136 5.6h2.992z"/><path id="x" d="M555.732 397.12c.373-.544.842-.944 1.408-1.2.565-.267 1.248-.4 2.048-.4l-.208 1.104-.32-.016c-.907 0-1.654.261-2.24.784-.576.523-.966 1.301-1.168 2.336l-.848 4.272h-1.136l1.664-8.416h1.088l-.288 1.536z"/><path id="y" d="M573.326 404.08c-.79 0-1.478-.144-2.064-.432-.587-.299-1.04-.715-1.36-1.248-.31-.544-.464-1.173-.464-1.888 0-.949.208-1.803.624-2.56s.997-1.349 1.744-1.776c.746-.437 1.589-.656 2.528-.656.778 0 1.445.144 2 .432.565.277 1.002.693 1.312 1.248l-.96.56c-.48-.832-1.296-1.248-2.448-1.248-.694 0-1.323.171-1.888.512-.555.341-.992.811-1.312 1.408-.31.597-.464 1.275-.464 2.032 0 .821.24 1.461.72 1.92.49.459 1.184.688 2.08.688.544 0 1.045-.101 1.504-.304.469-.213.853-.517 1.152-.912l.816.624c-.374.501-.875.896-1.504 1.184-.619.277-1.291.416-2.016.416z"/><path id="z" d="M579.449 400.112c-.011.075-.016.187-.016.336 0 .853.24 1.504.72 1.952.49.448 1.216.672 2.176.672.554 0 1.072-.091 1.552-.272.49-.192.89-.453 1.2-.784l.512.816c-.395.395-.891.704-1.488.928-.587.213-1.211.32-1.872.32-1.216 0-2.176-.32-2.88-.96-.694-.64-1.04-1.515-1.04-2.624 0-.939.197-1.787.592-2.544a4.53 4.53 0 0 1 1.664-1.776c.714-.437 1.514-.656 2.4-.656 1.12 0 2.01.32 2.672.96.661.629.992 1.499.992 2.608a5.31 5.31 0 0 1-.112 1.024h-7.072zm3.488-3.632c-.843 0-1.563.251-2.16.752s-1.003 1.179-1.216 2.032h6a2.38 2.38 0 0 0 .016-.304c0-.789-.24-1.397-.72-1.824-.48-.437-1.12-.656-1.92-.656z"/><path id="AA" d="M590.497 404.08c-.672 0-1.317-.096-1.936-.288-.608-.192-1.077-.437-1.408-.736l.544-.896c.32.277.741.501 1.264.672s1.072.256 1.648.256c.8 0 1.413-.128 1.84-.384.437-.267.656-.64.656-1.12 0-.267-.091-.48-.272-.64a1.71 1.71 0 0 0-.64-.368c-.256-.085-.629-.181-1.12-.288l-1.424-.384c-.363-.128-.672-.331-.928-.608s-.384-.661-.384-1.152c0-.8.331-1.435.992-1.904.661-.48 1.547-.72 2.656-.72a5.64 5.64 0 0 1 1.584.224c.523.139.944.325 1.264.56l-.48.912c-.32-.235-.699-.411-1.136-.528-.427-.128-.869-.192-1.328-.192-.768 0-1.365.139-1.792.416s-.64.651-.64 1.12c0 .277.091.501.272.672s.405.299.672.384c.277.085.651.176 1.12.272.576.128 1.04.256 1.392.384.363.117.672.315.928.592s.384.651.384 1.12c0 .821-.341 1.467-1.024 1.936-.672.459-1.573.688-2.704.688z"/><path id="AB" d="M403.376 248.703c68.692 0 124.377-55.674 124.377-124.352S472.068 0 403.376 0 279 55.674 279 124.351s55.685 124.352 124.376 124.352z"/><path id="AC" d="M1366.29 111.5a3.76 3.76 0 0 0-3.75 3.75 3.76 3.76 0 0 0 3.75 3.75c2.07 0 3.75-1.682 3.75-3.75s-1.68-3.75-3.75-3.75zm0 5a1.25 1.25 0 1 1 0-2.5 1.25 1.25 0 1 1 0 2.5z"/><linearGradient id="AD" gradientUnits="userSpaceOnUse"/></defs></svg>