<svg xmlns="http://www.w3.org/2000/svg" width="64" height="64" fill="none" xmlns:v="https://vecta.io/nano"><path fill-rule="evenodd" d="M56.774 0C60.759 0 64 3.242 64 7.226c0 3.632-2.697 6.639-6.194 7.143v20.243C61.577 37.641 64 42.282 64 47.484A16.54 16.54 0 0 1 47.484 64c-8.758 0-15.927-6.858-16.463-15.484H0V7.226h49.548C49.548 3.242 52.79 0 56.774 0zm5.161 7.226a5.17 5.17 0 0 0-5.161-5.161 5.17 5.17 0 0 0-5.161 5.161 5.17 5.17 0 0 0 5.161 5.161 5.17 5.17 0 0 0 5.161-5.161zM31.805 42.323c.324-.983.733-1.925 1.227-2.817l2.065-2.909c3.029-3.443 7.453-5.629 12.387-5.629 3.01 0 5.825.823 8.258 2.236V14.37c-1.221-.177-2.342-.657-3.287-1.365l-6.314 6.313c.194.404.311.85.311 1.326a3.1 3.1 0 0 1-3.097 3.097 3.1 3.1 0 0 1-3.097-3.097c0-.477.117-.923.31-1.328l-2.08-2.08c-.404.194-.849.311-1.326.311s-.923-.117-1.328-.31l-5.177 5.177c.194.404.311.849.311 1.326a3.1 3.1 0 0 1-3.097 3.097 3.1 3.1 0 0 1-3.097-3.097 3.1 3.1 0 0 1 3.097-3.097 3.07 3.07 0 0 1 1.328.31l5.177-5.177c-.194-.404-.311-.85-.311-1.327a3.1 3.1 0 0 1 3.097-3.097 3.1 3.1 0 0 1 3.097 3.097c0 .477-.117.923-.31 1.328l2.08 2.08c.404-.194.849-.311 1.326-.311s.923.117 1.328.311l6.313-6.313a7.22 7.22 0 0 1-1.143-2.255H2.065v37.161H31.02a16.55 16.55 0 0 1 .249-2.065l.536-2.064zm14.647-9.238c-7.487.533-13.419 6.779-13.419 14.399a14.33 14.33 0 0 0 1.468 6.304l1.022 1.794c2.601 3.832 6.993 6.354 11.962 6.354s9.361-2.522 11.962-6.354l1.022-1.794a14.33 14.33 0 0 0 1.468-6.304c0-7.62-5.932-13.866-13.419-14.399h-2.065zm-2.065-12.44c0-.57-.463-1.032-1.032-1.032s-1.032.462-1.032 1.032.463 1.032 1.032 1.032 1.032-.462 1.032-1.032zm-7.226-7.226c-.569 0-1.032.462-1.032 1.032s.464 1.032 1.032 1.032 1.032-.463 1.032-1.032-.463-1.032-1.032-1.032zm-9.29 11.355c.569 0 1.032-.463 1.032-1.032s-.463-1.032-1.032-1.032-1.032.462-1.032 1.032.463 1.032 1.032 1.032zM4.129 13.419h2.065v-2.065H4.129v2.065zm4.129 0H22.71v-2.065H8.258v2.065zm-4.129 4.129h2.065v-2.065H4.129v2.065zm4.129 0H22.71v-2.065H8.258v2.065zm-4.129 4.129h2.065v-2.064H4.129v2.064zm4.129 0H22.71v-2.064H8.258v2.064zm-4.129 4.129h2.065v-2.064H4.129v2.064zm4.129 0H22.71v-2.064H8.258v2.064z" fill="#7f8284"/><path d="M5 34v10m4-8v8m4-6v6m4-10v10" stroke="#ff6b00" stroke-width="2"/><g fill-rule="evenodd" fill="#ff6b00"><path d="M47.5 44a2.5 2.5 0 1 0 0-5 2.5 2.5 0 1 0 0 5zm0 2a4.5 4.5 0 1 0 0-9 4.5 4.5 0 1 0 0 9z"/><path d="M53.815 54.5c-.299-1.597-.95-3.043-1.859-4.166C50.688 48.768 49.071 48 47.5 48s-3.188.768-4.456 2.334c-.909 1.123-1.56 2.569-1.859 4.166h12.631zm2.029 0c-.321-2.04-1.127-3.934-2.334-5.425C51.916 47.106 49.754 46 47.5 46s-4.416 1.106-6.01 3.075c-1.207 1.491-2.014 3.384-2.334 5.425-.103.654-.156 1.324-.156 2h17c0-.676-.053-1.346-.156-2z"/></g></svg>