<svg xmlns="http://www.w3.org/2000/svg" width="58" height="64" fill="none" xmlns:v="https://vecta.io/nano"><path d="M13.867 14.933a7.47 7.47 0 0 0 4.148-1.258c1.228-.82 2.185-1.987 2.75-3.351a7.47 7.47 0 0 0 .425-4.314 7.46 7.46 0 0 0-2.044-3.823C18.101 1.143 16.772.432 15.323.143a7.46 7.46 0 0 0-4.314.425 7.47 7.47 0 0 0-3.351 2.75C6.837 4.546 6.4 5.99 6.4 7.467c.002 1.98.79 3.877 2.189 5.277a7.47 7.47 0 0 0 5.277 2.189zm0-12.8c1.055 0 2.086.313 2.963.899s1.561 1.419 1.964 2.394.509 2.047.303 3.081a5.34 5.34 0 0 1-1.46 2.731c-.746.746-1.696 1.254-2.731 1.46s-2.107.1-3.081-.303a5.34 5.34 0 0 1-2.394-1.964c-.587-.877-.899-1.908-.899-2.963a5.34 5.34 0 0 1 5.333-5.333zM5.668 12.53l-.81.462A9.62 9.62 0 0 0 0 21.334v6.4a3.2 3.2 0 0 0 3.2 3.2h21.333a3.2 3.2 0 0 0 3.2-3.2v-6.4a9.62 9.62 0 0 0-4.859-8.341l-.81-.462-.566.747a9.57 9.57 0 0 1-15.264 0l-.566-.747zm8.198 6.67a11.63 11.63 0 0 0 4.762-1.005 11.62 11.62 0 0 0 3.933-2.866 7.48 7.48 0 0 1 2.232 2.641 7.5 7.5 0 0 1 .806 3.363v6.4c0 .283-.112.554-.312.754s-.471.312-.754.312H3.2c-.283 0-.554-.112-.754-.312s-.312-.471-.312-.754v-6.4a7.47 7.47 0 0 1 .806-3.363 7.48 7.48 0 0 1 2.232-2.641 11.63 11.63 0 0 0 3.933 2.866c1.498.667 3.122 1.01 4.762 1.005z" fill="#7f8284"/><g fill="#ff6b00"><path d="M26.667 56.533c.002 1.98.79 3.877 2.189 5.277s3.298 2.187 5.277 2.189h16c1.98-.002 3.877-.79 5.277-2.189s2.187-3.298 2.189-5.277v-16c-.002-1.98-.79-3.877-2.189-5.277s-3.298-2.187-5.277-2.189h-16c-1.98.002-3.878.79-5.277 2.189s-2.187 3.298-2.189 5.277v16zm28.8 0a5.34 5.34 0 0 1-5.333 5.333h-16a5.34 5.34 0 0 1-5.333-5.333v-12.8h26.667v12.8zm-26.667-16a5.34 5.34 0 0 1 5.333-5.333h16a5.34 5.34 0 0 1 5.333 5.333V41.6H28.8v-1.067z"/><path d="M33.824 37.642a1.07 1.07 0 0 0-1.161-.227 1.07 1.07 0 0 0-.477.393c-.117.175-.179.381-.179.592s.062.416.179.592.283.312.477.393a1.06 1.06 0 0 0 1.161-.228 1.11 1.11 0 0 0 .224-.352c.052-.131.085-.266.085-.405s-.029-.278-.085-.405a.99.99 0 0 0-.224-.352zm3.296-.287a.68.68 0 0 0-.192.064.84.84 0 0 0-.193.096l-.159.128a1.08 1.08 0 0 0 0 1.515l.159.128a.87.87 0 0 0 .193.096.68.68 0 0 0 .192.064 1.59 1.59 0 0 0 .213.021 1.07 1.07 0 0 0 1.052-1.277 1.07 1.07 0 0 0-.295-.548 1.11 1.11 0 0 0-.971-.288zm4.075.063a1.1 1.1 0 0 0-.352.224 1.08 1.08 0 0 0 0 1.515 1.1 1.1 0 0 0 .352.224c.128.055.266.084.405.085a1.07 1.07 0 0 0 .596-.178 1.06 1.06 0 0 0 .395-.48c.081-.196.102-.411.061-.619s-.144-.398-.295-.547-.34-.248-.547-.288a1.07 1.07 0 0 0-.615.064z"/></g><path d="M43.058 26.528l3.875 3.339 3.339-3.875-.227-3.058-2.471 2.862A20.29 20.29 0 0 0 27.733 9.6v2.133a18.16 18.16 0 0 1 17.631 13.916l-2.533-2.182.227 3.061zM8.142 37.472l-3.875-3.339-3.339 3.875.227 3.058 2.471-2.862A20.29 20.29 0 0 0 23.466 54.4v-2.133A18.16 18.16 0 0 1 5.835 38.351l2.533 2.182-.227-3.061z" fill="#7f8284"/></svg>