<svg xmlns="http://www.w3.org/2000/svg" width="62" height="64" fill="none" xmlns:v="https://vecta.io/nano"><path d="M56.533 12.267h-28.8V14.4h28.8v-2.133zm0-4.267H36.267v2.133h20.267V8zM29.867 43.734a1.07 1.07 0 0 0 1.067 1.067c.589 0 1.066-.478 1.066-1.067s-.477-1.067-1.067-1.067-1.067.478-1.067 1.067zm17.087-16.575l-1.508-1.508-2.133 2.133c-.416.417-.416 1.092 0 1.508l2.133 2.133 1.508-1.508-1.379-1.379 1.379-1.379zm8.533.625l-2.133-2.133-1.508 1.508 1.379 1.379-1.379 1.379 1.508 1.508 2.133-2.133c.416-.417.416-1.092 0-1.508zM49.455 25l-2.135 6.4 2.023.675 2.135-6.4L49.455 25z" fill="#ff6b00"/><path d="M55.467 0H6.4A6.41 6.41 0 0 0 0 6.4v20.934.01 12.123 3.2a6.41 6.41 0 0 0 6.4 6.4h13.208L15.341 57.6H9.6a3.2 3.2 0 0 0 0 6.4h42.667a3.2 3.2 0 0 0 0-6.4h-5.741l-4.267-8.533h13.208a6.41 6.41 0 0 0 6.4-6.4V6.4a6.41 6.41 0 0 0-6.4-6.4zM2.133 15.008l2.425 2.886c.203.241.502.381.817.381H8.64c.315 0 .614-.139.817-.381l2.426-2.886 2.394.778.264 3.758c.022.314.182.603.436.788l2.642 1.92c.256.185.579.247.885.172l3.662-.91 1.48 2.036-1.996 3.2c-.165.268-.204.596-.104.895l1.01 3.105c.097.299.322.541.613.659l3.497 1.418v2.517l-3.499 1.418a1.06 1.06 0 0 0-.613.66l-.32.978H16.09c2.39-5.005.271-11-4.734-13.39-2.94-1.404-6.378-1.295-9.222.293V15.008zm0 12.832c3.45-2.692 8.429-2.077 11.121 1.374 2.078 2.664 2.239 6.352.399 9.186H2.133V27.84zm50.133 31.893c.589 0 1.067.478 1.067 1.067s-.478 1.067-1.067 1.067H9.6c-.589 0-1.067-.478-1.067-1.067s.478-1.067 1.067-1.067h42.667zM44.141 57.6H17.726l4.267-8.533h17.882l4.267 8.533zm15.593-14.933a4.27 4.27 0 0 1-4.267 4.267H6.4a4.27 4.27 0 0 1-4.267-4.267v-2.133H14.21h.01 45.514v2.133zm0-4.267H24.805l3.329-1.349c.402-.163.665-.554.666-.988v-3.956c0-.434-.263-.825-.666-.989l-3.708-1.5-.702-2.16 2.114-3.392c.229-.368.212-.839-.043-1.19l-2.325-3.2c-.255-.352-.698-.513-1.12-.409l-3.878.96-1.832-1.331-.28-3.979c-.031-.434-.321-.806-.735-.94l-3.76-1.222c-.414-.132-.866-.002-1.147.33L8.15 16.141H5.875l-2.569-3.056c-.281-.332-.734-.462-1.148-.33l-.026.01V6.4A4.27 4.27 0 0 1 6.4 2.133h49.067A4.27 4.27 0 0 1 59.733 6.4v32z" fill="#7f8284"/></svg>