<svg xmlns="http://www.w3.org/2000/svg" width="64" height="64" fill="none" xmlns:v="https://vecta.io/nano"><path d="M63.681 12.043L51.948.309A1.1 1.1 0 0 0 51.191 0H24.524a3.21 3.21 0 0 0-3.2 3.2v6.453A22.37 22.37 0 0 0 0 32a22.37 22.37 0 0 0 21.324 22.347V60.8a3.21 3.21 0 0 0 3.2 3.2h36.267a3.21 3.21 0 0 0 3.2-3.2v-48a1.1 1.1 0 0 0-.309-.757zM52.257 3.637l8.096 8.096h-7.029c-.283 0-.554-.112-.754-.312s-.312-.471-.312-.754V3.637zM2.124 32a20.29 20.29 0 0 1 19.2-20.235v19.797L7.35 45.536A20.14 20.14 0 0 1 2.124 32zm6.731 15.04l13.973-13.973h19.797c-.194 3.822-1.469 7.511-3.676 10.637a20.23 20.23 0 0 1-8.792 7.026c-3.536 1.463-7.415 1.893-11.186 1.24s-7.279-2.363-10.117-4.93zM61.857 60.8c0 .283-.112.554-.312.754s-.471.312-.754.312H24.524c-.283 0-.554-.112-.754-.312s-.312-.471-.312-.754v-6.453c5.744-.277 11.161-2.752 15.131-6.911S44.78 37.75 44.791 32c0-.283-.112-.554-.312-.754s-.471-.312-.754-.312H23.457V3.2c0-.283.112-.554.312-.754s.471-.312.754-.312h25.6v8.533a3.21 3.21 0 0 0 3.2 3.2h8.533V60.8z" fill="#7f8284"/><path d="M26.657 5.333c-.283 0-.554.112-.754.312s-.312.471-.312.754v21.333c0 .283.112.554.313.754s.471.312.754.312H47.99c.283 0 .554-.112.754-.312s.312-.471.312-.754c-.007-5.939-2.369-11.633-6.568-15.832S32.596 5.34 26.657 5.333zm1.067 21.333V7.498c4.996.268 9.718 2.374 13.256 5.912s5.644 8.259 5.912 13.256H27.724z" fill="#ff6b00"/><path d="M50.124 40.533a9.6 9.6 0 0 0-8.869 5.926 9.6 9.6 0 0 0 2.081 10.462 9.6 9.6 0 0 0 10.462 2.081 9.6 9.6 0 0 0 5.926-8.869c-.004-2.545-1.017-4.984-2.816-6.784s-4.239-2.812-6.784-2.816zm0 17.067c-1.477 0-2.92-.438-4.148-1.258s-2.185-1.987-2.75-3.351-.713-2.866-.425-4.314.999-2.779 2.044-3.823 2.375-1.755 3.823-2.043 2.95-.14 4.314.425 2.531 1.522 3.351 2.75 1.258 2.671 1.258 4.148c-.002 1.98-.79 3.877-2.189 5.277s-3.298 2.187-5.277 2.189z" fill="#7f8284"/><path d="M47.99 51.825l-2.446-2.446-1.508 1.508 3.2 3.2c.2.2.471.312.754.312s.554-.112.754-.312l6.4-6.4-1.508-1.508-5.646 5.646zm3.2-33.692h8.533v2.133H51.19v-2.133zm0 6.4h8.533v2.133H51.19v-2.133zm0 6.401h8.533v2.133H51.19v-2.133z" fill="#ff6b00"/></svg>