<svg xmlns="http://www.w3.org/2000/svg" width="64" height="64" fill="none" xmlns:v="https://vecta.io/nano"><path d="M63.055 0H.945C.821 0 .698.024.583.072S.364.189.277.277.119.469.072.583 0 .821 0 .945v52.556c0 .251.1.491.277.668s.418.277.668.277h16.79v4.591a4.97 4.97 0 0 0 4.96 4.961h18.61a4.97 4.97 0 0 0 4.96-4.961v-4.591h16.79c.251 0 .491-.1.668-.277s.277-.418.277-.668V.945c0-.124-.024-.247-.072-.362s-.117-.219-.205-.307-.192-.157-.307-.205S63.179 0 63.055 0zM1.89 1.89H62.11v5.747H1.89V1.89zm17.735 51.626v-.031-23.72h24.75v23.72.016 1.693h-24.75v-1.678zm.087-25.642c.161-.67.543-1.267 1.084-1.694s1.21-.66 1.899-.662h18.61c.689.001 1.358.234 1.899.662s.923 1.024 1.084 1.694H19.712zM41.305 62.11h-18.61c-.814-.001-1.594-.325-2.17-.9s-.899-1.356-.9-2.17v-1.955h24.75v1.955c-.001.814-.325 1.594-.9 2.17s-1.356.899-2.17.9zm4.96-9.554V28.589a4.97 4.97 0 0 0-4.96-4.961h-18.61a4.97 4.97 0 0 0-4.96 4.961v23.966H1.89V9.528H62.11v43.028H46.265z" fill="#7f8284"/><path d="M42.239 3.131c-.323 0-.639.096-.907.275a1.64 1.64 0 0 0-.602.733 1.63 1.63 0 0 0-.093.944c.063.317.219.608.447.836s.52.384.836.447.645.031.944-.093.553-.333.733-.602a1.63 1.63 0 0 0 .275-.907c0-.433-.172-.849-.478-1.155s-.722-.478-1.155-.478zm6.391 0c-.323 0-.639.096-.907.275s-.478.434-.602.733a1.63 1.63 0 0 0-.093.944c.063.317.218.608.447.836s.519.384.836.447a1.63 1.63 0 0 0 .944-.093c.299-.124.553-.333.733-.602a1.63 1.63 0 0 0 .275-.907c0-.433-.172-.848-.478-1.155s-.721-.478-1.154-.479zm6.391 0c-.323 0-.639.096-.907.275s-.478.434-.602.733a1.63 1.63 0 0 0-.093.944c.063.317.218.608.447.836s.519.384.836.447a1.63 1.63 0 0 0 1.677-.695c.179-.269.275-.584.275-.907a1.63 1.63 0 0 0-.478-1.155 1.63 1.63 0 0 0-1.155-.478zM32 57.924c-.331 0-.655.098-.93.282a1.68 1.68 0 0 0-.617.751c-.127.306-.16.642-.095.967s.224.623.458.857a1.67 1.67 0 0 0 .857.458c.325.064.661.031.967-.095s.567-.341.751-.617.282-.599.282-.93c0-.444-.176-.87-.49-1.184s-.74-.49-1.184-.49zm8.235-23.05l-.027-.09a.99.99 0 0 0-.054-.1l-.035-.063a.94.94 0 0 0-.263-.263l-.063-.034c-.058-.038-.122-.065-.19-.081-.029-.009-.054-.019-.086-.025-.061-.013-.123-.019-.185-.019h-4.476c-.251 0-.491.1-.668.277s-.277.418-.277.668.1.491.277.668.418.277.668.277h2.196L25.611 47.533v-2.197c0-.251-.1-.491-.277-.668s-.418-.277-.668-.277-.491.1-.668.277-.277.418-.277.668v4.478a.97.97 0 0 0 .018.185c.006.029.017.054.025.084l.029.092a.71.71 0 0 0 .051.098c.012.021.021.044.035.064a.96.96 0 0 0 .262.263c.022.014.044.023.066.036a.9.9 0 0 0 .096.051c.03.012.063.019.094.029l.082.024a.97.97 0 0 0 .185.018h4.477a.94.94 0 0 0 .668-.277.95.95 0 0 0 .277-.668c0-.25-.1-.491-.277-.668s-.418-.277-.668-.277h-2.196l11.442-11.442v2.196c0 .251.1.491.277.668s.418.277.668.277A.94.94 0 0 0 40 40.29a.95.95 0 0 0 .277-.668v-4.478a.96.96 0 0 0-.018-.185c-.006-.03-.017-.057-.026-.086z" fill="#ff6b00"/></svg>