<svg xmlns="http://www.w3.org/2000/svg" width="440" height="485" fill="none" xmlns:v="https://vecta.io/nano"><path d="M-88.571 233.846h74l-14.095-80.865h-59.905c-31.715 0-56.381-24.611-56.381-56.254s24.666-56.254 56.381-56.254h42.286l-14.096-73.833c-7.048-28.127 14.095-56.254 45.81-63.285 28.191-7.032 56.381 14.063 63.429 45.706l17.619 91.412h109.238L161.62-33.359c-7.048-28.127 14.095-56.254 45.809-63.285 28.191-7.032 56.381 14.063 63.429 45.706l17.619 91.412h95.143c31.714 0 56.38 24.611 56.38 56.254s-31.713 56.254-63.428 56.254h-74l14.095 80.865h59.905c31.715 0 56.381 24.611 56.381 56.254s-24.666 56.253-56.381 56.253h-42.286l14.096 73.834c7.047 28.126-14.096 56.253-45.81 63.285-21.143 7.032-56.381-10.548-63.429-45.706l-17.619-91.413H112.286l14.095 73.834c7.048 28.126-14.095 56.253-45.809 63.285-21.143 7.032-56.381-10.548-63.429-45.706L-.476 346.353h-95.143c-31.714 0-56.381-24.611-56.381-56.253 10.572-31.643 35.238-56.254 63.429-56.254zm186.762 0h109.238l-14.095-80.865H84.096l14.095 80.865z" fill="url(#A)" fill-opacity=".5"/><path d="M-12.601 233.503l.408 2.343h-2.379-74c-26.885 0-50.94 23.506-61.428 54.578.168 30.377 23.875 53.929 54.38 53.929H-.476h1.651l.313 1.622 17.616 91.398c3.409 16.995 13.621 29.734 25.548 37.384 11.99 7.69 25.454 10.088 35.289 6.817l.098-.032.1-.023c30.919-6.855 51.006-34.092 44.302-60.846l-.013-.056-.011-.055-14.095-73.834-.454-2.375h2.418 109.238 1.652l.312 1.622 17.616 91.398c3.41 16.995 13.622 29.734 25.548 37.384 11.99 7.69 25.454 10.088 35.289 6.817l.098-.032.1-.023c30.92-6.855 51.006-34.092 44.303-60.846l-.014-.056-.011-.055-14.095-73.833-.454-2.376h2.418 42.286c30.614 0 54.381-23.719 54.381-54.253s-23.767-54.254-54.381-54.254h-59.905-1.681l-.289-1.657-14.095-80.864-.409-2.344h2.379 74c15.36 0 30.763-5.969 42.312-15.785C430.426 125.387 438 111.847 438 96.727c0-30.534-23.766-54.254-54.38-54.254h-95.143-1.651l-.313-1.621L268.9-50.532c-6.88-30.825-34.168-50.862-60.987-44.173l-.025.006-.026.006c-30.919 6.855-51.006 34.092-44.302 60.847l.013.055.011.056 14.095 73.833.454 2.375h-2.418H66.477h-1.651l-.312-1.621-17.614-91.384c-6.879-30.825-34.167-50.862-60.986-44.173l-.025.006-.026.006C-45.058-87.837-65.144-60.6-58.441-33.846l.014.055.011.056 14.096 73.833.454 2.375h-2.418-42.286c-30.614 0-54.381 23.72-54.381 54.254s23.767 54.254 54.381 54.254h59.905 1.681l.289 1.657 14.095 80.865zm110.792 2.343h-1.682l-.289-1.657-14.095-80.864-.409-2.344h2.379 109.238 1.681l.289 1.657 14.095 80.864.409 2.344h-2.379H98.191z" stroke="#ff8a00" stroke-opacity=".4" stroke-width="4"/><defs><linearGradient id="A" x1="144" y1="-98" x2="144" y2="485" gradientUnits="userSpaceOnUse"><stop stop-color="#f90"/><stop offset="1" stop-color="#ff6b00"/></linearGradient></defs></svg>