<svg width="167" height="46" viewBox="0 0 167 46" fill="none" xmlns="http://www.w3.org/2000/svg">
<path d="M56.8149 10.4214V19.3087H55.1264L50.6954 13.9128V19.3087H48.6641V10.4214H50.3653L54.7836 15.8172V10.4214H56.8149Z" fill="#5E5E5E"/>
<path d="M61.533 12.3766C62.591 12.3766 63.4036 12.6305 63.9707 13.1384C64.5377 13.6378 64.8213 14.3953 64.8213 15.411V19.3087H62.9677V18.458C62.5952 19.0928 61.9012 19.4102 60.8855 19.4102C60.3607 19.4102 59.9037 19.3214 59.5143 19.1436C59.1335 18.9659 58.8414 18.7204 58.6383 18.4072C58.4352 18.0941 58.3336 17.7386 58.3336 17.3408C58.3336 16.706 58.5706 16.2066 59.0446 15.8426C59.527 15.4787 60.2676 15.2967 61.2664 15.2967H62.8407C62.8407 14.865 62.7095 14.5349 62.4471 14.3064C62.1847 14.0694 61.7912 13.9509 61.2664 13.9509C60.9024 13.9509 60.5427 14.0102 60.1872 14.1287C59.8402 14.2387 59.544 14.3911 59.2985 14.5857L58.5875 13.2019C58.9599 12.9395 59.4043 12.7363 59.9206 12.5924C60.4454 12.4486 60.9828 12.3766 61.533 12.3766ZM61.3807 18.0771C61.7192 18.0771 62.0197 18.001 62.2821 17.8486C62.5445 17.6878 62.7307 17.455 62.8407 17.1503V16.452H61.4822C60.6697 16.452 60.2634 16.7187 60.2634 17.2519C60.2634 17.5058 60.3607 17.709 60.5554 17.8613C60.7586 18.0052 61.0336 18.0771 61.3807 18.0771Z" fill="#5E5E5E"/>
<path d="M71.0193 18.9786C70.8247 19.1225 70.5835 19.2325 70.2957 19.3087C70.0164 19.3764 69.7201 19.4102 69.4069 19.4102C68.5944 19.4102 67.9638 19.2029 67.5152 18.7881C67.0751 18.3734 66.855 17.764 66.855 16.9599V14.1541H65.8013V12.6305H66.855V10.9673H68.8356V12.6305H70.5369V14.1541H68.8356V16.9345C68.8356 17.2223 68.9076 17.4466 69.0515 17.6074C69.2038 17.7597 69.4154 17.8359 69.6863 17.8359C69.9994 17.8359 70.266 17.7513 70.4861 17.582L71.0193 18.9786Z" fill="#5E5E5E"/>
<path d="M79.0124 12.4782V19.3087H77.1334V18.4961C76.871 18.7924 76.5578 19.0209 76.1939 19.1817C75.8299 19.3341 75.4364 19.4102 75.0132 19.4102C74.116 19.4102 73.405 19.1521 72.8802 18.6358C72.3554 18.1195 72.0931 17.3535 72.0931 16.3378V12.4782H74.0736V16.0458C74.0736 17.1461 74.5349 17.6963 75.4575 17.6963C75.9315 17.6963 76.3124 17.5439 76.6002 17.2392C76.8879 16.926 77.0318 16.4647 77.0318 15.8553V12.4782H79.0124Z" fill="#5E5E5E"/>
<path d="M82.739 13.3796C82.976 13.0495 83.2934 12.7998 83.6912 12.6305C84.0975 12.4613 84.563 12.3766 85.0878 12.3766V14.2048C84.8677 14.1879 84.7196 14.1795 84.6434 14.1795C84.0763 14.1795 83.632 14.3403 83.3103 14.6619C82.9887 14.9751 82.8279 15.4491 82.8279 16.0839V19.3087H80.8473V12.4782H82.739V13.3796Z" fill="#5E5E5E"/>
<path d="M88.9833 12.3766C90.0413 12.3766 90.8538 12.6305 91.4209 13.1384C91.988 13.6378 92.2716 14.3953 92.2716 15.411V19.3087H90.4179V18.458C90.0455 19.0928 89.3515 19.4102 88.3358 19.4102C87.811 19.4102 87.354 19.3214 86.9646 19.1436C86.5837 18.9659 86.2917 18.7204 86.0886 18.4072C85.8854 18.0941 85.7839 17.7386 85.7839 17.3408C85.7839 16.706 86.0209 16.2066 86.4949 15.8426C86.9773 15.4787 87.7179 15.2967 88.7167 15.2967H90.291C90.291 14.865 90.1598 14.5349 89.8974 14.3064C89.635 14.0694 89.2414 13.9509 88.7167 13.9509C88.3527 13.9509 87.993 14.0102 87.6375 14.1287C87.2905 14.2387 86.9942 14.3911 86.7488 14.5857L86.0378 13.2019C86.4102 12.9395 86.8546 12.7363 87.3709 12.5924C87.8957 12.4486 88.4331 12.3766 88.9833 12.3766ZM88.8309 18.0771C89.1695 18.0771 89.47 18.001 89.7324 17.8486C89.9947 17.6878 90.1809 17.455 90.291 17.1503V16.452H88.9325C88.12 16.452 87.7137 16.7187 87.7137 17.2519C87.7137 17.5058 87.811 17.709 88.0057 17.8613C88.2088 18.0052 88.4839 18.0771 88.8309 18.0771Z" fill="#5E5E5E"/>
<path d="M94.0641 9.88818H96.0447V19.3087H94.0641V9.88818Z" fill="#5E5E5E"/>
<path d="M101.618 10.4214H103.675V17.6328H108.131V19.3087H101.618V10.4214Z" fill="#5E5E5E"/>
<path d="M111.97 12.3766C113.028 12.3766 113.841 12.6305 114.408 13.1384C114.975 13.6378 115.258 14.3953 115.258 15.411V19.3087H113.405V18.458C113.032 19.0928 112.338 19.4102 111.323 19.4102C110.798 19.4102 110.341 19.3214 109.951 19.1436C109.571 18.9659 109.279 18.7204 109.075 18.4072C108.872 18.0941 108.771 17.7386 108.771 17.3408C108.771 16.706 109.008 16.2066 109.482 15.8426C109.964 15.4787 110.705 15.2967 111.703 15.2967H113.278C113.278 14.865 113.147 14.5349 112.884 14.3064C112.622 14.0694 112.228 13.9509 111.703 13.9509C111.34 13.9509 110.98 14.0102 110.624 14.1287C110.277 14.2387 109.981 14.3911 109.736 14.5857L109.025 13.2019C109.397 12.9395 109.841 12.7363 110.358 12.5924C110.882 12.4486 111.42 12.3766 111.97 12.3766ZM111.818 18.0771C112.156 18.0771 112.457 18.001 112.719 17.8486C112.982 17.6878 113.168 17.455 113.278 17.1503V16.452H111.919C111.107 16.452 110.701 16.7187 110.701 17.2519C110.701 17.5058 110.798 17.709 110.993 17.8613C111.196 18.0052 111.471 18.0771 111.818 18.0771Z" fill="#5E5E5E"/>
<path d="M121.203 12.3766C122.049 12.3766 122.73 12.6305 123.247 13.1384C123.771 13.6462 124.034 14.3995 124.034 15.3983V19.3087H122.053V15.703C122.053 15.1613 121.935 14.7592 121.698 14.4969C121.461 14.226 121.118 14.0906 120.669 14.0906C120.17 14.0906 119.772 14.2472 119.476 14.5603C119.18 14.865 119.031 15.3221 119.031 15.9315V19.3087H117.051V12.4782H118.943V13.278C119.205 12.9903 119.531 12.7702 119.92 12.6178C120.31 12.457 120.737 12.3766 121.203 12.3766Z" fill="#5E5E5E"/>
<path d="M132.95 12.4782V18.166C132.95 19.4187 132.624 20.3497 131.972 20.9591C131.32 21.5686 130.368 21.8733 129.116 21.8733C128.455 21.8733 127.829 21.7929 127.237 21.632C126.644 21.4712 126.153 21.2385 125.764 20.9338L126.551 19.5118C126.839 19.7488 127.203 19.935 127.643 20.0704C128.083 20.2143 128.523 20.2863 128.963 20.2863C129.649 20.2863 130.152 20.1297 130.474 19.8165C130.804 19.5118 130.969 19.0463 130.969 18.4199V18.1279C130.453 18.695 129.733 18.9786 128.811 18.9786C128.184 18.9786 127.609 18.8431 127.084 18.5723C126.568 18.293 126.157 17.9036 125.853 17.4043C125.548 16.9049 125.396 16.3293 125.396 15.6776C125.396 15.0259 125.548 14.4503 125.853 13.9509C126.157 13.4515 126.568 13.0664 127.084 12.7956C127.609 12.5163 128.184 12.3766 128.811 12.3766C129.801 12.3766 130.554 12.7025 131.071 13.3542V12.4782H132.95ZM129.204 17.3535C129.729 17.3535 130.157 17.2011 130.487 16.8964C130.825 16.5832 130.995 16.177 130.995 15.6776C130.995 15.1782 130.825 14.7762 130.487 14.4715C130.157 14.1583 129.729 14.0017 129.204 14.0017C128.68 14.0017 128.248 14.1583 127.909 14.4715C127.571 14.7762 127.402 15.1782 127.402 15.6776C127.402 16.177 127.571 16.5832 127.909 16.8964C128.248 17.2011 128.68 17.3535 129.204 17.3535Z" fill="#5E5E5E"/>
<path d="M141.674 12.4782V19.3087H139.795V18.4961C139.533 18.7924 139.22 19.0209 138.856 19.1817C138.492 19.3341 138.098 19.4102 137.675 19.4102C136.778 19.4102 136.067 19.1521 135.542 18.6358C135.017 18.1195 134.755 17.3535 134.755 16.3378V12.4782H136.736V16.0458C136.736 17.1461 137.197 17.6963 138.12 17.6963C138.594 17.6963 138.974 17.5439 139.262 17.2392C139.55 16.926 139.694 16.4647 139.694 15.8553V12.4782H141.674Z" fill="#5E5E5E"/>
<path d="M146.264 12.3766C147.322 12.3766 148.135 12.6305 148.702 13.1384C149.269 13.6378 149.553 14.3953 149.553 15.411V19.3087H147.699V18.458C147.327 19.0928 146.633 19.4102 145.617 19.4102C145.092 19.4102 144.635 19.3214 144.246 19.1436C143.865 18.9659 143.573 18.7204 143.37 18.4072C143.167 18.0941 143.065 17.7386 143.065 17.3408C143.065 16.706 143.302 16.2066 143.776 15.8426C144.258 15.4787 144.999 15.2967 145.998 15.2967H147.572C147.572 14.865 147.441 14.5349 147.178 14.3064C146.916 14.0694 146.523 13.9509 145.998 13.9509C145.634 13.9509 145.274 14.0102 144.919 14.1287C144.572 14.2387 144.275 14.3911 144.03 14.5857L143.319 13.2019C143.691 12.9395 144.136 12.7363 144.652 12.5924C145.177 12.4486 145.714 12.3766 146.264 12.3766ZM146.112 18.0771C146.451 18.0771 146.751 18.001 147.013 17.8486C147.276 17.6878 147.462 17.455 147.572 17.1503V16.452H146.214C145.401 16.452 144.995 16.7187 144.995 17.2519C144.995 17.5058 145.092 17.709 145.287 17.8613C145.49 18.0052 145.765 18.0771 146.112 18.0771Z" fill="#5E5E5E"/>
<path d="M158.466 12.4782V18.166C158.466 19.4187 158.14 20.3497 157.488 20.9591C156.837 21.5686 155.884 21.8733 154.632 21.8733C153.971 21.8733 153.345 21.7929 152.753 21.632C152.16 21.4712 151.669 21.2385 151.28 20.9338L152.067 19.5118C152.355 19.7488 152.719 19.935 153.159 20.0704C153.599 20.2143 154.039 20.2863 154.479 20.2863C155.165 20.2863 155.668 20.1297 155.99 19.8165C156.32 19.5118 156.485 19.0463 156.485 18.4199V18.1279C155.969 18.695 155.25 18.9786 154.327 18.9786C153.701 18.9786 153.125 18.8431 152.6 18.5723C152.084 18.293 151.673 17.9036 151.369 17.4043C151.064 16.9049 150.912 16.3293 150.912 15.6776C150.912 15.0259 151.064 14.4503 151.369 13.9509C151.673 13.4515 152.084 13.0664 152.6 12.7956C153.125 12.5163 153.701 12.3766 154.327 12.3766C155.317 12.3766 156.071 12.7025 156.587 13.3542V12.4782H158.466ZM154.721 17.3535C155.245 17.3535 155.673 17.2011 156.003 16.8964C156.341 16.5832 156.511 16.177 156.511 15.6776C156.511 15.1782 156.341 14.7762 156.003 14.4715C155.673 14.1583 155.245 14.0017 154.721 14.0017C154.196 14.0017 153.764 14.1583 153.426 14.4715C153.087 14.7762 152.918 15.1782 152.918 15.6776C152.918 16.177 153.087 16.5832 153.426 16.8964C153.764 17.2011 154.196 17.3535 154.721 17.3535Z" fill="#5E5E5E"/>
<path d="M167 15.9188C167 15.9442 166.987 16.122 166.962 16.452H161.795C161.888 16.8752 162.108 17.2096 162.455 17.455C162.802 17.7005 163.234 17.8232 163.75 17.8232C164.105 17.8232 164.419 17.7724 164.689 17.6709C164.969 17.5608 165.227 17.3916 165.464 17.163L166.518 18.3057C165.874 19.042 164.935 19.4102 163.699 19.4102C162.929 19.4102 162.248 19.2621 161.655 18.9659C161.063 18.6612 160.606 18.2422 160.284 17.709C159.962 17.1757 159.801 16.5705 159.801 15.8934C159.801 15.2248 159.958 14.6238 160.271 14.0906C160.593 13.5489 161.029 13.1299 161.579 12.8337C162.138 12.529 162.76 12.3766 163.445 12.3766C164.114 12.3766 164.719 12.5205 165.261 12.8083C165.802 13.0961 166.226 13.5108 166.53 14.0525C166.844 14.5857 167 15.2078 167 15.9188ZM163.458 13.8747C163.009 13.8747 162.633 14.0017 162.328 14.2556C162.023 14.5096 161.837 14.8566 161.769 15.2967H165.134C165.066 14.865 164.88 14.5222 164.575 14.2683C164.27 14.0059 163.898 13.8747 163.458 13.8747Z" fill="#5E5E5E"/>
<path d="M52.511 26.2915C53.2981 26.2915 53.9795 26.4227 54.555 26.6851C55.1391 26.9475 55.5876 27.3199 55.9008 27.8023C56.214 28.2848 56.3706 28.8561 56.3706 29.5163C56.3706 30.168 56.214 30.7393 55.9008 31.2303C55.5876 31.7127 55.1391 32.0851 54.555 32.3475C53.9795 32.6014 53.2981 32.7284 52.511 32.7284H50.7208V35.1787H48.6641V26.2915H52.511ZM52.3967 31.0525C53.0146 31.0525 53.4843 30.9213 53.806 30.6589C54.1276 30.3881 54.2884 30.0072 54.2884 29.5163C54.2884 29.0169 54.1276 28.636 53.806 28.3737C53.4843 28.1028 53.0146 27.9674 52.3967 27.9674H50.7208V31.0525H52.3967Z" fill="#5E5E5E"/>
<path d="M59.591 29.2497C59.828 28.9196 60.1454 28.6699 60.5432 28.5006C60.9495 28.3313 61.415 28.2467 61.9398 28.2467V30.0749C61.7197 30.058 61.5716 30.0495 61.4954 30.0495C60.9283 30.0495 60.484 30.2103 60.1623 30.532C59.8407 30.8451 59.6799 31.3191 59.6799 31.9539V35.1787H57.6993V28.3483H59.591V29.2497Z" fill="#5E5E5E"/>
<path d="M66.3056 35.2803C65.5862 35.2803 64.9387 35.1322 64.3631 34.8359C63.7961 34.5312 63.3517 34.1123 63.0301 33.579C62.7084 33.0458 62.5476 32.4406 62.5476 31.7635C62.5476 31.0864 62.7084 30.4812 63.0301 29.948C63.3517 29.4147 63.7961 29 64.3631 28.7037C64.9387 28.399 65.5862 28.2467 66.3056 28.2467C67.0251 28.2467 67.6683 28.399 68.2354 28.7037C68.8025 29 69.2469 29.4147 69.5685 29.948C69.8902 30.4812 70.051 31.0864 70.051 31.7635C70.051 32.4406 69.8902 33.0458 69.5685 33.579C69.2469 34.1123 68.8025 34.5312 68.2354 34.8359C67.6683 35.1322 67.0251 35.2803 66.3056 35.2803ZM66.3056 33.6552C66.8135 33.6552 67.2282 33.4859 67.5499 33.1474C67.8799 32.8003 68.045 32.3391 68.045 31.7635C68.045 31.1879 67.8799 30.7309 67.5499 30.3923C67.2282 30.0453 66.8135 29.8718 66.3056 29.8718C65.7978 29.8718 65.3788 30.0453 65.0487 30.3923C64.7186 30.7309 64.5536 31.1879 64.5536 31.7635C64.5536 32.3391 64.7186 32.8003 65.0487 33.1474C65.3788 33.4859 65.7978 33.6552 66.3056 33.6552Z" fill="#5E5E5E"/>
<path d="M74.6758 35.2803C73.9479 35.2803 73.2919 35.1322 72.7079 34.8359C72.1324 34.5312 71.6795 34.1123 71.3494 33.579C71.0278 33.0458 70.867 32.4406 70.867 31.7635C70.867 31.0864 71.0278 30.4812 71.3494 29.948C71.6795 29.4147 72.1324 29 72.7079 28.7037C73.2919 28.399 73.9479 28.2467 74.6758 28.2467C75.3953 28.2467 76.0216 28.399 76.5548 28.7037C77.0965 29 77.4901 29.4274 77.7356 29.986L76.1993 30.8113C75.8439 30.185 75.3318 29.8718 74.6631 29.8718C74.1468 29.8718 73.7194 30.0411 73.3808 30.3796C73.0423 30.7182 72.873 31.1795 72.873 31.7635C72.873 32.3475 73.0423 32.8088 73.3808 33.1474C73.7194 33.4859 74.1468 33.6552 74.6631 33.6552C75.3402 33.6552 75.8523 33.342 76.1993 32.7157L77.7356 33.5536C77.4901 34.0953 77.0965 34.5185 76.5548 34.8232C76.0216 35.128 75.3953 35.2803 74.6758 35.2803Z" fill="#5E5E5E"/>
<path d="M85.48 31.7889C85.48 31.8143 85.4673 31.992 85.4419 32.3221H80.2746C80.3677 32.7453 80.5877 33.0797 80.9348 33.3251C81.2818 33.5706 81.7135 33.6933 82.2298 33.6933C82.5853 33.6933 82.8984 33.6425 83.1693 33.5409C83.4486 33.4309 83.7068 33.2616 83.9437 33.0331L84.9975 34.1758C84.3543 34.9121 83.4147 35.2803 82.179 35.2803C81.4088 35.2803 80.7274 35.1322 80.1349 34.8359C79.5424 34.5312 79.0854 34.1123 78.7637 33.579C78.4421 33.0458 78.2813 32.4406 78.2813 31.7635C78.2813 31.0948 78.4379 30.4939 78.7511 29.9607C79.0727 29.419 79.5086 29 80.0587 28.7037C80.6174 28.399 81.2395 28.2467 81.9251 28.2467C82.5937 28.2467 83.1989 28.3906 83.7406 28.6784C84.2823 28.9661 84.7055 29.3809 85.0102 29.9226C85.3234 30.4558 85.48 31.0779 85.48 31.7889ZM81.9378 29.7448C81.4892 29.7448 81.1125 29.8718 80.8078 30.1257C80.5031 30.3796 80.3169 30.7267 80.2492 31.1668H83.6136C83.5459 30.7351 83.3597 30.3923 83.055 30.1384C82.7503 29.876 82.3779 29.7448 81.9378 29.7448Z" fill="#5E5E5E"/>
<path d="M89.0966 35.2803C88.5295 35.2803 87.9751 35.2126 87.4334 35.0772C86.8917 34.9333 86.46 34.7555 86.1384 34.5439L86.7986 33.122C87.1033 33.3166 87.4715 33.4775 87.9031 33.6044C88.3348 33.7229 88.758 33.7822 89.1727 33.7822C90.0107 33.7822 90.4296 33.5748 90.4296 33.1601C90.4296 32.9654 90.3154 32.8257 90.0869 32.7411C89.8583 32.6565 89.5071 32.5845 89.0331 32.5253C88.4745 32.4406 88.0132 32.3433 87.6492 32.2333C87.2853 32.1232 86.9679 31.9285 86.697 31.6492C86.4346 31.3699 86.3034 30.9721 86.3034 30.4558C86.3034 30.0241 86.4262 29.6433 86.6716 29.3132C86.9255 28.9746 87.2895 28.7122 87.7635 28.526C88.2459 28.3398 88.813 28.2467 89.4647 28.2467C89.9472 28.2467 90.4254 28.3017 90.8994 28.4117C91.3819 28.5133 91.7797 28.6572 92.0928 28.8434L91.4326 30.2527C90.8317 29.9141 90.1757 29.7448 89.4647 29.7448C89.0415 29.7448 88.7241 29.8041 88.5125 29.9226C88.3009 30.0411 88.1951 30.1934 88.1951 30.3796C88.1951 30.5912 88.3094 30.7393 88.5379 30.824C88.7665 30.9086 89.1304 30.989 89.6298 31.0652C90.1884 31.1583 90.6455 31.2599 91.001 31.3699C91.3565 31.4715 91.6654 31.6619 91.9278 31.9412C92.1902 32.2206 92.3214 32.6099 92.3214 33.1093C92.3214 33.5325 92.1944 33.9091 91.9405 34.2392C91.6866 34.5693 91.3141 34.8275 90.8232 35.0137C90.3408 35.1914 89.7652 35.2803 89.0966 35.2803Z" fill="#5E5E5E"/>
<path d="M95.8413 35.2803C95.2743 35.2803 94.7199 35.2126 94.1782 35.0772C93.6365 34.9333 93.2048 34.7555 92.8832 34.5439L93.5434 33.122C93.8481 33.3166 94.2162 33.4775 94.6479 33.6044C95.0796 33.7229 95.5028 33.7822 95.9175 33.7822C96.7555 33.7822 97.1744 33.5748 97.1744 33.1601C97.1744 32.9654 97.0602 32.8257 96.8316 32.7411C96.6031 32.6565 96.2519 32.5845 95.7779 32.5253C95.2192 32.4406 94.7579 32.3433 94.394 32.2333C94.03 32.1232 93.7126 31.9285 93.4418 31.6492C93.1794 31.3699 93.0482 30.9721 93.0482 30.4558C93.0482 30.0241 93.1709 29.6433 93.4164 29.3132C93.6703 28.9746 94.0343 28.7122 94.5083 28.526C94.9907 28.3398 95.5578 28.2467 96.2095 28.2467C96.692 28.2467 97.1702 28.3017 97.6442 28.4117C98.1266 28.5133 98.5244 28.6572 98.8376 28.8434L98.1774 30.2527C97.5765 29.9141 96.9205 29.7448 96.2095 29.7448C95.7863 29.7448 95.4689 29.8041 95.2573 29.9226C95.0457 30.0411 94.9399 30.1934 94.9399 30.3796C94.9399 30.5912 95.0542 30.7393 95.2827 30.824C95.5112 30.9086 95.8752 30.989 96.3746 31.0652C96.9332 31.1583 97.3903 31.2599 97.7458 31.3699C98.1012 31.4715 98.4102 31.6619 98.6726 31.9412C98.935 32.2206 99.0661 32.6099 99.0661 33.1093C99.0661 33.5325 98.9392 33.9091 98.6853 34.2392C98.4313 34.5693 98.0589 34.8275 97.568 35.0137C97.0856 35.1914 96.51 35.2803 95.8413 35.2803Z" fill="#5E5E5E"/>
<path d="M100.288 28.3483H102.269V35.1787H100.288V28.3483ZM101.278 27.3961C100.914 27.3961 100.618 27.2903 100.39 27.0787C100.161 26.8671 100.047 26.6047 100.047 26.2915C100.047 25.9783 100.161 25.7159 100.39 25.5043C100.618 25.2927 100.914 25.1869 101.278 25.1869C101.642 25.1869 101.939 25.2885 102.167 25.4916C102.396 25.6948 102.51 25.9487 102.51 26.2534C102.51 26.5835 102.396 26.8586 102.167 27.0787C101.939 27.2903 101.642 27.3961 101.278 27.3961Z" fill="#5E5E5E"/>
<path d="M108.258 28.2467C109.105 28.2467 109.786 28.5006 110.303 29.0085C110.827 29.5163 111.09 30.2696 111.09 31.2684V35.1787H109.109V31.5731C109.109 31.0314 108.991 30.6293 108.754 30.3669C108.517 30.0961 108.174 29.9607 107.725 29.9607C107.226 29.9607 106.828 30.1172 106.532 30.4304C106.236 30.7351 106.087 31.1922 106.087 31.8016V35.1787H104.107V28.3483H105.999V29.1481C106.261 28.8603 106.587 28.6403 106.976 28.4879C107.366 28.3271 107.793 28.2467 108.258 28.2467Z" fill="#5E5E5E"/>
<path d="M120.006 28.3483V34.0361C120.006 35.2888 119.68 36.2198 119.028 36.8292C118.376 37.4386 117.424 37.7433 116.172 37.7433C115.511 37.7433 114.885 37.6629 114.292 37.5021C113.7 37.3413 113.209 37.1085 112.82 36.8038L113.607 35.3819C113.895 35.6189 114.259 35.8051 114.699 35.9405C115.139 36.0844 115.579 36.1563 116.019 36.1563C116.705 36.1563 117.208 35.9998 117.53 35.6866C117.86 35.3819 118.025 34.9164 118.025 34.29V33.998C117.509 34.5651 116.789 34.8486 115.867 34.8486C115.24 34.8486 114.665 34.7132 114.14 34.4424C113.624 34.1631 113.213 33.7737 112.909 33.2743C112.604 32.775 112.452 32.1994 112.452 31.5477C112.452 30.8959 112.604 30.3204 112.909 29.821C113.213 29.3216 113.624 28.9365 114.14 28.6657C114.665 28.3863 115.24 28.2467 115.867 28.2467C116.857 28.2467 117.61 28.5726 118.127 29.2243V28.3483H120.006ZM116.26 33.2235C116.785 33.2235 117.213 33.0712 117.543 32.7665C117.881 32.4533 118.051 32.047 118.051 31.5477C118.051 31.0483 117.881 30.6462 117.543 30.3415C117.213 30.0284 116.785 29.8718 116.26 29.8718C115.736 29.8718 115.304 30.0284 114.965 30.3415C114.627 30.6462 114.458 31.0483 114.458 31.5477C114.458 32.047 114.627 32.4533 114.965 32.7665C115.304 33.0712 115.736 33.2235 116.26 33.2235Z" fill="#5E5E5E"/>
<path d="M19.078 13.3606L17.8839 12.7101C17.5402 12.5237 17.3308 12.1604 17.3404 11.7701L17.3759 10.4107L16.043 10.6805C15.6605 10.7606 15.2664 10.6148 15.022 10.3091L14.1747 9.24658L13.3276 10.3091C13.0833 10.6148 12.6905 10.7598 12.306 10.6805L10.9745 10.4107L11.0091 11.7701C11.0195 12.1604 10.8095 12.5244 10.4665 12.7101L9.27148 13.3606L10.1714 14.3798C10.4302 14.6726 10.5038 15.0859 10.3595 15.4498L9.86273 16.7151L11.2075 16.917C11.5948 16.9752 11.9159 17.2449 12.0396 17.615L12.4726 18.9045L13.632 18.195C13.7984 18.0927 13.9864 18.0417 14.1752 18.0417C14.3633 18.0417 14.5512 18.0921 14.7185 18.195L15.8779 18.9045L16.311 17.615C16.4353 17.2449 16.7566 16.9752 17.1431 16.917L18.488 16.7151L17.9909 15.4498C17.8484 15.0859 17.92 14.6726 18.179 14.3798L19.078 13.3606ZM14.1747 17.4353C12.5005 17.4353 11.1387 16.0732 11.1387 14.3993C11.1387 12.7256 12.5005 11.3634 14.1747 11.3634C15.8491 11.3634 17.2105 12.7255 17.2105 14.3993C17.2105 16.0732 15.8485 17.4353 14.1747 17.4353Z" fill="#78B9EB"/>
<path d="M14.1743 15.3528C14.7013 15.3528 15.1285 14.9256 15.1285 14.3987C15.1285 13.8718 14.7013 13.4446 14.1743 13.4446C13.6474 13.4446 13.2202 13.8718 13.2202 14.3987C13.2202 14.9256 13.6474 15.3528 14.1743 15.3528Z" fill="#78B9EB"/>
<path d="M27.2389 17.2542C27.5488 17.2542 27.8001 17.0033 27.8001 16.6938C27.8001 16.3843 27.5488 16.1334 27.2389 16.1334C26.929 16.1334 26.6777 16.3843 26.6777 16.6938C26.6777 17.0033 26.929 17.2542 27.2389 17.2542Z" fill="#78B9EB"/>
<path d="M37.0989 10.9745L33.6291 4.20876C33.5282 4.00816 33.3609 3.84679 33.1576 3.74726L27.0859 0.798284C26.9639 0.739289 26.8308 0.704047 26.6948 0.69656L15.5924 0.00269033C15.3837 -0.0129298 15.174 0.0399979 14.9945 0.147661L5.97351 5.52563C5.74954 5.65847 5.58353 5.87199 5.50917 6.12139L2.82031 15.1423C2.70103 15.5434 2.83413 15.9772 3.15608 16.2441L4.21489 17.1169L4.09962 18.7252L0.184773 24.3897C0.0174694 24.6321 -0.0394603 24.9318 0.0272803 25.2171C0.0936335 25.503 0.277719 25.7483 0.534483 25.8913L2.34151 26.8949V29.0579C2.34151 29.4797 2.59776 29.8605 2.98968 30.0217L3.87977 30.3847L3.34081 30.9222C3.12626 31.1384 3.01576 31.4331 3.03887 31.7361C3.06133 32.0396 3.2143 32.3154 3.45803 32.4977L5.29152 33.8482V37.9921C5.29152 38.5667 5.75703 39.033 6.33226 39.033H12.8961L13.7171 44.4793C13.7607 44.766 13.9211 45.022 14.1609 45.1846C14.3351 45.3047 14.5401 45.3656 14.7467 45.3656C14.8243 45.3656 14.9042 45.3562 14.9812 45.3385L31.4614 41.522C32.0217 41.3919 32.3706 40.8363 32.2419 40.2751L30.6469 33.3211L31.5848 29.089L36.9804 22.4251C37.1308 22.2394 37.2121 22.0082 37.2121 21.7703V11.4495C37.214 11.2843 37.1747 11.1216 37.0989 10.9745ZM20.8351 18.0709C20.6758 18.3454 20.4013 18.5326 20.0884 18.5792L18.0817 18.8815L17.4357 20.8053C17.3344 21.1063 17.1033 21.3434 16.8048 21.4525C16.6891 21.4946 16.569 21.5155 16.4491 21.5155C16.2597 21.5155 16.071 21.4641 15.9056 21.3622L14.1742 20.3038L12.4431 21.3622C12.173 21.5276 11.8414 21.5595 11.5434 21.4524C11.246 21.3439 11.0137 21.106 10.913 20.8052L10.2669 18.8814L8.25922 18.579C7.94539 18.5324 7.67069 18.3447 7.51281 18.0708C7.35454 17.7957 7.3295 17.4643 7.44542 17.1696L8.1877 15.2809L6.84295 13.7603C6.63343 13.5217 6.54307 13.202 6.59793 12.8902C6.6528 12.5786 6.8463 12.3073 7.1254 12.1563L8.90803 11.1873L8.8582 9.15776C8.84968 8.842 8.9873 8.53761 9.22921 8.33377C9.47217 8.13032 9.79335 8.04706 10.1051 8.11147L12.0936 8.51398L13.3582 6.9268C13.7522 6.43082 14.5905 6.43082 14.987 6.9268L16.2512 8.51398L18.2393 8.11147C18.55 8.04641 18.8725 8.13032 19.1152 8.33377C19.3593 8.53761 19.4947 8.83916 19.4867 9.15776L19.4351 11.1873L21.2173 12.1563C21.4959 12.3073 21.6903 12.5779 21.7447 12.8902C21.8003 13.202 21.7107 13.5218 21.4999 13.7603L20.1556 15.2809L20.8968 17.1696C21.0188 17.4638 20.993 17.7958 20.8351 18.0709ZM33.2741 16.3172L32.2794 17.4435L32.8289 18.8421C32.9448 19.1376 32.9198 19.469 32.7606 19.7441C32.602 20.0187 32.3269 20.2056 32.0137 20.2523L30.5268 20.4753L30.0492 21.9004C29.9482 22.2013 29.7173 22.4385 29.4189 22.5476C29.3033 22.5897 29.1818 22.6106 29.0625 22.6106C28.8734 22.6106 28.6843 22.5592 28.5197 22.4568L27.2368 21.6727L25.9535 22.4568C25.6816 22.6228 25.3531 22.6554 25.054 22.5476C24.7546 22.4391 24.5229 22.2013 24.4232 21.9004L23.9453 20.4753L22.4579 20.2523C22.1458 20.2056 21.8698 20.018 21.712 19.7441C21.5534 19.469 21.5283 19.1376 21.6444 18.8421L22.1938 17.4435L21.1977 16.3172C20.9876 16.0794 20.8968 15.7594 20.9524 15.4471C21.0074 15.1354 21.2012 14.865 21.4795 14.7139L22.7997 13.9956L22.7611 12.4932C22.7531 12.1767 22.8905 11.8724 23.1325 11.6685C23.3756 11.4652 23.6964 11.3825 24.0086 11.447L25.4819 11.7452L26.4183 10.5702C26.8128 10.0741 27.6517 10.0741 28.0462 10.5702L28.9845 11.7452L30.4579 11.447C30.7676 11.3819 31.0908 11.4645 31.3335 11.6685C31.5774 11.8724 31.7143 12.1754 31.7048 12.4932L31.6648 13.9956L32.985 14.7139C33.2634 14.865 33.458 15.1347 33.5121 15.4471C33.5736 15.7594 33.4843 16.0801 33.2741 16.3172Z" fill="#78B9EB"/>
<path d="M29.5742 14.579L29.5953 13.7461L28.7773 13.9114C28.3951 13.99 28.0006 13.8457 27.7569 13.54L27.2377 12.8894L26.7173 13.54C26.4733 13.8457 26.0804 13.9893 25.6962 13.9114L24.8795 13.7461L24.899 14.579C24.9108 14.9686 24.6998 15.3332 24.3576 15.5181L23.6245 15.9165L24.1761 16.5406C24.435 16.8333 24.5088 17.2466 24.3646 17.6106L24.0596 18.3858L24.8843 18.5098C25.2712 18.5682 25.5923 18.8378 25.7171 19.2085L25.9815 19.998L26.691 19.5636C26.8575 19.4619 27.0473 19.4104 27.2343 19.4104C27.422 19.4104 27.6111 19.4612 27.7771 19.5636L28.4874 19.998L28.7523 19.2085C28.8764 18.8378 29.1996 18.5682 29.5837 18.5098L30.4084 18.3858L30.1044 17.6106C29.9619 17.2466 30.0339 16.8333 30.2928 16.5406L30.8449 15.9165L30.1124 15.5181C29.7741 15.3332 29.5648 14.9699 29.5742 14.579ZM27.239 19.3361C25.782 19.3361 24.5968 18.1509 24.5968 16.694C24.5968 15.2371 25.782 14.0517 27.239 14.0517C28.6965 14.0517 29.882 15.2371 29.882 16.694C29.8812 18.1509 28.696 19.3361 27.239 19.3361Z" fill="#78B9EB"/>
</svg>
