<svg xmlns="http://www.w3.org/2000/svg" width="167" height="46" fill="none" xmlns:v="https://vecta.io/nano"><path d="M56.815 10.421v8.887h-1.689l-4.431-5.396v5.396h-2.031v-8.887h1.701l4.418 5.396v-5.396h2.031zm4.718 1.956c1.058 0 1.871.254 2.438.762.567.499.851 1.257.851 2.273v3.898h-1.854v-.851c-.373.635-1.066.952-2.082.952-.525 0-.982-.089-1.371-.267a2.04 2.04 0 0 1-.876-.736c-.203-.313-.305-.669-.305-1.066 0-.635.237-1.134.711-1.498.482-.364 1.223-.546 2.222-.546h1.574c0-.432-.131-.762-.394-.99-.262-.237-.656-.355-1.181-.355-.364 0-.724.059-1.079.178-.347.11-.643.262-.889.457l-.711-1.384c.372-.262.817-.466 1.333-.61.525-.144 1.062-.216 1.612-.216zm-.152 5.701c.339 0 .639-.076.901-.229a1.32 1.32 0 0 0 .559-.698v-.698h-1.358c-.812 0-1.219.267-1.219.8a.73.73 0 0 0 .292.609c.203.144.478.216.825.216zm9.638.901c-.195.144-.436.254-.724.33a3.75 3.75 0 0 1-.889.101c-.812 0-1.443-.207-1.892-.622-.44-.415-.66-1.024-.66-1.828v-2.806H65.8V12.63h1.054v-1.663h1.981v1.663h1.701v1.524h-1.701v2.78c0 .288.072.512.216.673.152.152.364.229.635.229.313 0 .58-.085.8-.254l.533 1.397zm7.993-6.501v6.831h-1.879v-.813c-.262.296-.576.525-.939.686-.364.152-.757.229-1.181.229-.897 0-1.608-.258-2.133-.774s-.787-1.282-.787-2.298v-3.86h1.98v3.568c0 1.1.461 1.651 1.384 1.651.474 0 .855-.152 1.143-.457.288-.313.432-.774.432-1.384V12.48h1.981zm3.727.902c.237-.33.554-.58.952-.749.406-.169.872-.254 1.397-.254v1.828l-.444-.025c-.567 0-1.011.161-1.333.482-.322.313-.482.787-.482 1.422v3.225h-1.981v-6.831h1.892v.901zm6.244-1.003c1.058 0 1.871.254 2.438.762.567.499.851 1.257.851 2.273v3.898h-1.854v-.851c-.372.635-1.066.952-2.082.952-.525 0-.982-.089-1.371-.267a2.04 2.04 0 0 1-.876-.736c-.203-.313-.305-.669-.305-1.066 0-.635.237-1.134.711-1.498.482-.364 1.223-.546 2.222-.546h1.574c0-.432-.131-.762-.394-.99-.262-.237-.656-.355-1.181-.355-.364 0-.724.059-1.079.178-.347.11-.643.262-.889.457l-.711-1.384c.372-.262.817-.466 1.333-.61.525-.144 1.062-.216 1.612-.216zm-.152 5.701c.339 0 .639-.076.901-.229.262-.161.448-.394.559-.698v-.698h-1.358c-.812 0-1.219.267-1.219.8a.73.73 0 0 0 .292.609c.203.144.478.216.825.216zm5.233-8.19h1.981v9.421h-1.981V9.888zm7.554.533h2.057v7.211h4.456v1.676h-6.513v-8.887zm10.352 1.956c1.058 0 1.871.254 2.438.762.567.499.85 1.257.85 2.273v3.898h-1.853v-.851c-.373.635-1.067.952-2.082.952-.525 0-.982-.089-1.372-.267a2.05 2.05 0 0 1-.876-.736c-.203-.313-.304-.669-.304-1.066 0-.635.237-1.134.711-1.498.482-.364 1.223-.546 2.221-.546h1.575c0-.432-.131-.762-.394-.99-.262-.237-.656-.355-1.181-.355a3.4 3.4 0 0 0-1.079.178c-.347.11-.643.262-.888.457l-.711-1.384c.372-.262.816-.466 1.333-.61a6.06 6.06 0 0 1 1.612-.216zm-.152 5.701a1.76 1.76 0 0 0 .901-.229c.263-.161.449-.394.559-.698v-.698h-1.359c-.812 0-1.218.267-1.218.8a.73.73 0 0 0 .292.609c.203.144.478.216.825.216zm9.385-5.701c.846 0 1.527.254 2.044.762.524.508.787 1.261.787 2.26v3.91h-1.981v-3.606c0-.542-.118-.944-.355-1.206-.237-.271-.58-.406-1.029-.406-.499 0-.897.157-1.193.47-.296.305-.445.762-.445 1.371v3.377h-1.98v-6.831h1.892v.8c.262-.288.588-.508.977-.66.39-.161.817-.241 1.283-.241zm11.747.101v5.688c0 1.253-.326 2.184-.978 2.793s-1.604.914-2.856.914a7.13 7.13 0 0 1-1.879-.241c-.592-.161-1.084-.394-1.473-.698l.787-1.422c.288.237.652.423 1.092.559.44.144.88.216 1.32.216.686 0 1.189-.157 1.511-.47.33-.305.495-.77.495-1.397v-.292c-.516.567-1.236.851-2.158.851a3.71 3.71 0 0 1-1.727-.406 3.2 3.2 0 0 1-1.231-1.168c-.305-.499-.457-1.075-.457-1.727s.152-1.227.457-1.727a3.1 3.1 0 0 1 1.231-1.155 3.62 3.62 0 0 1 1.727-.419c.99 0 1.743.326 2.26.978v-.876h1.879zm-3.746 4.875c.525 0 .953-.152 1.283-.457.338-.313.508-.719.508-1.219s-.17-.901-.508-1.206c-.33-.313-.758-.47-1.283-.47s-.956.157-1.295.47c-.338.305-.507.707-.507 1.206s.169.906.507 1.219c.339.305.771.457 1.295.457zm12.47-4.875v6.831h-1.879v-.813a2.69 2.69 0 0 1-.939.686c-.364.152-.758.229-1.181.229-.897 0-1.608-.258-2.133-.774s-.787-1.282-.787-2.298v-3.86h1.981v3.568c0 1.1.461 1.651 1.384 1.651.474 0 .854-.152 1.142-.457.288-.313.432-.774.432-1.384V12.48h1.98zm4.59-.101c1.058 0 1.871.254 2.438.762.567.499.851 1.257.851 2.273v3.898h-1.854v-.851c-.372.635-1.066.952-2.082.952-.525 0-.982-.089-1.371-.267-.381-.178-.673-.423-.876-.736s-.305-.669-.305-1.066c0-.635.237-1.134.711-1.498.482-.364 1.223-.546 2.222-.546h1.574c0-.432-.131-.762-.394-.99-.262-.237-.655-.355-1.18-.355a3.39 3.39 0 0 0-1.079.178c-.347.11-.644.262-.889.457l-.711-1.384c.372-.262.817-.466 1.333-.61.525-.144 1.062-.216 1.612-.216zm-.152 5.701c.339 0 .639-.076.901-.229.263-.161.449-.394.559-.698v-.698h-1.358c-.813 0-1.219.267-1.219.8a.73.73 0 0 0 .292.609c.203.144.478.216.825.216zm12.354-5.6v5.688c0 1.253-.326 2.184-.978 2.793s-1.604.914-2.856.914a7.13 7.13 0 0 1-1.879-.241c-.592-.161-1.084-.394-1.473-.698l.787-1.422c.288.237.652.423 1.092.559.44.144.88.216 1.32.216.686 0 1.189-.157 1.511-.47.33-.305.495-.77.495-1.397v-.292c-.516.567-1.235.851-2.158.851-.626 0-1.202-.136-1.727-.406a3.2 3.2 0 0 1-1.231-1.168c-.305-.499-.457-1.075-.457-1.727s.152-1.227.457-1.727a3.1 3.1 0 0 1 1.231-1.155 3.62 3.62 0 0 1 1.727-.419c.99 0 1.744.326 2.26.978v-.876h1.879zm-3.745 4.875c.524 0 .952-.152 1.282-.457.338-.313.508-.719.508-1.219s-.17-.901-.508-1.206c-.33-.313-.758-.47-1.282-.47s-.957.157-1.295.47c-.339.305-.508.707-.508 1.206s.169.906.508 1.219c.338.305.77.457 1.295.457zM167 15.919c0 .025-.013.203-.038.533h-5.167c.093.423.313.758.66 1.003s.779.368 1.295.368c.355 0 .669-.051.939-.152.28-.11.538-.279.775-.508l1.054 1.143c-.644.736-1.583 1.104-2.819 1.104-.77 0-1.451-.148-2.044-.444a3.35 3.35 0 0 1-1.371-1.257c-.322-.533-.483-1.139-.483-1.816 0-.669.157-1.27.47-1.803.322-.542.758-.961 1.308-1.257.559-.305 1.181-.457 1.866-.457a3.81 3.81 0 0 1 1.816.432 3.1 3.1 0 0 1 1.269 1.244c.314.533.47 1.155.47 1.866zm-3.542-2.044c-.449 0-.825.127-1.13.381s-.491.601-.559 1.041h3.365c-.068-.432-.254-.774-.559-1.028-.305-.262-.677-.394-1.117-.394zM52.511 26.292c.787 0 1.468.131 2.044.394.584.262 1.033.635 1.346 1.117s.47 1.054.47 1.714c0 .652-.157 1.223-.47 1.714-.313.482-.762.855-1.346 1.117-.575.254-1.257.381-2.044.381h-1.79v2.45h-2.057v-8.887h3.847zm-.114 4.761c.618 0 1.088-.131 1.409-.394.322-.271.482-.652.482-1.143 0-.499-.161-.88-.482-1.143-.322-.271-.791-.406-1.409-.406h-1.676v3.085h1.676zm7.194-1.803c.237-.33.554-.58.952-.749.406-.169.872-.254 1.397-.254v1.828l-.444-.025c-.567 0-1.011.161-1.333.483-.322.313-.482.787-.482 1.422v3.225H57.7v-6.83h1.892v.901zm6.715 6.03c-.719 0-1.367-.148-1.942-.444-.567-.305-1.011-.724-1.333-1.257s-.482-1.138-.482-1.815.161-1.282.482-1.815.766-.948 1.333-1.244c.576-.305 1.223-.457 1.942-.457s1.363.152 1.93.457a3.32 3.32 0 0 1 1.333 1.244c.322.533.483 1.138.483 1.816s-.161 1.282-.483 1.816-.766.952-1.333 1.257c-.567.296-1.21.444-1.93.444zm0-1.625c.508 0 .923-.169 1.244-.508.33-.347.495-.808.495-1.384s-.165-1.033-.495-1.371c-.322-.347-.736-.52-1.244-.52s-.927.174-1.257.52c-.33.339-.495.796-.495 1.371s.165 1.037.495 1.384a1.68 1.68 0 0 0 1.257.508zm8.37 1.625c-.728 0-1.384-.148-1.968-.444-.575-.305-1.028-.724-1.358-1.257-.322-.533-.482-1.138-.482-1.815s.161-1.282.482-1.815c.33-.533.783-.948 1.358-1.244.584-.305 1.24-.457 1.968-.457.72 0 1.346.152 1.879.457.542.296.935.724 1.181 1.282l-1.536.825c-.355-.626-.867-.939-1.536-.939-.516 0-.944.169-1.282.508s-.508.8-.508 1.384.169 1.045.508 1.384.766.508 1.282.508c.677 0 1.189-.313 1.536-.94l1.536.838a2.72 2.72 0 0 1-1.181 1.27c-.533.305-1.159.457-1.879.457zm10.804-3.491a21.48 21.48 0 0 1-.038.533h-5.167a1.61 1.61 0 0 0 .66 1.003c.347.245.779.368 1.295.368.356 0 .669-.051.94-.152.279-.11.537-.279.774-.508l1.054 1.143c-.643.736-1.583 1.104-2.818 1.104-.77 0-1.452-.148-2.044-.444-.593-.305-1.049-.724-1.371-1.257s-.482-1.138-.482-1.815c0-.669.157-1.27.47-1.803.322-.542.758-.961 1.308-1.257.559-.305 1.181-.457 1.866-.457.669 0 1.274.144 1.816.432s.965.703 1.27 1.244c.313.533.47 1.155.47 1.866zm-3.542-2.044c-.449 0-.825.127-1.13.381s-.491.601-.559 1.041h3.364c-.068-.432-.254-.774-.559-1.028-.305-.262-.677-.394-1.117-.394zm7.159 5.535c-.567 0-1.121-.068-1.663-.203-.542-.144-.973-.322-1.295-.533l.66-1.422a4.3 4.3 0 0 0 1.105.482c.432.119.855.178 1.27.178.838 0 1.257-.207 1.257-.622 0-.195-.114-.334-.343-.419s-.58-.157-1.054-.216c-.559-.085-1.02-.182-1.384-.292s-.681-.305-.952-.584c-.262-.279-.394-.677-.394-1.193 0-.432.123-.812.368-1.143.254-.339.618-.601 1.092-.787.482-.186 1.05-.279 1.701-.279.483 0 .961.055 1.435.165.483.102.88.245 1.193.432l-.66 1.409a3.94 3.94 0 0 0-1.968-.508c-.423 0-.741.059-.952.178s-.317.271-.317.457c0 .212.114.36.343.444s.593.165 1.092.241c.559.093 1.016.195 1.371.305a2.01 2.01 0 0 1 .927.571c.262.279.394.669.394 1.168 0 .423-.127.8-.381 1.13s-.626.588-1.117.775c-.482.178-1.058.267-1.727.267zm6.744 0c-.567 0-1.121-.068-1.663-.203-.542-.144-.973-.322-1.295-.533l.66-1.422c.305.195.673.355 1.105.482.432.119.855.178 1.27.178.838 0 1.257-.207 1.257-.622 0-.195-.114-.334-.343-.419s-.58-.157-1.054-.216c-.559-.085-1.02-.182-1.384-.292a2.19 2.19 0 0 1-.952-.584c-.262-.279-.394-.677-.394-1.193 0-.432.123-.812.368-1.143.254-.339.618-.601 1.092-.787.482-.186 1.049-.279 1.701-.279a6.33 6.33 0 0 1 1.435.165c.482.102.88.245 1.193.432l-.66 1.409a3.94 3.94 0 0 0-1.968-.508c-.423 0-.741.059-.952.178s-.317.271-.317.457c0 .212.114.36.343.444s.593.165 1.092.241c.559.093 1.016.195 1.371.305a2.01 2.01 0 0 1 .927.571c.262.279.394.669.394 1.168 0 .423-.127.8-.381 1.13s-.626.588-1.117.775c-.482.178-1.058.267-1.727.267zm4.447-6.932h1.981v6.83h-1.981v-6.83zm.99-.952c-.364 0-.66-.106-.888-.317a1.03 1.03 0 0 1-.343-.787c0-.313.114-.576.343-.787s.524-.317.888-.317.661.102.889.305a.98.98 0 0 1 .343.762c0 .33-.114.605-.343.825-.228.212-.525.317-.889.317zm6.98.851c.847 0 1.528.254 2.045.762.524.508.787 1.261.787 2.26v3.91h-1.981v-3.606c0-.542-.118-.944-.355-1.206-.237-.271-.58-.406-1.029-.406-.499 0-.897.157-1.193.47-.296.305-.445.762-.445 1.371v3.377h-1.98v-6.83h1.892v.8c.262-.288.588-.508.977-.66a3.33 3.33 0 0 1 1.282-.241zm11.748.101v5.688c0 1.253-.326 2.184-.978 2.793s-1.604.914-2.856.914a7.15 7.15 0 0 1-1.88-.241c-.592-.161-1.083-.394-1.472-.698l.787-1.422c.288.237.652.423 1.092.559.44.144.88.216 1.32.216.686 0 1.189-.157 1.511-.47.33-.305.495-.77.495-1.397v-.292c-.516.567-1.236.851-2.158.851a3.71 3.71 0 0 1-1.727-.406 3.2 3.2 0 0 1-1.231-1.168c-.305-.499-.457-1.075-.457-1.727s.152-1.227.457-1.727a3.1 3.1 0 0 1 1.231-1.155 3.62 3.62 0 0 1 1.727-.419c.99 0 1.743.326 2.26.978v-.876h1.879zm-3.746 4.875c.525 0 .953-.152 1.283-.457.338-.313.508-.72.508-1.219s-.17-.901-.508-1.206c-.33-.313-.758-.47-1.283-.47s-.956.157-1.295.47c-.338.305-.507.707-.507 1.206s.169.906.507 1.219c.339.305.771.457 1.295.457z" fill="#5e5e5e"/><path d="M19.078 13.361l-1.194-.65a1.04 1.04 0 0 1-.544-.94l.036-1.359-1.333.27a1.04 1.04 0 0 1-1.021-.371l-.847-1.063-.847 1.063a1.04 1.04 0 0 1-1.022.371l-1.331-.27.035 1.359a1.04 1.04 0 0 1-.543.94l-1.195.65.9 1.019a1.04 1.04 0 0 1 .188 1.07l-.497 1.265 1.345.202a1.04 1.04 0 0 1 .832.698l.433 1.29 1.159-.709c.166-.102.354-.153.543-.153a1.03 1.03 0 0 1 .543.153l1.159.709.433-1.29a1.04 1.04 0 0 1 .832-.698l1.345-.202-.497-1.265a1.04 1.04 0 0 1 .188-1.07l.899-1.019zm-4.903 4.075a3.04 3.04 0 0 1-3.036-3.036 3.04 3.04 0 0 1 3.036-3.036 3.04 3.04 0 0 1 3.036 3.036 3.04 3.04 0 0 1-3.036 3.036zm-.001-2.083c.527 0 .954-.427.954-.954s-.427-.954-.954-.954-.954.427-.954.954.427.954.954.954zm13.065 1.901a.56.56 0 1 0 0-1.121.56.56 0 1 0 0 1.121zm9.86-6.279l-3.47-6.766a1.03 1.03 0 0 0-.471-.461L27.086.798a1.03 1.03 0 0 0-.391-.102L15.592.003a1.02 1.02 0 0 0-.598.145l-9.02 5.378a1.04 1.04 0 0 0-.464.596l-2.69 9.02c-.119.401.014.835.336 1.102l1.059.873-.115 1.608L.185 24.39a1.04 1.04 0 0 0-.157.827 1.04 1.04 0 0 0 .507.674l1.807 1.004v2.163c0 .422.256.803.648.964l.89.363-.539.538a1.04 1.04 0 0 0-.302.814c.022.303.175.579.419.762l1.833 1.35v4.144a1.04 1.04 0 0 0 1.041 1.041h6.564l.821 5.446a1.04 1.04 0 0 0 .444.705 1.03 1.03 0 0 0 .82.154l16.48-3.817a1.04 1.04 0 0 0 .781-1.247l-1.595-6.954.938-4.232 5.396-6.664a1.04 1.04 0 0 0 .232-.655V11.45a1.01 1.01 0 0 0-.113-.475zm-16.264 7.096a1.04 1.04 0 0 1-.747.508l-2.007.302-.646 1.924a1.04 1.04 0 0 1-1.531.557l-1.731-1.058-1.731 1.058a1.05 1.05 0 0 1-.9.09 1.04 1.04 0 0 1-.63-.647l-.646-1.924-2.008-.302a1.04 1.04 0 0 1-.814-1.409l.742-1.889-1.345-1.521a1.04 1.04 0 0 1 .282-1.604l1.783-.969-.05-2.03a1.04 1.04 0 0 1 .371-.824 1.03 1.03 0 0 1 .876-.222l1.989.403 1.265-1.587a1.08 1.08 0 0 1 1.629 0l1.264 1.587 1.988-.403c.311-.065.633.019.876.222s.38.505.371.824l-.052 2.03 1.782.969a1.04 1.04 0 0 1 .527.734c.056.312-.034.632-.245.87l-1.344 1.521.741 1.889a1.02 1.02 0 0 1-.062.901zm12.439-1.754l-.995 1.126.549 1.399a1.04 1.04 0 0 1-.815 1.41l-1.487.223-.478 1.425a1.04 1.04 0 0 1-.63.647 1.05 1.05 0 0 1-.356.063 1.03 1.03 0 0 1-.543-.154l-1.283-.784-1.283.784a1.04 1.04 0 0 1-.899.091c-.299-.108-.531-.346-.631-.647l-.478-1.425-1.487-.223a1.04 1.04 0 0 1-.813-1.41l.549-1.399-.996-1.126a1.04 1.04 0 0 1 .282-1.603l1.32-.718-.039-1.502c-.008-.316.129-.621.371-.825s.564-.286.876-.222l1.473.298.936-1.175a1.08 1.08 0 0 1 1.628 0l.938 1.175 1.473-.298c.31-.065.633.018.876.222s.381.507.371.825l-.04 1.502 1.32.718c.278.151.473.421.527.733.062.312-.028.633-.238.87zm-3.7-1.738l.021-.833-.818.165a1.04 1.04 0 0 1-1.02-.371l-.519-.651-.52.651a1.04 1.04 0 0 1-1.021.371l-.817-.165.02.833c.012.39-.199.754-.541.939l-.733.398.552.624a1.04 1.04 0 0 1 .188 1.07l-.305.775.825.124a1.04 1.04 0 0 1 .833.699l.264.79.709-.434c.167-.102.356-.153.543-.153a1.04 1.04 0 0 1 .543.153l.71.434.265-.79c.124-.371.447-.64.831-.699l.825-.124-.304-.775a1.04 1.04 0 0 1 .188-1.07l.552-.624-.732-.398a1.04 1.04 0 0 1-.538-.939zm-2.335 4.757c-1.457 0-2.642-1.185-2.642-2.642s1.185-2.642 2.642-2.642 2.643 1.185 2.643 2.642-1.186 2.642-2.643 2.642z" fill="#78b9eb"/></svg>