<svg xmlns="http://www.w3.org/2000/svg" width="95" height="58" fill="none" xmlns:v="https://vecta.io/nano"><path d="M51.16 26.838c-1.103-1.949-1.531-3.899-1.26-5.96.495-3.787 3.174-6.364 7.202-7.036 2.071-.359 4.119-.291 6.145.067a10.76 10.76 0 0 0 1.891.157l28.36-.022c.833 0 1.215.134 1.125 1.076-.113 1.031.315 2.398-.203 3.025-.54.627-1.958.157-2.994.179-1.53.022-3.084.067-4.614-.022-.945-.045-1.238.157-1.238 1.188l.045 24.76c0 .919-.135 1.344-1.17 1.232-.968-.112-1.958-.09-2.926-.022-.765.067-.9-.246-.9-.941l.045-24.984c0-1.053-.315-1.255-1.305-1.232-3.646.067-7.27.022-10.916.022-.383 0-.923-.179-1.013.403-.203 1.21-.878.807-1.598.538-2.296-.852-4.637-1.434-7.135-1.21-1.891.179-3.286 1.165-3.736 2.711-.518 1.77.045 3.384 1.598 4.549 1.305.963 2.813 1.546 4.276 2.196 1.913.851 3.849 1.613 5.469 3.003 3.939 3.339 3.759 9.837-.383 12.929-1.688 1.255-3.601 1.905-5.717 2.084-3.331.291-6.572.09-9.746-1.076-.72-.269-1.08-.627-1.013-1.456.09-.919.045-1.86 0-2.801-.023-.739.068-1.031.9-.65 2.138.941 4.389 1.501 6.707 1.725 1.328.134 2.611.067 3.894-.269 1.575-.426 2.656-1.367 3.016-2.98.405-1.748-.18-3.249-1.62-4.213-2.363-1.591-4.794-2.846-7.855-2.778-6.977.157-13.955.067-20.932.045-.833 0-1.17.134-1.148 1.076.068 2.622.045 5.221 0 7.843-.023.739.203.941.945.919h10.466c.743 0 1.08.134 1.013.964-.067.784-.09 1.569 0 2.353.09.941-.135 1.232-1.17 1.232-5.244-.067-10.511.045-15.755-.067-2.183-.045-4.164.269-5.965 1.479-1.103.739-1.891.426-2.768-.358-1.418-1.255-2.453-2.801-3.466-4.369-1.823-2.868-3.579-5.781-5.334-8.672-.27-.448-.585-.717-1.148-.695-1.17 0-2.318-.022-3.489-.09-.653-.045-.81.202-.788.807l.045 10.868c.023.963-.27 1.188-1.17 1.12a14.74 14.74 0 0 0-2.813 0c-.9.09-1.013-.269-1.013-1.053l.023-28.345c0-.448.045-.896 0-1.344-.068-.56.18-.672.698-.672l10.016.045c1.778.022 3.511.471 5.109 1.21 2.791 1.3 4.164 3.652 4.434 6.655.27 3.249-.608 6.05-3.354 8.067-.428.314-.833.695-1.305.829-1.148.336-1.17.807-.563 1.77 1.643 2.622 3.196 5.31 4.974 7.842.36.515.72.739 1.373.717 1.756-.045 3.534-.045 5.289 0 .585 0 .878-.09.833-.762a114.51 114.51 0 0 1-.135-8.784c.135-5.669 0-11.316.09-16.962 0-.538.203-.605.653-.605h16.093c.495 0 .63.157.608.627-.045.941-.067 1.86 0 2.801.045.717-.203.852-.878.852-3.489-.022-6.977.022-10.466 0-.833 0-1.103.179-1.058 1.031.068 2.241.045 4.481 0 6.722 0 .582.135.762.743.762l17.984-.045zm1.193.56c-.203.045-.293.09-.383.09l-19.469.022c-.743 0-.743-.336-.743-.874V18.57c-.022-.739.225-.941.945-.919h9.566c1.936 0 1.868 0 1.936-1.927.023-.896-.293-1.008-1.08-1.008h-13.73c-.968-.022-1.238.179-1.238 1.188l.045 24.984c0 .784-.18 1.008-.968.986-2.071-.067-4.119-.045-6.19 0-.653.022-1.013-.224-1.373-.717-2.071-2.935-3.939-5.983-5.74-9.075-.45-.784-.383-1.053.473-1.412 3.916-1.748 5.492-4.325 5.222-8.47-.158-2.465-1.103-4.571-3.354-5.871-1.373-.807-2.881-1.188-4.456-1.389-3.286-.381-6.595-.067-9.881-.224-1.058-.045-1.193.336-1.193 1.232l.023 26.216c0 2.666 0 2.622 2.701 2.622.765 0 .9-.246.9-.941l-.023-10.98c0-.65.09-.941.833-.896 1.463.09 2.926.112 4.389.09.653 0 1.013.246 1.328.784l4.164 6.767c1.328 2.062 2.476 4.257 4.254 6.028.833.829 1.553 1.188 2.723.471 1.215-.739 2.453-1.434 4.051-1.389l15.98.045c2.161 0 2.093 0 2.161-2.151.023-.896-.293-1.008-1.08-1.008-3.421.022-6.82-.022-10.241 0-.833 0-1.17-.134-1.148-1.075a203.37 203.37 0 0 0 0-9.075c-.022-.829.203-1.053 1.058-1.053h23.633c.36 0 .743-.022 1.103.134 1.576.672 3.174 1.344 4.637 2.263 2.183 1.367 2.993 3.182 2.521 5.49-.405 1.927-2.003 3.204-4.389 3.585-2.813.448-5.514-.112-8.193-.919-1.936-.583-1.868-.605-1.958 1.479-.045.986.315 1.412 1.215 1.636 3.984 1.053 7.968 1.456 11.929 0 3.151-1.165 4.929-3.406 5.132-6.789.203-3.227-1.125-5.647-3.939-7.238-1.553-.874-3.174-1.636-4.839-2.33-1.283-.538-2.543-1.12-3.624-1.994-1.666-1.344-2.251-3.227-1.666-5.198.495-1.703 2.071-2.868 4.142-3.115 2.408-.291 4.682.202 6.932.963.675.224 1.373.784 1.666-.471.112-.448.653-.247.99-.247l12.267-.022c.855 0 1.035.202 1.035 1.031l-.023 23.752c0 2.353 0 2.308 2.386 2.375.945.023 1.26-.157 1.238-1.187l-.045-24.872c0-.829.135-1.165 1.08-1.12 2.093.09 4.209.022 6.302.022 1.643 0 1.553 0 1.666-1.613.09-1.143-.315-1.322-1.373-1.3l-26.897.022c-1.08 0-2.161-.045-3.241-.247-1.756-.314-3.511-.269-5.267.022-4.839.807-7.36 4.414-6.505 9.232.18 1.344.9 2.465 1.62 3.652z" fill="#6f2629"/><path d="M52.511 54.601V52.36c0-.224-.157-.583.248-.627.27-.045.653-.157.765.246.18.56.36.202.585.045.945-.583 1.936-.65 2.791.112.383.336.518.157.81-.067.788-.605 1.688-.627 2.543-.202.788.381.855 1.165.855 1.927v3.137c.023.493-.135.627-.63.65-.54 0-.608-.224-.608-.672v-2.913c-.023-.672-.158-1.3-.99-1.344-.878-.045-1.35.448-1.395 1.255-.068.964-.068 1.927-.045 2.913 0 .448-.023.762-.63.762-.585 0-.675-.246-.653-.739V53.93c0-.65-.158-1.232-.923-1.277-.788-.067-1.328.314-1.373 1.143l-.113 2.779c-.023.403.27.986-.585 1.008s-.63-.538-.63-.963c-.045-.695-.023-1.344-.023-2.017zm22.192 1.008l.855-3.294c.135-.717.63-.695 1.08-.56.585.157.157.605.09.874l-1.193 4.302c-.135.605-.473.605-.968.65-.54.045-.698-.202-.833-.65l-1.08-3.966-1.08 3.921c-.135.493-.338.717-.923.695-.563 0-.765-.224-.878-.739L68.58 52.54c-.067-.224-.495-.672.135-.784.405-.067.9-.179 1.058.471.27 1.143.563 2.263 1.08 3.383l.945-3.249c.135-.605.473-.605.968-.65.563-.045.698.269.81.695l.9 3.204c.068-.023.158 0 .225 0zM25.479 10.817c-.653-.022-1.261-.022-1.801-.336-.878-.515-1.058-1.591-.293-2.263.338-.314.293-.627.405-.986.338-1.098-.18-1.905-.383-2.846-.225-1.053.495-1.905 1.621-2.017 1.08-.09 2.161 0 3.241.022.203 0 .36.022.383.269.023.269-.09.426-.36.448-.405.045-.518.157-.45.65.27 1.546-.45 2.353-2.093 2.442-.383.022-.968-.134-.968.448 0 .695.63.426 1.035.471l1.35.09c.72.112 1.283.448 1.373 1.255s-.158 1.479-.923 1.882c-.698.381-1.44.448-2.138.471zm.428-2.577h-.518c-.63 0-1.305.09-1.305.874-.023.829.743.784 1.305.874a1.54 1.54 0 0 0 .45 0c.675-.157 1.62-.134 1.531-1.076-.067-.919-.968-.583-1.463-.672zm-1.328-3.944c.023.717.36 1.12 1.08 1.143.743 0 1.08-.471 1.08-1.143 0-.717-.315-1.232-1.148-1.188-.765.022-1.013.515-1.013 1.188zM4.456 2.863V.667c-.023-.538.27-.583.698-.605.473-.022.563.202.563.605l-.023 6.946c0 .224.158.56-.248.627-.248.022-.608.134-.72-.157-.203-.605-.428-.359-.743-.112-.473.381-1.035.426-1.598.359a1.98 1.98 0 0 1-1.8-1.613C.27 5.395.18 4.005 1.193 2.907c.698-.739 1.598-.717 2.498-.403.203.067.405.179.765.359zm.068 2.465c0-1.344-.473-1.972-1.418-1.994s-1.485.762-1.463 2.106c.022 1.277.563 1.972 1.508 1.927.968-.067 1.373-.695 1.373-2.039zM4.411 2.93l.045.045v-.067l-.045.022zm86.025 51.223c1.305-.717 1.666-2.779 3.759-2.375l-1.553 1.681c-.585.515-.675.941-.112 1.569.653.739 1.215 1.591 1.823 2.398-1.26.515-1.711-.381-2.273-1.098-.338-.426-.473-1.3-1.17-1.098-.72.202-.428 1.008-.45 1.591-.023.471-.045.739-.653.762-.653 0-.608-.336-.608-.762v-6.722c0-.403-.023-.717.563-.717.54 0 .72.202.698.717l-.023 4.056zM15.148 5.887v1.681c0 .224.18.56-.203.65-.27.067-.608.157-.743-.246-.135-.448-.338-.381-.608-.112-.473.448-1.058.493-1.665.471-.968-.022-1.531-.538-1.666-1.479s.27-1.613 1.17-1.927c.563-.179 1.17-.179 1.756-.291.293-.045.743.179.743-.381 0-.426-.135-.829-.63-.941a2.21 2.21 0 0 0-1.418.134c-.383.157-.698.224-.878-.291-.225-.627.338-.56.63-.672a4.31 4.31 0 0 1 1.778-.179c1.215.157 1.733.695 1.778 1.882l-.045 1.703zm-1.913-.403c-.788.09-1.643 0-1.688 1.076-.022.695.473.851 1.08.807.855-.067 1.238-.583 1.305-1.389.023-.583-.338-.583-.698-.493zm37.7 49.789v1.68c0 .202.113.493-.18.56-.27.045-.63.179-.765-.224-.203-.583-.428-.269-.698-.067-.495.403-1.103.448-1.688.403-.923-.067-1.44-.56-1.576-1.456-.135-.874.203-1.524 1.035-1.882.585-.247 1.238-.291 1.868-.336.27-.022.743.202.765-.358.023-.493-.18-.874-.72-.986-.54-.09-1.035 0-1.531.224-.36.157-.54-.022-.675-.336-.18-.426.09-.515.383-.605.833-.291 1.688-.358 2.543-.134.833.224 1.215.829 1.238 1.658v1.86zm-1.913-.493c-.765.09-1.643 0-1.711 1.053-.045.695.45.852 1.058.829.855-.067 1.26-.583 1.328-1.389.045-.56-.27-.605-.675-.493zm18.276 1.546c.135.538.203.896-.315 1.12-1.17.515-3.106.157-3.849-.739-.833-1.008-.833-3.137.023-4.19.698-.851 2.093-1.165 3.174-.695.923.403 1.486 1.524 1.395 2.599-.045.515-.338.493-.675.493-.855 0-1.733.045-2.588-.022-.698-.045-.743.224-.54.784.248.627.675.964 1.35 1.008s1.328-.09 2.026-.358zm-2.228-2.263c.405-.358 1.238.426 1.305-.471.045-.65-.54-1.031-1.238-1.008s-1.238.403-1.215 1.053c.023.739.765.134 1.148.426zM34.909 5.35c0 1.86-1.035 3.003-2.724 3.003-1.756 0-2.768-1.12-2.768-3.047 0-1.949 1.013-3.025 2.813-2.98 1.688.022 2.701 1.165 2.678 3.025zm-1.261.022c.023-1.367-.473-2.061-1.463-2.061-.945 0-1.463.672-1.485 1.949-.022 1.322.518 2.061 1.485 2.061.923.022 1.441-.65 1.463-1.949zM83.076 54.69c-.023 1.86-1.08 2.98-2.769 2.958-1.733-.022-2.723-1.165-2.723-3.092.022-1.882.99-2.935 2.746-2.935 1.756-.023 2.769 1.143 2.746 3.07zm-1.26-.09c0-1.3-.473-1.972-1.418-1.994-.99-.022-1.531.695-1.531 2.017 0 1.3.563 2.039 1.553 1.994.923-.022 1.395-.717 1.395-2.017zM16.723 5.215v-2.24c-.045-.784.698-.717.833-.493.383.672.653.291 1.058.09 1.688-.874 3.219.022 3.264 1.927l.022 3.137c.023.515-.203.627-.653.627-.495 0-.653-.157-.63-.65V4.7c0-.739-.18-1.367-1.08-1.389-.833-.022-1.395.381-1.463 1.21-.09 1.008-.09 2.017-.067 3.003 0 .515-.135.695-.698.717-.585 0-.563-.291-.563-.695l-.023-2.33zM37.88 55.072v-1.569l-.023-.56c-.023-.583-.99.067-.9-.672.068-.515.878-.269.9-.852.023-.448.045-.896.27-1.3.428-.762 2.048-1.12 2.723-.672.203.134.18.291.135.471-.045.224-.135.448-.405.448s-.518-.045-.788-.022c-.518.045-.608.426-.653.896-.045.56.315.471.653.471.36 0 .765-.134.743.493-.022.56-.405.471-.698.426-.675-.067-.72.314-.698.807l.023 3.361c.023.493-.068.739-.653.739-.563 0-.698-.179-.675-.717.068-.56.045-1.165.045-1.748zM8.733 6.134v2.891c-.045 1.322-.855 1.949-2.138 1.77-.36-.045-.653-.112-.63-.583.022-.448.27-.448.585-.426.833.045.968-.493.968-1.165V3.378c0-.381-.338-.986.563-1.008.945 0 .63.627.653 1.076v2.689zM42.9 52.607c.518-.538.945-.941 1.598-.963.315-.022.765-.157.765.358 0 .358.067.739-.63.784-1.238.067-1.643.627-1.688 1.905v2.218c.023.471-.113.65-.63.65-.495 0-.63-.134-.63-.627l.023-4.235c0-.336-.315-.851.338-.986.675-.134.675.403.855.896zm42.787-.068c.495-.471.99-.941 1.711-.941.293 0 .675-.045.608.403-.045.314.067.672-.54.739-1.418.157-1.733.605-1.756 2.061v1.905c0 .471.045.852-.653.852-.788 0-.563-.515-.563-.896l.022-3.899c.023-.336-.405-.919.36-1.053.675-.134.563.493.81.829zM8.8.846c-.023.426-.225.695-.675.695-.383 0-.63-.157-.675-.56-.045-.448.158-.717.585-.762.45-.022.698.224.765.627z" fill="#292929"/><path d="M4.412 2.93l.067-.022-.022.067-.045-.045zm44.61 51.85c.383-.112.72-.067.675.493-.068.807-.473 1.322-1.328 1.389-.608.045-1.103-.112-1.058-.829.068-1.053.945-.963 1.711-1.053zm16.048-.717c-.383-.269-1.103.336-1.148-.426-.023-.65.518-1.053 1.215-1.053.698-.022 1.283.336 1.238 1.008-.067.896-.9.112-1.305.471zm16.745.538c0 1.3-.473 1.994-1.395 2.017-.99.045-1.553-.695-1.553-1.994 0-1.322.54-2.061 1.531-2.017.923.022 1.395.695 1.418 1.994z" fill="#fdfdfd"/><path d="M6.82 29.281c-.608-.067-1.823.426-2.296-.157-.45-.538-.158-1.703-.18-2.577l-.022-8.044c0-.672.158-.896.855-.874 1.913.09 3.804-.045 5.717.246 3.241.471 4.997 2.375 4.997 5.4 0 3.249-1.801 5.333-5.019 5.803-1.238.179-2.521.202-4.051.202zm-1.801-5.803v4.459c0 .403 0 .695.585.672 1.801-.067 3.601.045 5.379-.269 2.769-.493 4.164-2.151 4.187-4.93.023-2.801-1.238-4.302-4.096-4.84-1.823-.336-3.646-.224-5.492-.269-.563-.022-.563.291-.563.695v4.481z" fill="#6f2629"/></svg>