<svg width="167" height="38" viewBox="0 0 167 38" fill="none" xmlns="http://www.w3.org/2000/svg">
<g clip-path="url(#clip0)">
<path d="M96.8511 14.9573H90.2799V15.6567C92.335 15.6567 92.6658 16.0987 92.6658 18.7135V23.4284C92.6658 26.0432 92.3356 26.5224 90.2799 26.5224C88.7018 26.3012 87.6369 25.4542 86.1685 23.8334L84.4797 21.9921C86.7555 21.5864 87.9667 20.1504 87.9667 18.5296C87.9667 16.5043 86.2418 14.9573 83.011 14.9573H76.5505V15.6567C78.6056 15.6567 78.9364 16.0987 78.9364 18.7135V23.4284C78.9364 26.0432 78.6059 26.5224 76.5505 26.5224V27.2221H83.8556V26.5224C81.8002 26.5224 81.4697 26.0432 81.4697 23.4284V22.1031H82.0935L86.1688 27.2221H96.8514C102.1 27.2221 104.377 24.4233 104.377 21.0712C104.377 17.7195 102.101 14.9573 96.8511 14.9573ZM81.47 20.9602V16.0624H82.9749C84.6265 16.0624 85.361 17.204 85.361 18.5299C85.361 19.8192 84.6265 20.9605 82.9749 20.9605L81.47 20.9602ZM96.9615 26.0801H96.7043C95.3834 26.0801 95.1997 25.7492 95.1997 24.0548V16.0624H96.9615C100.78 16.0624 101.476 18.8611 101.476 21.0343C101.476 23.2807 100.779 26.0801 96.9615 26.0801ZM56.104 22.3236L58.637 14.8094C59.3715 12.6365 59.041 12.011 56.6916 12.011V11.274H63.593V12.011C61.2804 12.011 60.7298 12.563 59.812 15.2517L55.6267 27.8479H55.1497L51.4052 16.3198L47.5874 27.8479H47.1101L43.0355 15.252C42.1541 12.5633 41.5671 12.0113 39.4375 12.0113V11.2744H47.5871V12.0113C45.421 12.0113 44.8334 12.5267 45.6047 14.8097L48.0641 22.3239L51.7718 11.2744H52.4695L56.104 22.3236ZM68.5848 27.7003C64.547 27.7003 61.243 24.7173 61.243 21.0706C61.243 17.4611 64.5473 14.4779 68.5848 14.4779C72.623 14.4779 75.9267 17.4611 75.9267 21.0706C75.9267 24.7173 72.623 27.7003 68.5848 27.7003ZM68.5848 15.6204C65.2079 15.6204 64.0329 18.6766 64.0329 21.0709C64.0329 23.5022 65.2079 26.5221 68.5848 26.5221C71.9992 26.5221 73.1742 23.5022 73.1742 21.0709C73.1739 18.6766 71.9992 15.6204 68.5848 15.6204Z" fill="#00749A"/>
<path d="M113.443 26.4853V27.2219H105.037V26.4853C107.496 26.4853 107.937 25.8591 107.937 22.1755V16.2834C107.937 12.5998 107.496 12.0111 105.037 12.0111V11.2739H112.635C116.416 11.2739 118.509 13.226 118.509 15.8414C118.509 18.3828 116.416 20.3714 112.635 20.3714H110.543V22.1755C110.543 25.8595 110.983 26.4853 113.443 26.4853ZM112.635 12.5998H110.543V19.0087H112.635C114.691 19.0087 115.646 17.5724 115.646 15.8414C115.646 14.0736 114.691 12.5998 112.635 12.5998ZM143.729 23.7601L143.545 24.4229C143.215 25.6383 142.81 26.0803 140.204 26.0803H139.69C137.781 26.0803 137.451 25.6383 137.451 23.0238V21.3298C140.314 21.3298 140.535 21.5872 140.535 23.5027H141.232V18.0143H140.535C140.535 19.9295 140.314 20.1872 137.451 20.1872V16.0626H139.469C142.076 16.0626 142.48 16.5045 142.81 17.72L142.994 18.4197H143.581L143.325 14.9578H132.532V15.6572C134.587 15.6572 134.918 16.0992 134.918 18.714V23.4285C134.918 25.8207 134.637 26.4233 133.017 26.5095C131.476 26.2732 130.419 25.4305 128.972 23.8336L127.283 21.9923C129.559 21.5866 130.77 20.1506 130.77 18.5298C130.77 16.5045 129.045 14.9575 125.815 14.9575H119.354V15.6569C121.409 15.6569 121.74 16.0989 121.74 18.7137V23.4285C121.74 26.0434 121.41 26.5226 119.354 26.5226V27.2222H126.659V26.5226C124.604 26.5226 124.273 26.0434 124.273 23.4285V22.1033H124.897L128.972 27.2222H144.06L144.28 23.7607L143.729 23.7601ZM124.273 20.9604V16.0626H125.777C127.429 16.0626 128.164 17.2042 128.164 18.5301C128.164 19.8194 127.429 20.9607 125.777 20.9607L124.273 20.9604ZM151.18 27.7005C149.712 27.7005 148.427 26.9273 147.876 26.4481C147.692 26.6327 147.362 27.185 147.289 27.7005H146.591V22.6181H147.326C147.62 25.049 149.308 26.4853 151.474 26.4853C152.649 26.4853 153.603 25.8222 153.603 24.7178C153.603 23.7604 152.759 23.0235 151.254 22.3238L149.161 21.3295C147.692 20.6292 146.591 19.4134 146.591 17.7935C146.591 16.0257 148.243 14.5159 150.52 14.5159C151.731 14.5159 152.759 14.9581 153.383 15.4736C153.566 15.326 153.75 14.9209 153.86 14.4787H154.558V18.825H153.787C153.53 17.0938 152.575 15.6575 150.63 15.6575C149.602 15.6575 148.647 16.2465 148.647 17.1679C148.647 18.1254 149.418 18.6408 151.18 19.4509L153.199 20.4452C154.961 21.2923 155.659 22.6557 155.659 23.7604C155.659 26.0803 153.64 27.7005 151.18 27.7005ZM162.487 27.7005C161.018 27.7005 159.733 26.9273 159.183 26.4481C158.999 26.6327 158.669 27.185 158.596 27.7005H157.898V22.6181H158.632C158.926 25.049 160.614 26.4853 162.781 26.4853C163.955 26.4853 164.91 25.8222 164.91 24.7178C164.91 23.7604 164.066 23.0235 162.56 22.3238L160.467 21.3295C158.999 20.6292 157.898 19.4134 157.898 17.7935C157.898 16.0257 159.55 14.5159 161.826 14.5159C163.037 14.5159 164.065 14.9581 164.689 15.4736C164.873 15.326 165.056 14.9209 165.166 14.4787H165.864V18.825H165.093C164.836 17.0938 163.882 15.6575 161.936 15.6575C160.909 15.6575 159.954 16.2465 159.954 17.1679C159.954 18.1254 160.725 18.6408 162.487 19.4509L164.506 20.4452C166.268 21.2923 166.965 22.6557 166.965 23.7604C166.965 26.0803 164.946 27.7005 162.487 27.7005Z" fill="#464342"/>
<path d="M2.72657 18.9996C2.72657 25.4516 6.46364 31.0267 11.8827 33.6692L4.13342 12.3662C3.20432 14.4533 2.72492 16.7138 2.72657 18.9996ZM29.9399 18.1771C29.9399 16.1627 29.2187 14.7676 28.6002 13.6818C27.7766 12.3392 27.0047 11.2022 27.0047 9.85959C27.0047 8.36128 28.1374 6.96655 29.7328 6.96655C29.8048 6.96655 29.8732 6.97555 29.9433 6.97958C27.053 4.32318 23.2021 2.70081 18.9729 2.70081C13.2973 2.70081 8.30359 5.62238 5.399 10.0475C5.77985 10.059 6.13936 10.0668 6.44448 10.0668C8.14377 10.0668 10.7742 9.8599 10.7742 9.8599C11.6499 9.80811 11.7532 11.0986 10.8783 11.2025C10.8783 11.2025 9.99824 11.3064 9.01891 11.3579L14.9347 29.0133L18.49 18.3154L15.9589 11.3576C15.0841 11.3061 14.255 11.2022 14.255 11.2022C13.3795 11.1507 13.4821 9.8078 14.3576 9.85959C14.3576 9.85959 17.0408 10.0665 18.6372 10.0665C20.3359 10.0665 22.9669 9.85959 22.9669 9.85959C23.8433 9.8078 23.9462 11.0983 23.071 11.2022C23.071 11.2022 22.1888 11.3061 21.2113 11.3576L27.0823 28.879L28.7028 23.4461C29.4054 21.1917 29.9399 19.5724 29.9399 18.1771Z" fill="#464342"/>
<path d="M19.2575 20.4251L14.3828 34.6353C15.8731 35.0759 17.4188 35.2997 18.9725 35.2997C20.8098 35.3001 22.6339 34.9877 24.3671 34.3757C24.322 34.3045 24.2833 34.2293 24.2515 34.1512L19.2575 20.4251ZM33.2277 11.1793C33.2979 11.6985 33.3371 12.2561 33.3371 12.8553C33.3371 14.5094 33.0292 16.3687 32.1018 18.6935L27.1394 33.0883C31.9692 30.2626 35.2179 25.0127 35.2179 18.9993C35.2222 16.266 34.5376 13.576 33.2277 11.1793Z" fill="#464342"/>
<path d="M18.9741 0C8.53197 0 0.0361328 8.52312 0.0361328 18.9995C0.0361328 29.4772 8.53197 38.0003 18.9744 38.0003C29.4159 38.0003 37.9133 29.4775 37.9133 18.9995C37.9127 8.52312 29.4159 0 18.9741 0ZM18.9741 37.1291C9.01081 37.1291 0.90448 28.9962 0.90448 18.9995C0.90448 9.00384 9.0105 0.87151 18.9741 0.87151C28.9371 0.87151 37.0425 9.00384 37.0425 18.9995C37.0428 28.9962 28.9371 37.1291 18.9741 37.1291Z" fill="#464342"/>
</g>
<defs>
<clipPath id="clip0">
<rect width="167" height="38" fill="white"/>
</clipPath>
</defs>
</svg>
