<svg xmlns="http://www.w3.org/2000/svg" xmlns:xlink="http://www.w3.org/1999/xlink" width="154" height="47" fill="none" xmlns:v="https://vecta.io/nano"><path d="M46.457 38.674c0 4.173-3.414 7.587-7.587 7.587H8.522c-4.173 0-7.587-3.414-7.587-7.587V8.326C.936 4.153 4.35.739 8.522.739H38.87c4.173 0 7.587 3.414 7.587 7.587v30.348z" fill="#563d7c"/><path d="M13.305 10.632H26.21c2.38 0 4.292.543 5.727 1.636s2.157 2.737 2.157 4.946c0 1.339-.327 2.484-.982 3.436s-1.592 1.696-2.812 2.217v.074c1.636.349 2.879 1.123 3.719 2.321.84 1.205 1.264 2.707 1.264 4.522 0 1.041-.186 2.016-.558 2.916-.372.908-.952 1.689-1.748 2.343s-1.807 1.175-3.05 1.562-2.715.58-4.426.58H13.305V10.632zm4.649 11.12h7.587c1.116 0 2.046-.312 2.789-.952s1.116-1.547 1.116-2.737c0-1.339-.335-2.283-1.004-2.826s-1.636-.818-2.901-.818h-7.587v7.334zm0 11.641h8.219c1.413 0 2.514-.364 3.288-1.101.781-.729 1.175-1.77 1.175-3.109 0-1.317-.387-2.321-1.175-3.035s-1.874-1.056-3.288-1.056h-8.219v8.301z" fill="#fff"/><g fill="#563d7c"><path d="M64.798 24.132c.768.252 1.377.675 1.828 1.271.45.583.675 1.311.675 2.185 0 1.205-.463 2.139-1.39 2.801-.927.649-2.278.973-4.052.973h-6.913V17.458h6.515c1.642 0 2.907.325 3.794.973.887.636 1.331 1.516 1.331 2.642 0 .689-.159 1.298-.477 1.827s-.755.94-1.311 1.232zm-7.27-4.648v3.834h3.655c.9 0 1.589-.159 2.066-.477.49-.331.735-.808.735-1.43 0-.636-.245-1.112-.735-1.43-.477-.331-1.165-.497-2.066-.497h-3.655zm4.171 9.853c2 0 2.999-.669 2.999-2.006s-1-2.006-2.999-2.006h-4.171v4.013H61.7z"/><use xlink:href="#B"/><use xlink:href="#B" x="12.803"/><path d="M101.801 30.787c-.291.238-.649.417-1.073.536a4.68 4.68 0 0 1-1.311.179c-1.165 0-2.066-.305-2.701-.914s-.954-1.496-.954-2.662v-5.105h-1.748v-1.986h1.748v-2.423h2.483v2.423h2.841v1.986h-2.841v5.045c0 .516.126.914.377 1.192.252.265.616.397 1.093.397.557 0 1.02-.146 1.391-.437l.695 1.768zm5.32.715a9.5 9.5 0 0 1-2.523-.338c-.821-.225-1.476-.51-1.966-.854l.953-1.887c.477.318 1.047.576 1.709.775.675.185 1.337.278 1.986.278 1.483 0 2.225-.391 2.225-1.172 0-.371-.192-.629-.576-.775-.371-.146-.974-.285-1.808-.417-.874-.132-1.589-.285-2.145-.457a3.39 3.39 0 0 1-1.43-.894c-.398-.437-.596-1.04-.596-1.808 0-1.006.417-1.808 1.251-2.403.848-.609 1.987-.914 3.417-.914.728 0 1.456.086 2.185.258.728.159 1.324.377 1.788.656l-.954 1.887c-.9-.53-1.913-.795-3.039-.795-.728 0-1.285.113-1.669.338-.37.212-.556.497-.556.854 0 .397.199.682.596.854.411.159 1.04.311 1.887.457.848.132 1.543.285 2.086.457a3.19 3.19 0 0 1 1.39.874c.398.411.596.993.596 1.748 0 .993-.43 1.788-1.291 2.384s-2.033.894-3.516.894zm13.322-.715c-.291.238-.649.417-1.073.536a4.68 4.68 0 0 1-1.311.179c-1.165 0-2.066-.305-2.701-.914s-.954-1.496-.954-2.662v-5.105h-1.748v-1.986h1.748v-2.423h2.483v2.423h2.841v1.986h-2.841v5.045c0 .516.126.914.378 1.192.251.265.615.397 1.092.397.556 0 1.02-.146 1.391-.437l.695 1.768zm4.406-8.482c.715-1.112 1.973-1.669 3.774-1.669V23a3.13 3.13 0 0 0-.576-.06c-.966 0-1.721.285-2.264.854-.543.556-.815 1.364-.815 2.423v5.145h-2.483V20.755h2.364v1.549zm9.875-1.669c1.562 0 2.754.378 3.575 1.132.835.742 1.252 1.867 1.252 3.377v6.217h-2.344v-1.291c-.305.463-.742.821-1.311 1.073-.556.238-1.232.357-2.026.357s-1.49-.132-2.086-.397c-.596-.278-1.059-.656-1.39-1.132-.318-.49-.477-1.04-.477-1.649 0-.953.351-1.715 1.053-2.284.715-.583 1.834-.874 3.357-.874h2.741v-.159c0-.742-.225-1.311-.676-1.708-.437-.397-1.092-.596-1.966-.596a5.8 5.8 0 0 0-1.768.278c-.569.185-1.053.444-1.45.775l-.973-1.808c.556-.424 1.225-.748 2.006-.973a8.93 8.93 0 0 1 2.483-.338zm-.338 9.058c.623 0 1.172-.139 1.649-.417a2.36 2.36 0 0 0 1.033-1.232v-1.232h-2.563c-1.43 0-2.145.47-2.145 1.41 0 .45.179.808.536 1.073s.855.397 1.49.397zm14.231-9.058c1.033 0 1.953.225 2.761.675a4.85 4.85 0 0 1 1.927 1.907c.464.821.695 1.768.695 2.841s-.231 2.026-.695 2.86a4.85 4.85 0 0 1-1.927 1.907c-.808.45-1.728.675-2.761.675-1.43 0-2.562-.477-3.397-1.43v5.145h-2.483V20.755h2.364v1.39a3.86 3.86 0 0 1 1.51-1.132c.609-.252 1.278-.378 2.006-.378zm-.278 8.74c.914 0 1.662-.305 2.245-.914.596-.609.894-1.41.894-2.404s-.298-1.794-.894-2.404c-.583-.609-1.331-.914-2.245-.914-.596 0-1.132.139-1.609.417a2.87 2.87 0 0 0-1.132 1.152c-.278.503-.417 1.086-.417 1.748s.139 1.245.417 1.748a3.01 3.01 0 0 0 1.132 1.172c.477.265 1.013.397 1.609.397z"/></g><defs ><path id="B" d="M74.586 31.502c-1.073 0-2.039-.232-2.9-.695a5.16 5.16 0 0 1-2.026-1.927c-.477-.834-.715-1.774-.715-2.821s.238-1.98.715-2.801a5.16 5.16 0 0 1 2.026-1.927c.861-.463 1.827-.695 2.9-.695 1.086 0 2.059.232 2.92.695a5.02 5.02 0 0 1 2.006 1.927c.49.821.735 1.755.735 2.801s-.245 1.986-.735 2.821a5.02 5.02 0 0 1-2.006 1.927c-.861.463-1.834.695-2.92.695zm0-2.125c.914 0 1.669-.305 2.264-.914s.894-1.41.894-2.404-.298-1.794-.894-2.404-1.351-.914-2.264-.914-1.669.305-2.264.914c-.583.609-.874 1.41-.874 2.404s.291 1.794.874 2.404c.596.609 1.351.914 2.264.914z"/></defs></svg>