<svg width="64" height="64" viewBox="0 0 64 64" fill="none" xmlns="http://www.w3.org/2000/svg">
<path d="M61.6414 38.7731L59.4338 37.4985C59.8045 35.6545 59.9921 33.808 59.9921 32C59.9921 30.1657 59.8075 28.3174 59.4431 26.496L61.6414 25.2268C62.3222 24.8338 62.8093 24.199 63.0127 23.4397C63.2161 22.6803 63.1117 21.8871 62.7186 21.2063L56.7068 10.7936C56.3137 10.1128 55.6791 9.62568 54.9197 9.42228C54.1602 9.21888 53.3672 9.32321 52.6862 9.71635L50.4862 10.9866C47.7071 8.54168 44.4365 6.64949 40.955 5.47219V2.94325C40.955 1.32033 39.6346 0 38.0117 0H25.9882C24.3653 0 23.045 1.32033 23.045 2.94325V5.47231C19.582 6.64485 16.3158 8.53955 13.5265 10.9941L11.3136 9.71635C10.6326 9.32321 9.83943 9.21876 9.08007 9.42228C8.32072 9.6258 7.6861 10.1128 7.29296 10.7936L1.28122 21.2063C0.888074 21.8871 0.783746 22.6803 0.987143 23.4397C1.19054 24.199 1.67762 24.8338 2.35845 25.2268L4.56601 26.5014C4.19553 28.3454 4.00779 30.1918 4.00779 32C4.00779 33.8341 4.1924 35.6823 4.55686 37.5039L2.35857 38.7731C0.953076 39.5846 0.469882 41.3881 1.28122 42.7937L7.29296 53.2064C8.10442 54.6118 9.90794 55.0951 11.3136 54.2836L13.5135 53.0134C16.2927 55.4583 19.5632 57.3505 23.045 58.5279V61.0568C23.045 62.6797 24.3653 64 25.9882 64H38.0117C39.6346 64 40.955 62.6797 40.955 61.0568V58.5277C44.4181 57.3551 47.6842 55.4604 50.4735 53.006L52.6864 54.2836C54.0917 55.0951 55.8955 54.6118 56.707 53.2064L62.7187 42.7937C63.53 41.3881 63.0469 39.5846 61.6414 38.7731ZM61.0917 41.8544L55.0799 52.267C54.7865 52.7755 54.1341 52.9502 53.6257 52.6566L50.8212 51.0374C50.4649 50.8317 50.0159 50.8819 49.7138 51.1613C46.8466 53.8131 43.3969 55.8139 39.7377 56.9475C39.3444 57.0693 39.0763 57.433 39.0763 57.8447V61.0568C39.0763 61.6438 38.5987 62.1213 38.0117 62.1213H25.9882C25.4012 62.1213 24.9236 61.6438 24.9236 61.0568V57.8449C24.9236 57.4332 24.6555 57.0695 24.2624 56.9476C20.5807 55.807 17.1267 53.8087 14.2735 51.1689C14.0955 51.0042 13.8664 50.9191 13.6353 50.9191C13.4743 50.9191 13.3123 50.9604 13.1659 51.0449L10.3742 52.6566C9.86573 52.95 9.21346 52.7753 8.92001 52.267L2.90827 41.8544C2.61482 41.346 2.78966 40.6936 3.29791 40.4L6.08735 38.7895C6.44355 38.5839 6.62453 38.1706 6.53398 37.7693C6.10426 35.8647 5.88646 33.9235 5.88646 32C5.88646 30.1088 6.10752 28.1695 6.54362 26.236C6.63405 25.8348 6.45307 25.4214 6.097 25.2159L3.29791 23.5998C3.05168 23.4577 2.87558 23.2281 2.80194 22.9535C2.72842 22.6788 2.76612 22.3919 2.90827 22.1456L8.92001 11.7329C9.06216 11.4867 9.29174 11.3105 9.56652 11.2369C9.84106 11.1633 10.1281 11.2011 10.3744 11.3433L13.1788 12.9624C13.5353 13.1683 13.9842 13.118 14.2862 12.8386C17.1536 10.1868 20.6032 8.18599 24.2624 7.0524C24.6556 6.93054 24.9238 6.56683 24.9238 6.15515V2.94325C24.9238 2.35623 25.4013 1.87867 25.9883 1.87867H38.0118C38.5989 1.87867 39.0764 2.35623 39.0764 2.94325V6.15515C39.0764 6.56683 39.3446 6.93054 39.7377 7.0524C43.4193 8.19288 46.8733 10.1912 49.7266 12.8311C50.0287 13.1106 50.4777 13.1608 50.8341 12.9551L53.6258 11.3433C53.8722 11.2011 54.1591 11.1633 54.4337 11.2369C54.7083 11.3106 54.9379 11.4867 55.0802 11.7329L61.0919 22.1456C61.2341 22.3919 61.2719 22.6788 61.1982 22.9535C61.1246 23.2281 60.9485 23.4577 60.7023 23.5998L57.9128 25.2104C57.5566 25.416 57.3757 25.8294 57.4662 26.2306C57.8959 28.1351 58.1137 30.0761 58.1137 32C58.1137 33.8912 57.8927 35.8305 57.4566 37.7639C57.3661 38.165 57.5471 38.5783 57.9032 38.784L60.7023 40.4C61.2104 40.6936 61.3852 41.346 61.0917 41.8544Z" fill="#7F8284"/>
<path d="M32 13.0255C21.5373 13.0255 13.0254 21.5375 13.0254 32C13.0254 42.4626 21.5373 50.9746 32 50.9746C42.4626 50.9746 50.9745 42.4626 50.9745 32C50.9745 21.5375 42.4626 13.0255 32 13.0255ZM32 49.0959C22.5733 49.0959 14.9041 41.4267 14.9041 32C14.9041 22.5733 22.5733 14.9041 32 14.9041C41.4266 14.9041 49.0958 22.5733 49.0958 32C49.0958 41.4267 41.4266 49.0959 32 49.0959Z" fill="#7F8284"/>
<path d="M35.5068 27.0529H31.9999C31.4812 27.0529 31.0606 27.4734 31.0606 27.9922V36.0078C31.0606 36.5266 31.4812 36.9472 31.9999 36.9472C32.5187 36.9472 32.9393 36.5266 32.9393 36.0078V33.9413H35.5068C37.406 33.9413 38.951 32.3963 38.951 30.4971C38.951 28.5979 37.406 27.0529 35.5068 27.0529ZM35.5068 32.0626H32.9393V28.9315H35.5068C36.3701 28.9315 37.0723 29.6338 37.0723 30.4971C37.0723 31.3604 36.3701 32.0626 35.5068 32.0626Z" fill="#FF6B00"/>
<path d="M26.8677 27.6624C26.7302 27.2958 26.3797 27.0529 25.9882 27.0529H24.9863C24.5947 27.0529 24.2442 27.2957 24.1068 27.6624L21.1009 35.6781C20.9187 36.1638 21.1649 36.7052 21.6506 36.8874C22.1363 37.0697 22.6778 36.8234 22.86 36.3377L23.3828 34.9433H27.5916L28.1145 36.3376C28.2559 36.7147 28.6138 36.9474 28.9941 36.9474C29.1037 36.9474 29.2152 36.9281 29.3237 36.8874C29.8094 36.7053 30.0557 36.1638 29.8734 35.6781L26.8677 27.6624ZM24.0873 33.0646L25.4872 29.3314L26.8872 33.0646H24.0873Z" fill="#FF6B00"/>
<path d="M41.0176 27.0529C40.4988 27.0529 40.0782 27.4734 40.0782 27.9922V36.0078C40.0782 36.5266 40.4988 36.9472 41.0176 36.9472C41.5363 36.9472 41.9569 36.5266 41.9569 36.0078V27.9922C41.9569 27.4734 41.5363 27.0529 41.0176 27.0529Z" fill="#FF6B00"/>
<path d="M38.7196 10.9338C39.3715 11.1416 40.0214 11.383 40.651 11.651C40.7709 11.7021 40.8957 11.7263 41.0184 11.7263C41.3836 11.7263 41.7311 11.5119 41.8831 11.1547C42.0863 10.6773 41.8641 10.1256 41.3868 9.9225C40.7032 9.63156 39.9978 9.36955 39.2899 9.14398C38.7958 8.98642 38.2673 9.25946 38.1097 9.75367C37.9523 10.2479 38.2253 10.7763 38.7196 10.9338Z" fill="#7F8284"/>
<path d="M12.5808 42.5711C12.3323 42.1157 11.7616 41.9479 11.3063 42.1964C10.8509 42.4449 10.6831 43.0155 10.9316 43.4709C11.3213 44.1853 11.7528 44.888 12.214 45.5596C12.3961 45.8247 12.69 45.9672 12.9891 45.9672C13.1723 45.9672 13.3574 45.9138 13.52 45.8022C13.9477 45.5085 14.0563 44.9237 13.7626 44.4961C13.3376 43.8772 12.94 43.2295 12.5808 42.5711Z" fill="#7F8284"/>
<path d="M30.0762 54.0231C25.0427 53.5894 20.2649 51.4082 16.6229 47.881C16.2502 47.5201 15.6555 47.5297 15.2947 47.9023C14.9339 48.275 14.9433 48.8697 15.316 49.2305C19.2675 53.0574 24.4522 55.4241 29.9149 55.8948C29.9423 55.8972 29.9695 55.8983 29.9965 55.8983C30.4789 55.8983 30.8892 55.529 30.9314 55.0396C30.9758 54.5229 30.593 54.0677 30.0762 54.0231Z" fill="#7F8284"/>
<path d="M45.517 12.1846C45.0886 11.8919 44.5041 12.0019 44.2114 12.4301C43.9187 12.8584 44.0287 13.443 44.4569 13.7357C48.8209 16.7181 51.9777 21.1561 53.3458 26.2321C53.4587 26.6511 53.838 26.9272 54.2522 26.9272C54.3331 26.9272 54.4153 26.9166 54.4971 26.8946C54.9981 26.7596 55.2947 26.2441 55.1597 25.7432C53.6753 20.235 50.2507 15.4198 45.517 12.1846Z" fill="#7F8284"/>
</svg>
