<svg width="61" height="70" viewBox="0 0 61 70" fill="none" xmlns="http://www.w3.org/2000/svg">
<g clip-path="url(#clip0)">
<path d="M21.4237 50.9787C20.4411 50.7077 19.4699 50.3576 18.5213 49.951V42.407C18.5213 42.1021 18.3632 41.831 18.1034 41.6729L15.2236 40.0128C14.817 39.7756 14.2975 39.9111 14.0716 40.3177C13.8345 40.7243 13.9813 41.2437 14.3766 41.4696L15.9915 42.407L9.26063 46.2919L2.54103 42.407C4.77713 41.1082 7.02453 39.8208 9.26063 38.522L11.045 39.5497C11.4516 39.7756 11.9598 39.6401 12.1969 39.2335C12.4228 38.827 12.2873 38.3187 11.8807 38.0816L9.68978 36.8167C9.44133 36.6699 9.11382 36.6586 8.84277 36.8054L6.61796 38.0929C5.3418 35.1679 4.69808 32.0396 4.69808 28.9113C4.69808 25.7717 5.3418 22.6321 6.61796 19.7071L8.77501 20.9494C9.09123 21.1301 9.45262 21.1527 9.75754 20.9494C12.5244 19.357 15.28 17.7647 18.0469 16.161C18.3293 16.0255 18.5213 15.7318 18.5213 15.4043V7.87159C21.4124 6.62931 24.4955 5.99688 27.5899 5.99688C30.7069 5.98559 33.8126 6.61802 36.7263 7.87159V15.4156C36.7263 15.7205 36.8844 15.9916 37.1442 16.1497C39.9224 17.7534 42.7118 19.357 45.49 20.9607C45.8062 21.1414 46.1563 21.1414 46.4726 20.9607L50.0978 18.8714C51.6563 17.9679 53.2147 17.0758 54.762 16.1836C55.0443 16.0481 55.2363 15.7544 55.2363 15.4269L55.225 5.71454C55.225 5.40962 55.0669 5.12728 54.7958 4.98047L52.0628 3.38809C51.6563 3.16222 51.148 3.29774 50.9109 3.70431C50.685 4.11087 50.8205 4.61908 51.2271 4.85624L52.7065 5.70325L45.9869 9.5882L39.2673 5.70325C41.5034 4.4045 43.7508 3.11705 45.9869 1.8183L47.9068 2.92506C48.3134 3.15093 48.8329 3.01541 49.0588 2.60884C49.2959 2.20228 49.1491 1.69407 48.7425 1.45691L46.4048 0.112991C46.1563 -0.033824 45.8288 -0.0451174 45.5578 0.101697C42.7683 1.71666 39.9788 3.32033 37.1893 4.924C36.907 5.05952 36.715 5.35315 36.715 5.68066V6.01947C33.79 4.85624 30.6843 4.28028 27.5786 4.28028C24.4955 4.28028 21.4237 4.86753 18.51 6.01947C18.51 5.55644 18.51 5.18375 18.0808 4.9353C15.28 3.35421 12.4906 1.73925 9.68978 0.112991C9.44133 -0.033824 9.11382 -0.0451174 8.84277 0.101697C6.05329 1.72795 3.26381 3.33163 0.474325 4.9353C0.191989 5.07082 0 5.36445 0 5.70325V15.4156C0 15.7205 0.158108 15.9916 0.417858 16.1497C1.98765 17.0645 3.56873 17.9679 5.13852 18.8714C3.71555 22.0562 3.00406 25.4894 3.00406 28.9226C3.00406 32.3445 3.71555 35.7777 5.13852 38.9625C3.58002 39.8659 2.02153 40.7581 0.474325 41.6503C0.191989 41.7858 0 42.0795 0 42.407V52.1193C0 52.4243 0.158108 52.6953 0.417858 52.8534C3.19605 54.4571 5.97424 56.0833 8.76372 57.6644C9.1364 57.879 9.41874 57.8564 9.74625 57.6644C12.5131 56.0721 15.2687 54.4797 18.0356 52.876C18.318 52.7405 18.51 52.4469 18.51 52.1193V51.7805C19.3118 52.0968 20.1362 52.3791 20.9719 52.605C21.4801 52.7405 21.9884 52.3904 22.0222 51.8596C22.0222 51.8483 22.0222 51.837 22.0222 51.8257C22.0561 51.4417 21.7964 51.0916 21.4237 50.9787ZM46.8227 11.0451L53.531 7.16011V14.93C51.2949 16.2288 49.0588 17.5162 46.8114 18.815V11.0451H46.8227ZM38.409 7.1714L45.1286 11.0451V18.815C42.8925 17.5162 40.6564 16.2288 38.409 14.93V7.1714ZM16.8272 14.93C14.5911 16.2288 12.355 17.5162 10.1076 18.815V11.0451L16.8272 7.1714V14.93ZM9.26063 1.8183C11.4967 3.11705 13.7441 4.4045 15.9802 5.70325L9.26063 9.57691L2.54103 5.70325C4.77713 4.4045 7.01323 3.11705 9.26063 1.8183ZM1.69402 14.93V7.1714L8.41362 11.0451V18.815C6.17752 17.5162 3.93012 16.2175 1.69402 14.93ZM8.41362 55.5187C6.17752 54.2199 3.94142 52.9325 1.69402 51.6337V43.8638L8.41362 47.7488V55.5187ZM16.8272 51.645C14.5911 52.9438 12.355 54.2312 10.1076 55.53V47.7601L16.8272 43.8751V51.645Z" fill="#7F8284"/>
<path d="M56.9868 28.4481C56.9868 26.1104 55.0782 24.2018 52.7404 24.2018H30.786C28.4482 24.2018 26.5396 26.1104 26.5396 28.4481V30.176V65.8069C26.5396 68.1447 28.4482 70.0533 30.786 70.0533H52.7404C55.0782 70.0533 56.9868 68.1447 56.9868 65.8069V64.6776C56.9868 64.6776 56.9868 64.6776 56.9868 64.6663V28.4481ZM47.8391 25.9071L47.6132 26.6751C47.4438 27.2736 46.8791 27.6915 46.258 27.6915H37.2684C36.6473 27.6915 36.0826 27.2736 35.9132 26.6751L35.6873 25.9071H47.8391ZM55.2927 65.8182C55.2927 67.2186 54.1521 68.3592 52.7517 68.3592H30.786C29.3856 68.3592 28.2449 67.2186 28.2449 65.8182V38.7704V28.4594C28.2449 27.059 29.3856 25.9184 30.786 25.9184H33.9142L34.2756 27.172C34.6596 28.4933 35.8906 29.4081 37.2571 29.4081H46.2467C47.6245 29.4081 48.8442 28.482 49.2282 27.172L49.5896 25.9297H52.7404C54.1408 25.9297 55.2815 27.0703 55.2815 28.4707V56.1171V65.8182H55.2927Z" fill="#FF6B00"/>
<path d="M46.5065 63.8306H37.02C36.557 63.8306 36.173 64.2145 36.173 64.6776C36.173 65.1406 36.557 65.5246 37.02 65.5246H46.5065C46.9808 65.5246 47.3535 65.1406 47.3535 64.6776C47.3535 64.2145 46.9808 63.8306 46.5065 63.8306Z" fill="#FF6B00"/>
</g>
<defs>
<clipPath id="clip0">
<rect width="61" height="70" fill="white"/>
</clipPath>
</defs>
</svg>
