<svg width="62" height="64" viewBox="0 0 62 64" fill="none" xmlns="http://www.w3.org/2000/svg">
<g clip-path="url(#clip0)">
<path d="M21.3385 50.9787C20.3599 50.7077 19.3925 50.3576 18.4476 49.951V42.407C18.4476 42.102 18.2902 41.831 18.0314 41.6729L15.1631 40.0128C14.7581 39.7756 14.2407 39.9111 14.0157 40.3177C13.7795 40.7242 13.9257 41.2437 14.3194 41.4696L15.928 42.407L9.22382 46.2919L2.53093 42.407C4.75814 41.1082 6.9966 39.8208 9.22382 38.522L11.0011 39.5497C11.406 39.7756 11.9122 39.6401 12.1484 39.2335C12.3734 38.8269 12.2384 38.3187 11.8335 38.0816L9.65126 36.8167C9.40379 36.6699 9.07759 36.6586 8.80762 36.8054L6.59165 38.0929C5.32057 35.1679 4.6794 32.0396 4.6794 28.9113C4.6794 25.7717 5.32057 22.6321 6.59165 19.7071L8.74013 20.9494C9.05509 21.1301 9.41504 21.1527 9.71875 20.9494C12.4747 19.357 15.2193 17.7647 17.9752 16.161C18.2564 16.0255 18.4476 15.7318 18.4476 15.4043V7.87159C21.3273 6.62931 24.3981 5.99688 27.4802 5.99688C30.5848 5.98559 33.6782 6.61802 36.5803 7.87159V15.4156C36.5803 15.7205 36.7378 15.9916 36.9965 16.1497C39.7636 17.7534 42.542 19.357 45.3092 20.9607C45.6241 21.1414 45.9729 21.1414 46.2878 20.9607L49.8986 18.8714C51.4509 17.9679 53.0032 17.0758 54.5443 16.1836C54.8255 16.0481 55.0167 15.7544 55.0167 15.4269L55.0054 5.71454C55.0054 5.40962 54.848 5.12728 54.578 4.98047L51.8559 3.38809C51.4509 3.16222 50.9447 3.29774 50.7085 3.70431C50.4835 4.11087 50.6185 4.61908 51.0235 4.85624L52.497 5.70325L45.8041 9.5882L39.1112 5.70325C41.3384 4.4045 43.5769 3.11705 45.8041 1.8183L47.7164 2.92506C48.1213 3.15093 48.6388 3.01541 48.8637 2.60884C49.1 2.20228 48.9537 1.69407 48.5488 1.45691L46.2203 0.112991C45.9729 -0.033824 45.6466 -0.0451174 45.3767 0.101697C42.5983 1.71666 39.8199 3.32033 37.0415 4.924C36.7603 5.05952 36.5691 5.35315 36.5691 5.68066V6.01947C33.6557 4.85624 30.5623 4.28027 27.469 4.28027C24.3981 4.28027 21.3385 4.86753 18.4364 6.01947C18.4364 5.55643 18.4364 5.18375 18.0089 4.9353C15.2193 3.35421 12.4409 1.73925 9.65126 0.112991C9.40379 -0.033824 9.07759 -0.0451174 8.80762 0.101697C6.02923 1.72795 3.25083 3.33162 0.472439 4.9353C0.191225 5.07082 0 5.36445 0 5.70325V15.4156C0 15.7205 0.15748 15.9916 0.416197 16.1497C1.97975 17.0645 3.55454 17.9679 5.11809 18.8714C3.70078 22.0562 2.99212 25.4894 2.99212 28.9226C2.99212 32.3445 3.70078 35.7777 5.11809 38.9625C3.56579 39.8659 2.01349 40.7581 0.472439 41.6503C0.191225 41.7858 0 42.0795 0 42.407V52.1193C0 52.4243 0.15748 52.6953 0.416197 52.8534C3.18334 54.4571 5.95049 56.0833 8.72888 57.6644C9.10008 57.879 9.3813 57.8564 9.70751 57.6644C12.4634 56.072 15.208 54.4797 17.9639 52.876C18.2452 52.7405 18.4364 52.4468 18.4364 52.1193V51.7805C19.235 52.0967 20.0562 52.3791 20.8886 52.605C21.3948 52.7405 21.9009 52.3904 21.9347 51.8596C21.9347 51.8483 21.9347 51.837 21.9347 51.8257C21.9684 51.4417 21.7097 51.0916 21.3385 50.9787ZM46.6365 11.0451L53.3182 7.16011V14.93C51.0909 16.2287 48.8637 17.5162 46.6253 18.8149V11.0451H46.6365ZM38.2563 7.1714L44.9492 11.0451V18.8149C42.722 17.5162 40.4948 16.2287 38.2563 14.93V7.1714ZM16.7604 14.93C14.5331 16.2287 12.3059 17.5162 10.0675 18.8149V11.0451L16.7604 7.1714V14.93ZM9.22382 1.8183C11.451 3.11705 13.6895 4.4045 15.9167 5.70325L9.22382 9.5769L2.53093 5.70325C4.75814 4.4045 6.98535 3.11705 9.22382 1.8183ZM1.68728 14.93V7.1714L8.38018 11.0451V18.8149C6.15296 17.5162 3.9145 16.2175 1.68728 14.93ZM8.38018 55.5187C6.15296 54.2199 3.92575 52.9325 1.68728 51.6337V43.8638L8.38018 47.7488V55.5187ZM16.7604 51.645C14.5331 52.9438 12.3059 54.2312 10.0675 55.53V47.7601L16.7604 43.8751V51.645Z" fill="#7F8284"/>
<path d="M53.7569 31.1587H33.5433C33.217 31.1587 32.9471 31.5427 32.9471 32.0057C32.9471 32.4687 33.217 32.8527 33.5433 32.8527H53.7569C54.0831 32.8527 54.3531 32.4687 54.3531 32.0057C54.3531 31.5427 54.0831 31.1587 53.7569 31.1587Z" fill="#FF6B00"/>
<path d="M53.7569 37.6411H33.5433C33.217 37.6411 32.9471 38.0251 32.9471 38.4881C32.9471 38.9511 33.217 39.3351 33.5433 39.3351H53.7569C54.0831 39.3351 54.3531 38.9511 54.3531 38.4881C54.3531 38.0251 54.0831 37.6411 53.7569 37.6411Z" fill="#FF6B00"/>
<path d="M53.7569 44.1122H33.5433C33.217 44.1122 32.9471 44.4962 32.9471 44.9592C32.9471 45.4222 33.217 45.8062 33.5433 45.8062H53.7569C54.0831 45.8062 54.3531 45.4222 54.3531 44.9592C54.3531 44.4962 54.0831 44.1122 53.7569 44.1122Z" fill="#FF6B00"/>
<path d="M56.1866 23.7501H30.3936C27.6827 23.7501 25.4893 25.9636 25.4893 28.6741V48.9571C25.4893 51.6788 27.694 53.8811 30.3936 53.8811H46.569C46.8053 53.8811 47.0302 53.994 47.1877 54.1747L54.4655 63.424C54.7467 63.7854 55.1742 63.9887 55.6129 63.9887C55.7704 63.9887 55.9391 63.9661 56.1078 63.9096C56.704 63.6951 57.0977 63.153 57.0977 62.5205V53.802C59.3699 53.3728 61.1134 51.3513 61.1134 48.9571V28.6854C61.0909 25.9636 58.8862 23.7501 56.1866 23.7501ZM59.4036 48.9684C59.4036 50.7302 57.9751 52.1757 56.2203 52.1983C55.7591 52.2096 55.3879 52.5823 55.3879 53.0453V61.8881L48.5038 53.147C48.0314 52.5484 47.3227 52.2096 46.569 52.2096H30.3936C28.6164 52.2096 27.1765 50.7641 27.1765 48.9797V28.6854C27.1765 26.901 28.6164 25.4554 30.3936 25.4554H56.1866C57.9638 25.4554 59.4036 26.901 59.4036 28.6854V48.9684Z" fill="#FF6B00"/>
</g>
<defs>
<clipPath id="clip0">
<rect width="61.0909" height="64" fill="white"/>
</clipPath>
</defs>
</svg>
