<svg width="64" height="64" viewBox="0 0 64 64" fill="none" xmlns="http://www.w3.org/2000/svg">
<path d="M52.8596 23.1989C52.5124 23.4009 52.1225 23.4009 51.7753 23.1989C48.6955 21.4234 45.6159 19.6479 42.5361 17.8687C42.2491 17.7022 42.0684 17.394 42.0684 17.0607V8.71111C38.8505 7.32186 35.4058 6.62724 31.961 6.63436C28.5446 6.63786 25.1248 7.33249 21.9281 8.71111V17.0606C21.9281 17.4327 21.7155 17.7517 21.4036 17.9041C18.3416 19.669 15.2833 21.4339 12.2248 23.1987C11.8951 23.4291 11.4876 23.4007 11.1404 23.1987L8.75525 21.8237C7.33763 25.0629 6.62888 28.536 6.62888 32.0126C6.63238 35.4786 7.34125 38.9481 8.75525 42.1802L11.2183 40.7591C11.5195 40.5855 11.881 40.5997 12.1609 40.7662L14.5885 42.1697C15.0351 42.425 15.1875 42.9955 14.9323 43.442C14.6736 43.8921 14.103 44.0445 13.6565 43.7892L11.6825 42.6481C9.20175 44.0799 6.721 45.5116 4.24025 46.9469L11.6825 51.2421L19.1249 46.9469L17.3315 45.912C16.885 45.6532 16.7326 45.0792 16.9913 44.6326C17.25 44.1861 17.8241 44.0337 18.2706 44.2924L21.4603 46.1352C21.7509 46.3017 21.928 46.6101 21.928 46.9432V55.2927C25.1388 56.6784 28.5694 57.3731 31.9999 57.3695C35.4304 57.3695 38.861 56.6784 42.0683 55.2927V46.9432C42.0683 46.5746 42.2844 46.2522 42.5964 46.0997C45.6796 44.3207 48.7664 42.5416 51.8531 40.759C52.1544 40.5854 52.5159 40.5996 52.7959 40.7661L55.2411 42.1801C56.6623 38.941 57.371 35.4642 57.3675 31.9912C57.3675 28.5252 56.6588 25.0592 55.2411 21.8236L52.8596 23.1989ZM51.3784 12.2231L43.9431 7.93149V16.522C46.4239 17.9537 48.9011 19.3856 51.3784 20.8172V12.2231ZM44.8788 6.30836L52.3175 10.6071L59.7598 6.30836L58.1261 5.36561C57.676 5.10686 57.5236 4.53623 57.7789 4.08974C58.0375 3.64323 58.6081 3.49074 59.0546 3.74599L62.0846 5.49674C62.3824 5.66324 62.5596 5.96811 62.5596 6.30836L62.5668 17.0606C62.5668 17.4327 62.3505 17.7517 62.0386 17.9041C60.3163 18.8965 58.5939 19.8887 56.8716 20.8846C58.4451 24.4072 59.2355 28.1994 59.2355 31.9914C59.239 35.7905 58.4488 39.5896 56.8716 43.1229C58.6116 44.1257 60.3553 45.1287 62.0954 46.1352C62.386 46.3017 62.5633 46.6101 62.5668 46.9432V57.6956C62.5668 58.0677 62.3505 58.3866 62.0386 58.5391C58.9766 60.304 55.9183 62.0689 52.8598 63.8337C52.4983 64.0427 52.1368 64.0464 51.7754 63.8337C48.7063 62.0369 45.616 60.2827 42.5363 58.5036C42.2493 58.3371 42.0685 58.0287 42.0685 57.6956V57.32C38.847 58.5994 35.4236 59.2374 32.0001 59.2409C28.5766 59.2409 25.1533 58.5994 21.9283 57.32V57.6956C21.9283 58.0677 21.7156 58.3866 21.4038 58.5391C18.3418 60.304 15.2834 62.0689 12.2249 63.8337C11.867 64.0427 11.548 64.0676 11.1405 63.8337C8.04663 62.0794 4.98113 60.2827 1.90138 58.5036C1.61438 58.3371 1.4335 58.0287 1.4335 57.6956V46.9432C1.4335 46.5746 1.64975 46.2522 1.96163 46.0997C3.684 45.1075 5.40638 44.1151 7.12863 43.1192C5.5515 39.5966 4.76488 35.8045 4.76125 32.0125C4.76125 28.2134 5.548 24.4142 7.12863 20.8845C5.38863 19.878 3.645 18.8751 1.90138 17.8686C1.61438 17.7021 1.4335 17.3939 1.4335 17.0606V6.30836C1.4335 5.93973 1.64975 5.61736 1.96163 5.46486C5.04488 3.68586 8.13163 1.90686 11.2184 0.12411C11.5196 -0.0495148 11.8811 -0.0352648 12.161 0.131235C15.2584 1.92099 18.3523 3.70711 21.4498 5.49324C21.9281 5.76261 21.9281 6.17724 21.9281 6.68761C25.1425 5.41174 28.5483 4.77024 31.961 4.76674C35.3951 4.75961 38.8291 5.40111 42.0684 6.68761V6.30836C42.0684 5.93973 42.2845 5.61736 42.5965 5.46486C45.6798 3.68586 48.7665 1.90686 51.8533 0.12411C52.1545 -0.0495148 52.516 -0.0352648 52.796 0.131235L55.376 1.62336C55.8226 1.87861 55.9785 2.44911 55.7198 2.89561C55.4646 3.34574 54.8941 3.49811 54.444 3.24299L52.3176 2.01324C49.8368 3.44474 47.356 4.87648 44.8788 6.30836ZM53.253 12.2231V20.8172C55.7339 19.3855 58.211 17.9537 60.6883 16.522V7.92799L53.253 12.2231ZM51.3784 52.8581L43.9431 48.5629V57.157C46.4239 58.5887 48.9011 60.0205 51.3784 61.4522V52.8581ZM44.8751 46.9467L52.3175 51.242L59.7598 46.9467C57.2755 45.5115 54.7983 44.0797 52.3175 42.648C49.8368 44.0797 47.356 45.5115 44.8751 46.9467ZM10.7434 52.8581L3.30825 48.5629V57.157C5.789 58.5887 8.26625 60.0205 10.7434 61.4522V52.8581ZM12.6181 52.8581V61.4522C15.099 60.0205 17.5761 58.5887 20.0534 57.157V48.5629L12.6181 52.8581ZM10.7434 12.2231L3.30825 7.93149V16.522C5.789 17.9537 8.26625 19.3856 10.7434 20.8172V12.2231ZM4.24388 6.30836L11.6826 10.6036L19.1214 6.30836C16.6406 4.87648 14.1634 3.44474 11.6826 2.01311C9.20175 3.44474 6.721 4.87648 4.24388 6.30836ZM12.6181 12.2231V20.8172C15.099 19.3855 17.5761 17.9537 20.0534 16.522V7.93149L12.6181 12.2231ZM60.6883 48.5629L53.253 52.8581V61.4522C55.7339 60.0205 58.211 58.5887 60.6883 57.157V48.5629Z" fill="#7F8284"/>
<path d="M32.6172 35.72C30.774 35.72 29.2734 34.2194 29.2734 32.3762C29.2734 30.5325 30.774 29.0325 32.6172 29.0325C34.4609 29.0325 35.9609 30.5325 35.9609 32.3762C35.9609 34.2194 34.4609 35.72 32.6172 35.72ZM32.6172 31.1457C31.9391 31.1457 31.3866 31.6976 31.3866 32.3762C31.3866 33.0549 31.9391 33.6068 32.6172 33.6068C33.2958 33.6068 33.8477 33.0549 33.8477 32.3762C33.8477 31.6976 33.2958 31.1457 32.6172 31.1457Z" fill="#FF6B00"/>
<path d="M22.3437 35.6875C20.5 35.6875 19 34.1875 19 32.3438C19 30.5 20.5 29 22.3437 29C24.1875 29 25.6875 30.5 25.6875 32.3438C25.6875 34.1875 24.1875 35.6875 22.3437 35.6875ZM22.3437 31.1132C21.6657 31.1132 21.1132 31.6657 21.1132 32.3438C21.1132 33.0224 21.6657 33.5743 22.3437 33.5743C23.0224 33.5743 23.5743 33.0224 23.5743 32.3438C23.5743 31.6657 23.0224 31.1132 22.3437 31.1132Z" fill="#FF6B00"/>
<path d="M42.8908 35.7519C41.0476 35.7519 39.5476 34.2519 39.5476 32.4081C39.5476 30.5649 41.0476 29.0649 42.8908 29.0649C44.7345 29.0649 46.2345 30.5649 46.2345 32.4081C46.2345 34.2519 44.7345 35.7519 42.8908 35.7519ZM42.8908 31.1776C42.2127 31.1776 41.6608 31.7294 41.6608 32.4081C41.6608 33.0868 42.2127 33.6386 42.8908 33.6386C43.5694 33.6386 44.1213 33.0868 44.1213 32.4081C44.1213 31.7294 43.5694 31.1776 42.8908 31.1776Z" fill="#FF6B00"/>
</svg>
