<svg width="64" height="64" viewBox="0 0 64 64" fill="none" xmlns="http://www.w3.org/2000/svg">
<path d="M48.9458 8.63965C48.6416 8.22021 48.0557 8.12695 47.6367 8.43115C47.2173 8.73486 47.124 9.32129 47.4282 9.74023C49.7915 12.999 51.041 16.8564 51.041 20.8955C51.041 24.7715 49.8945 28.5767 47.7261 31.9004C44.5195 36.8149 42.3809 40.4282 41.8857 45.6689C41.8267 46.292 41.397 46.7896 40.8271 46.9502C40.7896 46.9565 40.752 46.9658 40.7158 46.9771C40.6235 46.9951 40.5278 47.0049 40.4302 47.0049H23.6108C23.5132 47.0049 23.4175 46.9951 23.3247 46.9771C23.2886 46.9658 23.2515 46.957 23.2134 46.9502C22.644 46.7896 22.2139 46.292 22.1553 45.6689C21.6602 40.4282 19.5215 36.8149 16.3149 31.9004C14.146 28.5767 13 24.7715 13 20.8955C13 10.4077 21.5327 1.875 32.0205 1.875C36.8608 1.875 41.4722 3.69434 45.0063 6.99756C45.3848 7.35107 45.9775 7.33105 46.3315 6.95264C46.6851 6.57471 46.665 5.98145 46.2866 5.62744C42.4043 1.99854 37.3379 0 32.0205 0C20.4985 0 11.125 9.37354 11.125 20.8955C11.125 25.1362 12.3765 29.2959 14.7446 32.9248C17.7983 37.6055 19.834 41.0332 20.2886 45.8452C20.4014 47.0371 21.1143 48.0273 22.1133 48.5278V57.3267C22.1133 58.4917 22.8477 59.4888 23.8779 59.8784C23.9697 62.167 25.8599 64 28.1704 64H35.8706C38.1812 64 40.0713 62.167 40.1631 59.8784C41.1934 59.4888 41.9277 58.4922 41.9277 57.3267V48.5278C42.9268 48.0273 43.6401 47.0376 43.7524 45.8452C44.207 41.0332 46.2427 37.6055 49.2964 32.9253C51.6646 29.2959 52.916 25.1362 52.916 20.8955C52.916 16.4585 51.5435 12.2202 48.9458 8.63965ZM29.8623 52.522H40.0527V54.2324H23.9883V52.522H26.1128C26.6309 52.522 27.0503 52.1021 27.0503 51.5845C27.0503 51.0664 26.6309 50.647 26.1128 50.647H23.9883V48.8799H40.0527V50.647H29.8628C29.3447 50.647 28.9253 51.0664 28.9253 51.5845C28.9253 52.1021 29.3447 52.522 29.8623 52.522ZM39.2461 58.1777C39.2402 58.1772 39.2349 58.1772 39.229 58.1772C39.2251 58.1772 39.2212 58.1772 39.2173 58.1772C39.2041 58.1772 39.1909 58.1777 39.1777 58.1787H24.8633C24.8501 58.1782 24.8369 58.1777 24.8237 58.1772C24.814 58.1772 24.8037 58.1772 24.7939 58.1772C24.3457 58.1533 23.9878 57.7808 23.9878 57.3267V56.1074H40.0527V57.3267C40.0527 57.7812 39.6948 58.1538 39.2461 58.1777ZM35.8706 62.125H28.1704C26.9541 62.125 25.9443 61.2236 25.7744 60.0537H38.2666C38.0967 61.2236 37.0869 62.125 35.8706 62.125Z" fill="#7F8284"/>
<path d="M42.313 26.2891C42.3457 26.1738 42.4561 26.0933 42.5811 26.0933H43.3403C44.5298 26.0933 45.4976 25.126 45.4976 23.9365V22.5469C45.4976 21.3579 44.5298 20.3901 43.3403 20.3901H42.5283C42.4058 20.3901 42.2959 20.3115 42.2617 20.1992C42.0488 19.4966 41.7622 18.812 41.4092 18.1655C41.3511 18.0591 41.3716 17.9238 41.459 17.8359L42.0415 17.2539C42.4487 16.8462 42.6733 16.3047 42.6733 15.7285C42.6733 15.1523 42.4487 14.6108 42.0415 14.2036L41.0586 13.2207C40.6514 12.8135 40.1099 12.5894 39.5337 12.5894C38.9575 12.5894 38.416 12.8135 38.0083 13.2207L37.4263 13.8032C37.3389 13.8906 37.2031 13.9116 37.0967 13.853C36.4507 13.5005 35.7666 13.2134 35.063 13.0005C34.9507 12.9663 34.8721 12.8564 34.8721 12.7339V11.9219C34.8721 10.7324 33.9048 9.76465 32.7153 9.76465H31.3257C30.1362 9.76465 29.1689 10.7324 29.1689 11.9219V12.6812C29.1689 12.8062 29.0879 12.9165 28.9731 12.9492C28.248 13.1553 27.542 13.4395 26.8755 13.7935C26.7715 13.8486 26.6382 13.8267 26.5518 13.7402L26.0327 13.2207C25.625 12.8135 25.0835 12.5889 24.5073 12.5889C23.9312 12.5889 23.3896 12.8135 22.9824 13.2207L21.9995 14.2036C21.5923 14.6108 21.3677 15.1523 21.3677 15.7285C21.3677 16.3047 21.5923 16.8462 21.9995 17.2539L22.4658 17.7197C22.5547 17.8086 22.5752 17.9443 22.5156 18.0503C22.1333 18.7305 21.8247 19.4531 21.5991 20.1973C21.5649 20.311 21.4521 20.3901 21.3257 20.3901H20.7007C19.5112 20.3901 18.5435 21.3579 18.5435 22.5469V23.9365C18.5435 25.126 19.5112 26.0933 20.7007 26.0933H21.2769C21.4033 26.0933 21.5142 26.1729 21.5464 26.2871C21.7651 27.0562 22.0703 27.8018 22.4546 28.5039C22.5107 28.6069 22.4888 28.7407 22.4009 28.8286L21.9995 29.23C21.5923 29.6372 21.3677 30.1787 21.3677 30.7549C21.3677 31.3311 21.5923 31.8726 21.9995 32.2803L22.9819 33.2627C23.3896 33.6699 23.9312 33.8945 24.5073 33.8945C25.0835 33.8945 25.625 33.6699 26.0322 33.2627L26.4341 32.8613C26.5215 32.7734 26.6553 32.7515 26.7583 32.8081C27.4604 33.1919 28.2065 33.4976 28.9756 33.7158C29.0894 33.748 29.1689 33.8589 29.1689 33.9854V34.562C29.1689 35.7515 30.1362 36.7188 31.3257 36.7188H32.7153C33.9048 36.7188 34.8721 35.751 34.8721 34.562V33.9365C34.8721 33.8101 34.9512 33.6978 35.0649 33.6631C35.8096 33.4375 36.5317 33.1289 37.2119 32.7466C37.3179 32.6875 37.4536 32.708 37.5425 32.7964L38.0083 33.2627C38.416 33.6699 38.9575 33.8945 39.5337 33.8945C40.1099 33.8945 40.6514 33.6699 41.0586 33.2627L42.0415 32.2803C42.4487 31.8726 42.6733 31.3311 42.6733 30.7549C42.6733 30.1787 42.4487 29.6372 42.0415 29.23L41.5225 28.7104C41.4355 28.624 41.4136 28.4907 41.4688 28.3867C41.8232 27.7202 42.1069 27.0142 42.313 26.2891ZM40.5093 25.7764C40.3394 26.3745 40.105 26.957 39.813 27.5078C39.3677 28.3457 39.522 29.3618 40.1963 30.0361L40.7153 30.5557C40.8257 30.6655 40.8257 30.8442 40.7158 30.9541L39.7329 31.9365C39.623 32.0464 39.4443 32.0464 39.3345 31.9365L38.8682 31.4707C38.1875 30.7896 37.1284 30.6421 36.293 31.1118C35.7314 31.4277 35.1353 31.6821 34.5205 31.8687C33.6235 32.1406 32.9971 32.9907 32.9971 33.9365V34.5615C32.9971 34.7168 32.8706 34.8433 32.7153 34.8433H31.3257C31.1704 34.8433 31.0439 34.7168 31.0439 34.5615V33.9849C31.0439 33.0244 30.4038 32.1719 29.4878 31.9116C28.853 31.7314 28.2373 31.4795 27.6577 31.1626C27.3394 30.9883 26.9883 30.9038 26.6392 30.9038C26.0791 30.9038 25.522 31.1211 25.1084 31.5352L24.7065 31.9365C24.6382 32.0049 24.5605 32.019 24.5073 32.019C24.4541 32.019 24.3765 32.0049 24.3081 31.9365L23.3252 30.9536C23.2153 30.8438 23.2153 30.665 23.3252 30.5552L23.7266 30.1538C24.3994 29.4814 24.5527 28.4326 24.0996 27.604C23.7827 27.0244 23.5303 26.4087 23.3501 25.7739C23.0898 24.8579 22.2373 24.2178 21.2769 24.2178H20.7002C20.5449 24.2178 20.4185 24.0913 20.4185 23.936V22.5464C20.4185 22.3911 20.5449 22.2646 20.7002 22.2646H21.3257C22.271 22.2646 23.1216 21.6382 23.3936 20.7412C23.5796 20.127 23.834 19.5303 24.1499 18.9688C24.6196 18.1333 24.4722 17.0742 23.7915 16.3936L23.3252 15.9272C23.2153 15.8174 23.2153 15.6387 23.3252 15.5288L24.3081 14.5459C24.418 14.4365 24.5967 14.436 24.7065 14.5459L25.2256 15.0654C25.9004 15.7397 26.916 15.894 27.7544 15.4487C28.3047 15.1567 28.8872 14.9224 29.4854 14.7524C30.4028 14.4917 31.0435 13.6396 31.0435 12.6802V11.9209C31.0435 11.7656 31.1699 11.6392 31.3257 11.6392H32.7153C32.8706 11.6392 32.9971 11.7656 32.9971 11.9209V12.7329C32.9971 13.6899 33.6089 14.5186 34.5195 14.7944C35.1001 14.9702 35.6646 15.207 36.1978 15.498C37.0298 15.9526 38.0801 15.8003 38.752 15.1284L39.3345 14.5459C39.4443 14.436 39.623 14.436 39.7329 14.5459L40.7153 15.5288C40.8252 15.6387 40.8252 15.8174 40.7153 15.9272L40.1333 16.5093C39.4614 17.1816 39.3091 18.2319 39.7632 19.0635C40.0547 19.5972 40.2915 20.1621 40.4673 20.7422C40.7432 21.6528 41.5713 22.2642 42.5283 22.2642H43.3403C43.4956 22.2642 43.6221 22.3911 43.6221 22.5464V23.936C43.6221 24.0913 43.4956 24.2178 43.3403 24.2178H42.5811C41.6221 24.2183 40.77 24.8589 40.5093 25.7764Z" fill="#FF6B00"/>
<path d="M32.0205 16.4038C28.25 16.4038 25.1826 19.4712 25.1826 23.2417C25.1826 27.0122 28.25 30.0801 32.0205 30.0801C35.791 30.0801 38.8584 27.0122 38.8584 23.2417C38.8584 19.4712 35.791 16.4038 32.0205 16.4038ZM32.0205 28.2051C29.2837 28.2051 27.0576 25.9785 27.0576 23.2417C27.0576 20.5049 29.2842 18.2788 32.0205 18.2788C34.7568 18.2788 36.9834 20.5049 36.9834 23.2417C36.9834 25.9785 34.7573 28.2051 32.0205 28.2051Z" fill="#FF6B00"/>
</svg>
