<svg width="64" height="64" viewBox="0 0 64 64" fill="none" xmlns="http://www.w3.org/2000/svg">
<path d="M41.8692 17.2256H11.2206C10.7006 17.2256 10.2791 17.6471 10.2791 18.1671C10.2791 18.6871 10.7006 19.1086 11.2206 19.1086H41.8694C42.3894 19.1086 42.8109 18.6871 42.8109 18.1671C42.8109 17.6471 42.3892 17.2256 41.8692 17.2256Z" fill="#7F8284"/>
<path d="M11.2206 12.5776H26.5449C27.0649 12.5776 27.4864 12.1561 27.4864 11.6361C27.4864 11.1161 27.0649 10.6946 26.5449 10.6946H11.2206C10.7006 10.6946 10.2791 11.1161 10.2791 11.6361C10.2791 12.1562 10.7006 12.5776 11.2206 12.5776Z" fill="#7F8284"/>
<path d="M41.8692 23.0121H11.2206C10.7006 23.0121 10.2791 23.4336 10.2791 23.9536C10.2791 24.4736 10.7006 24.8951 11.2206 24.8951H41.8694C42.3894 24.8951 42.8109 24.4736 42.8109 23.9536C42.8107 23.4336 42.3892 23.0121 41.8692 23.0121Z" fill="#7F8284"/>
<path d="M18.2023 57.4585H8.3939C6.78403 57.4585 5.47415 56.1488 5.47415 54.5389V4.80263C5.47415 3.19275 6.78403 1.88287 8.3939 1.88287H36.6509C36.7422 1.88287 36.832 1.89125 36.9209 1.90325V7.775C36.9209 10.4233 39.0754 12.5776 41.7235 12.5776H47.5951C47.6073 12.6666 47.6155 12.7565 47.6155 12.8477V28.8804C47.6155 29.4004 48.037 29.8219 48.557 29.8219C49.077 29.8219 49.4985 29.4004 49.4985 28.8804V12.8479C49.4985 11.8151 49.0963 10.8441 48.366 10.1138L39.3848 1.1325C38.6545 0.40225 37.6837 0 36.6509 0H8.3939C5.74565 0 3.59128 2.1545 3.59128 4.80263V54.5389C3.59128 57.187 5.74578 59.3414 8.3939 59.3414H18.2023C18.7223 59.3414 19.1438 58.9199 19.1438 58.3999C19.1438 57.8799 18.7223 57.4585 18.2023 57.4585ZM46.2842 10.6947H41.7237C40.1138 10.6947 38.8039 9.38488 38.8039 7.775V3.2145L46.2842 10.6947Z" fill="#7F8284"/>
<path d="M60.1198 46.0912L52.1425 32.6262C51.5611 31.6444 50.2959 31.3199 49.3136 31.9018L47.3733 33.0514C45.8671 33.9437 45.2305 35.7493 45.7476 37.3494C45.0939 37.5863 44.3771 37.5825 43.7171 37.3274C42.1851 36.8454 41.0204 35.8758 39.0968 36.3623C35.8305 37.1939 35.9298 37.1523 35.6343 37.2535C33.7218 36.1647 32.5721 35.8407 30.5419 36.626L28.7321 37.3257C27.8943 37.6494 26.971 37.5727 26.1968 37.1139L25.7029 36.8228C25.9439 35.3788 25.3035 33.8549 23.9475 33.0517C23.9475 33.0517 23.9475 33.0517 23.9474 33.0515L22.0071 31.902C21.0276 31.3219 19.7586 31.6467 19.1784 32.6262L11.2009 46.0913C10.6195 47.0728 10.943 48.3384 11.925 48.92L13.8653 50.0695C14.4524 50.4174 15.0976 50.5828 15.7351 50.5828C16.446 50.5828 17.1469 50.3768 17.7461 49.9888L18.1505 50.2274L17.2968 51.4165C16.2794 52.8338 16.6026 54.8045 18.0201 55.822C18.6756 56.2925 19.4991 56.5074 20.3508 56.3737C20.4859 57.1635 20.9186 57.9028 21.6194 58.406C22.2775 58.8785 23.0973 59.0937 23.9504 58.9593C24.0859 59.7485 24.5184 60.4872 25.2188 60.99C26.16 61.6657 27.3303 61.7438 28.3054 61.3273C28.5188 61.8815 28.8896 62.382 29.407 62.7535C30.758 63.7232 32.619 63.4703 33.6688 62.214L35.9375 63.558C37.4379 64.4472 39.3738 63.953 40.2634 62.4509C40.4909 62.0669 40.632 61.6484 40.6836 61.2183L40.6888 61.2214C42.1869 62.1087 44.1271 61.6119 45.0146 60.1142C45.2716 59.6803 45.4125 59.2097 45.4468 58.738C46.7673 59.07 48.2064 58.5154 48.9351 57.2854C49.1743 56.8819 49.3129 56.446 49.3585 56.0074C50.7738 56.5628 52.4279 56.026 53.2271 54.677C53.657 53.9514 53.7786 53.1019 53.5695 52.2848C53.4499 51.8173 53.2299 51.3929 52.9279 51.0345L54.1784 50.3039C55.2363 50.7382 56.4435 50.6687 57.4553 50.0694L59.3953 48.9199C60.3773 48.3387 60.7016 47.0733 60.1198 46.0912ZM14.825 48.4497L12.8848 47.3C12.7985 47.2489 12.7699 47.1372 12.8209 47.0509L20.7984 33.5855C20.8498 33.4989 20.9619 33.4708 21.0476 33.5218L22.9878 34.6712C23.8499 35.182 24.1196 36.2878 23.6181 37.1342L17.288 47.8192C16.7828 48.6722 15.678 48.9548 14.825 48.4497ZM19.1181 54.2924C18.5464 53.8819 18.4156 53.0867 18.8264 52.5147L20.0813 50.7667C20.481 50.2098 21.2776 50.0574 21.859 50.4748C22.4296 50.8844 22.5605 51.6818 22.151 52.2524L20.896 54.0004C20.4864 54.5713 19.6885 54.7018 19.1181 54.2924ZM22.7175 56.8765C22.1469 56.4668 22.016 55.6692 22.4256 55.0987L23.6805 53.3508C23.6805 53.3508 23.6805 53.3508 23.6805 53.3507C23.6805 53.3507 23.6805 53.3505 23.6806 53.3505L25.0655 51.4215C25.264 51.1452 25.5581 50.9624 25.8939 50.9074C25.9636 50.8959 26.0335 50.8903 26.1029 50.8903C26.3671 50.8903 26.6243 50.9725 26.8433 51.1297C27.1195 51.3282 27.3023 51.6222 27.3573 51.9579C27.4124 52.2938 27.3335 52.6309 27.135 52.9073L24.4951 56.5845C24.0849 57.1564 23.2895 57.2873 22.7175 56.8765ZM26.3169 59.4604C25.7465 59.0509 25.6155 58.2539 26.0244 57.6834C26.0245 57.6832 26.0248 57.6829 26.0249 57.6827L28.6648 54.0055C29.0741 53.435 29.8721 53.304 30.4425 53.7135C31.0131 54.1232 31.144 54.9207 30.7344 55.4913L29.5615 57.1252C29.5615 57.1252 29.5615 57.1252 29.5614 57.1253L28.0945 59.1685C27.6849 59.7392 26.8876 59.8703 26.3169 59.4604ZM30.5051 61.2239C29.9349 60.8144 29.8038 60.0178 30.2124 59.4472L31.091 58.2234C31.5005 57.6527 32.2984 57.5222 32.8688 57.9315C33.4393 58.341 33.5703 59.1387 33.1606 59.7093L32.2828 60.9319C31.8733 61.5027 31.0755 61.6337 30.5051 61.2239ZM51.6075 53.7174C51.2493 54.322 50.4663 54.5225 49.8615 54.1644C48.8375 53.5578 42.232 49.6444 41.5278 49.2272C41.0803 48.9622 40.5029 49.1098 40.2379 49.5572C39.9729 50.0045 40.1205 50.582 40.5679 50.847L46.8683 54.5797L46.8684 54.5798C47.4733 54.938 47.675 55.7187 47.3154 56.3259C46.957 56.9308 46.1736 57.1309 45.5691 56.773C43.2389 55.3925 41.3468 54.2715 39.2654 53.0384C38.8178 52.7734 38.2405 52.921 37.9755 53.3684C37.7105 53.8158 37.8581 54.3933 38.3055 54.6583L42.9478 57.4085L42.9488 57.4092C43.554 57.7685 43.7538 58.5488 43.3949 59.1548C43.0365 59.7597 42.2534 59.96 41.6485 59.6018L39.1571 58.1259C39.1569 58.1258 39.1565 58.1257 39.1563 58.1254C39.156 58.1253 39.1558 58.1252 39.1555 58.125L37.3374 57.0478C36.8899 56.7827 36.3125 56.9303 36.0475 57.3778C35.7825 57.8252 35.9301 58.4027 36.3775 58.6677L38.196 59.745C38.1963 59.7452 38.1965 59.7454 38.1968 59.7455C38.8016 60.1038 39.0034 60.8843 38.6438 61.4915C38.2854 62.0964 37.5023 62.2968 36.8974 61.9385L34.776 60.6819C35.6854 59.2787 35.3395 57.3877 33.9669 56.4024C33.5638 56.1132 33.1149 55.933 32.6558 55.8557C33.1428 54.5535 32.7229 53.0333 31.5405 52.1845C30.8405 51.6818 30.0024 51.5082 29.2114 51.6322C29.0706 50.809 28.6205 50.088 27.9414 49.6007C26.6641 48.684 24.9284 48.8602 23.8563 49.9448C23.6384 49.5622 23.3376 49.2189 22.9571 48.9458C21.8958 48.184 20.5178 48.1769 19.467 48.8185L19.0356 48.5639L24.9569 38.569L25.2388 38.7353C26.4838 39.4728 28.003 39.6265 29.411 39.082L31.2208 38.3824C32.2564 37.9822 32.8275 37.956 33.8519 38.4394C33.1816 39.1924 32.7838 40.181 32.7838 41.2465V45.4209C32.7838 46.5297 33.6851 47.4323 34.793 47.433H34.7958C35.907 47.433 36.952 47.0004 37.7381 46.2148C38.1964 45.7568 38.5346 45.2108 38.7374 44.6148C39.953 45.3347 49.9964 51.282 51.1608 51.9719C51.4536 52.1454 51.6614 52.4225 51.7458 52.7523C51.8301 53.0817 51.781 53.4245 51.6075 53.7174ZM58.436 47.3L56.4956 48.4497C55.6426 48.9547 54.5379 48.6718 54.0329 47.8193L51.0659 42.8112C50.8008 42.3638 50.223 42.2162 49.776 42.4809C49.3286 42.7459 49.1809 43.3234 49.4458 43.7708L52.4128 48.779C52.4686 48.8733 52.5293 48.9629 52.592 49.0503L51.7671 49.5322C51.6004 49.6309 51.44 49.7397 51.2866 49.8578L38.4963 42.2834C37.8696 41.9125 37.0751 42.3647 37.0751 43.0934C37.0653 43.1497 37.1724 44.1174 36.407 44.8825C35.9765 45.3127 35.4043 45.5497 34.7956 45.5497C34.7951 45.5497 34.7946 45.5497 34.7941 45.5497C34.7238 45.5497 34.6665 45.4917 34.6665 45.4204V41.246C34.6665 40.1555 35.4168 39.2355 36.4314 38.9787L39.5584 38.1873C40.693 37.9005 41.3344 38.5064 43.0333 39.0814C44.2126 39.5377 45.495 39.5095 46.6333 39.0234L47.2015 39.9827C47.4666 40.4303 48.0441 40.5778 48.4914 40.3129C48.9388 40.0479 49.0865 39.4704 48.8216 39.023L47.7024 37.1339C47.196 36.2792 47.4781 35.1777 48.3328 34.671L50.273 33.5217C50.3578 33.4713 50.4699 33.497 50.5224 33.5855L58.4996 47.0507C58.5511 47.1375 58.5228 47.2487 58.436 47.3Z" fill="#FF6B00"/>
</svg>
