<svg width="64" height="64" viewBox="0 0 64 64" fill="none" xmlns="http://www.w3.org/2000/svg">
<g clip-path="url(#clip0)">
<path d="M54.6275 9.37263C51.7564 6.5015 48.4376 4.2355 44.7635 2.63738C44.292 2.43213 43.7438 2.64825 43.5389 3.1195C43.334 3.59087 43.5498 4.13925 44.0211 4.34412C47.4801 5.84875 50.6059 7.98338 53.3112 10.6888C59.0036 16.3813 62.1386 23.9497 62.1386 32C62.1386 40.0503 59.0036 47.6187 53.3112 53.3112C47.6187 59.0037 40.0504 62.1386 32 62.1386C23.9496 62.1386 16.3813 59.0037 10.6888 53.3112C4.99638 47.6187 1.86137 40.0503 1.86137 32C1.86137 23.9497 4.99638 16.3813 10.6888 10.6888C16.3813 4.99625 23.9497 1.86137 32 1.86137C34.6574 1.86137 37.2902 2.2045 39.8252 2.88112C40.322 3.014 40.8319 2.71862 40.9645 2.222C41.0971 1.72537 40.802 1.21537 40.3054 1.08288C37.6138 0.36425 34.8195 0 32 0C23.4525 0 15.4166 3.32863 9.3725 9.37263C3.3285 15.4166 0 23.4526 0 32C0 40.5474 3.3285 48.5834 9.3725 54.6274C15.4166 60.6714 23.4525 64 32 64C40.5475 64 48.5834 60.6714 54.6275 54.6274C60.6715 48.5834 64 40.5474 64 32C64 23.4526 60.6715 15.4166 54.6275 9.37263Z" fill="#7F8284"/>
<path d="M62.9097 23.7179C61.8588 19.7959 60.1176 16.1741 57.7348 12.953C57.4291 12.5395 56.8463 12.4526 56.4332 12.7582C56.0201 13.064 55.9328 13.6468 56.2385 14.0599C58.4818 17.0925 60.1215 20.504 61.1117 24.1996C63.1952 31.9756 62.1259 40.0976 58.1008 47.0694C54.0757 54.0411 47.5764 59.0281 39.8005 61.1118C32.0244 63.1954 23.9025 62.126 16.9307 58.1009C9.95886 54.0757 4.97189 47.5766 2.88829 39.8005C0.804799 32.0245 1.87406 23.9025 5.89918 16.9307C9.92431 9.95901 16.4235 4.972 24.1995 2.88834C31.9756 0.804736 40.0976 1.8741 47.0693 5.89923C49.3707 7.22792 51.4792 8.84151 53.3363 10.695C53.7001 11.0584 54.2893 11.0576 54.6525 10.6938C55.0157 10.33 55.0151 9.74078 54.6512 9.37772C52.6795 7.40956 50.4418 5.69698 48 4.28723C40.5976 0.0134811 31.9741 -1.12178 23.7177 1.09041C15.4614 3.30267 8.56087 8.5978 4.28719 16C0.0134983 23.4023 -1.12194 32.0259 1.09032 40.2822C3.30269 48.5385 8.59765 55.4391 16 59.7129C23.4024 63.9866 32.0259 65.1219 40.2823 62.9097C48.5386 60.6974 55.4391 55.4023 59.7128 48C63.9865 40.5978 65.1219 31.9742 62.9097 23.7179Z" fill="#7F8284"/>
<path d="M45.4022 31.3129C45.4022 31.0342 45.3261 30.766 45.1914 30.5306L33.3792 9.20423C33.1015 8.70298 32.573 8.3916 32 8.3916C31.4269 8.3916 30.8985 8.70298 30.6207 9.20435L18.8075 30.5324C18.4679 31.0859 18.5465 32.0831 19.2697 32.6041L31.0951 40.89C31.3432 41.064 31.6306 41.1571 31.9211 41.1716C31.9472 41.1739 31.9734 41.1756 32 41.1756C32.3255 41.1756 32.6384 41.0769 32.9047 40.8901L44.73 32.6042C45.1509 32.3094 45.4022 31.8266 45.4022 31.3129ZM41.5459 27.7904L32.928 21.7519L32.9266 12.2286L41.5459 27.7904ZM28.2726 24.8497C27.9775 24.4287 27.3974 24.3265 26.9764 24.6216L22.454 27.7904L31.0652 12.2431L31.069 38.5989L20.6704 31.3127L28.0444 26.1459C28.4655 25.851 28.5676 25.2706 28.2726 24.8497ZM32.9305 38.5992L32.9285 24.0249L43.3295 31.3127L32.9305 38.5992Z" fill="#FF6B00"/>
<path d="M42.3056 36.7236L32 43.9446L21.6945 36.7236C21.2771 36.4312 20.7098 36.4774 20.3455 36.8334C19.9811 37.1894 19.9217 37.7556 20.2044 38.1796L30.6882 53.9039C30.9612 54.3134 31.4061 54.5661 31.8927 54.5992C32.3882 54.6297 32.904 54.4581 33.312 53.9038L43.7957 38.1796C44.0785 37.7556 44.019 37.1894 43.6544 36.8333C43.2896 36.4772 42.7222 36.4312 42.3056 36.7236ZM24.1186 40.6949L31.0692 45.5652V51.1201L24.1186 40.6949ZM32.9306 51.1202V45.5653L39.8812 40.6949L32.9306 51.1202Z" fill="#FF6B00"/>
</g>
<defs>
<clipPath id="clip0">
<rect width="64" height="64" fill="white"/>
</clipPath>
</defs>
</svg>
