<svg width="440" height="485" viewBox="0 0 440 485" fill="none" xmlns="http://www.w3.org/2000/svg">
<path d="M-88.5715 233.846H-14.5713L-28.6663 152.981H-88.5715C-120.286 152.981 -144.952 128.37 -144.952 96.7273C-144.952 65.0846 -120.286 40.4735 -88.5715 40.4735H-46.2854L-60.381 -33.3595C-67.4286 -61.4864 -46.2856 -89.6133 -14.5713 -96.645C13.6192 -103.677 41.8098 -82.5816 48.8575 -50.9388L66.4765 40.4735H175.714L161.619 -33.3595C154.572 -61.4864 175.715 -89.6133 207.429 -96.645C235.62 -103.677 263.81 -82.5816 270.858 -50.9388L288.477 40.4735H383.62C415.334 40.4735 440 65.0846 440 96.7273C440 128.37 408.286 152.981 376.572 152.981H302.572L316.667 233.846H376.572C408.286 233.846 432.953 258.457 432.953 290.1C432.953 321.742 408.286 346.353 376.572 346.353H334.286L348.382 420.187C355.429 448.313 334.286 476.44 302.572 483.472C281.429 490.504 246.191 472.924 239.143 437.766L221.524 346.353H112.286L126.381 420.187C133.429 448.313 112.286 476.44 80.5716 483.472C59.4287 490.504 24.1905 472.924 17.1429 437.766L-0.476227 346.353H-95.6191C-127.333 346.353 -152 321.742 -152 290.1C-141.428 258.457 -116.762 233.846 -88.5715 233.846ZM98.1906 233.846H207.429L193.333 152.981H84.0956L98.1906 233.846Z" fill="url(#paint0_linear)" fill-opacity="0.5"/>
<path d="M-12.601 233.503L-12.1925 235.846H-14.5713H-88.5715C-115.456 235.846 -139.511 259.352 -149.999 290.424C-149.831 320.801 -126.125 344.353 -95.6191 344.353H-0.476227H1.17511L1.48764 345.975L19.1039 437.373C19.1044 437.376 19.105 437.379 19.1056 437.382C22.5132 454.368 32.7252 467.107 44.6513 474.757C56.6412 482.447 70.1058 484.845 79.9404 481.574L80.0381 481.542L80.1386 481.519C111.058 474.664 131.145 447.427 124.441 420.673L124.427 420.617L124.417 420.562L110.322 346.728L109.868 344.353H112.286H221.524H223.175L223.488 345.975L241.104 437.373C241.105 437.376 241.105 437.379 241.106 437.382C244.513 454.368 254.725 467.107 266.652 474.757C278.642 482.447 292.106 484.845 301.941 481.574L302.038 481.542L302.139 481.519C333.058 474.664 353.145 447.427 346.441 420.673L346.428 420.617L346.417 420.562L332.321 346.729L331.868 344.353H334.286H376.572C407.186 344.353 430.953 320.634 430.953 290.1C430.953 259.566 407.186 235.846 376.572 235.846H316.667H314.985L314.697 234.189L300.602 153.325L300.193 150.981H302.572H376.572C391.932 150.981 407.335 145.012 418.884 135.196C430.426 125.387 438 111.847 438 96.7273C438 66.1934 414.234 42.4735 383.62 42.4735H288.477H286.825L286.513 40.8521L268.899 -50.5319C262.02 -81.3566 234.732 -101.394 207.913 -94.7045L207.888 -94.6981L207.862 -94.6925C176.943 -87.837 156.856 -60.6002 163.559 -33.8456L163.573 -33.7904L163.584 -33.7346L177.679 40.0985L178.132 42.4735H175.714H66.4765H64.8252L64.5126 40.8521L46.8991 -50.5319C40.0199 -81.3566 12.7318 -101.394 -14.0872 -94.7045L-14.1127 -94.6981L-14.1384 -94.6925C-45.0578 -87.837 -65.1447 -60.6002 -58.4409 -33.8456L-58.4271 -33.7905L-58.4164 -33.7346L-44.3209 40.0985L-43.8674 42.4735H-46.2854H-88.5715C-119.185 42.4735 -142.952 66.1934 -142.952 96.7273C-142.952 127.261 -119.185 150.981 -88.5715 150.981H-28.6663H-26.9848L-26.696 152.638L-12.601 233.503ZM98.1906 235.846H96.5091L96.2203 234.189L82.1253 153.325L81.7168 150.981H84.0956H193.333H195.015L195.304 152.638L209.399 233.502L209.808 235.846H207.429H98.1906Z" stroke="#FF8A00" stroke-opacity="0.4" stroke-width="4"/>
<defs>
<linearGradient id="paint0_linear" x1="144" y1="-98" x2="144" y2="485" gradientUnits="userSpaceOnUse">
<stop stop-color="#FF9900"/>
<stop offset="1" stop-color="#FF6B00"/>
</linearGradient>
</defs>
</svg>
