<?xml version="1.0" encoding="utf-8"?>
<!-- Generator: Adobe Illustrator 23.0.3, SVG Export Plug-In . SVG Version: 6.00 Build 0)  -->
<svg version="1.1" id="Layer_1" xmlns="http://www.w3.org/2000/svg" xmlns:xlink="http://www.w3.org/1999/xlink" x="0px" y="0px"
	 viewBox="0 0 500 444" style="enable-background:new 0 0 500 444;" xml:space="preserve">
<style type="text/css">
	.st0{fill:#FFFFFF;}
	.st1{fill:#FFDABF;}
	.st2{fill:#DCDCDC;}
	.st3{opacity:0.43;}
	.st4{display:none;}
	.st5{display:inline;}
	.st6{fill:#2852F1;}
	.st7{display:inline;fill:#5202B5;}
	.st8{fill:#FF2828;}
	.st9{fill:#FF6B00;}
	.st10{fill:#080B21;}
	.st11{opacity:0.37;enable-background:new    ;}
	.st12{fill:#723E24;}
	.st13{opacity:0.37;}
	.st14{fill:#013A5E;}
	.st15{fill:#FFADAD;}
	.st16{fill:#5B2F2F;}
	.st17{fill:#E5BB98;}
	.st18{fill:#9A9FB3;}
	.st19{opacity:0.2;fill:#212226;enable-background:new    ;}
	.st20{opacity:0.55;fill:#FF2828;enable-background:new    ;}
	.st21{opacity:0.31;fill:#FF2828;enable-background:new    ;}
	.st22{opacity:0.42;fill:#FF2828;}
	.st23{opacity:0.55;}
	.st24{opacity:0.42;}
	.st25{opacity:0.2;fill:none;stroke:#212226;stroke-width:0.5;stroke-miterlimit:10;enable-background:new    ;}
</style>
<g id="OBJECTS">
	<g>
		<g>
			<g>
				<path class="st0" d="M225.6,461c0.7,0,1.5,0,2.2,0c1.2,0,2.3-1,2.2-2.2c-0.1-1.2-1-2.2-2.2-2.2c-0.7,0-1.5,0-2.2,0
					c-1.2,0-2.3,1-2.2,2.2C223.3,460.1,224.3,461,225.6,461L225.6,461z"/>
			</g>
		</g>
		<g>
			<path class="st1" d="M438.8,359.1c-61.6,67.5-140.1,83.5-233.7,68C111.4,411.6,5,368.2,11.3,259.3
				c6.1-108.9,121.9-119.1,190-201.3c41.1-49.7,146.3-56.6,217.3,7.7C470.6,112.8,543.2,244.8,438.8,359.1z"/>
			<path class="st1" d="M440.4,323.1c-47.8,66-113.1,86.3-193.4,79c-80.2-7.3-172.9-38.9-174.6-138.5S168,146.3,220.3,66.4
				c31.6-48.3,120.2-62.3,184.3-8.9C451.6,96.5,521.5,211.4,440.4,323.1z"/>
			<ellipse class="st2" cx="265.7" cy="356" rx="131.1" ry="19.4"/>
			<g class="st3">
				<g class="st4">
					<g class="st5">
						<path class="st6" d="M444.3,89.4c0,0.8,0.6,1.4,1.4,1.4c0.8,0,1.4-0.6,1.4-1.4c0-0.8-0.6-1.4-1.4-1.4
							C445,88,444.3,88.6,444.3,89.4z"/>
						<path class="st6" d="M438.4,89.4c0,0.8,0.6,1.4,1.4,1.4c0.8,0,1.4-0.6,1.4-1.4c0-0.8-0.6-1.4-1.4-1.4
							C439.1,88,438.4,88.6,438.4,89.4z"/>
						<path class="st6" d="M432.5,89.4c0,0.8,0.6,1.4,1.4,1.4s1.4-0.6,1.4-1.4c0-0.8-0.6-1.4-1.4-1.4S432.5,88.6,432.5,89.4z"/>
						<path class="st6" d="M426.6,89.4c0,0.8,0.6,1.4,1.4,1.4c0.8,0,1.4-0.6,1.4-1.4c0-0.8-0.6-1.4-1.4-1.4
							C427.2,88,426.6,88.6,426.6,89.4z"/>
						<circle class="st6" cx="422.1" cy="89.4" r="1.4"/>
						<path class="st6" d="M414.8,89.4c0,0.8,0.6,1.4,1.4,1.4s1.4-0.6,1.4-1.4c0-0.8-0.6-1.4-1.4-1.4S414.8,88.6,414.8,89.4z"/>
						<path class="st6" d="M409,89.4c0,0.8,0.6,1.4,1.4,1.4s1.4-0.6,1.4-1.4c0-0.8-0.6-1.4-1.4-1.4S409,88.6,409,89.4z"/>
						<path class="st6" d="M403,89.4c0,0.8,0.6,1.4,1.4,1.4c0.8,0,1.4-0.6,1.4-1.4c0-0.8-0.6-1.4-1.4-1.4
							C403.6,88,403,88.6,403,89.4z"/>
					</g>
				</g>
				<g class="st4">
					<path class="st7" d="M245.6,285.9c0,0.8,0.6,1.4,1.4,1.4c0.8,0,1.4-0.6,1.4-1.4c0-0.8-0.6-1.4-1.4-1.4
						C246.2,284.6,245.6,285.2,245.6,285.9z"/>
					<path class="st7" d="M239.6,285.9c0,0.8,0.6,1.4,1.4,1.4c0.8,0,1.4-0.6,1.4-1.4c0-0.8-0.6-1.4-1.4-1.4
						C240.3,284.6,239.6,285.2,239.6,285.9z"/>
					<path class="st7" d="M233.8,285.9c0,0.8,0.6,1.4,1.4,1.4c0.8,0,1.4-0.6,1.4-1.4c0-0.8-0.6-1.4-1.4-1.4
						C234.4,284.6,233.8,285.2,233.8,285.9z"/>
					<path class="st7" d="M227.9,285.9c0,0.8,0.6,1.4,1.4,1.4c0.8,0,1.4-0.6,1.4-1.4c0-0.8-0.6-1.4-1.4-1.4
						C228.5,284.6,227.9,285.2,227.9,285.9z"/>
					<path class="st7" d="M222,285.9c0,0.8,0.6,1.4,1.4,1.4s1.4-0.6,1.4-1.4c0-0.8-0.6-1.4-1.4-1.4C222.6,284.6,222,285.2,222,285.9
						z"/>
					<path class="st7" d="M216.1,285.9c0,0.8,0.6,1.4,1.4,1.4c0.8,0,1.4-0.6,1.4-1.4c0-0.8-0.6-1.4-1.4-1.4
						C216.8,284.6,216.1,285.2,216.1,285.9z"/>
					<path class="st7" d="M210.2,285.9c0,0.8,0.6,1.4,1.4,1.4c0.8,0,1.4-0.6,1.4-1.4c0-0.8-0.6-1.4-1.4-1.4
						C210.8,284.6,210.2,285.2,210.2,285.9z"/>
					<path class="st7" d="M204.3,285.9c0,0.8,0.6,1.4,1.4,1.4s1.4-0.6,1.4-1.4c0-0.8-0.6-1.4-1.4-1.4
						C204.9,284.6,204.3,285.2,204.3,285.9z"/>
				</g>
				<g class="st4">
					<path class="st7" d="M179.1,186c0,0.8,0.6,1.4,1.4,1.4s1.4-0.6,1.4-1.4c0-0.8-0.6-1.4-1.4-1.4
						C179.7,184.6,179.1,185.2,179.1,186z"/>
					<path class="st7" d="M173.2,186c0,0.8,0.6,1.4,1.4,1.4c0.8,0,1.4-0.6,1.4-1.4c0-0.8-0.6-1.4-1.4-1.4
						C173.8,184.6,173.2,185.2,173.2,186z"/>
					<path class="st7" d="M167.3,186c0,0.8,0.6,1.4,1.4,1.4c0.8,0,1.4-0.6,1.4-1.4c0-0.8-0.6-1.4-1.4-1.4S167.3,185.2,167.3,186z"/>
					<path class="st7" d="M161.4,186c0,0.8,0.6,1.4,1.4,1.4s1.4-0.6,1.4-1.4c0-0.8-0.6-1.4-1.4-1.4
						C162.1,184.6,161.4,185.2,161.4,186z"/>
					<path class="st7" d="M155.5,186c0,0.8,0.6,1.4,1.4,1.4c0.8,0,1.4-0.6,1.4-1.4c0-0.8-0.6-1.4-1.4-1.4S155.5,185.2,155.5,186z"/>
					<path class="st7" d="M149.6,186c0,0.8,0.6,1.4,1.4,1.4s1.4-0.6,1.4-1.4c0-0.8-0.6-1.4-1.4-1.4
						C150.2,184.6,149.6,185.2,149.6,186z"/>
					<path class="st7" d="M143.7,186c0,0.8,0.6,1.4,1.4,1.4c0.8,0,1.4-0.6,1.4-1.4c0-0.8-0.6-1.4-1.4-1.4
						C144.3,184.6,143.7,185.2,143.7,186z"/>
					<path class="st7" d="M137.8,186c0,0.8,0.6,1.4,1.4,1.4s1.4-0.6,1.4-1.4c0-0.8-0.6-1.4-1.4-1.4
						C138.5,184.6,137.8,185.2,137.8,186z"/>
				</g>
				<g>
					<polygon class="st8" points="276.6,56.9 284.4,69.5 276.6,73.1 268.9,69.5 					"/>
					<polygon class="st8" points="276.6,84.4 268.9,71.8 276.6,76.9 284.4,71.8 					"/>
				</g>
				<g>
					<polygon class="st8" points="194.5,299.4 202.3,311.9 194.5,315.6 186.7,311.9 					"/>
					<polygon class="st8" points="194.5,326.8 186.7,314.2 194.5,319.3 202.3,314.2 					"/>
				</g>
				<path class="st9" d="M194.3,52.2c1.2,1.2,3.3,1.2,4.5,0c1-1,1.2-2.5,0.6-3.7l2.5-2.5h10.3c0.4,0.8,1.2,1.3,2.1,1.3
					c1.3,0,2.4-1.1,2.4-2.4c0-1.3-1.1-2.4-2.4-2.4c-1,0-1.8,0.5-2.1,1.3h-11.1L198,47c-1.2-0.5-2.7-0.4-3.7,0.6
					C193.1,48.9,193.1,51,194.3,52.2z M194.8,48.2c0.7-0.7,1.7-0.9,2.6-0.6c0.4,0.1,0.7,0.3,1,0.6c0.3,0.3,0.4,0.6,0.6,1
					c0.3,0.9,0.1,1.9-0.6,2.6c-1,1-2.5,1-3.5,0C194,50.8,193.9,49.2,194.8,48.2z"/>
				<path class="st9" d="M201.9,59.2c1.2,1.2,3.3,1.2,4.5,0c1-1,1.2-2.5,0.6-3.7l2.5-2.5h10.2c0.4,0.8,1.2,1.3,2.1,1.3
					c1.3,0,2.4-1.1,2.4-2.4c0-1.3-1.1-2.4-2.4-2.4c-1,0-1.8,0.5-2.1,1.3h-11.1l-3.1,3.1c-1.2-0.5-2.7-0.4-3.7,0.6
					C200.6,55.9,200.6,58,201.9,59.2z M202.4,55.2c0.7-0.7,1.7-0.9,2.6-0.6c0.4,0.1,0.7,0.3,1,0.6c0.3,0.3,0.4,0.6,0.6,1
					c0.3,0.9,0.1,1.9-0.6,2.6c-1,1-2.5,1-3.5,0C201.4,57.8,201.4,56.2,202.4,55.2z"/>
				<path class="st8" d="M426,245.6c1.2,1.2,3.3,1.2,4.5,0c1-1,1.2-2.5,0.6-3.7l2.5-2.5h10.2c0.4,0.8,1.2,1.3,2.1,1.3
					c1.3,0,2.4-1.1,2.4-2.4c0-1.3-1.1-2.4-2.4-2.4c-1,0-1.8,0.5-2.1,1.3h-11.1l-3.1,3.1c-1.2-0.5-2.7-0.4-3.7,0.6
					C424.7,242.3,424.7,244.3,426,245.6z M426.5,241.6c0.7-0.7,1.7-0.9,2.6-0.6c0.4,0.1,0.7,0.3,1,0.6c0.3,0.3,0.4,0.6,0.6,1
					c0.3,0.9,0.1,1.9-0.6,2.6c-1,1-2.5,1-3.5,0C425.6,244.1,425.6,242.5,426.5,241.6z"/>
				<path class="st9" d="M433.6,252.6c1.2,1.2,3.3,1.2,4.5,0c1-1,1.2-2.5,0.6-3.7l2.5-2.5h10.2c0.4,0.8,1.2,1.3,2.1,1.3
					c1.3,0,2.4-1.1,2.4-2.4c0-1.3-1.1-2.4-2.4-2.4c-1,0-1.8,0.5-2.1,1.3h-11.1l-3.1,3.1c-1.2-0.5-2.7-0.4-3.7,0.6
					C432.4,249.3,432.4,251.4,433.6,252.6z M434.2,248.6c0.7-0.7,1.7-0.9,2.6-0.6c0.4,0.1,0.7,0.3,1,0.6c0.3,0.3,0.4,0.6,0.6,1
					c0.3,0.9,0.1,1.9-0.6,2.6c-1,1-2.5,1-3.5,0C433.2,251.1,433.2,249.6,434.2,248.6z"/>
				<g>
					<polygon class="st9" points="305.6,15.9 309.1,9.8 312.6,15.9 310.7,15.9 310.7,21.6 307.4,21.6 307.4,15.9 					"/>
					<polygon class="st9" points="299.6,22.8 303.1,16.7 306.5,22.8 304.7,22.8 304.7,28.5 301.5,28.5 301.5,22.8 					"/>
				</g>
				<g>
					<polygon class="st8" points="159.8,220.9 155.5,228.6 151,220.9 153.3,220.9 153.3,213.7 157.5,213.7 157.5,220.9 					"/>
					<polygon class="st8" points="167.4,212 163,219.6 158.6,212 161,212 161,204.9 165.1,204.9 165.1,212 					"/>
				</g>
				<path class="st9" d="M84.8,155.5c0.4-2,2.2-3.4,4.2-3.1c1.7,0.2,2.9,1.4,3.3,3l1.4,0.2c1.4,0.2,2.9-0.4,3.9-1.3l1.1-1.1
					c-0.7-1.4-0.4-3.2,0.7-4.4c1.4-1.4,3.7-1.4,5.3-0.1c1.6,1.5,1.7,4,0.1,5.5c-1.2,1.2-2.9,1.4-4.4,0.7l-0.7,0.7
					c-1.2,1.2-1.6,2.8-1.2,4.3l0.3,1.1c1.6,0.2,2.9,1.3,3.3,3c0.4,2-0.8,3.9-2.8,4.5c-2.1,0.5-4.3-0.8-4.7-2.9
					c-0.4-1.6,0.4-3.2,1.8-4.1c-0.4-2-2-3.5-4-3.7h-0.2c-0.7,1.4-2.2,2.3-3.9,2.1C86,159.7,84.5,157.7,84.8,155.5z"/>
				<path class="st9" d="M399.8,312.9c0.4-2,2.2-3.4,4.2-3.1c1.7,0.2,2.9,1.4,3.3,3l1.4,0.2c1.4,0.2,2.9-0.4,3.9-1.3l1.1-1.1
					c-0.7-1.4-0.4-3.2,0.7-4.4c1.4-1.4,3.7-1.4,5.3-0.1c1.6,1.5,1.7,4,0.1,5.5c-1.2,1.2-2.9,1.4-4.4,0.7l-0.7,0.7
					c-1.2,1.2-1.6,2.8-1.2,4.3l0.3,1.1c1.6,0.2,2.9,1.3,3.3,3c0.4,2-0.8,3.9-2.8,4.5c-2.1,0.5-4.3-0.8-4.7-2.9
					c-0.4-1.6,0.4-3.2,1.8-4.1c-0.4-2-2-3.5-4-3.7h-0.2c-0.7,1.4-2.2,2.3-3.9,2.1C401,317.1,399.4,315.1,399.8,312.9z"/>
				<path class="st9" d="M355.8,62.4c0.4-2,2.2-3.4,4.2-3.1c1.7,0.2,2.9,1.4,3.3,3l1.4,0.2c1.4,0.2,2.9-0.4,3.9-1.3l1.1-1.1
					c-0.7-1.4-0.4-3.2,0.7-4.4c1.4-1.4,3.7-1.4,5.3-0.1c1.6,1.5,1.7,4,0.1,5.5c-1.2,1.2-2.9,1.4-4.4,0.7l-0.7,0.7
					c-1.2,1.2-1.6,2.8-1.2,4.3l0.3,1.1c1.6,0.2,2.9,1.3,3.3,3c0.4,2-0.8,3.9-2.8,4.5c-2.1,0.5-4.3-0.8-4.7-2.9
					c-0.4-1.6,0.4-3.2,1.8-4.1c-0.4-2-2-3.5-4-3.7h-0.2c-0.7,1.4-2.2,2.3-3.9,2.1C356.9,66.5,355.4,64.6,355.8,62.4z"/>
				<g>
					<polygon class="st9" points="444,178.2 447.4,172.2 450.9,178.2 449,178.2 449,183.9 445.8,183.9 445.8,178.2 					"/>
					<polygon class="st9" points="438,185.2 441.5,179.1 445,185.2 443.1,185.2 443.1,190.9 439.8,190.9 439.8,185.2 					"/>
				</g>
				<g class="st4">
					<path class="st7" d="M172,327.9c0,0.8,0.6,1.4,1.4,1.4c0.8,0,1.4-0.6,1.4-1.4c0-0.8-0.6-1.4-1.4-1.4S172,327.1,172,327.9z"/>
					<path class="st7" d="M166.1,327.9c0,0.8,0.6,1.4,1.4,1.4s1.4-0.6,1.4-1.4c0-0.8-0.6-1.4-1.4-1.4S166.1,327.1,166.1,327.9z"/>
					<path class="st7" d="M160.1,327.9c0,0.8,0.6,1.4,1.4,1.4c0.8,0,1.4-0.6,1.4-1.4c0-0.8-0.6-1.4-1.4-1.4S160.1,327.1,160.1,327.9
						z"/>
					<path class="st7" d="M154.2,327.9c0,0.8,0.6,1.4,1.4,1.4s1.4-0.6,1.4-1.4c0-0.8-0.6-1.4-1.4-1.4S154.2,327.1,154.2,327.9z"/>
					<path class="st7" d="M148.3,327.9c0,0.8,0.6,1.4,1.4,1.4c0.8,0,1.4-0.6,1.4-1.4c0-0.8-0.6-1.4-1.4-1.4
						C149,326.4,148.3,327.1,148.3,327.9z"/>
					<path class="st7" d="M142.5,327.9c0,0.8,0.6,1.4,1.4,1.4s1.4-0.6,1.4-1.4c0-0.8-0.6-1.4-1.4-1.4S142.5,327.1,142.5,327.9z"/>
					<path class="st7" d="M136.6,327.9c0,0.8,0.6,1.4,1.4,1.4s1.4-0.6,1.4-1.4c0-0.8-0.6-1.4-1.4-1.4
						C137.2,326.4,136.6,327.1,136.6,327.9z"/>
					<path class="st7" d="M130.6,327.9c0,0.8,0.6,1.4,1.4,1.4s1.4-0.6,1.4-1.4c0-0.8-0.6-1.4-1.4-1.4S130.6,327.1,130.6,327.9z"/>
				</g>
			</g>
			<g>
				<g>
					<g>
						<g>
							<g>
								<g>
									<path class="st10" d="M373.4,343.5l-30.2-72.1l4.8-2l27.4,73.1c0.3,0.7,0,1.5-0.5,1.8C374.5,344.7,373.8,344.3,373.4,343.5
										z"/>
								</g>
							</g>
						</g>
						<g>
							<g>
								<g>
									<path class="st11" d="M348.9,271.8l-3,1.2l28.3,71.3c-0.4-0.2-0.6-0.4-0.8-0.9l-30.2-72l4.8-2L348.9,271.8z"/>
								</g>
							</g>
						</g>
					</g>
					<g>
						<g>
							<g>
								<g>
									<path class="st10" d="M325.7,343.1l-1.4-78.1h5.2l-1.4,78.1c0,0.8-0.5,1.4-1.2,1.4S325.7,343.8,325.7,343.1z"/>
								</g>
							</g>
						</g>
						<g>
							<g>
								<g>
									<path class="st11" d="M329.4,267h-3.8l1.4,77.5c-0.1,0-0.1,0-0.2,0c-0.6,0-1.2-0.6-1.2-1.4l-1.4-78.1h5.2V267z"/>
								</g>
							</g>
						</g>
					</g>
					<g>
						<g>
							<g>
								<g>
									<path class="st12" d="M280.3,343.5l30.2-72.1l-4.8-2l-27.4,73.1c-0.3,0.7,0,1.5,0.5,1.8
										C279.2,344.7,279.9,344.3,280.3,343.5z"/>
								</g>
							</g>
						</g>
						<g class="st13">
							<g>
								<g>
									<path d="M278.1,342.7l27.4-73.1l4.8,2l-0.5,1.3l-3-1.2l-27.3,72.7c-0.3,0.2-0.6,0.3-0.9,0.1
										C278,344.2,277.9,343.5,278.1,342.7z"/>
								</g>
							</g>
						</g>
					</g>
				</g>
				<g>
					<g>
						<g>
							<g>
								<path class="st14" d="M292.4,271.3c5.3,4.3,13.1,8.2,32.9,8.6c26.1,0.5,39.7-2.4,47.1-15.9c12.4-22.4-3.1-95-27.5-79
									c-20.4,13.4-24.5,56.4-27.3,62.3C315,253.3,279.5,261,292.4,271.3z"/>
							</g>
						</g>
					</g>
				</g>
			</g>
			<g>
				<path class="st10" d="M287.9,324.8c-0.4,1.9,3.3,6.9-1.6,11.1c-4.8,4.2-15.8,8.6-8.6,8.8c7.3,0.2,14.3-1.5,17.9-3.4
					c3.7-1.9,0.7-4.7,5.3-6.1c6.1-1.9,6-2.3,3-8.9C300.1,317.4,289,318.7,287.9,324.8z"/>
				<path class="st10" d="M280.9,331.3c-0.8,1.6-4.9,5.4-10.5,7.9s-17.5,3.7-10.9,5.9s14.3,0.9,18.2,0.3c3.9-0.6,7.7-0.7,12.3-0.7
					c6.1,0,6.1-0.4,5.3-7.2C294.2,328,283.6,326,280.9,331.3z"/>
				<path class="st15" d="M295.1,327.5l-2.3,5.8c0,0-5.8,1.4-8.6-0.1c-2.8-1.5-1.7-2.8-1.7-2.8l2.4-8.6L295.1,327.5z"/>
				<path class="st10" d="M321.5,250.5c0,0-24.9,5.4-33.8,7.7c-9,2.2-16,6-11.8,21c4.2,15.1,11.2,42.5,11.2,42.5h16l-8.5-49.3
					l46.9-5.5l8.6-19.2L321.5,250.5z"/>
				<path class="st10" d="M358.1,250.5c-1.1,7.7,1.2,16.7-10.8,20.1c-12,3.5-30.8,3.7-30.8,3.7l-18.8,56.4c0,0-5.3,0.8-11.7-1.2
					c-2.7-0.8-3.6-4.2-3.6-4.2l17-57.6c1.3-4.5,4.9-8,9.5-9.2l28.9-8.8L358.1,250.5z"/>
				<g>
					<path class="st2" d="M353.7,224.5c-1.2,3-1.4,6.3-0.7,9.4c1.4,6.2-0.2,6.7-0.2,6.7s-8.5,5.4-15.6,7.6c-5.1,1.6-9.4,1.3-9.3-4.3
						v-0.1c0-0.4,0-0.6,0-1c0.3-12.6-2.4-13.2-3-27.3c-0.6-14.4,3.2-22.5,7-26c3.8-3.5,9.1-3.7,18.9-1.3c7.4,1.8,9.8,3.7,9.8,9.2
						c0,1.8-0.4,4-0.8,6.8C358.6,211.1,355.7,219.3,353.7,224.5z"/>
					<path class="st2" d="M353.7,224.5c-1.2,3-1.4,6.3-0.7,9.4c1.4,6.2-0.2,6.7-0.2,6.7s-8.5,5.4-15.6,7.6l-6.6-0.6l-2.7-2v-1.7
						c0-0.4,0-0.6,0-1c1.5,0.2,5,0.4,10-0.3c3.9-0.4,7.4-1.5,9.8-2.5c1.7-0.6,2.8-2.4,2.4-4.3c-0.4-2.5-0.9-6.1-0.9-8.8
						s1.3-7.5,2.3-10.9c0.8-2.6,1.1-5.3,0.9-8c-0.4-4.6,0-9.1,0-9.1l5.3-2.9l2.9,1.1c0,1.8-0.4,4-0.8,6.8
						C358.6,211.1,355.7,219.3,353.7,224.5z"/>
					<g>
						<path class="st16" d="M330,163.7c0,0-0.6,1.9,0.4,3.3l4.1-5.5h-2.9L330,163.7z"/>
						<path class="st15" d="M352.1,171c-0.2,7.1-6.3,11.2-6.3,11.2l0.4,6.4l-4.1,2.7l-2.9,1.9l-1.6-3.4l-0.3-4.2
							c-0.1-1-0.7-1.8-1.7-2c-1.1-0.3-2.5-0.8-4-2.4c-0.1-0.1-0.2-0.2-0.3-0.4l0,0c-2.7-3.7-3.7-17.6,5.4-21.6
							C346.3,155.2,352.2,163.9,352.1,171z"/>
						<path class="st15" d="M341.7,187.4l0.3,3.8l-2.9,1.9l-1.6-3.4l-0.3-4.2c-0.1-1-0.7-1.8-1.7-2c-1.1-0.3-2.5-0.8-4-2.4
							c-0.1-0.1-0.2-0.2-0.3-0.4c0.2,0.1,2.4,1.4,5.8,1.8C339.6,182.9,341.5,184.9,341.7,187.4z"/>
						<path class="st10" d="M342.2,173.2c0.4,0.2,0.7-0.4,0.7-0.4s2-4.5,2.7-5.2c1.2-1.2,4.1-1.2,4.4,2.7c0.2,2.9-3.3,9.3-4.4,11.1
							c-0.2,0.3-0.1,0.7,0.2,0.9c0.1,0.1,0.3,0.1,0.4,0.2h0.1c0.2,0,0.4-0.1,0.4-0.2c2.2-2,12.2-11.6,4.3-20.6c0,0-6.3,0.4-7.2,3.5
							c-1,3-1.6,7.1-1.6,7.1S341.7,173,342.2,173.2z"/>
						<path class="st10" d="M330,163.7c0,0,5.5-4.3,13.9,1l6.9-1.8c0,0,0.3-0.1,0.2-1.2c-0.2-1.1-0.9-11-12.9-8.8
							C331,154.3,326.8,159,330,163.7z"/>
					</g>
					<path class="st8" d="M346.1,185.6c0,0,1,0.5,2,2c0,0-1.3,0.6-2.6,1.3c-1.1,0.6-6.3,4.4-6.3,4.4l-1.5-3.1
						C337.7,190.2,343.1,186.4,346.1,185.6z"/>
					<path class="st8" d="M337.7,190.2c0,0-1.8,0.6-2.4,2c0,0-0.9-1.8,0.3-5c0,0,1-1,1.8-1.2L337.7,190.2z"/>
					<path class="st17" d="M352.1,246.7c0,0-1,1.2-1.2,1.3c-0.3,0.2-0.4-0.2-0.3-0.4C350.8,247.4,352.1,246.4,352.1,246.7z"/>
					<path class="st16" d="M346,182.5L346,182.5c0.2,0,0.4-0.1,0.5-0.2c2.2-2,12.2-11.6,4.3-20.6c0,0,0.4,1.6,0.3,2.9
						C351.1,164.7,356.1,172.8,346,182.5z"/>
					<path class="st15" d="M368.2,215.3c0,0,5.3,24.4,2.8,26.2c-2.5,1.9-30.7,2.1-33.4,2.6c-2.6,0.4-13.4,2.1-18.9-2.7
						c-0.7-0.6,3.4-0.4,4.3-2.5c1-2.1-0.5-1.9,0-2.8c2-3.4,13.1,0.7,13.1,0.7s18.3-3.1,23.5-1.6c-3.2-3.8-3.9-18.2-3.9-18.2
						L368.2,215.3z"/>
					<path class="st2" d="M369.6,216.5c0,0-3.6-22.4-10.3-25.4s-11.5,6.7-9,16.6c2.5,9.9,3.1,13.5,3.1,13.5S363.5,222.3,369.6,216.5
						z"/>
				</g>
			</g>
			<g>
				<g>
					<g>
						<polygon class="st0" points="373,355.3 377.8,355.3 374,245 364.3,245 						"/>
						<polygon class="st0" points="374.5,258.8 365.4,258.8 364.3,245 374,245 						"/>
					</g>
					<g>
						<polygon class="st0" points="158.5,355.3 153.7,355.3 157.4,245 167.1,245 						"/>
						<polygon class="st0" points="157,258.8 166,258.8 167.1,245 157.4,245 						"/>
					</g>
				</g>
				<path class="st0" d="M146.7,249.9h238.1c1.5,0,2.8-1.2,2.8-2.8v-3.6c0-1.5-1.2-2.8-2.8-2.8H146.7c-1.5,0-2.8,1.2-2.8,2.8v3.6
					C144,248.7,145.1,249.9,146.7,249.9z"/>
				<path class="st0" d="M387.3,246.9c-0.5,1.7-2,3-3.9,3H148.1c-1.9,0-3.5-1.2-3.9-3H387.3z"/>
			</g>
			<g>
				<path class="st18" d="M353,240.8h-69.5v-2h68.5c0.5,0,1.1,0.4,1.1,1.1L353,240.8L353,240.8z"/>
				<g>
					<path class="st0" d="M329.3,240.8h-47l-4.5-28.8c-0.3-1.5,0.8-2.7,2.2-2.7h41.7c1.4,0,2.9,1.2,3,2.7L329.3,240.8z"/>
					<path class="st19" d="M321.8,209.4h-1.2c1.4,0,2.9,1.2,3,2.7l4.5,28.8h1.2l-4.5-28.8C324.6,210.6,323.2,209.4,321.8,209.4z"/>
					<path class="st8" d="M308.5,225.1c0.4,2.9-1.5,5.2-4.3,5.2c-2.8,0-5.5-2.3-6-5.2c-0.4-2.9,1.5-5.2,4.3-5.2
						C305.3,219.9,308,222.2,308.5,225.1z"/>
				</g>
			</g>
			<g>
				<path class="st8" d="M231.1,130.6c0,2.6,2.1,4.7,4.7,4.7c2.6,0,4.7-2.1,4.7-4.7c0-2.6-2.1-4.7-4.7-4.7
					C233.1,125.9,231.1,128,231.1,130.6z"/>
				<g>
					<g>
						<line class="st8" x1="356.1" y1="130.6" x2="355.4" y2="130.6"/>
						<line class="st8" x1="354.5" y1="130.6" x2="193.7" y2="130.6"/>
						<line class="st8" x1="193.2" y1="130.6" x2="192.5" y2="130.6"/>
					</g>
				</g>
				<line class="st20" x1="235.7" y1="132.2" x2="235.7" y2="195.9"/>
				<g>
					<path class="st0" d="M150,148.7h56.2c0.6,0,1.2-0.5,1.2-1.2V114c0-0.6-0.5-1.2-1.2-1.2H150c-0.6,0-1.2,0.5-1.2,1.2v33.5
						C149,148.2,149.4,148.7,150,148.7z"/>
					<g>
						<g>
							<path class="st20" d="M199.2,132.1v12.2c0,0.4,0.4,0.7,0.7,0.7h1.7c0.4,0,0.7-0.4,0.7-0.7v-12.2c0-0.4-0.4-0.7-0.7-0.7h-1.7
								C199.5,131.4,199.2,131.7,199.2,132.1z"/>
							<path class="st20" d="M192.6,132.1v12.2c0,0.4,0.4,0.7,0.7,0.7h1.7c0.4,0,0.7-0.4,0.7-0.7v-12.2c0-0.4-0.4-0.7-0.7-0.7h-1.7
								C193,131.4,192.6,131.7,192.6,132.1z"/>
							<path class="st20" d="M186.1,126.7v17.5c0,0.4,0.4,0.7,0.7,0.7h1.7c0.4,0,0.7-0.4,0.7-0.7v-17.5c0-0.4-0.4-0.7-0.7-0.7h-1.7
								C186.5,125.9,186.1,126.3,186.1,126.7z"/>
							<path class="st20" d="M179.6,124.3v20c0,0.4,0.4,0.7,0.7,0.7h1.7c0.4,0,0.7-0.4,0.7-0.7v-20c0-0.4-0.4-0.7-0.7-0.7h-1.7
								C179.9,123.5,179.6,123.8,179.6,124.3z"/>
							<path class="st20" d="M173,128.2v16.1c0,0.4,0.4,0.7,0.7,0.7h1.7c0.4,0,0.7-0.4,0.7-0.7v-16.1c0-0.4-0.4-0.7-0.7-0.7h-1.7
								C173.4,127.4,173,127.7,173,128.2z"/>
							<path class="st20" d="M166.5,134.2v10.1c0,0.4,0.4,0.7,0.7,0.7h1.7c0.4,0,0.7-0.4,0.7-0.7v-10.1c0-0.4-0.4-0.7-0.7-0.7h-1.7
								C166.8,133.4,166.5,133.8,166.5,134.2z"/>
							<path class="st20" d="M159.2,128.2v16.1c0,0.4,0.4,0.7,0.7,0.7h1.7c0.4,0,0.7-0.4,0.7-0.7v-16.1c0-0.4-0.4-0.7-0.7-0.7h-1.7
								C159.6,127.4,159.2,127.7,159.2,128.2z"/>
							<path class="st20" d="M152.7,134.2v10.1c0,0.4,0.4,0.7,0.7,0.7h1.7c0.4,0,0.7-0.4,0.7-0.7v-10.1c0-0.4-0.4-0.7-0.7-0.7h-1.7
								C153.1,133.4,152.7,133.8,152.7,134.2z"/>
						</g>
						<path class="st21" d="M190.2,118.6h11.8c0.2,0,0.4-0.2,0.4-0.4v-0.9c0-0.2-0.2-0.4-0.4-0.4h-11.8c-0.2,0-0.4,0.2-0.4,0.4v0.9
							C189.9,118.5,190,118.6,190.2,118.6z"/>
						<path class="st21" d="M194.3,124h7.7c0.2,0,0.4-0.2,0.4-0.4v-0.9c0-0.2-0.2-0.4-0.4-0.4h-7.7c-0.2,0-0.4,0.2-0.4,0.4v0.9
							C194,123.8,194.1,124,194.3,124z"/>
					</g>
				</g>
				<g>
					<path class="st0" d="M198.8,226.7h73.5c0.4,0,0.8-0.4,0.8-0.8v-56.2c0-1.4-1.2-2.6-2.6-2.6h-68.7c-2.1,0-3.9,1.8-3.9,3.9v55
						C198,226.3,198.3,226.7,198.8,226.7z"/>
					<path class="st22" d="M244.5,222.1h21.4c1,0,1.9-0.8,1.9-1.9v-8.7c0-1-0.8-1.9-1.9-1.9h-21.4c-1,0-1.9,0.8-1.9,1.9v8.7
						C242.7,221.2,243.5,222.1,244.5,222.1z"/>
					<g class="st23">
						<path class="st22" d="M230.7,176.8h35.9c0.6,0,1.2-0.5,1.2-1.2l0,0c0-0.6-0.5-1.2-1.2-1.2h-35.9c-0.6,0-1.2,0.5-1.2,1.2l0,0
							C229.6,176.3,230.1,176.8,230.7,176.8z"/>
						<path class="st22" d="M230.7,181.3h35.9c0.6,0,1.2-0.5,1.2-1.2l0,0c0-0.6-0.5-1.2-1.2-1.2h-35.9c-0.6,0-1.2,0.5-1.2,1.2l0,0
							C229.6,180.9,230.1,181.3,230.7,181.3z"/>
						<path class="st22" d="M230.7,186h35.9c0.6,0,1.2-0.5,1.2-1.2l0,0c0-0.6-0.5-1.2-1.2-1.2h-35.9c-0.6,0-1.2,0.5-1.2,1.2l0,0
							C229.6,185.4,230.1,186,230.7,186z"/>
						<path class="st22" d="M230.7,190.6h35.9c0.6,0,1.2-0.5,1.2-1.2l0,0c0-0.6-0.5-1.2-1.2-1.2h-35.9c-0.6,0-1.2,0.5-1.2,1.2l0,0
							C229.6,190.1,230.1,190.6,230.7,190.6z"/>
						<path class="st22" d="M230.7,195.2h35.9c0.6,0,1.2-0.5,1.2-1.2l0,0c0-0.6-0.5-1.2-1.2-1.2h-35.9c-0.6,0-1.2,0.5-1.2,1.2l0,0
							C229.6,194.7,230.1,195.2,230.7,195.2z"/>
						<path class="st22" d="M236.3,199.1h30.3c0.6,0,1.2-0.5,1.2-1.2l0,0c0-0.6-0.5-1.2-1.2-1.2h-30.3c-0.6,0-1.2,0.5-1.2,1.2l0,0
							C235.2,198.5,235.7,199.1,236.3,199.1z"/>
					</g>
					<g class="st24">
						<polygon class="st8" points="222.6,219.3 222.2,220.2 221.2,220.4 221.9,221.1 221.7,222.1 222.6,221.5 223.5,222.1 
							223.3,221.1 224.1,220.4 223.1,220.2 						"/>
						<polygon class="st8" points="218.2,219.3 217.7,220.2 216.8,220.4 217.5,221.1 217.3,222.1 218.2,221.5 219.1,222.1 
							218.9,221.1 219.6,220.4 218.6,220.2 						"/>
						<polygon class="st8" points="213.7,219.3 213.3,220.2 212.3,220.4 213,221.1 212.8,222.1 213.7,221.5 214.6,222.1 
							214.4,221.1 215.2,220.4 214.2,220.2 						"/>
						<polygon class="st8" points="209.4,219.3 208.9,220.2 207.8,220.4 208.6,221.1 208.5,222.1 209.4,221.5 210.3,222.1 
							210.1,221.1 210.8,220.4 209.8,220.2 						"/>
						<polygon class="st8" points="204.9,219.3 204.5,220.2 203.5,220.4 204.2,221.1 204,222.1 204.9,221.5 205.8,222.1 
							205.6,221.1 206.3,220.4 205.4,220.2 						"/>
					</g>
					<path class="st8" d="M202.3,165h66.5c2.4,0,4.4,2,4.4,4.4v2H198v-2C198,167,199.9,165,202.3,165z"/>
					<g>
						<circle class="st0" cx="209.8" cy="168.3" r="0.7"/>
						<circle class="st0" cx="206.4" cy="168.3" r="0.7"/>
						<circle class="st0" cx="202.9" cy="168.3" r="0.7"/>
					</g>
					<path class="st22" d="M201.6,199.8h23.5c0.4,0,0.7-0.4,0.7-0.7v-23.8c0-0.4-0.4-0.7-0.7-0.7h-23.5c-0.4,0-0.7,0.4-0.7,0.7v23.8
						C200.9,199.4,201.2,199.8,201.6,199.8z"/>
					<g>
						<g>
							<path class="st0" d="M204.9,187.1c0-4.8,3.9-8.7,8.7-8.7s8.7,3.9,8.7,8.7s-3.9,8.7-8.7,8.7C208.8,196,204.9,192,204.9,187.1z
								 M205.8,187.1c0,4.4,3.6,7.8,7.8,7.8c4.4,0,7.8-3.6,7.8-7.8c0-4.4-3.6-7.8-7.8-7.8C209.4,179.3,205.8,182.9,205.8,187.1z"/>
						</g>
						<g>
							<path class="st0" d="M209.7,187.1c0-4.9,1.7-8.7,3.9-8.7c2.2,0,3.9,3.8,3.9,8.7s-1.7,8.7-3.9,8.7
								C211.5,196,209.7,192,209.7,187.1z M210.6,187.1c0,4.6,1.6,7.8,3,7.8c1.4,0,3-3.2,3-7.8s-1.6-7.8-3-7.8
								C212.2,179.3,210.6,182.5,210.6,187.1z"/>
						</g>
						<g>
							<rect x="205.4" y="186.7" class="st0" width="16.7" height="0.9"/>
						</g>
						<g>
							<g>
								<path class="st0" d="M213.6,183.9c4.8,0,6.5-1.7,6.6-1.8l-0.6-0.6l0.4,0.3l-0.4-0.4c0,0-1.5,1.5-6,1.5c-4.4,0-6-1.5-6-1.5
									l-0.6,0.6C207.1,182.2,208.8,183.9,213.6,183.9z"/>
							</g>
							<g>
								<path class="st0" d="M219.6,192.8l0.6-0.6c-0.1-0.1-1.8-1.8-6.6-1.8s-6.5,1.7-6.6,1.8l0.6,0.6c0,0,1.5-1.5,6-1.5
									C218.1,191.3,219.6,192.8,219.6,192.8z"/>
							</g>
						</g>
					</g>
				</g>
				<g>
					
						<ellipse transform="matrix(0.926 -0.3776 0.3776 0.926 -27.4821 121.7067)" class="st0" cx="296.7" cy="130.9" rx="29.8" ry="29.8"/>
					<ellipse class="st25" cx="296.6" cy="131" rx="25.3" ry="25.3"/>
					<path class="st8" d="M303.6,130c2-0.7,3.1-2.7,3.1-5.2c0-3.5-2.3-5.7-6.1-6v-3h-3.7v3h-1.7v-3h-3.7v3h-2.8v4.8h2.7v14h-2.7v4.8
						h2.8v3.5h3.7v-3.5h1.7v3.5h3.7v-3.5c4.1-0.2,6.7-2.7,6.7-6.6C307.4,133,305.9,130.7,303.6,130z M296.1,123.7h3.7
						c0.4,0,0.7,0.1,1,0.2c0.7,0.3,1.2,1,1.2,2s-0.4,1.9-1.2,2.1c-0.3,0.1-0.6,0.2-1,0.2h-3.7V123.7z M300.7,137.7
						c-0.3,0.1-0.6,0.1-1,0.1h-3.7v-5h3.7c0.4,0,0.6,0,1,0.1c1.1,0.3,1.8,1.2,1.8,2.3C302.4,136.5,301.8,137.3,300.7,137.7z"/>
				</g>
				<g>
					<g>
						<ellipse class="st0" cx="375.4" cy="126.9" rx="23.5" ry="23.5"/>
						<polygon class="st0" points="371.1,146.2 361.6,156.5 362.8,141.5 						"/>
					</g>
					<path class="st1" d="M365.1,129.3c0.3,1.1,0.7,2.1,1.2,3l-2.4,2.4c1,1.3,2.1,2.6,3.5,3.5l2.4-2.4c0.9,0.5,2,1,3,1.2v3.4
						c0.8,0.2,1.6,0.3,2.5,0.3c0.8,0,1.7-0.1,2.5-0.3v-3.4c1.1-0.3,2.1-0.7,3-1.2l2.4,2.4c1.3-1,2.6-2.1,3.5-3.5l-2.4-2.4
						c0.5-0.9,1-2,1.2-3h3.4c0.2-0.8,0.3-1.6,0.3-2.5c0-0.8-0.1-1.7-0.3-2.5h-3.4c-0.3-1.1-0.7-2.1-1.2-3l2.4-2.4
						c-1-1.3-2.1-2.6-3.5-3.5l-2.4,2.4c-0.9-0.5-2-1-3-1.2v-3.4c-0.8-0.2-1.6-0.3-2.5-0.3c-0.8,0-1.7,0.1-2.5,0.3v3.4
						c-1.1,0.3-2.1,0.7-3,1.2l-2.4-2.4c-1.3,1-2.6,2.1-3.5,3.5l2.4,2.4c-0.5,0.9-1,2-1.2,3h-3.4c-0.2,0.8-0.3,1.6-0.3,2.5
						c0,0.8,0.1,1.7,0.3,2.5H365.1z M372.1,126.9c0-1.8,1.4-3.3,3.3-3.3c1.8,0,3.3,1.4,3.3,3.3c0,1.8-1.4,3.3-3.3,3.3
						C373.6,130.1,372.1,128.7,372.1,126.9z"/>
				</g>
			</g>
		</g>
	</g>
</g>
</svg>
