<?xml version="1.0" encoding="utf-8"?>
<!-- Generator: Adobe Illustrator 23.0.3, SVG Export Plug-In . SVG Version: 6.00 Build 0)  -->
<svg version="1.1" id="Layer_1" xmlns="http://www.w3.org/2000/svg" xmlns:xlink="http://www.w3.org/1999/xlink" x="0px" y="0px"
	 viewBox="0 0 500 383" style="enable-background:new 0 0 500 383;" xml:space="preserve">
<style type="text/css">
	.st0{opacity:0.8;fill:#FFDABF;enable-background:new    ;}
	.st1{opacity:0.2;fill:#DCDCDC;enable-background:new    ;}
	.st2{fill:#BDBDBD;}
	.st3{fill:#DCDCDC;}
	.st4{fill:#FF7A1A;}
	.st5{fill:#A8A8A8;}
	.st6{opacity:0.2;enable-background:new    ;}
	.st7{fill:#FFB9B9;}
	.st8{opacity:0.1;enable-background:new    ;}
	.st9{fill:#D0CDE1;}
	.st10{fill:#2F2E41;}
	.st11{display:none;}
	.st12{display:inline;opacity:0.8;fill:#FFDABF;enable-background:new    ;}
	.st13{display:inline;fill:#FFB9B9;}
	.st14{display:inline;fill:#FFB8B8;}
	.st15{display:inline;fill:#FF6B00;}
	.st16{display:inline;fill:#2F2E41;}
	.st17{display:inline;fill:#DCDCDC;}
	.st18{display:inline;fill:#A0616A;}
	.st19{display:inline;fill:#3F3D56;}
</style>
<g>
	<path class="st0" d="M425.4,152.6C403.9,68.2,329.8,7.4,242.8,4.9c-46-1.3-94.4,13.9-129.6,67.3c-63,95.4,3.9,161.3,50.5,192.7
		c22.5,15.2,42.8,33.4,60.3,54.2c31.5,37.4,92.1,83.8,164.2,11C440.4,277.4,439.6,208.8,425.4,152.6z"/>
	<polygon class="st1" points="328.8,232.4 372.9,188.4 328.8,144.4 342.2,131 399.8,188.4 342.2,245.8 	"/>
	<polygon class="st1" points="178.4,232 134.2,188 178.4,144 164.9,130.6 107.4,188 165,245.4 	"/>
	<path class="st2" d="M494,342.3c0,7.4-109.3,33.2-244,33.2S6,349.7,6,342.3c0-7.4,109.3,6.3,244,6.3S494,334.8,494,342.3z"/>
	<path class="st3" d="M494,342.3c0,7.4-109.3,33.2-244,33.2S6,349.7,6,342.3c0-7.4,109.3,6.3,244,6.3S494,334.8,494,342.3z"/>
	<ellipse class="st3" cx="250" cy="342.3" rx="244" ry="13.5"/>
	<path class="st4" d="M304.4,280.2c0,27.3,11.5,49.3,25.7,49.3"/>
	<path class="st4" d="M330.1,329.5c0-37.1,23.2-67.1,51.9-67.1"/>
	<path class="st5" d="M321.6,329.9c0,0,5.7-0.2,7.4-1.4c1.7-1.2,8.8-2.7,9.2-0.7c0.4,2,8.6,9.8,2.2,9.8c-6.4,0-15-1-16.7-2.1
		C322,334.4,321.6,329.9,321.6,329.9z"/>
	<path class="st6" d="M340.5,336.9c-6.5,0-15-1-16.7-2.1c-1.3-0.8-1.8-3.7-2-5c-0.1,0-0.2,0-0.2,0s0.4,4.6,2.1,5.7
		s10.3,2.1,16.7,2.1c1.8,0,2.5-0.7,2.5-1.7C342.6,336.5,341.9,336.9,340.5,336.9z"/>
	<path class="st7" d="M394.2,176.6c0,0-13.8-10.5-14.8-6.6c-1,3.9,10.1,12.6,10.1,12.6L394.2,176.6z"/>
	<path class="st8" d="M394.2,176.6c0,0-13.8-10.5-14.8-6.6c-1,3.9,10.1,12.6,10.1,12.6L394.2,176.6z"/>
	<path class="st9" d="M439.8,143.4c0,0-16.4,29.3-16.8,33.5c-0.4,4.2-0.4,4.5-1.7,4.2s-20.6-2.5-22.4-1.7s-5.2-4.2-5.2-4.2
		s-6.6,6.6-5.2,8s5.6,2.1,6.3,3.9c0.7,1.7,1.7,3.5,4.9,3.1c3.1-0.4,24.4,5.6,27.3,4.5c2.8-1.1,3.5-2.8,4.9-2.8
		c1.4,0,4.2-1.4,4.2-1.7c0-0.4,9.8-18.9,9.8-18.9S457.3,146.2,439.8,143.4z"/>
	<path class="st3" d="M439.8,143.4c0,0-16.4,29.3-16.8,33.5c-0.4,4.2-0.4,4.5-1.7,4.2s-20.6-2.5-22.4-1.7s-5.2-4.2-5.2-4.2
		s-6.6,6.6-5.2,8s5.6,2.1,6.3,3.9c0.7,1.7,1.7,3.5,4.9,3.1c3.1-0.4,24.4,5.6,27.3,4.5c2.8-1.1,3.5-2.8,4.9-2.8
		c1.4,0,4.2-1.4,4.2-1.7c0-0.4,9.8-18.9,9.8-18.9S457.3,146.2,439.8,143.4z"/>
	<path class="st10" d="M416,124c-0.1,1.8-0.1,3.7,0.1,5.6c0.5,4,2.4,8.2,0.6,11.9c-0.6,1.3-1.7,2.6-2.3,3.9
		c-1.3,2.9-0.1,6.1-0.3,9.2c-0.2,4-2.8,7.8-6.6,10c6.6,0.2,12.9-3.1,17.1-7.5s6.5-10,8.2-15.5c0.9-2.6,1.5-5.3,1.7-8
		c0.1-1.6,0-3.1-0.5-4.7c-0.6-1.5-1.4-2.8-2.4-4.1c-1-1.5-2.1-3-3.6-4c-1.9-1.3-5.6-2.7-8.1-2.5C416.8,118.6,416.1,121.9,416,124z"
		/>
	<path class="st7" d="M426.2,135c0,0,3.9,13.6,0.7,17.4s18.9-1.7,18.9-1.7s-10.8-10.8-5.6-17.8L426.2,135z"/>
	<path class="st8" d="M426.2,135c0,0,3.9,13.6,0.7,17.4s18.9-1.7,18.9-1.7s-10.8-10.8-5.6-17.8L426.2,135z"/>
	<polygon class="st4" points="328.8,223.9 372.9,179.9 328.8,135.9 342.2,122.5 399.8,179.9 342.2,237.3 	"/>
	<polygon class="st7" points="413.6,316.7 413.6,326.8 418.8,333.1 423.4,331 422,316.3 	"/>
	<path class="st10" d="M415.7,326.1c0,0-1.4-4.9-3.9-1.4c-2.5,3.5-4.9,11.2-6.3,11.5c-1.4,0.4-11.2,11.2-1.4,11.2
		c9.8,0,12.9-4.5,12.9-4.5s9.8-3.9,9.8-4.5s-1.4-13.6-2.1-13.6c-0.7,0-1,2.5-2.8,2.5S415.7,326.1,415.7,326.1z"/>
	<polygon class="st7" points="437,318.4 436.7,327.8 445.1,331.3 445.1,317.7 	"/>
	<path class="st10" d="M446.1,327.8c0,0-4.5-4.9-7-3.9c-1.2,0.5-2.4,1.1-3.5,1.7c0,0-1.4,4.5-2.1,8.4c-0.7,3.9-1,5.6-1.7,7
		c-0.7,1.4-1.4,6.6,5.6,7.4s9.1-3.1,9.1-3.1l1.7-9.1C448.2,336.2,447.5,327.8,446.1,327.8z"/>
	<path class="st4" d="M418.2,217.8c0,0-10.1,22.7-8.7,43.3c0,0-3.5,8-1.4,20.6s4.9,37.7,4.9,37.7s9.4,1,10.1-0.7
		c0,0,0.7-17.4,1.4-18.2c0.7-0.7-0.4-16.8-1.4-19.9s9.8-34.2,9.8-34.2l-2.8-38.8L418.2,217.8z"/>
	<path class="st4" d="M415.3,216.4l6.6,14.3c0,0,3.1,32.5,4.9,36.7c0,0,0.7,11.9,3.9,15.7c3.1,3.9,5.6,37.7,5.6,37.7s8.7,2.5,9.4,0
		c0.7-2.5,2.8-19.2,2.8-19.2s0.7-14.3-3.1-23.8c-3.9-9.5,4.5-43.3,4.5-43.3s8.7-16.4-3.9-29.7L415.3,216.4z"/>
	<circle class="st7" cx="433.9" cy="124.9" r="14.3"/>
	<path class="st3" d="M447.1,146.5c0,0-15,0-17.1,1.7c-1.1,1-2.8,1-3.9,0c0,0-5.2,0.4-6.6,4.5c-1.4,4.2-5.6,9.8-5.6,9.8
		s-6.3,4.5-2.8,16.4c3.5,11.9,0.7,31.1,0.7,31.1s-2.8,4.2,0,5.9c2.8,1.7,3.9,2.5,3.5,3.9c-0.4,1.4,31.8-11.5,31.8-14
		c0-2.5-0.7-4.5,0-5.6c0.7-1.1,1.4-2.8,0.7-4.5s0.7-2.1,0.4-3.9c-0.4-1.7,1.7-14.7,3.1-20.3C452.7,166,452.4,146.9,447.1,146.5z"/>
	<path class="st7" d="M394.2,180.8c0,0-13.8-10.5-14.8-6.6s10.1,12.6,10.1,12.6L394.2,180.8z"/>
	<path class="st3" d="M439.8,148.2c0,0-16.4,29.3-16.8,33.6c-0.4,4.2-0.4,4.5-1.7,4.2c-1.4-0.4-20.6-2.5-22.4-1.7s-5.2-4.2-5.2-4.2
		s-6.6,6.6-5.2,8s5.6,2.1,6.3,3.9s1.7,3.5,4.9,3.1c3.1-0.4,24.4,5.6,27.3,4.5c2.8-1.1,3.5-2.8,4.9-2.8c1.4,0,4.2-1.4,4.2-1.7
		c0-0.4,9.8-18.9,9.8-18.9S457.3,151.1,439.8,148.2z"/>
	<path class="st10" d="M426.8,134c-0.2-1.4-0.9-2.7-1.3-4.1c-0.6-2.2-0.2-4.6,1-6.6c2.1-3.3,6.1-4.8,8.9-7.5c0,1.4,1,2.6,2.1,3.5
		c1.1,0.9,2.3,1.6,3.2,2.6c0.9,1.1,1.5,2.4,1.8,3.7c0.5,1.6,0.8,3.2,0.7,4.9c-0.1,1.7-0.9,3.3-2.1,4.4c-1,0.8-2.5,1.3-3,2.6
		c-0.2,0.6-0.3,1.3-0.2,1.9c0.2,3.9,0.4,7.8-0.4,11.5c-0.9,3.7-3.1,7.4-6.6,9c2.9,0.2,5.8,0.4,8.5-0.3c2.8-0.7,5.4-2.6,6.4-5.2
		c0.5-1.3,0.5-2.8,1.2-4c1.7-3.1,6.4-3.3,8.7-6c0.9-1.1,1.3-2.5,1.7-3.9c1.9-8.2,0.6-16.9-2.4-24.8c-1-2.7-2.3-5.5-4.5-7.4
		c-1.8-1.6-4.2-2.5-6.6-3.3c-3.4-1.1-7-2-10.5-2.2c-1.6-0.1-3.1,0.1-4.6,0.5c-1.5,0.5-2.9,1.3-4.1,2.3c-5.7,4.4-9.5,11.4-9,18.5
		c0.3,4.3,2.2,8.4,4.5,12c0.8,1.3,2.8,4,4.6,3.2C426.3,138.6,427,135.6,426.8,134z"/>
	<path class="st4" d="M202.7,183h17.9v-17.9h-17.9V183z M292.8,165.1h-17.9V183h17.9V165.1z M238.8,183h17.9v-17.9h-17.9V183z"/>
	<ellipse class="st10" cx="98.5" cy="99.8" rx="15.1" ry="11.8"/>
	<path class="st7" d="M101,180.9c0,0,13.6,0.9,16-0.9s12.7,2.4,13.6,4.8c0.9,2.4-14.5,2.7-16.9,2.7s-13.9,3.6-13.9,3.6L101,180.9z"
		/>
	<path class="st10" d="M73.1,321.6c0,0-6.3,16-3.1,17.9c3.3,1.9,38,0.5,38,0.5s5.8-3.6-0.8-6.1c0,0-5.5-0.3-9.1-2.5
		s-7.7-6.3-7.7-6.3s-0.3-6.1-2.5-4.7c-1.3,0.9-2.2,2.3-2.5,3.9L73.1,321.6z"/>
	<path class="st8" d="M73.1,321.6c0,0-6.3,16-3.1,17.9c3.3,1.9,38,0.5,38,0.5s5.8-3.6-0.8-6.1c0,0-5.5-0.3-9.1-2.5s-7.7-6.3-7.7-6.3
		s-0.3-6.1-2.5-4.7c-1.3,0.9-2.2,2.3-2.5,3.9L73.1,321.6z"/>
	<polygon class="st4" points="178.4,223.5 134.2,179.5 178.4,135.5 164.9,122 107.4,179.5 165,236.9 	"/>
	<path class="st10" d="M63.3,326.4c0,0-7,17.5-3.3,19.6c3.6,2.2,41.7,0.6,41.7,0.6s6.3-3.9-0.9-6.6c0,0-6.1-0.3-10-2.7
		c-3.9-2.4-8.4-7-8.4-7s-0.3-6.6-2.7-5.1c-1.5,0.9-2.5,2.5-2.7,4.2L63.3,326.4z"/>
	<path class="st4" d="M98.9,215.3l-4.2,38c0,0-1.5,18.1-6.1,22c0,0,0,5.7-1.5,7.5L85,306.8c0,0,3,8.7,2.7,10.3
		c-0.3,1.5,1.2,6.3,0.9,7c-0.3,0.6-14.5,0-14.5,0l3-48.6l9.4-67.6L98.9,215.3z"/>
	<path class="st4" d="M91.4,214.1c0,0-3.3,31.1-4.8,37.7c-0.9,4.4-1.6,8.8-1.8,13.3c0,0-0.3,9.6-3,12.4c-1.6,1.6-2.5,3.8-2.4,6.1
		c0,0-2.7,30.5-1.2,34.1c1.5,3.6,3,6.6,1.5,9.1c-1.5,2.4-18.1,2.4-18.1,0.6s0-3.3-0.9-4.2c-0.9-0.9,0-6.6,0-6.6s-3.6-26.9-0.3-34.7
		s4.8-29.3,4.8-29.3s-2.4-24.4-5.4-28.4c-3-3.9,0.6-17.8,0.6-17.8L91.4,214.1z"/>
	<path class="st7" d="M82.9,117.6c0.4,0.8,1.2,1.3,2,1.7c4.4,2.4,8.2,6,11.8,9.5c-0.9-3.1-0.7-6.4,0.5-9.4c0.4-1,1-2.1,0.7-3.1
		c-0.2-0.8-0.9-1.3-1.5-1.8c-1.5-1.2-3.1-2.2-4.7-3.2c-1.1-0.7-3.5-2.5-4.8-2.3c-0.1,1.7-0.1,3.3-0.9,5
		C85.9,114.2,83,117.9,82.9,117.6z"/>
	<circle class="st7" cx="98.4" cy="109.1" r="12.4"/>
	<path class="st3" d="M98.9,138.4c0,0,2.1-10.6-3.9-14.2c-6.1-3.6-13-7.8-13-7.8s-2.1-0.3-3,4.2c0,0-17.2,3.3-19,19.6
		s1.2,40.1,1.2,40.1s-2.7,20.8-6.1,32c0,0-2.7,2.4,9.4-1.2s33.2,10.3,33.2,10.3s2.1-2.1,2.1-3.6s2.4-10.3,2.4-10.3s2.1-37.1,3-41.4
		C106.2,162,101.7,139,98.9,138.4z"/>
	<path class="st10" d="M95.4,110.3c0.8-0.4,1.6-0.6,2.4-0.6s1.7-0.3,2.4-0.7c1.2-0.9,1.3-2.6,2.1-3.8c1.3-1.7,3.7-1.9,5.8-1.8
		c1.3,0,2.7,0.1,3.8-0.6s1.7-2.1,2-3.4c0.4-1.5,0.8-3.4-0.4-4.5c-0.8-0.8-2-0.9-2.9-1.6c-0.9-0.7-1.3-1.9-1.7-2.9
		c-0.5-1.3-1.4-2.3-2.5-3.2c-1.6-1.1-3.7-1.4-5.7-1.3c-2,0-3.9,0.3-5.9,0c-1.6-0.2-3.2-0.7-4.8-0.5c-2,0.3-3.7,1.8-4.7,3.6
		c-1,1.8-1.4,3.9-1.8,5.9l-1.1,5.5c-0.4,1.7-0.7,3.5-0.4,5.2c0.6,3.5,3.7,6.4,3.9,10c0.4-2,1.8-3.7,3.7-4.4c0.2-0.1,0.5-0.1,0.8-0.1
		c0.3,0.1,0.5,0.4,0.7,0.7c0.5,0.7,2.2,1.7,3,1.3C95,112.4,94.4,111.1,95.4,110.3z"/>
	<path class="st7" d="M64.2,166.7c0,0-2.1,13.3,6.6,12.1c0,0,4.5-0.6,5.1,0s23-3.3,26-6.6c0,0,3.6-1.2,5.4,0.6
		c1.8,1.8,19.9,3.6,14.5-1.8c-5.4-5.4-13.9-6.6-13.9-6.6l-11.5,0.6c0,0-6.1,1.8-9.6,0c-3.6-1.8-13.9-1.2-13.9-1.2L64.2,166.7z"/>
	<path class="st3" d="M76.6,124.8c0,0-13.6,1.5-13.6,21.1V171c0,0,7.5-3.3,9.1-3c1.5,0.3,7.5-3.9,7.5-3.9s7-16.3,6.3-20.8
		S85.7,125.4,76.6,124.8z"/>
	<ellipse class="st10" cx="98.4" cy="101.4" rx="11.6" ry="6.1"/>
	<ellipse class="st10" cx="87.5" cy="102.4" rx="4.1" ry="10.1"/>
</g>
<g class="st11">
	<path class="st12" d="M427.5,123C403.6,96.5,328,82.6,241.3,89.5c-45.8,3.7-93.5,13.1-127,34.2c-59.8,37.7,8.7,54,56,60.4
		c22.9,3.1,43.6,7.4,61.7,12.9c32.5,9.8,94.2,20,163.8-10.9C446.3,163.7,443.4,140.6,427.5,123z"/>
	<circle class="st13" cx="395.7" cy="166" r="24.1"/>
	<path class="st14" d="M377.7,178c0,0,4.6,34.3-2.5,38.2c-7,3.8,41.7,4.2,41.7,4.2s-10.8-29.8-5.9-38.9L377.7,178z"/>
	<path class="st15" d="M452.4,220.6l-4,18.4l-8.5,39l-0.3,2.1l-3,24.7l-1.9,16.4l-1.3,11c-8,4.1-13.8,7-13.8,7s-0.5-2.5-1.3-5.7
		c-5.6,1.7-16,4.5-24.9,5.1c3.2,3.6,4.7,7,2.7,9.4c-6,7.5-31-8.2-39.7-14c-0.2,1.4-0.3,2.8-0.2,4.2l-6.6-5.1l0.7-11.8l1.1-20
		l1.4-25.1c-0.5-1.1-0.8-2.2-1.1-3.3c-2-7.3-4.5-21.8-6.4-34c-1.5-9.8-2.7-18.1-2.9-19.8c-0.1-0.2-0.1-0.4-0.1-0.4l36.9-16.3
		c2.6,6.1,14.9,7.9,14.9,7.9c10.2-0.7,18.1-6,18.1-6L452.4,220.6z"/>
	<path class="st14" d="M422.3,332.3c0,0-1.6,0.5-4.1,1.3c-5.6,1.7-16,4.5-24.9,5.1c-7.6,0.5-14-0.7-15.2-5.6
		c-0.5-2.1,0.2-3.9,1.8-5.3c4.7-4.3,16.8-5.8,26.4-6.4c2.7-0.2,5.2-0.2,7.3-0.3c3.5-0.1,5.9,0.1,5.9,0.1l0.1,0.2L422.3,332.3z"/>
	<path class="st16" d="M375.6,143.1l-4.5-1.8c0,0,9.5-10.4,22.6-9.5l-3.7-4.1c0,0,9.1-3.6,17.2,5.9c4.3,5,9.3,10.8,12.4,17.5h4.9
		l-2,4.5l7.1,4.5l-7.3-0.8c0.4,2.5,0.5,4.9,0.2,7.4c-0.3,2.5-1.6,4.7-3.5,6.2l0,0c0,0-5.6-11.6-5.6-13.4v4.5c0,0-4.5-4.1-4.5-6.8
		l-2.5,3.2l-1.2-5l-15.2,5l2.5-4.1l-9.5,1.4l3.7-5c0,0-10.7,5.9-11.1,10.8c-0.4,5-3.5,9.7-3.5,9.7S363.7,149.9,375.6,143.1z"/>
	<path class="st15" d="M478.7,305.4c-2.5,2.7-8.5,6.7-16,11c-2.8,1.6-5.7,3.3-8.6,5c-7.1,3.9-14.6,7.9-20.8,11c-8,4.1-13.8,7-13.8,7
		s-0.5-2.5-1.3-5.7c-1.1-4.3-2.7-9.8-4.4-12.3c-0.1-0.1-0.1-0.2-0.2-0.3c-0.5-0.7-1-1-1.5-1l24.5-15.1l10.6-6.5l-7.6-18.2l-9.6-22.8
		l5.8-18.4l5.8-18.4h10.8c0,0,3.6,7.8,8.2,18.8c0.7,1.6,1.4,3.3,2.1,5.1C472.2,267.5,484,299.6,478.7,305.4z"/>
	<path class="st14" d="M396,348.1c-6,7.5-31-8.2-39.7-14c-1.9-1.3-3-2.1-3-2.1l8-10.6l2.5-3.4c0,0,2.3,1.2,5.6,3.2
		c0.1,0.1,0.3,0.2,0.4,0.2c2.9,1.7,6.5,3.9,10.1,6.4c5,3.4,10.1,7.3,13.4,10.9C396.5,342.2,398,345.6,396,348.1z"/>
	<path class="st15" d="M369.4,321.1c-0.9,0-1.8,0.1-2.7,0.2c-7.6,1.3-9.8,8.1-10.4,12.7c-0.2,1.4-0.3,2.8-0.2,4.2l-6.6-5.1l-2.5-1.9
		c-5.8-2-11-5.7-15.6-9.9c-3.9-3.8-7.4-7.9-10.5-12.4c-3.1-4.5-5.8-9.1-8.1-13.9c-1.3-2.7-1.4-5.9-0.2-8.7l8.3-18.4L333,241
		c0.1-0.7,0.2-1.3,0.3-1.9c2.4-13.8,8.8-19.8,8.8-19.8h4.9l3.3,19.8l4.1,24.7l-2.9,9.3l-6.6,21.5l6.3,6.9L369.4,321.1z"/>
	<path class="st15" d="M375,263.7l4.2,4.9c1.5-0.3,3.2-0.7,4.9-1l-1.2-3.8l3,3.4c17.7-4.3,39.7-12.8,39.7-12.8s-23.7,1.7-41.5-2.1
		c-7.8-1.7-15.9,2.2-19.1,9.5c-1.9,4.3-1.6,8,5.1,8c2.3-0.1,4.5-0.3,6.7-0.6L375,263.7z"/>
	<path class="st17" d="M470.5,344.1v2c0,0.6-0.1,1.1-0.3,1.6c-0.1,0.2-0.2,0.5-0.3,0.7c-0.8,1.3-2.3,2.1-3.8,2.1H319.4
		c-1.5,0-3-0.8-3.8-2.1c-0.1-0.2-0.3-0.4-0.3-0.7c-0.2-0.5-0.3-1.1-0.3-1.6v-2c0-2.5,2-4.4,4.4-4.4l0,0h8.4v-0.9
		c0-0.1,0.1-0.2,0.2-0.2l0,0h4.4c0.1,0,0.2,0.1,0.2,0.2l0,0v0.9h2.8v-0.9c0-0.1,0.1-0.2,0.2-0.2l0,0h4.4c0.1,0,0.2,0.1,0.2,0.2l0,0
		v0.9h2.8v-0.9c0-0.1,0.1-0.2,0.2-0.2l0,0h4.4c0.1,0,0.2,0.1,0.2,0.2l0,0v0.9h2.8v-0.9c0-0.1,0.1-0.2,0.2-0.2l0,0h4.4
		c0.1,0,0.2,0.1,0.2,0.2l0,0v0.9h2.8v-0.9c0-0.1,0.1-0.2,0.2-0.2l0,0h4.4c0.1,0,0.2,0.1,0.2,0.2l0,0v0.9h2.8v-0.9
		c0-0.1,0.1-0.2,0.2-0.2l0,0h4.4c0.1,0,0.2,0.1,0.2,0.2l0,0v0.9h2.8v-0.9c0-0.1,0.1-0.2,0.2-0.2l0,0H408c0.1,0,0.2,0.1,0.2,0.2l0,0
		v0.9h2.8v-0.9c0-0.1,0.1-0.2,0.2-0.2l0,0h4.4c0.1,0,0.2,0.1,0.2,0.2v0.9h2.8v-0.9c0-0.1,0.1-0.2,0.2-0.2l0,0h4.4
		c0.1,0,0.2,0.1,0.2,0.2l0,0v0.9h2.8v-0.9c0-0.1,0.1-0.2,0.2-0.2l0,0h4.4c0.1,0,0.2,0.1,0.2,0.2l0,0v0.9h2.8v-0.9
		c0-0.1,0.1-0.2,0.2-0.2l0,0h4.4c0.1,0,0.2,0.1,0.2,0.2v0.9h2.8v-0.9c0-0.1,0.1-0.2,0.2-0.2l0,0h4.4c0.1,0,0.2,0.1,0.2,0.2l0,0v0.9
		h2.8v-0.9c0-0.1,0.1-0.2,0.2-0.2l0,0h4.4c0.1,0,0.2,0.1,0.2,0.2l0,0v0.9h12.9C468.6,339.6,470.5,341.6,470.5,344.1L470.5,344.1z"/>
	<path class="st17" d="M458.7,260H404v-1.1h-24.8v1.1h-54.9c-2,0-3.7,1.6-3.7,3.7l0,0v74.9c0,2,1.6,3.7,3.7,3.7l0,0h134.4
		c2,0,3.7-1.6,3.7-3.7l0,0v-74.8C462.4,261.7,460.7,260,458.7,260L458.7,260z"/>
	<circle class="st16" cx="389" cy="289.1" r="8.2"/>
	<circle class="st16" cx="147.7" cy="211.8" r="12"/>
	<path class="st16" d="M151.1,200.2c6.6,0,12,5.4,12,12c0,2-0.5,3.9-1.4,5.7c4.1-5.2,3.3-12.7-1.9-16.8c-5.2-4.1-12.7-3.3-16.8,1.9
		c-0.5,0.6-0.9,1.2-1.2,1.8C144,201.8,147.4,200.2,151.1,200.2z"/>
	<circle class="st16" cx="125.4" cy="176.7" r="35.1"/>
	<path class="st16" d="M97.8,154.9c12.6-14.2,34.1-15.8,48.7-3.7c-0.3-0.3-0.6-0.6-0.9-0.8c-14.5-12.9-36.7-11.6-49.6,2.9
		c-12.9,14.5-11.6,36.7,2.9,49.6c0.3,0.3,0.6,0.5,0.9,0.8C86.2,190.6,85.2,169,97.8,154.9z"/>
	<circle class="st13" cx="125.1" cy="188.8" r="22.6"/>
	<path class="st13" d="M109,196c0,0,3,27.4-1.8,30.4c-4.8,3,27.4,7.2,27.4,7.2s-4.8-29.8,7.2-37.5L109,196z"/>
	<path class="st15" d="M137.6,221.6c0,0,8.8-4.1-3.9-2.7c-12.7,1.5-23.8-4.2-23.8-4.2s-3.9-3.9-4.5,0.3c-0.6,4.2,1.8,11.9-11.3,13.1
		s-25-2.4-29.8,6.5S62,282.3,62,282.3s9,32.2,16.1,36.9s69.7-1.8,69.7-1.8l17.9-32.2v-37.5c0,0-2.4-13.1-19.1-9.5
		c0,0-10.7-2.4-10.1-7.7C137,225.1,137.6,221.6,137.6,221.6z"/>
	<path class="st16" d="M80.4,342c0.4-1.6,0.6-2.5,0.6-2.5l-0.2-1.3l-1.9-13.3l-0.8-5.6c7.2-3,9-16.7,9-16.7l0.3-0.2l1.2-0.7l0,0
		l4.4-2.6l0.1-0.1l1.8,1.2l3.6,2.4c9.5,7.1,21.6,9.9,33.2,7.6c2.7-0.5,5.3-1.2,7.8-2.3l8.6-2.9l0.3-0.1l0.3,0.1l5.1,0.8h0.1l0.4,0.1
		l-1.2,8.1l-1.7,11.8c4.5,2.4,8.5,6.9,12,12.4c0.8,1.2,1.5,2.5,2.3,3.8c1,1.7,1.8,3.5,2.7,5.3c0.1,0.2,0.2,0.5,0.3,0.7
		c0.3,0.7,0.7,1.4,1,2.1H78.8c0.1-0.7,0.3-1.4,0.4-2.1v-0.1c0.1-0.2,0.1-0.5,0.1-0.7C79.7,345.2,80.1,343.4,80.4,342z"/>
	<circle class="st15" cx="91.5" cy="301.7" r="3"/>
	<circle class="st15" cx="151" cy="304.7" r="3"/>
	<polygon class="st16" points="105.7,160.5 105.7,183.2 111,183.2 117.7,176 116.7,183.2 139.9,183.2 138.5,176 141.3,183.2 
		145,183.2 145,160.5 	"/>
	<ellipse class="st13" cx="102.2" cy="184.1" rx="1.8" ry="3.3"/>
	<ellipse class="st13" cx="148.1" cy="184.1" rx="1.8" ry="3.3"/>
	<path class="st18" d="M160.2,304.4c0,0-27.1-5.1-28.9,3.9c-1.8,9,30.1,5.1,30.1,5.1L160.2,304.4z"/>
	<path class="st15" d="M159.7,243.1c0,0,64.9,51.8,53,64.3c-11.9,12.5-57.2,9-57.2,9l3-14.9l26.2-3l-13.1-13.1l-11.9,1.2
		L159.7,243.1z"/>
	<path class="st18" d="M63.8,329.4l8.3,6.5c0,0,5.9,18.5,14.9,13.1s-8.3-24.4-8.3-24.4l-10.1-3.6L63.8,329.4z"/>
	<path class="st15" d="M72.1,233.5l-8.3,2.5c0,0-57.8,42.8-60.2,54.7C1.2,302.6,15,309.1,15,309.1l51.8,24.4l5.4-14.3l-24.4-12.5
		c0,0,1.8-3.6-5.4-4.1s-8.3-8.3-8.3-8.3s14.3-22,22-17.3c7.8,4.8,10.1,8.3,10.1,8.3L72.1,233.5z"/>
	<path class="st17" d="M190.7,344.1v2c0,0.6-0.1,1.1-0.3,1.6c-0.1,0.2-0.2,0.5-0.3,0.7c-0.8,1.3-2.3,2.1-3.8,2.1H39.5
		c-1.5,0-3-0.8-3.8-2.1c-0.1-0.2-0.3-0.4-0.3-0.7c-0.2-0.5-0.3-1.1-0.3-1.6v-2c0-2.5,2-4.4,4.4-4.4l0,0h8.4v-0.9
		c0-0.1,0.1-0.2,0.2-0.2l0,0h4.4c0.1,0,0.2,0.1,0.2,0.2l0,0v0.9h2.8v-0.9c0-0.1,0.1-0.2,0.2-0.2l0,0h4.4c0.1,0,0.2,0.1,0.2,0.2l0,0
		v0.9h2.8v-0.9c0-0.1,0.1-0.2,0.2-0.2l0,0h4.4c0.1,0,0.2,0.1,0.2,0.2l0,0v0.9h2.8v-0.9c0-0.1,0.1-0.2,0.2-0.2l0,0h4.4
		c0.1,0,0.2,0.1,0.2,0.2l0,0v0.9h2.8v-0.9c0-0.1,0.1-0.2,0.2-0.2l0,0h4.4c0.1,0,0.2,0.1,0.2,0.2l0,0v0.9h2.8v-0.9
		c0-0.1,0.1-0.2,0.2-0.2l0,0h4.4c0.1,0,0.2,0.1,0.2,0.2l0,0v0.9h2.8v-0.9c0-0.1,0.1-0.2,0.2-0.2l0,0h34.6c0.1,0,0.2,0.1,0.2,0.2l0,0
		v0.9h2.8v-0.9c0-0.1,0.1-0.2,0.2-0.2l0,0h4.4c0.1,0,0.2,0.1,0.2,0.2v0.9h2.8v-0.9c0-0.1,0.1-0.2,0.2-0.2l0,0h4.4
		c0.1,0,0.2,0.1,0.2,0.2l0,0v0.9h2.8v-0.9c0-0.1,0.1-0.2,0.2-0.2l0,0h4.4c0.1,0,0.2,0.1,0.2,0.2l0,0v0.9h2.8v-0.9
		c0-0.1,0.1-0.2,0.2-0.2l0,0h4.4c0.1,0,0.2,0.1,0.2,0.2v0.9h2.8v-0.9c0-0.1,0.1-0.2,0.2-0.2l0,0h4.4c0.1,0,0.2,0.1,0.2,0.2l0,0v0.9
		h2.8v-0.9c0-0.1,0.1-0.2,0.2-0.2l0,0h4.4c0.1,0,0.2,0.1,0.2,0.2l0,0v0.9h12.9C188.7,339.6,190.7,341.6,190.7,344.1L190.7,344.1z"/>
	<path class="st17" d="M178.9,260h-54.7v-1.1H99.4v1.1H44.5c-2,0-3.7,1.6-3.7,3.7v74.9c0,2,1.6,3.7,3.7,3.7h134.4
		c2,0,3.7-1.6,3.7-3.7v-74.8C182.6,261.7,180.9,260,178.9,260z"/>
	<circle class="st16" cx="109.1" cy="289.1" r="8.2"/>
	<rect x="9.4" y="348" class="st19" width="485.9" height="1"/>
</g>
</svg>
