<svg xmlns="http://www.w3.org/2000/svg" width="36" height="37" fill="none" xmlns:v="https://vecta.io/nano"><path d="M27 4.548H3.115A3.12 3.12 0 0 0 0 7.663V18.74a3.12 3.12 0 0 0 3.115 3.115h2.769v5.885a1.04 1.04 0 0 0 .563.923c.15.077.313.115.475.115a1.04 1.04 0 0 0 .604-.193l9.421-6.73H27a3.12 3.12 0 0 0 3.115-3.115V7.663A3.12 3.12 0 0 0 27 4.548zM6.288 10.26h11.077a1.04 1.04 0 0 1 1.038 1.039 1.04 1.04 0 0 1-1.038 1.038H6.288a1.04 1.04 0 0 1-1.038-1.038 1.04 1.04 0 0 1 1.038-1.039zm16.904 6.231H6.288a1.04 1.04 0 0 1-1.038-1.039 1.04 1.04 0 0 1 1.038-1.038h16.904a1.04 1.04 0 0 1 1.038 1.038 1.04 1.04 0 0 1-1.038 1.039z" fill="#ff6b00"/><path d="M34.961 12.856h-2.769v5.885A5.2 5.2 0 0 1 27 23.933h-9.386l-3.42 2.443a1.04 1.04 0 0 0 1.037 1.018h9.328l6.639 5.311c.188.15.417.228.649.227.153 0 .307-.034.45-.102a1.04 1.04 0 0 0 .588-.936v-4.5h2.077A1.04 1.04 0 0 0 36 26.356V13.894a1.04 1.04 0 0 0-1.038-1.038z" fill="#434343"/></svg>