<svg xmlns="http://www.w3.org/2000/svg" viewBox="0 0 36 37" xmlns:v="https://vecta.io/nano"><path d="M33.6 18.2c-.2-.3-.5-.5-.9-.5-1.9 0-3.6 1-4.4 2.7L25 26.5c-.5 1-1.6 1.7-2.8 1.7H15a1.11 1.11 0 0 1-1.1-1.1A1.11 1.11 0 0 1 15 26h7.2c.4 0 .8-.2.9-.6.2-.3.7-1.4 1.2-2.3.1-.3.1-.6 0-.9-.2-.3-.5-.4-.8-.4h-11c-1.4 0-2.7.5-3.7 1.5l-6.2 6.2a1.09 1.09 0 0 0 0 1.5l5.3 5.3a1.08 1.08 0 0 0 .7.3 1.08 1.08 0 0 0 .7-.3l4-4h8.8c2.8 0 5.3-1.5 6.5-4l4.9-9.3c.3-.1.3-.5.1-.8z" fill="#434343"/><path d="M28.5 7.7c-.2-.1-.4-.2-.6-.2l-5-.7-2.3-4.5c-.2-.4-.7-.7-1.2-.7s-.9.3-1.2.7L16 6.9l-5 .8c-.5.1-.9.4-1 .9s0 1 .3 1.3l3.7 3.5-.8 5a1.3 1.3 0 0 0 .5 1.3c.4.3.9.3 1.4.1l4.5-2.4 4.5 2.3c.4.2 1 .2 1.4-.1a1.3 1.3 0 0 0 .5-1.3l-.9-5 3.6-3.6c.4-.4.5-.9.3-1.3-.1-.3-.2-.5-.5-.7z" fill="#ff6b00"/></svg>