<svg xmlns="http://www.w3.org/2000/svg" width="29" height="37" fill="none" xmlns:v="https://vecta.io/nano"><path d="M15.527 10.166l-6.75-9.001c-.424-.567-1.376-.567-1.8 0l-6.75 9.001a1.13 1.13 0 0 0 .9 1.8h3.375v21.376c0 .622.503 1.125 1.125 1.125h4.5c.622 0 1.11-.503 1.11-1.125V11.966h3.39a1.13 1.13 0 0 0 .9-1.8z" fill="#ff6b00"/><path d="M15.208 21.898h3.099v13.814c0 .568.446 1.028 1.015 1.028h4.113a1.03 1.03 0 0 0 1.028-1.028V21.899h3.085a1.03 1.03 0 0 0 .822-1.645l-6.17-8.226a1.03 1.03 0 0 0-1.645 0l-6.17 8.226a1.03 1.03 0 0 0 .822 1.645z" fill="#434343"/></svg>