<svg xmlns="http://www.w3.org/2000/svg" width="36" height="37" fill="none" xmlns:v="https://vecta.io/nano"><path d="M15.891 25.499h-1.405c-.537-1.125-.47-.976-1.165-1.979l.705-1.219c.291-.504.119-1.15-.386-1.441l-1.827-1.055c-.504-.291-1.149-.118-1.44.386l-.695 1.204-1.169-.082c-.335 0-.787.048-1.169.082l-.695-1.204c-.291-.504-.936-.677-1.44-.386l-1.828 1.054c-.505.291-.678.937-.386 1.441l.705 1.22c-.703 1.016-.635.869-1.165 1.979H1.055c-.582 0-1.055.503-1.055 1.085v2.109c0 .582.472 1.01 1.055 1.01H2.53c.537 1.125.47 1.051 1.165 2.054l-.705 1.219c-.292.505-.119 1.15.386 1.441l1.827 1.055c.504.291 1.149.118 1.441-.386l.695-1.204 1.169.082c.335 0 .787-.048 1.169-.082l.695 1.204c.291.504.936.677 1.44.386l1.828-1.054c.505-.291.678-.937.386-1.441l-.705-1.22c.703-1.016.635-.944 1.165-2.054h1.405c.582 0 1.055-.428 1.055-1.01v-2.109c0-.582-.472-1.085-1.055-1.085zm-7.383 5.304a3.17 3.17 0 0 1-3.164-3.164 3.17 3.17 0 0 1 3.164-3.164 3.17 3.17 0 0 1 3.164 3.164 3.17 3.17 0 0 1-3.164 3.164z" fill="#434343"/><path d="M34.945 25.499H33.47c-.537-1.125-.47-.976-1.165-1.979l.705-1.219c.292-.504.119-1.15-.386-1.441l-1.827-1.055c-.504-.291-1.149-.118-1.44.386l-.695 1.204-1.169-.082c-.335 0-.787.048-1.169.082l-.695-1.204c-.291-.504-.936-.677-1.44-.386l-1.828 1.054c-.505.291-.678.937-.386 1.441l.705 1.22c-.703 1.016-.635.869-1.165 1.979H20.11c-.582 0-1.055.503-1.055 1.085v2.109c0 .582.472 1.01 1.055 1.01h1.405c.537 1.125.47 1.051 1.165 2.054l-.705 1.219c-.291.505-.119 1.15.386 1.441l1.827 1.055c.504.291 1.149.118 1.441-.386l.695-1.204 1.169.082c.335 0 .787-.048 1.169-.082l.695 1.204c.291.504.936.677 1.44.386l1.828-1.054c.505-.291.678-.937.386-1.441l-.705-1.22c.703-1.016.635-.944 1.165-2.054h1.475c.582 0 1.055-.428 1.055-1.01v-2.109c0-.582-.472-1.085-1.055-1.085zm-7.453 5.304a3.17 3.17 0 0 1-3.164-3.164 3.17 3.17 0 0 1 3.164-3.164 3.17 3.17 0 0 1 3.164 3.164 3.17 3.17 0 0 1-3.164 3.164zM15.891 7.701h-1.405c-.537-1.125-.47-.976-1.165-1.979l.705-1.219c.291-.504.119-1.15-.386-1.441l-1.827-1.055c-.504-.291-1.149-.118-1.44.386l-.695 1.204-1.169-.082c-.335 0-.787.048-1.169.082l-.695-1.204c-.291-.504-.936-.677-1.44-.386l-1.83 1.054c-.505.291-.678.937-.386 1.441l.705 1.22c-.703 1.016-.635.869-1.165 1.979H1.055C.472 7.701 0 8.204 0 8.787v2.109c0 .582.472 1.024 1.055 1.024H2.53c.537 1.125.47 1.037 1.165 2.04l-.705 1.219c-.292.504-.119 1.15.386 1.441l1.827 1.055c.504.291 1.149.118 1.441-.386l.695-1.204 1.169.082c.335 0 .787-.048 1.169-.082l.695 1.204c.291.504.936.677 1.44.386l1.828-1.054c.505-.291.678-.937.386-1.441l-.705-1.22c.703-1.016.635-.93 1.165-2.04h1.405c.582 0 1.055-.442 1.055-1.024v-2.11c0-.582-.472-1.085-1.055-1.085zm-7.383 5.304a3.17 3.17 0 0 1-3.164-3.164 3.17 3.17 0 0 1 3.164-3.164 3.17 3.17 0 0 1 3.164 3.164 3.17 3.17 0 0 1-3.164 3.164zm26.437-5.304H33.47c-.537-1.125-.47-.976-1.165-1.979l.705-1.219c.292-.504.119-1.15-.386-1.441l-1.827-1.055c-.504-.291-1.149-.118-1.44.386l-.695 1.204-1.169-.082c-.335 0-.787.048-1.169.082l-.695-1.204c-.291-.504-.936-.677-1.44-.386L22.36 3.061c-.505.291-.678.937-.386 1.441l.705 1.22c-.703 1.016-.634.869-1.165 1.979h-1.405c-.582 0-1.055.503-1.055 1.085v2.109c0 .582.472 1.024 1.055 1.024h1.405c.537 1.125.47 1.037 1.165 2.04l-.705 1.219c-.291.504-.119 1.15.386 1.441l1.827 1.055c.504.291 1.149.118 1.441-.386l.695-1.204 1.169.082c.335 0 .787-.048 1.169-.082l.695 1.204c.291.504.936.677 1.44.386l1.828-1.054c.505-.291.678-.937.386-1.441l-.705-1.22c.703-1.016.635-.93 1.165-2.04h1.475c.582 0 1.055-.442 1.055-1.024V8.787c0-.582-.472-1.085-1.055-1.085zm-7.453 5.304a3.17 3.17 0 0 1-3.164-3.164 3.17 3.17 0 0 1 3.164-3.164 3.17 3.17 0 0 1 3.164 3.164 3.17 3.17 0 0 1-3.164 3.164z" fill="#ff6b00"/></svg>