<?xml version="1.0" encoding="utf-8"?>
<!-- Generator: Adobe Illustrator 23.0.3, SVG Export Plug-In . SVG Version: 6.00 Build 0)  -->
<svg version="1.1" id="Layer_1" xmlns="http://www.w3.org/2000/svg" xmlns:xlink="http://www.w3.org/1999/xlink" x="0px" y="0px"
	 viewBox="0 0 1920 1044.8" style="enable-background:new 0 0 1920 1044.8;" xml:space="preserve">
<style type="text/css">
	.st0{fill:#FFE1CC;}
	.st1{fill:none;stroke:#FFB988;stroke-width:2;}
	.st2{clip-path:url(#SVGID_2_);}
	.st3{fill:#FF6B00;}
	.st4{clip-path:url(#SVGID_4_);}
	.st5{fill:#FF6B00;filter:url(#Adobe_OpacityMaskFilter);}
	.st6{mask:url(#mask0_1_);}
	.st7{opacity:0.3;fill:#F5520C;fill-opacity:0.7;enable-background:new    ;}
	.st8{fill:url(#SVGID_5_);fill-opacity:0.5;}
	.st9{fill:none;stroke:#FF8A00;stroke-width:4;stroke-opacity:0.4;}
</style>
<path class="st0" d="M-184.8,120.4c-26-38.4-0.7-90.4,45.5-93.8L95.3,9.8c46.2-3.3,78.7,44.6,58.5,86.3L51.1,307.7
	c-20.2,41.7-78,45.8-104,7.5L-184.8,120.4z"/>
<path class="st1" d="M133.9,36.5l-234.6,16.9c-45.7,3.3-70.7,54.8-45,92.7l131.9,194.7C11.9,378.8,69,374.7,89,333.5l102.7-211.6
	C211.7,80.7,179.6,33.2,133.9,36.5z M-100.8,52.7c-46.2,3.3-71.5,55.4-45.5,93.8l131.9,194.7c26,38.4,83.7,34.2,104-7.5l102.7-211.6
	c20.2-41.7-12.3-89.6-58.5-86.3L-100.8,52.7z"/>
<g>
	<defs>
		<rect id="SVGID_1_" y="106.8" width="1920" height="938"/>
	</defs>
	<clipPath id="SVGID_2_">
		<use xlink:href="#SVGID_1_"  style="overflow:visible;"/>
	</clipPath>
	<g class="st2">
		<path class="st3" d="M102.1,876.1c-45.7-4.1-82.1-39.8-87-85.4l-63.6-593.1l1977.1-83.5v924.2L102.1,876.1z"/>
		<g>
			<defs>
				<rect id="SVGID_3_" y="116.6" width="1920" height="910"/>
			</defs>
			<clipPath id="SVGID_4_">
				<use xlink:href="#SVGID_3_"  style="overflow:visible;"/>
			</clipPath>
			<g class="st4">
				<defs>
					<filter id="Adobe_OpacityMaskFilter" filterUnits="userSpaceOnUse" x="1371.6" y="116.5" width="943.2" height="909.7">
						<feColorMatrix  type="matrix" values="1 0 0 0 0  0 1 0 0 0  0 0 1 0 0  0 0 0 1 0"/>
					</filter>
				</defs>
				<mask maskUnits="userSpaceOnUse" x="1371.6" y="116.5" width="943.2" height="909.7" id="mask0_1_">
					<path class="st5" d="M585.5,918.5c-42.6-3.8-77.6-35.4-85.7-77.4L398.6,316.8c-13.9-72,39.5-139.5,112.8-142.6L1921,114.6v923
						L585.5,918.5z"/>
				</mask>
				<g class="st6">
					<path class="st7" d="M2218.6,620.3h-112.3l21.4-122.8h90.9c48.1,0,85.6-37.4,85.6-85.4s-37.4-85.4-85.6-85.4h-64.2l21.4-112.1
						c10.7-42.7-21.4-85.4-69.5-96.1c-42.8-10.7-85.6,21.4-96.3,69.4l-26.7,138.8h-165.8l21.4-112.1c10.7-42.7-21.4-85.4-69.5-96.1
						c-42.8-10.7-85.6,21.4-96.3,69.4l-26.8,138.8h-144.4c-48.1,0-85.6,37.4-85.6,85.4s48.1,85.4,96.3,85.4h112.3l-21.4,122.8h-90.9
						c-48.1,0-85.6,37.4-85.6,85.4c0,48,37.4,85.4,85.6,85.4h64.2l-21.4,112.1c-10.7,42.7,21.4,85.4,69.5,96.1
						c32.1,10.7,85.6-16,96.3-69.4l26.7-138.8h165.8l-21.4,112.1c-10.7,42.7,21.4,85.4,69.5,96.1c32.1,10.7,85.6-16,96.3-69.4
						l26.8-138.8h144.4c48.1,0,85.6-37.4,85.6-85.4C2298.8,657.7,2261.4,620.3,2218.6,620.3z M1935.1,620.3h-165.8l21.4-122.8h165.8
						L1935.1,620.3z"/>
					
						<linearGradient id="SVGID_5_" gradientUnits="userSpaceOnUse" x1="1821.4701" y1="1009.6326" x2="1821.4701" y2="124.4472" gradientTransform="matrix(1 0 0 -1 0 1150.6801)">
						<stop  offset="0" style="stop-color:#FF9900"/>
						<stop  offset="1" style="stop-color:#FF6B00"/>
					</linearGradient>
					<path class="st8" d="M2174.9,644.9h-112.5l21.4-122.8h91c48.2,0,85.7-37.4,85.7-85.4c0-48-37.5-85.4-85.7-85.4h-64.3
						l21.4-112.1c10.7-42.7-21.4-85.4-69.6-96.1c-42.8-10.7-85.7,21.4-96.4,69.4l-26.8,138.8h-166l21.4-112.1
						c10.7-42.7-21.4-85.4-69.6-96.1c-42.8-10.7-85.7,21.4-96.4,69.4l-26.8,138.8h-144.6c-48.2,0-85.7,37.4-85.7,85.4
						c0,48,48.2,85.4,96.4,85.4h112.5l-21.4,122.8h-91c-48.2,0-85.7,37.4-85.7,85.4c0,48,37.5,85.4,85.7,85.4h64.3l-21.4,112.1
						c-10.7,42.7,21.4,85.4,69.6,96.1c32.1,10.7,85.7-16,96.4-69.4l26.8-138.8h166l-21.4,112.1c-10.7,42.7,21.4,85.4,69.6,96.1
						c32.1,10.7,85.7-16,96.4-69.4l26.8-138.8h144.6c48.2,0,85.7-37.4,85.7-85.4C2255.3,682.3,2217.8,644.9,2174.9,644.9z
						 M1891.1,644.9h-166l21.4-122.8h166L1891.1,644.9z"/>
					<path class="st9" d="M2060.5,644.6l-0.4,2.3h2.4h112.5c41.5,0,78.4,36.3,94.4,83.7c-0.2,46.8-36.7,83.1-83.7,83.1H2041h-1.7
						l-0.3,1.6l-26.8,138.8c0,0,0,0,0,0c-5.2,26.1-21,45.7-39.3,57.4c-18.4,11.8-39.2,15.6-54.5,10.5l-0.1,0l-0.1,0
						c-47.4-10.5-78.5-52.3-68.1-93.6l0-0.1l0-0.1l21.4-112.1l0.4-2.4h-2.4h-166h-1.7l-0.3,1.6l-26.8,138.8c0,0,0,0,0,0
						c-5.2,26.1-20.9,45.7-39.3,57.4c-18.4,11.8-39.2,15.6-54.5,10.5l-0.1,0l-0.1,0c-47.4-10.5-78.5-52.3-68.1-93.6l0-0.1l0-0.1
						l21.4-112.1l0.5-2.4h-2.4H1468c-47.1,0-83.7-36.5-83.7-83.4c0-46.9,36.6-83.4,83.7-83.4h91h1.7l0.3-1.7l21.4-122.8l0.4-2.3
						h-2.4H1468c-23.6,0-47.3-9.2-65-24.2c-17.7-15-29.4-35.9-29.4-59.2c0-46.9,36.6-83.4,83.7-83.4h144.6h1.7l0.3-1.6l26.8-138.8
						c10.5-47.2,52.5-78.2,94-67.9l0,0l0,0c47.4,10.5,78.5,52.3,68.1,93.6l0,0.1l0,0.1l-21.4,112.1l-0.5,2.4h2.4h166h1.6l0.3-1.6
						l26.8-138.7c0,0,0,0,0,0c10.5-47.2,52.5-78.2,93.9-67.9l0,0l0,0c47.4,10.5,78.5,52.3,68.1,93.6l0,0.1l0,0.1l-21.4,112.1
						l-0.4,2.4h2.4h64.3c47.1,0,83.7,36.5,83.7,83.4c0,46.9-36.6,83.4-83.7,83.4h-91h-1.7l-0.3,1.7L2060.5,644.6z M1891.1,646.9h1.7
						l0.3-1.7l21.4-122.8l0.4-2.3h-2.4h-166h-1.7l-0.3,1.7l-21.4,122.8l-0.4,2.3h2.4H1891.1z"/>
				</g>
			</g>
		</g>
	</g>
</g>
</svg>
