<svg xmlns="http://www.w3.org/2000/svg" xmlns:xlink="http://www.w3.org/1999/xlink" viewBox="0 0 1920 1044.8" xmlns:v="https://vecta.io/nano"><path d="M-184.8 120.4c-26-38.4-.7-90.4 45.5-93.8L95.3 9.8c46.2-3.3 78.7 44.6 58.5 86.3L51.1 307.7c-20.2 41.7-78 45.8-104 7.5l-131.9-194.8z" fill="#ffe1cc"/><path d="M133.9 36.5l-234.6 16.9c-45.7 3.3-70.7 54.8-45 92.7l131.9 194.7c25.7 38 82.8 33.9 102.8-7.3l102.7-211.6c20-41.2-12.1-88.7-57.8-85.4zm-234.7 16.2c-46.2 3.3-71.5 55.4-45.5 93.8l131.9 194.7c26 38.4 83.7 34.2 104-7.5l102.7-211.6c20.2-41.7-12.3-89.6-58.5-86.3l-234.6 16.9z" fill="none" stroke="#ffb988" stroke-width="2"/><defs><path id="A" d="M0 106.8h1920v938H0z"/></defs><clipPath id="B"><use xlink:href="#A"/></clipPath><g clip-path="url(#B)"><path d="M102.1,876.1c-45.7-4.1-82.1-39.8-87-85.4l-63.6-593.1l1977.1-83.5v924.2L102.1,876.1z" fill="#ff6b00"/><defs><path id="C" d="M0 116.6h1920v910H0z"/></defs><clipPath id="D"><use xlink:href="#C"/></clipPath><g clip-path="url(#D)"><defs><filter id="E" filterUnits="userSpaceOnUse" x="1371.6" y="116.5" width="943.2" height="909.7"><feColorMatrix values="1 0 0 0 0  0 1 0 0 0  0 0 1 0 0  0 0 0 1 0"/></filter></defs><mask maskUnits="userSpaceOnUse" x="1371.6" y="116.5" width="943.2" height="909.7" id="F"><path d="M585.5 918.5c-42.6-3.8-77.6-35.4-85.7-77.4L398.6 316.8c-13.9-72 39.5-139.5 112.8-142.6L1921 114.6v923L585.5 918.5z" fill="#ff6b00" filter="url(#E)"/></mask><g mask="url(#F)"><path d="M2218.6 620.3h-112.3l21.4-122.8h90.9c48.1 0 85.6-37.4 85.6-85.4s-37.4-85.4-85.6-85.4h-64.2l21.4-112.1c10.7-42.7-21.4-85.4-69.5-96.1-42.8-10.7-85.6 21.4-96.3 69.4l-26.7 138.8h-165.8l21.4-112.1c10.7-42.7-21.4-85.4-69.5-96.1-42.8-10.7-85.6 21.4-96.3 69.4l-26.8 138.8h-144.4c-48.1 0-85.6 37.4-85.6 85.4s48.1 85.4 96.3 85.4h112.3l-21.4 122.8h-90.9c-48.1 0-85.6 37.4-85.6 85.4s37.4 85.4 85.6 85.4h64.2l-21.4 112.1c-10.7 42.7 21.4 85.4 69.5 96.1 32.1 10.7 85.6-16 96.3-69.4l26.7-138.8h165.8l-21.4 112.1c-10.7 42.7 21.4 85.4 69.5 96.1 32.1 10.7 85.6-16 96.3-69.4l26.8-138.8h144.4c48.1 0 85.6-37.4 85.6-85.4-16.1-48-53.5-85.4-96.3-85.4zm-283.5 0h-165.8l21.4-122.8h165.8l-21.4 122.8z" opacity=".3" fill="#f5520c" fill-opacity=".7" enable-background="new"/><linearGradient id="G" gradientUnits="userSpaceOnUse" x1="1821.47" y1="141.048" x2="1821.47" y2="1026.233"><stop offset="0" stop-color="#f90"/><stop offset="1" stop-color="#ff6b00"/></linearGradient><path d="M2174.9 644.9h-112.5l21.4-122.8h91c48.2 0 85.7-37.4 85.7-85.4s-37.5-85.4-85.7-85.4h-64.3l21.4-112.1c10.7-42.7-21.4-85.4-69.6-96.1-42.8-10.7-85.7 21.4-96.4 69.4l-26.8 138.8h-166l21.4-112.1c10.7-42.7-21.4-85.4-69.6-96.1-42.8-10.7-85.7 21.4-96.4 69.4l-26.8 138.8h-144.6c-48.2 0-85.7 37.4-85.7 85.4s48.2 85.4 96.4 85.4h112.5l-21.4 122.8h-91c-48.2 0-85.7 37.4-85.7 85.4s37.5 85.4 85.7 85.4h64.3l-21.4 112.1c-10.7 42.7 21.4 85.4 69.6 96.1 32.1 10.7 85.7-16 96.4-69.4l26.8-138.8h166l-21.4 112.1c-10.7 42.7 21.4 85.4 69.6 96.1 32.1 10.7 85.7-16 96.4-69.4l26.8-138.8h144.6c48.2 0 85.7-37.4 85.7-85.4-16-48-53.5-85.4-96.4-85.4zm-283.8 0h-166l21.4-122.8h166l-21.4 122.8z" fill="url(#G)" fill-opacity=".5"/><path d="M2060.5 644.6l-.4 2.3h2.4H2175c41.5 0 78.4 36.3 94.4 83.7-.2 46.8-36.7 83.1-83.7 83.1H2041h-1.7l-.3 1.6-26.8 138.8c-5.2 26.1-21 45.7-39.3 57.4-18.4 11.8-39.2 15.6-54.5 10.5h-.1-.1c-47.4-10.5-78.5-52.3-68.1-93.6v-.1-.1l21.4-112.1.4-2.4h-2.4-166-1.7l-.3 1.6-26.8 138.8c-5.2 26.1-20.9 45.7-39.3 57.4-18.4 11.8-39.2 15.6-54.5 10.5h-.1-.1c-47.4-10.5-78.5-52.3-68.1-93.6v-.1-.1l21.4-112.1.5-2.4h-2.4-64.1c-47.1 0-83.7-36.5-83.7-83.4s36.6-83.4 83.7-83.4h91 1.7l.3-1.7 21.4-122.8.4-2.3h-2.4H1468c-23.6 0-47.3-9.2-65-24.2s-29.4-35.9-29.4-59.2c0-46.9 36.6-83.4 83.7-83.4h144.6 1.7l.3-1.6 26.8-138.8c10.5-47.2 52.5-78.2 94-67.9h0 0c47.4 10.5 78.5 52.3 68.1 93.6v.1.1l-21.4 112.1-.5 2.4h2.4 166 1.6l.3-1.6L1968 213c10.5-47.2 52.5-78.2 93.9-67.9h0 0c47.4 10.5 78.5 52.3 68.1 93.6v.1.1L2108.6 351l-.4 2.4h2.4 64.3c47.1 0 83.7 36.5 83.7 83.4s-36.6 83.4-83.7 83.4h-91-1.7l-.3 1.7-21.4 122.7zm-169.4 2.3h1.7l.3-1.7 21.4-122.8.4-2.3h-2.4-166-1.7l-.3 1.7-21.4 122.8-.4 2.3h2.4 166z" fill="none" stroke="#ff8a00" stroke-width="4" stroke-opacity=".4"/></g></g></g></svg>