<svg xmlns="http://www.w3.org/2000/svg" width="36" height="37" fill="none" xmlns:v="https://vecta.io/nano"><g clip-path="url(#A)"><path d="M7.899 28.285H5.203c-2.132 0-3.867-1.735-3.867-3.867v-6.109c0-2.132 1.735-3.867 3.867-3.867h2.696A1.76 1.76 0 0 1 9.657 16.2v10.328a1.76 1.76 0 0 1-1.758 1.758z" fill="#ff6b00"/><path d="M17.854.74A12.24 12.24 0 0 0 5.65 12.333h2.114C8.089 7.049 12.49 2.85 17.855 2.85s9.769 4.203 10.091 9.489c.071-.004.143-.006.215-.006h1.898A12.24 12.24 0 0 0 17.854.74z" fill="#434343"/><path d="M30.857 28.285h-2.696a1.76 1.76 0 0 1-1.758-1.758V16.2a1.76 1.76 0 0 1 1.758-1.758h2.696c2.132 0 3.867 1.735 3.867 3.867v6.109c0 2.132-1.735 3.867-3.867 3.867z" fill="#ff6b00"/><g fill="#434343"><path d="M24.088 34.627h-3.381c-.582 0-1.055-.472-1.055-1.055s.473-1.055 1.055-1.055h3.381c2.138 0 3.877-1.739 3.877-3.877v-1.41c0-.583.472-1.055 1.055-1.055s1.055.472 1.055 1.055v1.41c0 3.301-2.685 5.986-5.986 5.986z"/><path d="M18.03 36.74c-2.058 0-3.732-1.421-3.732-3.168s1.674-3.168 3.732-3.168 3.732 1.421 3.732 3.168-1.674 3.168-3.732 3.168zm-3.194-25c1.365 0 2.741.859 2.741 2.435 0 2.553-3.635 3.389-3.635 4.459v.106h3.082c.294 0 .553.365.553.788s-.259.812-.553.812h-4.188c-.329 0-.8-.224-.8-.565v-1.142c0-1.847 3.706-2.906 3.706-4.4 0-.377-.235-.835-.894-.835-.47 0-.882.235-.882.883 0 .341-.365.671-.965.671-.47 0-.823-.212-.823-.953 0-1.435 1.318-2.259 2.659-2.259zm6.589 6.788h-2.753c-.341 0-.612-.223-.612-.635a.75.75 0 0 1 .094-.353l2.718-5.33c.177-.341.47-.471.765-.471.318 0 .918.271.918.694 0 .071-.024.141-.059.224l-2.082 4.177h1.012v-.823c0-.388.459-.553.918-.553s.918.165.918.553v.823h.506c.377 0 .565.424.565.847s-.282.847-.565.847h-.506v1.247c0 .376-.459.565-.918.565s-.918-.188-.918-.565v-1.247z"/></g></g><defs><clipPath id="A"><path fill="#fff" transform="translate(0 .74)" d="M0 0h36v36H0z"/></clipPath></defs></svg>