<svg xmlns="http://www.w3.org/2000/svg" width="36" height="37" fill="none" xmlns:v="https://vecta.io/nano"><g clip-path="url(#A)"><g fill="#434343"><path d="M30.803 19.958h-2.784a7.24 7.24 0 0 1 .439 2.489V32.97c0 .364-.063.714-.179 1.039h4.603c1.719 0 3.118-1.399 3.118-3.118v-5.736c0-2.865-2.331-5.197-5.197-5.197zm-23.261 2.49a7.24 7.24 0 0 1 .439-2.489H5.197C2.331 19.958 0 22.289 0 25.155v5.736c0 1.719 1.399 3.118 3.118 3.118h4.603a3.11 3.11 0 0 1-.179-1.039V22.448z"/></g><g fill="#ff6b00"><path d="M21.183 17.251h-6.365c-2.866 0-5.197 2.331-5.197 5.197V32.97a1.04 1.04 0 0 0 1.039 1.039h14.68a1.04 1.04 0 0 0 1.039-1.039V22.448c0-2.866-2.331-5.197-5.197-5.197zM18 3.471a6.26 6.26 0 0 0-6.25 6.25c0 2.338 1.29 4.379 3.195 5.451a6.21 6.21 0 0 0 6.109 0c1.905-1.072 3.196-3.113 3.196-5.451A6.26 6.26 0 0 0 18 3.471z"/></g><g fill="#434343"><path d="M7.025 9.296a4.68 4.68 0 0 0-4.674 4.674 4.68 4.68 0 0 0 4.674 4.674 4.65 4.65 0 0 0 1.842-.379 4.7 4.7 0 0 0 2.283-2.1c.35-.655.549-1.402.549-2.196a4.68 4.68 0 0 0-4.674-4.674zm21.95 0a4.68 4.68 0 0 0-4.674 4.674c0 .793.199 1.541.549 2.196a4.7 4.7 0 0 0 2.283 2.1 4.65 4.65 0 0 0 1.842.379 4.68 4.68 0 0 0 4.674-4.674 4.68 4.68 0 0 0-4.674-4.674z"/></g></g><defs><clipPath id="A"><path fill="#fff" transform="translate(0 .74)" d="M0 0h36v36H0z"/></clipPath></defs></svg>