<svg width="40" height="29" viewBox="0 0 40 29" fill="none" xmlns="http://www.w3.org/2000/svg">
<path d="M40 15.135C40 16.3623 39.0293 17.3572 37.832 17.3572H31.6376L35.6438 25.5697C36.3645 27.0472 35.3163 28.7857 33.7046 28.7857H30.1901C29.369 28.7857 28.6182 28.3102 28.251 27.5573L23.5042 17.8264C23.3536 17.5178 23.2753 17.1776 23.2753 16.8326V2.43658C23.2753 1.20928 24.2459 0.214355 25.4433 0.214355H37.832C39.0293 0.214355 40 1.20928 40 2.43658V15.135Z" fill="white"/>
<path d="M15.5323 0.214355C16.7297 0.214355 17.7004 1.20928 17.7004 2.43658V15.135C17.7004 16.3623 16.7297 17.3572 15.5323 17.3572H9.33799L13.3441 25.5697C14.0649 27.0472 13.0167 28.7857 11.405 28.7857H7.89048C7.0693 28.7857 6.3186 28.3102 5.95135 27.5573L1.20452 17.8264C1.054 17.5178 0.975632 17.1776 0.975632 16.8326V2.43658C0.975632 1.20928 1.94629 0.214355 3.14365 0.214355H15.5323Z" fill="white"/>
</svg>
