<svg width="769" height="557" viewBox="0 0 769 557" fill="none" xmlns="http://www.w3.org/2000/svg">
<path opacity="0.13" d="M695.5 487L623.933 480.119C619.693 479.711 615.588 478.405 611.893 476.288L463 391L554.946 332.902L695.5 487Z" fill="#342EAD"/>
<path d="M684.226 208.023L695.475 487.452L493.158 370.561L505.385 104.664L684.226 208.023Z" fill="#9DBD32"/>
<path d="M505.386 104.664L548.588 88.5239L578.911 61.9504L757.752 165.31L684.227 208.023L505.386 104.664Z" fill="#D7D7D7"/>
<path d="M684.226 208.023L706.234 179.004L757.751 165.31L769 444.738L730.525 450.77L695.474 487.452L684.226 208.023Z" fill="#71A03D"/>
<path d="M706.234 179.004L730.525 450.77L695.474 487.451L684.226 208.023L706.234 179.004Z" fill="#608D2F"/>
<path d="M505.386 104.664L548.588 88.5239L549.403 129.77L505.386 104.664Z" fill="#B9B9B9"/>
<path d="M578.911 61.9504L580.215 146.725L549.403 129.77L548.588 88.5239L578.911 61.9504Z" fill="#C5C5C5"/>
<path d="M553.479 162.864C553.479 166.451 551.36 169.385 548.588 169.385C545.817 169.385 543.697 166.451 543.697 162.864C543.697 159.278 545.817 156.343 548.588 156.343C551.36 156.343 553.479 159.278 553.479 162.864Z" fill="#7E7E7E"/>
<path d="M635.807 211.12C635.807 214.707 633.688 217.642 630.916 217.642C628.308 217.642 626.025 214.707 626.025 211.12C626.025 207.534 628.145 204.599 630.916 204.599C633.688 204.599 635.807 207.534 635.807 211.12Z" fill="#7E7E7E"/>
<path d="M548.914 160.745C550.544 161.886 551.359 163.842 551.033 165.473C550.87 166.288 537.665 222.695 556.576 266.387C561.304 277.309 567.662 284.972 575.813 289.863C575.976 290.026 576.139 290.026 576.302 290.189C587.062 296.384 596.518 296.873 604.18 291.493C629.123 273.886 628.471 212.914 628.471 212.261C628.471 210.468 629.612 209.49 630.916 209.979C631.079 209.979 631.242 210.142 631.242 210.142C632.384 210.794 633.362 212.588 633.362 214.055C633.362 217.152 634.014 278.614 607.277 297.525C598.474 303.72 587.714 303.231 575.324 296.058C575.161 295.895 574.998 295.895 574.672 295.732C565.053 290.026 557.554 280.733 552.011 268.18C531.796 221.717 545.001 165.147 545.653 161.886C546.468 160.582 547.609 160.093 548.914 160.745Z" fill="white"/>
<path d="M619.83 122.597C622.531 122.597 624.721 119.677 624.721 116.076C624.721 112.474 622.531 109.554 619.83 109.554C617.129 109.554 614.939 112.474 614.939 116.076C614.939 119.677 617.129 122.597 619.83 122.597Z" fill="#7E7E7E"/>
<path d="M682.759 148.355C682.759 151.942 680.64 154.876 677.868 154.876C675.26 154.876 672.978 151.942 672.978 148.355C672.978 144.768 675.097 141.834 677.868 141.834C680.64 141.834 682.759 144.768 682.759 148.355Z" fill="#7E7E7E"/>
<path fill-rule="evenodd" clip-rule="evenodd" d="M619.907 113.735C620.479 113.867 620.836 114.438 620.704 115.01C620.305 116.736 620.845 118.428 621.973 120.082C623.102 121.738 624.749 123.245 626.35 124.527C638.503 133.599 651.624 141.049 665.553 146.718L665.554 146.718C667.732 147.606 669.983 148.374 672.132 148.602C674.263 148.828 676.222 148.518 677.906 147.324C678.385 146.985 679.049 147.098 679.388 147.577C679.728 148.056 679.614 148.72 679.135 149.059C676.907 150.638 674.383 150.979 671.908 150.716C669.452 150.455 666.975 149.593 664.752 148.687C650.646 142.946 637.362 135.402 625.064 126.22C625.054 126.213 625.045 126.205 625.036 126.198C623.38 124.874 621.529 123.205 620.216 121.28C618.898 119.347 618.052 117.045 618.632 114.532C618.764 113.96 619.335 113.603 619.907 113.735Z" fill="white"/>
<path d="M564.237 189.438L262.637 16.9549C255.138 12.5531 241.28 19.4003 239.324 27.8777L198.567 225.467C195.959 236.879 193.513 244.215 203.621 250.084L502.124 436.587C509.623 440.989 517.286 436.587 519.242 428.11L568.965 222.043C573.367 204.762 574.345 195.307 564.237 189.438Z" fill="#FF6B00"/>
<path d="M556.576 192.536L255.79 22.9871C248.291 18.5853 238.672 22.824 236.716 31.3015L189.438 234.923C186.83 246.335 184.384 253.671 194.492 259.54L499.19 436.75C506.689 441.152 512.069 433.653 514.189 425.176L561.467 221.554C565.868 204.273 566.683 198.404 556.576 192.536Z" fill="url(#paint0_linear)"/>
<path d="M539.294 204.925L254.812 40.4309L206.066 250.084L490.549 414.742L539.294 204.925Z" fill="white"/>
<path opacity="0.13" d="M0 375.615C0 376.919 0.652109 378.06 1.7933 378.875L186.829 485.821L304.535 553.967C307.307 555.597 310.567 556.412 313.828 556.412C317.088 556.412 320.186 555.597 323.12 553.967L504.407 449.14L186.829 265.408L1.7933 372.354C0.652109 373.006 0 374.311 0 375.615Z" fill="url(#paint1_linear)"/>
<path d="M0 362.573V370.072L0.326055 371.376C0.652109 372.191 1.14119 372.843 1.95633 373.17L304.698 548.424C307.47 550.054 310.73 550.869 313.991 550.869V543.37C310.73 543.37 307.633 542.555 304.698 540.925L1.7933 365.833C0.652109 365.181 0 363.877 0 362.573Z" fill="#FF6B00"/>
<path d="M313.827 543.533V551.032C317.088 551.032 320.185 550.217 323.12 548.587L502.408 444.915C503.645 444.201 504.406 442.881 504.406 441.453V436.261L323.12 541.088C320.185 542.718 317.088 543.533 313.827 543.533Z" fill="#FF6B00"/>
<path d="M0 362.573C0 363.877 0.652109 365.018 1.7933 365.833L186.829 472.942L304.535 541.088C307.307 542.718 310.567 543.533 313.828 543.533C317.088 543.533 320.186 542.718 323.12 541.088L504.407 436.261L186.829 252.366L1.7933 359.475C0.652109 360.127 0 361.431 0 362.573Z" fill="url(#paint2_linear)"/>
<path d="M475.714 431.533L194.818 268.995L96.3496 325.892L377.409 488.593L475.714 431.533Z" fill="url(#paint3_linear)"/>
<path d="M127.161 418.654C127.324 417.676 127.976 416.861 128.954 416.372L177.699 388.331C178.841 387.679 180.308 387.679 181.449 388.331L269.321 439.196C270.299 439.685 270.788 440.5 271.114 441.478C271.44 440.011 270.951 438.217 269.321 437.402L181.286 386.375C180.145 385.723 178.678 385.723 177.536 386.375L128.791 414.416C127.324 415.394 126.835 417.187 127.161 418.654Z" fill="url(#paint4_linear)"/>
<path d="M127.161 418.654C127.324 419.632 127.976 420.447 128.954 420.937L216.826 471.801C217.967 472.453 219.435 472.453 220.576 471.801L269.321 443.597C270.299 443.108 270.788 442.293 271.114 441.315C270.951 440.337 270.299 439.522 269.321 439.033L181.449 388.168C180.308 387.516 178.841 387.516 177.7 388.168L128.954 416.209C127.976 416.861 127.324 417.839 127.161 418.654Z" fill="url(#paint5_linear)"/>
<path d="M171.016 463.65L169.386 464.628L137.759 446.206L139.226 445.391L171.016 463.65Z" fill="url(#paint6_linear)"/>
<mask id="mask0" mask-type="alpha" maskUnits="userSpaceOnUse" x="186" y="252" width="319" height="292">
<path d="M186.83 252.366V472.779L304.536 540.925C307.307 542.555 310.568 543.37 313.828 543.37C317.089 543.37 320.186 542.555 323.121 540.925L504.407 436.098L186.83 252.366Z" fill="url(#paint7_linear)"/>
</mask>
<g mask="url(#mask0)">
</g>
<path d="M364.367 231.357C362.573 230.379 360.454 231.52 359.965 234.128C359.313 236.737 360.291 239.508 362.247 240.486L401.211 261.843C403.004 262.821 405.123 261.68 405.613 259.071C406.265 256.463 405.286 253.692 403.33 252.55L364.367 231.357Z" fill="#BFBFBF"/>
<path d="M349.205 265.408L350.509 272.093L349.531 275.679L350.346 276.005L351.161 272.419L355.074 268.669L354.096 268.18L350.998 271.277L350.02 265.898L349.205 265.408Z" fill="white"/>
<path d="M356.052 269.158L354.748 274.375C354.259 276.657 354.911 278.777 356.541 279.592C358.171 280.407 359.639 279.429 360.128 277.31L361.432 272.093L360.78 271.767L359.475 276.983C358.986 278.614 358.008 279.429 356.867 278.777C355.726 278.125 355.237 276.494 355.563 274.864L356.867 269.647L356.052 269.158Z" fill="white"/>
<path d="M337.304 192.393C335.511 191.415 333.391 192.556 332.902 195.165C332.25 197.773 333.228 200.545 335.185 201.686L406.591 240.65C408.384 241.628 410.503 240.487 410.992 237.878C411.645 235.27 410.666 232.498 408.71 231.52L337.304 192.393Z" fill="#BFBFBF"/>
<path d="M342.684 169.896C340.891 168.917 338.771 170.059 338.282 172.667C337.63 175.276 338.608 178.047 340.565 179.025L411.971 217.989C413.764 218.967 415.883 217.826 416.372 215.217C417.024 212.609 416.046 209.837 414.09 208.696L342.684 169.896Z" fill="#BFBFBF"/>
<path d="M347.9 148.355C346.106 147.377 343.987 148.518 343.498 151.126C342.846 153.735 343.824 156.506 345.78 157.484L417.186 196.448C418.98 197.426 421.099 196.285 421.588 193.676C422.24 191.068 421.262 188.297 419.306 187.318L347.9 148.355Z" fill="#BFBFBF"/>
<path d="M270.613 94.0805C264.431 90.6459 257.562 94.7673 255.502 103.468L237.642 177.425C235.581 186.126 239.016 195.742 245.198 199.177L299.006 228.714C305.188 232.148 312.057 228.027 314.117 219.326L331.977 145.369C334.038 136.669 330.603 127.052 324.421 123.617L270.613 94.0805Z" fill="#EBEBEB"/>
<path d="M457.357 142.818L465.346 140.21L468.769 148.361L460.944 150.97L457.357 142.818Z" fill="white"/>
<path d="M460.943 150.97L468.769 148.361L466.486 155.371L458.498 157.98L460.943 150.97Z" fill="white"/>
<path d="M458.498 157.98L466.486 155.371L472.681 154.882L464.693 157.654L458.498 157.98Z" fill="white"/>
<path d="M464.692 157.654L472.681 154.882L477.572 161.729L469.583 164.501L464.692 157.654Z" fill="white"/>
<path d="M467.791 140.047L475.616 137.438L471.703 142.655L463.715 145.427L467.791 140.047Z" fill="white"/>
<path d="M457.357 142.818L465.346 140.21L471.704 142.655L463.716 145.427L457.357 142.818Z" fill="#FF8089"/>
<path d="M469.91 156.187L477.735 153.578L477.572 161.729L469.584 164.501L469.91 156.187Z" fill="#FF8089"/>
<path d="M467.791 140.047L475.616 137.438L477.247 145.916L469.258 148.524L467.791 140.047Z" fill="#FF8089"/>
<path d="M475.29 153.252L483.278 150.644L477.735 153.578L469.91 156.186L475.29 153.252Z" fill="#FF8089"/>
<path d="M469.258 148.524L477.246 145.916L483.278 150.644L475.29 153.252L469.258 148.524Z" fill="#FF8089"/>
<path d="M483.605 164.175L491.593 161.567L489.311 168.577L481.322 171.185L483.605 164.175Z" fill="white"/>
<path d="M480.181 156.187L488.006 153.578L491.593 161.566L483.604 164.175L480.181 156.187Z" fill="white"/>
<path d="M481.322 171.185L489.311 168.577L495.343 168.25L487.517 170.859L481.322 171.185Z" fill="white"/>
<path d="M487.518 170.859L495.343 168.25L500.234 175.098L492.408 177.706L487.518 170.859Z" fill="white"/>
<path d="M490.452 153.252L498.44 150.644L494.527 156.023L486.539 158.632L490.452 153.252Z" fill="white"/>
<path d="M480.181 156.187L488.006 153.578L494.527 156.024L486.539 158.632L480.181 156.187Z" fill="#FF8089"/>
<path d="M492.571 169.392L500.56 166.783L500.234 175.098L492.408 177.706L492.571 169.392Z" fill="#FF8089"/>
<path d="M506.591 208.681L511.319 207.703L501.374 217.811L496.646 218.789L506.591 208.681Z" fill="url(#paint8_linear)"/>
<path d="M490.452 153.252L498.44 150.644L500.071 159.284L492.082 161.892L490.452 153.252Z" fill="#FF8089"/>
<path d="M498.114 166.62L505.94 164.012L500.56 166.783L492.571 169.392L498.114 166.62Z" fill="#FF8089"/>
<path d="M492.082 161.892L500.07 159.284L505.939 164.012L498.114 166.62L492.082 161.892Z" fill="#FF8089"/>
<path d="M503.005 169.392L510.83 166.783L514.417 174.935L506.428 177.543L503.005 169.392Z" fill="white"/>
<path d="M506.428 177.543L514.416 174.935L511.971 181.945L504.146 184.553L506.428 177.543Z" fill="white"/>
<path d="M504.146 184.553L511.971 181.945L518.166 181.456L510.178 184.064L504.146 184.553Z" fill="white"/>
<path d="M510.178 184.064L518.166 181.456L523.057 188.303L515.069 190.911L510.178 184.064Z" fill="white"/>
<path d="M513.275 166.62L521.263 163.849L517.188 169.229L509.362 172L513.275 166.62Z" fill="white"/>
<path d="M524.687 152.926L468.606 120.158C466.487 119.016 464.53 118.69 462.737 119.342L456.053 122.929C457.846 122.277 458.661 121.625 460.617 122.929L516.699 155.697C521.59 158.632 524.85 165.968 523.709 172.163L517.514 207.54C516.862 211.127 514.58 207.866 512.949 211.127C512.949 211.127 515.232 212.757 516.21 212.757C517.514 212.757 520.449 211.779 520.449 211.779C522.894 210.964 524.85 208.518 525.502 204.932L531.697 169.555C532.839 163.197 529.741 155.86 524.687 152.926Z" fill="url(#paint9_linear)"/>
<path d="M503.005 169.392L510.83 166.783L517.188 169.229L509.363 172L503.005 169.392Z" fill="#FF8089"/>
<path d="M515.394 182.76L523.383 180.152L523.057 188.303L515.068 190.911L515.394 182.76Z" fill="#FF8089"/>
<path d="M513.275 166.62L521.264 163.849L522.731 172.489L514.906 175.098L513.275 166.62Z" fill="#FF8089"/>
<path d="M514.905 175.098L522.731 172.49L528.763 177.217L520.774 179.826L514.905 175.098Z" fill="#FF8089"/>
<path d="M520.775 179.825L528.764 177.217L523.384 180.152L515.396 182.76L520.775 179.825Z" fill="#FF8089"/>
<path d="M521.753 153.904C526.644 156.839 529.904 164.175 528.763 170.37L522.568 205.747C521.427 211.942 516.536 214.55 511.645 211.779L506.591 208.844L496.647 218.952L491.593 200.204L455.564 179.173C450.673 176.239 447.412 168.903 448.554 162.708L454.749 127.331C455.89 121.136 460.781 118.527 465.671 121.462L521.753 153.904ZM515.395 182.76L520.775 179.988L514.743 175.261L513.112 166.62L509.2 172L502.842 169.555L506.428 177.543L503.983 184.553L510.178 184.227L515.069 191.074L515.395 182.76ZM469.584 164.501L469.91 156.186L475.29 153.415L469.258 148.687L467.628 140.047L463.715 145.427L457.357 142.981L460.944 150.97L458.498 157.98L464.693 157.654L469.584 164.501ZM492.571 169.392L497.951 166.62L491.919 161.892L490.289 153.252L486.376 158.632L480.018 156.186L483.604 164.175L481.159 171.185L487.354 170.859L492.245 177.706L492.571 169.392Z" fill="#EBEBEB"/>
<path d="M467.791 140.047L469.258 148.524L475.29 153.252L469.911 156.187L469.584 164.501L464.694 157.654L458.499 157.98L460.944 150.97L457.357 142.818L463.716 145.427L467.791 140.047Z" fill="#FF6B00"/>
<path d="M490.451 153.252L492.082 161.892L498.114 166.62L492.571 169.392L492.408 177.706L487.517 170.859L481.322 171.185L483.604 164.175L480.181 156.186L486.539 158.632L490.451 153.252Z" fill="#FF6B00"/>
<path d="M513.276 166.62L514.906 175.098L520.775 179.826L515.395 182.76L515.069 190.911L510.178 184.064L504.146 184.553L506.428 177.543L503.005 169.392L509.363 172L513.276 166.62Z" fill="#FF6B00"/>
<path d="M299.33 84.8329L295.091 85.485C295.417 85.485 295.58 85.322 295.906 85.1589L300.145 84.5068C299.819 84.8329 299.493 84.8329 299.33 84.8329Z" fill="#FF6B00"/>
<path d="M308.296 77.3338L312.372 76.6816L300.145 84.67L295.906 85.1591L308.296 77.3338Z" fill="#DADBDC"/>
<path d="M302.428 0.71091L306.666 0.0588007C307.808 -0.104227 309.112 0.0588007 310.253 0.71091L306.014 1.36302C304.873 0.71091 303.569 0.547883 302.428 0.71091Z" fill="white"/>
<path d="M318.078 26.1433L322.317 25.4912C318.893 25.9803 315.796 29.2408 314.817 34.2947C313.187 41.6309 316.611 48.6411 321.175 58.2597C321.991 59.89 322.806 61.6833 323.784 63.6396C324.11 64.4548 324.762 64.9438 325.251 65.2699C325.577 65.4329 326.066 65.5959 326.392 65.4329L322.154 66.085C321.664 66.085 321.338 66.085 321.012 65.922C320.36 65.5959 319.871 65.1069 319.545 64.2917C318.73 62.3354 317.752 60.7051 316.937 58.9118C312.372 49.2932 308.948 42.283 310.579 34.9468C311.557 29.8929 314.654 26.6324 318.078 26.1433Z" fill="#FF6B00"/>
<path d="M326.392 26.143C328.837 27.4473 330.793 29.7296 331.934 33.1532L327.696 33.8053C326.555 30.3818 324.598 27.9363 322.153 26.7951C320.686 26.143 319.381 25.817 318.077 26.143L322.316 25.4909C323.62 25.3279 324.924 25.4909 326.392 26.143Z" fill="white"/>
<path d="M331.12 32.3381L335.359 31.686C334.217 31.8491 333.076 32.3381 332.098 33.1533L327.859 33.8054C328.838 32.9903 329.979 32.5012 331.12 32.3381Z" fill="#FF6B00"/>
<path d="M331.12 32.3381L335.359 31.686C336.663 31.523 337.967 31.686 339.271 32.3381L335.033 32.9902C333.729 32.5011 332.424 32.1751 331.12 32.3381Z" fill="white"/>
<path d="M327.044 65.2697C326.881 65.4328 326.555 65.4328 326.392 65.4328L322.153 66.0849C322.316 66.0849 322.642 65.9218 322.805 65.9218C324.273 65.1067 325.577 64.4546 326.881 63.8025C334.706 59.8898 339.76 57.2814 341.391 49.9452C341.717 48.1519 341.88 46.3586 341.717 44.7283C343.184 44.5653 344.488 44.4022 345.955 44.0762C346.118 45.8695 345.955 47.6628 345.629 49.293C343.999 56.6293 338.945 59.2377 331.12 63.1504C329.816 63.8025 328.511 64.6176 327.044 65.2697Z" fill="white"/>
<path d="M339.272 32.5012C343.022 34.2945 345.63 39.0223 345.956 44.2392C344.489 44.4022 343.185 44.5652 341.717 44.8913C341.391 39.6744 338.783 35.1097 335.033 33.1533C336.337 32.8273 337.968 32.6642 339.272 32.5012Z" fill="white"/>
<path d="M335.196 32.9904C340.25 35.4358 343.021 42.9351 341.554 49.9453C339.924 57.2815 334.87 59.8899 327.044 63.8026C325.74 64.4547 324.436 65.1068 322.969 65.922C322.317 66.248 321.665 66.248 321.175 65.922C320.523 65.5959 320.034 65.1068 319.708 64.2917C318.893 62.3354 317.915 60.7051 317.1 58.9118C312.535 49.2932 309.111 42.283 310.742 34.9468C312.209 27.9366 317.426 24.35 322.48 26.7954C324.925 28.0996 326.881 30.382 328.023 33.8056C330.142 32.1753 332.587 31.8492 335.196 32.9904Z" fill="white"/>
<path d="M351.335 94.6147L347.097 95.2668C350.031 94.9407 352.477 92.3323 353.455 88.2566L357.693 87.6045C356.878 91.5171 354.27 94.1256 351.335 94.6147Z" fill="#DADBDC"/>
<path d="M306.177 1.36305L310.252 0.710938L362.258 26.1432L358.019 26.6323L306.177 1.36305Z" fill="#DADBDC"/>
<path d="M363.726 40.6526L367.801 40.0005L357.694 87.6045L353.455 88.0936L363.726 40.6526Z" fill="#DADBDC"/>
<path d="M358.02 26.6323L362.258 25.9802C366.497 28.0996 369.105 34.2946 367.801 40.0006L363.562 40.6527C364.867 34.9467 362.421 28.7517 358.02 26.6323Z" fill="#DADBDC"/>
<path d="M358.019 26.6323C362.258 28.7517 364.867 34.9467 363.562 40.6527L353.455 88.0936C352.314 93.6366 347.749 96.5711 343.51 94.4517L308.133 77.1708L295.743 84.9961C295.091 85.4852 294.439 85.4852 293.624 85.1591C293.298 84.9961 292.972 84.6701 292.646 84.344C291.83 83.3658 291.504 81.7356 291.667 80.4314L293.787 70.3237L291.178 69.0194C286.94 66.9001 284.331 60.705 285.635 54.9991L295.743 7.55813C296.884 2.0152 301.449 -0.919295 305.688 1.20006L358.019 26.6323ZM327.044 63.8026C334.87 59.8899 339.923 57.2815 341.554 49.9452C343.021 42.9351 340.25 35.4358 335.196 32.9904C332.75 31.8492 330.142 32.0122 327.859 33.8055C326.718 30.382 324.762 27.9365 322.316 26.7954C317.263 24.3499 312.046 27.9365 310.579 34.9467C308.948 42.283 312.372 49.2931 316.937 58.9117C317.752 60.542 318.567 62.3353 319.545 64.2916C319.871 65.1068 320.523 65.5959 321.012 65.9219C321.664 66.248 322.316 66.248 322.806 65.9219C324.273 65.1068 325.577 64.4547 327.044 63.8026Z" fill="#FF6B00"/>
<path d="M263.295 143.929C262.017 153.915 254.818 178.301 254.354 179.578L257.257 181.552L267.243 149.619L267.011 149.387C266.43 148.574 263.991 146.6 263.295 143.929Z" fill="#848484"/>
<path d="M274.442 122.042C274.79 122.274 275.023 122.391 275.139 122.507C275.255 122.623 275.255 122.623 275.371 122.739C274.674 122.391 273.978 122.507 273.513 123.668C272.004 127.268 275.719 140.273 276.532 147.356C277.113 152.698 279.203 179.405 284.777 183.586C285.822 184.399 286.751 184.979 287.564 185.444C290.467 187.069 291.86 186.373 294.066 185.908C296.969 185.327 298.131 181.96 297.085 181.147C297.202 181.263 297.318 181.263 297.434 181.379C305.214 185.676 307.885 192.295 308.349 197.404C308.349 197.752 308.349 198.333 308.349 198.797C308.349 199.262 306.491 201.12 304.633 201.933C300.337 204.023 291.163 201.352 284.893 197.985C282.454 196.591 280.364 195.198 279.319 193.804C274.791 188.23 274.21 172.67 274.094 166.168C273.978 151.072 269.565 148.866 268.172 147.24C266.546 145.266 263.875 141.202 263.411 139.576C262.482 135.86 262.83 130.867 263.759 128.545C267.359 119.488 272.468 120.997 274.442 122.042ZM298.595 186.489C298.827 186.605 299.06 186.721 299.292 186.837C303.588 189.159 306.491 196.127 306.607 196.475C306.607 196.011 306.027 187.766 299.988 184.515C299.988 184.515 299.872 184.399 299.756 184.399C299.408 184.166 298.131 186.256 298.595 186.489Z" fill="#BFBFBF"/>
<path d="M263.41 139.633C263.178 139.865 263.062 140.794 263.062 141.375C262.83 143.001 263.062 143.233 263.294 143.929C263.991 146.716 266.429 148.69 267.126 149.503L267.358 149.735L267.591 149.852C268.404 150.316 272.003 152.987 272.119 166.108C272.235 174.585 273.048 189.797 278.041 195.835C279.319 197.461 281.641 199.086 284.428 200.596C291.163 204.196 300.569 206.866 305.33 204.544C307.768 203.383 308.465 202.222 308.581 199.783C308.581 198.97 308.465 197.577 308.349 197.228C308.349 197.112 308.349 197.228 308.349 197.461C308.349 197.809 308.349 198.39 308.349 198.854C308.349 199.319 306.491 201.177 304.633 201.989C300.336 204.08 291.163 201.409 284.893 198.041C282.454 196.648 280.364 195.254 279.319 193.861C274.79 188.287 274.21 172.727 274.093 166.224C273.977 151.129 269.565 148.923 268.171 147.297C266.546 145.323 263.875 141.259 263.526 139.865C263.526 139.633 263.41 139.633 263.41 139.633Z" fill="#848484"/>
<path d="M300.221 184.571C300.221 184.571 300.105 184.455 299.989 184.455C299.524 184.223 298.247 186.313 298.711 186.545C298.944 186.662 299.176 186.778 299.408 186.894C303.705 189.216 306.608 196.183 306.724 196.532C306.724 196.067 306.259 187.823 300.221 184.571Z" fill="white"/>
<path d="M275.372 122.796C274.675 122.447 273.979 122.563 273.514 123.725C272.005 127.324 275.72 140.33 276.533 147.413C277.114 152.754 279.204 179.462 284.778 183.642C285.823 184.455 286.752 185.036 287.565 185.5C290.468 187.126 291.861 186.429 294.067 185.965C296.97 185.384 298.132 182.017 297.319 181.436C297.203 181.32 297.086 181.32 297.086 181.32C296.041 180.972 293.138 181.784 290.932 181.204C290.468 181.088 290.119 180.972 289.771 180.739C286.868 179.114 285.01 174.121 283.617 160.767C281.991 145.671 279.552 129.414 277.695 125.466C276.998 124.305 276.185 123.26 275.372 122.796Z" fill="#D5D5D5"/>
<path d="M448.978 424.034C455.336 427.784 458.596 429.74 464.791 433.49C458.27 437.239 455.173 439.196 448.815 442.945C442.457 439.196 439.196 437.239 433.001 433.49C439.359 429.74 442.783 427.784 448.978 424.034Z" fill="url(#paint10_linear)"/>
<path d="M425.664 409.851C432.022 413.6 435.283 415.557 441.478 419.306C434.957 423.056 431.859 425.012 425.501 428.762C419.143 425.012 415.883 423.056 409.688 419.306C416.046 415.557 419.143 413.763 425.664 409.851Z" fill="url(#paint11_linear)"/>
<path d="M402.189 395.994C408.547 399.743 411.807 401.7 418.002 405.449C411.481 409.199 408.384 411.155 402.026 414.905C395.668 411.155 392.407 409.199 386.212 405.449C392.57 401.7 395.668 399.743 402.189 395.994Z" fill="url(#paint12_linear)"/>
<path d="M378.713 381.973C385.071 385.723 388.332 387.679 394.527 391.429C388.006 395.178 384.908 397.135 378.55 400.884C372.192 397.135 368.931 395.178 362.736 391.429C369.094 387.679 372.355 385.723 378.713 381.973Z" fill="url(#paint13_linear)"/>
<path d="M355.4 367.79C361.758 371.539 365.018 373.496 371.213 377.245C364.692 380.995 361.595 382.951 355.237 386.701C348.878 382.951 345.618 380.995 339.423 377.245C345.618 373.496 348.878 371.702 355.4 367.79Z" fill="url(#paint14_linear)"/>
<path d="M331.924 353.932C338.282 357.682 341.543 359.638 347.738 363.388C341.217 367.138 338.119 369.094 331.761 372.844C325.403 369.094 322.142 367.138 315.947 363.388C322.305 359.638 325.403 357.682 331.924 353.932Z" fill="url(#paint15_linear)"/>
<path d="M308.447 339.749C314.805 343.499 318.066 345.455 324.261 349.205C317.74 352.954 314.642 354.911 308.284 358.66C301.926 354.911 298.666 352.954 292.471 349.205C298.829 345.618 301.926 343.662 308.447 339.749Z" fill="url(#paint16_linear)"/>
<path d="M284.972 325.729C291.33 329.478 294.59 331.435 300.785 335.184C294.264 338.934 291.167 340.89 284.809 344.64C278.451 340.89 275.19 338.934 268.995 335.184C275.353 331.435 278.614 329.641 284.972 325.729Z" fill="url(#paint17_linear)"/>
<path d="M261.496 311.872C267.854 315.621 271.115 317.578 277.31 321.327C270.789 325.077 267.691 327.033 261.333 330.783C254.975 327.033 251.715 325.077 245.52 321.327C252.041 317.578 255.138 315.621 261.496 311.872Z" fill="url(#paint18_linear)"/>
<path d="M238.021 297.688C244.379 301.438 247.639 303.394 253.834 307.144C247.313 310.893 244.216 312.85 237.858 316.599C231.5 312.85 228.239 310.893 222.044 307.144C228.565 303.394 231.663 301.438 238.021 297.688Z" fill="url(#paint19_linear)"/>
<path d="M214.544 283.668C220.902 287.417 224.163 289.374 230.358 293.123C223.837 296.873 220.739 298.829 214.381 302.579C208.023 298.829 204.762 296.873 198.567 293.123C204.925 289.374 208.349 287.58 214.544 283.668Z" fill="url(#paint20_linear)"/>
<path d="M191.232 269.81C201.828 276.168 207.208 279.266 217.805 285.624C211.284 289.374 208.186 291.33 201.828 295.08C191.232 288.721 185.852 285.624 175.255 279.266C181.613 275.516 184.874 273.56 191.232 269.81Z" fill="url(#paint21_linear)"/>
<path d="M416.046 430.881C426.48 437.239 431.697 440.337 442.293 446.695C435.772 450.445 432.675 452.401 426.317 456.151C415.883 449.793 410.666 446.695 400.069 440.337C406.427 436.587 409.688 434.794 416.046 430.881Z" fill="url(#paint22_linear)"/>
<path d="M403.003 423.219C409.361 426.969 412.622 428.925 418.817 432.675C412.296 436.424 409.198 438.381 402.84 442.13C396.482 438.381 393.221 436.424 387.026 432.675C393.384 428.925 396.645 426.969 403.003 423.219Z" fill="url(#paint23_linear)"/>
<path d="M379.692 409.199C386.05 412.948 389.31 414.905 395.505 418.654C388.984 422.404 385.887 424.36 379.528 428.11C373.17 424.36 369.91 422.404 363.715 418.654C370.073 414.905 373.17 413.111 379.692 409.199Z" fill="url(#paint24_linear)"/>
<path d="M356.215 395.341C362.573 399.091 365.834 401.047 372.029 404.797C365.508 408.547 362.41 410.503 356.052 414.252C349.694 410.503 346.433 408.547 340.238 404.797C346.596 400.884 349.694 399.091 356.215 395.341Z" fill="url(#paint25_linear)"/>
<path d="M332.738 381.158C339.096 384.908 342.357 386.864 348.552 390.614C342.031 394.363 338.933 396.32 332.575 400.069C326.217 396.32 322.957 394.363 316.762 390.614C323.12 386.864 326.38 384.908 332.738 381.158Z" fill="url(#paint26_linear)"/>
<path d="M309.426 367.138C315.784 370.887 319.045 372.844 325.24 376.593C318.718 380.343 315.621 382.299 309.263 386.049C302.905 382.299 299.644 380.343 293.449 376.593C299.644 372.844 302.905 371.05 309.426 367.138Z" fill="url(#paint27_linear)"/>
<path d="M285.95 353.281C292.308 357.03 295.569 358.986 301.764 362.736C295.243 366.486 292.145 368.442 285.787 372.192C279.429 368.442 276.169 366.486 269.974 362.736C276.332 358.823 279.429 357.03 285.95 353.281Z" fill="url(#paint28_linear)"/>
<path d="M262.474 339.097C268.832 342.847 272.092 344.803 278.287 348.552C271.766 352.302 268.669 354.258 262.311 358.008C255.953 354.258 252.692 352.302 246.497 348.552C252.855 344.803 255.953 342.847 262.474 339.097Z" fill="url(#paint29_linear)"/>
<path d="M238.998 325.077C245.356 328.826 248.617 330.783 254.812 334.532C248.291 338.282 245.193 340.238 238.835 343.988C232.477 340.238 229.217 338.282 223.021 334.532C229.38 330.783 232.64 328.989 238.998 325.077Z" fill="url(#paint30_linear)"/>
<path d="M215.522 311.056C221.88 314.806 225.14 316.762 231.335 320.512C224.814 324.261 221.717 326.218 215.359 329.967C209.001 326.218 205.74 324.261 199.545 320.512C206.066 316.599 209.164 314.806 215.522 311.056Z" fill="url(#paint31_linear)"/>
<path d="M192.046 297.036C198.404 300.786 201.665 302.742 207.86 306.491C201.339 310.241 198.241 312.197 191.883 315.947C185.525 312.197 182.264 310.241 176.069 306.491C182.427 302.742 185.688 300.786 192.046 297.036Z" fill="url(#paint32_linear)"/>
<path d="M168.569 283.016C174.928 286.765 178.188 288.722 184.383 292.471C177.862 296.221 174.765 298.177 168.406 301.927C162.048 298.177 158.788 296.221 152.593 292.471C158.951 288.722 162.374 286.928 168.569 283.016Z" fill="url(#paint33_linear)"/>
<path d="M403.982 450.608C410.34 454.357 413.6 456.314 419.795 460.063C413.274 463.813 410.177 465.769 403.819 469.519C397.46 465.769 394.2 463.813 388.005 460.063C394.363 456.314 397.624 454.357 403.982 450.608Z" fill="url(#paint34_linear)"/>
<path d="M380.506 436.424C386.864 440.174 390.125 442.13 396.32 445.88C389.799 449.63 386.701 451.586 380.343 455.335C373.985 451.586 370.724 449.63 364.529 445.88C370.887 442.13 373.985 440.337 380.506 436.424Z" fill="url(#paint35_linear)"/>
<path d="M357.193 422.567C363.551 426.317 366.811 428.273 373.006 432.023C366.485 435.772 363.388 437.729 357.029 441.478C350.671 437.729 347.411 435.772 341.216 432.023C347.411 428.273 350.671 426.317 357.193 422.567Z" fill="url(#paint36_linear)"/>
<path d="M333.717 408.547C340.075 412.296 343.336 414.253 349.531 418.002C343.009 421.752 339.912 423.708 333.554 427.458C327.196 423.708 323.935 421.752 317.74 418.002C324.098 414.253 327.196 412.296 333.717 408.547Z" fill="url(#paint37_linear)"/>
<path d="M310.241 394.363C316.599 398.113 319.86 400.069 326.055 403.819C319.534 407.569 316.436 409.525 310.078 413.274C303.72 409.525 300.46 407.569 294.265 403.819C300.623 400.069 303.72 398.276 310.241 394.363Z" fill="url(#paint38_linear)"/>
<path d="M303.231 371.865C309.589 375.615 312.849 377.571 319.044 381.321C312.523 385.071 309.426 387.027 303.068 390.777C296.709 387.027 293.449 385.071 287.254 381.321C293.612 377.571 297.036 375.615 303.231 371.865Z" fill="url(#paint39_linear)"/>
<path d="M263.452 366.486C269.81 370.235 273.071 372.192 279.266 375.941C272.745 379.691 269.647 381.647 263.289 385.397C256.931 381.647 253.671 379.691 247.476 375.941C253.834 372.192 256.931 370.235 263.452 366.486Z" fill="url(#paint40_linear)"/>
<path d="M239.977 352.302C246.335 356.052 249.595 358.008 255.79 361.758C249.269 365.507 246.172 367.464 239.814 371.213C233.456 367.464 230.195 365.507 224 361.758C230.358 358.008 233.456 356.215 239.977 352.302Z" fill="url(#paint41_linear)"/>
<path d="M216.337 338.445C222.695 342.194 225.956 344.151 232.151 347.9C225.63 351.65 222.532 353.606 216.174 357.356C209.816 353.606 206.555 351.65 200.36 347.9C206.881 344.151 210.142 342.194 216.337 338.445Z" fill="url(#paint42_linear)"/>
<path d="M193.025 324.261C199.383 328.011 202.643 329.967 208.838 333.717C202.317 337.467 199.22 339.423 192.862 343.173C186.503 339.423 183.243 337.467 177.048 333.717C183.406 329.967 186.666 328.011 193.025 324.261Z" fill="url(#paint43_linear)"/>
<path d="M159.442 304.209C169.875 310.404 174.929 313.502 185.363 319.697C178.842 323.446 175.744 325.403 169.386 329.152C158.952 322.957 153.899 319.86 143.465 313.665C149.986 309.915 153.083 308.122 159.442 304.209Z" fill="url(#paint44_linear)"/>
<path d="M146.072 296.384C152.43 300.133 155.691 302.09 161.886 305.839C155.365 309.589 152.267 311.545 145.909 315.295C139.551 311.545 136.291 309.589 130.096 305.839C136.454 302.09 139.714 300.133 146.072 296.384Z" fill="url(#paint45_linear)"/>
<path d="M378.386 465.606C384.744 469.356 388.004 471.312 394.2 475.062C387.678 478.811 384.581 480.768 378.223 484.517C371.865 480.768 368.604 478.811 362.409 475.062C368.767 471.312 371.865 469.356 378.386 465.606Z" fill="url(#paint46_linear)"/>
<path d="M354.91 451.586C361.268 455.336 364.529 457.292 370.724 461.042C364.203 464.791 361.105 466.747 354.747 470.497C348.389 466.747 345.129 464.791 338.934 461.042C345.292 457.292 348.389 455.499 354.91 451.586Z" fill="url(#paint47_linear)"/>
<path d="M331.434 437.729C337.792 441.478 341.052 443.434 347.247 447.184C340.726 450.934 337.629 452.89 331.271 456.64C324.913 452.89 321.652 450.934 315.457 447.184C321.815 443.434 325.076 441.478 331.434 437.729Z" fill="url(#paint48_linear)"/>
<path d="M190.742 353.443C235.249 380.017 279.592 406.59 323.936 433.164C317.415 436.913 314.317 438.87 307.959 442.619C263.452 416.046 219.109 389.472 174.766 362.899C181.124 359.149 184.384 357.356 190.742 353.443Z" fill="url(#paint49_linear)"/>
<path d="M167.429 339.423C173.787 343.173 177.047 345.129 183.242 348.879C176.721 352.628 173.624 354.585 167.266 358.334C160.908 354.585 157.647 352.628 151.452 348.879C157.647 345.129 161.071 343.173 167.429 339.423Z" fill="url(#paint50_linear)"/>
<path d="M143.953 325.403C150.311 329.152 153.572 331.109 159.767 334.858C153.246 338.608 150.148 340.564 143.79 344.314C137.432 340.564 134.172 338.608 127.977 334.858C134.335 331.109 137.432 329.315 143.953 325.403Z" fill="url(#paint51_linear)"/>
<path d="M120.477 311.382C126.835 315.132 130.095 317.088 136.29 320.838C129.769 324.588 126.672 326.544 120.314 330.294C113.956 326.544 110.695 324.588 104.5 320.838C110.858 317.088 113.956 315.132 120.477 311.382Z" fill="url(#paint52_linear)"/>
<defs>
<linearGradient id="paint0_linear" x1="187.093" y1="229.542" x2="564.593" y2="229.542" gradientUnits="userSpaceOnUse">
<stop stop-color="#C5C5C5"/>
<stop offset="0.3103" stop-color="#CBCBCB"/>
<stop offset="0.6946" stop-color="#DADADA"/>
<stop offset="1" stop-color="#EBEBEB"/>
</linearGradient>
<linearGradient id="paint1_linear" x1="0" y1="410.893" x2="504.372" y2="410.893" gradientUnits="userSpaceOnUse">
<stop stop-color="#C5C5C5"/>
<stop offset="0.3103" stop-color="#CBCBCB"/>
<stop offset="0.6946" stop-color="#DADADA"/>
<stop offset="1" stop-color="#EBEBEB"/>
</linearGradient>
<linearGradient id="paint2_linear" x1="236.326" y1="309.622" x2="266.12" y2="478.592" gradientUnits="userSpaceOnUse">
<stop stop-color="#C5C5C5"/>
<stop offset="0.3103" stop-color="#CBCBCB"/>
<stop offset="0.6946" stop-color="#DADADA"/>
<stop offset="1" stop-color="#EBEBEB"/>
</linearGradient>
<linearGradient id="paint3_linear" x1="96.3475" y1="378.735" x2="475.776" y2="378.735" gradientUnits="userSpaceOnUse">
<stop stop-color="#C5C5C5"/>
<stop offset="0.3103" stop-color="#CBCBCB"/>
<stop offset="0.6946" stop-color="#DADADA"/>
<stop offset="1" stop-color="#EBEBEB"/>
</linearGradient>
<linearGradient id="paint4_linear" x1="162.994" y1="385.893" x2="234.906" y2="471.594" gradientUnits="userSpaceOnUse">
<stop stop-color="#C5C5C5"/>
<stop offset="0.3103" stop-color="#CBCBCB"/>
<stop offset="0.6946" stop-color="#DADADA"/>
<stop offset="1" stop-color="#EBEBEB"/>
</linearGradient>
<linearGradient id="paint5_linear" x1="127.164" y1="430.056" x2="270.898" y2="430.056" gradientUnits="userSpaceOnUse">
<stop stop-color="#C5C5C5"/>
<stop offset="0.3103" stop-color="#CBCBCB"/>
<stop offset="0.6946" stop-color="#DADADA"/>
<stop offset="1" stop-color="#EBEBEB"/>
</linearGradient>
<linearGradient id="paint6_linear" x1="137.708" y1="455.001" x2="170.963" y2="455.001" gradientUnits="userSpaceOnUse">
<stop stop-color="#C5C5C5"/>
<stop offset="0.3103" stop-color="#CBCBCB"/>
<stop offset="0.6946" stop-color="#DADADA"/>
<stop offset="1" stop-color="#EBEBEB"/>
</linearGradient>
<linearGradient id="paint7_linear" x1="331.523" y1="356.104" x2="180.097" y2="483.165" gradientUnits="userSpaceOnUse">
<stop offset="0.0503876" stop-color="white"/>
<stop offset="0.1673" stop-color="#C8C8C8"/>
<stop offset="0.3083" stop-color="#8C8C8C"/>
<stop offset="0.4442" stop-color="#5A5A5A"/>
<stop offset="0.5714" stop-color="#333333"/>
<stop offset="0.6878" stop-color="#171717"/>
<stop offset="0.7898" stop-color="#060606"/>
<stop offset="0.8661"/>
</linearGradient>
<linearGradient id="paint8_linear" x1="497.079" y1="212.74" x2="510.821" y2="213.761" gradientUnits="userSpaceOnUse">
<stop offset="0.037095" stop-color="#C7C7C7"/>
<stop offset="1" stop-color="#E6E7E8"/>
</linearGradient>
<linearGradient id="paint9_linear" x1="453.152" y1="163.022" x2="531.887" y2="168.872" gradientUnits="userSpaceOnUse">
<stop offset="0.037095" stop-color="#C7C7C7"/>
<stop offset="1" stop-color="#DEDFE0"/>
</linearGradient>
<linearGradient id="paint10_linear" x1="464.871" y1="433.545" x2="432.945" y2="433.545" gradientUnits="userSpaceOnUse">
<stop stop-color="#C5C5C5"/>
<stop offset="0.3103" stop-color="#CBCBCB"/>
<stop offset="0.6946" stop-color="#DADADA"/>
<stop offset="1" stop-color="#EBEBEB"/>
</linearGradient>
<linearGradient id="paint11_linear" x1="441.546" y1="419.41" x2="409.62" y2="419.41" gradientUnits="userSpaceOnUse">
<stop stop-color="#C5C5C5"/>
<stop offset="0.3103" stop-color="#CBCBCB"/>
<stop offset="0.6946" stop-color="#DADADA"/>
<stop offset="1" stop-color="#EBEBEB"/>
</linearGradient>
<linearGradient id="paint12_linear" x1="418.056" y1="405.447" x2="386.13" y2="405.447" gradientUnits="userSpaceOnUse">
<stop stop-color="#C5C5C5"/>
<stop offset="0.3103" stop-color="#CBCBCB"/>
<stop offset="0.6946" stop-color="#DADADA"/>
<stop offset="1" stop-color="#EBEBEB"/>
</linearGradient>
<linearGradient id="paint13_linear" x1="394.567" y1="391.484" x2="362.641" y2="391.484" gradientUnits="userSpaceOnUse">
<stop stop-color="#C5C5C5"/>
<stop offset="0.3103" stop-color="#CBCBCB"/>
<stop offset="0.6946" stop-color="#DADADA"/>
<stop offset="1" stop-color="#EBEBEB"/>
</linearGradient>
<linearGradient id="paint14_linear" x1="371.242" y1="377.349" x2="339.316" y2="377.349" gradientUnits="userSpaceOnUse">
<stop stop-color="#C5C5C5"/>
<stop offset="0.3103" stop-color="#CBCBCB"/>
<stop offset="0.6946" stop-color="#DADADA"/>
<stop offset="1" stop-color="#EBEBEB"/>
</linearGradient>
<linearGradient id="paint15_linear" x1="347.753" y1="363.386" x2="315.827" y2="363.386" gradientUnits="userSpaceOnUse">
<stop stop-color="#C5C5C5"/>
<stop offset="0.3103" stop-color="#CBCBCB"/>
<stop offset="0.6946" stop-color="#DADADA"/>
<stop offset="1" stop-color="#EBEBEB"/>
</linearGradient>
<linearGradient id="paint16_linear" x1="324.262" y1="349.25" x2="292.336" y2="349.25" gradientUnits="userSpaceOnUse">
<stop stop-color="#C5C5C5"/>
<stop offset="0.3103" stop-color="#CBCBCB"/>
<stop offset="0.6946" stop-color="#DADADA"/>
<stop offset="1" stop-color="#EBEBEB"/>
</linearGradient>
<linearGradient id="paint17_linear" x1="300.773" y1="335.288" x2="268.847" y2="335.288" gradientUnits="userSpaceOnUse">
<stop stop-color="#C5C5C5"/>
<stop offset="0.3103" stop-color="#CBCBCB"/>
<stop offset="0.6946" stop-color="#DADADA"/>
<stop offset="1" stop-color="#EBEBEB"/>
</linearGradient>
<linearGradient id="paint18_linear" x1="277.449" y1="321.325" x2="245.523" y2="321.325" gradientUnits="userSpaceOnUse">
<stop stop-color="#C5C5C5"/>
<stop offset="0.3103" stop-color="#CBCBCB"/>
<stop offset="0.6946" stop-color="#DADADA"/>
<stop offset="1" stop-color="#EBEBEB"/>
</linearGradient>
<linearGradient id="paint19_linear" x1="253.96" y1="307.189" x2="222.034" y2="307.189" gradientUnits="userSpaceOnUse">
<stop stop-color="#C5C5C5"/>
<stop offset="0.3103" stop-color="#CBCBCB"/>
<stop offset="0.6946" stop-color="#DADADA"/>
<stop offset="1" stop-color="#EBEBEB"/>
</linearGradient>
<linearGradient id="paint20_linear" x1="230.469" y1="293.227" x2="198.543" y2="293.227" gradientUnits="userSpaceOnUse">
<stop stop-color="#C5C5C5"/>
<stop offset="0.3103" stop-color="#CBCBCB"/>
<stop offset="0.6946" stop-color="#DADADA"/>
<stop offset="1" stop-color="#EBEBEB"/>
</linearGradient>
<linearGradient id="paint21_linear" x1="217.898" y1="282.453" x2="175.219" y2="282.453" gradientUnits="userSpaceOnUse">
<stop stop-color="#C5C5C5"/>
<stop offset="0.3103" stop-color="#CBCBCB"/>
<stop offset="0.6946" stop-color="#DADADA"/>
<stop offset="1" stop-color="#EBEBEB"/>
</linearGradient>
<linearGradient id="paint22_linear" x1="442.373" y1="443.629" x2="400.026" y2="443.629" gradientUnits="userSpaceOnUse">
<stop stop-color="#C5C5C5"/>
<stop offset="0.3103" stop-color="#CBCBCB"/>
<stop offset="0.6946" stop-color="#DADADA"/>
<stop offset="1" stop-color="#EBEBEB"/>
</linearGradient>
<linearGradient id="paint23_linear" x1="418.883" y1="432.683" x2="386.957" y2="432.683" gradientUnits="userSpaceOnUse">
<stop stop-color="#C5C5C5"/>
<stop offset="0.3103" stop-color="#CBCBCB"/>
<stop offset="0.6946" stop-color="#DADADA"/>
<stop offset="1" stop-color="#EBEBEB"/>
</linearGradient>
<linearGradient id="paint24_linear" x1="395.56" y1="418.72" x2="363.634" y2="418.72" gradientUnits="userSpaceOnUse">
<stop stop-color="#C5C5C5"/>
<stop offset="0.3103" stop-color="#CBCBCB"/>
<stop offset="0.6946" stop-color="#DADADA"/>
<stop offset="1" stop-color="#EBEBEB"/>
</linearGradient>
<linearGradient id="paint25_linear" x1="372.07" y1="404.757" x2="340.143" y2="404.757" gradientUnits="userSpaceOnUse">
<stop stop-color="#C5C5C5"/>
<stop offset="0.3103" stop-color="#CBCBCB"/>
<stop offset="0.6946" stop-color="#DADADA"/>
<stop offset="1" stop-color="#EBEBEB"/>
</linearGradient>
<linearGradient id="paint26_linear" x1="348.579" y1="390.622" x2="316.653" y2="390.622" gradientUnits="userSpaceOnUse">
<stop stop-color="#C5C5C5"/>
<stop offset="0.3103" stop-color="#CBCBCB"/>
<stop offset="0.6946" stop-color="#DADADA"/>
<stop offset="1" stop-color="#EBEBEB"/>
</linearGradient>
<linearGradient id="paint27_linear" x1="325.255" y1="376.659" x2="293.329" y2="376.659" gradientUnits="userSpaceOnUse">
<stop stop-color="#C5C5C5"/>
<stop offset="0.3103" stop-color="#CBCBCB"/>
<stop offset="0.6946" stop-color="#DADADA"/>
<stop offset="1" stop-color="#EBEBEB"/>
</linearGradient>
<linearGradient id="paint28_linear" x1="301.766" y1="362.696" x2="269.84" y2="362.696" gradientUnits="userSpaceOnUse">
<stop stop-color="#C5C5C5"/>
<stop offset="0.3103" stop-color="#CBCBCB"/>
<stop offset="0.6946" stop-color="#DADADA"/>
<stop offset="1" stop-color="#EBEBEB"/>
</linearGradient>
<linearGradient id="paint29_linear" x1="278.276" y1="348.561" x2="246.349" y2="348.561" gradientUnits="userSpaceOnUse">
<stop stop-color="#C5C5C5"/>
<stop offset="0.3103" stop-color="#CBCBCB"/>
<stop offset="0.6946" stop-color="#DADADA"/>
<stop offset="1" stop-color="#EBEBEB"/>
</linearGradient>
<linearGradient id="paint30_linear" x1="254.952" y1="334.598" x2="223.025" y2="334.598" gradientUnits="userSpaceOnUse">
<stop stop-color="#C5C5C5"/>
<stop offset="0.3103" stop-color="#CBCBCB"/>
<stop offset="0.6946" stop-color="#DADADA"/>
<stop offset="1" stop-color="#EBEBEB"/>
</linearGradient>
<linearGradient id="paint31_linear" x1="231.461" y1="320.463" x2="199.535" y2="320.463" gradientUnits="userSpaceOnUse">
<stop stop-color="#C5C5C5"/>
<stop offset="0.3103" stop-color="#CBCBCB"/>
<stop offset="0.6946" stop-color="#DADADA"/>
<stop offset="1" stop-color="#EBEBEB"/>
</linearGradient>
<linearGradient id="paint32_linear" x1="207.972" y1="306.5" x2="176.046" y2="306.5" gradientUnits="userSpaceOnUse">
<stop stop-color="#C5C5C5"/>
<stop offset="0.3103" stop-color="#CBCBCB"/>
<stop offset="0.6946" stop-color="#DADADA"/>
<stop offset="1" stop-color="#EBEBEB"/>
</linearGradient>
<linearGradient id="paint33_linear" x1="184.482" y1="292.537" x2="152.555" y2="292.537" gradientUnits="userSpaceOnUse">
<stop stop-color="#C5C5C5"/>
<stop offset="0.3103" stop-color="#CBCBCB"/>
<stop offset="0.6946" stop-color="#DADADA"/>
<stop offset="1" stop-color="#EBEBEB"/>
</linearGradient>
<linearGradient id="paint34_linear" x1="419.876" y1="460.092" x2="387.949" y2="460.092" gradientUnits="userSpaceOnUse">
<stop stop-color="#C5C5C5"/>
<stop offset="0.3103" stop-color="#CBCBCB"/>
<stop offset="0.6946" stop-color="#DADADA"/>
<stop offset="1" stop-color="#EBEBEB"/>
</linearGradient>
<linearGradient id="paint35_linear" x1="396.386" y1="445.956" x2="364.46" y2="445.956" gradientUnits="userSpaceOnUse">
<stop stop-color="#C5C5C5"/>
<stop offset="0.3103" stop-color="#CBCBCB"/>
<stop offset="0.6946" stop-color="#DADADA"/>
<stop offset="1" stop-color="#EBEBEB"/>
</linearGradient>
<linearGradient id="paint36_linear" x1="373.061" y1="431.994" x2="341.135" y2="431.994" gradientUnits="userSpaceOnUse">
<stop stop-color="#C5C5C5"/>
<stop offset="0.3103" stop-color="#CBCBCB"/>
<stop offset="0.6946" stop-color="#DADADA"/>
<stop offset="1" stop-color="#EBEBEB"/>
</linearGradient>
<linearGradient id="paint37_linear" x1="349.572" y1="418.031" x2="317.646" y2="418.031" gradientUnits="userSpaceOnUse">
<stop stop-color="#C5C5C5"/>
<stop offset="0.3103" stop-color="#CBCBCB"/>
<stop offset="0.6946" stop-color="#DADADA"/>
<stop offset="1" stop-color="#EBEBEB"/>
</linearGradient>
<linearGradient id="paint38_linear" x1="326.083" y1="403.895" x2="294.157" y2="403.895" gradientUnits="userSpaceOnUse">
<stop stop-color="#C5C5C5"/>
<stop offset="0.3103" stop-color="#CBCBCB"/>
<stop offset="0.6946" stop-color="#DADADA"/>
<stop offset="1" stop-color="#EBEBEB"/>
</linearGradient>
<linearGradient id="paint39_linear" x1="319.134" y1="381.313" x2="287.208" y2="381.313" gradientUnits="userSpaceOnUse">
<stop stop-color="#C5C5C5"/>
<stop offset="0.3103" stop-color="#CBCBCB"/>
<stop offset="0.6946" stop-color="#DADADA"/>
<stop offset="1" stop-color="#EBEBEB"/>
</linearGradient>
<linearGradient id="paint40_linear" x1="279.268" y1="375.97" x2="247.342" y2="375.97" gradientUnits="userSpaceOnUse">
<stop stop-color="#C5C5C5"/>
<stop offset="0.3103" stop-color="#CBCBCB"/>
<stop offset="0.6946" stop-color="#DADADA"/>
<stop offset="1" stop-color="#EBEBEB"/>
</linearGradient>
<linearGradient id="paint41_linear" x1="255.779" y1="361.834" x2="223.853" y2="361.834" gradientUnits="userSpaceOnUse">
<stop stop-color="#C5C5C5"/>
<stop offset="0.3103" stop-color="#CBCBCB"/>
<stop offset="0.6946" stop-color="#DADADA"/>
<stop offset="1" stop-color="#EBEBEB"/>
</linearGradient>
<linearGradient id="paint42_linear" x1="232.289" y1="347.871" x2="200.362" y2="347.871" gradientUnits="userSpaceOnUse">
<stop stop-color="#C5C5C5"/>
<stop offset="0.3103" stop-color="#CBCBCB"/>
<stop offset="0.6946" stop-color="#DADADA"/>
<stop offset="1" stop-color="#EBEBEB"/>
</linearGradient>
<linearGradient id="paint43_linear" x1="208.965" y1="333.736" x2="177.039" y2="333.736" gradientUnits="userSpaceOnUse">
<stop stop-color="#C5C5C5"/>
<stop offset="0.3103" stop-color="#CBCBCB"/>
<stop offset="0.6946" stop-color="#DADADA"/>
<stop offset="1" stop-color="#EBEBEB"/>
</linearGradient>
<linearGradient id="paint44_linear" x1="185.476" y1="316.756" x2="143.459" y2="316.756" gradientUnits="userSpaceOnUse">
<stop stop-color="#C5C5C5"/>
<stop offset="0.3103" stop-color="#CBCBCB"/>
<stop offset="0.6946" stop-color="#DADADA"/>
<stop offset="1" stop-color="#EBEBEB"/>
</linearGradient>
<linearGradient id="paint45_linear" x1="161.985" y1="305.81" x2="130.059" y2="305.81" gradientUnits="userSpaceOnUse">
<stop stop-color="#C5C5C5"/>
<stop offset="0.3103" stop-color="#CBCBCB"/>
<stop offset="0.6946" stop-color="#DADADA"/>
<stop offset="1" stop-color="#EBEBEB"/>
</linearGradient>
<linearGradient id="paint46_linear" x1="394.235" y1="475.089" x2="362.309" y2="475.089" gradientUnits="userSpaceOnUse">
<stop stop-color="#C5C5C5"/>
<stop offset="0.3103" stop-color="#CBCBCB"/>
<stop offset="0.6946" stop-color="#DADADA"/>
<stop offset="1" stop-color="#EBEBEB"/>
</linearGradient>
<linearGradient id="paint47_linear" x1="370.746" y1="461.126" x2="338.819" y2="461.126" gradientUnits="userSpaceOnUse">
<stop stop-color="#C5C5C5"/>
<stop offset="0.3103" stop-color="#CBCBCB"/>
<stop offset="0.6946" stop-color="#DADADA"/>
<stop offset="1" stop-color="#EBEBEB"/>
</linearGradient>
<linearGradient id="paint48_linear" x1="347.255" y1="447.163" x2="315.329" y2="447.163" gradientUnits="userSpaceOnUse">
<stop stop-color="#C5C5C5"/>
<stop offset="0.3103" stop-color="#CBCBCB"/>
<stop offset="0.6946" stop-color="#DADADA"/>
<stop offset="1" stop-color="#EBEBEB"/>
</linearGradient>
<linearGradient id="paint49_linear" x1="323.932" y1="397.948" x2="174.723" y2="397.948" gradientUnits="userSpaceOnUse">
<stop stop-color="#C5C5C5"/>
<stop offset="0.3103" stop-color="#CBCBCB"/>
<stop offset="0.6946" stop-color="#DADADA"/>
<stop offset="1" stop-color="#EBEBEB"/>
</linearGradient>
<linearGradient id="paint50_linear" x1="183.324" y1="348.906" x2="151.398" y2="348.906" gradientUnits="userSpaceOnUse">
<stop stop-color="#C5C5C5"/>
<stop offset="0.3103" stop-color="#CBCBCB"/>
<stop offset="0.6946" stop-color="#DADADA"/>
<stop offset="1" stop-color="#EBEBEB"/>
</linearGradient>
<linearGradient id="paint51_linear" x1="159.835" y1="334.943" x2="127.908" y2="334.943" gradientUnits="userSpaceOnUse">
<stop stop-color="#C5C5C5"/>
<stop offset="0.3103" stop-color="#CBCBCB"/>
<stop offset="0.6946" stop-color="#DADADA"/>
<stop offset="1" stop-color="#EBEBEB"/>
</linearGradient>
<linearGradient id="paint52_linear" x1="136.344" y1="320.808" x2="104.418" y2="320.808" gradientUnits="userSpaceOnUse">
<stop stop-color="#C5C5C5"/>
<stop offset="0.3103" stop-color="#CBCBCB"/>
<stop offset="0.6946" stop-color="#DADADA"/>
<stop offset="1" stop-color="#EBEBEB"/>
</linearGradient>
</defs>
</svg>
