<svg width="12" height="12" viewBox="0 0 12 12" fill="none" xmlns="http://www.w3.org/2000/svg">
<path d="M10.5938 12H1.40625C0.630798 12 0 11.3692 0 10.5938V1.40625C0 0.630798 0.630798 0 1.40625 0H10.5938C11.3692 0 12 0.630798 12 1.40625V10.5938C12 11.3692 11.3692 12 10.5938 12ZM1.40625 0.9375C1.1478 0.9375 0.9375 1.1478 0.9375 1.40625V10.5938C0.9375 10.8522 1.1478 11.0625 1.40625 11.0625H10.5938C10.8522 11.0625 11.0625 10.8522 11.0625 10.5938V1.40625C11.0625 1.1478 10.8522 0.9375 10.5938 0.9375H1.40625ZM10.0992 3.54712L9.40073 2.92163L5.06561 7.76303L2.54956 5.37131L1.90366 6.05072L5.11972 9.10803L10.0992 3.54712Z" fill="#FF6B00"/>
</svg>
