<svg width="1442" height="515" viewBox="0 0 1442 515" fill="none" xmlns="http://www.w3.org/2000/svg">
<mask id="mask0" mask-type="alpha" maskUnits="userSpaceOnUse" x="258" y="-4" width="1184" height="499">
<path d="M446.841 494.705C403.551 496.65 364.325 469.353 351.107 428.084L264.028 156.201C239.264 78.8806 296.827 -0.202378 378.017 -0.400775L1442 -3.00047L1442 450L446.841 494.705Z" fill="#FF6B00"/>
</mask>
<g mask="url(#mask0)">
<path opacity="0.3" d="M1420.33 308.794L1332.71 316.68L1340.78 219.403L1411.71 213.019C1449.26 209.639 1475.84 177.861 1472.47 140.384C1469.09 102.907 1437.26 76.3863 1399.71 79.7661L1349.65 84.2725L1358.46 -4.67674C1363.81 -38.741 1335.78 -69.801 1297.48 -74.7495C1263.35 -80.0735 1232.22 -52.0844 1227.25 -13.856L1216.13 96.2894L1086.79 107.931L1095.61 18.9817C1100.95 -15.0825 1072.92 -46.1425 1034.62 -51.091C1000.49 -56.4151 969.364 -28.426 964.393 9.80241L953.276 119.948L840.624 130.087C803.073 133.467 776.491 165.245 779.864 202.722C783.237 240.199 823.411 265.969 860.961 262.589L948.58 254.703L940.512 351.98L869.582 358.364C832.031 361.744 805.449 393.522 808.822 430.999C812.195 468.476 844.024 494.997 881.575 491.617L931.643 487.11L922.825 576.06C917.478 610.124 945.511 641.184 983.811 646.132C1009.59 652.207 1049.44 627.631 1054.04 585.239L1065.16 475.093L1194.5 463.452L1185.68 552.401C1180.33 586.465 1208.37 617.525 1246.67 622.474C1272.45 628.549 1312.3 603.973 1316.9 561.581L1328.01 451.435L1440.67 441.296C1478.22 437.916 1504.8 406.138 1501.42 368.661C1485.53 332.31 1453.71 305.79 1420.33 308.794ZM1199.19 328.697L1069.85 340.339L1077.92 243.061L1207.26 231.42L1199.19 328.697Z" fill="#F5520C" fill-opacity="0.7"/>
<path d="M1388 331.015L1300.27 338.911L1308.36 241.632L1379.38 235.24C1416.98 231.856 1443.59 200.075 1440.22 162.598C1436.85 125.12 1404.98 98.6034 1367.39 101.987L1317.25 106.499L1326.09 17.5483C1331.45 -16.5169 1303.39 -47.5741 1265.04 -52.5184C1230.87 -57.8387 1199.7 -29.8458 1194.72 8.38347L1183.58 118.531L1054.07 130.187L1062.91 41.2361C1068.27 7.17092 1040.21 -23.8863 1001.86 -28.8306C967.689 -34.1509 936.518 -6.15803 931.536 32.0713L920.393 142.219L807.601 152.371C770.004 155.755 743.385 187.536 746.758 225.013C750.131 262.491 790.352 288.256 827.949 284.872L915.677 276.976L907.587 374.255L836.57 380.647C798.972 384.031 772.354 415.812 775.727 453.289C779.1 490.767 810.966 517.284 848.563 513.9L898.693 509.388L889.854 598.339C884.497 632.404 912.561 663.461 950.908 668.405C976.722 674.478 1016.62 649.897 1021.23 607.504L1032.37 497.356L1161.87 485.7L1153.04 574.651C1147.68 608.716 1175.74 639.773 1214.09 644.718C1239.9 650.79 1279.81 626.209 1284.41 583.816L1295.56 473.668L1408.35 463.516C1445.94 460.132 1472.56 428.351 1469.19 390.874C1453.28 354.524 1421.42 328.007 1388 331.015ZM1166.59 350.943L1037.09 362.599L1045.18 265.32L1174.68 253.664L1166.59 350.943Z" fill="url(#paint0_linear)" fill-opacity="0.5"/>
<path d="M1298.28 338.746L1298.08 341.117L1300.45 340.903L1388.18 333.007C1420.3 330.116 1451.46 355.588 1467.23 391.376C1470.32 427.607 1444.56 458.248 1408.17 461.524L1295.38 471.676L1293.73 471.824L1293.57 473.467L1282.42 583.6C1282.42 583.602 1282.42 583.604 1282.42 583.607C1280.18 604.203 1269.37 620.472 1255.98 630.861C1242.52 641.296 1226.7 645.629 1214.55 642.771L1214.45 642.747L1214.35 642.734C1176.8 637.894 1149.88 607.627 1155.01 574.962L1155.02 574.905L1155.03 574.849L1163.87 485.898L1164.1 483.491L1161.7 483.708L1032.19 495.364L1030.55 495.512L1030.38 497.154L1019.24 607.287C1019.24 607.29 1019.24 607.292 1019.24 607.295C1017 627.89 1006.19 644.159 992.796 654.549C979.34 664.984 963.518 669.317 951.366 666.459L951.265 666.435L951.163 666.422C913.622 661.581 886.693 631.315 891.83 598.649L891.838 598.593L891.844 598.537L900.684 509.585L900.923 507.179L898.514 507.396L848.384 511.908C811.88 515.193 780.992 489.481 777.719 453.11C774.445 416.739 800.246 385.924 836.749 382.639L907.767 376.247L909.441 376.096L909.581 374.421L917.67 277.141L917.867 274.77L915.498 274.984L827.77 282.88C809.466 284.527 790.48 279.074 775.672 268.631C760.872 258.193 750.374 242.873 748.75 224.834C745.477 188.463 771.277 157.648 807.78 154.363L920.572 144.211L922.217 144.063L922.383 142.42L933.523 32.301C938.41 -5.09666 968.776 -31.9575 1001.55 -26.8544L1001.58 -26.8503L1001.6 -26.847C1039.14 -22.0066 1066.07 8.25983 1060.94 40.9254L1060.93 40.9817L1060.92 41.0383L1052.08 129.989L1051.84 132.396L1054.25 132.179L1183.75 120.523L1185.4 120.375L1185.57 118.733L1196.7 8.61425C1201.59 -28.784 1231.96 -55.6454 1264.73 -50.5422L1264.76 -50.5382L1264.78 -50.5348C1302.33 -45.6944 1329.26 -15.428 1324.12 17.2376L1324.11 17.2938L1324.1 17.3505L1315.26 106.302L1315.03 108.708L1317.43 108.491L1367.56 103.979C1404.07 100.694 1434.96 126.406 1438.23 162.777C1441.5 199.148 1415.7 229.963 1379.2 233.248L1308.18 239.64L1306.51 239.791L1306.37 241.466L1298.28 338.746ZM1166.77 352.935L1168.45 352.784L1168.59 351.109L1176.67 253.83L1176.87 251.459L1174.5 251.672L1045 263.328L1043.33 263.479L1043.19 265.154L1035.1 362.433L1034.9 364.804L1037.27 364.591L1166.77 352.935Z" stroke="#FF8A00" stroke-opacity="0.4" stroke-width="4"/>
</g>
<defs>
<linearGradient id="paint0_linear" x1="1076.91" y1="-37.2033" x2="1139.06" y2="653.295" gradientUnits="userSpaceOnUse">
<stop stop-color="#FF9900"/>
<stop offset="1" stop-color="#FF6B00"/>
</linearGradient>
</defs>
</svg>
