<svg width="1920" height="911" viewBox="0 0 1920 911" fill="none" xmlns="http://www.w3.org/2000/svg">
<g clip-path="url(#clip0)">
<path d="M102.053 759.716C56.3993 755.662 19.9791 719.9 15.0927 674.327L-48.5 81.2407L1928.63 -2.2594V921.929L102.053 759.716Z" fill="#FF6B00"/>
<mask id="mask0" mask-type="alpha" maskUnits="userSpaceOnUse" x="0" y="-2" width="1921" height="924">
<path d="M90.8619 689.06C46.698 683.458 12.1803 648.228 7.48053 603.959L0.000307208 533.5L0 79.5L1921 -1.75989V921.24L90.8619 689.06Z" fill="#FF6B00"/>
</mask>
<g mask="url(#mask0)">
<path opacity="0.3" d="M-112.679 350.346H-38.8037L-52.8749 269.481H-112.679C-144.34 269.481 -168.964 244.87 -168.964 213.227C-168.964 181.585 -144.34 156.974 -112.679 156.974H-70.4642L-84.536 83.1405C-91.5717 55.0136 -70.4644 26.8867 -38.8037 19.855C-10.6608 12.8232 17.4821 33.9184 24.5179 65.5612L42.1072 156.974H151.161L137.089 83.1405C130.054 55.0136 151.161 26.8867 182.822 19.855C210.964 12.8232 239.107 33.9184 246.143 65.5612L263.732 156.974H358.715C390.375 156.974 415 181.585 415 213.227C415 244.87 383.34 269.481 351.679 269.481H277.804L291.875 350.346H351.679C383.34 350.346 407.964 374.957 407.964 406.6C407.964 438.242 383.34 462.853 351.679 462.853H309.464L323.536 536.687C330.572 564.813 309.464 592.94 277.804 599.972C256.697 607.004 221.518 589.424 214.482 554.266L196.893 462.853H87.8395L101.911 536.687C108.946 564.813 87.8392 592.94 56.1784 599.972C35.0713 607.004 -0.107422 589.424 -7.14313 554.266L-24.7325 462.853H-119.715C-151.375 462.853 -176 438.242 -176 406.6C-165.446 374.957 -140.822 350.346 -112.679 350.346ZM73.7677 350.346H182.822L168.75 269.481H59.6965L73.7677 350.346Z" fill="#F5520C" fill-opacity="0.7"/>
<path d="M-83.5718 366.346H-9.57159L-23.6666 285.481H-83.5718C-115.286 285.481 -139.953 260.87 -139.953 229.227C-139.953 197.585 -115.286 172.974 -83.5718 172.974H-41.2857L-55.3813 99.1405C-62.4289 71.0136 -41.2859 42.8867 -9.57159 35.855C18.6189 28.8232 46.8095 49.9184 53.8571 81.5612L71.4762 172.974H180.714L166.619 99.1405C159.571 71.0136 180.714 42.8867 212.429 35.855C240.619 28.8232 268.81 49.9184 275.857 81.5612L293.477 172.974H388.619C420.334 172.974 445 197.585 445 229.227C445 260.87 413.286 285.481 381.572 285.481H307.572L321.667 366.346H381.572C413.286 366.346 437.952 390.957 437.952 422.6C437.952 454.242 413.286 478.853 381.572 478.853H339.286L353.381 552.687C360.429 580.813 339.286 608.94 307.572 615.972C286.429 623.004 251.19 605.424 244.143 570.266L226.524 478.853H117.286L131.381 552.687C138.429 580.813 117.286 608.94 85.5713 615.972C64.4284 623.004 29.1902 605.424 22.1425 570.266L4.52347 478.853H-90.6194C-122.334 478.853 -147 454.242 -147 422.6C-136.429 390.957 -111.762 366.346 -83.5718 366.346ZM103.19 366.346H212.429L198.333 285.481H89.0953L103.19 366.346Z" fill="url(#paint0_linear)" fill-opacity="0.5"/>
<path d="M-7.19287 368.346H-83.5718C-110.456 368.346 -134.511 391.852 -144.999 422.924C-144.832 453.301 -121.125 476.853 -90.6194 476.853H6.17477L24.1035 569.873C24.1041 569.876 24.1047 569.879 24.1053 569.882C27.5128 586.868 37.7249 599.607 49.651 607.257C61.6409 614.947 75.1055 617.345 84.9401 614.074L85.0378 614.042L85.1383 614.019C116.058 607.164 136.145 579.927 129.441 553.173L129.427 553.117L129.416 553.062L114.868 476.853H228.175L246.104 569.873C246.104 569.876 246.105 569.879 246.106 569.882C249.513 586.868 259.725 599.607 271.651 607.257C283.641 614.947 297.106 617.345 306.94 614.074L307.038 614.042L307.139 614.019C338.058 607.164 358.145 579.927 351.441 553.173L351.427 553.117L351.417 553.062L336.868 476.853H381.572C412.186 476.853 435.952 453.134 435.952 422.6C435.952 392.066 412.186 368.346 381.572 368.346H319.985L305.193 283.481H381.572C396.931 283.481 412.334 277.512 423.884 267.696C435.425 257.887 443 244.347 443 229.227C443 198.693 419.233 174.974 388.619 174.974H291.825L273.899 81.9681C267.02 51.1434 239.732 31.1059 212.913 37.7955L212.887 37.8019L212.862 37.8075C181.942 44.663 161.855 71.8998 168.559 98.6544L168.573 98.7096L168.584 98.7654L183.132 174.974H69.8249L51.8988 81.9681C45.0196 51.1434 17.7315 31.1059 -9.08759 37.7955L-9.11307 37.8019L-9.1387 37.8075C-40.0581 44.663 -60.145 71.8998 -53.4412 98.6544L-53.4274 98.7095L-38.8677 174.974H-83.5718C-114.186 174.974 -137.953 198.693 -137.953 229.227C-137.953 259.761 -114.186 283.481 -83.5718 283.481H-21.9851L-7.19287 368.346ZM101.509 368.346L86.7165 283.481H200.015L214.807 368.346H101.509Z" stroke="#FF8A00" stroke-opacity="0.4" stroke-width="4"/>
</g>
</g>
<defs>
<linearGradient id="paint0_linear" x1="149" y1="34.5" x2="149" y2="617.5" gradientUnits="userSpaceOnUse">
<stop stop-color="#FF9900"/>
<stop offset="1" stop-color="#FF6B00"/>
</linearGradient>
<clipPath id="clip0">
<rect width="1920" height="911" fill="white"/>
</clipPath>
</defs>
</svg>
