<svg xmlns="http://www.w3.org/2000/svg" width="141" height="283" fill="none" xmlns:v="https://vecta.io/nano"><path fill-rule="evenodd" d="M214.931 163.085l7.425-43.254h30.323c14.031 0 24.952-11.026 24.952-25.306s-10.921-25.307-24.952-25.307h-22.626l7.194-38.265.014-.054c3.038-12.312-6.056-25.061-20.397-28.29l-.026-.006-.025-.007c-12.075-3.058-24.663 6.082-27.871 20.649l-8.726 45.973h-56.288l7.194-38.265.014-.054c3.038-12.312-6.056-25.061-20.397-28.29l-.026-.006-.026-.007C98.613-.462 86.025 8.678 82.817 23.246l-8.726 45.972H26.952C12.921 69.218 2 80.244 2 94.525c0 13.989 13.979 25.306 28.321 25.306h37.748l-7.425 43.254H30.321c-14.032 0-24.952 11.026-24.952 25.306s10.921 25.307 24.952 25.307h22.626l-7.194 38.265-.013.054c-3.038 12.312 6.055 25.061 20.396 28.29l.102.023.099.033c4.306 1.454 10.404.422 15.956-3.194 5.487-3.574 10.191-9.528 11.762-17.477l8.73-45.994h56.288l-7.194 38.265-.014.054c-3.038 12.312 6.056 25.061 20.397 28.29l.102.023.098.033c4.306 1.454 10.404.422 15.957-3.194a26.99 26.99 0 0 0 11.761-17.476l8.731-45.995h47.138c13.927 0 24.789-10.863 24.95-24.988-4.974-14.802-16.162-25.625-28.319-25.625h-37.748zM283 188.391c0 15.36-11.792 27.307-26.952 27.307h-45.482l-8.423 44.374c-3.369 17.066-20.214 25.6-30.321 22.186-15.161-3.413-25.268-17.066-21.899-30.72l6.738-35.84h-52.22l-8.423 44.374c-3.369 17.066-20.214 25.6-30.321 22.186-15.161-3.413-25.268-17.066-21.899-30.72l6.738-35.84H30.321c-15.161 0-26.952-11.947-26.952-27.307s11.792-27.306 26.952-27.306h28.637l6.738-39.254H30.321C15.161 121.831 0 109.885 0 94.525s11.792-27.307 26.952-27.307h45.482l8.423-44.373c3.369-15.36 16.845-25.6 30.322-22.187 15.16 3.413 25.267 17.067 21.898 30.72l-6.738 35.84h52.221l8.422-44.373c3.369-15.36 16.845-25.6 30.322-22.187 15.16 3.413 25.268 17.067 21.899 30.72l-6.739 35.84h20.215c15.161 0 26.952 11.947 26.952 27.307s-11.791 27.306-26.952 27.306h-28.637l-6.738 39.254h35.375c13.476 0 25.267 11.946 30.321 27.306zm-117.915-25.306h-56.279l7.425-43.254h56.278l-7.424 43.254zm-47.168-41.254h52.22l-6.738 39.254h-52.22l6.738-39.254z" fill="#c4c4c4" fill-opacity=".4"/></svg>