<svg xmlns="http://www.w3.org/2000/svg" width="224" height="80" fill="none" xmlns:v="https://vecta.io/nano"><g clip-path="url(#A)"><path d="M86.878 33.443c-2.779 0-5.882 1.064-6.532 4.566-.069.372.179.55.418.604l2.849.339c.264-.013.442-.298.493-.566.243-1.205 1.241-1.774 2.355-1.774.602 0 1.277.205 1.633.755.408.612.379 1.444.379 2.151v.415c-1.693.193-3.922.31-5.506 1.019-1.829.808-3.114 2.451-3.114 4.868 0 3.096 1.909 4.642 4.368 4.642 2.076 0 3.223-.484 4.824-2.151.531.785.701 1.141 1.671 1.962a.59.59 0 0 0 .354.073.58.58 0 0 0 .329-.148v.038l2.241-2c.238-.198.186-.524 0-.792-.534-.751-1.101-1.357-1.101-2.755v-4.642c0-1.966.168-3.779-1.253-5.133-1.122-1.095-2.989-1.472-4.408-1.472zm38.281 0c-2.78 0-5.88 1.064-6.532 4.566-.069.372.178.55.418.604l2.849.339c.264-.013.443-.298.493-.566.245-1.205 1.241-1.774 2.356-1.774.602 0 1.277.205 1.633.755.407.612.341 1.444.341 2.151v.415c-1.693.193-3.882.31-5.468 1.019-1.831.808-3.114 2.451-3.114 4.868 0 3.096 1.91 4.642 4.368 4.642 2.073 0 3.22-.484 4.823-2.151.53.785.701 1.141 1.671 1.962.219.116.49.104.683-.075v.038l2.241-2c.237-.198.183-.524 0-.792-.533-.751-1.101-1.357-1.101-2.755v-4.642c0-1.966.128-3.779-1.29-5.133-1.123-1.095-2.951-1.472-4.371-1.472zm-21.533.151c-1.797 0-3.129.901-3.836 2.831h-.038v-2a.57.57 0 0 0-.167-.363.58.58 0 0 0-.366-.166h-2.734a.58.58 0 0 0-.401.168c-.106.106-.167.249-.169.398v15.284a.59.59 0 0 0 .532.529h2.924a.58.58 0 0 0 .401-.168.57.57 0 0 0 .169-.399v-8.114c0-1.769-.086-4.189 2.013-4.189 2.072 0 1.785 2.487 1.785 4.189v8.114a.58.58 0 0 0 .532.566h2.924c.151-.002.295-.062.401-.168a.57.57 0 0 0 .169-.399v-8.114c0-.868-.035-2.133.266-2.906s1.038-1.282 1.748-1.282c.846 0 1.491.294 1.709 1.321.136.611.075 2.226.075 2.868v8.114a.58.58 0 0 0 .532.566h2.924c.151-.002.295-.062.401-.168a.57.57 0 0 0 .169-.399v-9.661c0-1.641.167-3.505-.759-4.793-.818-1.157-2.155-1.661-3.38-1.661-1.719 0-3.317.901-4.025 2.831-.819-1.93-1.974-2.832-3.8-2.832zm49.714 0c-4.226 0-6.57 3.692-6.57 8.454 0 4.729 2.319 8.528 6.57 8.528 4.089 0 6.684-3.712 6.684-8.379 0-4.822-2.351-8.603-6.684-8.603zm16.671 0c-2.019 0-3.172 1.004-3.987 3.094h-.038v-2.34c-.052-.237-.277-.401-.532-.415h-2.697a.56.56 0 0 0-.57.49v15.284a.58.58 0 0 0 .157.385c.098.105.232.169.375.182h2.887a.58.58 0 0 0 .4-.168c.107-.106.167-.249.17-.398V41.48c0-1.031.087-1.972.493-2.906.328-.74.961-1.208 1.671-1.208 2.015 0 1.823 2.441 1.823 4.113v8.303a.57.57 0 0 0 .179.339c.097.089.221.143.353.151h2.924c.287 0 .536-.217.57-.49v-9.624c0-1.479.004-3.535-.759-4.756-.818-1.318-2.112-1.809-3.419-1.809zm-35.092.264c-.296 0-.531.234-.532.566v2.188c.001.327.229.564.532.566h5.014l-5.735 8.416c-.35.542-.38 1.157-.38 1.51v2.227c0 .321.352.67.683.49a10.86 10.86 0 0 1 10.141-.037c.358.194.722-.17.722-.49v-2.341a1 1 0 0 0-.533-.831c-1.677-.959-3.624-1.252-5.468-1.208l4.975-7.246c.461-.651.718-1.043.722-1.359v-1.886c0-.325-.224-.566-.532-.566h-9.609zm18.421 2.868c.926 0 1.609.411 1.937 1.472.379 1.223.418 2.751.418 4.038 0 1.961-.092 5.207-2.355 5.207-2.289 0-2.279-4.019-2.279-5.887s.125-4.831 2.279-4.831zm-64.906 5.585v.641c0 1.16.043 2.137-.532 3.17-.464.839-1.193 1.359-2.013 1.359-1.118 0-1.785-.901-1.785-2.188.001-2.538 2.22-2.982 4.33-2.982zm38.282 0v.641c0 1.16.043 2.137-.532 3.17-.464.839-1.19 1.359-2.013 1.359-1.119 0-1.785-.901-1.785-2.188.001-2.538 2.218-2.982 4.33-2.982z" fill="#201c1d"/><path d="M145.667 50.766v2.188h1.482v-2.188h-1.482zm-42.953.377v15.586h1.367v-1.396c.292.553.623.967 1.026 1.245s.861.415 1.367.415c1.004 0 1.87-.51 2.62-1.547s1.14-2.541 1.14-4.454c0-1.252-.162-2.29-.493-3.17s-.776-1.531-1.33-1.962-1.184-.679-1.861-.679a2.44 2.44 0 0 0-1.329.377c-.395.251-.715.661-1.026 1.17v-5.585h-1.481zm14.052 3.662c-1.03 0-1.848.303-2.43.906s-.874 1.378-.874 2.34c0 .559.126 1.031.341 1.472s.525.795.912 1.057 1.164.606 2.316.981c.797.255 1.274.472 1.482.641.301.248.455.572.455 1.019 0 .517-.18.948-.532 1.282s-.84.49-1.481.49-1.171-.179-1.557-.566-.596-.977-.683-1.774l-1.482.302c.335 2.421 1.55 3.624 3.646 3.623 1.118 0 1.974-.315 2.62-.981s.987-1.564.987-2.642c0-.582-.103-1.087-.304-1.51a2.38 2.38 0 0 0-.836-.981c-.361-.244-1.165-.57-2.393-.981-.892-.31-1.414-.537-1.594-.679a1.18 1.18 0 0 1-.456-.981c0-.425.141-.785.456-1.057s.8-.415 1.444-.415c1.132 0 1.766.618 1.898 1.849l1.444-.227c-.1-.779-.271-1.394-.533-1.812s-.647-.77-1.14-1.019-1.056-.339-1.706-.339zm9.077 0c-1.187 0-2.188.486-2.963 1.51s-1.14 2.507-1.14 4.454c0 1.875.374 3.345 1.14 4.34s1.761 1.472 3.001 1.472c.986 0 1.802-.293 2.468-.906s1.151-1.513 1.405-2.717l-1.519-.264c-.436 1.542-1.241 2.299-2.355 2.302-.71 0-1.29-.299-1.786-.943s-.776-1.601-.836-2.868h6.533v-.529c0-1.904-.382-3.334-1.14-4.34s-1.676-1.51-2.808-1.51zm9.001 0c-.355 0-.665.12-.949.377s-.608.791-.95 1.584v-1.737h-1.329v11.284h1.481v-5.886c0-.821.078-1.611.267-2.341.106-.418.308-.747.57-.981a1.28 1.28 0 0 1 .873-.339c.349 0 .695.139 1.064.415l.493-1.774c-.518-.411-1.024-.604-1.52-.604zm18.153 0c-1.173 0-2.139.49-2.887 1.472s-1.14 2.454-1.14 4.415c0 1.946.399 3.42 1.14 4.415s1.666 1.472 2.81 1.472c.944 0 1.756-.349 2.431-1.057s1.085-1.749 1.253-3.094l-1.444-.227c-.107.963-.36 1.655-.76 2.113s-.881.679-1.443.679c-.717 0-1.328-.332-1.786-1.019s-.683-1.786-.683-3.321c0-1.488.242-2.561.722-3.246s1.092-1.057 1.823-1.057c.489 0 .906.188 1.253.566s.582.976.722 1.737l1.444-.302c-.174-1.188-.558-2.086-1.178-2.68s-1.372-.867-2.277-.867zm8.469 0c-1.187 0-2.189.486-2.963 1.51s-1.14 2.507-1.14 4.454c0 1.875.373 3.345 1.14 4.34s1.761 1.472 3.001 1.472c.983 0 1.801-.293 2.468-.906s1.15-1.513 1.405-2.717l-1.519-.264c-.437 1.542-1.206 2.299-2.317 2.302-.709 0-1.327-.299-1.823-.943s-.775-1.601-.836-2.868h6.533v-.529c0-1.904-.382-3.334-1.14-4.34s-1.676-1.51-2.809-1.51zm8.773 0c-1.033 0-1.848.303-2.43.906s-.874 1.378-.874 2.34c0 .559.089 1.031.304 1.472s.522.795.911 1.057 1.166.606 2.317.981c.794.255 1.311.472 1.519.641.301.248.455.572.455 1.019 0 .517-.179.948-.532 1.282s-.84.49-1.481.49-1.171-.179-1.557-.566-.636-.977-.722-1.774l-1.481.302c.334 2.421 1.547 3.624 3.645 3.623 1.12 0 2.012-.315 2.659-.981s.987-1.564.987-2.642c0-.582-.103-1.087-.304-1.51s-.512-.735-.873-.981-1.128-.57-2.356-.981c-.892-.31-1.452-.537-1.633-.679a1.18 1.18 0 0 1-.456-.981 1.36 1.36 0 0 1 .494-1.057c.315-.272.802-.415 1.444-.415 1.132 0 1.765.618 1.898 1.849l1.444-.227c-.101-.779-.27-1.394-.533-1.812a2.83 2.83 0 0 0-1.14-1.019c-.487-.248-1.056-.339-1.705-.339zm-33.876.226l3.304 11.284h1.405l3.305-11.284h-1.52l-1.937 6.907-.57 2.151-.532-2.302-1.898-6.756h-1.557zm9.304 0v11.284h1.482V55.03h-1.482zm-48.687.151c-1.175 0-2.121.524-2.886 1.547s-1.178 2.507-1.178 4.454c0 1.875.379 3.308 1.14 4.302s1.773 1.51 3.001 1.51c.975 0 1.771-.331 2.431-.943s1.115-1.513 1.367-2.717l-1.481-.227c-.431 1.542-1.215 2.299-2.316 2.302-.704 0-1.294-.299-1.785-.943s-.777-1.601-.836-2.868h6.456l.037-.529c0-1.904-.388-3.372-1.139-4.378s-1.689-1.508-2.808-1.508zm-16.673.265l2.659 11.284h1.557l1.748-8.681.304 1.925 1.405 6.756h1.519l2.697-11.284h-1.405l-1.481 6.529-.493 2.188-.456-2.188-1.291-6.529H85.55l-1.367 6.605-.456 2.34-.532-2.415-1.367-6.529h-1.52v-.001zm94.527.113v.529h1.444v3.774h.57v-3.774h1.444v-.529h-3.458zm4.027 0v4.302h.532V56.2l1.253 3.66h.532l1.253-3.586v3.586h.57v-4.302h-.797l-1.026 3.019-.228.679-.229-.641-1.025-3.057h-.835zm-53.057.792c.738 0 1.346.355 1.823 1.057.328.481.541 1.212.608 2.188h-4.899c.046-.99.328-1.755.797-2.34s1.009-.905 1.671-.905zm35.624 0c.736 0 1.346.355 1.823 1.057.328.481.541 1.212.608 2.188h-4.899c.046-.99.328-1.755.797-2.34s1.008-.905 1.671-.905zm-64.448.416c.729 0 1.315.355 1.785 1.057.324.481.541 1.212.608 2.188h-4.823c.046-.99.293-1.792.76-2.378s1.014-.867 1.671-.867zm9.419 0c.658 0 1.218.364 1.671 1.057s.645 1.764.645 3.246c0 1.443-.214 2.519-.683 3.246s-1.028 1.094-1.633 1.094c-.445 0-.85-.149-1.216-.453s-.635-.74-.836-1.321-.304-1.475-.304-2.642c0-1.376.247-2.406.722-3.133s1.028-1.094 1.634-1.094z" fill="#000"/><path d="M59.02 44.803l-5.658 2.415 5.24 2.227 6.076-2.227-5.658-2.415zm-8.507 3.019l-.19 10.869 8.279 3.623V51.03l-8.089-3.207zm17.014 0l-7.481 2.831v10.642l7.481-3.019V47.822zm8.925-33.814l-5.697 2.415 5.279 2.227 6.077-2.227-5.658-2.415zm-7.899 3.209v10.869l7.063 2.038.228-9.888-7.292-3.019zm15.799.604l-6.684 2.831v10.681l6.684-3.019V17.82zM49.697 29.305l-5.658 2.415 5.24 2.227 6.077-2.227-5.659-2.415zm-8.507 3.019L41 43.193l8.279 3.623V35.532l-8.089-3.207zm17.014 0l-7.481 2.831v10.642l7.481-3.019V32.324zm9.722-3.42l-5.658 2.415 5.24 2.227 6.077-2.227-5.658-2.415zm-8.507 3.019l-.19 10.869 8.279 3.623V35.132l-8.089-3.209zm17.014 0l-7.481 2.831v10.642l7.481-3.019V31.923zm17.825-17.916L88.6 16.423l5.24 2.227 6.077-2.227-5.658-2.415zm-8.507 3.019l-.19 10.869 8.279 3.623V20.236l-8.089-3.209zm17.014 0l-7.481 2.831V30.5l7.481-3.019V17.027z" fill="#f7a80d"/></g><defs><clipPath id="A"><path fill="#fff" transform="translate(41 14)" d="M0 0h142v53H0z"/></clipPath></defs></svg>