<svg width="163" height="45" viewBox="0 0 163 45" fill="none" xmlns="http://www.w3.org/2000/svg">
<path d="M44.5392 14.8904L54.7005 28.7638V14.8904H56.7318V32.1123H54.584L44.4236 18.117V32.1123H42.3911V14.8904H44.5392Z" fill="#CCCCCC"/>
<path d="M73.2208 31.4378C71.8821 31.9685 70.4377 32.2329 68.8895 32.2329C62.8754 32.2329 59.8671 29.2425 59.8671 23.2607C59.8671 17.6002 62.7701 14.7695 68.5752 14.7695C70.2409 14.7695 71.7895 15.0111 73.2206 15.4934V17.4202C71.7893 16.858 70.3176 16.5766 68.8074 16.5766C64.2796 16.5766 62.0161 18.8054 62.0161 23.2607C62.0161 28.0375 64.2441 30.4271 68.7045 30.4271C69.4158 30.4271 70.2052 30.3303 71.073 30.1369V24.2845H73.2208V31.4378Z" fill="#CCCCCC"/>
<path d="M76.6469 25.4644V14.8911H78.7936V25.4642C78.7936 28.772 80.3811 30.4278 83.5555 30.4278C86.729 30.4278 88.3165 28.7718 88.3165 25.4642V14.8911H90.4644V25.4642C90.4644 29.978 88.1615 32.2336 83.5555 32.2336C78.9498 32.2339 76.6469 29.978 76.6469 25.4644Z" fill="#CCCCCC"/>
<path d="M105.13 30.3064V32.1123H94.2957V14.8904H96.4426V30.3064H105.13Z" fill="#CCCCCC"/>
<path d="M114.257 12.6183L122.513 32.1123H120.133L117.984 26.6919H112.493L113.085 24.8875H117.265L114.165 17.0823L108.231 32.1123H106.002L114.257 12.6183Z" fill="#CCCCCC"/>
<path d="M124.777 32.1123V14.8904H131.86C135.019 14.8904 136.598 16.2679 136.598 19.0209C136.598 21.2617 135.055 22.9198 131.965 23.9945L137.666 32.1123H134.833L129.55 24.3688V22.9128C132.724 22.3896 134.31 21.1252 134.31 19.1187C134.31 17.5296 133.428 16.7334 131.664 16.7334H126.925V32.113H124.777L124.777 32.1123Z" fill="#CCCCCC"/>
<path d="M145.714 14.8904V27.1508C145.714 30.4584 143.837 32.112 140.081 32.112V30.3059C142.404 30.3059 143.566 29.2529 143.566 27.1506V14.8904H145.714Z" fill="#CCCCCC"/>
<path d="M149.546 31.51V29.4623C151.288 30.1045 153.169 30.4268 155.19 30.4268C158.046 30.4268 159.475 29.3427 159.475 27.1732C159.475 25.3294 158.421 24.4039 156.316 24.4039H154.179C150.703 24.4039 148.964 22.8393 148.964 19.7078C148.964 16.4165 151.191 14.769 155.643 14.769C157.578 14.769 159.378 15.0117 161.043 15.4929V17.5403C159.377 16.8974 157.578 16.576 155.643 16.576C152.624 16.576 151.114 17.6203 151.114 19.7078C151.114 21.5535 152.135 22.4771 154.179 22.4771H156.316C159.853 22.4771 161.623 24.0439 161.623 27.1732C161.623 30.5465 159.479 32.2329 155.189 32.2329C153.169 32.2329 151.288 31.9911 149.546 31.51Z" fill="#CCCCCC"/>
<path d="M45.0816 14.3288L55.242 28.2024V14.3288H57.2744V31.5506H55.1264L44.9653 17.5554V31.5506H42.9337V14.3288H45.0816Z" fill="black"/>
<path d="M73.7636 30.8759C72.4249 31.4067 70.9811 31.6708 69.4325 31.6708C63.4179 31.6708 60.41 28.6806 60.41 22.6988C60.41 17.0383 63.3131 14.2074 69.1194 14.2074C70.7836 14.2074 72.3325 14.4492 73.7636 14.9313V16.8578C72.3322 16.2956 70.8605 16.0142 69.3513 16.0142C64.8232 16.0142 62.5593 18.243 62.5593 22.6983C62.5593 27.4754 64.7883 29.865 69.2474 29.865C69.959 29.865 70.7494 29.7687 71.6169 29.5748V23.7221H73.7638L73.7636 30.8759Z" fill="black"/>
<path d="M77.1893 24.902V14.3275H79.3359V24.9018C79.3359 28.2094 80.9235 29.8642 84.0981 29.8642C87.2713 29.8642 88.8588 28.2092 88.8588 24.9018V14.3275H91.0067V24.9018C91.0067 29.4154 88.7038 31.67 84.0981 31.67C79.4921 31.67 77.1893 29.4159 77.1893 24.902Z" fill="black"/>
<path d="M105.674 29.7435V31.5494H94.8405V14.3275H96.9874V29.7435H105.674Z" fill="black"/>
<path d="M114.8 12.0547L123.056 31.5496H120.675L118.527 26.1297H113.035L113.628 24.3239H117.807L114.708 16.5187L108.773 31.5496H106.544L114.8 12.0547Z" fill="black"/>
<path d="M125.321 31.5506V14.3288H132.405C135.564 14.3288 137.141 15.7053 137.141 18.4596C137.141 20.6991 135.599 22.3583 132.509 23.4327L138.211 31.5506H135.376L130.094 23.807V22.3495C133.268 21.8263 134.855 20.5631 134.855 18.5554C134.855 16.9663 133.972 16.1714 132.207 16.1714H127.469V31.5506H125.321Z" fill="black"/>
<path d="M146.259 14.3275V26.5882C146.259 29.8968 144.381 31.5494 140.626 31.5494V29.7435C142.949 29.7435 144.11 28.6903 144.11 26.588V14.3275H146.259Z" fill="#A6120D"/>
<path d="M150.089 30.9473V28.9002C151.832 29.5421 153.712 29.8647 155.733 29.8647C158.589 29.8647 160.018 28.7801 160.018 26.6118C160.018 24.767 158.965 23.8425 156.859 23.8425H154.722C151.247 23.8425 149.508 22.2769 149.508 19.1452C149.508 15.8538 151.734 14.2066 156.187 14.2066C158.121 14.2066 159.921 14.4494 161.586 14.9305V16.9781C159.92 16.335 158.121 16.0137 156.187 16.0137C153.167 16.0137 151.658 17.0579 151.658 19.1454C151.658 20.9912 152.678 21.9147 154.722 21.9147H156.859C160.396 21.9147 162.166 23.4807 162.166 26.6118C162.166 29.9843 160.022 31.6705 155.733 31.6705C153.712 31.6703 151.832 31.4285 150.089 30.9473Z" fill="#A6120D"/>
<path d="M130.247 40.742L129.459 38.2549H128.898L129.986 41.3976C129.961 41.4659 129.92 41.57 129.863 41.7106C129.807 41.8512 129.773 41.9286 129.765 41.9439C129.735 41.9896 129.699 42.0281 129.656 42.0594C129.613 42.0908 129.545 42.1064 129.454 42.1064C129.425 42.1064 129.391 42.1032 129.352 42.0979C129.314 42.0923 129.252 42.0769 129.166 42.0521V42.5199C129.221 42.5352 129.268 42.5452 129.305 42.5513C129.342 42.5566 129.396 42.5595 129.466 42.5595C129.751 42.5595 129.953 42.4742 130.07 42.3032C130.187 42.1322 130.388 41.6576 130.674 40.879C130.795 40.5484 130.945 40.1203 131.125 39.5959C131.364 38.898 131.52 38.4512 131.589 38.2551H131.042L130.247 40.742ZM127.319 40.9515C126.962 40.9515 126.718 40.7836 126.588 40.447C126.518 40.2687 126.484 40.0359 126.484 39.7489C126.484 39.3519 126.568 39.0668 126.739 38.8934C126.909 38.7209 127.107 38.6343 127.333 38.6343C127.592 38.6343 127.788 38.7401 127.922 38.9508C128.055 39.1617 128.122 39.4278 128.122 39.7489C128.122 40.1101 128.055 40.4008 127.922 40.6211C127.788 40.8413 127.587 40.9515 127.319 40.9515ZM126.03 41.3078H126.486V40.9176C126.59 41.0643 126.689 41.1706 126.781 41.237C126.935 41.3492 127.125 41.4051 127.349 41.4051C127.75 41.4051 128.064 41.2455 128.29 40.9259C128.517 40.6065 128.63 40.2059 128.63 39.7233C128.63 39.214 128.515 38.8287 128.286 38.5674C128.057 38.3062 127.759 38.1756 127.391 38.1756C127.214 38.1756 127.051 38.214 126.899 38.2911C126.749 38.368 126.619 38.4796 126.511 38.626V37.1068H126.03V41.3078Z" fill="black"/>
<path d="M4.01593 34.4947L20.3652 43.8143L36.7986 34.3685L39.8621 8.01744L20.3445 1.06433L0.951294 8.14271L4.01593 34.4947Z" fill="#B3B3B3"/>
<path d="M20.2992 41.5882L35.0726 33.1083L37.9276 9.5409L20.2992 3.30609V41.5882Z" fill="#A6120D"/>
<path d="M20.2986 41.5878V3.30499L3.12704 9.65291L5.7531 33.2205L20.2986 41.5878Z" fill="#DD1B16"/>
<path d="M25.1516 23.6856L20.2991 26.0389H15.1846L12.7804 32.2757L8.30862 32.3616L20.2991 4.69629L25.1516 23.6856ZM24.6825 22.5007L20.3312 13.5666L16.7621 22.347H20.2989L24.6825 22.5007Z" fill="#F2F2F2"/>
<path d="M24.3809 22.3538H20.308L20.2989 26.0333L25.9307 26.0389L28.5629 32.3625L32.8417 32.4447L20.2989 4.69629L20.331 13.5666L24.3809 22.3538Z" fill="#B3B3B3"/>
<path d="M145.491 39.0999C145.491 40.4539 144.47 41.4516 143.216 41.4516C141.963 41.4516 140.942 40.4539 140.942 39.0999C140.942 37.7364 141.963 36.7482 143.216 36.7482C144.47 36.7482 145.491 37.7364 145.491 39.0999ZM144.495 39.0999C144.495 38.2538 143.903 37.6749 143.216 37.6749C142.529 37.6749 141.937 38.2538 141.937 39.0999C141.937 39.9375 142.529 40.5249 143.216 40.5249C143.903 40.5249 144.495 39.9365 144.495 39.0999Z" fill="black"/>
<path d="M150.397 39.0999C150.397 40.4539 149.376 41.4516 148.122 41.4516C146.869 41.4516 145.848 40.4539 145.848 39.0999C145.848 37.7374 146.869 36.7482 148.122 36.7482C149.376 36.7482 150.397 37.7364 150.397 39.0999ZM149.401 39.0999C149.401 38.2538 148.809 37.6749 148.122 37.6749C147.435 37.6749 146.844 38.2538 146.844 39.0999C146.844 39.9375 147.435 40.5249 148.122 40.5249C148.809 40.5249 149.401 39.9365 149.401 39.0999Z" fill="black"/>
<path d="M155.101 36.8902V41.1123C155.101 42.8491 154.113 43.5584 152.945 43.5584C151.846 43.5584 151.185 42.7961 150.936 42.1726L151.802 41.7984C151.957 42.1811 152.335 42.6328 152.944 42.6328C153.692 42.6328 154.155 42.1546 154.155 41.2544V40.9162H154.12C153.897 41.2014 153.468 41.4506 152.926 41.4506C151.792 41.4506 150.754 40.4263 150.754 39.1084C150.754 37.7809 151.792 36.7482 152.926 36.7482C153.467 36.7482 153.896 36.9973 154.12 37.2741H154.155V36.8913H155.101V36.8902ZM154.225 39.1084C154.225 38.2803 153.693 37.6749 153.015 37.6749C152.328 37.6749 151.752 38.2803 151.752 39.1084C151.752 39.928 152.328 40.5249 153.015 40.5249C153.693 40.5249 154.225 39.928 154.225 39.1084Z" fill="black"/>
<path d="M156.659 34.4157V41.3076H155.688V34.4157H156.659Z" fill="black"/>
<path d="M160.444 39.8731L161.217 40.4075C160.967 40.7902 160.366 41.4497 159.328 41.4497C158.04 41.4497 157.078 40.417 157.078 39.098C157.078 37.6995 158.048 36.7463 159.216 36.7463C160.393 36.7463 160.969 37.7175 161.157 38.2424L161.26 38.5095L158.229 39.8116C158.461 40.2834 158.822 40.5241 159.328 40.5241C159.835 40.5241 160.186 40.2654 160.444 39.8731ZM158.065 39.027L160.091 38.1543C159.98 37.8606 159.645 37.656 159.25 37.656C158.744 37.656 158.04 38.1194 158.065 39.027Z" fill="black"/>
<path d="M137.265 38.4878V37.49H140.506C140.538 37.6639 140.554 37.8696 140.554 38.0923C140.554 38.8408 140.357 39.7665 139.721 40.426C139.103 41.094 138.312 41.4502 137.266 41.4502C135.325 41.4502 133.694 39.811 133.694 37.7986C133.694 35.7861 135.325 34.1469 137.266 34.1469C138.339 34.1469 139.104 34.5838 139.678 35.1531L138.999 35.8572C138.587 35.4564 138.029 35.1446 137.265 35.1446C135.848 35.1446 134.739 36.329 134.739 37.7986C134.739 39.2681 135.848 40.4525 137.265 40.4525C138.184 40.4525 138.707 40.0697 139.042 39.722C139.314 39.4399 139.493 39.037 139.564 38.4867L137.265 38.4877V38.4878Z" fill="black"/>
</svg>
