<svg xmlns="http://www.w3.org/2000/svg" width="163" height="45" fill="none" xmlns:v="https://vecta.io/nano"><path d="M44.539 14.89L54.7 28.763V14.89h2.031v17.222h-2.148l-10.16-13.995v13.995h-2.032V14.89h2.148zm28.682 16.548c-1.339.531-2.783.795-4.331.795-6.014 0-9.022-2.99-9.022-8.972 0-5.66 2.903-8.491 8.708-8.491 1.666 0 3.214.242 4.645.724v1.927c-1.431-.562-2.903-.844-4.413-.844-4.528 0-6.791 2.229-6.791 6.684 0 4.777 2.228 7.166 6.688 7.166.711 0 1.501-.097 2.368-.29v-5.852h2.148v7.153zm3.426-5.974V14.891h2.147v10.573c0 3.308 1.588 4.964 4.762 4.964s4.761-1.656 4.761-4.964V14.891h2.148v10.573c0 4.514-2.303 6.769-6.909 6.769s-6.909-2.256-6.909-6.769zm28.483 4.842v1.806H94.296V14.89h2.147v15.416h8.687zm9.127-17.688l8.256 19.494h-2.38l-2.149-5.42h-5.491l.592-1.804h4.18l-3.1-7.805-5.934 15.03h-2.229l8.255-19.494zm10.52 19.494V14.89h7.083c3.159 0 4.738 1.378 4.738 4.131 0 2.241-1.543 3.899-4.633 4.974l5.701 8.118h-2.833l-5.283-7.743v-1.456c3.174-.523 4.76-1.788 4.76-3.794 0-1.589-.882-2.385-2.646-2.385h-4.739v15.38h-2.148v-.001zm20.937-17.222v12.26c0 3.308-1.877 4.961-5.633 4.961v-1.806c2.323 0 3.485-1.053 3.485-3.155V14.89h2.148zm3.832 16.62v-2.048c1.742.642 3.623.965 5.644.965 2.856 0 4.285-1.084 4.285-3.254 0-1.844-1.054-2.769-3.159-2.769h-2.137c-3.476 0-5.215-1.565-5.215-4.696 0-3.291 2.227-4.939 6.679-4.939 1.935 0 3.735.243 5.4.724v2.047c-1.666-.643-3.465-.964-5.4-.964-3.019 0-4.529 1.044-4.529 3.132 0 1.846 1.021 2.769 3.065 2.769h2.137c3.537 0 5.307 1.567 5.307 4.696 0 3.373-2.144 5.06-6.434 5.06-2.02 0-3.901-.242-5.643-.723z" fill="#ccc"/><path d="M45.082 14.329l10.16 13.874V14.329h2.032v17.222h-2.148L44.965 17.555V31.55h-2.032V14.329h2.148zm28.682 16.547c-1.339.531-2.782.795-4.331.795-6.015 0-9.023-2.99-9.023-8.972 0-5.66 2.903-8.491 8.709-8.491 1.664 0 3.213.242 4.644.724v1.927c-1.431-.562-2.903-.844-4.412-.844-4.528 0-6.792 2.229-6.792 6.684 0 4.777 2.229 7.167 6.688 7.167.712 0 1.502-.096 2.37-.29v-5.853h2.147v7.154zm3.425-5.974V14.328h2.147v10.574c0 3.308 1.588 4.962 4.762 4.962s4.761-1.655 4.761-4.962V14.328h2.148v10.574c0 4.514-2.303 6.768-6.909 6.768s-6.909-2.254-6.909-6.768zm28.485 4.842v1.806H94.841V14.328h2.147v15.416h8.687zm9.126-17.689l8.256 19.495h-2.381l-2.148-5.42h-5.492l.593-1.806h4.179l-3.099-7.805-5.935 15.031h-2.229l8.256-19.495zm10.521 19.496V14.329h7.084c3.159 0 4.736 1.377 4.736 4.131 0 2.24-1.542 3.899-4.632 4.973l5.702 8.118h-2.835l-5.282-7.744V22.35c3.174-.523 4.761-1.786 4.761-3.794 0-1.589-.883-2.384-2.648-2.384h-4.738v15.379h-2.148z" fill="#000"/><path d="M146.259 14.328v12.261c0 3.309-1.878 4.961-5.633 4.961v-1.806c2.323 0 3.484-1.053 3.484-3.155v-12.26h2.149zm3.83 16.619V28.9c1.743.642 3.623.964 5.644.964 2.856 0 4.285-1.085 4.285-3.253 0-1.845-1.053-2.769-3.159-2.769h-2.137c-3.475 0-5.214-1.566-5.214-4.697 0-3.291 2.226-4.939 6.679-4.939 1.934 0 3.734.243 5.399.724v2.048c-1.666-.643-3.465-.964-5.399-.964-3.02 0-4.529 1.044-4.529 3.132 0 1.846 1.02 2.769 3.064 2.769h2.137c3.537 0 5.307 1.566 5.307 4.697 0 3.373-2.144 5.059-6.433 5.059-2.021 0-3.901-.242-5.644-.723z" fill="#a6120d"/><path d="M130.247 40.742l-.788-2.487h-.561l1.088 3.143-.123.313-.098.233a.44.44 0 0 1-.109.115c-.043.031-.111.047-.202.047a.78.78 0 0 1-.102-.008 1.64 1.64 0 0 1-.186-.046v.468l.139.031c.037.005.091.008.161.008.285 0 .487-.085.604-.256s.318-.646.604-1.424l.451-1.283.464-1.341h-.547l-.795 2.487zm-2.928.21a.72.72 0 0 1-.731-.505c-.07-.178-.104-.411-.104-.698 0-.397.084-.682.255-.855a.81.81 0 0 1 .594-.259c.259 0 .455.106.589.316s.2.477.2.798c0 .361-.067.652-.2.872a.66.66 0 0 1-.603.33zm-1.289.356h.456v-.39a1.37 1.37 0 0 0 .295.319.94.94 0 0 0 .568.168c.401 0 .715-.16.941-.479s.34-.72.34-1.203c0-.509-.115-.895-.344-1.156s-.527-.392-.895-.392a1.07 1.07 0 0 0-.492.115 1.11 1.11 0 0 0-.388.335v-1.519h-.481v4.201z" fill="#000"/><path d="M4.016 34.495l16.349 9.32 16.433-9.446 3.063-26.351-19.518-6.953L.951 8.143l3.065 26.352z" fill="#b3b3b3"/><path d="M20.299 41.588l14.773-8.48 2.855-23.567-17.628-6.235v38.282z" fill="#a6120d"/><path d="M20.299 41.588V3.305L3.127 9.653l2.626 23.568 14.546 8.367z" fill="#dd1b16"/><path d="M25.152 23.686L20.3 26.039h-5.114l-2.404 6.237-4.472.086L20.3 4.697l4.852 18.989zm-.469-1.185l-4.351-8.934-3.569 8.78H20.3l4.384.154z" fill="#f2f2f2"/><path d="M24.381 22.354h-4.073l-.009 3.68 5.632.006 2.632 6.324 4.279.082-12.543-27.75.032 8.87 4.05 8.787z" fill="#b3b3b3"/><path d="M145.491 39.1c0 1.354-1.021 2.352-2.275 2.352s-2.274-.998-2.274-2.352c0-1.363 1.021-2.352 2.274-2.352s2.275.988 2.275 2.352zm-.996 0c0-.846-.592-1.425-1.279-1.425s-1.279.579-1.279 1.425c0 .838.592 1.425 1.279 1.425s1.279-.588 1.279-1.425zm5.902 0c0 1.354-1.021 2.352-2.275 2.352s-2.274-.998-2.274-2.352c0-1.362 1.021-2.352 2.274-2.352s2.275.988 2.275 2.352zm-.996 0c0-.846-.592-1.425-1.279-1.425s-1.278.579-1.278 1.425c0 .838.591 1.425 1.278 1.425s1.279-.588 1.279-1.425zm5.7-2.21v4.222c0 1.737-.988 2.446-2.156 2.446-1.099 0-1.76-.762-2.009-1.386l.866-.374c.155.383.533.834 1.142.834.748 0 1.211-.478 1.211-1.378v-.338h-.035c-.223.285-.652.534-1.194.534-1.134 0-2.172-1.024-2.172-2.342 0-1.328 1.038-2.36 2.172-2.36.541 0 .97.249 1.194.526h.035v-.383h.946v-.001zm-.876 2.218c0-.828-.532-1.434-1.21-1.434-.687 0-1.263.605-1.263 1.434 0 .82.576 1.416 1.263 1.416.678 0 1.21-.597 1.21-1.416zm2.434-4.692v6.892h-.971v-6.892h.971zm3.785 5.457l.773.534c-.25.383-.851 1.042-1.889 1.042-1.288 0-2.25-1.033-2.25-2.352 0-1.398.97-2.352 2.138-2.352 1.177 0 1.753.971 1.941 1.496l.103.267-3.031 1.302c.232.472.593.712 1.099.712s.858-.259 1.116-.651zm-2.379-.846l2.026-.873c-.111-.294-.446-.498-.841-.498-.506 0-1.21.463-1.185 1.371zm-20.8-.539v-.998h3.241a3.4 3.4 0 0 1 .048.602c0 .749-.197 1.674-.833 2.334-.618.668-1.409 1.024-2.455 1.024-1.941 0-3.572-1.639-3.572-3.652s1.631-3.652 3.572-3.652c1.073 0 1.838.437 2.412 1.006l-.679.704c-.412-.401-.97-.713-1.734-.713-1.417 0-2.526 1.184-2.526 2.654s1.109 2.654 2.526 2.654c.919 0 1.442-.383 1.777-.73.272-.282.451-.685.522-1.235l-2.299.001h0z" fill="#000"/></svg>