<svg xmlns="http://www.w3.org/2000/svg" width="162" height="43" fill="#ee4323" xmlns:v="https://vecta.io/nano"><path d="M49.461 30.222c-2.411 0-3.112-1.402-3.112-3.504 0-.7.088-1.49.196-2.323.528-3.634 1.818-5.713 4.93-5.713 2.105 0 3.131.94 3.131 2.648v.833h2.088c.023 0 .023-.767.023-.941 0-2.496-1.513-4.863-5.239-4.863-5.064 0-7.146 2.748-7.913 8.135-.11.723-.176 1.398-.176 2.118 0 3.175 1.25 6.063 5.722 6.063 3.397 0 5.415-1.655 6.598-3.691l-1.995-1.342c-1.293 2.037-2.697 2.579-4.253 2.579zm13.7-10.029c-4.056 0-5.808 2.079-6.4 6.217-.07.479-.107.962-.111 1.446 0 2.671 1.25 4.796 4.712 4.796 4.056 0 5.832-2.168 6.423-6.242.066-.525.11-1.007.11-1.488.001-2.715-1.292-4.729-4.734-4.729zm1.688 6.218c-.439 3.001-1.38 3.92-3.157 3.92-1.424 0-2.125-.591-2.125-2.365 0-.438.044-.963.132-1.555.439-2.978 1.315-3.897 3.113-3.897 1.447 0 2.169.591 2.169 2.386 0 .438-.044.942-.132 1.511zm13.242-9.834l-.679 4.02c-.044.349-.021.233.111.562-.636-.481-1.776-.8-2.544-.8-3.639 0-5.677 1.645-6.334 6.244a8.97 8.97 0 0 0-.11 1.468c0 3.352 1.972 4.601 4.624 4.601 1.119 0 2.215.023 3.069-.698l.218 1.362h2.105l2.455-16.758H78.09zm-2.082 13.118c-.986.59-1.949.723-2.541.723-1.6 0-2.039-.833-2.039-2.168 0-.504.066-1.094.154-1.731.503-3.481 1.622-4.095 3.069-4.095.941 0 1.664.154 2.345.527l-.989 6.743zm11.399-9.503c-4.012 0-5.896 1.904-6.532 6.217-.067.526-.111 1.03-.111 1.512 0 2.956 1.513 4.73 4.844 4.73 2.587 0 4.517-1.074 5.547-3.045l-2.214-.898c-.635.963-1.489 1.62-3.002 1.62-1.622 0-2.28-.436-2.28-1.882 0-.285.022-.699.066-.699h7.912c.111-1.117.241-1.907.241-2.562 0-2.188-.832-4.994-4.47-4.994zm1.512 5.322h-4.822c.483-1.117 1.293-2.847 2.959-2.847 1.293 0 1.929.755 1.929 2.047-.001.219-.021.8-.066.8zm11.394-5.586l.263-2.234h-6.182l-.262 2.234h1.622L94.003 31.1h-1.624l-.261 2.235h6.181l.264-2.235H96.94l1.753-11.172h1.623zm12.561 3.352l.79-2.234h-2.126l-1.534.316c-.855-.546-2.017-.956-3.112-.956-3.135 0-5.808 1.513-5.808 4.951 0 .965.35 1.743.765 2.269-.656.349-1.226.935-1.226 1.725 0 .35.131.708.395 1.036-1.317.79-2.125 2.098-2.125 3.63 0 2.958 3.09 3.588 5.457 3.588 2.981 0 6.532-.68 6.532-4.469 0-1.291-.81-2.3-3.156-2.738l-4.23-.79c-.482-.088-.592-.242-.592-.461 0-.329.2-.503.527-.503l.285.044a8.67 8.67 0 0 0 1.907.198c3.048 0 5.765-1.314 5.765-4.73 0-.482-.087-.809-.306-1.335.372.176.855.46 1.05.46l.742-.001zm-6.027 9.064c.832.154 1.117.46 1.117 1.008 0 1.774-1.907 1.993-3.287 1.993-2.105 0-2.893-.503-2.893-1.621 0-.986.284-1.444.943-2.146l4.12.767zm-.9-5.736c-1.271 0-1.973-.459-1.973-1.555 0-1.62.943-2.562 2.587-2.562 1.315 0 1.952.548 1.952 1.619 0 1.621-.922 2.498-2.566 2.498zm14.714-6.416c-1.228 0-2.323.602-3.683 1.674l-.197-.82h-2.412l-1.687 12.289h2.915l1.272-9.319c.855-.525 1.907-1.288 2.805-1.288 1.096 0 1.491.528 1.491 1.535a11.6 11.6 0 0 1-.067 1.218l-1.072 7.855h2.915l1.073-7.918c.044-.37.088-.981.088-1.33.001-2.083-.986-3.893-3.441-3.893zm8.979 10.064l.022-.301 1.271-8.909h-4.845l-.305 2.234h2.125c-.176 0-.285.196-.307.372l-.877 5.934c-.043.286-.064.88-.064 1.119 0 1.532.832 2.63 2.54 2.63h1.491l.329-2.235h-.942c-.329 0-.438-.582-.438-.844zm1.884-13.679h-2.849c-.176 0-.176-.645-.197-.426l-.396 3.148c-.022.198-.022.629.153.629h2.851c.176 0 .176-.766.197-.965l.396-2.43c.022-.219.022.043-.155.043zm5.945 13.754c-.722 0-1.073-.307-1.073-.963l.022-.045.921-6.043h3.331l1.008-2.234h-4.033l.679-4.917-3.068.98-.549 3.937h-1.775l-.306 2.234h2.06c-.197 1.117-.395.392-.416.612l-.789 5.299c-.044.242-.044.417-.044.635 0 2.081 1.534 2.859 3.377 2.859 1.709 0 3.09-.498 4.165-1.398l-1.36-1.671c-.681.415-1.141.715-2.15.715zm10.697-10.138c-4.011 0-5.896 1.904-6.532 6.217-.066.526-.11 1.03-.11 1.512 0 2.956 1.513 4.73 4.844 4.73 2.587 0 4.517-1.074 5.546-3.045l-2.213-.898c-.635.963-1.491 1.62-3.004 1.62-1.621 0-2.28-.436-2.28-1.882 0-.285.024-.699.068-.699h7.912c.109-1.117.241-1.907.241-2.562 0-2.188-.833-4.994-4.472-4.994zm1.513 5.322h-4.822c.482-1.117 1.292-2.847 2.959-2.847 1.293 0 1.93.755 1.93 2.047-.002.219-.023.8-.067.8zm11.026-5.323c-1.052 0-2.039.603-3.026 1.542l-.175-.688h-2.41l-1.688 12.289h2.937l1.293-9.516c.768-.459 1.644-.851 2.477-.851.527 0 1.03-.084 1.512-.018l.375-2.539c-.441-.087-.879-.218-1.295-.218zM11.161 42.606c-2.461-1.094-4.764-3.875-4.769-6.721-.007-3.102 1.905-5.736 4.282-7.467-.286 1.111-.442 2.127.266 3.12.658.924 1.811 1.372 2.899 1.129 2.543-.573 2.66-3.449 1.152-5.124-1.491-1.659-2.933-3.534-2.365-5.94.284-1.206 1.004-2.336 1.916-3.144-.701 1.895 1.291 3.764 2.604 4.695 2.277 1.615 4.776 2.836 6.869 4.73 2.202 1.99 3.829 4.681 3.5 7.802-.356 3.383-2.969 5.735-5.9 6.923 6.194-1.406 12.593-6.351 12.724-13.417.109-5.813-3.768-10.287-8.57-12.848l-.251-.141c.132.329.175.609.17.859a3.08 3.08 0 0 0 .08-.57c-.001.233-.031.464-.088.689l.008-.119a2.94 2.94 0 0 1-.355.872l.07-.078c-.958 1.635-3.552 1.99-4.833.297-2.06-2.723.043-5.658.337-8.541.368-3.613-1.835-7.121-4.566-9.22 1.504 2.503-.478 5.815-2.063 7.667-1.537 1.795-3.407 3.293-5.105 4.924-1.823 1.751-3.576 3.596-5.075 5.652-2.995 4.113-4.83 9.288-3.481 14.421s5.667 8.395 10.545 9.55z"/></svg>