<svg xmlns="http://www.w3.org/2000/svg" width="119" height="42" fill="#092e20" xmlns:v="https://vecta.io/nano"><path d="M14.054 0h6.505v30.431c-3.337.64-5.786.897-8.448.897C4.17 31.327.03 27.699.03 20.74c0-6.703 4.393-11.057 11.193-11.057 1.056 0 1.858.085 2.83.341V0zm0 15.318c-.76-.256-1.394-.341-2.196-.341-3.295 0-5.195 2.049-5.195 5.635 0 3.501 1.816 5.422 5.153 5.422.718 0 1.31-.042 2.239-.171V15.318zm16.851-5.165v15.24c0 5.251-.38 7.77-1.52 9.947-1.056 2.092-2.45 3.415-5.322 4.867l-6.04-2.903c2.872-1.366 4.266-2.561 5.153-4.398.929-1.878 1.225-4.056 1.225-9.776V10.153h6.505zM24.401.035h6.505V6.78h-6.504V.035zm10.434 11.612a19.39 19.39 0 0 1 8.617-1.963c3.337 0 5.533.896 6.505 2.647.549.982.718 2.263.718 4.995v13.362c-2.915.427-6.589.726-9.292.726-5.449 0-7.899-1.922-7.899-6.191 0-4.611 3.252-6.745 11.235-7.429v-1.451c0-1.195-.591-1.622-2.239-1.622-2.407 0-5.111.683-7.645 2.007v-5.08zm10.18 10.459c-4.309.427-5.703 1.11-5.703 2.818 0 1.28.803 1.878 2.577 1.878.972 0 1.858-.085 3.126-.299v-4.397zm8.828-10.929c3.843-1.024 7.011-1.494 10.221-1.494 3.337 0 5.745.768 7.181 2.262 1.352 1.408 1.774 2.945 1.774 6.233V31.07h-6.505V18.435c0-2.519-.845-3.458-3.168-3.458-.887 0-1.689.085-2.999.47v15.625h-6.504V11.178zm21.705 23.48c2.281 1.195 4.562 1.75 6.969 1.75 4.265 0 6.082-1.75 6.082-5.934v-.128c-1.267.64-2.534.896-4.224.896-5.702 0-9.335-3.8-9.335-9.818 0-7.471 5.365-11.697 14.868-11.697 2.788 0 5.365.299 8.49.939l-2.227 4.742c-1.732-.341-.139-.046-1.447-.174v.683l.084 2.774.042 3.586.085 2.689v1.793c0 5.635-.465 8.282-1.858 10.459C91.048 40.421 87.542 42 82.557 42c-2.534 0-4.73-.384-7.011-1.281l.001-6.062zM88.472 15.02h-.675c-1.267-.043-2.745.299-3.759.939-1.562.897-2.366 2.519-2.366 4.824 0 3.287 1.606 5.166 4.478 5.166.887 0 1.605-.171 2.449-.427V23.26c0-.769-.042-1.623-.042-2.519l-.042-3.031-.042-2.177v-.513zm20.024-5.422c6.504 0 10.475 4.141 10.475 10.843 0 6.874-4.139 11.185-10.729 11.185-6.505 0-10.518-4.141-10.518-10.801.001-6.917 4.14-11.228 10.772-11.228zm-.128 16.735c2.492 0 3.971-2.092 3.971-5.721 0-3.586-1.436-5.72-3.928-5.72-2.577 0-4.056 2.092-4.056 5.72s1.479 5.721 4.013 5.721z"/></svg>