<svg xmlns="http://www.w3.org/2000/svg" width="149" height="40" fill="#0091e2" xmlns:v="https://vecta.io/nano"><path d="M70.377 12.162c-.791-.025-1.434.608-1.459 1.393v7.292c-3.388-2.785-8.359-2.228-11.08 1.241-1.113 1.443-1.731 3.215-1.731 5.064-.074 4.456 3.388 8.127 7.741 8.203s7.939-3.469 8.013-7.925V13.656a1.51 1.51 0 0 0-.42-1.063 1.54 1.54 0 0 0-1.063-.43zM68.522 29.1a5.05 5.05 0 0 1-2.622 2.709c-1.237.532-2.621.532-3.858 0-1.187-.506-2.102-1.494-2.597-2.684-.519-1.24-.519-2.658 0-3.924a4.96 4.96 0 0 1 2.597-2.684c1.237-.532 2.621-.532 3.858 0a5.05 5.05 0 0 1 2.622 2.709 5.01 5.01 0 0 1 0 3.874zm18.301-7.646c-3.067-3.139-8.062-3.139-11.129 0-1.484 1.519-2.3 3.57-2.3 5.697-.074 4.456 3.388 8.127 7.741 8.203s7.939-3.469 8.013-7.925v-.279a8.26 8.26 0 0 0-.593-3.089c-.396-.987-.989-1.873-1.731-2.608zm-1.014 7.621a4.97 4.97 0 0 1-1.063 1.595 5.13 5.13 0 0 1-1.558 1.089c-1.237.532-2.621.532-3.858 0-1.187-.506-2.127-1.494-2.621-2.684-.519-1.241-.519-2.658 0-3.924.495-1.215 1.434-2.152 2.621-2.684 1.237-.532 2.621-.532 3.858 0 .594.253 1.113.633 1.558 1.089s.816 1.013 1.063 1.595c.519 1.291.519 2.709 0 3.924zm33.585-8.507c0-.203-.049-.405-.124-.582s-.198-.329-.321-.481a1.59 1.59 0 0 0-.47-.329c-.173-.076-.371-.127-.569-.127-.272 0-.544.076-.791.228l-8.409 5.595V13.681a1.51 1.51 0 0 0-.42-1.063c-.272-.278-.643-.456-1.039-.456-.816 0-1.459.658-1.484 1.494v20.027a1.51 1.51 0 0 0 .42 1.063 1.37 1.37 0 0 0 1.039.456 1.37 1.37 0 0 0 1.039-.456c.272-.279.445-.658.42-1.063v-5.19l1.707-1.139 6.504 7.469c.272.253.618.405.989.38.198 0 .396-.025.569-.127.173-.076.322-.177.47-.329.124-.152.247-.304.322-.481s.123-.38.123-.582a1.59 1.59 0 0 0-.395-1.038l-6.035-6.962 5.886-3.924c.396-.253.594-.709.569-1.19zm-24.41 2.987c.445-.456.989-.835 1.583-1.089.618-.253 1.261-.405 1.929-.405.594 0 1.162.101 1.706.304.545.228 1.064.532 1.509.937a1.49 1.49 0 0 0 .965.329c.395.025.791-.127 1.063-.43.272-.279.42-.684.42-1.089 0-.43-.173-.861-.519-1.139-1.41-1.291-3.24-2-5.144-1.95-4.353 0-7.889 3.621-7.889 8.077s3.512 8.051 7.84 8.076c1.904 0 3.734-.684 5.168-1.95.297-.279.47-.684.47-1.114.025-.81-.593-1.469-1.36-1.494h-.099a1.55 1.55 0 0 0-.94.304 5.09 5.09 0 0 1-1.484.937c-.544.203-1.137.304-1.706.304-.668 0-1.311-.127-1.929-.405-.594-.253-1.113-.633-1.583-1.089-1.929-1.975-1.929-5.165-.025-7.14.025.051.025.051.025.025zm53.618-3.469c-.297-.279-.619-.481-.99-.608-.42-.152-.865-.253-1.31-.304s-.891-.076-1.336-.076a7.31 7.31 0 0 0-2.646.481c-.841.304-1.608.759-2.3 1.316v-.304c-.025-.835-.717-1.468-1.533-1.443-.37.013-.722.169-.984.437a1.51 1.51 0 0 0-.426 1.006v13.14c.025.836.717 1.468 1.533 1.443a1.44 1.44 0 0 0 .983-.437 1.51 1.51 0 0 0 .427-1.006v-6.558a4.94 4.94 0 0 1 .396-1.975 4.59 4.59 0 0 1 1.063-1.595c.445-.456.989-.835 1.558-1.089.618-.253 1.261-.405 1.929-.405s1.311.127 1.929.354a1.32 1.32 0 0 0 .619.152c.197 0 .395-.025.568-.127.173-.076.322-.177.47-.329.124-.127.248-.304.322-.481s.123-.38.123-.582c.025-.38-.123-.734-.395-1.013zm-13.652 3.975c-1.261-2.988-4.13-4.937-7.296-4.962-4.352 0-7.864 3.595-7.889 8.051 0 4.456 3.537 8.077 7.889 8.077a7.77 7.77 0 0 0 5.144-1.95l.05-.051a1.19 1.19 0 0 0 .321-.38c.47-.709.297-1.646-.371-2.127a1.43 1.43 0 0 0-1.805.177c-.049.051-.198.177-.198.203l-.025.025c-.42.354-.89.658-1.409.836-.544.202-1.113.304-1.707.278-.544 0-1.063-.076-1.583-.253-.494-.177-.964-.405-1.385-.734-.42-.304-.791-.684-1.088-1.114-.321-.43-.544-.937-.692-1.443h11.129a1.44 1.44 0 0 0 1.039-.43c.296-.279.445-.658.42-1.063a8.38 8.38 0 0 0-.544-3.139zm-12.044 1.62a4.31 4.31 0 0 1 .692-1.443c.297-.43.668-.81 1.088-1.114s.891-.557 1.385-.734 1.039-.253 1.559-.253a4.68 4.68 0 0 1 1.558.253c.989.329 1.854.987 2.473 1.848.321.43.544.937.717 1.443h-9.472zm20.675 7.342c-.569 0-1.014.481-1.014 1.063s.47 1.038 1.039 1.038 1.014-.481 1.014-1.038c0-.608-.47-1.063-1.039-1.063zm0 1.874c-.445.025-.816-.329-.841-.785s.322-.835.767-.861.816.329.841.785v.051c.025.43-.322.81-.742.81h-.025z"/><path d="M143.829 34.087c.123-.025.198-.127.198-.253 0-.101-.025-.177-.099-.228a.77.77 0 0 0-.346-.076c-.123 0-.273 0-.396.025v1.038h.222v-.405h.099c.124 0 .198.051.223.152l.074.253h.247a.5.5 0 0 1-.074-.253c.025-.101-.049-.203-.148-.253zm-.297-.076h-.124v-.304h.124c.148 0 .223.076.223.152.024.101-.099.177-.223.152zM53.411 15.555c-.148-.127-1.484-1.165-4.353-1.165a13.52 13.52 0 0 0-2.251.202c-.544-3.874-3.685-5.747-3.809-5.848l-.767-.456-.495.734a10.96 10.96 0 0 0-1.36 3.241c-.519 2.203-.198 4.279.89 6.051-1.311.759-3.438.937-3.883.962H2.267c-.915 0-1.657.759-1.657 1.696-.049 3.14.47 6.279 1.533 9.241 1.212 3.241 3.017 5.646 5.342 7.115 2.622 1.646 6.9 2.582 11.723 2.582 2.176 0 4.353-.203 6.504-.608a26.45 26.45 0 0 0 8.508-3.165 23.41 23.41 0 0 0 5.787-4.861c2.795-3.215 4.452-6.811 5.663-10.001h.495c3.042 0 4.921-1.241 5.96-2.304.693-.658 1.212-1.468 1.583-2.38l.223-.658-.519-.38zM5.532 18.239h4.699a.42.42 0 0 0 .42-.43v-4.304c0-.228-.173-.43-.42-.43H5.532a.42.42 0 0 0-.42.43v4.304c.025.253.198.43.42.43zm6.48 0h4.699a.42.42 0 0 0 .42-.43v-4.304c0-.228-.173-.43-.42-.43h-4.699a.42.42 0 0 0-.42.43v4.304c.025.253.198.43.42.43zm6.603 0h4.699a.42.42 0 0 0 .42-.43v-4.304c0-.228-.173-.43-.42-.43h-4.699a.42.42 0 0 0-.421.43v4.304c0 .253.173.43.421.43zm6.504 0h4.699a.42.42 0 0 0 .421-.43v-4.304c0-.228-.173-.43-.421-.43h-4.699a.42.42 0 0 0-.42.43v4.304a.42.42 0 0 0 .42.43zm-13.108-6.152h4.699a.44.44 0 0 0 .42-.43V7.352c0-.228-.173-.43-.42-.43h-4.699a.42.42 0 0 0-.42.43v4.304c.025.228.198.43.42.43zm6.603 0h4.699a.44.44 0 0 0 .42-.43V7.352c0-.228-.173-.43-.42-.43h-4.699a.42.42 0 0 0-.421.43v4.304c0 .228.173.43.421.43zm6.504 0h4.699a.44.44 0 0 0 .421-.43V7.352a.44.44 0 0 0-.421-.43h-4.699a.42.42 0 0 0-.42.43v4.304a.44.44 0 0 0 .42.43zm0-6.178h4.699a.42.42 0 0 0 .421-.43V1.174a.44.44 0 0 0-.421-.43h-4.699a.42.42 0 0 0-.42.43v4.304a.44.44 0 0 0 .42.43zm6.554 12.33h4.699a.42.42 0 0 0 .421-.43v-4.304c0-.228-.173-.43-.421-.43h-4.699a.42.42 0 0 0-.42.43v4.304c.025.253.198.43.42.43z"/></svg>