<svg xmlns="http://www.w3.org/2000/svg" width="152" height="49" fill="none" xmlns:v="https://vecta.io/nano"><g clip-path="url(#A)"><path d="M48.632 26.601c0 .254-.21.461-.46.461h-8.866c.221 2.223 1.87 4.251 4.188 4.251 1.585 0 2.761-.615 3.647-1.898.128-.177.32-.29.565-.183.134.059.227.183.251.325a.46.46 0 0 1-.058.313c-.891 1.579-2.668 2.353-4.41 2.353-2.983 0-5.109-2.708-5.109-5.605s2.126-5.605 5.109-5.605c2.983-.006 5.138 2.696 5.144 5.588zm-.95-.437c-.192-2.223-1.87-4.251-4.188-4.251s-3.967 2.028-4.188 4.251h8.377zm11.709-4.931c.256 0 .443.225.443.449 0 .26-.192.449-.443.449h-2.377v9.467c0 .225-.192.449-.443.449-.256 0-.443-.225-.443-.449v-9.466h-2.284c-.256 0-.443-.195-.443-.449 0-.225.192-.449.443-.449h2.284v-3.465c0-.219.146-.42.355-.455a.44.44 0 0 1 .53.444v3.477h2.377zm14.5 4.577v5.736c0 .26-.221.449-.443.449-.256 0-.443-.195-.443-.449v-5.736c0-1.933-1.078-3.867-3.204-3.867-2.726 0-3.903 2.418-3.746 4.896 0 .065.029.355.029.384v4.305c0 .219-.146.42-.355.455a.44.44 0 0 1-.53-.444V12.699c0-.225.192-.449.443-.449.256 0 .443.225.443.449V23.36c.763-1.384 2.126-2.318 3.711-2.318 2.604 0 4.095 2.318 4.095 4.766zm15.898.792c0 .254-.21.461-.46.461h-8.872c.221 2.223 1.87 4.251 4.189 4.251 1.585 0 2.761-.615 3.647-1.898.128-.177.32-.29.565-.183.134.059.227.183.251.325a.46.46 0 0 1-.058.313c-.891 1.579-2.668 2.353-4.41 2.353-2.983 0-5.109-2.708-5.109-5.605s2.126-5.605 5.109-5.605c2.989-.006 5.144 2.696 5.15 5.588zm-.955-.437c-.192-2.223-1.87-4.251-4.188-4.251s-3.967 2.028-4.189 4.251h8.377zm11.837-4.512a.44.44 0 0 1-.414.485c-2.604.384-3.775 2.543-3.775 5.056v4.305c0 .219-.146.42-.355.455a.44.44 0 0 1-.53-.444v-9.809c0-.219.146-.42.355-.455a.44.44 0 0 1 .53.444v1.999c.728-1.254 2.19-2.448 3.71-2.448.222-.006.478.16.478.414zm14.564 4.949c0 .254-.21.461-.461.461h-8.866c.221 2.223 1.87 4.251 4.189 4.251 1.584 0 2.761-.615 3.646-1.898.128-.177.321-.29.565-.183.134.059.228.183.251.325.023.148-.018.231-.058.313-.892 1.579-2.668 2.353-4.41 2.353-2.983 0-5.109-2.708-5.109-5.605s2.126-5.605 5.109-5.605c2.982-.006 5.138 2.696 5.144 5.588zm-.95-.437c-.192-2.223-1.87-4.251-4.188-4.251s-3.968 2.028-4.189 4.251h8.377zm15.263-4.399v9.833c0 .26-.222.449-.443.449-.256 0-.443-.195-.443-.449v-1.869c-.728 1.484-2.033 2.543-3.682 2.543-2.633 0-4.095-2.318-4.095-4.766V21.74c0-.225.192-.449.443-.449s.443.225.443.449v5.765c0 1.934 1.077 3.867 3.204 3.867 2.982 0 3.681-2.832 3.681-5.96V21.74c0-.26.257-.526.571-.432.192.065.321.254.321.455zm22.428 4.009v5.765c0 .26-.222.449-.443.449-.257 0-.443-.195-.443-.449v-5.765c0-1.933-1.078-3.832-3.204-3.832-2.668 0-3.682 2.897-3.682 5.15v4.447c0 .26-.221.449-.442.449-.257 0-.443-.195-.443-.449v-5.765c0-1.933-1.078-3.832-3.204-3.832-2.697 0-3.81 2.158-3.711 5.026 0 .065.029.195 0 .225v4.334c0 .219-.145.42-.361.455a.44.44 0 0 1-.53-.444v-9.839c0-.219.146-.42.355-.455a.44.44 0 0 1 .53.444v1.644c.763-1.384 2.127-2.288 3.711-2.288 1.806 0 3.204 1.159 3.775 2.868.728-1.673 2.155-2.868 3.996-2.868 2.604 0 4.096 2.282 4.096 4.73z" fill="#000"/><g opacity=".6"><path opacity=".6" d="M14.9 18.117L.08 24.958l14.82 8.887 14.814-8.887L14.9 18.117z" fill="#010101"/></g><g opacity=".45"><path opacity=".45" d="M.08 24.958l14.82 8.887V0L.08 24.958z" fill="#010101"/></g><g opacity=".8"><path opacity=".8" d="M14.9 0v33.845l14.814-8.887L14.9 0z" fill="#010101"/></g><path opacity=".45" d="M.08 27.808L14.9 49V36.695L.08 27.808z" fill="#ccc"/><path opacity=".8" d="M14.9 36.695V49l14.826-21.192L14.9 36.695z" fill="#5c5c5c"/></g><defs><clipPath id="A"><path fill="#fff" d="M0 0h152v49H0z"/></clipPath></defs></svg>