<svg xmlns="http://www.w3.org/2000/svg" fill="none" width="91" height="60"><g clip-path="url(#a)"><path d="M91 23.339H66.529l2.294 24.852 9.94 2.816 9.94-2.816L91 23.342z" fill="#e6a329"/><path d="M78.763 25.364v23.538l8.054-2.279 1.96-21.258H78.762z" fill="#f1bf22"/><path d="M85.17 28.413H72.788l-.862 9.305.018-.058h10.52l-.343 3.937-3.356.965-3.406-.98-.204-2.383h-3.092l.441 4.761 6.261 1.776 6.264-1.776.863-9.345H74.725l.143-3.114h7.746l.116 1.784h3.119l-.68-4.873z" fill="#fff"/><path d="M78.766 28.413h-5.978l-.862 9.305.018-.058h6.823v-3.035H75.16l.143-3.114h3.462v-3.098zM75.16 39.199h-3.1l.442 4.758 6.261 1.773v-3.166l-3.406-.983-.197-2.383z" fill="#ebebeb"/><path d="M76.384 19.673h-2.178v1.562h3.737v-4.64h-1.558v3.078zm6.939-3.053h-3.797v1.624l1.518 1.484h-1.518v1.48h3.797V19.73l-1.518-1.482h1.518V16.62z" fill="#231f20"/></g><g clip-path="url(#b)"><path d="M30.367 24.804 28.359 48.09c-2.976 2.309-6.712 3.683-10.77 3.683S9.791 50.399 6.82 48.09L4.81 24.804h25.557z" fill="#006bc0"/><path d="M17.589 26.993v24.318l8.401-2.372 1.874-21.947H17.589z" fill="#0096dc"/><path d="M25.01 36.505h-6.059l6.331-3.222.274-3.239H9.62l.278 3.302h6.398l-6.138 3.07.286 3.382h10.95l-.359 4.03-3.446.932-3.59-1.005-.09-2.513h-3.343l.418 4.953 6.604 1.866 6.605-1.866.818-9.692z" fill="#fff"/><path d="M11.36 21.214v-2.297h3.302v-1.244h-4.5v4.786h4.5v-1.244H11.36zm5.234-1.669v-.574h3.284v-1.298H15.38v2.967h3.224v.574H15.38v1.244h4.499v-2.913h-3.284zm5.134 0v-.574h3.284v-1.298h-4.499v2.967h3.224v.574h-3.224v1.244h4.499v-2.913h-3.284z" fill="#222123"/></g><path d="m70.504 13.105-3.448 39.99A30.069 30.069 0 0 1 48.56 59.42 30.066 30.066 0 0 1 30.2 53.2l-3.457-40.095h43.762z" fill="#e64c18"/><path d="M48.623 16.854v41.641l14.385-4.061 3.209-37.58H48.623z" fill="#f36518"/><path d="m34.979 22.078 1.411 16.703h18.749l-.614 6.9-5.901 1.598-6.146-1.722-.154-4.302h-5.725l.717 8.48 11.309 3.197 11.309-3.196 1.402-16.595H41.589l-.49-5.409 20.702-.108.468-5.546H34.98z" fill="#fff"/><path d="M36.189.989v2.87h-2.742V.989h-2.551v8.226h2.551V6.537h2.742v2.678h2.551V.989h-2.551zm11.606 0h-7.844v2.87h2.551v5.42h2.742v-5.42h2.551V.989zm14.602 5.676V1.053h-2.742v8.226h6.695V6.665h-3.953zm-6.886-5.612-1.909 2.933-1.913-2.933h-2.742V9.28h2.742V5.2L53.6 8.132l1.913-2.934V9.28h2.743V1.053h-2.742z" fill="#000"/><defs><clipPath id="a"><path d="M0 0h24.471v34.412H0z" fill="#fff" transform="translate(66.529 16.596)"/></clipPath><clipPath id="b"><path d="M0 0h35.176v35.176H0z" fill="#fff" transform="translate(0 16.596)"/></clipPath></defs></svg>