<svg xmlns="http://www.w3.org/2000/svg" width="111" height="37" fill="none" xmlns:v="https://vecta.io/nano"><g clip-path="url(#A)" fill="#478aff"><path d="M18.734 10.068a8.62 8.62 0 0 0-4.744 1.421 8.45 8.45 0 0 0-3.145 3.784c-.647 1.541-.815 3.236-.486 4.872a8.4 8.4 0 0 0 2.337 4.317 8.58 8.58 0 0 0 4.372 2.308 8.64 8.64 0 0 0 4.933-.48c1.56-.638 2.894-1.719 3.832-3.106a8.36 8.36 0 0 0 1.439-4.684 8.39 8.39 0 0 0-2.504-5.959c-1.601-1.581-3.771-2.47-6.035-2.473h0zm12.259.748c2.148 0 3.89-1.72 3.89-3.841s-1.741-3.841-3.89-3.841-3.889 1.72-3.889 3.841 1.741 3.841 3.889 3.841zm4.79.02l-.163-.352-.255.292c-.638.714-1.444 1.263-2.347 1.596l-.255.091.102.252a14.95 14.95 0 0 1 .491 10.272c-1.056 3.375-3.275 6.279-6.273 8.208a15.47 15.47 0 0 1-10.137 2.35c-3.553-.41-6.849-2.035-9.316-4.594s-3.948-5.89-4.188-9.415a14.99 14.99 0 0 1 2.876-9.883c2.098-2.862 5.144-4.908 8.61-5.783a15.5 15.5 0 0 1 10.365.99l.24.113.105-.252a5.8 5.8 0 0 1 1.728-2.238l.306-.252-.349-.179C24.668.69 21.721-.018 18.731-.01c-4.048.001-7.986 1.296-11.227 3.691S1.897 9.444.756 13.28s-.992 7.932.422 11.678a18.55 18.55 0 0 0 7.424 9.099 18.92 18.92 0 0 0 11.465 2.892A18.86 18.86 0 0 0 31 32.479a18.46 18.46 0 0 0 6.041-10.047 18.29 18.29 0 0 0-1.261-11.619l.003.023zm15.277-.39h-3.951v16.109h3.951V10.446zm42.634 0h-3.951v16.109h3.951V10.446zm-13.073-.378c-2.778 0-4.924 1.654-5.416 2.109l-.255-1.732h-3.288v16.109h3.951v-9.753c0-1.903 2.63-3.478 4.555-3.478s3.37 1.817 3.37 3.982v9.25h3.951V17.69c-.013-4.223-1.858-7.621-6.866-7.621zm23.444 13.559c-2.97 0-4.932-2.295-4.932-5.127s1.962-5.127 4.932-5.127c2.533 0 4.078 2.424 4.078 2.424l2.862-1.89c-.828-1.258-1.784-2.014-3.089-2.794-1.126-.675-2.417-1.036-3.734-1.045-4.942 0-8.717 3.665-8.74 8.432.023 4.767 3.798 8.432 8.74 8.432a7.36 7.36 0 0 0 3.719-1.044c1.305-.778 2.26-1.535 3.089-2.794l-2.862-1.89s-1.53 2.424-4.063 2.424zM61.362 10.068c-1.121-.018-2.234.186-3.274.599a8.42 8.42 0 0 0-2.782 1.806 8.3 8.3 0 0 0-1.854 2.731 8.21 8.21 0 0 0-.636 3.228c0 4.568 3.461 8.5 8.605 8.5 4.657 0 8.472-3.524 8.472-8.402 0-5.585-4.437-8.462-8.531-8.462zm.048 3.312c2.449 0 4.769 1.963 4.769 5.127 0 3.096-2.309 5.115-4.779 5.115-2.714 0-4.843-2.155-4.843-5.14 0-2.92 2.113-5.102 4.866-5.102h-.013z"/></g><defs><clipPath id="A"><path fill="#fff" d="M0 0h111v37H0z"/></clipPath></defs></svg>