<svg xmlns="http://www.w3.org/2000/svg" width="141" height="31" fill="none" xmlns:v="https://vecta.io/nano"><g clip-path="url(#A)" fill-rule="evenodd"><g fill="#1a1918"><path d="M134.818 2.311l5.895.032-11.855 15.597c-.29.381-.732.791-.956 1.3-.566 1.279-1.147 4.085-1.147 4.085l-5.393.026s.839-2.925.804-4.482c-.03-1.361-.745-2.72-1.147-4.085-.405-1.382-.956-4.085-.956-4.085h5.545l.765 2.971 8.445-11.358zm-11.163 3.041c1.088.637 1.756 4.15 1.756 4.15l-8.79.082h-2.677l-3.25 13.74h-4.971l3.824-17.639c.236-.877 1.621-.726 3.959-.726h3.734c2.412 0 5.23-.299 6.415.394zm-23.143 6.692s.155-.882-.525-1.903c-.582-.871-1.118-1.073-2.648-1.12-4.319-.132-4.235 2.976-4.235 2.976l7.409.046zm4.685-3.56c.633 2.217-.574 7.427-.574 7.427s-6.3-.102-9.751 0c-1.073.032-2.357-.113-2.677.371-.449.679.164 1.725.684 2.167.599.509 1.765.567 2.184.618 2.801.346 8.663.089 8.663.089l-1.015 4.367s-8.284.404-12.428-.557c-.818-.189-1.585-.572-2.103-1.114-.141-.148-.264-.351-.398-.525-.107-.14-.418-.598-.558-.96-.946-2.449.111-7.141 1.147-9.655l.43-.975.526-1.068c.107-.161.239-.265.35-.418.128-.18.277-.355.415-.51.383-.431.816-.735 1.339-1.114 1.726-1.256 4.85-2.23 8.604-1.857 1.413.141 3.548.631 4.589 2.043.279.377.417 1.125.574 1.671h0zM82.396 4.941l4.82-.028-4.056 18.41h-5.545c-3.875 0-7.327.466-8.795-2.228-1.424-2.616-.065-6.918.573-9.841l1.402-6.296 4.994-.044-1.998 9.869c-.21 1.177-.644 2.286-.191 3.156.43.828 1.032.888 2.868.929h2.486l3.442-13.926zm-22.562 8.913c.505-1.741 1.241-3.63 1.147-5.199-.101-1.678-1.55-3.206-2.486-3.528-2.816-.966-5.453.384-6.501 1.485-1.356 1.426-1.815 3.092-2.294 5.385-.357 1.702-.65 3.499 0 4.827 1.151 2.347 4.74 1.835 8.604 1.857.574-1.493 1.048-3.169 1.53-4.828zm6.692-6.87c.55 3.888-1.562 8.179-3.017 11.911 1.484.13 2.784-.02 2.878.087.097.139-.995 4.454-1.375 4.466-1.177.03-5.08.061-6.707.061-5.31 0-10.277.336-12.81-2.228-1.029-1.042-1.74-2.828-1.912-4.085-.287-2.098.073-4.408.574-6.313.453-1.72 1.034-3.342 1.912-4.828 2.23-3.782 6.112-6.589 12.618-5.941 1.262.126 3.074.663 4.207 1.3.078.045.352.256.415.293 1.53.945 2.924 3.201 3.218 5.277zm-23.493-2.02l-.981 4.434h-5.354c.415-1.556.732-3.103 1.147-4.456l5.187.022h0zm-6.526 5.734h5.163c-.675 3.628-2.012 9.48-3.059 13.554-.656 2.549-1.094 4.41-2.868 5.756-.159.121-.25.063-.383.186-.327.303-1.839.654-2.676.743-1.361.143-2.901.019-4.574-.015l1.323-4.813c4.078.479 4.181-3.264 4.971-6.87.457-2.083 1.841-7.706 2.103-8.541z"/></g><g fill="#21609b"><path d="M24.463 20.167l-.111.278c-1.885 3.565-5.226 5.752-9.99 5.849a14.33 14.33 0 0 1-5.736-1.114c-2.992-1.305-5.509-3.726-6.883-6.313C-.229 15.16-.584 10.002 3.515 6.149c.063 0-.497.835-.434.835l-.113.356C.014 16.322 9.115 24.018 17.962 23.138c2.126-.212 4.837-1.342 6.501-2.971zm-5.354-3.713c2.226.015 4.551-.995 5.927-2.414-1.204 2.969-4.692 4.877-9.369 4.271-3.916-.509-7.646-4.336-8.03-8.17-.281-2.791.72-4.456 2.371-6.476-.573 1.057-.788 1.871-.841 2.391-.627 6.036 4.966 10.366 9.942 10.398zm5.703-7.498c-.346.771-2.338 2.226-3.218 2.408-3.484.721-5.715-.884-6.883-2.709-.174-.273-.495-1.017-.552-1.207-.453-1.497-.245-3.76 1.107-4.932-.407 1.114-.467 2.408-.252 3.249a7.12 7.12 0 0 0 .922 1.955c.72 1.017 1.178 1.265 2.103 1.805.417.243.864.438 1.057.492.878.251 2.73.912 5.717-1.062"/></g></g><defs><clipPath id="A"><path fill="#fff" d="M0 0h141v31H0z"/></clipPath></defs></svg>