<svg xmlns="http://www.w3.org/2000/svg" width="22" height="22" fill="none" xmlns:v="https://vecta.io/nano"><path d="M16.47.009H5.513C2.477.009 0 2.486 0 5.522v10.974c0 3.018 2.477 5.496 5.513 5.496h10.974c3.036 0 5.513-2.477 5.513-5.513V5.522C21.983 2.486 19.505.009 16.47.009zM7.328 17.804h-3.14V8.732h3.14v9.072zM5.74 7.336a1.6 1.6 0 0 1-1.605-1.605A1.6 1.6 0 0 1 5.74 4.126a1.6 1.6 0 0 1 1.605 1.605c-.017.89-.733 1.605-1.605 1.605zm12.073 10.468h-.017-2.617v-4.396c0-1.064-.139-2.425-1.588-2.425-1.483 0-1.727 1.151-1.727 2.355v4.466H9.247V8.732h2.442v1.221h.07c.384-.698 1.274-1.239 2.669-1.239 2.879 0 3.385 1.657 3.385 4.117v4.972z" fill="#43484c"/></svg>