<svg xmlns="http://www.w3.org/2000/svg" width="174" height="47" fill="none" xmlns:v="https://vecta.io/nano"><path d="M21.025 18.853C18.631 8.271 13.641 5.455 12.368 3.463c-.525-.877-.99-1.789-1.392-2.729-.067.94-.191 1.532-.988 2.245-1.601 1.43-8.403 6.983-8.975 19.005-.533 11.21 8.226 18.122 9.383 18.836.89.439 1.974.009 2.502-.393 4.223-2.903 9.992-10.642 8.132-21.575" fill="#10aa50"/><path d="M11.338 34.852c-.221 2.775-.379 4.387-.938 5.972l.625 5.439h.913c.218-1.97.55-3.926.996-5.858-1.182-.583-1.551-3.119-1.597-5.554z" fill="#b8c4c2"/><path d="M12.933 40.408c-1.195-.553-1.54-3.143-1.594-5.555a113.9 113.9 0 0 0 .258-11.961c-.063-2.093.03-19.386-.514-21.918.372.857.801 1.689 1.284 2.489 1.273 1.993 6.265 4.81 8.658 15.391 1.864 10.913-3.874 18.632-8.092 21.554z" fill="#12924f"/><g fill="#21313c"><path d="M170.417 36.581a2.59 2.59 0 0 1-1.437-.436c-.426-.284-.759-.688-.956-1.161a2.61 2.61 0 0 1 .546-2.828 2.6 2.6 0 0 1 1.32-.719 2.59 2.59 0 0 1 1.496.133c.474.191.882.519 1.171.941s.448.922.455 1.434a2.57 2.57 0 0 1-.178 1.011 2.56 2.56 0 0 1-2.417 1.624zm0-4.963c-.467-.003-.925.133-1.315.391a2.37 2.37 0 0 0-.378 3.64 2.36 2.36 0 0 0 2.574.524 2.37 2.37 0 0 0 1.063-.868c.261-.388.401-.846.402-1.314a2.34 2.34 0 0 0-.165-.91 2.33 2.33 0 0 0-.507-.773 2.32 2.32 0 0 0-1.674-.689zm.626 4.008l-.669-1.446h-.54v1.446h-.392v-3.29h.968c.721 0 1.021.313 1.021.92 0 .483-.227.783-.649.876l.691 1.49-.43.005zm-1.193-1.786h.567c.46 0 .635-.157.635-.576s-.167-.562-.685-.562h-.517v1.139zm-38.046.373c.702.562 2.105.794 3.342.794 1.603 0 3.174-.298 4.71-1.687 1.564-1.424 2.64-3.603 2.64-7.083 0-3.343-1.27-6.057-3.875-7.645-1.471-.926-3.375-1.291-5.548-1.291-.625 0-1.269.033-1.635.199a.86.86 0 0 0-.302.47c-.066.595-.066 5.129-.066 7.81l.066 7.05c.034.398.234 1.097.668 1.39v-.006zm-6.669-18.4l3.73.099 6.681-.099c2.94 0 5.414.794 7.183 2.315 2.139 1.855 3.284 4.435 3.284 7.579 0 4.468-2.033 7.05-4.077 8.506-2.033 1.523-4.678 2.383-8.445 2.383-2.005 0-5.447-.066-8.32-.099h-.059c-.135-.265.245-1.297.48-1.324.782-.088.988-.119 1.348-.268.607-.249.749-.559.816-1.651l.067-7.282-.032-7.083c-.102-1.025-.534-1.289-1.408-1.488-.62-.132-1.246-.231-1.877-.298-.065-.199.448-1.097.615-1.291m29.172 1.68c-.132.033-.3.365-.3.529l-.067 6.453c.008.041.029.079.059.108s.067.05.108.058l2.406.067c1.269 0 2.004-.166 2.405-.365 1.07-.529 1.564-1.689 1.564-2.945 0-2.879-2.005-3.971-4.978-3.971-.402-.005-.804.017-1.203.066h.006zm7.579 13.238c0-2.912-2.139-4.567-6.049-4.567-.166 0-1.408-.033-1.703.033-.1.033-.2.099-.2.166l.067 6.751c.067.563.469 1.357.968 1.589.535.298 1.737.363 2.573.363 2.305 0 4.344-1.289 4.344-4.335zm-13.615-14.86c.302 0 1.19.099 3.462.099l5.943-.066c2.573 0 6.113.928 6.113 4.766 0 1.88-1.335 3.409-3.073 4.138-.1.033-.1.099 0 .132 2.473.627 4.644 2.151 4.644 5.063 0 2.847-1.771 4.634-4.343 5.759-1.564.696-3.508.926-5.474.926-1.503 0-5.532-.157-7.771-.132-.235-.099.214-1.159.414-1.324a6.15 6.15 0 0 0 1.516-.238c.801-.197.896-.456.996-1.648.067-1.026.067-4.7.067-7.315v-7.182c-.033-.926-.367-1.225-1.002-1.39l-2.004-.298c-.167-.166.348-1.159.513-1.291M28.424 36.582a1.45 1.45 0 0 1-.102-.669.85.85 0 0 1 .102-.446 11.34 11.34 0 0 0 1.282-.262c.591-.147.813-.47.848-1.225l.069-7.486v-.069c0-.254 0-.598-.313-.841a6.71 6.71 0 0 0-1.772-.783c-.28-.083-.435-.23-.427-.403s.184-.376.549-.448c.968-.099 3.505-.705 4.501-1.166a.66.66 0 0 1 .133.47c0 .103-.016.213-.027.326l-.059 1.086c.006.046.025.089.054.124s.068.062.111.077.09.017.135.007.086-.033.118-.066c1.897-1.49 3.597-2.021 4.468-2.021 1.434 0 2.551.686 3.416 2.099a.23.23 0 0 0 .194.114c.04.001.071-.009.103-.026s.059-.041.079-.071c1.744-1.325 3.472-2.117 4.629-2.117 2.734 0 4.368 2.051 4.368 5.483l-.019 3.406-.016 2.649c0 .157.216.608.539.697.4.196.977.296 1.708.421h.028c.055.197-.061.964-.172 1.12-.181 0-.432-.016-.744-.031l-2.252-.067-3.674.094c-.069-.227-.092-.96-.009-1.114.376-.059.748-.14 1.114-.243.579-.191.746-.454.782-1.224l-.067-6.508c-.172-1.186-1.063-2.574-3.014-2.574-.724 0-1.892.302-3.006 1.148a.44.44 0 0 0-.109.284v.024c.131.617.131 1.338.131 2.427l-.008 1.933.008 3.53c0 .645.389.801.704.924l.441.102.938.194c.06.275.055.561-.016.834a.67.67 0 0 1-.117.284l-3.544-.064-1.847.036-1.315.03c-.077-.182-.111-.379-.1-.576a1 1 0 0 1 .105-.539l.402-.074.938-.188c.494-.157.68-.426.716-1.057.097-1.473.172-5.717-.036-6.779-.354-1.705-1.322-2.569-2.879-2.569-.912 0-2.064.44-3.006 1.147a.92.92 0 0 0-.277.682v1.753l.038 5.93c.031.354.156.774.818.927.145.042.396.083.686.132l.54.092a2.38 2.38 0 0 1-.089 1.12c-.291 0-.649-.019-1.059-.036l-2.291-.063-2.355.063-1.071.036"/><path d="M61.961 24.204a2.84 2.84 0 0 0-1.595.45c-1.16.707-1.751 2.118-1.751 4.192 0 3.882 1.941 6.594 4.72 6.594a2.97 2.97 0 0 0 2.036-.722c.854-.697 1.307-2.123 1.307-4.119 0-3.824-1.897-6.395-4.72-6.395h.003zm.532 12.676c-5.02 0-6.808-3.69-6.808-7.141 0-2.411.984-4.296 2.925-5.604a8.92 8.92 0 0 1 4.518-1.338c3.83 0 6.506 2.759 6.506 6.712 0 2.685-1.068 4.807-3.09 6.132-.971.595-2.659 1.239-4.05 1.239zm50.577-12.676a2.84 2.84 0 0 0-1.599.45c-1.16.707-1.751 2.118-1.751 4.192 0 3.882 1.941 6.594 4.72 6.594a2.97 2.97 0 0 0 2.042-.722c.854-.697 1.306-2.123 1.306-4.119 0-3.824-1.895-6.395-4.718-6.395zm.535 12.676c-5.021 0-6.808-3.69-6.808-7.139 0-2.414.984-4.297 2.926-5.606a8.91 8.91 0 0 1 4.517-1.338c3.829 0 6.505 2.761 6.505 6.71 0 2.688-1.068 4.808-3.09 6.132-.971.597-2.659 1.241-4.05 1.241zM96.167 24.072c-1.547 0-2.548 1.224-2.548 3.118s.862 4.145 3.284 4.145c.416 0 1.17-.185 1.544-.597.563-.519.938-1.59.938-2.721 0-2.471-1.201-3.945-3.211-3.945h-.008zm-.192 13.072a2.54 2.54 0 0 0-1.251.313c-1.225.783-1.792 1.567-1.792 2.477 0 .852.33 1.531 1.04 2.132.86.73 2.02 1.086 3.545 1.086 3.001 0 4.346-1.617 4.346-3.218 0-1.116-.559-1.863-1.708-2.286-.885-.324-2.365-.503-4.176-.503l-.005-.002zm.205 7.678c-1.802 0-3.1-.381-4.208-1.236-1.079-.834-1.564-2.071-1.564-2.927a2.29 2.29 0 0 1 .591-1.488c.313-.357 1.04-1.026 2.721-2.184a.15.15 0 0 0 .064-.053.14.14 0 0 0 .024-.08.14.14 0 0 0-.029-.088c-.019-.025-.047-.043-.077-.05-1.384-.531-1.802-1.41-1.928-1.88 0-.017 0-.044-.014-.074-.039-.185-.077-.36.175-.541.194-.138.504-.323.835-.518a11.21 11.21 0 0 0 1.343-.876c.023-.025.04-.054.05-.087s.012-.066.007-.1a.22.22 0 0 0-.112-.159c-2.049-.689-3.081-2.214-3.081-4.543a4.52 4.52 0 0 1 .492-2.091 4.53 4.53 0 0 1 1.4-1.627c.824-.653 2.893-1.438 4.233-1.438h.078c1.378.033 2.155.323 3.231.721.612.222 1.26.325 1.911.304 1.14 0 1.639-.362 2.067-.783a1.79 1.79 0 0 1 .11.592c.026.482-.105.959-.372 1.36-.233.324-.782.559-1.284.559-.052 0-.102 0-.157-.008a4.21 4.21 0 0 1-.782-.13l-.128.045c-.041.059-.014.125.019.21.008.017.014.034.019.052.091.418.153.842.186 1.269 0 2.436-.959 3.497-1.996 4.283-1.002.753-2.193 1.215-3.44 1.335-.027 0-.156.011-.4.033l-.389.033h-.03c-.225.063-.813.343-.813.865 0 .432.266.97 1.537 1.067l.823.058c1.677.117 3.77.263 4.756.597.653.23 1.218.661 1.613 1.231s.6 1.251.587 1.944c0 2.185-1.551 4.241-4.149 5.497a9 9 0 0 1-3.924.882m-7.681-9.382c-.735-.099-1.271-.199-1.905-.497a.88.88 0 0 1-.235-.47c-.067-1.026-.067-4.004-.067-5.953 0-1.59-.266-2.977-.938-3.972-.802-1.126-1.938-1.787-3.408-1.787-1.303 0-3.04.893-4.476 2.118-.034.033-.255.243-.25-.083l.086-1.41c.014-.112.001-.227-.037-.333s-.1-.203-.182-.281c-.938.47-3.57 1.097-4.545 1.192-.71.138-.89.822-.131 1.059h.011a6.48 6.48 0 0 1 1.72.758c.3.232.267.562.267.827l-.067 7.479c-.033.729-.235.993-.769 1.126l.05-.017c-.407.102-.82.18-1.237.232-.167.165-.167 1.125 0 1.324l3.441-.099 3.441.099c.202-.232.267-1.125.134-1.324a7.04 7.04 0 0 1-1.371-.199c-.533-.132-.668-.398-.701-.992l-.066-7.117c0-.627.166-.926.366-1.097.668-.595 1.772-.992 2.74-.992.938 0 1.564.298 2.033.694a2.84 2.84 0 0 1 .957 1.871c.133 1.253.099 3.774.099 5.953 0 1.192-.099 1.492-.533 1.623-.2.099-.735.199-1.37.265-.2.199-.135 1.125 0 1.324l3.34-.099 3.475.099c.2-.232.267-1.097.135-1.324"/></g></svg>