<svg xmlns="http://www.w3.org/2000/svg" width="111" height="58" fill="none" fill-rule="evenodd" xmlns:v="https://vecta.io/nano"><path d="M.338 52.329h3.669V38.085l5.658 12.421c.672 1.49 1.569 2.014 3.361 2.014s2.689-.525 3.361-2.014l5.658-12.421v14.243h3.641V38.113c0-1.38-.561-2.043-1.709-2.402-2.773-.856-4.65-.11-5.49 1.74l-5.545 12.228L7.565 37.45c-.812-1.85-2.717-2.595-5.49-1.74-1.176.359-1.736 1.022-1.736 2.402v14.216H.338zm28.4-11.594h3.641v7.84c-.028.441.14 1.435 2.157 1.463h7.926v-9.331h3.669c.028 0 0 12.725 0 12.78.028 3.147-3.949 3.808-5.77 3.864H28.823v-2.429h11.539c2.353-.221 2.073-1.38 2.073-1.766v-.939h-7.758c-3.613-.054-5.91-1.601-5.938-3.395v-8.087zm78.675-9.026c-2.24-.055-3.95.138-5.434.773-.419.166-1.064.166-1.148.69.224.22.28.579.448.883.364.553.953 1.297 1.485 1.683.56.442 1.148.883 1.764 1.27 1.121.662 2.353 1.021 3.389 1.685.644.385 1.26.883 1.877 1.325.279.221.504.552.868.69v-.054c-.196-.249-.253-.608-.421-.885l-.84-.828c-.811-1.049-1.848-1.988-2.941-2.76-.869-.608-2.829-1.463-3.193-2.457-.028-.028-.057-.028-.057-.056.617-.084 1.346-.303 1.906-.442.953-.247 1.82-.193 2.8-.441.449-.139.896-.249 1.345-.387v-.249c-.504-.497-.84-1.187-1.4-1.628-1.428-1.214-2.997-2.402-4.593-3.395-.897-.58-1.989-.939-2.941-1.408-.309-.138-.869-.221-1.092-.497-.505-.607-.756-1.408-1.149-2.126a75.88 75.88 0 0 1-2.296-4.803c-.476-1.076-.813-2.153-1.4-3.147-2.913-4.693-6.022-7.535-10.867-10.323-1.036-.58-2.268-.828-3.585-1.132l-2.1-.139c-.421-.166-.868-.69-1.289-.938-1.596-.994-5.714-3.174-6.891-.304-.756 1.794 1.12 3.561 1.792 4.472.477.635 1.064 1.353 1.401 2.07.223.469.251.939.448 1.435.476 1.242.868 2.595 1.456 3.726.308.58.643 1.187 1.036 1.712.224.304.645.442.7.938-.392.552-.419 1.38-.643 2.07-.981 3.119-.617 6.956.84 9.274.449.69 1.485 2.208 2.942 1.629 1.26-.525.98-2.071 1.344-3.478.085-.304.028-.525.196-.745v.055c.364.773.756 1.518 1.149 2.263.84 1.353 2.353 2.788 3.642 3.726.644.497 1.176 1.353 2.044 1.628v-.056h-.084c-.168-.247-.421-.358-.617-.552a16.76 16.76 0 0 1-1.485-1.656c-1.147-1.546-2.184-3.257-3.136-5.024-.449-.856-.841-1.794-1.204-2.65-.141-.331-.141-.828-.449-1.021-.421.635-1.007 1.159-1.345 1.905-.504 1.187-.588 2.65-.755 4.141-.113.055-.085.027-.141.083-.895-.221-1.204-1.132-1.54-1.905-.812-1.96-.981-5.106-.252-7.37.196-.58 1.065-2.402.701-2.953-.169-.525-.701-.856-1.009-1.269-.392-.497-.756-1.159-1.036-1.739-.672-1.546-.98-3.257-1.709-4.803-.364-.745-.923-1.491-1.4-2.126-.532-.745-1.121-1.269-1.54-2.153-.14-.304-.336-.801-.14-1.132a.55.55 0 0 1 .391-.387c.364-.276 1.401.111 1.792.248 1.009.442 1.877.828 2.745 1.408.421.276.841.8 1.345.938h.561c.896.193 1.904.055 2.744.304 1.485.441 2.829 1.132 4.034 1.905 3.697 2.291 6.694 5.548 8.766 9.44.336.635.476 1.214.756 1.877.589 1.353 1.344 2.733 1.932 4.03.561 1.325 1.149 2.65 1.96 3.726.449.58 2.129.883 2.886 1.187.532.221 1.399.469 1.905.773.98.552 1.904 1.242 2.828 1.877.447.307 1.847.997 1.904 1.576zM78.844 7.722a4.83 4.83 0 0 0-1.147.139v.055h.084c.224.442.616.745.896 1.132l.617 1.325.083-.083c.392-.248.561-.69.561-1.38-.14-.166-.168-.359-.308-.552-.196-.277-.532-.415-.785-.635z" fill="#00678c"/><path d="M48.96 52.328h10.503c1.232 0 2.436-.249 3.389-.691 1.568-.716 2.353-1.683 2.353-2.953v-2.65c0-1.021-.896-2.014-2.604-2.65-.925-.359-2.045-.525-3.137-.525h-4.425c-1.485 0-2.185-.442-2.353-1.407-.028-.11-.028-.221-.028-.331v-1.629c0-.11 0-.193.028-.303.168-.745.56-.966 1.849-1.076.112 0 .252-.028.364-.028h10.447v-2.401H55.066c-1.485 0-2.241.11-2.941.303-2.185.69-3.137 1.739-3.137 3.589v2.098c0 1.629 1.876 3.009 4.985 3.34l1.064.028h3.781c.14 0 .279 0 .391.028 1.177.11 1.653.303 2.017.716.196.221.281.415.281.663v2.098c0 .249-.168.58-.532.856-.309.277-.841.442-1.541.497-.14 0-.251.028-.392.028H48.96v2.401zm39.043-4.197c0 2.484 1.849 3.864 5.63 4.141l1.036.056h9.523v-2.402h-9.579c-2.157 0-2.969-.525-2.969-1.794V35.684h-3.642v12.448h.001zm-20.474.138v-8.556c0-2.181 1.54-3.505 4.621-3.92.309-.056.673-.056.981-.056h6.945c.336 0 .645 0 1.009.056 3.053.415 4.621 1.739 4.621 3.92v8.556c0 1.768-.672 2.705-2.184 3.313l3.613 3.202h-4.257l-2.913-2.567-2.942.166H73.13c-.672 0-1.372-.082-2.157-.303-2.323-.608-3.444-1.823-3.444-3.81zm3.949-.22c0 .138.028.248.056.387.224.993 1.176 1.545 2.604 1.545h3.334l-3.053-2.705h4.257l2.66 2.346c.477-.249.813-.635.925-1.132.028-.138.028-.248.028-.359v-8.225c0-.083 0-.193-.028-.304-.224-.938-1.176-1.462-2.577-1.462H74.14c-1.625 0-2.66.69-2.66 1.766v8.143h-.001zm34.395 4.279h.532v-1.988h.728v-.414h-1.988v.414h.728v1.988zm4.089 0h.476v-2.402h-.728l-.644 1.657-.643-1.657h-.757v2.402h.504v-1.822l.7 1.822h.364l.7-1.822h.029v1.822h-.001z" fill="#ce8b2c"/><path d="M1.15 29.693v-9.054h2.856c.672 0 1.149.056 1.485.166.42.166.756.442 1.036.883.252.414.392.938.392 1.546 0 .828-.223 1.49-.644 1.988-.42.524-1.149.773-2.185.773H2.158v3.699H1.15v-.001zm1.008-4.748h1.96c.616 0 1.064-.138 1.345-.414s.42-.69.42-1.242c0-.359-.084-.663-.224-.911-.14-.276-.308-.441-.504-.524-.196-.111-.561-.138-1.064-.138H2.159v3.23zm5.742.331c0-1.518.336-2.705 1.036-3.533s1.54-1.242 2.576-1.242c.672 0 1.289.166 1.821.552.56.359.98.911 1.316 1.601.308.718.476 1.546.476 2.512 0 1.353-.308 2.457-.925 3.285-.7.939-1.596 1.407-2.689 1.407-1.12 0-2.016-.497-2.689-1.435-.615-.855-.923-1.904-.923-3.146zm1.036.028c0 1.104.252 1.987.756 2.595.476.607 1.092.939 1.82.939s1.345-.332 1.82-.939c.504-.635.756-1.546.756-2.76 0-.773-.14-1.463-.392-2.071-.196-.469-.476-.856-.868-1.132-.383-.272-.845-.417-1.317-.414a2.24 2.24 0 0 0-1.848.911c-.504.635-.728 1.573-.728 2.871zm8.739 4.389l-1.989-9.054h1.008l1.149 5.935.336 1.85.336-1.656 1.456-6.128h1.176l1.064 4.582c.263 1.056.468 2.124.616 3.202l.364-1.959 1.176-5.825h1.036l-2.072 9.054h-.98l-1.596-6.901-.252-1.049-.196 1.049-1.624 6.901h-1.008zm8.654 0v-9.054h5.434v1.077H27.31v2.76h4.173v1.076H27.31v3.091h4.621v1.049H26.33zm6.974 0v-9.054h3.333c.701 0 1.232.083 1.541.249.337.166.616.47.84.856.196.387.308.856.308 1.353 0 .69-.168 1.242-.532 1.683-.364.414-.896.69-1.596.8.28.166.504.332.644.497.308.359.561.745.784 1.159l1.317 2.457h-1.261l-1.008-1.877-.868-1.49c-.196-.248-.392-.414-.588-.525-.168-.083-.42-.138-.756-.138h-1.148v4.03h-1.009zm1.008-5.051h2.129c.476 0 .84-.055 1.064-.166.252-.111.448-.304.588-.525.14-.248.196-.525.196-.828 0-.469-.112-.828-.392-1.104-.28-.248-.672-.387-1.204-.387h-2.38v3.009zm6.61 5.051v-9.054h5.434v1.077H41.93v2.76h4.145v1.076H41.93v3.091h4.621v1.049h-5.629zm6.974 0v-9.054H50.5c.644 0 1.12.056 1.456.166.448.138.812.414 1.148.8.308.387.561.856.757 1.435.168.58.252 1.27.252 2.071 0 1.021-.14 1.905-.448 2.622s-.7 1.215-1.176 1.518-1.12.442-1.876.442h-2.716zm1.009-1.049h1.596c.644 0 1.12-.111 1.456-.331.336-.193.588-.525.784-.994.224-.607.337-1.352.337-2.208 0-.911-.112-1.656-.364-2.181s-.589-.883-.981-1.049c-.252-.11-.672-.166-1.26-.166h-1.569v6.928h.001zm9.774 1.049v-9.054h2.83c.587 0 1.036.083 1.372.276.336.166.616.442.813.801.223.387.336.773.336 1.242 0 .414-.113.773-.28 1.104-.196.331-.448.607-.783.8a2.29 2.29 0 0 1 1.036.8c.251.387.364.856.364 1.408s-.113 1.021-.336 1.435-.532.718-.925.911c-.364.193-.896.276-1.568.276h-2.858zm1.009-5.244h1.625c.419 0 .728-.027.896-.083.279-.083.476-.248.615-.441s.196-.47.196-.828c0-.332-.055-.608-.168-.828-.14-.221-.308-.359-.532-.442-.196-.083-.589-.111-1.12-.111h-1.512v2.733h.001zm0 4.196h1.876c.392 0 .7-.055.896-.111.273-.105.501-.3.645-.552.168-.221.223-.552.223-.911s-.055-.635-.195-.884c-.141-.221-.336-.414-.589-.525-.224-.11-.616-.166-1.12-.166h-1.736v3.147h.001zm8.149 1.049v-3.837l-2.884-5.217h1.204l1.483 2.733.785 1.546.813-1.601 1.456-2.678h1.148l-2.996 5.217v3.837h-1.009z" fill="#00678c"/></svg>