<svg xmlns="http://www.w3.org/2000/svg" width="103" height="64" fill="none" xmlns:v="https://vecta.io/nano"><g fill="#689f63"><path d="M50.909 63.55a1.95 1.95 0 0 1-.975-.261l-3.105-1.839c-.464-.259-.237-.351-.084-.404a6.27 6.27 0 0 0 1.404-.64c.069-.04.16-.026.231.016l2.386 1.416c.086.047.208.047.288 0l9.302-5.371c.086-.049.142-.149.142-.252V45.479a.3.3 0 0 0-.144-.256l-9.298-5.366c-.086-.051-.2-.051-.286 0l-9.296 5.366c-.09.051-.147.151-.147.254v10.737c0 .102.056.2.144.249l2.547 1.472c1.383.692 2.228-.123 2.228-.943V46.394c0-.151.119-.268.27-.268h1.178c.147 0 .268.117.268.268v10.602c0 1.845-1.006 2.904-2.754 2.904-.538 0-.962 0-2.144-.582l-2.44-1.407c-.603-.349-.976-1.001-.976-1.698V45.477c0-.699.372-1.351.976-1.696l9.311-5.373a2.04 2.04 0 0 1 1.956 0l9.3 5.375c.601.347.976.997.976 1.696v10.737a1.97 1.97 0 0 1-.976 1.696l-9.3 5.373a1.96 1.96 0 0 1-.98.261m2.872-7.394c-4.07 0-4.923-1.869-4.923-3.436 0-.149.12-.268.269-.268h1.201a.27.27 0 0 1 .265.228c.182 1.225.722 1.842 3.183 1.842 1.96 0 2.794-.443 2.794-1.483 0-.598-.237-1.043-3.283-1.341-2.547-.252-4.121-.813-4.121-2.851 0-1.877 1.583-2.995 4.235-2.995 2.978 0 4.454 1.034 4.641 3.256.007.077-.021.151-.072.207s-.123.086-.198.086h-1.208c-.126 0-.235-.089-.261-.21-.291-1.288-.994-1.7-2.906-1.7-2.14 0-2.389.745-2.389 1.304 0 .678.293.876 3.181 1.258 2.859.38 4.217.915 4.217 2.925 0 2.026-1.69 3.188-4.638 3.188l.014-.011zM65.1 44.776h.312c.256 0 .305-.179.305-.284 0-.275-.189-.275-.293-.275h-.321l-.002.559zm-.38-.88h.692c.237 0 .703 0 .703.531 0 .37-.237.447-.379.494.277.019.296.2.333.456.019.161.049.438.105.531h-.426l-.077-.633c-.028-.114-.067-.17-.21-.17h-.352v.806h-.389v-2.015zm-.831 1.002c0 .834.673 1.509 1.499 1.509.834 0 1.506-.689 1.506-1.509 0-.836-.682-1.5-1.509-1.5-.815 0-1.499.655-1.499 1.498l.002.002zm3.295.005a1.8 1.8 0 0 1-1.793 1.793 1.8 1.8 0 0 1-1.793-1.793c0-1.016.833-1.793 1.793-1.793a1.79 1.79 0 0 1 1.79 1.793"/><path d="M91.863 24.951c.07-.041.157-.041.228 0l1.893 1.092c.071.041.114.117.114.198v2.187c0 .082-.043.157-.114.198l-1.893 1.092c-.071.041-.158.041-.228 0l-1.892-1.092c-.072-.041-.116-.116-.116-.198v-2.187c0-.081.042-.157.114-.198l1.894-1.092z" fill-rule="evenodd"/></g><g fill="#333"><path fill-rule="evenodd" d="M22.105 21.54a1.19 1.19 0 0 0-.596-1.035l-9.862-5.676a1.15 1.15 0 0 0-.542-.156h-.102a1.17 1.17 0 0 0-.545.156L.597 20.504A1.2 1.2 0 0 0 0 21.541l.022 15.288c0 .212.109.41.296.515.182.112.41.112.591 0l5.863-3.358c.37-.22.596-.61.596-1.034v-7.142a1.19 1.19 0 0 1 .595-1.032l2.496-1.438c.185-.107.389-.16.596-.16s.412.053.592.16l2.495 1.437a1.19 1.19 0 0 1 .596 1.032v7.141c0 .424.229.815.597 1.034l5.859 3.356a.58.58 0 0 0 .596 0 .6.6 0 0 0 .295-.515l.019-15.285zm46.537 7.96c0 .107-.057.205-.149.258l-3.387 1.953a.3.3 0 0 1-.297 0l-3.388-1.953c-.093-.053-.149-.151-.149-.258v-3.912a.3.3 0 0 1 .147-.258l3.386-1.956a.3.3 0 0 1 .3 0l3.388 1.956c.093.054.149.152.149.258l.001 3.912zM69.556.526a.6.6 0 0 0-.592.006.6.6 0 0 0-.294.515v15.139c0 .149-.079.286-.208.361s-.288.075-.417 0l-2.47-1.423a1.19 1.19 0 0 0-1.19 0l-9.865 5.695a1.19 1.19 0 0 0-.596 1.029v11.394c0 .426.227.817.596 1.032l9.865 5.699c.368.212.822.212 1.191 0l9.865-5.702c.368-.214.596-.605.596-1.032V4.844c0-.432-.235-.83-.612-1.041L69.556.526zm32.852 24.959a1.19 1.19 0 0 0 .592-1.03v-2.761c0-.425-.226-.817-.593-1.03l-9.802-5.692a1.19 1.19 0 0 0-1.194 0l-9.863 5.694a1.19 1.19 0 0 0-.596 1.032v11.389c0 .428.23.824.601 1.036l9.8 5.587a1.19 1.19 0 0 0 1.169.007l5.928-3.296c.186-.105.305-.303.305-.517s-.114-.415-.3-.519l-9.924-5.697a.59.59 0 0 1-.3-.515V25.6a.59.59 0 0 1 .298-.516l3.087-1.782a.59.59 0 0 1 .594 0l3.09 1.782c.184.105.298.303.298.515v2.809a.6.6 0 0 0 .894.515l5.917-3.438z"/><path d="M49.024 33.239s-.228.818-.596 1.032l-9.865 5.702c-.37.212-.823.212-1.191 0l-9.865-5.699c-.369-.214-.596-.606-.596-1.032V21.848a1.19 1.19 0 0 1 .596-1.029l9.865-5.695a1.19 1.19 0 0 1 1.19 0l9.613 5.618a2 2 0 0 1 .991 1.753l-.141 10.745z"/></g></svg>