<svg xmlns="http://www.w3.org/2000/svg" width="100" height="52" fill="none" xmlns:v="https://vecta.io/nano"><path d="M50 51.697c27.614 0 50-11.573 50-25.848S77.614 0 50 0 0 11.573 0 25.848s22.386 25.848 50 25.848z" fill="#8993be"/><path fill-rule="evenodd" d="M14.041 41.153l5.48-27.549h12.671c5.479.34 8.219 3.061 8.219 7.823 0 8.163-6.507 12.924-12.329 12.584h-6.164l-1.37 7.142h-6.507zm9.247-12.244L25 18.706h4.452c2.397 0 4.109 1.02 4.109 3.061-.342 5.782-3.082 6.803-6.164 7.143h-4.109 0zm15.85 5.101l5.479-27.549h6.507l-1.37 7.142h6.164c5.48.34 7.534 3.061 6.85 6.462L60.37 34.011h-6.849l2.397-12.584c.342-1.701.342-2.721-2.055-2.721h-5.137l-3.082 15.305h-6.507zm20.794 7.142l5.479-27.549h12.671c5.48.34 8.22 3.061 8.22 7.823 0 8.163-6.507 12.924-12.329 12.584h-6.164l-1.37 7.142h-6.507zm9.246-12.244l1.712-10.204h4.452c2.397 0 4.109 1.02 4.109 3.061-.342 5.782-3.082 6.803-6.164 7.143h-4.11 0z" fill="#232531"/></svg>