<svg xmlns="http://www.w3.org/2000/svg" width="171" height="50" fill="none" xmlns:v="https://vecta.io/nano"><path d="M64.475 21.289c0-5.281-1.495-7.992-4.486-8.14a8.37 8.37 0 0 0-3.482.576c-.902.325-1.509.647-1.829.972v12.604c1.913 1.209 3.612 1.771 5.094 1.683 3.134-.209 4.704-2.772 4.704-7.695zm3.689.219c0 2.683-.625 4.91-1.882 6.68-1.401 2.004-3.342 3.036-5.824 3.093-1.871.06-3.798-.53-5.782-1.767v11.456l-3.209-1.152V14.389c.527-.65 1.204-1.209 2.026-1.683 1.91-1.12 4.23-1.696 6.961-1.725l.045.046c2.496-.031 4.419 1.001 5.771 3.093 1.26 1.919 1.893 4.38 1.893 7.387zm19.609 7.518c0 3.598-.358 6.09-1.074 7.476s-2.089 2.492-4.111 3.316c-1.639.65-3.412 1.004-5.315 1.064l-.53-2.036c1.934-.265 3.296-.53 4.086-.795 1.555-.53 2.622-1.343 3.209-2.432.47-.887.702-2.58.702-5.086v-.841a16.38 16.38 0 0 1-6.898 1.502 6.31 6.31 0 0 1-4.174-1.502c-1.348-1.092-2.022-2.477-2.022-4.156V12.088l3.209-1.106v13.534c0 1.445.463 2.559 1.39 3.34s2.127 1.156 3.598 1.127 3.047-.605 4.721-1.725V11.469h3.209v17.557h0zm12.525 2.078l-1.056.046c-1.815 0-3.23-.434-4.24-1.308s-1.513-2.078-1.513-3.616V13.502h-2.198V11.47h2.198V6.072l3.205-1.149v6.546h3.605v2.032h-3.605v12.636c0 1.213.323 2.071.968 2.574.555.413 1.436.65 2.636.71v1.682h0zm19.427-.265h-3.208v-12.47c0-1.269-.295-2.361-.881-3.273-.678-1.032-1.619-1.548-2.826-1.548-1.471 0-3.311.781-5.519 2.343v14.948h-3.208V1.032l3.208-1.018V13.59c2.05-1.502 4.29-2.255 6.723-2.255 1.699 0 3.075.576 4.128 1.725s1.584 2.58 1.584 4.291v13.488h-.001zm17.054-10.059c0-2.029-.383-3.704-1.145-5.03-.906-1.615-2.313-2.467-4.216-2.556-3.517.205-5.273 2.743-5.273 7.607 0 2.23.365 4.093 1.103 5.588.94 1.905 2.352 2.846 4.234 2.814 3.531-.029 5.297-2.835 5.297-8.423zm3.514.021c0 2.888-.734 5.291-2.198 7.211-1.612 2.149-3.837 3.227-6.677 3.227-2.815 0-5.009-1.078-6.592-3.227-1.436-1.919-2.153-4.322-2.153-7.21 0-2.714.776-4.998 2.328-6.857 1.639-1.972 3.795-2.962 6.459-2.962s4.834.99 6.505 2.962c1.552 1.859 2.328 4.143 2.328 6.857zm18.394 10.038h-3.209V17.662c0-1.445-.431-2.573-1.295-3.386s-2.015-1.202-3.451-1.17c-1.523.028-2.973.53-4.349 1.502v16.231h-3.208v-16.63c1.846-1.353 3.545-2.237 5.097-2.651 1.463-.385 2.755-.576 3.868-.576.762 0 1.478.074 2.152.223 1.26.293 2.286.838 3.075 1.637.881.884 1.32 1.944 1.32 3.185v14.813z" fill="#646464"/><path d="M19.779 1.151c-1.651.008-3.227.149-4.614.397-4.086.727-4.828 2.248-4.828 5.054v3.706h9.656v1.235H6.713c-2.806 0-5.264 1.699-6.033 4.93-.887 3.704-.926 6.015 0 9.882.686 2.879 2.326 4.93 5.132 4.93h3.32v-4.442c0-3.209 2.758-6.04 6.033-6.04h9.645c2.685 0 4.828-2.226 4.828-4.941V6.602c0-2.635-2.208-4.614-4.828-5.054a29.92 29.92 0 0 0-5.031-.396zm-5.222 2.98c.998 0 1.812.834 1.812 1.858s-.815 1.847-1.812 1.847-1.812-.826-1.812-1.847.811-1.858 1.812-1.858z" fill="url(#A)"/><path d="M30.843 11.543v4.317c0 3.347-2.818 6.165-6.033 6.165h-9.645c-2.642 0-4.828 2.277-4.828 4.941v9.258c0 2.635 2.275 4.185 4.828 4.941 3.057.905 5.988 1.069 9.645 0 2.431-.709 4.828-2.135 4.828-4.941v-3.705h-9.645v-1.235h14.473c2.807 0 3.852-1.971 4.828-4.93 1.008-3.045.966-5.975 0-9.882-.694-2.813-2.018-4.93-4.828-4.93h-3.624zm-5.425 23.446c1.001 0 1.812.826 1.812 1.847s-.811 1.858-1.812 1.858-1.812-.834-1.812-1.858.815-1.847 1.812-1.847z" fill="url(#B)"/><path d="M164.935 8.589h.563V5.037h1.332v-.424h-3.228v.424h1.333v3.552h0zm2.394 0h.481V5.345l1.043 3.244h.535l1.087-3.233v3.234h.524V4.614h-.693l-1.189 3.406-1.012-3.406h-.776v3.975z" fill="#646464"/><path opacity=".444" d="M33.043 47.459c0 1.395-5.794 2.526-12.941 2.526S7.162 48.854 7.162 47.459s5.794-2.527 12.941-2.527 12.941 1.131 12.941 2.527z" fill="url(#C)"/><defs><linearGradient id="A" x1="-.952" y1="2.309" x2="21.444" y2="21.26" gradientUnits="userSpaceOnUse"><stop stop-color="#5a9fd4"/><stop offset="1" stop-color="#306998"/></linearGradient><linearGradient id="B" x1="29.671" y1="33.32" x2="21.609" y2="22.102" gradientUnits="userSpaceOnUse"><stop stop-color="#ffd43b"/><stop offset="1" stop-color="#ffe873"/></linearGradient><radialGradient id="C" cx="0" cy="0" r="1" gradientUnits="userSpaceOnUse" gradientTransform="translate(20.0984 47.401) rotate(-90) scale(2.52606 11.0297)"><stop stop-color="#b8b8b8" stop-opacity=".498"/><stop offset="1" stop-color="#7f7f7f" stop-opacity="0"/></radialGradient></defs></svg>