<svg xmlns="http://www.w3.org/2000/svg" width="138" height="48" fill="none" xmlns:v="https://vecta.io/nano"><path d="M.156 23.948c0 4.01 3.884 7.753 10.008 9.864-1.223 6.206-.219 11.208 3.133 13.157 3.446 2.004 8.58.617 13.452-3.677 4.75 4.121 9.55 5.742 12.9 3.787 3.443-2.009 4.49-7.35 3.233-13.75 6.378-2.126 9.946-5.318 9.946-9.381 0-3.917-3.891-7.306-9.933-9.402 1.353-6.664.207-11.545-3.285-13.575C36.245-.986 31.389.72 26.57 4.948 21.556.46 16.747-.91 13.26 1.125c-3.363 1.962-4.322 7.056-3.096 13.376C4.247 16.581.156 20.047.156 23.948z" fill="#fff"/><path d="M41.617 16.628l-1.506-.478.233-1.035c1.14-5.578.395-10.072-2.151-11.551-2.44-1.419-6.431.061-10.462 3.596a31.39 31.39 0 0 0-1.165 1.077 28.48 28.48 0 0 0-.775-.722c-4.224-3.781-8.458-5.374-11.001-3.891-2.438 1.423-3.16 5.647-2.134 10.934.102.524.217 1.044.346 1.562-.599.171-1.178.354-1.731.549-4.952 1.741-8.115 4.469-8.115 7.298 0 2.923 3.395 5.854 8.554 7.631a26.56 26.56 0 0 0 1.265.399c-.138.558-.261 1.119-.367 1.683-.978 5.194-.214 9.319 2.217 10.733 2.511 1.46 6.726-.041 10.831-3.657.324-.286.65-.589.976-.907a30.82 30.82 0 0 0 1.264 1.163c3.976 3.449 7.902 4.841 10.332 3.424 2.509-1.464 3.324-5.895 2.266-11.286-.081-.412-.175-.832-.28-1.261.296-.088.586-.179.87-.274 5.363-1.791 8.852-4.687 8.852-7.648 0-2.84-3.265-5.586-8.317-7.339h0z" fill="#53c1de"/><path d="M40.453 29.703l-.786.248c-.592-1.889-1.391-3.898-2.369-5.974.933-2.026 1.701-4.01 2.277-5.887l1.391.442c4.329 1.502 6.969 3.723 6.969 5.435 0 1.823-2.852 4.19-7.482 5.736h0zm-1.921 3.838c.468 2.384.535 4.539.225 6.224-.279 1.514-.839 2.523-1.532 2.927-1.474.86-4.627-.258-8.027-3.207l-1.176-1.081c1.318-1.453 2.635-3.143 3.921-5.019 2.261-.202 4.398-.533 6.336-.984l.253 1.141h0zm-19.429 9.002c-1.44.513-2.587.527-3.281.124-1.476-.858-2.089-4.17-1.252-8.612l.342-1.566c1.916.427 4.037.735 6.304.92 1.294 1.836 2.65 3.523 4.015 5.001l-.891.827c-1.815 1.599-3.634 2.734-5.236 3.305h0zm-6.748-12.851c-2.281-.786-4.165-1.807-5.456-2.922-1.16-1.002-1.746-1.996-1.746-2.803 0-1.717 2.54-3.907 6.775-5.396l1.61-.511c.585 1.919 1.353 3.926 2.28 5.955-.939 2.06-1.717 4.098-2.308 6.04l-1.155-.364h0zm2.262-15.521c-.879-4.529-.295-7.946 1.174-8.803 1.565-.913 5.026.389 8.673 3.654l.702.653a48.2 48.2 0 0 0-3.985 4.971c-2.2.206-4.306.536-6.242.978l-.322-1.453h0zm20.178 5.023l-1.422-2.358 4.265.752a43.18 43.18 0 0 1-1.497 4.061l-1.346-2.454h0zm-8.228-8.079a42.99 42.99 0 0 1 2.753 3.35l-5.529-.001 2.776-3.349h0zm-8.281 8.093l-1.32 2.439-1.486-4.08c1.335-.301 2.758-.547 4.241-.734l-1.434 2.376h0zm1.477 12.038l-4.311-.699a45.39 45.39 0 0 1 1.516-4.163l1.326 2.44 1.469 2.422h0zm6.86 5.716a45.19 45.19 0 0 1-2.814-3.395l2.737.053 2.824-.063-2.746 3.405zm9.538-10.65l1.571 4.148c-1.356.312-2.821.563-4.364.75l1.436-2.4 1.357-2.498h0zm-3.088 1.492l-2.244 3.65-4.284.151c-1.456 0-2.872-.046-4.235-.135l-2.286-3.656-1.996-3.8 1.99-3.802h0l2.268-3.64 4.259-.162 4.267.163 2.254 3.628 2.017 3.784-2.01 3.817h0zm4.122-22.496c1.566.911 2.176 4.583 1.191 9.399l-.21.937c-1.941-.451-4.048-.787-6.254-.996-1.285-1.845-2.617-3.523-3.954-4.975l1.076-.995c3.454-3.03 6.681-4.226 8.152-3.371h0z" fill="#fff"/><path d="M26.545 19.756c2.307 0 4.177 1.885 4.177 4.211s-1.87 4.211-4.177 4.211-4.177-1.885-4.177-4.211 1.87-4.211 4.177-4.211M67.522 31l-2.43-3.51h-.144-2.538V31h-2.916V18.4h5.454c1.116 0 2.082.186 2.898.558.828.372 1.464.9 1.908 1.584s.666 1.494.666 2.43-.228 1.746-.684 2.43c-.444.672-1.08 1.188-1.908 1.548L70.654 31h-3.132zm-.054-8.028c0-.708-.228-1.248-.684-1.62-.456-.384-1.122-.576-1.998-.576H62.41v4.392h2.376c.876 0 1.542-.192 1.998-.576s.684-.924.684-1.62zm14.55 3.222a30.46 30.46 0 0 1-.054.756h-7.326a2.28 2.28 0 0 0 .936 1.422c.492.348 1.104.522 1.836.522.504 0 .948-.072 1.332-.216.396-.156.762-.396 1.098-.72l1.494 1.62c-.912 1.044-2.244 1.566-3.996 1.566-1.092 0-2.058-.21-2.898-.63-.84-.432-1.488-1.026-1.944-1.782s-.684-1.614-.684-2.574c0-.948.222-1.8.666-2.556.456-.768 1.074-1.362 1.854-1.782.792-.432 1.674-.648 2.646-.648.948 0 1.806.204 2.574.612s1.368.996 1.8 1.764c.444.756.666 1.638.666 2.646zm-5.022-2.898c-.636 0-1.17.18-1.602.54s-.696.852-.792 1.476h4.77c-.096-.612-.36-1.098-.792-1.458-.432-.372-.96-.558-1.584-.558zm10.534-2.124c1.5 0 2.652.36 3.456 1.08.804.708 1.206 1.782 1.206 3.222V31h-2.628v-1.206c-.528.9-1.512 1.35-2.952 1.35-.744 0-1.392-.126-1.944-.378-.54-.252-.954-.6-1.242-1.044s-.432-.948-.432-1.512c0-.9.336-1.608 1.008-2.124.684-.516 1.734-.774 3.15-.774h2.232c0-.612-.186-1.08-.558-1.404-.372-.336-.93-.504-1.674-.504a4.81 4.81 0 0 0-1.53.252c-.492.156-.912.372-1.26.648l-1.008-1.962c.528-.372 1.158-.66 1.89-.864.744-.204 1.506-.306 2.286-.306zm-.216 8.082c.48 0 .906-.108 1.278-.324.372-.228.636-.558.792-.99v-.99h-1.926c-1.152 0-1.728.378-1.728 1.134a1.04 1.04 0 0 0 .414.864c.288.204.678.306 1.17.306zm12.205 1.89c-1.032 0-1.962-.21-2.79-.63-.816-.432-1.458-1.026-1.926-1.782-.456-.756-.684-1.614-.684-2.574s.228-1.818.684-2.574a4.8 4.8 0 0 1 1.926-1.764c.828-.432 1.758-.648 2.79-.648 1.02 0 1.908.216 2.664.648.768.42 1.326 1.026 1.674 1.818l-2.178 1.17c-.504-.888-1.23-1.332-2.178-1.332-.732 0-1.338.24-1.818.72s-.72 1.134-.72 1.962.24 1.482.72 1.962 1.086.72 1.818.72c.96 0 1.686-.444 2.178-1.332l2.178 1.188c-.348.768-.906 1.368-1.674 1.8-.756.432-1.644.648-2.664.648zm12.341-.612c-.276.204-.618.36-1.026.468-.396.096-.816.144-1.26.144-1.152 0-2.046-.294-2.682-.882-.624-.588-.936-1.452-.936-2.592v-3.978h-1.494v-2.16h1.494v-2.358h2.808v2.358h2.412v2.16h-2.412v3.942c0 .408.102.726.306.954.216.216.516.324.9.324.444 0 .822-.12 1.134-.36l.756 1.98zm9.194.684c-.852 0-1.638-.156-2.358-.468-.708-.324-1.29-.78-1.746-1.368l1.62-1.944c.684.924 1.464 1.386 2.34 1.386 1.188 0 1.782-.696 1.782-2.088V20.74h-4.428V18.4h7.326v8.172c0 1.548-.384 2.712-1.152 3.492-.768.768-1.896 1.152-3.384 1.152zm11.557 0c-.996 0-1.962-.132-2.898-.396-.924-.276-1.668-.63-2.232-1.062l.99-2.196c.54.396 1.182.714 1.926.954s1.488.36 2.232.36c.828 0 1.44-.12 1.836-.36.396-.252.594-.582.594-.99 0-.3-.12-.546-.36-.738-.228-.204-.528-.366-.9-.486-.36-.12-.852-.252-1.476-.396l-2.358-.684a3.9 3.9 0 0 1-1.584-1.098c-.432-.504-.648-1.176-.648-2.016 0-.732.198-1.392.594-1.98.396-.6.99-1.074 1.782-1.422.804-.348 1.782-.522 2.934-.522.804 0 1.59.096 2.358.288s1.44.468 2.016.828l-.9 2.214c-1.164-.66-2.328-.99-3.492-.99-.816 0-1.422.132-1.818.396-.384.264-.576.612-.576 1.044s.222.756.666.972c.456.204 1.146.408 2.07.612l2.358.684c.612.228 1.134.588 1.566 1.08.444.492.666 1.158.666 1.998 0 .72-.204 1.38-.612 1.98-.396.588-.996 1.056-1.8 1.404s-1.782.522-2.934.522z" fill="#53c1de"/></svg>