<svg xmlns="http://www.w3.org/2000/svg" width="224" height="80" fill="none" xmlns:v="https://vecta.io/nano"><path d="M27.156 39.948c0 4.01 3.884 7.754 10.008 9.864-1.223 6.206-.219 11.208 3.134 13.157 3.446 2.004 8.58.617 13.452-3.677 4.75 4.121 9.55 5.742 12.9 3.787 3.443-2.009 4.49-7.35 3.233-13.75 6.378-2.126 9.946-5.318 9.946-9.381 0-3.917-3.891-7.306-9.933-9.402 1.353-6.664.207-11.545-3.285-13.575-3.366-1.957-8.222-.251-13.042 3.977-5.014-4.488-9.822-5.858-13.31-3.823-3.363 1.962-4.322 7.056-3.096 13.376-5.917 2.08-10.008 5.545-10.008 9.446z" fill="#fff"/><path d="M68.617 32.627l-1.506-.478.233-1.035c1.14-5.578.395-10.072-2.151-11.551-2.44-1.419-6.431.061-10.462 3.597a31.37 31.37 0 0 0-1.165 1.077 28.55 28.55 0 0 0-.775-.722c-4.224-3.781-8.459-5.374-11.001-3.891-2.438 1.423-3.16 5.647-2.134 10.934a31.77 31.77 0 0 0 .346 1.562 30.82 30.82 0 0 0-1.731.549c-4.952 1.741-8.115 4.469-8.115 7.298 0 2.923 3.395 5.854 8.554 7.631.418.143.84.276 1.265.399-.138.558-.261 1.119-.367 1.684-.978 5.194-.214 9.319 2.217 10.733 2.511 1.46 6.726-.041 10.831-3.657.324-.286.65-.589.976-.907a30.82 30.82 0 0 0 1.265 1.163c3.976 3.449 7.902 4.841 10.331 3.424 2.509-1.464 3.324-5.895 2.266-11.286-.081-.412-.175-.832-.281-1.261.296-.088.587-.179.87-.274 5.363-1.791 8.852-4.687 8.852-7.648 0-2.84-3.265-5.586-8.317-7.339z" fill="#53c1de"/><path d="M67.453 45.703l-.786.248c-.592-1.889-1.391-3.898-2.369-5.974.933-2.026 1.701-4.01 2.277-5.887l1.391.442c4.329 1.502 6.969 3.723 6.969 5.435 0 1.823-2.852 4.19-7.482 5.736h0zm-1.921 3.838c.468 2.384.535 4.539.225 6.224-.279 1.514-.839 2.523-1.532 2.927-1.474.86-4.627-.258-8.027-3.207l-1.176-1.081c1.318-1.453 2.635-3.143 3.921-5.019 2.262-.202 4.398-.533 6.335-.984l.253 1.141zm-19.429 9.002c-1.44.513-2.587.527-3.281.124-1.476-.858-2.089-4.17-1.252-8.612l.342-1.566c1.916.427 4.037.735 6.304.92 1.294 1.836 2.649 3.523 4.015 5.001l-.891.827c-1.815 1.599-3.634 2.734-5.236 3.305h0zm-6.748-12.852c-2.281-.786-4.165-1.807-5.456-2.922-1.16-1.002-1.746-1.996-1.746-2.803 0-1.717 2.54-3.907 6.775-5.396l1.61-.511c.585 1.919 1.353 3.926 2.28 5.956-.939 2.06-1.718 4.098-2.308 6.04l-1.155-.364zm2.262-15.521c-.879-4.529-.295-7.946 1.174-8.803 1.565-.913 5.025.389 8.673 3.654l.702.653c-1.359 1.471-2.702 3.146-3.985 4.971-2.2.206-4.306.536-6.242.978l-.322-1.453h0zm20.178 5.023l-1.422-2.358 4.265.752a43.18 43.18 0 0 1-1.497 4.061l-1.346-2.454zm-8.228-8.079c.922 1.006 1.845 2.131 2.753 3.35l-5.529-.001 2.776-3.349zm-8.281 8.093l-1.32 2.439-1.486-4.08a44.75 44.75 0 0 1 4.241-.734l-1.434 2.376zm1.477 12.038l-4.311-.699a45.42 45.42 0 0 1 1.516-4.163l1.326 2.44 1.469 2.422zm6.86 5.716a45.19 45.19 0 0 1-2.814-3.395l2.737.053 2.824-.063-2.746 3.405zm9.538-10.65l1.571 4.148a42.11 42.11 0 0 1-4.364.75l1.436-2.4 1.357-2.498zm-3.088 1.492l-2.244 3.65-4.284.152c-1.456 0-2.872-.046-4.235-.135l-2.286-3.656-1.996-3.8 1.99-3.802h0l2.268-3.64 4.26-.162 4.267.163 2.254 3.628 2.017 3.784-2.01 3.817h0zm4.123-22.496c1.566.911 2.176 4.583 1.191 9.399l-.21.937c-1.941-.451-4.048-.787-6.254-.996-1.285-1.845-2.617-3.523-3.954-4.975l1.076-.995c3.454-3.03 6.681-4.226 8.152-3.371z" fill="#fff"/><g fill="#53c1de"><path d="M53.545 35.756c2.307 0 4.177 1.885 4.177 4.211s-1.87 4.211-4.177 4.211-4.177-1.885-4.177-4.211 1.87-4.211 4.177-4.211zm44.722 12.118l-2.581-3.684a4.82 4.82 0 0 1-.487.018h-2.852v3.666H90v-12.58h5.198c1.095 0 2.046.18 2.852.539.818.359 1.444.875 1.877 1.546s.65 1.468.65 2.39c0 .947-.234 1.761-.704 2.444-.457.683-1.119 1.192-1.986 1.528l2.906 4.134h-2.527zm-.054-8.105c0-.803-.265-1.42-.794-1.851s-1.306-.647-2.328-.647h-2.744v5.014h2.744c1.023 0 1.799-.216 2.328-.647.529-.443.794-1.066.794-1.869zm12.931 3.361a8.59 8.59 0 0 1-.036.665h-7.563a2.66 2.66 0 0 0 1.029 1.689c.566.407 1.264.611 2.094.611 1.059 0 1.931-.347 2.617-1.042l1.21 1.384a4.08 4.08 0 0 1-1.643 1.168c-.662.264-1.408.395-2.238.395-1.059 0-1.992-.21-2.798-.629a4.62 4.62 0 0 1-1.877-1.743c-.433-.755-.65-1.605-.65-2.552 0-.934.211-1.773.632-2.516a4.58 4.58 0 0 1 1.787-1.761c.758-.419 1.612-.629 2.563-.629.939 0 1.775.21 2.509.629a4.25 4.25 0 0 1 1.733 1.743c.421.743.631 1.605.631 2.588zm-4.873-3.163c-.722 0-1.336.216-1.841.647-.493.419-.794.983-.903 1.689h5.47c-.097-.695-.392-1.258-.885-1.689s-1.107-.647-1.841-.647zm9.556-1.798c1.42 0 2.503.341 3.249 1.024.758.671 1.137 1.689 1.137 3.055v5.625h-2.13v-1.168c-.277.419-.674.743-1.191.97-.505.216-1.119.324-1.841.324s-1.354-.12-1.895-.359c-.542-.252-.963-.593-1.264-1.024a2.67 2.67 0 0 1-.433-1.492c0-.863.319-1.551.957-2.067.649-.527 1.666-.791 3.05-.791h2.491v-.144c0-.671-.205-1.186-.614-1.545-.397-.359-.993-.539-1.787-.539a5.29 5.29 0 0 0-1.606.252c-.518.168-.957.401-1.318.701l-.884-1.635c.505-.383 1.113-.677 1.823-.881s1.462-.306 2.256-.306zm-.307 8.195c.566 0 1.065-.126 1.498-.377a2.14 2.14 0 0 0 .939-1.114v-1.114h-2.329c-1.299 0-1.949.425-1.949 1.276a1.14 1.14 0 0 0 .487.97c.325.24.777.36 1.354.36zM126.717 48c-.999 0-1.896-.21-2.69-.629s-1.414-1-1.859-1.743c-.445-.755-.668-1.605-.668-2.552s.223-1.791.668-2.534a4.68 4.68 0 0 1 1.841-1.743c.794-.419 1.697-.629 2.708-.629.95 0 1.78.192 2.49.575a3.73 3.73 0 0 1 1.625 1.653l-1.733 1.007c-.277-.443-.626-.773-1.047-.989-.409-.228-.86-.341-1.354-.341-.842 0-1.54.276-2.093.827-.554.539-.831 1.264-.831 2.174s.271 1.642.813 2.193c.553.539 1.257.809 2.111.809.494 0 .945-.108 1.354-.323a2.8 2.8 0 0 0 1.047-1.006l1.733 1.006c-.373.719-.921 1.276-1.643 1.671-.71.383-1.534.575-2.472.575z"/><path d="M137.797 47.353c-.265.216-.589.377-.974.485-.374.108-.771.162-1.192.162-1.059 0-1.877-.276-2.455-.827s-.866-1.354-.866-2.408v-4.619h-1.588v-1.797h1.588v-2.193h2.256v2.193h2.581v1.797h-2.581v4.565c0 .467.115.827.343 1.078.229.24.56.359.993.359.505 0 .927-.132 1.263-.395l.632 1.599zm16.483-12.059v12.58h-1.931l-6.967-8.519v8.519h-2.329v-12.58h1.932l6.967 8.519v-8.519h2.328zm5.949 2.875c1.42 0 2.503.341 3.249 1.024.758.671 1.137 1.689 1.137 3.055v5.625h-2.13v-1.168c-.277.419-.674.743-1.191.97-.506.216-1.119.324-1.841.324s-1.354-.12-1.895-.359c-.542-.252-.963-.593-1.264-1.024a2.67 2.67 0 0 1-.433-1.492c0-.863.319-1.551.957-2.067.649-.527 1.666-.791 3.05-.791h2.491v-.144c0-.671-.205-1.186-.614-1.545-.397-.359-.993-.539-1.787-.539a5.29 5.29 0 0 0-1.606.252c-.518.168-.957.401-1.318.701l-.884-1.635c.505-.383 1.113-.677 1.823-.881s1.462-.306 2.256-.306zm-.307 8.195c.566 0 1.065-.126 1.498-.377a2.14 2.14 0 0 0 .939-1.114v-1.114h-2.329c-1.299 0-1.949.425-1.949 1.276a1.14 1.14 0 0 0 .487.97c.325.24.777.36 1.354.36zm12.48.989c-.265.216-.589.377-.975.485a4.27 4.27 0 0 1-1.191.162c-1.059 0-1.877-.276-2.455-.827s-.866-1.354-.866-2.408v-4.619h-1.588v-1.797h1.588v-2.193h2.256v2.193h2.581v1.797h-2.581v4.565c0 .467.115.827.343 1.078.229.24.56.359.993.359.505 0 .927-.132 1.263-.395l.632 1.599zm.954-9.076h2.256v9.597h-2.256v-9.597zm1.137-1.581c-.409 0-.752-.126-1.029-.377-.277-.264-.415-.587-.415-.97a1.23 1.23 0 0 1 .415-.953c.277-.264.62-.395 1.029-.395s.752.126 1.029.377a1.16 1.16 0 0 1 .415.917 1.37 1.37 0 0 1-.415 1.006c-.265.264-.608.395-1.029.395zm12.203 1.581l-4.134 9.597h-2.328l-4.134-9.597h2.347l2.996 7.117 3.087-7.117h2.166zM196 43.13a8.59 8.59 0 0 1-.036.665h-7.563a2.65 2.65 0 0 0 1.029 1.689c.565.407 1.263.611 2.094.611 1.059 0 1.931-.347 2.617-1.042l1.209 1.384c-.433.515-.981.904-1.642 1.168S192.3 48 191.469 48c-1.058 0-1.991-.21-2.797-.629a4.62 4.62 0 0 1-1.877-1.743c-.434-.755-.65-1.605-.65-2.552 0-.934.21-1.773.632-2.516.433-.755 1.028-1.342 1.786-1.761s1.613-.629 2.564-.629c.938 0 1.774.21 2.508.629a4.24 4.24 0 0 1 1.733 1.743c.421.743.632 1.605.632 2.588zm-4.873-3.163c-.722 0-1.336.216-1.842.647-.493.419-.794.983-.902 1.689h5.469c-.096-.695-.391-1.258-.884-1.689s-1.107-.647-1.841-.647z"/></g></svg>