<svg xmlns="http://www.w3.org/2000/svg" width="1920" height="938" fill="none" xmlns:v="https://vecta.io/nano"><g clip-path="url(#C)"><path d="M102.053 769.216c-45.654-4.054-82.074-39.816-86.961-85.389L-48.5 90.741l1977.13-83.5v924.188L102.053 769.216z" fill="#ff6b00"/><g clip-path="url(#D)"><mask id="A" mask-type="alpha" maskUnits="userSpaceOnUse" x="172" y="-565" width="2113" height="1932"><path d="M585.526 811.662c-42.645-3.802-77.617-35.384-85.733-77.422L398.58 209.995c-13.903-72.013 39.476-139.542 112.754-142.64L1921 7.74v923L585.526 811.662z" fill="#ff6b00"/></mask><g mask="url(#A)"><path opacity=".3" d="M2218.57 513.501h-112.32l21.4-122.779h90.92c48.14 0 85.58-37.368 85.58-85.412s-37.44-85.412-85.58-85.412h-64.18l21.39-112.103c10.7-42.705-21.39-85.411-69.53-96.088-42.79-10.676-85.58 21.353-96.28 69.397l-26.74 138.794h-165.81l21.4-112.103c10.69-42.705-21.4-85.411-69.54-96.088-42.79-10.676-85.58 21.353-96.27 69.397l-26.75 138.794h-144.41c-48.14 0-85.58 37.368-85.58 85.412s48.14 85.412 96.28 85.412h112.32l-21.4 122.779h-90.92c-48.14 0-85.58 37.367-85.58 85.412s37.44 85.411 85.58 85.411h64.18l-21.39 112.103c-10.7 42.706 21.39 85.412 69.53 96.088 32.09 10.677 85.58-16.014 96.28-69.397l26.74-138.794h165.81l-21.4 112.103c-10.69 42.706 21.4 85.412 69.54 96.088 32.09 10.677 85.58-16.014 96.27-69.397l26.75-138.794h144.41c48.14 0 85.58-37.367 85.58-85.411-16.05-48.045-53.49-85.412-96.28-85.412zm-283.48 0h-165.81l21.4-122.779h165.81l-21.4 122.779z" fill="#f5520c" fill-opacity=".7"/><path d="M2174.92 538.058h-112.46l21.42-122.779h91.04c48.2 0 85.69-37.367 85.69-85.412s-37.49-85.411-85.69-85.411h-64.26l21.42-112.103c10.71-42.706-21.42-85.412-69.62-96.088-42.84-10.676-85.69 21.353-96.4 69.397l-26.77 138.794h-166.02l21.42-112.103c10.71-42.706-21.42-85.412-69.62-96.088-42.84-10.676-85.68 21.353-96.39 69.397l-26.78 138.794h-144.6c-48.19 0-85.68 37.367-85.68 85.411s48.2 85.412 96.4 85.412h112.46l-21.42 122.779h-91.04c-48.2 0-85.69 37.368-85.69 85.412s37.49 85.412 85.69 85.412h64.26l-21.42 112.103c-10.71 42.705 21.42 85.411 69.62 96.088 32.13 10.676 85.68-16.015 96.39-69.397l26.78-138.794h166.02l-21.43 112.103c-10.71 42.705 21.43 85.411 69.62 96.088 32.14 10.676 85.69-16.015 96.4-69.397l26.78-138.794h144.59c48.2 0 85.69-37.368 85.69-85.412-16.07-48.044-53.56-85.412-96.4-85.412zm-283.83 0h-166.02l21.42-122.779h166.02l-21.42 122.779z" fill="url(#B)" fill-opacity=".5"/><path d="M2060.49 537.715l-.41 2.343h2.38 112.46c41.54 0 78.41 36.263 94.4 83.737-.17 46.777-36.7 83.087-83.69 83.087h-144.59-1.65l-.32 1.621-26.77 138.779c-5.24 26.106-20.95 45.68-39.28 57.43-18.4 11.791-39.2 15.556-54.53 10.463l-.09-.033-.1-.022c-47.41-10.501-78.48-52.317-68.12-93.649l.02-.055.01-.056 21.42-112.103.45-2.375h-2.41-166.02-1.65l-.31 1.621-26.78 138.779c-5.24 26.106-20.94 45.68-39.28 57.43-18.4 11.791-39.19 15.556-54.52 10.463l-.1-.033-.1-.022c-47.4-10.501-78.48-52.317-68.11-93.649l.01-.055.01-.056 21.42-112.103.46-2.375h-2.42-64.26c-47.1 0-83.69-36.478-83.69-83.412s36.59-83.412 83.69-83.412h91.04 1.68l.29-1.656 21.42-122.779.41-2.344h-2.38-112.46c-23.61 0-47.25-9.158-64.98-24.214-17.73-15.049-29.42-35.878-29.42-59.198 0-46.933 36.59-83.411 83.68-83.411h144.6 1.65l.31-1.621 26.77-138.765c10.54-47.225 52.48-78.2 93.96-67.865l.02.006.03.006c47.4 10.501 78.48 52.317 68.11 93.649l-.01.056-.01.056-21.42 112.102-.46 2.376h2.42 166.02 1.65l.31-1.621 26.76-138.738c.01-.009.01-.019.01-.028 10.54-47.225 52.48-78.199 93.95-67.864l.03.006.03.006c47.4 10.501 78.47 52.317 68.11 93.649l-.02.056-.01.056-21.42 112.102-.45 2.376h2.42 64.26c47.1 0 83.69 36.478 83.69 83.411s-36.59 83.412-83.69 83.412h-91.04-1.68l-.29 1.656-21.42 122.78zm-169.4 2.343h1.68l.29-1.656 21.42-122.779.41-2.344h-2.38-166.02-1.68l-.29 1.656-21.42 122.78-.41 2.343h2.38 166.02z" stroke="#ff8a00" stroke-opacity=".4" stroke-width="4"/></g></g></g><defs><linearGradient id="B" x1="1821.47" y1="34.208" x2="1821.47" y2="919.393" gradientUnits="userSpaceOnUse"><stop stop-color="#f90"/><stop offset="1" stop-color="#ff6b00"/></linearGradient><clipPath id="C"><path fill="#fff" d="M0 0h1920v938H0z"/></clipPath><clipPath id="D"><path fill="#fff" transform="translate(0 9.74)" d="M0 0h1920v910H0z"/></clipPath></defs></svg>