<svg xmlns="http://www.w3.org/2000/svg" width="154" height="39" fill="none" xmlns:v="https://vecta.io/nano"><g clip-path="url(#A)"><path d="M33.218 7.387c-.03-.194-.219-.301-.377-.313s-3.216-.053-3.216-.053l-2.812-2.444c-.253-.226-.746-.158-.938-.106-.002.001-.48.133-1.285.355-.135-.39-.333-.868-.615-1.349-.911-1.552-2.245-2.372-3.857-2.374-.118 0-.229.01-.341.018l-.145-.15C18.929.3 18.029-.027 16.95.002c-2.082.053-4.155 1.395-5.836 3.779-1.183 1.677-2.083 3.785-2.338 5.416L4.676 10.33c-1.207.338-1.245.371-1.402 1.387L0 34.276l26.459 4.085 11.468-2.545-4.708-28.429zm-9.952-2.194l-2.053.567c-.015-.941-.141-2.25-.632-3.381 1.58.267 2.357 1.862 2.685 2.814zm-3.437.95l-4.418 1.221c.427-1.459 1.237-2.912 2.231-3.864.37-.354.887-.749 1.5-.975.576 1.073.701 2.591.687 3.618zm-2.837-4.904c.489-.01.9.086 1.252.293a5.99 5.99 0 0 0-1.617 1.124c-1.322 1.266-2.336 3.232-2.74 5.129l-3.628 1.003c.717-2.985 3.52-7.465 6.733-7.548z" fill="#95bf47"/><path d="M32.839 7.074c-.156-.012-3.216-.053-3.216-.053l-2.811-2.444c-.094-.084-.222-.128-.355-.146l.001 33.927 11.467-2.544-4.709-28.428c-.03-.194-.221-.301-.377-.313z" fill="#5e8e3e"/><path d="M20.1 12.337l-1.332 4.448s-1.486-.603-3.247-.505c-2.583.146-2.61 1.6-2.584 1.965.141 1.989 6.003 2.423 6.332 7.083.259 3.665-2.178 6.173-5.69 6.371-4.215.237-6.535-1.982-6.535-1.982l.893-3.391s2.336 1.573 4.205 1.468c1.221-.069 1.657-.956 1.613-1.583-.184-2.595-4.958-2.441-5.259-6.705-.254-3.588 2.386-7.223 8.21-7.551 2.244-.129 3.392.382 3.392.382z" fill="#fff"/><g fill="#000"><path d="M53.027 21.649c-1.319-.639-1.996-1.177-1.996-1.917 0-.942.941-1.546 2.411-1.546 1.711 0 3.239.639 3.239.639l1.205-3.295s-1.108-.774-4.37-.774c-4.539 0-7.685 2.32-7.685 5.582 0 1.849 1.469 3.262 3.428 4.27 1.582.806 2.148 1.379 2.148 2.219 0 .874-.791 1.58-2.26 1.58-2.189 0-4.256-1.009-4.256-1.009l-1.281 3.296s1.91 1.143 5.123 1.143c4.671 0 8.024-2.051 8.024-5.75-.001-1.982-1.696-3.395-3.731-4.437zm18.606-6.924c-2.298 0-4.106.975-5.499 2.454l-.076-.034 1.996-9.313h-5.199l-5.047 23.704h5.199l1.733-8.103c.678-3.06 2.448-4.942 4.106-4.942 1.167 0 1.62.706 1.62 1.715 0 .639-.076 1.412-.226 2.051l-1.958 9.28h5.199l2.034-9.583c.226-1.009.377-2.219.377-3.026-.002-2.623-1.547-4.203-4.258-4.203zm16.009.001c-6.254 0-10.396 5.044-10.396 10.658 0 3.597 2.486 6.489 7.157 6.489 6.14 0 10.284-4.908 10.284-10.658 0-3.328-2.185-6.489-7.045-6.489zM85.081 28.31c-1.771 0-2.524-1.345-2.524-3.026 0-2.656 1.545-6.993 4.37-6.993 1.846 0 2.448 1.412 2.448 2.791 0 2.857-1.543 7.229-4.293 7.229zm22.908-13.584c-3.509 0-5.501 2.757-5.501 2.757h-.074l.301-2.488H98.12l-1.054 6.153-3.617 16.979h5.199l1.43-6.859h.114s1.067.605 3.051.605c6.102 0 10.095-5.581 10.095-11.23 0-3.126-1.545-5.917-5.349-5.917zm-4.973 13.651c-1.349 0-2.148-.672-2.148-.672l.867-4.337c.603-2.891 2.298-4.808 4.106-4.808 1.583 0 2.072 1.311 2.072 2.556 0 2.992-1.997 7.262-4.897 7.262zM120.76 8.068c-1.656 0-2.975 1.177-2.975 2.69 0 1.379.979 2.32 2.448 2.32h.075c1.621 0 3.014-.975 3.052-2.69 0-1.345-1.017-2.32-2.6-2.32zm-7.274 23.466h5.197l3.542-16.441h-5.237l-3.502 16.441zm21.959-16.475h-3.617l.188-.774c.301-1.58 1.356-2.992 3.089-2.992.925 0 1.657.235 1.657.235l1.017-3.631s-.904-.403-2.826-.403c-1.846 0-3.69.471-5.085 1.546-1.77 1.345-2.599 3.294-3.013 5.245l-.15.774h-2.411l-.754 3.497h2.412l-2.75 12.978h5.199l2.749-12.978h3.579l.716-3.497zm12.51.036s-3.25 7.308-4.709 11.297h-.076c-.099-1.285-1.281-11.297-1.281-11.297h-5.462l3.128 15.096c.076.336.038.538-.113.774-.604 1.042-1.621 2.051-2.826 2.791-.979.639-2.071 1.042-2.937 1.311L135.11 39c1.055-.202 3.239-.975 5.085-2.522 2.373-1.983 4.557-5.044 6.817-9.213l6.366-12.172h-5.423v.001z"/></g></g><defs><clipPath id="A"><path fill="#fff" d="M0 0h154v39H0z"/></clipPath></defs></svg>