<svg xmlns="http://www.w3.org/2000/svg" width="224" height="80" fill="none" xmlns:v="https://vecta.io/nano"><g clip-path="url(#A)" fill="#000"><path opacity=".45" d="M65.191 15.001l-7.734 14.001H42l7.728-14.001h15.463z"/><path opacity=".6" d="M57.457 29.002h15.462l-7.727-14.001H49.728l7.73 14.001z"/><path opacity=".8" d="M49.728 42.997l7.73-13.995-7.73-14.001L42 29.002l7.728 13.995z"/><path opacity=".45" d="M49.804 63.999l7.734-14.001H73l-7.734 14.001H49.804z"/><path opacity=".6" d="M57.537 49.998H42.076l7.728 14.001h15.463l-7.729-14.001z"/><path opacity=".8" d="M65.266 36.002l-7.729 13.996 7.729 14.001L73 49.998l-7.734-13.996z"/></g><path d="M94.616 44.296c0 1.093-.413 1.935-1.239 2.527-.826.584-1.998.876-3.516.876-1.622 0-2.909-.251-3.862-.752v-1.202a8.48 8.48 0 0 0 3.862.921c1.198 0 2.106-.198 2.723-.595.625-.404.938-.94.938-1.606 0-.614-.249-1.13-.748-1.55-.491-.419-1.302-.831-2.433-1.235-1.213-.442-2.065-.82-2.556-1.134-.491-.322-.863-.681-1.116-1.078-.246-.404-.368-.895-.368-1.471 0-.913.38-1.636 1.138-2.167.766-.532 1.834-.797 3.203-.797a9.52 9.52 0 0 1 3.728.741l-.413 1.011c-1.19-.494-2.295-.741-3.315-.741-.99 0-1.774.165-2.355.494s-.87.786-.87 1.37c0 .636.223 1.146.67 1.527.454.382 1.336.809 2.645 1.28 1.094.397 1.89.756 2.388 1.078.498.314.87.674 1.116 1.078.253.404.379.88.379 1.426zm16.815-2.942c0 1.992-.48 3.549-1.439 4.672-.96 1.115-2.285 1.673-3.974 1.673-1.064 0-2.001-.258-2.812-.775s-1.432-1.258-1.864-2.224-.647-2.081-.647-3.347c0-1.992.48-3.541 1.44-4.649.959-1.116 2.276-1.673 3.95-1.673 1.667 0 2.973.565 3.918 1.696.952 1.123 1.428 2.665 1.428 4.627zm-9.575 0c0 1.677.364 2.987 1.093 3.931.737.936 1.775 1.404 3.114 1.404s2.373-.468 3.103-1.404c.736-.943 1.105-2.254 1.105-3.931 0-1.685-.372-2.991-1.117-3.919-.736-.928-1.774-1.393-3.113-1.393s-2.374.464-3.103 1.393c-.722.921-1.082 2.227-1.082 3.919zm17.696 6.121h-1.104V30h1.104v17.475zm8.836 0h-1.105V35.267h1.105v12.208zm-1.261-15.599c0-.719.234-1.078.703-1.078a.61.61 0 0 1 .536.281c.134.187.201.453.201.797 0 .337-.067.603-.201.797a.6.6 0 0 1-.536.292c-.469 0-.703-.363-.703-1.089zm13.434 3.155c.878 0 1.636.161 2.276.483s1.213.872 1.719 1.651h.067l-.067-2.774V30h1.094v17.475h-.726l-.279-1.864h-.089c-.923 1.392-2.247 2.089-3.973 2.089-1.674 0-2.954-.524-3.839-1.572s-1.328-2.576-1.328-4.582c0-2.111.439-3.725 1.317-4.84s2.154-1.673 3.828-1.673zm0 1.011c-1.325 0-2.322.468-2.991 1.404-.663.936-.994 2.295-.994 4.077 0 3.459 1.336 5.188 4.007 5.188 1.369 0 2.373-.401 3.013-1.202s.96-2.123.96-3.964v-.191c0-1.887-.316-3.242-.949-4.065-.625-.831-1.64-1.247-3.046-1.247zm13.935 11.433h-1.104V35.267h1.104v12.208zm-1.261-15.599c0-.719.235-1.078.703-1.078a.61.61 0 0 1 .536.281c.134.187.201.453.201.797 0 .337-.067.603-.201.797a.6.6 0 0 1-.536.292c-.468 0-.703-.363-.703-1.089zm12.195 14.835c.7 0 1.31-.06 1.831-.18v.898c-.536.18-1.154.27-1.853.27-1.072 0-1.864-.288-2.377-.865-.506-.576-.759-1.482-.759-2.718v-7.884h-1.797v-.651l1.797-.505.558-2.763h.569v2.954h3.56v.966h-3.56v7.727c0 .936.164 1.628.491 2.078s.841.674 1.54.674zm6.079-11.444h1.138l2.567 6.851 1.485 4.256h.067l1.529-4.324 2.567-6.783H182l-5.435 14.184c-.439 1.153-.807 1.932-1.105 2.336s-.647.707-1.049.91c-.394.202-.874.303-1.44.303-.424 0-.896-.079-1.417-.236v-.966c.431.12.896.18 1.395.18.379 0 .714-.09 1.004-.27s.551-.461.782-.842c.238-.374.509-.973.814-1.797l.603-1.595-4.643-12.208z" fill="#000"/><defs><clipPath id="A"><path fill="#fff" transform="translate(42 15)" d="M0 0h31v49H0z"/></clipPath></defs></svg>