<svg xmlns="http://www.w3.org/2000/svg" width="158" height="43" fill="none" xmlns:v="https://vecta.io/nano"><path d="M3.799 34.356c2.856 2.384 6.105 4.051 9.611 5.256 1.042.352 2.098.691 3.208.786.135.014.271.041.406.027.257-.041.596 0 .69-.312.108-.366-.217-.515-.46-.65-1.57-.84-3.222-1.504-4.751-2.438-3.195-1.951-6.146-4.213-8.352-7.288C1.186 25.605.279 20.972.888 15.986c.528-4.349 2.301-8.101 5.591-11.027C9.565 2.222 13.22.651 17.309.163c4.386-.528 8.596.203 12.359 2.506 3.411 2.1 6.065 4.972 7.445 8.833 1.611 4.511-1.164 8.819-5.929 9.212-5.713.461-10.18-1.91-13.551-6.367-2.18-2.899-1.855-5.866.596-8.521.948-1.03 2.139-1.49 3.479-1.585 2.992-.203 5.713.583 8.109 2.411.866.664 1.57 1.504 1.814 2.615.433 2.046-.785 3.78-2.992 4.091s-5.022-.542-6.511-2.886c-.663-1.043-.88-2.14-.528-3.36.095-.339.339-.826-.122-1.03-.406-.176-.704.244-.907.555-1.124 1.666-1.056 3.441-.217 5.148 1.543 3.116 4.224 4.701 7.567 5.27 1.313.23 2.613.095 3.845-.447 2.883-1.274 3.98-4.376 2.667-7.532-1.245-2.994-3.492-4.958-6.389-6.299-4.102-1.91-8.258-2.317-12.481-.501-5.564 2.384-7.743 8.02-6.295 13.479 1.164 4.389 3.953 7.641 7.581 10.215 2.992 2.127 6.281 3.617 9.936 4.186 2.694.42 5.361.271 7.919-.759 2.491-1.003 4.142-2.899 5.212-5.324.054-.136.108-.271.217-.393.081 1.138-.189 2.222-.514 3.278-2.193 7.275-6.823 12.274-14.106 14.55-8.068 2.52-16.732-.461-21.835-7.031l.122-.122z" fill="#5f474e"/><path d="M33.147 11.692c.311-3.184-1.34-5.202-3.763-6.733-3.195-2.005-6.606-2.533-10.221-1.287-4.02 1.395-5.997 4.755-5.158 8.914 1.002 5.013 4.088 8.345 8.718 10.269 2.951 1.219 6.051 1.693 9.259 1.138 3.669-.623 6.227-3.454 6.444-7.207.176-2.913-.325-4.958-1.828-7.546.122-.081.217-.041.298.054 2.897 3.305 4.075 8.833 1.34 13.005-1.57 2.384-3.899 3.604-6.647 3.929-5.848.664-10.938-1.057-15.026-5.324-2.545-2.669-4.115-5.852-4.142-9.646-.027-4.051 2.261-7.343 6.146-8.508 5.009-1.504 9.449-.325 13.117 3.414 1.3 1.328 1.922 2.98 1.76 4.877-.027.203.041.461-.298.65z" fill="#44e0c6"/><path d="M3.677 34.478c-.041-.068-.095-.122-.135-.19.108-.081.19-.041.257.068l-.122.122zm44.858-20.621h10.044v2.342h-3.447V30.25h-3.15V16.199h-3.447v-2.342zm24.3 16.394l-2.288-6.768h-1.634v6.768h-3.15V13.857h4.933c1.506 0 2.704.359 3.596 1.077.891.703 1.337 1.647 1.337 2.834v1.803c0 .749-.188 1.413-.565 1.991s-.911 1.03-1.605 1.358l2.645 7.33h-3.269zm-3.922-9.11h1.634c.614 0 1.09-.133 1.426-.398s.505-.64.505-1.124v-1.897c0-.484-.168-.859-.505-1.124s-.812-.398-1.426-.398h-1.634v4.941zm19.302 9.344c-1.446 0-2.625-.351-3.536-1.054-.911-.718-1.367-1.647-1.367-2.787V13.857h3.15v12.787c0 .468.158.835.475 1.101.337.266.763.398 1.278.398s.931-.133 1.248-.398c.337-.265.505-.632.505-1.101V13.857h3.091v12.787a3.41 3.41 0 0 1-1.337 2.787c-.891.703-2.06 1.054-3.507 1.054zm12.913-16.628h8.797v2.342h-5.647V21h4.458v2.342h-4.458v6.909h-3.15V13.857zm15.986 0h8.796v2.342h-5.646V21h4.457v2.342h-4.457v6.909h-3.15V13.857zm15.985 0h3.15v14.051h5.616v2.342h-8.766V13.857zm15.956 0H158v2.342h-5.795v4.567h4.606v2.342h-4.606v4.801H158v2.342h-8.945V13.857z" fill="#5f474e"/></svg>