<svg xmlns="http://www.w3.org/2000/svg" width="167" height="38" fill="none" xmlns:v="https://vecta.io/nano"><g clip-path="url(#A)"><path d="M96.851 14.957H90.28v.699c2.055 0 2.386.442 2.386 3.057v4.715c0 2.615-.33 3.094-2.386 3.094-1.578-.221-2.643-1.068-4.111-2.689l-1.689-1.841c2.276-.406 3.487-1.842 3.487-3.462 0-2.025-1.725-3.572-4.956-3.572H76.55v.699c2.055 0 2.386.442 2.386 3.057v4.715c0 2.615-.33 3.094-2.386 3.094v.7h7.305v-.7c-2.055 0-2.386-.479-2.386-3.094v-1.325h.624l4.075 5.119h10.683c5.249 0 7.526-2.799 7.526-6.151s-2.276-6.114-7.526-6.114zM81.47 20.96v-4.898h1.505c1.652 0 2.386 1.142 2.386 2.468 0 1.289-.734 2.431-2.386 2.431H81.47zm15.492 5.12h-.257c-1.321 0-1.505-.331-1.505-2.025v-7.992h1.762c3.818 0 4.515 2.799 4.515 4.972 0 2.246-.697 5.046-4.515 5.046zm-40.857-3.757l2.533-7.514c.735-2.173.404-2.799-1.945-2.799v-.737h6.901v.737c-2.313 0-2.863.552-3.781 3.241l-4.185 12.596h-.477L51.405 16.32l-3.818 11.528h-.477l-4.075-12.596c-.881-2.689-1.468-3.241-3.598-3.241v-.737h8.15v.737c-2.166 0-2.754.515-1.983 2.798l2.459 7.514 3.708-11.05h.698l3.635 11.049zM68.585 27.7c-4.038 0-7.342-2.983-7.342-6.63 0-3.609 3.304-6.593 7.342-6.593s7.342 2.983 7.342 6.593c0 3.647-3.304 6.63-7.342 6.63zm0-12.08c-3.377 0-4.552 3.056-4.552 5.451 0 2.431 1.175 5.451 4.552 5.451 3.414 0 4.589-3.02 4.589-5.451 0-2.394-1.175-5.451-4.589-5.451z" fill="#00749a"/><g fill="#464342"><path d="M113.443 26.485v.737h-8.406v-.737c2.46 0 2.9-.626 2.9-4.31v-5.892c0-3.684-.44-4.272-2.9-4.272v-.737h7.599c3.78 0 5.874 1.952 5.874 4.568 0 2.541-2.094 4.53-5.874 4.53h-2.093v1.804c0 3.684.441 4.31 2.9 4.31zm-.807-13.886h-2.093v6.409h2.093c2.056 0 3.01-1.436 3.01-3.167 0-1.768-.954-3.242-3.01-3.242zm31.093 11.16l-.184.663c-.33 1.216-.735 1.657-3.341 1.657h-.514c-1.909 0-2.239-.442-2.239-3.056V21.33c2.863 0 3.084.257 3.084 2.173h.698v-5.488h-.698c0 1.915-.221 2.173-3.084 2.173v-4.125h2.019c2.606 0 3.01.442 3.34 1.657l.185.7h.586l-.256-3.462h-10.793v.699c2.055 0 2.386.442 2.386 3.057v4.715c0 2.392-.28 2.995-1.901 3.081-1.541-.236-2.598-1.079-4.045-2.676l-1.689-1.841c2.276-.406 3.488-1.842 3.488-3.463 0-2.025-1.726-3.572-4.956-3.572h-6.461v.699c2.056 0 2.386.442 2.386 3.057v4.715c0 2.615-.33 3.094-2.386 3.094v.7h7.306v-.7c-2.056 0-2.387-.479-2.387-3.094v-1.325h.624l4.075 5.119h15.088l.22-3.462-.551-.001zm-19.456-2.8v-4.898h1.505c1.652 0 2.386 1.142 2.386 2.468 0 1.289-.734 2.431-2.386 2.431h-1.505zm26.907 6.74c-1.468 0-2.753-.773-3.304-1.252-.184.184-.513.737-.587 1.252h-.697v-5.082h.734c.294 2.431 1.982 3.867 4.148 3.867 1.175 0 2.129-.663 2.129-1.767 0-.957-.844-1.694-2.349-2.394l-2.093-.994c-1.469-.7-2.569-1.916-2.569-3.536 0-1.768 1.652-3.278 3.928-3.278 1.211 0 2.239.442 2.863.958.184-.148.367-.553.477-.995h.698v4.346h-.771c-.257-1.731-1.212-3.167-3.157-3.167-1.028 0-1.982.589-1.982 1.51 0 .957.77 1.473 2.533 2.283l2.018.994c1.763.847 2.46 2.21 2.46 3.315 0 2.32-2.019 3.94-4.479 3.94zm11.307 0c-1.469 0-2.754-.773-3.304-1.252-.184.184-.514.737-.587 1.252h-.698v-5.082h.735c.293 2.431 1.981 3.867 4.148 3.867 1.174 0 2.129-.663 2.129-1.767 0-.957-.844-1.694-2.35-2.394l-2.092-.994c-1.469-.7-2.57-1.916-2.57-3.536 0-1.768 1.652-3.278 3.928-3.278 1.212 0 2.239.442 2.864.958.183-.148.367-.553.476-.995h.698v4.346h-.771c-.257-1.731-1.211-3.167-3.156-3.167-1.028 0-1.983.589-1.983 1.51 0 .957.771 1.473 2.533 2.283l2.019.994c1.762.847 2.459 2.21 2.459 3.315 0 2.32-2.019 3.94-4.478 3.94zM2.727 19c0 6.452 3.737 12.027 9.156 14.67L4.134 12.366A16.28 16.28 0 0 0 2.727 19zm27.213-.823c0-2.014-.721-3.409-1.34-4.495-.823-1.343-1.595-2.48-1.595-3.822 0-1.498 1.133-2.893 2.728-2.893.072 0 .14.009.21.013-2.89-2.656-6.741-4.279-10.97-4.279-5.676 0-10.669 2.922-13.574 7.347l1.045.019c1.699 0 4.33-.207 4.33-.207.876-.052.979 1.239.104 1.343 0 0-.88.104-1.859.155l5.916 17.655 3.555-10.698-2.531-6.958c-.875-.051-1.704-.155-1.704-.155-.876-.051-.773-1.394.103-1.343 0 0 2.683.207 4.28.207 1.699 0 4.33-.207 4.33-.207.876-.052.979 1.239.104 1.343 0 0-.882.104-1.86.155l5.871 17.521 1.62-5.433c.703-2.254 1.237-3.874 1.237-5.269zm-10.682 2.248l-4.875 14.21a16.19 16.19 0 0 0 9.984-.26 1.44 1.44 0 0 1-.116-.224l-4.994-13.726zm13.97-9.246c.07.519.11 1.077.11 1.676 0 1.654-.308 3.513-1.235 5.838L27.14 33.088c4.83-2.826 8.078-8.076 8.078-14.089a16.25 16.25 0 0 0-1.99-7.82zM18.974 0C8.532 0 .036 8.523.036 19s8.496 19 18.939 19 18.938-8.522 18.938-19S29.416 0 18.974 0zm0 37.129C9.011 37.129.905 28.996.905 19S9.011.872 18.974.872 37.043 9.004 37.043 19s-8.105 18.13-18.068 18.13z"/></g></g><defs><clipPath id="A"><path fill="#fff" d="M0 0h167v38H0z"/></clipPath></defs></svg>