<svg width="283" height="351" viewBox="0 0 283 351" fill="none" xmlns="http://www.w3.org/2000/svg">
<path d="M155.656 11.9594L140.569 3.31183V0L155.656 8.64755V11.9594Z" fill="#A3A3A3"/>
<path d="M163.383 16.5592L158.048 13.4313V10.1195L163.383 13.2473V16.5592Z" fill="#A3A3A3"/>
<path d="M169.455 20.0551L165.775 17.8472V14.5354L169.455 16.7433V20.0551Z" fill="#A3A3A3"/>
<path d="M148.848 15.639L140.568 10.8553V7.54346L148.848 12.3272V15.639Z" fill="#A3A3A3"/>
<path d="M161.175 22.8149L151.24 16.9272V13.6154L161.175 19.5031V22.8149Z" fill="#A3A3A3"/>
<path d="M167.247 26.3107L163.567 24.1028V20.791L167.247 22.9989V26.3107Z" fill="#A3A3A3"/>
<path d="M172.951 29.6225L169.271 27.4146V24.1028L172.951 26.3107V29.6225Z" fill="#A3A3A3"/>
<path d="M146.64 21.8948L140.568 18.399V15.0872L146.64 18.583V21.8948Z" fill="#A3A3A3"/>
<path d="M150.872 24.4709L148.848 23.1829V19.8711L150.872 21.159V24.4709Z" fill="#A3A3A3"/>
<path d="M156.943 27.9665L153.264 25.7586V22.4468L156.943 24.6547V27.9665Z" fill="#A3A3A3"/>
<path d="M162.647 38.822L140.568 26.1266V22.8148L162.647 35.5102V38.822Z" fill="#A3A3A3"/>
<path d="M170.375 43.2378L164.855 40.1099V36.7981L170.375 39.9259V43.2378Z" fill="#A3A3A3"/>
<path d="M146.64 36.9822L140.568 33.6703V30.3585L146.64 33.6703V36.9822Z" fill="#A3A3A3"/>
<path d="M160.623 45.0776L148.848 38.4539V35.1421L160.623 41.7657V45.0776Z" fill="#A3A3A3"/>
<path d="M166.511 48.5735L162.832 46.5496V43.2378L166.511 45.2617V48.5735Z" fill="#A3A3A3"/>
<path d="M152.712 48.2054L140.568 41.2138V37.902L152.712 44.8936V48.2054Z" fill="#A3A3A3"/>
<path d="M163.935 54.6452L155.103 49.4935V46.1816L163.935 51.3334V54.6452Z" fill="#A3A3A3"/>
<path d="M172.215 59.4289L166.143 55.933V52.6212L172.215 56.117V59.4289Z" fill="#A3A3A3"/>
<path d="M144.8 51.1493L140.568 48.7574V45.4456L144.8 47.8374V51.1493Z" fill="#A3A3A3"/>
<path d="M152.528 55.565L147.008 52.4372V49.1254L152.528 52.2532V55.565Z" fill="#A3A3A3"/>
<path d="M163.567 62.0047L154.736 57.0369V53.7251L163.567 58.6928V62.0047Z" fill="#A3A3A3"/>
<path d="M153.264 63.6608L140.568 56.3012V52.9894L153.264 60.349V63.6608Z" fill="#A3A3A3"/>
<path d="M167.431 71.7563L155.472 64.9487V61.6368L167.431 68.4445V71.7563Z" fill="#A3A3A3"/>
<path d="M173.319 75.2521L169.639 73.0442V69.7324L173.319 71.9403V75.2521Z" fill="#A3A3A3"/>
<path d="M179.022 78.5641L175.342 76.5402V73.2284L179.022 75.2523V78.5641Z" fill="#A3A3A3"/>
<path d="M148.112 68.2605L140.568 64.0287V60.7169L148.112 64.9487V68.2605Z" fill="#A3A3A3"/>
<path d="M179.759 25.9428L190.246 32.0145V28.7027L179.759 22.631V25.9428Z" fill="#A3A3A3"/>
<path d="M181.966 34.7742L190.246 39.558V36.2462L181.966 31.4624V34.7742Z" fill="#A3A3A3"/>
<path d="M184.358 43.6058L190.246 47.1016V43.7898L184.358 40.2939V43.6058Z" fill="#A3A3A3"/>
<path d="M181.598 49.6773L190.246 54.6451V51.3332L181.598 46.3655V49.6773Z" fill="#A3A3A3"/>
<path d="M184.358 58.8769L190.246 62.1887V58.8769L184.358 55.5651V58.8769Z" fill="#A3A3A3"/>
<path d="M182.702 65.5007L190.246 69.9164V66.6046L182.702 62.1888V65.5007Z" fill="#A3A3A3"/>
<path d="M186.198 75.0681L190.246 77.4599V74.1481L186.198 71.7562V75.0681Z" fill="#A3A3A3"/>
<path d="M182.334 80.4039L190.246 85.0036V81.6918L182.334 77.092V80.4039Z" fill="#A3A3A3"/>
<path d="M182.702 88.3154L190.246 92.5471V89.2353L182.702 85.0035V88.3154Z" fill="#A3A3A3"/>
<path d="M153.631 71.5723L150.504 69.5484V66.2366L153.631 68.2605V71.5723Z" fill="#A3A3A3"/>
<path d="M163.199 77.0921L156.023 72.8603V69.5485L163.199 73.5963V77.0921Z" fill="#A3A3A3"/>
<path d="M214.348 45.8137L199.261 36.9821V33.6703L214.348 42.5018V45.8137Z" fill="#A3A3A3"/>
<path d="M222.076 50.2295L216.557 47.1016V43.7898L222.076 46.9176V50.2295Z" fill="#A3A3A3"/>
<path d="M227.964 53.7252L224.284 51.5173V48.2054L227.964 50.4133V53.7252Z" fill="#A3A3A3"/>
<path d="M207.357 49.3094L199.261 44.5257V41.2139L207.357 45.9976V49.3094Z" fill="#A3A3A3"/>
<path d="M219.868 56.485L209.749 50.5973V47.2855L219.868 53.1732V56.485Z" fill="#A3A3A3"/>
<path d="M225.756 59.9808L222.076 57.7729V54.4611L225.756 56.6689V59.9808Z" fill="#A3A3A3"/>
<path d="M231.46 63.2928L227.78 61.0849V57.7731L231.46 59.981V63.2928Z" fill="#A3A3A3"/>
<path d="M205.149 55.5651L199.261 52.2533V48.7574L205.149 52.2533V55.5651Z" fill="#A3A3A3"/>
<path d="M209.565 58.141L207.541 56.8531V53.5413L209.565 54.8292V58.141Z" fill="#A3A3A3"/>
<path d="M215.452 61.6368L211.773 59.4289V56.1171L215.452 58.325V61.6368Z" fill="#A3A3A3"/>
<path d="M221.156 72.4922L199.261 59.7968V56.485L221.156 69.1803V72.4922Z" fill="#A3A3A3"/>
<path d="M228.884 76.9082L223.548 73.7803V70.4685L228.884 73.5963V76.9082Z" fill="#A3A3A3"/>
<path d="M205.149 70.8365L199.261 67.3406V64.0288L205.149 67.5246V70.8365Z" fill="#A3A3A3"/>
<path d="M219.132 78.748L207.541 72.1243V68.8125L219.132 75.4362V78.748Z" fill="#A3A3A3"/>
<path d="M225.204 82.2438L221.524 80.2199V76.9081L225.204 78.932V82.2438Z" fill="#A3A3A3"/>
<path d="M211.404 81.8759L199.261 74.8842V71.5724L211.404 78.564V81.8759Z" fill="#A3A3A3"/>
<path d="M222.444 88.3155L213.613 83.3477V80.0359L222.444 85.0036V88.3155Z" fill="#A3A3A3"/>
<path d="M230.724 93.0993L224.836 89.6035V86.2916L230.724 89.7874V93.0993Z" fill="#A3A3A3"/>
<path d="M203.309 84.8195L199.261 82.4277V79.1158L203.309 81.5077V84.8195Z" fill="#A3A3A3"/>
<path d="M211.037 89.4194L205.701 86.1076V82.7958L211.037 85.9236V89.4194Z" fill="#A3A3A3"/>
<path d="M222.076 95.6751L213.429 90.7073V87.3955L222.076 92.3633V95.6751Z" fill="#A3A3A3"/>
<path d="M211.772 97.331L199.261 89.9714V86.6595L211.772 94.0192V97.331Z" fill="#A3A3A3"/>
<path d="M225.94 105.427L214.165 98.6191V95.3073L225.94 102.115V105.427Z" fill="#A3A3A3"/>
<path d="M232.012 108.922L228.148 106.898V103.587L232.012 105.611V108.922Z" fill="#A3A3A3"/>
<path d="M237.716 112.234L234.036 110.21V106.898L237.716 108.922V112.234Z" fill="#A3A3A3"/>
<path d="M206.805 101.931L199.261 97.699V94.3872L206.805 98.619V101.931Z" fill="#A3A3A3"/>
<path d="M238.267 59.6129L248.755 65.6845V62.3727L238.267 56.301V59.6129Z" fill="#A3A3A3"/>
<path d="M240.659 68.4445L248.755 73.2283V69.9164L240.659 65.1327V68.4445Z" fill="#A3A3A3"/>
<path d="M242.867 77.46L248.755 80.7719V77.46L242.867 74.1482V77.46Z" fill="#A3A3A3"/>
<path d="M240.107 83.3477L248.755 88.3155V85.0036L240.107 80.0359V83.3477Z" fill="#A3A3A3"/>
<path d="M242.867 92.5472L248.755 96.043V92.7312L242.867 89.2354V92.5472Z" fill="#A3A3A3"/>
<path d="M241.211 99.1708L248.755 103.587V100.275L241.211 95.859V99.1708Z" fill="#A3A3A3"/>
<path d="M244.707 108.738L248.755 111.13V107.818L244.707 105.427V108.738Z" fill="#A3A3A3"/>
<path d="M240.843 114.074L248.755 118.674V115.362L240.843 110.762V114.074Z" fill="#A3A3A3"/>
<path d="M241.211 121.986L248.755 126.217V122.906L241.211 118.674V121.986Z" fill="#A3A3A3"/>
<path d="M212.325 105.243L209.013 103.403V100.091L212.325 101.931V105.243Z" fill="#A3A3A3"/>
<path d="M221.892 110.762L214.533 106.53V103.219L221.892 107.45V110.762Z" fill="#A3A3A3"/>
<path d="M155.656 80.2198L140.568 71.5722V68.2604L155.656 76.9079V80.2198Z" fill="#A3A3A3"/>
<path d="M163.383 84.8195L158.048 81.6917V78.3799L163.383 81.5077V84.8195Z" fill="#A3A3A3"/>
<path d="M169.455 88.3155L165.775 86.1076V82.7958L169.455 85.0037V88.3155Z" fill="#A3A3A3"/>
<path d="M148.848 83.8995L140.568 79.1158V75.804L148.848 80.5877V83.8995Z" fill="#A3A3A3"/>
<path d="M161.175 91.0753L151.24 85.1876V81.8757L161.175 87.7634V91.0753Z" fill="#A3A3A3"/>
<path d="M167.247 94.5712L163.567 92.3633V89.0515L167.247 91.2594V94.5712Z" fill="#A3A3A3"/>
<path d="M172.951 97.8829L169.271 95.675V92.3632L172.951 94.571V97.8829Z" fill="#A3A3A3"/>
<path d="M146.64 90.1553L140.568 86.6595V83.3477L146.64 86.8435V90.1553Z" fill="#A3A3A3"/>
<path d="M150.872 92.7312L148.848 91.4433V88.1315L150.872 89.4194V92.7312Z" fill="#A3A3A3"/>
<path d="M156.943 96.227L153.264 94.0191V90.7073L156.943 92.7312V96.227Z" fill="#A3A3A3"/>
<path d="M162.647 107.082L140.568 94.387V91.0752L162.647 103.587V107.082Z" fill="#A3A3A3"/>
<path d="M170.375 111.498L164.855 108.37V105.058L170.375 108.186V111.498Z" fill="#A3A3A3"/>
<path d="M146.64 105.243L140.568 101.931V98.6189L146.64 101.931V105.243Z" fill="#A3A3A3"/>
<path d="M160.623 113.338L148.848 106.714V103.403L160.623 110.026V113.338Z" fill="#A3A3A3"/>
<path d="M166.511 116.834L162.832 114.81V111.314L166.511 113.522V116.834Z" fill="#A3A3A3"/>
<path d="M152.712 116.466L140.568 109.474V106.162L152.712 113.154V116.466Z" fill="#A3A3A3"/>
<path d="M163.935 122.906L155.103 117.754V114.442L163.935 119.594V122.906Z" fill="#A3A3A3"/>
<path d="M172.215 127.689L166.143 124.193V120.882L172.215 124.377V127.689Z" fill="#A3A3A3"/>
<path d="M144.8 119.41L140.568 117.018V113.706L144.8 116.098V119.41Z" fill="#A3A3A3"/>
<path d="M152.528 123.826L147.008 120.698V117.386L152.528 120.514V123.826Z" fill="#A3A3A3"/>
<path d="M163.567 130.265L154.736 125.298V121.986L163.567 126.954V130.265Z" fill="#A3A3A3"/>
<path d="M153.264 131.921L140.568 124.562V121.25L153.264 128.609V131.921Z" fill="#A3A3A3"/>
<path d="M167.431 140.017L155.472 133.209V129.897L167.431 136.705V140.017Z" fill="#A3A3A3"/>
<path d="M173.319 143.513L169.639 141.305V137.993L173.319 140.201V143.513Z" fill="#A3A3A3"/>
<path d="M179.022 146.825L175.342 144.617V141.305L179.022 143.513V146.825Z" fill="#A3A3A3"/>
<path d="M148.112 136.521L140.568 132.105V128.793L148.112 133.209V136.521Z" fill="#A3A3A3"/>
<path d="M179.759 94.2032L190.246 100.275V96.963L179.759 90.8914V94.2032Z" fill="#A3A3A3"/>
<path d="M181.966 103.035L190.246 107.818V104.507L181.966 99.7228V103.035Z" fill="#A3A3A3"/>
<path d="M184.358 111.866L190.246 115.362V112.05L184.358 108.554V111.866Z" fill="#A3A3A3"/>
<path d="M181.598 117.938L190.246 122.906V119.594L181.598 114.626V117.938Z" fill="#A3A3A3"/>
<path d="M184.358 127.138L190.246 130.449V127.138L184.358 123.826V127.138Z" fill="#A3A3A3"/>
<path d="M182.702 133.761L190.246 138.177V134.865L182.702 130.449V133.761Z" fill="#A3A3A3"/>
<path d="M186.198 143.329L190.246 145.72V142.409L186.198 140.017V143.329Z" fill="#A3A3A3"/>
<path d="M182.334 148.664L190.246 153.264V149.952L182.334 145.352V148.664Z" fill="#A3A3A3"/>
<path d="M182.702 156.392L190.246 160.808V157.496L182.702 153.08V156.392Z" fill="#A3A3A3"/>
<path d="M153.631 139.833L150.504 137.809V134.497L153.631 136.337V139.833Z" fill="#A3A3A3"/>
<path d="M163.199 145.169L156.023 141.121V137.809L163.199 141.857V145.169Z" fill="#A3A3A3"/>
<path d="M169.271 170.743L156.943 163.751V160.44L169.271 167.431V170.743Z" fill="#A3A3A3"/>
<path d="M177.551 175.527L172.767 172.767V169.455L177.551 172.215V175.527Z" fill="#A3A3A3"/>
<path d="M214.348 114.074L199.261 105.242V101.931L214.348 110.578V114.074Z" fill="#A3A3A3"/>
<path d="M222.076 118.49L216.557 115.362V112.05L222.076 115.178V118.49Z" fill="#A3A3A3"/>
<path d="M227.964 121.986L224.284 119.778V116.466L227.964 118.674V121.986Z" fill="#A3A3A3"/>
<path d="M207.357 117.57L199.261 112.786V109.474L207.357 114.258V117.57Z" fill="#A3A3A3"/>
<path d="M219.868 124.746L209.749 118.858V115.546L219.868 121.434V124.746Z" fill="#A3A3A3"/>
<path d="M225.756 128.241L222.076 126.033V122.721L225.756 124.929V128.241Z" fill="#A3A3A3"/>
<path d="M231.46 131.553L227.78 129.345V126.033L231.46 128.241V131.553Z" fill="#A3A3A3"/>
<path d="M205.149 123.825L199.261 120.33V117.018L205.149 120.514V123.825Z" fill="#A3A3A3"/>
<path d="M209.565 126.401L207.541 125.113V121.802L209.565 123.09V126.401Z" fill="#A3A3A3"/>
<path d="M215.452 129.897L211.773 127.689V124.377L215.452 126.585V129.897Z" fill="#A3A3A3"/>
<path d="M221.156 140.753L199.261 128.058V124.746L221.156 137.441V140.753Z" fill="#A3A3A3"/>
<path d="M228.884 145.169L223.548 142.041V138.729L228.884 141.857V145.169Z" fill="#A3A3A3"/>
<path d="M205.149 139.097L199.261 135.601V132.289L205.149 135.785V139.097Z" fill="#A3A3A3"/>
<path d="M219.132 147.008L207.541 140.385V137.073L219.132 143.697V147.008Z" fill="#A3A3A3"/>
<path d="M225.204 150.504L221.524 148.48V145.169L225.204 147.192V150.504Z" fill="#A3A3A3"/>
<path d="M211.404 150.136L199.261 143.145V139.833L211.404 146.824V150.136Z" fill="#A3A3A3"/>
<path d="M222.444 156.576L213.613 151.608V148.112L222.444 153.264V156.576Z" fill="#A3A3A3"/>
<path d="M230.724 161.36L224.836 157.864V154.552L230.724 158.048V161.36Z" fill="#A3A3A3"/>
<path d="M203.309 153.08L199.261 150.688V147.376L203.309 149.768V153.08Z" fill="#A3A3A3"/>
<path d="M211.037 157.496L205.701 154.368V151.056L211.037 154.184V157.496Z" fill="#A3A3A3"/>
<path d="M222.076 163.936L213.429 158.968V155.656L222.076 160.624V163.936Z" fill="#A3A3A3"/>
<path d="M211.772 165.591L199.261 158.232V154.92L211.772 162.279V165.591Z" fill="#A3A3A3"/>
<path d="M225.94 173.687L214.165 166.879V163.568L225.94 170.375V173.687Z" fill="#A3A3A3"/>
<path d="M232.012 177.183L228.148 175.159V171.847L232.012 173.871V177.183Z" fill="#A3A3A3"/>
<path d="M237.716 180.495L234.036 178.471V175.159L237.716 177.183V180.495Z" fill="#A3A3A3"/>
<path d="M206.805 170.191L199.261 165.96V162.648L206.805 166.879V170.191Z" fill="#A3A3A3"/>
<path d="M238.267 127.873L248.755 133.945V130.633L238.267 124.562V127.873Z" fill="#A3A3A3"/>
<path d="M240.659 136.705L248.755 141.489V138.177L240.659 133.393V136.705Z" fill="#A3A3A3"/>
<path d="M242.867 145.537L248.755 149.032V145.721L242.867 142.225V145.537Z" fill="#A3A3A3"/>
<path d="M240.107 151.608L248.755 156.576V153.264L240.107 148.296V151.608Z" fill="#A3A3A3"/>
<path d="M242.867 160.808L248.755 164.304V160.992L242.867 157.496V160.808Z" fill="#A3A3A3"/>
<path d="M241.211 167.431L248.755 171.847V168.535L241.211 164.12V167.431Z" fill="#A3A3A3"/>
<path d="M244.707 176.999L248.755 179.391V176.079L244.707 173.687V176.999Z" fill="#A3A3A3"/>
<path d="M240.843 182.335L248.755 186.934V183.623L240.843 179.023V182.335Z" fill="#A3A3A3"/>
<path d="M241.211 190.246L248.755 194.478V191.166L241.211 186.934V190.246Z" fill="#A3A3A3"/>
<path d="M212.325 173.503L209.013 171.663V168.351L212.325 170.191V173.503Z" fill="#A3A3A3"/>
<path d="M221.892 179.023L214.533 174.791V171.479L221.892 175.711V179.023Z" fill="#A3A3A3"/>
<path d="M227.78 204.413L215.636 197.422V194.11L227.78 201.102V204.413Z" fill="#A3A3A3"/>
<path d="M236.059 209.197L231.276 206.437V203.126L236.059 205.885V209.197Z" fill="#A3A3A3"/>
<path d="M79.2999 294.569C58.325 294.569 38.454 289.785 23.7348 281.321C8.46356 272.49 0 260.53 0 247.835C0 235.14 8.46356 223.18 23.7348 214.349C54.4612 196.686 104.323 196.686 135.049 214.349C150.32 223.18 158.784 234.956 158.784 247.835C158.784 260.53 150.32 272.49 135.049 281.321C120.146 289.785 100.275 294.569 79.2999 294.569ZM79.2999 204.045C59.6129 204.045 40.1099 208.277 25.2067 216.925C10.8554 225.204 2.94385 236.244 2.94385 247.835C2.94385 259.426 10.8554 270.466 25.2067 278.745C39.558 287.025 58.877 291.625 79.2999 291.625C99.7228 291.625 119.042 287.025 133.393 278.745C147.744 270.466 155.656 259.426 155.656 247.835C155.656 236.244 147.744 225.204 133.393 216.925C118.49 208.277 98.9869 204.045 79.2999 204.045Z" fill="url(#paint0_linear)"/>
<g opacity="0.78">
<path opacity="0.78" d="M79.3 281.322C111.309 281.322 137.257 266.329 137.257 247.835C137.257 229.341 111.309 214.349 79.3 214.349C47.2913 214.349 21.343 229.341 21.343 247.835C21.343 266.329 47.2913 281.322 79.3 281.322Z" fill="url(#paint1_linear)"/>
</g>
<path d="M150.137 222.628V206.989H144.617C141.121 202.205 135.969 197.606 129.346 193.742C101.747 177.735 56.8534 177.735 29.0708 193.742C22.2632 197.606 17.2954 202.205 13.7996 206.989H8.27991V222.628C8.27991 233.116 15.2715 243.603 29.0708 251.515C56.6694 267.522 101.563 267.522 129.346 251.515C143.329 243.603 150.137 233.116 150.137 222.628Z" fill="url(#paint2_linear)"/>
<path d="M79.3004 247.651C118.422 247.651 150.137 229.364 150.137 206.805C150.137 184.247 118.422 165.959 79.3004 165.959C40.1786 165.959 8.46411 184.247 8.46411 206.805C8.46411 229.364 40.1786 247.651 79.3004 247.651Z" fill="url(#paint3_linear)"/>
<path d="M144.801 206.253V184.726H139.833C136.705 180.311 131.921 176.079 125.666 172.583C100.091 157.864 58.693 157.864 33.1183 172.583C26.8626 176.263 22.0789 180.311 18.9511 184.726H13.7993V206.253C13.7993 216.005 20.239 225.572 32.9343 232.932C58.509 247.651 99.9069 247.651 125.482 232.932C138.361 225.572 144.801 216.005 144.801 206.253Z" fill="url(#paint4_linear)"/>
<path d="M144.801 201.102V179.575H139.833C136.705 175.159 131.921 170.927 125.666 167.431C100.091 152.712 58.693 152.712 33.1183 167.431C26.8626 171.111 22.0789 175.159 18.9511 179.575H13.7993V201.102C13.7993 210.853 20.239 220.421 32.9343 227.78C58.509 242.5 99.9069 242.5 125.482 227.78C138.361 220.421 144.801 210.853 144.801 201.102Z" fill="#EA6206"/>
<path d="M79.2999 222.445C115.475 222.445 144.801 205.558 144.801 184.726C144.801 163.895 115.475 147.008 79.2999 147.008C43.1249 147.008 13.7993 163.895 13.7993 184.726C13.7993 205.558 43.1249 222.445 79.2999 222.445Z" fill="#BCBEFF"/>
<path d="M124.378 212.693C113.155 227.044 98.2513 234.772 85.74 238.82C100.275 238.084 114.443 234.404 125.666 227.964C138.361 220.605 144.801 210.853 144.801 201.286V194.846C138.177 198.342 131.186 204.046 124.378 212.693Z" fill="#D65A05"/>
<path d="M150.137 184.542V168.903H144.617C141.121 164.119 135.969 159.52 129.346 155.656C101.747 139.649 56.8534 139.649 29.0708 155.656C22.2632 159.52 17.2954 164.119 13.7996 168.903H8.27991V184.542C8.27991 195.03 15.2715 205.517 29.0708 213.429C56.6694 229.436 101.563 229.436 129.346 213.429C143.329 205.333 150.137 195.03 150.137 184.542Z" fill="url(#paint5_linear)"/>
<path d="M79.3004 209.565C118.422 209.565 150.137 191.278 150.137 168.719C150.137 146.161 118.422 127.873 79.3004 127.873C40.1786 127.873 8.46411 146.161 8.46411 168.719C8.46411 191.278 40.1786 209.565 79.3004 209.565Z" fill="url(#paint6_linear)"/>
<path d="M144.801 167.431V145.904H139.833C136.705 141.488 131.921 137.257 125.666 133.761C100.091 119.042 58.693 119.042 33.1183 133.761C26.8626 137.441 22.0789 141.488 18.9511 145.904H13.7993V167.431C13.7993 177.183 20.239 186.75 32.9343 194.11C58.509 208.829 99.9069 208.829 125.482 194.11C138.361 186.75 144.801 176.999 144.801 167.431Z" fill="#EA6206"/>
<g opacity="0.51">
<path opacity="0.51" d="M144.801 162.463V140.936H139.833C136.705 136.521 131.921 132.289 125.666 128.793C100.091 114.074 58.693 114.074 33.1183 128.793C26.8626 132.473 22.0789 136.521 18.9511 140.936H13.7993V162.463C13.7993 172.215 20.239 181.782 32.9343 189.142C58.509 203.861 99.9069 203.861 125.482 189.142C138.361 181.782 144.801 172.031 144.801 162.463Z" fill="#FF6B00"/>
</g>
<path d="M79.2999 183.622C115.475 183.622 144.801 166.735 144.801 145.904C144.801 125.073 115.475 108.186 79.2999 108.186C43.1249 108.186 13.7993 125.073 13.7993 145.904C13.7993 166.735 43.1249 183.622 79.2999 183.622Z" fill="#FF6B00"/>
<g opacity="0.1">
<path opacity="0.1" d="M124.378 171.663C110.394 189.51 90.8914 197.054 77.0922 200.182C94.5713 200.55 112.234 196.87 125.666 189.142C138.361 181.782 144.801 172.031 144.801 162.463V153.816C138.177 157.496 131.185 163.199 124.378 171.663Z" fill="#2D2D2D"/>
</g>
<path d="M150.137 145.537V129.897H144.617C141.121 125.114 135.969 120.514 129.346 116.65C101.747 100.643 56.8534 100.643 29.0708 116.65C22.2632 120.514 17.2954 125.114 13.7996 129.897H8.27991V145.537C8.27991 156.024 15.2715 166.511 29.0708 174.423C56.6694 190.43 101.563 190.43 129.346 174.423C143.329 166.511 150.137 156.024 150.137 145.537Z" fill="url(#paint7_linear)"/>
<path d="M79.3004 170.743C118.422 170.743 150.137 152.456 150.137 129.897C150.137 107.339 118.422 89.0515 79.3004 89.0515C40.1786 89.0515 8.46411 107.339 8.46411 129.897C8.46411 152.456 40.1786 170.743 79.3004 170.743Z" fill="url(#paint8_linear)"/>
<path d="M144.801 128.425V106.898H139.833C136.705 102.483 131.921 98.2508 125.666 94.755C100.091 80.0358 58.693 80.0358 33.1183 94.755C26.8626 98.4348 22.0789 102.483 18.9511 106.898H13.7993V128.425C13.7993 138.177 20.239 147.744 32.9343 155.104C58.509 169.823 99.9069 169.823 125.482 155.104C138.361 147.744 144.801 138.177 144.801 128.425Z" fill="#EA6206"/>
<path d="M144.801 122.354V101.011H139.833C136.705 96.5949 131.921 92.3631 125.666 88.8673C100.091 74.1481 58.693 74.1481 33.1183 88.8673C26.8626 92.5471 22.0789 96.5949 18.9511 101.011H13.7993V122.538C13.7993 132.105 20.239 141.673 33.1183 149.216C58.693 163.935 100.091 163.935 125.666 149.216C138.361 141.857 144.801 132.105 144.801 122.354Z" fill="#FF6B00"/>
<path d="M79.2999 144.617C115.475 144.617 144.801 127.73 144.801 106.898C144.801 86.0674 115.475 69.1804 79.2999 69.1804C43.1249 69.1804 13.7993 86.0674 13.7993 106.898C13.7993 127.73 43.1249 144.617 79.2999 144.617Z" fill="#CC5605"/>
<path d="M150.137 106.53V90.8911H144.617C141.121 86.1074 135.969 81.5076 129.346 77.6438C101.747 61.6366 56.8534 61.6366 29.0708 77.6438C22.2632 81.5076 17.2954 86.1074 13.7996 90.8911H8.27991V106.53C8.27991 117.018 15.2715 127.505 29.0708 135.417C56.6694 151.424 101.563 151.424 129.346 135.417C143.329 127.505 150.137 117.018 150.137 106.53Z" fill="url(#paint9_linear)"/>
<path d="M79.3004 131.737C118.422 131.737 150.137 113.45 150.137 90.8912C150.137 68.3326 118.422 50.0453 79.3004 50.0453C40.1786 50.0453 8.46411 68.3326 8.46411 90.8912C8.46411 113.45 40.1786 131.737 79.3004 131.737Z" fill="url(#paint10_linear)"/>
<path d="M79.3004 131.737C118.422 131.737 150.137 113.45 150.137 90.8912C150.137 68.3326 118.422 50.0453 79.3004 50.0453C40.1786 50.0453 8.46411 68.3326 8.46411 90.8912C8.46411 113.45 40.1786 131.737 79.3004 131.737Z" fill="url(#paint11_linear)"/>
<g opacity="0.1">
<path opacity="0.1" d="M124.378 130.449C108.923 149.952 87.0277 157.128 73.2284 159.704C91.9954 160.624 111.314 157.128 125.666 148.848C138.361 141.489 144.801 131.737 144.801 122.17V112.602C138.177 116.282 131.185 121.986 124.378 130.449Z" fill="#2D2D2D"/>
</g>
<path d="M150.136 106.346V90.7073H144.617C141.121 85.9235 135.969 81.3238 129.346 77.46C101.747 61.4528 56.8533 61.4528 29.0707 77.46C22.2631 81.3238 17.2953 85.9235 13.7995 90.7073H8.27979V106.346C8.27979 116.834 15.2714 127.321 29.0707 135.233C56.6693 151.24 101.563 151.24 129.346 135.233C143.329 127.321 150.136 116.834 150.136 106.346Z" fill="url(#paint12_linear)"/>
<path d="M79.3003 131.553C118.422 131.553 150.137 113.266 150.137 90.7072C150.137 68.1487 118.422 49.8613 79.3003 49.8613C40.1785 49.8613 8.46399 68.1487 8.46399 90.7072C8.46399 113.266 40.1785 131.553 79.3003 131.553Z" fill="#BCBEFF"/>
<path d="M79.3003 131.553C118.422 131.553 150.137 113.266 150.137 90.7072C150.137 68.1487 118.422 49.8613 79.3003 49.8613C40.1785 49.8613 8.46399 68.1487 8.46399 90.7072C8.46399 113.266 40.1785 131.553 79.3003 131.553Z" fill="#FF6B00"/>
<path d="M129.897 118.306C102.299 134.313 57.405 134.313 29.6225 118.306C12.6953 108.554 6.07167 95.123 9.93547 82.4276C5.33571 95.4909 11.7754 109.474 29.2545 119.594C56.853 135.601 101.747 135.601 129.529 119.594C140.201 113.338 146.824 105.794 149.216 97.6988C146.456 105.242 140.017 112.418 129.897 118.306Z" fill="white"/>
<path d="M129.897 157.312C102.299 173.319 57.405 173.319 29.6225 157.312C12.6953 147.561 6.07167 133.945 9.93547 121.25C5.33571 134.313 11.7754 148.296 29.2545 158.416C56.853 174.423 101.747 174.423 129.529 158.416C140.201 152.16 146.824 144.617 149.216 136.521C146.456 144.249 140.017 151.424 129.897 157.312Z" fill="white"/>
<path d="M129.897 196.134C102.299 212.141 57.405 212.141 29.6225 196.134C12.6953 186.382 6.07167 172.951 9.93547 160.256C5.33571 173.319 11.7754 187.302 29.2545 197.422C56.853 213.429 101.747 213.429 129.529 197.422C140.201 191.166 146.824 183.623 149.216 175.527C146.456 183.071 140.017 190.43 129.897 196.134Z" fill="white"/>
<path d="M129.897 235.14C102.299 251.147 57.405 251.147 29.6225 235.14C12.6953 225.388 6.07167 211.773 9.93547 199.262C5.33571 212.325 11.7754 226.308 29.2545 236.428C56.853 252.435 101.747 252.435 129.529 236.428C140.201 230.172 146.824 222.628 149.216 214.533C146.456 222.076 140.017 229.252 129.897 235.14Z" fill="white"/>
<path d="M55.9336 350.87C55.5656 350.87 55.0136 350.686 54.8296 350.318C54.4616 349.766 54.6456 349.03 55.1976 348.662L101.011 321.063C101.563 320.695 102.299 320.879 102.667 321.431C103.035 321.983 102.851 322.719 102.299 323.087L56.4855 350.686C56.3016 350.87 56.1176 350.87 55.9336 350.87Z" fill="url(#paint13_linear)"/>
<path d="M122.354 332.839C120.882 332.839 119.226 332.471 117.938 331.735L85.74 313.152C84.2681 312.232 83.5321 311.128 83.5321 309.84C83.5321 308.736 84.2681 307.816 85.372 307.08L240.476 217.477C242.5 216.189 245.996 216.373 248.388 217.845L280.586 236.428C282.058 237.348 282.794 238.452 282.794 239.739C282.794 240.843 282.058 241.763 280.954 242.499L125.85 332.103C124.93 332.471 123.642 332.839 122.354 332.839ZM243.788 219.133C242.868 219.133 242.132 219.317 241.58 219.685L86.4759 309.104C86.108 309.288 85.924 309.472 85.924 309.656C85.924 309.84 86.292 310.392 87.0279 310.76L119.226 329.343C120.882 330.263 123.458 330.447 124.746 329.711L279.85 240.107C280.218 239.923 280.402 239.739 280.402 239.555C280.402 239.372 280.034 238.82 279.298 238.452L247.1 219.869C246.18 219.501 244.892 219.133 243.788 219.133Z" fill="url(#paint14_linear)"/>
<path d="M218.029 165.776C213.982 168.167 210.118 171.479 206.622 175.343C201.838 160.072 187.303 155.288 170.192 165.224C156.025 173.503 143.513 189.51 137.074 206.621C134.866 206.621 132.474 207.357 129.898 208.829C120.698 214.165 113.155 227.228 113.155 237.9C113.155 238.084 113.155 238.268 113.155 238.636C110.579 238.82 107.635 239.74 104.507 241.58C92.5479 248.387 82.9803 265.13 82.9803 278.746C82.9803 292.361 92.5479 298.065 104.507 291.073L218.029 225.572C232.381 217.293 243.972 197.238 243.972 180.679C243.972 164.12 232.381 157.496 218.029 165.776Z" fill="url(#paint15_linear)"/>
<path d="M218.029 165.775C215.637 167.063 213.43 168.903 211.222 170.743L198.526 163.383C191.535 158.416 181.415 158.784 170.192 165.223C156.025 173.503 143.513 189.51 137.074 206.621C134.866 206.621 132.474 207.357 129.898 208.829C120.698 214.165 113.155 227.228 113.155 237.9C113.155 238.084 113.155 238.268 113.155 238.636C110.579 238.82 107.635 239.739 104.507 241.579C92.5479 248.387 82.9803 265.13 82.9803 278.745C82.9803 285.553 85.3722 290.337 89.236 292.545H89.42L120.514 310.576L127.322 277.826L218.213 225.388C232.565 217.109 244.156 197.054 244.156 180.495C244.156 163.935 232.381 157.496 218.029 165.775Z" fill="url(#paint16_radial)"/>
<path d="M268.075 182.335L236.613 163.936C231.829 161.176 225.389 161.544 218.214 165.591C215.822 166.879 213.614 168.719 211.406 170.559L198.711 163.2C191.719 158.232 181.599 158.6 170.376 165.04C156.209 173.319 143.697 189.326 137.258 206.437C135.05 206.437 132.658 207.173 130.082 208.645C120.883 213.981 113.339 227.044 113.339 237.716C113.339 237.9 113.339 238.084 113.339 238.452C110.763 238.636 107.819 239.556 104.691 241.396C92.7321 248.203 83.1646 264.946 83.1646 278.562C83.1646 285.369 85.5564 290.153 89.4202 292.361H89.6042L120.699 310.392L127.506 277.642L218.398 225.204C229.989 218.581 239.924 204.045 243.052 189.878L268.075 182.335Z" fill="url(#paint17_linear)"/>
<path d="M249.308 183.806C245.26 186.198 241.396 189.51 237.9 193.374C233.117 178.103 218.581 173.319 201.47 183.254C187.303 191.534 174.792 207.541 168.352 224.652C166.144 224.652 163.752 225.388 161.176 226.86C151.977 232.196 144.433 245.259 144.433 255.931C144.433 256.115 144.433 256.299 144.433 256.667C141.857 256.851 138.913 257.771 135.786 259.611C123.826 266.418 114.259 283.161 114.259 296.777C114.259 310.392 123.826 316.096 135.786 309.104L249.308 243.603C263.659 235.324 275.25 215.269 275.25 198.71C275.25 182.335 263.659 175.527 249.308 183.806Z" fill="url(#paint18_linear)"/>
<path d="M237.9 193.374C241.396 189.51 245.26 186.198 249.308 183.807C258.139 178.655 265.867 179.391 270.467 184.359C265.867 178.655 257.771 177.735 248.572 183.071C244.708 185.278 240.844 188.59 237.532 192.27C237.716 192.638 237.9 193.006 237.9 193.374Z" fill="white"/>
<path d="M114.259 296.961C114.259 283.345 123.826 266.602 135.786 259.795C138.914 257.955 141.857 257.035 144.433 256.851C144.433 256.667 144.433 256.483 144.433 256.115C144.433 245.443 151.977 232.38 161.176 227.044C163.752 225.572 166.144 224.836 168.352 224.836C174.976 207.725 187.303 191.534 201.47 183.439C214.534 175.895 225.941 176.815 232.933 184.358C226.125 176.079 214.35 174.791 200.734 182.519C186.567 190.798 174.056 206.805 167.616 223.916C165.408 223.916 163.016 224.652 160.44 226.124C151.241 231.46 143.697 244.523 143.697 255.195C143.697 255.379 143.697 255.563 143.697 255.931C141.121 256.115 138.178 257.035 135.05 258.875C123.09 265.682 113.523 282.425 113.523 296.041C113.523 301.376 114.995 305.608 117.571 308.184C115.363 305.608 114.259 301.744 114.259 296.961Z" fill="white"/>
<mask id="mask0" mask-type="alpha" maskUnits="userSpaceOnUse" x="8" y="54" width="110" height="57">
<path d="M18.3961 108.002L117.754 110.394L116.834 58.877L73.5963 54.2772L23.5059 66.2366C5.33763 79.0096 3.63435 94.8238 18.3961 108.002Z" fill="url(#paint19_linear)"/>
</mask>
<g mask="url(#mask0)">
<path opacity="0.78" d="M14.9034 108.002H79.3001V70.1003H18.2152C6.43985 81.6917 5.33591 96.043 14.9034 108.002Z" fill="url(#paint20_linear)"/>
<path d="M115.73 87.0273V78.9318H112.97C111.13 76.5399 108.554 74.148 105.059 72.1241C90.8914 63.8445 67.8926 63.8445 53.5413 72.1241C50.0455 74.148 47.4696 76.3559 45.6297 78.9318H42.8699V87.0273C42.8699 92.3631 46.3657 97.6988 53.5413 101.931C67.7086 110.21 90.7074 110.21 105.059 101.931C112.234 97.8828 115.73 92.3631 115.73 87.0273Z" fill="url(#paint21_linear)"/>
<path d="M79.3 99.9069C99.4198 99.9069 115.73 90.5161 115.73 78.9319C115.73 67.3478 99.4198 57.957 79.3 57.957C59.1802 57.957 42.8699 67.3478 42.8699 78.9319C42.8699 90.5161 59.1802 99.9069 79.3 99.9069Z" fill="#BCBEFF"/>
<path d="M79.3 99.9069C99.4198 99.9069 115.73 90.5161 115.73 78.9319C115.73 67.3478 99.4198 57.957 79.3 57.957C59.1802 57.957 42.8699 67.3478 42.8699 78.9319C42.8699 90.5161 59.1802 99.9069 79.3 99.9069Z" fill="url(#paint22_linear)"/>
<path d="M96.595 89.0513C87.0275 94.571 71.5723 94.571 62.0048 89.0513C59.061 87.3954 57.0371 85.1875 55.7491 83.1636C53.3573 78.3799 59.429 74.8841 66.0526 71.0203C75.6201 65.5005 82.4278 64.2126 91.9953 69.7323C98.6189 73.5961 105.243 78.3799 102.851 83.1636C101.747 85.1875 99.7229 87.2114 96.595 89.0513Z" fill="#282828"/>
<path d="M62.0047 77.0921C71.5723 71.5723 87.0275 71.5723 96.595 77.0921C99.5388 78.748 101.563 80.9559 102.667 82.9797C105.059 78.196 103.035 72.6763 96.595 68.9965C87.0275 63.4768 71.5723 63.4768 62.0047 68.9965C55.3811 72.8603 53.3572 78.196 55.9331 82.9797C57.037 80.7719 59.0609 78.748 62.0047 77.0921Z" fill="url(#paint23_linear)"/>
</g>
<defs>
<linearGradient id="paint0_linear" x1="0" y1="247.813" x2="158.681" y2="247.813" gradientUnits="userSpaceOnUse">
<stop stop-color="#B5B5B5"/>
<stop offset="0.212" stop-color="#B0B0B0"/>
<stop offset="0.4618" stop-color="#A2A2A2"/>
<stop offset="0.7308" stop-color="#8A8A8A"/>
<stop offset="1" stop-color="#6B6B6B"/>
</linearGradient>
<linearGradient id="paint1_linear" x1="21.4654" y1="247.802" x2="137.214" y2="247.802" gradientUnits="userSpaceOnUse">
<stop stop-color="#E9E9FD"/>
<stop offset="0.017402" stop-color="#DEDEF0"/>
<stop offset="0.0774946" stop-color="#BCBCCA"/>
<stop offset="0.1442" stop-color="#9E9EA8"/>
<stop offset="0.217" stop-color="#85858C"/>
<stop offset="0.298" stop-color="#707075"/>
<stop offset="0.3908" stop-color="#606063"/>
<stop offset="0.5024" stop-color="#555556"/>
<stop offset="0.6521" stop-color="#4F4F4F"/>
<stop offset="1" stop-color="#4D4D4D"/>
</linearGradient>
<linearGradient id="paint2_linear" x1="8.46243" y1="222.606" x2="150.218" y2="222.606" gradientUnits="userSpaceOnUse">
<stop stop-color="#6B6B6B"/>
<stop offset="0.1905" stop-color="#707070"/>
<stop offset="0.4152" stop-color="#7E7E7E"/>
<stop offset="0.657" stop-color="#969696"/>
<stop offset="0.9093" stop-color="#B7B7B7"/>
<stop offset="1" stop-color="#C5C5C5"/>
</linearGradient>
<linearGradient id="paint3_linear" x1="8.46264" y1="206.88" x2="150.218" y2="206.88" gradientUnits="userSpaceOnUse">
<stop stop-color="#C5C5C5"/>
<stop offset="0.3103" stop-color="#CBCBCB"/>
<stop offset="0.6946" stop-color="#DADADA"/>
<stop offset="1" stop-color="#EBEBEB"/>
</linearGradient>
<linearGradient id="paint4_linear" x1="13.8825" y1="202.808" x2="144.797" y2="202.808" gradientUnits="userSpaceOnUse">
<stop stop-color="#C5C5C5"/>
<stop offset="0.3103" stop-color="#CBCBCB"/>
<stop offset="0.6946" stop-color="#DADADA"/>
<stop offset="1" stop-color="#EBEBEB"/>
</linearGradient>
<linearGradient id="paint5_linear" x1="8.46243" y1="184.472" x2="150.218" y2="184.472" gradientUnits="userSpaceOnUse">
<stop stop-color="#6B6B6B"/>
<stop offset="0.1905" stop-color="#707070"/>
<stop offset="0.4152" stop-color="#7E7E7E"/>
<stop offset="0.657" stop-color="#969696"/>
<stop offset="0.9093" stop-color="#B7B7B7"/>
<stop offset="1" stop-color="#C5C5C5"/>
</linearGradient>
<linearGradient id="paint6_linear" x1="8.46264" y1="168.747" x2="150.218" y2="168.747" gradientUnits="userSpaceOnUse">
<stop stop-color="#C5C5C5"/>
<stop offset="0.3103" stop-color="#CBCBCB"/>
<stop offset="0.6946" stop-color="#DADADA"/>
<stop offset="1" stop-color="#EBEBEB"/>
</linearGradient>
<linearGradient id="paint7_linear" x1="8.46243" y1="145.546" x2="150.218" y2="145.546" gradientUnits="userSpaceOnUse">
<stop stop-color="#6B6B6B"/>
<stop offset="0.1858" stop-color="#707070"/>
<stop offset="0.4164" stop-color="#808080"/>
<stop offset="0.6706" stop-color="#999999"/>
<stop offset="0.9402" stop-color="#BCBCBC"/>
<stop offset="1" stop-color="#C5C5C5"/>
</linearGradient>
<linearGradient id="paint8_linear" x1="8.46264" y1="129.821" x2="150.218" y2="129.821" gradientUnits="userSpaceOnUse">
<stop stop-color="#C5C5C5"/>
<stop offset="0.3103" stop-color="#CBCBCB"/>
<stop offset="0.6946" stop-color="#DADADA"/>
<stop offset="1" stop-color="#EBEBEB"/>
</linearGradient>
<linearGradient id="paint9_linear" x1="8.46243" y1="106.62" x2="150.218" y2="106.62" gradientUnits="userSpaceOnUse">
<stop stop-color="#6B6B6B"/>
<stop offset="0.1905" stop-color="#707070"/>
<stop offset="0.4152" stop-color="#7E7E7E"/>
<stop offset="0.657" stop-color="#969696"/>
<stop offset="0.9093" stop-color="#B7B7B7"/>
<stop offset="1" stop-color="#C5C5C5"/>
</linearGradient>
<linearGradient id="paint10_linear" x1="8.46264" y1="90.8949" x2="150.218" y2="90.8949" gradientUnits="userSpaceOnUse">
<stop stop-color="#6B6B6B"/>
<stop offset="0.1905" stop-color="#707070"/>
<stop offset="0.4152" stop-color="#7E7E7E"/>
<stop offset="0.657" stop-color="#969696"/>
<stop offset="0.9093" stop-color="#B7B7B7"/>
<stop offset="1" stop-color="#C5C5C5"/>
</linearGradient>
<linearGradient id="paint11_linear" x1="8.46264" y1="90.8949" x2="150.218" y2="90.8949" gradientUnits="userSpaceOnUse">
<stop stop-color="#6B6B6B"/>
<stop offset="0.1905" stop-color="#707070"/>
<stop offset="0.4152" stop-color="#7E7E7E"/>
<stop offset="0.657" stop-color="#969696"/>
<stop offset="0.9093" stop-color="#B7B7B7"/>
<stop offset="1" stop-color="#C5C5C5"/>
</linearGradient>
<linearGradient id="paint12_linear" x1="8.46304" y1="106.401" x2="150.218" y2="106.401" gradientUnits="userSpaceOnUse">
<stop stop-color="#6B6B6B"/>
<stop offset="0.1905" stop-color="#707070"/>
<stop offset="0.4152" stop-color="#7E7E7E"/>
<stop offset="0.657" stop-color="#969696"/>
<stop offset="0.9093" stop-color="#B7B7B7"/>
<stop offset="1" stop-color="#C5C5C5"/>
</linearGradient>
<linearGradient id="paint13_linear" x1="54.6072" y1="335.9" x2="102.962" y2="335.9" gradientUnits="userSpaceOnUse">
<stop stop-color="white"/>
<stop offset="0.2692" stop-color="white"/>
<stop offset="0.5382" stop-color="#ECECEC"/>
<stop offset="0.788" stop-color="#B0B0B0"/>
<stop offset="1" stop-color="#B5B5B5"/>
</linearGradient>
<linearGradient id="paint14_linear" x1="83.4914" y1="274.716" x2="282.773" y2="274.716" gradientUnits="userSpaceOnUse">
<stop stop-color="#B5B5B5"/>
<stop offset="0.212" stop-color="#B0B0B0"/>
<stop offset="0.4618" stop-color="#A2A2A2"/>
<stop offset="0.7308" stop-color="#8A8A8A"/>
<stop offset="1" stop-color="#6B6B6B"/>
</linearGradient>
<linearGradient id="paint15_linear" x1="83.0255" y1="259.606" x2="244.039" y2="259.606" gradientUnits="userSpaceOnUse">
<stop stop-color="#5761D7"/>
<stop offset="0.1779" stop-color="#5C66D9"/>
<stop offset="0.3876" stop-color="#6A73DF"/>
<stop offset="0.6134" stop-color="#8289E8"/>
<stop offset="0.849" stop-color="#A3A7F5"/>
<stop offset="1" stop-color="#BCBEFF"/>
</linearGradient>
<radialGradient id="paint16_radial" cx="0" cy="0" r="1" gradientUnits="userSpaceOnUse" gradientTransform="translate(120.866 211.275) scale(76.8061)">
<stop stop-color="#2B237C"/>
<stop offset="1" stop-color="#180D5B"/>
</radialGradient>
<linearGradient id="paint17_linear" x1="83.0258" y1="235.4" x2="268.102" y2="235.4" gradientUnits="userSpaceOnUse">
<stop stop-color="#6B6B6B"/>
<stop offset="0.1905" stop-color="#707070"/>
<stop offset="0.4152" stop-color="#7E7E7E"/>
<stop offset="0.657" stop-color="#969696"/>
<stop offset="0.9093" stop-color="#B7B7B7"/>
<stop offset="1" stop-color="#C5C5C5"/>
</linearGradient>
<linearGradient id="paint18_linear" x1="114.237" y1="245.199" x2="275.25" y2="245.199" gradientUnits="userSpaceOnUse">
<stop stop-color="#C5C5C5"/>
<stop offset="0.3103" stop-color="#CBCBCB"/>
<stop offset="0.6946" stop-color="#DADADA"/>
<stop offset="1" stop-color="#EBEBEB"/>
</linearGradient>
<linearGradient id="paint19_linear" x1="8.46059" y1="87.1758" x2="117.815" y2="87.1758" gradientUnits="userSpaceOnUse">
<stop/>
<stop offset="0.0469354" stop-color="#2F2F2F"/>
<stop offset="0.0981487" stop-color="#5A5A5A"/>
<stop offset="0.155" stop-color="#828282"/>
<stop offset="0.2161" stop-color="#A4A4A4"/>
<stop offset="0.2828" stop-color="#C0C0C0"/>
<stop offset="0.3571" stop-color="#D7D7D7"/>
<stop offset="0.442" stop-color="#E9E9E9"/>
<stop offset="0.5443" stop-color="#F6F6F6"/>
<stop offset="0.6813" stop-color="#FDFDFD"/>
<stop offset="1" stop-color="white"/>
</linearGradient>
<linearGradient id="paint20_linear" x1="8.46393" y1="89.1027" x2="79.3398" y2="89.1027" gradientUnits="userSpaceOnUse">
<stop stop-color="#FF6B00"/>
<stop offset="0.00640369" stop-color="#FE6B00"/>
<stop offset="0.1419" stop-color="#EC6302"/>
<stop offset="0.3041" stop-color="#DF5E04"/>
<stop offset="0.5198" stop-color="#D85B05"/>
<stop offset="1" stop-color="#D65A05"/>
</linearGradient>
<linearGradient id="paint21_linear" x1="42.9494" y1="87.0691" x2="115.73" y2="87.0691" gradientUnits="userSpaceOnUse">
<stop stop-color="#6B6B6B"/>
<stop offset="0.1905" stop-color="#707070"/>
<stop offset="0.4152" stop-color="#7E7E7E"/>
<stop offset="0.657" stop-color="#969696"/>
<stop offset="0.9093" stop-color="#B7B7B7"/>
<stop offset="1" stop-color="#C5C5C5"/>
</linearGradient>
<linearGradient id="paint22_linear" x1="42.9494" y1="78.9954" x2="115.73" y2="78.9954" gradientUnits="userSpaceOnUse">
<stop stop-color="#C5C5C5"/>
<stop offset="0.3117" stop-color="#CACACA"/>
<stop offset="0.6785" stop-color="#D9D9D9"/>
<stop offset="1" stop-color="#EBEBEB"/>
</linearGradient>
<linearGradient id="paint23_linear" x1="54.8381" y1="73.9409" x2="103.841" y2="73.9409" gradientUnits="userSpaceOnUse">
<stop stop-color="#C5C5C5"/>
<stop offset="0.0906705" stop-color="#B7B7B7"/>
<stop offset="0.343" stop-color="#969696"/>
<stop offset="0.5848" stop-color="#7E7E7E"/>
<stop offset="0.8095" stop-color="#707070"/>
<stop offset="1" stop-color="#6B6B6B"/>
</linearGradient>
</defs>
</svg>
