<svg width="453" height="360" viewBox="0 0 453 360" fill="none" xmlns="http://www.w3.org/2000/svg">
<g clip-path="url(#clip0)">
<path opacity="0.3" d="M97.824 277.73C174.659 323.082 299.282 323.082 376.117 277.73C452.952 232.379 452.952 158.824 376.117 113.379C299.282 68.0271 174.659 68.0271 97.824 113.379C20.8953 158.824 20.8953 232.379 97.824 277.73Z" fill="#D7D7D7"/>
<path d="M54.253 192.181C53.0349 191.525 52.0979 189.839 52.0979 188.433V53.2223C52.0979 51.8168 53.0349 50.1302 54.253 49.4743L102.603 21.5513C103.821 20.8954 105.695 20.8017 106.819 21.4576C107.944 22.1136 108.881 23.7065 108.881 25.112V34.1073C108.881 35.5128 109.818 36.075 111.036 35.3254L171.473 0.562279C172.691 -0.093629 174.565 -0.18733 175.69 0.468578C176.814 1.12449 177.751 2.71741 177.751 4.12292V212.046L133.056 237.72L54.253 192.181Z" fill="#174972"/>
<path d="M175.596 0.468598C174.472 -0.187311 172.598 -0.187311 171.38 0.562299L110.942 35.5128C109.724 36.1688 108.787 35.6065 108.787 34.2947V25.2994C108.787 23.8939 107.85 22.301 106.726 21.6451C105.601 20.9892 103.727 20.9892 102.509 21.7388L54.2531 49.4743C53.6909 49.8491 53.1287 50.4113 52.7539 51.0672L80.4895 67.0901L177.658 10.9631V4.12294C177.658 2.71743 176.721 1.12451 175.596 0.468598Z" fill="#2982CC"/>
<path d="M175.502 2.9049L110.942 40.198C109.724 40.8539 108.787 40.2917 108.787 38.9799V25.2995C108.787 23.894 107.85 23.3318 106.632 24.0814L58.3758 51.8169C57.1577 52.4728 56.2207 54.1595 56.2207 55.565V186.184C56.2207 187.59 57.1577 189.277 58.3758 189.932L137.179 235.471L177.657 212.14V4.12301C177.657 2.7175 176.627 2.15529 175.502 2.9049Z" fill="#1B5889"/>
<path d="M56.783 188.246C57.1578 188.902 57.72 189.558 58.2822 189.839L137.085 235.378L177.564 212.046V118.532L56.783 188.246Z" fill="#0D3D5E"/>
<path d="M66.6216 218.043L66.0594 217.668C65.1224 217.106 64.3728 215.794 64.3728 214.669V87.7979C64.3728 86.6735 65.1224 85.3617 66.0594 84.7995L196.21 9.65115C197.147 9.08894 198.74 9.08894 199.677 9.65115L200.24 10.026C201.177 10.5882 201.926 11.9 201.926 13.0244V139.896C201.926 141.02 201.177 142.332 200.24 142.894L70.0886 218.043C69.0579 218.605 67.5586 218.605 66.6216 218.043Z" fill="#F5F5F5"/>
<path d="M72.3373 90.4215L64.7476 86.0176C64.4665 86.5798 64.2791 87.142 64.2791 87.7042V214.576C64.2791 215.7 65.0287 217.012 65.9657 217.574L66.5279 217.949C67.4649 218.511 69.0578 218.511 69.9948 217.949L72.3373 216.637V90.4215Z" fill="#E1E1E1"/>
<path d="M68.3081 217.012V90.1404C68.3081 89.016 69.0577 87.7042 69.9947 87.142L200.146 11.9936C201.083 11.4314 201.832 11.8999 201.832 13.0243V139.896C201.832 141.02 201.083 142.332 200.146 142.894L70.0884 218.043C69.0577 218.605 68.3081 218.136 68.3081 217.012Z" fill="#ECECEC"/>
<path d="M78.6153 91.546L191.713 26.2362C192.931 25.5803 193.868 26.1425 193.868 27.4544V125.278C193.868 126.684 192.931 128.371 191.713 129.026L78.6153 194.43C77.3972 195.086 76.4602 194.524 76.4602 193.212V95.3877C76.4602 93.8885 77.3972 92.2019 78.6153 91.546Z" fill="white"/>
<path d="M90.8902 232.098L90.328 231.723C89.391 231.161 88.6414 229.849 88.6414 228.725V101.853C88.6414 100.729 89.391 99.4169 90.328 98.8547L220.479 23.7063C221.416 23.1441 223.009 23.1441 223.946 23.7063L224.508 24.0811C225.445 24.6433 226.195 25.9552 226.195 27.0796V153.951C226.195 155.075 225.445 156.387 224.508 156.949L94.3571 232.098C93.4201 232.566 91.8272 232.566 90.8902 232.098Z" fill="#F9CE64"/>
<path d="M96.6997 104.477L89.1099 100.073C88.8288 100.635 88.6414 101.197 88.6414 101.759V228.631C88.6414 229.755 89.391 231.067 90.328 231.629L90.8902 232.004C91.8272 232.566 93.4201 232.566 94.3571 232.004L96.6997 230.692V104.477Z" fill="#C9971C"/>
<path d="M92.5769 231.067V104.196C92.5769 103.071 93.3265 101.759 94.2635 101.197L224.414 26.0488C225.352 25.4866 226.101 25.9551 226.101 27.0795V153.951C226.101 155.075 225.352 156.387 224.414 156.949L94.2635 232.098C93.4202 232.566 92.5769 232.191 92.5769 231.067Z" fill="#EEBD31"/>
<path d="M102.884 105.601L215.981 40.2914C217.199 39.6355 218.136 40.1977 218.136 41.5095V139.334C218.136 140.739 217.199 142.426 215.981 143.082L102.884 208.391C101.666 209.047 100.729 208.485 100.729 207.173V109.349C100.729 107.944 101.666 106.257 102.884 105.601Z" fill="#C9D3EB"/>
<path d="M115.159 246.059L114.597 245.685C113.66 245.122 112.91 243.811 112.91 242.686V115.815C112.91 114.69 113.66 113.379 114.597 112.816L244.748 37.668C245.685 37.1058 247.277 37.1058 248.214 37.668L248.777 38.0428C249.714 38.605 250.463 39.9168 250.463 41.0412V167.913C250.463 169.037 249.714 170.349 248.777 170.911L118.626 246.059C117.689 246.622 116.096 246.622 115.159 246.059Z" fill="#F5F5F5"/>
<path d="M120.968 118.532L113.378 114.128C113.097 114.69 112.91 115.253 112.91 115.815V242.686C112.91 243.811 113.66 245.122 114.597 245.685L115.159 246.059C116.096 246.622 117.689 246.622 118.626 246.059L120.968 244.748V118.532Z" fill="#E1E1E1"/>
<path d="M116.939 245.122V118.251C116.939 117.127 117.689 115.815 118.626 115.253L248.777 40.1042C249.714 39.542 250.463 40.0105 250.463 41.1349V168.006C250.463 169.131 249.714 170.443 248.777 171.005L118.626 246.153C117.689 246.622 116.939 246.153 116.939 245.122Z" fill="#ECECEC"/>
<path d="M127.152 119.563L240.25 54.3468C241.468 53.6909 242.405 54.2531 242.405 55.565V153.389C242.405 154.795 241.468 156.481 240.25 157.137L127.152 222.447C125.934 223.103 124.997 222.54 124.997 221.229V123.405C124.997 121.999 125.934 120.312 127.152 119.563Z" fill="white"/>
<path d="M137.178 235.377L149.266 228.35V242.405L137.178 235.377Z" fill="#0D3D5E"/>
<path d="M149.266 137.366V239.875C149.266 241.281 148.329 241.843 147.111 241.093L137.085 235.284L133.056 237.626L151.14 248.027C152.358 248.683 154.232 248.683 155.45 248.027L280.729 175.69C281.947 175.034 282.884 173.347 282.884 171.942V64.935C282.884 63.5294 281.947 61.9365 280.822 61.2806C279.698 60.6247 277.824 60.6247 276.606 61.3743L151.327 133.712C150.297 134.274 149.266 135.96 149.266 137.366Z" fill="#174972"/>
<path d="M157.418 139.521L282.978 67.0901V64.935C282.978 63.5294 282.041 61.9365 280.916 61.2806C279.792 60.6247 277.918 60.6247 276.7 61.3743L151.421 133.712C150.859 134.086 150.297 134.649 149.922 135.305L157.418 139.521Z" fill="#2982CC"/>
<path d="M280.729 63.623L155.544 135.96C154.326 136.616 153.389 138.303 153.389 139.708V246.903C153.389 248.308 154.326 248.87 155.544 248.121L280.823 175.783C282.041 175.127 282.978 173.441 282.978 172.035V64.9349C282.884 63.5293 281.947 62.9671 280.729 63.623Z" fill="#236BB3"/>
<path d="M325.986 158.261L255.148 199.209C254.492 199.584 253.93 200.614 253.93 201.364V201.832C253.93 202.676 254.492 203.613 255.148 203.988L314.274 238.095C314.93 238.47 316.054 238.47 316.804 238.095L387.642 197.147C388.298 196.773 388.86 195.742 388.86 194.992V194.524C388.86 193.68 388.298 192.743 387.642 192.369L328.516 158.261C327.767 157.887 326.642 157.887 325.986 158.261Z" fill="#375A64"/>
<path d="M253.93 201.27V201.739C253.93 202.582 254.492 203.519 255.148 203.894L314.274 238.001C314.649 238.188 315.117 238.282 315.492 238.282V231.91L256.835 197.99L255.148 198.927C254.399 199.583 253.93 200.52 253.93 201.27Z" fill="#1A2E35"/>
<path d="M255.148 199.115L325.986 158.168C326.642 157.793 327.767 157.793 328.516 158.168L387.642 192.275C388.298 192.65 388.298 193.306 387.642 193.68L316.71 234.721C316.054 235.096 314.93 235.096 314.18 234.721L255.055 200.614C254.399 200.146 254.399 199.583 255.148 199.115Z" fill="#2B454E"/>
<path d="M263.956 200.614L309.87 227.132C310.526 227.507 311.65 227.507 312.4 227.132L374.43 191.338C375.086 190.963 375.086 190.307 374.43 189.932L328.516 163.415C327.86 163.04 326.736 163.04 325.986 163.415L263.956 199.209C263.207 199.584 263.207 200.146 263.956 200.614Z" fill="white"/>
<path d="M351.754 162.946V125.56L400.291 97.4492V134.836L351.754 162.946Z" fill="#ECECEC"/>
<path d="M351.754 125.56L291.036 90.4216V127.902L351.754 162.946V125.56Z" fill="#E7E7E7"/>
<path d="M351.754 125.559L401.791 96.6058L339.573 60.7183L289.537 89.5782L351.754 125.559Z" fill="#F0F0F0"/>
<path d="M351.754 125.559V134.836L401.791 105.976V96.6057L351.754 125.559Z" fill="#ECECEC"/>
<path d="M351.754 134.836L400.291 106.819V108.881L351.754 136.897V134.836Z" fill="#E7E7E7"/>
<path d="M289.537 89.5781L351.754 125.559V134.836L289.537 98.9482V89.5781Z" fill="#ECECEC"/>
<path opacity="0.5" d="M351.754 134.836L291.036 99.7917V101.853L351.754 136.897V134.836Z" fill="#E1E1E1"/>
<path d="M367.683 131.182L384.269 121.624C385.018 121.249 385.58 121.53 385.58 122.374V132.212C385.58 133.056 385.018 134.086 384.269 134.461L367.683 144.019C366.934 144.393 366.372 144.112 366.372 143.269V133.43C366.465 132.587 367.027 131.65 367.683 131.182Z" fill="#E1E1E1"/>
<path d="M368.808 132.306L383.238 123.967C383.706 123.685 384.081 123.873 384.081 124.435V131.837C384.081 132.4 383.706 133.056 383.238 133.337L368.808 141.676C368.339 141.957 367.965 141.77 367.965 141.208V133.805C367.965 133.243 368.339 132.587 368.808 132.306Z" fill="white"/>
<path d="M351.754 120.781V83.3941L400.291 55.3774V92.7642L351.754 120.781Z" fill="#ECECEC"/>
<path d="M351.754 83.3941L291.036 48.3499V85.7366L351.754 120.781V83.3941Z" fill="#E7E7E7"/>
<path d="M351.754 83.394L401.791 54.534L339.573 18.6465L289.537 47.5065L351.754 83.394Z" fill="#F5F5F5"/>
<path d="M351.754 83.3939V92.764L401.791 63.9041V54.5339L351.754 83.3939Z" fill="#ECECEC"/>
<path d="M351.754 92.7642L400.291 64.7476V66.809L351.754 94.8256V92.7642Z" fill="#E7E7E7"/>
<path d="M289.537 47.5063L351.754 83.3939V92.764L289.537 56.8765V47.5063Z" fill="#ECECEC"/>
<path opacity="0.5" d="M351.754 92.7642L291.036 57.72V59.7814L351.754 94.8256V92.7642Z" fill="#E1E1E1"/>
<path d="M367.683 89.1098L384.269 79.5523C385.018 79.1775 385.58 79.4586 385.58 80.3019V90.1405C385.58 90.9838 385.018 92.0145 384.269 92.3894L367.683 101.947C366.934 102.322 366.372 102.041 366.372 101.197V91.3586C366.465 90.5153 367.027 89.4846 367.683 89.1098Z" fill="#E1E1E1"/>
<path d="M368.808 90.2342L383.238 81.8948C383.706 81.6137 384.081 81.8011 384.081 82.3633V89.7657C384.081 90.3279 383.706 90.9838 383.238 91.2649L368.808 99.6043C368.339 99.8854 367.965 99.698 367.965 99.1358V91.7334C367.965 91.1712 368.339 90.5153 368.808 90.2342Z" fill="white"/>
<path d="M397.668 94.2634L351.754 120.781L293.659 87.2358L292.16 88.0792L351.754 122.374L399.167 95.1067L397.668 94.2634Z" fill="#E1E1E1"/>
<path fill-rule="evenodd" clip-rule="evenodd" d="M188.527 212.702L59.4066 158.636C56.8767 158.074 55.19 159.292 54.253 162.29L46.4758 192.087L46.6632 211.858C52.4727 213.732 54.9089 198.646 59.3129 200.052L96.8871 214.95C100.729 216.356 99.3233 227.975 103.165 229.662L123.498 239.313C125.934 240.437 131.182 225.632 132.025 230.036L155.263 360L192.369 220.385C193.118 216.918 192.181 214.013 189.37 213.076L188.527 212.702Z" fill="#EEBD31"/>
<path fill-rule="evenodd" clip-rule="evenodd" d="M131.838 228.912L155.357 360L31.9521 289.256L0.187384 176.252C-0.655926 173.066 2.15511 171.005 4.77874 171.848L56.127 195.835C61.9365 197.709 59.875 185.622 64.279 186.934L102.041 200.708C105.882 202.113 102.79 213.17 106.632 214.95L124.154 222.821C124.154 222.728 130.994 224.414 131.838 228.912Z" fill="#236BB3"/>
<path fill-rule="evenodd" clip-rule="evenodd" d="M242.78 303.123L175.784 277.824L155.263 360L247.371 307.34C250.182 305.747 245.966 304.435 242.78 303.123Z" fill="#C9D3EB"/>
<path fill-rule="evenodd" clip-rule="evenodd" d="M223.946 265.549H198.272V312.962H205.206V291.317H223.946V285.133H205.206V271.733H223.946V265.549ZM235.846 272.202C235.846 270.14 234.159 268.454 232.098 268.454C230.036 268.454 228.35 270.14 228.35 272.202C228.35 274.263 230.036 275.95 232.098 275.95C234.159 275.95 235.846 274.263 235.846 272.202ZM235.19 281.572H228.912V312.962H235.19V281.572ZM247.371 265.549H241.093V312.962H247.371V265.549ZM279.604 303.779C275.95 306.215 272.296 307.621 268.548 307.621C262.457 307.621 258.896 304.341 257.866 298.063H280.167C280.167 286.351 274.826 280.635 266.392 280.635C257.678 280.635 251.588 287.1 251.588 296.752C251.588 305.466 257.116 313.618 266.955 313.618C272.296 313.618 275.763 312.4 279.604 309.87V303.779ZM257.678 293.941C258.522 288.974 261.426 286.07 266.205 286.07C270.609 286.07 273.42 289.068 273.607 293.941H257.678ZM326.174 265.549H319.802L305.466 285.882L291.223 265.549H284.758V312.962H291.692V277.355H291.879L304.997 296.002H306.122L319.334 277.355H319.427V312.962H326.361L326.174 265.549ZM357.002 307.34C355.596 308.371 354.284 309.026 353.722 309.026C352.972 309.026 352.504 308.558 352.504 307.434V291.13C352.504 283.915 347.444 280.729 340.979 280.729C336.387 280.729 332.92 282.134 330.484 285.039V291.879C333.483 288.318 337.043 286.632 340.51 286.632C344.352 286.632 346.226 288.225 346.226 292.16V293.847L340.698 295.815C335.638 297.689 329.922 299.563 329.922 305.841C329.922 309.963 333.014 313.618 337.699 313.618C340.604 313.618 343.509 312.587 346.226 310.338C346.788 312.587 348.287 313.618 351.005 313.618C352.972 313.618 354.191 313.056 357.095 311.182L357.002 307.34ZM346.226 306.59C344.539 308.183 342.665 309.214 340.698 309.214C338.074 309.214 336.2 307.34 336.2 304.81C336.2 301.062 340.885 299.282 346.226 297.407V306.59ZM365.903 265.549H359.625V312.962H365.903V265.549ZM387.736 281.291H380.239L366.184 296.845L382.02 312.962H390.453L374.055 296.845L387.736 281.291Z" fill="#236BB3"/>
<path fill-rule="evenodd" clip-rule="evenodd" d="M415.658 303.779C412.004 306.215 408.443 307.621 404.602 307.621C398.511 307.621 394.951 304.341 393.92 298.063H416.221C416.221 286.351 410.88 280.635 402.447 280.635C393.732 280.635 387.642 287.1 387.642 296.752C387.642 305.466 393.17 313.618 403.009 313.618C408.35 313.618 411.817 312.4 415.658 309.87V303.779ZM394.107 293.941C394.951 288.974 397.855 286.07 402.634 286.07C407.038 286.07 409.849 289.068 410.036 293.941H394.107ZM419.875 281.291V312.962H426.153V296.377C426.153 290.942 429.526 286.632 433.837 286.632C435.336 286.632 437.772 287.944 439.646 289.724L442.926 284.289C440.302 281.853 437.959 280.635 435.336 280.635C432.337 280.635 429.339 282.978 426.153 288.506H426.059V281.291H419.875ZM437.21 313.712C439.833 313.712 441.895 311.65 441.895 309.026C441.895 306.403 439.833 304.341 437.21 304.341C434.586 304.341 432.525 306.403 432.525 309.026C432.525 311.65 434.586 313.712 437.21 313.712Z" fill="#236BB3"/>
</g>
<defs>
<clipPath id="clip0">
<rect width="452.764" height="360" fill="white"/>
</clipPath>
</defs>
</svg>
