<svg width="400" height="381" viewBox="0 0 400 381" fill="none" xmlns="http://www.w3.org/2000/svg">
<g clip-path="url(#clip0)">
<path opacity="0.16" d="M195.9 361.1L0 275.5L197.1 167C197.1 167 400.9 254.5 385.9 258.5C370.9 262.6 195.9 361.1 195.9 361.1Z" fill="url(#paint0_linear)"/>
<path d="M53.9 99.3953L223.7 2.09533C226.8 0.395332 230.7 -0.504668 234.1 0.295332C238.9 1.39533 243.4 2.89533 243.4 7.09533L243.7 164.895L228.8 173.695C233.7 176.095 382.7 248.595 383 248.795L383.4 254.895C383.4 257.495 382 259.895 379.7 261.295C354.3 276.095 205.7 361.995 205.7 361.995C200.8 364.795 194.8 364.795 189.9 361.995L48.6 280.295C47.1 279.395 46.2 277.895 46.2 276.195L46 112.995C46 107.395 49 102.195 53.9 99.3953Z" fill="#FF6B00"/>
<path d="M51 275.695L243.9 165.595L244.3 8.09533C244.3 3.59533 239.4 0.695331 235.4 2.99533L57.5 104.895C53.6 107.095 51.2 111.195 51.2 115.695L51 275.695Z" fill="url(#paint1_linear)"/>
<path d="M213.3 89.5953L213.5 89.6953L213.6 89.4953V95.0953L213.3 95.2953V89.5953Z" fill="#FF6B00"/>
<path d="M188.5 68.8953L188.9 68.5953V83.4953L188.7 83.6953L188.5 83.5953V68.8953Z" fill="#FF6B00"/>
<path d="M104.5 197.695V199.495L76.9 215.395V213.695L104.5 197.695Z" fill="#E4E4E4"/>
<path d="M104.5 202.895V204.595L76.9 220.595V218.795L104.5 202.895Z" fill="white"/>
<path d="M220.2 79.8953L220.4 80.0953L213.6 89.4953L213.5 89.6953L213.3 89.5953L207.8 87.4953L208.1 87.0953L213.3 89.0953L213.5 89.1953L213.6 88.9953L220.2 79.8953Z" fill="#FF6B00"/>
<path d="M213.3 76.6953L213.4 76.7953L213.6 76.5953V88.9953L213.5 89.1953L213.3 89.0953V76.6953Z" fill="#FF6B00"/>
<path d="M213.2 64.8953L213.6 64.6953V76.0953L213.4 76.2953H213.3L213.2 64.8953Z" fill="#FF6B00"/>
<path d="M223 75.9953C224.9 75.9953 225.7 78.4953 225.1 81.1953C224.5 83.8953 222.9 86.6953 221 89.0953C218.8 91.8953 216.2 94.2953 213.6 95.6953C210.2 97.6953 206.9 98.0953 204.8 96.1953C203.8 95.1953 203.1 93.4953 203.4 91.3953C203.5 90.8953 203.7 90.4953 203.8 89.9953C203.8 89.8953 203.8 89.7953 203.8 89.7953C203.9 89.5953 203.9 89.3953 204 89.1953C204.6 87.8953 205.5 86.5953 205.9 85.2953C206.7 82.6953 205.1 81.2953 203.8 80.2953C202.5 79.1953 201.5 76.8953 203 74.4953C203.9 73.0953 205.4 72.2953 206.3 70.8953C207.8 68.4953 206.8 66.1953 207 63.7953C207.3 60.2953 209.8 57.3953 212.5 55.7953C216 53.7953 219.8 53.9953 219.7 58.1953C219.7 59.1953 219.5 60.2953 219.8 60.9953C220.3 61.9953 221.5 61.7953 222.5 61.9953C224.8 62.5953 224.9 66.8953 222.9 70.2953C221.8 72.0953 220 74.3953 220.7 75.5953C221.2 76.2953 222.2 75.9953 223 75.9953ZM220.2 79.8953L213.7 88.9953V76.5953L220.4 67.1953L220.2 66.9953L213.7 76.0953V64.6953L213.4 64.8953V76.1953L208.2 74.1953L208 74.5953L213.5 76.6953V89.0953L208.3 87.0953L208.1 87.4953L213.6 89.5953V95.1953L213.9 94.9953V89.3953L220.6 79.9953L220.2 79.8953Z" fill="#B7B7B7"/>
<path d="M197.5 88.2953L197.8 88.5953L189 100.795L188.8 101.195L188.6 101.095L181.5 98.2953L181.7 97.7953L188.6 100.395L188.8 100.495L189 100.195L197.5 88.2953Z" fill="#FF6B00"/>
<path d="M201.1 83.2953C203.6 83.2953 204.6 86.3953 203.9 89.7953C203.9 89.8953 203.9 89.9953 203.9 89.9953C203.8 90.4953 203.7 90.8953 203.5 91.3953C202.5 94.4953 200.6 97.5953 198.6 100.295C195.8 103.995 192.4 106.995 189 108.895C184.6 111.495 180.3 112.095 177.6 109.595L177.5 109.495C176.4 108.395 175.7 106.495 175.7 104.395C175.7 103.195 176 101.895 176.6 100.495C177.4 98.7953 178.6 97.1953 179.1 95.3953C180.1 91.9953 178.1 90.1953 176.4 88.7953C174.7 87.3953 173.4 84.3953 175.4 81.1953C176.6 79.2953 178.5 78.3953 179.7 76.4953C180 75.9953 180.2 75.5953 180.4 75.0953C181.4 72.4953 180.4 69.8953 180.7 67.1953C181 63.7953 182.9 60.7953 185.3 58.5953C186.1 57.8953 187 57.2953 187.8 56.7953C192.3 54.1953 197.2 54.4953 197.2 59.8953C197.2 61.1953 196.9 62.6953 197.3 63.5953C197.9 64.8953 199.6 64.5953 200.8 64.9953C203.7 65.7953 204 71.3953 201.3 75.7953C199.9 78.0953 197.6 81.0953 198.4 82.5953C198.8 83.7953 200.1 83.2953 201.1 83.2953ZM197.5 88.2953L189 100.195V83.9953L197.8 71.7953L197.5 71.4953L189 83.3953V68.5953L188.6 68.8953V83.6953L181.8 81.0953L181.5 81.5953L188.6 84.3953V100.495L181.8 97.8953L181.5 98.3953L188.6 101.195V108.495L189 108.195V100.895L197.8 88.6953L197.5 88.2953Z" fill="#B7B7B7"/>
<path d="M188.6 101.095L188.8 101.195L189 100.795V108.195L188.6 108.395V101.095Z" fill="#FF6B00"/>
<path d="M188.5 84.2953L188.7 84.3953L188.9 84.0953L189 100.195L188.8 100.495L188.6 100.395L188.5 84.2953Z" fill="#FF6B00"/>
<path d="M174 97.4953L174.2 97.6953L169 104.895L168.9 104.995H168.8L164.6 103.395L164.8 103.095L168.8 104.595L168.9 104.695L169 104.495L174 97.4953Z" fill="#FF6B00"/>
<path d="M168.8 104.995H168.9L169 104.895L169.1 114.395L168.9 114.495H168.8V104.995Z" fill="#FF6B00"/>
<path d="M174.1 107.395L174.2 107.495L169.1 114.695L168.9 114.895L168.8 114.795L164.6 113.195L164.8 112.895L168.8 114.495H168.9L169.1 114.395L174.1 107.395Z" fill="#FF6B00"/>
<path d="M175.7 104.395C175.6 106.595 176.3 108.395 177.5 109.495C176.9 111.195 175.9 112.895 174.7 114.395C173 116.595 171 118.295 169.1 119.495C166.5 120.995 164 121.395 162.4 119.895C161.3 118.895 160.8 116.795 161.8 114.595C162.3 113.595 163 112.595 163.3 111.595C163.9 109.595 162.7 108.595 161.7 107.795C160.7 106.995 159.9 105.195 161.1 103.295C161.8 102.195 162.9 101.695 163.6 100.495C164.8 98.6953 164 96.8953 164.2 95.0953C164.4 92.3953 166.3 90.1953 168.4 88.9953C171 87.4953 173.9 87.6953 173.9 90.7953C173.9 91.4953 173.7 92.3953 174 92.9953C174.3 93.7953 175.3 93.5953 176.1 93.7953C177.8 94.2953 178 97.5953 176.4 100.095C175.6 101.495 174.2 103.195 174.7 104.095C174.7 104.495 175.2 104.495 175.7 104.395ZM174.1 107.395L169.1 114.395V104.895L174.3 97.6953L174.2 97.4953L169.2 104.495V95.7953L169 95.8953V104.595L165 102.995L164.8 103.295L169 104.895V114.395L165 112.795L164.8 113.095L169 114.695V118.995L169.2 118.895V114.595L174.4 107.395H174.1Z" fill="#B7B7B7"/>
<path d="M168.8 114.795L168.9 114.895L169.1 114.695V118.995L168.8 119.095V114.795Z" fill="#FF6B00"/>
<path d="M197.5 71.5953L197.7 71.7953L188.9 84.0953L188.7 84.3953L188.5 84.2953L181.4 81.4953L181.7 80.9953L188.5 83.5953L188.7 83.6953L188.9 83.4953L197.5 71.5953Z" fill="#FF6B00"/>
<path d="M184.9 58.9953C185 58.8953 185.1 58.8953 185.2 58.7953C182.8 60.8953 180.9 63.8953 180.6 67.3953C180.4 70.0953 181.3 72.5953 180.3 75.2953C178.9 74.6953 178.1 73.0953 178.1 70.7953C178.1 66.4953 181.1 61.1953 184.9 58.9953Z" fill="#F9FBFC"/>
<path d="M237 13.5953L59.5 116.095L59.7 194.495L237.2 91.9953L237 13.5953ZM70.5 144.995V139.395L153.3 91.5953V97.1953L70.5 144.995ZM70.8 132.795V127.195L153.6 79.3953V84.9953L70.8 132.795ZM225 81.1953C224.4 83.8953 222.8 86.6953 220.9 89.0953C218.7 91.8953 216.1 94.2953 213.5 95.6953C210.1 97.6953 206.8 98.0953 204.7 96.1953C203.7 95.1953 203 93.4953 203.3 91.3953C202.3 94.4953 200.4 97.5953 198.4 100.295C195.6 103.995 192.2 106.995 188.8 108.895C184.4 111.495 180.1 112.095 177.4 109.595L177.3 109.495C176.7 111.195 175.7 112.895 174.5 114.395C172.8 116.595 170.8 118.295 168.9 119.495C166.3 120.995 163.8 121.395 162.2 119.895C161.1 118.895 160.6 116.795 161.6 114.595C162.1 113.595 162.8 112.595 163.1 111.595C163.7 109.595 162.5 108.595 161.5 107.795C160.5 106.995 159.7 105.195 160.9 103.295C161.6 102.195 162.7 101.695 163.4 100.495C164.6 98.6953 163.8 96.8953 164 95.0953C164.2 92.3953 166.1 90.1953 168.2 88.9953C170.8 87.4953 173.7 87.6953 173.7 90.7953C173.7 91.4953 173.5 92.3953 173.8 92.9953C174.1 93.7953 175.1 93.5953 175.9 93.7953C177.6 94.2953 177.8 97.5953 176.2 100.095C175.4 101.495 174 103.195 174.5 104.095C174.7 104.495 175.2 104.395 175.7 104.395C175.7 103.195 176 101.895 176.6 100.495C177.4 98.7953 178.6 97.1953 179.1 95.3953C180.1 91.9953 178.1 90.1953 176.4 88.7953C174.7 87.3953 173.4 84.3953 175.4 81.1953C176.6 79.2953 178.5 78.3953 179.7 76.4953C180 75.9953 180.2 75.5953 180.4 75.0953C179 74.4953 178.2 72.8953 178.2 70.5953C178.2 66.2953 181.2 60.9953 185 58.7953C185.1 58.6953 185.2 58.6953 185.3 58.5953C186.1 57.8953 187 57.2953 187.8 56.7953C192.3 54.1953 197.2 54.4953 197.2 59.8953C197.2 61.1953 196.9 62.6953 197.3 63.5953C197.9 64.8953 199.6 64.5953 200.8 64.9953C203.7 65.7953 204 71.3953 201.3 75.7953C199.9 78.0953 197.6 81.0953 198.4 82.5953C198.9 83.4953 200.2 82.9953 201.2 82.9953C203.7 82.9953 204.7 86.0953 204 89.4953C204.1 89.2953 204.1 89.0953 204.2 88.8953C204.8 87.5953 205.7 86.2953 206.1 84.9953C206.9 82.3953 205.3 80.9953 204 79.9953C202.7 78.8953 201.7 76.5953 203.2 74.1953C204.1 72.7953 205.6 71.9953 206.5 70.5953C208 68.1953 207 65.8953 207.2 63.4953C207.5 59.9953 210 57.0953 212.7 55.4953C216.2 53.4953 220 53.6953 219.9 57.8953C219.9 58.8953 219.7 59.9953 220 60.6953C220.5 61.6953 221.7 61.4953 222.7 61.6953C225 62.2953 225.1 66.5953 223.1 69.9953C222 71.7953 220.2 74.0953 220.9 75.2953C221.3 75.9953 222.3 75.5953 223.1 75.5953C224.9 75.9953 225.6 78.4953 225 81.1953Z" fill="#F9FBFC"/>
<path d="M220.1 66.9953L220.3 67.1953L213.6 76.5953L213.4 76.7953L213.3 76.6953L207.8 74.5953L208 74.1953L213.3 76.2953H213.4L213.6 76.0953L220.1 66.9953Z" fill="#FF6B00"/>
<path d="M161.5 169.995V171.695L133.9 187.695V185.895L161.5 169.995Z" fill="#FF6B00"/>
<path d="M161.6 165V166.8L134 182.7V181L161.6 165Z" fill="#FF6B00"/>
<path d="M59.7 194.495L237.2 91.9953L237.4 156.695L59.9 259.195L59.7 194.495ZM167.7 179.895L167.6 140.995L127.7 163.995L127.8 202.895L167.7 179.895ZM110.7 212.795L110.6 173.895L70.7 196.995L70.8 235.895L110.7 212.795Z" fill="url(#paint2_linear)"/>
<path d="M147.7 158.495C150.3 156.995 152.5 158.195 152.5 161.195C152.5 164.195 150.4 167.995 147.7 169.495C145.1 170.995 142.9 169.795 142.9 166.795C142.9 163.795 145 159.995 147.7 158.495Z" fill="#FF6B00"/>
<path d="M168.8 95.8953L169 95.7953V104.495L168.9 104.695L168.8 104.595V95.8953Z" fill="#FF6B00"/>
<path d="M127.7 163.995L167.6 140.895L167.7 179.795L127.8 202.895L127.7 163.995ZM147.7 158.495C145.1 159.995 142.9 163.695 142.9 166.795C142.9 169.795 145.1 171.095 147.7 169.495C150.3 167.995 152.5 164.295 152.5 161.195C152.5 158.195 150.3 156.895 147.7 158.495ZM161.5 166.595V164.895L133.9 180.795V182.495L161.5 166.595ZM161.5 171.695V169.995L133.9 185.895V187.595L161.5 171.695Z" fill="#F9FBFC"/>
<path d="M90.7 191.395C93.4 189.895 95.5 191.095 95.5 194.095C95.5 197.095 93.4 200.895 90.7 202.395C88.1 203.895 85.9 202.695 85.9 199.695C85.9 196.595 88 192.895 90.7 191.395Z" fill="#E4E4E4"/>
<path d="M70.7 196.895L110.6 173.795L110.7 212.695L70.8 235.795L70.7 196.895ZM90.7 191.395C88.1 192.895 85.9 196.595 85.9 199.695C85.9 202.695 88.1 203.995 90.7 202.395C93.4 200.895 95.5 197.195 95.5 194.095C95.5 191.095 93.3 189.795 90.7 191.395ZM104.5 199.495V197.795L76.9 213.695V215.395L104.5 199.495ZM104.5 204.595V202.895L76.9 218.795V220.495L104.5 204.595Z" fill="#FF6B00"/>
<path d="M153.4 91.5953V97.1953L70.5 144.995V139.395L153.4 91.5953Z" fill="#FF6B00"/>
<path d="M153.6 79.3953V84.9953L70.8 132.795V127.195L153.6 79.3953Z" fill="#FF6B00"/>
<path d="M51.1 275.595L243.9 164.395L380.3 243.195C384.2 245.495 384.2 251.195 380.3 253.395L202.7 356.095C198.8 358.295 194.1 358.295 190.2 356.095L51.1 275.595Z" fill="url(#paint3_linear)"/>
<path d="M104.4 279.095C100.6 281.295 98.6 282.395 94.8 284.595C90.9 282.395 89 281.295 85.1 279.095C88.9 276.895 90.9 275.795 94.7 273.595C98.6 275.795 100.6 276.895 104.4 279.095Z" fill="url(#paint4_linear)"/>
<path d="M118.6 270.895C114.8 273.095 112.8 274.195 109 276.395C105.1 274.195 103.2 273.095 99.3 270.895C103.1 268.695 105.1 267.595 108.9 265.395C112.8 267.595 114.7 268.695 118.6 270.895Z" fill="url(#paint5_linear)"/>
<path d="M132.8 262.795C129 264.995 127 266.095 123.2 268.295C119.3 266.095 117.4 264.995 113.5 262.795C117.3 260.595 119.3 259.495 123.1 257.295C127 259.495 128.9 260.595 132.8 262.795Z" fill="url(#paint6_linear)"/>
<path d="M146.9 254.695C143.1 256.895 141.1 257.995 137.3 260.195C133.4 257.995 131.5 256.895 127.6 254.695C131.4 252.495 133.4 251.395 137.2 249.195C141.1 251.395 143.1 252.495 146.9 254.695Z" fill="url(#paint7_linear)"/>
<path d="M161.1 246.495C157.3 248.695 155.3 249.795 151.5 251.995C147.6 249.795 145.7 248.695 141.8 246.495C145.6 244.295 147.6 243.195 151.4 240.995C155.3 243.195 157.2 244.295 161.1 246.495Z" fill="url(#paint8_linear)"/>
<path d="M175.3 238.395C171.5 240.595 169.5 241.695 165.7 243.895C161.8 241.695 159.9 240.595 156 238.395C159.8 236.195 161.8 235.095 165.6 232.895C169.5 235.095 171.4 236.195 175.3 238.395Z" fill="url(#paint9_linear)"/>
<path d="M189.5 230.195C185.7 232.395 183.7 233.495 179.9 235.695C176 233.495 174.1 232.395 170.2 230.195C174 227.995 176 226.895 179.8 224.695C183.6 226.995 185.6 228.095 189.5 230.195Z" fill="url(#paint10_linear)"/>
<path d="M203.6 222.095C199.8 224.295 197.8 225.395 194 227.595C190.1 225.395 188.2 224.295 184.3 222.095C188.1 219.895 190.1 218.795 193.9 216.595C197.8 218.795 199.7 219.895 203.6 222.095Z" fill="url(#paint11_linear)"/>
<path d="M217.8 213.995C214 216.195 212 217.295 208.2 219.495C204.3 217.295 202.4 216.195 198.5 213.995C202.3 211.795 204.3 210.695 208.1 208.495C212 210.695 213.9 211.795 217.8 213.995Z" fill="url(#paint12_linear)"/>
<path d="M232 205.795C228.2 207.995 226.2 209.095 222.4 211.295C218.5 209.095 216.6 207.995 212.7 205.795C216.5 203.595 218.5 202.495 222.3 200.295C226.1 202.495 228.1 203.595 232 205.795Z" fill="url(#paint13_linear)"/>
<path d="M246.1 197.695C242.3 199.895 240.3 200.995 236.5 203.195C232.6 200.995 230.7 199.895 226.8 197.695C230.6 195.495 232.6 194.395 236.4 192.195C240.3 194.395 242.3 195.495 246.1 197.695Z" fill="url(#paint14_linear)"/>
<path d="M260.3 189.595C256.5 191.795 254.5 192.895 250.7 195.095C246.8 192.895 244.9 191.795 241 189.595C244.8 187.395 246.8 186.295 250.6 184.095C254.5 186.295 256.4 187.395 260.3 189.595Z" fill="url(#paint15_linear)"/>
<path d="M118.1 286.795C114.3 288.995 112.3 290.095 108.5 292.295C104.6 290.095 102.7 288.995 98.8 286.795C102.6 284.595 104.6 283.495 108.4 281.295C112.2 283.495 114.2 284.595 118.1 286.795Z" fill="url(#paint16_linear)"/>
<path d="M132.2 278.595C128.4 280.795 126.4 281.895 122.6 284.095C118.7 281.895 116.8 280.795 112.9 278.595C116.7 276.395 118.7 275.295 122.5 273.095C126.4 275.295 128.3 276.395 132.2 278.595Z" fill="url(#paint17_linear)"/>
<path d="M146.4 270.495C142.6 272.695 140.6 273.795 136.8 275.995C132.9 273.795 131 272.695 127.1 270.495C130.9 268.295 132.9 267.195 136.7 264.995C140.6 267.195 142.5 268.295 146.4 270.495Z" fill="url(#paint18_linear)"/>
<path d="M160.6 262.395C156.8 264.595 154.8 265.695 151 267.895C147.1 265.695 145.2 264.595 141.3 262.395C145.1 260.195 147.1 259.095 150.9 256.895C154.7 259.095 156.7 260.195 160.6 262.395Z" fill="url(#paint19_linear)"/>
<path d="M174.7 254.195C170.9 256.395 168.9 257.495 165.1 259.695C161.2 257.495 159.3 256.395 155.4 254.195C159.2 251.995 161.2 250.895 165 248.695C168.9 250.895 170.9 251.995 174.7 254.195Z" fill="url(#paint20_linear)"/>
<path d="M188.9 246.095C185.1 248.295 183.1 249.395 179.3 251.595C175.4 249.395 173.5 248.295 169.6 246.095C173.4 243.895 175.4 242.795 179.2 240.595C183.1 242.795 185 243.895 188.9 246.095Z" fill="url(#paint21_linear)"/>
<path d="M203.1 237.895C199.3 240.095 197.3 241.195 193.5 243.395C189.6 241.195 187.7 240.095 183.8 237.895C187.6 235.695 189.6 234.595 193.4 232.395C197.3 234.695 199.2 235.795 203.1 237.895Z" fill="url(#paint22_linear)"/>
<path d="M217.3 229.795C213.5 231.995 211.5 233.095 207.7 235.295C203.8 233.095 201.9 231.995 198 229.795C201.8 227.595 203.8 226.495 207.6 224.295C211.4 226.495 213.4 227.595 217.3 229.795Z" fill="url(#paint23_linear)"/>
<path d="M231.4 221.695C227.6 223.895 225.6 224.995 221.8 227.195C217.9 224.995 216 223.895 212.1 221.695C215.9 219.495 217.9 218.395 221.7 216.195C225.6 218.395 227.5 219.495 231.4 221.695Z" fill="url(#paint24_linear)"/>
<path d="M245.6 213.495C241.8 215.695 239.8 216.795 236 218.995C232.1 216.795 230.2 215.695 226.3 213.495C230.1 211.295 232.1 210.195 235.9 207.995C239.8 210.195 241.7 211.295 245.6 213.495Z" fill="url(#paint25_linear)"/>
<path d="M259.8 205.395C256 207.595 254 208.695 250.2 210.895C246.3 208.695 244.4 207.595 240.5 205.395C244.3 203.195 246.3 202.095 250.1 199.895C253.9 202.095 255.9 203.195 259.8 205.395Z" fill="url(#paint26_linear)"/>
<path d="M273.9 197.295C267.5 200.995 264.2 202.795 257.8 206.495C253.9 204.295 252 203.195 248.1 200.995C254.5 197.295 257.8 195.495 264.2 191.795C268.1 193.995 270 195.095 273.9 197.295Z" fill="url(#paint27_linear)"/>
<path d="M138 290.795C131.6 294.495 128.4 296.295 122.1 299.995C118.2 297.795 116.3 296.695 112.4 294.495C118.8 290.795 122 288.995 128.3 285.295C132.2 287.495 134.1 288.595 138 290.795Z" fill="url(#paint28_linear)"/>
<path d="M145.9 286.295C142.1 288.495 140.1 289.595 136.3 291.795C132.4 289.595 130.5 288.495 126.6 286.295C130.4 284.095 132.4 282.995 136.2 280.795C140 282.995 142 284.095 145.9 286.295Z" fill="url(#paint29_linear)"/>
<path d="M160 278.195C156.2 280.395 154.2 281.495 150.4 283.695C146.5 281.495 144.6 280.395 140.7 278.195C144.5 275.995 146.5 274.895 150.3 272.695C154.2 274.895 156.1 275.995 160 278.195Z" fill="url(#paint30_linear)"/>
<path d="M174.2 270.095C170.4 272.295 168.4 273.395 164.6 275.595C160.7 273.395 158.8 272.295 154.9 270.095C158.7 267.895 160.7 266.795 164.5 264.595C168.4 266.795 170.3 267.895 174.2 270.095Z" fill="url(#paint31_linear)"/>
<path d="M188.4 261.895C184.6 264.095 182.6 265.195 178.8 267.395C174.9 265.195 173 264.095 169.1 261.895C172.9 259.695 174.9 258.595 178.7 256.395C182.5 258.595 184.5 259.695 188.4 261.895Z" fill="url(#paint32_linear)"/>
<path d="M202.5 253.795C198.7 255.995 196.7 257.095 192.9 259.295C189 257.095 187.1 255.995 183.2 253.795C187 251.595 189 250.495 192.8 248.295C196.7 250.495 198.7 251.595 202.5 253.795Z" fill="url(#paint33_linear)"/>
<path d="M216.7 245.695C212.9 247.895 210.9 248.995 207.1 251.195C203.2 248.995 201.3 247.895 197.4 245.695C201.2 243.495 203.2 242.395 207 240.195C210.9 242.395 212.8 243.495 216.7 245.695Z" fill="url(#paint34_linear)"/>
<path d="M230.9 237.495C227.1 239.695 225.1 240.795 221.3 242.995C217.4 240.795 215.5 239.695 211.6 237.495C215.4 235.295 217.4 234.195 221.2 231.995C225.1 234.195 227 235.295 230.9 237.495Z" fill="url(#paint35_linear)"/>
<path d="M245 229.395C241.2 231.595 239.2 232.695 235.4 234.895C231.5 232.695 229.6 231.595 225.7 229.395C229.5 227.195 231.5 226.095 235.3 223.895C239.2 226.095 241.2 227.195 245 229.395Z" fill="url(#paint36_linear)"/>
<path d="M259.2 221.195C255.4 223.395 253.4 224.495 249.6 226.695C245.7 224.495 243.8 223.395 239.9 221.195C243.7 218.995 245.7 217.895 249.5 215.695C253.4 217.895 255.3 218.995 259.2 221.195Z" fill="url(#paint37_linear)"/>
<path d="M273.4 213.095C269.6 215.295 267.6 216.395 263.8 218.595C259.9 216.395 258 215.295 254.1 213.095C257.9 210.895 259.9 209.795 263.7 207.595C267.6 209.795 269.5 210.895 273.4 213.095Z" fill="url(#paint38_linear)"/>
<path d="M287.6 204.995C283.8 207.195 281.8 208.295 278 210.495C274.1 208.295 272.2 207.195 268.3 204.995C272.1 202.795 274.1 201.695 277.9 199.495C281.7 201.695 283.7 202.795 287.6 204.995Z" fill="url(#paint39_linear)"/>
<path d="M145.3 302.195C141.5 304.395 139.5 305.495 135.7 307.695C131.8 305.495 129.9 304.395 126 302.195C129.8 299.995 131.8 298.895 135.6 296.695C139.5 298.895 141.4 299.995 145.3 302.195Z" fill="url(#paint40_linear)"/>
<path d="M159.5 293.995C155.7 296.195 153.7 297.295 149.9 299.495C146 297.295 144.1 296.195 140.2 293.995C144 291.795 146 290.695 149.8 288.495C153.7 290.695 155.6 291.795 159.5 293.995Z" fill="url(#paint41_linear)"/>
<path d="M173.6 285.895C169.8 288.095 167.8 289.195 164 291.395C160.1 289.195 158.2 288.095 154.3 285.895C158.1 283.695 160.1 282.595 163.9 280.395C167.8 282.595 169.8 283.695 173.6 285.895Z" fill="url(#paint42_linear)"/>
<path d="M187.8 277.795C184 279.995 182 281.095 178.2 283.295C174.3 281.095 172.4 279.995 168.5 277.795C172.3 275.595 174.3 274.495 178.1 272.295C182 274.495 183.9 275.595 187.8 277.795Z" fill="url(#paint43_linear)"/>
<path d="M202 269.595C198.2 271.795 196.2 272.895 192.4 275.095C188.5 272.895 186.6 271.795 182.7 269.595C186.5 267.395 188.5 266.295 192.3 264.095C196.2 266.295 198.1 267.395 202 269.595Z" fill="url(#paint44_linear)"/>
<path d="M216.2 261.495C212.4 263.695 210.4 264.795 206.6 266.995C202.7 264.795 200.8 263.695 196.9 261.495C200.7 259.295 202.7 258.195 206.5 255.995C210.3 258.195 212.3 259.295 216.2 261.495Z" fill="url(#paint45_linear)"/>
<path d="M230.3 253.395C226.5 255.595 224.5 256.695 220.7 258.895C216.8 256.695 214.9 255.595 211 253.395C214.8 251.195 216.8 250.095 220.6 247.895C224.5 250.095 226.4 251.195 230.3 253.395Z" fill="url(#paint46_linear)"/>
<path d="M244.5 245.195C240.7 247.395 238.7 248.495 234.9 250.695C231 248.495 229.1 247.395 225.2 245.195C229 242.995 231 241.895 234.8 239.695C238.7 241.895 240.6 242.995 244.5 245.195Z" fill="url(#paint47_linear)"/>
<path d="M258.7 237.095C254.9 239.295 252.9 240.395 249.1 242.595C245.2 240.395 243.3 239.295 239.4 237.095C243.2 234.895 245.2 233.795 249 231.595C252.8 233.795 254.8 234.895 258.7 237.095Z" fill="url(#paint48_linear)"/>
<path d="M272.8 228.895C269 231.095 267 232.195 263.2 234.395C259.3 232.195 257.4 231.095 253.5 228.895C257.3 226.695 259.3 225.595 263.1 223.395C267 225.595 269 226.695 272.8 228.895Z" fill="url(#paint49_linear)"/>
<path d="M293.1 217.295C286.8 220.895 283.7 222.695 277.4 226.295C273.5 224.095 271.6 222.995 267.7 220.795C274 217.195 277.1 215.395 283.4 211.795C287.3 213.995 289.2 215.095 293.1 217.295Z" fill="url(#paint50_linear)"/>
<path d="M301.2 212.695C297.4 214.895 295.4 215.995 291.6 218.195C287.7 215.995 285.8 214.895 281.9 212.695C285.7 210.495 287.7 209.395 291.5 207.195C295.4 209.395 297.3 210.495 301.2 212.695Z" fill="url(#paint51_linear)"/>
<path d="M160.8 310.895C157 313.095 155 314.195 151.2 316.395C147.3 314.195 145.4 313.095 141.5 310.895C145.3 308.695 147.3 307.595 151.1 305.395C155 307.595 156.9 308.695 160.8 310.895Z" fill="url(#paint52_linear)"/>
<path d="M175 302.795C171.2 304.995 169.2 306.095 165.4 308.295C161.5 306.095 159.6 304.995 155.7 302.795C159.5 300.595 161.5 299.495 165.3 297.295C169.2 299.495 171.1 300.595 175 302.795Z" fill="url(#paint53_linear)"/>
<path d="M189.2 294.695C185.4 296.895 183.4 297.995 179.6 300.195C175.7 297.995 173.8 296.895 169.9 294.695C173.7 292.495 175.7 291.395 179.5 289.195C183.3 291.395 185.3 292.495 189.2 294.695Z" fill="url(#paint54_linear)"/>
<path d="M274.2 245.795C247.4 261.195 220.6 276.595 193.7 291.995C189.8 289.795 187.9 288.695 184 286.495C210.8 271.095 237.6 255.695 264.5 240.295C268.4 242.595 270.3 243.595 274.2 245.795Z" fill="url(#paint55_linear)"/>
<path d="M288.3 237.695C284.5 239.895 282.5 240.995 278.7 243.195C274.8 240.995 272.9 239.895 269 237.695C272.8 235.495 274.8 234.395 278.6 232.195C282.5 234.395 284.5 235.495 288.3 237.695Z" fill="url(#paint56_linear)"/>
<path d="M302.5 229.595C298.7 231.795 296.7 232.895 292.9 235.095C289 232.895 287.1 231.795 283.2 229.595C287 227.395 289 226.295 292.8 224.095C296.7 226.295 298.6 227.395 302.5 229.595Z" fill="url(#paint57_linear)"/>
<path d="M316.7 221.395C312.9 223.595 310.9 224.695 307.1 226.895C303.2 224.695 301.3 223.595 297.4 221.395C301.2 219.195 303.2 218.095 307 215.895C310.9 218.095 312.8 219.195 316.7 221.395Z" fill="url(#paint58_linear)"/>
<path d="M208.4 295.995L274.6 257.795L312.4 281.095L246.3 319.295L208.4 295.995Z" fill="url(#paint59_linear)"/>
<path opacity="0.2" d="M235.4 2.99533L57.5 104.895C53.6 107.095 51.2 111.195 51.2 115.695L50.9 275.695L56.7 272.395C91.3 221.295 221.6 28.5953 238.7 2.29533C237.7 2.09533 236.5 2.29533 235.4 2.99533Z" fill="#FFF9FF"/>
<path d="M120.6 135.2L122.7 136.4C121.6 135.8 120.2 135.9 118.6 136.8L116.5 135.6C118.1 134.7 119.6 134.6 120.6 135.2Z" fill="#F7F8FA"/>
<path d="M112.7 148.3L110.6 147.1V144.2L112.7 145.5V148.3Z" fill="#FCBD25"/>
<path d="M95.9 158L93.8 156.7L110.6 147.1L112.7 148.3L95.9 158Z" fill="#FCBD25"/>
<path d="M95.9 155.2L93.8 153.9L110.6 144.2L112.7 145.5L95.9 155.2Z" fill="#F9FBFC"/>
<path d="M95.9 158L93.8 156.7V153.9L95.9 155.2V158Z" fill="#F9FBFC"/>
<path d="M86.8 166.4L84.7 165.2C83.7 164.6 83 163.3 83 161.5C83 157.8 85.6 153.4 88.8 151.5L90.9 152.7C87.7 154.5 85.1 159 85.1 162.7C85.1 164.6 85.8 165.8 86.8 166.4Z" fill="#C5C5C5"/>
<path d="M118.6 136.8C121.8 135 124.4 136.4 124.4 140.1C124.4 143.8 121.8 148.3 118.6 150.1L90 166.6C86.8 168.4 84.2 167 84.2 163.3C84.2 159.6 86.8 155.2 90 153.3L118.6 136.8ZM112.7 148.3V145.5L95.9 155.2V158L112.7 148.3Z" fill="#FF6B00"/>
<path d="M112.7 145.5V148.3L95.9 158V155.2L112.7 145.5Z" fill="#F9FBFC"/>
<path d="M90.9 152.7L88.8 151.5L117.4 135L119.5 136.2L90.9 152.7Z" fill="url(#paint60_linear)"/>
<path d="M223.3 143.7L221.2 142.1V140.4L223.3 141.9V143.7Z" fill="#F9FBFC"/>
<path d="M195.7 150.2L193.6 148.6L221.2 136.9L223.3 138.5L195.7 150.2Z" fill="#F9FBFC"/>
<path d="M195.7 148.4L193.6 146.9L221.2 135.2L223.3 136.8L195.7 148.4Z" fill="#0262CD"/>
<path d="M223.3 138.5L221.2 136.9V135.2L223.3 136.8V138.5Z" fill="#F9FBFC"/>
<path d="M212.2 130.2C212.2 128.7 211.7 127.5 210.8 126.9L212.9 128.5C213.8 129.1 214.3 130.3 214.3 131.8C214.3 134.8 212.2 138.2 209.5 139.4C208.2 140 207 139.8 206.1 139.2L204 137.6C204.9 138.2 206.1 138.4 207.4 137.8C210 136.6 212.2 133.3 212.2 130.2Z" fill="#F9FBFC"/>
<path d="M195.7 155.3L193.6 153.8L221.2 142.1L223.3 143.7L195.7 155.3Z" fill="#F9FBFC"/>
<path d="M223.3 141.9V143.7L195.7 155.3V153.6L223.3 141.9Z" fill="#FF6B00"/>
<path d="M195.7 153.6L193.6 152.1L221.2 140.4L223.3 141.9L195.7 153.6Z" fill="#FF6B00"/>
<path d="M195.7 155.3L193.6 153.8V152.1L195.7 153.6V155.3Z" fill="#FF6B00"/>
<path d="M210.8 126.9L212.9 128.5C212 127.9 210.8 127.7 209.5 128.3L207.4 126.7C208.7 126.2 209.9 126.3 210.8 126.9Z" fill="#FF6B00"/>
<path d="M223.3 136.8V138.5L195.7 150.2V148.4L223.3 136.8Z" fill="#FF6B00"/>
<path d="M195.7 150.2L193.6 148.6V146.9L195.7 148.4V150.2Z" fill="#FF6B00"/>
<path d="M206.1 139.1L204 137.5C203.1 136.9 202.6 135.7 202.6 134.2C202.6 131.2 204.7 127.8 207.4 126.7L209.5 128.3C206.9 129.4 204.7 132.8 204.7 135.8C204.7 137.3 205.2 138.5 206.1 139.1Z" fill="#FF6B00"/>
<path d="M209.5 128.3C212.2 127.2 214.3 128.7 214.3 131.8C214.3 134.8 212.2 138.2 209.5 139.4C206.9 140.5 204.7 139 204.7 135.9C204.7 132.8 206.8 129.4 209.5 128.3Z" fill="#FF6B00"/>
<path d="M189.5 130.7L229.4 113.8L229.5 152.8L189.6 169.7L189.5 130.7ZM209.5 128.3C206.9 129.4 204.7 132.8 204.7 135.8C204.7 138.8 206.9 140.4 209.5 139.3C212.2 138.2 214.3 134.8 214.3 131.7C214.3 128.7 212.1 127.2 209.5 128.3ZM223.3 143.7V142L195.7 153.7V155.4L223.3 143.7ZM223.3 138.5V136.8L195.7 148.5V150.2L223.3 138.5Z" fill="#F9FBFC"/>
<path d="M189.6 169.7L187.5 168.1L187.4 129.2L189.5 130.7L189.6 169.7Z" fill="url(#paint61_linear)"/>
<path d="M189.5 130.7L187.4 129.2L227.3 112.2L229.4 113.8L189.5 130.7Z" fill="url(#paint62_linear)"/>
<path opacity="0.16" d="M77.6 380.5C102.287 380.5 122.3 372.307 122.3 362.2C122.3 352.093 102.287 343.9 77.6 343.9C52.9129 343.9 32.9 352.093 32.9 362.2C32.9 372.307 52.9129 380.5 77.6 380.5Z" fill="#C7C7C7"/>
<path d="M101.8 289.9L60.6 303.7V355.6C60.6 366.1 74.6 374.6 91.8 374.6C109 374.6 123 366.1 123 355.6V303.7L101.8 289.9Z" fill="#DCDEEF"/>
<path d="M91.8 322.7C109.031 322.7 123 314.193 123 303.7C123 293.207 109.031 284.7 91.8 284.7C74.5687 284.7 60.6 293.207 60.6 303.7C60.6 314.193 74.5687 322.7 91.8 322.7Z" fill="#DCDEEF"/>
<path d="M65.2 313.7C70.7 319.1 80.5 322.7 91.8 322.7C103 322.7 112.9 319.1 118.4 313.7C118.8 312.6 119 311.5 119 310.3C119 301.2 106.8 293.8 91.8 293.8C76.8 293.8 64.6 301.2 64.6 310.3C64.7 311.4 64.9 312.6 65.2 313.7Z" fill="#471821"/>
<path d="M111.1 298.6C106.2 295.6 99.4 293.7 91.8 293.7C89.2 293.7 86.8 293.9 84.4 294.3C84.9 295 85.9 295.6 86.8 295.9C90.5 297.1 95 297.4 97.1 300.7C96.8 301.5 95.8 301.8 94.9 302C88.5 303 81.8 303.1 75.8 305.5C73.8 306.3 71.6 307.7 71.6 309.9C71.6 311.8 73.2 313.2 74.5 314.6C75.8 316 77 318 76 319.6C75.9 319.7 75.8 319.9 75.7 320C80.4 321.7 85.9 322.7 91.8 322.7C93.2 322.7 94.6 322.6 95.9 322.5C94.6 321.3 93.2 320.3 91.6 319.3C90.1 318.4 88.2 317 88.8 315.3C89.3 314 90.9 313.7 92.2 313.5C95.4 313.1 98.7 312.7 101.9 312.4C102.9 312.3 104 312.1 104.8 311.5C105.6 310.9 106.1 309.6 105.5 308.8C105.2 308.3 104.5 308.1 104.3 307.5C104 306.6 104.9 305.8 105.8 305.5C106.7 305.2 107.8 305.2 108.5 304.6C109.9 303.3 108.7 301 107.4 299.6C108.7 299.4 109.9 299 111.1 298.6ZM84.3 307.9C82.1 308.2 79.8 308.4 77.6 307.8C77.4 307.7 77.1 307.6 77.1 307.4C77.1 307.2 77.2 307.1 77.3 306.9C78.7 305.6 82.1 305.2 83.9 305.2C84.7 305.2 86.6 305.5 87.1 306.2C87.9 307.4 85 307.8 84.3 307.9Z" fill="#A0644A"/>
<path d="M91.8 286.9C107.5 286.9 120.8 294.6 120.8 303.7C120.8 312.8 107.5 320.5 91.8 320.5C76.1 320.5 62.8 312.8 62.8 303.7C62.8 294.6 76.1 286.9 91.8 286.9ZM91.8 284.7C74.6 284.7 60.6 293.2 60.6 303.7C60.6 314.2 74.6 322.7 91.8 322.7C109 322.7 123 314.2 123 303.7C123 293.2 109 284.7 91.8 284.7Z" fill="#FFF9FF"/>
<path d="M118.4 324.7L117.3 324V329.3C122.6 332.9 125.8 338.9 125.8 345.3C125.8 347.3 125.1 349.2 123.9 350.7C123.5 350.8 123.1 350.8 122.7 350.8V355.3C124.9 355.3 127.2 354.7 129.2 353.5C133.3 351.1 135.7 346.9 135.7 342.2C130.3 336.8 125.8 328.9 118.4 324.7Z" fill="#DCDEEF"/>
<path d="M113 327.7L111.9 327V332.3C117.2 335.9 120.4 341.9 120.4 348.3C120.4 351.4 118.8 354.1 116.1 355.7C114.8 356.5 113.3 356.9 111.8 356.9V361.4C114 361.4 116.3 360.8 118.3 359.6C122.4 357.2 124.8 353 124.8 348.3C125 339.9 120.4 331.9 113 327.7Z" fill="#FF6B00"/>
<path d="M349.5 240.2C349.3 240.2 349.1 240.2 348.9 240C348.2 239.7 348 238.8 348.3 238.2C349.7 235.6 351.7 233.3 353.8 232.1C355.1 231.3 356.5 231 357.7 231C359.5 231.1 361.6 229.8 363.5 227.5C364.6 226.2 365.8 225.2 367 224.4C368.3 223.6 369.7 223.2 370.9 223.3C372.7 223.4 374.8 222.1 376.7 219.8C377.8 218.5 379 217.5 380.2 216.7C381.5 215.9 382.9 215.6 384.1 215.6C385.9 215.7 388 214.4 389.9 212.1C391 210.8 392.2 209.8 393.4 209C395.4 207.9 397.4 207.6 399 208.3C399.7 208.6 400 209.4 399.7 210.1C399.4 210.8 398.6 211.1 397.9 210.8C397.1 210.4 396 210.6 394.8 211.4C393.8 212 392.9 212.8 392 213.8C389.5 216.8 386.6 218.4 383.9 218.3C383.2 218.3 382.4 218.5 381.5 219C380.5 219.6 379.6 220.4 378.7 221.4C376.2 224.4 373.3 226 370.6 225.9C369.9 225.9 369.1 226.1 368.2 226.6C367.2 227.2 366.3 228 365.4 229C362.9 232 360 233.6 357.3 233.5C356.6 233.5 355.8 233.7 354.9 234.2C353.2 235.2 351.5 237 350.4 239.2C350.4 239.9 349.9 240.2 349.5 240.2Z" fill="#FF6B00"/>
<path d="M230 43.2C230 44.9 228.8 46.9 227.4 47.7C226 48.5 224.8 47.9 224.8 46.2C224.8 44.5 226 42.5 227.4 41.7C228.8 40.9 230 41.6 230 43.2Z" fill="#FF6B00"/>
<path d="M238.4 38.3C238.4 40 237.2 42 235.8 42.8C234.4 43.6 233.2 43 233.2 41.3C233.2 39.6 234.4 37.6 235.8 36.8C237.3 36 238.4 36.7 238.4 38.3Z" fill="#FF6B00"/>
<path d="M246.9 33.5C246.9 35.2 245.7 37.2 244.3 38C242.9 38.8 241.7 38.2 241.7 36.5C241.7 34.8 242.9 32.8 244.3 32C245.7 31.1 246.9 31.8 246.9 33.5Z" fill="#FF6B00"/>
<path d="M255.4 28.6C255.4 30.3 254.2 32.3 252.8 33.1C251.4 33.9 250.2 33.3 250.2 31.6C250.2 29.9 251.4 27.9 252.8 27.1C254.2 26.2 255.4 26.9 255.4 28.6Z" fill="#FF6B00"/>
<path d="M16.1 133L10.9 136V129.9L16.1 126.9V133Z" fill="#FF6B00"/>
<path d="M23.4 128.7L18.1 131.7V125.7L23.4 122.7V128.7Z" fill="#FF6B00"/>
<path d="M16.1 140.8L10.9 143.8V137.8L16.1 134.8V140.8Z" fill="#FF6B00"/>
<path d="M23.4 136.6L18.1 139.6V133.6L23.4 130.6V136.6Z" fill="#FF6B00"/>
</g>
<defs>
<linearGradient id="paint0_linear" x1="-0.0530317" y1="264.229" x2="386.687" y2="264.229" gradientUnits="userSpaceOnUse">
<stop stop-color="#C5C5C5"/>
<stop offset="0.3103" stop-color="#CBCBCB"/>
<stop offset="0.6946" stop-color="#DADADA"/>
<stop offset="1" stop-color="#EBEBEB"/>
</linearGradient>
<linearGradient id="paint1_linear" x1="50.9735" y1="139.195" x2="244.299" y2="139.195" gradientUnits="userSpaceOnUse">
<stop stop-color="#C5C5C5"/>
<stop offset="0.3103" stop-color="#CBCBCB"/>
<stop offset="0.6946" stop-color="#DADADA"/>
<stop offset="1" stop-color="#EBEBEB"/>
</linearGradient>
<linearGradient id="paint2_linear" x1="59.6756" y1="175.75" x2="237.399" y2="175.75" gradientUnits="userSpaceOnUse">
<stop stop-color="#C5C5C5"/>
<stop offset="0.3103" stop-color="#CBCBCB"/>
<stop offset="0.6946" stop-color="#DADADA"/>
<stop offset="1" stop-color="#EBEBEB"/>
</linearGradient>
<linearGradient id="paint3_linear" x1="51.0544" y1="261.249" x2="383.223" y2="261.249" gradientUnits="userSpaceOnUse">
<stop stop-color="#C5C5C5"/>
<stop offset="0.3103" stop-color="#CBCBCB"/>
<stop offset="0.6946" stop-color="#DADADA"/>
<stop offset="1" stop-color="#EBEBEB"/>
</linearGradient>
<linearGradient id="paint4_linear" x1="85.0974" y1="279.106" x2="104.4" y2="279.106" gradientUnits="userSpaceOnUse">
<stop stop-color="#C5C5C5"/>
<stop offset="0.3103" stop-color="#CBCBCB"/>
<stop offset="0.6946" stop-color="#DADADA"/>
<stop offset="1" stop-color="#EBEBEB"/>
</linearGradient>
<linearGradient id="paint5_linear" x1="99.2974" y1="270.905" x2="118.6" y2="270.905" gradientUnits="userSpaceOnUse">
<stop stop-color="#C5C5C5"/>
<stop offset="0.3103" stop-color="#CBCBCB"/>
<stop offset="0.6946" stop-color="#DADADA"/>
<stop offset="1" stop-color="#EBEBEB"/>
</linearGradient>
<linearGradient id="paint6_linear" x1="113.497" y1="262.805" x2="132.8" y2="262.805" gradientUnits="userSpaceOnUse">
<stop stop-color="#C5C5C5"/>
<stop offset="0.3103" stop-color="#CBCBCB"/>
<stop offset="0.6946" stop-color="#DADADA"/>
<stop offset="1" stop-color="#EBEBEB"/>
</linearGradient>
<linearGradient id="paint7_linear" x1="127.597" y1="254.705" x2="146.9" y2="254.705" gradientUnits="userSpaceOnUse">
<stop stop-color="#C5C5C5"/>
<stop offset="0.3103" stop-color="#CBCBCB"/>
<stop offset="0.6946" stop-color="#DADADA"/>
<stop offset="1" stop-color="#EBEBEB"/>
</linearGradient>
<linearGradient id="paint8_linear" x1="141.797" y1="246.506" x2="161.1" y2="246.506" gradientUnits="userSpaceOnUse">
<stop stop-color="#C5C5C5"/>
<stop offset="0.3103" stop-color="#CBCBCB"/>
<stop offset="0.6946" stop-color="#DADADA"/>
<stop offset="1" stop-color="#EBEBEB"/>
</linearGradient>
<linearGradient id="paint9_linear" x1="155.997" y1="238.405" x2="175.3" y2="238.405" gradientUnits="userSpaceOnUse">
<stop stop-color="#C5C5C5"/>
<stop offset="0.3103" stop-color="#CBCBCB"/>
<stop offset="0.6946" stop-color="#DADADA"/>
<stop offset="1" stop-color="#EBEBEB"/>
</linearGradient>
<linearGradient id="paint10_linear" x1="170.197" y1="230.205" x2="189.5" y2="230.205" gradientUnits="userSpaceOnUse">
<stop stop-color="#C5C5C5"/>
<stop offset="0.3103" stop-color="#CBCBCB"/>
<stop offset="0.6946" stop-color="#DADADA"/>
<stop offset="1" stop-color="#EBEBEB"/>
</linearGradient>
<linearGradient id="paint11_linear" x1="184.297" y1="222.106" x2="203.6" y2="222.106" gradientUnits="userSpaceOnUse">
<stop stop-color="#C5C5C5"/>
<stop offset="0.3103" stop-color="#CBCBCB"/>
<stop offset="0.6946" stop-color="#DADADA"/>
<stop offset="1" stop-color="#EBEBEB"/>
</linearGradient>
<linearGradient id="paint12_linear" x1="198.497" y1="214.006" x2="217.8" y2="214.006" gradientUnits="userSpaceOnUse">
<stop stop-color="#C5C5C5"/>
<stop offset="0.3103" stop-color="#CBCBCB"/>
<stop offset="0.6946" stop-color="#DADADA"/>
<stop offset="1" stop-color="#EBEBEB"/>
</linearGradient>
<linearGradient id="paint13_linear" x1="212.697" y1="205.806" x2="232" y2="205.806" gradientUnits="userSpaceOnUse">
<stop stop-color="#C5C5C5"/>
<stop offset="0.3103" stop-color="#CBCBCB"/>
<stop offset="0.6946" stop-color="#DADADA"/>
<stop offset="1" stop-color="#EBEBEB"/>
</linearGradient>
<linearGradient id="paint14_linear" x1="226.797" y1="197.705" x2="246.1" y2="197.705" gradientUnits="userSpaceOnUse">
<stop stop-color="#C5C5C5"/>
<stop offset="0.3103" stop-color="#CBCBCB"/>
<stop offset="0.6946" stop-color="#DADADA"/>
<stop offset="1" stop-color="#EBEBEB"/>
</linearGradient>
<linearGradient id="paint15_linear" x1="240.997" y1="189.606" x2="260.3" y2="189.606" gradientUnits="userSpaceOnUse">
<stop stop-color="#C5C5C5"/>
<stop offset="0.3103" stop-color="#CBCBCB"/>
<stop offset="0.6946" stop-color="#DADADA"/>
<stop offset="1" stop-color="#EBEBEB"/>
</linearGradient>
<linearGradient id="paint16_linear" x1="98.7974" y1="286.805" x2="118.1" y2="286.805" gradientUnits="userSpaceOnUse">
<stop stop-color="#C5C5C5"/>
<stop offset="0.3103" stop-color="#CBCBCB"/>
<stop offset="0.6946" stop-color="#DADADA"/>
<stop offset="1" stop-color="#EBEBEB"/>
</linearGradient>
<linearGradient id="paint17_linear" x1="112.897" y1="278.606" x2="132.2" y2="278.606" gradientUnits="userSpaceOnUse">
<stop stop-color="#C5C5C5"/>
<stop offset="0.3103" stop-color="#CBCBCB"/>
<stop offset="0.6946" stop-color="#DADADA"/>
<stop offset="1" stop-color="#EBEBEB"/>
</linearGradient>
<linearGradient id="paint18_linear" x1="127.097" y1="270.506" x2="146.4" y2="270.506" gradientUnits="userSpaceOnUse">
<stop stop-color="#C5C5C5"/>
<stop offset="0.3103" stop-color="#CBCBCB"/>
<stop offset="0.6946" stop-color="#DADADA"/>
<stop offset="1" stop-color="#EBEBEB"/>
</linearGradient>
<linearGradient id="paint19_linear" x1="141.297" y1="262.405" x2="160.6" y2="262.405" gradientUnits="userSpaceOnUse">
<stop stop-color="#C5C5C5"/>
<stop offset="0.3103" stop-color="#CBCBCB"/>
<stop offset="0.6946" stop-color="#DADADA"/>
<stop offset="1" stop-color="#EBEBEB"/>
</linearGradient>
<linearGradient id="paint20_linear" x1="155.397" y1="254.205" x2="174.7" y2="254.205" gradientUnits="userSpaceOnUse">
<stop stop-color="#C5C5C5"/>
<stop offset="0.3103" stop-color="#CBCBCB"/>
<stop offset="0.6946" stop-color="#DADADA"/>
<stop offset="1" stop-color="#EBEBEB"/>
</linearGradient>
<linearGradient id="paint21_linear" x1="169.597" y1="246.106" x2="188.9" y2="246.106" gradientUnits="userSpaceOnUse">
<stop stop-color="#C5C5C5"/>
<stop offset="0.3103" stop-color="#CBCBCB"/>
<stop offset="0.6946" stop-color="#DADADA"/>
<stop offset="1" stop-color="#EBEBEB"/>
</linearGradient>
<linearGradient id="paint22_linear" x1="183.797" y1="237.905" x2="203.1" y2="237.905" gradientUnits="userSpaceOnUse">
<stop stop-color="#C5C5C5"/>
<stop offset="0.3103" stop-color="#CBCBCB"/>
<stop offset="0.6946" stop-color="#DADADA"/>
<stop offset="1" stop-color="#EBEBEB"/>
</linearGradient>
<linearGradient id="paint23_linear" x1="197.997" y1="229.806" x2="217.3" y2="229.806" gradientUnits="userSpaceOnUse">
<stop stop-color="#C5C5C5"/>
<stop offset="0.3103" stop-color="#CBCBCB"/>
<stop offset="0.6946" stop-color="#DADADA"/>
<stop offset="1" stop-color="#EBEBEB"/>
</linearGradient>
<linearGradient id="paint24_linear" x1="212.097" y1="221.705" x2="231.4" y2="221.705" gradientUnits="userSpaceOnUse">
<stop stop-color="#C5C5C5"/>
<stop offset="0.3103" stop-color="#CBCBCB"/>
<stop offset="0.6946" stop-color="#DADADA"/>
<stop offset="1" stop-color="#EBEBEB"/>
</linearGradient>
<linearGradient id="paint25_linear" x1="226.297" y1="213.506" x2="245.6" y2="213.506" gradientUnits="userSpaceOnUse">
<stop stop-color="#C5C5C5"/>
<stop offset="0.3103" stop-color="#CBCBCB"/>
<stop offset="0.6946" stop-color="#DADADA"/>
<stop offset="1" stop-color="#EBEBEB"/>
</linearGradient>
<linearGradient id="paint26_linear" x1="240.497" y1="205.405" x2="259.8" y2="205.405" gradientUnits="userSpaceOnUse">
<stop stop-color="#C5C5C5"/>
<stop offset="0.3103" stop-color="#CBCBCB"/>
<stop offset="0.6946" stop-color="#DADADA"/>
<stop offset="1" stop-color="#EBEBEB"/>
</linearGradient>
<linearGradient id="paint27_linear" x1="248.096" y1="199.159" x2="273.9" y2="199.159" gradientUnits="userSpaceOnUse">
<stop stop-color="#C5C5C5"/>
<stop offset="0.3103" stop-color="#CBCBCB"/>
<stop offset="0.6946" stop-color="#DADADA"/>
<stop offset="1" stop-color="#EBEBEB"/>
</linearGradient>
<linearGradient id="paint28_linear" x1="112.396" y1="292.659" x2="138" y2="292.659" gradientUnits="userSpaceOnUse">
<stop stop-color="#C5C5C5"/>
<stop offset="0.3103" stop-color="#CBCBCB"/>
<stop offset="0.6946" stop-color="#DADADA"/>
<stop offset="1" stop-color="#EBEBEB"/>
</linearGradient>
<linearGradient id="paint29_linear" x1="126.597" y1="286.305" x2="145.9" y2="286.305" gradientUnits="userSpaceOnUse">
<stop stop-color="#C5C5C5"/>
<stop offset="0.3103" stop-color="#CBCBCB"/>
<stop offset="0.6946" stop-color="#DADADA"/>
<stop offset="1" stop-color="#EBEBEB"/>
</linearGradient>
<linearGradient id="paint30_linear" x1="140.697" y1="278.206" x2="160" y2="278.206" gradientUnits="userSpaceOnUse">
<stop stop-color="#C5C5C5"/>
<stop offset="0.3103" stop-color="#CBCBCB"/>
<stop offset="0.6946" stop-color="#DADADA"/>
<stop offset="1" stop-color="#EBEBEB"/>
</linearGradient>
<linearGradient id="paint31_linear" x1="154.897" y1="270.106" x2="174.2" y2="270.106" gradientUnits="userSpaceOnUse">
<stop stop-color="#C5C5C5"/>
<stop offset="0.3103" stop-color="#CBCBCB"/>
<stop offset="0.6946" stop-color="#DADADA"/>
<stop offset="1" stop-color="#EBEBEB"/>
</linearGradient>
<linearGradient id="paint32_linear" x1="169.097" y1="261.905" x2="188.4" y2="261.905" gradientUnits="userSpaceOnUse">
<stop stop-color="#C5C5C5"/>
<stop offset="0.3103" stop-color="#CBCBCB"/>
<stop offset="0.6946" stop-color="#DADADA"/>
<stop offset="1" stop-color="#EBEBEB"/>
</linearGradient>
<linearGradient id="paint33_linear" x1="183.197" y1="253.806" x2="202.5" y2="253.806" gradientUnits="userSpaceOnUse">
<stop stop-color="#C5C5C5"/>
<stop offset="0.3103" stop-color="#CBCBCB"/>
<stop offset="0.6946" stop-color="#DADADA"/>
<stop offset="1" stop-color="#EBEBEB"/>
</linearGradient>
<linearGradient id="paint34_linear" x1="197.397" y1="245.705" x2="216.7" y2="245.705" gradientUnits="userSpaceOnUse">
<stop stop-color="#C5C5C5"/>
<stop offset="0.3103" stop-color="#CBCBCB"/>
<stop offset="0.6946" stop-color="#DADADA"/>
<stop offset="1" stop-color="#EBEBEB"/>
</linearGradient>
<linearGradient id="paint35_linear" x1="211.597" y1="237.506" x2="230.9" y2="237.506" gradientUnits="userSpaceOnUse">
<stop stop-color="#C5C5C5"/>
<stop offset="0.3103" stop-color="#CBCBCB"/>
<stop offset="0.6946" stop-color="#DADADA"/>
<stop offset="1" stop-color="#EBEBEB"/>
</linearGradient>
<linearGradient id="paint36_linear" x1="225.697" y1="229.405" x2="245" y2="229.405" gradientUnits="userSpaceOnUse">
<stop stop-color="#C5C5C5"/>
<stop offset="0.3103" stop-color="#CBCBCB"/>
<stop offset="0.6946" stop-color="#DADADA"/>
<stop offset="1" stop-color="#EBEBEB"/>
</linearGradient>
<linearGradient id="paint37_linear" x1="239.897" y1="221.205" x2="259.2" y2="221.205" gradientUnits="userSpaceOnUse">
<stop stop-color="#C5C5C5"/>
<stop offset="0.3103" stop-color="#CBCBCB"/>
<stop offset="0.6946" stop-color="#DADADA"/>
<stop offset="1" stop-color="#EBEBEB"/>
</linearGradient>
<linearGradient id="paint38_linear" x1="254.097" y1="213.106" x2="273.4" y2="213.106" gradientUnits="userSpaceOnUse">
<stop stop-color="#C5C5C5"/>
<stop offset="0.3103" stop-color="#CBCBCB"/>
<stop offset="0.6946" stop-color="#DADADA"/>
<stop offset="1" stop-color="#EBEBEB"/>
</linearGradient>
<linearGradient id="paint39_linear" x1="268.297" y1="205.006" x2="287.6" y2="205.006" gradientUnits="userSpaceOnUse">
<stop stop-color="#C5C5C5"/>
<stop offset="0.3103" stop-color="#CBCBCB"/>
<stop offset="0.6946" stop-color="#DADADA"/>
<stop offset="1" stop-color="#EBEBEB"/>
</linearGradient>
<linearGradient id="paint40_linear" x1="125.997" y1="302.206" x2="145.3" y2="302.206" gradientUnits="userSpaceOnUse">
<stop stop-color="#C5C5C5"/>
<stop offset="0.3103" stop-color="#CBCBCB"/>
<stop offset="0.6946" stop-color="#DADADA"/>
<stop offset="1" stop-color="#EBEBEB"/>
</linearGradient>
<linearGradient id="paint41_linear" x1="140.197" y1="294.006" x2="159.5" y2="294.006" gradientUnits="userSpaceOnUse">
<stop stop-color="#C5C5C5"/>
<stop offset="0.3103" stop-color="#CBCBCB"/>
<stop offset="0.6946" stop-color="#DADADA"/>
<stop offset="1" stop-color="#EBEBEB"/>
</linearGradient>
<linearGradient id="paint42_linear" x1="154.297" y1="285.905" x2="173.6" y2="285.905" gradientUnits="userSpaceOnUse">
<stop stop-color="#C5C5C5"/>
<stop offset="0.3103" stop-color="#CBCBCB"/>
<stop offset="0.6946" stop-color="#DADADA"/>
<stop offset="1" stop-color="#EBEBEB"/>
</linearGradient>
<linearGradient id="paint43_linear" x1="168.497" y1="277.805" x2="187.8" y2="277.805" gradientUnits="userSpaceOnUse">
<stop stop-color="#C5C5C5"/>
<stop offset="0.3103" stop-color="#CBCBCB"/>
<stop offset="0.6946" stop-color="#DADADA"/>
<stop offset="1" stop-color="#EBEBEB"/>
</linearGradient>
<linearGradient id="paint44_linear" x1="182.697" y1="269.606" x2="202" y2="269.606" gradientUnits="userSpaceOnUse">
<stop stop-color="#C5C5C5"/>
<stop offset="0.3103" stop-color="#CBCBCB"/>
<stop offset="0.6946" stop-color="#DADADA"/>
<stop offset="1" stop-color="#EBEBEB"/>
</linearGradient>
<linearGradient id="paint45_linear" x1="196.897" y1="261.506" x2="216.2" y2="261.506" gradientUnits="userSpaceOnUse">
<stop stop-color="#C5C5C5"/>
<stop offset="0.3103" stop-color="#CBCBCB"/>
<stop offset="0.6946" stop-color="#DADADA"/>
<stop offset="1" stop-color="#EBEBEB"/>
</linearGradient>
<linearGradient id="paint46_linear" x1="210.997" y1="253.405" x2="230.3" y2="253.405" gradientUnits="userSpaceOnUse">
<stop stop-color="#C5C5C5"/>
<stop offset="0.3103" stop-color="#CBCBCB"/>
<stop offset="0.6946" stop-color="#DADADA"/>
<stop offset="1" stop-color="#EBEBEB"/>
</linearGradient>
<linearGradient id="paint47_linear" x1="225.197" y1="245.205" x2="244.5" y2="245.205" gradientUnits="userSpaceOnUse">
<stop stop-color="#C5C5C5"/>
<stop offset="0.3103" stop-color="#CBCBCB"/>
<stop offset="0.6946" stop-color="#DADADA"/>
<stop offset="1" stop-color="#EBEBEB"/>
</linearGradient>
<linearGradient id="paint48_linear" x1="239.397" y1="237.106" x2="258.7" y2="237.106" gradientUnits="userSpaceOnUse">
<stop stop-color="#C5C5C5"/>
<stop offset="0.3103" stop-color="#CBCBCB"/>
<stop offset="0.6946" stop-color="#DADADA"/>
<stop offset="1" stop-color="#EBEBEB"/>
</linearGradient>
<linearGradient id="paint49_linear" x1="253.497" y1="228.905" x2="272.8" y2="228.905" gradientUnits="userSpaceOnUse">
<stop stop-color="#C5C5C5"/>
<stop offset="0.3103" stop-color="#CBCBCB"/>
<stop offset="0.6946" stop-color="#DADADA"/>
<stop offset="1" stop-color="#EBEBEB"/>
</linearGradient>
<linearGradient id="paint50_linear" x1="267.697" y1="219.059" x2="293.1" y2="219.059" gradientUnits="userSpaceOnUse">
<stop stop-color="#C5C5C5"/>
<stop offset="0.3103" stop-color="#CBCBCB"/>
<stop offset="0.6946" stop-color="#DADADA"/>
<stop offset="1" stop-color="#EBEBEB"/>
</linearGradient>
<linearGradient id="paint51_linear" x1="281.897" y1="212.705" x2="301.2" y2="212.705" gradientUnits="userSpaceOnUse">
<stop stop-color="#C5C5C5"/>
<stop offset="0.3103" stop-color="#CBCBCB"/>
<stop offset="0.6946" stop-color="#DADADA"/>
<stop offset="1" stop-color="#EBEBEB"/>
</linearGradient>
<linearGradient id="paint52_linear" x1="141.497" y1="310.905" x2="160.8" y2="310.905" gradientUnits="userSpaceOnUse">
<stop stop-color="#C5C5C5"/>
<stop offset="0.3103" stop-color="#CBCBCB"/>
<stop offset="0.6946" stop-color="#DADADA"/>
<stop offset="1" stop-color="#EBEBEB"/>
</linearGradient>
<linearGradient id="paint53_linear" x1="155.697" y1="302.805" x2="175" y2="302.805" gradientUnits="userSpaceOnUse">
<stop stop-color="#C5C5C5"/>
<stop offset="0.3103" stop-color="#CBCBCB"/>
<stop offset="0.6946" stop-color="#DADADA"/>
<stop offset="1" stop-color="#EBEBEB"/>
</linearGradient>
<linearGradient id="paint54_linear" x1="169.897" y1="294.706" x2="189.2" y2="294.706" gradientUnits="userSpaceOnUse">
<stop stop-color="#C5C5C5"/>
<stop offset="0.3103" stop-color="#CBCBCB"/>
<stop offset="0.6946" stop-color="#DADADA"/>
<stop offset="1" stop-color="#EBEBEB"/>
</linearGradient>
<linearGradient id="paint55_linear" x1="183.988" y1="266.193" x2="274.2" y2="266.193" gradientUnits="userSpaceOnUse">
<stop stop-color="#C5C5C5"/>
<stop offset="0.3103" stop-color="#CBCBCB"/>
<stop offset="0.6946" stop-color="#DADADA"/>
<stop offset="1" stop-color="#EBEBEB"/>
</linearGradient>
<linearGradient id="paint56_linear" x1="268.997" y1="237.705" x2="288.3" y2="237.705" gradientUnits="userSpaceOnUse">
<stop stop-color="#C5C5C5"/>
<stop offset="0.3103" stop-color="#CBCBCB"/>
<stop offset="0.6946" stop-color="#DADADA"/>
<stop offset="1" stop-color="#EBEBEB"/>
</linearGradient>
<linearGradient id="paint57_linear" x1="283.197" y1="229.606" x2="302.5" y2="229.606" gradientUnits="userSpaceOnUse">
<stop stop-color="#C5C5C5"/>
<stop offset="0.3103" stop-color="#CBCBCB"/>
<stop offset="0.6946" stop-color="#DADADA"/>
<stop offset="1" stop-color="#EBEBEB"/>
</linearGradient>
<linearGradient id="paint58_linear" x1="297.397" y1="221.405" x2="316.7" y2="221.405" gradientUnits="userSpaceOnUse">
<stop stop-color="#C5C5C5"/>
<stop offset="0.3103" stop-color="#CBCBCB"/>
<stop offset="0.6946" stop-color="#DADADA"/>
<stop offset="1" stop-color="#EBEBEB"/>
</linearGradient>
<linearGradient id="paint59_linear" x1="208.386" y1="288.602" x2="312.4" y2="288.602" gradientUnits="userSpaceOnUse">
<stop stop-color="#C5C5C5"/>
<stop offset="0.3103" stop-color="#CBCBCB"/>
<stop offset="0.6946" stop-color="#DADADA"/>
<stop offset="1" stop-color="#EBEBEB"/>
</linearGradient>
<linearGradient id="paint60_linear" x1="104.15" y1="135" x2="104.15" y2="152.7" gradientUnits="userSpaceOnUse">
<stop stop-color="#E4E4E4" stop-opacity="0"/>
<stop offset="0.692708" stop-color="#C5C5C5"/>
</linearGradient>
<linearGradient id="paint61_linear" x1="187" y1="132.5" x2="187" y2="170" gradientUnits="userSpaceOnUse">
<stop stop-color="#6B6B6B"/>
<stop offset="0.1905" stop-color="#707070"/>
<stop offset="0.4152" stop-color="#7E7E7E"/>
<stop offset="0.657" stop-color="#969696"/>
<stop offset="0.9093" stop-color="#B7B7B7"/>
<stop offset="1" stop-color="#C5C5C5"/>
</linearGradient>
<linearGradient id="paint62_linear" x1="187.368" y1="121.487" x2="229.406" y2="121.487" gradientUnits="userSpaceOnUse">
<stop stop-color="#6B6B6B"/>
<stop offset="0.1905" stop-color="#707070"/>
<stop offset="0.4152" stop-color="#7E7E7E"/>
<stop offset="0.657" stop-color="#969696"/>
<stop offset="0.9093" stop-color="#B7B7B7"/>
<stop offset="1" stop-color="#C5C5C5"/>
</linearGradient>
<clipPath id="clip0">
<rect width="400" height="380.5" fill="white"/>
</clipPath>
</defs>
</svg>
