<svg width="1920" height="521" viewBox="0 0 1920 521" fill="none" xmlns="http://www.w3.org/2000/svg">
<g clip-path="url(#clip0)">
<path d="M403.064 518.19C353.176 520.04 303.383 512.55 256.254 496.09L-0.401978 406.48V-0.519043L1920.1 0.47992V461.98L403.064 518.19Z" fill="#FF6B00"/>
<path d="M402.307 518.22C352.911 520.05 303.603 512.72 256.88 496.6L-0.401978 406.48V-0.519043L1920.1 0.47992V461.98L402.307 518.22Z" fill="#FF6B00"/>
<mask id="mask0" mask-type="alpha" maskUnits="userSpaceOnUse" x="-1" y="-1" width="1922" height="520">
<path d="M403.064 518.19C353.176 520.04 303.383 512.55 256.254 496.09L-0.401978 406.48V-0.519043L1920.1 0.47992V461.98L403.064 518.19Z" fill="#FF6B00"/>
<path d="M402.307 518.22C352.911 520.05 303.603 512.72 256.88 496.6L-0.401978 406.48V-0.519043L1920.1 0.47992V461.98L402.307 518.22Z" fill="#FF6B00"/>
</mask>
<g mask="url(#mask0)">
<path d="M1859.03 335.802L1771.25 343.698L1779.35 246.419L1850.4 240.027C1888.02 236.643 1914.66 204.862 1911.28 167.385C1907.9 129.908 1876.02 103.39 1838.41 106.774L1788.25 111.286L1797.1 22.3349C1802.45 -11.7301 1774.37 -42.7872 1736 -47.7312C1701.82 -53.0522 1670.63 -25.0591 1665.65 13.1709L1654.5 123.318L1524.92 134.974L1533.77 46.0229C1539.13 11.9579 1511.06 -19.0992 1472.69 -24.0432C1438.5 -29.3642 1407.31 -1.37116 1402.33 36.8578L1391.17 147.006L1278.33 157.158C1240.71 160.542 1214.08 192.323 1217.45 229.8C1220.83 267.278 1261.07 293.043 1298.69 289.659L1386.46 281.763L1378.37 379.04L1307.31 385.43C1269.69 388.82 1243.06 420.6 1246.44 458.08C1249.81 495.55 1281.7 522.07 1319.31 518.69L1369.46 514.17L1360.63 603.13C1355.27 637.19 1383.34 668.25 1421.71 673.19C1447.53 679.26 1487.45 654.68 1492.07 612.29L1503.21 502.14L1632.79 490.49L1623.95 579.44C1618.58 613.5 1646.66 644.56 1685.03 649.5C1710.86 655.58 1750.78 631 1755.38 588.6L1766.54 478.46L1879.39 468.3C1917.01 464.92 1943.63 433.14 1940.26 395.66C1924.35 359.312 1892.47 332.795 1859.03 335.802ZM1637.5 355.73L1507.94 367.386L1516.03 270.107L1645.6 258.451L1637.5 355.73Z" fill="url(#paint0_linear)" fill-opacity="0.5"/>
<path d="M1769.26 343.533L1769.06 345.904L1771.43 345.69L1859.21 337.794C1891.35 334.903 1922.52 360.376 1938.3 396.16C1941.39 432.39 1915.62 463.04 1879.21 466.31L1766.36 476.46L1764.71 476.61L1764.55 478.25L1753.4 588.39H1753.39C1751.15 608.99 1740.35 625.26 1726.94 635.65C1713.47 646.08 1697.64 650.42 1685.49 647.56L1685.39 647.53L1685.29 647.52C1647.73 642.68 1620.78 612.41 1625.92 579.75L1625.93 579.69L1625.94 579.64L1634.78 490.68L1635.02 488.28L1632.61 488.5L1503.04 500.15L1501.39 500.3L1501.22 501.94L1490.08 612.07C1490.08 612.08 1490.08 612.08 1490.08 612.08C1487.84 632.68 1477.02 648.95 1463.62 659.34C1450.16 669.77 1434.33 674.1 1422.17 671.25L1422.07 671.22L1421.96 671.21C1384.4 666.37 1357.46 636.1 1362.6 603.44L1362.61 603.38L1362.62 603.32L1371.45 514.37L1371.69 511.97L1369.29 512.18L1319.14 516.69C1282.61 519.98 1251.7 494.27 1248.43 457.9C1245.16 421.53 1270.97 390.71 1307.49 387.43L1378.55 381.03L1380.22 380.88L1380.36 379.21L1388.45 281.929L1388.65 279.558L1386.28 279.771L1298.51 287.667C1280.2 289.314 1261.2 283.861 1246.38 273.418C1231.57 262.981 1221.07 247.66 1219.45 229.621C1216.17 193.25 1241.99 162.436 1278.51 159.15L1391.35 148.998L1393.01 148.85L1393.17 147.207L1404.31 37.0889C1409.2 -0.309036 1439.59 -27.1701 1472.38 -22.0671L1472.41 -22.063L1472.43 -22.0601C1510 -17.2191 1536.93 13.047 1531.8 45.713L1531.79 45.7689L1531.78 45.825L1522.93 134.776L1522.7 137.183L1525.1 136.966L1654.68 125.31L1656.32 125.162L1656.49 123.52L1667.64 13.4009C1672.52 -23.9971 1702.91 -50.8581 1735.69 -45.7551L1735.72 -45.751L1735.75 -45.748C1773.31 -40.907 1800.26 -10.641 1795.12 22.025L1795.1 22.0809V22.1379L1786.26 111.089L1786.02 113.495L1788.43 113.278L1838.59 108.766C1875.11 105.481 1906.01 131.193 1909.28 167.564C1912.56 203.935 1886.74 234.75 1850.22 238.035L1779.17 244.427L1777.5 244.578L1777.36 246.253L1769.26 343.533ZM1637.68 357.722L1639.36 357.572L1639.5 355.896L1647.6 258.617L1647.79 256.246L1645.42 256.459L1515.85 268.115L1514.18 268.266L1514.04 269.941L1505.94 367.22L1505.74 369.591L1508.12 369.378L1637.68 357.722Z" stroke="#FF8A00" stroke-opacity="0.4" stroke-width="4"/>
</g>
<mask id="mask1" mask-type="alpha" maskUnits="userSpaceOnUse" x="724" y="-6" width="1200" height="502">
<path d="M912.295 495.5C868.973 497.17 829.902 469.63 816.941 428.27L729.691 149.912C705.407 72.435 763.503 -6.27995 844.734 -5.96095L1923.87 -1.72993L1920.95 456.65L912.295 495.5Z" fill="#FF6B00"/>
</mask>
<g mask="url(#mask1)">
</g>
</g>
<defs>
<linearGradient id="paint0_linear" x1="1547.78" y1="-32.4162" x2="1609.89" y2="658.086" gradientUnits="userSpaceOnUse">
<stop stop-color="#FF9900"/>
<stop offset="1" stop-color="#FF6B00"/>
</linearGradient>
<clipPath id="clip0">
<rect width="1920" height="521" fill="white"/>
</clipPath>
</defs>
</svg>
