<svg width="137" height="24" viewBox="0 0 137 24" fill="none" xmlns="http://www.w3.org/2000/svg">
<g clip-path="url(#clip0)">
<path d="M7.69814 7.77817C7.6715 7.77817 7.6715 7.77817 7.64486 7.77817C7.43176 7.75153 7.21867 7.53843 7.21867 7.32534C7.21867 7.11224 7.08548 2.02456 10.0688 0.879165C10.8147 0.586157 11.5072 0.666068 12.0933 1.06562C12.7858 1.57173 13.3186 2.58394 13.6382 4.04898C13.8513 5.08782 13.9046 5.96684 13.9046 6.02012C13.9046 6.23322 13.7448 6.39304 13.505 6.3664C13.2919 6.33976 13.0788 6.12667 13.0788 5.91357C13.0522 4.98127 12.7325 2.45075 11.6937 1.73155C11.3741 1.49182 10.9745 1.46518 10.4684 1.67828C7.91123 2.66385 8.04442 7.43188 8.04442 7.48516C8.04442 7.64498 7.88459 7.77817 7.69814 7.77817Z" fill="#9DBD32"/>
<path d="M14.0644 2.79695L2.53052 6.36631C2.53052 6.36631 2.02442 6.4995 1.91787 6.63269C1.81132 6.79251 1.78468 7.19206 1.78468 7.19206L0 20.9368L13.3718 23.4407L14.384 2.77031C14.2508 2.74367 14.091 2.77031 14.0644 2.79695Z" fill="#9DBD32"/>
<path d="M18.0333 4.55507C18.0333 4.55507 18.0067 4.44852 17.9534 4.42188C17.9001 4.39525 17.8202 4.36861 17.8202 4.36861L15.929 4.23542L14.5439 2.8503C14.4906 2.79702 14.4373 2.79702 14.3574 2.77039L13.3718 23.4408L20.6171 21.8692L18.0333 4.55507Z" fill="#608D2F"/>
<path d="M9.29645 14.2509C9.08335 13.9845 8.84362 13.7448 8.60388 13.5317C8.36415 13.3186 8.09778 13.1321 7.83141 12.9723C7.64495 12.8658 7.48513 12.7592 7.35194 12.6527C7.21876 12.5461 7.11221 12.4396 7.0323 12.333C6.95239 12.2265 6.87248 12.1199 6.84584 12.0134C6.79256 11.9068 6.79256 11.8003 6.79256 11.6937C6.79256 11.5339 6.84584 11.4007 6.89911 11.2675C6.95239 11.1344 7.0323 11.0278 7.13885 10.9479C7.24539 10.868 7.37858 10.7881 7.51177 10.7348C7.67159 10.6815 7.83141 10.6549 8.01787 10.6283C8.23097 10.6283 8.41742 10.6283 8.60388 10.6549C8.79034 10.6815 8.9768 10.7082 9.13663 10.7614C9.29645 10.8147 9.45627 10.8414 9.61609 10.8946C9.74928 10.9479 9.88246 11.0012 9.98901 11.0544L10.868 8.39074C10.7348 8.31083 10.575 8.25756 10.3886 8.20428C10.2021 8.15101 9.98901 8.09773 9.77592 8.0711C9.56282 8.04446 9.29645 8.01782 9.05671 8.01782C8.79034 8.01782 8.52397 8.04446 8.2576 8.0711C7.64495 8.15101 7.11221 8.31083 6.63274 8.55056C6.15327 8.7903 5.75372 9.08331 5.43407 9.45622C5.11443 9.80251 4.84806 10.2287 4.6616 10.6815C4.47514 11.1344 4.36859 11.6405 4.34195 12.1732C4.31532 12.4929 4.36859 12.7859 4.42186 13.0789C4.50178 13.3452 4.60832 13.6116 4.74151 13.8513C4.87469 14.0911 5.06115 14.3042 5.24761 14.5173C5.43407 14.7304 5.67381 14.9168 5.8869 15.0766C6.07336 15.2098 6.23319 15.343 6.36637 15.4762C6.49956 15.6094 6.6061 15.7159 6.68602 15.8491C6.76593 15.9823 6.8192 16.0889 6.87247 16.222C6.89911 16.3552 6.92575 16.4884 6.92575 16.6216C6.92575 16.7548 6.89911 16.888 6.84584 16.9945C6.79256 17.1011 6.71265 17.2076 6.6061 17.2875C6.49956 17.3674 6.39301 17.4207 6.25982 17.4473C6.12664 17.474 5.96681 17.474 5.78036 17.4473C5.56726 17.4207 5.3808 17.3674 5.19434 17.2875C5.00788 17.2076 4.82142 17.1277 4.63496 17.0212C4.4485 16.9146 4.28868 16.8081 4.15549 16.7281C4.02231 16.6216 3.88912 16.5417 3.78257 16.4351L3.16992 18.4596C3.27647 18.5927 3.40966 18.7259 3.54284 18.8325C3.70266 18.9657 3.86249 19.0722 4.07558 19.2054C4.26204 19.3119 4.50178 19.4185 4.71487 19.525C4.95461 19.6316 5.19434 19.7115 5.46071 19.7648C6.02009 19.898 6.55283 19.9246 7.05893 19.8447C7.56504 19.7648 8.04451 19.6049 8.44406 19.3386C8.87026 19.0456 9.21654 18.6727 9.45627 18.1665C9.72264 17.6604 9.85583 17.0478 9.88246 16.3552C9.9091 15.929 9.82919 15.5295 9.72264 15.1832C9.66937 14.8636 9.50955 14.5439 9.29645 14.2509Z" fill="white"/>
<path d="M4.90124 7.08554C4.8746 7.08554 4.8746 7.08554 4.84797 7.08554C4.63487 7.0589 4.47505 6.8458 4.50168 6.63271C4.52832 6.41961 5.27416 1.33193 8.47061 0.186538C9.26972 -0.10647 9.93565 -0.026559 10.4684 0.372997C11.081 0.879101 11.4273 1.86467 11.4806 3.32971C11.5072 4.36856 11.4007 5.24758 11.4007 5.30085C11.374 5.51395 11.161 5.67377 10.9479 5.64714C10.7348 5.6205 10.5749 5.4074 10.6016 5.19431C10.7348 4.26201 10.8679 1.73149 9.96228 1.01229C9.66928 0.772553 9.26972 0.745916 8.76362 0.959013C6.04663 1.94458 5.32743 6.71262 5.3008 6.76589C5.24752 6.95235 5.0877 7.08554 4.90124 7.08554Z" fill="#9DBD32"/>
<path d="M29.0343 13.3453C28.3151 12.9457 27.9422 12.6261 27.9422 12.1732C27.9422 11.5872 28.4483 11.2143 29.274 11.2143C30.0199 11.2143 30.6592 11.4274 31.0587 11.6139L31.698 9.58945C31.2452 9.32308 30.3928 9.10999 29.3007 9.10999C26.7968 9.10999 25.092 10.5218 25.092 12.5462C25.092 13.6916 25.8911 14.544 26.9566 15.1566C27.8356 15.6627 28.1286 16.009 28.1286 16.5151C28.1286 17.0478 27.7024 17.474 26.9033 17.474C26.0243 17.5007 25.092 17.1277 24.5859 16.8614L23.8667 18.9124C24.3994 19.2854 25.4916 19.605 26.6636 19.605C29.2208 19.6316 31.0587 18.3531 31.0587 16.0889C31.0853 14.8636 30.153 13.9846 29.0343 13.3453Z" fill="#43484C"/>
<path d="M39.2097 9.11002C37.9578 9.11002 36.9722 9.69604 36.1997 10.6283L36.1465 10.6017L37.2386 4.90137H34.3884L31.6182 19.4452H34.4683L35.4273 14.4641C35.8002 12.5995 36.7591 11.4275 37.6648 11.4275C38.3041 11.4275 38.5438 11.8536 38.5438 12.4663C38.5438 12.8659 38.4905 13.3453 38.4106 13.7182L37.3451 19.4186H40.2219L41.3407 13.5318C41.4739 12.9191 41.5538 12.1733 41.5538 11.6672C41.5538 10.069 40.7014 9.11002 39.2097 9.11002Z" fill="#43484C"/>
<path d="M47.9999 9.10999C44.5637 9.10999 42.2996 12.1999 42.2996 15.6361C42.2996 17.8469 43.6581 19.605 46.2152 19.605C49.5715 19.605 51.8356 16.595 51.8356 13.0789C51.8356 11.0545 50.637 9.10999 47.9999 9.10999ZM46.5881 17.4474C45.6292 17.4474 45.203 16.6216 45.203 15.5828C45.203 13.9579 46.0554 11.2942 47.6003 11.2942C48.6125 11.2942 48.9322 12.1732 48.9322 12.999C48.9322 14.757 48.0798 17.4474 46.5881 17.4474Z" fill="#43484C"/>
<path d="M59.1342 9.10999C57.9888 9.10999 56.8966 9.72264 56.1242 10.7881H56.0709L56.2307 9.26981H53.7268C53.5936 10.3087 53.3806 11.8802 53.1408 13.0523L51.1697 23.4674H54.0198L54.7923 19.2587H54.8456C55.1652 19.4718 55.8045 19.6316 56.5237 19.6316C59.8534 19.6316 62.0642 16.1954 62.0642 12.7326C62.0642 10.8148 61.2119 9.10999 59.1342 9.10999ZM56.3905 17.474C55.8844 17.474 55.5115 17.3142 55.2185 17.0745L55.698 14.4108C56.0176 12.6261 56.9499 11.454 57.9355 11.454C58.8145 11.454 59.0809 12.2532 59.0809 13.0256C59.0809 14.8636 57.9888 17.474 56.3905 17.474Z" fill="#43484C"/>
<path d="M66.1131 5.00793C65.2075 5.00793 64.4883 5.72714 64.4883 6.65943C64.4883 7.51182 65.021 8.0712 65.8201 8.0712H65.8734C66.7524 8.0712 67.5249 7.48518 67.5515 6.4197C67.5515 5.62059 66.9922 5.00793 66.1131 5.00793Z" fill="#43484C"/>
<path d="M62.1443 19.4184H64.9944L66.9123 9.323H64.0622L62.1443 19.4184Z" fill="#43484C"/>
<path d="M74.1576 9.29638H72.1865L72.293 8.81691C72.4528 7.85797 73.0389 6.97895 73.9712 6.97895C74.3441 6.97895 74.6371 7.03222 74.8768 7.11214L75.4362 4.87462C75.1166 4.74144 74.5838 4.63489 73.8913 4.63489C72.879 4.63489 71.8668 4.9279 71.0944 5.59382C70.1354 6.41957 69.6826 7.61824 69.4429 8.81691L69.3629 9.29638H68.0311L67.6315 11.454H68.9634L67.4451 19.4185H70.2952L71.8136 11.454H73.7847L74.1576 9.29638Z" fill="#43484C"/>
<path d="M81.0034 9.323L79.272 13.8513C78.8724 14.9434 78.6593 15.5827 78.4196 16.2753H78.3663C78.3131 15.6093 78.2331 14.8901 78.1266 13.8779L77.6738 9.34963H74.6904L76.3952 18.6193C76.4485 18.8324 76.4218 18.939 76.3419 19.0988C76.0223 19.7381 75.4629 20.3507 74.797 20.8036C74.2642 21.2031 73.6516 21.4429 73.1987 21.6027L73.9712 24.0267C74.5572 23.8935 75.7559 23.4406 76.7681 22.4817C78.0733 21.2564 79.272 19.3918 80.4973 16.8347L83.9867 9.37627H81.0034V9.323Z" fill="#43484C"/>
<path d="M104.577 10.9213C105.11 10.575 105.509 10.1222 106.016 9.82914C107.587 8.97676 109.771 9.24313 110.118 11.7204C110.464 14.3308 109.638 16.5683 107.614 18.2997C106.495 19.2587 105.163 19.4718 103.751 19.0456C103.272 18.9124 103.165 19.0189 103.112 19.4718C102.952 20.4307 102.713 21.3896 102.579 22.3486C102.499 22.8014 102.313 22.9346 101.913 22.8813C101.78 22.8547 101.647 22.8547 101.514 22.8813C101.008 22.9612 100.901 22.7481 100.981 22.2687C101.754 18.2465 102.606 14.2509 103.219 10.2021C103.245 9.98897 103.139 9.64268 103.458 9.61605C103.831 9.56277 104.231 9.58941 104.63 9.64268C104.79 9.66932 104.71 9.85578 104.684 9.98897C104.684 10.282 104.63 10.6016 104.577 10.9213ZM108.546 13.0256C108.519 12.0667 108.493 11.2409 107.587 10.8414C106.868 10.5483 106.016 10.8946 105.323 11.7204C104.923 12.1998 104.604 12.7592 104.391 13.3452C103.938 14.5972 103.858 15.929 103.565 17.2076C103.485 17.5539 103.698 17.6871 103.965 17.767C104.923 18.1133 105.802 18.0067 106.575 17.3142C107.907 16.1421 108.413 14.5705 108.546 13.0256Z" fill="#43484C"/>
<path d="M89.6072 19.2054C87.5028 19.2054 86.2243 17.8469 86.2509 15.5295C86.2775 13.7448 86.8636 12.12 88.0889 10.7881C88.9146 9.88245 89.9268 9.37634 91.2054 9.40298C92.3774 9.45625 93.2032 9.96236 93.5228 10.9479C93.8691 12.04 93.4962 13.1854 92.6172 13.8514C91.7914 14.4374 90.8591 14.6505 89.8735 14.7837C89.3674 14.8369 88.8347 14.8636 88.3286 14.8902C88.0889 14.8902 87.9024 14.9169 87.9024 15.2099C87.7959 17.0212 88.6216 18.1399 90.5661 17.8469C90.939 17.7937 91.312 17.6072 91.6849 17.5273C91.8713 17.5006 92.1643 17.0745 92.2709 17.5806C92.3508 17.9268 92.6704 18.3797 92.0844 18.646C91.5517 18.9657 90.4063 19.2054 89.6072 19.2054ZM88.9146 13.6383C89.2875 13.585 89.6338 13.5317 90.0067 13.5051C90.4063 13.4518 90.7792 13.3453 91.1255 13.1854C91.9779 12.8125 92.3774 11.9868 92.0312 11.2942C91.7381 10.6549 90.8325 10.4685 90.0334 10.8947C89.2076 11.2942 88.7281 12.0134 88.3819 12.8392C88.0356 13.585 88.0622 13.6383 88.9146 13.6383Z" fill="#43484C"/>
<path d="M111.103 15.3697C111.157 13.5317 111.822 11.8269 113.261 10.4685C114.193 9.58943 115.285 9.26979 116.564 9.42961C117.47 9.53616 118.215 10.1488 118.402 11.0545C118.642 12.0933 118.455 13.0522 117.576 13.7714C116.75 14.4374 115.765 14.6505 114.726 14.7837C114.22 14.8636 113.687 14.8902 113.181 14.8902C112.808 14.8902 112.702 15.0234 112.702 15.3697C112.648 17.3142 113.74 18.1932 115.658 17.7936C115.925 17.7404 116.164 17.6338 116.404 17.6072C116.644 17.5805 116.963 17.0744 117.123 17.6338C117.23 18.0334 117.523 18.5395 116.777 18.7792C115.871 19.0722 114.992 19.2853 114.033 19.2054C112.435 19.0722 111.37 18.0067 111.157 16.3286C111.103 16.0622 111.13 15.7692 111.103 15.3697ZM113.714 13.6383C114.673 13.5584 115.578 13.5051 116.351 12.9457C116.91 12.5461 117.097 11.8536 116.83 11.2942C116.617 10.8414 116.031 10.6016 115.365 10.7348C115.046 10.7881 114.753 10.9213 114.486 11.1077C113.74 11.6405 113.314 12.413 112.995 13.2653C112.888 13.5584 112.995 13.6649 113.288 13.6383C113.447 13.6116 113.607 13.6383 113.714 13.6383Z" fill="#43484C"/>
<path d="M97.8648 13.0523C98.5573 12.12 99.2499 11.2409 99.8626 10.282C100.235 9.69598 100.688 9.45625 101.354 9.5628C101.594 9.58943 101.834 9.5628 102.127 9.5628C101.994 9.96235 101.727 10.2021 101.514 10.4418C100.635 11.5606 99.7294 12.706 98.8237 13.7981C98.5307 14.1444 98.5307 14.4107 98.6905 14.7837C99.2766 16.1688 99.8359 17.5806 100.422 19.0722C99.8892 19.0722 99.4364 19.0722 98.9835 19.0722C98.6639 19.0722 98.6106 18.8325 98.5307 18.6194C98.1312 17.5539 97.7316 16.5151 97.332 15.4496C97.1456 15.3963 97.0923 15.5295 97.039 15.636C96.4264 16.7015 95.6273 17.6072 94.9347 18.6194C94.695 18.9657 94.4286 19.0989 94.029 19.0722C93.6828 19.0456 93.3098 19.0722 92.7771 19.0722C93.4963 18.1666 94.109 17.3941 94.7483 16.595C95.281 15.9024 95.8137 15.2365 96.3731 14.5706C96.6128 14.3042 96.6128 14.0645 96.4797 13.7448C95.9469 12.5461 95.4674 11.3475 94.9613 10.1488C94.8015 9.74925 94.7216 9.53616 95.3076 9.5628C96.4264 9.58943 96.4264 9.5628 96.8526 10.6283C97.1456 11.4274 97.4386 12.1999 97.7316 12.999C97.7849 12.999 97.8115 13.0256 97.8648 13.0523Z" fill="#43484C"/>
<path d="M129.003 7.43188C129.03 8.0179 128.817 8.55064 128.737 9.08338C128.684 9.4563 128.764 9.61612 129.163 9.56285C129.429 9.53621 129.696 9.50958 129.936 9.56285C130.202 9.61612 130.655 9.26984 130.681 9.82922C130.735 10.5484 130.495 10.8148 129.882 10.8148C128.364 10.8148 128.364 10.8148 128.098 12.2798C127.858 13.665 127.592 15.0501 127.352 16.4352C127.165 17.5273 127.432 17.8203 128.497 17.7937C128.79 17.7937 128.817 17.8736 128.817 18.1133C128.817 18.9924 128.71 19.1256 127.831 19.1522C126.233 19.2321 125.54 18.4863 125.7 16.9147C125.887 15.0501 126.366 13.2388 126.686 11.4274C126.766 10.948 126.739 10.7615 126.206 10.7882C125.967 10.8148 125.487 10.9746 125.62 10.4152C125.7 10.0423 125.54 9.40303 126.286 9.50958C126.846 9.58949 127.139 9.42966 127.219 8.79038C127.352 7.77817 127.538 7.67162 129.003 7.43188Z" fill="#43484C"/>
<path d="M134.624 9.37634C134.944 9.40298 135.263 9.42962 135.583 9.48289C136.435 9.66935 136.435 9.74926 136.169 10.575C136.036 10.9746 135.849 10.9746 135.503 10.8414C135.05 10.6549 134.544 10.575 134.038 10.7082C133.505 10.8414 133.132 11.1344 132.972 11.6405C132.786 12.1999 132.972 12.6793 133.372 13.0789C133.612 13.3186 133.905 13.5051 134.198 13.6915C135.316 14.464 135.902 15.4762 135.609 16.8614C135.343 18.1133 134.358 18.9391 132.919 19.1521C132.093 19.2853 131.294 19.1521 130.495 18.8325C129.829 18.5661 130.229 18.1932 130.309 17.8469C130.415 17.4207 130.655 17.4474 130.975 17.6072C131.481 17.8736 132.04 17.9535 132.626 17.9002C133.265 17.8203 133.718 17.5273 133.958 16.9146C134.171 16.302 134.065 15.7426 133.638 15.2898C133.425 15.0767 133.185 14.8902 132.946 14.7038C131.534 13.7448 131.055 12.706 131.427 11.4274C131.827 10.1488 132.999 9.40298 134.624 9.37634Z" fill="#43484C"/>
<path d="M119.734 19.0722C118.828 19.0722 118.828 19.0722 118.988 18.2465C119.441 15.8225 119.973 13.3985 120.32 10.9479C120.346 10.6816 120.4 10.3886 120.4 10.0955C120.426 9.72262 120.533 9.50953 120.986 9.53616C121.918 9.5628 121.971 9.58944 121.785 10.5217C121.758 10.6816 121.652 10.8414 121.785 10.9213C121.998 11.0545 122.078 10.8147 122.184 10.6816C122.744 9.93572 123.383 9.37634 124.395 9.37634C124.768 9.37634 124.928 9.45625 124.768 9.85581C124.715 10.0423 124.661 10.2287 124.661 10.4418C124.635 10.8414 124.475 10.9746 124.049 11.0012C123.356 11.0278 122.85 11.454 122.451 11.9868C121.572 13.1055 121.332 14.464 121.092 15.7959C120.932 16.6216 120.746 17.4474 120.639 18.2998C120.506 18.9124 120.293 19.2321 119.734 19.0722Z" fill="#43484C"/>
</g>
<defs>
<clipPath id="clip0">
<rect width="136.329" height="24" fill="white"/>
</clipPath>
</defs>
</svg>
