<svg width="144" height="24" viewBox="0 0 144 24" fill="none" xmlns="http://www.w3.org/2000/svg">
<g clip-path="url(#clip0)">
<path d="M85.6914 23.3874L87.6625 12.7592C87.9023 11.454 88.0887 10.3353 88.2219 9.26978H89.0743L88.7547 11.4007H88.8079C89.687 10.0689 90.9389 9.1366 92.2441 9.1366C94.1087 9.1366 94.8279 10.6815 94.8279 12.3064C94.8279 15.636 92.5371 19.4718 89.394 19.4718C88.435 19.4718 87.7957 19.1255 87.4228 19.1255H87.3695L86.5971 23.3874H85.6914ZM87.556 18.0067C88.0088 18.353 88.6748 18.5661 89.4739 18.5661C92.0843 18.5661 93.8956 14.8636 93.8956 12.333C93.8956 11.161 93.4428 9.8558 91.9777 9.8558C90.566 9.8558 88.7547 11.6405 88.1953 14.6238L87.556 18.0067Z" fill="#43484C"/>
<path d="M101.514 19.3919C101.487 18.5928 101.62 17.7937 101.753 16.7282H101.7C100.581 18.8592 99.3029 19.4718 98.0243 19.4718C96.5326 19.4718 95.627 18.1666 95.627 16.4086C95.627 13.0257 98.0243 9.08337 101.86 9.08337C102.553 9.08337 103.352 9.16329 103.858 9.34974L102.819 14.7837C102.473 16.6483 102.339 18.3264 102.393 19.3919H101.514ZM102.819 9.9624C102.606 9.88249 102.233 9.82921 101.62 9.82921C98.7701 9.82921 96.5592 12.999 96.5326 16.1156C96.506 17.4208 96.8789 18.5662 98.2108 18.5662C99.809 18.5662 101.62 16.1688 102.1 13.6117L102.819 9.9624Z" fill="#43484C"/>
<path d="M104.497 19.3919L105.749 12.6261C105.989 11.3741 106.149 10.3353 106.229 9.26978H107.028C106.975 10.0689 106.895 10.6016 106.761 11.6671H106.815C107.401 10.3353 108.386 9.18987 109.638 9.18987C109.771 9.18987 109.905 9.1366 110.011 9.1366L109.825 10.0423C109.745 10.0156 109.638 10.0156 109.505 10.0156C108.2 10.0156 106.761 12.0933 106.362 14.2509L105.403 19.3919H104.497Z" fill="#43484C"/>
<path d="M114.033 7.08557L113.607 9.24317H115.925L115.765 10.0423H113.447L112.355 15.9024C112.222 16.5684 112.142 17.0745 112.142 17.6072C112.142 18.1932 112.408 18.5395 113.021 18.5395C113.341 18.5395 113.554 18.5129 113.74 18.4596L113.794 19.1788C113.527 19.2587 113.181 19.312 112.835 19.312C111.663 19.312 111.21 18.5395 111.21 17.7138C111.21 17.181 111.263 16.6749 111.423 15.9291L112.542 10.0689H111.13L111.263 9.26981H112.701L113.021 7.48513L114.033 7.08557Z" fill="#43484C"/>
<path d="M115.818 19.3919L117.123 12.3064C117.336 11.1344 117.469 10.0689 117.549 9.26981H118.402L118.109 11.4008H118.162C119.014 10.0689 120.266 9.10999 121.625 9.10999C122.584 9.10999 123.836 9.696 123.836 11.5606C123.836 12.0667 123.756 12.6527 123.649 13.1855L122.53 19.3653H121.651L122.797 13.1588C122.877 12.706 122.93 12.1732 122.93 11.6671C122.93 10.6283 122.53 9.85582 121.305 9.85582C120 9.85582 118.109 11.6139 117.682 14.0112L116.724 19.3653H115.818V19.3919Z" fill="#43484C"/>
<path d="M130.948 18.5662C130.442 18.9125 129.483 19.312 128.257 19.312C125.94 19.312 125.141 17.5007 125.141 15.6095C125.141 12.7593 127.139 9.05676 129.962 9.05676C131.587 9.05676 132.28 10.0956 132.28 11.2144C132.28 13.7182 129.403 14.4108 126.18 14.4108C126.073 14.8636 126.047 16.1689 126.26 16.8881C126.606 18.0068 127.378 18.5662 128.417 18.5662C129.509 18.5662 130.255 18.1666 130.708 17.9003L130.948 18.5662ZM131.374 11.241C131.374 10.3353 130.735 9.82924 129.802 9.82924C128.284 9.82924 126.926 11.4807 126.313 13.6117C128.897 13.6383 131.374 13.2121 131.374 11.241Z" fill="#43484C"/>
<path d="M132.866 19.3919L134.118 12.6261C134.357 11.3741 134.517 10.3353 134.597 9.26978H135.396C135.343 10.0689 135.263 10.6016 135.13 11.6671H135.183C135.769 10.3353 136.755 9.18987 138.007 9.18987C138.14 9.18987 138.273 9.1366 138.38 9.1366L138.193 10.0423C138.113 10.0156 138.007 10.0156 137.873 10.0156C136.568 10.0156 135.13 12.0933 134.73 14.2509L133.771 19.3919H132.866Z" fill="#43484C"/>
<path d="M138.06 17.9802C138.406 18.2466 139.072 18.5396 139.791 18.5396C141.097 18.5396 141.976 17.6073 141.976 16.4885C141.976 15.5029 141.576 14.9169 140.644 14.3043C139.658 13.665 139.125 12.786 139.125 11.8537C139.125 10.3087 140.377 9.05676 142.135 9.05676C142.801 9.05676 143.467 9.26986 143.76 9.48296L143.441 10.2554C143.121 10.069 142.615 9.85587 142.029 9.85587C140.83 9.85587 140.031 10.7083 140.031 11.7205C140.031 12.6528 140.564 13.1589 141.363 13.7183C142.322 14.3575 142.881 15.2632 142.881 16.2754C142.881 18.2732 141.416 19.3653 139.711 19.3653C138.832 19.3653 138.033 19.0457 137.714 18.7793L138.06 17.9802Z" fill="#43484C"/>
<path d="M7.69814 7.77817C7.6715 7.77817 7.6715 7.77817 7.64486 7.77817C7.43176 7.75153 7.21867 7.53843 7.21867 7.32534C7.21867 7.11224 7.08548 2.02456 10.0688 0.879165C10.8147 0.586157 11.5072 0.666068 12.0933 1.06562C12.7858 1.57173 13.3186 2.58394 13.6382 4.04898C13.8513 5.08782 13.9046 5.96684 13.9046 6.02012C13.9046 6.23322 13.7447 6.39304 13.505 6.3664C13.2919 6.33976 13.0788 6.12667 13.0788 5.91357C13.0522 4.98127 12.7325 2.45075 11.6937 1.73155C11.3741 1.49182 10.9745 1.46518 10.4684 1.67828C7.91123 2.66385 8.04442 7.43188 8.04442 7.48516C8.04442 7.64498 7.88459 7.77817 7.69814 7.77817Z" fill="#9DBD32"/>
<path d="M14.0644 2.79695L2.53052 6.36631C2.53052 6.36631 2.02442 6.4995 1.91787 6.63269C1.81132 6.79251 1.78468 7.19206 1.78468 7.19206L0 20.9368L13.3718 23.4407L14.384 2.77031C14.2508 2.74367 14.091 2.77031 14.0644 2.79695Z" fill="#9DBD32"/>
<path d="M18.0333 4.55507C18.0333 4.55507 18.0067 4.44852 17.9534 4.42188C17.9001 4.39525 17.8202 4.36861 17.8202 4.36861L15.929 4.23542L14.5439 2.8503C14.4906 2.79702 14.4373 2.79702 14.3574 2.77039L13.3718 23.4408L20.6171 21.8692L18.0333 4.55507Z" fill="#608D2F"/>
<path d="M9.29645 14.2509C9.08335 13.9845 8.84362 13.7448 8.60388 13.5317C8.36415 13.3186 8.09778 13.1321 7.83141 12.9723C7.64495 12.8658 7.48513 12.7592 7.35194 12.6527C7.21876 12.5461 7.11221 12.4396 7.0323 12.333C6.95239 12.2265 6.87248 12.1199 6.84584 12.0134C6.79256 11.9068 6.79256 11.8003 6.79256 11.6937C6.79256 11.5339 6.84584 11.4007 6.89911 11.2675C6.95239 11.1344 7.0323 11.0278 7.13885 10.9479C7.24539 10.868 7.37858 10.7881 7.51177 10.7348C7.67159 10.6815 7.83141 10.6549 8.01787 10.6283C8.23097 10.6283 8.41742 10.6283 8.60388 10.6549C8.79034 10.6815 8.9768 10.7082 9.13663 10.7614C9.29645 10.8147 9.45627 10.8414 9.61609 10.8946C9.74928 10.9479 9.88246 11.0012 9.98901 11.0544L10.868 8.39074C10.7348 8.31083 10.575 8.25756 10.3886 8.20428C10.2021 8.15101 9.98901 8.09773 9.77592 8.0711C9.56282 8.04446 9.29645 8.01782 9.05671 8.01782C8.79034 8.01782 8.52397 8.04446 8.2576 8.0711C7.64495 8.15101 7.11221 8.31083 6.63274 8.55056C6.15327 8.7903 5.75372 9.08331 5.43407 9.45622C5.11443 9.80251 4.84806 10.2287 4.6616 10.6815C4.47514 11.1344 4.36859 11.6405 4.34195 12.1732C4.31532 12.4929 4.36859 12.7859 4.42186 13.0789C4.50178 13.3452 4.60832 13.6116 4.74151 13.8513C4.87469 14.0911 5.06115 14.3042 5.24761 14.5173C5.43407 14.7304 5.67381 14.9168 5.8869 15.0766C6.07336 15.2098 6.23319 15.343 6.36637 15.4762C6.49956 15.6094 6.6061 15.7159 6.68602 15.8491C6.76593 15.9823 6.8192 16.0889 6.87247 16.222C6.89911 16.3552 6.92575 16.4884 6.92575 16.6216C6.92575 16.7548 6.89911 16.888 6.84584 16.9945C6.79256 17.1011 6.71265 17.2076 6.6061 17.2875C6.49956 17.3674 6.39301 17.4207 6.25982 17.4473C6.12664 17.474 5.96681 17.474 5.78036 17.4473C5.56726 17.4207 5.3808 17.3674 5.19434 17.2875C5.00788 17.2076 4.82142 17.1277 4.63496 17.0212C4.4485 16.9146 4.28868 16.8081 4.15549 16.7281C4.02231 16.6216 3.88912 16.5417 3.78257 16.4351L3.16992 18.4596C3.27647 18.5927 3.40966 18.7259 3.54284 18.8325C3.70266 18.9657 3.86249 19.0722 4.07558 19.2054C4.26204 19.3119 4.50178 19.4185 4.71487 19.525C4.95461 19.6316 5.19434 19.7115 5.46071 19.7648C6.02009 19.898 6.55283 19.9246 7.05893 19.8447C7.56504 19.7648 8.04451 19.6049 8.44406 19.3386C8.87026 19.0456 9.21654 18.6727 9.45627 18.1665C9.72264 17.6604 9.85583 17.0478 9.88246 16.3552C9.9091 15.929 9.82919 15.5295 9.72264 15.1832C9.66937 14.8636 9.50955 14.5439 9.29645 14.2509Z" fill="white"/>
<path d="M4.90124 7.08554C4.8746 7.08554 4.8746 7.08554 4.84797 7.08554C4.63487 7.0589 4.47505 6.8458 4.50168 6.63271C4.52832 6.41961 5.27416 1.33193 8.47061 0.186538C9.26972 -0.10647 9.93565 -0.026559 10.4684 0.372997C11.081 0.879101 11.4273 1.86467 11.4806 3.32971C11.5072 4.36856 11.4007 5.24758 11.4007 5.30085C11.374 5.51395 11.161 5.67377 10.9479 5.64714C10.7348 5.6205 10.5749 5.4074 10.6016 5.19431C10.7348 4.26201 10.8679 1.73149 9.96228 1.01229C9.66928 0.772553 9.26972 0.745916 8.76362 0.959013C6.04663 1.94458 5.32743 6.71262 5.3008 6.76589C5.24752 6.95235 5.0877 7.08554 4.90124 7.08554Z" fill="#9DBD32"/>
<path d="M29.0343 13.3453C28.3151 12.9457 27.9422 12.6261 27.9422 12.1732C27.9422 11.5872 28.4483 11.2143 29.274 11.2143C30.0199 11.2143 30.6592 11.4274 31.0587 11.6139L31.698 9.58945C31.2452 9.32308 30.3928 9.10999 29.3007 9.10999C26.7968 9.10999 25.092 10.5218 25.092 12.5462C25.092 13.6916 25.8911 14.544 26.9566 15.1566C27.8356 15.6627 28.1286 16.009 28.1286 16.5151C28.1286 17.0478 27.7024 17.474 26.9033 17.474C26.0243 17.5007 25.092 17.1277 24.5859 16.8614L23.8667 18.9124C24.3994 19.2854 25.4916 19.605 26.6636 19.605C29.2208 19.6316 31.0587 18.3531 31.0587 16.0889C31.0853 14.8636 30.153 13.9846 29.0343 13.3453Z" fill="#43484C"/>
<path d="M39.2097 9.11002C37.9578 9.11002 36.9722 9.69604 36.1997 10.6283L36.1465 10.6017L37.2386 4.90137H34.3884L31.6182 19.4452H34.4683L35.4273 14.4641C35.8002 12.5995 36.7591 11.4275 37.6648 11.4275C38.3041 11.4275 38.5438 11.8536 38.5438 12.4663C38.5438 12.8659 38.4905 13.3453 38.4106 13.7182L37.3451 19.4186H40.2219L41.3407 13.5318C41.4739 12.9191 41.5538 12.1733 41.5538 11.6672C41.5538 10.069 40.7014 9.11002 39.2097 9.11002Z" fill="#43484C"/>
<path d="M47.9999 9.10999C44.5637 9.10999 42.2996 12.1999 42.2996 15.6361C42.2996 17.8469 43.6581 19.605 46.2152 19.605C49.5715 19.605 51.8356 16.595 51.8356 13.0789C51.8356 11.0545 50.637 9.10999 47.9999 9.10999ZM46.5881 17.4474C45.6292 17.4474 45.203 16.6216 45.203 15.5828C45.203 13.9579 46.0554 11.2942 47.6003 11.2942C48.6125 11.2942 48.9322 12.1732 48.9322 12.999C48.9322 14.757 48.0798 17.4474 46.5881 17.4474Z" fill="#43484C"/>
<path d="M59.1342 9.10999C57.9888 9.10999 56.8966 9.72264 56.1242 10.7881H56.0709L56.2307 9.26981H53.7268C53.5936 10.3087 53.3806 11.8802 53.1408 13.0523L51.1697 23.4674H54.0198L54.7923 19.2587H54.8456C55.1652 19.4718 55.8045 19.6316 56.5237 19.6316C59.8534 19.6316 62.0642 16.1954 62.0642 12.7326C62.0642 10.8148 61.2118 9.10999 59.1342 9.10999ZM56.3905 17.474C55.8844 17.474 55.5115 17.3142 55.2185 17.0745L55.698 14.4108C56.0176 12.6261 56.9499 11.454 57.9355 11.454C58.8145 11.454 59.0809 12.2532 59.0809 13.0256C59.0809 14.8636 57.9888 17.474 56.3905 17.474Z" fill="#43484C"/>
<path d="M66.1131 5.00793C65.2075 5.00793 64.4883 5.72714 64.4883 6.65943C64.4883 7.51182 65.021 8.0712 65.8201 8.0712H65.8734C66.7524 8.0712 67.5249 7.48518 67.5515 6.4197C67.5515 5.62059 66.9922 5.00793 66.1131 5.00793Z" fill="#43484C"/>
<path d="M62.1443 19.4184H64.9945L66.9123 9.323H64.0622L62.1443 19.4184Z" fill="#43484C"/>
<path d="M74.1576 9.29638H72.1865L72.293 8.81691C72.4528 7.85797 73.0389 6.97895 73.9711 6.97895C74.3441 6.97895 74.6371 7.03222 74.8768 7.11214L75.4362 4.87462C75.1165 4.74144 74.5838 4.63489 73.8912 4.63489C72.879 4.63489 71.8668 4.9279 71.0943 5.59382C70.1354 6.41957 69.6826 7.61824 69.4429 8.81691L69.3629 9.29638H68.0311L67.6315 11.454H68.9634L67.4451 19.4185H70.2952L71.8135 11.454H73.7847L74.1576 9.29638Z" fill="#43484C"/>
<path d="M81.0034 9.323L79.272 13.8513C78.8724 14.9434 78.6593 15.5827 78.4196 16.2753H78.3663C78.3131 15.6093 78.2331 14.8901 78.1266 13.8779L77.6738 9.34963H74.6904L76.3952 18.6193C76.4485 18.8324 76.4218 18.939 76.3419 19.0988C76.0223 19.7381 75.4629 20.3507 74.797 20.8036C74.2642 21.2031 73.6516 21.4429 73.1987 21.6027L73.9712 24.0267C74.5572 23.8935 75.7559 23.4406 76.7681 22.4817C78.0733 21.2564 79.272 19.3918 80.4973 16.8347L83.9868 9.37627H81.0034V9.323Z" fill="#43484C"/>
</g>
<defs>
<clipPath id="clip0">
<rect width="143.734" height="24" fill="white"/>
</clipPath>
</defs>
</svg>
