<svg width="453" height="397" viewBox="0 0 453 397" fill="none" xmlns="http://www.w3.org/2000/svg">
<g clip-path="url(#clip0)">
<path d="M130.141 262.402C100.406 262.402 72.4147 255.24 51.1229 242.019C29.0052 228.339 16.7074 209.977 16.3403 190.145C15.9732 170.313 27.8122 151.492 49.471 137.169C71.0381 122.846 99.9471 114.766 130.783 114.215C194.475 113.206 246.878 145.616 247.521 186.381C248.163 227.237 196.861 261.3 133.078 262.31C132.16 262.402 131.151 262.402 130.141 262.402ZM133.628 115.134C132.619 115.134 131.701 115.134 130.692 115.134C100.039 115.593 71.3134 123.764 49.8381 137.903C28.4546 152.042 16.7992 170.589 17.1663 190.145C17.4416 209.609 29.6477 227.788 51.49 241.285C73.4242 254.781 102.333 261.943 132.986 261.484C196.219 260.474 247.154 226.87 246.511 186.472C245.961 146.717 195.576 115.134 133.628 115.134Z" fill="url(#paint0_linear)"/>
<path d="M130.141 267.727C64.2468 267.727 10.6504 234.032 10.0079 191.614C9.64083 170.772 22.0304 150.941 44.8823 135.883C67.6425 120.826 98.1117 112.196 130.692 111.645V111.828V111.645C163.272 111.094 194.016 118.714 217.235 133.129C240.546 147.452 253.578 166.916 253.853 187.758C254.129 208.599 241.831 228.431 218.979 243.488C196.219 258.546 165.75 267.176 133.17 267.727C132.16 267.727 131.151 267.727 130.141 267.727ZM133.812 112.104C132.802 112.104 131.701 112.104 130.692 112.104C98.2034 112.655 67.826 121.193 45.1576 136.251C22.4893 151.308 10.1915 170.956 10.4668 191.614C11.1092 234.399 66.1741 268.278 133.17 267.268C165.658 266.717 196.035 258.178 218.704 243.121C241.372 228.064 253.67 208.416 253.394 187.758C253.119 167.1 240.087 147.819 216.96 133.496C194.567 119.632 165.107 112.104 133.812 112.104Z" fill="url(#paint1_linear)"/>
<path d="M130.416 254.781C74.8926 254.781 29.7394 226.136 29.097 190.237C28.5463 153.695 74.1584 123.305 130.875 122.387C187.592 121.469 234.213 150.482 234.764 186.931C235.039 204.743 224.577 221.637 205.213 234.399C186.032 247.069 160.427 254.322 133.078 254.781C132.16 254.781 131.242 254.781 130.416 254.781ZM133.445 124.958C132.619 124.958 131.701 124.958 130.875 124.958C75.6268 125.876 31.2078 155.072 31.7584 190.145C32.3091 225.218 77.7376 253.037 132.894 252.119C159.784 251.66 184.839 244.59 203.653 232.195C222.191 219.892 232.286 203.825 232.011 186.931C231.552 152.41 187.5 124.958 133.445 124.958Z" fill="url(#paint2_linear)"/>
<path d="M132.986 249.181C186.124 248.355 228.707 220.168 228.156 186.197L228.065 172.609L35.7966 176.832V189.319C36.3473 223.198 79.8485 250.099 132.986 249.181Z" fill="url(#paint3_linear)"/>
<path d="M130.967 113.848C77.9211 114.675 35.2459 142.861 35.7965 176.832C36.3472 210.803 79.8484 237.612 132.894 236.786C185.94 235.96 228.615 207.773 228.065 173.802C227.514 139.831 184.013 113.022 130.967 113.848Z" fill="url(#paint4_linear)"/>
<path d="M132.802 226.503C176.487 225.768 211.545 202.632 211.086 174.629V163.427L52.8665 166.916V177.199C53.3253 205.111 89.1175 227.146 132.802 226.503Z" fill="url(#paint5_linear)"/>
<path d="M131.15 115.042C87.4656 115.776 52.4076 138.913 52.8665 166.916C53.3254 194.828 89.1175 216.954 132.802 216.22C176.487 215.485 211.545 192.349 211.086 164.346C210.627 136.434 174.835 114.399 131.15 115.042Z" fill="url(#paint6_linear)"/>
<path opacity="0.31" d="M131.976 179.127C155.191 179.127 174.009 172.674 174.009 164.713C174.009 156.752 155.191 150.298 131.976 150.298C108.762 150.298 89.9436 156.752 89.9436 164.713C89.9436 172.674 108.762 179.127 131.976 179.127Z" fill="url(#paint7_linear)"/>
<path opacity="0.41" d="M131.793 155.348C171.379 155.348 203.469 123.244 203.469 83.6417C203.469 44.0396 171.379 11.9357 131.793 11.9357C92.2074 11.9357 60.1169 44.0396 60.1169 83.6417C60.1169 123.244 92.2074 155.348 131.793 155.348Z" fill="white"/>
<path d="M60.3003 83.6417C60.3003 112.012 76.8197 136.526 100.681 148.186L66.4492 54.4451C62.4111 63.6265 60.3003 73.5423 60.3003 83.6417ZM180.342 79.9692C180.342 71.0633 177.13 65.0037 174.468 60.2294C170.797 54.3533 167.401 49.3036 167.401 43.4276C167.401 36.817 172.357 30.6655 179.424 30.6655C179.699 30.6655 180.066 30.6655 180.342 30.7574C167.585 19.0971 150.607 11.9357 131.885 11.9357C106.83 11.9357 84.8041 24.7895 71.9557 44.2539C73.6076 44.3457 75.2596 44.3457 76.5444 44.3457C84.0699 44.3457 95.6336 43.4276 95.6336 43.4276C99.4881 43.2439 99.947 48.8445 96.0924 49.3036C96.0924 49.3036 92.2379 49.7627 87.9245 49.9463L113.989 127.62L129.682 80.5201L118.485 49.8545C114.631 49.6709 110.96 49.2118 110.96 49.2118C107.105 49.0282 107.564 43.0603 111.419 43.3358C111.419 43.3358 123.258 44.2539 130.324 44.2539C137.85 44.2539 149.414 43.3358 149.414 43.3358C153.268 43.1521 153.727 48.7527 149.872 49.2118C149.872 49.2118 146.018 49.6709 141.704 49.8545L167.585 126.978L174.743 103.106C178.047 93.2821 180.342 86.1207 180.342 79.9692Z" fill="#00749A"/>
<path d="M133.261 89.885L111.694 152.41C118.302 154.338 125.093 155.348 131.976 155.348C140.052 155.348 148.129 153.971 155.746 151.308C155.562 151.033 155.379 150.665 155.195 150.298L133.261 89.885ZM194.934 49.2118C195.209 51.5071 195.393 53.9861 195.393 56.5568C195.393 63.8101 194.016 71.9815 189.978 82.2645L168.044 145.616C189.335 133.221 203.652 110.084 203.652 83.6417C203.652 71.6142 200.716 59.7703 194.934 49.2118Z" fill="#00749A"/>
<path d="M131.976 0C85.9055 0 48.3696 37.5516 48.3696 83.6418C48.3696 129.732 85.9055 167.284 131.976 167.284C178.047 167.284 215.583 129.732 215.583 83.6418C215.583 37.5516 178.047 0 131.976 0ZM131.976 163.427C88.0163 163.427 52.2242 127.62 52.2242 83.6418C52.2242 39.6633 88.0163 3.85615 131.976 3.85615C175.936 3.85615 211.729 39.6633 211.729 83.6418C211.729 127.62 175.936 163.427 131.976 163.427Z" fill="#00749A"/>
<path d="M37.9073 137.536C37.8155 138.822 38.1826 140.474 38.7333 142.035C39.2839 143.596 40.1099 145.157 40.9359 146.626C41.7619 148.095 42.6796 149.655 43.6891 151.033C44.148 151.767 44.6987 152.502 45.2493 153.144C45.7999 153.787 46.3506 154.522 46.8095 155.072L46.7177 154.981C53.9679 161.132 62.1358 166.182 70.7627 170.13C79.3895 174.078 88.567 176.924 98.0198 178.852C107.381 180.78 117.017 181.606 126.562 181.79C131.334 181.882 136.198 181.698 140.97 181.423C145.743 181.147 150.515 180.78 155.287 180.137C164.832 178.944 174.193 176.832 183.278 173.711C192.364 170.589 201.083 166.274 208.884 160.765C212.83 158.01 216.501 154.889 219.897 151.492C223.384 148.278 225.862 143.871 226.688 139.189C227.514 134.506 226.871 129.548 224.944 125.141C223.017 120.734 219.897 116.878 215.95 114.032C219.897 116.786 223.109 120.643 225.128 125.05C227.147 129.457 227.881 134.414 227.055 139.281C226.321 144.055 223.843 148.646 220.355 151.951C216.96 155.44 213.289 158.653 209.434 161.499C201.633 167.192 192.915 171.599 183.737 174.904C174.652 178.209 165.107 180.413 155.563 181.698C150.79 182.433 145.926 182.8 141.154 183.167C136.29 183.535 131.518 183.718 126.653 183.718C116.925 183.718 107.289 182.892 97.7444 181.147C88.1999 179.311 78.8388 176.557 69.8449 172.609C60.9428 168.661 52.4995 163.519 44.974 157.368H44.8822C44.148 156.633 43.5974 155.899 43.0467 155.164C42.4961 154.43 41.9454 153.695 41.3948 152.961C40.2935 151.492 39.3757 149.931 38.458 148.37C37.5402 146.809 36.7142 145.157 35.9801 143.32C35.3376 141.576 34.6952 139.648 34.8788 137.353C34.9705 136.434 35.7047 135.792 36.6225 135.884C37.5402 135.975 38.1826 136.71 38.0909 137.628C37.9073 137.444 37.9073 137.444 37.9073 137.536Z" fill="url(#paint8_linear)"/>
<path d="M83.1522 116.695C78.8388 115.868 74.709 114.766 70.5791 113.665C66.4492 112.563 62.3194 111.278 58.2813 109.717C54.2432 108.156 50.2051 106.503 46.6259 104.024C45.7081 103.382 44.8822 102.739 44.148 101.913C43.4138 101.086 42.6796 100.168 42.4043 99.1583C42.0372 98.0565 42.1289 96.8629 42.5878 95.9448C43.0467 94.9348 43.7809 94.1085 44.6068 93.374C43.8726 94.1085 43.2302 95.0267 42.7714 95.9448C42.4043 96.9547 42.3125 98.0565 42.7714 98.9746C43.1384 99.9846 43.7809 100.719 44.6068 101.454C45.341 102.188 46.2588 102.739 47.0848 103.29C50.664 105.493 54.7938 106.871 58.8319 108.156C62.87 109.35 66.9999 110.359 71.2215 111.278C75.3514 112.104 79.573 112.93 83.7947 113.481C84.7124 113.573 85.263 114.399 85.1713 115.317C85.0795 116.235 84.2535 116.786 83.3358 116.695C83.244 116.695 83.244 116.695 83.1522 116.695Z" fill="url(#paint9_linear)"/>
<path d="M277.986 394.062L86.8191 283.703C83.4234 281.775 81.7715 279.204 81.6797 276.449C81.6797 276.358 81.6797 267.084 81.6797 266.993C81.7715 263.687 84.1576 269.472 88.9299 266.717L197.408 204.101C206.126 199.051 219.342 198.5 226.867 202.907L418.034 313.358C420.512 314.827 422.347 308.676 422.99 310.604C423.173 311.247 423.082 319.969 423.082 320.612C423.173 324.009 420.696 327.589 415.831 330.344L307.445 392.868C298.727 397.918 285.511 398.469 277.986 394.062Z" fill="#FF6B00"/>
<path d="M277.986 384.789L86.819 274.338C79.2935 270.022 80.2112 262.402 88.9298 257.352L197.408 194.736C206.126 189.686 219.342 189.135 226.867 193.542L418.034 303.902C425.559 308.217 424.642 315.837 415.923 320.887L307.445 383.595C298.727 388.553 285.511 389.104 277.986 384.789Z" fill="url(#paint10_linear)"/>
<path d="M290.742 383.871C286.429 383.871 282.574 383.044 279.821 381.484L88.7463 271.032C87.5532 270.39 85.5342 268.921 85.5342 266.993C85.5342 264.973 87.5532 262.586 90.8571 260.657L199.335 198.041C203.373 195.746 208.696 194.368 214.111 194.368C218.424 194.368 222.279 195.195 225.032 196.756L416.198 307.207C417.392 307.849 419.411 309.318 419.411 311.247C419.411 313.266 417.392 315.654 414.088 317.582L305.61 380.198C301.48 382.585 296.065 383.871 290.742 383.871Z" fill="url(#paint11_linear)"/>
<path d="M415.923 319.326L307.445 381.943C298.727 386.992 285.511 387.543 277.986 383.136L86.819 272.777C83.6987 270.941 82.0467 268.553 81.7714 266.074C81.4043 269.196 83.0563 272.134 86.819 274.338L277.986 384.789C285.511 389.104 298.727 388.645 307.445 383.595L415.923 320.979C421.063 318.041 423.449 314.185 423.082 310.696C422.623 313.634 420.237 316.847 415.923 319.326Z" fill="white"/>
<path d="M311.942 344.116L156.751 254.414C153.631 252.578 153.998 249.456 157.577 247.436L215.854 213.741C219.433 211.629 224.848 211.446 227.968 213.282L383.16 302.983C386.28 304.82 385.913 307.941 382.334 309.961L324.057 343.657C320.477 345.677 315.063 345.86 311.942 344.116Z" fill="#999999"/>
<path d="M219.25 220.352L229.162 226.136C230.446 226.87 232.466 226.87 233.75 226.136C235.035 225.401 235.035 224.208 233.75 223.473L223.839 217.689C222.554 216.954 220.535 216.954 219.25 217.689C217.965 218.423 217.965 219.617 219.25 220.352ZM236.32 230.176L241.001 232.93C242.285 233.664 244.304 233.664 245.589 232.93C246.874 232.195 246.874 231.002 245.589 230.267L240.909 227.513C239.624 226.778 237.605 226.778 236.32 227.513C235.035 228.247 235.035 229.441 236.32 230.176ZM248.067 236.97L252.748 239.724C254.033 240.459 256.052 240.459 257.336 239.724C258.621 238.99 258.621 237.796 257.336 237.062L252.656 234.307C251.371 233.573 249.352 233.573 248.067 234.307C246.782 235.042 246.782 236.235 248.067 236.97ZM259.906 243.764L264.587 246.518C265.872 247.253 267.891 247.253 269.175 246.518C270.46 245.784 270.46 244.59 269.175 243.856L264.495 241.101C263.21 240.367 261.191 240.367 259.906 241.101C258.621 241.928 258.621 243.029 259.906 243.764ZM271.653 250.65L276.334 253.404C277.619 254.139 279.638 254.139 280.923 253.404C282.207 252.67 282.207 251.476 280.923 250.742L276.242 247.987C274.957 247.253 272.938 247.253 271.653 247.987C270.368 248.722 270.368 249.915 271.653 250.65ZM283.492 257.444L288.173 260.198C289.458 260.933 291.477 260.933 292.762 260.198C294.046 259.464 294.046 258.27 292.762 257.536L288.081 254.781C286.796 254.047 284.777 254.047 283.492 254.781C282.207 255.516 282.207 256.71 283.492 257.444ZM295.239 264.238L299.92 266.993C301.205 267.727 303.224 267.727 304.509 266.993C305.794 266.258 305.794 265.065 304.509 264.33L299.828 261.576C298.543 260.841 296.524 260.841 295.239 261.576C293.955 262.31 293.955 263.504 295.239 264.238ZM307.078 271.032L311.759 273.787C313.044 274.521 315.063 274.521 316.348 273.787C317.632 273.052 317.632 271.859 316.348 271.124L311.667 268.37C310.382 267.635 308.363 267.635 307.078 268.37C305.794 269.104 305.794 270.298 307.078 271.032ZM318.826 277.827L323.506 280.581C324.791 281.315 326.81 281.315 328.095 280.581C329.38 279.846 329.38 278.653 328.095 277.918L323.414 275.164C322.129 274.429 320.11 274.429 318.826 275.164C317.541 275.99 317.632 277.092 318.826 277.827ZM330.664 284.713L335.345 287.467C336.63 288.201 338.649 288.201 339.934 287.467C341.219 286.732 341.219 285.539 339.934 284.804L335.253 282.05C333.968 281.315 331.949 281.315 330.664 282.05C329.38 282.784 329.38 283.978 330.664 284.713ZM342.412 291.507L347.092 294.261C348.377 294.996 350.396 294.996 351.681 294.261C352.966 293.527 352.966 292.333 351.681 291.599L347 288.844C345.716 288.11 343.696 288.11 342.412 288.844C341.219 289.579 341.219 290.772 342.412 291.507ZM354.251 298.301L358.931 301.055C360.216 301.79 362.235 301.79 363.52 301.055C364.805 300.321 364.805 299.127 363.52 298.393L358.839 295.638C357.554 294.904 355.535 294.904 354.251 295.638C352.966 296.373 352.966 297.566 354.251 298.301ZM366.273 305.279L370.954 308.033C372.238 308.768 374.257 308.768 375.542 308.033C376.827 307.299 376.827 306.105 375.542 305.37L370.862 302.616C369.577 301.882 367.558 301.882 366.273 302.616C364.988 303.351 364.988 304.544 366.273 305.279ZM208.604 226.87L212.642 229.257C214.111 230.084 216.405 230.084 217.873 229.257L221.911 226.87C223.38 226.044 223.38 224.667 221.911 223.84L217.873 221.453C216.405 220.627 214.111 220.627 212.642 221.453L208.604 223.84C207.228 224.667 207.228 225.952 208.604 226.87ZM229.712 235.96L233.75 233.573C235.219 232.746 235.219 231.369 233.75 230.543L229.712 228.156C228.244 227.329 225.95 227.329 224.481 228.156L220.443 230.543C218.975 231.369 218.975 232.746 220.443 233.573L224.481 235.96C225.95 236.786 228.244 236.786 229.712 235.96ZM232.282 240.459L236.32 242.846C237.788 243.672 240.083 243.672 241.551 242.846L245.589 240.459C247.058 239.632 247.058 238.255 245.589 237.429L241.551 235.042C240.083 234.215 237.788 234.215 236.32 235.042L232.282 237.429C230.814 238.255 230.814 239.632 232.282 240.459ZM244.029 247.253L248.067 249.64C249.536 250.466 251.83 250.466 253.298 249.64L257.336 247.253C258.805 246.426 258.805 245.049 257.336 244.223L253.298 241.836C251.83 241.009 249.536 241.009 248.067 241.836L244.029 244.223C242.561 245.049 242.561 246.426 244.029 247.253ZM269.175 251.109L265.137 248.722C263.669 247.895 261.375 247.895 259.906 248.722L255.868 251.109C254.4 251.935 254.4 253.312 255.868 254.139L259.906 256.526C261.375 257.352 263.669 257.352 265.137 256.526L269.175 254.139C270.552 253.312 270.552 251.935 269.175 251.109ZM280.923 257.903L276.885 255.516C275.416 254.69 273.122 254.69 271.653 255.516L267.615 257.903C266.147 258.729 266.147 260.107 267.615 260.933L271.653 263.32C273.122 264.146 275.416 264.146 276.885 263.32L280.923 260.933C282.391 260.107 282.391 258.729 280.923 257.903ZM292.762 264.697L288.723 262.31C287.255 261.484 284.961 261.484 283.492 262.31L279.454 264.697C277.986 265.524 277.986 266.901 279.454 267.727L283.492 270.114C284.961 270.941 287.255 270.941 288.723 270.114L292.762 267.727C294.138 266.901 294.138 265.524 292.762 264.697ZM304.509 271.583L300.471 269.196C299.002 268.37 296.708 268.37 295.239 269.196L291.201 271.583C289.733 272.41 289.733 273.787 291.201 274.613L295.239 277C296.708 277.827 299.002 277.827 300.471 277L304.509 274.613C305.977 273.695 305.977 272.41 304.509 271.583ZM316.348 278.377L312.31 275.99C310.841 275.164 308.547 275.164 307.078 275.99L303.04 278.377C301.572 279.204 301.572 280.581 303.04 281.407L307.078 283.794C308.547 284.621 310.841 284.621 312.31 283.794L316.348 281.407C317.816 280.489 317.724 279.204 316.348 278.377ZM328.095 285.172L324.057 282.784C322.588 281.958 320.294 281.958 318.826 282.784L314.787 285.172C313.319 285.998 313.319 287.375 314.787 288.201L318.826 290.589C320.294 291.415 322.588 291.415 324.057 290.589L328.095 288.201C329.563 287.375 329.563 285.998 328.095 285.172ZM326.626 294.996L330.664 297.383C332.133 298.209 334.427 298.209 335.896 297.383L339.934 294.996C341.402 294.169 341.402 292.792 339.934 291.966L335.896 289.579C334.427 288.752 332.133 288.752 330.664 289.579L326.626 291.966C325.158 292.792 325.158 294.169 326.626 294.996ZM351.681 298.76L347.643 296.373C346.174 295.546 343.88 295.546 342.412 296.373L338.374 298.76C336.905 299.586 336.905 300.963 338.374 301.79L342.412 304.177C343.88 305.003 346.174 305.003 347.643 304.177L351.681 301.79C353.149 300.963 353.149 299.586 351.681 298.76ZM369.026 308.768L359.757 303.351C358.289 302.524 355.994 302.524 354.526 303.351L350.488 305.738C349.019 306.564 349.019 307.941 350.488 308.768L359.757 314.185C361.225 315.011 363.52 315.011 364.988 314.185L369.026 311.797C370.403 310.971 370.403 309.594 369.026 308.768ZM197.683 233.114L206.952 238.531C208.421 239.357 210.715 239.357 212.183 238.531L216.221 236.143C217.69 235.317 217.69 233.94 216.221 233.114L206.952 227.697C205.484 226.87 203.189 226.87 201.721 227.697L197.683 230.084C196.306 231.002 196.306 232.287 197.683 233.114ZM214.753 242.938L218.791 245.325C220.26 246.151 222.554 246.151 224.022 245.325L228.06 242.938C229.529 242.111 229.529 240.734 228.06 239.908L224.022 237.521C222.554 236.694 220.26 236.694 218.791 237.521L214.753 239.908C213.285 240.826 213.285 242.111 214.753 242.938ZM230.63 252.119C232.098 252.945 234.393 252.945 235.861 252.119L239.899 249.732C241.368 248.905 241.368 247.528 239.899 246.702L235.861 244.315C234.393 243.488 232.098 243.488 230.63 244.315L226.592 246.702C225.124 247.528 225.124 248.905 226.592 249.732L230.63 252.119ZM242.377 258.913C243.846 259.739 246.14 259.739 247.608 258.913L251.646 256.526C253.115 255.7 253.115 254.322 251.646 253.496L247.608 251.109C246.14 250.283 243.846 250.283 242.377 251.109L238.339 253.496C236.871 254.322 236.871 255.7 238.339 256.526L242.377 258.913ZM254.216 258.087L250.178 260.474C248.71 261.3 248.71 262.677 250.178 263.504L254.216 265.891C255.685 266.717 257.979 266.717 259.447 265.891L263.485 263.504C264.954 262.677 264.954 261.3 263.485 260.474L259.447 258.087C257.979 257.26 255.593 257.26 254.216 258.087ZM266.239 264.697L261.65 267.36C260.365 268.094 260.365 269.288 261.65 270.114L266.239 272.777C267.523 273.511 269.634 273.511 270.919 272.777L275.508 270.114C276.793 269.38 276.793 268.186 275.508 267.36L270.919 264.697C269.634 263.963 267.523 263.963 266.239 264.697ZM277.986 271.583L273.397 274.246C272.112 274.98 272.112 276.174 273.397 277L277.986 279.663C279.271 280.397 281.381 280.397 282.666 279.663L287.255 277C288.54 276.266 288.54 275.072 287.255 274.246L282.666 271.583C281.381 270.849 279.271 270.849 277.986 271.583ZM289.825 278.377L285.236 281.04C283.951 281.775 283.951 282.968 285.236 283.794L289.825 286.457C291.11 287.191 293.22 287.191 294.505 286.457L299.094 283.794C300.379 283.06 300.379 281.866 299.094 281.04L294.505 278.377C293.22 277.643 291.11 277.643 289.825 278.377ZM301.572 285.172L296.983 287.834C295.698 288.569 295.698 289.762 296.983 290.589L301.572 293.251C302.857 293.986 304.968 293.986 306.252 293.251L310.841 290.589C312.126 289.854 312.126 288.66 310.841 287.834L306.252 285.172C304.968 284.437 302.857 284.437 301.572 285.172ZM313.411 291.966L308.822 294.628C307.537 295.363 307.537 296.556 308.822 297.383L313.411 300.045C314.696 300.78 316.807 300.78 318.091 300.045L322.68 297.383C323.965 296.648 323.965 295.455 322.68 294.628L318.091 291.966C316.807 291.231 314.696 291.231 313.411 291.966ZM329.93 306.84L334.519 304.177C335.804 303.442 335.804 302.249 334.519 301.423L329.93 298.76C328.645 298.025 326.535 298.025 325.25 298.76L320.661 301.423C319.376 302.157 319.376 303.351 320.661 304.177L325.25 306.84C326.535 307.574 328.645 307.574 329.93 306.84ZM341.769 313.634L346.358 310.971C347.643 310.237 347.643 309.043 346.358 308.217L341.769 305.554C340.484 304.82 338.374 304.82 337.089 305.554L332.5 308.217C331.215 308.951 331.215 310.145 332.5 310.971L337.089 313.634C338.374 314.368 340.484 314.368 341.769 313.634ZM358.289 315.194L353.7 312.532C352.415 311.797 350.304 311.797 349.019 312.532L344.431 315.194C343.146 315.929 343.146 317.123 344.431 317.949L349.019 320.611C350.304 321.346 352.415 321.346 353.7 320.611L358.289 317.949C359.665 317.214 359.574 316.021 358.289 315.194ZM186.578 239.265L201.354 247.804C202.639 248.538 204.75 248.538 206.034 247.804L210.623 245.141C211.908 244.407 211.908 243.213 210.623 242.387L195.847 233.848C194.563 233.114 192.452 233.114 191.167 233.848L186.578 236.511C185.202 237.337 185.202 238.531 186.578 239.265ZM208.512 252.027L213.101 254.69C214.386 255.424 216.497 255.424 217.782 254.69L222.37 252.027C223.655 251.293 223.655 250.099 222.37 249.273L217.782 246.61C216.497 245.876 214.386 245.876 213.101 246.61L208.512 249.273C207.228 250.007 207.228 251.293 208.512 252.027ZM220.351 258.821L224.94 261.484C226.225 262.218 228.336 262.218 229.621 261.484L234.209 258.821C235.494 258.087 235.494 256.893 234.209 256.067L229.621 253.404C228.336 252.67 226.225 252.67 224.94 253.404L220.351 256.067C219.066 256.893 219.066 258.087 220.351 258.821ZM232.098 265.615L236.687 268.278C237.972 269.012 240.083 269.012 241.368 268.278L245.956 265.615C247.241 264.881 247.241 263.687 245.956 262.861L241.368 260.198C240.083 259.464 237.972 259.464 236.687 260.198L232.098 262.861C230.814 263.687 230.814 264.881 232.098 265.615ZM253.207 275.072L257.795 272.41C259.08 271.675 259.08 270.482 257.795 269.655L253.207 266.993C251.922 266.258 249.811 266.258 248.526 266.993L243.937 269.655C242.653 270.39 242.653 271.583 243.937 272.41L248.526 275.072C249.811 275.807 251.922 275.898 253.207 275.072ZM265.046 281.958L269.634 279.296C270.919 278.561 270.919 277.367 269.634 276.541L265.046 273.879C263.761 273.144 261.65 273.144 260.365 273.879L255.776 276.541C254.491 277.276 254.491 278.469 255.776 279.296L260.365 281.958C261.65 282.693 263.761 282.693 265.046 281.958ZM276.793 288.752L281.381 286.09C282.666 285.355 282.666 284.162 281.381 283.335L276.793 280.673C275.508 279.938 273.397 279.938 272.112 280.673L267.523 283.335C266.239 284.07 266.239 285.263 267.523 286.09L272.112 288.752C273.397 289.487 275.508 289.487 276.793 288.752ZM288.632 295.546L293.22 292.884C294.505 292.149 294.505 290.956 293.22 290.13L288.632 287.467C287.347 286.732 285.236 286.732 283.951 287.467L279.362 290.13C278.078 290.864 278.078 292.058 279.362 292.884L283.951 295.546C285.236 296.281 287.347 296.281 288.632 295.546ZM300.379 302.341L304.968 299.678C306.252 298.944 306.252 297.75 304.968 296.924L300.379 294.261C299.094 293.527 296.983 293.527 295.698 294.261L291.11 296.924C289.825 297.658 289.825 298.852 291.11 299.678L295.698 302.341C296.983 303.075 299.094 303.075 300.379 302.341ZM312.218 309.135L316.807 306.472C318.091 305.738 318.091 304.544 316.807 303.718L312.218 301.055C310.933 300.321 308.822 300.321 307.537 301.055L302.949 303.718C301.664 304.452 301.664 305.646 302.949 306.472L307.537 309.135C308.822 309.869 310.933 309.961 312.218 309.135ZM314.696 313.358L319.284 316.021C320.569 316.755 322.68 316.755 323.965 316.021L328.554 313.358C329.839 312.624 329.839 311.43 328.554 310.604L323.965 307.941C322.68 307.207 320.569 307.207 319.284 307.941L314.696 310.604C313.411 311.338 313.411 312.624 314.696 313.358ZM347.367 321.53L335.712 314.827C334.427 314.093 332.316 314.093 331.032 314.827L326.443 317.49C325.158 318.224 325.158 319.418 326.443 320.244L338.098 326.947C339.383 327.681 341.494 327.681 342.779 326.947L347.367 324.284C348.652 323.549 348.652 322.264 347.367 321.53ZM175.657 245.967L196.673 258.087C198.142 258.913 200.528 258.913 201.996 258.087L205.943 255.791C207.411 254.965 207.411 253.588 205.943 252.762L184.926 240.642C183.458 239.816 181.072 239.816 179.603 240.642L175.657 242.938C174.189 243.764 174.189 245.049 175.657 245.967ZM204.474 262.586L208.421 264.881C209.889 265.707 212.275 265.707 213.744 264.881L217.69 262.586C219.158 261.759 219.158 260.382 217.69 259.556L213.744 257.26C212.275 256.434 209.889 256.434 208.421 257.26L204.474 259.556C203.006 260.382 203.006 261.759 204.474 262.586ZM216.313 269.38L220.26 271.675C221.728 272.501 224.114 272.501 225.582 271.675L229.529 269.38C230.997 268.553 230.997 267.176 229.529 266.35L225.582 264.055C224.114 263.228 221.728 263.228 220.26 264.055L216.313 266.35C214.753 267.176 214.845 268.553 216.313 269.38ZM228.06 276.174L232.007 278.469C233.475 279.296 235.861 279.296 237.33 278.469L241.276 276.174C242.744 275.348 242.744 273.97 241.276 273.144L237.33 270.849C235.861 270.022 233.475 270.022 232.007 270.849L228.06 273.144C226.592 273.97 226.592 275.348 228.06 276.174ZM239.899 283.06L243.846 285.355C245.314 286.182 247.7 286.182 249.169 285.355L253.115 283.06C254.583 282.234 254.583 280.856 253.115 280.03L249.169 277.735C247.7 276.908 245.314 276.908 243.846 277.735L239.899 280.03C238.339 280.765 238.431 282.142 239.899 283.06ZM251.646 289.854L255.593 292.149C257.061 292.976 259.447 292.976 260.916 292.149L264.862 289.854C266.33 289.028 266.33 287.651 264.862 286.824L260.916 284.529C259.447 283.703 257.061 283.703 255.593 284.529L251.646 286.824C250.178 287.651 250.178 289.028 251.646 289.854ZM263.485 296.648L267.432 298.944C268.9 299.77 271.286 299.77 272.755 298.944L276.701 296.648C278.169 295.822 278.169 294.445 276.701 293.618L272.755 291.323C271.286 290.497 268.9 290.497 267.432 291.323L263.485 293.618C262.017 294.445 262.017 295.822 263.485 296.648ZM275.233 303.442L279.179 305.738C280.647 306.564 283.033 306.564 284.502 305.738L288.448 303.442C289.916 302.616 289.916 301.239 288.448 300.413L284.502 298.117C283.033 297.291 280.647 297.291 279.179 298.117L275.233 300.413C273.764 301.239 273.764 302.616 275.233 303.442ZM287.071 310.237L291.018 312.532C292.486 313.358 294.872 313.358 296.341 312.532L300.287 310.237C301.755 309.41 301.755 308.033 300.287 307.207L296.341 304.911C294.872 304.085 292.486 304.085 291.018 304.911L287.071 307.207C285.603 308.033 285.603 309.41 287.071 310.237ZM298.819 317.123L302.765 319.418C304.233 320.244 306.62 320.244 308.088 319.418L312.034 317.123C313.503 316.296 313.503 314.919 312.034 314.093L308.088 311.797C306.62 310.971 304.233 310.971 302.765 311.797L298.819 314.093C297.35 314.827 297.35 316.204 298.819 317.123ZM310.658 323.917L314.604 326.212C316.072 327.038 318.458 327.038 319.927 326.212L323.873 323.917C325.342 323.09 325.342 321.713 323.873 320.887L319.927 318.592C318.458 317.765 316.072 317.765 314.604 318.592L310.658 320.887C309.189 321.713 309.189 323.09 310.658 323.917ZM335.896 327.865L331.949 325.569C330.481 324.743 328.095 324.743 326.626 325.569L322.68 327.865C321.212 328.691 321.212 330.068 322.68 330.895L326.626 333.19C328.095 334.016 330.481 334.016 331.949 333.19L335.896 330.895C337.364 330.068 337.364 328.691 335.896 327.865ZM183.183 252.211L174.005 246.886C172.537 246.059 170.151 246.059 168.682 246.886L164.736 249.181C163.267 250.007 163.267 251.384 164.736 252.211L173.913 257.536C175.382 258.362 177.768 258.362 179.236 257.536L183.183 255.241C184.651 254.414 184.651 253.037 183.183 252.211ZM194.93 259.005L190.983 256.71C189.515 255.883 187.129 255.883 185.66 256.71L181.714 259.005C180.246 259.831 180.246 261.208 181.714 262.035L185.66 264.33C187.129 265.156 189.515 265.156 190.983 264.33L194.93 262.035C196.49 261.3 196.49 259.923 194.93 259.005ZM206.769 265.891L202.822 263.596C201.354 262.769 198.968 262.769 197.499 263.596L193.553 265.891C192.085 266.717 192.085 268.094 193.553 268.921L197.499 271.216C198.968 272.042 201.354 272.042 202.822 271.216L206.769 268.921C208.237 268.094 208.237 266.717 206.769 265.891ZM289.366 313.542L214.661 270.39C213.193 269.563 210.807 269.563 209.338 270.39L205.392 272.685C203.924 273.511 203.924 274.889 205.392 275.715L280.097 318.867C281.565 319.693 283.951 319.693 285.42 318.867L289.366 316.572C290.834 315.745 290.834 314.368 289.366 313.542ZM301.113 320.336L297.167 318.041C295.698 317.214 293.312 317.214 291.844 318.041L287.897 320.336C286.429 321.162 286.429 322.54 287.897 323.366L291.844 325.661C293.312 326.488 295.698 326.488 297.167 325.661L301.113 323.366C302.581 322.631 302.581 321.254 301.113 320.336ZM312.952 327.222L309.006 324.927C307.537 324.1 305.151 324.1 303.683 324.927L299.736 327.222C298.268 328.048 298.268 329.426 299.736 330.252L303.683 332.547C305.151 333.374 307.537 333.374 309.006 332.547L312.952 330.252C314.42 329.426 314.42 328.048 312.952 327.222ZM324.974 334.108L321.028 331.813C319.56 330.986 317.174 330.986 315.705 331.813L311.759 334.108C310.291 334.934 310.291 336.312 311.759 337.138L315.705 339.433C317.174 340.259 319.56 340.259 321.028 339.433L324.974 337.138C326.443 336.312 326.443 335.026 324.974 334.108Z" fill="url(#paint12_linear)"/>
<path d="M415.005 302.433L230.814 196.021C223.655 191.89 217.873 180.872 217.873 171.323V26.7177C217.873 17.1691 223.655 12.8539 230.814 16.9855L415.005 123.397C422.164 127.528 427.946 138.546 427.946 148.095V292.609C427.854 302.157 422.072 306.564 415.005 302.433Z" fill="url(#paint13_linear)"/>
<path d="M416.657 294.996L234.393 189.686C228.611 186.013 225.124 178.76 225.124 171.323V26.0749C225.124 24.3305 227.051 23.2287 228.611 24.1468C228.795 24.2386 228.886 24.3305 228.978 24.4223L411.334 129.824C418.126 133.772 420.604 140.75 420.604 148.186V293.068C420.604 294.996 418.585 296.189 416.933 295.179C416.841 295.087 416.749 294.996 416.657 294.996Z" fill="url(#paint14_linear)"/>
<path d="M411.334 129.732L228.978 24.3305C228.886 24.2387 228.795 24.2387 228.611 24.055C227.051 23.1369 225.124 24.2387 225.124 25.9831V171.232C225.124 178.668 228.703 186.013 234.393 189.594L416.657 294.996C416.749 294.996 416.841 295.087 416.933 295.179C418.585 296.097 420.604 294.904 420.604 293.068V148.095C420.604 140.658 418.218 133.68 411.334 129.732ZM419.227 292.976C419.227 293.618 418.676 293.986 418.218 293.986C418.034 293.986 417.85 293.986 417.759 293.894L235.127 188.401C229.988 185.095 226.592 178.393 226.592 171.232V26.0749C226.592 25.524 227.051 25.2486 227.418 25.2486C227.601 25.2486 227.693 25.2486 227.877 25.3404L410.692 131.017C417.759 135.057 419.227 142.586 419.227 148.186V292.976Z" fill="url(#paint15_linear)"/>
<path d="M418.676 121.469L234.484 15.0574C231.639 13.4047 229.07 13.1293 226.959 13.9556C226.684 14.0474 223.104 15.9755 222.829 16.1591C225.032 15.0574 227.785 15.3328 230.905 17.0773L415.097 123.489C422.256 127.62 428.037 138.638 428.037 148.186V292.7C428.037 298.668 425.743 302.524 422.347 303.718C422.623 303.718 422.99 303.626 423.449 303.351C423.632 303.259 427.487 301.055 427.67 300.963C430.148 299.219 431.617 295.73 431.617 290.864V146.167C431.525 136.618 425.743 125.6 418.676 121.469Z" fill="#FF6B00"/>
<path d="M415.648 123.121L231.456 16.71C228.519 15.0574 225.858 14.782 223.655 15.7001C225.491 15.4247 227.601 15.8837 229.896 17.1691L414.088 123.581C421.246 127.712 427.028 138.73 427.028 148.278V292.792C427.028 298.393 425.009 302.249 421.888 303.534C425.835 302.892 428.588 298.852 428.588 292.333V147.819C428.496 138.271 422.714 127.253 415.648 123.121Z" fill="url(#paint16_radial)"/>
<path d="M417.67 314.695L219.801 201.622L223.655 194.828L422.51 309.854L417.67 314.695Z" fill="url(#paint17_linear)"/>
<path d="M416.657 294.996L234.393 189.686C228.611 186.013 225.123 178.76 225.123 171.323V26.0749C225.123 24.3305 227.051 23.2287 228.611 24.1468C228.794 24.2386 228.886 24.3305 228.978 24.4223L411.334 129.824C418.125 133.772 420.603 140.75 420.603 148.186V293.068C420.603 294.996 418.584 296.189 416.932 295.179C416.841 295.087 416.749 294.996 416.657 294.996Z" fill="url(#paint18_linear)"/>
<path d="M272.02 211.446L234.484 189.686C228.702 186.013 225.215 178.76 225.215 171.323V26.0749C225.215 24.3305 227.142 23.2287 228.702 24.1468C228.886 24.2386 228.978 24.3305 229.069 24.4223L276.058 51.6908V213.833L272.02 211.446Z" fill="#00749A"/>
<path d="M239.899 111.002L266.973 126.61C267.523 126.978 268.349 126.519 268.349 125.876V124.59C268.349 124.315 268.166 123.948 267.89 123.856L240.817 108.064C240.266 107.697 239.44 108.156 239.44 108.799V110.176C239.44 110.543 239.624 110.818 239.899 111.002Z" fill="#6ABFD3"/>
<path d="M239.899 120.918L266.973 136.526C267.523 136.893 268.349 136.434 268.349 135.792V134.506C268.349 134.231 268.166 133.863 267.89 133.772L240.817 117.98C240.266 117.613 239.44 118.072 239.44 118.714V120.092C239.44 120.459 239.624 120.826 239.899 120.918Z" fill="#6ABFD3"/>
<path d="M239.899 131.109L266.973 146.717C267.523 147.085 268.349 146.626 268.349 145.983V144.697C268.349 144.422 268.166 144.055 267.89 143.963L240.817 128.171C240.266 127.804 239.44 128.263 239.44 128.906V130.283C239.44 130.65 239.624 131.017 239.899 131.109Z" fill="#6ABFD3"/>
<path d="M239.899 141.117L266.973 156.725C267.523 157.092 268.349 156.633 268.349 155.991V154.705C268.349 154.43 268.166 154.062 267.89 153.971L240.817 138.179C240.266 137.812 239.44 138.271 239.44 138.913V140.291C239.44 140.658 239.624 140.933 239.899 141.117Z" fill="#6ABFD3"/>
<path d="M239.899 152.41L266.973 168.018C267.523 168.385 268.349 167.926 268.349 167.283V165.998C268.349 165.723 268.166 165.355 267.89 165.264L240.817 149.472C240.266 149.105 239.44 149.564 239.44 150.206V151.583C239.44 151.951 239.624 152.226 239.899 152.41Z" fill="#6ABFD3"/>
<path d="M239.899 162.326L266.973 177.934C267.523 178.301 268.349 177.842 268.349 177.199V175.914C268.349 175.639 268.166 175.271 267.89 175.18L240.817 159.388C240.266 159.02 239.44 159.479 239.44 160.122V161.499C239.44 161.867 239.624 162.142 239.899 162.326Z" fill="#6ABFD3"/>
<path d="M236.962 106.687C236.779 106.595 236.687 106.228 236.779 106.136C236.962 106.044 236.962 105.769 236.779 105.493L236.503 104.851C236.32 104.575 236.136 104.483 236.044 104.575C235.953 104.667 235.677 104.392 235.677 104.208C235.677 103.932 235.494 103.657 235.31 103.565L234.851 103.29C234.668 103.198 234.484 103.29 234.484 103.565C234.484 103.841 234.301 103.841 234.117 103.565C233.934 103.29 233.75 103.198 233.658 103.29L233.383 103.565C233.199 103.657 233.199 103.932 233.383 104.208C233.475 104.483 233.383 104.667 233.199 104.575C233.016 104.483 232.832 104.575 232.832 104.851V105.402C232.832 105.677 233.016 105.952 233.199 106.044C233.383 106.136 233.475 106.503 233.383 106.595C233.199 106.687 233.199 106.962 233.383 107.238L233.658 107.88C233.842 108.156 234.025 108.248 234.117 108.156C234.209 108.064 234.484 108.34 234.484 108.523C234.484 108.799 234.668 109.074 234.851 109.166L235.31 109.441C235.494 109.533 235.677 109.441 235.677 109.166C235.677 108.89 235.861 108.89 236.044 109.166C236.228 109.441 236.411 109.533 236.503 109.441L236.779 109.166C236.962 109.074 236.962 108.799 236.779 108.523C236.687 108.248 236.779 108.064 236.962 108.156C237.146 108.248 237.329 108.156 237.329 107.88V107.33C237.329 107.054 237.146 106.779 236.962 106.687ZM235.127 108.064C234.392 107.697 233.842 106.595 233.842 105.677C233.842 104.759 234.392 104.3 235.127 104.759C235.861 105.126 236.411 106.228 236.411 107.146C236.411 108.064 235.861 108.431 235.127 108.064Z" fill="#6ABFD3"/>
<path d="M236.962 116.878C236.779 116.786 236.687 116.419 236.779 116.327C236.962 116.235 236.962 115.96 236.779 115.684L236.503 115.042C236.32 114.766 236.136 114.675 236.044 114.766C235.953 114.858 235.677 114.583 235.677 114.399C235.677 114.124 235.494 113.848 235.31 113.756L234.851 113.481C234.668 113.389 234.484 113.481 234.484 113.756C234.484 114.032 234.301 114.032 234.117 113.756C233.934 113.481 233.75 113.389 233.658 113.481L233.383 113.756C233.199 113.848 233.199 114.124 233.383 114.399C233.475 114.675 233.383 114.858 233.199 114.766C233.016 114.675 232.832 114.766 232.832 115.042V115.593C232.832 115.868 233.016 116.144 233.199 116.235C233.383 116.327 233.475 116.694 233.383 116.786C233.199 116.878 233.199 117.153 233.383 117.429L233.658 118.072C233.842 118.347 234.025 118.439 234.117 118.347C234.209 118.255 234.484 118.531 234.484 118.714C234.484 118.99 234.668 119.265 234.851 119.357L235.31 119.632C235.494 119.724 235.677 119.632 235.677 119.357C235.677 119.082 235.861 119.082 236.044 119.357C236.228 119.632 236.411 119.724 236.503 119.632L236.779 119.357C236.962 119.265 236.962 118.99 236.779 118.714C236.687 118.439 236.779 118.255 236.962 118.347C237.146 118.439 237.329 118.347 237.329 118.072V117.521C237.329 117.337 237.146 116.97 236.962 116.878ZM235.127 118.255C234.392 117.888 233.842 116.786 233.842 115.868C233.842 114.95 234.392 114.491 235.127 114.95C235.861 115.317 236.411 116.419 236.411 117.337C236.411 118.255 235.861 118.714 235.127 118.255Z" fill="#6ABFD3"/>
<path d="M236.962 127.161C236.779 127.069 236.687 126.702 236.779 126.61C236.962 126.518 236.962 126.243 236.779 125.968L236.503 125.325C236.32 125.049 236.136 124.958 236.044 125.049C235.953 125.141 235.677 124.866 235.677 124.682C235.677 124.407 235.494 124.131 235.31 124.039L234.851 123.764C234.668 123.672 234.484 123.764 234.484 124.039C234.484 124.315 234.301 124.315 234.117 124.039C233.934 123.764 233.75 123.672 233.658 123.764L233.383 124.039C233.199 124.131 233.199 124.407 233.383 124.682C233.475 124.958 233.383 125.141 233.199 125.049C233.016 124.958 232.832 125.049 232.832 125.325V125.876C232.832 126.151 233.016 126.427 233.199 126.518C233.383 126.61 233.475 126.977 233.383 127.069C233.199 127.161 233.199 127.437 233.383 127.712L233.658 128.355C233.842 128.63 234.025 128.722 234.117 128.63C234.209 128.538 234.484 128.814 234.484 128.997C234.484 129.273 234.668 129.548 234.851 129.64L235.31 129.916C235.494 130.007 235.677 129.916 235.677 129.64C235.677 129.365 235.861 129.365 236.044 129.64C236.228 129.916 236.411 130.007 236.503 129.916L236.779 129.64C236.962 129.548 236.962 129.273 236.779 128.997C236.687 128.722 236.779 128.538 236.962 128.63C237.146 128.722 237.329 128.63 237.329 128.355V127.804C237.329 127.528 237.146 127.253 236.962 127.161ZM235.127 128.538C234.392 128.171 233.842 127.069 233.842 126.151C233.842 125.233 234.392 124.774 235.127 125.233C235.861 125.6 236.411 126.702 236.411 127.62C236.411 128.446 235.861 128.906 235.127 128.538Z" fill="#6ABFD3"/>
<path d="M236.962 137.352C236.779 137.261 236.687 136.893 236.779 136.802C236.962 136.71 236.962 136.434 236.779 136.159L236.503 135.516C236.32 135.241 236.136 135.149 236.044 135.241C235.953 135.333 235.677 135.057 235.677 134.873C235.677 134.598 235.494 134.323 235.31 134.231L234.851 133.955C234.668 133.864 234.484 133.955 234.484 134.231C234.484 134.506 234.301 134.506 234.117 134.231C233.934 133.955 233.75 133.864 233.658 133.955L233.383 134.231C233.199 134.323 233.199 134.598 233.383 134.873C233.475 135.149 233.383 135.333 233.199 135.241C233.016 135.149 232.832 135.241 232.832 135.516V136.067C232.832 136.342 233.016 136.618 233.199 136.71C233.383 136.802 233.475 137.169 233.383 137.261C233.199 137.352 233.199 137.628 233.383 137.903L233.658 138.546C233.842 138.821 234.025 138.913 234.117 138.821C234.209 138.73 234.484 139.005 234.484 139.189C234.484 139.464 234.668 139.74 234.851 139.831L235.31 140.107C235.494 140.199 235.677 140.107 235.677 139.831C235.677 139.556 235.861 139.556 236.044 139.831C236.228 140.107 236.411 140.199 236.503 140.107L236.779 139.831C236.962 139.74 236.962 139.464 236.779 139.189C236.687 138.913 236.779 138.73 236.962 138.821C237.146 138.913 237.329 138.821 237.329 138.546V137.995C237.329 137.72 237.146 137.444 236.962 137.352ZM235.127 138.73C234.392 138.362 233.842 137.261 233.842 136.342C233.842 135.424 234.392 134.965 235.127 135.424C235.861 135.792 236.411 136.893 236.411 137.811C236.411 138.73 235.861 139.097 235.127 138.73Z" fill="#6ABFD3"/>
<path d="M236.962 148.278C236.779 148.186 236.687 147.819 236.779 147.727C236.962 147.635 236.962 147.36 236.779 147.085L236.503 146.442C236.32 146.166 236.136 146.075 236.044 146.166C235.953 146.258 235.677 145.983 235.677 145.799C235.677 145.524 235.494 145.248 235.31 145.157L234.851 144.881C234.668 144.789 234.484 144.881 234.484 145.157C234.484 145.432 234.301 145.432 234.117 145.157C233.934 144.881 233.75 144.789 233.658 144.881L233.383 145.157C233.199 145.248 233.199 145.524 233.383 145.799C233.475 146.075 233.383 146.258 233.199 146.166C233.016 146.075 232.832 146.166 232.832 146.442V146.993C232.832 147.268 233.016 147.544 233.199 147.636C233.383 147.727 233.475 148.095 233.383 148.186C233.199 148.278 233.199 148.554 233.383 148.829L233.658 149.472C233.842 149.747 234.025 149.839 234.117 149.747C234.209 149.655 234.484 149.931 234.484 150.114C234.484 150.39 234.668 150.665 234.851 150.757L235.31 151.033C235.494 151.124 235.677 151.033 235.677 150.757C235.677 150.482 235.861 150.482 236.044 150.757C236.228 151.033 236.411 151.124 236.503 151.033L236.779 150.757C236.962 150.665 236.962 150.39 236.779 150.114C236.687 149.839 236.779 149.655 236.962 149.747C237.146 149.839 237.329 149.747 237.329 149.472V148.921C237.329 148.645 237.146 148.37 236.962 148.278ZM235.127 149.655C234.392 149.288 233.842 148.186 233.842 147.268C233.842 146.35 234.392 145.891 235.127 146.35C235.861 146.717 236.411 147.819 236.411 148.737C236.411 149.564 235.861 150.023 235.127 149.655Z" fill="#6ABFD3"/>
<path d="M236.962 159.02C236.779 158.929 236.687 158.561 236.779 158.47C236.962 158.378 236.962 158.102 236.779 157.827L236.503 157.184C236.32 156.909 236.136 156.817 236.044 156.909C235.953 157 235.677 156.725 235.677 156.541C235.677 156.266 235.494 155.991 235.31 155.899L234.851 155.623C234.668 155.531 234.484 155.623 234.484 155.899C234.484 156.174 234.301 156.174 234.117 155.899C233.934 155.623 233.75 155.531 233.658 155.623L233.383 155.899C233.199 155.991 233.199 156.266 233.383 156.541C233.475 156.817 233.383 157 233.199 156.909C233.016 156.817 232.832 156.909 232.832 157.184V157.735C232.832 158.01 233.016 158.286 233.199 158.378C233.383 158.47 233.475 158.837 233.383 158.929C233.199 159.02 233.199 159.296 233.383 159.571L233.658 160.214C233.842 160.489 234.025 160.581 234.117 160.489C234.209 160.398 234.484 160.673 234.484 160.857C234.484 161.132 234.668 161.408 234.851 161.499L235.31 161.775C235.494 161.867 235.677 161.775 235.677 161.499C235.677 161.224 235.861 161.224 236.044 161.499C236.228 161.775 236.411 161.867 236.503 161.775L236.779 161.499C236.962 161.408 236.962 161.132 236.779 160.857C236.687 160.581 236.779 160.398 236.962 160.489C237.146 160.581 237.329 160.489 237.329 160.214V159.663C237.329 159.388 237.146 159.112 236.962 159.02ZM235.127 160.398C234.392 160.03 233.842 158.929 233.842 158.01C233.842 157.092 234.392 156.633 235.127 157.092C235.861 157.46 236.411 158.561 236.411 159.479C236.411 160.398 235.861 160.765 235.127 160.398Z" fill="#6ABFD3"/>
<path d="M235.31 74.5522C235.31 80.7037 238.889 87.9569 244.12 93.2821L236.687 68.9516C235.769 70.5124 235.31 72.3487 235.31 74.5522ZM261.466 87.6815C261.466 85.7534 260.732 84.009 260.181 82.7236C259.355 80.9791 258.621 79.5101 258.621 78.2248C258.621 76.7557 259.722 76.0212 261.282 76.8476C261.374 76.8476 261.466 76.9394 261.466 76.9394C258.713 72.8996 254.95 69.4107 250.912 67.2072C245.497 64.2692 240.633 64.5446 237.88 67.299C238.247 67.4826 238.614 67.6662 238.889 67.8499C240.541 68.6762 243.019 69.8698 243.019 69.8698C243.845 70.237 243.937 71.5224 243.111 71.247C243.111 71.247 242.285 70.8797 241.367 70.4206L247.057 90.3441L250.453 81.8973L247.975 73.9095C247.149 73.4505 246.323 72.8996 246.323 72.8996C245.497 72.4405 245.589 71.1551 246.415 71.706C246.415 71.706 248.985 73.2668 250.545 74.0932C252.197 74.9195 254.675 76.1131 254.675 76.1131C255.501 76.4803 255.592 77.7657 254.766 77.4903C254.766 77.4903 253.94 77.123 253.023 76.6639L258.621 96.4038L260.181 91.9967C261.007 90.3441 261.466 89.0587 261.466 87.6815Z" fill="white"/>
<path d="M251.187 84.3763L246.507 95.4857C247.975 96.6792 249.443 97.6892 250.912 98.5155C252.655 99.4336 254.399 100.076 256.051 100.352C256.051 100.26 255.959 100.168 255.959 100.076L251.187 84.3763ZM264.678 82.6318C264.77 83.1827 264.77 83.7336 264.77 84.2845C264.77 85.8453 264.494 87.4979 263.577 89.2424L258.804 100.535C263.393 100.26 266.513 96.9547 266.513 91.1705C266.513 88.5997 265.871 85.6617 264.678 82.6318Z" fill="white"/>
<path d="M250.912 64.6365C240.908 59.3113 232.74 63.1674 232.74 73.1751C232.74 83.1827 240.908 95.7611 250.912 101.086C260.915 106.411 269.083 102.555 269.083 92.5476C269.083 82.54 261.007 70.0534 250.912 64.6365ZM250.912 100.26C241.367 95.2102 233.566 83.2745 233.566 73.6341C233.566 63.9938 241.367 60.413 250.912 65.4628C260.456 70.5125 268.257 82.4482 268.257 92.0886C268.257 101.729 260.548 105.31 250.912 100.26Z" fill="white"/>
<path d="M284.135 90.3441V118.99L409.682 191.43V162.876L284.135 90.3441Z" fill="#B7B7B7"/>
<path d="M284.135 76.0212V83.6417L409.682 156.082V148.554L284.135 76.0212Z" fill="#B7B7B7"/>
<path d="M284.135 184.177V189.227L368.017 237.612V232.563L284.135 184.177Z" fill="#B7B7B7"/>
<path d="M306.252 143.688V145.065C306.252 145.34 306.344 145.524 306.619 145.616L342.87 166.549C343.329 166.824 343.88 166.457 343.88 165.998V164.621C343.88 164.345 343.788 164.162 343.513 164.07L307.262 143.137C306.803 142.861 306.252 143.228 306.252 143.688Z" fill="#B7B7B7"/>
<path d="M306.252 157.459V158.837C306.252 159.112 306.344 159.296 306.619 159.388L333.601 174.996C334.06 175.271 334.611 174.904 334.611 174.445V173.068C334.611 172.792 334.519 172.609 334.244 172.517L307.262 156.909C306.803 156.633 306.252 156.909 306.252 157.459Z" fill="#B7B7B7"/>
<path d="M306.252 150.757V152.134C306.252 152.41 306.344 152.593 306.619 152.685L324.056 162.693C324.515 162.968 325.066 162.601 325.066 162.142V160.765C325.066 160.489 324.974 160.306 324.699 160.214L307.262 150.206C306.803 149.931 306.252 150.206 306.252 150.757Z" fill="#B7B7B7"/>
<path d="M306.252 171.323V172.7C306.252 172.976 306.344 173.16 306.619 173.251L342.87 194.185C343.329 194.46 343.88 194.093 343.88 193.634V192.257C343.88 191.981 343.788 191.798 343.513 191.706L307.262 170.772C306.803 170.497 306.252 170.864 306.252 171.323Z" fill="#B7B7B7"/>
<path d="M306.252 185.095V186.472C306.252 186.748 306.344 186.931 306.619 187.023L333.601 202.632C334.06 202.907 334.611 202.54 334.611 202.081V200.703C334.611 200.428 334.519 200.244 334.244 200.153L307.262 184.544C306.803 184.269 306.252 184.544 306.252 185.095Z" fill="#B7B7B7"/>
<path d="M306.252 178.393V179.77C306.252 180.046 306.344 180.229 306.619 180.321L324.056 190.329C324.515 190.604 325.066 190.237 325.066 189.778V188.401C325.066 188.125 324.974 187.942 324.699 187.85L307.262 177.842C306.803 177.567 306.252 177.842 306.252 178.393Z" fill="#B7B7B7"/>
<path d="M298.934 151.943C301.767 149.806 300.897 143.872 296.992 138.69C293.086 133.507 287.623 131.038 284.79 133.175C281.957 135.311 282.827 141.245 286.732 146.428C290.638 151.61 296.101 154.08 298.934 151.943Z" fill="#B7B7B7"/>
<path d="M375.634 183.351V184.728C375.634 185.003 375.726 185.187 376.001 185.279L412.252 206.212C412.711 206.488 413.261 206.12 413.261 205.661V204.284C413.261 204.009 413.17 203.825 412.894 203.733L376.643 182.8C376.184 182.525 375.634 182.892 375.634 183.351Z" fill="#B7B7B7"/>
<path d="M375.634 197.123V198.5C375.634 198.775 375.726 198.959 376.001 199.051L402.983 214.659C403.442 214.935 403.992 214.567 403.992 214.108V212.731C403.992 212.456 403.9 212.272 403.625 212.18L376.643 196.572C376.184 196.296 375.634 196.572 375.634 197.123Z" fill="#B7B7B7"/>
<path d="M375.634 190.42V191.798C375.634 192.073 375.726 192.257 376.001 192.348L393.438 202.356C393.897 202.632 394.448 202.264 394.448 201.805V200.428C394.448 200.153 394.356 199.969 394.081 199.877L376.643 189.87C376.184 189.594 375.634 189.961 375.634 190.42Z" fill="#B7B7B7"/>
<path d="M368.305 191.584C371.138 189.447 370.269 183.513 366.363 178.331C362.457 173.148 356.995 170.679 354.161 172.816C351.328 174.952 352.198 180.886 356.104 186.069C360.009 191.251 365.472 193.72 368.305 191.584Z" fill="#B7B7B7"/>
<path d="M375.634 211.17V212.547C375.634 212.823 375.726 213.006 376.001 213.098L412.252 234.032C412.711 234.307 413.261 233.94 413.261 233.481V232.104C413.261 231.828 413.17 231.645 412.894 231.553L376.643 210.619C376.184 210.344 375.634 210.619 375.634 211.17Z" fill="#B7B7B7"/>
<path d="M375.634 224.85V226.228C375.634 226.503 375.726 226.687 376.001 226.778L402.983 242.387C403.442 242.662 403.992 242.295 403.992 241.836V240.459C403.992 240.183 403.9 240 403.625 239.908L376.643 224.299C376.184 224.024 375.634 224.391 375.634 224.85Z" fill="#B7B7B7"/>
<path d="M375.634 218.148V219.525C375.634 219.801 375.726 219.984 376.001 220.076L393.438 230.084C393.897 230.359 394.448 229.992 394.448 229.533V228.156C394.448 227.88 394.356 227.697 394.081 227.605L376.643 217.597C376.184 217.322 375.634 217.689 375.634 218.148Z" fill="#B7B7B7"/>
<path d="M368.292 219.315C371.125 217.178 370.256 211.245 366.35 206.062C362.444 200.88 356.982 198.41 354.149 200.547C351.315 202.684 352.185 208.618 356.091 213.8C359.996 218.983 365.459 221.452 368.292 219.315Z" fill="#B7B7B7"/>
<path d="M298.909 179.495C301.742 177.358 300.872 171.424 296.967 166.242C293.061 161.059 287.598 158.59 284.765 160.727C281.932 162.863 282.801 168.797 286.707 173.98C290.613 179.162 296.076 181.632 298.909 179.495Z" fill="#B7B7B7"/>
<path d="M447.218 132.119C444.281 130.466 442.813 124.866 444.924 123.397C447.218 121.652 447.218 116.786 444.924 112.471L439.785 102.647C437.49 98.3319 433.911 96.2202 431.617 97.9646C429.598 99.5254 426.018 95.5775 426.018 91.6295C426.018 87.4061 423.449 82.4482 420.236 80.6119L412.986 76.3885C411.518 75.4704 410.141 75.4704 409.04 76.2049L401.514 80.5201C399.404 76.5722 396.192 74.5523 393.897 75.654C393.897 75.654 388.482 78.7757 383.527 81.7137C385.087 84.6517 387.106 87.3143 389.033 90.0687C392.062 94.5675 393.805 99.5254 395.733 104.575C399.404 114.032 404.818 122.662 408.03 132.395C409.591 137.261 411.334 142.127 413.72 146.626C415.74 150.482 418.126 154.154 420.604 157.643C425.835 164.988 431.8 171.782 437.49 178.76L444.832 174.17C447.127 172.425 447.127 167.559 444.832 163.244C444.465 162.601 444.281 161.958 444.098 161.408L450.889 157.46C452.082 156.725 452.908 155.072 452.908 152.777V143.137C453 138.913 450.43 133.955 447.218 132.119Z" fill="#ABB7B7"/>
<path d="M373.34 105.218V114.858C373.34 119.082 375.909 124.04 379.121 125.876C382.058 127.528 383.527 133.129 381.416 134.598C379.121 136.342 379.121 141.209 381.416 145.524L386.555 155.348C388.85 159.663 392.429 161.775 394.723 160.03C396.742 158.469 400.321 162.417 400.321 166.365C400.321 170.589 402.891 175.547 406.103 177.383L413.353 181.606C416.566 183.443 419.135 181.515 419.135 177.199C419.135 173.343 422.623 173.435 424.733 177.383C427.028 181.698 430.607 183.81 432.901 182.065L438.041 178.209C440.335 176.465 440.335 171.599 438.041 167.284C436.022 163.336 437.398 159.479 440.335 161.224C443.547 163.06 446.117 161.132 446.117 156.817V147.176C446.117 142.953 443.547 137.995 440.335 136.159C437.398 134.506 435.93 128.906 438.041 127.437C440.335 125.692 440.335 120.826 438.041 116.511L432.901 106.687C430.607 102.372 427.028 100.26 424.733 102.004C422.714 103.565 419.135 99.6172 419.135 95.6693C419.135 91.4459 416.566 86.488 413.353 84.6517L406.103 80.4283C402.891 78.592 400.321 80.5201 400.321 84.8353C400.321 88.6915 396.834 88.5997 394.723 84.6517C392.429 80.3365 388.85 78.2248 386.555 79.9692L381.416 83.8254C379.121 85.5698 379.121 90.4359 381.416 94.7511C383.435 98.6991 382.058 102.555 379.121 100.811C375.909 98.9745 373.34 100.994 373.34 105.218Z" fill="#FF6B00"/>
<path d="M409.682 105.861C420.145 111.92 428.588 128.079 428.588 141.943C428.588 155.899 420.145 162.234 409.682 156.266C399.22 150.206 390.777 134.047 390.777 120.183C390.869 106.228 399.312 99.8009 409.682 105.861Z" fill="#ABB7B7"/>
<path d="M409.682 113.573C416.933 117.704 422.806 128.997 422.806 138.638C422.806 148.278 416.933 152.685 409.682 148.554C402.432 144.422 396.559 133.129 396.559 123.489C396.559 113.848 402.524 109.441 409.682 113.573Z" fill="#FF6B00"/>
<path d="M449.971 179.77C448.595 178.944 447.861 176.281 448.87 175.547C449.971 174.72 449.971 172.333 448.87 170.313L446.392 165.631C445.291 163.519 443.547 162.509 442.446 163.336C441.436 164.07 439.784 162.142 439.784 160.306C439.784 158.286 438.5 155.899 437.031 154.981L433.544 152.961C432.809 152.502 432.167 152.502 431.616 152.869L428.037 154.981C427.028 153.053 425.468 152.134 424.366 152.593C424.366 152.593 421.797 154.062 419.319 155.531C420.053 156.909 421.062 158.194 421.98 159.571C423.448 161.775 424.274 164.162 425.192 166.549C426.936 171.14 429.597 175.271 431.066 179.954C431.8 182.341 432.626 184.636 433.819 186.84C434.829 188.676 435.93 190.42 437.123 192.165C439.601 195.654 442.538 198.959 445.199 202.264L448.778 200.061C449.88 199.235 449.88 196.847 448.778 194.828C448.595 194.552 448.503 194.185 448.411 193.909L451.715 191.981C452.266 191.614 452.633 190.88 452.633 189.778V185.095C452.816 183.075 451.532 180.688 449.971 179.77Z" fill="#ABB7B7"/>
<path d="M414.455 166.825V171.507C414.455 173.527 415.739 175.914 417.208 176.832C418.584 177.659 419.319 180.321 418.309 181.056C417.208 181.882 417.208 184.269 418.309 186.289L420.787 190.971C421.888 193.083 423.632 194.093 424.733 193.267C425.743 192.532 427.395 194.46 427.395 196.297C427.395 198.316 428.68 200.704 430.148 201.622L433.635 203.642C435.196 204.56 436.389 203.55 436.389 201.53C436.389 199.694 438.041 199.694 439.05 201.622C440.151 203.733 441.895 204.743 442.997 203.917L445.474 202.081C446.576 201.254 446.576 198.867 445.474 196.847C444.465 194.919 445.199 193.083 446.576 193.909C448.136 194.828 449.329 193.818 449.329 191.798V187.115C449.329 185.095 448.044 182.708 446.576 181.79C445.199 180.964 444.465 178.301 445.474 177.567C446.576 176.74 446.576 174.353 445.474 172.333L442.997 167.651C441.895 165.539 440.151 164.529 439.05 165.356C438.041 166.09 436.389 164.162 436.389 162.326C436.389 160.306 435.104 157.919 433.635 157.001L430.148 154.981C428.588 154.063 427.395 155.072 427.395 157.092C427.395 158.929 425.743 158.929 424.733 157.001C423.632 154.889 421.888 153.879 420.787 154.705L418.309 156.541C417.208 157.368 417.208 159.755 418.309 161.775C419.319 163.703 418.584 165.539 417.208 164.713C415.739 163.887 414.455 164.805 414.455 166.825Z" fill="url(#paint19_linear)"/>
<path d="M431.984 167.192C437.031 170.13 441.069 177.842 441.069 184.544C441.069 191.247 437.031 194.277 431.984 191.43C426.936 188.492 422.898 180.78 422.898 174.078C422.898 167.375 426.936 164.254 431.984 167.192Z" fill="#ABB7B7"/>
<path d="M431.984 170.864C435.471 172.884 438.316 178.301 438.316 182.892C438.316 187.482 435.471 189.686 431.984 187.666C428.496 185.646 425.651 180.229 425.651 175.639C425.651 171.048 428.496 168.844 431.984 170.864Z" fill="#999999"/>
</g>
<defs>
<linearGradient id="paint0_linear" x1="16.34" y1="188.297" x2="247.535" y2="188.297" gradientUnits="userSpaceOnUse">
<stop stop-color="#FFA565"/>
<stop offset="1" stop-color="#FF720D"/>
</linearGradient>
<linearGradient id="paint1_linear" x1="10.0079" y1="189.672" x2="253.866" y2="189.672" gradientUnits="userSpaceOnUse">
<stop stop-color="#FFA565"/>
<stop offset="1" stop-color="#FF720D"/>
</linearGradient>
<linearGradient id="paint2_linear" x1="29.1" y1="188.574" x2="234.777" y2="188.574" gradientUnits="userSpaceOnUse">
<stop stop-color="#FFA565"/>
<stop offset="1" stop-color="#FF720D"/>
</linearGradient>
<linearGradient id="paint3_linear" x1="35.8045" y1="210.906" x2="228.17" y2="210.906" gradientUnits="userSpaceOnUse">
<stop stop-color="#6B6B6B"/>
<stop offset="0.1905" stop-color="#707070"/>
<stop offset="0.4152" stop-color="#7E7E7E"/>
<stop offset="0.657" stop-color="#969696"/>
<stop offset="0.9093" stop-color="#B7B7B7"/>
<stop offset="1" stop-color="#C5C5C5"/>
</linearGradient>
<linearGradient id="paint4_linear" x1="35.7992" y1="175.317" x2="228.078" y2="175.317" gradientUnits="userSpaceOnUse">
<stop stop-color="#525252"/>
<stop offset="0.4022" stop-color="#5E5E5E"/>
<stop offset="0.6747" stop-color="#616161"/>
<stop offset="1" stop-color="#D6D6D6"/>
</linearGradient>
<linearGradient id="paint5_linear" x1="52.8744" y1="194.972" x2="211.098" y2="194.972" gradientUnits="userSpaceOnUse">
<stop stop-color="#6B6B6B"/>
<stop offset="0.1905" stop-color="#707070"/>
<stop offset="0.4152" stop-color="#7E7E7E"/>
<stop offset="0.657" stop-color="#969696"/>
<stop offset="0.9093" stop-color="#B7B7B7"/>
<stop offset="1" stop-color="#C5C5C5"/>
</linearGradient>
<linearGradient id="paint6_linear" x1="52.87" y1="165.633" x2="211.099" y2="165.633" gradientUnits="userSpaceOnUse">
<stop stop-color="#C5C5C5"/>
<stop offset="0.3103" stop-color="#CBCBCB"/>
<stop offset="0.6946" stop-color="#DADADA"/>
<stop offset="1" stop-color="#EBEBEB"/>
</linearGradient>
<linearGradient id="paint7_linear" x1="89.9515" y1="164.713" x2="174.017" y2="164.713" gradientUnits="userSpaceOnUse">
<stop stop-color="#6B6B6B"/>
<stop offset="0.1905" stop-color="#707070"/>
<stop offset="0.4152" stop-color="#7E7E7E"/>
<stop offset="0.657" stop-color="#969696"/>
<stop offset="0.9093" stop-color="#B7B7B7"/>
<stop offset="1" stop-color="#C5C5C5"/>
</linearGradient>
<linearGradient id="paint8_linear" x1="34.6434" y1="148.875" x2="228.746" y2="148.875" gradientUnits="userSpaceOnUse">
<stop stop-color="#FF6B00"/>
<stop offset="1" stop-color="#FFA048"/>
</linearGradient>
<linearGradient id="paint9_linear" x1="40.6709" y1="105.039" x2="85.0708" y2="105.039" gradientUnits="userSpaceOnUse">
<stop stop-color="#FF6B00"/>
<stop offset="1" stop-color="#F59D34"/>
</linearGradient>
<linearGradient id="paint10_linear" x1="81.714" y1="289.125" x2="423.108" y2="289.125" gradientUnits="userSpaceOnUse">
<stop stop-color="#C8C8C8"/>
<stop offset="0.2285" stop-color="#CFCFCF"/>
<stop offset="0.549" stop-color="#E1E1E1"/>
<stop offset="0.5808" stop-color="#E3E3E3"/>
<stop offset="0.9935" stop-color="#F3F3F3"/>
<stop offset="1" stop-color="#F3F3F3"/>
</linearGradient>
<linearGradient id="paint11_linear" x1="85.5323" y1="289.126" x2="419.29" y2="289.126" gradientUnits="userSpaceOnUse">
<stop stop-color="#C8C8C8"/>
<stop offset="0.2038" stop-color="#CCCCCC"/>
<stop offset="0.3938" stop-color="#D7D7D7"/>
<stop offset="0.5202" stop-color="#E3E3E3"/>
<stop offset="0.8152" stop-color="#F3F3F3"/>
<stop offset="1" stop-color="white"/>
</linearGradient>
<linearGradient id="paint12_linear" x1="226.708" y1="210.646" x2="313.931" y2="347.471" gradientUnits="userSpaceOnUse">
<stop stop-color="#C5C5C5"/>
<stop offset="0.3103" stop-color="#CBCBCB"/>
<stop offset="0.6946" stop-color="#DADADA"/>
<stop offset="1" stop-color="#EBEBEB"/>
</linearGradient>
<linearGradient id="paint13_linear" x1="99.5318" y1="-34.3916" x2="454.822" y2="274.086" gradientUnits="userSpaceOnUse">
<stop stop-color="#BFBFBF"/>
<stop offset="0.3103" stop-color="#CBCBCB"/>
<stop offset="0.6946" stop-color="#DADADA"/>
<stop offset="1" stop-color="#EBEBEB"/>
</linearGradient>
<linearGradient id="paint14_linear" x1="163.859" y1="-27.7082" x2="501.475" y2="369.359" gradientUnits="userSpaceOnUse">
<stop stop-color="#B7B7B7"/>
<stop offset="0.1016" stop-color="#C0C0C0"/>
<stop offset="0.3915" stop-color="#D3D3D3"/>
<stop offset="0.6883" stop-color="#DEDEDE"/>
<stop offset="1" stop-color="#E2E2E2"/>
</linearGradient>
<linearGradient id="paint15_linear" x1="212.483" y1="29.2604" x2="440.584" y2="298.074" gradientUnits="userSpaceOnUse">
<stop stop-color="#BFBFBF"/>
<stop offset="0.3103" stop-color="#CBCBCB"/>
<stop offset="0.6946" stop-color="#DADADA"/>
<stop offset="1" stop-color="#EBEBEB"/>
</linearGradient>
<radialGradient id="paint16_radial" cx="0" cy="0" r="1" gradientUnits="userSpaceOnUse" gradientTransform="translate(423.436 138.946) scale(29.6703 29.6827)">
<stop stop-color="white"/>
<stop offset="1" stop-color="#EAE9E9"/>
</radialGradient>
<linearGradient id="paint17_linear" x1="219.803" y1="256.438" x2="426.721" y2="256.438" gradientUnits="userSpaceOnUse">
<stop stop-color="#C8C8C8"/>
<stop offset="0.2038" stop-color="#CCCCCC"/>
<stop offset="0.3938" stop-color="#D7D7D7"/>
<stop offset="0.5202" stop-color="#E3E3E3"/>
<stop offset="0.8152" stop-color="#F3F3F3"/>
<stop offset="1" stop-color="#E8E8E8"/>
</linearGradient>
<linearGradient id="paint18_linear" x1="163.859" y1="-27.708" x2="501.475" y2="369.36" gradientUnits="userSpaceOnUse">
<stop stop-color="#B7B7B7"/>
<stop offset="0.1016" stop-color="#C0C0C0"/>
<stop offset="0.3915" stop-color="#D3D3D3"/>
<stop offset="0.6883" stop-color="#DEDEDE"/>
<stop offset="1" stop-color="#E2E2E2"/>
</linearGradient>
<linearGradient id="paint19_linear" x1="414.463" y1="179.268" x2="449.433" y2="179.268" gradientUnits="userSpaceOnUse">
<stop stop-color="#BFBFBF"/>
<stop offset="0.3103" stop-color="#CBCBCB"/>
<stop offset="0.6946" stop-color="#DADADA"/>
<stop offset="1" stop-color="#EBEBEB"/>
</linearGradient>
<clipPath id="clip0">
<rect width="453" height="397" fill="white"/>
</clipPath>
</defs>
</svg>
