<svg width="120" height="120" viewBox="0 0 120 120" fill="none" xmlns="http://www.w3.org/2000/svg">
<path fill-rule="evenodd" clip-rule="evenodd" d="M50.6506 75.3721V94.7057C50.6506 97.16 48.6492 99.136 46.1631 99.136H42.5975C40.1114 99.136 38.1099 97.16 38.1099 94.7057V92.6421H31.1769V95.212C31.1769 99.6494 34.7954 103.222 39.2901 103.222H48.5016C52.9963 103.222 56.6148 99.6494 56.6148 95.212V75.3857L50.6506 75.3721ZM90.5618 76.3841L100.695 89.0762L89.4729 102.493H98.7688L104.966 93.6646L111.29 102.493H120L108.987 88.9521L119.33 76.3841H110.745L104.841 84.6527L99.2717 76.3841H90.5618ZM11.7257 76.4737L0 102.403H7.66914L9.94887 96.9075H21.734L24.0138 102.403H31.6829L19.9278 76.4737H11.7257ZM68.5989 76.4737L56.8731 102.403H64.5423L66.822 96.9075H78.6071L80.8869 102.403H88.556L76.8009 76.4737H68.5989ZM15.8905 82.5872L17.8801 87.5177L19.8696 92.4488L15.9024 92.4581L11.9353 92.468L13.9129 87.5276L15.8905 82.5872ZM72.7637 82.5872L74.7532 87.5177L76.7427 92.4488L72.7755 92.4581L68.8084 92.468L70.786 87.5276L72.7637 82.5872Z" fill="url(#paint0_linear)"/>
<path d="M72.1776 16L59.141 28.8528L63.6289 32.9234L67.8743 28.6451L68.3482 28.6459V53.1891C68.3482 56.3049 65.8457 58.8133 62.7374 58.8133H58.2792C55.1709 58.8133 52.6684 56.3049 52.6684 53.1891V50.5695H44V53.8319C44 59.465 48.5243 64 54.144 64H65.6613C71.281 64 75.8053 59.465 75.8053 53.8319V28.6632L76.1408 28.664L81.1002 32.9234L85 28.8529L72.1776 16V16Z" fill="#4294CC"/>
<path d="M47.8224 48L60.859 35.1472L56.3711 31.0766L52.1257 35.3549L51.6518 35.3541V10.8109C51.6518 7.69515 54.1543 5.18675 57.2626 5.18675H61.7208C64.8291 5.18675 67.3316 7.69515 67.3316 10.8109V13.4305H76V10.1681C76 4.53502 71.4757 0 65.856 0H54.3387C48.719 0 44.1947 4.53502 44.1947 10.1681V35.3369L43.8592 35.336L38.8998 31.0766L35 35.1471L47.8224 48V48Z" fill="#4294CC"/>
<defs>
<linearGradient id="paint0_linear" x1="48.1841" y1="52.2978" x2="48.1841" y2="103.065" gradientUnits="userSpaceOnUse">
<stop stop-color="#70B0DF"/>
<stop offset="0.5" stop-color="#1B81C5"/>
<stop offset="1" stop-color="#4A98CE"/>
</linearGradient>
</defs>
</svg>
