<svg width="120" height="120" viewBox="0 0 120 120" fill="none" xmlns="http://www.w3.org/2000/svg">
<path d="M18.6475 92.1143L27.3413 103.78V92.1143H29.0792V106.595H27.2416L18.5485 94.8274V106.595H16.8096V92.1143H18.6475Z" fill="#CCCCCC"/>
<path d="M43.1865 106.028C42.0412 106.474 40.8053 106.697 39.4807 106.697C34.3352 106.697 31.7613 104.182 31.7613 99.1523C31.7613 94.3928 34.2451 92.0127 39.2118 92.0127C40.6369 92.0127 41.9619 92.2158 43.1863 92.6213V94.2414C41.9617 93.7687 40.7026 93.5321 39.4105 93.5321C35.5365 93.5321 33.6 95.4062 33.6 99.1523C33.6 103.169 35.5062 105.178 39.3224 105.178C39.931 105.178 40.6064 105.097 41.3489 104.934V100.013H43.1865V106.028Z" fill="#CCCCCC"/>
<path d="M46.1176 101.005V92.1149H47.9542V101.005C47.9542 103.787 49.3125 105.179 52.0284 105.179C54.7436 105.179 56.1019 103.786 56.1019 101.005V92.1149H57.9395V101.005C57.9395 104.801 55.9692 106.697 52.0284 106.697C48.0879 106.697 46.1176 104.801 46.1176 101.005Z" fill="#CCCCCC"/>
<path d="M70.4884 105.077V106.595H61.2189V92.1143H63.0558V105.077H70.4884Z" fill="#CCCCCC"/>
<path d="M78.2964 90.2043L85.3598 106.596H83.3237L81.4851 102.038H76.7872L77.2935 100.521H80.8701L78.2173 93.9578L73.1402 106.596H71.2331L78.2964 90.2043Z" fill="#CCCCCC"/>
<path d="M87.2974 106.595V92.1143H93.358C96.0607 92.1143 97.4116 93.2725 97.4116 95.5874C97.4116 97.4715 96.091 98.8658 93.4477 99.7694L98.3256 106.595H95.9014L91.3817 100.084V98.8598C94.0966 98.4199 95.4541 97.3568 95.4541 95.6696C95.4541 94.3334 94.6992 93.664 93.1901 93.664H89.1355V106.596H87.2976L87.2974 106.595Z" fill="#CCCCCC"/>
<path d="M105.211 92.1143V102.423C105.211 105.205 103.605 106.595 100.392 106.595V105.076C102.379 105.076 103.373 104.191 103.373 102.423V92.1143H105.211Z" fill="#CCCCCC"/>
<path d="M108.49 106.089V104.367C109.98 104.907 111.589 105.178 113.318 105.178C115.762 105.178 116.984 104.266 116.984 102.442C116.984 100.892 116.083 100.114 114.282 100.114H112.453C109.48 100.114 107.992 98.7981 107.992 96.165C107.992 93.3975 109.897 92.0122 113.706 92.0122C115.362 92.0122 116.901 92.2163 118.326 92.6209V94.3424C116.901 93.8018 115.362 93.5317 113.706 93.5317C111.123 93.5317 109.831 94.4097 109.831 96.165C109.831 97.7169 110.705 98.4935 112.453 98.4935H114.282C117.308 98.4935 118.822 99.8109 118.822 102.442C118.822 105.279 116.988 106.697 113.318 106.697C111.589 106.697 109.98 106.493 108.49 106.089Z" fill="#CCCCCC"/>
<path d="M19.1122 91.6412L27.8052 103.307V91.6412H29.5441V106.122H27.7063L19.0126 94.3543V106.122H17.2745V91.6412H19.1122Z" fill="black"/>
<path d="M43.6514 105.555C42.5061 106.001 41.2708 106.223 39.9458 106.223C34.7999 106.223 32.2264 103.709 32.2264 98.6793C32.2264 93.9197 34.7102 91.5394 39.6779 91.5394C41.1018 91.5394 42.427 91.7427 43.6514 92.148V93.7679C42.4268 93.2952 41.1677 93.0586 39.8764 93.0586C36.0022 93.0586 34.0653 94.9327 34.0653 98.6789C34.0653 102.696 35.9723 104.705 39.7875 104.705C40.3963 104.705 41.0725 104.624 41.8148 104.461V99.5397H43.6516L43.6514 105.555Z" fill="black"/>
<path d="M46.5823 100.532V91.6405H48.419V100.532C48.419 103.313 49.7772 104.704 52.4934 104.704C55.2083 104.704 56.5666 103.313 56.5666 100.532V91.6405H58.4043V100.532C58.4043 104.327 56.434 106.223 52.4934 106.223C48.5526 106.223 46.5823 104.327 46.5823 100.532Z" fill="black"/>
<path d="M70.9526 104.603V106.121H61.6839V91.6405H63.5207V104.603H70.9526Z" fill="black"/>
<path d="M78.7615 89.7297L85.825 106.122H83.7877L81.95 101.565H77.2511L77.7586 100.046H81.3342L78.6822 93.4833L73.6051 106.122H71.6978L78.7615 89.7297Z" fill="black"/>
<path d="M7.06367 89.7297L14.1271 106.122H12.0898L10.2522 101.565H5.5533L6.06077 100.046H9.63635L6.98442 93.4833L1.90729 106.122H0L7.06367 89.7297Z" fill="black"/>
<path d="M87.7624 106.122V91.6412H93.8228C96.5257 91.6412 97.8754 92.7987 97.8754 95.1145C97.8754 96.9976 96.5556 98.3927 93.9125 99.2961L98.7906 106.122H96.3654L91.8463 99.6109V98.3854C94.5614 97.9454 95.9195 96.8833 95.9195 95.1951C95.9195 93.8589 95.1638 93.1905 93.6536 93.1905H89.6003V106.122H87.7624Z" fill="black"/>
<path d="M105.676 91.6405V101.95C105.676 104.732 104.07 106.121 100.857 106.121V104.603C102.844 104.603 103.838 103.717 103.838 101.95V91.6405H105.676Z" fill="#A6120D"/>
<path d="M108.954 105.615V103.894C110.445 104.433 112.053 104.704 113.782 104.704C116.226 104.704 117.449 103.792 117.449 101.969C117.449 100.418 116.547 99.6407 114.746 99.6407H112.917C109.944 99.6407 108.456 98.3244 108.456 95.6911C108.456 92.9236 110.36 91.5385 114.17 91.5385C115.826 91.5385 117.366 91.7426 118.79 92.1472V93.8689C117.365 93.3281 115.826 93.058 114.17 93.058C111.587 93.058 110.295 93.936 110.295 95.6913C110.295 97.2432 111.169 98.0198 112.917 98.0198H114.746C117.772 98.0198 119.286 99.3366 119.286 101.969C119.286 104.805 117.452 106.223 113.782 106.223C112.053 106.223 110.444 106.019 108.954 105.615Z" fill="#A6120D"/>
<path d="M91.9779 113.851L91.3031 111.76H90.8233L91.7545 114.403C91.7329 114.46 91.6974 114.548 91.6492 114.666C91.6006 114.784 91.5721 114.849 91.5647 114.862C91.5396 114.9 91.5087 114.933 91.4716 114.959C91.4347 114.986 91.3773 114.999 91.2994 114.999C91.2744 114.999 91.2451 114.996 91.2122 114.991C91.1795 114.987 91.1261 114.974 91.0526 114.953V115.346C91.0996 115.359 91.1395 115.368 91.1712 115.373C91.2033 115.377 91.2495 115.38 91.3091 115.38C91.5535 115.38 91.7257 115.308 91.8258 115.164C91.9261 115.02 92.0981 114.621 92.3427 113.967C92.4462 113.689 92.5745 113.329 92.7284 112.888C92.9334 112.301 93.0663 111.925 93.1255 111.76H92.6575L91.9779 113.851ZM89.4722 114.028C89.167 114.028 88.9585 113.886 88.847 113.603C88.7872 113.453 88.7577 113.258 88.7577 113.016C88.7577 112.683 88.8301 112.443 88.976 112.297C89.1215 112.152 89.2908 112.079 89.4843 112.079C89.7058 112.079 89.8738 112.168 89.9881 112.345C90.1023 112.523 90.1593 112.746 90.1593 113.016C90.1593 113.32 90.1025 113.564 89.9881 113.75C89.8738 113.935 89.7018 114.028 89.4722 114.028ZM88.3692 114.327H88.7595V113.999C88.849 114.122 88.9333 114.212 89.0121 114.268C89.1442 114.362 89.3063 114.409 89.4983 114.409C89.8415 114.409 90.1097 114.275 90.3036 114.006C90.4972 113.737 90.5937 113.401 90.5937 112.995C90.5937 112.567 90.496 112.243 90.2998 112.023C90.1037 111.803 89.8485 111.693 89.534 111.693C89.3827 111.693 89.2429 111.726 89.1135 111.791C88.9844 111.855 88.8739 111.949 88.7808 112.072V110.795H88.3692V114.327Z" fill="black"/>
<path d="M105.019 113.354C105.019 114.492 104.145 115.331 103.073 115.331C102 115.331 101.127 114.492 101.127 113.354C101.127 112.207 102 111.376 103.073 111.376C104.145 111.376 105.019 112.207 105.019 113.354ZM104.167 113.354C104.167 112.642 103.66 112.155 103.073 112.155C102.485 112.155 101.978 112.642 101.978 113.354C101.978 114.058 102.485 114.552 103.073 114.552C103.66 114.552 104.167 114.057 104.167 113.354Z" fill="black"/>
<path d="M109.217 113.354C109.217 114.492 108.344 115.331 107.271 115.331C106.199 115.331 105.325 114.492 105.325 113.354C105.325 112.208 106.199 111.376 107.271 111.376C108.344 111.376 109.217 112.207 109.217 113.354ZM108.365 113.354C108.365 112.642 107.859 112.155 107.271 112.155C106.683 112.155 106.177 112.642 106.177 113.354C106.177 114.058 106.683 114.552 107.271 114.552C107.859 114.552 108.365 114.057 108.365 113.354Z" fill="black"/>
<path d="M113.241 111.496V115.046C113.241 116.506 112.396 117.103 111.397 117.103C110.457 117.103 109.891 116.462 109.677 115.937L110.419 115.623C110.551 115.944 110.875 116.324 111.396 116.324C112.036 116.324 112.432 115.922 112.432 115.165V114.881H112.402C112.211 115.121 111.844 115.33 111.38 115.33C110.41 115.33 109.522 114.469 109.522 113.361C109.522 112.245 110.41 111.376 111.38 111.376C111.843 111.376 112.21 111.586 112.402 111.818H112.432V111.497H113.241V111.496ZM112.492 113.361C112.492 112.664 112.036 112.155 111.456 112.155C110.869 112.155 110.376 112.664 110.376 113.361C110.376 114.05 110.869 114.552 111.456 114.552C112.036 114.552 112.492 114.05 112.492 113.361Z" fill="black"/>
<path d="M114.575 109.415V115.21H113.744V109.415H114.575Z" fill="black"/>
<path d="M117.813 114.004L118.474 114.454C118.261 114.776 117.746 115.33 116.858 115.33C115.756 115.33 114.932 114.462 114.932 113.353C114.932 112.177 115.763 111.375 116.762 111.375C117.769 111.375 118.261 112.192 118.422 112.633L118.511 112.858L115.917 113.953C116.116 114.349 116.425 114.552 116.858 114.552C117.291 114.552 117.592 114.334 117.813 114.004ZM115.777 113.293L117.511 112.559C117.416 112.312 117.129 112.14 116.791 112.14C116.358 112.14 115.756 112.53 115.777 113.293Z" fill="black"/>
<path d="M97.9812 112.839V112H100.755C100.782 112.146 100.796 112.319 100.796 112.507C100.796 113.136 100.627 113.914 100.083 114.469C99.5539 115.031 98.8777 115.33 97.9821 115.33C96.3219 115.33 94.9259 113.952 94.9259 112.26C94.9259 110.567 96.3219 109.189 97.9821 109.189C98.9005 109.189 99.5547 109.556 100.046 110.035L99.4655 110.627C99.113 110.29 98.6355 110.028 97.9812 110.028C96.7689 110.028 95.8207 111.024 95.8207 112.26C95.8207 113.495 96.7689 114.491 97.9812 114.491C98.7675 114.491 99.2154 114.169 99.5023 113.877C99.7349 113.64 99.888 113.301 99.9484 112.838L97.9812 112.839V112.839Z" fill="black"/>
<path d="M32.8644 62.8757L64.0059 80.3215L95.3077 62.6393L101.143 13.3115L63.9665 0.295654L27.027 13.546L32.8644 62.8757Z" fill="#B3B3B3"/>
<path d="M63.8804 76.1534L92.0202 60.2794L97.4583 16.1625L63.8804 4.49121V76.1534Z" fill="#A6120D"/>
<path d="M63.8799 76.1534V4.48984L31.1722 16.3728L36.1742 60.4902L63.8799 76.1534Z" fill="#DD1B16"/>
<path d="M73.123 42.6402L63.8802 47.0456H54.1384L49.559 58.7205L41.0412 58.8813L63.8802 7.09326L73.123 42.6402ZM72.2296 40.4223L63.9414 23.6981L57.1431 40.1345H63.8798L72.2296 40.4223Z" fill="#F2F2F2"/>
<path d="M71.6553 40.1472H63.8974L63.88 47.0351L74.6073 47.0456L79.6209 58.8831L87.771 59.037L63.88 7.09326L63.9412 23.6981L71.6553 40.1472Z" fill="#B3B3B3"/>
</svg>
