<svg width="64" height="64" viewBox="0 0 64 64" fill="none" xmlns="http://www.w3.org/2000/svg">
<path d="M59 2H13C12.2046 2.00089 11.4421 2.31725 10.8797 2.87967C10.3173 3.44208 10.0009 4.20462 10 5V6H9C8.20462 6.00089 7.44208 6.31725 6.87967 6.87967C6.31725 7.44208 6.00089 8.20462 6 9V10H5C4.20462 10.0009 3.44208 10.3173 2.87967 10.8797C2.31725 11.4421 2.00089 12.2046 2 13V59C2.00089 59.7954 2.31725 60.5579 2.87967 61.1203C3.44208 61.6828 4.20462 61.9991 5 62H51C51.7954 61.9991 52.5579 61.6828 53.1203 61.1203C53.6828 60.5579 53.9991 59.7954 54 59V58H55C55.7954 57.9991 56.5579 57.6828 57.1203 57.1203C57.6828 56.5579 57.9991 55.7954 58 55V54H59C59.7954 53.9991 60.5579 53.6828 61.1203 53.1203C61.6828 52.5579 61.9991 51.7954 62 51V5C61.9991 4.20462 61.6828 3.44208 61.1203 2.87967C60.5579 2.31725 59.7954 2.00089 59 2ZM52 59C51.9997 59.2651 51.8943 59.5193 51.7068 59.7068C51.5193 59.8943 51.2651 59.9997 51 60H5C4.73487 59.9997 4.48069 59.8943 4.29322 59.7068C4.10575 59.5193 4.0003 59.2651 4 59V13C4.0003 12.7349 4.10575 12.4807 4.29322 12.2932C4.48069 12.1058 4.73487 12.0003 5 12H6V55C6.00089 55.7954 6.31725 56.5579 6.87967 57.1203C7.44208 57.6828 8.20462 57.9991 9 58H52V59ZM56 55C55.9997 55.2651 55.8943 55.5193 55.7068 55.7068C55.5193 55.8943 55.2651 55.9997 55 56H9C8.73487 55.9997 8.48069 55.8943 8.29322 55.7068C8.10575 55.5193 8.0003 55.2651 8 55V9C8.0003 8.73487 8.10575 8.48069 8.29322 8.29322C8.48069 8.10575 8.73487 8.0003 9 8H10V51C10.0009 51.7954 10.3173 52.5579 10.8797 53.1203C11.4421 53.6828 12.2046 53.9991 13 54H56V55ZM60 51C59.9997 51.2651 59.8943 51.5193 59.7068 51.7068C59.5193 51.8943 59.2651 51.9997 59 52H13C12.7349 51.9997 12.4807 51.8943 12.2932 51.7068C12.1058 51.5193 12.0003 51.2651 12 51V5C12.0003 4.73487 12.1058 4.48069 12.2932 4.29322C12.4807 4.10575 12.7349 4.0003 13 4H59C59.2651 4.0003 59.5193 4.10575 59.7068 4.29322C59.8943 4.48069 59.9997 4.73487 60 5V51Z" fill="#7F8284"/>
<path d="M16 14H56V16H16V14Z" fill="#FF6B00"/>
<path d="M16 21H48V23H16V21Z" fill="#FF6B00"/>
<path d="M16 27H41V29H16V27Z" fill="#FF6B00"/>
<path d="M16 33H27V35H16V33Z" fill="#FF6B00"/>
<path fill-rule="evenodd" clip-rule="evenodd" d="M54 35H35V46H54V35ZM33 33V48H56V33H33Z" fill="#FF6B00"/>
<path d="M33 6C32.4067 6 31.8266 6.17595 31.3333 6.50559C30.8399 6.83524 30.4554 7.30377 30.2284 7.85195C30.0013 8.40013 29.9419 9.00333 30.0576 9.58527C30.1734 10.1672 30.4591 10.7018 30.8787 11.1213C31.2982 11.5409 31.8328 11.8266 32.4147 11.9424C32.9967 12.0581 33.5999 11.9987 34.1481 11.7716C34.6962 11.5446 35.1648 11.1601 35.4944 10.6667C35.8241 10.1734 36 9.59334 36 9C35.9991 8.20462 35.6828 7.44208 35.1203 6.87967C34.5579 6.31725 33.7954 6.00089 33 6ZM33 10C32.8022 10 32.6089 9.94135 32.4444 9.83147C32.28 9.72159 32.1518 9.56541 32.0761 9.38268C32.0004 9.19996 31.9806 8.99889 32.0192 8.80491C32.0578 8.61093 32.153 8.43274 32.2929 8.29289C32.4328 8.15304 32.6109 8.0578 32.8049 8.01921C32.9989 7.98063 33.2 8.00043 33.3827 8.07612C33.5654 8.15181 33.7216 8.27998 33.8315 8.44443C33.9414 8.60888 34 8.80222 34 9C33.9997 9.26512 33.8943 9.5193 33.7068 9.70678C33.5193 9.89425 33.2651 9.9997 33 10Z" fill="#FF6B00"/>
<path d="M26 12C26.5933 12 27.1734 11.8241 27.6667 11.4944C28.1601 11.1648 28.5446 10.6962 28.7716 10.1481C28.9987 9.59987 29.0581 8.99667 28.9424 8.41473C28.8266 7.83279 28.5409 7.29824 28.1213 6.87868C27.7018 6.45912 27.1672 6.1734 26.5853 6.05765C26.0033 5.94189 25.4001 6.0013 24.8519 6.22836C24.3038 6.45543 23.8352 6.83994 23.5056 7.33329C23.1759 7.82664 23 8.40666 23 9C23.0009 9.79538 23.3172 10.5579 23.8797 11.1203C24.4421 11.6828 25.2046 11.9991 26 12ZM26 8C26.1978 8 26.3911 8.05865 26.5556 8.16853C26.72 8.27841 26.8482 8.43459 26.9239 8.61732C26.9996 8.80004 27.0194 9.00111 26.9808 9.19509C26.9422 9.38907 26.847 9.56726 26.7071 9.70711C26.5673 9.84696 26.3891 9.9422 26.1951 9.98079C26.0011 10.0194 25.8 9.99957 25.6173 9.92388C25.4346 9.84819 25.2784 9.72002 25.1685 9.55557C25.0586 9.39112 25 9.19778 25 9C25.0003 8.73488 25.1057 8.4807 25.2932 8.29322C25.4807 8.10575 25.7349 8.0003 26 8Z" fill="#FF6B00"/>
<path d="M19 12C19.5933 12 20.1734 11.8241 20.6667 11.4944C21.1601 11.1648 21.5446 10.6962 21.7716 10.1481C21.9987 9.59987 22.0581 8.99667 21.9424 8.41473C21.8266 7.83279 21.5409 7.29824 21.1213 6.87868C20.7018 6.45912 20.1672 6.1734 19.5853 6.05765C19.0033 5.94189 18.4001 6.0013 17.8519 6.22836C17.3038 6.45543 16.8352 6.83994 16.5056 7.33329C16.1759 7.82664 16 8.40666 16 9C16.0009 9.79538 16.3173 10.5579 16.8797 11.1203C17.4421 11.6828 18.2046 11.9991 19 12ZM19 8C19.1978 8 19.3911 8.05865 19.5556 8.16853C19.72 8.27841 19.8482 8.43459 19.9239 8.61732C19.9996 8.80004 20.0194 9.00111 19.9808 9.19509C19.9422 9.38907 19.847 9.56726 19.7071 9.70711C19.5673 9.84696 19.3891 9.9422 19.1951 9.98079C19.0011 10.0194 18.8 9.99957 18.6173 9.92388C18.4346 9.84819 18.2784 9.72002 18.1685 9.55557C18.0586 9.39112 18 9.19778 18 9C18.0003 8.73488 18.1057 8.4807 18.2932 8.29322C18.4807 8.10575 18.7349 8.0003 19 8Z" fill="#FF6B00"/>
</svg>
