<svg width="120" height="120" viewBox="0 0 120 120" fill="none" xmlns="http://www.w3.org/2000/svg">
<path d="M98 70.3333C98 77.3 92.3 83 85.3333 83H34.6667C27.7 83 22 77.3 22 70.3333V19.6667C22 12.7 27.7 7 34.6667 7H85.3333C92.3 7 98 12.7 98 19.6667V70.3333Z" fill="#563D7C"/>
<path d="M43 24H64.1371C68.0355 24 71.1665 24.8997 73.5178 26.7115C75.869 28.5232 77.0508 31.2471 77.0508 34.9076C77.0508 37.126 76.5147 39.0241 75.4426 40.6017C74.3706 42.1793 72.8355 43.4118 70.8376 44.2745V44.3978C73.5178 44.977 75.5523 46.2588 76.9289 48.2431C78.3056 50.2398 79 52.7294 79 55.7367C79 57.4622 78.6954 59.0768 78.0863 60.5681C77.4772 62.0717 76.5269 63.3658 75.2234 64.4504C73.9198 65.535 72.2629 66.3978 70.2284 67.0387C68.1939 67.6796 65.7817 68 62.9797 68H43V24ZM50.6142 42.4258H63.0406C64.868 42.4258 66.3909 41.9081 67.6091 40.8482C68.8274 39.7882 69.4365 38.2846 69.4365 36.3126C69.4365 34.0941 68.8883 32.5289 67.7919 31.6291C66.6954 30.7294 65.1117 30.2734 63.0406 30.2734H50.6142V42.4258ZM50.6142 61.7143H64.0761C66.3909 61.7143 68.1939 61.1104 69.4609 59.8902C70.7401 58.6824 71.3858 56.9569 71.3858 54.7384C71.3858 52.5569 70.7523 50.893 69.4609 49.7098C68.1695 48.5266 66.3909 47.9597 64.0761 47.9597H50.6142V61.7143Z" fill="white"/>
<path d="M13.9122 98.8926C14.8392 99.1902 15.5653 99.6913 16.0907 100.396C16.616 101.085 16.8786 101.938 16.8786 102.956C16.8786 104.397 16.3224 105.509 15.21 106.292C14.113 107.059 12.5062 107.443 10.3895 107.443H2V91H9.92599C11.9036 91 13.4178 91.3837 14.4684 92.151C15.5344 92.9183 16.0675 93.9597 16.0675 95.2752C16.0675 96.0738 15.8744 96.7864 15.4881 97.4128C15.1173 98.0391 14.592 98.5324 13.9122 98.8926ZM5.73124 93.8658V97.7416H9.46249C10.3895 97.7416 11.0925 97.5772 11.5714 97.2483C12.0504 96.9195 12.2899 96.434 12.2899 95.7919C12.2899 95.1499 12.0504 94.6723 11.5714 94.3591C11.0925 94.0302 10.3895 93.8658 9.46249 93.8658H5.73124ZM10.1114 104.577C11.1002 104.577 11.8418 104.413 12.3362 104.084C12.8461 103.755 13.101 103.246 13.101 102.557C13.101 101.195 12.1045 100.513 10.1114 100.513H5.73124V104.577H10.1114Z" fill="#563D7C"/>
<path d="M25.399 107.631C24.0858 107.631 22.9038 107.357 21.8532 106.809C20.818 106.245 20.0069 105.47 19.4198 104.483C18.8327 103.497 18.5391 102.377 18.5391 101.124C18.5391 99.8714 18.8327 98.7517 19.4198 97.7651C20.0069 96.7785 20.818 96.0112 21.8532 95.4631C22.9038 94.8993 24.0858 94.6175 25.399 94.6175C26.7123 94.6175 27.8865 94.8993 28.9217 95.4631C29.9569 96.0112 30.768 96.7785 31.3551 97.7651C31.9422 98.7517 32.2358 99.8714 32.2358 101.124C32.2358 102.377 31.9422 103.497 31.3551 104.483C30.768 105.47 29.9569 106.245 28.9217 106.809C27.8865 107.357 26.7123 107.631 25.399 107.631ZM25.399 104.624C26.326 104.624 27.0831 104.311 27.6702 103.685C28.2728 103.043 28.5741 102.189 28.5741 101.124C28.5741 100.059 28.2728 99.2136 27.6702 98.5872C27.0831 97.9452 26.326 97.6242 25.399 97.6242C24.472 97.6242 23.7072 97.9452 23.1047 98.5872C22.5021 99.2136 22.2008 100.059 22.2008 101.124C22.2008 102.189 22.5021 103.043 23.1047 103.685C23.7072 104.311 24.472 104.624 25.399 104.624Z" fill="#563D7C"/>
<path d="M40.5853 107.631C39.272 107.631 38.09 107.357 37.0394 106.809C36.0043 106.245 35.1931 105.47 34.606 104.483C34.0189 103.497 33.7253 102.377 33.7253 101.124C33.7253 99.8714 34.0189 98.7517 34.606 97.7651C35.1931 96.7785 36.0043 96.0112 37.0394 95.4631C38.09 94.8993 39.272 94.6175 40.5853 94.6175C41.8985 94.6175 43.0728 94.8993 44.1079 95.4631C45.1431 96.0112 45.9542 96.7785 46.5414 97.7651C47.1285 98.7517 47.422 99.8714 47.422 101.124C47.422 102.377 47.1285 103.497 46.5414 104.483C45.9542 105.47 45.1431 106.245 44.1079 106.809C43.0728 107.357 41.8985 107.631 40.5853 107.631ZM40.5853 104.624C41.5123 104.624 42.2693 104.311 42.8565 103.685C43.459 103.043 43.7603 102.189 43.7603 101.124C43.7603 100.059 43.459 99.2136 42.8565 98.5872C42.2693 97.9452 41.5123 97.6242 40.5853 97.6242C39.6583 97.6242 38.8935 97.9452 38.2909 98.5872C37.6883 99.2136 37.3871 100.059 37.3871 101.124C37.3871 102.189 37.6883 103.043 38.2909 103.685C38.8935 104.311 39.6583 104.624 40.5853 104.624Z" fill="#563D7C"/>
<path d="M57.8805 106.832C57.5251 107.098 57.0848 107.302 56.5595 107.443C56.0496 107.568 55.5089 107.631 54.9372 107.631C53.454 107.631 52.3029 107.247 51.4841 106.48C50.6806 105.713 50.2789 104.585 50.2789 103.097V97.906H48.3554V95.0872H50.2789V92.0101H53.8943V95.0872H56.9998V97.906H53.8943V103.05C53.8943 103.583 54.0256 103.998 54.2883 104.295C54.5664 104.577 54.9526 104.718 55.4471 104.718C56.0187 104.718 56.5054 104.562 56.9071 104.248L57.8805 106.832Z" fill="#563D7C"/>
<path d="M64.1047 107.631C63.0695 107.631 62.0575 107.506 61.0687 107.255C60.0799 106.989 59.2919 106.66 58.7048 106.268L59.9099 103.638C60.4662 103.998 61.1382 104.295 61.9262 104.53C62.7142 104.749 63.4867 104.859 64.2438 104.859C65.7733 104.859 66.5381 104.475 66.5381 103.708C66.5381 103.348 66.3295 103.089 65.9124 102.933C65.4952 102.776 64.854 102.643 63.9888 102.534C62.9691 102.377 62.1271 102.197 61.4627 101.993C60.7983 101.79 60.2189 101.43 59.7245 100.913C59.2456 100.396 59.0061 99.66 59.0061 98.7047C59.0061 97.906 59.2301 97.2013 59.6782 96.5906C60.1417 95.9642 60.8061 95.4787 61.6713 95.1342C62.5519 94.7897 63.5871 94.6175 64.7768 94.6175C65.6575 94.6175 66.5304 94.7192 67.3956 94.9228C68.2763 95.1107 69.0024 95.377 69.5741 95.7215L68.369 98.3289C67.272 97.7025 66.0746 97.3893 64.7768 97.3893C64.0043 97.3893 63.4249 97.4989 63.0386 97.7181C62.6524 97.9374 62.4592 98.2192 62.4592 98.5638C62.4592 98.9553 62.6678 99.2293 63.085 99.3859C63.5021 99.5425 64.1665 99.6913 65.0781 99.8322C66.0978 100.004 66.9321 100.192 67.581 100.396C68.2299 100.584 68.7939 100.936 69.2728 101.453C69.7518 101.97 69.9913 102.69 69.9913 103.614C69.9913 104.397 69.7595 105.094 69.296 105.705C68.8325 106.315 68.1527 106.793 67.2566 107.138C66.3759 107.466 65.3253 107.631 64.1047 107.631Z" fill="#563D7C"/>
<path d="M80.2638 106.832C79.9084 107.098 79.4681 107.302 78.9428 107.443C78.4329 107.568 77.8921 107.631 77.3205 107.631C75.8373 107.631 74.6862 107.247 73.8673 106.48C73.0639 105.713 72.6622 104.585 72.6622 103.097V97.906H70.7387V95.0872H72.6622V92.0101H76.2776V95.0872H79.3831V97.906H76.2776V103.05C76.2776 103.583 76.4089 103.998 76.6716 104.295C76.9497 104.577 77.3359 104.718 77.8303 104.718C78.402 104.718 78.8887 104.562 79.2904 104.248L80.2638 106.832Z" fill="#563D7C"/>
<path d="M85.7464 96.4732C86.179 95.8624 86.7584 95.4004 87.4845 95.0872C88.2261 94.774 89.0759 94.6175 90.0338 94.6175V98C89.6321 97.9687 89.3617 97.953 89.2227 97.953C88.1875 97.953 87.3764 98.2506 86.7893 98.8456C86.2022 99.4251 85.9086 100.302 85.9086 101.477V107.443H82.2932V94.8054H85.7464V96.4732Z" fill="#563D7C"/>
<path d="M97.1447 94.6175C99.076 94.6175 100.559 95.0872 101.594 96.0268C102.63 96.9508 103.147 98.3523 103.147 100.232V107.443H99.7635V105.869C99.0837 107.044 97.8168 107.631 95.9627 107.631C95.0048 107.631 94.1705 107.466 93.4598 107.138C92.7645 106.809 92.2315 106.355 91.8607 105.775C91.4899 105.196 91.3045 104.538 91.3045 103.802C91.3045 102.628 91.7371 101.704 92.6023 101.03C93.483 100.357 94.8349 100.02 96.658 100.02H99.5318C99.5318 99.2215 99.2923 98.6107 98.8133 98.1879C98.3344 97.7494 97.6159 97.5302 96.658 97.5302C95.9937 97.5302 95.337 97.6398 94.6881 97.8591C94.0546 98.0626 93.5139 98.3445 93.0658 98.7047L91.768 96.1443C92.4478 95.6588 93.259 95.283 94.2014 95.0168C95.1593 94.7506 96.1404 94.6175 97.1447 94.6175ZM96.8666 105.164C97.4846 105.164 98.0331 105.023 98.512 104.742C98.991 104.444 99.3309 104.013 99.5318 103.45V102.158H97.052C95.5688 102.158 94.8272 102.651 94.8272 103.638C94.8272 104.107 95.0048 104.483 95.3602 104.765C95.731 105.031 96.2331 105.164 96.8666 105.164Z" fill="#563D7C"/>
<path d="M113.789 94.6175C114.948 94.6175 115.998 94.8915 116.941 95.4396C117.899 95.972 118.648 96.7315 119.189 97.7181C119.73 98.689 120 99.8244 120 101.124C120 102.424 119.73 103.567 119.189 104.554C118.648 105.525 117.899 106.284 116.941 106.832C115.998 107.365 114.948 107.631 113.789 107.631C112.198 107.631 110.946 107.122 110.035 106.104V112H106.419V94.8054H109.872V96.2617C110.768 95.1655 112.074 94.6175 113.789 94.6175ZM113.163 104.624C114.09 104.624 114.847 104.311 115.434 103.685C116.037 103.043 116.338 102.189 116.338 101.124C116.338 100.059 116.037 99.2136 115.434 98.5872C114.847 97.9452 114.09 97.6242 113.163 97.6242C112.236 97.6242 111.471 97.9452 110.869 98.5872C110.282 99.2136 109.988 100.059 109.988 101.124C109.988 102.189 110.282 103.043 110.869 103.685C111.471 104.311 112.236 104.624 113.163 104.624Z" fill="#563D7C"/>
</svg>
