<svg width="120" height="120" viewBox="0 0 120 120" fill="none" xmlns="http://www.w3.org/2000/svg">
<path d="M108 60C108 75.4344 100.714 89.1683 89.3936 97.9494C81.2728 104.25 71.0752 108 60 108C48.9248 108 38.7272 104.25 30.6064 97.9494C19.2863 89.1683 12 75.4344 12 60C12 33.4903 33.4903 12 60 12C86.5097 12 108 33.4903 108 60Z" fill="#F2F2F2"/>
<path d="M95 34L89.5002 97.8946C81.35 104.23 71.1154 108 60 108C48.8846 108 38.65 104.23 30.4998 97.8946L25 34H95Z" fill="#006BC0"/>
<path d="M60 40V107L82.8931 100.466L88 40H60Z" fill="#0096DC"/>
<path d="M80.493 66.5698H63.7657L81.2447 57.808L82 49H38L38.7699 57.98H56.4325L39.4856 66.3263L40.2741 75.5257H70.5044L69.5135 86.482L60 89.02L50.0901 86.2868L49.8424 79.4542H40.611L41.7657 92.9244L60 98L78.2341 92.9244L80.4936 66.5683L80.493 66.5698Z" fill="white"/>
<path d="M43.0035 24.6046V18.3351H52.0156V14.9393H39.7381V28.0004H52.0156V24.6046H43.0035Z" fill="#222123"/>
<path d="M57.2891 20.0494V18.4819H66.2525V18.3351V14.9393H53.9748V23.0371H62.7748V24.6046H53.9748V28.0004H66.2525V24.6046V20.0494H57.2891Z" fill="#222123"/>
<path d="M71.2972 20.0494V18.4819H80.2605V18.3351V14.9393H67.983V23.0371H76.7829V24.6046H67.983V28.0004H80.2605V24.6046V20.0494H71.2972Z" fill="#222123"/>
</svg>
