<svg width="120" height="120" viewBox="0 0 120 120" fill="none" xmlns="http://www.w3.org/2000/svg">
<path d="M84.748 49.1001C84.6585 48.9469 84.39 48.6404 84.8247 48.4871C84.9526 48.436 84.9014 48.3083 84.8247 48.2189C84.4411 47.7975 84.0575 47.3633 83.4054 47.3633C82.9835 47.376 82.5487 47.3633 82.1268 47.3633C82.0629 46.9674 81.8071 47.1078 81.6026 47.1845C80.9505 47.4271 80.2856 47.6698 79.6335 47.9252C79.4928 47.9763 79.2499 48.0657 79.2243 47.9763C79.0453 47.4654 79.4417 47.0312 79.4672 46.5459C79.48 46.4054 79.5312 46.2267 79.7485 46.3416C80.1961 46.597 80.081 46.2139 80.081 46.0351C80.1193 45.1539 79.902 44.3238 79.5056 43.5192C79.4417 43.3915 79.1732 43.1489 79.4928 43.0722C80.0682 42.9317 79.6974 42.6636 79.5823 42.4975C78.6106 41.0544 77.1401 40.9267 75.529 41.0161C76.1939 42.1399 76.4113 43.2638 76.0405 44.5537C75.8103 44.1961 75.708 44.1833 75.529 44.5537C74.7874 46.0479 73.9691 47.4782 72.4987 48.3849C72.3708 48.4616 72.1406 48.7553 72.0639 48.4616C71.9489 48.0146 71.7315 48.2189 71.5013 48.2572C71.2072 48.2955 70.9132 48.2955 70.6191 48.2189C70.0693 48.0529 69.5195 47.9124 68.9696 47.7719C68.9313 47.7336 68.8801 47.6953 68.8418 47.6442C68.5349 47.3377 68.6116 47.0057 68.7523 46.6609C69.0464 45.9585 69.3149 45.2688 69.609 44.5664C69.9925 44.2855 70.2227 43.8896 70.4273 43.4681C70.6319 43.0595 70.8109 42.6763 71.2584 42.4209C71.8082 42.1016 71.7699 41.2971 71.2712 40.965C71.284 40.9012 71.2968 40.8373 71.3095 40.7862C72.2941 38.4875 73.3937 36.2525 74.5956 34.0559C74.992 33.3408 75.1838 32.4979 75.8743 31.9615C76.0277 31.9615 76.1684 31.9615 76.3218 31.987C79.3266 32.2808 82.3697 29.8671 82.7917 26.8276C81.3724 27.7215 79.902 28.3856 78.163 28.0153C78.8023 26.7382 79.7485 25.6782 80.7075 24.5671C80.0426 24.35 79.4417 24.1457 78.8279 23.9669C78.4699 23.8647 78.3165 23.6987 78.4955 23.3283C78.7256 22.8558 78.9302 22.3577 79.1604 21.8852C79.3266 21.5404 79.2627 21.3872 78.8663 21.3361C77.7922 21.1828 76.7054 21.17 75.6313 21.2467C75.3245 21.2722 75.1966 21.2594 75.2094 20.9274C75.2222 20.6337 75.0559 20.557 74.8002 20.5698C74.4166 20.5826 74.0458 20.5826 73.6622 20.6592C73.0996 20.7614 72.601 21.0934 72.0128 21.0807C72.1662 20.4676 72.5754 19.9951 72.8823 19.4715C72.9462 19.3693 73.0485 19.2416 72.9718 19.1267C72.9462 19.0756 72.8183 19.0756 72.7416 19.0756C70.7981 19.2799 68.8546 19.5481 67.0005 20.2122C66.6681 20.3272 66.5019 20.3016 66.5274 19.9185C66.5786 19.3438 66.2845 19.4332 65.9009 19.5481C65.3511 19.7142 64.8524 20.0334 64.2003 20.1356C64.3665 19.6886 64.5072 19.3055 64.6478 18.9351C64.7885 18.5775 64.6862 18.4881 64.341 18.6542C63.8039 18.6286 63.2925 18.7436 62.781 18.8713C61.2339 19.2544 59.7507 19.8036 58.3442 20.557C57.8071 20.8508 57.7049 20.7741 57.6793 20.1611C57.6665 19.778 57.6793 19.4077 57.6793 18.9734C56.5797 19.2416 55.7613 19.8546 55.0069 20.5698C54.8663 20.0717 54.7256 19.5737 54.5722 19.0118C53.6771 20.1484 53.2296 21.3744 53.1401 22.7409C52.7693 22.4855 52.8333 21.9874 52.5008 21.6298C52.2067 22.9452 51.9382 24.2095 51.6313 25.576C51.1071 24.9119 50.6724 24.3628 50.1737 23.737C49.6622 25.0907 49.3937 26.4061 49.1763 27.7343C48.6521 27.6705 48.5754 26.751 48.1279 27.0064C47.821 27.1852 47.7954 27.8748 47.6676 28.3473C47.3351 29.5989 46.9643 30.8377 46.7853 32.1148C46.7469 32.3829 46.8364 32.7661 46.5679 32.8555C46.2483 32.9576 46.1076 32.5617 45.9158 32.3446C45.8519 32.268 45.8135 32.1531 45.7624 32.0637C45.2765 31.1825 45.2126 30.2247 45.2126 29.2413C44.1002 32.7405 43.9851 36.3419 43.9851 39.9817C43.6015 39.2282 43.2179 38.4747 42.8343 37.7212C42.6169 38.5513 42.3868 39.3048 42.4507 40.0838C42.5019 40.7351 42.2845 40.965 41.6452 41.131C40.0597 41.5397 38.5125 42.0889 37.2083 43.1361C37.1188 43.2127 36.9654 43.2638 37.0165 43.417C37.0549 43.5448 37.1955 43.5064 37.285 43.532C37.6686 43.6725 38.0522 43.8257 38.5892 44.0301C38.4102 44.1194 38.3463 44.145 38.2952 44.1833C37.0932 45.2305 36.1087 46.431 35.4054 47.8741C35.3415 48.0018 35.2136 48.1423 35.3415 48.2828C35.4822 48.4233 35.61 48.2572 35.7379 48.2062C36.0575 48.0657 36.3516 47.8869 36.7608 47.9124C33.6537 51.2584 33.3596 59.6106 34.4209 62.267C34.7406 61.7944 34.8428 61.2453 35.1625 60.5812C35.4438 62.5096 35.4822 64.272 35.5717 66.1238C35.7762 65.945 35.9041 65.8428 36.0192 65.7151C36.1982 65.5363 36.3516 65.498 36.4156 65.7917C36.6713 66.839 36.9014 67.95 36.7608 68.9973C36.5306 70.7213 36.8887 72.2794 37.7453 73.6842C38.3719 74.6931 38.845 75.983 40.3665 76.0724C40.6606 76.0851 40.9419 76.4938 41.1721 76.2767C41.3895 76.0724 40.9419 75.7659 41.0314 75.4594C41.6068 75.7531 42.195 76.0596 42.7704 76.3533C42.8087 76.4555 42.8343 76.5577 42.8982 76.6471C43.154 76.9663 43.3074 77.5282 43.9084 77.0557C44.1385 76.8769 44.228 77.1579 44.3431 77.2856C44.829 77.8986 45.4555 78.154 46.2355 78.1413C47.7059 78.1157 49.1763 78.0646 50.634 78.0391C53.0762 77.988 55.5184 77.8731 57.9606 77.7581C58.4337 77.7326 58.4337 77.5666 58.2675 77.2217C57.9606 76.5577 57.5514 75.9702 57.0527 75.4338C56.0682 74.3738 54.8279 73.6842 53.447 73.0712C54.1502 72.969 54.764 72.9179 55.3138 72.6242C57.756 73.9524 60.4156 74.8463 62.666 76.5321C62.8066 76.6343 62.96 76.8514 63.1518 76.762C63.3564 76.6726 63.2541 76.4172 63.2541 76.2384C63.2413 75.7914 63.203 75.3444 63.1646 74.7697C64.0085 75.3827 64.7629 75.9191 65.5045 76.4555C65.5685 76.4938 65.6196 76.5449 65.6835 76.5832C66.3612 77.2728 67.154 77.7326 68.1385 77.7326C69.7368 77.7454 71.3351 77.707 72.9206 77.7581C73.6111 77.7837 73.9947 77.5666 74.3271 76.9663C75.3245 75.1656 76.2323 73.3138 77.1785 71.4876C77.3447 71.1683 77.6004 70.8874 77.6771 70.4659C76.9355 70.6575 76.4369 71.1555 75.7848 71.3471L75.772 71.3343C75.772 70.8618 76.0788 70.5042 76.2834 70.1211C77.2168 68.4481 78.406 66.9539 79.4161 65.3448C80.0554 64.3231 80.5669 63.2248 80.7587 62.0243C80.8482 61.8072 81.1423 61.654 80.9632 61.3347C80.2856 62.1648 79.4161 62.6629 78.3676 63.0332C78.4699 62.6629 78.5466 62.3819 78.6233 62.1137C78.6873 61.8966 78.8407 61.6156 78.6233 61.4752C78.4315 61.3475 78.2653 61.6284 78.0735 61.7178C77.6516 61.9094 77.2424 62.152 76.8205 62.3308C74.5445 63.327 72.3452 64.4763 70.5168 66.2004C70.3761 66.3409 70.2483 66.3792 70.082 66.226C69.4811 65.664 68.7778 65.2171 68.2408 64.5785C67.4225 64.2081 66.6937 63.6973 65.9265 63.2376C66.6937 63.6973 67.4225 64.2081 68.2408 64.5785C68.9313 63.6845 69.4811 62.7012 69.9414 61.6667C70.4401 60.5557 70.6574 59.368 70.9259 58.1803C71.9616 57.8354 73.0101 57.5545 74.1225 57.7971C74.1225 57.8099 74.1353 57.8227 74.1481 57.8354C74.1481 57.8482 74.1737 57.8354 74.1865 57.8482C74.1737 57.8354 74.1481 57.8099 74.1353 57.7971C74.1737 57.6694 73.8924 57.2863 74.3655 57.5289C74.7746 57.7333 75.1966 57.9504 75.6313 58.0909C76.6415 58.4229 77.6516 58.806 78.7384 58.4485C79.5184 58.6528 80.2728 58.8827 81.1039 58.8443C82.4081 58.7805 83.3031 57.7716 83.0858 56.5073C83.0091 56.0475 83.1497 55.6644 83.5972 55.5494C83.968 55.4473 84.0703 55.2557 84.0959 54.9237C84.1215 54.7193 84.1215 54.3873 84.2365 54.3234C84.7864 54.0297 84.5434 53.5316 84.4028 53.289C83.8913 52.4206 84.1087 51.6798 84.6329 50.9774C85.2211 50.3644 85.1444 49.7642 84.748 49.1001ZM39.8039 74.0546C39.7528 73.9652 39.7144 73.8758 39.6889 73.7736C39.7272 73.8758 39.7656 73.9652 39.8039 74.0546C39.8551 74.1439 39.9062 74.2333 39.9574 74.31C39.9062 74.2333 39.8551 74.1439 39.8039 74.0546ZM40.0597 74.4377C40.2003 74.5909 40.3665 74.7314 40.5839 74.8336C40.3665 74.7186 40.1875 74.5909 40.0597 74.4377ZM48.3197 66.558C48.2813 66.4175 48.2302 66.2643 48.1662 66.1238C48.2302 66.2643 48.2685 66.4175 48.3197 66.558ZM48.4092 66.9411C48.422 66.9794 48.422 67.005 48.4347 67.0433C48.422 67.005 48.422 66.9794 48.4092 66.9411ZM59.252 41.8845C59.2392 41.9484 59.2136 41.9995 59.1881 42.0633C59.2136 42.0122 59.2392 41.9484 59.252 41.8845ZM57.4619 39.573C57.1423 39.5091 56.8354 39.4708 56.5157 39.4453C56.8226 39.4708 57.1423 39.5091 57.4619 39.573C57.756 39.573 58.0501 39.5985 58.3442 39.6368C58.0501 39.5858 57.756 39.573 57.4619 39.573ZM55.5567 39.407C55.7741 39.407 55.9787 39.4197 56.1961 39.4197C55.9787 39.4197 55.7741 39.4197 55.5567 39.407ZM57.4491 37.5935C58.114 36.8528 59.1753 36.8655 60.0064 37.7212C59.1881 36.8911 58.1779 36.8528 57.4491 37.5935ZM67.4992 40.8884C67.6782 40.8884 67.8572 40.9012 68.0362 40.9139C67.8572 40.8884 67.6782 40.8884 67.4992 40.8884ZM66.4124 40.9012C66.3101 40.8884 66.2078 40.8756 66.1055 40.8756C66.2078 40.8756 66.3101 40.8884 66.4124 40.9012ZM50.6979 38.5513C50.6979 38.5769 50.6851 38.6024 50.6851 38.6279C50.6851 38.6024 50.6851 38.5769 50.6979 38.5513ZM42.5274 72.969C42.7192 73.5054 43.0389 73.9652 43.512 74.3355C43.7038 74.7186 43.8444 75.1145 43.9851 75.5104C43.8444 75.1145 43.7038 74.7186 43.512 74.3355C43.0389 73.9652 42.732 73.4926 42.5274 72.969ZM80.1961 48.1168C80.2088 48.1168 80.2089 48.1168 80.2216 48.1168C80.2216 48.104 80.2088 48.104 80.1961 48.1168Z" fill="#C4C4C4"/>
<path d="M39.8039 74.0546C39.7528 73.9652 39.7144 73.8758 39.6889 73.7736C39.7272 73.8758 39.7656 73.9652 39.8039 74.0546ZM39.8039 74.0546C39.8551 74.1439 39.9062 74.2333 39.9574 74.31C39.9062 74.2333 39.8551 74.1439 39.8039 74.0546ZM57.4619 39.573C57.1423 39.5091 56.8354 39.4708 56.5157 39.4453C56.8226 39.4708 57.1423 39.5091 57.4619 39.573ZM57.4619 39.573C57.756 39.573 58.0501 39.5985 58.3442 39.6368C58.0501 39.5858 57.756 39.573 57.4619 39.573ZM84.748 49.1001C84.6585 48.9469 84.39 48.6404 84.8247 48.4871C84.9526 48.436 84.9014 48.3083 84.8247 48.2189C84.4411 47.7975 84.0575 47.3633 83.4054 47.3633C82.9835 47.376 82.5487 47.3633 82.1268 47.3633C82.0629 46.9674 81.8071 47.1078 81.6026 47.1845C80.9505 47.4271 80.2856 47.6698 79.6335 47.9252C79.4928 47.9763 79.2499 48.0657 79.2243 47.9763C79.0453 47.4654 79.4417 47.0312 79.4672 46.5459C79.48 46.4054 79.5312 46.2267 79.7485 46.3416C80.1961 46.597 80.081 46.2139 80.081 46.0351C80.1193 45.1539 79.902 44.3238 79.5056 43.5192C79.4417 43.3915 79.1732 43.1489 79.4928 43.0722C80.0682 42.9317 79.6974 42.6636 79.5823 42.4975C78.6106 41.0544 77.1401 40.9267 75.529 41.0161C76.1939 42.1399 76.4113 43.2638 76.0405 44.5537C75.8103 44.1961 75.708 44.1833 75.529 44.5537C74.7874 46.0479 73.9691 47.4782 72.4987 48.3849C72.3708 48.4616 72.1406 48.7553 72.0639 48.4616C71.9489 48.0146 71.7315 48.2189 71.5013 48.2572C71.2073 48.2955 70.9132 48.2955 70.6191 48.2189C70.0693 48.0529 69.5195 47.9124 68.9696 47.7719C68.9313 47.7336 68.8801 47.6953 68.8418 47.6442C68.5349 47.3377 68.6116 47.0057 68.7523 46.6609C69.0464 45.9585 69.3149 45.2688 69.609 44.5664C69.9925 44.2855 70.2227 43.8896 70.4273 43.4681C70.6319 43.0595 70.8109 42.6763 71.2584 42.4209C71.8082 42.1016 71.7699 41.2971 71.2712 40.965C71.284 40.9012 71.2968 40.8373 71.3095 40.7862C72.2941 38.4875 73.3937 36.2525 74.5956 34.0559C74.992 33.3408 75.1838 32.4979 75.8743 31.9615C76.0277 31.9615 76.1684 31.9615 76.3218 31.987C79.3266 32.2808 82.3697 29.8671 82.7917 26.8276C81.3724 27.7215 79.902 28.3856 78.163 28.0153C78.8023 26.7382 79.7485 25.6782 80.7075 24.5671C80.0426 24.35 79.4417 24.1457 78.8279 23.9669C78.4699 23.8647 78.3165 23.6987 78.4955 23.3283C78.7256 22.8558 78.9302 22.3577 79.1604 21.8852C79.3266 21.5404 79.2627 21.3872 78.8663 21.3361C77.7922 21.1828 76.7054 21.17 75.6313 21.2467C75.3245 21.2722 75.1966 21.2594 75.2094 20.9274C75.2222 20.6337 75.0559 20.557 74.8002 20.5698C74.4166 20.5826 74.0458 20.5826 73.6622 20.6592C73.0996 20.7614 72.601 21.0934 72.0128 21.0807C72.1662 20.4676 72.5754 19.9951 72.8823 19.4715C72.9462 19.3693 73.0485 19.2416 72.9718 19.1267C72.9462 19.0756 72.8183 19.0756 72.7416 19.0756C70.7981 19.2799 68.8546 19.5481 67.0005 20.2122C66.6681 20.3272 66.5019 20.3016 66.5274 19.9185C66.5786 19.3438 66.2845 19.4332 65.9009 19.5481C65.3511 19.7142 64.8524 20.0334 64.2003 20.1356C64.3665 19.6886 64.5072 19.3055 64.6478 18.9351C64.7885 18.5775 64.6862 18.4881 64.341 18.6542C63.8039 18.6286 63.2925 18.7436 62.781 18.8713C61.2339 19.2544 59.7507 19.8036 58.3442 20.557C57.8071 20.8508 57.7049 20.7741 57.6793 20.1611C57.6665 19.778 57.6793 19.4077 57.6793 18.9734C56.5797 19.2416 55.7613 19.8546 55.0069 20.5698C54.8663 20.0717 54.7256 19.5737 54.5722 19.0118C53.6771 20.1484 53.2296 21.3744 53.1401 22.7409C52.7693 22.4855 52.8332 21.9874 52.5008 21.6298C52.2067 22.9452 51.9382 24.2095 51.6313 25.576C51.1071 24.9119 50.6724 24.3628 50.1737 23.737C49.6622 25.0907 49.3937 26.4061 49.1763 27.7343C48.6521 27.6705 48.5754 26.751 48.1279 27.0064C47.821 27.1852 47.7954 27.8748 47.6676 28.3473C47.3351 29.5989 46.9643 30.8377 46.7853 32.1148C46.7469 32.3829 46.8364 32.7661 46.5679 32.8555C46.2483 32.9576 46.1076 32.5617 45.9158 32.3446C45.8519 32.268 45.8135 32.1531 45.7624 32.0637C45.2765 31.1825 45.2126 30.2247 45.2126 29.2413C44.1002 32.7405 43.9851 36.3419 43.9851 39.9817C43.6015 39.2282 43.2179 38.4747 42.8343 37.7212C42.6169 38.5513 42.3868 39.3048 42.4507 40.0838C42.5019 40.7351 42.2845 40.965 41.6452 41.131C40.0597 41.5397 38.5125 42.0889 37.2083 43.1361C37.1188 43.2127 36.9654 43.2638 37.0165 43.417C37.0549 43.5448 37.1955 43.5064 37.285 43.532C37.6686 43.6725 38.0522 43.8257 38.5892 44.03C38.4102 44.1194 38.3463 44.145 38.2952 44.1833C37.0932 45.2305 36.1087 46.431 35.4054 47.8741C35.3415 48.0018 35.2136 48.1423 35.3415 48.2828C35.4822 48.4233 35.61 48.2572 35.7379 48.2061C36.0575 48.0657 36.3516 47.8869 36.7608 47.9124C33.6537 51.2584 33.3596 59.6106 34.4209 62.267C34.7406 61.7944 34.8428 61.2453 35.1625 60.5812C35.4438 62.5096 35.4822 64.272 35.5717 66.1238C35.7762 65.945 35.9041 65.8428 36.0192 65.7151C36.1982 65.5363 36.3516 65.498 36.4156 65.7917C36.6713 66.839 36.9014 67.95 36.7608 68.9973C36.5306 70.7213 36.8887 72.2794 37.7453 73.6842C38.3719 74.6931 38.845 75.983 40.3665 76.0724C40.6606 76.0851 40.9419 76.4938 41.1721 76.2767C41.3895 76.0724 40.9419 75.7659 41.0314 75.4594C41.6068 75.7531 42.195 76.0596 42.7704 76.3533C42.8087 76.4555 42.8343 76.5577 42.8982 76.6471C43.154 76.9663 43.3074 77.5282 43.9084 77.0557C44.1385 76.8769 44.228 77.1579 44.3431 77.2856C44.829 77.8986 45.4555 78.154 46.2355 78.1413C47.7059 78.1157 49.1764 78.0646 50.634 78.0391C53.0762 77.988 55.5184 77.8731 57.9606 77.7581C58.4337 77.7326 58.4337 77.5666 58.2675 77.2217C57.9606 76.5577 57.5514 75.9702 57.0527 75.4338C56.0682 74.3738 54.8279 73.6842 53.447 73.0712C54.1502 72.969 54.764 72.9179 55.3138 72.6242C57.756 73.9524 60.4156 74.8463 62.666 76.5321C62.8066 76.6343 62.96 76.8514 63.1518 76.762C63.3564 76.6726 63.2541 76.4172 63.2541 76.2384C63.2413 75.7914 63.203 75.3444 63.1646 74.7697C64.0085 75.3827 64.7629 75.9191 65.5045 76.4555C65.5685 76.4938 65.6196 76.5449 65.6835 76.5832C66.3612 77.2728 67.154 77.7326 68.1385 77.7326C69.7368 77.7454 71.3351 77.707 72.9206 77.7581C73.6111 77.7837 73.9947 77.5666 74.3271 76.9663C75.3245 75.1656 76.2323 73.3138 77.1785 71.4876C77.3447 71.1683 77.6004 70.8874 77.6771 70.4659C76.9355 70.6575 76.4369 71.1555 75.7848 71.3471L75.772 71.3343C75.772 70.8618 76.0788 70.5042 76.2834 70.1211C77.2168 68.4481 78.406 66.9539 79.4161 65.3448C80.0554 64.3231 80.5669 63.2248 80.7587 62.0243C80.8482 61.8072 81.1423 61.654 80.9632 61.3347C80.2856 62.1648 79.4161 62.6629 78.3676 63.0332C78.4699 62.6629 78.5466 62.3819 78.6233 62.1137C78.6873 61.8966 78.8407 61.6156 78.6233 61.4752C78.4315 61.3475 78.2653 61.6284 78.0735 61.7178C77.6516 61.9094 77.2424 62.152 76.8205 62.3308C74.5445 63.327 72.3452 64.4763 70.5168 66.2004C70.3761 66.3409 70.2483 66.3792 70.082 66.226C69.4811 65.664 68.7778 65.2171 68.2408 64.5785C67.4225 64.2082 66.6937 63.6973 65.9265 63.2376C66.6937 63.6973 67.4225 64.2082 68.2408 64.5785C68.9313 63.6845 69.4811 62.7012 69.9414 61.6667C70.4401 60.5557 70.6574 59.368 70.926 58.1803C71.9616 57.8354 73.0101 57.5545 74.1225 57.7971C74.1225 57.8099 74.1353 57.8227 74.1481 57.8354C74.1481 57.8482 74.1737 57.8354 74.1865 57.8482C74.1737 57.8354 74.1481 57.8099 74.1353 57.7971C74.1737 57.6694 73.8924 57.2863 74.3655 57.5289C74.7746 57.7333 75.1966 57.9504 75.6313 58.0909C76.6415 58.4229 77.6516 58.806 78.7384 58.4485C79.5184 58.6528 80.2728 58.8827 81.1039 58.8443C82.4081 58.7805 83.3031 57.7716 83.0858 56.5073C83.0091 56.0475 83.1497 55.6644 83.5972 55.5494C83.968 55.4473 84.0703 55.2557 84.0959 54.9237C84.1215 54.7193 84.1215 54.3873 84.2365 54.3234C84.7864 54.0297 84.5434 53.5316 84.4028 53.289C83.8913 52.4206 84.1087 51.6798 84.6329 50.9774C85.2211 50.3644 85.1444 49.7642 84.748 49.1001ZM40.0597 74.4377C40.2003 74.5909 40.3665 74.7314 40.5839 74.8336C40.3665 74.7186 40.1875 74.5909 40.0597 74.4377ZM48.3197 66.558C48.2813 66.4175 48.2302 66.2643 48.1662 66.1238C48.2302 66.2643 48.2685 66.4175 48.3197 66.558ZM48.4092 66.9411C48.422 66.9794 48.422 67.005 48.4347 67.0433C48.422 67.005 48.422 66.9794 48.4092 66.9411ZM59.252 41.8845C59.2392 41.9484 59.2136 41.9995 59.1881 42.0633C59.2136 42.0122 59.2392 41.9484 59.252 41.8845ZM55.5567 39.407C55.7741 39.407 55.9787 39.4197 56.1961 39.4197C55.9787 39.4197 55.7741 39.4197 55.5567 39.407ZM57.4491 37.5935C58.114 36.8528 59.1753 36.8655 60.0064 37.7212C59.1881 36.8911 58.1779 36.8528 57.4491 37.5935ZM67.4992 40.8884C67.6782 40.8884 67.8572 40.9012 68.0362 40.9139C67.8572 40.8884 67.6782 40.8884 67.4992 40.8884ZM66.4124 40.9012C66.3101 40.8884 66.2078 40.8756 66.1055 40.8756C66.2078 40.8756 66.3101 40.8884 66.4124 40.9012ZM50.6979 38.5513C50.6979 38.5769 50.6851 38.6024 50.6851 38.6279C50.6851 38.6024 50.6851 38.5769 50.6979 38.5513ZM42.5274 72.969C42.7192 73.5054 43.0389 73.9652 43.512 74.3355C43.7038 74.7186 43.8444 75.1145 43.9851 75.5104C43.8444 75.1145 43.7038 74.7186 43.512 74.3355C43.0389 73.9652 42.732 73.4926 42.5274 72.969ZM80.1961 48.1168C80.2088 48.1168 80.2088 48.1168 80.2216 48.1168C80.2216 48.104 80.2088 48.104 80.1961 48.1168Z" stroke="#21609B" stroke-width="3" stroke-miterlimit="10"/>
<path d="M65.5813 76.4938C64.8397 75.9574 64.0853 75.4211 63.2414 74.8081C63.2797 75.3827 63.3181 75.8297 63.3309 76.2767C63.3309 76.4555 63.4332 76.6982 63.2286 76.8003C63.0368 76.8897 62.8833 76.6726 62.7427 76.5704C60.4923 74.8847 57.8199 73.9907 55.3905 72.6625C54.3676 71.9729 53.2808 71.411 52.309 70.6192C52.13 70.9385 52.309 71.2194 52.1172 71.4876C51.3117 70.964 50.4934 70.4915 49.7645 69.8785C49.9691 69.4315 49.8412 68.9462 49.9308 68.4992C50.1609 67.2604 49.8412 66.1493 49.2019 65.1149C48.7288 64.3614 48 63.8761 47.284 63.378C46.7469 63.0077 46.2355 62.5735 45.9286 61.8455C46.4529 61.9732 46.862 61.9988 47.3095 61.9222C46.5168 60.5174 45.6857 59.2147 45.5578 57.4779C45.8519 57.7971 46.0053 58.0398 46.3761 58.2058C46.2099 55.8943 46.8492 53.7615 47.1945 51.5905C46.5807 52.7526 45.8647 53.8637 45.5834 55.1663C45.5322 55.409 45.5067 55.7793 45.3532 55.856C45.0592 55.9964 44.9824 55.5239 44.7267 55.4345C44.5221 56.5584 44.5605 57.6567 44.6756 58.7805C44.8674 60.7472 45.3532 62.5607 46.7214 64.0677C47.1817 64.5785 47.6676 65.1021 48 65.7279C48.601 66.839 48.5882 68.0522 48.6777 69.2527C48.6905 69.572 48.7033 69.8912 48.716 70.2105C48.7544 70.7724 49.1124 71.5515 48.7672 71.8196C48.2941 72.2028 47.5653 71.7813 46.9515 71.5898C46.8748 71.5642 46.7853 71.5387 46.7086 71.5004C46.6447 71.4621 46.504 71.3854 46.5935 71.3344C46.9387 71.13 46.683 71.0789 46.5296 70.9768C45.9286 70.5936 45.6473 70.0317 45.5706 69.3293C45.545 69.1122 45.5706 68.7674 45.2893 68.7802C44.9696 68.8057 44.9057 69.1377 44.9569 69.4315C44.9952 69.6741 45.0719 69.9295 45.1742 70.1594C45.4427 70.7852 45.7496 71.3854 46.0181 72.0112C46.4401 72.9818 46.9004 73.9396 46.8748 75.0507C46.8748 75.3061 46.8492 75.5488 46.504 75.4721C45.7113 75.2806 45.1103 74.6293 44.228 74.5909C43.9979 74.5782 43.7677 74.2334 43.5376 74.0546C43.2051 73.4671 43.1156 72.7264 42.3868 72.4199C42.2845 71.8452 42.1694 71.2833 41.9265 70.683C41.7986 71.2322 41.9393 71.6792 41.9904 72.1262C42.0288 72.3943 42.1694 72.4199 42.374 72.4199C42.5402 73.1861 42.8855 73.8502 43.5248 74.3355C43.8317 74.9485 44.0235 75.5999 44.2408 76.2384C44.3815 76.6726 44.2664 76.7876 43.8317 76.6471C43.512 76.5449 43.1796 76.4683 42.8471 76.3789C42.2717 76.0851 41.6835 75.7786 41.1082 75.4849C41.0954 75.4721 41.0698 75.4466 41.057 75.4338C41.0698 75.4466 41.0954 75.4721 41.1082 75.4849C41.0187 75.7914 41.4662 76.0979 41.2488 76.3023C41.0187 76.5194 40.7374 76.1235 40.4433 76.0979C38.9345 76.0085 38.4486 74.7187 37.8221 73.7098C36.9526 72.2922 36.6074 70.7469 36.8375 69.0228C36.9782 67.9756 36.7608 66.8773 36.4923 65.8173C36.4156 65.5236 36.2621 65.5619 36.0959 65.7407C35.9808 65.8556 35.853 65.9706 35.6484 66.1493C35.5589 64.2976 35.5205 62.5352 35.2392 60.6068C34.9196 61.2708 34.8173 61.82 34.4976 62.2925C33.4363 59.6362 33.7304 51.284 36.8375 47.938C36.4284 47.9124 36.1343 48.104 35.8146 48.2317C35.6867 48.2828 35.5589 48.4488 35.4182 48.3083C35.2904 48.1806 35.4182 48.0274 35.4822 47.8996C36.1854 46.4693 37.17 45.2561 38.3719 44.2088C38.423 44.1705 38.487 44.145 38.666 44.0556C38.1417 43.8513 37.7581 43.698 37.3618 43.5575C37.2723 43.5192 37.1316 43.5575 37.0932 43.4426C37.0421 43.2766 37.1955 43.2382 37.285 43.1616C38.5893 42.1016 40.1364 41.5653 41.7219 41.1566C42.3612 40.9906 42.5914 40.7607 42.5274 40.1094C42.4635 39.3303 42.6937 38.5641 42.911 37.7467C43.2946 38.5002 43.6782 39.2537 44.0618 40.0072C44.0618 36.3675 44.1769 32.7661 45.2893 29.2668C45.2893 30.2502 45.3532 31.208 45.8391 32.0892C45.8903 32.1786 45.9158 32.2935 45.9926 32.3702C46.1844 32.5873 46.325 32.9704 46.6447 32.881C46.9132 32.7916 46.8237 32.4085 46.862 32.1403C47.0282 30.8632 47.4118 29.6244 47.7443 28.3729C47.8721 27.9003 47.8977 27.1979 48.2046 27.0319C48.6521 26.7765 48.7288 27.696 49.2531 27.7599C49.4704 26.4317 49.7262 25.1163 50.2504 23.7625C50.7363 24.3883 51.1838 24.9375 51.7081 25.6016C52.0149 24.2351 52.2834 22.9707 52.5775 21.6553C52.8972 22.0129 52.846 22.511 53.2169 22.7664C53.1273 24.7459 53.9712 26.3423 55.2882 27.7215C55.6463 28.0919 55.5823 28.2324 55.1604 28.4239C54.8279 28.5644 54.5211 28.756 54.163 28.9475C56.2344 28.7688 57.7176 27.8237 58.5871 25.9591C58.8173 25.4739 58.7533 25.1929 58.2675 24.8864C56.682 23.8647 55.6207 22.4088 55.0837 20.5953C55.8381 19.8802 56.6564 19.2672 57.756 18.999C57.756 19.4332 57.7432 19.8035 57.756 20.1867C57.7816 20.8125 57.8711 20.8763 58.4209 20.5826C59.8274 19.8291 61.3106 19.2672 62.8578 18.8968C63.3692 18.7691 63.8807 18.6542 64.4177 18.6797C64.4177 18.8585 64.2771 18.9224 64.162 19.0117C62.3975 20.4038 60.9526 22.0385 60.1854 24.1968C59.9297 24.9119 59.9425 25.0141 60.748 25.0524C61.4001 25.078 62.0394 25.0907 62.7171 25.2695C62.602 25.3972 62.5381 25.4994 62.4358 25.576C60.6329 27.0447 59.0474 28.7304 57.398 30.3651C57.2957 30.4673 57.1167 30.5439 57.219 30.7227C57.2829 30.8504 57.4491 30.7866 57.5642 30.8121C57.9606 30.876 58.3442 30.9526 58.7406 31.0164C55.4289 32.0381 53.5237 34.5412 51.772 37.2104C51.3373 36.7761 50.9025 36.3419 50.4678 35.9077C50.2248 35.6651 50.0714 35.6651 49.9563 36.0354C49.5216 37.3764 49.5216 37.3636 50.5573 38.3087C50.634 38.3853 50.7107 38.4619 50.7747 38.5385C50.7491 38.6152 50.7619 38.7173 50.7107 38.7812C49.1891 41.0161 48.9078 43.5831 48.8439 46.1756C48.78 48.3594 48.7928 50.5432 49.2275 52.7015C49.4577 53.8254 49.6111 54.9748 50.1481 56.0731C50.5445 55.6005 50.5956 54.9875 51.0687 54.5916C51.7208 57.3629 52.667 59.9299 54.6617 62.0116C54.7384 61.6157 54.7384 61.2453 54.7384 60.8749C54.7384 60.4918 54.8151 60.3641 55.2243 60.594C57.6921 62.0243 60.3389 63.0588 62.9728 64.1443C65.3639 65.1277 67.6015 66.3665 69.4172 68.2438C69.8391 68.678 70.2866 69.1122 70.8492 69.3804C70.146 70.798 69.4555 72.2028 68.7523 73.6204C68.7139 73.6076 68.6884 73.5948 68.65 73.582C68.65 72.9563 68.65 72.3177 68.65 71.6919C68.5093 71.8452 68.4454 72.024 68.407 72.2028C68.1897 73.2372 67.8956 74.2589 67.6271 75.2806C67.3841 76.2384 66.7704 76.6343 65.837 76.6471C65.7475 76.5321 65.6708 76.5066 65.5813 76.4938ZM40.5839 74.8336C40.5967 74.8464 40.6223 74.8591 40.6351 74.8591C40.6095 74.8591 40.5967 74.8464 40.5839 74.8336C40.3666 73.7991 39.4843 73.0201 39.4971 71.8835C39.4331 72.1772 39.3948 72.4582 39.4459 72.7136C39.5994 73.5437 39.7144 74.3994 40.5839 74.8336Z" fill="#DAECF5"/>
<path d="M70.7597 69.3421C70.1971 69.0739 69.7368 68.6397 69.3276 68.2055C67.4992 66.3154 65.2744 65.0893 62.8833 64.106C60.2493 63.0205 57.6026 61.986 55.1348 60.5557C54.7384 60.3258 54.6489 60.4663 54.6489 60.8366C54.6489 61.207 54.6489 61.5773 54.5722 61.9732C52.5775 59.9043 51.6441 57.3246 50.9792 54.5533C50.5061 54.9492 50.455 55.5622 50.0586 56.0347C49.5344 54.9364 49.3681 53.787 49.138 52.6632C48.7032 50.5049 48.7032 48.3211 48.7544 46.1372C48.8311 43.532 49.0996 40.9778 50.6212 38.7429C50.6596 38.679 50.6596 38.5768 50.6851 38.5002C51.2861 39.0111 51.8231 39.6113 52.488 40.0072C53.3063 40.4925 53.5237 41.1693 53.4598 42.025C53.4086 42.6508 53.7027 43.0084 54.3037 43.1872C56.1449 43.7618 58.0245 44.0556 59.9552 43.9279C60.7991 43.8768 61.464 43.5447 61.9116 42.804C62.1417 42.4209 62.4102 42.0633 62.6276 41.6674C62.8705 41.2204 63.2541 41.2971 63.6377 41.3737C63.9957 41.4503 63.8551 41.7823 63.8679 42.0122C63.8807 42.3315 63.8807 42.6508 63.8934 42.97C63.919 43.7363 64.3538 44.1833 65.0698 44.3621C66.5658 44.7324 68.0746 44.8985 69.6089 44.5536C69.3276 45.256 69.0463 45.9585 68.7523 46.6481C68.6116 46.9929 68.5221 47.3249 68.8418 47.6314C68.8801 47.6698 68.9313 47.7208 68.9696 47.7592C69.2637 48.3211 69.5834 48.8702 69.8391 49.4449C70.5551 51.0668 70.9643 52.7654 70.9004 54.5533C70.9004 54.6299 70.9004 54.6938 70.9004 54.7704C70.9004 54.8726 70.9004 54.962 70.9004 55.0641C70.9259 56.0603 70.6574 56.9926 70.4145 57.9376C69.7624 60.4152 68.1769 61.7817 65.6324 62.1265C65.0698 62.2031 64.5328 62.0882 63.8423 62.1009C64.3921 62.4074 64.8141 62.6501 65.2488 62.8672C66.3101 63.4036 67.2435 64.1571 68.3303 64.6424C68.8673 65.2681 69.5706 65.7151 70.1715 66.2898C70.3378 66.4431 70.4656 66.392 70.6063 66.2643C72.4475 64.5402 74.634 63.3908 76.91 62.3947C77.3319 62.2031 77.7411 61.9605 78.163 61.7817C78.3548 61.705 78.521 61.4113 78.7128 61.539C78.9302 61.6923 78.7768 61.9605 78.7128 62.1776C78.6233 62.4585 78.5594 62.7395 78.4571 63.0971C79.5184 62.7395 80.3879 62.2286 81.0527 61.3985C81.2318 61.7178 80.9377 61.8711 80.8482 62.0882C80.6564 62.1393 80.618 62.3308 80.5285 62.4585C79.723 63.659 78.7768 64.7318 77.6004 65.5874C77.4214 65.1787 77.7794 64.8084 77.5493 64.3614C76.3218 65.4214 75.2477 66.5835 74.1097 67.7968C74.033 67.2349 73.9691 66.7879 73.8924 66.1876C72.7544 67.2859 71.6931 68.2438 70.7597 69.3421ZM66.4251 45.9329C66.0288 45.6264 65.6196 45.5115 65.1976 45.4348C64.1108 45.2433 62.9984 45.205 61.8988 45.205C59.9808 45.2177 58.0756 45.3327 56.1577 45.2816C55.8252 45.2688 55.3522 45.0645 55.1987 45.3199C54.9941 45.6903 55.2882 46.1372 55.5056 46.4948C55.659 46.7503 55.8508 46.9801 56.0554 47.1972C56.6052 47.7847 57.2957 48.1551 58.0117 48.4871C60.326 49.5599 62.7938 49.5216 65.2616 49.4322C65.594 49.4194 65.5301 49.2661 65.4278 49.0618C65.2232 48.6914 65.0314 48.3211 64.8268 47.938C64.6095 47.5293 64.6351 47.21 65.0954 46.929C65.5685 46.6609 65.9776 46.2905 66.4251 45.9329ZM63.8934 51.2584C63.4715 51.0924 63.1135 51.3733 62.7299 51.335C61.0932 51.1435 59.4438 51.1179 57.8711 50.556C57.4619 50.4155 57.4108 50.6326 57.4747 50.9136C57.5642 51.3606 57.6921 51.8203 57.8455 52.2545C58.0373 52.8548 58.2291 52.9059 58.5743 52.4078C58.8428 52.0119 58.9707 52.1396 59.1241 52.4589C59.3031 52.842 59.4566 53.2379 59.6484 53.621C59.789 53.9148 59.968 53.9403 60.1598 53.6466C60.4028 53.2634 60.6585 52.8931 60.9398 52.4589C61.1444 52.8037 61.3234 53.0591 61.464 53.3401C61.7453 53.8892 61.9627 53.7615 62.1289 53.2762C62.423 52.395 62.8961 51.6798 63.8423 51.3989C63.8423 51.3989 63.8551 51.335 63.8934 51.2584Z" fill="#ECF5FA"/>
<path d="M51.6953 37.172C53.4598 34.5029 55.3649 31.9998 58.6638 30.9781C58.2674 30.9143 57.8839 30.8377 57.4875 30.7738C57.3724 30.7483 57.2062 30.8121 57.1422 30.6844C57.0527 30.5056 57.2317 30.4162 57.3213 30.3268C58.9579 28.6921 60.5562 27.0064 62.3591 25.5377C62.4486 25.4611 62.5253 25.3589 62.6404 25.2312C61.9627 25.0396 61.3234 25.0396 60.6713 25.0141C59.8657 24.9758 59.853 24.8736 60.1087 24.1584C60.8886 22.0002 62.3335 20.3655 64.0852 18.9734C64.2003 18.884 64.341 18.8202 64.341 18.6414C64.6862 18.4754 64.7757 18.5775 64.6478 18.9224C64.5072 19.2927 64.3665 19.6758 64.2003 20.1228C64.8524 20.0334 65.3511 19.7142 65.9009 19.5354C66.2845 19.4204 66.5658 19.331 66.5274 19.9057C66.4891 20.2888 66.6681 20.3144 67.0005 20.1995C68.8546 19.5354 70.7981 19.2672 72.7416 19.0628C72.8183 19.0501 72.9334 19.0628 72.9718 19.1139C73.0485 19.2416 72.9462 19.3566 72.8823 19.4587C72.5754 19.9823 72.1662 20.4549 72.0128 21.0679C72 21.0806 71.9872 21.1062 71.9872 21.119C72 21.1062 72.0128 21.0806 72.0128 21.0679C72.601 21.0806 73.0996 20.7486 73.6622 20.6464C74.0458 20.5698 74.4166 20.5698 74.8002 20.557C75.0559 20.5443 75.2222 20.6209 75.2094 20.9146C75.1838 21.2339 75.3117 21.2467 75.6313 21.2339C76.7054 21.17 77.7922 21.17 78.8663 21.3233C79.2626 21.3744 79.3266 21.5276 79.1604 21.8724C78.9302 22.345 78.7256 22.843 78.4955 23.3156C78.3165 23.6859 78.4699 23.8519 78.8279 23.9541C79.4289 24.1329 80.0298 24.3372 80.7075 24.5543C79.7485 25.6654 78.8023 26.7254 78.163 28.0025C77.3063 29.203 76.5519 30.4673 75.8359 31.7444C75.7848 31.8338 75.7976 31.8976 75.8743 31.9487C75.1838 32.4851 74.9792 33.328 74.5956 34.0432C73.3937 36.227 72.2941 38.4747 71.3095 40.7735C71.284 40.8245 71.284 40.9012 71.2712 40.9522C69.008 40.3903 66.7192 40.0711 64.3921 40.3392C63.8679 40.4031 63.382 40.2754 62.8833 40.1604C61.528 39.8412 60.1726 39.4964 58.8045 39.2026C57.0783 38.8323 55.3266 38.6024 53.5493 38.6535C53.2935 38.6662 53.0506 38.6662 52.8588 38.4364C52.488 38.0022 52.0788 37.5935 51.6953 37.172ZM57.1167 38.0149C58.0884 37.6701 58.9707 37.3253 60.0064 37.7084C59.0602 36.7506 57.8327 36.8528 57.2062 37.9255L57.155 37.9511L57.1806 37.9766C57.1678 37.9766 57.2062 37.9255 57.1167 38.0149ZM59.8402 36.3802C59.5972 35.8566 58.9835 35.5501 58.4848 35.6395C57.7304 35.78 57.1039 36.3802 57.0527 37.0826C57.8327 36.1887 58.8045 36.1504 59.8402 36.3802ZM70.0948 39.9817C70.0053 39.0494 69.3916 38.5513 68.6755 38.6918C68.5732 38.7173 68.4582 38.7301 68.4198 38.845C68.3815 38.9727 68.4838 39.0494 68.586 39.0621C69.1998 39.1132 69.5962 39.5219 70.0948 39.9817ZM68.7139 37.734C69.4811 37.9255 70.1715 38.1043 70.7341 38.679C70.5935 37.6573 69.788 37.287 68.7139 37.734Z" fill="#ECF5FA"/>
<path d="M70.9004 55.0514C70.9004 54.9492 70.9004 54.8598 70.9004 54.7576C71.0155 54.6938 71.0155 54.6172 70.9004 54.5405C70.9771 52.7526 70.5551 51.0541 69.8391 49.4322C69.5834 48.8575 69.2637 48.3083 68.9696 47.7464C69.5194 47.8996 70.0693 48.0401 70.6191 48.1934C70.9132 48.2828 71.2072 48.27 71.5013 48.2317C71.7315 48.2061 71.9489 48.0018 72.0639 48.436C72.1406 48.7297 72.3708 48.436 72.4987 48.3594C73.9691 47.4527 74.8002 46.0223 75.529 44.5281C75.7081 44.1577 75.8103 44.1705 76.0405 44.5281C76.4113 43.2382 76.1939 42.1144 75.529 40.9905C77.1401 40.9012 78.6106 41.0416 79.5823 42.472C79.6974 42.638 80.0682 42.9062 79.4928 43.0467C79.1859 43.1233 79.4417 43.3659 79.5056 43.4937C79.902 44.2855 80.1193 45.1156 80.081 46.0095C80.0682 46.1883 80.1961 46.5842 79.7485 46.316C79.5312 46.1883 79.48 46.3799 79.4672 46.5204C79.4289 47.0057 79.0453 47.4527 79.2243 47.9507C79.2499 48.0401 79.4928 47.9507 79.6335 47.8996C80.2856 47.657 80.9377 47.4016 81.6026 47.1589C81.8199 47.0823 82.0757 46.9418 82.1268 47.3377C81.5514 47.376 81.0272 47.542 80.4134 47.9379C80.8226 47.9635 81.0783 48.0657 81.3085 48.2061C81.8455 48.5126 81.8966 48.883 81.398 49.2278C80.5924 49.7642 79.9403 50.4921 79.0837 50.9519C78.7001 51.1562 78.4315 51.4883 78.1247 51.7948C77.9968 51.9097 77.8689 52.0502 77.9585 52.2418C78.0352 52.4206 78.227 52.4078 78.3804 52.4589C79.0581 52.7143 79.838 52.3439 80.4902 52.8165C80.6052 52.9059 80.9249 52.8675 81.04 52.7781C81.7816 52.1651 82.715 52.2928 83.5461 52.063C83.4182 52.2035 83.252 52.4844 83.1625 52.4589C82.4209 52.2545 81.8967 52.7781 81.2829 52.9825C80.4774 53.2507 79.7485 53.7104 79.0453 54.1829C78.6617 54.4384 78.7128 54.9747 78.2909 55.1919C78.0991 55.294 77.805 55.3579 77.8817 55.6771C77.9584 55.9837 78.2398 56.0731 78.5083 56.1497C79.3394 56.3796 80.1705 56.2646 80.9888 56.2646C81.0272 56.0092 80.7331 56.0986 80.7587 55.8687C81.3852 56.022 82.0117 55.7793 82.6511 55.8304C82.4465 55.9837 82.2419 56.0858 82.0245 56.1624C80.7842 56.5839 79.4928 56.6222 78.2142 56.7882C77.9329 56.8265 77.6771 56.8776 77.9329 57.1714C78.2909 57.5673 78.3548 58.1547 78.8279 58.4612C77.7411 58.8316 76.7182 58.4357 75.7208 58.1036C75.2861 57.9632 74.8641 57.746 74.455 57.5417C73.9691 57.2991 74.2504 57.6822 74.2248 57.8099C73.1124 57.5673 72.0639 57.8354 71.0282 58.193C71.0155 57.2991 71.2328 56.4051 71.1561 55.5111C71.105 55.3579 71.22 55.1025 70.9004 55.0514ZM80.2472 48.0657C80.2344 48.0657 80.2216 48.0529 80.1961 48.0529C80.1961 48.0784 80.1961 48.0912 80.1833 48.1167C80.1961 48.1167 80.2216 48.1167 80.2344 48.104C80.26 48.0912 80.2472 48.0784 80.2472 48.0657Z" fill="#C0DFED"/>
<path d="M70.7597 69.3421C71.6931 68.2438 72.7544 67.2732 73.8924 66.1876C73.9691 66.7879 74.033 67.2349 74.1097 67.7968C75.2477 66.5835 76.3218 65.4214 77.5493 64.3614C77.7794 64.8084 77.4214 65.1787 77.6004 65.5874C78.7768 64.719 79.723 63.659 80.5285 62.4585C80.618 62.318 80.6564 62.1392 80.8482 62.0882C80.6564 63.3014 80.1577 64.3869 79.5056 65.4086C78.4955 67.0178 77.3063 68.512 76.3729 70.185C76.1556 70.5681 75.8615 70.9129 75.8615 71.3982C75.8359 71.4237 75.8231 71.4365 75.7975 71.4621C75.8231 71.4493 75.8359 71.4237 75.8615 71.411C76.5136 71.2194 77.025 70.7213 77.7539 70.5298C77.6771 70.9512 77.4214 71.2322 77.2552 71.5514C76.309 73.3777 75.4012 75.2295 74.4038 77.0302C74.0714 77.6304 73.6878 77.8475 72.9973 77.822C71.399 77.7581 69.8007 77.7965 68.2152 77.7965C67.2179 77.7965 66.4251 77.3367 65.7603 76.6471C66.6937 76.6343 67.2946 76.2384 67.5503 75.2806C67.8189 74.2589 68.1129 73.2372 68.3303 72.2028C68.3687 72.024 68.4326 71.858 68.5733 71.6919C68.5733 72.3177 68.5733 72.9563 68.5733 73.582C68.6116 73.5948 68.6372 73.6076 68.6755 73.6203C69.366 72.1772 70.0565 70.7596 70.7597 69.3421Z" fill="#87C1DB"/>
<path d="M49.7773 69.8657C50.5061 70.4787 51.3245 70.9512 52.13 71.4748C52.3218 71.2067 52.1428 70.9257 52.3218 70.6064C53.2808 71.3982 54.3804 71.9601 55.4033 72.6498C54.8535 72.9307 54.2397 72.9818 53.5365 73.0968C54.9302 73.7098 56.1577 74.3994 57.1423 75.4594C57.6409 75.9958 58.0501 76.5832 58.357 77.2473C58.5232 77.6049 58.5232 77.7709 58.0501 77.7837C55.6079 77.8986 53.1657 78.0136 50.7235 78.0646C49.2531 78.0902 47.7954 78.1413 46.325 78.1668C45.545 78.1796 44.9185 77.9242 44.4326 77.3112C44.3303 77.1707 44.228 76.8897 43.9979 77.0813C43.3969 77.5538 43.2435 76.9791 42.9878 76.6726C42.9238 76.596 42.8983 76.4811 42.8599 76.3789C43.1923 76.4683 43.5248 76.5321 43.8444 76.6471C44.2792 76.7876 44.3943 76.6726 44.2536 76.2384C44.0362 75.5999 43.8444 74.9485 43.5376 74.3355C43.5376 74.2334 43.5376 74.144 43.5376 74.0418C43.7677 74.2334 43.9851 74.5782 44.228 74.5782C45.1103 74.6037 45.7113 75.2678 46.504 75.4594C46.862 75.5488 46.8748 75.2934 46.8748 75.0379C46.9004 73.9396 46.4401 72.9818 46.0181 71.9985C45.7496 71.3727 45.4427 70.7724 45.1742 70.1467C45.0719 69.9168 44.9952 69.6614 44.9569 69.4187C44.9057 69.125 44.9696 68.7929 45.2893 68.7674C45.5706 68.7546 45.545 69.0994 45.5706 69.3166C45.6473 70.0062 45.9158 70.5809 46.5296 70.964C46.683 71.0534 46.9387 71.1173 46.5935 71.3216C46.504 71.3727 46.6447 71.4493 46.7086 71.4876C46.7853 71.5259 46.862 71.5515 46.9515 71.577C47.5525 71.7558 48.2813 72.19 48.7672 71.8069C49.1124 71.5387 48.7544 70.7469 48.716 70.1978C48.6905 69.8785 48.6905 69.5592 48.6777 69.2399C49.0229 69.4443 49.3937 69.6614 49.7773 69.8657Z" fill="#87C1DB"/>
<path d="M78.8279 58.4995C78.3548 58.193 78.2909 57.6056 77.9329 57.2097C77.6643 56.9159 77.9329 56.8649 78.2142 56.8265C79.4928 56.6733 80.7842 56.6222 82.0245 56.2008C82.2419 56.1241 82.4465 56.022 82.651 55.8687C82.0117 55.8176 81.3852 56.0603 80.7586 55.907C80.7331 56.1369 81.0272 56.0475 80.9888 56.3029C80.1705 56.3157 79.3394 56.4179 78.5083 56.188C78.2397 56.1114 77.9584 56.022 77.8817 55.7155C77.805 55.3962 78.0991 55.3323 78.2909 55.2302C78.7128 55.0131 78.6745 54.4767 79.0453 54.2213C79.7485 53.7488 80.4774 53.3018 81.2829 53.0208C81.8839 52.8165 82.4209 52.2929 83.1625 52.4972C83.252 52.5227 83.4182 52.2418 83.5461 52.1013C83.5589 52.0885 83.5717 52.0885 83.5844 52.0758C83.5972 52.0758 83.5844 52.0502 83.5972 52.0374C83.5844 52.0502 83.5589 52.0758 83.5461 52.0885C82.7022 52.3056 81.7688 52.1779 81.04 52.8037C80.9249 52.9059 80.6052 52.9314 80.4901 52.842C79.838 52.3695 79.0581 52.7398 78.3804 52.4844C78.2269 52.4206 78.0352 52.4461 77.9584 52.2673C77.8817 52.0758 78.0096 51.948 78.1247 51.8203C78.4315 51.5266 78.7 51.1818 79.0836 50.9775C79.9403 50.5177 80.6052 49.7898 81.398 49.2534C81.8966 48.9086 81.8455 48.5382 81.3085 48.2317C81.0783 48.104 80.8226 48.0018 80.4134 47.9635C81.0272 47.5676 81.5514 47.3888 82.1268 47.3633C82.5487 47.3633 82.9835 47.3761 83.4054 47.3633C84.0575 47.3505 84.4411 47.7847 84.8247 48.2189C84.9014 48.3083 84.9526 48.436 84.8247 48.4871C84.39 48.6404 84.6585 48.9469 84.748 49.1001C85.1444 49.7514 85.2211 50.3645 84.7224 51.0158C84.1982 51.7182 83.9808 52.4589 84.4923 53.3273C84.6329 53.57 84.8759 54.068 84.3261 54.3618C84.211 54.4256 84.211 54.7577 84.1854 54.962C84.147 55.2813 84.0575 55.4856 83.6867 55.5878C83.2392 55.7155 83.0986 56.0858 83.1753 56.5456C83.3926 57.8099 82.4976 58.8188 81.1934 58.8827C80.3623 58.921 79.5951 58.7039 78.8279 58.4995Z" fill="#ECF5FA"/>
<path d="M51.6953 37.1721C52.0788 37.5935 52.4752 38.0022 52.846 38.4491C53.0378 38.679 53.2808 38.6663 53.5365 38.6663C55.3138 38.6152 57.0655 38.8578 58.7917 39.2154C60.1598 39.5091 61.5024 39.854 62.8705 40.1732C63.3692 40.2882 63.8679 40.4159 64.3793 40.352C66.7192 40.0838 68.9952 40.4031 71.2584 40.965C71.7571 41.3098 71.7954 42.1144 71.2456 42.4209C70.7853 42.6763 70.6191 43.0722 70.4145 43.4681C70.2099 43.8768 69.9798 44.2855 69.5962 44.5664C68.0618 44.9112 66.553 44.758 65.057 44.3749C64.341 44.1961 63.9062 43.7491 63.8807 42.9828C63.8679 42.6636 63.8679 42.3443 63.8551 42.025C63.8423 41.7951 63.983 41.4759 63.6249 41.3865C63.2541 41.2971 62.8705 41.2332 62.6148 41.6802C62.3974 42.0633 62.1289 42.4337 61.8988 42.8168C61.4513 43.5575 60.7992 43.8896 59.9425 43.9407C58.0117 44.0556 56.1321 43.7746 54.2909 43.1999C53.6899 43.0084 53.3958 42.6636 53.447 42.0378C53.5237 41.1821 53.2936 40.5053 52.4752 40.02C51.8103 39.6241 51.2605 39.0238 50.6723 38.513C50.5956 38.4364 50.5317 38.3598 50.455 38.2831C49.4193 37.3381 49.4193 37.3381 49.854 36.0099C49.9691 35.6395 50.1353 35.6523 50.3655 35.8822C50.8258 36.3036 51.2605 36.7378 51.6953 37.1721ZM68.5733 41.0033C67.8572 40.8245 67.1284 40.8884 66.3996 40.9012C65.9904 40.8373 65.594 40.9012 65.1977 41.0161C64.9036 41.0927 64.699 41.2715 64.6478 41.5653C64.5583 42.0633 64.4816 42.5614 64.5456 43.085C64.5967 43.5703 64.8269 43.8385 65.3127 43.9534C66.2461 44.1705 67.1923 44.2727 68.1513 44.2727C69.1231 44.2855 69.8263 43.9279 70.1076 42.919C70.2099 42.5486 70.3761 42.2038 70.5424 41.859C70.7086 41.4886 70.5807 41.3098 70.2099 41.2204C69.6729 41.1055 69.1359 40.9523 68.5733 41.0033ZM59.7507 39.9817C58.9963 39.739 58.2419 39.5602 57.4491 39.573C56.618 39.3942 55.7613 39.4325 54.9174 39.3942C54.4699 39.3814 54.2142 39.6496 54.1758 40.0966C54.1247 40.6202 54.0863 41.1566 54.0096 41.6802C53.9201 42.2804 54.1886 42.5869 54.7384 42.753C56.2984 43.2127 57.8711 43.4681 59.4949 43.4554C60.4923 43.4426 61.1572 43.0595 61.5791 42.191C61.7326 41.8845 61.8732 41.578 62.0266 41.2843C62.244 40.8756 62.0906 40.633 61.707 40.5053C61.0805 40.2882 60.4283 40.0711 59.7507 39.9817Z" fill="#4F4E51"/>
<path d="M55.0453 20.557C55.5823 22.3705 56.6436 23.8264 58.2291 24.8481C58.715 25.1546 58.7661 25.4355 58.5488 25.9208C57.6793 27.7854 56.1961 28.7304 54.1247 28.9092C54.4955 28.7177 54.8024 28.5261 55.122 28.3856C55.544 28.2068 55.6079 28.0536 55.2499 27.6832C53.9329 26.3039 53.089 24.7076 53.1785 22.7281C53.2808 21.3616 53.7155 20.1356 54.6106 18.999C54.764 19.5609 54.9046 20.059 55.0453 20.557Z" fill="#4F4E51"/>
<path d="M75.8743 31.9615C75.7976 31.9104 75.7848 31.8466 75.8359 31.7572C76.5647 30.4801 77.3064 29.203 78.163 28.0153C79.902 28.3856 81.3724 27.7215 82.7917 26.8276C82.3698 29.8671 79.3266 32.2935 76.3218 31.987C76.1684 31.9615 76.0277 31.9615 75.8743 31.9615Z" fill="#4F4E51"/>
<path d="M70.9004 55.0514C71.22 55.1025 71.1177 55.3579 71.1305 55.5495C71.22 56.4562 71.0027 57.3374 71.0027 58.2314C70.7342 59.4063 70.5168 60.594 70.0181 61.7178C69.5578 62.7523 69.008 63.7356 68.3175 64.6296C67.2307 64.1443 66.2973 63.3908 65.236 62.8544C64.8013 62.6373 64.3793 62.3947 63.8295 62.0882C64.52 62.0754 65.057 62.1904 65.6196 62.1137C68.1641 61.7689 69.7496 60.4024 70.4017 57.9249C70.6574 56.9798 70.926 56.0475 70.9004 55.0514Z" fill="#87C1DB"/>
<path d="M68.9696 47.7591C68.9313 47.7208 68.8801 47.6698 68.8418 47.6314C68.8801 47.6825 68.9185 47.7208 68.9696 47.7591Z" fill="#C0DFED"/>
<path d="M74.212 57.8482C74.2248 57.861 74.2504 57.8865 74.2632 57.8993C74.2504 57.8993 74.2376 57.8993 74.2248 57.8865C74.212 57.8865 74.212 57.861 74.212 57.8482C74.1993 57.8482 74.212 57.8482 74.212 57.8482Z" fill="#C0DFED"/>
<path d="M65.5812 76.4938C65.6707 76.5066 65.7475 76.5321 65.773 76.6343C65.7091 76.5832 65.6452 76.5321 65.5812 76.4938Z" fill="#87C1DB"/>
<path d="M49.7773 69.8657C49.4065 69.6486 49.0229 69.4442 48.6521 69.2271C48.5626 68.0267 48.5754 66.8134 47.9744 65.7023C47.642 65.0766 47.1561 64.553 46.6958 64.0421C45.3404 62.5224 44.8418 60.7217 44.65 58.755C44.5349 57.6311 44.4965 56.5328 44.7011 55.409C44.9569 55.5111 45.0336 55.9709 45.3277 55.8304C45.4811 55.7538 45.5067 55.3834 45.5578 55.1408C45.8391 53.8381 46.5551 52.7271 47.1689 51.5649C46.8237 53.7487 46.1716 55.8687 46.3506 58.1803C45.9925 58.0142 45.8263 57.7588 45.5322 57.4523C45.6729 59.1892 46.504 60.4918 47.284 61.8966C46.8364 61.9605 46.4273 61.9477 45.903 61.82C46.2099 62.5607 46.7214 62.9821 47.2584 63.3525C47.9744 63.8506 48.7033 64.3359 49.1764 65.0893C49.8285 66.1238 50.1481 67.2349 49.9052 68.4736C49.854 68.9462 49.9691 69.4315 49.7773 69.8657Z" fill="#C0DFED"/>
<path d="M40.5839 74.8336C39.7145 74.3866 39.5994 73.5438 39.4459 72.7264C39.3948 72.4582 39.4332 72.1773 39.4971 71.8963C39.4843 73.0201 40.3666 73.7992 40.5839 74.8336Z" fill="#C0DFED"/>
<path d="M43.512 74.0418C43.512 74.144 43.512 74.2334 43.512 74.3355C42.8727 73.8502 42.5402 73.1861 42.3612 72.4199C43.1028 72.7136 43.1923 73.4543 43.512 74.0418Z" fill="#C0DFED"/>
<path d="M42.374 72.4071C42.1694 72.4071 42.016 72.3688 41.9904 72.1134C41.9265 71.6664 41.7986 71.2194 41.9265 70.6703C42.1438 71.2833 42.2717 71.8452 42.374 72.4071Z" fill="#C0DFED"/>
<path d="M40.5839 74.8336C40.5967 74.8464 40.6223 74.8591 40.6351 74.8591C40.6095 74.8591 40.5967 74.8464 40.5839 74.8336Z" fill="#C0DFED"/>
<path d="M41.0826 75.4722C41.0698 75.4594 41.0442 75.4338 41.0314 75.4211C41.057 75.4338 41.0698 75.4594 41.0826 75.4722C41.0954 75.4722 41.0826 75.4722 41.0826 75.4722Z" fill="#FEFEFE"/>
<path d="M66.4252 45.9329C65.9777 46.2777 65.5557 46.6481 65.0954 46.9291C64.6351 47.21 64.6223 47.5293 64.8269 47.938C65.0187 48.3211 65.2233 48.6914 65.4278 49.0618C65.5301 49.2534 65.5941 49.4194 65.2616 49.4322C62.7938 49.5216 60.3261 49.5599 58.0117 48.4871C57.2957 48.1551 56.6052 47.7847 56.0554 47.1972C55.8508 46.9801 55.659 46.7503 55.5056 46.4948C55.2882 46.1245 54.9941 45.6903 55.1987 45.3199C55.3394 45.0645 55.8253 45.2688 56.1577 45.2816C58.0757 45.3327 59.9808 45.2178 61.8988 45.205C62.9984 45.205 64.1108 45.2433 65.1977 45.4349C65.6196 45.5243 66.0288 45.6264 66.4252 45.9329Z" fill="#4F4E51"/>
<path d="M63.8934 51.2584C63.8551 51.335 63.8423 51.3989 63.8167 51.3989C62.8705 51.6926 62.3974 52.395 62.1033 53.2762C61.9371 53.7615 61.7197 53.8892 61.4384 53.3401C61.2978 53.0591 61.1188 52.8037 60.9142 52.4589C60.6329 52.8803 60.3772 53.2634 60.1342 53.6466C59.9424 53.9403 59.7634 53.9148 59.6228 53.621C59.4438 53.2379 59.2776 52.8548 59.0986 52.4589C58.9451 52.1268 58.83 52.0119 58.5487 52.4078C58.2035 52.9059 58.0117 52.8548 57.8199 52.2545C57.6793 51.8203 57.5514 51.3606 57.4491 50.9136C57.3852 50.6326 57.4363 50.4028 57.8455 50.556C59.4182 51.1179 61.0804 51.1435 62.7043 51.335C63.1135 51.3734 63.4587 51.0924 63.8934 51.2584Z" fill="#DAECF5"/>
<path d="M70.9004 54.5533C71.0155 54.6299 71.0155 54.6938 70.9004 54.7704C70.9004 54.6938 70.9004 54.6172 70.9004 54.5533Z" fill="#87C1DB"/>
<path d="M59.8401 36.3802C58.8045 36.1504 57.8327 36.1759 57.0527 37.0826C57.0911 36.3802 57.7304 35.78 58.4848 35.6395C58.9835 35.5501 59.5972 35.8566 59.8401 36.3802Z" fill="#DAECF5"/>
<path d="M57.1167 38.0149C57.8327 36.8528 59.0602 36.7379 60.0064 37.7084C58.9579 37.3253 58.0884 37.6701 57.1167 38.0149Z" fill="#DAECF5"/>
<path d="M70.0948 39.9817C69.5962 39.5219 69.187 39.1132 68.586 39.0621C68.4837 39.0494 68.3814 38.9855 68.4198 38.845C68.4582 38.7301 68.5732 38.7173 68.6755 38.6918C69.3916 38.5513 70.0053 39.0494 70.0948 39.9817Z" fill="#DAECF5"/>
<path d="M68.7139 37.734C69.788 37.287 70.5935 37.6573 70.7341 38.679C70.1715 38.1043 69.4939 37.9255 68.7139 37.734Z" fill="#DAECF5"/>
<path d="M72.0384 21.0679C72.0256 21.0806 72.0128 21.1062 72.0128 21.119C72.0128 21.1062 72.0256 21.0934 72.0384 21.0679Z" fill="#FEFEFE"/>
<path d="M57.2062 37.9255L57.1678 37.9766L57.1422 37.9511L57.2062 37.9255Z" fill="#DAECF5"/>
<path d="M80.2472 48.0657C80.2472 48.0784 80.2472 48.104 80.2472 48.104C80.2344 48.1167 80.2216 48.1167 80.196 48.1167C80.196 48.0912 80.196 48.0784 80.2088 48.0529C80.2216 48.0529 80.2344 48.0529 80.2472 48.0657Z" fill="#ECF5FA"/>
<path d="M75.8743 71.3854C75.8487 71.3982 75.8359 71.4237 75.8104 71.4365C75.8231 71.4237 75.8487 71.3982 75.8743 71.3854C75.8615 71.3854 75.8743 71.3854 75.8743 71.3854Z" fill="#FEFEFE"/>
<path d="M83.5333 52.1013C83.5461 52.0885 83.5717 52.063 83.5844 52.0502C83.5844 52.063 83.5844 52.0758 83.5717 52.0885C83.5717 52.0885 83.5589 52.1013 83.5333 52.1013C83.5461 52.1013 83.5333 52.1013 83.5333 52.1013Z" fill="#C0DFED"/>
<path d="M59.7506 39.9817C60.4283 40.071 61.0676 40.2882 61.707 40.5053C62.0905 40.633 62.2568 40.8884 62.0266 41.2843C61.8604 41.578 61.7197 41.8845 61.5791 42.191C61.1571 43.0595 60.505 43.4426 59.4949 43.4554C57.8583 43.4681 56.2855 43.2127 54.7384 42.753C54.1886 42.5869 53.9201 42.2804 54.0096 41.6802C54.0863 41.1566 54.1247 40.6202 54.1758 40.0966C54.2142 39.6496 54.4699 39.3686 54.9174 39.3942C55.7613 39.4197 56.618 39.3942 57.4491 39.573C57.3596 39.8923 57.2701 40.2115 57.1678 40.5308C56.9632 41.0033 57.0144 41.4886 57.1039 41.9612C57.2701 42.804 58.1651 43.0722 58.8172 42.4975C59.009 42.3315 59.188 42.1527 59.2392 41.8845L59.2264 41.8973C59.3287 41.8334 59.3415 41.744 59.3415 41.6419C59.7506 41.1438 59.6867 40.5436 59.7506 39.9817Z" fill="#ECF5FA"/>
<path d="M68.5732 41.0033C69.1358 40.9522 69.6729 41.1055 70.2099 41.2204C70.5935 41.3098 70.7086 41.4886 70.5424 41.859C70.3889 42.2038 70.2099 42.5486 70.1076 42.919C69.8263 43.9279 69.1231 44.2855 68.1513 44.2727C67.1923 44.2599 66.2461 44.1705 65.3127 43.9534C64.8268 43.8385 64.5967 43.5703 64.5455 43.085C64.4816 42.5614 64.5583 42.0633 64.6478 41.5652C64.699 41.2587 64.9163 41.0927 65.1976 41.0161C65.594 40.9011 65.9904 40.8501 66.3996 40.9011C66.3484 41.2843 66.2973 41.6674 66.2461 42.0633C66.0288 42.9062 66.3101 43.7618 66.8471 43.9151C67.4864 44.0939 68.0746 43.6469 68.3687 42.7274C68.407 42.6252 68.407 42.5231 68.4198 42.4209C68.6883 41.9611 68.5477 41.4758 68.5732 41.0033Z" fill="#ECF5FA"/>
<path d="M59.7507 39.9816C59.6739 40.5436 59.7379 41.1438 59.3543 41.6419C59.2648 41.7057 59.1881 41.7696 59.2392 41.8973L59.252 41.8845C59.1753 41.9101 59.0986 41.9228 59.0346 41.9611C58.114 42.5486 57.334 42.191 57.2062 41.1055C57.1806 40.9139 57.1934 40.7224 57.1806 40.5436C57.2701 40.2243 57.3596 39.905 57.4619 39.5857C58.2547 39.5602 59.009 39.739 59.7507 39.9816ZM58.4848 40.6457C58.4081 40.4669 58.3953 40.186 58.0884 40.1987C57.6665 40.2115 57.5898 40.5436 57.5898 40.8756C57.5898 41.1183 57.6921 41.3737 57.9861 41.3354C58.3442 41.297 58.4337 40.9905 58.4848 40.6457Z" fill="#FEFEFE"/>
<path d="M66.2589 42.0633C66.3101 41.6802 66.3612 41.2971 66.4123 40.9012C67.1412 40.8884 67.87 40.8245 68.586 41.0033C68.5477 41.4758 68.6883 41.9611 68.4454 42.4209C68.3047 42.5997 68.1513 42.7657 68.0106 42.9445C67.7933 43.1999 67.5375 43.3659 67.1923 43.3532C66.6297 43.3404 66.3101 42.8934 66.2589 42.0633ZM66.5786 41.8845C66.6041 42.1016 66.6041 42.4081 66.8982 42.4081C67.2946 42.4081 67.3969 42.0633 67.4225 41.744C67.4353 41.5142 67.3585 41.2332 67.0644 41.246C66.6936 41.2587 66.6169 41.5652 66.5786 41.8845Z" fill="#FEFEFE"/>
<path d="M1.70059 87.1959V93.5175H10.0373V94.9861H1.70059V101.819H0V85.7272H11.0602V87.1959H1.70059Z" fill="#21609B"/>
<path d="M14.5381 101.155C13.6047 100.631 12.8631 99.8902 12.326 98.9579C11.789 98.0256 11.5205 96.9657 11.5205 95.778C11.5205 94.603 11.789 93.543 12.326 92.598C12.8631 91.6657 13.6047 90.9378 14.5381 90.4142C15.4715 89.8905 16.5328 89.6351 17.6963 89.6351C18.8599 89.6351 19.9212 89.8905 20.8546 90.4142C21.788 90.9378 22.5296 91.6657 23.0538 92.598C23.5781 93.5303 23.8466 94.5903 23.8466 95.778C23.8466 96.9529 23.5781 98.0129 23.0538 98.9579C22.5296 99.8902 21.788 100.631 20.8546 101.155C19.9212 101.678 18.8599 101.946 17.6963 101.946C16.52 101.946 15.4715 101.678 14.5381 101.155ZM20.0107 99.9157C20.6883 99.5198 21.2254 98.9707 21.6089 98.2427C21.9925 97.5276 22.1843 96.6975 22.1843 95.778C22.1843 94.8584 21.9925 94.0411 21.6089 93.3132C21.2254 92.598 20.6883 92.0361 20.0107 91.6402C19.333 91.2443 18.553 91.0527 17.6963 91.0527C16.8396 91.0527 16.0597 91.2443 15.382 91.6402C14.7043 92.0361 14.1673 92.5852 13.7709 93.3132C13.3745 94.0283 13.1827 94.8584 13.1827 95.778C13.1827 96.6975 13.3745 97.5148 13.7709 98.2427C14.1673 98.9579 14.7043 99.5198 15.382 99.9157C16.0597 100.312 16.8396 100.503 17.6963 100.503C18.553 100.503 19.3202 100.299 20.0107 99.9157Z" fill="#21609B"/>
<path d="M37.0165 89.7373V101.844H35.4566V99.6348C35.0219 100.375 34.4337 100.937 33.6793 101.346C32.9249 101.755 32.0682 101.959 31.0964 101.959C29.5109 101.959 28.2707 101.512 27.35 100.631C26.4422 99.7497 25.9819 98.4598 25.9819 96.7485V89.7373H27.6186V96.5953C27.6186 97.8724 27.9382 98.8302 28.5647 99.4943C29.1913 100.158 30.0863 100.478 31.2627 100.478C32.5413 100.478 33.5386 100.095 34.2803 99.3155C35.0219 98.5365 35.3799 97.4637 35.3799 96.0844V89.7373H37.0165Z" fill="#21609B"/>
<path d="M50.3143 90.9633C51.2094 91.8445 51.6569 93.1344 51.6569 94.8201V101.831H50.0203V94.9734C50.0203 93.7218 49.7006 92.7512 49.0741 92.0999C48.4475 91.4358 47.5397 91.1166 46.3761 91.1166C45.0719 91.1166 44.0362 91.4997 43.2818 92.2787C42.5274 93.0577 42.1439 94.1177 42.1439 95.4842V101.831H40.5072V89.7245H42.0671V91.9594C42.5147 91.2187 43.1284 90.6568 43.9212 90.2481C44.7139 89.8395 45.6345 89.6351 46.6702 89.6351C48.2046 89.6351 49.4193 90.0821 50.3143 90.9633Z" fill="#21609B"/>
<path d="M66.1311 84.7694V101.844H64.5711V99.456C64.0852 100.273 63.4331 100.886 62.6276 101.321C61.822 101.755 60.9142 101.959 59.9041 101.959C58.7661 101.959 57.7432 101.704 56.8226 101.18C55.902 100.656 55.1731 99.9285 54.6617 98.9962C54.1374 98.0639 53.8817 96.9912 53.8817 95.8035C53.8817 94.603 54.1374 93.543 54.6617 92.6107C55.1859 91.6785 55.902 90.9505 56.8226 90.4397C57.7432 89.9288 58.7789 89.6734 59.9041 89.6734C60.8886 89.6734 61.7709 89.8778 62.5637 90.2864C63.3564 90.6951 64.0085 91.2826 64.5072 92.0744V84.8077H66.1311V84.7694ZM62.3207 99.9157C62.9984 99.5198 63.5354 98.9707 63.9318 98.2427C64.3282 97.5276 64.52 96.6975 64.52 95.7779C64.52 94.8584 64.3282 94.0411 63.9318 93.3132C63.5354 92.598 62.9984 92.0361 62.3207 91.6402C61.643 91.2443 60.8759 91.0527 60.032 91.0527C59.1753 91.0527 58.3953 91.2443 57.7176 91.6402C57.0399 92.0361 56.5029 92.5852 56.1065 93.3132C55.7102 94.0283 55.5184 94.8584 55.5184 95.7779C55.5184 96.6975 55.7102 97.5148 56.1065 98.2427C56.5029 98.9579 57.0399 99.5198 57.7176 99.9157C58.3953 100.312 59.1753 100.503 60.032 100.503C60.8631 100.503 61.6302 100.299 62.3207 99.9157Z" fill="#21609B"/>
<path d="M77.4853 90.8228C78.3292 91.6146 78.7512 92.7768 78.7512 94.3348V101.831H77.1785V99.9413C76.8077 100.567 76.2706 101.065 75.5546 101.41C74.8386 101.768 73.9947 101.934 73.0101 101.934C71.6548 101.934 70.5807 101.614 69.7879 100.963C68.9952 100.324 68.586 99.4687 68.586 98.4088C68.586 97.3871 68.9568 96.557 69.6984 95.9184C70.44 95.2926 71.6292 94.9734 73.2531 94.9734H77.1018V94.2327C77.1018 93.1854 76.8077 92.3936 76.2323 91.8573C75.6441 91.3081 74.8002 91.0399 73.675 91.0399C72.9078 91.0399 72.1662 91.1676 71.463 91.4231C70.7597 91.6785 70.146 92.0233 69.6473 92.4703L68.9057 91.257C69.5194 90.7334 70.261 90.3375 71.1177 90.0438C71.9744 89.7628 72.8822 89.6223 73.8412 89.6223C75.4267 89.6351 76.6414 90.031 77.4853 90.8228ZM75.6441 100.031C76.309 99.6092 76.7949 98.9962 77.1145 98.2044V96.2249H73.317C71.2456 96.2249 70.2099 96.9401 70.2099 98.3832C70.2099 99.0856 70.4784 99.6475 71.0154 100.056C71.5525 100.465 72.3069 100.669 73.2786 100.669C74.1865 100.656 74.9792 100.452 75.6441 100.031Z" fill="#21609B"/>
<path d="M88.4944 101.103C88.1875 101.384 87.804 101.589 87.3564 101.742C86.9089 101.882 86.4358 101.959 85.9371 101.959C84.7992 101.959 83.9297 101.653 83.3159 101.04C82.7022 100.427 82.3953 99.5581 82.3953 98.4343V91.1165H80.2344V89.7373H82.3953V87.0937H84.032V89.7373H87.7144V91.1165H84.032V98.3321C84.032 99.0473 84.211 99.5965 84.569 99.9796C84.927 100.35 85.4513 100.542 86.1289 100.542C86.4614 100.542 86.7938 100.49 87.1135 100.375C87.4331 100.273 87.7017 100.12 87.9318 99.9157L88.4944 101.103Z" fill="#21609B"/>
<path d="M90.3612 86.7361C90.1311 86.5062 90.016 86.2253 90.016 85.906C90.016 85.5995 90.1311 85.3313 90.3612 85.1014C90.5914 84.8716 90.8727 84.7566 91.2179 84.7566C91.5504 84.7566 91.8444 84.8716 92.0746 85.0887C92.3047 85.3058 92.4198 85.574 92.4198 85.8805C92.4198 86.2125 92.3047 86.5062 92.0746 86.7361C91.8444 86.966 91.5631 87.0809 91.2179 87.0809C90.8727 87.0809 90.5914 86.966 90.3612 86.7361ZM90.3868 89.7373H92.0234V101.844H90.3868V89.7373Z" fill="#21609B"/>
<path d="M97.2914 101.155C96.358 100.631 95.6164 99.8902 95.0794 98.9579C94.5424 98.0256 94.2739 96.9657 94.2739 95.778C94.2739 94.603 94.5424 93.543 95.0794 92.598C95.6164 91.6657 96.358 90.9378 97.2914 90.4142C98.2249 89.8905 99.2861 89.6351 100.45 89.6351C101.613 89.6351 102.675 89.8905 103.608 90.4142C104.541 90.9378 105.283 91.6657 105.807 92.598C106.331 93.5303 106.6 94.5903 106.6 95.778C106.6 96.9529 106.331 98.0129 105.807 98.9579C105.283 99.8902 104.541 100.631 103.608 101.155C102.675 101.678 101.613 101.946 100.45 101.946C99.2733 101.946 98.2249 101.678 97.2914 101.155ZM102.764 99.9157C103.442 99.5198 103.979 98.9707 104.362 98.2427C104.746 97.5276 104.938 96.6975 104.938 95.778C104.938 94.8584 104.746 94.0411 104.362 93.3132C103.979 92.598 103.442 92.0361 102.764 91.6402C102.086 91.2443 101.306 91.0527 100.45 91.0527C99.593 91.0527 98.813 91.2443 98.1353 91.6402C97.4577 92.0361 96.9206 92.5852 96.5243 93.3132C96.1279 94.0283 95.9361 94.8584 95.9361 95.778C95.9361 96.6975 96.1279 97.5148 96.5243 98.2427C96.9206 98.9579 97.4577 99.5198 98.1353 99.9157C98.813 100.312 99.593 100.503 100.45 100.503C101.306 100.503 102.074 100.299 102.764 99.9157Z" fill="#21609B"/>
<path d="M118.657 90.9633C119.552 91.8445 120 93.1344 120 94.8201V101.831H118.363V94.9734C118.363 93.7218 118.044 92.7512 117.417 92.0999C116.791 91.4358 115.883 91.1166 114.719 91.1166C113.415 91.1166 112.379 91.4997 111.625 92.2787C110.871 93.0577 110.487 94.1177 110.487 95.4842V101.831H108.85V89.7245H110.41V91.9594C110.858 91.2187 111.472 90.6568 112.264 90.2481C113.057 89.8395 113.978 89.6351 115.013 89.6351C116.548 89.6351 117.762 90.0821 118.657 90.9633Z" fill="#21609B"/>
<path d="M58.0757 59.389C58.3158 59.389 58.5104 59.1432 58.5104 58.8399C58.5104 58.5366 58.3158 58.2907 58.0757 58.2907C57.8356 58.2907 57.6409 58.5366 57.6409 58.8399C57.6409 59.1432 57.8356 59.389 58.0757 59.389Z" fill="#4F4E51"/>
<path d="M67.1412 60.4235C67.3813 60.4235 67.5759 60.1776 67.5759 59.8743C67.5759 59.5711 67.3813 59.3252 67.1412 59.3252C66.9011 59.3252 66.7064 59.5711 66.7064 59.8743C66.7064 60.1776 66.9011 60.4235 67.1412 60.4235Z" fill="#4F4E51"/>
</svg>
