<svg width="120" height="120" viewBox="0 0 120 120" fill="none" xmlns="http://www.w3.org/2000/svg">
<path d="M108 60C108 75.4344 100.714 89.1683 89.3936 97.9494C81.2728 104.25 71.0752 108 60 108C49.0247 108 38.9113 104.317 30.8258 98.1178C19.3802 89.3466 12 75.5344 12 60C12 33.4903 33.4903 12 60 12C86.5097 12 108 33.4903 108 60Z" fill="#F2F2F2"/>
<path d="M95 34L89.484 97.8946C81.3096 104.23 71.0448 108 59.8965 108C48.8488 108 38.6687 104.297 30.5298 98.0639L25 34H95Z" fill="#E64C18"/>
<path d="M60 40V107L82.8933 100.466L88 40H60Z" fill="#F36518"/>
<path d="M38 49L40.2743 75.5261H70.5034L69.5144 86.4836L60.0001 89.0215L50.0909 86.2872L49.842 79.4555H40.6116L41.7671 92.9244L60.0001 98L78.2329 92.9244L80.4926 66.5701H48.658L47.8679 57.9808L47.8678 57.9804L81.2451 57.8082L82 49H38Z" fill="white"/>
<path d="M40.0975 15V19.5351H35.9025V15H32V28H35.9025V23.7675H40.0975V28H44V15H40.0975Z" fill="black"/>
<path d="M59 15H46V19.5001H50.2276V28H54.7724V19.5001H59V15Z" fill="black"/>
<path d="M82.0954 23.8679V15H78V23.8679V28H82.0954H88V23.8679H82.0954Z" fill="black"/>
<path d="M70.8766 15L68.0001 19.6355L65.1233 15H61V28H65.1233V21.5502L68.0001 26.1861L70.8766 21.5502V28H75V15H70.8766Z" fill="black"/>
</svg>
