<svg width="64" height="64" viewBox="0 0 64 64" fill="none" xmlns="http://www.w3.org/2000/svg">
<path d="M18 16C19.3845 16 20.7378 15.5895 21.889 14.8203C23.0401 14.0511 23.9373 12.9579 24.4672 11.6788C24.997 10.3997 25.1356 8.99223 24.8655 7.63437C24.5954 6.2765 23.9287 5.02922 22.9497 4.05025C21.9708 3.07129 20.7235 2.4046 19.3656 2.13451C18.0078 1.86441 16.6003 2.00303 15.3212 2.53285C14.0421 3.06266 12.9489 3.95987 12.1797 5.11101C11.4105 6.26215 11 7.61553 11 9C11.0021 10.8559 11.7403 12.6351 13.0526 13.9474C14.3649 15.2597 16.1441 15.9979 18 16ZM18 4C18.9889 4 19.9556 4.29325 20.7779 4.84265C21.6001 5.39206 22.241 6.17295 22.6194 7.08658C22.9978 8.00021 23.0969 9.00555 22.9039 9.97545C22.711 10.9454 22.2348 11.8363 21.5355 12.5355C20.8363 13.2348 19.9454 13.711 18.9755 13.9039C18.0055 14.0969 17.0002 13.9978 16.0866 13.6194C15.173 13.241 14.3921 12.6001 13.8427 11.7778C13.2932 10.9556 13 9.98891 13 9C13.0016 7.67441 13.5289 6.40356 14.4662 5.46622C15.4036 4.52888 16.6744 4.00159 18 4Z" fill="#FF6B00"/>
<path d="M10.314 13.7469L9.555 14.1799C8.17417 14.9666 7.02568 16.1041 6.22581 17.4774C5.42593 18.8506 5.00306 20.4108 5 21.9999V27.9999C5 28.7956 5.31607 29.5587 5.87868 30.1213C6.44129 30.6839 7.20435 30.9999 8 30.9999H28C28.7956 30.9999 29.5587 30.6839 30.1213 30.1213C30.6839 29.5587 31 28.7956 31 27.9999V21.9999C30.9969 20.4108 30.5741 18.8506 29.7742 17.4774C28.9743 16.1041 27.8258 14.9666 26.445 14.1799L25.686 13.7469L25.155 14.4469C24.3183 15.5525 23.2369 16.4491 21.9954 17.0665C20.754 17.6838 19.3864 18.0051 18 18.0051C16.6136 18.0051 15.246 17.6838 14.0046 17.0665C12.7631 16.4491 11.6817 15.5525 10.845 14.4469L10.314 13.7469ZM18 19.9999C19.5379 20.0044 21.0594 19.6833 22.4644 19.0579C23.8694 18.4324 25.1261 17.5167 26.152 16.3709C27.0333 17.0217 27.7499 17.8698 28.2444 18.8472C28.739 19.8247 28.9978 20.9045 29 21.9999V27.9999C29 28.2652 28.8946 28.5195 28.7071 28.7071C28.5196 28.8946 28.2652 28.9999 28 28.9999H8C7.73478 28.9999 7.48043 28.8946 7.29289 28.7071C7.10536 28.5195 7 28.2652 7 27.9999V21.9999C7.00223 20.9045 7.26099 19.8247 7.75555 18.8472C8.25011 17.8698 8.96673 17.0217 9.848 16.3709C10.8739 17.5167 12.1306 18.4324 13.5356 19.0579C14.9406 19.6833 16.4621 20.0044 18 19.9999Z" fill="#FF6B00"/>
<path d="M30 55.0001C30.0021 56.8559 30.7403 58.6352 32.0526 59.9475C33.3649 61.2598 35.1441 61.9979 37 62.0001H52C53.8559 61.9979 55.6351 61.2598 56.9474 59.9475C58.2597 58.6352 58.9979 56.8559 59 55.0001V40.0001C58.9979 38.1442 58.2597 36.3649 56.9474 35.0527C55.6351 33.7404 53.8559 33.0022 52 33.0001H37C35.1441 33.0022 33.3649 33.7404 32.0526 35.0527C30.7403 36.3649 30.0021 38.1442 30 40.0001V55.0001ZM57 55.0001C56.9984 56.3257 56.4711 57.5965 55.5338 58.5338C54.5964 59.4712 53.3256 59.9985 52 60.0001H37C35.6744 59.9985 34.4036 59.4712 33.4662 58.5338C32.5289 57.5965 32.0016 56.3257 32 55.0001V43.0001H57V55.0001ZM32 40.0001C32.0016 38.6745 32.5289 37.4036 33.4662 36.4663C34.4036 35.5289 35.6744 35.0016 37 35.0001H52C53.3256 35.0016 54.5964 35.5289 55.5338 36.4663C56.4711 37.4036 56.9984 38.6745 57 40.0001V41.0001H32V40.0001Z" fill="#FF6B00"/>
<path d="M36.71 37.29C36.5698 37.151 36.3916 37.0565 36.1979 37.0186C36.0041 36.9807 35.8035 37.001 35.6212 37.0769C35.439 37.1528 35.2833 37.281 35.1738 37.4453C35.0642 37.6096 35.0058 37.8026 35.0058 38C35.0058 38.1974 35.0642 38.3904 35.1738 38.5547C35.2833 38.719 35.439 38.8472 35.6212 38.9231C35.8035 38.999 36.0041 39.0193 36.1979 38.9814C36.3916 38.9435 36.5698 38.849 36.71 38.71C36.8004 38.6144 36.8717 38.5024 36.92 38.38C36.9728 38.2603 37 38.1309 37 38C37 37.8691 36.9728 37.7397 36.92 37.62C36.8741 37.4964 36.8025 37.3839 36.71 37.29Z" fill="#FF6B00"/>
<path d="M39.8001 37.02C39.7374 37.0309 39.6767 37.0511 39.6201 37.08C39.5561 37.102 39.4952 37.1323 39.4391 37.17C39.3872 37.2072 39.3374 37.2472 39.2901 37.29C39.1041 37.4796 39 37.7345 39 38C39 38.2655 39.1041 38.5204 39.2901 38.71L39.4391 38.83C39.4952 38.8677 39.5561 38.898 39.6201 38.92C39.6767 38.9489 39.7374 38.9691 39.8001 38.98C39.8662 38.9912 39.933 38.9979 40.0001 39C40.1987 39.0012 40.3932 38.9431 40.5587 38.8333C40.7242 38.7235 40.8533 38.5669 40.9294 38.3835C41.0056 38.2 41.0254 37.9981 40.9863 37.8033C40.9473 37.6086 40.8511 37.4299 40.7101 37.29C40.5908 37.1759 40.446 37.0918 40.2877 37.0449C40.1295 36.9979 39.9623 36.9894 39.8001 37.02Z" fill="#FF6B00"/>
<path d="M43.6201 37.08C43.4977 37.1283 43.3857 37.1996 43.2901 37.29C43.1041 37.4796 43 37.7345 43 38C43 38.2655 43.1041 38.5204 43.2901 38.71C43.3857 38.8004 43.4977 38.8717 43.6201 38.92C43.7403 38.9713 43.8694 38.9984 44.0001 39C44.1987 39.0012 44.3932 38.9431 44.5587 38.8333C44.7242 38.7235 44.8533 38.5669 44.9294 38.3835C45.0056 38.2001 45.0254 37.9981 44.9863 37.8033C44.9473 37.6086 44.8511 37.4299 44.7101 37.29C44.5694 37.1513 44.3909 37.0573 44.1969 37.0199C44.0029 36.9825 43.8022 37.0034 43.6201 37.08Z" fill="#FF6B00"/>
<path d="M45.367 26.87L49 30L52.13 26.367L51.917 23.5L49.6 26.183C48.7176 21.8997 46.3862 18.0513 42.9983 15.2859C39.6105 12.5204 35.3732 11.0068 31 11V13C34.8191 13.0055 38.5255 14.2949 41.5233 16.6611C44.5212 19.0272 46.6364 22.3326 47.529 26.046L45.154 24L45.367 26.87Z" fill="#7F8284"/>
<path d="M12.6331 37.13L9.00006 34L5.87006 37.633L6.08306 40.5L8.40006 37.817C9.28247 42.1003 11.6139 45.9487 15.0017 48.7141C18.3895 51.4796 22.6268 52.9932 27.0001 53V51C23.1809 50.9945 19.4746 49.7051 16.4767 47.3389C13.4789 44.9728 11.3636 41.6674 10.4711 37.954L12.8461 40L12.6331 37.13Z" fill="#7F8284"/>
</svg>
