<svg width="64" height="64" viewBox="0 0 64 64" fill="none" xmlns="http://www.w3.org/2000/svg">
<path d="M45.8667 0H18.1333C15.1893 0.00346667 12.8035 2.38933 12.8 5.33333V58.6667C12.8035 61.6107 15.1893 63.9965 18.1333 64H45.8667C48.8107 63.9965 51.1965 61.6107 51.2 58.6667V5.33333C51.1965 2.38933 48.8107 0.00346667 45.8667 0ZM49.0667 58.6667C49.0667 60.434 47.634 61.8667 45.8667 61.8667H18.1333C16.366 61.8667 14.9333 60.434 14.9333 58.6667V57.6H49.0667V58.6667ZM49.0667 55.4667H14.9333V8.53333H49.0667V55.4667ZM49.0667 6.4H14.9333V5.33333C14.9333 3.566 16.366 2.13333 18.1333 2.13333H45.8667C47.634 2.13333 49.0667 3.566 49.0667 5.33333V6.4Z" fill="#FF6B00"/>
<path d="M37.0209 47.2459L32.7542 42.9792C32.3376 42.5628 31.6624 42.5628 31.2459 42.9792L26.9792 47.2459C26.5627 47.6626 26.5628 48.3379 26.9795 48.7544C27.1795 48.9543 27.4507 49.0667 27.7334 49.0667H28.8V52.2667C28.8 52.8558 29.2776 53.3334 29.8667 53.3334H34.1334C34.7224 53.3334 35.2 52.8558 35.2 52.2667V49.0667H36.2667C36.8558 49.0666 37.3332 48.589 37.3331 47.9998C37.3331 47.7171 37.2207 47.4459 37.0209 47.2459ZM33.0667 48V51.2H30.9334V48C30.9336 47.5551 30.6578 47.1567 30.2411 47.0006L32 45.2416L33.759 47.0006C33.3423 47.1567 33.0664 47.5551 33.0667 48Z" fill="#7F8284"/>
<path d="M32 10.6667C23.7525 10.6667 17.0667 17.3525 17.0667 25.6C17.0667 33.8475 23.7525 40.5333 32 40.5333C40.2475 40.5333 46.9333 33.8475 46.9333 25.6C46.9245 17.3563 40.2437 10.6755 32 10.6667ZM36.4277 13.6064C35.9471 14.0219 35.3763 14.3199 34.7605 14.4768L33.7152 14.7381C31.6644 15.2515 29.4915 14.8023 27.8123 13.5179C30.6048 12.5312 33.6561 12.5625 36.4277 13.6064ZM23.1669 34.8405C20.6349 32.4336 19.2009 29.0935 19.2 25.6C19.2019 24.6747 19.3041 23.7523 19.505 22.8491L20.4234 24.3787C21.2117 25.6915 22.3106 26.7904 23.6235 27.5787C25.5644 28.7279 26.2063 31.2329 25.057 33.174C24.6185 33.9148 23.9569 34.4981 23.1669 34.8405ZM32 38.4C29.5009 38.4013 27.0568 37.6664 24.9728 36.2869C26.1217 35.5173 26.9841 34.3897 27.4261 33.0795C28.3664 30.3015 27.2355 27.2444 24.7136 25.7472C23.7023 25.1391 22.8556 24.2924 22.2475 23.2811L20.4032 20.2069C21.5273 17.8012 23.3683 15.8021 25.6736 14.4843C27.924 16.6983 31.166 17.5788 34.2272 16.8075L35.2725 16.5472C36.5161 16.2352 37.6335 15.5476 38.4725 14.5781C39.8712 15.4007 41.1017 16.4803 42.0992 17.76L41.2672 18.176C38.2443 19.6853 35.4855 21.6736 33.0976 24.064C31.5065 25.6605 31.5111 28.2445 33.1075 29.8355C34.4296 31.1531 36.4772 31.4057 38.08 30.4491C39.5221 29.5791 41.3484 29.6732 42.6933 30.6869L43.4613 31.2629C41.3083 35.6273 36.8665 38.3932 32 38.4ZM44.2741 29.2053L43.9744 28.9803C41.936 27.4436 39.168 27.3009 36.9824 28.6197C36.0604 29.1737 34.8637 28.8755 34.3097 27.9533C33.8489 27.1865 33.9699 26.2045 34.6026 25.5723C36.8289 23.3444 39.4008 21.4912 42.2187 20.0843L43.2768 19.5509C44.8725 22.5095 45.2311 25.9797 44.2741 29.2021V29.2053Z" fill="#7F8284"/>
</svg>
