<svg width="120" height="120" viewBox="0 0 120 120" fill="none" xmlns="http://www.w3.org/2000/svg">
<path d="M107 13H13V107H107V13Z" fill="#F7DF1E"/>
<path d="M76.4254 86.7921C78.3204 89.8847 80.7858 92.1579 85.1462 92.1579C88.8093 92.1579 91.1493 90.328 91.1493 87.7996C91.1493 84.7696 88.7451 83.6965 84.7132 81.9337L82.5031 80.9859C76.1237 78.2694 71.8858 74.8663 71.8858 67.672C71.8858 61.0449 76.9376 56 84.8326 56C90.4534 56 94.4942 57.9553 97.4062 63.0749L90.5221 67.4929C89.0064 64.7764 87.3712 63.7062 84.8326 63.7062C82.2433 63.7062 80.6021 65.3481 80.6021 67.4929C80.6021 70.1438 82.2448 71.2169 86.0377 72.8588L88.2478 73.8051C95.759 77.0246 100 80.3068 100 87.6861C100 95.6416 93.7476 100 85.3508 100C77.1407 100 71.8365 96.0894 69.2412 90.9639L76.4254 86.7921ZM45.1962 87.5578C46.5849 90.0206 47.8483 92.1027 50.8856 92.1027C53.7901 92.1027 55.6223 90.9669 55.6223 86.5503V56.5045H64.4626V86.6697C64.4626 95.8193 59.0957 99.9836 51.2619 99.9836C44.1837 99.9836 40.0846 96.3223 38 91.9124L45.1962 87.5578Z" fill="black"/>
</svg>
