<svg width="120" height="120" viewBox="0 0 120 120" fill="none" xmlns="http://www.w3.org/2000/svg">
<path fill-rule="evenodd" clip-rule="evenodd" d="M112.826 82.0513L118.974 82.0851C118.974 82.0851 107.543 97.5518 106.61 98.8123C106.307 99.2205 105.846 99.6607 105.613 100.206C105.022 101.578 104.416 104.587 104.416 104.587L98.7904 104.615C98.7904 104.615 99.6659 101.479 99.6297 99.808C99.5981 98.3486 98.8518 96.8909 98.4333 95.4272C98.0103 93.9454 97.4359 91.046 97.4359 91.046H103.22L104.017 94.2323L112.826 82.0513Z" fill="#1A1918"/>
<path fill-rule="evenodd" clip-rule="evenodd" d="M101.236 85.2229C102.377 85.908 103.077 89.6877 103.077 89.6877C103.077 89.6877 97.1069 89.7754 93.8581 89.7754H91.0506L87.6413 104.558H82.4274C82.4274 104.558 85.6722 88.4931 86.4383 85.5805C86.6865 84.6375 88.1389 84.7994 90.5914 84.7994H94.5078C97.0367 84.7994 99.9926 84.4776 101.236 85.2229ZM76.9628 92.4223C76.9628 92.4223 77.1253 91.4735 76.4115 90.3746C75.8016 89.4379 75.2385 89.2199 73.634 89.1699C69.104 89.0282 69.192 92.3723 69.192 92.3723L76.9628 92.4223ZM81.8759 88.5926C82.5397 90.9781 81.2744 96.5832 81.2744 96.5832C81.2744 96.5832 74.6665 96.4734 71.047 96.5832C69.9217 96.6174 68.5746 96.4613 68.2395 96.9829C67.7682 97.7137 68.4118 98.8388 68.9574 99.3141C69.5851 99.8612 70.8081 99.9236 71.2476 99.9791C74.1853 100.351 80.3337 100.075 80.3337 100.075L79.2687 104.773C79.2687 104.773 70.58 105.207 66.2341 104.174C65.376 103.97 64.5716 103.559 64.0281 102.976C63.8798 102.816 63.751 102.598 63.6108 102.41C63.4988 102.26 63.1721 101.767 63.0254 101.377C62.0328 98.7425 63.1418 93.6948 64.2287 90.9899C64.3549 90.6765 64.5133 90.2788 64.6801 89.941C64.8885 89.5198 65.0649 89.0443 65.2314 88.7924C65.3434 88.6187 65.4823 88.5069 65.5986 88.343C65.7328 88.1492 65.8889 87.9615 66.0335 87.7938C66.4347 87.3304 66.8899 87.0026 67.4374 86.5955C69.248 85.2447 72.5248 84.1961 76.4615 84.5975C77.9436 84.7493 80.1819 85.2766 81.2744 86.795C81.567 87.2004 81.7116 88.0055 81.8759 88.5929V88.5926ZM57.962 84.781L63.0176 84.7513C63.0176 84.7513 60.2 98.0654 58.7641 104.558H52.9482C48.8837 104.558 45.264 105.059 43.7239 102.16C42.2299 99.346 43.6557 94.7175 44.3254 91.573C44.7987 89.3476 45.7957 84.7991 45.7957 84.7991L51.0337 84.7513C51.0337 84.7513 49.5536 91.8329 48.9377 95.3688C48.7172 96.6353 48.2623 97.8279 48.7374 98.7643C49.1885 99.6556 49.8203 99.7195 51.7452 99.7634C52.3551 99.7778 54.3524 99.7634 54.3524 99.7634L57.962 84.781ZM34.2986 94.3696C34.828 92.4962 35.6001 90.4646 35.5019 88.7763C35.3957 86.9707 33.8758 85.3267 32.895 84.9811C29.9412 83.9423 27.1758 85.3945 26.0767 86.5791C24.6549 88.1133 24.1735 89.9054 23.6701 92.3725C23.2955 94.204 22.9884 96.1376 23.6701 97.566C24.8772 100.091 28.6415 99.5398 32.6944 99.5639C33.2959 97.9578 33.7933 96.154 34.2986 94.3696ZM41.3176 86.9787C41.8948 91.1615 39.6793 95.7785 38.153 99.7934C39.7093 99.9334 41.0731 99.7718 41.1712 99.8874C41.2734 100.037 40.1281 104.68 39.7289 104.692C38.4939 104.724 34.4011 104.758 32.6944 104.758C27.1253 104.758 21.9155 105.119 19.2587 102.361C18.1798 101.24 17.4337 99.3178 17.253 97.9656C16.9523 95.7083 17.3292 93.223 17.8548 91.1739C18.3302 89.3237 18.9395 87.5779 19.8602 85.9796C22.2004 81.9107 26.2713 78.8903 33.0953 79.5875C34.419 79.7233 36.3199 80.3006 37.5073 80.9857C37.5893 81.0338 37.8765 81.2615 37.9423 81.3014C39.5468 82.3184 41.0087 84.7453 41.3176 86.9787ZM16.6775 84.8051C16.3406 86.3333 16.0038 88.0655 15.6488 89.5756H10.0338C10.4688 87.9017 10.8018 86.2375 11.2371 84.7812C13.0338 84.7812 14.7044 84.8051 16.6778 84.8051H16.6775ZM9.83319 90.9741H15.2479C14.5399 94.8774 13.138 101.174 12.0392 105.557C11.3514 108.3 10.8922 110.301 9.03109 111.749C8.86455 111.879 8.76844 111.817 8.62989 111.949C8.287 112.275 6.70069 112.653 5.82267 112.748C4.39482 112.902 2.78051 112.768 1.02564 112.732C1.48485 111.06 2.00439 109.053 2.41366 107.554C6.69116 108.07 6.7994 104.042 7.62748 100.163C8.1066 97.9216 9.5587 91.8728 9.83319 90.9741Z" fill="#1A1918"/>
<path fill-rule="evenodd" clip-rule="evenodd" d="M90.7104 54.6437L90.4216 55.3926C85.501 64.9793 76.781 70.8607 64.3437 71.1201C58.5294 71.2401 52.9896 69.7475 49.3706 68.1248C41.5608 64.6142 34.9916 58.104 31.4042 51.1483C26.258 41.1771 25.3299 27.3065 36.0303 16.9465C36.1955 16.9465 34.7322 19.193 34.8975 19.193L34.6029 20.1517C26.8923 44.3025 50.6485 64.9994 73.7417 62.6322C79.2916 62.063 86.3687 59.0224 90.7104 54.6437Z" fill="#21609B"/>
<path fill-rule="evenodd" clip-rule="evenodd" d="M76.7357 44.6575C82.5457 44.697 88.6142 41.9806 92.2081 38.1667C89.0639 46.1508 79.9604 51.2827 67.7529 49.6507C57.5309 48.2824 47.7938 37.9921 46.791 27.681C46.0576 20.1769 48.6716 15.6983 52.9795 10.2654C51.4825 13.1069 50.9229 15.298 50.7835 16.6958C49.1471 32.9285 63.7453 44.572 76.7357 44.6575Z" fill="#21609B"/>
<path fill-rule="evenodd" clip-rule="evenodd" d="M91.624 24.4952C90.7211 26.5678 85.521 30.4815 83.2245 30.9709C74.131 32.9091 68.3074 28.5951 65.2566 23.686C64.8033 22.953 63.965 20.9509 63.8149 20.4413C62.6318 16.4169 63.1756 10.33 66.7048 7.17947C65.6416 10.1755 65.4865 13.6552 66.0461 15.9175C66.3851 17.2851 67.4181 19.6731 68.4518 21.1751C70.3324 23.911 71.5256 24.5757 73.9413 26.0288C75.0296 26.6828 76.1969 27.2074 76.7012 27.3511C78.992 28.0259 83.8286 29.8031 91.6248 24.4952" fill="#21609B"/>
</svg>
