<svg width="121" height="120" viewBox="0 0 121 120" fill="none" xmlns="http://www.w3.org/2000/svg">
<path d="M11 45.8454C11 53.0693 18.227 59.8128 29.6205 63.614C27.3453 74.7937 29.213 83.8048 35.4505 87.3158C41.8617 90.925 51.4132 88.4268 60.4791 80.6916C69.3161 88.1144 78.2473 91.0354 84.4793 87.5143C90.8848 83.8951 92.8326 74.2729 90.4947 62.7441C102.362 58.9146 109 53.1644 109 45.8454C109 38.7892 101.76 32.6849 90.5196 28.9082C93.0367 16.9028 90.904 8.11047 84.4081 4.45434C78.1455 0.929424 69.1105 4.0017 60.1436 11.6185C50.8147 3.53401 41.869 1.06589 35.38 4.73217C29.1232 8.26725 27.3379 17.4423 29.6205 28.8287C18.6114 32.5752 11 38.8178 11 45.8454Z" fill="white"/>
<path d="M88.5316 32.6329C87.6058 32.321 86.6718 32.0321 85.7311 31.7665C85.8871 31.1439 86.0313 30.5188 86.1639 29.8909C88.2837 19.7867 86.8976 11.6468 82.1641 8.96722C77.6257 6.39731 70.2032 9.07687 62.7065 15.482C61.9678 16.1146 61.2456 16.7654 60.5404 17.4338C60.0682 16.9894 59.5876 16.5535 59.0988 16.1266C51.2423 9.27723 43.3673 6.39126 38.6386 9.07875C34.1047 11.6559 32.7617 19.3085 34.6703 28.8843C34.8602 29.8326 35.0744 30.776 35.3132 31.7136C34.199 32.0243 33.1227 32.3554 32.0933 32.7077C22.8825 35.8606 17 40.8024 17 45.9278C17 51.222 23.3145 56.5318 32.9086 59.7513C33.6866 60.0111 34.4711 60.2518 35.2611 60.4734C35.0045 61.4834 34.7766 62.5004 34.5778 63.5229C32.7582 72.9325 34.1793 80.4036 38.7015 82.9648C43.3723 85.6093 51.2116 82.8911 58.8451 76.3396C59.4485 75.8217 60.054 75.2725 60.6605 74.6966C61.4244 75.4203 62.2087 76.1228 63.0123 76.8035C70.4065 83.0506 77.709 85.5733 82.2273 83.0054C86.8939 80.353 88.41 72.3267 86.441 62.5616C86.2909 61.8158 86.1157 61.0539 85.9193 60.2783C86.4698 60.1187 87.0101 59.9538 87.5372 59.7823C97.511 56.538 104 51.2926 104 45.9278C104 40.7839 97.928 35.8089 88.5316 32.6329Z" fill="#53C1DE"/>
<path d="M86.009 56.2116C85.5308 56.3645 85.0399 56.5124 84.5397 56.6556C83.4325 53.269 81.9382 49.6676 80.1104 45.9472C81.855 42.3149 83.2913 38.7597 84.3675 35.3948C85.2621 35.6454 86.1309 35.9093 86.9679 36.1878C95.0626 38.8802 100 42.8618 100 45.9293C100 49.1969 94.6673 53.4391 86.0093 56.2116H86.009ZM82.4164 63.0908C83.2917 67.3637 83.4168 71.2269 82.8368 74.247C82.3158 76.9607 81.2682 78.7697 79.9729 79.4944C77.2162 81.0364 71.3206 79.032 64.9633 73.7453C64.2344 73.1394 63.5001 72.4921 62.7637 71.8075C65.2285 69.2023 67.6918 66.1736 70.0958 62.8106C74.3247 62.448 78.3199 61.8552 81.9429 61.0461C82.1209 61.7418 82.2797 62.4238 82.4164 63.0908ZM46.0847 79.2281C43.3916 80.1473 41.2466 80.1734 39.95 79.451C37.1906 77.9134 36.044 71.9766 37.6084 64.014C37.7945 63.0731 38.0074 62.1372 38.2472 61.2076C41.83 61.9733 45.796 62.5244 50.035 62.8565C52.4549 66.1474 54.9895 69.1723 57.5437 71.8213C57.0008 72.3288 56.4451 72.8232 55.8772 73.3043C52.4832 76.1713 49.0823 78.2049 46.0851 79.2281H46.0847ZM33.4672 56.1914C29.202 54.7826 25.6795 52.9517 23.265 50.9541C21.0956 49.1584 20 47.3759 20 45.9293C20 42.8515 24.7488 38.9255 32.6691 36.257C33.6631 35.9236 34.6671 35.6183 35.6797 35.3417C36.7744 38.7821 38.2103 42.3796 39.943 46.0172C38.1879 49.709 36.7316 53.3637 35.6266 56.8446C34.9014 56.644 34.1815 56.4262 33.4672 56.1914ZM37.697 28.3701C36.053 20.2511 37.1446 14.1269 39.892 12.5901C42.8187 10.9531 49.2895 13.2874 56.1098 19.1393C56.5457 19.5134 56.9834 19.9051 57.4221 20.3103C54.881 22.9473 52.3697 25.9492 49.9707 29.2212C45.8568 29.5897 41.9187 30.1814 38.2982 30.9741C38.0751 30.111 37.8747 29.2427 37.697 28.3697V28.3701ZM75.4287 37.3734C74.5738 35.946 73.6869 34.5365 72.7689 33.1461C75.56 33.4865 78.2339 33.9393 80.7448 34.4932C79.9911 36.8279 79.0516 39.2694 77.9451 41.7719C77.1367 40.2897 76.2979 38.8232 75.4287 37.3734ZM60.0418 22.8908C61.7653 24.695 63.4915 26.7098 65.1894 28.8956C61.7451 28.7384 58.2952 28.7377 54.8509 28.8935C56.5503 26.7277 58.2913 24.716 60.0418 22.8908ZM44.556 37.3981C43.6979 38.8365 42.8748 40.294 42.087 41.7694C40.9988 39.2753 40.0678 36.8231 39.3074 34.4552C41.8033 33.9152 44.4646 33.4743 47.2376 33.1394C46.3095 34.5385 45.4153 35.9584 44.556 37.3981ZM47.3174 58.977C44.4526 58.6679 41.7509 58.2492 39.256 57.7243C40.0283 55.3145 40.9797 52.8096 42.0912 50.262C42.8822 51.7385 43.7091 53.1969 44.5712 54.636C45.4508 56.1037 46.3664 57.5512 47.3174 58.977ZM60.1452 69.2229C58.3741 67.376 56.6076 65.3334 54.8822 63.1363C56.5569 63.2 58.2645 63.2322 60 63.2322C61.7831 63.2322 63.5457 63.1937 65.2803 63.1188C63.5771 65.3559 61.8569 67.4015 60.1452 69.2229ZM77.9807 50.1323C79.1498 52.7074 80.1354 55.1988 80.9182 57.568C78.3818 58.1273 75.6436 58.5778 72.7584 58.9123C73.6829 57.4958 74.5785 56.0618 75.4439 54.6109C76.3239 53.1364 77.1697 51.643 77.9807 50.1323ZM72.2068 52.8069C70.8817 55.0312 69.4823 57.2135 68.0104 59.3498C65.4151 59.5291 62.733 59.6214 60 59.6214C57.2781 59.6214 54.6303 59.5395 52.0802 59.3797C50.5702 57.2482 49.1442 55.0624 47.8051 52.8268C46.4724 50.603 45.2275 48.3311 44.0732 46.0161C45.2247 43.7003 46.4658 41.4272 47.7939 39.2016V39.2023C49.1217 36.9762 50.5366 34.7997 52.0353 32.6773C54.6368 32.4873 57.3041 32.3878 60.0004 32.3878C62.7087 32.3878 65.3796 32.488 67.9801 32.6797C69.4637 34.7986 70.8696 36.9676 72.1948 39.1824C73.5275 41.4032 74.7853 43.6652 75.9658 45.9648C74.7974 48.2879 73.5436 50.5702 72.2072 52.8069H72.2068ZM79.9155 12.4827C82.8446 14.1153 83.9838 20.6982 82.1436 29.3312C82.0228 29.8935 81.8917 30.4537 81.7501 31.0115C78.1213 30.2024 74.1803 29.6001 70.0545 29.226C67.6506 25.9186 65.1604 22.9113 62.6603 20.3084C63.3155 19.6981 63.9861 19.1036 64.6718 18.5255C71.1299 13.0944 77.1655 10.9501 79.9155 12.4827Z" fill="white"/>
<path d="M60 39C64.4184 39 68 42.358 68 46.4999C68 50.6421 64.4184 54 60 54C55.5818 54 52 50.6421 52 46.4999C52 42.358 55.5818 39 60 39Z" fill="#53C1DE"/>
<path d="M17.5097 110L14.0258 105.821H13.8194H10.1806V110H6V95H13.8194C15.4194 95 16.8043 95.2214 17.9742 95.6643C19.1613 96.1071 20.0731 96.7357 20.7097 97.55C21.3462 98.3643 21.6645 99.3286 21.6645 100.443C21.6645 101.557 21.3376 102.521 20.6839 103.336C20.0473 104.136 19.1355 104.75 17.9484 105.179L22 110H17.5097ZM17.4323 100.443C17.4323 99.6 17.1054 98.9571 16.4516 98.5143C15.7978 98.0571 14.843 97.8286 13.5871 97.8286H10.1806V103.057H13.5871C14.843 103.057 15.7978 102.829 16.4516 102.371C17.1054 101.914 17.4323 101.271 17.4323 100.443Z" fill="#53C1DE"/>
<path d="M37 104.547C37 104.594 36.9753 104.922 36.9259 105.532H26.8765C27.0576 106.315 27.4856 106.933 28.1605 107.386C28.8354 107.84 29.6749 108.067 30.679 108.067C31.3704 108.067 31.9794 107.973 32.5062 107.785C33.0494 107.582 33.5514 107.269 34.0123 106.847L36.0617 108.958C34.8107 110.319 32.9835 111 30.5802 111C29.0823 111 27.7572 110.726 26.6049 110.179C25.4527 109.616 24.5638 108.841 23.9383 107.856C23.3128 106.87 23 105.752 23 104.5C23 103.264 23.3045 102.153 23.9136 101.168C24.5391 100.167 25.3868 99.3923 26.4568 98.8448C27.5432 98.2816 28.7531 98 30.0864 98C31.3868 98 32.5638 98.2659 33.6173 98.7978C34.6708 99.3297 35.4938 100.096 36.0864 101.097C36.6955 102.083 37 103.233 37 104.547ZM30.1111 100.769C29.2387 100.769 28.5062 101.004 27.9136 101.473C27.321 101.942 26.9588 102.584 26.8272 103.397H33.3704C33.2387 102.599 32.8765 101.966 32.2839 101.496C31.6914 101.011 30.9671 100.769 30.1111 100.769Z" fill="#53C1DE"/>
<path d="M44.9041 98C47.1872 98 48.9406 98.4693 50.1644 99.4079C51.3881 100.331 52 101.731 52 103.608V110.812H48V109.24C47.1963 110.413 45.6986 111 43.5068 111C42.3744 111 41.3881 110.836 40.5479 110.507C39.726 110.179 39.0959 109.725 38.6575 109.146C38.2192 108.567 38 107.91 38 107.175C38 106.002 38.5114 105.079 39.5342 104.406C40.5753 103.733 42.1735 103.397 44.3288 103.397H47.726C47.726 102.599 47.4429 101.989 46.8767 101.567C46.3105 101.129 45.4612 100.91 44.3288 100.91C43.5434 100.91 42.7671 101.019 42 101.238C41.2511 101.442 40.6119 101.723 40.0822 102.083L38.5479 99.5253C39.3516 99.0403 40.3105 98.6649 41.4247 98.3989C42.5571 98.133 43.7169 98 44.9041 98ZM44.5753 108.536C45.3059 108.536 45.9543 108.395 46.5205 108.114C47.0868 107.816 47.4886 107.386 47.726 106.823V105.532H44.7945C43.0411 105.532 42.1644 106.025 42.1644 107.011C42.1644 107.48 42.3744 107.856 42.7945 108.137C43.2329 108.403 43.8265 108.536 44.5753 108.536Z" fill="#53C1DE"/>
<path d="M61.2089 111C59.8312 111 58.5896 110.726 57.4843 110.179C56.3949 109.616 55.5379 108.841 54.9131 107.856C54.3044 106.87 54 105.752 54 104.5C54 103.248 54.3044 102.13 54.9131 101.144C55.5379 100.159 56.3949 99.3923 57.4843 98.8448C58.5896 98.2816 59.8312 98 61.2089 98C62.5705 98 63.756 98.2816 64.7652 98.8448C65.7905 99.3923 66.5354 100.182 67 101.215L64.0924 102.74C63.4196 101.582 62.4504 101.004 61.1848 101.004C60.2076 101.004 59.3986 101.316 58.7579 101.942C58.1171 102.568 57.7967 103.421 57.7967 104.5C57.7967 105.579 58.1171 106.432 58.7579 107.058C59.3986 107.684 60.2076 107.996 61.1848 107.996C62.4664 107.996 63.4356 107.418 64.0924 106.26L67 107.809C66.5354 108.81 65.7905 109.592 64.7652 110.155C63.756 110.718 62.5705 111 61.2089 111Z" fill="#53C1DE"/>
<path d="M78 110.233C77.6269 110.489 77.1646 110.684 76.6131 110.82C76.0779 110.94 75.5101 111 74.91 111C73.3528 111 72.1444 110.632 71.2847 109.895C70.4412 109.158 70.0195 108.075 70.0195 106.647V101.662H68V98.9549H70.0195V96H73.8151V98.9549H77.0754V101.662H73.8151V106.602C73.8151 107.113 73.953 107.511 74.2287 107.797C74.5207 108.068 74.9262 108.203 75.4453 108.203C76.0454 108.203 76.5564 108.053 76.9781 107.752L78 110.233Z" fill="#53C1DE"/>
<path d="M90.7 111C89.5167 111 88.425 110.805 87.425 110.416C86.4417 110.011 85.6333 109.442 85 108.708L87.25 106.281C88.2 107.434 89.2833 108.011 90.5 108.011C92.15 108.011 92.975 107.142 92.975 105.404V97.9213H86.825V95H97V105.202C97 107.135 96.4667 108.588 95.4 109.562C94.3333 110.521 92.7667 111 90.7 111Z" fill="#53C1DE"/>
<path d="M106.345 111C104.919 111 103.536 110.838 102.196 110.514C100.873 110.175 99.8076 109.74 99 109.21L100.418 106.514C101.191 107 102.11 107.39 103.175 107.685C104.241 107.98 105.306 108.127 106.371 108.127C107.557 108.127 108.433 107.98 109 107.685C109.567 107.376 109.851 106.971 109.851 106.47C109.851 106.101 109.679 105.799 109.335 105.564C109.009 105.313 108.579 105.114 108.046 104.967C107.531 104.82 106.826 104.657 105.933 104.481C104.558 104.201 103.433 103.921 102.557 103.641C101.68 103.361 100.924 102.912 100.289 102.293C99.6701 101.674 99.3608 100.849 99.3608 99.8177C99.3608 98.919 99.6443 98.1087 100.211 97.3867C100.778 96.6501 101.629 96.0681 102.763 95.6409C103.914 95.2136 105.314 95 106.964 95C108.115 95 109.241 95.1179 110.34 95.3536C111.44 95.5893 112.402 95.9282 113.227 96.3702L111.938 99.0884C110.271 98.2781 108.605 97.8729 106.938 97.8729C105.77 97.8729 104.902 98.035 104.335 98.3591C103.785 98.6832 103.51 99.1105 103.51 99.6409C103.51 100.171 103.828 100.569 104.464 100.834C105.117 101.085 106.105 101.335 107.428 101.586C108.802 101.866 109.928 102.145 110.804 102.425C111.68 102.705 112.428 103.147 113.046 103.751C113.682 104.355 114 105.173 114 106.204C114 107.088 113.708 107.899 113.124 108.635C112.557 109.357 111.698 109.932 110.546 110.359C109.395 110.786 107.995 111 106.345 111Z" fill="#53C1DE"/>
</svg>
