<svg width="64" height="64" viewBox="0 0 64 64" fill="none" xmlns="http://www.w3.org/2000/svg">
<path d="M3.2 64H60.8C61.6484 63.999 62.4618 63.6615 63.0617 63.0616C63.6616 62.4617 63.999 61.6484 64 60.8V56.5333C64 56.2504 63.8876 55.9791 63.6876 55.7791C63.4875 55.579 63.2162 55.4667 62.9333 55.4667H61.8667V20.2667C61.8651 18.8527 61.3027 17.497 60.3028 16.4972C59.303 15.4973 57.9473 14.9349 56.5333 14.9333H7.46667C6.05267 14.9349 4.69703 15.4973 3.69718 16.4972C2.69733 17.497 2.13492 18.8527 2.13333 20.2667V55.4667H1.06667C0.783769 55.4667 0.512458 55.579 0.312419 55.7791C0.112381 55.9791 0 56.2504 0 56.5333V60.8C0.00098806 61.6484 0.338447 62.4617 0.93835 63.0616C1.53825 63.6615 2.35161 63.999 3.2 64ZM4.26667 20.2667C4.26762 19.4183 4.60507 18.6049 5.20498 18.005C5.80489 17.4051 6.61827 17.0676 7.46667 17.0667H56.5333C57.3817 17.0676 58.1951 17.4051 58.795 18.005C59.3949 18.6049 59.7324 19.4183 59.7333 20.2667V55.4667H4.26667V20.2667ZM40.5333 57.6C40.533 57.8828 40.4205 58.1539 40.2206 58.3539C40.0206 58.5539 39.7495 58.6663 39.4667 58.6666H24.5333C24.2505 58.6663 23.9794 58.5539 23.7794 58.3539C23.5795 58.1539 23.467 57.8828 23.4667 57.6H40.5333ZM2.13333 57.6H21.3333C21.3343 58.4484 21.6717 59.2618 22.2716 59.8617C22.8716 60.4616 23.6849 60.799 24.5333 60.8H39.4667C40.3151 60.799 41.1284 60.4616 41.7284 59.8617C42.3283 59.2618 42.6657 58.4484 42.6667 57.6H61.8667V60.8C61.8664 61.0828 61.7539 61.3539 61.5539 61.5539C61.3539 61.7539 61.0828 61.8663 60.8 61.8666H3.2C2.9172 61.8663 2.64607 61.7539 2.4461 61.5539C2.24613 61.3539 2.13365 61.0828 2.13333 60.8V57.6Z" fill="#7F8284"/>
<path d="M29.8666 34.1333C30.9122 34.1343 31.9347 33.8261 32.8056 33.2474L37.6456 38.0874L39.1541 36.5789L34.3141 31.7389C34.9682 30.7479 35.2728 29.567 35.1795 28.3833C35.0863 27.1996 34.6006 26.081 33.7994 25.2046C32.9983 24.3283 31.9275 23.7445 30.7569 23.5458C29.5863 23.3471 28.3829 23.5448 27.3374 24.1077C26.2919 24.6705 25.4643 25.5663 24.9857 26.6529C24.507 27.7395 24.4048 28.9548 24.6953 30.1061C24.9857 31.2574 25.6522 32.2787 26.589 33.0083C27.5258 33.7378 28.6793 34.1337 29.8666 34.1333ZM29.8666 25.6C30.4995 25.6 31.1182 25.7876 31.6445 26.1392C32.1707 26.4909 32.5808 26.9906 32.823 27.5754C33.0652 28.1601 33.1286 28.8035 33.0051 29.4242C32.8817 30.045 32.5769 30.6152 32.1294 31.0627C31.6818 31.5102 31.1117 31.815 30.4909 31.9385C29.8702 32.0619 29.2268 31.9986 28.642 31.7564C28.0573 31.5142 27.5576 31.104 27.2059 30.5778C26.8543 30.0515 26.6666 29.4329 26.6666 28.8C26.6676 27.9516 27.0051 27.1382 27.605 26.5383C28.2049 25.9384 29.0182 25.6009 29.8666 25.6Z" fill="#FF6B00"/>
<path d="M15.4667 49.0666H48.5333C49.8064 49.0666 51.0273 48.5609 51.9275 47.6608C52.8276 46.7606 53.3333 45.5397 53.3333 44.2666C53.3333 42.9936 52.8276 41.7727 51.9275 40.8725C51.0273 39.9724 49.8064 39.4666 48.5333 39.4666H15.4667C14.1936 39.4666 12.9727 39.9724 12.0726 40.8725C11.1724 41.7727 10.6667 42.9936 10.6667 44.2666C10.6667 45.5397 11.1724 46.7606 12.0726 47.6608C12.9727 48.5609 14.1936 49.0666 15.4667 49.0666ZM51.2 44.2666C51.1992 44.9736 50.918 45.6514 50.4181 46.1514C49.9181 46.6513 49.2403 46.9325 48.5333 46.9333H45.8667V41.6H48.5333C49.2403 41.6008 49.9181 41.882 50.4181 42.3819C50.918 42.8818 51.1992 43.5596 51.2 44.2666ZM15.4667 41.6H43.7333V46.9333H15.4667C14.7594 46.9333 14.0812 46.6524 13.5811 46.1523C13.081 45.6522 12.8 44.9739 12.8 44.2666C12.8 43.5594 13.081 42.8811 13.5811 42.381C14.0812 41.8809 14.7594 41.6 15.4667 41.6Z" fill="#FF6B00"/>
</svg>
