<svg width="64" height="64" viewBox="0 0 64 64" fill="none" xmlns="http://www.w3.org/2000/svg">
<path d="M62.9333 13.8667C63.5224 13.8667 64 13.3891 64 12.8V8.53335C64 5.58803 61.612 3.20001 58.6667 3.20001H5.33333C2.38802 3.20001 0 5.58803 0 8.53335V42.6667C0 45.612 2.38802 48 5.33333 48H22.6135L18.6135 54.4H14.9333C11.988 54.4 9.6 56.788 9.6 59.7333C9.6 60.3224 10.0776 60.8 10.6667 60.8H53.3333C53.9224 60.8 54.4 60.3224 54.4 59.7333C54.4 56.788 52.012 54.4 49.0667 54.4H45.3865L41.3865 48H58.6667C61.612 48 64 45.612 64 42.6667V20.2667C64 19.6776 63.5224 19.2 62.9333 19.2C62.3443 19.2 61.8667 19.6776 61.8667 20.2667V37.3333H12.8C12.2109 37.3333 11.7333 37.8109 11.7333 38.4C11.7333 38.9891 12.2109 39.4667 12.8 39.4667H61.8667V42.6667C61.8667 44.4339 60.4339 45.8667 58.6667 45.8667H5.33333C3.56615 45.8667 2.13333 44.4339 2.13333 42.6667V39.4667H7.11458C7.70365 39.4667 8.18125 38.9891 8.18125 38.4C8.18125 37.8109 7.70365 37.3333 7.11458 37.3333H2.13333V8.53335C2.13333 6.76616 3.56615 5.33335 5.33333 5.33335H58.6667C60.4339 5.33335 61.8667 6.76616 61.8667 8.53335V12.8C61.8667 13.3891 62.3443 13.8667 62.9333 13.8667ZM52.0854 58.6667H11.9146C12.3667 57.3875 13.5766 56.5328 14.9333 56.5333H49.0667C50.4234 56.5328 51.6333 57.3875 52.0854 58.6667ZM38.8802 48L42.8802 54.4H21.1198L25.1198 48H38.8802Z" fill="#7F8284"/>
<path d="M55.4667 42.6666C55.4667 43.2557 54.9891 43.7333 54.4 43.7333C53.8109 43.7333 53.3333 43.2557 53.3333 42.6666C53.3333 42.0776 53.8109 41.6 54.4 41.6C54.9891 41.6 55.4667 42.0776 55.4667 42.6666Z" fill="#7F8284"/>
<path d="M51.2 42.6666C51.2 43.2557 50.7224 43.7333 50.1333 43.7333C49.5443 43.7333 49.0667 43.2557 49.0667 42.6666C49.0667 42.0776 49.5443 41.6 50.1333 41.6C50.7224 41.6 51.2 42.0776 51.2 42.6666Z" fill="#7F8284"/>
<path d="M20.2667 32C20.8557 32 21.3333 31.5224 21.3333 30.9333V29.1411C21.7057 28.9734 22.0625 28.7734 22.4 28.5437L23.9573 29.4401C24.4672 29.7297 25.1151 29.5531 25.4078 29.0453L27.5411 25.3547C27.6849 25.1099 27.7245 24.8182 27.6526 24.5443C27.5807 24.2703 27.4026 24.0359 27.1573 23.8932L25.6 22.9974C25.6 22.7948 25.6 22.6026 25.6 22.4C25.6 22.1974 25.6 22.0052 25.6 21.8026L27.1469 20.9068C27.3917 20.7641 27.5698 20.5297 27.6422 20.2557C27.714 19.9818 27.6739 19.6901 27.5307 19.4453L25.3974 15.7547C25.1042 15.2469 24.4568 15.0703 23.9469 15.3599L22.4 16.2562C22.0625 16.0266 21.7057 15.8266 21.3333 15.6588V13.8667C21.3333 13.2776 20.8557 12.8 20.2667 12.8H16C15.4109 12.8 14.9333 13.2776 14.9333 13.8667V15.6588C14.5609 15.8266 14.2042 16.0266 13.8667 16.2562L12.3094 15.3599C11.7995 15.0703 11.1516 15.2469 10.8588 15.7547L8.72551 19.4453C8.58176 19.6901 8.54218 19.9818 8.61405 20.2557C8.68593 20.5297 8.86405 20.7641 9.10936 20.9068L10.6562 21.8026V22.4V22.9974L9.10936 23.8932C8.86405 24.0359 8.68593 24.2703 8.61405 24.5443C8.54218 24.8182 8.58176 25.1099 8.72551 25.3547L10.8588 29.0453C11.1516 29.5531 11.7995 29.7297 12.3094 29.4401L13.8667 28.5437C14.2042 28.7734 14.5609 28.9734 14.9333 29.1411V30.9333C14.9333 31.5224 15.4109 32 16 32C16.5891 32 17.0667 31.5224 17.0667 30.9333V28.4266C17.0651 27.975 16.7786 27.5729 16.3521 27.4239C15.7364 27.2047 15.1656 26.8755 14.6667 26.4531C14.3239 26.1583 13.8323 26.1109 13.4401 26.3359L12.2026 27.0614L11.1359 25.2052L12.3734 24.5333C12.7682 24.3094 12.9776 23.8599 12.8958 23.4135C12.7682 22.7724 12.7682 22.113 12.8958 21.4719C13.0193 20.9979 12.8036 20.5005 12.3734 20.2667L11.1359 19.5521L12.2026 17.6958L13.4401 18.4213C13.8323 18.6463 14.3239 18.5995 14.6667 18.3042C15.1656 17.8818 15.7364 17.5526 16.3521 17.3333C16.7786 17.1844 17.0651 16.7823 17.0667 16.3307V14.9333H19.2V16.3734C19.2016 16.825 19.488 17.2271 19.9146 17.376C20.5302 17.5953 21.101 17.9245 21.6 18.3469C21.9427 18.6417 22.4344 18.6891 22.8266 18.4641L24.0641 17.7385L25.1307 19.5948L23.8932 20.2667C23.4984 20.4906 23.2891 20.9401 23.3708 21.3864C23.4984 22.0276 23.4984 22.687 23.3708 23.3281C23.2474 23.8021 23.463 24.2995 23.8932 24.5333L25.1307 25.2479L24.0641 27.1042L22.8266 26.3786C22.4344 26.1536 21.9427 26.2005 21.6 26.4958C21.101 26.9182 20.5302 27.2474 19.9146 27.4667C19.488 27.6156 19.2016 28.0177 19.2 28.4693V30.9333C19.2 31.5224 19.6776 32 20.2667 32Z" fill="#FF6B00"/>
<path d="M21.3333 22.4C21.3333 20.6328 19.9005 19.2 18.1333 19.2C16.3661 19.2 14.9333 20.6328 14.9333 22.4C14.9333 24.1672 16.3661 25.6 18.1333 25.6C19.9005 25.6 21.3333 24.1672 21.3333 22.4ZM18.1333 23.4667C17.5443 23.4667 17.0667 22.9891 17.0667 22.4C17.0667 21.8109 17.5443 21.3333 18.1333 21.3333C18.7224 21.3333 19.2 21.8109 19.2 22.4C19.2 22.9891 18.7224 23.4667 18.1333 23.4667Z" fill="#FF6B00"/>
<path d="M41.6 22.4C41.6 24.7563 43.5104 26.6667 45.8667 26.6667C48.2229 26.6667 50.1333 24.7563 50.1333 22.4C50.1333 20.0438 48.2229 18.1334 45.8667 18.1334C43.5104 18.1334 41.6 20.0438 41.6 22.4ZM48 22.4C48 23.5782 47.0448 24.5334 45.8667 24.5334C44.6885 24.5334 43.7333 23.5782 43.7333 22.4C43.7333 21.2219 44.6885 20.2667 45.8667 20.2667C47.0448 20.2667 48 21.2219 48 22.4Z" fill="#FF6B00"/>
<path d="M58.5495 18.7734L55.3495 13.2265C55.2141 12.9771 54.9849 12.7922 54.7125 12.712C54.4406 12.6317 54.1474 12.6635 53.8984 12.8L51.2 14.4104C50.8568 14.187 50.5005 13.9838 50.1333 13.8026V10.6666C50.1333 10.0776 49.6557 9.59998 49.0667 9.59998H42.6667C42.0776 9.59998 41.6 10.0776 41.6 10.6666V13.8026C41.2328 13.9838 40.8766 14.187 40.5333 14.4104L37.8349 12.8C37.3276 12.5088 36.6807 12.6802 36.3839 13.1838L33.1839 18.7307C33.0156 18.9812 32.9615 19.2911 33.0349 19.5838C33.1078 19.8765 33.3016 20.125 33.5682 20.2666L36.2667 21.8026V22.4V22.9974L33.5682 24.5333C33.0641 24.8297 32.8927 25.4771 33.1839 25.9838L36.3839 31.5307C36.6807 32.0349 37.3276 32.2057 37.8349 31.9146L40.5333 30.3896C40.8766 30.613 41.2328 30.8161 41.6 30.9974V34.1333C41.6 34.7224 42.0776 35.2 42.6667 35.2H49.0667C49.6557 35.2 50.1333 34.7224 50.1333 34.1333V30.9974C50.5005 30.8161 50.8568 30.613 51.2 30.3896L53.8984 32C54.4057 32.2911 55.0526 32.1198 55.3495 31.6161C55.4927 31.3713 55.5328 31.0797 55.4609 30.8057C55.3885 30.5312 55.2104 30.2974 54.9651 30.1547L51.6479 28.2453C51.2719 28.0234 50.799 28.0531 50.4531 28.3198C49.9109 28.7604 49.3073 29.1198 48.6615 29.3864C48.263 29.5505 48.0021 29.9375 48 30.3682V33.0666H43.7333V30.3041C43.7313 29.8734 43.4703 29.4864 43.0719 29.3229C42.4261 29.0557 41.8224 28.6963 41.2802 28.2562C40.9344 27.989 40.4615 27.9594 40.0854 28.1812L37.6958 29.5573L35.5625 25.8666L37.9521 24.5333C38.3307 24.3198 38.5417 23.8979 38.4854 23.4666C38.3714 22.7817 38.3714 22.0823 38.4854 21.3974C38.5417 20.9661 38.3307 20.5442 37.9521 20.3307L35.5625 18.9437L37.6958 15.2531L40.0854 16.6291C40.4615 16.851 40.9344 16.8219 41.2802 16.5547C41.8224 16.114 42.4261 15.7552 43.0719 15.488C43.4703 15.3245 43.7313 14.9375 43.7333 14.5067V11.7333H48V14.4958C48.0021 14.9265 48.263 15.3135 48.6615 15.4771C49.3073 15.7442 49.9109 16.1036 50.4531 16.5437C50.799 16.8109 51.2719 16.8406 51.6479 16.6187L54.0375 15.2427L56.1708 18.9333L53.7813 20.2666C53.4026 20.4802 53.1917 20.9021 53.2479 21.3333C53.362 22.0182 53.362 22.7177 53.2479 23.4026C53.1917 23.8338 53.4026 24.2557 53.7813 24.4692L57.0984 26.3896C57.6052 26.6541 58.2307 26.4729 58.5167 25.9781C58.8026 25.4833 58.6479 24.8505 58.1651 24.5437L55.4667 22.9974C55.4667 22.7948 55.4667 22.5922 55.4667 22.4C55.4667 22.2078 55.4667 22.0052 55.4667 21.8026L58.1651 20.2666C58.4193 20.1239 58.6042 19.8838 58.6766 19.6021C58.749 19.3198 58.7031 19.0208 58.5495 18.7734Z" fill="#FF6B00"/>
<path d="M24.5333 11.5625C24.7291 11.5615 24.9213 11.5057 25.088 11.4026C28.0224 9.58283 31.5984 9.11617 34.9015 10.1229C35.1786 10.2151 35.4818 10.1901 35.7396 10.0531C35.9979 9.91565 36.188 9.67867 36.2666 9.39742C36.4318 8.83179 36.1068 8.2396 35.5411 8.0745C31.6474 6.89377 27.4333 7.4495 23.9786 9.60002C23.7359 9.74794 23.5625 9.98648 23.4963 10.2625C23.4302 10.5391 23.4771 10.8302 23.6265 11.0719C23.8245 11.3802 24.1666 11.5656 24.5333 11.5625Z" fill="#FF6B00"/>
<path d="M23.9786 33.0666C26.2255 34.4468 28.8083 35.1849 31.4453 35.2C32.4177 35.1968 33.3864 35.0896 34.3359 34.8802C34.7317 34.8244 35.063 34.5526 35.1947 34.175C35.3265 33.7979 35.2364 33.3786 34.9609 33.089C34.6854 32.7989 34.2713 32.6875 33.888 32.8C33.0927 32.9744 32.2807 33.064 31.4666 33.0666C29.2078 33.0698 26.9922 32.4458 25.0666 31.264C24.5656 30.9599 23.913 31.1172 23.6052 31.6161C23.3119 32.1203 23.4786 32.7666 23.9786 33.0666Z" fill="#FF6B00"/>
</svg>
