<svg width="64" height="64" viewBox="0 0 64 64" fill="none" xmlns="http://www.w3.org/2000/svg">
<path d="M33.5828 30.4189C33.094 29.9301 32.3028 29.9301 31.814 30.4189C31.3265 30.9064 31.3265 31.6976 31.814 32.1864C32.3028 32.6739 33.094 32.6739 33.5828 32.1864C34.0703 31.6976 34.0703 30.9064 33.5828 30.4189Z" fill="#7F8284"/>
<path d="M49.4915 14.5087C47.049 12.0663 43.095 12.0662 40.6524 14.5087C38.2163 16.9448 38.2162 20.9098 40.6528 23.3479C43.0898 25.7834 47.0548 25.7844 49.4915 23.3477C51.9338 20.9054 51.9343 16.9513 49.4915 14.5087ZM47.7238 21.5798C46.2621 23.0416 43.8829 23.0416 42.4205 21.5801C40.9587 20.1173 40.9585 17.7381 42.4203 16.2765C43.8856 14.8111 46.2581 14.8108 47.7238 16.2765C49.1891 17.7417 49.1894 20.1143 47.7238 21.5798Z" fill="#7F8284"/>
<path d="M63.6336 0.366137C63.3881 0.120762 63.0531 -0.0122377 62.7048 0.000887249C62.4222 0.0110122 55.6928 0.281512 47.6935 3.10888C41.2835 5.37213 35.9406 8.6125 31.8133 12.74C30.8884 13.6649 29.9884 14.6456 29.1273 15.6645C25.0463 13.2622 21.776 14.0155 19.7087 15.1219C14.9485 17.6694 12.0022 24.5863 12.0022 29.5338C12.0025 30.0393 12.3072 30.4952 12.7742 30.6886C12.9288 30.7527 13.0913 30.7838 13.2523 30.7838C13.5777 30.7838 13.8973 30.6567 14.1364 30.4177C16.6468 27.9073 19.7432 28.0643 20.7546 28.1973L21.1924 28.6351C20.3309 30.6851 19.6369 32.7236 19.1279 34.7062C18.9442 35.4237 19.0062 36.1829 19.2793 36.8774C18.0758 37.4321 16.9147 38.2464 15.9037 39.2574C12.686 42.4752 12.0327 50.3169 12.0064 50.6492C11.9777 51.0138 12.1099 51.3728 12.3685 51.6314C12.6039 51.8667 12.9223 51.9975 13.2523 51.9975C13.285 51.9975 13.3179 51.9963 13.3508 51.9937C13.683 51.9675 21.525 51.3142 24.7426 48.0965C25.7533 47.0859 26.5675 45.9249 27.1221 44.7217C27.8574 45.0108 28.6141 45.0464 29.2946 44.8721C31.2764 44.3632 33.3146 43.6694 35.3649 42.8078L35.8026 43.2456C35.9355 44.2572 36.0925 47.3535 33.5822 49.8637C33.2249 50.2212 33.1179 50.7588 33.3114 51.2258C33.5048 51.6929 33.9605 51.9974 34.4661 51.9974C39.4136 51.9974 46.3305 49.051 48.878 44.2909C49.9843 42.2238 50.7376 38.9536 48.3353 34.8724C49.3537 34.0117 50.3346 33.1117 51.2598 32.1865C55.3873 28.059 58.6276 22.7161 60.8908 16.3066C63.7183 8.30687 63.9887 1.57738 63.9988 1.29488C64.0113 0.948011 63.8789 0.611636 63.6336 0.366137ZM14.7969 26.8452C15.5734 23.0873 17.8288 18.9637 20.8888 17.326C22.9336 16.2317 25.1688 16.339 27.5453 17.6399C25.5206 20.3026 23.7605 23.1713 22.2934 26.2007C22.2748 26.1892 22.0498 25.9063 21.6318 25.8121C21.4599 25.7732 18.1525 25.0618 14.7969 26.8452ZM22.9749 46.3287C21.2561 48.0474 17.2243 48.9539 14.6759 49.324C15.0462 46.7755 15.9528 42.7438 17.6714 41.0252C18.6339 40.0627 19.7499 39.3329 20.8716 38.9219L25.0781 43.1284C24.6671 44.2502 23.9375 45.3662 22.9749 46.3287ZM28.6736 42.4503C28.3119 42.5429 27.8929 42.4069 27.5814 42.0959C25.9643 40.4788 25.3316 39.8462 25.1331 39.6478C24.7691 39.2838 23.8765 38.3912 21.9049 36.4194C21.5931 36.1071 21.4571 35.6882 21.5495 35.3271C21.9499 33.7678 22.4735 32.1681 23.1103 30.553L33.4471 40.8898C31.8318 41.5267 30.2323 42.0502 28.6736 42.4503ZM46.6741 43.1113C45.0364 46.1712 40.9129 48.4267 37.1551 49.203C38.3532 46.9484 38.6174 44.0783 38.1796 42.3379C38.078 41.9337 37.8142 41.7304 37.7995 41.7066C40.8286 40.2394 43.6972 38.4793 46.3602 36.4547C47.6611 38.8314 47.7682 41.0668 46.6741 43.1113ZM49.4923 30.4187C48.366 31.545 47.1531 32.6331 45.8874 33.6527C42.8446 36.1027 39.4956 38.1779 35.9226 39.8299L24.1701 28.0777C25.8221 24.5045 27.8974 21.1555 30.3471 18.1131C31.3676 16.8465 32.4556 15.6335 33.5815 14.5077C37.2846 10.8045 42.0639 7.85725 47.7903 5.73575L58.2643 16.2097C56.1431 21.9361 53.1958 26.7153 49.4923 30.4187ZM59.1637 13.5734L50.4267 4.83638C55.1868 3.35788 59.328 2.80426 61.3949 2.60526C61.1958 4.67263 60.6421 8.81375 59.1637 13.5734Z" fill="#FF6B00"/>
<path d="M30.0464 51.631C29.558 51.1429 28.7665 51.1432 28.2785 51.6313L24.7435 55.1675C24.2555 55.6558 24.2557 56.4473 24.7438 56.9353C25.2322 57.4233 26.0237 57.4233 26.5117 56.935L30.0467 53.3988C30.5347 52.9105 30.5345 52.119 30.0464 51.631Z" fill="#7F8284"/>
<path d="M12.3692 33.9538C11.8812 33.4656 11.0898 33.4656 10.6014 33.9536L7.06519 37.4885C6.57694 37.9765 6.57682 38.768 7.06482 39.2563C7.55269 39.7443 8.34407 39.7448 8.83257 39.2565L12.3688 35.7215C12.8571 35.2335 12.8572 34.4421 12.3692 33.9538Z" fill="#7F8284"/>
<path d="M21.2079 53.3999C20.72 52.9118 19.9284 52.9118 19.4401 53.3998L10.9726 61.866C10.4844 62.3542 10.4844 63.1457 10.9725 63.6338C11.4604 64.1219 12.252 64.1222 12.7403 63.6339L21.2078 55.1677C21.696 54.6795 21.696 53.888 21.2079 53.3999Z" fill="#7F8284"/>
<path d="M11.2079 53.3999C10.7199 52.9118 9.92829 52.9118 9.44016 53.3998L0.972678 61.866C0.484429 62.3542 0.484429 63.1457 0.972553 63.6338C1.46043 64.1219 2.25205 64.1222 2.7403 63.6339L11.2078 55.1677C11.696 54.6795 11.696 53.888 11.2079 53.3999Z" fill="#7F8284"/>
<path d="M10.6003 42.7921C10.1123 42.3041 9.32065 42.3041 8.83253 42.7923L0.366291 51.2597C-0.121833 51.748 -0.121833 52.5393 0.366416 53.0276C0.85454 53.5157 1.64604 53.5157 2.13416 53.0275L10.6004 44.56C11.0885 44.0717 11.0885 43.2804 10.6003 42.7921Z" fill="#7F8284"/>
<path d="M38.8852 25.1148C38.397 24.6267 37.6057 24.6267 37.1173 25.1148L35.3499 26.8823C34.8617 27.3704 34.8617 28.1619 35.3499 28.6502C35.8381 29.1383 36.6295 29.1383 37.1177 28.6502L38.8852 26.8827C39.3733 26.3946 39.3733 25.6031 38.8852 25.1148Z" fill="#7F8284"/>
</svg>
