<svg width="802" height="634" viewBox="0 0 802 634" fill="none" xmlns="http://www.w3.org/2000/svg">
<g clip-path="url(#clip0)">
<path opacity="0.38" d="M53.5318 505.365C49.6244 505.365 45.9123 504.389 42.3956 502.437L2.93057 479.599C0.976857 478.428 0 476.671 0 474.329C0 472.182 1.17223 470.23 2.93057 469.058L42.3956 446.22C49.2336 442.316 57.6346 442.316 64.4726 446.22L103.938 469.058C105.891 470.23 106.868 471.986 106.868 474.329C106.868 476.476 105.696 478.428 103.938 479.599L64.4726 502.242C61.1513 504.389 57.2438 505.365 53.5318 505.365ZM53.5318 447.196C50.4058 447.196 47.0845 447.977 44.3493 449.734L4.88429 472.377C3.90743 472.962 3.71206 473.938 3.71206 474.329C3.71206 474.719 3.90743 475.695 4.88429 476.281L44.3493 499.119C50.0151 502.437 57.0485 502.437 62.9096 499.119L102.375 476.281C103.352 475.695 103.547 474.719 103.547 474.329C103.547 473.938 103.352 472.962 102.375 472.377L62.9096 449.539C59.979 447.977 56.6577 447.196 53.5318 447.196Z" fill="#FF6B00"/>
<path opacity="0.07" d="M453.067 604.525L170.95 441.731C166.847 439.388 167.433 435.289 172.122 432.557L353.232 328.126C357.921 325.393 365.149 325.003 369.252 327.541L651.369 490.335C655.471 492.677 654.885 496.776 650.196 499.509L469.087 603.94C464.398 606.672 457.169 606.868 453.067 604.525Z" fill="black"/>
<path d="M737.137 404.839L493.704 264.492C489.796 262.345 487.843 256.879 489.21 252.39L544.305 73.7845C545.673 69.295 549.971 67.5382 553.683 69.6854L797.116 210.227C801.023 212.374 802.977 217.84 801.609 222.329L746.515 400.935C745.147 405.229 741.044 406.986 737.137 404.839Z" fill="url(#paint0_linear)"/>
<path d="M690.834 401.911L447.401 261.564C443.493 259.417 441.54 253.951 442.907 249.462L498.002 70.8565C499.37 66.367 503.668 64.6102 507.38 66.7574L750.813 207.104C754.72 209.251 756.674 214.717 755.306 219.206L700.211 397.812C698.844 402.301 694.741 404.058 690.834 401.911Z" fill="url(#paint1_linear)"/>
<path d="M754.329 205.738L510.896 65.391C508.552 64.0246 506.012 64.2198 504.058 65.5862C505.231 65.5862 506.403 65.7814 507.575 66.5622L751.008 206.909C754.916 209.056 756.869 214.522 755.502 219.011L700.407 397.616C699.821 399.178 699.039 400.544 697.867 401.325C700.407 401.325 702.751 399.568 703.728 396.445L758.823 217.84C760.191 213.35 758.237 207.885 754.329 205.738Z" fill="white"/>
<path opacity="0.38" d="M459.514 634C456.193 634 453.067 633.219 450.722 631.853L128.75 446.22C126.21 444.659 124.647 442.512 124.647 439.974C124.647 437.241 126.601 434.313 130.117 432.361L349.715 303.922C355.772 300.408 364.563 300.018 369.838 303.141L691.615 488.969C694.155 490.53 695.718 492.677 695.718 495.215C695.718 497.948 693.764 500.876 690.248 502.828L470.845 631.072C467.524 633.024 463.421 634 459.514 634ZM360.851 304.703C357.53 304.703 354.013 305.483 351.278 307.045L131.876 435.485C129.531 436.851 128.359 438.413 128.359 439.974C128.359 441.341 129.531 442.317 130.704 442.902L452.676 628.73C456.779 631.072 464.398 630.682 469.087 627.949L688.685 499.509C691.029 498.143 692.201 496.581 692.201 495.02C692.201 493.653 691.029 492.677 689.857 492.092L367.885 306.264C365.931 305.288 363.391 304.703 360.851 304.703Z" fill="#FF6B00"/>
<path d="M726.391 217.254L445.252 55.2408C443.298 54.0696 441.344 53.8744 439.586 54.46L434.311 56.2168L436.069 56.6072C435.288 57.388 434.702 58.5592 434.311 59.7303L370.815 265.858C369.252 270.934 371.597 277.18 375.895 279.717L657.034 441.926C657.621 442.317 658.402 442.512 659.184 442.707L658.402 444.269L663.286 442.512C665.24 441.731 666.998 439.974 667.78 437.241L731.276 231.113C733.034 226.038 730.885 219.792 726.391 217.254Z" fill="url(#paint2_linear)"/>
<path d="M647.071 449.734L369.643 289.672C365.54 287.33 358.507 287.525 353.623 290.258L174.271 393.712L168.215 391.37L169.973 399.764C170.169 400.935 171.146 402.301 172.708 403.082L452.871 564.705C456.974 567.047 464.007 566.852 468.892 564.12L648.633 460.47C650.783 459.103 652.15 457.542 652.541 455.98L654.299 447.782L647.071 449.734Z" fill="#FF6B00"/>
<path d="M453.067 557.483L170.95 394.688C166.847 392.346 167.433 388.247 172.122 385.514L353.232 281.084C357.921 278.351 365.149 277.961 369.252 280.498L651.369 443.097C655.471 445.44 654.885 449.539 650.196 452.272L469.087 556.702C464.398 559.63 457.169 559.825 453.067 557.483Z" fill="url(#paint3_linear)"/>
<path d="M650.196 450.124L469.087 554.555C464.398 557.288 457.169 557.678 453.066 555.14L170.95 392.541C169.582 391.76 168.801 390.784 168.41 389.613C167.824 391.565 168.606 393.322 170.95 394.688L453.066 557.483C457.169 559.825 464.398 559.63 469.087 556.897L650.196 452.467C653.322 450.71 654.495 448.172 653.908 446.22C653.518 447.587 652.345 448.953 650.196 450.124Z" fill="url(#paint4_linear)"/>
<g opacity="0.4">
<path opacity="0.4" d="M305.561 368.337L295.988 362.871C295.206 362.481 295.402 361.7 296.183 361.115L307.515 354.673C308.492 354.088 309.664 354.088 310.445 354.478L320.019 359.944C320.8 360.334 320.605 361.115 319.823 361.7L308.492 368.142C307.71 368.727 306.343 368.727 305.561 368.337Z" fill="#06033E"/>
<path opacity="0.4" d="M320.214 376.926L310.641 371.46C309.859 371.07 310.055 370.289 310.836 369.703L322.168 363.262C323.144 362.676 324.317 362.676 325.098 363.067L334.671 368.532C335.453 368.923 335.257 369.703 334.476 370.289L323.144 376.73C322.363 377.121 320.995 377.316 320.214 376.926Z" fill="#06033E"/>
<path opacity="0.4" d="M335.062 385.319L325.489 379.854C324.707 379.463 324.903 378.682 325.684 378.097L337.016 371.655C337.993 371.07 339.165 371.07 339.946 371.46L349.52 376.926C350.301 377.316 350.106 378.097 349.324 378.682L337.993 385.124C337.016 385.709 335.648 385.709 335.062 385.319Z" fill="#06033E"/>
<path opacity="0.4" d="M355.381 378.292L345.808 372.827C345.026 372.436 345.221 371.655 346.003 371.07L355.381 365.604C356.358 365.019 357.53 365.019 358.311 365.409L367.885 370.875C368.666 371.265 368.471 372.046 367.689 372.631L358.311 378.097C357.334 378.682 356.162 378.682 355.381 378.292Z" fill="#06033E"/>
<path opacity="0.4" d="M370.034 386.881L360.46 381.415C359.679 381.025 359.874 380.244 360.656 379.658L370.034 374.193C371.01 373.607 372.183 373.607 372.964 373.998L382.537 379.463C383.319 379.854 383.124 380.634 382.342 381.22L372.964 386.685C372.183 387.271 370.815 387.271 370.034 386.881Z" fill="#06033E"/>
<path opacity="0.4" d="M384.686 395.274L375.113 389.809C374.332 389.418 374.527 388.637 375.309 388.052L384.686 382.586C385.663 382.001 386.836 382.001 387.617 382.391L397.19 387.857C397.972 388.247 397.776 389.028 396.995 389.613L387.617 395.079C386.836 395.664 385.468 395.664 384.686 395.274Z" fill="#06033E"/>
<path opacity="0.4" d="M399.535 403.863L389.962 398.397C389.18 398.007 389.375 397.226 390.157 396.641L399.535 391.175C400.512 390.589 401.684 390.589 402.465 390.98L412.038 396.445C412.82 396.836 412.625 397.617 411.843 398.202L402.465 403.668C401.488 404.058 400.316 404.253 399.535 403.863Z" fill="#06033E"/>
<path opacity="0.4" d="M414.188 412.256L404.614 406.791C403.833 406.4 404.028 405.62 404.81 405.034L414.188 399.568C415.164 398.983 416.337 398.983 417.118 399.373L426.691 404.839C427.473 405.229 427.277 406.01 426.496 406.596L417.118 412.061C416.337 412.647 414.969 412.647 414.188 412.256Z" fill="#06033E"/>
<path opacity="0.4" d="M428.84 420.65L419.267 415.184C418.486 414.794 418.681 414.013 419.463 413.427L428.84 407.962C429.817 407.376 430.99 407.376 431.771 407.767L441.344 413.232C442.126 413.623 441.93 414.403 441.149 414.989L431.771 420.455C430.99 421.04 429.622 421.235 428.84 420.65Z" fill="#06033E"/>
<path opacity="0.4" d="M443.689 429.238L434.115 423.773C433.334 423.383 433.529 422.602 434.311 422.016L443.689 416.551C444.666 415.965 445.838 415.965 446.619 416.355L456.192 421.821C456.974 422.211 456.779 422.992 455.997 423.578L446.619 429.043C445.642 429.629 444.275 429.629 443.689 429.238Z" fill="#06033E"/>
<path opacity="0.4" d="M458.342 437.632L448.768 432.166C447.987 431.776 448.182 430.995 448.964 430.41L458.342 424.944C459.318 424.358 460.491 424.359 461.272 424.749L470.845 430.214C471.627 430.605 471.431 431.386 470.65 431.971L461.272 437.437C460.491 438.022 459.123 438.218 458.342 437.632Z" fill="#06033E"/>
<path opacity="0.4" d="M472.994 446.221L463.421 440.755C462.64 440.365 462.835 439.584 463.617 438.998L472.994 433.533C473.971 432.947 475.143 432.947 475.925 433.338L485.498 438.803C486.28 439.193 486.084 439.974 485.303 440.56L475.925 446.025C475.143 446.611 473.776 446.611 472.994 446.221Z" fill="#06033E"/>
<path opacity="0.4" d="M487.647 454.614L478.074 449.149C477.293 448.758 477.488 447.977 478.269 447.392L487.647 441.926C488.624 441.341 489.796 441.341 490.578 441.731L500.151 447.197C500.932 447.587 500.737 448.368 499.956 448.953L490.578 454.419C489.796 455.004 488.429 455.2 487.647 454.614Z" fill="#06033E"/>
<path opacity="0.4" d="M377.067 374.388L367.494 368.923C366.712 368.532 366.908 367.751 367.689 367.166L377.067 361.7C378.044 361.115 379.216 361.115 379.998 361.505L389.571 366.971C390.352 367.361 390.157 368.142 389.375 368.727L379.998 374.193C379.021 374.583 377.848 374.779 377.067 374.388Z" fill="#06033E"/>
<path opacity="0.4" d="M362.023 365.604L352.45 360.139C351.669 359.748 351.864 358.967 352.646 358.382L362.023 352.916C363 352.331 364.172 352.331 364.954 352.721L374.527 358.187C375.309 358.577 375.113 359.358 374.332 359.943L364.954 365.409C364.172 365.995 362.805 366.19 362.023 365.604Z" fill="#06033E"/>
<path opacity="0.4" d="M347.175 357.015L326.661 345.108C325.88 344.718 326.075 343.937 326.856 343.352L336.234 337.886C337.211 337.301 338.383 337.301 339.165 337.691L359.679 349.598C360.46 349.988 360.265 350.769 359.483 351.355L350.106 356.82C349.129 357.406 347.957 357.406 347.175 357.015Z" fill="#06033E"/>
<path opacity="0.4" d="M357.53 346.475L340.923 336.91C340.142 336.52 340.337 335.739 341.119 335.153L350.497 329.688C351.473 329.102 352.646 329.102 353.427 329.493L370.034 339.057C370.815 339.448 370.62 340.229 369.838 340.814L360.46 346.28C359.679 346.865 358.311 347.06 357.53 346.475Z" fill="#06033E"/>
<path opacity="0.4" d="M391.72 382.782L382.147 377.316C381.365 376.926 381.561 376.145 382.342 375.559L391.72 370.094C392.697 369.508 393.869 369.508 394.65 369.899L404.224 375.364C405.005 375.754 404.81 376.535 404.028 377.121L394.65 382.586C393.869 383.172 392.501 383.172 391.72 382.782Z" fill="#06033E"/>
<path opacity="0.4" d="M406.373 391.175L396.8 385.709C396.018 385.319 396.213 384.538 396.995 383.953L406.373 378.487C407.35 377.902 408.522 377.902 409.303 378.292L418.876 383.757C419.658 384.148 419.463 384.929 418.681 385.514L409.303 390.98C408.522 391.565 407.154 391.761 406.373 391.175Z" fill="#06033E"/>
<path opacity="0.4" d="M421.221 399.764L411.648 394.298C410.866 393.908 411.062 393.127 411.843 392.541L421.221 387.076C422.198 386.49 423.37 386.49 424.151 386.881L433.725 392.346C434.506 392.737 434.311 393.517 433.529 394.103L424.151 399.568C423.175 400.154 421.807 400.154 421.221 399.764Z" fill="#06033E"/>
<path opacity="0.4" d="M435.874 408.157L426.301 402.692C425.519 402.301 425.714 401.52 426.496 400.935L435.874 395.469C436.851 394.884 438.023 394.884 438.804 395.274L448.378 400.74C449.159 401.13 448.964 401.911 448.182 402.496L438.804 407.962C438.023 408.547 436.655 408.743 435.874 408.157Z" fill="#06033E"/>
<path opacity="0.4" d="M450.527 416.746L440.953 411.28C440.172 410.89 440.367 410.109 441.149 409.523L450.527 404.058C451.503 403.472 452.676 403.472 453.457 403.863L463.03 409.328C463.812 409.719 463.616 410.499 462.835 411.085L453.457 416.551C452.676 417.136 451.308 417.136 450.527 416.746Z" fill="#06033E"/>
<path opacity="0.4" d="M465.179 425.139L455.606 419.674C454.825 419.283 455.02 418.503 455.802 417.917L465.179 412.451C466.156 411.866 467.329 411.866 468.11 412.256L477.683 417.722C478.465 418.112 478.269 418.893 477.488 419.478L468.11 424.944C467.329 425.53 465.961 425.725 465.179 425.139Z" fill="#06033E"/>
<path opacity="0.4" d="M480.028 433.728L470.455 428.263C469.673 427.872 469.868 427.091 470.65 426.506L480.028 421.04C481.005 420.455 482.177 420.455 482.958 420.845L492.532 426.311C493.313 426.701 493.118 427.482 492.336 428.067L482.958 433.533C482.177 434.118 480.809 434.118 480.028 433.728Z" fill="#06033E"/>
<path opacity="0.4" d="M494.681 442.121L485.107 436.656C484.326 436.265 484.521 435.485 485.303 434.899L494.681 429.434C495.658 428.848 496.83 428.848 497.611 429.238L507.184 434.704C507.966 435.094 507.771 435.875 506.989 436.461L497.611 441.926C496.83 442.512 495.462 442.707 494.681 442.121Z" fill="#06033E"/>
<path opacity="0.4" d="M509.334 450.71L499.76 445.245C498.979 444.854 499.174 444.073 499.956 443.488L509.334 438.022C510.31 437.437 511.483 437.437 512.264 437.827L521.837 443.293C522.619 443.683 522.423 444.464 521.642 445.049L512.264 450.515C511.483 451.101 510.115 451.101 509.334 450.71Z" fill="#06033E"/>
<path opacity="0.4" d="M535.513 465.74L514.804 453.833C514.022 453.443 514.218 452.662 514.999 452.076L524.377 446.611C525.354 446.025 526.526 446.025 527.308 446.416L548.017 458.323C548.799 458.713 548.603 459.494 547.822 460.08L538.444 465.545C537.662 466.131 536.295 466.131 535.513 465.74Z" fill="#06033E"/>
<path opacity="0.4" d="M564.233 449.149L546.649 438.998C545.868 438.608 546.063 437.827 546.845 437.242L556.223 431.776C557.2 431.191 558.372 431.191 559.153 431.581L576.737 441.731C577.518 442.122 577.323 442.902 576.541 443.488L567.163 448.953C566.382 449.539 565.014 449.734 564.233 449.149Z" fill="#06033E"/>
<path opacity="0.4" d="M417.509 381.025L407.936 375.559C407.154 375.169 407.35 374.388 408.131 373.803L417.509 368.337C418.486 367.751 419.658 367.751 420.44 368.142L430.013 373.607C430.794 373.998 430.599 374.779 429.817 375.364L420.44 380.83C419.658 381.415 418.29 381.61 417.509 381.025Z" fill="#06033E"/>
<path opacity="0.4" d="M402.465 372.436L392.892 366.971C392.111 366.58 392.306 365.799 393.087 365.214L402.465 359.748C403.442 359.163 404.614 359.163 405.396 359.553L414.969 365.019C415.751 365.409 415.555 366.19 414.774 366.775L405.396 372.241C404.419 372.826 403.247 372.826 402.465 372.436Z" fill="#06033E"/>
<path opacity="0.4" d="M387.226 363.652L377.653 358.187C376.872 357.796 377.067 357.015 377.849 356.43L387.226 350.964C388.203 350.379 389.375 350.379 390.157 350.769L399.73 356.235C400.512 356.625 400.316 357.406 399.535 357.991L390.157 363.457C389.375 364.043 388.008 364.238 387.226 363.652Z" fill="#06033E"/>
<path opacity="0.4" d="M372.183 355.063L362.61 349.598C361.828 349.208 362.023 348.427 362.805 347.841L372.183 342.376C373.16 341.79 374.332 341.79 375.113 342.181L384.686 347.646C385.468 348.036 385.273 348.817 384.491 349.403L375.113 354.868C374.332 355.454 372.964 355.454 372.183 355.063Z" fill="#06033E"/>
<path opacity="0.4" d="M432.162 389.613L422.589 384.148C421.807 383.758 422.002 382.977 422.784 382.391L432.162 376.926C433.139 376.34 434.311 376.34 435.092 376.73L444.666 382.196C445.447 382.586 445.252 383.367 444.47 383.953L435.092 389.418C434.311 390.004 432.943 390.004 432.162 389.613Z" fill="#06033E"/>
<path opacity="0.4" d="M446.815 398.007L437.241 392.541C436.46 392.151 436.655 391.37 437.437 390.785L446.815 385.319C447.792 384.733 448.964 384.734 449.745 385.124L459.318 390.589C460.1 390.98 459.905 391.761 459.123 392.346L449.745 397.812C448.964 398.397 447.596 398.593 446.815 398.007Z" fill="#06033E"/>
<path opacity="0.4" d="M461.663 406.596L452.09 401.13C451.308 400.74 451.504 399.959 452.285 399.373L461.663 393.908C462.64 393.322 463.812 393.322 464.593 393.713L474.167 399.178C474.948 399.568 474.753 400.349 473.971 400.935L464.593 406.4C463.812 406.986 462.444 406.986 461.663 406.596Z" fill="#06033E"/>
<path opacity="0.4" d="M476.316 414.989L466.743 409.524C465.961 409.133 466.156 408.352 466.938 407.767L476.316 402.301C477.293 401.716 478.465 401.716 479.246 402.106L488.82 407.572C489.601 407.962 489.406 408.743 488.624 409.328L479.246 414.794C478.465 415.379 477.097 415.575 476.316 414.989Z" fill="#06033E"/>
<path opacity="0.4" d="M490.969 423.578L481.395 418.112C480.614 417.722 480.809 416.941 481.591 416.355L490.969 410.89C491.945 410.304 493.118 410.304 493.899 410.695L503.472 416.16C504.254 416.551 504.059 417.331 503.277 417.917L493.899 423.382C493.118 423.968 491.75 423.968 490.969 423.578Z" fill="#06033E"/>
<path opacity="0.4" d="M505.817 431.971L496.244 426.506C495.462 426.115 495.657 425.335 496.439 424.749L505.817 419.283C506.794 418.698 507.966 418.698 508.747 419.088L518.321 424.554C519.102 424.944 518.907 425.725 518.125 426.311L508.747 431.776C507.77 432.362 506.598 432.557 505.817 431.971Z" fill="#06033E"/>
<path opacity="0.4" d="M520.47 440.56L510.896 435.094C510.115 434.704 510.31 433.923 511.092 433.338L520.47 427.872C521.447 427.286 522.619 427.286 523.4 427.677L532.973 433.142C533.755 433.533 533.56 434.314 532.778 434.899L523.4 440.365C522.619 440.95 521.251 440.95 520.47 440.56Z" fill="#06033E"/>
<path opacity="0.4" d="M535.122 448.953L525.549 443.488C524.768 443.097 524.963 442.317 525.745 441.731L535.122 436.266C536.099 435.68 537.272 435.68 538.053 436.07L547.626 441.536C548.408 441.926 548.212 442.707 547.431 443.293L538.053 448.758C537.272 449.344 535.904 449.539 535.122 448.953Z" fill="#06033E"/>
<path opacity="0.4" d="M549.971 457.542L540.398 452.077C539.616 451.686 539.811 450.905 540.593 450.32L549.971 444.854C550.948 444.269 552.12 444.269 552.901 444.659L562.474 450.125C563.256 450.515 563.061 451.296 562.279 451.881L552.901 457.347C551.924 457.932 550.557 457.932 549.971 457.542Z" fill="#06033E"/>
<path opacity="0.4" d="M409.694 360.139L400.121 354.673C399.339 354.283 399.535 353.502 400.316 352.916L409.694 347.451C410.671 346.865 411.843 346.865 412.625 347.256L422.198 352.721C422.979 353.112 422.784 353.892 422.002 354.478L412.625 359.943C411.843 360.529 410.476 360.529 409.694 360.139Z" fill="#06033E"/>
<path opacity="0.4" d="M395.041 351.745L385.468 346.28C384.687 345.889 384.882 345.109 385.663 344.523L395.041 339.057C396.018 338.472 397.19 338.472 397.972 338.862L407.545 344.328C408.327 344.718 408.131 345.499 407.35 346.085L397.972 351.55C397.19 352.136 395.823 352.136 395.041 351.745Z" fill="#06033E"/>
<path opacity="0.4" d="M380.388 343.157L370.815 337.691C370.034 337.301 370.229 336.52 371.011 335.934L380.388 330.469C381.365 329.883 382.537 329.883 383.319 330.274L392.892 335.739C393.674 336.129 393.478 336.91 392.697 337.496L383.319 342.961C382.537 343.547 381.17 343.742 380.388 343.157Z" fill="#06033E"/>
<path opacity="0.4" d="M365.735 334.763L356.162 329.297C355.381 328.907 355.576 328.126 356.358 327.541L365.735 322.075C366.712 321.49 367.885 321.49 368.666 321.88L378.239 327.346C379.021 327.736 378.825 328.517 378.044 329.102L368.666 334.568C367.885 335.153 366.517 335.153 365.735 334.763Z" fill="#06033E"/>
<path opacity="0.4" d="M380.779 326.174L371.206 320.709C370.424 320.318 370.62 319.538 371.401 318.952L374.527 317.195C375.504 316.61 376.676 316.61 377.458 317L387.031 322.466C387.812 322.856 387.617 323.637 386.836 324.222L383.71 325.979C382.928 326.565 381.561 326.565 380.779 326.174Z" fill="#06033E"/>
<path opacity="0.4" d="M399.926 337.105L390.352 331.64C389.571 331.249 389.766 330.469 390.548 329.883L393.674 328.126C394.651 327.541 395.823 327.541 396.604 327.931L406.177 333.397C406.959 333.787 406.764 334.568 405.982 335.153L402.856 336.91C402.075 337.496 400.707 337.496 399.926 337.105Z" fill="#06033E"/>
<path opacity="0.4" d="M414.578 345.499L405.005 340.033C404.224 339.643 404.419 338.862 405.2 338.277L408.326 336.52C409.303 335.934 410.476 335.934 411.257 336.325L420.83 341.79C421.612 342.181 421.416 342.961 420.635 343.547L417.509 345.304C416.727 345.889 415.36 345.889 414.578 345.499Z" fill="#06033E"/>
<path opacity="0.4" d="M429.036 353.892L419.463 348.427C418.681 348.036 418.876 347.256 419.658 346.67L422.784 344.913C423.761 344.328 424.933 344.328 425.714 344.718L435.288 350.184C436.069 350.574 435.874 351.355 435.092 351.94L431.966 353.697C431.185 354.283 429.817 354.478 429.036 353.892Z" fill="#06033E"/>
<path opacity="0.4" d="M443.689 362.286L434.115 356.82C433.334 356.43 433.529 355.649 434.311 355.064L437.437 353.307C438.414 352.721 439.586 352.721 440.367 353.112L449.941 358.577C450.722 358.967 450.527 359.748 449.745 360.334L446.619 362.091C445.838 362.676 444.47 362.871 443.689 362.286Z" fill="#06033E"/>
<path opacity="0.4" d="M525.159 409.328L515.585 403.863C514.804 403.472 514.999 402.691 515.781 402.106L518.907 400.349C519.884 399.764 521.056 399.764 521.837 400.154L531.41 405.619C532.192 406.01 531.997 406.791 531.215 407.376L528.089 409.133C527.112 409.719 525.94 409.719 525.159 409.328Z" fill="#06033E"/>
<path opacity="0.4" d="M539.616 417.722L530.043 412.256C529.261 411.866 529.457 411.085 530.238 410.499L533.364 408.743C534.341 408.157 535.513 408.157 536.295 408.547L545.868 414.013C546.649 414.403 546.454 415.184 545.673 415.77L542.547 417.527C541.765 418.112 540.398 418.112 539.616 417.722Z" fill="#06033E"/>
<path opacity="0.4" d="M554.269 426.115L544.696 420.65C543.914 420.259 544.11 419.479 544.891 418.893L548.017 417.136C548.994 416.551 550.166 416.551 550.948 416.941L560.521 422.407C561.302 422.797 561.107 423.578 560.326 424.163L557.2 425.92C556.418 426.506 555.051 426.506 554.269 426.115Z" fill="#06033E"/>
<path opacity="0.4" d="M568.922 434.509L559.349 429.043C558.567 428.653 558.763 427.872 559.544 427.286L562.67 425.53C563.647 424.944 564.819 424.944 565.601 425.334L575.174 430.8C575.955 431.19 575.76 431.971 574.978 432.557L571.852 434.314C570.876 434.899 569.508 434.899 568.922 434.509Z" fill="#06033E"/>
<path opacity="0.4" d="M424.347 368.532L414.774 363.067C413.992 362.676 414.188 361.895 414.969 361.31L424.347 355.844C425.324 355.259 426.496 355.259 427.278 355.649L436.851 361.115C437.632 361.505 437.437 362.286 436.655 362.871L427.278 368.337C426.496 368.923 425.128 369.118 424.347 368.532Z" fill="#06033E"/>
<path opacity="0.4" d="M439.195 377.121L429.622 371.655C428.84 371.265 429.036 370.484 429.817 369.899L439.195 364.433C440.172 363.847 441.344 363.847 442.126 364.238L451.699 369.703C452.48 370.094 452.285 370.875 451.504 371.46L442.126 376.926C441.344 377.511 439.977 377.511 439.195 377.121Z" fill="#06033E"/>
<path opacity="0.4" d="M453.848 385.514L444.275 380.049C443.493 379.658 443.689 378.878 444.47 378.292L453.848 372.826C454.825 372.241 455.997 372.241 456.779 372.631L466.352 378.097C467.133 378.487 466.938 379.268 466.156 379.854L456.779 385.319C455.997 385.905 454.63 386.1 453.848 385.514Z" fill="#06033E"/>
<path opacity="0.4" d="M468.501 394.103L458.928 388.637C458.146 388.247 458.342 387.466 459.123 386.881L468.501 381.415C469.478 380.829 470.65 380.829 471.431 381.22L481.005 386.685C481.786 387.076 481.591 387.857 480.809 388.442L471.431 393.908C470.65 394.493 469.282 394.493 468.501 394.103Z" fill="#06033E"/>
<path opacity="0.4" d="M483.349 402.496L473.776 397.031C472.994 396.641 473.19 395.86 473.971 395.274L483.349 389.809C484.326 389.223 485.498 389.223 486.28 389.614L495.853 395.079C496.634 395.469 496.439 396.25 495.657 396.836L486.28 402.301C485.303 402.887 484.131 403.082 483.349 402.496Z" fill="#06033E"/>
<path opacity="0.4" d="M498.002 411.085L488.429 405.62C487.647 405.229 487.843 404.448 488.624 403.863L498.002 398.397C498.979 397.812 500.151 397.812 500.932 398.202L510.506 403.668C511.287 404.058 511.092 404.839 510.31 405.424L500.932 410.89C500.151 411.475 498.783 411.475 498.002 411.085Z" fill="#06033E"/>
<path opacity="0.4" d="M512.655 419.479L503.082 414.013C502.3 413.623 502.496 412.842 503.277 412.256L512.655 406.791C513.632 406.205 514.804 406.205 515.585 406.596L525.159 412.061C525.94 412.452 525.745 413.232 524.963 413.818L515.585 419.283C514.804 419.869 513.436 420.064 512.655 419.479Z" fill="#06033E"/>
<path opacity="0.4" d="M527.503 428.067L517.93 422.602C517.148 422.211 517.344 421.431 518.125 420.845L527.503 415.379C528.48 414.794 529.652 414.794 530.434 415.184L540.007 420.65C540.788 421.04 540.593 421.821 539.811 422.406L530.434 427.872C529.457 428.458 528.284 428.458 527.503 428.067Z" fill="#06033E"/>
<path opacity="0.4" d="M542.156 436.461L532.583 430.995C531.801 430.605 531.997 429.824 532.778 429.238L542.156 423.773C543.133 423.187 544.305 423.187 545.086 423.578L554.66 429.043C555.441 429.434 555.246 430.214 554.464 430.8L545.086 436.265C544.305 436.851 542.937 436.851 542.156 436.461Z" fill="#06033E"/>
<path opacity="0.4" d="M340.337 369.703L312.204 353.502C311.422 353.112 311.618 352.331 312.399 351.745L321.777 346.28C322.754 345.694 323.926 345.694 324.707 346.084L352.841 362.286C353.622 362.676 353.427 363.457 352.646 364.043L343.268 369.508C342.486 370.094 341.119 370.094 340.337 369.703Z" fill="#06033E"/>
<path opacity="0.4" d="M521.056 473.939L492.922 457.737C492.141 457.347 492.336 456.566 493.118 455.98L502.496 450.515C503.472 449.929 504.645 449.929 505.426 450.32L533.56 466.521C534.341 466.911 534.146 467.692 533.364 468.278L523.986 473.743C523.205 474.329 521.837 474.329 521.056 473.939Z" fill="#06033E"/>
<path opacity="0.4" d="M462.249 458.713L452.676 453.248C451.894 452.857 452.09 452.076 452.871 451.491L464.203 445.049C465.18 444.464 466.352 444.464 467.133 444.854L476.706 450.32C477.488 450.71 477.293 451.491 476.511 452.076L465.18 458.518C464.398 459.104 463.03 459.104 462.249 458.713Z" fill="#06033E"/>
<path opacity="0.4" d="M355.381 397.031L340.142 388.247C339.36 387.857 339.556 387.076 340.337 386.49L351.669 380.049C352.646 379.463 353.818 379.463 354.599 379.854L369.838 388.638C370.62 389.028 370.424 389.809 369.643 390.394L358.311 396.836C357.53 397.421 356.162 397.617 355.381 397.031Z" fill="#06033E"/>
<path opacity="0.4" d="M447.987 450.515L432.748 441.731C431.966 441.341 432.162 440.56 432.943 439.974L444.275 433.533C445.252 432.947 446.424 432.947 447.205 433.338L462.444 442.121C463.226 442.512 463.03 443.293 462.249 443.878L450.917 450.32C450.136 450.905 448.768 450.905 447.987 450.515Z" fill="#06033E"/>
<path opacity="0.4" d="M376.676 409.328L361.437 400.544C360.656 400.154 360.851 399.373 361.633 398.788L372.964 392.346C373.941 391.761 375.113 391.761 375.895 392.151L391.134 400.935C391.915 401.325 391.72 402.106 390.938 402.692L379.607 409.133C378.63 409.719 377.458 409.719 376.676 409.328Z" fill="#06033E"/>
<path opacity="0.4" d="M375.895 392.346L442.126 430.605C442.907 430.995 442.907 431.776 442.126 432.362L430.599 438.998C429.817 439.389 428.45 439.389 427.668 438.998L361.437 400.544L375.895 392.346Z" fill="#06033E"/>
<path opacity="0.4" d="M503.277 474.134L513.827 480.185C514.413 480.575 514.413 481.161 513.632 481.551L508.943 484.284C508.161 484.674 507.184 484.674 506.403 484.479L495.853 478.428C495.267 478.038 495.267 477.452 496.048 477.062L500.737 474.329C501.714 473.743 502.691 473.743 503.277 474.134Z" fill="#06033E"/>
<path opacity="0.4" d="M488.429 465.545L498.979 471.596C499.565 471.987 499.565 472.572 498.783 472.963L494.095 475.695C493.313 476.086 492.336 476.086 491.555 475.891L481.005 469.839C480.419 469.449 480.419 468.863 481.2 468.473L485.889 465.74C486.866 465.155 487.843 465.155 488.429 465.545Z" fill="#06033E"/>
<path opacity="0.4" d="M473.776 457.152L484.326 463.203C484.912 463.593 484.912 464.179 484.131 464.569L479.442 467.302C478.66 467.692 477.683 467.692 476.902 467.497L466.352 461.446C465.766 461.056 465.766 460.47 466.547 460.08L471.236 457.347C472.018 456.761 473.19 456.761 473.776 457.152Z" fill="#06033E"/>
<path opacity="0.4" d="M496.634 460.86L507.184 466.912C507.771 467.302 507.771 467.888 506.989 468.278L502.3 471.011C501.519 471.401 500.542 471.401 499.76 471.206L489.21 465.155C488.624 464.764 488.624 464.179 489.406 463.788L494.094 461.056C494.876 460.47 496.048 460.47 496.634 460.86Z" fill="#06033E"/>
</g>
<path d="M305.561 368.337L295.988 362.871C295.206 362.481 295.402 361.7 296.183 361.115L307.515 354.673C308.492 354.088 309.664 354.088 310.445 354.478L320.019 359.944C320.8 360.334 320.605 361.115 319.823 361.7L308.492 368.142C307.71 368.727 306.343 368.727 305.561 368.337Z" fill="#999999"/>
<path d="M320.214 376.926L310.641 371.46C309.859 371.07 310.055 370.289 310.836 369.703L322.168 363.262C323.144 362.676 324.317 362.676 325.098 363.067L334.671 368.532C335.453 368.923 335.257 369.703 334.476 370.289L323.144 376.73C322.363 377.121 320.995 377.316 320.214 376.926Z" fill="#999999"/>
<path d="M335.062 385.319L325.489 379.854C324.707 379.463 324.903 378.682 325.684 378.097L337.016 371.655C337.993 371.07 339.165 371.07 339.946 371.46L349.52 376.926C350.301 377.316 350.106 378.097 349.324 378.682L337.993 385.124C337.016 385.709 335.648 385.709 335.062 385.319Z" fill="#999999"/>
<path d="M355.381 378.292L345.808 372.827C345.026 372.436 345.221 371.655 346.003 371.07L355.381 365.604C356.358 365.019 357.53 365.019 358.311 365.409L367.885 370.875C368.666 371.265 368.471 372.046 367.689 372.631L358.311 378.097C357.334 378.682 356.162 378.682 355.381 378.292Z" fill="#999999"/>
<path d="M370.034 386.881L360.46 381.415C359.679 381.025 359.874 380.244 360.656 379.658L370.034 374.193C371.01 373.607 372.183 373.607 372.964 373.998L382.537 379.463C383.319 379.854 383.124 380.634 382.342 381.22L372.964 386.685C372.183 387.271 370.815 387.271 370.034 386.881Z" fill="#999999"/>
<path d="M384.686 395.274L375.113 389.809C374.332 389.418 374.527 388.637 375.309 388.052L384.686 382.586C385.663 382.001 386.836 382.001 387.617 382.391L397.19 387.857C397.972 388.247 397.776 389.028 396.995 389.613L387.617 395.079C386.836 395.664 385.468 395.664 384.686 395.274Z" fill="#999999"/>
<path d="M399.535 403.863L389.962 398.397C389.18 398.007 389.375 397.226 390.157 396.641L399.535 391.175C400.512 390.589 401.684 390.589 402.465 390.98L412.038 396.445C412.82 396.836 412.625 397.617 411.843 398.202L402.465 403.668C401.488 404.058 400.316 404.253 399.535 403.863Z" fill="#999999"/>
<path d="M414.188 412.256L404.614 406.791C403.833 406.4 404.028 405.62 404.81 405.034L414.188 399.568C415.164 398.983 416.337 398.983 417.118 399.373L426.691 404.839C427.473 405.229 427.277 406.01 426.496 406.596L417.118 412.061C416.337 412.647 414.969 412.647 414.188 412.256Z" fill="#999999"/>
<path d="M428.84 420.65L419.267 415.184C418.486 414.794 418.681 414.013 419.463 413.427L428.84 407.962C429.817 407.376 430.99 407.376 431.771 407.767L441.344 413.232C442.126 413.623 441.93 414.403 441.149 414.989L431.771 420.455C430.99 421.04 429.622 421.235 428.84 420.65Z" fill="#999999"/>
<path d="M443.689 429.238L434.115 423.773C433.334 423.383 433.529 422.602 434.311 422.016L443.689 416.551C444.666 415.965 445.838 415.965 446.619 416.355L456.192 421.821C456.974 422.211 456.779 422.992 455.997 423.578L446.619 429.043C445.642 429.629 444.275 429.629 443.689 429.238Z" fill="#999999"/>
<path d="M458.342 437.632L448.768 432.166C447.987 431.776 448.182 430.995 448.964 430.41L458.342 424.944C459.318 424.358 460.491 424.359 461.272 424.749L470.845 430.214C471.627 430.605 471.431 431.386 470.65 431.971L461.272 437.437C460.491 438.022 459.123 438.218 458.342 437.632Z" fill="#999999"/>
<path d="M472.994 446.221L463.421 440.755C462.64 440.365 462.835 439.584 463.617 438.998L472.994 433.533C473.971 432.947 475.143 432.947 475.925 433.338L485.498 438.803C486.28 439.193 486.084 439.974 485.303 440.56L475.925 446.025C475.143 446.611 473.776 446.611 472.994 446.221Z" fill="#999999"/>
<path d="M487.647 454.614L478.074 449.149C477.293 448.758 477.488 447.977 478.269 447.392L487.647 441.926C488.624 441.341 489.796 441.341 490.578 441.731L500.151 447.197C500.932 447.587 500.737 448.368 499.956 448.953L490.578 454.419C489.796 455.004 488.429 455.2 487.647 454.614Z" fill="#999999"/>
<path d="M377.067 374.388L367.494 368.923C366.712 368.532 366.908 367.751 367.689 367.166L377.067 361.7C378.044 361.115 379.216 361.115 379.998 361.505L389.571 366.971C390.352 367.361 390.157 368.142 389.375 368.727L379.998 374.193C379.021 374.583 377.848 374.779 377.067 374.388Z" fill="#999999"/>
<path d="M362.023 365.604L352.45 360.139C351.669 359.748 351.864 358.967 352.646 358.382L362.023 352.916C363 352.331 364.172 352.331 364.954 352.721L374.527 358.187C375.309 358.577 375.113 359.358 374.332 359.943L364.954 365.409C364.172 365.995 362.805 366.19 362.023 365.604Z" fill="#999999"/>
<path d="M347.175 357.015L326.661 345.108C325.88 344.718 326.075 343.937 326.856 343.352L336.234 337.886C337.211 337.301 338.383 337.301 339.165 337.691L359.679 349.598C360.46 349.988 360.265 350.769 359.483 351.355L350.106 356.82C349.129 357.406 347.957 357.406 347.175 357.015Z" fill="#999999"/>
<path d="M357.53 346.475L340.923 336.91C340.142 336.52 340.337 335.739 341.119 335.153L350.497 329.688C351.473 329.102 352.646 329.102 353.427 329.493L370.034 339.057C370.815 339.448 370.62 340.229 369.838 340.814L360.46 346.28C359.679 346.865 358.311 347.06 357.53 346.475Z" fill="#999999"/>
<path d="M391.72 382.782L382.147 377.316C381.365 376.926 381.561 376.145 382.342 375.559L391.72 370.094C392.697 369.508 393.869 369.508 394.65 369.899L404.224 375.364C405.005 375.754 404.81 376.535 404.028 377.121L394.65 382.586C393.869 383.172 392.501 383.172 391.72 382.782Z" fill="#999999"/>
<path d="M406.373 391.175L396.8 385.709C396.018 385.319 396.213 384.538 396.995 383.953L406.373 378.487C407.35 377.902 408.522 377.902 409.303 378.292L418.876 383.757C419.658 384.148 419.463 384.929 418.681 385.514L409.303 390.98C408.522 391.565 407.154 391.761 406.373 391.175Z" fill="#999999"/>
<path d="M421.221 399.764L411.648 394.298C410.866 393.908 411.062 393.127 411.843 392.541L421.221 387.076C422.198 386.49 423.37 386.49 424.151 386.881L433.725 392.346C434.506 392.737 434.311 393.517 433.529 394.103L424.151 399.568C423.175 400.154 421.807 400.154 421.221 399.764Z" fill="#999999"/>
<path d="M435.874 408.157L426.301 402.692C425.519 402.301 425.714 401.52 426.496 400.935L435.874 395.469C436.851 394.884 438.023 394.884 438.804 395.274L448.378 400.74C449.159 401.13 448.964 401.911 448.182 402.496L438.804 407.962C438.023 408.547 436.655 408.743 435.874 408.157Z" fill="#999999"/>
<path d="M450.527 416.746L440.953 411.28C440.172 410.89 440.367 410.109 441.149 409.523L450.527 404.058C451.503 403.472 452.676 403.472 453.457 403.863L463.03 409.328C463.812 409.719 463.616 410.499 462.835 411.085L453.457 416.551C452.676 417.136 451.308 417.136 450.527 416.746Z" fill="#999999"/>
<path d="M465.179 425.139L455.606 419.674C454.825 419.283 455.02 418.503 455.802 417.917L465.179 412.451C466.156 411.866 467.329 411.866 468.11 412.256L477.683 417.722C478.465 418.112 478.269 418.893 477.488 419.478L468.11 424.944C467.329 425.53 465.961 425.725 465.179 425.139Z" fill="#999999"/>
<path d="M480.028 433.728L470.455 428.263C469.673 427.872 469.868 427.091 470.65 426.506L480.028 421.04C481.005 420.455 482.177 420.455 482.958 420.845L492.532 426.311C493.313 426.701 493.118 427.482 492.336 428.067L482.958 433.533C482.177 434.118 480.809 434.118 480.028 433.728Z" fill="#999999"/>
<path d="M494.681 442.121L485.107 436.656C484.326 436.265 484.521 435.485 485.303 434.899L494.681 429.434C495.658 428.848 496.83 428.848 497.611 429.238L507.184 434.704C507.966 435.094 507.771 435.875 506.989 436.461L497.611 441.926C496.83 442.512 495.462 442.707 494.681 442.121Z" fill="#999999"/>
<path d="M509.334 450.71L499.76 445.245C498.979 444.854 499.174 444.073 499.956 443.488L509.334 438.022C510.31 437.437 511.483 437.437 512.264 437.827L521.837 443.293C522.619 443.683 522.423 444.464 521.642 445.049L512.264 450.515C511.483 451.101 510.115 451.101 509.334 450.71Z" fill="#999999"/>
<path d="M535.513 465.74L514.804 453.833C514.022 453.443 514.218 452.662 514.999 452.076L524.377 446.611C525.354 446.025 526.526 446.025 527.308 446.416L548.017 458.323C548.799 458.713 548.603 459.494 547.822 460.08L538.444 465.545C537.662 466.131 536.295 466.131 535.513 465.74Z" fill="#999999"/>
<path d="M564.233 449.149L546.649 438.998C545.868 438.608 546.063 437.827 546.845 437.242L556.223 431.776C557.2 431.191 558.372 431.191 559.153 431.581L576.737 441.731C577.518 442.122 577.323 442.902 576.541 443.488L567.163 448.953C566.382 449.539 565.014 449.734 564.233 449.149Z" fill="#999999"/>
<path d="M417.509 381.025L407.936 375.559C407.154 375.169 407.35 374.388 408.131 373.803L417.509 368.337C418.486 367.751 419.658 367.751 420.44 368.142L430.013 373.607C430.794 373.998 430.599 374.779 429.817 375.364L420.44 380.83C419.658 381.415 418.29 381.61 417.509 381.025Z" fill="#999999"/>
<path d="M402.465 372.436L392.892 366.971C392.111 366.58 392.306 365.799 393.087 365.214L402.465 359.748C403.442 359.163 404.614 359.163 405.396 359.553L414.969 365.019C415.751 365.409 415.555 366.19 414.774 366.775L405.396 372.241C404.419 372.826 403.247 372.826 402.465 372.436Z" fill="#999999"/>
<path d="M387.226 363.652L377.653 358.187C376.872 357.796 377.067 357.015 377.849 356.43L387.226 350.964C388.203 350.379 389.375 350.379 390.157 350.769L399.73 356.235C400.512 356.625 400.316 357.406 399.535 357.991L390.157 363.457C389.375 364.043 388.008 364.238 387.226 363.652Z" fill="#999999"/>
<path d="M372.183 355.063L362.61 349.598C361.828 349.208 362.023 348.427 362.805 347.841L372.183 342.376C373.16 341.79 374.332 341.79 375.113 342.181L384.686 347.646C385.468 348.036 385.273 348.817 384.491 349.403L375.113 354.868C374.332 355.454 372.964 355.454 372.183 355.063Z" fill="#999999"/>
<path d="M432.162 389.613L422.589 384.148C421.807 383.758 422.002 382.977 422.784 382.391L432.162 376.926C433.139 376.34 434.311 376.34 435.092 376.73L444.666 382.196C445.447 382.586 445.252 383.367 444.47 383.953L435.092 389.418C434.311 390.004 432.943 390.004 432.162 389.613Z" fill="#999999"/>
<path d="M446.815 398.007L437.241 392.541C436.46 392.151 436.655 391.37 437.437 390.785L446.815 385.319C447.792 384.733 448.964 384.734 449.745 385.124L459.318 390.589C460.1 390.98 459.905 391.761 459.123 392.346L449.745 397.812C448.964 398.397 447.596 398.593 446.815 398.007Z" fill="#999999"/>
<path d="M461.663 406.596L452.09 401.13C451.308 400.74 451.504 399.959 452.285 399.373L461.663 393.908C462.64 393.322 463.812 393.322 464.593 393.713L474.167 399.178C474.948 399.568 474.753 400.349 473.971 400.935L464.593 406.4C463.812 406.986 462.444 406.986 461.663 406.596Z" fill="#999999"/>
<path d="M476.316 414.989L466.743 409.524C465.961 409.133 466.156 408.352 466.938 407.767L476.316 402.301C477.293 401.716 478.465 401.716 479.246 402.106L488.82 407.572C489.601 407.962 489.406 408.743 488.624 409.328L479.246 414.794C478.465 415.379 477.097 415.575 476.316 414.989Z" fill="#999999"/>
<path d="M490.969 423.578L481.395 418.112C480.614 417.722 480.809 416.941 481.591 416.355L490.969 410.89C491.945 410.304 493.118 410.304 493.899 410.695L503.472 416.16C504.254 416.551 504.059 417.331 503.277 417.917L493.899 423.382C493.118 423.968 491.75 423.968 490.969 423.578Z" fill="#999999"/>
<path d="M505.817 431.971L496.244 426.506C495.462 426.115 495.657 425.335 496.439 424.749L505.817 419.283C506.794 418.698 507.966 418.698 508.747 419.088L518.321 424.554C519.102 424.944 518.907 425.725 518.125 426.311L508.747 431.776C507.77 432.362 506.598 432.557 505.817 431.971Z" fill="#999999"/>
<path d="M520.47 440.56L510.896 435.094C510.115 434.704 510.31 433.923 511.092 433.338L520.47 427.872C521.447 427.286 522.619 427.286 523.4 427.677L532.973 433.142C533.755 433.533 533.56 434.314 532.778 434.899L523.4 440.365C522.619 440.95 521.251 440.95 520.47 440.56Z" fill="#999999"/>
<path d="M535.122 448.953L525.549 443.488C524.768 443.097 524.963 442.317 525.745 441.731L535.122 436.266C536.099 435.68 537.272 435.68 538.053 436.07L547.626 441.536C548.408 441.926 548.212 442.707 547.431 443.293L538.053 448.758C537.272 449.344 535.904 449.539 535.122 448.953Z" fill="#999999"/>
<path d="M549.971 457.542L540.398 452.077C539.616 451.686 539.811 450.905 540.593 450.32L549.971 444.854C550.948 444.269 552.12 444.269 552.901 444.659L562.474 450.125C563.256 450.515 563.061 451.296 562.279 451.881L552.901 457.347C551.924 457.932 550.557 457.932 549.971 457.542Z" fill="#999999"/>
<path d="M409.694 360.139L400.121 354.673C399.339 354.283 399.535 353.502 400.316 352.916L409.694 347.451C410.671 346.865 411.843 346.865 412.625 347.256L422.198 352.721C422.979 353.112 422.784 353.892 422.002 354.478L412.625 359.943C411.843 360.529 410.476 360.529 409.694 360.139Z" fill="#999999"/>
<path d="M395.041 351.745L385.468 346.28C384.687 345.889 384.882 345.109 385.663 344.523L395.041 339.057C396.018 338.472 397.19 338.472 397.972 338.862L407.545 344.328C408.327 344.718 408.131 345.499 407.35 346.085L397.972 351.55C397.19 352.136 395.823 352.136 395.041 351.745Z" fill="#999999"/>
<path d="M380.388 343.157L370.815 337.691C370.034 337.301 370.229 336.52 371.011 335.934L380.388 330.469C381.365 329.883 382.537 329.883 383.319 330.274L392.892 335.739C393.674 336.129 393.478 336.91 392.697 337.496L383.319 342.961C382.537 343.547 381.17 343.742 380.388 343.157Z" fill="#999999"/>
<path d="M365.735 334.763L356.162 329.297C355.381 328.907 355.576 328.126 356.358 327.541L365.735 322.075C366.712 321.49 367.885 321.49 368.666 321.88L378.239 327.346C379.021 327.736 378.825 328.517 378.044 329.102L368.666 334.568C367.885 335.153 366.517 335.153 365.735 334.763Z" fill="#999999"/>
<path d="M380.779 326.174L371.206 320.709C370.424 320.318 370.62 319.538 371.401 318.952L374.527 317.195C375.504 316.61 376.676 316.61 377.458 317L387.031 322.466C387.812 322.856 387.617 323.637 386.836 324.222L383.71 325.979C382.928 326.565 381.561 326.565 380.779 326.174Z" fill="#999999"/>
<path d="M399.926 337.105L390.352 331.64C389.571 331.249 389.766 330.469 390.548 329.883L393.674 328.126C394.651 327.541 395.823 327.541 396.604 327.931L406.177 333.397C406.959 333.787 406.764 334.568 405.982 335.153L402.856 336.91C402.075 337.496 400.707 337.496 399.926 337.105Z" fill="#999999"/>
<path d="M414.578 345.499L405.005 340.033C404.224 339.643 404.419 338.862 405.2 338.277L408.326 336.52C409.303 335.934 410.476 335.934 411.257 336.325L420.83 341.79C421.612 342.181 421.416 342.961 420.635 343.547L417.509 345.304C416.727 345.889 415.36 345.889 414.578 345.499Z" fill="#999999"/>
<path d="M429.036 353.892L419.463 348.427C418.681 348.036 418.876 347.256 419.658 346.67L422.784 344.913C423.761 344.328 424.933 344.328 425.714 344.718L435.288 350.184C436.069 350.574 435.874 351.355 435.092 351.94L431.966 353.697C431.185 354.283 429.817 354.478 429.036 353.892Z" fill="#999999"/>
<path d="M443.689 362.286L434.115 356.82C433.334 356.43 433.529 355.649 434.311 355.064L437.437 353.307C438.414 352.721 439.586 352.721 440.367 353.112L449.941 358.577C450.722 358.967 450.527 359.748 449.745 360.334L446.619 362.091C445.838 362.676 444.47 362.871 443.689 362.286Z" fill="#999999"/>
<path d="M525.159 409.328L515.585 403.863C514.804 403.472 514.999 402.691 515.781 402.106L518.907 400.349C519.884 399.764 521.056 399.764 521.837 400.154L531.41 405.619C532.192 406.01 531.997 406.791 531.215 407.376L528.089 409.133C527.112 409.719 525.94 409.719 525.159 409.328Z" fill="#999999"/>
<path d="M539.616 417.722L530.043 412.256C529.261 411.866 529.457 411.085 530.238 410.499L533.364 408.743C534.341 408.157 535.513 408.157 536.295 408.547L545.868 414.013C546.649 414.403 546.454 415.184 545.673 415.77L542.547 417.527C541.765 418.112 540.398 418.112 539.616 417.722Z" fill="#999999"/>
<path d="M554.269 426.115L544.696 420.65C543.914 420.259 544.11 419.479 544.891 418.893L548.017 417.136C548.994 416.551 550.166 416.551 550.948 416.941L560.521 422.407C561.302 422.797 561.107 423.578 560.326 424.163L557.2 425.92C556.418 426.506 555.051 426.506 554.269 426.115Z" fill="#999999"/>
<path d="M568.922 434.509L559.349 429.043C558.567 428.653 558.763 427.872 559.544 427.286L562.67 425.53C563.647 424.944 564.819 424.944 565.601 425.334L575.174 430.8C575.955 431.19 575.76 431.971 574.978 432.557L571.852 434.314C570.876 434.899 569.508 434.899 568.922 434.509Z" fill="#999999"/>
<path d="M424.347 368.532L414.774 363.067C413.992 362.676 414.188 361.895 414.969 361.31L424.347 355.844C425.324 355.259 426.496 355.259 427.278 355.649L436.851 361.115C437.632 361.505 437.437 362.286 436.655 362.871L427.278 368.337C426.496 368.923 425.128 369.118 424.347 368.532Z" fill="#999999"/>
<path d="M439.195 377.121L429.622 371.655C428.84 371.265 429.036 370.484 429.817 369.899L439.195 364.433C440.172 363.847 441.344 363.847 442.126 364.238L451.699 369.703C452.48 370.094 452.285 370.875 451.504 371.46L442.126 376.926C441.344 377.511 439.977 377.511 439.195 377.121Z" fill="#999999"/>
<path d="M453.848 385.514L444.275 380.049C443.493 379.658 443.689 378.878 444.47 378.292L453.848 372.826C454.825 372.241 455.997 372.241 456.779 372.631L466.352 378.097C467.133 378.487 466.938 379.268 466.156 379.854L456.779 385.319C455.997 385.905 454.63 386.1 453.848 385.514Z" fill="#999999"/>
<path d="M468.501 394.103L458.928 388.637C458.146 388.247 458.342 387.466 459.123 386.881L468.501 381.415C469.478 380.829 470.65 380.829 471.431 381.22L481.005 386.685C481.786 387.076 481.591 387.857 480.809 388.442L471.431 393.908C470.65 394.493 469.282 394.493 468.501 394.103Z" fill="#999999"/>
<path d="M483.349 402.496L473.776 397.031C472.994 396.641 473.19 395.86 473.971 395.274L483.349 389.809C484.326 389.223 485.498 389.223 486.28 389.614L495.853 395.079C496.634 395.469 496.439 396.25 495.657 396.836L486.28 402.301C485.303 402.887 484.131 403.082 483.349 402.496Z" fill="#999999"/>
<path d="M498.002 411.085L488.429 405.62C487.647 405.229 487.843 404.448 488.624 403.863L498.002 398.397C498.979 397.812 500.151 397.812 500.932 398.202L510.506 403.668C511.287 404.058 511.092 404.839 510.31 405.424L500.932 410.89C500.151 411.475 498.783 411.475 498.002 411.085Z" fill="#999999"/>
<path d="M512.655 419.479L503.082 414.013C502.3 413.623 502.496 412.842 503.277 412.256L512.655 406.791C513.632 406.205 514.804 406.205 515.585 406.596L525.159 412.061C525.94 412.452 525.745 413.232 524.963 413.818L515.585 419.283C514.804 419.869 513.436 420.064 512.655 419.479Z" fill="#999999"/>
<path d="M527.503 428.067L517.93 422.602C517.148 422.211 517.344 421.431 518.125 420.845L527.503 415.379C528.48 414.794 529.652 414.794 530.434 415.184L540.007 420.65C540.788 421.04 540.593 421.821 539.811 422.406L530.434 427.872C529.457 428.458 528.284 428.458 527.503 428.067Z" fill="#999999"/>
<path d="M542.156 436.461L532.583 430.995C531.801 430.605 531.997 429.824 532.778 429.238L542.156 423.773C543.133 423.187 544.305 423.187 545.086 423.578L554.66 429.043C555.441 429.434 555.246 430.214 554.464 430.8L545.086 436.265C544.305 436.851 542.937 436.851 542.156 436.461Z" fill="#999999"/>
<path d="M340.337 369.703L312.204 353.502C311.422 353.112 311.618 352.331 312.399 351.745L321.777 346.28C322.754 345.694 323.926 345.694 324.707 346.084L352.841 362.286C353.622 362.676 353.427 363.457 352.646 364.043L343.268 369.508C342.486 370.094 341.119 370.094 340.337 369.703Z" fill="#999999"/>
<path d="M521.056 473.939L492.922 457.737C492.141 457.347 492.336 456.566 493.118 455.98L502.496 450.515C503.472 449.929 504.645 449.929 505.426 450.32L533.56 466.521C534.341 466.911 534.146 467.692 533.364 468.278L523.986 473.743C523.205 474.329 521.837 474.329 521.056 473.939Z" fill="#999999"/>
<path d="M462.249 458.713L452.676 453.248C451.894 452.857 452.09 452.076 452.871 451.491L464.203 445.049C465.18 444.464 466.352 444.464 467.133 444.854L476.706 450.32C477.488 450.71 477.293 451.491 476.511 452.076L465.18 458.518C464.398 459.104 463.03 459.104 462.249 458.713Z" fill="#999999"/>
<path d="M355.381 397.031L340.142 388.247C339.36 387.857 339.556 387.076 340.337 386.49L351.669 380.049C352.646 379.463 353.818 379.463 354.599 379.854L369.838 388.638C370.62 389.028 370.424 389.809 369.643 390.394L358.311 396.836C357.53 397.421 356.162 397.617 355.381 397.031Z" fill="#999999"/>
<path d="M447.987 450.515L432.748 441.731C431.966 441.341 432.162 440.56 432.943 439.974L444.275 433.533C445.252 432.947 446.424 432.947 447.205 433.338L462.444 442.121C463.226 442.512 463.03 443.293 462.249 443.878L450.917 450.32C450.136 450.905 448.768 450.905 447.987 450.515Z" fill="#999999"/>
<path d="M376.676 409.328L361.437 400.544C360.656 400.154 360.851 399.373 361.633 398.788L372.964 392.346C373.941 391.761 375.113 391.761 375.895 392.151L391.134 400.935C391.915 401.325 391.72 402.106 390.938 402.692L379.607 409.133C378.63 409.719 377.458 409.719 376.676 409.328Z" fill="#999999"/>
<path d="M375.895 392.346L442.126 430.605C442.907 430.995 442.907 431.776 442.126 432.362L430.599 438.998C429.817 439.389 428.45 439.389 427.668 438.998L361.437 400.544L375.895 392.346Z" fill="#999999"/>
<path d="M503.277 474.134L513.827 480.185C514.413 480.575 514.413 481.161 513.632 481.551L508.943 484.284C508.161 484.674 507.184 484.674 506.403 484.479L495.853 478.428C495.267 478.038 495.267 477.452 496.048 477.062L500.737 474.329C501.714 473.743 502.691 473.743 503.277 474.134Z" fill="#999999"/>
<path d="M488.429 465.545L498.979 471.596C499.565 471.987 499.565 472.572 498.783 472.963L494.095 475.695C493.313 476.086 492.336 476.086 491.555 475.891L481.005 469.839C480.419 469.449 480.419 468.863 481.2 468.473L485.889 465.74C486.866 465.155 487.843 465.155 488.429 465.545Z" fill="#999999"/>
<path d="M473.776 457.152L484.326 463.203C484.912 463.593 484.912 464.179 484.131 464.569L479.442 467.302C478.66 467.692 477.683 467.692 476.902 467.497L466.352 461.446C465.766 461.056 465.766 460.47 466.547 460.08L471.236 457.347C472.018 456.761 473.19 456.761 473.776 457.152Z" fill="#999999"/>
<path d="M496.634 460.86L507.184 466.912C507.771 467.302 507.771 467.888 506.989 468.278L502.3 471.011C501.519 471.401 500.542 471.401 499.76 471.206L489.21 465.155C488.624 464.764 488.624 464.179 489.406 463.788L494.094 461.056C494.876 460.47 496.048 460.47 496.634 460.86Z" fill="#999999"/>
<path d="M652.345 443.683L371.206 281.669C366.712 279.132 364.563 272.886 366.126 267.81L429.622 61.6823C431.185 56.6072 436.069 54.46 440.563 56.9976L721.702 219.206C726.196 221.744 728.345 227.99 726.782 233.065L663.286 439.193C661.723 444.269 656.839 446.221 652.345 443.683Z" fill="url(#paint5_linear)"/>
<path d="M649.61 436.461L377.067 279.132C372.769 276.789 370.62 270.738 372.183 265.858L432.943 68.7094C434.506 63.8295 439.195 61.8775 443.298 64.2199L715.841 221.549C720.139 223.891 722.288 229.942 720.725 234.822L659.965 431.971C658.597 436.851 653.908 438.998 649.61 436.461Z" fill="url(#paint6_linear)"/>
<path opacity="0.4" d="M649.61 436.461L377.067 279.132C372.769 276.789 370.62 270.738 372.183 265.858L432.943 68.7094C434.506 63.8295 439.195 61.8775 443.298 64.2199L715.841 221.549C720.139 223.891 722.288 229.942 720.725 234.822L659.965 431.971C658.597 436.851 653.908 438.998 649.61 436.461Z" fill="#06033E"/>
<path d="M649.61 436.461L377.067 279.132C372.769 276.789 370.62 270.738 372.183 265.858L432.943 68.7094C434.506 63.8295 439.195 61.8775 443.298 64.2199L715.841 221.549C720.139 223.891 722.288 229.942 720.725 234.822L659.965 431.971C658.597 436.851 653.908 438.998 649.61 436.461Z" fill="url(#paint7_linear)"/>
<path d="M582.598 378.682L422.784 285.183C416.923 281.669 414.578 275.618 416.532 269.372L459.514 132.734C463.812 119.07 485.107 111.262 497.807 118.68L657.62 212.179C663.482 215.693 665.826 221.744 663.872 227.99L620.891 364.628C616.592 378.292 595.297 386.1 582.598 378.682Z" fill="url(#paint8_linear)"/>
<path d="M594.711 375.559C592.171 375.364 589.827 374.778 587.873 373.607L428.059 280.108C424.152 277.765 422.589 273.862 423.956 269.567L466.938 132.929C469.282 125.707 478.465 121.413 485.498 121.803C488.038 121.998 490.383 122.584 492.336 123.755L652.15 217.254C656.058 219.597 657.621 223.501 656.253 227.795L613.271 364.433C611.122 371.655 601.94 375.95 594.711 375.559ZM485.303 122.779C478.856 122.584 470.65 126.292 468.501 132.929L425.519 269.567C424.347 273.276 425.715 276.985 429.231 279.132L589.045 372.631C590.803 373.607 592.953 374.193 595.297 374.388C601.744 374.583 609.95 370.874 612.099 364.238L655.081 227.6C656.253 223.891 654.885 220.182 651.369 218.035L491.555 124.536C489.601 123.56 487.647 122.974 485.303 122.779Z" fill="url(#paint9_linear)"/>
<path d="M626.361 246.729L488.429 165.918C485.303 164.161 483.74 159.476 485.107 155.767C486.28 151.863 489.796 150.302 492.922 152.059L630.855 232.87C633.98 234.627 635.543 239.312 634.176 243.02C633.004 246.924 629.487 248.486 626.361 246.729Z" fill="url(#paint10_linear)"/>
<path d="M511.678 263.907L467.915 238.336C464.789 236.579 463.226 231.894 464.593 228.186L478.856 182.9C480.028 178.996 483.544 177.434 486.67 179.191L530.434 204.762C533.56 206.519 535.123 211.203 533.755 214.912L519.493 260.198C518.321 264.102 514.804 265.663 511.678 263.907Z" fill="url(#paint11_linear)"/>
<path d="M594.125 312.12L550.362 286.549C547.236 284.793 545.673 280.108 547.04 276.399L561.302 231.113C562.475 227.209 565.991 225.648 569.117 227.405L612.88 252.975C616.006 254.732 617.569 259.417 616.202 263.126L601.94 308.411C600.572 312.315 597.055 313.877 594.125 312.12Z" fill="url(#paint12_linear)"/>
<path d="M595.688 336.715L453.653 253.561C452.676 252.975 452.285 251.804 452.676 250.633C453.067 249.462 454.043 249.072 454.825 249.657L596.86 332.811C597.837 333.397 598.228 334.568 597.837 335.739C597.641 336.715 596.665 337.301 595.688 336.715Z" fill="url(#paint13_linear)"/>
<path d="M593.343 344.328L451.308 261.174C450.331 260.588 449.941 259.417 450.331 258.246C450.722 257.075 451.699 256.684 452.48 257.27L594.515 340.424C595.492 341.009 595.883 342.18 595.492 343.352C595.297 344.328 594.32 344.718 593.343 344.328Z" fill="url(#paint14_linear)"/>
<path d="M590.999 351.745L448.964 268.591C447.987 268.006 447.596 266.834 447.987 265.663C448.378 264.492 449.354 264.102 450.136 264.687L592.171 347.841C593.148 348.427 593.539 349.598 593.148 350.769C592.757 351.94 591.78 352.331 590.999 351.745Z" fill="url(#paint15_linear)"/>
<g opacity="0.61">
<path opacity="0.61" d="M468.501 30.6459L443.689 16.2014V10.7358L468.501 25.1804V30.6459Z" fill="#FF5500"/>
<path opacity="0.61" d="M481.395 38.0635L472.408 32.7932V27.3276L481.395 32.598V38.0635Z" fill="#FF5500"/>
<path opacity="0.61" d="M491.164 43.7242L485.107 40.2106V34.7451L491.164 38.2587V43.7242Z" fill="#FF5500"/>
<path opacity="0.61" d="M457.169 36.6971L443.689 28.694V23.2285L457.169 31.2316V36.6971Z" fill="#FF5500"/>
<path opacity="0.61" d="M477.683 48.4088L461.077 38.8442V33.3787L477.683 42.9433V48.4088Z" fill="#FF5500"/>
<path opacity="0.61" d="M487.452 54.0695L481.395 50.556V45.0905L487.452 48.604V54.0695Z" fill="#FF5500"/>
<path opacity="0.61" d="M497.025 59.5351L490.969 56.0216V50.556L497.025 54.0696V59.5351Z" fill="#FF5500"/>
<path opacity="0.61" d="M453.457 47.0425L443.689 41.1866V35.7211L453.457 41.3818V47.0425Z" fill="#FF5500"/>
<path opacity="0.61" d="M460.686 51.1416L457.169 49.1896V43.7241L460.686 45.6761V51.1416Z" fill="#FF5500"/>
<path opacity="0.61" d="M470.455 56.8023L464.398 53.2888V47.8232L470.455 51.3368V56.8023Z" fill="#FF5500"/>
<path opacity="0.61" d="M479.832 74.7604L443.689 53.6791V48.2136L479.832 69.2949V74.7604Z" fill="#FF5500"/>
<path opacity="0.61" d="M492.727 81.9828L483.74 76.9077V71.4421L492.727 76.5173V81.9828Z" fill="#FF5500"/>
<path opacity="0.61" d="M453.457 72.0277L443.689 66.1718V60.7063L453.457 66.5622V72.0277Z" fill="#FF5500"/>
<path opacity="0.61" d="M476.511 85.3011L457.169 74.1749V68.7094L476.511 79.8356V85.3011Z" fill="#FF5500"/>
<path opacity="0.61" d="M486.475 90.9618L480.223 87.4483V81.9828L486.475 85.4963V90.9618Z" fill="#FF5500"/>
<path opacity="0.61" d="M463.617 90.3762L443.689 78.6644V73.1989L463.617 84.9107V90.3762Z" fill="#FF5500"/>
<path opacity="0.61" d="M481.982 100.917L467.524 92.5234V87.0579L481.982 95.4513V100.917Z" fill="#FF5500"/>
<path opacity="0.61" d="M495.658 108.725L485.889 103.064V97.5985L495.658 103.259V108.725Z" fill="#FF5500"/>
<path opacity="0.61" d="M450.331 95.2562L443.689 91.3522V85.6915L450.331 89.7907V95.2562Z" fill="#FF5500"/>
<path opacity="0.61" d="M463.226 102.478L454.239 97.4033V91.9377L463.226 97.0129V102.478Z" fill="#FF5500"/>
<path opacity="0.61" d="M481.395 113.019L466.938 104.821V99.3553L481.395 107.554V113.019Z" fill="#FF5500"/>
<path opacity="0.61" d="M464.398 115.752L443.689 103.845V98.1842L464.398 110.286V115.752Z" fill="#FF5500"/>
<path opacity="0.61" d="M487.647 129.22L468.306 117.899V112.433L487.647 123.755V129.22Z" fill="#FF5500"/>
<path opacity="0.61" d="M497.611 134.881L491.555 131.368V125.902L497.611 129.416V134.881Z" fill="#FF5500"/>
<path opacity="0.61" d="M507.185 140.347L500.933 136.833V131.368L507.185 134.881V140.347Z" fill="#FF5500"/>
<path opacity="0.61" d="M455.997 123.364L443.689 116.337V110.677L455.997 117.899V123.364Z" fill="#FF5500"/>
<path opacity="0.61" d="M508.161 53.4839L525.549 63.439V57.9735L508.161 48.0184V53.4839Z" fill="#FF5500"/>
<path opacity="0.61" d="M511.873 68.1237L525.549 75.9316V70.4661L511.873 62.6582V68.1237Z" fill="#FF5500"/>
<path opacity="0.61" d="M515.586 82.7635L525.549 88.4242V82.9587L515.586 77.298V82.7635Z" fill="#FF5500"/>
<path opacity="0.61" d="M511.092 92.7186L525.549 100.917V95.4513L511.092 87.2531V92.7186Z" fill="#FF5500"/>
<path opacity="0.61" d="M515.586 107.749L525.549 113.41V107.944L515.586 102.283V107.749Z" fill="#FF5500"/>
<path opacity="0.61" d="M513.046 118.875L525.549 125.902V120.437L513.046 113.409V118.875Z" fill="#FF5500"/>
<path opacity="0.61" d="M518.711 134.491L525.549 138.395V132.929L518.711 129.025V134.491Z" fill="#FF5500"/>
<path opacity="0.61" d="M512.264 143.47L525.549 150.887V145.422L512.264 138.004V143.47Z" fill="#FF5500"/>
<path opacity="0.61" d="M513.046 156.353L525.549 163.38V157.914L513.046 150.887V156.353Z" fill="#FF5500"/>
<path opacity="0.61" d="M465.18 128.635L459.905 125.707V120.241L465.18 123.169V128.635Z" fill="#FF5500"/>
<path opacity="0.61" d="M481.005 137.809L468.892 130.977V125.512L481.005 132.344V137.809Z" fill="#FF5500"/>
<path opacity="0.61" d="M565.21 86.277L540.202 71.8325V66.3669L565.21 80.8115V86.277Z" fill="#FF5500"/>
<path opacity="0.61" d="M577.909 93.4994L568.922 88.4243V82.9587L577.909 88.0339V93.4994Z" fill="#FF5500"/>
<path opacity="0.61" d="M587.873 99.3553L581.816 95.8417V90.3762L587.873 93.8898V99.3553Z" fill="#FF5500"/>
<path opacity="0.61" d="M553.878 92.133L540.202 84.3251V78.8596L553.878 86.6675V92.133Z" fill="#FF5500"/>
<path opacity="0.61" d="M574.392 104.04L557.59 94.2802V88.8147L574.392 98.5745V104.04Z" fill="#FF5500"/>
<path opacity="0.61" d="M584.161 109.701L578.104 106.187V100.722L584.161 104.235V109.701Z" fill="#FF5500"/>
<path opacity="0.61" d="M593.734 115.166L587.482 111.653V106.187L593.734 109.701V115.166Z" fill="#FF5500"/>
<path opacity="0.61" d="M550.166 102.479L540.202 96.8178V91.3523L550.166 97.013V102.479Z" fill="#FF5500"/>
<path opacity="0.61" d="M557.2 106.578L553.878 104.626V99.1602L557.2 101.112V106.578Z" fill="#FF5500"/>
<path opacity="0.61" d="M567.164 112.434L561.107 108.92V103.259L567.164 106.968V112.434Z" fill="#FF5500"/>
<path opacity="0.61" d="M576.541 130.196L540.202 109.31V103.845L576.541 124.731V130.196Z" fill="#FF5500"/>
<path opacity="0.61" d="M589.241 137.614L580.253 132.344V126.878L589.241 132.148V137.614Z" fill="#FF5500"/>
<path opacity="0.61" d="M550.166 127.464L540.202 121.803V116.337L550.166 121.998V127.464Z" fill="#FF5500"/>
<path opacity="0.61" d="M573.22 140.737L553.878 129.611V124.145L573.22 135.272V140.737Z" fill="#FF5500"/>
<path opacity="0.61" d="M582.989 146.593L576.932 143.079V137.419L582.989 141.127V146.593Z" fill="#FF5500"/>
<path opacity="0.61" d="M560.326 145.812L540.202 134.296V128.83L560.326 140.347V145.812Z" fill="#FF5500"/>
<path opacity="0.61" d="M578.69 156.548L564.233 148.155V142.689L578.69 151.083V156.548Z" fill="#FF5500"/>
<path opacity="0.61" d="M592.366 164.356L582.598 158.695V153.23L592.366 158.89V164.356Z" fill="#FF5500"/>
<path opacity="0.61" d="M547.04 150.692L540.202 146.788V141.323L547.04 145.227V150.692Z" fill="#FF5500"/>
<path opacity="0.61" d="M559.935 158.11L550.948 152.839V147.374L559.935 152.644V158.11Z" fill="#FF5500"/>
<path opacity="0.61" d="M578.104 168.65L563.647 160.257V154.791L578.104 163.185V168.65Z" fill="#FF5500"/>
<path opacity="0.61" d="M561.107 171.383L540.202 159.281V153.815L561.107 165.918V171.383Z" fill="#FF5500"/>
<path opacity="0.61" d="M584.356 184.656L564.819 173.53V168.065L584.356 179.191V184.656Z" fill="#FF5500"/>
<path opacity="0.61" d="M594.32 190.512L588.264 186.999V181.533L594.32 185.047V190.512Z" fill="#FF5500"/>
<path opacity="0.61" d="M603.698 195.978L597.641 192.464V186.999L603.698 190.512V195.978Z" fill="#FF5500"/>
<path opacity="0.61" d="M552.706 178.996L540.202 171.773V166.308L552.706 173.53V178.996Z" fill="#FF5500"/>
<path opacity="0.61" d="M604.87 109.115L622.063 119.07V113.605L604.87 103.65V109.115Z" fill="#FF5500"/>
<path opacity="0.61" d="M608.582 123.755L622.063 131.563V126.097L608.582 118.289V123.755Z" fill="#FF5500"/>
<path opacity="0.61" d="M612.294 138.395L622.063 144.055V138.59L612.294 132.929V138.395Z" fill="#FF5500"/>
<path opacity="0.61" d="M607.801 148.35L622.063 156.548V151.082L607.801 142.884V148.35Z" fill="#FF5500"/>
<path opacity="0.61" d="M612.294 163.38L622.063 169.041V163.575L612.294 157.914V163.38Z" fill="#FF5500"/>
<path opacity="0.61" d="M609.755 174.311L622.063 181.533V176.068L609.755 168.845V174.311Z" fill="#FF5500"/>
<path opacity="0.61" d="M615.42 190.122L622.063 194.026V188.56L615.42 184.656V190.122Z" fill="#FF5500"/>
<path opacity="0.61" d="M608.973 198.906L622.063 206.518V201.053L608.973 193.44V198.906Z" fill="#FF5500"/>
<path opacity="0.61" d="M609.755 211.789L622.063 219.011V213.546L609.755 206.323V211.789Z" fill="#FF5500"/>
<path opacity="0.61" d="M561.889 184.266L556.613 181.143V175.677L561.889 178.801V184.266Z" fill="#FF5500"/>
<path opacity="0.61" d="M577.518 193.245L565.601 186.413V180.948L577.518 187.78V193.245Z" fill="#FF5500"/>
<path opacity="0.61" d="M468.501 143.275L443.689 128.83V123.365L468.501 137.809V143.275Z" fill="#FF5500"/>
<path opacity="0.61" d="M481.395 150.497L472.408 145.422V139.956L481.395 145.031V150.497Z" fill="#FF5500"/>
<path opacity="0.61" d="M491.164 156.353L485.107 152.839V147.374L491.164 150.887V156.353Z" fill="#FF5500"/>
<path opacity="0.61" d="M457.169 149.131L443.689 141.323V135.857L457.169 143.665V149.131Z" fill="#FF5500"/>
<path opacity="0.61" d="M477.683 160.842L461.077 151.278V145.812L477.683 155.377V160.842Z" fill="#FF5500"/>
<path opacity="0.61" d="M487.452 166.698L481.395 163.185V157.719L487.452 161.233V166.698Z" fill="#FF5500"/>
<path opacity="0.61" d="M497.025 172.164L490.969 168.65V163.185L497.025 166.698V172.164Z" fill="#FF5500"/>
<path opacity="0.61" d="M453.457 159.476L443.689 153.815V148.35L453.457 154.01V159.476Z" fill="#FF5500"/>
<path opacity="0.61" d="M460.686 163.575L457.169 161.623V156.158L460.686 158.11V163.575Z" fill="#FF5500"/>
<path opacity="0.61" d="M470.455 169.236L464.398 165.722V160.257L470.455 163.77V169.236Z" fill="#FF5500"/>
<path opacity="0.61" d="M479.832 187.194L443.689 166.308V160.842L479.832 181.728V187.194Z" fill="#FF5500"/>
<path opacity="0.61" d="M492.727 194.611L483.74 189.341V183.876L492.727 189.146V194.611Z" fill="#FF5500"/>
<path opacity="0.61" d="M453.457 184.461L443.689 178.801V173.335L453.457 178.996V184.461Z" fill="#FF5500"/>
<path opacity="0.61" d="M476.511 197.735L457.169 186.608V181.143L476.511 192.269V197.735Z" fill="#FF5500"/>
<path opacity="0.61" d="M486.475 203.395L480.223 199.882V194.416L486.475 197.93V203.395Z" fill="#FF5500"/>
<path opacity="0.61" d="M463.617 202.81L443.689 191.293V185.828L463.617 197.344V202.81Z" fill="#FF5500"/>
<path opacity="0.61" d="M481.982 213.546L467.524 205.152V199.687L481.982 208.08V213.546Z" fill="#FF5500"/>
<path opacity="0.61" d="M495.658 221.353L485.889 215.693V210.227L495.658 215.888V221.353Z" fill="#FF5500"/>
<path opacity="0.61" d="M450.331 207.69L443.689 203.786V198.32L450.331 202.224V207.69Z" fill="#FF5500"/>
<path opacity="0.61" d="M463.226 215.107L454.239 209.837V204.371L463.226 209.642V215.107Z" fill="#FF5500"/>
<path opacity="0.61" d="M481.395 225.648L466.938 217.254V211.789L481.395 220.182V225.648Z" fill="#FF5500"/>
<path opacity="0.61" d="M464.398 228.185L443.689 216.278V210.813L464.398 222.72V228.185Z" fill="#FF5500"/>
<path opacity="0.61" d="M487.647 241.654L468.306 230.528V225.062L487.647 236.188V241.654Z" fill="#FF5500"/>
<path opacity="0.61" d="M497.611 247.51L491.555 243.996V238.531L497.611 242.044V247.51Z" fill="#FF5500"/>
<path opacity="0.61" d="M507.185 252.975L500.933 249.462V243.996L507.185 247.51V252.975Z" fill="#FF5500"/>
<path opacity="0.61" d="M455.997 235.993L443.689 228.771V223.305L455.997 230.528V235.993Z" fill="#FF5500"/>
<path opacity="0.61" d="M508.161 166.113L525.549 176.068V170.602L508.161 160.647V166.113Z" fill="#FF5500"/>
<path opacity="0.61" d="M511.873 180.752L525.549 188.56V183.095L511.873 175.287V180.752Z" fill="#FF5500"/>
<path opacity="0.61" d="M515.586 195.392L525.549 201.053V195.587L515.586 189.927V195.392Z" fill="#FF5500"/>
<path opacity="0.61" d="M511.092 205.347L525.549 213.546V208.08L511.092 199.882V205.347Z" fill="#FF5500"/>
<path opacity="0.61" d="M515.586 220.378L525.549 226.038V220.573L515.586 214.912V220.378Z" fill="#FF5500"/>
<path opacity="0.61" d="M513.046 231.308L525.549 238.531V233.065L513.046 225.843V231.308Z" fill="#FF5500"/>
<path opacity="0.61" d="M518.711 247.12L525.549 251.024V245.558L518.711 241.654V247.12Z" fill="#FF5500"/>
<path opacity="0.61" d="M512.264 255.903L525.549 263.516V258.051L512.264 250.438V255.903Z" fill="#FF5500"/>
<path opacity="0.61" d="M513.046 268.786L525.549 276.009V270.543L513.046 263.321V268.786Z" fill="#FF5500"/>
<path opacity="0.61" d="M465.18 241.263L459.905 238.14V232.675L465.18 235.798V241.263Z" fill="#FF5500"/>
<path opacity="0.61" d="M481.005 250.243L468.892 243.411V237.945L481.005 244.777V250.243Z" fill="#FF5500"/>
<path opacity="0.61" d="M490.773 292.405L470.65 280.693V275.228L490.773 286.94V292.405Z" fill="#FF5500"/>
<path opacity="0.61" d="M504.645 300.213L496.634 295.723V290.258L504.645 294.747V300.213Z" fill="#FF5500"/>
<path opacity="0.61" d="M565.21 198.711L540.202 184.266V178.801L565.21 193.245V198.711Z" fill="#FF5500"/>
<path opacity="0.61" d="M577.909 206.128L568.922 200.858V195.392L577.909 200.663V206.128Z" fill="#FF5500"/>
<path opacity="0.61" d="M587.873 211.789L581.816 208.275V202.81L587.873 206.323V211.789Z" fill="#FF5500"/>
<path opacity="0.61" d="M553.878 204.762L540.202 196.759V191.293L553.878 199.296V204.762Z" fill="#FF5500"/>
<path opacity="0.61" d="M574.392 216.474L557.59 206.909V201.443L574.392 211.008V216.474Z" fill="#FF5500"/>
<path opacity="0.61" d="M584.161 222.134L578.104 218.621V213.155L584.161 216.669V222.134Z" fill="#FF5500"/>
<path opacity="0.61" d="M593.734 227.6L587.482 224.086V218.621L593.734 222.134V227.6Z" fill="#FF5500"/>
<path opacity="0.61" d="M550.166 215.107L540.202 209.251V203.786L550.166 209.446V215.107Z" fill="#FF5500"/>
<path opacity="0.61" d="M557.2 219.206L553.878 217.254V211.789L557.2 213.741V219.206Z" fill="#FF5500"/>
<path opacity="0.61" d="M567.164 224.867L561.107 221.353V215.888L567.164 219.401V224.867Z" fill="#FF5500"/>
<path opacity="0.61" d="M576.541 242.825L540.202 221.744V216.278L576.541 237.36V242.825Z" fill="#FF5500"/>
<path opacity="0.61" d="M589.241 250.047L580.253 244.972V239.507L589.241 244.582V250.047Z" fill="#FF5500"/>
<path opacity="0.61" d="M550.166 240.092L540.202 234.236V228.771L550.166 234.627V240.092Z" fill="#FF5500"/>
<path opacity="0.61" d="M573.22 253.366L553.878 242.24V236.774L573.22 247.9V253.366Z" fill="#FF5500"/>
<path opacity="0.61" d="M582.989 259.026L576.932 255.513V250.047L582.989 253.561V259.026Z" fill="#FF5500"/>
<path opacity="0.61" d="M560.326 258.441L540.202 246.729V241.264L560.326 252.975V258.441Z" fill="#FF5500"/>
<path opacity="0.61" d="M578.69 268.981L564.233 260.588V255.122L578.69 263.516V268.981Z" fill="#FF5500"/>
<path opacity="0.61" d="M592.366 276.789L582.598 271.129V265.663L592.366 271.324V276.789Z" fill="#FF5500"/>
<path opacity="0.61" d="M547.04 263.321L540.202 259.417V253.756L547.04 257.855V263.321Z" fill="#FF5500"/>
<path opacity="0.61" d="M559.935 270.543L550.948 265.468V260.002L559.935 265.078V270.543Z" fill="#FF5500"/>
<path opacity="0.61" d="M578.104 281.084L563.647 272.885V267.42L578.104 275.618V281.084Z" fill="#FF5500"/>
<path opacity="0.61" d="M561.107 283.817L540.202 271.91V266.249L561.107 278.351V283.817Z" fill="#FF5500"/>
<path opacity="0.61" d="M584.356 297.285L564.819 285.964V280.498L584.356 291.82V297.285Z" fill="#FF5500"/>
<path opacity="0.61" d="M594.32 302.946L588.264 299.432V293.967L594.32 297.48V302.946Z" fill="#FF5500"/>
<path opacity="0.61" d="M603.698 308.411L597.641 304.898V299.432L603.698 302.946V308.411Z" fill="#FF5500"/>
<path opacity="0.61" d="M552.706 291.429L540.202 284.402V278.937L552.706 285.964V291.429Z" fill="#FF5500"/>
<path opacity="0.61" d="M604.87 221.549L622.063 231.504V226.038L604.87 216.083V221.549Z" fill="#FF5500"/>
<path opacity="0.61" d="M608.582 236.188L622.063 243.996V238.531L608.582 230.723V236.188Z" fill="#FF5500"/>
<path opacity="0.61" d="M612.294 250.828L622.063 256.489V251.023L612.294 245.363V250.828Z" fill="#FF5500"/>
<path opacity="0.61" d="M607.801 260.783L622.063 268.982V263.516L607.801 255.318V260.783Z" fill="#FF5500"/>
<path opacity="0.61" d="M612.294 275.813L622.063 281.474V276.009L612.294 270.348V275.813Z" fill="#FF5500"/>
<path opacity="0.61" d="M609.755 286.94L622.063 293.967V288.501L609.755 281.474V286.94Z" fill="#FF5500"/>
<path opacity="0.61" d="M615.42 302.555L622.063 306.459V300.994L615.42 297.09V302.555Z" fill="#FF5500"/>
<path opacity="0.61" d="M608.973 311.534L622.063 318.952V313.486L608.973 306.069V311.534Z" fill="#FF5500"/>
<path opacity="0.61" d="M609.755 324.417L622.063 331.445V325.979L609.755 318.952V324.417Z" fill="#FF5500"/>
<path opacity="0.61" d="M561.889 296.699L556.613 293.771V288.306L561.889 291.234V296.699Z" fill="#FF5500"/>
<path opacity="0.61" d="M577.518 305.874L565.601 299.042V293.576L577.518 300.408V305.874Z" fill="#FF5500"/>
<path opacity="0.61" d="M587.482 347.841L567.359 336.325V330.859L587.482 342.376V347.841Z" fill="#FF5500"/>
<path opacity="0.61" d="M601.158 355.844L593.343 351.159V345.694L601.158 350.379V355.844Z" fill="#FF5500"/>
</g>
<path d="M320.8 470.62C318.26 470.62 315.916 470.035 313.962 469.059L240.112 426.506C238.158 425.334 236.986 423.773 236.986 422.016C236.986 419.869 238.549 417.917 241.088 416.355L279.186 394.493C283.875 391.76 290.713 391.565 294.816 393.908L368.666 436.461C370.62 437.632 371.792 439.193 371.792 440.95C371.792 443.097 370.229 445.049 367.689 446.611L329.396 468.473C326.857 470.035 323.731 470.62 320.8 470.62ZM287.782 394.298C285.047 394.298 282.312 394.884 280.163 396.25L242.065 418.112C240.112 419.283 239.135 420.65 239.135 421.821C239.135 423.187 240.112 423.968 241.088 424.554L314.939 467.302C318.26 469.254 324.512 469.059 328.42 466.716L366.517 444.854C368.471 443.683 369.448 442.317 369.448 441.145C369.448 439.779 368.471 438.998 367.494 438.413L293.643 395.86C292.08 394.688 289.931 394.298 287.782 394.298Z" fill="#999999"/>
<path d="M678.721 332.42L667.389 325.784C666.412 325.198 665.826 323.637 666.217 322.465C666.608 321.294 667.78 320.709 668.757 321.489L680.088 328.126C681.065 328.712 681.651 330.273 681.26 331.444C680.87 332.616 679.697 333.006 678.721 332.42Z" fill="#999999"/>
<path d="M705.877 348.036L689.075 338.276C688.098 337.691 687.512 336.129 687.903 334.958C688.294 333.787 689.466 333.201 690.443 333.982L707.245 343.742C708.222 344.327 708.808 345.889 708.417 347.06C708.026 348.231 706.854 348.817 705.877 348.036Z" fill="#999999"/>
<path d="M655.667 383.172L644.335 376.535C643.358 375.949 642.772 374.388 643.163 373.217C643.554 372.045 644.726 371.46 645.703 372.241L657.034 378.877C658.011 379.463 658.597 381.025 658.207 382.196C657.816 383.367 656.644 383.757 655.667 383.172Z" fill="#999999"/>
<path d="M679.893 397.226L663.091 387.466C662.114 386.88 661.528 385.319 661.919 384.148C662.31 382.976 663.482 382.391 664.459 383.172L681.261 392.932C682.237 393.517 682.823 395.079 682.433 396.25C682.042 397.226 680.87 397.811 679.893 397.226Z" fill="#999999"/>
<path d="M644.531 323.441L637.497 319.342C636.52 318.757 635.934 317.195 636.325 316.024C636.716 314.853 637.888 314.267 638.865 315.048L645.898 319.147C646.875 319.733 647.461 321.294 647.071 322.465C646.68 323.441 645.508 324.027 644.531 323.441Z" fill="#999999"/>
<path d="M666.022 346.475L644.335 333.982C643.358 333.396 642.772 331.835 643.163 330.664C643.554 329.492 644.726 328.907 645.703 329.688L667.389 342.18C668.366 342.766 668.952 344.327 668.561 345.499C668.171 346.67 666.998 347.06 666.022 346.475Z" fill="#999999"/>
<path d="M645.898 356.235L638.865 352.135C637.888 351.55 637.302 349.988 637.693 348.817C638.083 347.646 639.256 347.06 640.232 347.841L647.266 351.94C648.243 352.526 648.829 354.087 648.438 355.259C648.047 356.235 646.875 356.82 645.898 356.235Z" fill="#999999"/>
<path d="M682.433 420.064L663.482 409.133C662.505 408.547 661.919 406.986 662.309 405.815C662.7 404.643 663.872 404.058 664.849 404.839L683.8 415.77C684.777 416.355 685.363 417.917 684.973 419.088C684.777 420.064 683.605 420.65 682.433 420.064Z" fill="#999999"/>
<path d="M637.888 373.021L633.394 370.289C632.418 369.703 631.831 368.141 632.222 366.97C632.613 365.799 633.785 365.214 634.762 365.994L639.256 368.727C640.232 369.313 640.818 370.874 640.428 372.045C640.037 373.021 638.865 373.607 637.888 373.021Z" fill="#999999"/>
<path d="M633.59 391.76L627.924 388.442C626.947 387.856 626.361 386.295 626.752 385.124C627.143 383.952 628.315 383.367 629.292 384.148L634.957 387.466C635.934 388.052 636.52 389.613 636.13 390.784C635.739 391.956 634.567 392.346 633.59 391.76Z" fill="#999999"/>
<path d="M655.667 404.448L640.623 395.859C639.646 395.274 639.06 393.712 639.451 392.541C639.842 391.37 641.014 390.784 641.991 391.565L657.034 400.154C658.011 400.739 658.597 402.301 658.207 403.472C657.816 404.643 656.644 405.229 655.667 404.448Z" fill="#999999"/>
<path d="M635.934 403.862L625.189 397.616C624.212 397.031 623.626 395.469 624.017 394.298C624.407 393.127 625.58 392.541 626.557 393.322L637.302 399.568C638.279 400.154 638.865 401.715 638.474 402.886C638.083 403.862 636.911 404.448 635.934 403.862Z" fill="#999999"/>
<path d="M698.844 429.433L692.006 425.529C691.029 424.944 690.443 423.382 690.834 422.211C691.224 421.04 692.397 420.454 693.373 421.235L700.211 425.139C701.188 425.725 701.774 427.286 701.384 428.457C700.993 429.629 699.821 430.019 698.844 429.433Z" fill="#999999"/>
<path d="M672.469 371.46L653.518 360.529C652.541 359.943 651.955 358.382 652.345 357.21C652.736 356.039 653.908 355.454 654.885 356.234L673.836 367.165C674.813 367.751 675.399 369.313 675.009 370.484C674.618 371.655 673.446 372.045 672.469 371.46Z" fill="#999999"/>
<path d="M674.618 362.09L641.405 342.961C640.428 342.376 639.842 340.814 640.232 339.643C640.623 338.472 641.795 337.886 642.772 338.667L675.985 357.796C676.962 358.382 677.548 359.943 677.158 361.114C676.767 362.286 675.79 362.676 674.618 362.09Z" fill="#999999"/>
<path d="M655.081 372.241L636.13 361.31C635.153 360.724 634.567 359.162 634.957 357.991C635.348 356.82 636.52 356.235 637.497 357.015L656.448 367.946C657.425 368.532 658.011 370.094 657.62 371.265C657.23 372.241 656.057 372.826 655.081 372.241Z" fill="#999999"/>
<path d="M686.731 379.853L679.893 375.949C678.916 375.364 678.33 373.802 678.721 372.631C679.111 371.46 680.284 370.874 681.26 371.655L688.098 375.559C689.075 376.145 689.661 377.706 689.271 378.877C689.075 380.049 687.903 380.439 686.731 379.853Z" fill="#999999"/>
<path d="M757.26 377.706L716.232 354.087C715.255 353.502 714.669 351.94 715.06 350.769C715.45 349.598 716.623 349.012 717.6 349.793L758.627 373.412C759.604 373.997 760.19 375.559 759.8 376.73C759.409 377.901 758.237 378.292 757.26 377.706Z" fill="#999999"/>
<path d="M653.518 392.541L630.659 379.268C629.682 378.682 629.096 377.121 629.487 375.949C629.878 374.778 631.05 374.193 632.027 374.973L654.885 388.247C655.862 388.832 656.448 390.394 656.057 391.565C655.667 392.736 654.495 393.127 653.518 392.541Z" fill="#999999"/>
<path d="M656.839 319.928L640.037 310.168C639.06 309.582 638.474 308.021 638.865 306.85C639.256 305.679 640.428 305.093 641.405 305.874L658.207 315.634C659.183 316.219 659.77 317.781 659.379 318.952C659.183 319.928 658.011 320.513 656.839 319.928Z" fill="#999999"/>
<path d="M632.418 412.451L612.88 401.13C611.904 400.544 611.317 398.983 611.708 397.811C612.099 396.64 613.271 396.055 614.248 396.835L633.785 408.157C634.762 408.743 635.348 410.304 634.957 411.475C634.567 412.646 633.394 413.037 632.418 412.451Z" fill="#999999"/>
<path opacity="0.38" d="M208.266 341.204C202.991 341.204 197.716 339.838 193.027 337.105L137.151 304.898C134.806 303.531 133.243 300.994 133.243 298.261C133.243 295.528 134.611 292.991 137.151 291.624L193.027 259.417C202.405 253.951 214.127 253.951 223.505 259.417L279.381 291.624C281.726 292.991 283.289 295.528 283.289 298.261C283.289 300.994 281.921 303.531 279.381 304.898L223.505 337.105C218.816 339.838 213.541 341.204 208.266 341.204ZM194.785 333.982C202.991 338.862 213.346 338.862 221.747 333.982L277.623 301.775C278.99 300.994 279.577 299.628 279.577 298.261C279.577 296.7 278.795 295.528 277.623 294.748L221.747 262.54C213.541 257.66 203.186 257.66 194.785 262.54L138.909 294.748C137.541 295.528 136.955 296.895 136.955 298.261C136.955 299.823 137.737 300.994 138.909 301.775L194.785 333.982Z" fill="#FF6B00"/>
<path opacity="0.07" d="M208.071 320.904C229.219 320.904 246.364 311.029 246.364 298.847C246.364 286.665 229.219 276.789 208.071 276.789C186.922 276.789 169.778 286.665 169.778 298.847C169.778 311.029 186.922 320.904 208.071 320.904Z" fill="black"/>
<path d="M264.924 141.128H155.516L165.675 259.417C165.675 266.054 169.973 272.495 178.765 277.57C196.153 287.525 224.287 287.525 241.675 277.57C250.271 272.495 254.765 266.054 254.765 259.417L264.924 141.128Z" fill="url(#paint16_linear)"/>
<path opacity="0.4" d="M264.924 141.128H155.516L157.274 160.647C159.814 163.77 163.135 166.894 167.433 169.822C188.338 183.485 222.724 186.218 246.168 176.263L242.456 262.735C242.261 266.444 241.089 270.153 238.549 273.081C235.032 277.18 228.194 282.06 215.104 284.988C224.677 284.402 234.055 281.865 241.479 277.57C250.076 272.495 254.569 266.054 254.569 259.417L262.775 164.551L264.924 141.128Z" fill="#06033E"/>
<path opacity="0.4" d="M210.22 172.554C240.432 172.554 264.924 158.484 264.924 141.128C264.924 123.771 240.432 109.701 210.22 109.701C180.008 109.701 155.516 123.771 155.516 141.128C155.516 158.484 180.008 172.554 210.22 172.554Z" fill="#06033E"/>
<path opacity="0.4" d="M210.22 157.134C236.224 157.134 257.304 144.986 257.304 130.001C257.304 115.016 236.224 102.869 210.22 102.869C184.216 102.869 163.135 115.016 163.135 130.001C163.135 144.986 184.216 157.134 210.22 157.134Z" fill="#06033E"/>
<path d="M268.05 139.761C268.05 139.566 268.05 139.566 268.05 139.566L267.073 129.025V129.22C266.682 121.217 261.016 113.214 250.466 107.163C228.194 94.2802 192.246 94.2802 170.169 107.163C159.228 113.41 153.757 121.608 153.562 129.806L152.39 138.98C152.39 139.176 152.39 139.566 152.39 139.761V139.956C151.804 148.935 157.47 158.11 169.387 164.942C192.05 178.02 228.78 178.02 251.248 164.942C263.166 157.914 268.831 148.74 268.05 139.761Z" fill="url(#paint17_linear)"/>
<path d="M210.22 157.134C236.224 157.134 257.304 144.986 257.304 130.001C257.304 115.016 236.224 102.869 210.22 102.869C184.216 102.869 163.135 115.016 163.135 130.001C163.135 144.986 184.216 157.134 210.22 157.134Z" fill="url(#paint18_linear)"/>
<path d="M208.071 157.134C234.075 157.134 255.155 144.986 255.155 130.001C255.155 115.016 234.075 102.869 208.071 102.869C182.067 102.869 160.986 115.016 160.986 130.001C160.986 144.986 182.067 157.134 208.071 157.134Z" fill="url(#paint19_linear)"/>
<path opacity="0.4" d="M182.477 114.971C200.842 104.431 230.734 104.431 249.099 114.971C249.294 115.166 249.489 115.166 249.685 115.362C247.926 113.8 245.777 112.238 243.433 110.872C225.068 100.331 195.176 100.331 176.811 110.872C158.642 121.413 158.446 138.2 176.225 148.935C164.503 138.395 166.652 124.145 182.477 114.971Z" fill="#06033E"/>
<path d="M177.007 115.557C195.372 105.016 225.264 105.016 243.628 115.557C251.834 120.241 256.328 126.293 257.304 132.344C258.477 124.536 253.983 116.728 243.628 110.872C225.264 100.331 195.372 100.331 177.007 110.872C166.847 116.728 162.159 124.731 163.331 132.344C164.308 126.293 168.801 120.241 177.007 115.557Z" fill="url(#paint20_linear)"/>
<path d="M250.857 107.163C228.585 94.085 192.441 93.6946 170.169 106.382C147.896 119.07 147.701 139.761 169.778 152.839C191.855 165.918 227.999 166.113 250.466 153.62C272.739 140.932 272.934 120.241 250.857 107.163ZM243.433 149.326C237.377 152.839 229.952 155.182 221.942 156.353L221.161 153.62C220.77 152.449 219.793 151.668 218.621 151.668H201.624C200.451 151.668 199.474 152.449 199.084 153.62L198.302 156.353C190.487 155.182 183.063 152.839 176.811 149.326C158.446 138.785 158.446 121.608 176.811 110.872C195.176 100.331 225.068 100.331 243.433 110.872C261.993 121.413 261.993 138.59 243.433 149.326Z" fill="url(#paint21_linear)"/>
<path d="M243.433 108.92C225.068 98.3794 195.176 98.3794 176.811 108.92C167.238 114.386 162.549 121.803 163.135 129.025C163.526 122.389 168.215 115.947 176.811 110.872C195.176 100.331 225.068 100.331 243.433 110.872C252.225 115.947 256.718 122.389 257.109 129.025C257.695 121.803 253.202 114.386 243.433 108.92Z" fill="white"/>
<path d="M250.271 151.668C227.803 164.356 191.855 163.966 169.583 150.887C159.033 144.641 153.562 136.638 153.171 128.635C152.781 137.224 158.251 146.203 169.583 152.839C191.66 165.918 227.803 166.113 250.271 153.62C261.993 146.983 267.659 138.2 267.073 129.22C266.878 137.419 261.212 145.617 250.271 151.668Z" fill="white"/>
<path d="M215.299 157.719H205.14C204.359 157.719 203.773 157.134 203.773 156.353V156.158C203.773 155.377 204.359 154.791 205.14 154.791H215.299C216.081 154.791 216.667 155.377 216.667 156.158V156.353C216.472 157.134 216.081 157.719 215.299 157.719Z" fill="url(#paint22_linear)"/>
<path d="M215.299 154.987H205.14C204.359 154.987 203.773 155.572 203.773 156.353V156.548C203.773 156.743 203.773 156.743 203.773 156.939C203.968 156.353 204.359 155.963 204.945 155.963H215.104C215.69 155.963 216.081 156.353 216.276 156.939C216.276 156.743 216.276 156.743 216.276 156.548V156.353C216.472 155.572 216.081 154.987 215.299 154.987Z" fill="#999999"/>
<path opacity="0.5" d="M213.736 156.353C213.736 156.353 244.214 146.203 231.906 111.067C219.598 75.9316 195.371 65.391 205.14 37.2826C205.14 37.2826 189.901 59.9255 204.163 90.7666C218.425 121.413 221.551 117.899 221.356 132.734C221.16 150.106 207.094 156.548 207.094 156.548H213.736V156.353Z" fill="white"/>
<path opacity="0.5" d="M216.472 42.1626C216.472 42.1626 213.346 21.0813 233.078 0C233.078 0 215.69 38.8442 221.356 58.1687C221.356 58.1687 216.667 45.8713 216.472 42.1626Z" fill="white"/>
</g>
<defs>
<linearGradient id="paint0_linear" x1="645.484" y1="405.811" x2="645.484" y2="68.8939" gradientUnits="userSpaceOnUse">
<stop stop-color="#E65E2E"/>
<stop offset="0.1493" stop-color="#E66132" stop-opacity="0.9253"/>
<stop offset="0.2896" stop-color="#E7693D" stop-opacity="0.8552"/>
<stop offset="0.4264" stop-color="#E77650" stop-opacity="0.7868"/>
<stop offset="0.5609" stop-color="#E9896B" stop-opacity="0.7196"/>
<stop offset="0.6938" stop-color="#EAA18D" stop-opacity="0.6531"/>
<stop offset="0.8255" stop-color="#ECBEB7" stop-opacity="0.5872"/>
<stop offset="0.954" stop-color="#EEE0E9" stop-opacity="0.523"/>
<stop offset="1" stop-color="#EFEEFC" stop-opacity="0.5"/>
</linearGradient>
<linearGradient id="paint1_linear" x1="599.171" y1="402.863" x2="599.171" y2="65.9464" gradientUnits="userSpaceOnUse">
<stop stop-color="#E65E2E"/>
<stop offset="0.1493" stop-color="#E66132" stop-opacity="0.9253"/>
<stop offset="0.2896" stop-color="#E7693D" stop-opacity="0.8552"/>
<stop offset="0.4264" stop-color="#E77650" stop-opacity="0.7868"/>
<stop offset="0.5609" stop-color="#E9896B" stop-opacity="0.7196"/>
<stop offset="0.6938" stop-color="#EAA18D" stop-opacity="0.6531"/>
<stop offset="0.8255" stop-color="#ECBEB7" stop-opacity="0.5872"/>
<stop offset="0.954" stop-color="#EEE0E9" stop-opacity="0.523"/>
<stop offset="1" stop-color="#EFEEFC" stop-opacity="0.5"/>
</linearGradient>
<linearGradient id="paint2_linear" x1="370.425" y1="249.244" x2="732.047" y2="249.244" gradientUnits="userSpaceOnUse">
<stop stop-color="#C8C8C8"/>
<stop offset="0.2038" stop-color="#CCCCCC"/>
<stop offset="0.3938" stop-color="#D7D7D7"/>
<stop offset="0.5202" stop-color="#E3E3E3"/>
<stop offset="0.8152" stop-color="#F3F3F3"/>
<stop offset="1" stop-color="white"/>
</linearGradient>
<linearGradient id="paint3_linear" x1="168.183" y1="418.951" x2="654.213" y2="418.951" gradientUnits="userSpaceOnUse">
<stop stop-color="#C8C8C8"/>
<stop offset="0.2038" stop-color="#CCCCCC"/>
<stop offset="0.3938" stop-color="#D7D7D7"/>
<stop offset="0.5202" stop-color="#E3E3E3"/>
<stop offset="0.8152" stop-color="#F3F3F3"/>
<stop offset="1" stop-color="white"/>
</linearGradient>
<linearGradient id="paint4_linear" x1="168.229" y1="474.385" x2="654.175" y2="474.385" gradientUnits="userSpaceOnUse">
<stop stop-color="#ADADAD"/>
<stop offset="0.0116217" stop-color="#B3B3B3"/>
<stop offset="0.0263999" stop-color="#C3C3C3"/>
<stop offset="0.030303" stop-color="#C8C8C8"/>
<stop offset="0.0545798" stop-color="#C6C6C6"/>
<stop offset="0.0633146" stop-color="#BFBFBF"/>
<stop offset="0.0695286" stop-color="#B4B4B4"/>
<stop offset="0.0707071" stop-color="#B0B0B0"/>
<stop offset="0.0917431" stop-color="#BABABA"/>
<stop offset="0.1277" stop-color="#D5D5D5"/>
<stop offset="0.1717" stop-color="white"/>
<stop offset="0.2044" stop-color="#F5F5F5"/>
<stop offset="0.2591" stop-color="#DBDBDB"/>
<stop offset="0.303" stop-color="#C2C2C2"/>
<stop offset="0.3788" stop-color="#A8A8A8"/>
<stop offset="0.4706" stop-color="#909090"/>
<stop offset="0.5555" stop-color="#828282"/>
<stop offset="0.6263" stop-color="#7D7D7D"/>
<stop offset="0.6497" stop-color="#7E7E7E"/>
<stop offset="0.6581" stop-color="#858585"/>
<stop offset="0.6641" stop-color="#919191"/>
<stop offset="0.6667" stop-color="#999999"/>
<stop offset="0.7778" stop-color="#D8D8D8"/>
<stop offset="0.789" stop-color="#D2D2D2"/>
<stop offset="0.8502" stop-color="#B3B3B3"/>
<stop offset="0.9025" stop-color="#A1A1A1"/>
<stop offset="0.9394" stop-color="#9A9A9A"/>
<stop offset="0.9646" stop-color="#9D9D9D"/>
<stop offset="0.9812" stop-color="#A6A6A6"/>
<stop offset="0.9848" stop-color="#A9A9A9"/>
</linearGradient>
<linearGradient id="paint5_linear" x1="365.636" y1="250.284" x2="727.257" y2="250.284" gradientUnits="userSpaceOnUse">
<stop stop-color="#C8C8C8"/>
<stop offset="0.3938" stop-color="#D7D7D7"/>
<stop offset="0.537" stop-color="#E3E3E3"/>
<stop offset="1" stop-color="#CACACA"/>
</linearGradient>
<linearGradient id="paint6_linear" x1="371.676" y1="250.37" x2="721.325" y2="250.37" gradientUnits="userSpaceOnUse">
<stop stop-color="#3919BB"/>
<stop offset="1" stop-color="#6507FA"/>
</linearGradient>
<linearGradient id="paint7_linear" x1="371.676" y1="250.37" x2="721.325" y2="250.37" gradientUnits="userSpaceOnUse">
<stop stop-color="#CCCCCC"/>
<stop offset="0.8239" stop-color="#CCCCCC"/>
</linearGradient>
<linearGradient id="paint8_linear" x1="275.85" y1="348.959" x2="678.682" y2="177.975" gradientUnits="userSpaceOnUse">
<stop stop-color="#C8C8C8"/>
<stop offset="0.2038" stop-color="#CCCCCC"/>
<stop offset="0.3938" stop-color="#D7D7D7"/>
<stop offset="0.5202" stop-color="#E3E3E3"/>
<stop offset="0.8152" stop-color="#F3F3F3"/>
<stop offset="1" stop-color="white"/>
</linearGradient>
<linearGradient id="paint9_linear" x1="766.199" y1="174.489" x2="147.021" y2="376.004" gradientUnits="userSpaceOnUse">
<stop stop-color="#C8C8C8"/>
<stop offset="0.2038" stop-color="#CCCCCC"/>
<stop offset="0.3938" stop-color="#D7D7D7"/>
<stop offset="0.5202" stop-color="#E3E3E3"/>
<stop offset="0.8152" stop-color="#F3F3F3"/>
<stop offset="1" stop-color="white"/>
</linearGradient>
<linearGradient id="paint10_linear" x1="753.572" y1="135.689" x2="134.393" y2="337.204" gradientUnits="userSpaceOnUse">
<stop stop-color="#C8C8C8"/>
<stop offset="0.2038" stop-color="#CCCCCC"/>
<stop offset="0.3938" stop-color="#D7D7D7"/>
<stop offset="0.5202" stop-color="#E3E3E3"/>
<stop offset="0.8152" stop-color="#F3F3F3"/>
<stop offset="1" stop-color="white"/>
</linearGradient>
<linearGradient id="paint11_linear" x1="754.269" y1="137.829" x2="135.09" y2="339.345" gradientUnits="userSpaceOnUse">
<stop stop-color="#C8C8C8"/>
<stop offset="0.2038" stop-color="#CCCCCC"/>
<stop offset="0.3938" stop-color="#D7D7D7"/>
<stop offset="0.5202" stop-color="#E3E3E3"/>
<stop offset="0.8152" stop-color="#F3F3F3"/>
<stop offset="1" stop-color="white"/>
</linearGradient>
<linearGradient id="paint12_linear" x1="776.376" y1="205.758" x2="157.198" y2="407.273" gradientUnits="userSpaceOnUse">
<stop stop-color="#C8C8C8"/>
<stop offset="0.2038" stop-color="#CCCCCC"/>
<stop offset="0.3938" stop-color="#D7D7D7"/>
<stop offset="0.5202" stop-color="#E3E3E3"/>
<stop offset="0.8152" stop-color="#F3F3F3"/>
<stop offset="1" stop-color="white"/>
</linearGradient>
<linearGradient id="paint13_linear" x1="777.847" y1="210.275" x2="158.668" y2="411.79" gradientUnits="userSpaceOnUse">
<stop stop-color="#C8C8C8"/>
<stop offset="0.2038" stop-color="#CCCCCC"/>
<stop offset="0.3938" stop-color="#D7D7D7"/>
<stop offset="0.5202" stop-color="#E3E3E3"/>
<stop offset="0.8152" stop-color="#F3F3F3"/>
<stop offset="1" stop-color="white"/>
</linearGradient>
<linearGradient id="paint14_linear" x1="779.836" y1="216.389" x2="160.658" y2="417.904" gradientUnits="userSpaceOnUse">
<stop stop-color="#C8C8C8"/>
<stop offset="0.2038" stop-color="#CCCCCC"/>
<stop offset="0.3938" stop-color="#D7D7D7"/>
<stop offset="0.5202" stop-color="#E3E3E3"/>
<stop offset="0.8152" stop-color="#F3F3F3"/>
<stop offset="1" stop-color="white"/>
</linearGradient>
<linearGradient id="paint15_linear" x1="781.826" y1="222.503" x2="162.647" y2="424.018" gradientUnits="userSpaceOnUse">
<stop stop-color="#C8C8C8"/>
<stop offset="0.2038" stop-color="#CCCCCC"/>
<stop offset="0.3938" stop-color="#D7D7D7"/>
<stop offset="0.5202" stop-color="#E3E3E3"/>
<stop offset="0.8152" stop-color="#F3F3F3"/>
<stop offset="1" stop-color="white"/>
</linearGradient>
<linearGradient id="paint16_linear" x1="155.594" y1="213.103" x2="264.889" y2="213.103" gradientUnits="userSpaceOnUse">
<stop stop-color="#C8C8C8"/>
<stop offset="0.2038" stop-color="#CCCCCC"/>
<stop offset="0.3938" stop-color="#D7D7D7"/>
<stop offset="0.5202" stop-color="#E3E3E3"/>
<stop offset="0.8152" stop-color="#F3F3F3"/>
<stop offset="1" stop-color="white"/>
</linearGradient>
<linearGradient id="paint17_linear" x1="152.307" y1="135.93" x2="268.181" y2="135.93" gradientUnits="userSpaceOnUse">
<stop offset="0.00615385" stop-color="#FF6B00"/>
<stop offset="1" stop-color="#FF8730"/>
</linearGradient>
<linearGradient id="paint18_linear" x1="163.172" y1="130.048" x2="257.31" y2="130.048" gradientUnits="userSpaceOnUse">
<stop offset="0.00615385" stop-color="#FF6B00"/>
<stop offset="1" stop-color="#FF8730"/>
</linearGradient>
<linearGradient id="paint19_linear" x1="160.939" y1="130.048" x2="255.077" y2="130.048" gradientUnits="userSpaceOnUse">
<stop offset="0.00615385" stop-color="#FF6B00"/>
<stop offset="1" stop-color="#FF8730"/>
</linearGradient>
<linearGradient id="paint20_linear" x1="163.18" y1="117.651" x2="281.872" y2="117.651" gradientUnits="userSpaceOnUse">
<stop stop-color="#FF6B00"/>
<stop offset="0.0506829" stop-color="#FF740F"/>
<stop offset="0.1489" stop-color="#FF8C38"/>
<stop offset="0.2727" stop-color="#FFAE73"/>
<stop offset="0.7525" stop-color="#FF6B00"/>
<stop offset="0.8939" stop-color="#FF8F3D"/>
<stop offset="1" stop-color="#FF6B00"/>
</linearGradient>
<linearGradient id="paint21_linear" x1="153.217" y1="130.048" x2="267.265" y2="130.048" gradientUnits="userSpaceOnUse">
<stop stop-color="#FF6B00"/>
<stop offset="0.1489" stop-color="#FF8C38"/>
<stop offset="0.2727" stop-color="#FFAE73"/>
<stop offset="0.8939" stop-color="#FF8F3D"/>
<stop offset="1" stop-color="#FF6B00"/>
</linearGradient>
<linearGradient id="paint22_linear" x1="203.913" y1="156.392" x2="216.569" y2="156.392" gradientUnits="userSpaceOnUse">
<stop stop-color="#383838"/>
<stop offset="0.9274" stop-color="#2B2B2B"/>
</linearGradient>
<clipPath id="clip0">
<rect width="802" height="634" fill="white"/>
</clipPath>
</defs>
</svg>
