<svg xmlns="http://www.w3.org/2000/svg" width="64" height="58" fill="none" xmlns:v="https://vecta.io/nano"><g fill="#ff6b00"><path d="M24.76 45.652H10.136A1.45 1.45 0 0 0 8.688 47.1a1.45 1.45 0 0 0 1.448 1.448H24.76a1.45 1.45 0 0 0 1.448-1.448 1.45 1.45 0 0 0-1.448-1.448zm21.864 0H32a1.45 1.45 0 0 0-1.448 1.448A1.45 1.45 0 0 0 32 48.548h14.624a1.45 1.45 0 0 0 1.448-1.448 1.45 1.45 0 0 0-1.448-1.448zm0-36.2H10.136A1.45 1.45 0 0 0 8.688 10.9a1.45 1.45 0 0 0 1.448 1.448h36.489a1.45 1.45 0 0 0 1.448-1.448 1.45 1.45 0 0 0-1.448-1.448zm0 7.24H32a1.45 1.45 0 0 0-1.448 1.448A1.45 1.45 0 0 0 32 19.588h14.624a1.45 1.45 0 0 0 1.448-1.448 1.45 1.45 0 0 0-1.448-1.448z"/><path d="M46.624 23.932H32a1.45 1.45 0 0 0-1.448 1.448A1.45 1.45 0 0 0 32 26.828h14.624a1.45 1.45 0 0 0 1.448-1.448 1.45 1.45 0 0 0-1.448-1.448zm0 7.24H32a1.45 1.45 0 0 0-1.448 1.448A1.45 1.45 0 0 0 32 34.068h14.624a1.45 1.45 0 0 0 1.448-1.448 1.45 1.45 0 0 0-1.448-1.448zm0 7.24H32a1.45 1.45 0 0 0-1.448 1.448A1.45 1.45 0 0 0 32 41.308h14.624a1.45 1.45 0 0 0 1.448-1.448 1.45 1.45 0 0 0-1.448-1.448zm-21.864 0H10.136a1.45 1.45 0 0 0-1.448 1.448 1.45 1.45 0 0 0 1.448 1.448H24.76a1.45 1.45 0 0 0 1.448-1.448 1.45 1.45 0 0 0-1.448-1.448z"/><path d="M24.76 16.692H10.136a1.45 1.45 0 0 0-1.448 1.448v14.624a1.45 1.45 0 0 0 1.448 1.448H24.76a1.45 1.45 0 0 0 1.448-1.448V18.14a1.45 1.45 0 0 0-1.448-1.448zm-1.448 14.625H11.584V19.588h11.729v11.729z"/></g><path d="M61.104 8.004H56.76V3.661A2.9 2.9 0 0 0 53.864.765H2.896A2.9 2.9 0 0 0 0 3.661v46.335a7.25 7.25 0 0 0 7.24 7.24h49.52a7.25 7.25 0 0 0 7.24-7.24V10.9a2.9 2.9 0 0 0-2.896-2.896zm0 41.991a4.35 4.35 0 0 1-4.344 4.344H7.24a4.35 4.35 0 0 1-4.344-4.344V3.661h50.968v44.163c0 1.996 1.624 3.62 3.62 3.62a1.45 1.45 0 0 0 1.448-1.448 1.45 1.45 0 0 0-1.448-1.448c-.399 0-.724-.325-.724-.724V10.9h4.344v39.095z" fill="#7f8284"/></svg>