<svg xmlns="http://www.w3.org/2000/svg" width="72" height="72" fill="none" xmlns:v="https://vecta.io/nano"><path d="M69.75 28.125A12.39 12.39 0 0 1 57.375 15.75c0-.298-.118-.585-.33-.796s-.497-.329-.795-.329-.584.118-.795.329-.33.497-.33.796A12.39 12.39 0 0 1 42.75 28.125a1.13 1.13 0 0 0-.795.329c-.211.21-.33.497-.33.796s.118.584.33.796a1.12 1.12 0 0 0 .795.329A12.39 12.39 0 0 1 55.125 42.75a1.12 1.12 0 0 0 .33.795c.212.211.497.33.795.33a1.12 1.12 0 0 0 .795-.33c.211-.212.33-.497.33-.795A12.39 12.39 0 0 1 69.75 30.375a1.13 1.13 0 0 0 .796-.329c.211-.21.329-.497.329-.796s-.118-.584-.329-.796a1.12 1.12 0 0 0-.796-.329zm-27 27A12.39 12.39 0 0 1 30.375 42.75a1.13 1.13 0 0 0-.329-.795c-.21-.211-.497-.33-.796-.33s-.584.118-.796.33a1.12 1.12 0 0 0-.329.795A12.39 12.39 0 0 1 15.75 55.125c-.298 0-.585.118-.796.33s-.329.497-.329.795.118.584.329.795.497.33.796.33A12.39 12.39 0 0 1 28.125 69.75a1.13 1.13 0 0 0 .329.796c.21.211.497.329.796.329s.584-.118.796-.329a1.12 1.12 0 0 0 .329-.796A12.39 12.39 0 0 1 42.75 57.375a1.12 1.12 0 0 0 .795-.33c.211-.212.33-.497.33-.795a1.12 1.12 0 0 0-.33-.795c-.212-.211-.497-.33-.795-.33zm27 5.625a6.76 6.76 0 0 1-4.771-1.979C63.713 57.506 63.002 55.79 63 54a1.12 1.12 0 0 0-.33-.795c-.212-.211-.497-.33-.795-.33a1.12 1.12 0 0 0-.795.33c-.211.212-.33.497-.33.795a6.76 6.76 0 0 1-1.979 4.771C57.506 60.037 55.79 60.748 54 60.75a1.12 1.12 0 0 0-.795.33c-.211.212-.33.497-.33.795a1.12 1.12 0 0 0 .33.795c.212.211.497.33.795.33a6.76 6.76 0 0 1 4.771 1.979c1.266 1.265 1.977 2.981 1.979 4.771 0 .298.118.585.33.796s.497.329.795.329.584-.118.795-.329.33-.497.33-.796a6.76 6.76 0 0 1 1.979-4.771c1.265-1.266 2.981-1.977 4.771-1.979.298 0 .585-.118.796-.33s.329-.497.329-.795-.118-.584-.329-.795-.497-.33-.796-.33z" fill="#eaeaea"/><path d="M52.319 23.729a32.66 32.66 0 0 0-46.138 0l-4.725 4.725c-.211.211-.329.497-.329.795s.118.584.329.795l4.725 4.725a32.66 32.66 0 0 0 46.138 0l4.725-4.725c.211-.211.329-.497.329-.795a1.13 1.13 0 0 0-.329-.795l-4.725-4.725zm-1.591 9.45a30.41 30.41 0 0 1-42.957 0l-3.93-3.929 3.931-3.931a30.41 30.41 0 0 1 42.957 0l3.931 3.931-3.931 3.928zM29.25 18a11.25 11.25 0 0 0-7.955 19.205A11.25 11.25 0 0 0 40.5 29.25 11.26 11.26 0 0 0 29.25 18zm0 20.25a9 9 0 0 1-6.364-15.364A9 9 0 0 1 38.25 29.25a9.01 9.01 0 0 1-9 9zm0-14.625c-1.113 0-2.2.33-3.125.948a5.63 5.63 0 0 0-2.072 2.524c-.426 1.027-.537 2.159-.32 3.25a5.63 5.63 0 0 0 1.539 2.88 5.62 5.62 0 0 0 2.88 1.539c1.091.217 2.222.106 3.25-.32s1.906-1.147 2.524-2.072.948-2.013.948-3.125a5.63 5.63 0 0 0-5.625-5.625zm0 9c-.668 0-1.32-.198-1.875-.569a3.37 3.37 0 0 1-1.243-1.515 3.38 3.38 0 0 1-.192-1.95c.13-.655.452-1.256.924-1.728a3.38 3.38 0 0 1 1.728-.924 3.37 3.37 0 0 1 3.465 1.435c.371.555.569 1.207.569 1.875a3.38 3.38 0 0 1-.988 2.387 3.37 3.37 0 0 1-2.387.988zm-27-15.75a1.13 1.13 0 0 0 .796-.329c.211-.21.329-.497.329-.796V3.375H15.75a1.13 1.13 0 0 0 .796-.329 1.12 1.12 0 0 0 .329-.796 1.13 1.13 0 0 0-.329-.796c-.21-.211-.497-.329-.796-.329H2.25a1.13 1.13 0 0 0-.796.329c-.211.21-.329.497-.329.796v13.5a1.13 1.13 0 0 0 .329.796 1.12 1.12 0 0 0 .796.329zm54-15.75h-13.5a1.13 1.13 0 0 0-.795.329c-.211.21-.33.497-.33.796a1.12 1.12 0 0 0 .33.796c.212.211.497.329.795.329h12.375V15.75c0 .298.118.584.33.796a1.12 1.12 0 0 0 .795.329 1.13 1.13 0 0 0 .795-.329c.211-.21.33-.497.33-.796V2.25c0-.298-.118-.585-.33-.796s-.497-.329-.795-.329zm-40.5 54H3.375V42.75a1.13 1.13 0 0 0-.329-.795c-.21-.211-.497-.33-.796-.33a1.12 1.12 0 0 0-.796.33c-.211.212-.329.497-.329.795v13.5a1.13 1.13 0 0 0 .329.795c.21.211.497.33.796.33h13.5c.298 0 .584-.118.796-.33a1.12 1.12 0 0 0 .329-.795 1.13 1.13 0 0 0-.329-.795c-.21-.211-.497-.33-.796-.33zm40.5-13.5a1.12 1.12 0 0 0-.795.33c-.211.212-.33.497-.33.795v12.375H42.75a1.12 1.12 0 0 0-.795.33c-.211.212-.33.497-.33.795a1.12 1.12 0 0 0 .33.795c.212.211.497.33.795.33h13.5a1.12 1.12 0 0 0 .795-.33c.211-.212.33-.497.33-.795v-13.5a1.12 1.12 0 0 0-.33-.795c-.212-.211-.497-.33-.795-.33z" fill="#ff6b00"/></svg>