<svg xmlns="http://www.w3.org/2000/svg" width="72" height="72" fill="none" xmlns:v="https://vecta.io/nano"><path d="M21.375 34.313v32.625c0 .895.356 1.754.988 2.386s1.491.989 2.387.989H67.5c.895 0 1.754-.356 2.386-.989a3.38 3.38 0 0 0 .989-2.386V34.313h-49.5zm23.625 27c0 .895-.356 1.754-.989 2.386a3.38 3.38 0 0 1-2.386.989H31.5c-.895 0-1.754-.356-2.387-.989s-.988-1.491-.988-2.386v-2.25c0-.895.356-1.754.988-2.386s1.491-.989 2.387-.989h10.125c.895 0 1.754.356 2.386.989s.989 1.49.989 2.386v2.25zm0-11.25c0 .895-.356 1.754-.989 2.386a3.38 3.38 0 0 1-2.386.989H31.5c-.895 0-1.754-.356-2.387-.989s-.988-1.491-.988-2.386v-5.625c0-.895.356-1.754.988-2.386s1.491-.989 2.387-.989h10.125c.895 0 1.754.356 2.386.989s.989 1.49.989 2.386v5.625zm19.125 11.25c0 .895-.356 1.754-.989 2.386a3.38 3.38 0 0 1-2.386.989H50.625c-.895 0-1.754-.356-2.386-.989a3.38 3.38 0 0 1-.989-2.386V44.438c0-.895.356-1.754.989-2.386a3.38 3.38 0 0 1 2.386-.989H60.75c.895 0 1.754.356 2.386.989a3.38 3.38 0 0 1 .989 2.386v16.875zm6.75-29.25v-7.875c0-.895-.356-1.754-.989-2.387s-1.491-.988-2.386-.988H24.75a3.38 3.38 0 0 0-2.387.988 3.37 3.37 0 0 0-.988 2.387v7.875h49.5zm-29.25-6.75h2.25a1.13 1.13 0 0 1 .795.329c.211.21.33.497.33.796s-.118.584-.33.796a1.12 1.12 0 0 1-.795.329h-2.25a1.13 1.13 0 0 1-.795-.329c-.211-.21-.33-.497-.33-.796s.118-.584.33-.796a1.12 1.12 0 0 1 .795-.329zm-6.75 0h2.25a1.13 1.13 0 0 1 .795.329c.211.21.33.497.33.796s-.118.584-.33.796a1.12 1.12 0 0 1-.795.329h-2.25a1.13 1.13 0 0 1-.795-.329c-.211-.21-.33-.497-.33-.796s.118-.584.33-.796a1.12 1.12 0 0 1 .795-.329zm-6.75 0h2.25a1.13 1.13 0 0 1 .796.329 1.12 1.12 0 0 1 .329.796 1.13 1.13 0 0 1-.329.796 1.12 1.12 0 0 1-.796.329h-2.25a1.13 1.13 0 0 1-.796-.329 1.12 1.12 0 0 1-.329-.796 1.13 1.13 0 0 1 .329-.796 1.12 1.12 0 0 1 .796-.329z" fill="#eaeaea"/><path d="M53.349 13.767L30.375 2.279c-.781-.389-1.643-.591-2.515-.591s-1.734.202-2.515.591L2.369 13.767a2.25 2.25 0 0 0 0 4.026l6.1 3.05-6.1 3.05a2.25 2.25 0 0 0 0 4.026l6.1 3.05-6.1 3.05a2.25 2.25 0 0 0 0 4.026l22.974 11.487a5.65 5.65 0 0 0 5.031 0l22.974-11.487a2.25 2.25 0 0 0 0-4.026l-6.097-3.05 6.099-3.05a2.25 2.25 0 0 0 0-4.026l-6.099-3.05 6.099-3.05a2.25 2.25 0 0 0 0-4.026zM52.343 36.03L29.368 47.517c-.469.233-.986.354-1.51.354s-1.041-.121-1.51-.354L3.375 36.029l7.609-3.805 14.36 7.18a5.65 5.65 0 0 0 5.031 0l14.359-7.18 7.608 3.805zm0-10.125L29.368 37.392c-.469.233-.986.354-1.51.354s-1.041-.121-1.51-.354L3.375 25.904l7.609-3.805 14.36 7.18a5.65 5.65 0 0 0 5.031 0l14.359-7.18 7.608 3.805zm-22.975 1.362a3.38 3.38 0 0 1-1.51.355c-.524 0-1.041-.122-1.51-.355L3.375 15.779 26.349 4.292a3.39 3.39 0 0 1 3.019 0l22.975 11.487-22.975 11.487zM25.846 9.574l-8.384 4.193a2.25 2.25 0 0 0 0 4.026l8.385 4.193a4.52 4.52 0 0 0 2.013.472c.699 0 1.387-.162 2.013-.472l8.378-4.193a2.25 2.25 0 0 0 0-4.026l-8.379-4.193a4.52 4.52 0 0 0-4.026 0zm11.404 6.205l-8.385 4.192a2.24 2.24 0 0 1-1.006.238 2.25 2.25 0 0 1-1.006-.238l-8.392-4.187h.006l8.387-4.196a2.25 2.25 0 0 1 2.013 0l8.385 4.192z" fill="#ff6b00"/></svg>