<svg xmlns="http://www.w3.org/2000/svg" width="64" height="64" fill="none" xmlns:v="https://vecta.io/nano"><path d="M47.594 39.943c-3.097 0-5.849 1.505-7.564 3.822L25.266 36.22a9.38 9.38 0 0 0 .381-2.652c0-1.247-.244-2.438-.687-3.527l15.473-9.297c1.727 2.026 4.296 3.314 7.16 3.314A9.42 9.42 0 0 0 57 14.652a9.42 9.42 0 0 0-9.406-9.406 9.42 9.42 0 0 0-9.406 9.406 9.36 9.36 0 0 0 .637 3.401l-15.512 9.32c-1.725-1.967-4.255-3.21-7.071-3.21a9.42 9.42 0 0 0-9.406 9.406 9.42 9.42 0 0 0 9.406 9.406 9.4 9.4 0 0 0 7.648-3.936L38.61 46.56c-.274.881-.422 1.818-.422 2.788a9.42 9.42 0 0 0 9.406 9.406A9.42 9.42 0 0 0 57 49.348a9.42 9.42 0 0 0-9.406-9.406zm0-31.561a6.28 6.28 0 0 1 6.27 6.271 6.28 6.28 0 0 1-6.27 6.271 6.28 6.28 0 0 1-6.27-6.27 6.28 6.28 0 0 1 6.27-6.27zM16.242 39.838a6.28 6.28 0 0 1-6.27-6.27 6.28 6.28 0 0 1 6.27-6.27 6.28 6.28 0 0 1 6.27 6.27 6.28 6.28 0 0 1-6.27 6.27zm31.352 15.781a6.28 6.28 0 0 1-6.27-6.27 6.28 6.28 0 0 1 6.27-6.27 6.28 6.28 0 0 1 6.27 6.27 6.28 6.28 0 0 1-6.27 6.27z" fill="#7f8284"/><path fill-rule="evenodd" d="M16 39.833c3.222 0 5.833-2.612 5.833-5.833S19.222 28.167 16 28.167 10.167 30.778 10.167 34s2.612 5.833 5.833 5.833zM16 44c5.523 0 10-4.477 10-10s-4.477-10-10-10S6 28.477 6 34s4.477 10 10 10z" fill="#ff6b00"/></svg>