<svg xmlns="http://www.w3.org/2000/svg" width="64" height="64" fill="none" xmlns:v="https://vecta.io/nano"><g clip-path="url(#A)"><g fill="#ff6b00"><path d="M40 48a16.02 16.02 0 0 1-16-16 16.02 16.02 0 0 1 16-16 16.02 16.02 0 0 1 16 16 16.02 16.02 0 0 1-16 16zm0-29.333c-7.352 0-13.333 5.981-13.333 13.333S32.648 45.333 40 45.333 53.333 39.352 53.333 32 47.352 18.667 40 18.667z"/><path d="M62.667 56a1.34 1.34 0 0 1-.944-.389L49.413 43.301c-.52-.52-.52-1.365 0-1.885s1.365-.52 1.885 0l12.309 12.309c.52.52.52 1.365 0 1.885a1.33 1.33 0 0 1-.941.389z"/></g><g fill="#7f8284"><path d="M46.667 5.333H1.333C.597 5.333 0 4.736 0 4s.597-1.333 1.333-1.333h45.333C47.403 2.667 48 3.264 48 4s-.597 1.333-1.333 1.333zm0 56H1.333C.597 61.333 0 60.736 0 60s.597-1.333 1.333-1.333h45.333c.736 0 1.333.597 1.333 1.333s-.597 1.333-1.333 1.333zm-24-42.666H1.333C.597 18.667 0 18.069 0 17.333S.597 16 1.333 16h21.333c.736 0 1.333.597 1.333 1.333s-.597 1.333-1.333 1.333zm0 29.333H1.333C.597 48 0 47.403 0 46.667s.597-1.333 1.333-1.333h21.333c.736 0 1.333.597 1.333 1.333S23.403 48 22.667 48z"/><path d="M17.333 33.333h-16C.597 33.333 0 32.736 0 32s.597-1.333 1.333-1.333h16c.736 0 1.333.597 1.333 1.333s-.597 1.333-1.333 1.333z"/></g></g><defs><clipPath id="A"><path fill="#fff" d="M0 0h64v64H0z"/></clipPath></defs></svg>