<svg xmlns="http://www.w3.org/2000/svg" width="64" height="64" fill="none" xmlns:v="https://vecta.io/nano"><path d="M42.777.416c-.253-.263-.6-.413-.965-.416H13.208a6.77 6.77 0 0 0-6.754 6.738v50.523A6.77 6.77 0 0 0 13.208 64h37.585a6.77 6.77 0 0 0 6.754-6.738V16.152a1.37 1.37 0 0 0-.396-.941L42.777.416zm.382 4.26l9.832 10.114h-8.49a1.33 1.33 0 0 1-1.342-1.315V4.676zm7.633 56.635H13.208a4.08 4.08 0 0 1-4.065-4.049V6.738a4.08 4.08 0 0 1 4.065-4.049h27.263v10.774a4.02 4.02 0 0 0 4.025 4.016h10.362v39.783a4.08 4.08 0 0 1-4.065 4.049z" fill="#ff6b00"/><path d="M44.761 52H16.239c-.684 0-1.239.448-1.239 1s.555 1 1.239 1h28.522c.684 0 1.239-.448 1.239-1s-.555-1-1.239-1zm-28.557-5h16.592c.665 0 1.204-.448 1.204-1s-.539-1-1.204-1H16.204c-.665 0-1.204.448-1.204 1s.539 1 1.204 1zm.989-8h16.554c.66 0 1.253-.606 1.253-1.327v-1.649c-.016-5.001-3.743-9.041-8.325-9.024h-2.411c-4.553-.012-8.254 4.008-8.264 8.979v1.694c-.003.724.529 1.316 1.193 1.327zm1.197-2.976c.003-3.541 2.631-6.411 5.874-6.415h2.411c3.24 0 5.935 2.878 5.935 6.415v.367H18.39v-.367zM25.5 25a6.5 6.5 0 1 0 0-13 6.5 6.5 0 1 0 0 13zm0-10.39a3.89 3.89 0 1 1 0 7.78 3.89 3.89 0 1 1 0-7.78z" fill="#7f8284"/></svg>