<svg xmlns="http://www.w3.org/2000/svg" width="64" height="64" fill="none" xmlns:v="https://vecta.io/nano"><g fill="#ff6b00"><path d="M49.333 53.333c-.163 0-.323-.029-.48-.088L14.187 39.912c-.515-.197-.853-.693-.853-1.245v-16c0-.552.339-1.048.853-1.245L48.853 8.088a1.33 1.33 0 0 1 1.813 1.245V52a1.33 1.33 0 0 1-.579 1.099c-.227.155-.488.235-.755.235zM16 37.749l32 12.309V11.275L16 23.584v14.165z"/><path d="M20 58.667h-8c-.664 0-1.227-.488-1.32-1.147L8.014 38.853c-.104-.728.403-1.403 1.133-1.507a1.35 1.35 0 0 1 1.507 1.133L13.158 56h5.349l-1.781-15.877a1.34 1.34 0 0 1 1.176-1.475c.707-.077 1.389.445 1.475 1.176l1.947 17.36a1.33 1.33 0 0 1-.331 1.037c-.251.283-.611.445-.992.445z"/></g><g fill="#7f8284"><path d="M54.667 24a1.33 1.33 0 0 1-.738-2.443l8-5.333c.608-.405 1.437-.245 1.848.371a1.33 1.33 0 0 1-.371 1.848l-8 5.333a1.32 1.32 0 0 1-.739.224zm8 24a1.32 1.32 0 0 1-.739-.224l-8-5.333c-.611-.408-.779-1.237-.371-1.848a1.34 1.34 0 0 1 1.848-.371l8 5.333c.611.408.779 1.237.371 1.848a1.33 1.33 0 0 1-1.109.595z"/><path d="M62.667 33.333h-8c-.736 0-1.333-.597-1.333-1.333s.597-1.333 1.333-1.333h8c.736 0 1.333.597 1.333 1.333s-.597 1.333-1.333 1.333zm-48 6.667H5.333A5.34 5.34 0 0 1 0 34.667v-8a5.34 5.34 0 0 1 5.333-5.333h9.333c.736 0 1.333.597 1.333 1.333v16c0 .736-.597 1.333-1.333 1.333zM5.333 24a2.67 2.67 0 0 0-2.667 2.667v8a2.67 2.67 0 0 0 2.667 2.667h8V24h-8z"/></g></svg>