<svg xmlns="http://www.w3.org/2000/svg" width="72" height="72" fill="none" xmlns:v="https://vecta.io/nano"><path d="M60.75 32.625a10.07 10.07 0 0 0-1.687.153 19.16 19.16 0 0 0-6.34-6.34c.256-1.456.19-2.95-.193-4.378s-1.074-2.754-2.024-3.886-2.137-2.042-3.477-2.667-2.8-.948-4.278-.948-2.938.324-4.278.948-2.526 1.535-3.477 2.667-1.641 2.459-2.024 3.886-.449 2.922-.193 4.378a19.13 19.13 0 0 0-6.34 6.34c-1.456-.256-2.95-.19-4.378.193s-2.754 1.074-3.886 2.024-2.042 2.137-2.667 3.477-.948 2.8-.948 4.278.324 2.938.948 4.278 1.535 2.526 2.667 3.477 2.459 1.641 3.886 2.024 2.922.449 4.378.193a19.13 19.13 0 0 0 6.34 6.34c-.256 1.456-.19 2.95.193 4.377s1.074 2.754 2.024 3.886 2.137 2.042 3.477 2.667 2.8.948 4.278.948 2.938-.324 4.278-.948 2.526-1.535 3.477-2.667 1.641-2.458 2.024-3.886.449-2.922.193-4.377a19.17 19.17 0 0 0 6.34-6.34c1.385.243 2.806.195 4.172-.141s2.646-.953 3.761-1.812 2.037-1.94 2.71-3.175 1.082-2.597 1.199-3.998-.058-2.812-.516-4.142-1.188-2.55-2.143-3.582-2.115-1.854-3.406-2.413-2.684-.843-4.09-.834zm-8.674 24.188c-.775-1.834-2.072-3.398-3.731-4.498s-3.605-1.687-5.596-1.687-3.937.587-5.596 1.687-2.957 2.664-3.731 4.498a16.92 16.92 0 0 1-4.735-4.736c1.833-.775 3.397-2.073 4.497-3.731s1.686-3.605 1.686-5.595-.587-3.936-1.686-5.595-2.664-2.957-4.497-3.731c1.247-1.879 2.857-3.489 4.735-4.736.775 1.834 2.072 3.398 3.731 4.498s3.605 1.687 5.596 1.687 3.937-.587 5.596-1.687 2.957-2.664 3.731-4.498a16.93 16.93 0 0 1 4.736 4.735c-1.834.774-3.399 2.072-4.499 3.731s-1.687 3.605-1.687 5.596.587 3.937 1.687 5.596 2.665 2.957 4.499 3.731a16.93 16.93 0 0 1-4.736 4.735z" fill="#eaeaea"/><path d="M4.5 16.875h28.125c.895 0 1.754-.356 2.386-.989A3.38 3.38 0 0 0 36 13.5v-9c0-.895-.356-1.754-.989-2.386a3.38 3.38 0 0 0-2.386-.989H4.5c-.895 0-1.754.356-2.386.989A3.38 3.38 0 0 0 1.125 4.5v9c0 .895.356 1.754.989 2.387s1.491.989 2.386.989zM3.375 4.5a1.13 1.13 0 0 1 .329-.796c.21-.211.497-.329.796-.329h28.125a1.13 1.13 0 0 1 .795.329c.211.21.33.497.33.796v9c0 .298-.118.585-.33.796s-.497.329-.795.329H4.5c-.298 0-.585-.118-.796-.329s-.329-.497-.329-.796v-9zm20.25 16.875H4.5c-.895 0-1.754.356-2.386.988s-.989 1.491-.989 2.387v9c0 .895.356 1.754.989 2.386a3.38 3.38 0 0 0 2.386.989h19.125c.895 0 1.754-.356 2.387-.989S27 34.645 27 33.75v-9a3.38 3.38 0 0 0-.988-2.387 3.37 3.37 0 0 0-2.387-.988zM24.75 33.75a1.13 1.13 0 0 1-.329.795c-.21.211-.497.33-.796.33H4.5c-.298 0-.585-.118-.796-.33s-.329-.497-.329-.795v-9a1.13 1.13 0 0 1 .329-.796 1.12 1.12 0 0 1 .796-.329h19.125a1.13 1.13 0 0 1 .796.329 1.12 1.12 0 0 1 .329.796v9zm-1.125 7.875H4.5c-.895 0-1.754.356-2.386.989A3.38 3.38 0 0 0 1.125 45v9c0 .895.356 1.754.989 2.386a3.38 3.38 0 0 0 2.386.989h19.125c.895 0 1.754-.356 2.387-.989S27 54.895 27 54v-9c0-.895-.356-1.754-.988-2.386s-1.491-.989-2.387-.989zM24.75 54a1.13 1.13 0 0 1-.329.795c-.21.211-.497.33-.796.33H4.5c-.298 0-.585-.118-.796-.33s-.329-.497-.329-.795v-9a1.13 1.13 0 0 1 .329-.795c.21-.211.497-.33.796-.33h19.125c.298 0 .584.118.796.33a1.12 1.12 0 0 1 .329.795v9zm27-46.125H40.5c-.298 0-.584.119-.795.33s-.33.497-.33.795.119.585.33.795a1.13 1.13 0 0 0 .795.33h10.125v18H35.341l1.455-1.455c.205-.212.318-.496.316-.791s-.121-.577-.329-.786a1.12 1.12 0 0 0-.786-.329c-.295-.002-.579.111-.791.316l-3.375 3.375a1.14 1.14 0 0 0-.245.365c-.057.136-.086.283-.086.431a1.12 1.12 0 0 0 .086.431c.057.137.14.261.245.365l3.375 3.375c.212.205.496.318.791.316s.577-.121.786-.329a1.12 1.12 0 0 0 .329-.786c.002-.295-.111-.579-.316-.791l-1.455-1.457h15.284v18H35.341l1.455-1.455c.205-.212.318-.496.316-.791s-.121-.577-.329-.786a1.12 1.12 0 0 0-.786-.329c-.295-.002-.579.111-.791.316l-3.375 3.375a1.14 1.14 0 0 0-.245.365c-.057.136-.086.283-.086.431a1.12 1.12 0 0 0 .086.431c.057.137.14.261.245.365l3.375 3.375c.212.205.496.318.791.316s.577-.121.786-.329a1.12 1.12 0 0 0 .329-.786c.002-.295-.111-.579-.316-.791l-1.455-1.457H51.75a1.12 1.12 0 0 0 .795-.33 1.13 1.13 0 0 0 .33-.795V9a1.12 1.12 0 0 0-.33-.795 1.13 1.13 0 0 0-.795-.33z" fill="#ff6b00"/></svg>