<svg xmlns="http://www.w3.org/2000/svg" width="72" height="72" fill="none" xmlns:v="https://vecta.io/nano"><path d="M66.938 14.625h-27c-.895 0-1.754.356-2.386.989s-.989 1.491-.989 2.387v49.5c0 .895.356 1.754.989 2.386s1.491.989 2.386.989h27c.895 0 1.754-.356 2.386-.989s.989-1.491.989-2.386V18c0-.895-.356-1.754-.989-2.386s-1.491-.989-2.386-.989zm-13.5 4.5c.667 0 1.32.198 1.875.569s.988.898 1.243 1.515.322 1.295.192 1.95-.452 1.256-.924 1.728-1.073.793-1.728.924-1.333.063-1.95-.192-1.144-.688-1.515-1.243-.569-1.207-.569-1.875c0-.895.356-1.754.989-2.387s1.491-.988 2.386-.988zM52.313 65.25c0 .298-.118.585-.33.796s-.497.329-.795.329h-9c-.298 0-.584-.118-.795-.329s-.33-.497-.33-.796v-9c0-.298.118-.584.33-.795s.497-.33.795-.33h9c.298 0 .584.118.795.33s.33.497.33.795v9zm13.5 0c0 .298-.118.585-.329.796s-.497.329-.796.329h-9c-.298 0-.584-.118-.795-.329s-.33-.497-.33-.796v-9c0-.298.118-.584.33-.795s.497-.33.795-.33h9c.298 0 .585.118.796.33s.329.497.329.795v9zm0-13.5c0 .298-.118.584-.329.795s-.497.33-.796.33h-22.5c-.298 0-.584-.118-.795-.33s-.33-.497-.33-.795v-22.5c0-.298.118-.584.33-.796s.497-.329.795-.329h22.5c.298 0 .585.119.796.329s.329.497.329.796v22.5z" fill="#eaeaea"/><g fill="#ff6b00"><path d="M54.563 1.125h-49.5c-.895 0-1.754.356-2.386.989A3.38 3.38 0 0 0 1.688 4.5V36c0 .895.356 1.754.989 2.386a3.38 3.38 0 0 0 2.386.989h8.534l4.578 4.578c-.215.079-.4.222-.532.409s-.203.41-.205.639v4.5a1.13 1.13 0 0 0 .329.795c.21.211.497.33.796.33h22.5a1.12 1.12 0 0 0 .795-.33c.211-.212.33-.497.33-.795V45c-.002-.229-.073-.452-.205-.639s-.317-.33-.532-.409l4.578-4.578h8.534c.895 0 1.754-.356 2.386-.989a3.38 3.38 0 0 0 .989-2.386V4.5c0-.895-.356-1.754-.989-2.386a3.38 3.38 0 0 0-2.386-.989zm-14.625 47.25h-20.25v-2.25h20.25v2.25zm-1.591-4.5H21.278l-4.5-4.5h26.069l-4.5 4.5zM55.688 36a1.12 1.12 0 0 1-.33.795c-.212.211-.497.33-.795.33h-49.5a1.12 1.12 0 0 1-.795-.33 1.13 1.13 0 0 1-.33-.795V4.5c0-.298.119-.585.33-.796s.497-.329.795-.329h49.5a1.13 1.13 0 0 1 .795.329c.211.21.33.497.33.796V36zM52.313 5.625h-45c-.298 0-.585.119-.795.33a1.13 1.13 0 0 0-.33.795v9a1.13 1.13 0 0 0 .33.796 1.12 1.12 0 0 0 .795.329h45a1.13 1.13 0 0 0 .795-.329c.211-.21.33-.497.33-.796v-9a1.12 1.12 0 0 0-.33-.795 1.13 1.13 0 0 0-.795-.33zm-1.125 9H8.438v-6.75h42.75v6.75z"/><path d="M7.313 33.25h7.875c.298 0 .585-.118.796-.33s.329-.497.329-.795v-9a1.13 1.13 0 0 0-.329-.796 1.12 1.12 0 0 0-.796-.329H7.313c-.298 0-.585.119-.795.329a1.13 1.13 0 0 0-.33.796v9c0 .298.119.584.33.795s.497.33.795.33zm1.125-9h5.625V31H8.438v-6.75zm19.125 9c.298 0 .584-.118.796-.33a1.12 1.12 0 0 0 .329-.795v-9a1.13 1.13 0 0 0-.329-.796 1.12 1.12 0 0 0-.796-.329h-7.875a1.13 1.13 0 0 0-.796.329 1.12 1.12 0 0 0-.329.796v9a1.13 1.13 0 0 0 .329.795c.21.211.497.33.796.33h7.875zm-6.75-9h5.625V31h-5.625v-6.75zm19.125 9a1.12 1.12 0 0 0 .795-.33c.211-.212.33-.497.33-.795v-9c0-.298-.118-.584-.33-.796a1.12 1.12 0 0 0-.795-.329h-7.875a1.13 1.13 0 0 0-.796.329 1.12 1.12 0 0 0-.329.796v9a1.13 1.13 0 0 0 .329.795c.21.211.497.33.796.33h7.875zm-6.75-9h5.625V31h-5.625v-6.75zM52.313 22h-7.875a1.13 1.13 0 0 0-.795.329c-.211.21-.33.497-.33.796v9a1.12 1.12 0 0 0 .33.795c.212.211.497.33.795.33h7.875a1.12 1.12 0 0 0 .795-.33c.211-.212.33-.497.33-.795v-9c0-.298-.118-.584-.33-.796a1.12 1.12 0 0 0-.795-.329zm-1.125 9h-5.625v-6.75h5.625V31z"/></g></svg>