<svg xmlns="http://www.w3.org/2000/svg" width="64" height="64" fill="none" xmlns:v="https://vecta.io/nano"><path d="M37.75 5a1.25 1.25 0 1 0 0 2.5 1.25 1.25 0 1 0 0-2.5zm10 0h-5a1.25 1.25 0 1 0 0 2.5h5a1.25 1.25 0 1 0 0-2.5zm10 0h-5a1.25 1.25 0 1 0 0 2.5h5a1.25 1.25 0 1 0 0-2.5zm2.5-5H3.75C1.682 0 0 1.682 0 3.75v56.5C0 62.318 1.682 64 3.75 64h56.5c2.068 0 3.75-1.682 3.75-3.75V3.75C64 1.682 62.318 0 60.25 0zm1.25 60.25a1.25 1.25 0 0 1-1.25 1.25H3.75a1.25 1.25 0 0 1-1.25-1.25V12.5h59v47.75zm0-50.25h-59V3.75A1.25 1.25 0 0 1 3.75 2.5h56.5a1.25 1.25 0 0 1 1.25 1.25V10z" fill="#7f8284"/><g fill="#ff6b00"><path d="M9.5 28.25h45A1.25 1.25 0 0 0 55.75 27v-7.5a1.25 1.25 0 0 0-1.25-1.25h-45a1.25 1.25 0 0 0-1.25 1.25V27a1.25 1.25 0 0 0 1.25 1.25zm1.25-7.5h42.5v5h-42.5v-5zM9.5 56.125h15a1.25 1.25 0 0 0 1.25-1.25v-20a1.25 1.25 0 0 0-1.25-1.25h-15a1.25 1.25 0 0 0-1.25 1.25v20a1.25 1.25 0 0 0 1.25 1.25zm1.25-20h12.5v17.5h-12.5v-17.5z"/><path d="M30.3 42.3v11.4h3.4V42.3h-3.4zM30 40a2 2 0 0 0-2 2v12a2 2 0 0 0 2 2h4a2 2 0 0 0 2-2V42a2 2 0 0 0-2-2h-4zm10.3-.7v14.4h3.4V39.3h-3.4zM40 37a2 2 0 0 0-2 2v15a2 2 0 0 0 2 2h4a2 2 0 0 0 2-2V39a2 2 0 0 0-2-2h-4zm10.3-.7v17.4h3.4V36.3h-3.4zM50 34a2 2 0 0 0-2 2v18a2 2 0 0 0 2 2h4a2 2 0 0 0 2-2V36a2 2 0 0 0-2-2h-4z" fill-rule="evenodd"/></g></svg>