<svg xmlns="http://www.w3.org/2000/svg" width="64" height="64" fill="none" xmlns:v="https://vecta.io/nano"><path d="M56.671 41.711c1.107-1.411 1.637-2.925 1.57-4.483-.068-1.717-.836-3.06-1.468-3.885.734-1.829 1.016-4.709-1.434-6.945-1.796-1.637-4.844-2.371-9.068-2.168-2.97.136-5.454.689-5.556.711h-.011l-1.773.361c-.045-.723.079-2.518 1.411-6.561 1.581-4.811 1.491-8.492-.294-10.954C38.174 5.203 35.182 5 34.301 5c-.847 0-1.626.35-2.179.994-1.254 1.457-1.107 4.144-.949 5.386-1.491 3.998-5.669 13.799-9.203 16.521-.068.045-.124.102-.181.158C20.8 29.102 19 31.099 19 31.099v27.743h18.756c1.344.102 2.608.158 3.783.158 2.021 0 3.783-.158 5.251-.474 3.455-.734 5.816-2.202 7.013-4.359.915-1.649.915-3.286.768-4.325 2.247-2.033 2.642-4.28 2.563-5.861a7.63 7.63 0 0 0-.463-2.27zM53.78 40.39c-.474.497-.565 1.254-.203 1.841 0 .011.463.802.519 1.886.079 1.479-.632 2.789-2.123 3.907a1.54 1.54 0 0 0-.52 1.739c0 .011.486 1.502-.305 2.913-.757 1.355-2.439 2.326-4.991 2.868-2.044.44-4.822.52-8.232.248h-.158c-7.261.158-14.601-.791-14.68-.802h-.011l-1.14-.136a4.78 4.78 0 0 0 .102-.994V35.501c0-.486-.079-.96-.214-1.4.203-.757.768-2.439 2.1-3.873 5.07-4.02 10.028-17.582 10.242-18.169a1.43 1.43 0 0 0 .068-.757c-.192-1.265-.124-2.812.147-3.275.599.011 2.213.181 3.184 1.524 1.152 1.592 1.107 4.438-.136 8.21-1.897 5.748-2.055 8.774-.553 10.107.745.666 1.739.7 2.462.44a31.83 31.83 0 0 1 1.965-.395c.045-.011.102-.023.147-.034 3.467-.757 9.677-1.22 11.834.745 1.829 1.671.531 3.885.384 4.122-.418.632-.294 1.457.271 1.965.011.011 1.197 1.129 1.253 2.631.045 1.005-.429 2.033-1.412 3.049z" fill="#ff6b00"/><rect x="6.5" y="31.5" width="14" height="26" rx="2.5" stroke="#7f8284" stroke-width="3"/></svg>