<svg width="620" height="336" viewBox="0 0 620 336" fill="none" xmlns="http://www.w3.org/2000/svg">
<path d="M73.944 38.128C73.1013 38.128 72.2853 38 71.496 37.744C70.7173 37.4773 70.104 37.136 69.656 36.72L70.248 35.472C70.6747 35.856 71.2187 36.1707 71.88 36.416C72.552 36.6507 73.24 36.768 73.944 36.768C74.872 36.768 75.5653 36.6133 76.024 36.304C76.4827 35.984 76.712 35.5627 76.712 35.04C76.712 34.656 76.584 34.3467 76.328 34.112C76.0827 33.8667 75.7733 33.68 75.4 33.552C75.0373 33.424 74.52 33.28 73.848 33.12C73.0053 32.9173 72.3227 32.7147 71.8 32.512C71.288 32.3093 70.8453 32 70.472 31.584C70.1093 31.1573 69.928 30.5867 69.928 29.872C69.928 29.2747 70.0827 28.736 70.392 28.256C70.712 27.776 71.192 27.392 71.832 27.104C72.472 26.816 73.2667 26.672 74.216 26.672C74.8773 26.672 75.528 26.7573 76.168 26.928C76.808 27.0987 77.3573 27.344 77.816 27.664L77.288 28.944C76.8187 28.6453 76.3173 28.4213 75.784 28.272C75.2507 28.112 74.728 28.032 74.216 28.032C73.3093 28.032 72.6267 28.1973 72.168 28.528C71.72 28.8587 71.496 29.2853 71.496 29.808C71.496 30.192 71.624 30.5067 71.88 30.752C72.136 30.9867 72.4507 31.1733 72.824 31.312C73.208 31.44 73.7253 31.5787 74.376 31.728C75.2187 31.9307 75.896 32.1333 76.408 32.336C76.92 32.5387 77.3573 32.848 77.72 33.264C78.0933 33.68 78.28 34.24 78.28 34.944C78.28 35.5307 78.12 36.0693 77.8 36.56C77.48 37.04 76.9947 37.424 76.344 37.712C75.6933 37.9893 74.8933 38.128 73.944 38.128ZM84.8895 29.44C85.7108 29.44 86.4468 29.6213 87.0975 29.984C87.7482 30.3467 88.2548 30.8533 88.6175 31.504C88.9908 32.1547 89.1775 32.9067 89.1775 33.76C89.1775 34.6133 88.9908 35.3707 88.6175 36.032C88.2548 36.6827 87.7482 37.1893 87.0975 37.552C86.4468 37.9147 85.7108 38.096 84.8895 38.096C84.2815 38.096 83.7215 37.9787 83.2095 37.744C82.7082 37.5093 82.2815 37.168 81.9295 36.72V41.104H80.3935V29.52H81.8655V30.864C82.2068 30.3947 82.6388 30.0427 83.1615 29.808C83.6842 29.5627 84.2602 29.44 84.8895 29.44ZM84.7615 36.752C85.3055 36.752 85.7908 36.6293 86.2175 36.384C86.6548 36.128 86.9962 35.776 87.2415 35.328C87.4975 34.8693 87.6255 34.3467 87.6255 33.76C87.6255 33.1733 87.4975 32.656 87.2415 32.208C86.9962 31.7493 86.6548 31.3973 86.2175 31.152C85.7908 30.9067 85.3055 30.784 84.7615 30.784C84.2282 30.784 83.7428 30.912 83.3055 31.168C82.8788 31.4133 82.5375 31.76 82.2815 32.208C82.0362 32.656 81.9135 33.1733 81.9135 33.76C81.9135 34.3467 82.0362 34.8693 82.2815 35.328C82.5268 35.776 82.8682 36.128 83.3055 36.384C83.7428 36.6293 84.2282 36.752 84.7615 36.752ZM98.9638 33.808C98.9638 33.9253 98.9531 34.08 98.9318 34.272H92.0518C92.1478 35.0187 92.4731 35.6213 93.0278 36.08C93.5931 36.528 94.2918 36.752 95.1238 36.752C96.1371 36.752 96.9531 36.4107 97.5718 35.728L98.4198 36.72C98.0358 37.168 97.5558 37.5093 96.9798 37.744C96.4144 37.9787 95.7798 38.096 95.0758 38.096C94.1798 38.096 93.3851 37.9147 92.6918 37.552C91.9984 37.1787 91.4598 36.6613 91.0758 36C90.7024 35.3387 90.5158 34.592 90.5158 33.76C90.5158 32.9387 90.6971 32.1973 91.0598 31.536C91.4331 30.8747 91.9398 30.3627 92.5798 30C93.2304 29.6267 93.9611 29.44 94.7718 29.44C95.5824 29.44 96.3024 29.6267 96.9318 30C97.5718 30.3627 98.0678 30.8747 98.4198 31.536C98.7824 32.1973 98.9638 32.9547 98.9638 33.808ZM94.7718 30.736C94.0358 30.736 93.4171 30.96 92.9158 31.408C92.4251 31.856 92.1371 32.4427 92.0518 33.168H97.4918C97.4064 32.4533 97.1131 31.872 96.6118 31.424C96.1211 30.9653 95.5078 30.736 94.7718 30.736ZM103.95 29.44C105.124 29.44 106.02 29.728 106.638 30.304C107.268 30.88 107.582 31.7387 107.582 32.88V38H106.126V36.88C105.87 37.2747 105.502 37.5787 105.022 37.792C104.553 37.9947 103.993 38.096 103.342 38.096C102.393 38.096 101.63 37.8667 101.054 37.408C100.489 36.9493 100.206 36.3467 100.206 35.6C100.206 34.8533 100.478 34.256 101.022 33.808C101.566 33.3493 102.43 33.12 103.614 33.12H106.046V32.816C106.046 32.1547 105.854 31.648 105.47 31.296C105.086 30.944 104.521 30.768 103.774 30.768C103.273 30.768 102.782 30.8533 102.302 31.024C101.822 31.184 101.417 31.4027 101.086 31.68L100.446 30.528C100.884 30.176 101.406 29.9093 102.014 29.728C102.622 29.536 103.268 29.44 103.95 29.44ZM103.598 36.912C104.185 36.912 104.692 36.784 105.118 36.528C105.545 36.2613 105.854 35.888 106.046 35.408V34.224H103.678C102.377 34.224 101.726 34.6613 101.726 35.536C101.726 35.9627 101.892 36.2987 102.222 36.544C102.553 36.7893 103.012 36.912 103.598 36.912ZM113.721 34.048L111.961 35.68V38H110.425V26.128H111.961V33.744L116.585 29.52H118.441L114.873 33.024L118.793 38H116.905L113.721 34.048ZM127.589 33.808C127.589 33.9253 127.578 34.08 127.557 34.272H120.677C120.773 35.0187 121.098 35.6213 121.653 36.08C122.218 36.528 122.917 36.752 123.749 36.752C124.762 36.752 125.578 36.4107 126.197 35.728L127.045 36.72C126.661 37.168 126.181 37.5093 125.605 37.744C125.039 37.9787 124.405 38.096 123.701 38.096C122.805 38.096 122.01 37.9147 121.317 37.552C120.623 37.1787 120.085 36.6613 119.701 36C119.327 35.3387 119.141 34.592 119.141 33.76C119.141 32.9387 119.322 32.1973 119.685 31.536C120.058 30.8747 120.565 30.3627 121.205 30C121.855 29.6267 122.586 29.44 123.397 29.44C124.207 29.44 124.927 29.6267 125.557 30C126.197 30.3627 126.693 30.8747 127.045 31.536C127.407 32.1973 127.589 32.9547 127.589 33.808ZM123.397 30.736C122.661 30.736 122.042 30.96 121.541 31.408C121.05 31.856 120.762 32.4427 120.677 33.168H126.117C126.031 32.4533 125.738 31.872 125.237 31.424C124.746 30.9653 124.133 30.736 123.397 30.736ZM131.194 30.944C131.46 30.4533 131.855 30.08 132.378 29.824C132.9 29.568 133.535 29.44 134.282 29.44V30.928C134.196 30.9173 134.079 30.912 133.93 30.912C133.098 30.912 132.442 31.1627 131.962 31.664C131.492 32.1547 131.258 32.8587 131.258 33.776V38H129.722V29.52H131.194V30.944ZM148.581 26.128V38H147.109V36.656C146.768 37.1253 146.336 37.4827 145.813 37.728C145.29 37.9733 144.714 38.096 144.085 38.096C143.264 38.096 142.528 37.9147 141.877 37.552C141.226 37.1893 140.714 36.6827 140.341 36.032C139.978 35.3707 139.797 34.6133 139.797 33.76C139.797 32.9067 139.978 32.1547 140.341 31.504C140.714 30.8533 141.226 30.3467 141.877 29.984C142.528 29.6213 143.264 29.44 144.085 29.44C144.693 29.44 145.253 29.5573 145.765 29.792C146.277 30.016 146.704 30.352 147.045 30.8V26.128H148.581ZM144.213 36.752C144.746 36.752 145.232 36.6293 145.669 36.384C146.106 36.128 146.448 35.776 146.693 35.328C146.938 34.8693 147.061 34.3467 147.061 33.76C147.061 33.1733 146.938 32.656 146.693 32.208C146.448 31.7493 146.106 31.3973 145.669 31.152C145.232 30.9067 144.746 30.784 144.213 30.784C143.669 30.784 143.178 30.9067 142.741 31.152C142.314 31.3973 141.973 31.7493 141.717 32.208C141.472 32.656 141.349 33.1733 141.349 33.76C141.349 34.3467 141.472 34.8693 141.717 35.328C141.973 35.776 142.314 36.128 142.741 36.384C143.178 36.6293 143.669 36.752 144.213 36.752ZM154.575 29.44C155.749 29.44 156.645 29.728 157.263 30.304C157.893 30.88 158.207 31.7387 158.207 32.88V38H156.751V36.88C156.495 37.2747 156.127 37.5787 155.647 37.792C155.178 37.9947 154.618 38.096 153.967 38.096C153.018 38.096 152.255 37.8667 151.679 37.408C151.114 36.9493 150.831 36.3467 150.831 35.6C150.831 34.8533 151.103 34.256 151.647 33.808C152.191 33.3493 153.055 33.12 154.239 33.12H156.671V32.816C156.671 32.1547 156.479 31.648 156.095 31.296C155.711 30.944 155.146 30.768 154.399 30.768C153.898 30.768 153.407 30.8533 152.927 31.024C152.447 31.184 152.042 31.4027 151.711 31.68L151.071 30.528C151.509 30.176 152.031 29.9093 152.639 29.728C153.247 29.536 153.893 29.44 154.575 29.44ZM154.223 36.912C154.81 36.912 155.317 36.784 155.743 36.528C156.17 36.2613 156.479 35.888 156.671 35.408V34.224H154.303C153.002 34.224 152.351 34.6613 152.351 35.536C152.351 35.9627 152.517 36.2987 152.847 36.544C153.178 36.7893 153.637 36.912 154.223 36.912ZM165.818 37.504C165.594 37.696 165.316 37.8453 164.986 37.952C164.655 38.048 164.314 38.096 163.962 38.096C163.108 38.096 162.447 37.8667 161.978 37.408C161.508 36.9493 161.274 36.2933 161.274 35.44V30.784H159.834V29.52H161.274V27.664H162.81V29.52H165.242V30.784H162.81V35.376C162.81 35.8347 162.922 36.1867 163.146 36.432C163.38 36.6773 163.711 36.8 164.138 36.8C164.607 36.8 165.007 36.6667 165.338 36.4L165.818 37.504ZM170.763 29.44C171.936 29.44 172.832 29.728 173.451 30.304C174.08 30.88 174.395 31.7387 174.395 32.88V38H172.939V36.88C172.683 37.2747 172.315 37.5787 171.835 37.792C171.365 37.9947 170.805 38.096 170.155 38.096C169.205 38.096 168.443 37.8667 167.867 37.408C167.301 36.9493 167.019 36.3467 167.019 35.6C167.019 34.8533 167.291 34.256 167.835 33.808C168.379 33.3493 169.243 33.12 170.427 33.12H172.859V32.816C172.859 32.1547 172.667 31.648 172.283 31.296C171.899 30.944 171.333 30.768 170.587 30.768C170.085 30.768 169.595 30.8533 169.115 31.024C168.635 31.184 168.229 31.4027 167.899 31.68L167.259 30.528C167.696 30.176 168.219 29.9093 168.827 29.728C169.435 29.536 170.08 29.44 170.763 29.44ZM170.411 36.912C170.997 36.912 171.504 36.784 171.931 36.528C172.357 36.2613 172.667 35.888 172.859 35.408V34.224H170.491C169.189 34.224 168.539 34.6613 168.539 35.536C168.539 35.9627 168.704 36.2987 169.035 36.544C169.365 36.7893 169.824 36.912 170.411 36.912ZM181.733 29.44C182.555 29.44 183.291 29.6213 183.941 29.984C184.592 30.3467 185.099 30.8533 185.461 31.504C185.835 32.1547 186.021 32.9067 186.021 33.76C186.021 34.6133 185.835 35.3707 185.461 36.032C185.099 36.6827 184.592 37.1893 183.941 37.552C183.291 37.9147 182.555 38.096 181.733 38.096C181.104 38.096 180.528 37.9733 180.005 37.728C179.483 37.4827 179.051 37.1253 178.709 36.656V38H177.237V26.128H178.773V30.8C179.115 30.352 179.541 30.016 180.053 29.792C180.565 29.5573 181.125 29.44 181.733 29.44ZM181.605 36.752C182.149 36.752 182.635 36.6293 183.061 36.384C183.499 36.128 183.84 35.776 184.085 35.328C184.341 34.8693 184.469 34.3467 184.469 33.76C184.469 33.1733 184.341 32.656 184.085 32.208C183.84 31.7493 183.499 31.3973 183.061 31.152C182.635 30.9067 182.149 30.784 181.605 30.784C181.072 30.784 180.587 30.9067 180.149 31.152C179.712 31.3973 179.371 31.7493 179.125 32.208C178.88 32.656 178.757 33.1733 178.757 33.76C178.757 34.3467 178.88 34.8693 179.125 35.328C179.371 35.776 179.712 36.128 180.149 36.384C180.587 36.6293 181.072 36.752 181.605 36.752ZM191.153 29.44C192.327 29.44 193.223 29.728 193.841 30.304C194.471 30.88 194.785 31.7387 194.785 32.88V38H193.329V36.88C193.073 37.2747 192.705 37.5787 192.225 37.792C191.756 37.9947 191.196 38.096 190.545 38.096C189.596 38.096 188.833 37.8667 188.257 37.408C187.692 36.9493 187.409 36.3467 187.409 35.6C187.409 34.8533 187.681 34.256 188.225 33.808C188.769 33.3493 189.633 33.12 190.817 33.12H193.249V32.816C193.249 32.1547 193.057 31.648 192.673 31.296C192.289 30.944 191.724 30.768 190.977 30.768C190.476 30.768 189.985 30.8533 189.505 31.024C189.025 31.184 188.62 31.4027 188.289 31.68L187.649 30.528C188.087 30.176 188.609 29.9093 189.217 29.728C189.825 29.536 190.471 29.44 191.153 29.44ZM190.801 36.912C191.388 36.912 191.895 36.784 192.321 36.528C192.748 36.2613 193.057 35.888 193.249 35.408V34.224H190.881C189.58 34.224 188.929 34.6613 188.929 35.536C188.929 35.9627 189.095 36.2987 189.425 36.544C189.756 36.7893 190.215 36.912 190.801 36.912ZM200.06 38.096C199.367 38.096 198.7 38.0053 198.06 37.824C197.42 37.632 196.919 37.392 196.556 37.104L197.196 35.888C197.569 36.1547 198.023 36.368 198.556 36.528C199.089 36.688 199.628 36.768 200.172 36.768C201.516 36.768 202.188 36.384 202.188 35.616C202.188 35.36 202.097 35.1573 201.916 35.008C201.735 34.8587 201.505 34.752 201.228 34.688C200.961 34.6133 200.577 34.5333 200.076 34.448C199.393 34.3413 198.833 34.2187 198.396 34.08C197.969 33.9413 197.601 33.7067 197.292 33.376C196.983 33.0453 196.828 32.5813 196.828 31.984C196.828 31.216 197.148 30.6027 197.788 30.144C198.428 29.6747 199.287 29.44 200.364 29.44C200.929 29.44 201.495 29.5093 202.06 29.648C202.625 29.7867 203.089 29.9733 203.452 30.208L202.796 31.424C202.103 30.976 201.287 30.752 200.348 30.752C199.697 30.752 199.201 30.8587 198.86 31.072C198.519 31.2853 198.348 31.568 198.348 31.92C198.348 32.1973 198.444 32.416 198.636 32.576C198.828 32.736 199.063 32.8533 199.34 32.928C199.628 33.0027 200.028 33.088 200.54 33.184C201.223 33.3013 201.772 33.4293 202.188 33.568C202.615 33.696 202.977 33.92 203.276 34.24C203.575 34.56 203.724 35.008 203.724 35.584C203.724 36.352 203.393 36.9653 202.732 37.424C202.081 37.872 201.191 38.096 200.06 38.096ZM213.308 33.808C213.308 33.9253 213.297 34.08 213.276 34.272H206.396C206.492 35.0187 206.817 35.6213 207.372 36.08C207.937 36.528 208.636 36.752 209.468 36.752C210.481 36.752 211.297 36.4107 211.916 35.728L212.764 36.72C212.38 37.168 211.9 37.5093 211.324 37.744C210.758 37.9787 210.124 38.096 209.42 38.096C208.524 38.096 207.729 37.9147 207.036 37.552C206.342 37.1787 205.804 36.6613 205.42 36C205.046 35.3387 204.86 34.592 204.86 33.76C204.86 32.9387 205.041 32.1973 205.404 31.536C205.777 30.8747 206.284 30.3627 206.924 30C207.574 29.6267 208.305 29.44 209.116 29.44C209.926 29.44 210.646 29.6267 211.276 30C211.916 30.3627 212.412 30.8747 212.764 31.536C213.126 32.1973 213.308 32.9547 213.308 33.808ZM209.116 30.736C208.38 30.736 207.761 30.96 207.26 31.408C206.769 31.856 206.481 32.4427 206.396 33.168H211.836C211.75 32.4533 211.457 31.872 210.956 31.424C210.465 30.9653 209.852 30.736 209.116 30.736Z" fill="#434343"/>
<path d="M44.28 164.192V168.096H49.896V169.472H44.28V174H42.68V162.8H50.584V164.192H44.28ZM52.456 165.52H53.992V174H52.456V165.52ZM53.224 163.888C52.9253 163.888 52.6747 163.792 52.472 163.6C52.28 163.408 52.184 163.173 52.184 162.896C52.184 162.619 52.28 162.384 52.472 162.192C52.6747 161.989 52.9253 161.888 53.224 161.888C53.5227 161.888 53.768 161.984 53.96 162.176C54.1627 162.357 54.264 162.587 54.264 162.864C54.264 163.152 54.1627 163.397 53.96 163.6C53.768 163.792 53.5227 163.888 53.224 163.888ZM56.9248 162.128H58.4608V174H56.9248V162.128ZM69.0575 169.808C69.0575 169.925 69.0468 170.08 69.0255 170.272H62.1455C62.2415 171.019 62.5668 171.621 63.1215 172.08C63.6868 172.528 64.3855 172.752 65.2175 172.752C66.2308 172.752 67.0468 172.411 67.6655 171.728L68.5135 172.72C68.1295 173.168 67.6495 173.509 67.0735 173.744C66.5082 173.979 65.8735 174.096 65.1695 174.096C64.2735 174.096 63.4788 173.915 62.7855 173.552C62.0922 173.179 61.5535 172.661 61.1695 172C60.7962 171.339 60.6095 170.592 60.6095 169.76C60.6095 168.939 60.7908 168.197 61.1535 167.536C61.5268 166.875 62.0335 166.363 62.6735 166C63.3242 165.627 64.0548 165.44 64.8655 165.44C65.6762 165.44 66.3962 165.627 67.0255 166C67.6655 166.363 68.1615 166.875 68.5135 167.536C68.8762 168.197 69.0575 168.955 69.0575 169.808ZM64.8655 166.736C64.1295 166.736 63.5108 166.96 63.0095 167.408C62.5188 167.856 62.2308 168.443 62.1455 169.168H67.5855C67.5002 168.453 67.2068 167.872 66.7055 167.424C66.2148 166.965 65.6015 166.736 64.8655 166.736ZM81.7984 165.44C82.865 165.44 83.7077 165.749 84.3264 166.368C84.9557 166.987 85.2704 167.904 85.2704 169.12V174H83.7344V169.296C83.7344 168.475 83.5424 167.856 83.1584 167.44C82.785 167.024 82.2464 166.816 81.5424 166.816C80.7637 166.816 80.145 167.061 79.6864 167.552C79.2277 168.032 78.9984 168.725 78.9984 169.632V174H77.4624V169.296C77.4624 168.475 77.2704 167.856 76.8864 167.44C76.513 167.024 75.9744 166.816 75.2704 166.816C74.4917 166.816 73.873 167.061 73.4144 167.552C72.9557 168.032 72.7264 168.725 72.7264 169.632V174H71.1904V165.52H72.6624V166.784C72.9717 166.347 73.377 166.016 73.8784 165.792C74.3797 165.557 74.9504 165.44 75.5904 165.44C76.2517 165.44 76.8384 165.573 77.3504 165.84C77.8624 166.107 78.257 166.496 78.5344 167.008C78.8544 166.517 79.297 166.133 79.8624 165.856C80.4384 165.579 81.0837 165.44 81.7984 165.44ZM91.1846 165.44C92.358 165.44 93.254 165.728 93.8726 166.304C94.502 166.88 94.8166 167.739 94.8166 168.88V174H93.3606V172.88C93.1046 173.275 92.7366 173.579 92.2566 173.792C91.7873 173.995 91.2273 174.096 90.5766 174.096C89.6273 174.096 88.8646 173.867 88.2886 173.408C87.7233 172.949 87.4406 172.347 87.4406 171.6C87.4406 170.853 87.7126 170.256 88.2566 169.808C88.8006 169.349 89.6646 169.12 90.8486 169.12H93.2806V168.816C93.2806 168.155 93.0886 167.648 92.7046 167.296C92.3206 166.944 91.7553 166.768 91.0086 166.768C90.5073 166.768 90.0166 166.853 89.5366 167.024C89.0566 167.184 88.6513 167.403 88.3206 167.68L87.6806 166.528C88.118 166.176 88.6406 165.909 89.2486 165.728C89.8566 165.536 90.502 165.44 91.1846 165.44ZM90.8326 172.912C91.4193 172.912 91.926 172.784 92.3526 172.528C92.7793 172.261 93.0886 171.888 93.2806 171.408V170.224H90.9126C89.6113 170.224 88.9606 170.661 88.9606 171.536C88.9606 171.963 89.126 172.299 89.4566 172.544C89.7873 172.789 90.246 172.912 90.8326 172.912ZM100.955 170.048L99.1951 171.68V174H97.6591V162.128H99.1951V169.744L103.819 165.52H105.675L102.107 169.024L106.027 174H104.139L100.955 170.048ZM114.823 169.808C114.823 169.925 114.812 170.08 114.791 170.272H107.911C108.007 171.019 108.332 171.621 108.887 172.08C109.452 172.528 110.151 172.752 110.983 172.752C111.996 172.752 112.812 172.411 113.431 171.728L114.279 172.72C113.895 173.168 113.415 173.509 112.839 173.744C112.274 173.979 111.639 174.096 110.935 174.096C110.039 174.096 109.244 173.915 108.551 173.552C107.858 173.179 107.319 172.661 106.935 172C106.562 171.339 106.375 170.592 106.375 169.76C106.375 168.939 106.556 168.197 106.919 167.536C107.292 166.875 107.799 166.363 108.439 166C109.09 165.627 109.82 165.44 110.631 165.44C111.442 165.44 112.162 165.627 112.791 166C113.431 166.363 113.927 166.875 114.279 167.536C114.642 168.197 114.823 168.955 114.823 169.808ZM110.631 166.736C109.895 166.736 109.276 166.96 108.775 167.408C108.284 167.856 107.996 168.443 107.911 169.168H113.351C113.266 168.453 112.972 167.872 112.471 167.424C111.98 166.965 111.367 166.736 110.631 166.736ZM118.428 166.944C118.695 166.453 119.089 166.08 119.612 165.824C120.135 165.568 120.769 165.44 121.516 165.44V166.928C121.431 166.917 121.313 166.912 121.164 166.912C120.332 166.912 119.676 167.163 119.196 167.664C118.727 168.155 118.492 168.859 118.492 169.776V174H116.956V165.52H118.428V166.944ZM135.815 162.128V174H134.343V172.656C134.002 173.125 133.57 173.483 133.047 173.728C132.525 173.973 131.949 174.096 131.319 174.096C130.498 174.096 129.762 173.915 129.111 173.552C128.461 173.189 127.949 172.683 127.575 172.032C127.213 171.371 127.031 170.613 127.031 169.76C127.031 168.907 127.213 168.155 127.575 167.504C127.949 166.853 128.461 166.347 129.111 165.984C129.762 165.621 130.498 165.44 131.319 165.44C131.927 165.44 132.487 165.557 132.999 165.792C133.511 166.016 133.938 166.352 134.279 166.8V162.128H135.815ZM131.447 172.752C131.981 172.752 132.466 172.629 132.903 172.384C133.341 172.128 133.682 171.776 133.927 171.328C134.173 170.869 134.295 170.347 134.295 169.76C134.295 169.173 134.173 168.656 133.927 168.208C133.682 167.749 133.341 167.397 132.903 167.152C132.466 166.907 131.981 166.784 131.447 166.784C130.903 166.784 130.413 166.907 129.975 167.152C129.549 167.397 129.207 167.749 128.951 168.208C128.706 168.656 128.583 169.173 128.583 169.76C128.583 170.347 128.706 170.869 128.951 171.328C129.207 171.776 129.549 172.128 129.975 172.384C130.413 172.629 130.903 172.752 131.447 172.752ZM141.81 165.44C142.983 165.44 143.879 165.728 144.498 166.304C145.127 166.88 145.442 167.739 145.442 168.88V174H143.986V172.88C143.73 173.275 143.362 173.579 142.882 173.792C142.412 173.995 141.852 174.096 141.202 174.096C140.252 174.096 139.49 173.867 138.914 173.408C138.348 172.949 138.066 172.347 138.066 171.6C138.066 170.853 138.338 170.256 138.882 169.808C139.426 169.349 140.29 169.12 141.474 169.12H143.906V168.816C143.906 168.155 143.714 167.648 143.33 167.296C142.946 166.944 142.38 166.768 141.634 166.768C141.132 166.768 140.642 166.853 140.162 167.024C139.682 167.184 139.276 167.403 138.946 167.68L138.306 166.528C138.743 166.176 139.266 165.909 139.874 165.728C140.482 165.536 141.127 165.44 141.81 165.44ZM141.458 172.912C142.044 172.912 142.551 172.784 142.978 172.528C143.404 172.261 143.714 171.888 143.906 171.408V170.224H141.538C140.236 170.224 139.586 170.661 139.586 171.536C139.586 171.963 139.751 172.299 140.082 172.544C140.412 172.789 140.871 172.912 141.458 172.912ZM150.716 174.096C150.023 174.096 149.356 174.005 148.716 173.824C148.076 173.632 147.575 173.392 147.212 173.104L147.852 171.888C148.225 172.155 148.679 172.368 149.212 172.528C149.745 172.688 150.284 172.768 150.828 172.768C152.172 172.768 152.844 172.384 152.844 171.616C152.844 171.36 152.753 171.157 152.572 171.008C152.391 170.859 152.161 170.752 151.884 170.688C151.617 170.613 151.233 170.533 150.732 170.448C150.049 170.341 149.489 170.219 149.052 170.08C148.625 169.941 148.257 169.707 147.948 169.376C147.639 169.045 147.484 168.581 147.484 167.984C147.484 167.216 147.804 166.603 148.444 166.144C149.084 165.675 149.943 165.44 151.02 165.44C151.585 165.44 152.151 165.509 152.716 165.648C153.281 165.787 153.745 165.973 154.108 166.208L153.452 167.424C152.759 166.976 151.943 166.752 151.004 166.752C150.353 166.752 149.857 166.859 149.516 167.072C149.175 167.285 149.004 167.568 149.004 167.92C149.004 168.197 149.1 168.416 149.292 168.576C149.484 168.736 149.719 168.853 149.996 168.928C150.284 169.003 150.684 169.088 151.196 169.184C151.879 169.301 152.428 169.429 152.844 169.568C153.271 169.696 153.633 169.92 153.932 170.24C154.231 170.56 154.38 171.008 154.38 171.584C154.38 172.352 154.049 172.965 153.388 173.424C152.737 173.872 151.847 174.096 150.716 174.096ZM160.828 165.44C161.905 165.44 162.758 165.755 163.388 166.384C164.028 167.003 164.348 167.915 164.348 169.12V174H162.812V169.296C162.812 168.475 162.614 167.856 162.22 167.44C161.825 167.024 161.26 166.816 160.524 166.816C159.692 166.816 159.036 167.061 158.556 167.552C158.076 168.032 157.836 168.725 157.836 169.632V174H156.3V162.128H157.836V166.72C158.156 166.315 158.572 166 159.084 165.776C159.606 165.552 160.188 165.44 160.828 165.44ZM171.686 165.44C172.508 165.44 173.244 165.621 173.894 165.984C174.545 166.347 175.052 166.853 175.414 167.504C175.788 168.155 175.974 168.907 175.974 169.76C175.974 170.613 175.788 171.371 175.414 172.032C175.052 172.683 174.545 173.189 173.894 173.552C173.244 173.915 172.508 174.096 171.686 174.096C171.057 174.096 170.481 173.973 169.958 173.728C169.436 173.483 169.004 173.125 168.662 172.656V174H167.19V162.128H168.726V166.8C169.068 166.352 169.494 166.016 170.006 165.792C170.518 165.557 171.078 165.44 171.686 165.44ZM171.558 172.752C172.102 172.752 172.588 172.629 173.014 172.384C173.452 172.128 173.793 171.776 174.038 171.328C174.294 170.869 174.422 170.347 174.422 169.76C174.422 169.173 174.294 168.656 174.038 168.208C173.793 167.749 173.452 167.397 173.014 167.152C172.588 166.907 172.102 166.784 171.558 166.784C171.025 166.784 170.54 166.907 170.102 167.152C169.665 167.397 169.324 167.749 169.078 168.208C168.833 168.656 168.71 169.173 168.71 169.76C168.71 170.347 168.833 170.869 169.078 171.328C169.324 171.776 169.665 172.128 170.102 172.384C170.54 172.629 171.025 172.752 171.558 172.752ZM181.729 174.096C180.886 174.096 180.129 173.909 179.457 173.536C178.785 173.163 178.257 172.651 177.873 172C177.499 171.339 177.313 170.592 177.313 169.76C177.313 168.928 177.499 168.187 177.873 167.536C178.257 166.875 178.785 166.363 179.457 166C180.129 165.627 180.886 165.44 181.729 165.44C182.571 165.44 183.323 165.627 183.985 166C184.657 166.363 185.179 166.875 185.553 167.536C185.937 168.187 186.129 168.928 186.129 169.76C186.129 170.592 185.937 171.339 185.553 172C185.179 172.651 184.657 173.163 183.985 173.536C183.323 173.909 182.571 174.096 181.729 174.096ZM181.729 172.752C182.273 172.752 182.758 172.629 183.185 172.384C183.622 172.128 183.963 171.776 184.209 171.328C184.454 170.869 184.577 170.347 184.577 169.76C184.577 169.173 184.454 168.656 184.209 168.208C183.963 167.749 183.622 167.397 183.185 167.152C182.758 166.907 182.273 166.784 181.729 166.784C181.185 166.784 180.694 166.907 180.257 167.152C179.83 167.397 179.489 167.749 179.233 168.208C178.987 168.656 178.865 169.173 178.865 169.76C178.865 170.347 178.987 170.869 179.233 171.328C179.489 171.776 179.83 172.128 180.257 172.384C180.694 172.629 181.185 172.752 181.729 172.752ZM191.263 165.44C192.436 165.44 193.332 165.728 193.951 166.304C194.58 166.88 194.895 167.739 194.895 168.88V174H193.439V172.88C193.183 173.275 192.815 173.579 192.335 173.792C191.865 173.995 191.305 174.096 190.655 174.096C189.705 174.096 188.943 173.867 188.367 173.408C187.801 172.949 187.519 172.347 187.519 171.6C187.519 170.853 187.791 170.256 188.335 169.808C188.879 169.349 189.743 169.12 190.927 169.12H193.359V168.816C193.359 168.155 193.167 167.648 192.783 167.296C192.399 166.944 191.833 166.768 191.087 166.768C190.585 166.768 190.095 166.853 189.615 167.024C189.135 167.184 188.729 167.403 188.399 167.68L187.759 166.528C188.196 166.176 188.719 165.909 189.327 165.728C189.935 165.536 190.58 165.44 191.263 165.44ZM190.911 172.912C191.497 172.912 192.004 172.784 192.431 172.528C192.857 172.261 193.167 171.888 193.359 171.408V170.224H190.991C189.689 170.224 189.039 170.661 189.039 171.536C189.039 171.963 189.204 172.299 189.535 172.544C189.865 172.789 190.324 172.912 190.911 172.912ZM199.209 166.944C199.476 166.453 199.871 166.08 200.393 165.824C200.916 165.568 201.551 165.44 202.297 165.44V166.928C202.212 166.917 202.095 166.912 201.945 166.912C201.113 166.912 200.457 167.163 199.977 167.664C199.508 168.155 199.273 168.859 199.273 169.776V174H197.737V165.52H199.209V166.944ZM212.112 162.128V174H210.64V172.656C210.299 173.125 209.867 173.483 209.344 173.728C208.822 173.973 208.246 174.096 207.616 174.096C206.795 174.096 206.059 173.915 205.408 173.552C204.758 173.189 204.246 172.683 203.872 172.032C203.51 171.371 203.328 170.613 203.328 169.76C203.328 168.907 203.51 168.155 203.872 167.504C204.246 166.853 204.758 166.347 205.408 165.984C206.059 165.621 206.795 165.44 207.616 165.44C208.224 165.44 208.784 165.557 209.296 165.792C209.808 166.016 210.235 166.352 210.576 166.8V162.128H212.112ZM207.744 172.752C208.278 172.752 208.763 172.629 209.2 172.384C209.638 172.128 209.979 171.776 210.224 171.328C210.47 170.869 210.592 170.347 210.592 169.76C210.592 169.173 210.47 168.656 210.224 168.208C209.979 167.749 209.638 167.397 209.2 167.152C208.763 166.907 208.278 166.784 207.744 166.784C207.2 166.784 206.71 166.907 206.272 167.152C205.846 167.397 205.504 167.749 205.248 168.208C205.003 168.656 204.88 169.173 204.88 169.76C204.88 170.347 205.003 170.869 205.248 171.328C205.504 171.776 205.846 172.128 206.272 172.384C206.71 172.629 207.2 172.752 207.744 172.752Z" fill="#434343"/>
<path d="M103.312 298.8V310H101.712V305.008H95.28V310H93.68V298.8H95.28V303.616H101.712V298.8H103.312ZM114.344 301.52V310H112.888V308.72C112.579 309.157 112.168 309.499 111.656 309.744C111.155 309.979 110.606 310.096 110.008 310.096C108.878 310.096 107.987 309.787 107.336 309.168C106.686 308.539 106.36 307.616 106.36 306.4V301.52H107.896V306.224C107.896 307.045 108.094 307.669 108.488 308.096C108.883 308.512 109.448 308.72 110.184 308.72C110.995 308.72 111.635 308.475 112.104 307.984C112.574 307.493 112.808 306.8 112.808 305.904V301.52H114.344ZM121.765 301.44C122.586 301.44 123.322 301.621 123.973 301.984C124.623 302.347 125.13 302.853 125.493 303.504C125.866 304.155 126.053 304.907 126.053 305.76C126.053 306.613 125.866 307.371 125.493 308.032C125.13 308.683 124.623 309.189 123.973 309.552C123.322 309.915 122.586 310.096 121.765 310.096C121.135 310.096 120.559 309.973 120.036 309.728C119.514 309.483 119.082 309.125 118.741 308.656V310H117.269V298.128H118.805V302.8C119.146 302.352 119.573 302.016 120.085 301.792C120.597 301.557 121.157 301.44 121.765 301.44ZM121.637 308.752C122.181 308.752 122.666 308.629 123.093 308.384C123.53 308.128 123.871 307.776 124.117 307.328C124.373 306.869 124.501 306.347 124.501 305.76C124.501 305.173 124.373 304.656 124.117 304.208C123.871 303.749 123.53 303.397 123.093 303.152C122.666 302.907 122.181 302.784 121.637 302.784C121.103 302.784 120.618 302.907 120.181 303.152C119.743 303.397 119.402 303.749 119.157 304.208C118.911 304.656 118.789 305.173 118.789 305.76C118.789 306.347 118.911 306.869 119.157 307.328C119.402 307.776 119.743 308.128 120.181 308.384C120.618 308.629 121.103 308.752 121.637 308.752ZM130.607 310.096C129.913 310.096 129.247 310.005 128.607 309.824C127.967 309.632 127.465 309.392 127.103 309.104L127.743 307.888C128.116 308.155 128.569 308.368 129.103 308.528C129.636 308.688 130.175 308.768 130.719 308.768C132.063 308.768 132.735 308.384 132.735 307.616C132.735 307.36 132.644 307.157 132.463 307.008C132.281 306.859 132.052 306.752 131.775 306.688C131.508 306.613 131.124 306.533 130.623 306.448C129.94 306.341 129.38 306.219 128.943 306.08C128.516 305.941 128.148 305.707 127.839 305.376C127.529 305.045 127.375 304.581 127.375 303.984C127.375 303.216 127.695 302.603 128.335 302.144C128.975 301.675 129.833 301.44 130.911 301.44C131.476 301.44 132.041 301.509 132.607 301.648C133.172 301.787 133.636 301.973 133.999 302.208L133.343 303.424C132.649 302.976 131.833 302.752 130.895 302.752C130.244 302.752 129.748 302.859 129.407 303.072C129.065 303.285 128.895 303.568 128.895 303.92C128.895 304.197 128.991 304.416 129.183 304.576C129.375 304.736 129.609 304.853 129.887 304.928C130.175 305.003 130.575 305.088 131.087 305.184C131.769 305.301 132.319 305.429 132.735 305.568C133.161 305.696 133.524 305.92 133.823 306.24C134.121 306.56 134.271 307.008 134.271 307.584C134.271 308.352 133.94 308.965 133.279 309.424C132.628 309.872 131.737 310.096 130.607 310.096ZM140.686 301.44C141.508 301.44 142.244 301.621 142.894 301.984C143.545 302.347 144.052 302.853 144.414 303.504C144.788 304.155 144.974 304.907 144.974 305.76C144.974 306.613 144.788 307.371 144.414 308.032C144.052 308.683 143.545 309.189 142.894 309.552C142.244 309.915 141.508 310.096 140.686 310.096C140.078 310.096 139.518 309.979 139.006 309.744C138.505 309.509 138.078 309.168 137.726 308.72V313.104H136.19V301.52H137.662V302.864C138.004 302.395 138.436 302.043 138.958 301.808C139.481 301.563 140.057 301.44 140.686 301.44ZM140.558 308.752C141.102 308.752 141.588 308.629 142.014 308.384C142.452 308.128 142.793 307.776 143.038 307.328C143.294 306.869 143.422 306.347 143.422 305.76C143.422 305.173 143.294 304.656 143.038 304.208C142.793 303.749 142.452 303.397 142.014 303.152C141.588 302.907 141.102 302.784 140.558 302.784C140.025 302.784 139.54 302.912 139.102 303.168C138.676 303.413 138.334 303.76 138.078 304.208C137.833 304.656 137.71 305.173 137.71 305.76C137.71 306.347 137.833 306.869 138.078 307.328C138.324 307.776 138.665 308.128 139.102 308.384C139.54 308.629 140.025 308.752 140.558 308.752ZM150.729 310.096C149.886 310.096 149.129 309.909 148.457 309.536C147.785 309.163 147.257 308.651 146.873 308C146.499 307.339 146.313 306.592 146.313 305.76C146.313 304.928 146.499 304.187 146.873 303.536C147.257 302.875 147.785 302.363 148.457 302C149.129 301.627 149.886 301.44 150.729 301.44C151.571 301.44 152.323 301.627 152.985 302C153.657 302.363 154.179 302.875 154.553 303.536C154.937 304.187 155.129 304.928 155.129 305.76C155.129 306.592 154.937 307.339 154.553 308C154.179 308.651 153.657 309.163 152.985 309.536C152.323 309.909 151.571 310.096 150.729 310.096ZM150.729 308.752C151.273 308.752 151.758 308.629 152.185 308.384C152.622 308.128 152.963 307.776 153.209 307.328C153.454 306.869 153.577 306.347 153.577 305.76C153.577 305.173 153.454 304.656 153.209 304.208C152.963 303.749 152.622 303.397 152.185 303.152C151.758 302.907 151.273 302.784 150.729 302.784C150.185 302.784 149.694 302.907 149.257 303.152C148.83 303.397 148.489 303.749 148.233 304.208C147.987 304.656 147.865 305.173 147.865 305.76C147.865 306.347 147.987 306.869 148.233 307.328C148.489 307.776 148.83 308.128 149.257 308.384C149.694 308.629 150.185 308.752 150.729 308.752ZM162.021 309.504C161.797 309.696 161.52 309.845 161.189 309.952C160.858 310.048 160.517 310.096 160.165 310.096C159.312 310.096 158.65 309.867 158.181 309.408C157.712 308.949 157.477 308.293 157.477 307.44V302.784H156.037V301.52H157.477V299.664H159.013V301.52H161.445V302.784H159.013V307.376C159.013 307.835 159.125 308.187 159.349 308.432C159.584 308.677 159.914 308.8 160.341 308.8C160.81 308.8 161.21 308.667 161.541 308.4L162.021 309.504Z" fill="#434343"/>
<path d="M428.68 162.8H433.4C434.584 162.8 435.635 163.035 436.552 163.504C437.469 163.973 438.179 164.635 438.68 165.488C439.192 166.331 439.448 167.301 439.448 168.4C439.448 169.499 439.192 170.475 438.68 171.328C438.179 172.171 437.469 172.827 436.552 173.296C435.635 173.765 434.584 174 433.4 174H428.68V162.8ZM433.304 172.608C434.211 172.608 435.005 172.432 435.688 172.08C436.381 171.728 436.915 171.237 437.288 170.608C437.661 169.968 437.848 169.232 437.848 168.4C437.848 167.568 437.661 166.837 437.288 166.208C436.915 165.568 436.381 165.072 435.688 164.72C435.005 164.368 434.211 164.192 433.304 164.192H430.28V172.608H433.304ZM441.868 177.2C441.495 177.2 441.148 177.157 440.828 177.072C440.508 176.987 440.241 176.859 440.028 176.688L440.524 175.504C440.844 175.771 441.26 175.904 441.772 175.904C442.177 175.904 442.487 175.776 442.7 175.52C442.924 175.275 443.036 174.907 443.036 174.416V165.52H444.572V174.384C444.572 175.259 444.337 175.947 443.868 176.448C443.399 176.949 442.732 177.2 441.868 177.2ZM443.804 163.888C443.505 163.888 443.255 163.792 443.052 163.6C442.86 163.408 442.764 163.173 442.764 162.896C442.764 162.619 442.86 162.384 443.052 162.192C443.255 161.989 443.505 161.888 443.804 161.888C444.103 161.888 444.348 161.984 444.54 162.176C444.743 162.357 444.844 162.587 444.844 162.864C444.844 163.152 444.743 163.397 444.54 163.6C444.348 163.792 444.103 163.888 443.804 163.888ZM450.591 165.44C451.764 165.44 452.66 165.728 453.279 166.304C453.908 166.88 454.223 167.739 454.223 168.88V174H452.767V172.88C452.511 173.275 452.143 173.579 451.663 173.792C451.194 173.995 450.634 174.096 449.983 174.096C449.034 174.096 448.271 173.867 447.695 173.408C447.13 172.949 446.847 172.347 446.847 171.6C446.847 170.853 447.119 170.256 447.663 169.808C448.207 169.349 449.071 169.12 450.255 169.12H452.687V168.816C452.687 168.155 452.495 167.648 452.111 167.296C451.727 166.944 451.162 166.768 450.415 166.768C449.914 166.768 449.423 166.853 448.943 167.024C448.463 167.184 448.058 167.403 447.727 167.68L447.087 166.528C447.524 166.176 448.047 165.909 448.655 165.728C449.263 165.536 449.908 165.44 450.591 165.44ZM450.239 172.912C450.826 172.912 451.332 172.784 451.759 172.528C452.186 172.261 452.495 171.888 452.687 171.408V170.224H450.319C449.018 170.224 448.367 170.661 448.367 171.536C448.367 171.963 448.532 172.299 448.863 172.544C449.194 172.789 449.652 172.912 450.239 172.912ZM461.593 165.44C462.671 165.44 463.524 165.755 464.153 166.384C464.793 167.003 465.113 167.915 465.113 169.12V174H463.577V169.296C463.577 168.475 463.38 167.856 462.985 167.44C462.591 167.024 462.025 166.816 461.289 166.816C460.457 166.816 459.801 167.061 459.321 167.552C458.841 168.032 458.601 168.725 458.601 169.632V174H457.065V165.52H458.537V166.8C458.847 166.363 459.263 166.027 459.785 165.792C460.319 165.557 460.921 165.44 461.593 165.44ZM476.115 165.52V172.848C476.115 174.331 475.747 175.424 475.011 176.128C474.275 176.843 473.176 177.2 471.715 177.2C470.915 177.2 470.152 177.088 469.427 176.864C468.702 176.651 468.115 176.341 467.667 175.936L468.403 174.752C468.798 175.093 469.283 175.36 469.859 175.552C470.446 175.755 471.048 175.856 471.667 175.856C472.659 175.856 473.39 175.621 473.859 175.152C474.339 174.683 474.579 173.968 474.579 173.008V172.336C474.216 172.773 473.768 173.104 473.235 173.328C472.712 173.541 472.142 173.648 471.523 173.648C470.712 173.648 469.976 173.477 469.315 173.136C468.664 172.784 468.152 172.299 467.779 171.68C467.406 171.051 467.219 170.336 467.219 169.536C467.219 168.736 467.406 168.027 467.779 167.408C468.152 166.779 468.664 166.293 469.315 165.952C469.976 165.611 470.712 165.44 471.523 165.44C472.163 165.44 472.755 165.557 473.299 165.792C473.854 166.027 474.307 166.373 474.659 166.832V165.52H476.115ZM471.699 172.304C472.254 172.304 472.75 172.187 473.187 171.952C473.635 171.717 473.982 171.392 474.227 170.976C474.483 170.549 474.611 170.069 474.611 169.536C474.611 168.715 474.339 168.053 473.795 167.552C473.251 167.04 472.552 166.784 471.699 166.784C470.835 166.784 470.131 167.04 469.587 167.552C469.043 168.053 468.771 168.715 468.771 169.536C468.771 170.069 468.894 170.549 469.139 170.976C469.395 171.392 469.742 171.717 470.179 171.952C470.627 172.187 471.134 172.304 471.699 172.304ZM482.682 174.096C481.839 174.096 481.082 173.909 480.41 173.536C479.738 173.163 479.21 172.651 478.826 172C478.452 171.339 478.266 170.592 478.266 169.76C478.266 168.928 478.452 168.187 478.826 167.536C479.21 166.875 479.738 166.363 480.41 166C481.082 165.627 481.839 165.44 482.682 165.44C483.524 165.44 484.276 165.627 484.938 166C485.61 166.363 486.132 166.875 486.506 167.536C486.89 168.187 487.082 168.928 487.082 169.76C487.082 170.592 486.89 171.339 486.506 172C486.132 172.651 485.61 173.163 484.938 173.536C484.276 173.909 483.524 174.096 482.682 174.096ZM482.682 172.752C483.226 172.752 483.711 172.629 484.138 172.384C484.575 172.128 484.916 171.776 485.162 171.328C485.407 170.869 485.53 170.347 485.53 169.76C485.53 169.173 485.407 168.656 485.162 168.208C484.916 167.749 484.575 167.397 484.138 167.152C483.711 166.907 483.226 166.784 482.682 166.784C482.138 166.784 481.647 166.907 481.21 167.152C480.783 167.397 480.442 167.749 480.186 168.208C479.94 168.656 479.818 169.173 479.818 169.76C479.818 170.347 479.94 170.869 480.186 171.328C480.442 171.776 480.783 172.128 481.21 172.384C481.647 172.629 482.138 172.752 482.682 172.752ZM496.719 175.6L491.439 160.528H492.831L498.111 175.6H496.719ZM519.473 162.8L515.729 174H514.049L510.993 165.056L507.937 174H506.225L502.481 162.8H504.129L507.153 171.904L510.305 162.8H511.777L514.865 171.952L517.953 162.8H519.473ZM528.229 169.808C528.229 169.925 528.219 170.08 528.197 170.272H521.317C521.413 171.019 521.739 171.621 522.293 172.08C522.859 172.528 523.557 172.752 524.389 172.752C525.403 172.752 526.219 172.411 526.837 171.728L527.685 172.72C527.301 173.168 526.821 173.509 526.245 173.744C525.68 173.979 525.045 174.096 524.341 174.096C523.445 174.096 522.651 173.915 521.957 173.552C521.264 173.179 520.725 172.661 520.341 172C519.968 171.339 519.781 170.592 519.781 169.76C519.781 168.939 519.963 168.197 520.325 167.536C520.699 166.875 521.205 166.363 521.845 166C522.496 165.627 523.227 165.44 524.037 165.44C524.848 165.44 525.568 165.627 526.197 166C526.837 166.363 527.333 166.875 527.685 167.536C528.048 168.197 528.229 168.955 528.229 169.808ZM524.037 166.736C523.301 166.736 522.683 166.96 522.181 167.408C521.691 167.856 521.403 168.443 521.317 169.168H526.757C526.672 168.453 526.379 167.872 525.877 167.424C525.387 166.965 524.773 166.736 524.037 166.736ZM534.858 165.44C535.68 165.44 536.416 165.621 537.066 165.984C537.717 166.347 538.224 166.853 538.586 167.504C538.96 168.155 539.146 168.907 539.146 169.76C539.146 170.613 538.96 171.371 538.586 172.032C538.224 172.683 537.717 173.189 537.066 173.552C536.416 173.915 535.68 174.096 534.858 174.096C534.229 174.096 533.653 173.973 533.13 173.728C532.608 173.483 532.176 173.125 531.834 172.656V174H530.362V162.128H531.898V166.8C532.24 166.352 532.666 166.016 533.178 165.792C533.69 165.557 534.25 165.44 534.858 165.44ZM534.73 172.752C535.274 172.752 535.76 172.629 536.186 172.384C536.624 172.128 536.965 171.776 537.21 171.328C537.466 170.869 537.594 170.347 537.594 169.76C537.594 169.173 537.466 168.656 537.21 168.208C536.965 167.749 536.624 167.397 536.186 167.152C535.76 166.907 535.274 166.784 534.73 166.784C534.197 166.784 533.712 166.907 533.274 167.152C532.837 167.397 532.496 167.749 532.25 168.208C532.005 168.656 531.882 169.173 531.882 169.76C531.882 170.347 532.005 170.869 532.25 171.328C532.496 171.776 532.837 172.128 533.274 172.384C533.712 172.629 534.197 172.752 534.73 172.752ZM543.701 174.096C543.007 174.096 542.341 174.005 541.701 173.824C541.061 173.632 540.559 173.392 540.197 173.104L540.837 171.888C541.21 172.155 541.663 172.368 542.197 172.528C542.73 172.688 543.269 172.768 543.812 172.768C545.157 172.768 545.829 172.384 545.829 171.616C545.829 171.36 545.738 171.157 545.557 171.008C545.375 170.859 545.146 170.752 544.869 170.688C544.602 170.613 544.218 170.533 543.717 170.448C543.034 170.341 542.474 170.219 542.037 170.08C541.61 169.941 541.242 169.707 540.933 169.376C540.623 169.045 540.469 168.581 540.469 167.984C540.469 167.216 540.789 166.603 541.429 166.144C542.069 165.675 542.927 165.44 544.005 165.44C544.57 165.44 545.135 165.509 545.701 165.648C546.266 165.787 546.73 165.973 547.093 166.208L546.437 167.424C545.743 166.976 544.927 166.752 543.989 166.752C543.338 166.752 542.842 166.859 542.501 167.072C542.159 167.285 541.989 167.568 541.989 167.92C541.989 168.197 542.085 168.416 542.277 168.576C542.469 168.736 542.703 168.853 542.981 168.928C543.269 169.003 543.669 169.088 544.181 169.184C544.863 169.301 545.413 169.429 545.829 169.568C546.255 169.696 546.618 169.92 546.917 170.24C547.215 170.56 547.365 171.008 547.365 171.584C547.365 172.352 547.034 172.965 546.373 173.424C545.722 173.872 544.831 174.096 543.701 174.096ZM549.284 165.52H550.82V174H549.284V165.52ZM550.052 163.888C549.753 163.888 549.503 163.792 549.3 163.6C549.108 163.408 549.012 163.173 549.012 162.896C549.012 162.619 549.108 162.384 549.3 162.192C549.503 161.989 549.753 161.888 550.052 161.888C550.351 161.888 550.596 161.984 550.788 162.176C550.991 162.357 551.092 162.587 551.092 162.864C551.092 163.152 550.991 163.397 550.788 163.6C550.596 163.792 550.351 163.888 550.052 163.888ZM558.521 173.504C558.297 173.696 558.02 173.845 557.689 173.952C557.358 174.048 557.017 174.096 556.665 174.096C555.812 174.096 555.15 173.867 554.681 173.408C554.212 172.949 553.977 172.293 553.977 171.44V166.784H552.537V165.52H553.977V163.664H555.513V165.52H557.945V166.784H555.513V171.376C555.513 171.835 555.625 172.187 555.849 172.432C556.084 172.677 556.414 172.8 556.841 172.8C557.31 172.8 557.71 172.667 558.041 172.4L558.521 173.504ZM567.761 169.808C567.761 169.925 567.75 170.08 567.729 170.272H560.849C560.945 171.019 561.27 171.621 561.825 172.08C562.39 172.528 563.089 172.752 563.921 172.752C564.934 172.752 565.75 172.411 566.369 171.728L567.217 172.72C566.833 173.168 566.353 173.509 565.777 173.744C565.211 173.979 564.577 174.096 563.873 174.096C562.977 174.096 562.182 173.915 561.489 173.552C560.795 173.179 560.257 172.661 559.873 172C559.499 171.339 559.313 170.592 559.313 169.76C559.313 168.939 559.494 168.197 559.857 167.536C560.23 166.875 560.737 166.363 561.377 166C562.027 165.627 562.758 165.44 563.569 165.44C564.379 165.44 565.099 165.627 565.729 166C566.369 166.363 566.865 166.875 567.217 167.536C567.579 168.197 567.761 168.955 567.761 169.808ZM563.569 166.736C562.833 166.736 562.214 166.96 561.713 167.408C561.222 167.856 560.934 168.443 560.849 169.168H566.289C566.203 168.453 565.91 167.872 565.409 167.424C564.918 166.965 564.305 166.736 563.569 166.736Z" fill="#434343"/>
<rect x="0.5" y="0.5" width="255" height="63" rx="7.5" stroke="#FF6B00"/>
<rect x="0.5" y="136.5" width="255" height="63" rx="7.5" stroke="#FF6B00"/>
<rect x="0.5" y="272.5" width="255" height="63" rx="7.5" stroke="#FF6B00"/>
<rect x="370.5" y="136.5" width="249" height="62" rx="7.5" stroke="#FF6B00"/>
<path fill-rule="evenodd" clip-rule="evenodd" d="M268 308H298C302.418 308 306 304.418 306 300V40C306 35.5817 302.418 32 298 32H268V33H298C301.866 33 305 36.134 305 40V300C305 303.866 301.866 307 298 307H268V308Z" fill="#CBCBCB"/>
<rect x="306" y="167" width="53" height="1" fill="#C4C4C4"/>
<rect x="129" y="127" width="53" height="1" transform="rotate(-90 129 127)" fill="#C4C4C4"/>
<rect x="129" y="266" width="53" height="1" transform="rotate(-90 129 266)" fill="#C4C4C4"/>
<path d="M266.868 36.8851L261.357 33.3744C260.895 33.0805 260.878 32.3871 261.324 32.0688L266.836 28.1367C267.33 27.7844 268 28.1539 268 28.7786L268 36.2215C268 36.8282 267.364 37.201 266.868 36.8851Z" fill="#787878"/>
<path d="M266.868 311.885L261.357 308.374C260.895 308.081 260.878 307.387 261.324 307.069L266.836 303.137C267.33 302.784 268 303.154 268 303.779L268 311.221C268 311.828 267.364 312.201 266.868 311.885Z" fill="#787878"/>
<path d="M358.132 163.115L363.643 166.626C364.105 166.919 364.122 167.613 363.676 167.931L358.164 171.863C357.67 172.216 357 171.846 357 171.221L357 163.779C357 163.172 357.636 162.799 358.132 163.115Z" fill="#787878"/>
<path d="M125.115 74.8685L128.626 69.3567C128.919 68.8954 129.613 68.8782 129.931 69.3245L133.863 74.8362C134.216 75.3301 133.846 76 133.221 76L125.779 76C125.172 76 124.799 75.3644 125.115 74.8685Z" fill="#787878"/>
<path d="M125.115 213.868L128.626 208.357C128.919 207.895 129.613 207.878 129.931 208.324L133.863 213.836C134.216 214.33 133.846 215 133.221 215H125.779C125.172 215 124.799 214.364 125.115 213.868Z" fill="#787878"/>
<path d="M133.885 122.132L130.374 127.643C130.081 128.105 129.387 128.122 129.069 127.676L125.137 122.164C124.784 121.67 125.154 121 125.779 121L133.221 121C133.828 121 134.201 121.636 133.885 122.132Z" fill="#787878"/>
<path d="M133.885 261.132L130.374 266.643C130.081 267.105 129.387 267.122 129.069 266.676L125.137 261.164C124.784 260.67 125.154 260 125.779 260L133.221 260C133.828 260 134.201 260.636 133.885 261.132Z" fill="#787878"/>
</svg>
