<svg xmlns="http://www.w3.org/2000/svg" xmlns:xlink="http://www.w3.org/1999/xlink" width="620" height="336" fill="none" xmlns:v="https://vecta.io/nano"><g fill="#434343"><path d="M73.944 38.128c-.843 0-1.659-.128-2.448-.384-.779-.267-1.392-.608-1.84-1.024l.592-1.248c.427.384.971.699 1.632.944.672.235 1.36.352 2.064.352.928 0 1.621-.155 2.08-.464.459-.32.688-.741.688-1.264 0-.384-.128-.693-.384-.928a2.38 2.38 0 0 0-.928-.56c-.363-.128-.88-.272-1.552-.432-.843-.203-1.525-.405-2.048-.608a3.49 3.49 0 0 1-1.328-.928c-.363-.427-.544-.997-.544-1.712a2.92 2.92 0 0 1 .464-1.616c.32-.48.8-.864 1.44-1.152s1.435-.432 2.384-.432c.661 0 1.312.085 1.952.256s1.189.416 1.648.736l-.528 1.28c-.469-.299-.971-.523-1.504-.672a5.44 5.44 0 0 0-1.568-.24c-.907 0-1.589.165-2.048.496-.448.331-.672.757-.672 1.28 0 .384.128.699.384.944.256.235.571.421.944.56.384.128.901.267 1.552.416.843.203 1.52.405 2.032.608s.949.512 1.312.928c.373.416.56.976.56 1.68a2.9 2.9 0 0 1-.48 1.616c-.32.48-.805.864-1.456 1.152-.651.277-1.451.416-2.4.416zM84.89 29.44c.821 0 1.557.181 2.208.544a3.86 3.86 0 0 1 1.52 1.52c.373.651.56 1.403.56 2.256s-.187 1.611-.56 2.272a3.86 3.86 0 0 1-1.52 1.52c-.651.363-1.387.544-2.208.544-.608 0-1.168-.117-1.68-.352-.501-.235-.928-.576-1.28-1.024v4.384h-1.536V29.52h1.472v1.344c.341-.469.773-.821 1.296-1.056.523-.245 1.099-.368 1.728-.368zm-.128 7.312c.544 0 1.029-.123 1.456-.368.437-.256.779-.608 1.024-1.056.256-.459.384-.981.384-1.568s-.128-1.104-.384-1.552a2.57 2.57 0 0 0-1.024-1.056c-.427-.245-.912-.368-1.456-.368a2.83 2.83 0 0 0-1.456.384 2.74 2.74 0 0 0-1.024 1.04c-.245.448-.368.965-.368 1.552s.123 1.109.368 1.568c.245.448.587.8 1.024 1.056.437.245.923.368 1.456.368zm14.202-2.944a4.41 4.41 0 0 1-.032.464h-6.88c.096.747.421 1.349.976 1.808.565.448 1.264.672 2.096.672 1.013 0 1.829-.341 2.448-1.024l.848.992c-.384.448-.864.789-1.44 1.024-.565.235-1.2.352-1.904.352-.896 0-1.691-.181-2.384-.544-.693-.373-1.232-.891-1.616-1.552-.373-.661-.56-1.408-.56-2.24 0-.821.181-1.563.544-2.224A3.97 3.97 0 0 1 92.58 30c.651-.373 1.381-.56 2.192-.56s1.531.187 2.16.56c.64.363 1.136.875 1.488 1.536.363.661.544 1.419.544 2.272zm-4.192-3.072c-.736 0-1.355.224-1.856.672-.491.448-.779 1.035-.864 1.76h5.44c-.085-.715-.379-1.296-.88-1.744-.491-.459-1.104-.688-1.84-.688zm9.178-1.296c1.174 0 2.07.288 2.688.864.63.576.944 1.435.944 2.576V38h-1.456v-1.12a2.47 2.47 0 0 1-1.104.912c-.469.203-1.029.304-1.68.304-.949 0-1.712-.229-2.288-.688-.565-.459-.848-1.061-.848-1.808s.272-1.344.816-1.792c.544-.459 1.408-.688 2.592-.688h2.432v-.304c0-.661-.192-1.168-.576-1.52s-.949-.528-1.696-.528c-.501 0-.992.085-1.472.256-.48.16-.885.379-1.216.656l-.64-1.152c.438-.352.96-.619 1.568-.8.608-.192 1.254-.288 1.936-.288zm-.352 7.472c.587 0 1.094-.128 1.52-.384.427-.267.736-.64.928-1.12v-1.184h-2.368c-1.301 0-1.952.437-1.952 1.312 0 .427.166.763.496 1.008s.79.368 1.376.368zm10.123-2.864l-1.76 1.632V38h-1.536V26.128h1.536v7.616l4.624-4.224h1.856l-3.568 3.504 3.92 4.976h-1.888l-3.184-3.952zm13.868-.24c0 .117-.011.272-.032.464h-6.88c.096.747.421 1.349.976 1.808.565.448 1.264.672 2.096.672 1.013 0 1.829-.341 2.448-1.024l.848.992c-.384.448-.864.789-1.44 1.024-.566.235-1.2.352-1.904.352-.896 0-1.691-.181-2.384-.544A4.04 4.04 0 0 1 119.701 36c-.374-.661-.56-1.408-.56-2.24 0-.821.181-1.563.544-2.224.373-.661.88-1.173 1.52-1.536.65-.373 1.381-.56 2.192-.56s1.53.187 2.16.56c.64.363 1.136.875 1.488 1.536.362.661.544 1.419.544 2.272zm-4.192-3.072c-.736 0-1.355.224-1.856.672-.491.448-.779 1.035-.864 1.76h5.44c-.086-.715-.379-1.296-.88-1.744-.491-.459-1.104-.688-1.84-.688zm7.797.208c.266-.491.661-.864 1.184-1.12s1.157-.384 1.904-.384v1.488c-.086-.011-.203-.016-.352-.016-.832 0-1.488.251-1.968.752-.47.491-.704 1.195-.704 2.112V38h-1.536v-8.48h1.472v1.424zm17.387-4.816V38h-1.472v-1.344a3.32 3.32 0 0 1-1.296 1.072c-.523.245-1.099.368-1.728.368-.821 0-1.557-.181-2.208-.544s-1.163-.869-1.536-1.52c-.363-.661-.544-1.419-.544-2.272s.181-1.605.544-2.256c.373-.651.885-1.157 1.536-1.52s1.387-.544 2.208-.544c.608 0 1.168.117 1.68.352.512.224.939.56 1.28 1.008v-4.672h1.536zm-4.368 10.624c.533 0 1.019-.123 1.456-.368.437-.256.779-.608 1.024-1.056.245-.459.368-.981.368-1.568s-.123-1.104-.368-1.552a2.57 2.57 0 0 0-1.024-1.056c-.437-.245-.923-.368-1.456-.368-.544 0-1.035.123-1.472.368-.427.245-.768.597-1.024 1.056-.245.448-.368.965-.368 1.552s.123 1.109.368 1.568a2.86 2.86 0 0 0 1.024 1.056c.437.245.928.368 1.472.368zm10.362-7.312c1.174 0 2.07.288 2.688.864.63.576.944 1.435.944 2.576V38h-1.456v-1.12a2.47 2.47 0 0 1-1.104.912c-.469.203-1.029.304-1.68.304-.949 0-1.712-.229-2.288-.688-.565-.459-.848-1.061-.848-1.808s.272-1.344.816-1.792c.544-.459 1.408-.688 2.592-.688h2.432v-.304c0-.661-.192-1.168-.576-1.52s-.949-.528-1.696-.528c-.501 0-.992.085-1.472.256-.48.16-.885.379-1.216.656l-.64-1.152c.438-.352.96-.619 1.568-.8.608-.192 1.254-.288 1.936-.288zm-.352 7.472c.587 0 1.094-.128 1.52-.384.427-.267.736-.64.928-1.12v-1.184h-2.368c-1.301 0-1.952.437-1.952 1.312 0 .427.166.763.496 1.008s.79.368 1.376.368zm11.595.592c-.224.192-.502.341-.832.448-.331.096-.672.144-1.024.144-.854 0-1.515-.229-1.984-.688s-.704-1.115-.704-1.968v-4.656h-1.44V29.52h1.44v-1.856h1.536v1.856h2.432v1.264h-2.432v4.592c0 .459.112.811.336 1.056.234.245.565.368.992.368.469 0 .869-.133 1.2-.4l.48 1.104zm4.945-8.064c1.173 0 2.069.288 2.688.864.629.576.944 1.435.944 2.576V38h-1.456v-1.12a2.47 2.47 0 0 1-1.104.912c-.47.203-1.03.304-1.68.304-.95 0-1.712-.229-2.288-.688a2.21 2.21 0 0 1-.848-1.808c0-.747.272-1.344.816-1.792.544-.459 1.408-.688 2.592-.688h2.432v-.304c0-.661-.192-1.168-.576-1.52s-.95-.528-1.696-.528a4.36 4.36 0 0 0-1.472.256c-.48.16-.886.379-1.216.656l-.64-1.152c.437-.352.96-.619 1.568-.8a6.39 6.39 0 0 1 1.936-.288zm-.352 7.472c.586 0 1.093-.128 1.52-.384a2.29 2.29 0 0 0 .928-1.12v-1.184h-2.368c-1.302 0-1.952.437-1.952 1.312 0 .427.165.763.496 1.008s.789.368 1.376.368zm11.322-7.472c.822 0 1.558.181 2.208.544a3.85 3.85 0 0 1 1.52 1.52c.374.651.56 1.403.56 2.256s-.186 1.611-.56 2.272a3.85 3.85 0 0 1-1.52 1.52c-.65.363-1.386.544-2.208.544-.629 0-1.205-.123-1.728-.368s-.954-.603-1.296-1.072V38h-1.472V26.128h1.536V30.8a3.2 3.2 0 0 1 1.28-1.008c.512-.235 1.072-.352 1.68-.352zm-.128 7.312c.544 0 1.03-.123 1.456-.368a2.7 2.7 0 0 0 1.024-1.056c.256-.459.384-.981.384-1.568s-.128-1.104-.384-1.552c-.245-.459-.586-.811-1.024-1.056-.426-.245-.912-.368-1.456-.368-.533 0-1.018.123-1.456.368s-.778.597-1.024 1.056c-.245.448-.368.965-.368 1.552s.123 1.109.368 1.568c.246.448.587.8 1.024 1.056.438.245.923.368 1.456.368zm9.548-7.312c1.174 0 2.07.288 2.688.864.63.576.944 1.435.944 2.576V38h-1.456v-1.12a2.47 2.47 0 0 1-1.104.912c-.469.203-1.029.304-1.68.304-.949 0-1.712-.229-2.288-.688-.565-.459-.848-1.061-.848-1.808s.272-1.344.816-1.792c.544-.459 1.408-.688 2.592-.688h2.432v-.304c0-.661-.192-1.168-.576-1.52s-.949-.528-1.696-.528c-.501 0-.992.085-1.472.256-.48.16-.885.379-1.216.656l-.64-1.152c.438-.352.96-.619 1.568-.8.608-.192 1.254-.288 1.936-.288zm-.352 7.472c.587 0 1.094-.128 1.52-.384.427-.267.736-.64.928-1.12v-1.184h-2.368c-1.301 0-1.952.437-1.952 1.312 0 .427.166.763.496 1.008s.79.368 1.376.368zm9.259 1.184c-.693 0-1.36-.091-2-.272-.64-.192-1.141-.432-1.504-.72l.64-1.216c.373.267.827.48 1.36.64s1.072.24 1.616.24c1.344 0 2.016-.384 2.016-1.152 0-.256-.091-.459-.272-.608s-.411-.256-.688-.32c-.267-.075-.651-.155-1.152-.24-.683-.107-1.243-.229-1.68-.368a2.58 2.58 0 0 1-1.104-.704c-.309-.331-.464-.795-.464-1.392a2.15 2.15 0 0 1 .96-1.84c.64-.469 1.499-.704 2.576-.704.565 0 1.131.069 1.696.208s1.029.325 1.392.56l-.656 1.216c-.693-.448-1.509-.672-2.448-.672-.651 0-1.147.107-1.488.32s-.512.496-.512.848c0 .277.096.496.288.656s.427.277.704.352l1.2.256c.683.117 1.232.245 1.648.384.427.128.789.352 1.088.672s.448.768.448 1.344c0 .768-.331 1.381-.992 1.84-.651.448-1.541.672-2.672.672zm13.248-4.288c0 .117-.011.272-.032.464h-6.88c.096.747.421 1.349.976 1.808.565.448 1.264.672 2.096.672 1.013 0 1.829-.341 2.448-1.024l.848.992c-.384.448-.864.789-1.44 1.024-.566.235-1.2.352-1.904.352-.896 0-1.691-.181-2.384-.544A4.04 4.04 0 0 1 205.42 36c-.374-.661-.56-1.408-.56-2.24 0-.821.181-1.563.544-2.224.373-.661.88-1.173 1.52-1.536.65-.373 1.381-.56 2.192-.56s1.53.187 2.16.56c.64.363 1.136.875 1.488 1.536.362.661.544 1.419.544 2.272zm-4.192-3.072c-.736 0-1.355.224-1.856.672-.491.448-.779 1.035-.864 1.76h5.44c-.086-.715-.379-1.296-.88-1.744-.491-.459-1.104-.688-1.84-.688z"/><path d="M44.28 164.192v3.904h5.616v1.376H44.28V174h-1.6v-11.2h7.904v1.392H44.28zm8.176 1.328h1.536V174h-1.536v-8.48zm.768-1.632a1.05 1.05 0 0 1-.752-.288c-.192-.192-.288-.427-.288-.704s.096-.512.288-.704a1.02 1.02 0 0 1 .752-.304c.299 0 .544.096.736.288a.88.88 0 0 1 .304.688 1 1 0 0 1-.304.736c-.192.192-.437.288-.736.288zm3.701-1.76h1.536V174h-1.536v-11.872zm12.133 7.68a4.5 4.5 0 0 1-.032.464h-6.88c.096.747.421 1.349.976 1.808.565.448 1.264.672 2.096.672 1.013 0 1.829-.341 2.448-1.024l.848.992c-.384.448-.864.789-1.44 1.024-.565.235-1.2.352-1.904.352-.896 0-1.691-.181-2.384-.544-.693-.373-1.232-.891-1.616-1.552-.373-.661-.56-1.408-.56-2.24 0-.821.181-1.563.544-2.224a3.97 3.97 0 0 1 1.52-1.536c.651-.373 1.381-.56 2.192-.56s1.531.187 2.16.56c.64.363 1.136.875 1.488 1.536.363.661.544 1.419.544 2.272zm-4.192-3.072c-.736 0-1.355.224-1.856.672-.491.448-.779 1.035-.864 1.76h5.44c-.085-.715-.379-1.296-.88-1.744-.491-.459-1.104-.688-1.84-.688zm16.933-1.296c1.067 0 1.909.309 2.528.928.629.619.944 1.536.944 2.752V174h-1.536v-4.704c0-.821-.192-1.44-.576-1.856-.373-.416-.912-.624-1.616-.624-.779 0-1.397.245-1.856.736-.459.48-.688 1.173-.688 2.08V174h-1.536v-4.704c0-.821-.192-1.44-.576-1.856-.373-.416-.912-.624-1.616-.624-.779 0-1.397.245-1.856.736-.459.48-.688 1.173-.688 2.08V174H71.19v-8.48h1.472v1.264a2.92 2.92 0 0 1 1.216-.992c.501-.235 1.072-.352 1.712-.352.661 0 1.248.133 1.76.4a2.78 2.78 0 0 1 1.184 1.168c.32-.491.763-.875 1.328-1.152.576-.277 1.221-.416 1.936-.416zm9.386 0c1.173 0 2.069.288 2.688.864.629.576.944 1.435.944 2.576V174h-1.456v-1.12c-.256.395-.624.699-1.104.912-.469.203-1.029.304-1.68.304-.949 0-1.712-.229-2.288-.688-.565-.459-.848-1.061-.848-1.808s.272-1.344.816-1.792c.544-.459 1.408-.688 2.592-.688h2.432v-.304c0-.661-.192-1.168-.576-1.52s-.949-.528-1.696-.528c-.501 0-.992.085-1.472.256a3.69 3.69 0 0 0-1.216.656l-.64-1.152c.437-.352.96-.619 1.568-.8a6.39 6.39 0 0 1 1.936-.288zm-.352 7.472c.587 0 1.093-.128 1.52-.384.427-.267.736-.64.928-1.12v-1.184h-2.368c-1.301 0-1.952.437-1.952 1.312 0 .427.165.763.496 1.008s.789.368 1.376.368zm10.122-2.864l-1.76 1.632V174h-1.536v-11.872h1.536v7.616l4.624-4.224h1.856l-3.568 3.504 3.92 4.976h-1.888l-3.184-3.952zm13.868-.24a4.5 4.5 0 0 1-.032.464h-6.88c.096.747.421 1.349.976 1.808.565.448 1.264.672 2.096.672 1.013 0 1.829-.341 2.448-1.024l.848.992c-.384.448-.864.789-1.44 1.024-.565.235-1.2.352-1.904.352-.896 0-1.691-.181-2.384-.544-.693-.373-1.232-.891-1.616-1.552-.373-.661-.56-1.408-.56-2.24 0-.821.181-1.563.544-2.224a3.97 3.97 0 0 1 1.52-1.536c.651-.373 1.381-.56 2.192-.56s1.531.187 2.16.56c.64.363 1.136.875 1.488 1.536.363.661.544 1.419.544 2.272zm-4.192-3.072c-.736 0-1.355.224-1.856.672-.491.448-.779 1.035-.864 1.76h5.44c-.085-.715-.379-1.296-.88-1.744-.491-.459-1.104-.688-1.84-.688zm7.797.208c.267-.491.661-.864 1.184-1.12s1.157-.384 1.904-.384v1.488c-.085-.011-.203-.016-.352-.016-.832 0-1.488.251-1.968.752-.469.491-.704 1.195-.704 2.112V174h-1.536v-8.48h1.472v1.424zm17.387-4.816V174h-1.472v-1.344a3.32 3.32 0 0 1-1.296 1.072c-.522.245-1.098.368-1.728.368-.821 0-1.557-.181-2.208-.544a3.97 3.97 0 0 1-1.536-1.52c-.362-.661-.544-1.419-.544-2.272s.182-1.605.544-2.256c.374-.651.886-1.157 1.536-1.52s1.387-.544 2.208-.544c.608 0 1.168.117 1.68.352.512.224.939.56 1.28 1.008v-4.672h1.536zm-4.368 10.624c.534 0 1.019-.123 1.456-.368a2.7 2.7 0 0 0 1.024-1.056c.246-.459.368-.981.368-1.568s-.122-1.104-.368-1.552a2.56 2.56 0 0 0-1.024-1.056c-.437-.245-.922-.368-1.456-.368-.544 0-1.034.123-1.472.368a2.71 2.71 0 0 0-1.024 1.056c-.245.448-.368.965-.368 1.552s.123 1.109.368 1.568c.256.448.598.8 1.024 1.056.438.245.928.368 1.472.368zm10.363-7.312c1.173 0 2.069.288 2.688.864.629.576.944 1.435.944 2.576V174h-1.456v-1.12c-.256.395-.624.699-1.104.912-.47.203-1.03.304-1.68.304-.95 0-1.712-.229-2.288-.688a2.21 2.21 0 0 1-.848-1.808c0-.747.272-1.344.816-1.792.544-.459 1.408-.688 2.592-.688h2.432v-.304c0-.661-.192-1.168-.576-1.52s-.95-.528-1.696-.528a4.35 4.35 0 0 0-1.472.256c-.48.16-.886.379-1.216.656l-.64-1.152c.437-.352.96-.619 1.568-.8a6.39 6.39 0 0 1 1.936-.288zm-.352 7.472c.586 0 1.093-.128 1.52-.384a2.29 2.29 0 0 0 .928-1.12v-1.184h-2.368c-1.302 0-1.952.437-1.952 1.312 0 .427.165.763.496 1.008s.789.368 1.376.368zm9.258 1.184c-.693 0-1.36-.091-2-.272-.64-.192-1.141-.432-1.504-.72l.64-1.216c.373.267.827.48 1.36.64s1.072.24 1.616.24c1.344 0 2.016-.384 2.016-1.152 0-.256-.091-.459-.272-.608a1.65 1.65 0 0 0-.688-.32 11.91 11.91 0 0 0-1.152-.24c-.683-.107-1.243-.229-1.68-.368a2.58 2.58 0 0 1-1.104-.704c-.309-.331-.464-.795-.464-1.392 0-.768.32-1.381.96-1.84.64-.469 1.499-.704 2.576-.704a7.08 7.08 0 0 1 1.696.208c.565.139 1.029.325 1.392.56l-.656 1.216c-.693-.448-1.509-.672-2.448-.672-.651 0-1.147.107-1.488.32s-.512.496-.512.848c0 .277.096.496.288.656a1.83 1.83 0 0 0 .704.352l1.2.256c.683.117 1.232.245 1.648.384.427.128.789.352 1.088.672s.448.768.448 1.344c0 .768-.331 1.381-.992 1.84-.651.448-1.541.672-2.672.672zm10.112-8.656c1.077 0 1.93.315 2.56.944.64.619.96 1.531.96 2.736V174h-1.536v-4.704c0-.821-.198-1.44-.592-1.856s-.96-.624-1.696-.624c-.832 0-1.488.245-1.968.736-.48.48-.72 1.173-.72 2.08V174H156.3v-11.872h1.536v4.592c.32-.405.736-.72 1.248-.944.522-.224 1.104-.336 1.744-.336zm10.858 0c.822 0 1.558.181 2.208.544a3.85 3.85 0 0 1 1.52 1.52c.374.651.56 1.403.56 2.256s-.186 1.611-.56 2.272a3.85 3.85 0 0 1-1.52 1.52c-.65.363-1.386.544-2.208.544-.629 0-1.205-.123-1.728-.368a3.33 3.33 0 0 1-1.296-1.072V174h-1.472v-11.872h1.536v4.672a3.2 3.2 0 0 1 1.28-1.008c.512-.235 1.072-.352 1.68-.352zm-.128 7.312c.544 0 1.03-.123 1.456-.368a2.7 2.7 0 0 0 1.024-1.056c.256-.459.384-.981.384-1.568s-.128-1.104-.384-1.552a2.56 2.56 0 0 0-1.024-1.056c-.426-.245-.912-.368-1.456-.368a2.93 2.93 0 0 0-1.456.368c-.437.245-.778.597-1.024 1.056-.245.448-.368.965-.368 1.552s.123 1.109.368 1.568c.246.448.587.8 1.024 1.056a2.93 2.93 0 0 0 1.456.368zm10.171 1.344c-.843 0-1.6-.187-2.272-.56a4.13 4.13 0 0 1-1.584-1.536c-.374-.661-.56-1.408-.56-2.24s.186-1.573.56-2.224c.384-.661.912-1.173 1.584-1.536.672-.373 1.429-.56 2.272-.56s1.594.187 2.256.56a3.89 3.89 0 0 1 1.568 1.536c.384.651.576 1.392.576 2.224s-.192 1.579-.576 2.24a4.02 4.02 0 0 1-1.568 1.536c-.662.373-1.414.56-2.256.56zm0-1.344c.544 0 1.029-.123 1.456-.368.437-.256.778-.608 1.024-1.056.245-.459.368-.981.368-1.568s-.123-1.104-.368-1.552c-.246-.459-.587-.811-1.024-1.056-.427-.245-.912-.368-1.456-.368s-1.035.123-1.472.368c-.427.245-.768.597-1.024 1.056-.246.448-.368.965-.368 1.552s.122 1.109.368 1.568a2.86 2.86 0 0 0 1.024 1.056c.437.245.928.368 1.472.368zm9.534-7.312c1.173 0 2.069.288 2.688.864.629.576.944 1.435.944 2.576V174h-1.456v-1.12c-.256.395-.624.699-1.104.912-.47.203-1.03.304-1.68.304-.95 0-1.712-.229-2.288-.688a2.21 2.21 0 0 1-.848-1.808c0-.747.272-1.344.816-1.792.544-.459 1.408-.688 2.592-.688h2.432v-.304c0-.661-.192-1.168-.576-1.52s-.95-.528-1.696-.528a4.35 4.35 0 0 0-1.472.256c-.48.16-.886.379-1.216.656l-.64-1.152c.437-.352.96-.619 1.568-.8a6.39 6.39 0 0 1 1.936-.288zm-.352 7.472c.586 0 1.093-.128 1.52-.384a2.29 2.29 0 0 0 .928-1.12v-1.184h-2.368c-1.302 0-1.952.437-1.952 1.312 0 .427.165.763.496 1.008s.789.368 1.376.368zm8.298-5.968c.267-.491.662-.864 1.184-1.12s1.158-.384 1.904-.384v1.488c-.085-.011-.202-.016-.352-.016-.832 0-1.488.251-1.968.752-.469.491-.704 1.195-.704 2.112V174h-1.536v-8.48h1.472v1.424zm12.903-4.816V174h-1.472v-1.344a3.32 3.32 0 0 1-1.296 1.072c-.522.245-1.098.368-1.728.368-.821 0-1.557-.181-2.208-.544a3.97 3.97 0 0 1-1.536-1.52c-.362-.661-.544-1.419-.544-2.272s.182-1.605.544-2.256c.374-.651.886-1.157 1.536-1.52s1.387-.544 2.208-.544c.608 0 1.168.117 1.68.352.512.224.939.56 1.28 1.008v-4.672h1.536zm-4.368 10.624c.534 0 1.019-.123 1.456-.368a2.7 2.7 0 0 0 1.024-1.056c.246-.459.368-.981.368-1.568s-.122-1.104-.368-1.552a2.56 2.56 0 0 0-1.024-1.056c-.437-.245-.922-.368-1.456-.368-.544 0-1.034.123-1.472.368a2.71 2.71 0 0 0-1.024 1.056c-.245.448-.368.965-.368 1.552s.123 1.109.368 1.568c.256.448.598.8 1.024 1.056.438.245.928.368 1.472.368zM103.312 298.8V310h-1.6v-4.992H95.28V310h-1.6v-11.2h1.6v4.816h6.432V298.8h1.6zm11.032 2.72V310h-1.456v-1.28c-.309.437-.72.779-1.232 1.024a3.83 3.83 0 0 1-1.648.352c-1.13 0-2.021-.309-2.672-.928-.65-.629-.976-1.552-.976-2.768v-4.88h1.536v4.704c0 .821.198 1.445.592 1.872.395.416.96.624 1.696.624.811 0 1.451-.245 1.92-.736s.704-1.184.704-2.08v-4.384h1.536zm7.421-.08c.821 0 1.557.181 2.208.544s1.157.869 1.52 1.52c.373.651.56 1.403.56 2.256s-.187 1.611-.56 2.272c-.363.651-.87 1.157-1.52 1.52s-1.387.544-2.208.544c-.63 0-1.206-.123-1.729-.368a3.32 3.32 0 0 1-1.295-1.072V310h-1.472v-11.872h1.536v4.672c.341-.448.768-.784 1.28-1.008.512-.235 1.072-.352 1.68-.352zm-.128 7.312c.544 0 1.029-.123 1.456-.368.437-.256.778-.608 1.024-1.056.256-.459.384-.981.384-1.568s-.128-1.104-.384-1.552c-.246-.459-.587-.811-1.024-1.056-.427-.245-.912-.368-1.456-.368-.534 0-1.019.123-1.456.368a2.56 2.56 0 0 0-1.024 1.056c-.246.448-.368.965-.368 1.552s.122 1.109.368 1.568a2.7 2.7 0 0 0 1.024 1.056c.437.245.922.368 1.456.368zm8.97 1.344a7.31 7.31 0 0 1-2-.272c-.64-.192-1.142-.432-1.504-.72l.64-1.216c.373.267.826.48 1.36.64a5.6 5.6 0 0 0 1.616.24c1.344 0 2.016-.384 2.016-1.152 0-.256-.091-.459-.272-.608a1.65 1.65 0 0 0-.688-.32 11.91 11.91 0 0 0-1.152-.24c-.683-.107-1.243-.229-1.68-.368a2.58 2.58 0 0 1-1.104-.704c-.31-.331-.464-.795-.464-1.392 0-.768.32-1.381.96-1.84.64-.469 1.498-.704 2.576-.704.565 0 1.13.069 1.696.208s1.029.325 1.392.56l-.656 1.216c-.694-.448-1.51-.672-2.448-.672-.651 0-1.147.107-1.488.32s-.512.496-.512.848c0 .277.096.496.288.656s.426.277.704.352l1.2.256c.682.117 1.232.245 1.648.384a2.41 2.41 0 0 1 1.088.672c.298.32.448.768.448 1.344 0 .768-.331 1.381-.992 1.84-.651.448-1.542.672-2.672.672zm10.079-8.656c.822 0 1.558.181 2.208.544a3.85 3.85 0 0 1 1.52 1.52c.374.651.56 1.403.56 2.256s-.186 1.611-.56 2.272a3.85 3.85 0 0 1-1.52 1.52c-.65.363-1.386.544-2.208.544-.608 0-1.168-.117-1.68-.352a3.5 3.5 0 0 1-1.28-1.024v4.384h-1.536V301.52h1.472v1.344a3.21 3.21 0 0 1 1.296-1.056c.523-.245 1.099-.368 1.728-.368zm-.128 7.312c.544 0 1.03-.123 1.456-.368a2.7 2.7 0 0 0 1.024-1.056c.256-.459.384-.981.384-1.568s-.128-1.104-.384-1.552a2.56 2.56 0 0 0-1.024-1.056c-.426-.245-.912-.368-1.456-.368a2.83 2.83 0 0 0-1.456.384c-.426.245-.768.592-1.024 1.04-.245.448-.368.965-.368 1.552s.123 1.109.368 1.568c.246.448.587.8 1.024 1.056a2.93 2.93 0 0 0 1.456.368zm10.171 1.344c-.843 0-1.6-.187-2.272-.56a4.13 4.13 0 0 1-1.584-1.536c-.374-.661-.56-1.408-.56-2.24s.186-1.573.56-2.224c.384-.661.912-1.173 1.584-1.536.672-.373 1.429-.56 2.272-.56s1.594.187 2.256.56a3.89 3.89 0 0 1 1.568 1.536c.384.651.576 1.392.576 2.224s-.192 1.579-.576 2.24a4.02 4.02 0 0 1-1.568 1.536c-.662.373-1.414.56-2.256.56zm0-1.344c.544 0 1.029-.123 1.456-.368.437-.256.778-.608 1.024-1.056.245-.459.368-.981.368-1.568s-.123-1.104-.368-1.552c-.246-.459-.587-.811-1.024-1.056-.427-.245-.912-.368-1.456-.368s-1.035.123-1.472.368c-.427.245-.768.597-1.024 1.056-.246.448-.368.965-.368 1.552s.122 1.109.368 1.568a2.86 2.86 0 0 0 1.024 1.056c.437.245.928.368 1.472.368zm11.292.752a2.39 2.39 0 0 1-.832.448c-.331.096-.672.144-1.024.144-.853 0-1.515-.229-1.984-.688s-.704-1.115-.704-1.968v-4.656h-1.44v-1.264h1.44v-1.856h1.536v1.856h2.432v1.264h-2.432v4.592c0 .459.112.811.336 1.056.235.245.565.368.992.368a1.85 1.85 0 0 0 1.2-.4l.48 1.104z"/><path d="M428.68 162.8h4.72c1.184 0 2.235.235 3.152.704s1.627 1.131 2.128 1.984c.512.843.768 1.813.768 2.912s-.256 2.075-.768 2.928a5.13 5.13 0 0 1-2.128 1.968c-.917.469-1.968.704-3.152.704h-4.72v-11.2zm4.624 9.808c.907 0 1.701-.176 2.384-.528.693-.352 1.227-.843 1.6-1.472.373-.64.56-1.376.56-2.208s-.187-1.563-.56-2.192a3.79 3.79 0 0 0-1.6-1.488c-.683-.352-1.477-.528-2.384-.528h-3.024v8.416h3.024zm8.564 4.592c-.373 0-.72-.043-1.04-.128s-.587-.213-.8-.384l.496-1.184c.32.267.736.4 1.248.4.405 0 .715-.128.928-.384.224-.245.336-.613.336-1.104v-8.896h1.536v8.864c0 .875-.235 1.563-.704 2.064s-1.136.752-2 .752zm1.936-13.312a1.05 1.05 0 0 1-.752-.288c-.192-.192-.288-.427-.288-.704s.096-.512.288-.704a1.02 1.02 0 0 1 .752-.304c.299 0 .544.096.736.288a.88.88 0 0 1 .304.688 1 1 0 0 1-.304.736c-.192.192-.437.288-.736.288zm6.787 1.552c1.173 0 2.069.288 2.688.864.629.576.944 1.435.944 2.576V174h-1.456v-1.12c-.256.395-.624.699-1.104.912-.469.203-1.029.304-1.68.304-.949 0-1.712-.229-2.288-.688-.565-.459-.848-1.061-.848-1.808s.272-1.344.816-1.792c.544-.459 1.408-.688 2.592-.688h2.432v-.304c0-.661-.192-1.168-.576-1.52s-.949-.528-1.696-.528c-.501 0-.992.085-1.472.256a3.69 3.69 0 0 0-1.216.656l-.64-1.152c.437-.352.96-.619 1.568-.8a6.39 6.39 0 0 1 1.936-.288zm-.352 7.472c.587 0 1.093-.128 1.52-.384.427-.267.736-.64.928-1.12v-1.184h-2.368c-1.301 0-1.952.437-1.952 1.312 0 .427.165.763.496 1.008s.789.368 1.376.368zm11.354-7.472c1.078 0 1.931.315 2.56.944.64.619.96 1.531.96 2.736V174h-1.536v-4.704c0-.821-.197-1.44-.592-1.856s-.96-.624-1.696-.624c-.832 0-1.488.245-1.968.736-.48.48-.72 1.173-.72 2.08V174h-1.536v-8.48h1.472v1.28c.31-.437.726-.773 1.248-1.008.534-.235 1.136-.352 1.808-.352zm14.522.08v7.328c0 1.483-.368 2.576-1.104 3.28-.736.715-1.835 1.072-3.296 1.072a7.71 7.71 0 0 1-2.288-.336c-.725-.213-1.312-.523-1.76-.928l.736-1.184c.395.341.88.608 1.456.8a5.49 5.49 0 0 0 1.808.304c.992 0 1.723-.235 2.192-.704.48-.469.72-1.184.72-2.144v-.672c-.363.437-.811.768-1.344.992-.523.213-1.093.32-1.712.32-.811 0-1.547-.171-2.208-.512a3.95 3.95 0 0 1-1.536-1.456c-.373-.629-.56-1.344-.56-2.144s.187-1.509.56-2.128c.373-.629.885-1.115 1.536-1.456.661-.341 1.397-.512 2.208-.512a4.43 4.43 0 0 1 1.776.352 3.3 3.3 0 0 1 1.36 1.04v-1.312h1.456zm-4.416 6.784c.555 0 1.051-.117 1.488-.352.448-.235.795-.56 1.04-.976.256-.427.384-.907.384-1.44 0-.821-.272-1.483-.816-1.984-.544-.512-1.243-.768-2.096-.768-.864 0-1.568.256-2.112.768-.544.501-.816 1.163-.816 1.984 0 .533.123 1.013.368 1.44a2.7 2.7 0 0 0 1.04.976c.448.235.955.352 1.52.352zm10.983 1.792c-.843 0-1.6-.187-2.272-.56a4.13 4.13 0 0 1-1.584-1.536c-.374-.661-.56-1.408-.56-2.24s.186-1.573.56-2.224c.384-.661.912-1.173 1.584-1.536.672-.373 1.429-.56 2.272-.56s1.594.187 2.256.56a3.89 3.89 0 0 1 1.568 1.536c.384.651.576 1.392.576 2.224s-.192 1.579-.576 2.24a4.02 4.02 0 0 1-1.568 1.536c-.662.373-1.414.56-2.256.56zm0-1.344c.544 0 1.029-.123 1.456-.368.437-.256.778-.608 1.024-1.056.245-.459.368-.981.368-1.568s-.123-1.104-.368-1.552c-.246-.459-.587-.811-1.024-1.056-.427-.245-.912-.368-1.456-.368s-1.035.123-1.472.368c-.427.245-.768.597-1.024 1.056-.246.448-.368.965-.368 1.552s.122 1.109.368 1.568a2.86 2.86 0 0 0 1.024 1.056c.437.245.928.368 1.472.368zm14.037 2.848l-5.28-15.072h1.392l5.28 15.072h-1.392zm22.754-12.8l-3.744 11.2h-1.68l-3.056-8.944-3.056 8.944h-1.712l-3.744-11.2h1.648l3.024 9.104 3.152-9.104h1.472l3.088 9.152 3.088-9.152h1.52zm8.756 7.008c0 .117-.01.272-.032.464h-6.88c.096.747.422 1.349.976 1.808.566.448 1.264.672 2.096.672 1.014 0 1.83-.341 2.448-1.024l.848.992c-.384.448-.864.789-1.44 1.024-.565.235-1.2.352-1.904.352-.896 0-1.69-.181-2.384-.544-.693-.373-1.232-.891-1.616-1.552-.373-.661-.56-1.408-.56-2.24 0-.821.182-1.563.544-2.224.374-.661.88-1.173 1.52-1.536.651-.373 1.382-.56 2.192-.56s1.531.187 2.16.56c.64.363 1.136.875 1.488 1.536.363.661.544 1.419.544 2.272zm-4.192-3.072c-.736 0-1.354.224-1.856.672-.49.448-.778 1.035-.864 1.76h5.44c-.085-.715-.378-1.296-.88-1.744-.49-.459-1.104-.688-1.84-.688zm10.821-1.296c.822 0 1.558.181 2.208.544a3.85 3.85 0 0 1 1.52 1.52c.374.651.56 1.403.56 2.256s-.186 1.611-.56 2.272a3.85 3.85 0 0 1-1.52 1.52c-.65.363-1.386.544-2.208.544-.629 0-1.205-.123-1.728-.368s-.954-.603-1.296-1.072V174h-1.472v-11.872h1.536v4.672a3.2 3.2 0 0 1 1.28-1.008c.512-.235 1.072-.352 1.68-.352zm-.128 7.312c.544 0 1.03-.123 1.456-.368a2.7 2.7 0 0 0 1.024-1.056c.256-.459.384-.981.384-1.568s-.128-1.104-.384-1.552a2.56 2.56 0 0 0-1.024-1.056c-.426-.245-.912-.368-1.456-.368a2.93 2.93 0 0 0-1.456.368c-.437.245-.778.597-1.024 1.056-.245.448-.368.965-.368 1.552s.123 1.109.368 1.568c.246.448.587.8 1.024 1.056a2.93 2.93 0 0 0 1.456.368zm8.971 1.344a7.31 7.31 0 0 1-2-.272c-.64-.192-1.142-.432-1.504-.72l.64-1.216c.373.267.826.48 1.36.64s1.072.24 1.615.24c1.345 0 2.017-.384 2.017-1.152 0-.256-.091-.459-.272-.608s-.411-.256-.688-.32a11.91 11.91 0 0 0-1.152-.24c-.683-.107-1.243-.229-1.68-.368a2.58 2.58 0 0 1-1.104-.704c-.31-.331-.464-.795-.464-1.392 0-.768.32-1.381.96-1.84.64-.469 1.498-.704 2.576-.704.565 0 1.13.069 1.696.208s1.029.325 1.392.56l-.656 1.216c-.694-.448-1.51-.672-2.448-.672-.651 0-1.147.107-1.488.32s-.512.496-.512.848c0 .277.096.496.288.656s.426.277.704.352l1.2.256c.682.117 1.232.245 1.648.384a2.41 2.41 0 0 1 1.088.672c.298.32.448.768.448 1.344 0 .768-.331 1.381-.992 1.84-.651.448-1.542.672-2.672.672zm5.583-8.576h1.536V174h-1.536v-8.48zm.768-1.632a1.05 1.05 0 0 1-.752-.288c-.192-.192-.288-.427-.288-.704s.096-.512.288-.704a1.02 1.02 0 0 1 .752-.304c.299 0 .544.096.736.288a.88.88 0 0 1 .304.688 1 1 0 0 1-.304.736c-.192.192-.437.288-.736.288zm8.469 9.616a2.39 2.39 0 0 1-.832.448c-.331.096-.672.144-1.024.144-.853 0-1.515-.229-1.984-.688s-.704-1.115-.704-1.968v-4.656h-1.44v-1.264h1.44v-1.856h1.536v1.856h2.432v1.264h-2.432v4.592c0 .459.112.811.336 1.056.235.245.565.368.992.368a1.85 1.85 0 0 0 1.2-.4l.48 1.104zm9.24-3.696a4.5 4.5 0 0 1-.032.464h-6.88c.096.747.421 1.349.976 1.808.565.448 1.264.672 2.096.672 1.013 0 1.829-.341 2.448-1.024l.848.992c-.384.448-.864.789-1.44 1.024-.566.235-1.2.352-1.904.352-.896 0-1.691-.181-2.384-.544a4.04 4.04 0 0 1-1.616-1.552c-.374-.661-.56-1.408-.56-2.24 0-.821.181-1.563.544-2.224a3.97 3.97 0 0 1 1.52-1.536c.65-.373 1.381-.56 2.192-.56s1.53.187 2.16.56c.64.363 1.136.875 1.488 1.536.362.661.544 1.419.544 2.272zm-4.192-3.072c-.736 0-1.355.224-1.856.672-.491.448-.779 1.035-.864 1.76h5.44c-.086-.715-.379-1.296-.88-1.744-.491-.459-1.104-.688-1.84-.688z"/></g><g stroke="#ff6b00"><rect x=".5" y=".5" width="255" height="63" rx="7.5"/><rect x=".5" y="136.5" width="255" height="63" rx="7.5"/><rect x=".5" y="272.5" width="255" height="63" rx="7.5"/><rect x="370.5" y="136.5" width="249" height="62" rx="7.5"/></g><path fill-rule="evenodd" d="M268 308h30a8 8 0 0 0 8-8V40a8 8 0 0 0-8-8h-30v1h30a7 7 0 0 1 7 7v260a7 7 0 0 1-7 7h-30v1z" fill="#cbcbcb"/><path d="M306 167h53v1h-53zm-177-40V74h1v53zm0 139v-53h1v53z" fill="#c4c4c4"/><g fill="#787878"><path d="M266.868 36.885l-5.511-3.511a.8.8 0 0 1-.033-1.306l5.512-3.932c.494-.352 1.164.017 1.164.642v7.443c0 .607-.636.98-1.132.664zm0 275l-5.511-3.511c-.462-.293-.479-.987-.033-1.305l5.512-3.932c.494-.353 1.164.017 1.164.642v7.442c0 .607-.636.98-1.132.664zm91.264-148.77l5.511 3.511c.462.293.479.987.033 1.305l-5.512 3.932c-.494.353-1.164-.017-1.164-.642v-7.442c0-.607.636-.98 1.132-.664zM125.115 74.869l3.511-5.512a.8.8 0 0 1 1.305-.032l3.932 5.512c.353.494-.017 1.164-.642 1.164h-7.442c-.607 0-.98-.636-.664-1.132zm0 138.999l3.511-5.511c.293-.462.987-.479 1.305-.033l3.932 5.512c.353.494-.017 1.164-.642 1.164h-7.442c-.607 0-.98-.636-.664-1.132z"/><use xlink:href="#B"/><use xlink:href="#B" y="139"/></g><defs ><path id="B" d="M133.885 122.132l-3.511 5.511c-.293.462-.987.479-1.305.033l-3.932-5.512c-.353-.494.017-1.164.642-1.164h7.442c.607 0 .98.636.664 1.132z"/></defs></svg>