<svg xmlns="http://www.w3.org/2000/svg" width="85" height="18" fill="none" xmlns:v="https://vecta.io/nano"><g clip-path="url(#A)"><g fill-rule="evenodd" fill="#090"><path d="M1.129.172c.69-.288 1.484-.129 2.012.403l10.924 11.011V1.891c0-1.028.827-1.86 1.846-1.86s1.846.833 1.846 1.86v14.188a1.86 1.86 0 0 1-1.14 1.719c-.69.288-1.484.129-2.012-.403L3.681 6.383v9.696c0 1.027-.826 1.861-1.846 1.861s-1.846-.833-1.846-1.861V1.891A1.86 1.86 0 0 1 1.129.172zM48.764.17c.69-.288 1.484-.129 2.012.403L61.7 11.585V1.889c0-1.028.826-1.86 1.846-1.86s1.846.833 1.846 1.86v14.188a1.86 1.86 0 0 1-1.14 1.719c-.69.288-1.484.129-2.012-.403L51.317 6.381v9.696c0 1.028-.826 1.86-1.846 1.86s-1.846-.833-1.846-1.86V1.889A1.86 1.86 0 0 1 48.764.17z"/></g><path d="M24.459.047l-.508.954-3.923 7.186-.508.907.508.907 3.923 6.954.531.953h1.084 8.03 1.154l.508-1.046 2.93-5.953 1.315-2.698h-2.977l-7.499.023c-.975-.014-1.872.877-1.872 1.86s.897 1.874 1.872 1.861l4.523-.023-1.108 2.256h-5.815L23.743 9.07l2.907-5.302h6.186l1.442 2.983h3.715l-2.342-5.657-.508-1.047H33.99h-8.424-1.107zm18.7-.023c-.967.012-1.835.91-1.823 1.884v4.848h3.692V1.908c.012-.99-.887-1.896-1.869-1.884z" fill="#090"/><path fill-rule="evenodd" d="M67.695.607c.72-.728 1.888-.73 2.611-.005l14.092 14.153a1.87 1.87 0 0 1 .005 2.631c-.72.728-1.888.73-2.61.005L67.7 3.238a1.87 1.87 0 0 1-.005-2.631z" fill="#090"/><path d="M43.159 17.92c-.967-.012-1.835-.91-1.823-1.884V8.249h3.692v7.788c.012.99-.887 1.896-1.869 1.884z" fill="#090"/><path fill-rule="evenodd" d="M67.365 17.416a1.87 1.87 0 0 1-.005-2.631L81.403.582c.72-.728 1.888-.73 2.611-.005a1.87 1.87 0 0 1 .005 2.631L69.976 17.411c-.72.728-1.888.73-2.611.005z" fill="#090"/></g><defs><clipPath id="A"><path fill="#fff" d="M0 0h85v18H0z"/></clipPath></defs></svg>