<svg xmlns="http://www.w3.org/2000/svg" width="110" height="58" fill="none" fill-rule="evenodd" xmlns:v="https://vecta.io/nano"><path d="M.294 52.329h3.639V38.085l5.611 12.421c.666 1.49 1.556 2.014 3.333 2.014s2.667-.525 3.333-2.014l5.611-12.421v14.243h3.611V38.113c0-1.38-.556-2.043-1.695-2.402-2.75-.856-4.611-.11-5.444 1.74l-5.5 12.228L7.461 37.45c-.806-1.85-2.694-2.595-5.444-1.74C.85 36.069.295 36.732.295 38.113v14.216H.294zM28.46 40.735h3.611v7.84c-.027.441.139 1.435 2.139 1.463h7.86v-9.331h3.639c.027 0 0 12.725 0 12.78.027 3.147-3.916 3.808-5.722 3.864H28.543v-2.429h11.444c2.333-.221 2.056-1.38 2.056-1.766v-.939h-7.694c-3.583-.054-5.861-1.601-5.889-3.395v-8.087zm78.024-9.026c-2.222-.055-3.917.138-5.389.773-.416.166-1.055.166-1.138.69.222.22.277.579.444.883.361.553.945 1.297 1.472 1.683.556.442 1.139.883 1.75 1.27 1.111.662 2.333 1.021 3.36 1.685.64.385 1.251.883 1.862 1.325.277.221.5.552.861.69v-.054c-.194-.249-.25-.608-.417-.885l-.833-.828c-.805-1.049-1.834-1.988-2.917-2.76-.861-.608-2.806-1.463-3.167-2.457-.028-.028-.056-.028-.056-.056.612-.084 1.334-.303 1.89-.442.945-.247 1.805-.193 2.777-.441.445-.139.889-.249 1.334-.387v-.249c-.5-.497-.833-1.187-1.388-1.628-1.417-1.214-2.973-2.402-4.556-3.395-.889-.58-1.972-.939-2.916-1.408-.306-.138-.862-.221-1.083-.497-.501-.607-.75-1.408-1.139-2.126a76.14 76.14 0 0 1-2.277-4.803c-.472-1.076-.806-2.153-1.388-3.147-2.889-4.693-5.973-7.535-10.778-10.323-1.027-.58-2.249-.828-3.555-1.132l-2.083-.139c-.417-.166-.861-.69-1.278-.938-1.583-.994-5.666-3.174-6.834-.304-.75 1.794 1.111 3.561 1.777 4.472.473.635 1.055 1.353 1.389 2.07.221.469.249.939.444 1.435.472 1.242.861 2.595 1.444 3.726.305.58.638 1.187 1.027 1.712.222.304.639.442.694.938-.389.552-.416 1.38-.638 2.07-.972 3.119-.611 6.956.833 9.274.445.69 1.472 2.208 2.917 1.629 1.25-.525.972-2.071 1.333-3.478.084-.304.028-.525.194-.745v.055c.361.773.75 1.518 1.139 2.263.833 1.353 2.333 2.788 3.611 3.726.638.497 1.166 1.353 2.027 1.628v-.056h-.083c-.167-.247-.417-.358-.611-.552-.5-.497-1.055-1.104-1.472-1.656-1.138-1.546-2.166-3.257-3.11-5.024-.445-.856-.834-1.794-1.194-2.65-.14-.331-.14-.828-.445-1.021-.417.635-.999 1.159-1.334 1.905-.5 1.187-.583 2.65-.749 4.141-.112.055-.084.027-.14.083-.888-.221-1.194-1.132-1.527-1.905-.805-1.96-.972-5.106-.25-7.37.194-.58 1.056-2.402.695-2.953-.168-.525-.695-.856-1-1.269-.389-.497-.75-1.159-1.027-1.739-.666-1.546-.972-3.257-1.695-4.803-.361-.745-.916-1.491-1.388-2.126-.528-.745-1.111-1.269-1.527-2.153-.139-.304-.333-.801-.139-1.132.083-.221.167-.304.388-.387.361-.276 1.39.111 1.777.248 1 .442 1.861.828 2.722 1.408.417.276.834.8 1.334.938h.556c.889.193 1.888.055 2.721.304 1.472.441 2.805 1.132 4.001 1.905 3.666 2.291 6.639 5.548 8.694 9.44.333.635.472 1.214.75 1.877.584 1.353 1.333 2.733 1.916 4.03.556 1.325 1.139 2.65 1.944 3.726.445.58 2.111.883 2.861 1.187.528.221 1.389.469 1.89.773.972.552 1.888 1.242 2.805 1.877.443.307 1.832.997 1.888 1.576zM78.151 7.722a4.74 4.74 0 0 0-1.138.139v.055h.083c.222.442.611.745.889 1.132l.611 1.325.083-.083c.389-.248.556-.69.556-1.38-.139-.166-.167-.359-.305-.552-.195-.277-.528-.415-.779-.635z" fill="#00678c"/><path d="M48.514 52.328H58.93c1.222 0 2.416-.249 3.36-.691 1.555-.716 2.333-1.683 2.333-2.953v-2.65c0-1.021-.889-2.014-2.582-2.65-.917-.359-2.028-.525-3.111-.525h-4.388c-1.472 0-2.166-.442-2.333-1.407-.028-.11-.028-.221-.028-.331v-1.629c0-.11 0-.193.028-.303.167-.745.555-.966 1.833-1.076.111 0 .25-.028.361-.028h10.36v-2.401H54.57c-1.472 0-2.222.11-2.917.303-2.166.69-3.111 1.739-3.111 3.589v2.098c0 1.629 1.861 3.009 4.944 3.34l1.055.028h3.75c.139 0 .277 0 .388.028 1.167.11 1.639.303 2 .716.194.221.278.415.278.663v2.098c0 .249-.167.58-.528.856-.306.277-.834.442-1.528.497-.139 0-.249.028-.389.028h-9.999v2.401zm38.72-4.197c0 2.484 1.833 3.864 5.584 4.141l1.027.056h9.444v-2.402h-9.5c-2.139 0-2.944-.525-2.944-1.794V35.684h-3.611v12.448h.001zm-20.304.138v-8.556c0-2.181 1.527-3.505 4.583-3.92.306-.056.667-.056.972-.056h6.888c.333 0 .639 0 1.001.056 3.027.415 4.582 1.739 4.582 3.92v8.556c0 1.768-.666 2.705-2.166 3.313l3.583 3.202h-4.222l-2.889-2.567-2.917.166h-3.86c-.666 0-1.361-.082-2.139-.303-2.304-.608-3.415-1.823-3.415-3.81zm3.916-.22c0 .138.028.248.056.387.222.993 1.166 1.545 2.582 1.545h3.306l-3.028-2.705h4.222l2.638 2.346c.473-.249.806-.635.917-1.132.028-.138.028-.248.028-.359v-8.225c0-.083 0-.193-.028-.304-.222-.938-1.166-1.462-2.555-1.462h-5.5c-1.611 0-2.638.69-2.638 1.766v8.143h-.001zm34.11 4.279h.527v-1.988h.723v-.414h-1.973v.414h.723v1.988zm4.055 0h.472v-2.402h-.722l-.639 1.657-.638-1.657h-.75v2.402h.5v-1.822l.694 1.822h.361l.694-1.822h.028v1.822h0z" fill="#ce8b2c"/></svg>