<svg xmlns="http://www.w3.org/2000/svg" width="518.453" height="153.36" xmlns:v="https://vecta.io/nano"><defs><linearGradient x1="75.522" y1="103.945" x2="53.623" y2="72.662" id="A" gradientUnits="userSpaceOnUse"><stop offset="0" stop-color="#ffd43b"/><stop offset="1" stop-color="#ffe873"/></linearGradient><linearGradient x1="5.591" y1="6.397" x2="66.918" y2="59.669" id="B" gradientUnits="userSpaceOnUse"><stop offset="0" stop-color="#5a9fd4"/><stop offset="1" stop-color="#306998"/></linearGradient><radialGradient cx="61.519" cy="132.286" r="29.037" fx="61.519" fy="132.286" id="C" gradientTransform="matrix(2.382716e-8,-0.296405,1.43676,4.683673e-7,-128.544,150.5202)" gradientUnits="userSpaceOnUse"><stop offset="0" stop-color="#b8b8b8" stop-opacity=".498"/><stop offset="1" stop-color="#7f7f7f" stop-opacity="0"/></radialGradient></defs><path d="M184.613 61.929c0-14.562-4.152-22.038-12.457-22.448a23.4 23.4 0 0 0-9.669 1.589c-2.505.897-4.191 1.784-5.078 2.68v34.758c5.312 3.334 10.03 4.883 14.143 4.64 8.704-.575 13.061-7.642 13.061-21.219zm10.244.604c0 7.398-1.735 13.539-5.224 18.422-3.889 5.527-9.279 8.373-16.17 8.529-5.195.166-10.546-1.462-16.053-4.874v31.59l-8.909-3.178V42.903c1.462-1.793 3.343-3.333 5.624-4.64 5.302-3.09 11.745-4.679 19.328-4.757l.127.127c6.93-.088 12.272 2.758 16.024 8.529 3.499 5.293 5.254 12.077 5.254 20.371zm54.448 20.733c0 9.923-.994 16.794-2.983 20.615-1.998 3.821-5.8 6.872-11.414 9.143-4.552 1.793-9.474 2.768-14.757 2.934l-1.472-5.614c5.371-.731 9.153-1.462 11.346-2.193 4.318-1.462 7.281-3.704 8.909-6.706 1.306-2.447 1.949-7.115 1.949-14.026v-2.32a45.77 45.77 0 0 1-19.153 4.143c-4.386 0-8.256-1.374-11.589-4.143-3.743-3.012-5.614-6.833-5.614-11.463V36.558l8.909-3.051v37.322c0 3.987 1.287 7.057 3.86 9.211s5.907 3.187 9.991 3.109c4.084-.088 8.46-1.667 13.11-4.757v-43.54h8.909v48.414zm34.777 5.731l-2.934.127c-5.039 0-8.967-1.199-11.774-3.606-2.797-2.408-4.201-5.731-4.201-9.971v-35.09h-6.102v-5.605h6.102V19.968l8.899-3.168v18.052h10.01v5.605h-10.01v34.846c0 3.343.897 5.712 2.69 7.096 1.54 1.14 3.987 1.793 7.32 1.959v4.64zm53.941-.731h-8.909V53.878c0-3.499-.819-6.511-2.447-9.026-1.881-2.846-4.493-4.269-7.846-4.269-4.084 0-9.192 2.154-15.322 6.462v41.22h-8.909V6.069l8.909-2.807V40.7c5.692-4.143 11.911-6.219 18.666-6.219 4.718 0 8.538 1.589 11.463 4.757 2.934 3.168 4.396 7.115 4.396 11.833v37.195h0zm47.351-27.74c0-5.595-1.062-10.215-3.178-13.87-2.515-4.454-6.423-6.803-11.706-7.047-9.767.565-14.64 7.564-14.64 20.976 0 6.15 1.014 11.287 3.061 15.41 2.612 5.254 6.531 7.846 11.755 7.759 9.806-.078 14.708-7.817 14.708-23.227zm9.757.058c0 7.963-2.037 14.591-6.102 19.884-4.474 5.926-10.654 8.899-18.539 8.899-7.817 0-13.909-2.973-18.305-8.899-3.987-5.293-5.975-11.921-5.975-19.884 0-7.486 2.154-13.782 6.462-18.909 4.552-5.439 10.537-8.168 17.935-8.168s13.422 2.729 18.061 8.168c4.308 5.127 6.462 11.424 6.462 18.909zm51.075 27.682h-8.909V51.929c0-3.987-1.199-7.096-3.597-9.338-2.398-2.232-5.595-3.314-9.581-3.226-4.23.078-8.256 1.462-12.077 4.143v44.759h-8.909v-45.86c5.127-3.733 9.845-6.17 14.153-7.31 4.065-1.062 7.651-1.589 10.741-1.589 2.115 0 4.104.205 5.975.614 3.499.809 6.345 2.31 8.538 4.513 2.447 2.437 3.665 5.361 3.665 8.782v40.85z" fill="#646464"/><path d="M60.51 6.398c-4.584.021-8.961.412-12.812 1.094-11.346 2.005-13.406 6.2-13.406 13.938v10.219h26.813v3.406H34.291 24.229c-7.792 0-14.616 4.684-16.75 13.594-2.462 10.213-2.571 16.586 0 27.25 1.906 7.938 6.458 13.594 14.25 13.594h9.219v-12.25c0-8.85 7.657-16.656 16.75-16.656h26.781c7.455 0 13.406-6.138 13.406-13.625V21.429c0-7.266-6.13-12.725-13.406-13.938-4.606-.767-9.385-1.115-13.969-1.094zm-14.5 8.219c2.77 0 5.031 2.299 5.031 5.125 0 2.816-2.262 5.094-5.031 5.094-2.779 0-5.031-2.277-5.031-5.094 0-2.826 2.252-5.125 5.031-5.125z" fill="url(#B)"/><path d="M91.229 35.054V46.96c0 9.231-7.826 17-16.75 17H47.698c-7.336 0-13.406 6.278-13.406 13.625v25.531c0 7.266 6.319 11.54 13.406 13.625 8.487 2.496 16.626 2.947 26.781 0 6.75-1.954 13.406-5.888 13.406-13.625V92.898H61.104v-3.406h26.781 13.406c7.792 0 10.696-5.435 13.406-13.594 2.799-8.399 2.68-16.476 0-27.25-1.926-7.757-5.604-13.594-13.406-13.594H91.229zM76.166 99.71c2.779 0 5.031 2.277 5.031 5.094 0 2.826-2.252 5.125-5.031 5.125-2.77 0-5.031-2.299-5.031-5.125 0-2.816 2.262-5.094 5.031-5.094z" fill="url(#A)"/><path d="M463.554 26.909h1.562v-9.796h3.7v-1.168h-8.962v1.168h3.7v9.796m6.647 0h1.334v-8.947l2.896 8.946h1.486l3.018-8.916v8.917h1.456V15.945h-1.926l-3.298 9.393-2.813-9.393h-2.153v10.964" fill="#646464"/><path transform="matrix(.73406 0 0 .809524 16.24958 27.00935)" d="M 110.46717 132.28575 A 48.948284 8.6066771 0 1 1  12.570599,132.28575 A 48.948284 8.6066771 0 1 1  110.46717 132.28575 z" opacity=".444" fill="url(#C)"/></svg>