<svg xmlns="http://www.w3.org/2000/svg" width="102" height="27" fill="none" xmlns:v="https://vecta.io/nano"><g clip-path="url(#A)"><path d="M2.621 16.129c1.445 0 2.616-1.176 2.616-2.627s-1.171-2.627-2.616-2.627S.006 12.052.006 13.502s1.171 2.627 2.616 2.627z" fill="#ff6309"/><path d="M21.377 27c1.445 0 2.616-1.176 2.616-2.627s-1.171-2.627-2.616-2.627-2.616 1.176-2.616 2.627S19.933 27 21.377 27z" fill="#ffb515"/><path d="M21.375 5.253c1.445 0 2.616-1.176 2.616-2.627S22.82 0 21.375 0s-2.616 1.176-2.616 2.627 1.171 2.627 2.616 2.627z" fill="#c90016"/><path d="M15.125 7.003c3.257 0 5.959 2.429 6.407 5.577h4.481a10.9 10.9 0 0 0-2.933-6.598c-1.094.559-2.439.57-3.581-.092s-1.807-1.839-1.87-3.071c-.821-.192-1.661-.289-2.504-.288a10.85 10.85 0 0 0-4.652 1.038l2.244 3.902c.766-.309 1.583-.468 2.409-.468z" fill="#ff6309"/><path d="M8.653 13.502a6.5 6.5 0 0 1 2.476-5.109L8.886 4.491a11.09 11.09 0 0 0-1.487 1.252C6.1 7.047 5.169 8.621 4.657 10.339c1.032.671 1.716 1.837 1.716 3.164s-.683 2.492-1.716 3.163c.512 1.718 1.443 3.291 2.741 4.595a11.1 11.1 0 0 0 1.486 1.252l2.243-3.902a6.5 6.5 0 0 1-2.475-5.108z" fill="#ffb515"/><path d="M21.532 14.421c-.446 3.15-3.149 5.58-6.407 5.58a6.41 6.41 0 0 1-2.41-.468l-2.244 3.902a10.85 10.85 0 0 0 4.653 1.039c.854 0 1.694-.099 2.506-.289.063-1.234.726-2.412 1.87-3.075a3.73 3.73 0 0 1 3.582-.092 10.9 10.9 0 0 0 2.93-6.597h-4.48z" fill="#c90016"/><path d="M42.318 13.459V8.404a1.37 1.37 0 1 0-2.746 0v5.055c0 1.838-.763 2.451-2.136 2.451s-2.136-.613-2.136-2.451V8.404a1.37 1.37 0 1 0-2.746 0v5.055c0 3.677 2.136 5.209 4.882 5.209s4.882-1.532 4.882-5.209zm12.815 0c0-5.209-2.135-6.434-4.881-6.434-1.373 0-2.136.613-2.136.613V4.114c0-1.838-2.746-1.838-2.746 0v9.345c0 3.677 2.136 5.209 4.882 5.209s4.881-1.532 4.881-5.209zm-7.018-.306c0-3.217 1.525-3.523 2.136-3.523.915 0 2.136.766 2.136 3.523 0 1.838-.763 3.064-2.136 3.064s-2.136-1.226-2.136-3.064zm53.879.306V8.404a1.37 1.37 0 1 0-2.746 0v5.055c0 1.838-.763 2.451-2.136 2.451s-2.136-.613-2.136-2.451V8.404a1.38 1.38 0 0 0-.103-.529c-.069-.168-.17-.32-.297-.448a1.37 1.37 0 0 0-.446-.299c-.167-.069-.346-.104-.526-.103a1.36 1.36 0 0 0-.526.103c-.167.069-.319.171-.446.299a1.37 1.37 0 0 0-.297.448 1.38 1.38 0 0 0-.103.529v5.055c0 3.677 2.136 5.209 4.882 5.209s4.882-1.532 4.882-5.209zm-34.674 0V8.404a1.37 1.37 0 1 0-2.746 0v5.055c0 1.838-.763 2.451-2.136 2.451s-2.136-.613-2.136-2.451V8.404a1.37 1.37 0 1 0-2.746 0v5.055c0 3.677 2.136 5.209 4.882 5.209s4.882-1.532 4.882-5.209zm16.114-6.435c-1.678 0-1.678 2.451 0 2.451h.458v5.331c0 2.911.717 3.861 3.188 3.861 1.19 0 2.929-.214 2.929-1.44 0-.766-.702-.965-.9-.965-.427 0-.87.184-1.358.184-.854 0-1.114-.429-1.114-1.869V9.476h1.221c1.678 0 1.678-2.451 0-2.451h-1.221V4.114c0-1.838-2.746-1.838-2.746 0v2.911h-.457zm-13.273 5.209v5.055c-.001.181.034.361.103.529s.17.32.297.448.279.23.446.299.346.104.526.104.359-.035.526-.104.319-.171.446-.299.229-.28.297-.448.104-.347.103-.529v-5.055c0-1.838.763-2.451 2.136-2.451s2.136.613 2.136 2.451v5.055a1.37 1.37 0 1 0 2.746 0v-5.055c0-3.677-2.136-5.209-4.882-5.209s-4.881 1.532-4.881 5.209z" fill="#000"/></g><defs><clipPath id="A"><path fill="#fff" d="M0 0h102v27H0z"/></clipPath></defs></svg>