<svg xmlns="http://www.w3.org/2000/svg" width="155" height="57" fill="none" fill-rule="evenodd" xmlns:v="https://vecta.io/nano"><path d="M34.432 14.178c.682.308 1.016 1.233 1.25 2.479l7.3 39.421L7.924 35.343-.365 4.559C-.593 3.66.188 3.083.927 3.319L15.27 8.055c1.621.525.804-2.277 2.033-1.904l10.783 3.264c1.068.386.638 2.736 1.713 3.214l4.635 1.549z" fill="#236bb3"/><path d="M53.04 9.171L16.187-.372c-.713-.167-1.176.188-1.434 1.018l-1.72 6.672 2.235.738c1.621.525.804-2.277 2.033-1.904l10.783 3.264c1.068.386.638 2.736 1.712 3.214l4.635 1.549c.682.308 1.016 1.233 1.25 2.479l7.298 39.41.004.007 11.133-44.756c.207-.977-.296-1.908-1.077-2.148z" fill="#eebd31"/><path d="M73.918 41.032l-25.204-7.994-5.729 23.036-.004-.007.002.011 32.227-13.891c.769-.424-.404-.794-1.291-1.156z" fill="#c9d3eb"/><g fill="#236bb3"><path d="M69.393 23.087h-9.778v18.562h2.633v-8.487h7.145v-2.428h-7.145v-5.219h7.145v-2.428zm4.521 2.61c0-.8-.645-1.462-1.424-1.462s-1.423.662-1.423 1.462.644 1.464 1.423 1.464 1.424-.662 1.424-1.464zm-.242 3.645h-2.391v12.307h2.391V29.342zm4.638-6.255h-2.391v18.562h2.391V23.087zM90.6 38.06c-1.397.939-2.767 1.491-4.218 1.491-2.31 0-3.68-1.269-4.056-3.726h8.488c0-4.583-2.041-6.819-5.238-6.819-3.331 0-5.641 2.538-5.641 6.294 0 3.424 2.095 6.599 5.856 6.599 2.041 0 3.358-.468 4.808-1.465V38.06h.001zm-8.366-3.864c.323-1.959 1.425-3.064 3.251-3.064 1.692 0 2.74 1.187 2.82 3.064h-6.072zm26.093-11.109h-2.445l-5.474 7.95-5.426-7.95H92.51v18.562h2.633V27.698h.054l4.996 7.288h.43l5.018-7.288h.053V41.65h2.633V23.087zm11.769 16.354c-.537.414-1.02.661-1.263.661-.294 0-.455-.166-.455-.635v-6.376c0-2.817-1.935-4.087-4.379-4.087-1.746 0-3.063.552-4.002 1.683v2.678c1.155-1.408 2.497-2.043 3.813-2.043 1.451 0 2.178.635 2.178 2.18v.662l-2.124.774c-1.933.716-4.109 1.463-4.109 3.92 0 1.601 1.182 3.038 2.955 3.038 1.101 0 2.203-.415 3.25-1.271.216.883.779 1.271 1.827 1.271.752 0 1.209-.221 2.31-.967v-1.49h-.001zm-4.108-.303c-.646.635-1.345 1.02-2.097 1.02a1.66 1.66 0 0 1-1.718-1.739c0-1.464 1.773-2.18 3.815-2.899v3.618zm7.494-16.051h-2.39v18.562h2.39V23.087zm8.3 6.166h-2.847l-5.346 6.074 6.044 6.322h3.224l-6.232-6.322 5.157-6.074zm10.994 8.79c-1.41.93-2.793 1.477-4.259 1.477-2.333 0-3.717-1.257-4.096-3.691h8.573c0-4.54-2.063-6.755-5.291-6.755-3.364 0-5.698 2.515-5.698 6.235 0 3.392 2.117 6.537 5.915 6.537 2.063 0 3.391-.464 4.856-1.451v-2.352h0zm-8.301-3.829c.325-1.941 1.437-3.035 3.283-3.035 1.708 0 2.766 1.176 2.848 3.035h-6.131zm9.923-4.896v12.28h2.415V35.17c0-2.105 1.301-3.774 2.958-3.774.569 0 1.518.492 2.251 1.203l1.274-2.105c-1.003-.957-1.925-1.422-2.903-1.422-1.138 0-2.305.902-3.527 3.061h-.053v-2.816h-2.415v.001zm6.652 12.58a1.79 1.79 0 0 0 .692-.137 1.78 1.78 0 0 0 .586-.395 1.82 1.82 0 0 0 .39-.592 1.83 1.83 0 0 0-.393-1.984c-.338-.341-.796-.534-1.275-.534a1.8 1.8 0 0 0-1.277.533c-.339.341-.529.805-.529 1.288s.19.946.529 1.287a1.8 1.8 0 0 0 1.277.533zm-1.582-1.821a1.61 1.61 0 0 1 .187-.751 1.58 1.58 0 0 1 .517-.573 1.57 1.57 0 0 1 1.482-.146c.24.1.452.259.616.461a1.6 1.6 0 0 1 .329.7 1.62 1.62 0 0 1-.038.773 1.6 1.6 0 0 1-.395.664 1.57 1.57 0 0 1-.511.346 1.56 1.56 0 0 1-.605.121 1.58 1.58 0 0 1-1.118-.468 1.6 1.6 0 0 1-.464-1.128z"/><path d="M151.973 41.044l.201-.096-.399-.848c.186-.075.332-.286.332-.517 0-.331-.26-.565-.497-.565h-.869v1.999h.225v-.881h.576l.431.907zm-1.007-1.802h.645c.115 0 .274.129.274.341 0 .185-.144.332-.269.332v.002h-.651v-.676h.001zM162.044 5.9V3.712h.703V3.42h-1.693v.292h.702V5.9h.288zm.985-2.479h.513l.593 2.044.604-2.044h.48V5.9h-.284V3.667l-.688 2.232h-.276l-.663-2.218V5.9h-.279V3.42z"/></g></svg>