<svg xmlns="http://www.w3.org/2000/svg" width="120" height="34" fill="none" xmlns:v="https://vecta.io/nano"><path d="M13.612 5.616v9.569H4.871V5.616H.724v22.841h4.148v-9.258h8.739v9.258h4.149V5.616h-4.148zm17.426 15.459a3.46 3.46 0 0 1-1.005 2.441c-.644.647-1.517 1.011-2.427 1.011s-1.783-.364-2.427-1.011a3.46 3.46 0 0 1-1.005-2.441V11.29h-3.935v9.784c0 1.963.775 3.846 2.156 5.234a7.34 7.34 0 0 0 10.409 0c1.38-1.388 2.156-3.271 2.156-5.234V11.29h-3.92v9.784zm29.156-8.776c0-2.006 1.319-2.642 2.764-2.642 1.165 0 2.703.892 3.71 1.974l2.577-3.055c-1.287-1.75-3.896-2.959-6.032-2.959-4.269 0-7.357 2.514-7.357 6.683 0 7.734 9.399 5.279 9.399 9.608 0 1.334-1.289 2.513-2.764 2.513-2.327 0-3.082-1.144-4.15-2.354l-2.86 2.991c1.83 2.258 4.086 3.405 6.789 3.405 4.056 0 7.319-2.545 7.319-6.523 0-8.585-9.4-5.917-9.4-9.64h.007zm58.146 12.51c-2.325 0-2.986-1.012-2.986-2.561v-6.859h3.615v-3.475h-3.615V7.329l-3.99 1.801V23.1c0 3.573 2.452 5.374 5.813 5.374.528.009 1.056-.034 1.574-.126l.974-3.604a20.94 20.94 0 0 1-1.385.061v.003zM46.016 11.404c-1.949 0-3.31.569-4.625 1.866V5.752h-3.94v13.936c0 5.216 3.75 8.791 7.964 8.791 4.675 0 8.787-3.638 8.787-8.535 0-4.837-3.784-8.535-8.185-8.535v-.003zm-.025 13.085a4.45 4.45 0 0 1-1.711-.342 4.47 4.47 0 0 1-1.451-.975c-.415-.418-.745-.913-.969-1.459a4.52 4.52 0 0 1 0-3.442c.225-.546.554-1.041.969-1.459a4.47 4.47 0 0 1 1.451-.975 4.45 4.45 0 0 1 1.711-.342 4.46 4.46 0 0 1 3.162 1.317 4.51 4.51 0 0 1 0 6.36 4.46 4.46 0 0 1-3.162 1.317zm42.82-4.754c0-4.907-4.103-8.535-8.787-8.535-4.213 0-7.964 3.573-7.964 8.791v13.943H76v-7.528c1.313 1.295 2.676 1.866 4.623 1.866 4.401 0 8.186-3.699 8.186-8.537h.001zm-3.732-.05a4.51 4.51 0 0 1-1.31 3.18 4.46 4.46 0 0 1-6.324 0 4.51 4.51 0 0 1 0-6.36 4.46 4.46 0 0 1 6.324 0 4.51 4.51 0 0 1 1.31 3.18z" fill="#33475b"/><path d="M101.543 11.008V7.026c.523-.246.967-.636 1.278-1.126s.478-1.057.48-1.638v-.091c0-1.694-1.365-3.066-3.049-3.066h-.091a3.04 3.04 0 0 0-2.156.898c-.572.575-.893 1.355-.893 2.168v.091a3.08 3.08 0 0 0 .48 1.638c.311.489.754.88 1.278 1.126v3.982a8.61 8.61 0 0 0-4.105 1.818L83.905 4.32c.078-.281.118-.57.122-.86a3.47 3.47 0 0 0-.575-1.921 3.44 3.44 0 0 0-1.54-1.275c-.627-.263-1.318-.332-1.985-.2a3.43 3.43 0 0 0-1.761.943 3.46 3.46 0 0 0-.943 1.768c-.134.67-.067 1.365.192 1.997a3.45 3.45 0 0 0 1.263 1.553 3.42 3.42 0 0 0 1.908.585c.595-.003 1.178-.162 1.692-.463l10.693 8.368c-.961 1.459-1.462 3.176-1.438 4.926s.571 3.452 1.571 4.885l-3.252 3.272c-.263-.085-.537-.13-.813-.133a2.81 2.81 0 0 0-1.567.479c-.464.312-.825.755-1.038 1.273s-.269 1.089-.16 1.639.378 1.056.772 1.452.897.667 1.444.776 1.114.053 1.63-.161.956-.578 1.266-1.044a2.85 2.85 0 0 0 .476-1.575c-.004-.278-.048-.553-.132-.817l3.217-3.237c1.049.812 2.269 1.372 3.567 1.637s2.638.227 3.919-.109 2.469-.964 3.472-1.834 1.794-1.959 2.314-3.183a8.76 8.76 0 0 0 .684-3.883c-.069-1.33-.441-2.626-1.085-3.789a8.71 8.71 0 0 0-2.633-2.922 8.65 8.65 0 0 0-3.644-1.457zm-1.333 13.097a4.43 4.43 0 0 1-1.741-.305 4.45 4.45 0 0 1-1.486-.962 4.48 4.48 0 0 1-.997-1.467 4.5 4.5 0 0 1 0-3.483c.231-.551.57-1.05.997-1.467s.931-.744 1.486-.962a4.43 4.43 0 0 1 1.741-.305 4.44 4.44 0 0 1 3.045 1.364c.801.834 1.249 1.948 1.25 3.108s-.446 2.274-1.247 3.109a4.44 4.44 0 0 1-3.044 1.366" fill="#ff7a59"/></svg>