<svg xmlns="http://www.w3.org/2000/svg" xmlns:xlink="http://www.w3.org/1999/xlink" width="726" height="387" fill="none" xmlns:v="https://vecta.io/nano"><style><![CDATA[.B{fill-rule:evenodd}]]></style><path d="M370.306 386.004H96.147v-78.529h274.159c21.754 0 39.356 17.598 39.356 39.347 0 21.583-17.602 39.182-39.356 39.182z" fill="url(#A)"/><path d="M98.147 384.004h272.159c20.655 0 37.356-16.709 37.356-37.182 0-20.644-16.706-37.347-37.356-37.347H98.147v74.529zm272.159 2c21.754 0 39.356-17.599 39.356-39.182 0-21.749-17.602-39.347-39.356-39.347H96.147v78.529h274.159z" fill="#f8bcb2" class="B"/><path d="M96.147 307.475c-21.753 0-39.355 17.598-39.355 39.347s17.602 39.348 39.355 39.348c11.624 0 21.919-4.981 29.226-12.95 16.771-16.602 14.115-56.946 70.574-65.745h-99.8z" fill="url(#B)"/><path d="M96.147 376.873c16.691 0 30.222-13.529 30.222-30.217s-13.531-30.216-30.222-30.216-30.222 13.528-30.222 30.216 13.531 30.217 30.222 30.217z" fill="url(#C)"/><path d="M313.515 232.1H39.356v-78.529h274.16c21.754 0 39.356 17.599 39.356 39.348 0 21.583-17.602 39.181-39.356 39.181z" fill="url(#D)"/><path d="M41.356 230.1h272.16c20.655 0 37.356-16.709 37.356-37.181 0-20.644-16.707-37.348-37.356-37.348H41.356V230.1zm272.16 2c21.754 0 39.356-17.598 39.356-39.181 0-21.749-17.602-39.348-39.356-39.348H39.356V232.1h274.16z" fill="#a8c1ec" class="B"/><path d="M39.355 153.571C17.602 153.571 0 171.17 0 192.919s17.602 39.347 39.355 39.347c11.624 0 21.92-4.98 29.226-12.95 16.772-16.602 14.115-56.945 70.575-65.745H39.355z" fill="url(#E)"/><path d="M39.355 222.969c16.691 0 30.222-13.528 30.222-30.216s-13.531-30.216-30.222-30.216-30.222 13.528-30.222 30.216 13.531 30.216 30.222 30.216z" fill="url(#F)"/><path opacity=".5" d="M370.306 78.695H96.147V0h274.159c21.754 0 39.356 17.599 39.356 39.348s-17.602 39.348-39.356 39.348z" fill="url(#G)"/><path opacity=".5" d="M98.147 76.695h272.159c20.65 0 37.356-16.703 37.356-37.347S390.956 2 370.306 2H98.147v74.695zm272.159 2c21.754 0 39.356-17.598 39.356-39.347S392.06 0 370.306 0H96.147v78.695h274.159z" fill="#fbbb60" class="B"/><path d="M96.147 0C74.393 0 56.791 17.599 56.791 39.348s17.602 39.348 39.355 39.348c11.624 0 21.919-4.981 29.226-12.95C142.144 49.143 139.488 8.799 195.947 0h-99.8z" fill="url(#H)"/><path d="M96.147 69.564c16.691 0 30.222-13.528 30.222-30.216S112.838 9.131 96.147 9.131 65.924 22.66 65.924 39.348s13.531 30.216 30.222 30.216z" fill="url(#I)"/><use xlink:href="#M" fill="url(#J)"/><use xlink:href="#M" opacity=".063" fill="#6d6d6d"/><path d="M600.461 311.268c65.467 0 118.539-53.061 118.539-118.515S665.928 74.238 600.461 74.238s-118.539 53.061-118.539 118.515 53.072 118.515 118.539 118.515z" fill="url(#K)"/><g fill="#ff6b00"><path d="M430.044 192.587c0-94.01 76.222-170.383 170.417-170.383.207 0 .375.168.375.375v42.502c0 .207-.168.375-.375.375s-.375-.168-.375-.375V22.955c-93.608.202-169.292 76.161-169.292 169.633 0 93.636 75.849 169.43 169.292 169.632v-41.794c0-.207.168-.375.375-.375s.375.168.375.375v42.17c0 .207-.168.375-.375.375-94.029 0-170.417-76.207-170.417-170.383z" class="B"/><path d="M596.808 64.583h7.473l-3.82 3.819-3.653-3.818zm0 256.34h7.473l-3.82-3.819-3.653 3.819z"/><path d="M498.434 330.784c.147.145.148.383.003.53l-15.61 15.772c-.07.071-.166.111-.266.111h-60.113c-.207 0-.375-.168-.375-.375s.168-.375.375-.375h59.956l15.5-15.661c.145-.147.383-.148.53-.002z" class="B"/><path d="M422.946 343.004v7.637l-3.819-3.819 3.819-3.818z"/><path d="M422.073 39.347c0-.207.168-.375.375-.375h42.013c.107 0 .21.046.281.127l23.082 26.232c.137.155.122.392-.034.529s-.392.122-.529-.034l-22.97-26.104h-41.843c-.207 0-.375-.168-.375-.375z" class="B"/><path d="M422.946 35.529v7.637l-3.819-3.819 3.819-3.818z"/><path d="M209.73 86.898c.207 0 .375.168.375.375v57.556c0 .207-.168.375-.375.375s-.375-.168-.375-.375V87.273c0-.207.168-.375.375-.375zm0 152.999c.207 0 .375.168.375.375v57.556c0 .207-.168.375-.375.375s-.375-.168-.375-.375v-57.556c0-.207.168-.375.375-.375z" class="B"/><path d="M214.213 88.151h-9.133L209.73 82l4.483 6.151zm0 153h-9.133l4.65-6.151 4.483 6.151zm0-97.202h-9.133l4.65 6.151 4.483-6.151zm0 153h-9.133l4.65 6.151 4.483-6.151z"/></g><path d="M181.832 44.66c-.83-.166-1.328-.498-1.827-.83l.831-1.826c.498.332.996.664 1.66.83s1.163.332 1.827.332 1.162-.166 1.494-.332.499-.498.499-.83c0-.166-.167-.498-.333-.664a1.27 1.27 0 0 0-.83-.332c-.332-.166-.664-.166-1.162-.332l-1.993-.498c-.498-.166-.996-.498-1.328-.83-.333-.498-.499-.996-.499-1.66s.166-1.162.499-1.66.83-.83 1.494-1.162 1.495-.498 2.491-.498c.664 0 1.328 0 1.993.166s1.162.332 1.66.664l-.83 1.826c-.996-.498-1.993-.83-2.823-.83-.664 0-1.162.166-1.495.332s-.498.498-.498.83.166.664.498.83.997.332 1.661.498l1.993.498c.498.166.996.498 1.328.83s.498.996.498 1.66-.166 1.162-.498 1.66-.83.83-1.494 1.162-1.495.498-2.491.498c-.664.166-1.495 0-2.325-.332zm16.938-9.795a3.92 3.92 0 0 1 1.494 1.328c.332.498.498 1.162.498 1.992s-.166 1.494-.498 1.992a3.92 3.92 0 0 1-1.494 1.328c-.664.332-1.495.498-2.491.498h-1.993v2.822h-2.491V34.367h4.484c.996 0 1.827.166 2.491.498zm-.83 4.649c.332-.332.498-.83.498-1.328 0-.664-.166-.996-.498-1.328s-.997-.498-1.661-.498h-1.993v3.652h1.993c.664 0 1.328-.166 1.661-.498zM212.22 43v1.826h-7.97V34.367h7.97v1.992h-5.479v2.324h4.815v1.826h-4.815V43h5.479zm10.296-.332H217.7l-.996 2.158h-2.491l4.65-10.459h2.324l4.65 10.459h-2.491l-.83-2.158zm-.664-1.826l-1.661-3.985-1.66 3.985h3.321zm10.627 0l-1.328 1.494v2.49h-2.325V34.367h2.325v4.815l4.649-4.815h2.657l-4.317 4.649 4.649 5.811H235.8l-3.321-3.985zM249.251 43v1.826h-8.137V34.367h7.971v1.992h-5.48v2.324h4.816v1.826h-4.816V43h5.646zm10.13 1.826l-1.993-2.989h-.166-2.159v2.989h-2.491V34.367h4.484a6.07 6.07 0 0 1 2.491.498 3.92 3.92 0 0 1 1.494 1.328c.332.498.498 1.162.498 1.992s-.166 1.494-.498 1.992-.83.996-1.66 1.328l2.324 3.321h-2.324zm-.665-7.969c-.332-.332-.996-.498-1.66-.498h-1.993v3.652h1.993c.664 0 1.328-.166 1.66-.498s.499-.83.499-1.328c.166-.498 0-.996-.499-1.328zm12.288-2.49h4.816c1.162 0 2.159.166 2.989.664s1.495.996 1.993 1.826.664 1.66.664 2.822c0 .996-.166 1.992-.664 2.822s-1.163 1.328-1.993 1.826-1.827.664-2.989.664h-4.816V34.367zm4.484 8.467a4.08 4.08 0 0 0 2.491-.83c.664-.664.996-1.328.996-2.324s-.332-1.826-.996-2.324c-.664-.664-1.495-.83-2.491-.83h-2.159V43h2.159v-.166zm15.941-.166h-4.815l-.997 2.158h-2.491l4.65-10.459h2.325l4.649 10.459h-2.49l-.831-2.158zm-.664-1.826l-1.66-3.985-1.661 3.985h3.321zm8.469-4.483h-3.321v-1.992h9.133v1.992h-3.321v8.467h-2.491v-8.467zm14.945 6.309h-4.816l-.996 2.158h-2.491l4.65-10.459h2.325l4.649 10.459h-2.491l-.83-2.158zm-.83-1.826l-1.661-3.985-1.66 3.985h3.321zm15.941-.498c.332.498.499.996.499 1.66 0 .996-.333 1.66-.997 2.158s-1.826.664-3.155.664h-5.48V34.367h5.148c1.328 0 2.325.166 2.989.664s.996 1.162.996 1.992a3.13 3.13 0 0 1-.332 1.328c-.166.332-.664.664-.996.996.498.332.996.664 1.328.996zm-6.642-4.151v2.49h2.325a2.57 2.57 0 0 0 1.328-.332c.332-.166.498-.498.498-.996s-.166-.664-.498-.996c-.332-.166-.83-.332-1.328-.332h-2.325v.166zm4.151 6.641c.333-.166.499-.498.499-.996 0-.83-.665-1.328-1.993-1.328h-2.823v2.656h2.823c.664-.166 1.162-.166 1.494-.332zm13.119-.166h-4.816l-.996 2.158h-2.491l4.65-10.459h2.325l4.649 10.459h-2.491l-.83-2.158zm-.664-1.826l-1.661-3.985-1.66 3.985h3.321zm7.805 3.818c-.831-.166-1.329-.498-1.827-.83l.83-1.826c.498.332.997.664 1.661.83s1.162.332 1.826.332 1.163-.166 1.495-.332.498-.498.498-.83c0-.166-.166-.498-.332-.664a1.27 1.27 0 0 0-.83-.332c-.332-.166-.665-.166-1.163-.332l-1.992-.498a3.61 3.61 0 0 1-1.329-.83c-.332-.498-.498-.996-.498-1.66s.166-1.162.498-1.66.83-.83 1.495-1.162 1.494-.498 2.491-.498c.664 0 1.328 0 1.992.166s1.163.332 1.661.664l-.831 1.826c-.996-.498-1.992-.83-2.822-.83-.665 0-1.163.166-1.495.332s-.498.498-.498.83.166.664.498.83.996.332 1.661.498l1.992.498a3.62 3.62 0 0 1 1.329.83c.332.332.498.996.498 1.66s-.166 1.162-.498 1.66-.831.83-1.495 1.162-1.494.498-2.491.498c-.664.166-1.494 0-2.324-.332zm18.1-1.66v1.826h-8.137V34.367h7.97v1.992h-5.479v2.324h4.815v1.826h-4.815V43h5.646zm-256.89 147.427v2.823h4.816v1.992h-4.816v3.819h-2.491v-10.46h7.971v1.992h-5.48v-.166zm8.635-1.825h2.491v10.46h-2.491v-10.46zm6.31 0h2.491v8.467h5.314v1.993h-7.639v-10.46h-.166zm18.598 8.467v1.993h-8.136v-10.46h7.97v1.993h-5.48v2.324h4.816v1.826h-4.816v2.491h5.646v-.167zm12.953 1.993v-6.309l-3.155 5.147h-1.163l-2.989-4.981v6.143h-2.324v-10.46h1.992l3.986 6.475 3.819-6.475h1.993v10.46h-2.159zm13.118-2.325h-4.815l-.997 2.159h-2.491l4.65-10.46h2.325l4.649 10.46h-2.491l-.83-2.159zm-.664-1.826l-1.661-3.984-1.66 3.984h3.321zm10.628 0l-1.329 1.494v2.657h-2.325v-10.46h2.325v4.815l4.65-4.815h2.657l-4.318 4.649 4.65 5.811h-2.823l-3.487-4.151zm16.771 2.158v1.993h-8.136v-10.46h7.97v1.993h-5.479v2.324h4.815v1.826h-4.815v2.491h5.645v-.167zm10.13 1.993l-1.993-2.989h-.166-2.158v2.989h-2.491v-10.46h4.483c.997 0 1.661.166 2.491.498.664.332 1.162.83 1.495 1.329s.498 1.162.498 1.992-.166 1.494-.498 1.992a3.47 3.47 0 0 1-1.661 1.328l2.325 3.321h-2.325zm-.664-8.135c-.332-.332-.997-.498-1.661-.498h-1.992v3.652h1.992c.664 0 1.329-.166 1.661-.498s.498-.83.498-1.328c.166-.498-.166-.996-.498-1.328zm12.122-2.325h4.815c1.163 0 2.159.166 2.989.664s1.495.997 1.993 1.827.664 1.66.664 2.822c0 .996-.166 1.992-.664 2.822s-1.162 1.329-1.993 1.827-1.826.664-2.989.664h-4.815v-10.626zm4.649 8.467c.997 0 1.827-.332 2.491-.83.664-.664.997-1.328.997-2.324s-.333-1.826-.997-2.324c-.664-.664-1.494-.83-2.491-.83h-2.158v6.475h2.158v-.167zm15.942-.332h-4.816l-.996 2.159h-2.491l4.649-10.46h2.325l4.65 10.46h-2.491l-.83-2.159zm-.665-1.826l-1.66-3.984-1.661 3.984h3.321zm7.805 3.985c-.83-.166-1.328-.498-1.826-.83l.83-1.827c.498.332.996.664 1.66.83s1.163.333 1.827.333 1.162-.167 1.495-.333.498-.498.498-.83c0-.166-.166-.498-.332-.664s-.499-.332-.831-.332c-.332-.166-.664-.166-1.162-.332l-1.993-.498c-.498-.166-.996-.498-1.328-.83-.332-.498-.498-.996-.498-1.66s.166-1.162.498-1.66.83-.831 1.494-1.163 1.495-.498 2.491-.498c.664 0 1.329 0 1.993.166s1.162.332 1.66.664l-.83 1.827c-.996-.498-1.993-.83-2.823-.83-.664 0-1.162.166-1.494.332s-.499.498-.499.83.167.664.499.83.996.332 1.66.498l1.993.498c.498.166.996.498 1.328.83s.499.996.499 1.66a2.81 2.81 0 0 1-.499 1.661c-.332.498-.83.83-1.494 1.162s-1.495.498-2.491.498c-.83 0-1.495-.166-2.325-.332zm19.595-10.294v10.46h-2.491v-4.317h-4.816v4.317h-2.49v-10.46h2.49v4.151h4.816v-4.151h2.491zm13.118 5.977c.333.498.499.996.499 1.66 0 .996-.333 1.661-.997 2.159s-1.826.664-3.155.664h-5.48v-10.46h5.148c1.329 0 2.325.166 2.989.664s.996 1.163.996 1.993c0 .498-.166.996-.332 1.328s-.664.664-.996.996c.498.166.996.498 1.328.996zm-6.808-4.15v2.49h2.325a2.57 2.57 0 0 0 1.328-.332c.332-.166.499-.498.499-.996s-.167-.664-.499-.996c-.332-.166-.83-.332-1.328-.332h-2.325v.166zm4.318 6.474c.332-.166.498-.498.498-.996 0-.83-.664-1.328-1.993-1.328h-2.823v2.657h2.823c.664 0 1.162-.167 1.495-.333zm8.468 1.661c-.83-.498-1.494-1.162-1.992-1.993s-.665-1.826-.665-2.822.166-1.992.665-2.822 1.162-1.495 1.992-1.993 1.827-.664 2.989-.664 1.993.166 2.989.664a5.72 5.72 0 0 1 1.993 1.993c.498.83.83 1.826.83 2.822s-.332 1.992-.83 2.822a5.71 5.71 0 0 1-1.993 1.993c-.83.498-1.826.664-2.989.664s-2.158-.332-2.989-.664zm4.484-1.827c.498-.332.83-.664 1.162-1.162s.498-1.162.498-1.66c0-.664-.166-1.162-.498-1.66s-.664-.83-1.162-1.162-.996-.498-1.661-.498a2.8 2.8 0 0 0-1.66.498 3.88 3.88 0 0 0-1.163 1.162c-.332.498-.498 1.162-.498 1.66 0 .664.166 1.162.498 1.66a3.88 3.88 0 0 0 1.163 1.162c.498.332.996.498 1.66.498s1.163-.332 1.661-.498zm14.115 0h-4.816l-.996 2.159h-2.491l4.65-10.46h2.324l4.65 10.46h-2.325l-.996-2.159zm-.664-1.826l-1.661-3.984-1.66 3.984h3.321zm13.45 4.151l-1.993-2.989h-.166-2.158v2.989h-2.491v-10.46h4.483c.997 0 1.661.166 2.491.498.664.332 1.163.83 1.495 1.329s.498 1.162.498 1.992-.166 1.494-.498 1.992a3.47 3.47 0 0 1-1.661 1.328l2.325 3.321h-2.325zm-.664-8.135c-.332-.332-.996-.498-1.661-.498h-1.992v3.652h1.992c.665 0 1.329-.166 1.661-.498s.498-.83.498-1.328c.166-.498-.166-.996-.498-1.328zm6.476-2.325h4.816c1.162 0 2.159.166 2.989.664s1.494.997 1.992 1.827.665 1.66.665 2.822c0 .996-.166 1.992-.665 2.822s-1.162 1.329-1.992 1.827-1.827.664-2.989.664h-4.816v-10.626zm4.65 8.467a4.08 4.08 0 0 0 2.491-.83c.664-.664.996-1.328.996-2.324s-.332-1.826-.996-2.324c-.665-.664-1.495-.83-2.491-.83h-2.325v6.475h2.325v-.167z" fill="#000"/><g fill="#fff"><path d="M569.076 214.166l-4.483 13.946h-3.487l-2.989-9.463-3.155 9.463h-3.654l-4.649-13.946h3.321l3.155 9.795 3.321-9.795h2.989l3.155 9.961 3.321-9.961h3.155z"/><use xlink:href="#N"/><path d="M600.295 222.135c.498.664.664 1.328.664 2.158 0 1.163-.498 2.159-1.494 2.823s-2.325.996-4.152.996h-7.14v-13.946h6.808c1.661 0 2.989.332 3.986.996.83.664 1.328 1.494 1.328 2.657 0 .664-.166 1.328-.498 1.826a5.04 5.04 0 0 1-1.329 1.328c.831.166 1.329.664 1.827 1.162zm-8.801-5.479v3.321h3.155c.83 0 1.329-.166 1.827-.498s.664-.664.664-1.162-.166-.997-.664-1.163c-.332-.332-.997-.332-1.827-.332h-3.155v-.166zm5.646 8.634c.498-.332.664-.665.664-1.329 0-1.162-.83-1.66-2.491-1.66h-3.819v3.487h3.819c.665 0 1.329-.166 1.827-.498zm9.631 2.656c-.996-.332-1.826-.664-2.491-1.162l1.163-2.491c.664.499 1.328.831 2.158.997s1.661.332 2.491.332c.997 0 1.661-.166 1.993-.332.498-.332.664-.665.664-1.163a1.27 1.27 0 0 0-.332-.83l-.996-.498c-.332-.166-.997-.332-1.661-.498-.996-.332-1.992-.498-2.657-.83s-1.328-.664-1.66-1.162c-.498-.498-.665-1.328-.665-2.158s.167-1.495.665-2.159 1.162-1.162 1.992-1.494 1.993-.498 3.322-.498c.83 0 1.826.166 2.656.332s1.661.498 2.159.996l-.996 2.491c-1.329-.665-2.657-1.163-3.819-1.163-.831 0-1.495.166-1.993.498s-.664.665-.664 1.163.332.83.83.996 1.328.498 2.325.664c.996.332 1.992.498 2.657.83s1.328.664 1.66 1.162.664 1.328.664 2.158-.166 1.495-.664 2.159-1.162 1.162-1.992 1.494-1.993.498-3.322.498c-1.328.166-2.324 0-3.487-.332zm13.451-13.78h3.155v13.946h-3.155v-13.946zm11.292 2.656h-4.484v-2.656h12.122v2.656h-4.483v11.29h-3.155v-11.29z"/><use xlink:href="#N" x="70.076"/></g><path d="M243.605 343.003v10.459h-2.491v-4.316h-4.815v4.316h-2.159v-10.459h2.491v4.151h4.815v-4.151h2.159zm5.148 9.298c-.831-.83-1.329-1.992-1.329-3.486v-5.811h2.491v5.811c0 1.826.83 2.822 2.325 2.822.83 0 1.328-.166 1.661-.664s.664-1.162.664-2.158v-5.811h2.325v5.811c0 1.494-.499 2.656-1.329 3.486s-1.993 1.162-3.487 1.162c-1.329.166-2.491-.332-3.321-1.162zm21.255-3.32c.332.498.498.996.498 1.66 0 .996-.332 1.66-.996 2.158s-1.827.664-3.155.664h-5.48v-10.459h5.148c1.328 0 2.325.166 2.989.664s.996 1.162.996 1.992c0 .498-.166.996-.332 1.328s-.664.665-.996.997c.498.166.996.498 1.328.996zm-6.642-4.151v2.491h2.325c.664 0 .996-.167 1.328-.333s.498-.498.498-.996-.166-.664-.498-.996c-.332-.166-.83-.332-1.328-.332h-2.325v.166zm4.151 6.475c.332-.166.498-.498.498-.996 0-.83-.664-1.328-1.992-1.328H263.2v2.656h2.823c.83 0 1.162-.166 1.494-.332zm7.307 1.992c-.831-.166-1.329-.498-1.827-.83l.83-1.826c.499.332.997.664 1.661.83s1.162.332 1.827.332 1.162-.166 1.494-.332.498-.498.498-.83c0-.166-.166-.498-.332-.664a1.27 1.27 0 0 0-.83-.332c-.332-.166-.664-.166-1.163-.332l-1.992-.498a3.62 3.62 0 0 1-1.329-.83c-.332-.498-.498-.997-.498-1.661s.166-1.162.498-1.66.831-.83 1.495-1.162 1.494-.498 2.491-.498c.664 0 1.328 0 1.992.166s1.163.332 1.661.664l-.83 1.826c-.997-.498-1.993-.83-2.823-.83-.665 0-1.163.166-1.495.332s-.498.498-.498.83.166.664.498.83.997.332 1.661.498l1.992.499a3.61 3.61 0 0 1 1.329.83c.332.332.498.996.498 1.66s-.166 1.162-.498 1.66-.83.83-1.495 1.162-1.494.498-2.491.498c-.664 0-1.494-.166-2.324-.332zm16.937-9.795c.665.332 1.163.83 1.495 1.328s.498 1.162.498 1.992-.166 1.495-.498 1.993-.83.996-1.495 1.328-1.494.498-2.49.498h-1.993v2.822h-2.491v-10.459h4.484c.996 0 1.826.166 2.49.498zm-.83 4.649c.332-.332.498-.83.498-1.329 0-.664-.166-.996-.498-1.328s-.996-.498-1.66-.498h-1.993v3.653h1.993c.664 0 1.328-.166 1.66-.498zm8.469 4.814c-.83-.498-1.494-1.162-1.993-1.992s-.664-1.826-.664-2.822.166-1.993.664-2.823 1.163-1.494 1.993-1.992 1.827-.664 2.989-.664 1.993.166 2.989.664c.83.498 1.495 1.162 1.993 1.992s.83 1.827.83 2.823-.332 1.992-.83 2.822-1.163 1.494-1.993 1.992-1.826.664-2.989.664-2.159-.332-2.989-.664zm4.65-1.826c.498-.332.83-.664 1.162-1.162s.498-1.162.498-1.66c0-.664-.166-1.162-.498-1.661s-.664-.83-1.162-1.162-.997-.498-1.661-.498-1.162.166-1.66.498a3.87 3.87 0 0 0-1.163 1.162 3.21 3.21 0 0 0-.498 1.661c0 .664.166 1.162.498 1.66a3.87 3.87 0 0 0 1.163 1.162c.498.332.996.498 1.66.498s1.163-.166 1.661-.498zm9.465-6.143h-3.321v-1.992h9.133v1.992h-3.321v8.467h-2.491v-8.467z" fill="#000"/><path d="M105.593 343.15v-4.488c.596-.278 1.101-.718 1.456-1.269a3.44 3.44 0 0 0 .548-1.847v-.103c0-1.909-1.556-3.457-3.476-3.457h-.104a3.49 3.49 0 0 0-2.458 1.013c-.652.648-1.018 1.527-1.018 2.444v.103a3.44 3.44 0 0 0 .548 1.847 3.47 3.47 0 0 0 1.456 1.269v4.488a9.87 9.87 0 0 0-4.681 2.049l-12.381-9.588c.088-.317.134-.643.139-.97.002-.77-.227-1.524-.656-2.165s-1.04-1.142-1.755-1.438a3.94 3.94 0 0 0-2.263-.225 3.93 3.93 0 0 0-2.008 1.062 3.89 3.89 0 0 0-1.075 1.993c-.152.755-.076 1.538.219 2.251a3.9 3.9 0 0 0 1.44 1.75 3.93 3.93 0 0 0 2.175.659c.678-.003 1.343-.183 1.929-.522l12.192 9.433c-1.095 1.645-1.667 3.58-1.64 5.553a9.78 9.78 0 0 0 1.791 5.507l-3.708 3.688a3.2 3.2 0 0 0-.927-.15c-.636 0-1.258.188-1.786.54a3.2 3.2 0 0 0-1.184 1.435 3.18 3.18 0 0 0-.182 1.847 3.19 3.19 0 0 0 .88 1.637 3.22 3.22 0 0 0 1.646.876c.624.123 1.27.06 1.858-.182a3.21 3.21 0 0 0 1.444-1.177c.354-.525.543-1.143.543-1.776-.004-.312-.055-.623-.151-.921l3.668-3.649c1.196.916 2.588 1.547 4.067 1.846s3.008.256 4.469-.123a9.93 9.93 0 0 0 3.958-2.067c1.143-.98 2.046-2.208 2.638-3.588a9.77 9.77 0 0 0 .78-4.377c-.079-1.499-.502-2.96-1.237-4.271a9.86 9.86 0 0 0-3.002-3.294 9.95 9.95 0 0 0-4.154-1.643zm-1.521 14.763a5.1 5.1 0 0 1-1.985-.343c-.631-.245-1.207-.614-1.693-1.084a5.04 5.04 0 0 1-1.137-1.654 5.02 5.02 0 0 1 0-3.926 5.04 5.04 0 0 1 1.137-1.654c.486-.47 1.062-.839 1.693-1.084a5.1 5.1 0 0 1 1.985-.343c1.314.046 2.559.597 3.473 1.537s1.424 2.196 1.425 3.503a5.03 5.03 0 0 1-1.422 3.505 5.09 5.09 0 0 1-3.471 1.541" fill="#ff7a59"/><g class="B"><path d="M49.384 186.607l-19.438-8.586c-.381-.089-.635.104-.776.58L28 183.334l.028 3.139c.875.298 1.241-2.098 1.904-1.875l5.656 2.367c.578.223.367 2.068.945 2.336l3.061 1.533c.367.178 1.157-2.173 1.284-1.474L44.377 210l5.586-22.172c.113-.551-.028-1.012-.451-1.161l-.127-.06z" fill="#eebd31"/><path d="M41.215 189.816L45 210l-19.863-10.893-5.113-17.4c-.136-.49.317-.808.739-.678l8.265 3.694c.935.288.603-1.573 1.312-1.371l6.078 2.121c.618.216.121 1.919.739 2.193l2.82 1.212c0-.015 1.101.245 1.237.938z" fill="#236bb3"/><path d="M58.17 201.002L48.088 197 45 210l13.861-8.331c.423-.252-.211-.459-.691-.667z" fill="#c9d3eb"/></g><path d="M96.004 27c-5.914 0-10.709 1.748-10.709 3.905v3.204c0 2.157 4.795 3.904 10.709 3.904s10.709-1.747 10.709-3.904v-3.204c0-2.157-4.795-3.905-10.709-3.905z" fill="#ff9100"/><path d="M96.003 39.881c-5.647 0-10.302-1.594-10.709-3.616-.019.097 0 5.291 0 5.291 0 2.157 4.795 3.905 10.709 3.905s10.708-1.748 10.708-3.905l-.007-5.291c-.407 2.022-5.055 3.616-10.701 3.616z" fill="#ff7c00"/><path d="M106.701 43.804c-.407 2.021-5.052 3.616-10.698 3.616s-10.303-1.596-10.71-3.616l.001 5.292c0 2.157 4.795 3.904 10.709 3.904s10.708-1.748 10.708-3.904l-.01-5.292z" fill="#ff7300"/><g clip-path="url(#L)" fill="#fff"><path d="M555.054 159h6.504v30.431c-3.336.64-5.786.897-8.447.897-7.941-.001-12.081-3.629-12.081-10.588 0-6.702 4.393-11.057 11.193-11.057 1.056 0 1.859.086 2.831.342V159zm0 15.318c-.761-.256-1.394-.341-2.197-.341-3.294 0-5.195 2.049-5.195 5.635 0 3.501 1.816 5.422 5.153 5.422.718 0 1.31-.043 2.239-.171v-10.545zm16.852-5.165v15.24c0 5.251-.381 7.77-1.521 9.947-1.056 2.093-2.45 3.416-5.322 4.868l-6.04-2.903c2.872-1.367 4.266-2.562 5.153-4.398.929-1.878 1.225-4.056 1.225-9.776v-12.978h6.505zm-6.505-10.118h6.505v6.745h-6.505v-6.745zm10.433 11.612c2.873-1.366 5.618-1.963 8.617-1.963 3.337 0 5.533.896 6.505 2.646.549.982.718 2.263.718 4.995v13.362c-2.915.427-6.589.726-9.293.726-5.448 0-7.898-1.922-7.898-6.19 0-4.612 3.252-6.746 11.235-7.429v-1.452c0-1.195-.591-1.621-2.239-1.621-2.407 0-5.11.683-7.645 2.006v-5.08zm10.18 10.459c-4.308.427-5.702 1.11-5.702 2.818 0 1.28.802 1.878 2.576 1.878.972 0 1.859-.085 3.126-.299v-4.397zm8.828-10.929c3.843-1.024 7.011-1.493 10.221-1.493 3.337 0 5.745.768 7.182 2.262 1.351 1.409 1.773 2.945 1.773 6.233v12.892h-6.505v-12.636c0-2.518-.844-3.458-3.167-3.458-.887 0-1.69.085-3 .47v15.624h-6.504v-19.894zm21.705 23.48c2.281 1.196 4.562 1.75 6.969 1.75 4.266 0 6.082-1.75 6.082-5.934v-.128c-1.267.64-2.534.897-4.224.897-5.702 0-9.335-3.8-9.335-9.819 0-7.471 5.365-11.697 14.868-11.697 2.788 0 5.365.298 8.49.939l-2.227 4.742c-1.732-.342-.139-.046-1.448-.174v.683l.085 2.775.042 3.586c.042.896.042 1.793.084 2.689v1.794c0 5.635-.464 8.282-1.858 10.459-2.027 3.202-5.533 4.781-10.517 4.781-2.535 0-4.731-.384-7.012-1.28l.001-6.063zm12.925-19.637h-.676c-1.266-.043-2.745.298-3.759.938-1.562.897-2.366 2.52-2.366 4.825 0 3.287 1.606 5.166 4.478 5.166.887 0 1.605-.172 2.45-.427v-2.263c0-.768-.042-1.623-.042-2.519l-.042-3.03-.043-2.178v-.512zm20.024-5.422c6.504 0 10.475 4.141 10.475 10.844 0 6.873-4.139 11.185-10.729 11.185-6.505 0-10.518-4.141-10.518-10.801.001-6.917 4.14-11.228 10.772-11.228zm-.128 16.735c2.493 0 3.971-2.092 3.971-5.721 0-3.586-1.436-5.72-3.928-5.72-2.577 0-4.055 2.092-4.055 5.72s1.479 5.721 4.012 5.721z"/></g><defs><linearGradient id="A" x1="149.166" y1="254.466" x2="333.658" y2="438.996" xlink:href="#O"><stop offset=".159" stop-color="#fffcfb"/><stop offset="1" stop-color="#d7d7dc"/></linearGradient><linearGradient id="B" x1="89.239" y1="298.079" x2="147.284" y2="356.135" xlink:href="#O"><stop stop-color="#ff6c55"/></linearGradient><linearGradient id="C" x1="74.829" y1="325.347" x2="117.559" y2="368.087" xlink:href="#O"><stop offset=".159" stop-color="#fffcfb"/><stop offset="1" stop-color="#e7efe7"/></linearGradient><linearGradient id="D" x1="92.332" y1="100.535" x2="276.824" y2="285.064" xlink:href="#O"><stop offset=".159" stop-color="#fffcfb"/><stop offset="1" stop-color="#d7d7dc"/></linearGradient><linearGradient id="E" x1="32.405" y1="144.147" x2="90.45" y2="202.203" xlink:href="#O"><stop stop-color="#0072da"/><stop offset="1" stop-color="#0045f0"/></linearGradient><linearGradient id="F" x1="17.995" y1="171.416" x2="60.726" y2="214.155" xlink:href="#O"><stop offset=".159" stop-color="#fffcfb"/><stop offset="1" stop-color="#e2e2e2"/></linearGradient><linearGradient id="G" x1="149.166" y1="-52.889" x2="333.658" y2="131.64" xlink:href="#O"><stop offset=".159" stop-color="#fffcfb"/><stop offset="1" stop-color="#d7d7dc"/></linearGradient><linearGradient id="H" x1="89.239" y1="-9.344" x2="147.284" y2="48.713" xlink:href="#O"><stop stop-color="#ff6b00"/><stop offset="1" stop-color="#ff9f00"/></linearGradient><linearGradient id="I" x1="74.829" y1="17.992" x2="117.56" y2="60.731" xlink:href="#O"><stop offset=".159" stop-color="#fffcfb"/><stop offset="1" stop-color="#eaeeea"/></linearGradient><linearGradient id="J" x1="688.516" y1="280.738" x2="512.556" y2="104.742" xlink:href="#O"><stop offset=".159" stop-color="#fffcfb"/><stop offset="1" stop-color="#c6cdc6"/></linearGradient><linearGradient id="K" x1="684.362" y1="276.58" x2="516.718" y2="108.902" xlink:href="#O"><stop offset=".204" stop-color="#4f5b72"/><stop offset="1" stop-color="#343a46"/></linearGradient><clipPath id="L"><path fill="#fff" transform="translate(541 159)" d="M0 0h119v42H0z"/></clipPath><path id="M" d="M600.461 317.104c68.691 0 124.376-55.674 124.376-124.351S669.152 68.402 600.461 68.402s-124.377 55.674-124.377 124.351 55.686 124.351 124.377 124.351z"/><path id="N" d="M583.689 225.622v2.656h-10.793v-14.112h10.461v2.656h-7.306v2.989h6.476v2.49h-6.476v3.155h7.638v.166z"/><linearGradient id="O" gradientUnits="userSpaceOnUse"/></defs></svg>