<svg width="726" height="387" viewBox="0 0 726 387" fill="none" xmlns="http://www.w3.org/2000/svg">
<path d="M370.306 386.004H96.1467V307.475H370.306C392.06 307.475 409.662 325.073 409.662 346.822C409.662 368.405 392.06 386.004 370.306 386.004Z" fill="url(#paint0_linear)"/>
<path fill-rule="evenodd" clip-rule="evenodd" d="M98.1467 384.004H370.306C390.961 384.004 407.662 367.295 407.662 346.822C407.662 326.178 390.956 309.475 370.306 309.475H98.1467V384.004ZM370.306 386.004C392.06 386.004 409.662 368.405 409.662 346.822C409.662 325.073 392.06 307.475 370.306 307.475H96.1467V386.004H370.306Z" fill="#F8BCB2"/>
<path d="M96.1467 307.475C74.3933 307.475 56.7913 325.073 56.7913 346.822C56.7913 368.571 74.3933 386.17 96.1467 386.17C107.771 386.17 118.066 381.189 125.373 373.22C142.144 356.618 139.488 316.274 195.947 307.475H96.1467Z" fill="url(#paint1_linear)"/>
<path d="M96.1466 376.873C112.838 376.873 126.369 363.344 126.369 346.656C126.369 329.968 112.838 316.44 96.1466 316.44C79.4553 316.44 65.9243 329.968 65.9243 346.656C65.9243 363.344 79.4553 376.873 96.1466 376.873Z" fill="url(#paint2_linear)"/>
<path d="M313.515 232.1H39.3555V153.571H313.515C335.269 153.571 352.871 171.17 352.871 192.919C352.871 214.502 335.269 232.1 313.515 232.1Z" fill="url(#paint3_linear)"/>
<path fill-rule="evenodd" clip-rule="evenodd" d="M41.3555 230.1H313.515C334.17 230.1 350.871 213.391 350.871 192.919C350.871 172.275 334.164 155.571 313.515 155.571H41.3555V230.1ZM313.515 232.1C335.269 232.1 352.871 214.502 352.871 192.919C352.871 171.17 335.269 153.571 313.515 153.571H39.3555V232.1H313.515Z" fill="#A8C1EC"/>
<path d="M39.3554 153.571C17.602 153.571 0 171.17 0 192.919C0 214.668 17.602 232.266 39.3554 232.266C50.9794 232.266 61.2749 227.286 68.5814 219.316C85.3531 202.714 82.6963 162.371 139.156 153.571H39.3554Z" fill="url(#paint4_linear)"/>
<path d="M39.3554 222.969C56.0467 222.969 69.5777 209.441 69.5777 192.753C69.5777 176.065 56.0467 162.537 39.3554 162.537C22.6641 162.537 9.13306 176.065 9.13306 192.753C9.13306 209.441 22.6641 222.969 39.3554 222.969Z" fill="url(#paint5_linear)"/>
<path opacity="0.5" d="M370.306 78.695H96.1467V0H370.306C392.06 0 409.662 17.5985 409.662 39.3475C409.662 61.0965 392.06 78.695 370.306 78.695Z" fill="url(#paint6_linear)"/>
<path opacity="0.5" fill-rule="evenodd" clip-rule="evenodd" d="M98.1467 76.695H370.306C390.956 76.695 407.662 59.9916 407.662 39.3475C407.662 18.7034 390.956 2 370.306 2H98.1467V76.695ZM370.306 78.695C392.06 78.695 409.662 61.0965 409.662 39.3475C409.662 17.5985 392.06 0 370.306 0H96.1467V78.695H370.306Z" fill="#FBBB60"/>
<path d="M96.1467 0C74.3933 0 56.7913 17.5985 56.7913 39.3475C56.7913 61.0965 74.3933 78.695 96.1467 78.695C107.771 78.695 118.066 73.7143 125.373 65.7452C142.144 49.1429 139.488 8.79923 195.947 0H96.1467Z" fill="url(#paint7_linear)"/>
<path d="M96.1466 69.5638C112.838 69.5638 126.369 56.0355 126.369 39.3476C126.369 22.6596 112.838 9.13135 96.1466 9.13135C79.4553 9.13135 65.9243 22.6596 65.9243 39.3476C65.9243 56.0355 79.4553 69.5638 96.1466 69.5638Z" fill="url(#paint8_linear)"/>
<path d="M600.461 317.104C669.152 317.104 724.837 261.43 724.837 192.753C724.837 124.076 669.152 68.4016 600.461 68.4016C531.77 68.4016 476.084 124.076 476.084 192.753C476.084 261.43 531.77 317.104 600.461 317.104Z" fill="url(#paint9_linear)"/>
<g opacity="0.25">
<path opacity="0.25" d="M600.461 317.104C669.152 317.104 724.837 261.43 724.837 192.753C724.837 124.076 669.152 68.4016 600.461 68.4016C531.77 68.4016 476.084 124.076 476.084 192.753C476.084 261.43 531.77 317.104 600.461 317.104Z" fill="#6D6D6D"/>
</g>
<path d="M600.461 311.268C665.928 311.268 719 258.207 719 192.753C719 127.299 665.928 74.238 600.461 74.238C534.994 74.238 481.922 127.299 481.922 192.753C481.922 258.207 534.994 311.268 600.461 311.268Z" fill="url(#paint10_linear)"/>
<path fill-rule="evenodd" clip-rule="evenodd" d="M430.044 192.587C430.044 98.5768 506.266 22.2041 600.461 22.2041C600.668 22.2041 600.836 22.372 600.836 22.5791V65.081C600.836 65.2881 600.668 65.456 600.461 65.456C600.254 65.456 600.086 65.2881 600.086 65.081V22.9545C506.478 23.1569 430.794 99.1155 430.794 192.587C430.794 286.223 506.643 362.017 600.086 362.219V320.425C600.086 320.218 600.254 320.05 600.461 320.05C600.668 320.05 600.836 320.218 600.836 320.425V362.595C600.836 362.802 600.668 362.97 600.461 362.97C506.432 362.97 430.044 286.763 430.044 192.587Z" fill="#FF6B00"/>
<path d="M596.808 64.583H604.281L600.461 68.4015L596.808 64.583Z" fill="#FF6B00"/>
<path d="M596.808 320.923H604.281L600.461 317.104L596.808 320.923Z" fill="#FF6B00"/>
<path fill-rule="evenodd" clip-rule="evenodd" d="M498.434 330.784C498.581 330.929 498.582 331.167 498.437 331.314L482.827 347.086C482.757 347.157 482.661 347.197 482.561 347.197H422.448C422.241 347.197 422.073 347.029 422.073 346.822C422.073 346.615 422.241 346.447 422.448 346.447H482.404L497.904 330.786C498.049 330.639 498.287 330.638 498.434 330.784Z" fill="#FF6B00"/>
<path d="M422.946 343.004V350.641L419.127 346.822L422.946 343.004Z" fill="#FF6B00"/>
<path fill-rule="evenodd" clip-rule="evenodd" d="M422.073 39.3474C422.073 39.1403 422.241 38.9724 422.448 38.9724H464.461C464.568 38.9724 464.671 39.0188 464.742 39.0997L487.824 65.3314C487.961 65.4868 487.946 65.7238 487.79 65.8606C487.635 65.9974 487.398 65.9823 487.261 65.8268L464.291 39.7224H422.448C422.241 39.7224 422.073 39.5545 422.073 39.3474Z" fill="#FF6B00"/>
<path d="M422.946 35.5288V43.1659L419.127 39.3473L422.946 35.5288Z" fill="#FF6B00"/>
<path fill-rule="evenodd" clip-rule="evenodd" d="M209.73 86.8975C209.937 86.8975 210.105 87.0654 210.105 87.2725V144.828C210.105 145.035 209.937 145.203 209.73 145.203C209.523 145.203 209.355 145.035 209.355 144.828V87.2725C209.355 87.0654 209.523 86.8975 209.73 86.8975Z" fill="#FF6B00"/>
<path fill-rule="evenodd" clip-rule="evenodd" d="M209.73 239.897C209.937 239.897 210.105 240.065 210.105 240.272V297.828C210.105 298.035 209.937 298.203 209.73 298.203C209.523 298.203 209.355 298.035 209.355 297.828V240.272C209.355 240.065 209.523 239.897 209.73 239.897Z" fill="#FF6B00"/>
<path d="M214.213 88.151H205.08L209.73 82L214.213 88.151Z" fill="#FF6B00"/>
<path d="M214.213 241.151H205.08L209.73 235L214.213 241.151Z" fill="#FF6B00"/>
<path d="M214.213 143.949H205.08L209.73 150.1L214.213 143.949Z" fill="#FF6B00"/>
<path d="M214.213 296.949H205.08L209.73 303.1L214.213 296.949Z" fill="#FF6B00"/>
<path d="M181.832 44.6601C181.002 44.4941 180.504 44.1621 180.005 43.83L180.836 42.0038C181.334 42.3358 181.832 42.6679 182.496 42.8339C183.16 42.9999 183.659 43.1659 184.323 43.1659C184.987 43.1659 185.485 42.9999 185.817 42.8339C186.149 42.6679 186.316 42.3358 186.316 42.0038C186.316 41.8377 186.149 41.5057 185.983 41.3397C185.817 41.1736 185.485 41.0076 185.153 41.0076C184.821 40.8416 184.489 40.8416 183.991 40.6756C183.16 40.5096 182.496 40.3435 181.998 40.1775C181.5 40.0115 181.002 39.6794 180.67 39.3474C180.337 38.8493 180.171 38.3513 180.171 37.6872C180.171 37.0231 180.337 36.525 180.67 36.0269C181.002 35.5289 181.5 35.1968 182.164 34.8648C182.828 34.5327 183.659 34.3667 184.655 34.3667C185.319 34.3667 185.983 34.3667 186.648 34.5327C187.312 34.6987 187.81 34.8648 188.308 35.1968L187.478 37.0231C186.482 36.525 185.485 36.193 184.655 36.193C183.991 36.193 183.493 36.359 183.16 36.525C182.828 36.691 182.662 37.0231 182.662 37.3551C182.662 37.6872 182.828 38.0192 183.16 38.1852C183.493 38.3513 184.157 38.5173 184.821 38.6833C185.651 38.8493 186.316 39.0153 186.814 39.1814C187.312 39.3474 187.81 39.6794 188.142 40.0115C188.474 40.3435 188.64 41.0076 188.64 41.6717C188.64 42.3358 188.474 42.8339 188.142 43.3319C187.81 43.83 187.312 44.1621 186.648 44.4941C185.983 44.8262 185.153 44.9922 184.157 44.9922C183.493 45.1582 182.662 44.9922 181.832 44.6601Z" fill="black"/>
<path d="M198.77 34.8648C199.434 35.1968 199.932 35.6949 200.264 36.193C200.596 36.691 200.762 37.3551 200.762 38.1852C200.762 39.0153 200.596 39.6794 200.264 40.1775C199.932 40.6756 199.434 41.1736 198.77 41.5057C198.106 41.8377 197.275 42.0038 196.279 42.0038H194.286V44.8262H191.795V34.3667H196.279C197.275 34.3667 198.106 34.5327 198.77 34.8648ZM197.94 39.5134C198.272 39.1814 198.438 38.6833 198.438 38.1852C198.438 37.5211 198.272 37.1891 197.94 36.857C197.607 36.525 196.943 36.359 196.279 36.359H194.286V40.0115H196.279C196.943 40.0115 197.607 39.8455 197.94 39.5134Z" fill="black"/>
<path d="M212.22 42.9999V44.8262H204.25V34.3667H212.22V36.359H206.741V38.6833H211.556V40.5096H206.741V42.9999H212.22Z" fill="black"/>
<path d="M222.516 42.6679H217.7L216.704 44.8262H214.213L218.863 34.3667H221.187L225.837 44.8262H223.346L222.516 42.6679ZM221.852 40.8416L220.191 36.857L218.531 40.8416H221.852Z" fill="black"/>
<path d="M232.479 40.8416L231.151 42.3358V44.8262H228.826V34.3667H231.151V39.1814L235.8 34.3667H238.457L234.14 39.0153L238.789 44.8262H235.8L232.479 40.8416Z" fill="black"/>
<path d="M249.251 42.9999V44.8262H241.114V34.3667H249.085V36.359H243.605V38.6833H248.421V40.5096H243.605V42.9999H249.251Z" fill="black"/>
<path d="M259.381 44.8262L257.388 41.8377H257.222H255.063V44.8262H252.572V34.3667H257.056C258.052 34.3667 258.716 34.5327 259.547 34.8648C260.211 35.1968 260.709 35.6949 261.041 36.193C261.373 36.691 261.539 37.3551 261.539 38.1852C261.539 39.0153 261.373 39.6794 261.041 40.1775C260.709 40.6756 260.211 41.1736 259.381 41.5057L261.705 44.8262H259.381ZM258.716 36.857C258.384 36.525 257.72 36.359 257.056 36.359H255.063V40.0115H257.056C257.72 40.0115 258.384 39.8455 258.716 39.5134C259.048 39.1814 259.215 38.6833 259.215 38.1852C259.381 37.6872 259.215 37.1891 258.716 36.857Z" fill="black"/>
<path d="M271.004 34.3667H275.82C276.982 34.3667 277.979 34.5327 278.809 35.0308C279.639 35.5289 280.304 36.0269 280.802 36.857C281.3 37.6872 281.466 38.5173 281.466 39.6794C281.466 40.6756 281.3 41.6717 280.802 42.5018C280.304 43.332 279.639 43.83 278.809 44.3281C277.979 44.8262 276.982 44.9922 275.82 44.9922H271.004V34.3667ZM275.488 42.8339C276.484 42.8339 277.315 42.5018 277.979 42.0038C278.643 41.3397 278.975 40.6756 278.975 39.6794C278.975 38.6833 278.643 37.8532 277.979 37.3551C277.315 36.691 276.484 36.525 275.488 36.525H273.329V42.9999H275.488V42.8339Z" fill="black"/>
<path d="M291.429 42.6679H286.614L285.617 44.8262H283.126L287.776 34.3667H290.101L294.75 44.8262H292.26L291.429 42.6679ZM290.765 40.8416L289.105 36.857L287.444 40.8416H290.765Z" fill="black"/>
<path d="M299.234 36.359H295.913V34.3667H305.046V36.359H301.725V44.8262H299.234V36.359Z" fill="black"/>
<path d="M314.179 42.6679H309.363L308.367 44.8262H305.876L310.526 34.3667H312.851L317.5 44.8262H315.009L314.179 42.6679ZM313.349 40.8416L311.688 36.857L310.028 40.8416H313.349Z" fill="black"/>
<path d="M329.29 40.3435C329.622 40.8416 329.789 41.3397 329.789 42.0038C329.789 42.9999 329.456 43.664 328.792 44.1621C328.128 44.6601 326.966 44.8262 325.637 44.8262H320.157V34.3667H325.305C326.633 34.3667 327.63 34.5327 328.294 35.0308C328.958 35.5289 329.29 36.193 329.29 37.0231C329.29 37.5211 329.124 38.0192 328.958 38.3513C328.792 38.6833 328.294 39.0153 327.962 39.3474C328.46 39.6794 328.958 40.0115 329.29 40.3435ZM322.648 36.193V38.6833H324.973C325.637 38.6833 325.969 38.5173 326.301 38.3513C326.633 38.1852 326.799 37.8532 326.799 37.3551C326.799 36.857 326.633 36.691 326.301 36.359C325.969 36.193 325.471 36.0269 324.973 36.0269H322.648V36.193ZM326.799 42.8339C327.132 42.6679 327.298 42.3358 327.298 41.8377C327.298 41.0076 326.633 40.5096 325.305 40.5096H322.482V43.1659H325.305C325.969 42.9999 326.467 42.9999 326.799 42.8339Z" fill="black"/>
<path d="M339.918 42.6679H335.102L334.106 44.8262H331.615L336.265 34.3667H338.59L343.239 44.8262H340.748L339.918 42.6679ZM339.254 40.8416L337.593 36.857L335.933 40.8416H339.254Z" fill="black"/>
<path d="M347.059 44.6601C346.228 44.4941 345.73 44.1621 345.232 43.83L346.062 42.0038C346.56 42.3358 347.059 42.6679 347.723 42.8339C348.387 42.9999 348.885 43.1659 349.549 43.1659C350.214 43.1659 350.712 42.9999 351.044 42.8339C351.376 42.6679 351.542 42.3358 351.542 42.0038C351.542 41.8377 351.376 41.5057 351.21 41.3397C351.044 41.1736 350.712 41.0076 350.38 41.0076C350.048 40.8416 349.715 40.8416 349.217 40.6756C348.387 40.5096 347.723 40.3435 347.225 40.1775C346.726 40.0115 346.228 39.6794 345.896 39.3474C345.564 38.8493 345.398 38.3513 345.398 37.6872C345.398 37.0231 345.564 36.525 345.896 36.0269C346.228 35.5289 346.726 35.1968 347.391 34.8648C348.055 34.5327 348.885 34.3667 349.882 34.3667C350.546 34.3667 351.21 34.3667 351.874 34.5327C352.538 34.6987 353.037 34.8648 353.535 35.1968L352.704 37.0231C351.708 36.525 350.712 36.193 349.882 36.193C349.217 36.193 348.719 36.359 348.387 36.525C348.055 36.691 347.889 37.0231 347.889 37.3551C347.889 37.6872 348.055 38.0192 348.387 38.1852C348.719 38.3513 349.383 38.5173 350.048 38.6833C350.878 38.8493 351.542 39.0153 352.04 39.1814C352.538 39.3474 353.037 39.6794 353.369 40.0115C353.701 40.3435 353.867 41.0076 353.867 41.6717C353.867 42.3358 353.701 42.8339 353.369 43.3319C353.037 43.83 352.538 44.1621 351.874 44.4941C351.21 44.8262 350.38 44.9922 349.383 44.9922C348.719 45.1582 347.889 44.9922 347.059 44.6601Z" fill="black"/>
<path d="M365.159 42.9999V44.8262H357.022V34.3667H364.992V36.359H359.513V38.6833H364.328V40.5096H359.513V42.9999H365.159Z" fill="black"/>
<path d="M108.269 190.427V193.25H113.085V195.242H108.269V199.061H105.778V188.601H113.749V190.593H108.269V190.427Z" fill="black"/>
<path d="M116.904 188.602H119.395V199.062H116.904V188.602Z" fill="black"/>
<path d="M123.214 188.602H125.705V197.069H131.019V199.062H123.38V188.602H123.214Z" fill="black"/>
<path d="M141.812 197.069V199.062H133.676V188.602H141.646V190.595H136.166V192.919H140.982V194.745H136.166V197.236H141.812V197.069Z" fill="black"/>
<path d="M154.765 199.062V192.753L151.61 197.9H150.447L147.458 192.919V199.062H145.134V188.602H147.126L151.112 195.077L154.931 188.602H156.924V199.062H154.765Z" fill="black"/>
<path d="M167.883 196.737H163.068L162.071 198.896H159.58L164.23 188.436H166.555L171.204 198.896H168.713L167.883 196.737ZM167.219 194.911L165.558 190.927L163.898 194.911H167.219Z" fill="black"/>
<path d="M177.847 194.911L176.518 196.405V199.062H174.193V188.602H176.518V193.417L181.168 188.602H183.825L179.507 193.251L184.157 199.062H181.334L177.847 194.911Z" fill="black"/>
<path d="M194.618 197.069V199.062H186.482V188.602H194.452V190.595H188.973V192.919H193.788V194.745H188.973V197.236H194.618V197.069Z" fill="black"/>
<path d="M204.748 199.062L202.755 196.073H202.589H200.431V199.062H197.94V188.602H202.423C203.42 188.602 204.084 188.768 204.914 189.1C205.578 189.432 206.076 189.93 206.409 190.429C206.741 190.927 206.907 191.591 206.907 192.421C206.907 193.251 206.741 193.915 206.409 194.413C206.076 194.911 205.578 195.409 204.748 195.741L207.073 199.062H204.748ZM204.084 190.927C203.752 190.595 203.087 190.429 202.423 190.429H200.431V194.081H202.423C203.087 194.081 203.752 193.915 204.084 193.583C204.416 193.251 204.582 192.753 204.582 192.255C204.748 191.757 204.416 191.259 204.084 190.927Z" fill="black"/>
<path d="M216.206 188.602H221.021C222.184 188.602 223.18 188.768 224.01 189.266C224.841 189.764 225.505 190.263 226.003 191.093C226.501 191.923 226.667 192.753 226.667 193.915C226.667 194.911 226.501 195.907 226.003 196.737C225.505 197.568 224.841 198.066 224.01 198.564C223.18 199.062 222.184 199.228 221.021 199.228H216.206V188.602ZM220.855 197.069C221.852 197.069 222.682 196.737 223.346 196.239C224.01 195.575 224.343 194.911 224.343 193.915C224.343 192.919 224.01 192.089 223.346 191.591C222.682 190.927 221.852 190.761 220.855 190.761H218.697V197.236H220.855V197.069Z" fill="black"/>
<path d="M236.797 196.737H231.981L230.985 198.896H228.494L233.143 188.436H235.468L240.118 198.896H237.627L236.797 196.737ZM236.132 194.911L234.472 190.927L232.811 194.911H236.132Z" fill="black"/>
<path d="M243.937 198.896C243.107 198.73 242.609 198.398 242.111 198.066L242.941 196.239C243.439 196.571 243.937 196.903 244.601 197.069C245.266 197.235 245.764 197.402 246.428 197.402C247.092 197.402 247.59 197.235 247.923 197.069C248.255 196.903 248.421 196.571 248.421 196.239C248.421 196.073 248.255 195.741 248.089 195.575C247.923 195.409 247.59 195.243 247.258 195.243C246.926 195.077 246.594 195.077 246.096 194.911C245.266 194.745 244.601 194.579 244.103 194.413C243.605 194.247 243.107 193.915 242.775 193.583C242.443 193.085 242.277 192.587 242.277 191.923C242.277 191.259 242.443 190.761 242.775 190.263C243.107 189.764 243.605 189.432 244.269 189.1C244.934 188.768 245.764 188.602 246.76 188.602C247.424 188.602 248.089 188.602 248.753 188.768C249.417 188.934 249.915 189.1 250.413 189.432L249.583 191.259C248.587 190.761 247.59 190.429 246.76 190.429C246.096 190.429 245.598 190.595 245.266 190.761C244.934 190.927 244.767 191.259 244.767 191.591C244.767 191.923 244.934 192.255 245.266 192.421C245.598 192.587 246.262 192.753 246.926 192.919C247.757 193.085 248.421 193.251 248.919 193.417C249.417 193.583 249.915 193.915 250.247 194.247C250.579 194.579 250.746 195.243 250.746 195.907C250.746 196.571 250.579 197.069 250.247 197.568C249.915 198.066 249.417 198.398 248.753 198.73C248.089 199.062 247.258 199.228 246.262 199.228C245.432 199.228 244.767 199.062 243.937 198.896Z" fill="black"/>
<path d="M263.532 188.602V199.062H261.041V194.745H256.225V199.062H253.735V188.602H256.225V192.753H261.041V188.602H263.532Z" fill="black"/>
<path d="M276.65 194.579C276.983 195.077 277.149 195.575 277.149 196.239C277.149 197.235 276.816 197.9 276.152 198.398C275.488 198.896 274.326 199.062 272.997 199.062H267.517V188.602H272.665C273.994 188.602 274.99 188.768 275.654 189.266C276.318 189.764 276.65 190.429 276.65 191.259C276.65 191.757 276.484 192.255 276.318 192.587C276.152 192.919 275.654 193.251 275.322 193.583C275.82 193.749 276.318 194.081 276.65 194.579ZM269.842 190.429V192.919H272.167C272.831 192.919 273.163 192.753 273.495 192.587C273.827 192.421 273.994 192.089 273.994 191.591C273.994 191.093 273.827 190.927 273.495 190.595C273.163 190.429 272.665 190.263 272.167 190.263H269.842V190.429ZM274.16 196.903C274.492 196.737 274.658 196.405 274.658 195.907C274.658 195.077 273.994 194.579 272.665 194.579H269.842V197.236H272.665C273.329 197.236 273.827 197.069 274.16 196.903Z" fill="black"/>
<path d="M282.628 198.564C281.798 198.066 281.134 197.402 280.636 196.571C280.137 195.741 279.971 194.745 279.971 193.749C279.971 192.753 280.137 191.757 280.636 190.927C281.134 190.097 281.798 189.432 282.628 188.934C283.459 188.436 284.455 188.27 285.617 188.27C286.78 188.27 287.61 188.436 288.606 188.934C289.437 189.432 290.101 190.097 290.599 190.927C291.097 191.757 291.429 192.753 291.429 193.749C291.429 194.745 291.097 195.741 290.599 196.571C290.101 197.402 289.437 198.066 288.606 198.564C287.776 199.062 286.78 199.228 285.617 199.228C284.455 199.228 283.459 198.896 282.628 198.564ZM287.112 196.737C287.61 196.405 287.942 196.073 288.274 195.575C288.606 195.077 288.772 194.413 288.772 193.915C288.772 193.251 288.606 192.753 288.274 192.255C287.942 191.757 287.61 191.425 287.112 191.093C286.614 190.761 286.116 190.595 285.451 190.595C284.787 190.595 284.289 190.761 283.791 191.093C283.293 191.425 282.96 191.757 282.628 192.255C282.296 192.753 282.13 193.417 282.13 193.915C282.13 194.579 282.296 195.077 282.628 195.575C282.96 196.073 283.293 196.405 283.791 196.737C284.289 197.069 284.787 197.235 285.451 197.235C286.116 197.235 286.614 196.903 287.112 196.737Z" fill="black"/>
<path d="M301.227 196.737H296.411L295.415 198.896H292.924L297.574 188.436H299.898L304.548 198.896H302.223L301.227 196.737ZM300.563 194.911L298.902 190.927L297.242 194.911H300.563Z" fill="black"/>
<path d="M314.013 199.062L312.02 196.073H311.854H309.696V199.062H307.205V188.602H311.688C312.685 188.602 313.349 188.768 314.179 189.1C314.843 189.432 315.342 189.93 315.674 190.429C316.006 190.927 316.172 191.591 316.172 192.421C316.172 193.251 316.006 193.915 315.674 194.413C315.342 194.911 314.843 195.409 314.013 195.741L316.338 199.062H314.013ZM313.349 190.927C313.017 190.595 312.353 190.429 311.688 190.429H309.696V194.081H311.688C312.353 194.081 313.017 193.915 313.349 193.583C313.681 193.251 313.847 192.753 313.847 192.255C314.013 191.757 313.681 191.259 313.349 190.927Z" fill="black"/>
<path d="M319.825 188.602H324.641C325.803 188.602 326.8 188.768 327.63 189.266C328.46 189.764 329.124 190.263 329.622 191.093C330.121 191.923 330.287 192.753 330.287 193.915C330.287 194.911 330.121 195.907 329.622 196.737C329.124 197.568 328.46 198.066 327.63 198.564C326.8 199.062 325.803 199.228 324.641 199.228H319.825V188.602ZM324.475 197.069C325.471 197.069 326.301 196.737 326.966 196.239C327.63 195.575 327.962 194.911 327.962 193.915C327.962 192.919 327.63 192.089 326.966 191.591C326.301 190.927 325.471 190.761 324.475 190.761H322.15V197.236H324.475V197.069Z" fill="black"/>
<path d="M569.076 214.166L564.593 228.112H561.106L558.117 218.649L554.962 228.112H551.308L546.659 214.166H549.98L553.135 223.961L556.456 214.166H559.445L562.6 224.127L565.921 214.166H569.076Z" fill="white"/>
<path d="M583.689 225.622V228.278H572.896V214.166H583.357V216.822H576.051V219.811H582.527V222.301H576.051V225.456H583.689V225.622Z" fill="white"/>
<path d="M600.295 222.135C600.793 222.799 600.959 223.463 600.959 224.293C600.959 225.456 600.461 226.452 599.465 227.116C598.468 227.78 597.14 228.112 595.313 228.112H588.173V214.166H594.981C596.642 214.166 597.97 214.498 598.967 215.162C599.797 215.826 600.295 216.656 600.295 217.819C600.295 218.483 600.129 219.147 599.797 219.645C599.465 220.143 598.967 220.641 598.468 220.973C599.299 221.139 599.797 221.637 600.295 222.135ZM591.494 216.656V219.977H594.649C595.479 219.977 595.978 219.811 596.476 219.479C596.974 219.147 597.14 218.815 597.14 218.317C597.14 217.819 596.974 217.32 596.476 217.154C596.144 216.822 595.479 216.822 594.649 216.822H591.494V216.656ZM597.14 225.29C597.638 224.958 597.804 224.625 597.804 223.961C597.804 222.799 596.974 222.301 595.313 222.301H591.494V225.788H595.313C595.978 225.788 596.642 225.622 597.14 225.29Z" fill="white"/>
<path d="M606.771 227.946C605.775 227.614 604.945 227.282 604.28 226.784L605.443 224.293C606.107 224.792 606.771 225.124 607.601 225.29C608.432 225.456 609.262 225.622 610.092 225.622C611.089 225.622 611.753 225.456 612.085 225.29C612.583 224.958 612.749 224.625 612.749 224.127C612.749 223.795 612.583 223.463 612.417 223.297C612.085 223.131 611.753 222.965 611.421 222.799C611.089 222.633 610.424 222.467 609.76 222.301C608.764 221.969 607.768 221.803 607.103 221.471C606.439 221.139 605.775 220.807 605.443 220.309C604.945 219.811 604.778 218.981 604.778 218.151C604.778 217.32 604.945 216.656 605.443 215.992C605.941 215.328 606.605 214.83 607.435 214.498C608.266 214.166 609.428 214 610.757 214C611.587 214 612.583 214.166 613.413 214.332C614.244 214.498 615.074 214.83 615.572 215.328L614.576 217.819C613.247 217.154 611.919 216.656 610.757 216.656C609.926 216.656 609.262 216.822 608.764 217.154C608.266 217.487 608.1 217.819 608.1 218.317C608.1 218.815 608.432 219.147 608.93 219.313C609.428 219.479 610.258 219.811 611.255 219.977C612.251 220.309 613.247 220.475 613.912 220.807C614.576 221.139 615.24 221.471 615.572 221.969C615.904 222.467 616.236 223.297 616.236 224.127C616.236 224.958 616.07 225.622 615.572 226.286C615.074 226.95 614.41 227.448 613.58 227.78C612.749 228.112 611.587 228.278 610.258 228.278C608.93 228.444 607.934 228.278 606.771 227.946Z" fill="white"/>
<path d="M620.222 214.166H623.377V228.112H620.222V214.166Z" fill="white"/>
<path d="M631.514 216.822H627.03V214.166H639.152V216.822H634.669V228.112H631.514V216.822Z" fill="white"/>
<path d="M653.765 225.622V228.278H642.972V214.166H653.433V216.822H646.127V219.811H652.603V222.301H646.127V225.456H653.765V225.622Z" fill="white"/>
<path d="M243.605 343.003V353.462H241.114V349.146H236.299V353.462H234.14V343.003H236.631V347.154H241.446V343.003H243.605Z" fill="black"/>
<path d="M248.753 352.301C247.922 351.471 247.424 350.309 247.424 348.815V343.004H249.915V348.815C249.915 350.641 250.745 351.637 252.24 351.637C253.07 351.637 253.568 351.471 253.901 350.973C254.233 350.475 254.565 349.811 254.565 348.815V343.004H256.89V348.815C256.89 350.309 256.391 351.471 255.561 352.301C254.731 353.131 253.568 353.463 252.074 353.463C250.745 353.629 249.583 353.131 248.753 352.301Z" fill="black"/>
<path d="M270.008 348.981C270.34 349.479 270.506 349.977 270.506 350.641C270.506 351.637 270.174 352.301 269.51 352.799C268.846 353.297 267.683 353.463 266.355 353.463H260.875V343.004H266.023C267.351 343.004 268.348 343.17 269.012 343.668C269.676 344.166 270.008 344.83 270.008 345.66C270.008 346.158 269.842 346.656 269.676 346.988C269.51 347.321 269.012 347.653 268.68 347.985C269.178 348.151 269.676 348.483 270.008 348.981ZM263.366 344.83V347.321H265.691C266.355 347.321 266.687 347.154 267.019 346.988C267.351 346.822 267.517 346.49 267.517 345.992C267.517 345.494 267.351 345.328 267.019 344.996C266.687 344.83 266.189 344.664 265.691 344.664H263.366V344.83ZM267.517 351.305C267.849 351.139 268.015 350.807 268.015 350.309C268.015 349.479 267.351 348.981 266.023 348.981H263.2V351.637H266.023C266.853 351.637 267.185 351.471 267.517 351.305Z" fill="black"/>
<path d="M274.824 353.297C273.993 353.131 273.495 352.799 272.997 352.467L273.827 350.641C274.326 350.973 274.824 351.305 275.488 351.471C276.152 351.637 276.65 351.803 277.315 351.803C277.979 351.803 278.477 351.637 278.809 351.471C279.141 351.305 279.307 350.973 279.307 350.641C279.307 350.475 279.141 350.143 278.975 349.977C278.809 349.811 278.477 349.645 278.145 349.645C277.813 349.479 277.481 349.479 276.982 349.313C276.152 349.147 275.488 348.981 274.99 348.815C274.492 348.649 273.993 348.317 273.661 347.985C273.329 347.487 273.163 346.988 273.163 346.324C273.163 345.66 273.329 345.162 273.661 344.664C273.993 344.166 274.492 343.834 275.156 343.502C275.82 343.17 276.65 343.004 277.647 343.004C278.311 343.004 278.975 343.004 279.639 343.17C280.304 343.336 280.802 343.502 281.3 343.834L280.47 345.66C279.473 345.162 278.477 344.83 277.647 344.83C276.982 344.83 276.484 344.996 276.152 345.162C275.82 345.328 275.654 345.66 275.654 345.992C275.654 346.324 275.82 346.656 276.152 346.822C276.484 346.988 277.149 347.154 277.813 347.32C278.643 347.487 279.307 347.653 279.805 347.819C280.304 347.985 280.802 348.317 281.134 348.649C281.466 348.981 281.632 349.645 281.632 350.309C281.632 350.973 281.466 351.471 281.134 351.969C280.802 352.467 280.304 352.799 279.639 353.131C278.975 353.463 278.145 353.629 277.148 353.629C276.484 353.629 275.654 353.463 274.824 353.297Z" fill="black"/>
<path d="M291.761 343.502C292.426 343.834 292.924 344.332 293.256 344.83C293.588 345.328 293.754 345.992 293.754 346.822C293.754 347.653 293.588 348.317 293.256 348.815C292.924 349.313 292.426 349.811 291.761 350.143C291.097 350.475 290.267 350.641 289.271 350.641H287.278V353.463H284.787V343.004H289.271C290.267 343.004 291.097 343.17 291.761 343.502ZM290.931 348.151C291.263 347.819 291.429 347.321 291.429 346.822C291.429 346.158 291.263 345.826 290.931 345.494C290.599 345.162 289.935 344.996 289.271 344.996H287.278V348.649H289.271C289.935 348.649 290.599 348.483 290.931 348.151Z" fill="black"/>
<path d="M299.4 352.965C298.57 352.467 297.906 351.803 297.407 350.973C296.909 350.143 296.743 349.147 296.743 348.151C296.743 347.155 296.909 346.158 297.407 345.328C297.906 344.498 298.57 343.834 299.4 343.336C300.23 342.838 301.227 342.672 302.389 342.672C303.552 342.672 304.382 342.838 305.378 343.336C306.208 343.834 306.873 344.498 307.371 345.328C307.869 346.158 308.201 347.155 308.201 348.151C308.201 349.147 307.869 350.143 307.371 350.973C306.873 351.803 306.208 352.467 305.378 352.965C304.548 353.463 303.552 353.629 302.389 353.629C301.227 353.629 300.23 353.297 299.4 352.965ZM304.05 351.139C304.548 350.807 304.88 350.475 305.212 349.977C305.544 349.479 305.71 348.815 305.71 348.317C305.71 347.653 305.544 347.155 305.212 346.656C304.88 346.158 304.548 345.826 304.05 345.494C303.552 345.162 303.053 344.996 302.389 344.996C301.725 344.996 301.227 345.162 300.729 345.494C300.23 345.826 299.898 346.158 299.566 346.656C299.234 347.155 299.068 347.819 299.068 348.317C299.068 348.981 299.234 349.479 299.566 349.977C299.898 350.475 300.23 350.807 300.729 351.139C301.227 351.471 301.725 351.637 302.389 351.637C303.053 351.637 303.552 351.471 304.05 351.139Z" fill="black"/>
<path d="M313.515 344.996H310.194V343.004H319.327V344.996H316.006V353.463H313.515V344.996Z" fill="black"/>
<path d="M105.593 343.15V338.662C106.189 338.384 106.694 337.944 107.049 337.393C107.404 336.841 107.594 336.201 107.597 335.546V335.443C107.597 333.534 106.041 331.986 104.121 331.986H104.017C103.095 331.986 102.211 332.351 101.559 332.999C100.907 333.647 100.541 334.526 100.541 335.443V335.546C100.544 336.201 100.734 336.841 101.089 337.393C101.443 337.944 101.948 338.384 102.545 338.662V343.15C100.83 343.411 99.2156 344.118 97.8641 345.199L85.4828 335.611C85.5711 335.294 85.6172 334.968 85.6223 334.641C85.6239 333.871 85.3956 333.117 84.9663 332.476C84.5371 331.835 83.9262 331.334 83.211 331.038C82.4957 330.742 81.7082 330.664 80.9481 330.813C80.1879 330.962 79.4893 331.332 78.9405 331.875C78.3918 332.419 78.0176 333.113 77.8653 333.868C77.7129 334.623 77.7893 335.406 78.0848 336.119C78.3802 336.831 78.8814 337.44 79.525 337.869C80.1686 338.298 80.9257 338.527 81.7005 338.528C82.3783 338.525 83.0434 338.345 83.6294 338.006L95.8213 347.439C94.726 349.084 94.1547 351.019 94.1816 352.992C94.2085 354.965 94.8326 356.884 95.9723 358.499L92.2642 362.187C91.9645 362.092 91.6522 362.041 91.3375 362.037C90.7015 362.037 90.08 362.225 89.5514 362.577C89.0228 362.928 88.6109 363.428 88.3678 364.012C88.1247 364.596 88.0612 365.239 88.1854 365.859C88.3096 366.48 88.6159 367.049 89.0656 367.496C89.5153 367.944 90.0882 368.248 90.7119 368.372C91.3356 368.495 91.9822 368.432 92.5698 368.19C93.1575 367.948 93.6599 367.539 94.0135 367.013C94.3671 366.488 94.5562 365.87 94.5567 365.237C94.5525 364.925 94.5016 364.614 94.4056 364.316L98.0741 360.667C99.2703 361.583 100.662 362.214 102.141 362.513C103.621 362.811 105.149 362.769 106.61 362.39C108.07 362.01 109.424 361.303 110.568 360.323C111.711 359.343 112.614 358.115 113.206 356.735C113.799 355.354 114.066 353.857 113.986 352.358C113.907 350.859 113.484 349.398 112.749 348.087C112.014 346.775 110.987 345.649 109.747 344.793C108.506 343.938 107.085 343.376 105.593 343.15ZM104.072 357.913C103.394 357.932 102.719 357.815 102.087 357.57C101.456 357.325 100.88 356.956 100.394 356.486C99.9074 356.016 99.521 355.453 99.2571 354.832C98.9933 354.211 98.8574 353.543 98.8574 352.869C98.8574 352.195 98.9933 351.527 99.2571 350.906C99.521 350.285 99.9074 349.722 100.394 349.252C100.88 348.782 101.456 348.413 102.087 348.168C102.719 347.923 103.394 347.806 104.072 347.825C105.386 347.871 106.631 348.422 107.545 349.362C108.458 350.302 108.969 351.558 108.97 352.865C108.97 354.173 108.461 355.429 107.548 356.37C106.635 357.311 105.391 357.864 104.077 357.911" fill="#FF7A59"/>
<path fill-rule="evenodd" clip-rule="evenodd" d="M49.3843 186.607L29.9466 178.021C29.5657 177.932 29.3118 178.125 29.1708 178.601L28 183.334L28.0282 186.473C28.9028 186.771 29.2695 184.375 29.9325 184.598L35.5889 186.965C36.1672 187.188 35.9557 189.033 36.534 189.301L39.5949 190.834C39.9617 191.012 40.7516 188.661 40.8786 189.36L44.3768 210L49.9627 187.828C50.0755 187.277 49.9345 186.816 49.5113 186.667L49.3843 186.607Z" fill="#EEBD31"/>
<path fill-rule="evenodd" clip-rule="evenodd" d="M41.2145 189.816L45 210L25.1373 199.107L20.0245 181.707C19.8888 181.217 20.3413 180.899 20.7635 181.029L29.0284 184.723C29.9634 185.011 29.6316 183.15 30.3405 183.352L36.4185 185.473C37.0368 185.689 36.5391 187.392 37.1575 187.666L39.9778 188.878C39.9778 188.863 41.0787 189.123 41.2145 189.816Z" fill="#236BB3"/>
<path fill-rule="evenodd" clip-rule="evenodd" d="M58.1702 201.002L48.0881 197L45 210L58.8612 201.669C59.2842 201.417 58.6497 201.21 58.1702 201.002Z" fill="#C9D3EB"/>
<path d="M96.004 27C90.0898 27 85.2952 28.7478 85.2952 30.9048V34.1089C85.2952 36.2662 90.0898 38.0134 96.004 38.0134C101.918 38.0134 106.713 36.2659 106.713 34.1089V30.9048C106.713 28.7478 101.918 27 96.004 27Z" fill="#FF9100"/>
<path d="M96.0027 39.8807C90.3561 39.8807 85.7009 38.2864 85.2938 36.2646C85.2744 36.3612 85.2938 41.5561 85.2938 41.5561C85.2938 43.7136 90.0885 45.4609 96.0027 45.4609C101.917 45.4609 106.711 43.7131 106.711 41.5561C106.711 41.5561 106.723 36.3609 106.704 36.2646C106.297 38.2866 101.649 39.8807 96.0027 39.8807Z" fill="#FF7C00"/>
<path d="M106.701 43.8035C106.294 45.8241 101.649 47.4193 96.0027 47.4193C90.3561 47.4193 85.6998 45.8238 85.2927 43.8035L85.2938 49.0952C85.2938 51.2525 90.0885 52.9997 96.0027 52.9997C101.917 52.9997 106.711 51.2519 106.711 49.0952L106.701 43.8035Z" fill="#FF7300"/>
<g clip-path="url(#clip0)">
<path d="M555.054 159H561.558V189.431C558.222 190.071 555.772 190.328 553.111 190.328C545.17 190.327 541.03 186.699 541.03 179.74C541.03 173.038 545.423 168.683 552.223 168.683C553.279 168.683 554.082 168.769 555.054 169.025V159ZM555.054 174.318C554.293 174.062 553.66 173.977 552.857 173.977C549.563 173.977 547.662 176.026 547.662 179.612C547.662 183.113 549.478 185.034 552.815 185.034C553.533 185.034 554.125 184.991 555.054 184.863V174.318Z" fill="white"/>
<path d="M571.906 169.153V184.393C571.906 189.644 571.525 192.163 570.385 194.34C569.329 196.433 567.935 197.756 565.063 199.208L559.023 196.305C561.895 194.938 563.289 193.743 564.176 191.907C565.105 190.029 565.401 187.851 565.401 182.131V169.153H571.906ZM565.401 159.035H571.906V165.78H565.401V159.035ZM575.834 170.647C578.707 169.281 581.452 168.684 584.451 168.684C587.788 168.684 589.984 169.58 590.956 171.33C591.505 172.312 591.674 173.593 591.674 176.325V189.687C588.759 190.114 585.085 190.413 582.381 190.413C576.933 190.413 574.483 188.491 574.483 184.223C574.483 179.611 577.735 177.477 585.718 176.794V175.342C585.718 174.147 585.127 173.721 583.479 173.721C581.072 173.721 578.369 174.404 575.834 175.727L575.834 170.647ZM586.014 181.106C581.706 181.533 580.312 182.216 580.312 183.924C580.312 185.204 581.114 185.802 582.888 185.802C583.86 185.802 584.747 185.717 586.014 185.503L586.014 181.106ZM594.842 170.177C598.685 169.153 601.853 168.684 605.063 168.684C608.4 168.684 610.808 169.452 612.245 170.946C613.596 172.355 614.018 173.891 614.018 177.179V190.071H607.513V177.435C607.513 174.917 606.669 173.977 604.346 173.977C603.459 173.977 602.656 174.062 601.346 174.447V190.071H594.842V170.177ZM616.547 193.657C618.828 194.853 621.109 195.407 623.516 195.407C627.782 195.407 629.598 193.657 629.598 189.473V189.345C628.331 189.985 627.064 190.242 625.374 190.242C619.672 190.242 616.039 186.442 616.039 180.423C616.039 172.952 621.404 168.726 630.907 168.726C633.695 168.726 636.272 169.024 639.397 169.665L637.17 174.407C635.438 174.065 637.031 174.361 635.722 174.233V174.916L635.807 177.691L635.849 181.277C635.891 182.173 635.891 183.07 635.933 183.966V185.76C635.933 191.395 635.469 194.042 634.075 196.219C632.048 199.421 628.542 201 623.558 201C621.023 201 618.827 200.616 616.546 199.72L616.547 193.657ZM629.472 174.02H628.796C627.53 173.977 626.051 174.318 625.037 174.958C623.475 175.855 622.671 177.478 622.671 179.783C622.671 183.07 624.277 184.949 627.149 184.949C628.036 184.949 628.754 184.777 629.599 184.522V182.259C629.599 181.491 629.557 180.636 629.557 179.74L629.515 176.71L629.472 174.532L629.472 174.02ZM649.496 168.598C656 168.598 659.971 172.739 659.971 179.442C659.971 186.315 655.832 190.627 649.242 190.627C642.737 190.627 638.724 186.486 638.724 179.826C638.725 172.909 642.864 168.598 649.496 168.598ZM649.368 185.333C651.861 185.333 653.339 183.241 653.339 179.612C653.339 176.026 651.903 173.892 649.411 173.892C646.834 173.892 645.356 175.984 645.356 179.612C645.356 183.241 646.835 185.333 649.368 185.333Z" fill="white"/>
</g>
<defs>
<linearGradient id="paint0_linear" x1="149.166" y1="254.466" x2="333.658" y2="438.996" gradientUnits="userSpaceOnUse">
<stop offset="0.1585" stop-color="#FFFCFB"/>
<stop offset="1" stop-color="#D7D7DC"/>
</linearGradient>
<linearGradient id="paint1_linear" x1="89.2391" y1="298.079" x2="147.284" y2="356.135" gradientUnits="userSpaceOnUse">
<stop stop-color="#FF6C55"/>
<stop offset="1" stop-color="#FF6C55"/>
</linearGradient>
<linearGradient id="paint2_linear" x1="74.8289" y1="325.347" x2="117.559" y2="368.087" gradientUnits="userSpaceOnUse">
<stop offset="0.1585" stop-color="#FFFCFB"/>
<stop offset="1" stop-color="#E7EFE7"/>
</linearGradient>
<linearGradient id="paint3_linear" x1="92.3317" y1="100.535" x2="276.824" y2="285.064" gradientUnits="userSpaceOnUse">
<stop offset="0.1585" stop-color="#FFFCFB"/>
<stop offset="1" stop-color="#D7D7DC"/>
</linearGradient>
<linearGradient id="paint4_linear" x1="32.4051" y1="144.147" x2="90.4497" y2="202.203" gradientUnits="userSpaceOnUse">
<stop stop-color="#0072DA"/>
<stop offset="1" stop-color="#0045F0"/>
</linearGradient>
<linearGradient id="paint5_linear" x1="17.995" y1="171.416" x2="60.7256" y2="214.155" gradientUnits="userSpaceOnUse">
<stop offset="0.1585" stop-color="#FFFCFB"/>
<stop offset="1" stop-color="#E2E2E2"/>
</linearGradient>
<linearGradient id="paint6_linear" x1="149.166" y1="-52.8892" x2="333.658" y2="131.64" gradientUnits="userSpaceOnUse">
<stop offset="0.1585" stop-color="#FFFCFB"/>
<stop offset="1" stop-color="#D7D7DC"/>
</linearGradient>
<linearGradient id="paint7_linear" x1="89.2389" y1="-9.34378" x2="147.284" y2="48.7125" gradientUnits="userSpaceOnUse">
<stop stop-color="#FF6B00"/>
<stop offset="1" stop-color="#FF9F00"/>
</linearGradient>
<linearGradient id="paint8_linear" x1="74.8289" y1="17.9917" x2="117.56" y2="60.7309" gradientUnits="userSpaceOnUse">
<stop offset="0.1585" stop-color="#FFFCFB"/>
<stop offset="1" stop-color="#EAEEEA"/>
</linearGradient>
<linearGradient id="paint9_linear" x1="688.516" y1="280.738" x2="512.556" y2="104.742" gradientUnits="userSpaceOnUse">
<stop offset="0.1585" stop-color="#FFFCFB"/>
<stop offset="1" stop-color="#C6CDC6"/>
</linearGradient>
<linearGradient id="paint10_linear" x1="684.362" y1="276.58" x2="516.718" y2="108.902" gradientUnits="userSpaceOnUse">
<stop offset="0.204" stop-color="#4F5B72"/>
<stop offset="1" stop-color="#343A46"/>
</linearGradient>
<clipPath id="clip0">
<rect width="119" height="42" fill="white" transform="translate(541 159)"/>
</clipPath>
</defs>
</svg>
