<svg width="1456" height="610" viewBox="0 0 1456 610" fill="none" xmlns="http://www.w3.org/2000/svg">
<path d="M1290.52 424.529H1016.36V346H1290.52C1312.27 346 1329.87 363.598 1329.87 385.347C1329.87 406.931 1312.27 424.529 1290.52 424.529Z" fill="url(#paint0_linear)"/>
<path fill-rule="evenodd" clip-rule="evenodd" d="M1018.36 422.529H1290.52C1311.17 422.529 1327.87 405.82 1327.87 385.347C1327.87 364.703 1311.16 348 1290.52 348H1018.36V422.529ZM1290.52 424.529C1312.27 424.529 1329.87 406.931 1329.87 385.347C1329.87 363.598 1312.27 346 1290.52 346H1016.36V424.529H1290.52Z" fill="#A8C1EC"/>
<path d="M1016.36 346C994.602 346 977 363.598 977 385.347C977 407.097 994.602 424.695 1016.36 424.695C1027.98 424.695 1038.27 419.714 1045.58 411.745C1062.35 395.143 1059.7 354.799 1116.16 346H1016.36Z" fill="url(#paint1_linear)"/>
<path d="M1016.36 415.398C1033.05 415.398 1046.58 401.869 1046.58 385.182C1046.58 368.494 1033.05 354.965 1016.36 354.965C999.664 354.965 986.133 368.494 986.133 385.182C986.133 401.869 999.664 415.398 1016.36 415.398Z" fill="url(#paint2_linear)"/>
<path d="M1126.97 382.45V385.225H1131.83V387.175H1126.97V391H1124.54V380.5H1132.48V382.45H1126.97ZM1145.18 391L1145.16 384.7L1142.07 389.89H1140.98L1137.9 384.835V391H1135.62V380.5H1137.63L1141.56 387.025L1145.43 380.5H1147.43L1147.46 391H1145.18ZM1160.65 391.18C1159.82 391.18 1159.01 391.07 1158.23 390.85C1157.46 390.62 1156.84 390.325 1156.37 389.965L1157.2 388.135C1157.65 388.465 1158.18 388.73 1158.8 388.93C1159.42 389.13 1160.04 389.23 1160.66 389.23C1161.35 389.23 1161.86 389.13 1162.19 388.93C1162.52 388.72 1162.69 388.445 1162.69 388.105C1162.69 387.855 1162.59 387.65 1162.39 387.49C1162.2 387.32 1161.95 387.185 1161.64 387.085C1161.34 386.985 1160.93 386.875 1160.41 386.755C1159.61 386.565 1158.95 386.375 1158.44 386.185C1157.93 385.995 1157.49 385.69 1157.12 385.27C1156.76 384.85 1156.58 384.29 1156.58 383.59C1156.58 382.98 1156.75 382.43 1157.08 381.94C1157.41 381.44 1157.9 381.045 1158.56 380.755C1159.23 380.465 1160.05 380.32 1161.01 380.32C1161.68 380.32 1162.33 380.4 1162.97 380.56C1163.61 380.72 1164.17 380.95 1164.65 381.25L1163.9 383.095C1162.93 382.545 1161.96 382.27 1160.99 382.27C1160.31 382.27 1159.81 382.38 1159.48 382.6C1159.16 382.82 1159 383.11 1159 383.47C1159 383.83 1159.18 384.1 1159.55 384.28C1159.93 384.45 1160.51 384.62 1161.28 384.79C1162.08 384.98 1162.73 385.17 1163.24 385.36C1163.75 385.55 1164.19 385.85 1164.55 386.26C1164.92 386.67 1165.1 387.225 1165.1 387.925C1165.1 388.525 1164.93 389.075 1164.59 389.575C1164.26 390.065 1163.76 390.455 1163.09 390.745C1162.42 391.035 1161.61 391.18 1160.65 391.18ZM1176.39 389.05V391H1168.26V380.5H1176.2V382.45H1170.68V384.73H1175.55V386.62H1170.68V389.05H1176.39ZM1186.52 391L1184.49 388.075H1184.37H1182.26V391H1179.83V380.5H1184.37C1185.3 380.5 1186.11 380.655 1186.79 380.965C1187.48 381.275 1188.01 381.715 1188.38 382.285C1188.75 382.855 1188.93 383.53 1188.93 384.31C1188.93 385.09 1188.74 385.765 1188.36 386.335C1187.99 386.895 1187.46 387.325 1186.77 387.625L1189.13 391H1186.52ZM1186.47 384.31C1186.47 383.72 1186.28 383.27 1185.9 382.96C1185.52 382.64 1184.97 382.48 1184.24 382.48H1182.26V386.14H1184.24C1184.97 386.14 1185.52 385.98 1185.9 385.66C1186.28 385.34 1186.47 384.89 1186.47 384.31ZM1202.45 380.5L1197.91 391H1195.51L1190.98 380.5H1193.6L1196.8 388L1200.04 380.5H1202.45ZM1212.96 389.05V391H1204.83V380.5H1212.76V382.45H1207.24V384.73H1212.12V386.62H1207.24V389.05H1212.96ZM1223.08 391L1221.06 388.075H1220.94H1218.82V391H1216.39V380.5H1220.94C1221.87 380.5 1222.67 380.655 1223.35 380.965C1224.04 381.275 1224.57 381.715 1224.94 382.285C1225.31 382.855 1225.5 383.53 1225.5 384.31C1225.5 385.09 1225.31 385.765 1224.93 386.335C1224.56 386.895 1224.03 387.325 1223.34 387.625L1225.69 391H1223.08ZM1223.04 384.31C1223.04 383.72 1222.85 383.27 1222.47 382.96C1222.09 382.64 1221.53 382.48 1220.8 382.48H1218.82V386.14H1220.8C1221.53 386.14 1222.09 385.98 1222.47 385.66C1222.85 385.34 1223.04 384.89 1223.04 384.31ZM1238.06 380.5V391H1235.63V382.45H1233.53V380.5H1238.06ZM1248.57 385.48C1249.09 385.74 1249.48 386.08 1249.75 386.5C1250.03 386.92 1250.17 387.405 1250.17 387.955C1250.17 388.605 1249.99 389.175 1249.62 389.665C1249.25 390.145 1248.73 390.52 1248.06 390.79C1247.39 391.05 1246.61 391.18 1245.73 391.18C1244.85 391.18 1244.08 391.05 1243.41 390.79C1242.75 390.52 1242.23 390.145 1241.86 389.665C1241.5 389.175 1241.32 388.605 1241.32 387.955C1241.32 387.405 1241.46 386.92 1241.73 386.5C1242.01 386.08 1242.4 385.74 1242.91 385.48C1242.52 385.24 1242.22 384.94 1242.01 384.58C1241.8 384.21 1241.7 383.79 1241.7 383.32C1241.7 382.71 1241.87 382.18 1242.21 381.73C1242.55 381.28 1243.02 380.935 1243.63 380.695C1244.24 380.445 1244.94 380.32 1245.73 380.32C1246.53 380.32 1247.24 380.445 1247.85 380.695C1248.47 380.935 1248.95 381.28 1249.29 381.73C1249.63 382.18 1249.8 382.71 1249.8 383.32C1249.8 383.79 1249.69 384.21 1249.48 384.58C1249.27 384.94 1248.97 385.24 1248.57 385.48ZM1245.73 382.105C1245.24 382.105 1244.85 382.225 1244.55 382.465C1244.26 382.695 1244.11 383.015 1244.11 383.425C1244.11 383.825 1244.26 384.14 1244.55 384.37C1244.84 384.6 1245.23 384.715 1245.73 384.715C1246.23 384.715 1246.63 384.6 1246.93 384.37C1247.23 384.14 1247.38 383.825 1247.38 383.425C1247.38 383.015 1247.23 382.695 1246.93 382.465C1246.63 382.225 1246.23 382.105 1245.73 382.105ZM1245.73 389.395C1246.34 389.395 1246.82 389.26 1247.17 388.99C1247.53 388.71 1247.71 388.34 1247.71 387.88C1247.71 387.42 1247.53 387.055 1247.17 386.785C1246.82 386.515 1246.34 386.38 1245.73 386.38C1245.13 386.38 1244.66 386.515 1244.31 386.785C1243.96 387.055 1243.78 387.42 1243.78 387.88C1243.78 388.35 1243.96 388.72 1244.31 388.99C1244.66 389.26 1245.13 389.395 1245.73 389.395Z" fill="black"/>
<g clip-path="url(#clip0)">
<path d="M1024.94 378.363C1024.84 378.363 1024.74 378.367 1024.65 378.374C1024.36 377.451 1023.81 376.618 1023.07 375.977C1022.08 375.116 1020.78 374.662 1019.46 374.711C1018.17 372.44 1015.75 371 1013.16 371C1009.9 371 1007.02 373.237 1006.16 376.376C1004.28 377.209 1003.05 379.08 1003.05 381.156C1003.05 383.181 1004.21 384.941 1005.89 385.81V383.898C1005.89 382.638 1006.92 381.613 1008.18 381.613H1023.82C1025.08 381.613 1026.11 382.638 1026.11 383.898V386.212C1027.75 385.711 1028.95 384.181 1028.95 382.375C1028.95 380.163 1027.15 378.363 1024.94 378.363Z" fill="#4C81F7"/>
<path d="M1023.82 383.137H1008.18C1007.76 383.137 1007.42 383.478 1007.42 383.898V389.278H1024.58V383.898C1024.58 383.478 1024.24 383.137 1023.82 383.137ZM1013.95 387.047H1009.91C1009.49 387.047 1009.14 386.706 1009.14 386.285C1009.14 385.864 1009.49 385.523 1009.91 385.523H1013.95C1014.37 385.523 1014.71 385.864 1014.71 386.285C1014.71 386.706 1014.37 387.047 1013.95 387.047ZM1018.84 387.04C1018.42 387.04 1018.08 386.699 1018.08 386.278C1018.08 385.857 1018.42 385.516 1018.84 385.516C1019.26 385.516 1019.61 385.857 1019.61 386.278C1019.61 386.699 1019.26 387.04 1018.84 387.04ZM1022.09 387.04C1021.67 387.04 1021.33 386.699 1021.33 386.278C1021.33 385.857 1021.67 385.516 1022.09 385.516C1022.51 385.516 1022.86 385.857 1022.86 386.278C1022.86 386.699 1022.51 387.04 1022.09 387.04Z" fill="#2C6BF7"/>
<path d="M1007.42 396.238C1007.42 396.659 1007.76 397 1008.18 397H1023.82C1024.24 397 1024.58 396.659 1024.58 396.238V390.802H1007.42V396.238ZM1022.09 392.938C1022.51 392.938 1022.86 393.279 1022.86 393.699C1022.86 394.12 1022.51 394.461 1022.09 394.461C1021.67 394.461 1021.33 394.12 1021.33 393.699C1021.33 393.279 1021.67 392.938 1022.09 392.938ZM1018.84 392.938C1019.26 392.938 1019.61 393.279 1019.61 393.699C1019.61 394.12 1019.26 394.461 1018.84 394.461C1018.42 394.461 1018.08 394.12 1018.08 393.699C1018.08 393.279 1018.42 392.938 1018.84 392.938ZM1009.91 392.938H1013.95C1014.37 392.938 1014.71 393.279 1014.71 393.699C1014.71 394.12 1014.37 394.461 1013.95 394.461H1009.91C1009.49 394.461 1009.14 394.12 1009.14 393.699C1009.14 393.279 1009.49 392.938 1009.91 392.938Z" fill="#004AEE"/>
</g>
<path d="M756.645 609.529H496.879V531L756.645 531C778.398 531 796 548.598 796 570.347C796 591.931 778.398 609.529 756.645 609.529Z" fill="url(#paint3_linear)"/>
<path fill-rule="evenodd" clip-rule="evenodd" d="M498.879 607.529H756.645C777.299 607.529 794 590.82 794 570.347C794 549.703 777.294 533 756.645 533H498.879V607.529ZM756.645 609.529C778.398 609.529 796 591.931 796 570.347C796 548.598 778.398 531 756.645 531L496.879 531V609.529H756.645Z" fill="#92F2C4"/>
<path d="M452.494 562C452.494 541.473 470.199 524.989 490.814 524.989H762.527L764.523 523H490.814C469.097 523 450.497 540.374 450.497 562H452.494Z" fill="#34CC84"/>
<path d="M444.997 554.5C444.997 533.973 465.199 517.989 485.814 517.989H757.527L759.523 516H485.814C464.097 516 443 532.874 443 554.5H444.997Z" fill="#7DE8B5"/>
<path d="M496.879 531C475.125 531 457.523 548.598 457.523 570.347C457.523 592.097 475.125 609.695 496.879 609.695C508.503 609.695 518.798 604.714 526.105 596.745C542.877 580.143 540.22 539.799 596.679 531H496.879Z" fill="url(#paint4_linear)"/>
<path d="M496.879 600.398C513.57 600.398 527.101 586.869 527.101 570.182C527.101 553.494 513.57 539.965 496.879 539.965C480.187 539.965 466.656 553.494 466.656 570.182C466.656 586.869 480.187 600.398 496.879 600.398Z" fill="url(#paint5_linear)"/>
<path d="M577.704 576.18C576.874 576.18 576.069 576.07 575.289 575.85C574.519 575.62 573.899 575.325 573.429 574.965L574.254 573.135C574.704 573.465 575.239 573.73 575.859 573.93C576.479 574.13 577.099 574.23 577.719 574.23C578.409 574.23 578.919 574.13 579.249 573.93C579.579 573.72 579.744 573.445 579.744 573.105C579.744 572.855 579.644 572.65 579.444 572.49C579.254 572.32 579.004 572.185 578.694 572.085C578.394 571.985 577.984 571.875 577.464 571.755C576.664 571.565 576.009 571.375 575.499 571.185C574.989 570.995 574.549 570.69 574.179 570.27C573.819 569.85 573.639 569.29 573.639 568.59C573.639 567.98 573.804 567.43 574.134 566.94C574.464 566.44 574.959 566.045 575.619 565.755C576.289 565.465 577.104 565.32 578.064 565.32C578.734 565.32 579.389 565.4 580.029 565.56C580.669 565.72 581.229 565.95 581.709 566.25L580.959 568.095C579.989 567.545 579.019 567.27 578.049 567.27C577.369 567.27 576.864 567.38 576.534 567.6C576.214 567.82 576.054 568.11 576.054 568.47C576.054 568.83 576.239 569.1 576.609 569.28C576.989 569.45 577.564 569.62 578.334 569.79C579.134 569.98 579.789 570.17 580.299 570.36C580.809 570.55 581.244 570.85 581.604 571.26C581.974 571.67 582.159 572.225 582.159 572.925C582.159 573.525 581.989 574.075 581.649 574.575C581.319 575.065 580.819 575.455 580.149 575.745C579.479 576.035 578.664 576.18 577.704 576.18ZM592.234 573.75H587.359L586.429 576H583.939L588.619 565.5H591.019L595.714 576H593.164L592.234 573.75ZM591.469 571.905L589.804 567.885L588.139 571.905H591.469ZM598.304 565.5H600.734V574.02H605.999V576H598.304V565.5ZM616.986 574.05V576H608.856V565.5H616.791V567.45H611.271V569.73H616.146V571.62H611.271V574.05H616.986ZM623.87 576.18C623.04 576.18 622.235 576.07 621.455 575.85C620.685 575.62 620.065 575.325 619.595 574.965L620.42 573.135C620.87 573.465 621.405 573.73 622.025 573.93C622.645 574.13 623.265 574.23 623.885 574.23C624.575 574.23 625.085 574.13 625.415 573.93C625.745 573.72 625.91 573.445 625.91 573.105C625.91 572.855 625.81 572.65 625.61 572.49C625.42 572.32 625.17 572.185 624.86 572.085C624.56 571.985 624.15 571.875 623.63 571.755C622.83 571.565 622.175 571.375 621.665 571.185C621.155 570.995 620.715 570.69 620.345 570.27C619.985 569.85 619.805 569.29 619.805 568.59C619.805 567.98 619.97 567.43 620.3 566.94C620.63 566.44 621.125 566.045 621.785 565.755C622.455 565.465 623.27 565.32 624.23 565.32C624.9 565.32 625.555 565.4 626.195 565.56C626.835 565.72 627.395 565.95 627.875 566.25L627.125 568.095C626.155 567.545 625.185 567.27 624.215 567.27C623.535 567.27 623.03 567.38 622.7 567.6C622.38 567.82 622.22 568.11 622.22 568.47C622.22 568.83 622.405 569.1 622.775 569.28C623.155 569.45 623.73 569.62 624.5 569.79C625.3 569.98 625.955 570.17 626.465 570.36C626.975 570.55 627.41 570.85 627.77 571.26C628.14 571.67 628.325 572.225 628.325 572.925C628.325 573.525 628.155 574.075 627.815 574.575C627.485 575.065 626.985 575.455 626.315 575.745C625.645 576.035 624.83 576.18 623.87 576.18ZM645.303 576.18L644.043 575.01C643.043 575.79 641.873 576.18 640.533 576.18C639.773 576.18 639.088 576.06 638.478 575.82C637.868 575.57 637.388 575.225 637.038 574.785C636.698 574.345 636.528 573.85 636.528 573.3C636.528 572.65 636.708 572.08 637.068 571.59C637.438 571.09 638.028 570.615 638.838 570.165C638.458 569.775 638.183 569.405 638.013 569.055C637.843 568.695 637.758 568.325 637.758 567.945C637.758 567.435 637.893 566.985 638.163 566.595C638.433 566.205 638.813 565.905 639.303 565.695C639.803 565.475 640.378 565.365 641.028 565.365C641.938 565.365 642.668 565.585 643.218 566.025C643.768 566.455 644.043 567.04 644.043 567.78C644.043 568.32 643.878 568.8 643.548 569.22C643.228 569.64 642.708 570.045 641.988 570.435L643.908 572.22C644.138 571.74 644.313 571.195 644.433 570.585L646.308 571.17C646.108 572.1 645.788 572.895 645.348 573.555L646.578 574.695L645.303 576.18ZM641.028 566.955C640.678 566.955 640.398 567.045 640.188 567.225C639.988 567.405 639.888 567.635 639.888 567.915C639.888 568.125 639.943 568.325 640.053 568.515C640.163 568.695 640.378 568.94 640.698 569.25C641.208 568.98 641.563 568.74 641.763 568.53C641.963 568.31 642.063 568.075 642.063 567.825C642.063 567.565 641.973 567.355 641.793 567.195C641.613 567.035 641.358 566.955 641.028 566.955ZM640.698 574.35C641.428 574.35 642.083 574.145 642.663 573.735L640.128 571.365C639.658 571.635 639.323 571.9 639.123 572.16C638.923 572.42 638.823 572.715 638.823 573.045C638.823 573.435 638.993 573.75 639.333 573.99C639.673 574.23 640.128 574.35 640.698 574.35ZM664.949 576L664.934 569.7L661.844 574.89H660.749L657.674 569.835V576H655.394V565.5H657.404L661.334 572.025L665.204 565.5H667.199L667.229 576H664.949ZM678.136 573.75H673.261L672.331 576H669.841L674.521 565.5H676.921L681.616 576H679.066L678.136 573.75ZM677.371 571.905L675.706 567.885L674.041 571.905H677.371ZM690.895 576L688.87 573.075H688.75H686.635V576H684.205V565.5H688.75C689.68 565.5 690.485 565.655 691.165 565.965C691.855 566.275 692.385 566.715 692.755 567.285C693.125 567.855 693.31 568.53 693.31 569.31C693.31 570.09 693.12 570.765 692.74 571.335C692.37 571.895 691.84 572.325 691.15 572.625L693.505 576H690.895ZM690.85 569.31C690.85 568.72 690.66 568.27 690.28 567.96C689.9 567.64 689.345 567.48 688.615 567.48H686.635V571.14H688.615C689.345 571.14 689.9 570.98 690.28 570.66C690.66 570.34 690.85 569.89 690.85 569.31ZM700.56 571.875L699.15 573.345V576H696.735V565.5H699.15V570.405L703.8 565.5H706.5L702.15 570.18L706.755 576H703.92L700.56 571.875ZM717.469 574.05V576H709.339V565.5H717.274V567.45H711.754V569.73H716.629V571.62H711.754V574.05H717.469ZM723.077 567.48H719.717V565.5H728.867V567.48H725.507V576H723.077V567.48ZM731.675 565.5H734.105V576H731.675V565.5ZM747.727 565.5V576H745.732L740.497 569.625V576H738.097V565.5H740.107L745.327 571.875V565.5H747.727ZM758.806 570.585H761.026V574.845C760.456 575.275 759.796 575.605 759.046 575.835C758.296 576.065 757.541 576.18 756.781 576.18C755.691 576.18 754.711 575.95 753.841 575.49C752.971 575.02 752.286 574.375 751.786 573.555C751.296 572.725 751.051 571.79 751.051 570.75C751.051 569.71 751.296 568.78 751.786 567.96C752.286 567.13 752.976 566.485 753.856 566.025C754.736 565.555 755.726 565.32 756.826 565.32C757.746 565.32 758.581 565.475 759.331 565.785C760.081 566.095 760.711 566.545 761.221 567.135L759.661 568.575C758.911 567.785 758.006 567.39 756.946 567.39C756.276 567.39 755.681 567.53 755.161 567.81C754.641 568.09 754.236 568.485 753.946 568.995C753.656 569.505 753.511 570.09 753.511 570.75C753.511 571.4 753.656 571.98 753.946 572.49C754.236 573 754.636 573.4 755.146 573.69C755.666 573.97 756.256 574.11 756.916 574.11C757.616 574.11 758.246 573.96 758.806 573.66V570.585Z" fill="black"/>
<g clip-path="url(#clip1)">
<path d="M496.524 574.332V564.417C496.243 564.443 495.965 564.487 495.682 564.5H487.587C487.138 564.5 486.774 564.864 486.774 565.312V566.125H484.337C483.888 566.125 483.524 566.488 483.524 566.937V571.812C483.524 572.26 483.888 572.624 484.337 572.624H486.774V573.437C486.774 573.885 487.138 574.249 487.587 574.249H488.079L491.345 582.955C491.545 583.477 491.992 583.855 492.541 583.966C492.65 583.989 492.759 584 492.866 584C493.3 584 493.713 583.828 494.008 583.519L495.96 581.584C496.459 581.085 496.577 580.307 496.259 579.704L493.532 574.249H495.69C495.97 574.262 496.246 574.306 496.524 574.332Z" fill="#10AC62"/>
<path d="M509.389 558.393C509.373 558.366 509.359 558.343 509.337 558.317C509.248 558.203 509.136 558.11 508.998 558.057C508.993 558.055 508.99 558.049 508.985 558.047C508.969 558.042 508.954 558.05 508.938 558.045C508.865 558.024 508.792 558 508.71 558C508.655 558 508.606 558.021 508.553 558.032C508.522 558.039 508.493 558.041 508.462 558.05C508.322 558.096 508.202 558.174 508.106 558.281C508.099 558.288 508.09 558.289 508.083 558.296C505.55 561.372 502.017 563.429 498.148 564.183V574.567C502.017 575.321 505.55 577.377 508.083 580.453C508.09 580.461 508.101 580.464 508.109 580.474C508.166 580.537 508.236 580.588 508.311 580.63C508.335 580.645 508.354 580.666 508.379 580.677C508.481 580.721 508.592 580.749 508.71 580.749C508.803 580.749 508.894 580.732 508.985 580.701C508.99 580.7 508.993 580.693 508.998 580.692C509.136 580.638 509.248 580.547 509.337 580.432C509.357 580.406 509.372 580.383 509.389 580.355C509.467 580.23 509.523 580.092 509.523 579.936V558.812C509.523 558.656 509.467 558.518 509.389 558.393Z" fill="#17CB75"/>
</g>
<path d="M1290.16 602.529L1031.5 602.529V524L1290.16 524C1311.91 524 1329.52 541.598 1329.52 563.347C1329.52 584.93 1311.91 602.529 1290.16 602.529Z" fill="url(#paint6_linear)"/>
<path fill-rule="evenodd" clip-rule="evenodd" d="M1032 600.529H1292.16C1312.81 600.529 1329.52 583.82 1329.52 563.347C1329.52 542.703 1312.81 526 1292.16 526H1032V600.529ZM1292.16 602.529C1313.91 602.529 1331.52 584.931 1331.52 563.347C1331.52 541.598 1313.91 524 1292.16 524H1030V602.529H1292.16Z" fill="#F1D37F"/>
<path d="M987.497 553.5C987.497 532.973 1004.18 517.989 1024.8 517.989H1296.51L1298.51 516H1024.8C1003.08 516 985.5 531.874 985.5 553.5H987.497Z" fill="#F0C344"/>
<path d="M979.997 547.5C979.997 526.973 999.184 510.989 1019.8 510.989H1291.51L1293.51 509H1019.8C998.082 509 978 525.874 978 547.5H979.997Z" fill="#F1D37C"/>
<path d="M1030.86 524C1009.11 524 991.509 541.598 991.509 563.347C991.509 585.097 1009.11 602.695 1030.86 602.695C1042.49 602.695 1052.78 597.714 1060.09 589.745C1076.86 573.143 1074.21 532.799 1130.66 524H1030.86Z" fill="url(#paint7_linear)"/>
<path d="M1030.86 593.398C1047.56 593.398 1061.09 579.869 1061.09 563.182C1061.09 546.494 1047.56 532.965 1030.86 532.965C1014.17 532.965 1000.64 546.494 1000.64 563.182C1000.64 579.869 1014.17 593.398 1030.86 593.398Z" fill="url(#paint8_linear)"/>
<path d="M1118.28 560.45V563.225H1123.14V565.175H1118.28V569H1115.85V558.5H1123.79V560.45H1118.28ZM1126.93 558.5H1129.36V569H1126.93V558.5ZM1133.36 558.5H1135.79V567.02H1141.05V569H1133.36V558.5ZM1152.04 567.05V569H1143.91V558.5H1151.84V560.45H1146.32V562.73H1151.2V564.62H1146.32V567.05H1152.04ZM1165.03 569L1165.01 562.7L1161.92 567.89H1160.83L1157.75 562.835V569H1155.47V558.5H1157.48L1161.41 565.025L1165.28 558.5H1167.28L1167.31 569H1165.03ZM1178.21 566.75H1173.34L1172.41 569H1169.92L1174.6 558.5H1177L1181.69 569H1179.14L1178.21 566.75ZM1177.45 564.905L1175.78 560.885L1174.12 564.905H1177.45ZM1188.11 564.875L1186.7 566.345V569H1184.28V558.5H1186.7V563.405L1191.35 558.5H1194.05L1189.7 563.18L1194.3 569H1191.47L1188.11 564.875ZM1205.02 567.05V569H1196.89V558.5H1204.82V560.45H1199.3V562.73H1204.18V564.62H1199.3V567.05H1205.02ZM1215.14 569L1213.11 566.075H1212.99H1210.88V569H1208.45V558.5H1212.99C1213.92 558.5 1214.73 558.655 1215.41 558.965C1216.1 559.275 1216.63 559.715 1217 560.285C1217.37 560.855 1217.55 561.53 1217.55 562.31C1217.55 563.09 1217.36 563.765 1216.98 564.335C1216.61 564.895 1216.08 565.325 1215.39 565.625L1217.75 569H1215.14ZM1215.09 562.31C1215.09 561.72 1214.9 561.27 1214.52 560.96C1214.14 560.64 1213.59 560.48 1212.86 560.48H1210.88V564.14H1212.86C1213.59 564.14 1214.14 563.98 1214.52 563.66C1214.9 563.34 1215.09 562.89 1215.09 562.31ZM1231.75 569.18C1230.68 569.18 1229.71 568.95 1228.84 568.49C1227.98 568.02 1227.3 567.375 1226.8 566.555C1226.31 565.725 1226.07 564.79 1226.07 563.75C1226.07 562.71 1226.31 561.78 1226.8 560.96C1227.3 560.13 1227.98 559.485 1228.84 559.025C1229.71 558.555 1230.69 558.32 1231.77 558.32C1232.68 558.32 1233.5 558.48 1234.23 558.8C1234.97 559.12 1235.59 559.58 1236.09 560.18L1234.53 561.62C1233.82 560.8 1232.94 560.39 1231.89 560.39C1231.24 560.39 1230.66 560.535 1230.15 560.825C1229.64 561.105 1229.24 561.5 1228.95 562.01C1228.67 562.52 1228.53 563.1 1228.53 563.75C1228.53 564.4 1228.67 564.98 1228.95 565.49C1229.24 566 1229.64 566.4 1230.15 566.69C1230.66 566.97 1231.24 567.11 1231.89 567.11C1232.94 567.11 1233.82 566.695 1234.53 565.865L1236.09 567.305C1235.59 567.915 1234.97 568.38 1234.23 568.7C1233.49 569.02 1232.66 569.18 1231.75 569.18ZM1239.23 558.5H1241.66V567.02H1246.92V569H1239.23V558.5ZM1249.78 558.5H1252.21V569H1249.78V558.5ZM1264.33 567.05V569H1256.2V558.5H1264.14V560.45H1258.62V562.73H1263.49V564.62H1258.62V567.05H1264.33ZM1277.4 558.5V569H1275.4L1270.17 562.625V569H1267.77V558.5H1269.78L1275 564.875V558.5H1277.4ZM1283.56 560.48H1280.2V558.5H1289.35V560.48H1285.99V569H1283.56V560.48Z" fill="black"/>
<path fill-rule="evenodd" clip-rule="evenodd" d="M1039.88 556.607L1020.44 548.021C1020.06 547.932 1019.81 548.125 1019.67 548.601L1018.5 553.334L1018.53 556.473C1019.4 556.771 1019.77 554.375 1020.43 554.598L1026.09 556.965C1026.66 557.188 1026.45 559.033 1027.03 559.301L1030.09 560.834C1030.46 561.012 1031.25 558.661 1031.38 559.36L1034.87 580L1040.46 557.828C1040.57 557.277 1040.43 556.816 1040.01 556.667L1039.88 556.607Z" fill="#EEBD31"/>
<path fill-rule="evenodd" clip-rule="evenodd" d="M1031.71 559.816L1035.5 580L1015.63 569.107L1010.52 551.707C1010.39 551.217 1010.84 550.899 1011.26 551.029L1019.53 554.723C1020.46 555.011 1020.13 553.15 1020.84 553.352L1026.92 555.473C1027.53 555.689 1027.04 557.392 1027.65 557.666L1030.47 558.878C1030.47 558.863 1031.58 559.123 1031.71 559.816Z" fill="#236BB3"/>
<path fill-rule="evenodd" clip-rule="evenodd" d="M1048.67 571.002L1038.59 567L1035.5 580L1049.36 571.669C1049.78 571.417 1049.15 571.21 1048.67 571.002Z" fill="#C9D3EB"/>
<path d="M756.515 424.529H482.355V346H756.515C778.269 346 795.871 363.598 795.871 385.347C795.871 406.93 778.269 424.529 756.515 424.529Z" fill="url(#paint9_linear)"/>
<path fill-rule="evenodd" clip-rule="evenodd" d="M484.355 422.529H756.515C777.17 422.529 793.871 405.82 793.871 385.347C793.871 364.703 777.164 348 756.515 348H484.355V422.529ZM756.515 424.529C778.269 424.529 795.871 406.93 795.871 385.347C795.871 363.598 778.269 346 756.515 346H482.355V424.529H756.515Z" fill="#F8BCB2"/>
<path d="M482.355 346C460.602 346 443 363.598 443 385.347C443 407.097 460.602 424.695 482.355 424.695C493.979 424.695 504.275 419.714 511.581 411.745C528.353 395.143 525.696 354.799 582.156 346H482.355Z" fill="url(#paint10_linear)"/>
<path d="M482.355 415.398C499.046 415.398 512.577 401.869 512.577 385.182C512.577 368.494 499.046 354.965 482.355 354.965C465.664 354.965 452.133 368.494 452.133 385.182C452.133 401.869 465.664 415.398 482.355 415.398Z" fill="url(#paint11_linear)"/>
<path d="M598.412 383.025V393.525H595.982V389.22H591.212V393.525H588.782V383.025H591.212V387.165H595.982V383.025H598.412ZM607.061 393.705C605.561 393.705 604.391 393.29 603.551 392.46C602.721 391.63 602.306 390.445 602.306 388.905V383.025H604.736V388.815C604.736 390.695 605.516 391.635 607.076 391.635C607.836 391.635 608.416 391.41 608.816 390.96C609.216 390.5 609.416 389.785 609.416 388.815V383.025H611.816V388.905C611.816 390.445 611.396 391.63 610.556 392.46C609.726 393.29 608.561 393.705 607.061 393.705ZM623.427 388.065C624.027 388.255 624.497 388.575 624.837 389.025C625.177 389.465 625.347 390.01 625.347 390.66C625.347 391.58 624.987 392.29 624.267 392.79C623.557 393.28 622.517 393.525 621.147 393.525H615.717V383.025H620.847C622.127 383.025 623.107 383.27 623.787 383.76C624.477 384.25 624.822 384.915 624.822 385.755C624.822 386.265 624.697 386.72 624.447 387.12C624.207 387.52 623.867 387.835 623.427 388.065ZM618.132 384.855V387.33H620.547C621.147 387.33 621.602 387.225 621.912 387.015C622.222 386.805 622.377 386.495 622.377 386.085C622.377 385.675 622.222 385.37 621.912 385.17C621.602 384.96 621.147 384.855 620.547 384.855H618.132ZM620.967 391.695C621.607 391.695 622.087 391.59 622.407 391.38C622.737 391.17 622.902 390.845 622.902 390.405C622.902 389.535 622.257 389.1 620.967 389.1H618.132V391.695H620.967ZM632.137 393.705C631.307 393.705 630.502 393.595 629.722 393.375C628.952 393.145 628.332 392.85 627.862 392.49L628.687 390.66C629.137 390.99 629.672 391.255 630.292 391.455C630.912 391.655 631.532 391.755 632.152 391.755C632.842 391.755 633.352 391.655 633.682 391.455C634.012 391.245 634.177 390.97 634.177 390.63C634.177 390.38 634.077 390.175 633.877 390.015C633.687 389.845 633.437 389.71 633.127 389.61C632.827 389.51 632.417 389.4 631.897 389.28C631.097 389.09 630.442 388.9 629.932 388.71C629.422 388.52 628.982 388.215 628.612 387.795C628.252 387.375 628.072 386.815 628.072 386.115C628.072 385.505 628.237 384.955 628.567 384.465C628.897 383.965 629.392 383.57 630.052 383.28C630.722 382.99 631.537 382.845 632.497 382.845C633.167 382.845 633.822 382.925 634.462 383.085C635.102 383.245 635.662 383.475 636.142 383.775L635.392 385.62C634.422 385.07 633.452 384.795 632.482 384.795C631.802 384.795 631.297 384.905 630.967 385.125C630.647 385.345 630.487 385.635 630.487 385.995C630.487 386.355 630.672 386.625 631.042 386.805C631.422 386.975 631.997 387.145 632.767 387.315C633.567 387.505 634.222 387.695 634.732 387.885C635.242 388.075 635.677 388.375 636.037 388.785C636.407 389.195 636.592 389.75 636.592 390.45C636.592 391.05 636.422 391.6 636.082 392.1C635.752 392.59 635.252 392.98 634.582 393.27C633.912 393.56 633.097 393.705 632.137 393.705ZM644.297 383.025C645.227 383.025 646.032 383.18 646.712 383.49C647.402 383.8 647.932 384.24 648.302 384.81C648.672 385.38 648.857 386.055 648.857 386.835C648.857 387.605 648.672 388.28 648.302 388.86C647.932 389.43 647.402 389.87 646.712 390.18C646.032 390.48 645.227 390.63 644.297 390.63H642.182V393.525H639.752V383.025H644.297ZM644.162 388.65C644.892 388.65 645.447 388.495 645.827 388.185C646.207 387.865 646.397 387.415 646.397 386.835C646.397 386.245 646.207 385.795 645.827 385.485C645.447 385.165 644.892 385.005 644.162 385.005H642.182V388.65H644.162ZM657.324 393.705C656.234 393.705 655.249 393.47 654.369 393C653.499 392.53 652.814 391.885 652.314 391.065C651.824 390.235 651.579 389.305 651.579 388.275C651.579 387.245 651.824 386.32 652.314 385.5C652.814 384.67 653.499 384.02 654.369 383.55C655.249 383.08 656.234 382.845 657.324 382.845C658.414 382.845 659.394 383.08 660.264 383.55C661.134 384.02 661.819 384.67 662.319 385.5C662.819 386.32 663.069 387.245 663.069 388.275C663.069 389.305 662.819 390.235 662.319 391.065C661.819 391.885 661.134 392.53 660.264 393C659.394 393.47 658.414 393.705 657.324 393.705ZM657.324 391.635C657.944 391.635 658.504 391.495 659.004 391.215C659.504 390.925 659.894 390.525 660.174 390.015C660.464 389.505 660.609 388.925 660.609 388.275C660.609 387.625 660.464 387.045 660.174 386.535C659.894 386.025 659.504 385.63 659.004 385.35C658.504 385.06 657.944 384.915 657.324 384.915C656.704 384.915 656.144 385.06 655.644 385.35C655.144 385.63 654.749 386.025 654.459 386.535C654.179 387.045 654.039 387.625 654.039 388.275C654.039 388.925 654.179 389.505 654.459 390.015C654.749 390.525 655.144 390.925 655.644 391.215C656.144 391.495 656.704 391.635 657.324 391.635ZM668.423 385.005H665.063V383.025H674.213V385.005H670.853V393.525H668.423V385.005ZM687.794 393.705C686.724 393.705 685.754 393.475 684.884 393.015C684.024 392.545 683.344 391.9 682.844 391.08C682.354 390.25 682.109 389.315 682.109 388.275C682.109 387.235 682.354 386.305 682.844 385.485C683.344 384.655 684.024 384.01 684.884 383.55C685.754 383.08 686.729 382.845 687.809 382.845C688.719 382.845 689.539 383.005 690.269 383.325C691.009 383.645 691.629 384.105 692.129 384.705L690.569 386.145C689.859 385.325 688.979 384.915 687.929 384.915C687.279 384.915 686.699 385.06 686.189 385.35C685.679 385.63 685.279 386.025 684.989 386.535C684.709 387.045 684.569 387.625 684.569 388.275C684.569 388.925 684.709 389.505 684.989 390.015C685.279 390.525 685.679 390.925 686.189 391.215C686.699 391.495 687.279 391.635 687.929 391.635C688.979 391.635 689.859 391.22 690.569 390.39L692.129 391.83C691.629 392.44 691.009 392.905 690.269 393.225C689.529 393.545 688.704 393.705 687.794 393.705ZM701.96 393.525L699.935 390.6H699.815H697.7V393.525H695.27V383.025H699.815C700.745 383.025 701.55 383.18 702.23 383.49C702.92 383.8 703.45 384.24 703.82 384.81C704.19 385.38 704.375 386.055 704.375 386.835C704.375 387.615 704.185 388.29 703.805 388.86C703.435 389.42 702.905 389.85 702.215 390.15L704.57 393.525H701.96ZM701.915 386.835C701.915 386.245 701.725 385.795 701.345 385.485C700.965 385.165 700.41 385.005 699.68 385.005H697.7V388.665H699.68C700.41 388.665 700.965 388.505 701.345 388.185C701.725 387.865 701.915 387.415 701.915 386.835ZM717.355 393.525L717.34 387.225L714.25 392.415H713.155L710.08 387.36V393.525H707.8V383.025H709.81L713.74 389.55L717.61 383.025H719.605L719.635 393.525H717.355Z" fill="black"/>
<path d="M491.802 381.675V377.187C492.399 376.909 492.904 376.469 493.259 375.918C493.613 375.366 493.803 374.726 493.806 374.071V373.968C493.806 372.059 492.25 370.511 490.33 370.511H490.226C489.304 370.511 488.42 370.876 487.768 371.524C487.116 372.172 486.75 373.051 486.75 373.968V374.071C486.753 374.726 486.943 375.366 487.298 375.918C487.653 376.469 488.158 376.909 488.754 377.187V381.675C487.04 381.936 485.425 382.643 484.073 383.724L471.692 374.136C471.78 373.819 471.826 373.493 471.832 373.166C471.833 372.396 471.605 371.642 471.176 371.001C470.746 370.36 470.135 369.859 469.42 369.563C468.705 369.267 467.917 369.189 467.157 369.338C466.397 369.487 465.699 369.856 465.15 370.4C464.601 370.944 464.227 371.638 464.074 372.393C463.922 373.148 463.999 373.931 464.294 374.644C464.589 375.356 465.091 375.965 465.734 376.394C466.378 376.822 467.135 377.052 467.91 377.053C468.588 377.05 469.253 376.87 469.839 376.531L482.031 385.964C480.935 387.609 480.364 389.544 480.391 391.517C480.418 393.49 481.042 395.409 482.182 397.024L478.473 400.712C478.174 400.616 477.861 400.566 477.547 400.562C476.911 400.562 476.289 400.75 475.761 401.102C475.232 401.453 474.82 401.953 474.577 402.537C474.334 403.121 474.27 403.764 474.395 404.384C474.519 405.005 474.825 405.574 475.275 406.021C475.724 406.468 476.297 406.773 476.921 406.896C477.545 407.02 478.191 406.957 478.779 406.715C479.367 406.473 479.869 406.064 480.223 405.538C480.576 405.013 480.765 404.395 480.766 403.762C480.762 403.449 480.711 403.139 480.615 402.841L484.283 399.192C485.48 400.108 486.871 400.739 488.35 401.038C489.83 401.336 491.358 401.294 492.819 400.914C494.28 400.535 495.634 399.828 496.777 398.848C497.92 397.867 498.823 396.64 499.415 395.259C500.008 393.879 500.275 392.382 500.196 390.883C500.116 389.384 499.693 387.923 498.958 386.611C498.223 385.3 497.196 384.174 495.956 383.318C494.715 382.462 493.295 381.9 491.802 381.675ZM490.281 396.438C489.603 396.457 488.929 396.34 488.297 396.095C487.665 395.85 487.089 395.481 486.603 395.011C486.117 394.541 485.73 393.978 485.466 393.357C485.203 392.736 485.067 392.068 485.067 391.394C485.067 390.72 485.203 390.052 485.466 389.431C485.73 388.81 486.117 388.247 486.603 387.777C487.089 387.307 487.665 386.938 488.297 386.693C488.929 386.448 489.603 386.331 490.281 386.35C491.595 386.395 492.84 386.946 493.754 387.887C494.667 388.827 495.178 390.083 495.179 391.39C495.18 392.698 494.67 393.954 493.757 394.895C492.845 395.836 491.6 396.389 490.286 396.436" fill="#FF7A59"/>
<path fill-rule="evenodd" clip-rule="evenodd" d="M1162.5 324C1162.22 324 1162 323.868 1162 323.704L1162 278.296C1162 278.132 1162.22 278 1162.5 278C1162.78 278 1163 278.132 1163 278.296L1163 323.704C1163 323.868 1162.78 324 1162.5 324Z" fill="#FF6B00"/>
<path d="M1158 323.849L1167.13 323.849L1162.48 330L1158 323.849Z" fill="#FF6B00"/>
<path fill-rule="evenodd" clip-rule="evenodd" d="M1166.63 447C1166.91 447 1167.13 447.132 1167.13 447.296V492.704C1167.13 492.868 1166.91 493 1166.63 493C1166.36 493 1166.13 492.868 1166.13 492.704V447.296C1166.13 447.132 1166.36 447 1166.63 447Z" fill="#FF6B00"/>
<path d="M1171.13 447.151H1162L1166.65 441L1171.13 447.151Z" fill="#FF6B00"/>
<path fill-rule="evenodd" clip-rule="evenodd" d="M613.634 447C613.91 447 614.134 447.132 614.134 447.296V492.704C614.134 492.868 613.91 493 613.634 493C613.358 493 613.134 492.868 613.134 492.704V447.296C613.134 447.132 613.358 447 613.634 447Z" fill="#FF6B00"/>
<path d="M618.134 447.151H609.001L613.651 441L618.134 447.151Z" fill="#FF6B00"/>
<path fill-rule="evenodd" clip-rule="evenodd" d="M613.501 271C613.777 271 614.001 271.17 614.001 271.379V329.621C614.001 329.83 613.777 330 613.501 330C613.225 330 613.001 329.83 613.001 329.621V271.379C613.001 271.17 613.225 271 613.501 271Z" fill="#FF6B00"/>
<path d="M618.134 271.151H609.001L613.651 265L618.134 271.151Z" fill="#FF6B00"/>
<path d="M609.001 325L618.134 325L613.484 331.151L609.001 325Z" fill="#FF6B00"/>
<path fill-rule="evenodd" clip-rule="evenodd" d="M1162.5 231C1162.22 231 1162 230.868 1162 230.704L1162 185.296C1162 185.132 1162.22 185 1162.5 185C1162.78 185 1163 185.132 1163 185.296L1163 230.704C1163 230.868 1162.78 231 1162.5 231Z" fill="#FF6B00"/>
<path d="M1158 230.849L1167.13 230.849L1162.48 237L1158 230.849Z" fill="#FF6B00"/>
<path fill-rule="evenodd" clip-rule="evenodd" d="M467.001 133.633C467.001 133.909 466.869 134.133 466.705 134.133L258.664 134.133C258.501 134.133 258.369 133.909 258.369 133.633C258.369 133.357 258.501 133.133 258.664 133.133L466.705 133.133C466.869 133.133 467.001 133.357 467.001 133.633Z" fill="#FF6B00"/>
<path d="M466.85 138.133L466.85 129L473.001 133.65L466.85 138.133Z" fill="#FF6B00"/>
<path fill-rule="evenodd" clip-rule="evenodd" d="M957.633 133.633C957.633 133.909 957.5 134.133 957.337 134.133L749.296 134.133C749.133 134.133 749 133.909 749 133.633C749 133.357 749.133 133.133 749.296 133.133L957.337 133.133C957.5 133.133 957.633 133.357 957.633 133.633Z" fill="#FF6B00"/>
<path d="M957.482 138.133L957.482 129L963.633 133.65L957.482 138.133Z" fill="#FF6B00"/>
<path fill-rule="evenodd" clip-rule="evenodd" d="M816.001 387.5C816.001 387.224 816.07 387 816.155 387L839.847 387C839.932 387 840.001 387.224 840.001 387.5C840.001 387.776 839.932 388 839.847 388L816.155 388C816.07 388 816.001 387.776 816.001 387.5Z" fill="#FF6B00"/>
<path d="M818.152 383L818.152 392.133L812.001 387.483L818.152 383Z" fill="#FF6B00"/>
<path fill-rule="evenodd" clip-rule="evenodd" d="M937.001 387.5C937.001 387.224 937.07 387 937.155 387L960.847 387C960.932 387 961.001 387.224 961.001 387.5C961.001 387.776 960.932 388 960.847 388L937.155 388C937.07 388 937.001 387.776 937.001 387.5Z" fill="#FF6B00"/>
<path d="M939.152 383L939.152 392.133L933.001 387.483L939.152 383Z" fill="#FF6B00"/>
<path d="M1144.61 263.096C1143.52 263.096 1142.59 262.904 1141.81 262.52C1141.03 262.125 1140.44 261.581 1140.03 260.888C1139.63 260.184 1139.42 259.368 1139.42 258.44C1139.42 257.213 1139.7 256.088 1140.26 255.064C1140.81 254.029 1141.6 253.213 1142.62 252.616C1143.65 252.008 1144.83 251.704 1146.18 251.704C1147.26 251.704 1148.2 251.901 1148.98 252.296C1149.75 252.68 1150.35 253.224 1150.75 253.928C1151.17 254.621 1151.38 255.432 1151.38 256.36C1151.38 257.587 1151.09 258.717 1150.53 259.752C1149.97 260.776 1149.18 261.592 1148.16 262.2C1147.14 262.797 1145.95 263.096 1144.61 263.096ZM1144.72 262.04C1145.8 262.04 1146.75 261.789 1147.58 261.288C1148.42 260.776 1149.06 260.093 1149.5 259.24C1149.96 258.376 1150.19 257.432 1150.19 256.408C1150.19 255.299 1149.83 254.413 1149.12 253.752C1148.4 253.091 1147.39 252.76 1146.06 252.76C1144.99 252.76 1144.03 253.016 1143.2 253.528C1142.37 254.029 1141.72 254.712 1141.26 255.576C1140.82 256.429 1140.59 257.363 1140.59 258.376C1140.59 259.496 1140.95 260.387 1141.66 261.048C1142.38 261.709 1143.4 262.04 1144.72 262.04ZM1155.05 251.8H1159.31C1160.42 251.8 1161.37 251.987 1162.16 252.36C1162.96 252.733 1163.56 253.267 1163.97 253.96C1164.38 254.643 1164.59 255.443 1164.59 256.36C1164.59 257.661 1164.3 258.813 1163.73 259.816C1163.15 260.819 1162.33 261.603 1161.28 262.168C1160.23 262.723 1159.02 263 1157.63 263H1152.81L1155.05 251.8ZM1157.66 261.976C1158.82 261.976 1159.84 261.741 1160.7 261.272C1161.58 260.792 1162.24 260.131 1162.7 259.288C1163.17 258.445 1163.41 257.485 1163.41 256.408C1163.41 255.299 1163.05 254.424 1162.33 253.784C1161.62 253.144 1160.57 252.824 1159.18 252.824H1156.01L1154.19 261.976H1157.66ZM1174.22 257.224C1174.8 257.384 1175.24 257.656 1175.55 258.04C1175.86 258.424 1176.02 258.92 1176.02 259.528C1176.02 260.648 1175.59 261.507 1174.74 262.104C1173.89 262.701 1172.73 263 1171.23 263H1166.03L1168.27 251.8H1173.06C1174.14 251.8 1174.99 252.003 1175.58 252.408C1176.19 252.813 1176.5 253.405 1176.5 254.184C1176.5 254.941 1176.29 255.587 1175.87 256.12C1175.46 256.643 1174.91 257.011 1174.22 257.224ZM1169.25 252.776L1168.43 256.84H1172C1172.99 256.84 1173.79 256.632 1174.38 256.216C1174.98 255.789 1175.28 255.181 1175.28 254.392C1175.28 253.848 1175.07 253.443 1174.64 253.176C1174.22 252.909 1173.62 252.776 1172.83 252.776H1169.25ZM1171.33 262.024C1172.46 262.024 1173.33 261.811 1173.94 261.384C1174.54 260.957 1174.85 260.344 1174.85 259.544C1174.85 258.925 1174.63 258.483 1174.19 258.216C1173.77 257.949 1173.11 257.816 1172.24 257.816H1168.24L1167.41 262.024H1171.33ZM1183.36 263.096C1182.27 263.096 1181.33 262.904 1180.54 262.52C1179.75 262.125 1179.15 261.581 1178.73 260.888C1178.33 260.184 1178.13 259.368 1178.13 258.44C1178.13 257.203 1178.4 256.072 1178.96 255.048C1179.52 254.024 1180.32 253.213 1181.36 252.616C1182.39 252.008 1183.59 251.704 1184.94 251.704C1185.84 251.704 1186.63 251.848 1187.33 252.136C1188.02 252.413 1188.55 252.813 1188.93 253.336L1188.09 254.072C1187.38 253.197 1186.3 252.76 1184.85 252.76C1183.75 252.76 1182.78 253.016 1181.93 253.528C1181.09 254.029 1180.44 254.707 1179.98 255.56C1179.52 256.413 1179.29 257.352 1179.29 258.376C1179.29 259.496 1179.65 260.387 1180.37 261.048C1181.09 261.709 1182.12 262.04 1183.45 262.04C1184.92 262.04 1186.1 261.597 1187.01 260.712L1187.69 261.496C1187.2 262.008 1186.58 262.403 1185.82 262.68C1185.07 262.957 1184.24 263.096 1183.36 263.096Z" fill="#434343"/>
<path d="M861.288 383.968C861.288 385.109 860.984 386.048 860.376 386.784C859.779 387.509 858.936 388 857.848 388.256L859.96 392H858.68L856.664 388.432C856.547 388.443 856.355 388.448 856.088 388.448H852.904L852.2 392H851.016L853.256 380.8H857.288C858.558 380.8 859.539 381.077 860.232 381.632C860.936 382.187 861.288 382.965 861.288 383.968ZM856.12 387.424C857.4 387.424 858.382 387.141 859.064 386.576C859.758 386.011 860.104 385.179 860.104 384.08C860.104 383.344 859.854 382.784 859.352 382.4C858.851 382.016 858.136 381.824 857.208 381.824H854.232L853.096 387.424H856.12ZM865.779 381.824L864.979 385.808H870.787L870.595 386.816H864.787L863.955 390.976H870.691L870.483 392H862.579L864.819 380.8H872.499L872.291 381.824H865.779ZM876.546 392.096C875.725 392.096 874.935 391.963 874.178 391.696C873.431 391.429 872.866 391.088 872.482 390.672L873.058 389.744C873.431 390.149 873.949 390.475 874.61 390.72C875.271 390.965 875.954 391.088 876.658 391.088C877.65 391.088 878.445 390.896 879.042 390.512C879.65 390.117 879.954 389.573 879.954 388.88C879.954 388.507 879.842 388.203 879.618 387.968C879.394 387.733 879.111 387.547 878.77 387.408C878.429 387.259 877.965 387.099 877.378 386.928C876.685 386.725 876.119 386.533 875.682 386.352C875.255 386.16 874.887 385.883 874.578 385.52C874.279 385.147 874.13 384.667 874.13 384.08C874.13 383.387 874.317 382.789 874.69 382.288C875.074 381.776 875.602 381.387 876.274 381.12C876.957 380.843 877.735 380.704 878.61 380.704C879.282 380.704 879.922 380.789 880.53 380.96C881.138 381.12 881.655 381.355 882.082 381.664L881.586 382.624C881.181 382.325 880.717 382.101 880.194 381.952C879.671 381.792 879.122 381.712 878.546 381.712C877.565 381.712 876.775 381.915 876.178 382.32C875.581 382.725 875.282 383.275 875.282 383.968C875.282 384.352 875.399 384.667 875.634 384.912C875.869 385.157 876.157 385.355 876.498 385.504C876.85 385.643 877.319 385.797 877.906 385.968C878.599 386.171 879.159 386.368 879.586 386.56C880.013 386.741 880.375 387.008 880.674 387.36C880.973 387.701 881.122 388.155 881.122 388.72C881.122 389.424 880.925 390.032 880.53 390.544C880.146 391.045 879.607 391.429 878.914 391.696C878.231 391.963 877.442 392.096 876.546 392.096ZM887.178 381.824H883.226L883.434 380.8H892.506L892.282 381.824H888.346L886.314 392H885.146L887.178 381.824ZM904.025 389.008H897.769L895.833 392H894.553L901.913 380.8H903.081L905.961 392H904.777L904.025 389.008ZM903.801 388.048L902.281 382L898.377 388.048H903.801ZM914.069 380.8C915.328 380.8 916.309 381.077 917.013 381.632C917.717 382.187 918.069 382.965 918.069 383.968C918.069 385.397 917.605 386.507 916.677 387.296C915.76 388.075 914.491 388.464 912.869 388.464H909.701L908.981 392H907.813L910.053 380.8H914.069ZM912.885 387.424C914.165 387.424 915.152 387.141 915.845 386.576C916.539 386.011 916.885 385.179 916.885 384.08C916.885 383.344 916.635 382.784 916.133 382.4C915.632 382.016 914.912 381.824 913.973 381.824H911.029L909.893 387.424H912.885ZM921.381 380.8H922.549L920.309 392H919.141L921.381 380.8Z" fill="#434343"/>
<path d="M1358.65 381.824L1357.77 386.224H1363.57L1363.37 387.248H1357.56L1356.61 392H1355.45L1357.69 380.8H1365.37L1365.16 381.824H1358.65ZM1379.44 380.8L1377.2 392H1376.07L1377.84 383.12L1372.05 390.576H1371.49L1368.5 382.976L1366.71 392H1365.57L1367.81 380.8H1368.77L1372 389.12L1378.4 380.8H1379.44ZM1387.11 380.8C1388.37 380.8 1389.35 381.077 1390.05 381.632C1390.76 382.187 1391.11 382.965 1391.11 383.968C1391.11 385.397 1390.64 386.507 1389.72 387.296C1388.8 388.075 1387.53 388.464 1385.91 388.464H1382.74L1382.02 392H1380.85L1383.09 380.8H1387.11ZM1385.92 387.424C1387.2 387.424 1388.19 387.141 1388.88 386.576C1389.58 386.011 1389.92 385.179 1389.92 384.08C1389.92 383.344 1389.67 382.784 1389.17 382.4C1388.67 382.016 1387.95 381.824 1387.01 381.824H1384.07L1382.93 387.424H1385.92ZM1401.79 392.096C1400.7 392.096 1399.76 391.904 1398.97 391.52C1398.18 391.125 1397.58 390.581 1397.16 389.888C1396.76 389.184 1396.56 388.368 1396.56 387.44C1396.56 386.203 1396.83 385.072 1397.39 384.048C1397.95 383.024 1398.75 382.213 1399.79 381.616C1400.82 381.008 1402.02 380.704 1403.37 380.704C1404.27 380.704 1405.06 380.848 1405.76 381.136C1406.45 381.413 1406.98 381.813 1407.36 382.336L1406.52 383.072C1405.81 382.197 1404.73 381.76 1403.28 381.76C1402.18 381.76 1401.21 382.016 1400.36 382.528C1399.52 383.029 1398.87 383.707 1398.41 384.56C1397.95 385.413 1397.72 386.352 1397.72 387.376C1397.72 388.496 1398.08 389.387 1398.8 390.048C1399.52 390.709 1400.55 391.04 1401.88 391.04C1403.35 391.04 1404.53 390.597 1405.44 389.712L1406.12 390.496C1405.63 391.008 1405.01 391.403 1404.25 391.68C1403.49 391.957 1402.67 392.096 1401.79 392.096ZM1410.26 380.8H1411.43L1409.4 390.976H1415.67L1415.46 392H1408.02L1410.26 380.8ZM1422.44 392.096C1421.36 392.096 1420.42 391.904 1419.64 391.52C1418.86 391.125 1418.27 390.581 1417.87 389.888C1417.46 389.184 1417.26 388.368 1417.26 387.44C1417.26 386.213 1417.54 385.088 1418.09 384.064C1418.65 383.029 1419.44 382.213 1420.46 381.616C1421.48 381.008 1422.67 380.704 1424.01 380.704C1425.1 380.704 1426.03 380.901 1426.81 381.296C1427.59 381.68 1428.18 382.224 1428.59 382.928C1429 383.621 1429.21 384.432 1429.21 385.36C1429.21 386.587 1428.93 387.717 1428.36 388.752C1427.81 389.776 1427.02 390.592 1426 391.2C1424.97 391.797 1423.79 392.096 1422.44 392.096ZM1422.56 391.04C1423.63 391.04 1424.59 390.789 1425.42 390.288C1426.25 389.776 1426.89 389.093 1427.34 388.24C1427.8 387.376 1428.03 386.432 1428.03 385.408C1428.03 384.299 1427.67 383.413 1426.96 382.752C1426.24 382.091 1425.22 381.76 1423.9 381.76C1422.82 381.76 1421.87 382.016 1421.04 382.528C1420.2 383.029 1419.56 383.712 1419.1 384.576C1418.65 385.429 1418.43 386.363 1418.43 387.376C1418.43 388.496 1418.78 389.387 1419.5 390.048C1420.21 390.709 1421.23 391.04 1422.56 391.04ZM1435.43 392.096C1434.15 392.096 1433.16 391.776 1432.44 391.136C1431.74 390.496 1431.39 389.605 1431.39 388.464C1431.39 388.027 1431.43 387.611 1431.51 387.216L1432.79 380.8H1433.96L1432.68 387.184C1432.6 387.632 1432.55 388.011 1432.55 388.32C1432.55 389.216 1432.81 389.893 1433.32 390.352C1433.83 390.811 1434.57 391.04 1435.53 391.04C1436.63 391.04 1437.5 390.731 1438.15 390.112C1438.81 389.483 1439.28 388.507 1439.55 387.184L1440.83 380.8H1441.98L1440.7 387.264C1440.05 390.485 1438.29 392.096 1435.43 392.096ZM1445.56 380.8H1449.82C1450.93 380.8 1451.88 380.987 1452.67 381.36C1453.47 381.733 1454.07 382.267 1454.47 382.96C1454.89 383.643 1455.1 384.443 1455.1 385.36C1455.1 386.661 1454.81 387.813 1454.23 388.816C1453.66 389.819 1452.84 390.603 1451.79 391.168C1450.74 391.723 1449.52 392 1448.14 392H1443.32L1445.56 380.8ZM1448.17 390.976C1449.33 390.976 1450.35 390.741 1451.21 390.272C1452.08 389.792 1452.75 389.131 1453.21 388.288C1453.68 387.445 1453.91 386.485 1453.91 385.408C1453.91 384.299 1453.56 383.424 1452.84 382.784C1452.13 382.144 1451.08 381.824 1449.69 381.824H1446.52L1444.7 390.976H1448.17Z" fill="#434343"/>
<path d="M124.376 248.703C193.068 248.703 248.753 193.029 248.753 124.351C248.753 55.674 193.068 0 124.376 0C55.6852 0 0 55.674 0 124.351C0 193.029 55.6852 248.703 124.376 248.703Z" fill="url(#paint12_linear)"/>
<g opacity="0.25">
<path opacity="0.25" d="M124.376 248.703C193.068 248.703 248.753 193.029 248.753 124.351C248.753 55.674 193.068 0 124.376 0C55.6852 0 0 55.674 0 124.351C0 193.029 55.6852 248.703 124.376 248.703Z" fill="#6D6D6D"/>
</g>
<path d="M124.539 242.866C190.006 242.866 243.078 189.805 243.078 124.351C243.078 58.8974 190.006 5.83643 124.539 5.83643C59.0717 5.83643 6 58.8974 6 124.351C6 189.805 59.0717 242.866 124.539 242.866Z" fill="url(#paint13_linear)"/>
<path d="M114.09 159.05V161H105.96V150.5H113.895V152.45H108.375V154.73H113.25V156.62H108.375V159.05H114.09ZM127.153 150.5V161H125.158L119.923 154.625V161H117.523V150.5H119.533L124.753 156.875V150.5H127.153ZM131.138 150.5H135.908C137.048 150.5 138.053 150.72 138.923 151.16C139.803 151.59 140.483 152.2 140.963 152.99C141.453 153.78 141.698 154.7 141.698 155.75C141.698 156.8 141.453 157.72 140.963 158.51C140.483 159.3 139.803 159.915 138.923 160.355C138.053 160.785 137.048 161 135.908 161H131.138V150.5ZM135.788 159.005C136.838 159.005 137.673 158.715 138.293 158.135C138.923 157.545 139.238 156.75 139.238 155.75C139.238 154.75 138.923 153.96 138.293 153.38C137.673 152.79 136.838 152.495 135.788 152.495H133.568V159.005H135.788ZM74.3096 179.18C73.2396 179.18 72.2696 178.95 71.3996 178.49C70.5396 178.02 69.8596 177.375 69.3596 176.555C68.8696 175.725 68.6246 174.79 68.6246 173.75C68.6246 172.71 68.8696 171.78 69.3596 170.96C69.8596 170.13 70.5396 169.485 71.3996 169.025C72.2696 168.555 73.2446 168.32 74.3246 168.32C75.2346 168.32 76.0546 168.48 76.7846 168.8C77.5246 169.12 78.1446 169.58 78.6446 170.18L77.0846 171.62C76.3746 170.8 75.4946 170.39 74.4446 170.39C73.7946 170.39 73.2146 170.535 72.7046 170.825C72.1946 171.105 71.7946 171.5 71.5046 172.01C71.2246 172.52 71.0846 173.1 71.0846 173.75C71.0846 174.4 71.2246 174.98 71.5046 175.49C71.7946 176 72.1946 176.4 72.7046 176.69C73.2146 176.97 73.7946 177.11 74.4446 177.11C75.4946 177.11 76.3746 176.695 77.0846 175.865L78.6446 177.305C78.1446 177.915 77.5246 178.38 76.7846 178.7C76.0446 179.02 75.2196 179.18 74.3096 179.18ZM86.3626 179.18C84.8626 179.18 83.6926 178.765 82.8526 177.935C82.0226 177.105 81.6076 175.92 81.6076 174.38V168.5H84.0376V174.29C84.0376 176.17 84.8176 177.11 86.3776 177.11C87.1376 177.11 87.7176 176.885 88.1176 176.435C88.5176 175.975 88.7176 175.26 88.7176 174.29V168.5H91.1176V174.38C91.1176 175.92 90.6976 177.105 89.8576 177.935C89.0276 178.765 87.8626 179.18 86.3626 179.18ZM98.4689 179.18C97.6389 179.18 96.8339 179.07 96.0539 178.85C95.2839 178.62 94.6639 178.325 94.1939 177.965L95.0189 176.135C95.4689 176.465 96.0039 176.73 96.6239 176.93C97.2439 177.13 97.8639 177.23 98.4839 177.23C99.1739 177.23 99.6839 177.13 100.014 176.93C100.344 176.72 100.509 176.445 100.509 176.105C100.509 175.855 100.409 175.65 100.209 175.49C100.019 175.32 99.7689 175.185 99.4589 175.085C99.1589 174.985 98.7489 174.875 98.2289 174.755C97.4289 174.565 96.7739 174.375 96.2639 174.185C95.7539 173.995 95.3139 173.69 94.9439 173.27C94.5839 172.85 94.4039 172.29 94.4039 171.59C94.4039 170.98 94.5689 170.43 94.8989 169.94C95.2289 169.44 95.7239 169.045 96.3839 168.755C97.0539 168.465 97.8689 168.32 98.8289 168.32C99.4989 168.32 100.154 168.4 100.794 168.56C101.434 168.72 101.994 168.95 102.474 169.25L101.724 171.095C100.754 170.545 99.7839 170.27 98.8139 170.27C98.1339 170.27 97.6289 170.38 97.2989 170.6C96.9789 170.82 96.8189 171.11 96.8189 171.47C96.8189 171.83 97.0039 172.1 97.3739 172.28C97.7539 172.45 98.3289 172.62 99.0989 172.79C99.8989 172.98 100.554 173.17 101.064 173.36C101.574 173.55 102.009 173.85 102.369 174.26C102.739 174.67 102.924 175.225 102.924 175.925C102.924 176.525 102.754 177.075 102.414 177.575C102.084 178.065 101.584 178.455 100.914 178.745C100.244 179.035 99.4289 179.18 98.4689 179.18ZM108.113 170.48H104.753V168.5H113.903V170.48H110.543V179H108.113V170.48ZM121.649 179.18C120.559 179.18 119.574 178.945 118.694 178.475C117.824 178.005 117.139 177.36 116.639 176.54C116.149 175.71 115.904 174.78 115.904 173.75C115.904 172.72 116.149 171.795 116.639 170.975C117.139 170.145 117.824 169.495 118.694 169.025C119.574 168.555 120.559 168.32 121.649 168.32C122.739 168.32 123.719 168.555 124.589 169.025C125.459 169.495 126.144 170.145 126.644 170.975C127.144 171.795 127.394 172.72 127.394 173.75C127.394 174.78 127.144 175.71 126.644 176.54C126.144 177.36 125.459 178.005 124.589 178.475C123.719 178.945 122.739 179.18 121.649 179.18ZM121.649 177.11C122.269 177.11 122.829 176.97 123.329 176.69C123.829 176.4 124.219 176 124.499 175.49C124.789 174.98 124.934 174.4 124.934 173.75C124.934 173.1 124.789 172.52 124.499 172.01C124.219 171.5 123.829 171.105 123.329 170.825C122.829 170.535 122.269 170.39 121.649 170.39C121.029 170.39 120.469 170.535 119.969 170.825C119.469 171.105 119.074 171.5 118.784 172.01C118.504 172.52 118.364 173.1 118.364 173.75C118.364 174.4 118.504 174.98 118.784 175.49C119.074 176 119.469 176.4 119.969 176.69C120.469 176.97 121.029 177.11 121.649 177.11ZM140.275 179L140.26 172.7L137.17 177.89H136.075L133 172.835V179H130.72V168.5H132.73L136.66 175.025L140.53 168.5H142.525L142.555 179H140.275ZM154.676 177.05V179H146.546V168.5H154.481V170.45H148.961V172.73H153.836V174.62H148.961V177.05H154.676ZM164.8 179L162.775 176.075H162.655H160.54V179H158.11V168.5H162.655C163.585 168.5 164.39 168.655 165.07 168.965C165.76 169.275 166.29 169.715 166.66 170.285C167.03 170.855 167.215 171.53 167.215 172.31C167.215 173.09 167.025 173.765 166.645 174.335C166.275 174.895 165.745 175.325 165.055 175.625L167.41 179H164.8ZM164.755 172.31C164.755 171.72 164.565 171.27 164.185 170.96C163.805 170.64 163.25 170.48 162.52 170.48H160.54V174.14H162.52C163.25 174.14 163.805 173.98 164.185 173.66C164.565 173.34 164.755 172.89 164.755 172.31ZM174.09 179.18C173.26 179.18 172.455 179.07 171.675 178.85C170.905 178.62 170.285 178.325 169.815 177.965L170.64 176.135C171.09 176.465 171.625 176.73 172.245 176.93C172.865 177.13 173.485 177.23 174.105 177.23C174.795 177.23 175.305 177.13 175.635 176.93C175.965 176.72 176.13 176.445 176.13 176.105C176.13 175.855 176.03 175.65 175.83 175.49C175.64 175.32 175.39 175.185 175.08 175.085C174.78 174.985 174.37 174.875 173.85 174.755C173.05 174.565 172.395 174.375 171.885 174.185C171.375 173.995 170.935 173.69 170.565 173.27C170.205 172.85 170.025 172.29 170.025 171.59C170.025 170.98 170.19 170.43 170.52 169.94C170.85 169.44 171.345 169.045 172.005 168.755C172.675 168.465 173.49 168.32 174.45 168.32C175.12 168.32 175.775 168.4 176.415 168.56C177.055 168.72 177.615 168.95 178.095 169.25L177.345 171.095C176.375 170.545 175.405 170.27 174.435 170.27C173.755 170.27 173.25 170.38 172.92 170.6C172.6 170.82 172.44 171.11 172.44 171.47C172.44 171.83 172.625 172.1 172.995 172.28C173.375 172.45 173.95 172.62 174.72 172.79C175.52 172.98 176.175 173.17 176.685 173.36C177.195 173.55 177.63 173.85 177.99 174.26C178.36 174.67 178.545 175.225 178.545 175.925C178.545 176.525 178.375 177.075 178.035 177.575C177.705 178.065 177.205 178.455 176.535 178.745C175.865 179.035 175.05 179.18 174.09 179.18Z" fill="white"/>
<path d="M145.939 75.9958C145.858 75.9958 145.776 75.987 145.696 75.9708C145.616 75.9558 145.537 75.9308 145.462 75.8995C145.386 75.8683 145.313 75.8295 145.246 75.7845C145.177 75.7395 145.113 75.687 145.056 75.6295C144.998 75.572 144.946 75.5083 144.901 75.4395C144.856 75.372 144.817 75.2995 144.786 75.2233C144.754 75.1483 144.729 75.0695 144.714 74.9895C144.698 74.9095 144.689 74.827 144.689 74.7458C144.689 74.6645 144.698 74.582 144.714 74.502C144.729 74.422 144.754 74.3433 144.786 74.267C144.817 74.192 144.856 74.1195 144.901 74.052C144.946 73.9833 144.998 73.9195 145.056 73.862C145.113 73.8045 145.177 73.752 145.246 73.7058C145.313 73.6608 145.386 73.622 145.462 73.592C145.537 73.5608 145.616 73.5358 145.696 73.5195C145.857 73.4883 146.022 73.4883 146.183 73.5195C146.263 73.5358 146.342 73.5608 146.417 73.592C146.493 73.6233 146.565 73.6608 146.633 73.7058C146.702 73.752 146.765 73.8045 146.823 73.862C146.88 73.9195 146.933 73.9833 146.979 74.052C147.024 74.1195 147.062 74.192 147.093 74.267C147.126 74.3433 147.149 74.422 147.165 74.502C147.182 74.582 147.189 74.6645 147.189 74.7458C147.189 74.827 147.182 74.9095 147.165 74.9895C147.149 75.0695 147.126 75.1483 147.093 75.2233C147.062 75.2995 147.024 75.372 146.979 75.4395C146.933 75.5083 146.88 75.572 146.823 75.6295C146.765 75.687 146.702 75.7395 146.633 75.7845C146.565 75.8295 146.493 75.8683 146.417 75.8995C146.342 75.9308 146.263 75.9558 146.183 75.9708C146.103 75.9872 146.02 75.9958 145.939 75.9958Z" fill="#D6D8DC"/>
<path d="M151.99 80.8826C151.675 80.2682 150.922 80.0254 150.308 80.3403C149.693 80.6552 149.45 81.4085 149.765 82.023C154.703 91.6575 152.873 103.279 145.212 110.941C140.516 115.636 134.274 118.222 127.633 118.222C120.993 118.222 114.751 115.636 110.055 110.941C100.362 101.247 100.362 85.475 110.055 75.7814C118.006 67.8295 130.349 66.2035 140.07 71.8268C140.667 72.1725 141.432 71.9682 141.778 71.3707C142.123 70.773 141.919 70.0084 141.322 69.6628C130.622 63.4733 117.038 65.2625 108.287 74.0138C103.12 79.1816 100.274 86.0526 100.274 93.361C100.274 100.252 102.804 106.754 107.424 111.806L105.68 113.551L103.619 111.49C103.384 111.255 103.066 111.124 102.735 111.124C102.403 111.124 102.085 111.255 101.851 111.49L92.5853 120.756C90.4742 122.867 90.4742 126.303 92.5853 128.414C93.6081 129.437 94.9678 130 96.4142 130C97.8604 130 99.2202 129.437 100.243 128.414L109.509 119.148C109.997 118.66 109.997 117.868 109.509 117.38L107.448 115.319L109.192 113.574C114.244 118.193 120.744 120.722 127.634 120.722C134.942 120.722 141.812 117.876 146.98 112.708C151.156 108.532 153.823 103.246 154.692 97.4218C155.544 91.7132 154.61 85.994 151.99 80.8826ZM106.857 118.264L98.4751 126.646C97.9246 127.197 97.1927 127.5 96.4142 127.5C95.6356 127.5 94.9037 127.197 94.3532 126.646C93.2167 125.51 93.2167 123.66 94.3532 122.524L102.735 114.142L103.912 115.319L101.583 117.648C101.095 118.136 101.095 118.927 101.583 119.416C101.828 119.66 102.147 119.782 102.467 119.782C102.787 119.782 103.107 119.66 103.351 119.416L105.68 117.087L106.857 118.264Z" fill="#D6D8DC"/>
<path d="M106.833 93.3637C106.833 97.0281 107.8 100.632 109.628 103.785C111.401 106.842 113.942 109.416 116.976 111.23C116.977 111.231 116.978 111.231 116.979 111.232C120.189 113.151 123.874 114.165 127.633 114.165C131.393 114.165 135.078 113.151 138.288 111.232C138.666 111.006 138.897 110.599 138.897 110.159V100.396C138.897 97.948 136.906 95.9564 134.459 95.9564H134.001C135.849 94.2428 137.008 91.795 137.008 89.0815C137.008 83.9121 132.802 79.7063 127.633 79.7063C122.464 79.7063 118.259 83.9121 118.259 89.0815C118.259 91.795 119.417 94.2428 121.266 95.9564H120.808C118.361 95.9564 116.37 97.948 116.37 100.396V107.786C111.982 104.343 109.333 99.0015 109.333 93.3637C109.333 83.2722 117.542 75.062 127.633 75.062C137.724 75.062 145.934 83.2722 145.934 93.3637C145.934 95.5577 145.55 97.703 144.793 99.7399C144.552 100.387 144.882 101.107 145.529 101.347C146.176 101.588 146.895 101.258 147.136 100.611C147.997 98.2944 148.434 95.8561 148.434 93.3637C148.434 81.8937 139.103 72.562 127.633 72.562C116.164 72.562 106.833 81.8935 106.833 93.3637ZM120.759 89.0813C120.759 85.2903 123.843 82.2062 127.633 82.2062C131.424 82.2062 134.508 85.2903 134.508 89.0813C134.508 92.8517 131.457 95.923 127.695 95.9562H127.571C123.809 95.923 120.759 92.8517 120.759 89.0813ZM118.87 100.396C118.87 99.3264 119.739 98.4562 120.808 98.4562H127.561C127.585 98.4564 127.609 98.4565 127.633 98.4565C127.658 98.4565 127.682 98.4564 127.706 98.4562H134.459C135.528 98.4562 136.397 99.3264 136.397 100.396V109.434C133.721 110.896 130.706 111.665 127.633 111.665C124.56 111.665 121.546 110.896 118.87 109.434V100.396H118.87Z" fill="#D6D8DC"/>
<path d="M613.129 248.703C681.821 248.703 737.506 193.029 737.506 124.351C737.506 55.674 681.821 0 613.129 0C544.438 0 488.753 55.674 488.753 124.351C488.753 193.029 544.438 248.703 613.129 248.703Z" fill="url(#paint14_linear)"/>
<g opacity="0.25">
<path opacity="0.25" d="M613.129 248.703C681.821 248.703 737.506 193.029 737.506 124.351C737.506 55.674 681.821 0 613.129 0C544.438 0 488.753 55.674 488.753 124.351C488.753 193.029 544.438 248.703 613.129 248.703Z" fill="#6D6D6D"/>
</g>
<path d="M613.292 242.866C678.759 242.866 731.831 189.805 731.831 124.351C731.831 58.8974 678.759 5.83643 613.292 5.83643C547.825 5.83643 494.753 58.8974 494.753 124.351C494.753 189.805 547.825 242.866 613.292 242.866Z" fill="url(#paint15_linear)"/>
<path d="M645.753 135H650.777V156.751H645.753V135Z" fill="#193187"/>
<path d="M665.731 139.785C667.798 139.785 669.463 140.407 670.724 141.65C672.006 142.893 672.647 144.736 672.647 147.181V156.751H667.809V147.927C667.809 146.601 667.519 145.617 666.94 144.975C666.361 144.312 665.524 143.98 664.428 143.98C663.208 143.98 662.236 144.363 661.512 145.13C660.789 145.876 660.427 146.994 660.427 148.486V156.751H655.589V140.034H660.21V141.992C660.851 141.287 661.647 140.749 662.598 140.376C663.549 139.982 664.593 139.785 665.731 139.785Z" fill="#193187"/>
<path d="M685.278 157C683.5 157 681.898 156.637 680.471 155.912C679.065 155.167 677.959 154.141 677.152 152.836C676.367 151.531 675.974 150.05 675.974 148.393C675.974 146.735 676.367 145.254 677.152 143.949C677.959 142.644 679.065 141.629 680.471 140.904C681.898 140.158 683.5 139.785 685.278 139.785C687.036 139.785 688.566 140.158 689.869 140.904C691.192 141.629 692.153 142.675 692.753 144.042L689 146.062C688.132 144.529 686.881 143.763 685.247 143.763C683.986 143.763 682.942 144.177 682.115 145.006C681.288 145.834 680.874 146.963 680.874 148.393C680.874 149.822 681.288 150.951 682.115 151.78C682.942 152.608 683.986 153.023 685.247 153.023C686.901 153.023 688.152 152.256 689 150.723L692.753 152.774C692.153 154.1 691.192 155.136 689.869 155.881C688.566 156.627 687.036 157 685.278 157Z" fill="#193187"/>
<path d="M548.671 157.361C546.94 157.361 545.261 157.134 543.633 156.679C542.027 156.204 540.733 155.595 539.753 154.851L541.474 151.072C542.413 151.753 543.529 152.301 544.823 152.714C546.116 153.127 547.409 153.333 548.703 153.333C550.142 153.333 551.206 153.127 551.895 152.714C552.583 152.28 552.928 151.712 552.928 151.01C552.928 150.493 552.719 150.07 552.302 149.739C551.905 149.388 551.384 149.109 550.737 148.903C550.111 148.696 549.256 148.469 548.171 148.221C546.502 147.829 545.135 147.436 544.071 147.044C543.008 146.651 542.09 146.021 541.318 145.154C540.567 144.286 540.191 143.13 540.191 141.684C540.191 140.424 540.535 139.288 541.224 138.276C541.912 137.243 542.945 136.427 544.322 135.828C545.72 135.229 547.42 134.929 549.423 134.929C550.821 134.929 552.187 135.095 553.522 135.425C554.858 135.756 556.026 136.231 557.027 136.85L555.462 140.661C553.439 139.525 551.415 138.957 549.392 138.957C547.973 138.957 546.919 139.184 546.23 139.639C545.563 140.093 545.23 140.692 545.23 141.436C545.23 142.18 545.615 142.737 546.387 143.109C547.18 143.46 548.38 143.811 549.986 144.162C551.655 144.555 553.022 144.947 554.086 145.34C555.15 145.732 556.057 146.352 556.808 147.199C557.58 148.046 557.966 149.192 557.966 150.638C557.966 151.877 557.611 153.013 556.902 154.046C556.213 155.058 555.17 155.864 553.773 156.463C552.375 157.062 550.674 157.361 548.671 157.361Z" fill="white"/>
<path d="M571.037 140.073C572.602 140.073 574.021 140.434 575.293 141.157C576.587 141.859 577.598 142.861 578.328 144.162C579.059 145.443 579.424 146.941 579.424 148.655C579.424 150.369 579.059 151.877 578.328 153.178C577.598 154.459 576.587 155.461 575.293 156.184C574.021 156.886 572.602 157.237 571.037 157.237C568.888 157.237 567.198 156.566 565.967 155.223V163H561.086V140.321H565.748V142.241C566.958 140.796 568.721 140.073 571.037 140.073ZM570.192 153.271C571.444 153.271 572.466 152.858 573.259 152.032C574.073 151.185 574.48 150.059 574.48 148.655C574.48 147.25 574.073 146.135 573.259 145.309C572.466 144.462 571.444 144.038 570.192 144.038C568.941 144.038 567.908 144.462 567.094 145.309C566.302 146.135 565.905 147.25 565.905 148.655C565.905 150.059 566.302 151.185 567.094 152.032C567.908 152.858 568.941 153.271 570.192 153.271Z" fill="white"/>
<path d="M599.184 148.717C599.184 148.779 599.152 149.213 599.09 150.018H586.353C586.583 151.051 587.125 151.867 587.98 152.466C588.836 153.065 589.9 153.364 591.173 153.364C592.049 153.364 592.821 153.24 593.488 152.992C594.177 152.724 594.813 152.311 595.397 151.753L597.995 154.542C596.409 156.339 594.093 157.237 591.047 157.237C589.149 157.237 587.47 156.876 586.009 156.153C584.549 155.409 583.422 154.387 582.629 153.085C581.836 151.784 581.441 150.307 581.441 148.655C581.441 147.023 581.826 145.557 582.598 144.255C583.391 142.933 584.465 141.911 585.821 141.188C587.198 140.444 588.732 140.073 590.421 140.073C592.07 140.073 593.561 140.424 594.897 141.126C596.232 141.828 597.275 142.84 598.026 144.162C598.798 145.464 599.184 146.982 599.184 148.717ZM590.453 143.729C589.347 143.729 588.419 144.038 587.668 144.658C586.917 145.278 586.458 146.125 586.291 147.199H594.583C594.416 146.145 593.958 145.309 593.207 144.689C592.456 144.049 591.537 143.729 590.453 143.729Z" fill="white"/>
<path d="M608.767 140.073C611.374 140.073 613.377 140.692 614.775 141.932C616.173 143.15 616.871 144.999 616.871 147.478V156.989H612.303V154.913C611.385 156.463 609.674 157.237 607.17 157.237C605.877 157.237 604.751 157.02 603.791 156.587C602.852 156.153 602.132 155.554 601.631 154.79C601.131 154.025 600.88 153.158 600.88 152.187C600.88 150.638 601.465 149.419 602.633 148.531C603.822 147.643 605.647 147.199 608.109 147.199H611.989C611.989 146.145 611.667 145.34 611.02 144.782C610.373 144.204 609.402 143.915 608.109 143.915C607.212 143.915 606.326 144.059 605.45 144.348C604.594 144.617 603.864 144.989 603.259 145.464L601.506 142.087C602.424 141.446 603.519 140.951 604.792 140.599C606.085 140.248 607.411 140.073 608.767 140.073ZM608.391 153.984C609.225 153.984 609.966 153.798 610.613 153.426C611.26 153.034 611.718 152.466 611.989 151.722V150.018H608.641C606.638 150.018 605.637 150.669 605.637 151.97C605.637 152.59 605.877 153.086 606.357 153.457C606.857 153.808 607.536 153.984 608.391 153.984Z" fill="white"/>
<path d="M628.519 150.452L626.171 152.745V156.989H621.29V134H626.171V147.013L633.307 140.321H639.127L632.117 147.385L639.753 156.989H633.839L628.519 150.452Z" fill="white"/>
<path d="M603.063 94.7612L602.005 100.078L600.32 94.613C600.108 93.9238 599.377 93.5377 598.688 93.7498C598.221 93.8936 597.895 94.2748 597.797 94.7196L596.138 100.083L595.081 94.7444C594.941 94.037 594.255 93.5772 593.547 93.7168C592.839 93.8566 592.379 94.5437 592.519 95.2512C592.519 95.2512 594.445 104.963 594.467 105.023C594.685 105.63 595.261 106.035 595.905 106.035C595.911 106.035 595.917 106.035 595.922 106.035C596.572 106.027 597.147 105.608 597.352 104.992C597.355 104.983 597.358 104.974 597.361 104.965L599.073 99.4322L600.779 104.968C600.785 104.987 600.791 105.005 600.798 105.024C601.016 105.631 601.591 106.035 602.234 106.035C602.24 106.035 602.246 106.035 602.252 106.035C602.9 106.027 603.474 105.608 603.68 104.992C603.697 104.94 605.625 95.2712 605.625 95.2712C605.766 94.5639 605.307 93.8762 604.599 93.7354C603.891 93.5949 603.204 94.0538 603.063 94.7612Z" fill="white"/>
<path d="M622.097 95.2713C622.237 94.564 621.778 93.8763 621.071 93.7356C620.363 93.595 619.676 94.0539 619.535 94.7613L618.476 100.082L616.792 94.6136C616.58 93.9244 615.849 93.538 615.16 93.7498C614.693 93.8936 614.366 94.2749 614.269 94.7201L612.608 100.079L611.553 94.7445C611.413 94.037 610.726 93.5764 610.018 93.7169C609.311 93.8567 608.851 94.5439 608.991 95.2513C608.991 95.2513 610.917 104.963 610.939 105.024C611.157 105.63 611.732 106.035 612.375 106.035C612.381 106.035 612.386 106.035 612.392 106.035C613.041 106.028 613.615 105.609 613.82 104.993C613.823 104.984 613.826 104.975 613.829 104.966L615.543 99.4323L617.247 104.967C617.253 104.986 617.259 105.005 617.266 105.024C617.484 105.631 618.06 106.035 618.704 106.035C618.71 106.035 618.716 106.035 618.722 106.035C619.371 106.028 619.946 105.609 620.151 104.992C620.168 104.94 622.097 95.2713 622.097 95.2713Z" fill="white"/>
<path d="M628.838 106.035C628.844 106.035 628.85 106.035 628.855 106.035C629.498 106.035 630.074 105.63 630.292 105.024C630.298 105.005 630.304 104.986 630.31 104.967L632.015 99.4322L633.729 104.966C633.732 104.974 633.734 104.983 633.737 104.992C633.943 105.609 634.517 106.028 635.166 106.035C635.171 106.035 635.177 106.035 635.183 106.035C635.825 106.035 636.401 105.63 636.619 105.023C636.641 104.962 638.567 95.2511 638.567 95.2511C638.707 94.5437 638.247 93.8566 637.539 93.7167C636.831 93.5769 636.145 94.0369 636.005 94.7443L634.949 100.079L633.289 94.7199C633.192 94.2747 632.865 93.8933 632.398 93.7496C631.709 93.5373 630.978 93.924 630.766 94.6135L629.084 100.075L628.026 94.7612C627.886 94.0538 627.198 93.595 626.491 93.7354C625.783 93.8762 625.324 94.5638 625.465 95.2711C625.465 95.2711 627.393 104.94 627.41 104.992C627.616 105.609 628.189 106.028 628.838 106.035Z" fill="white"/>
<path d="M615.544 110.674C614.823 110.674 614.238 111.259 614.238 111.98C614.238 112.701 614.823 113.286 615.544 113.286H615.548C616.269 113.286 616.852 112.701 616.852 111.98C616.852 111.259 616.265 110.674 615.544 110.674Z" fill="white"/>
<path d="M653.885 118.388L647.695 112.198L649.996 109.897C650.356 109.536 650.474 108.999 650.298 108.521C650.121 108.043 649.683 107.711 649.174 107.671L644.335 107.293V89.4527C644.335 87.7928 642.983 86.4422 641.321 86.4422H634.942C635.418 84.7133 635.658 82.9282 635.658 81.1145C635.658 70.0233 626.635 61 615.544 61C604.453 61 595.43 70.0234 595.43 81.1145C595.43 82.9318 595.67 84.7167 596.143 86.4422H589.763C588.103 86.4422 586.753 87.7928 586.753 89.4527V110.272C586.753 111.934 588.103 113.286 589.763 113.286H609.7C610.422 113.286 611.006 112.701 611.006 111.98C611.006 111.259 610.422 110.674 609.7 110.674H589.763C589.547 110.674 589.365 110.49 589.365 110.272V89.4527C589.365 89.2367 589.547 89.054 589.763 89.054H625.55C625.551 89.054 625.553 89.0543 625.554 89.0543C625.556 89.0543 625.558 89.054 625.56 89.054H633.137C633.14 89.054 633.143 89.0544 633.146 89.0544C633.149 89.0544 633.152 89.054 633.156 89.054H641.321C641.539 89.054 641.724 89.2366 641.724 89.4527V107.089L637.424 106.753C637.044 106.723 636.669 106.861 636.399 107.131C636.129 107.401 635.991 107.776 636.02 108.156L636.217 110.674H621.388C620.667 110.674 620.082 111.259 620.082 111.98C620.082 112.701 620.667 113.286 621.388 113.286H636.421L636.939 119.907C636.979 120.415 637.311 120.854 637.789 121.031C638.267 121.207 638.804 121.089 639.164 120.729L641.465 118.428L647.655 124.618C647.9 124.862 648.232 125 648.578 125C648.925 125 649.257 124.862 649.502 124.618L653.885 120.234C654.395 119.724 654.395 118.897 653.885 118.388ZM598.867 86.4422C598.451 85.1396 598.191 83.7938 598.09 82.4204H603.57C603.621 83.7892 603.75 85.1343 603.96 86.4422H598.867ZM603.57 79.8086H598.091C598.286 77.172 599.068 74.6965 600.307 72.5116C601.546 72.9999 602.908 73.4144 604.357 73.7548C603.915 75.6722 603.649 77.7099 603.57 79.8086ZM601.803 70.2857C603.473 68.1716 605.619 66.451 608.078 65.2864C607.646 65.8606 607.234 66.4877 606.846 67.1686C606.144 68.4041 605.548 69.773 605.061 71.2385C603.904 70.9709 602.811 70.6528 601.803 70.2857ZM614.238 86.4422H606.61C606.381 85.1404 606.239 83.795 606.183 82.4204H614.238V86.4422ZM614.238 79.8086H606.182C606.263 77.8652 606.524 75.9992 606.932 74.2685C609.262 74.6564 611.741 74.8749 614.238 74.9236V79.8086ZM614.238 72.3078C611.991 72.2621 609.762 72.0739 607.664 71.7421C609.125 67.5515 611.515 64.5329 614.238 63.7903V72.3078ZM616.85 63.7903C619.559 64.5289 621.936 67.5183 623.399 71.6726C621.32 72.0236 619.099 72.2316 616.85 72.2967V63.7903ZM624.475 86.4422H616.85V82.4204H624.905C624.849 83.7905 624.705 85.1358 624.475 86.4422ZM616.85 79.8086V74.9123C619.352 74.8429 621.825 74.6031 624.138 74.1939C624.557 75.9454 624.824 77.8373 624.906 79.8088H616.85V79.8086ZM624.242 67.1686C623.855 66.4877 623.443 65.8605 623.01 65.2863C625.418 66.427 627.526 68.1014 629.181 70.1561C628.2 70.5327 627.132 70.861 625.995 71.1394C625.515 69.7113 624.929 68.3765 624.242 67.1686ZM632.218 86.4422H627.125C627.336 85.1305 627.467 83.7854 627.518 82.4204H632.997C632.896 83.791 632.635 85.137 632.218 86.4422ZM627.518 79.8086C627.438 77.6723 627.165 75.5985 626.709 73.6513C628.143 73.2955 629.484 72.8658 630.697 72.3627C631.985 74.5837 632.798 77.112 632.998 79.8086H627.518ZM648.578 121.847L642.389 115.657C642.144 115.413 641.812 115.275 641.465 115.275C641.119 115.275 640.787 115.413 640.542 115.657L639.322 116.878L638.743 109.476L646.145 110.054L644.925 111.275C644.415 111.784 644.415 112.611 644.925 113.121L651.114 119.311L648.578 121.847Z" fill="white"/>
<path d="M592.076 172.5L588.641 183H586.031L583.721 175.89L581.336 183H578.741L575.291 172.5H577.811L580.181 179.88L582.656 172.5H584.906L587.306 179.94L589.751 172.5H592.076ZM603.063 181.05V183H594.933V172.5H602.868V174.45H597.348V176.73H602.223V178.62H597.348V181.05H603.063ZM614.206 177.54C614.806 177.73 615.276 178.05 615.616 178.5C615.956 178.94 616.126 179.485 616.126 180.135C616.126 181.055 615.766 181.765 615.046 182.265C614.336 182.755 613.296 183 611.926 183H606.496V172.5H611.626C612.906 172.5 613.886 172.745 614.566 173.235C615.256 173.725 615.601 174.39 615.601 175.23C615.601 175.74 615.476 176.195 615.226 176.595C614.986 176.995 614.646 177.31 614.206 177.54ZM608.911 174.33V176.805H611.326C611.926 176.805 612.381 176.7 612.691 176.49C613.001 176.28 613.156 175.97 613.156 175.56C613.156 175.15 613.001 174.845 612.691 174.645C612.381 174.435 611.926 174.33 611.326 174.33H608.911ZM611.746 181.17C612.386 181.17 612.866 181.065 613.186 180.855C613.516 180.645 613.681 180.32 613.681 179.88C613.681 179.01 613.036 178.575 611.746 178.575H608.911V181.17H611.746ZM622.916 183.18C622.086 183.18 621.281 183.07 620.501 182.85C619.731 182.62 619.111 182.325 618.641 181.965L619.466 180.135C619.916 180.465 620.451 180.73 621.071 180.93C621.691 181.13 622.311 181.23 622.931 181.23C623.621 181.23 624.131 181.13 624.461 180.93C624.791 180.72 624.956 180.445 624.956 180.105C624.956 179.855 624.856 179.65 624.656 179.49C624.466 179.32 624.216 179.185 623.906 179.085C623.606 178.985 623.196 178.875 622.676 178.755C621.876 178.565 621.221 178.375 620.711 178.185C620.201 177.995 619.761 177.69 619.391 177.27C619.031 176.85 618.851 176.29 618.851 175.59C618.851 174.98 619.016 174.43 619.346 173.94C619.676 173.44 620.171 173.045 620.831 172.755C621.501 172.465 622.316 172.32 623.276 172.32C623.946 172.32 624.601 172.4 625.241 172.56C625.881 172.72 626.441 172.95 626.921 173.25L626.171 175.095C625.201 174.545 624.231 174.27 623.261 174.27C622.581 174.27 622.076 174.38 621.746 174.6C621.426 174.82 621.266 175.11 621.266 175.47C621.266 175.83 621.451 176.1 621.821 176.28C622.201 176.45 622.776 176.62 623.546 176.79C624.346 176.98 625.001 177.17 625.511 177.36C626.021 177.55 626.456 177.85 626.816 178.26C627.186 178.67 627.371 179.225 627.371 179.925C627.371 180.525 627.201 181.075 626.861 181.575C626.531 182.065 626.031 182.455 625.361 182.745C624.691 183.035 623.876 183.18 622.916 183.18ZM630.532 172.5H632.962V183H630.532V172.5ZM639.128 174.48H635.768V172.5H644.918V174.48H641.558V183H639.128V174.48ZM655.856 181.05V183H647.726V172.5H655.661V174.45H650.141V176.73H655.016V178.62H650.141V181.05H655.856Z" fill="white"/>
<path opacity="0.5" d="M1291.02 168.695H1016.86V90H1291.02C1312.77 90 1330.38 107.598 1330.38 129.347C1330.38 151.097 1312.77 168.695 1291.02 168.695Z" fill="url(#paint16_linear)"/>
<path opacity="0.5" fill-rule="evenodd" clip-rule="evenodd" d="M1018.86 166.695H1291.02C1311.67 166.695 1328.38 149.992 1328.38 129.347C1328.38 108.703 1311.67 92 1291.02 92H1018.86V166.695ZM1291.02 168.695C1312.77 168.695 1330.38 151.097 1330.38 129.347C1330.38 107.598 1312.77 90 1291.02 90H1016.86V168.695H1291.02Z" fill="#FBBB60"/>
<path d="M1016.86 90C995.108 90 977.506 107.598 977.506 129.347C977.506 151.097 995.108 168.695 1016.86 168.695C1028.49 168.695 1038.78 163.714 1046.09 155.745C1062.86 139.143 1060.2 98.7992 1116.66 90H1016.86Z" fill="url(#paint17_linear)"/>
<path d="M1016.86 159.564C1033.55 159.564 1047.08 146.036 1047.08 129.348C1047.08 112.66 1033.55 99.1313 1016.86 99.1313C1000.17 99.1313 986.639 112.66 986.639 129.348C986.639 146.036 1000.17 159.564 1016.86 159.564Z" fill="url(#paint18_linear)"/>
<path d="M1120.68 134L1120.67 127.7L1117.58 132.89H1116.48L1113.41 127.835V134H1111.13V123.5H1113.14L1117.07 130.025L1120.94 123.5H1122.93L1122.96 134H1120.68ZM1131.99 130.28V134H1129.56V130.25L1125.5 123.5H1128.08L1130.88 128.165L1133.69 123.5H1136.07L1131.99 130.28ZM1147.79 134.18C1146.96 134.18 1146.15 134.07 1145.37 133.85C1144.6 133.62 1143.98 133.325 1143.51 132.965L1144.34 131.135C1144.79 131.465 1145.32 131.73 1145.94 131.93C1146.56 132.13 1147.18 132.23 1147.8 132.23C1148.49 132.23 1149 132.13 1149.33 131.93C1149.66 131.72 1149.83 131.445 1149.83 131.105C1149.83 130.855 1149.73 130.65 1149.53 130.49C1149.34 130.32 1149.09 130.185 1148.78 130.085C1148.48 129.985 1148.07 129.875 1147.55 129.755C1146.75 129.565 1146.09 129.375 1145.58 129.185C1145.07 128.995 1144.63 128.69 1144.26 128.27C1143.9 127.85 1143.72 127.29 1143.72 126.59C1143.72 125.98 1143.89 125.43 1144.22 124.94C1144.55 124.44 1145.04 124.045 1145.7 123.755C1146.37 123.465 1147.19 123.32 1148.15 123.32C1148.82 123.32 1149.47 123.4 1150.11 123.56C1150.75 123.72 1151.31 123.95 1151.79 124.25L1151.04 126.095C1150.07 125.545 1149.1 125.27 1148.13 125.27C1147.45 125.27 1146.95 125.38 1146.62 125.6C1146.3 125.82 1146.14 126.11 1146.14 126.47C1146.14 126.83 1146.32 127.1 1146.69 127.28C1147.07 127.45 1147.65 127.62 1148.42 127.79C1149.22 127.98 1149.87 128.17 1150.38 128.36C1150.89 128.55 1151.33 128.85 1151.69 129.26C1152.06 129.67 1152.24 130.225 1152.24 130.925C1152.24 131.525 1152.07 132.075 1151.73 132.575C1151.4 133.065 1150.9 133.455 1150.23 133.745C1149.56 134.035 1148.75 134.18 1147.79 134.18ZM1166.76 135.125C1166.42 135.545 1166 135.865 1165.51 136.085C1165.03 136.305 1164.5 136.415 1163.92 136.415C1163.14 136.415 1162.44 136.245 1161.81 135.905C1161.18 135.575 1160.46 134.985 1159.65 134.135C1158.7 134.015 1157.85 133.71 1157.1 133.22C1156.36 132.73 1155.78 132.1 1155.36 131.33C1154.95 130.55 1154.74 129.69 1154.74 128.75C1154.74 127.72 1154.99 126.795 1155.48 125.975C1155.98 125.145 1156.66 124.495 1157.53 124.025C1158.41 123.555 1159.4 123.32 1160.49 123.32C1161.58 123.32 1162.56 123.555 1163.43 124.025C1164.3 124.495 1164.98 125.145 1165.48 125.975C1165.98 126.795 1166.23 127.72 1166.23 128.75C1166.23 129.97 1165.89 131.04 1165.2 131.96C1164.52 132.88 1163.61 133.52 1162.48 133.88C1162.73 134.14 1162.97 134.325 1163.2 134.435C1163.44 134.555 1163.7 134.615 1163.97 134.615C1164.62 134.615 1165.19 134.355 1165.68 133.835L1166.76 135.125ZM1157.2 128.75C1157.2 129.4 1157.34 129.98 1157.62 130.49C1157.91 131 1158.31 131.4 1158.81 131.69C1159.31 131.97 1159.87 132.11 1160.49 132.11C1161.11 132.11 1161.67 131.97 1162.17 131.69C1162.67 131.4 1163.06 131 1163.34 130.49C1163.63 129.98 1163.77 129.4 1163.77 128.75C1163.77 128.1 1163.63 127.52 1163.34 127.01C1163.06 126.5 1162.67 126.105 1162.17 125.825C1161.67 125.535 1161.11 125.39 1160.49 125.39C1159.87 125.39 1159.31 125.535 1158.81 125.825C1158.31 126.105 1157.91 126.5 1157.62 127.01C1157.34 127.52 1157.2 128.1 1157.2 128.75ZM1169.56 123.5H1171.99V132.02H1177.25V134H1169.56V123.5ZM1185.86 123.5H1190.63C1191.77 123.5 1192.77 123.72 1193.64 124.16C1194.52 124.59 1195.2 125.2 1195.68 125.99C1196.17 126.78 1196.42 127.7 1196.42 128.75C1196.42 129.8 1196.17 130.72 1195.68 131.51C1195.2 132.3 1194.52 132.915 1193.64 133.355C1192.77 133.785 1191.77 134 1190.63 134H1185.86V123.5ZM1190.51 132.005C1191.56 132.005 1192.39 131.715 1193.01 131.135C1193.64 130.545 1193.96 129.75 1193.96 128.75C1193.96 127.75 1193.64 126.96 1193.01 126.38C1192.39 125.79 1191.56 125.495 1190.51 125.495H1188.29V132.005H1190.51ZM1206.52 131.75H1201.65L1200.72 134H1198.23L1202.91 123.5H1205.31L1210 134H1207.45L1206.52 131.75ZM1205.76 129.905L1204.09 125.885L1202.43 129.905H1205.76ZM1214.24 125.48H1210.88V123.5H1220.03V125.48H1216.67V134H1214.24V125.48ZM1229.22 131.75H1224.35L1223.42 134H1220.93L1225.61 123.5H1228.01L1232.7 134H1230.15L1229.22 131.75ZM1228.46 129.905L1226.79 125.885L1225.13 129.905H1228.46ZM1243 128.54C1243.6 128.73 1244.07 129.05 1244.41 129.5C1244.75 129.94 1244.92 130.485 1244.92 131.135C1244.92 132.055 1244.56 132.765 1243.84 133.265C1243.13 133.755 1242.09 134 1240.72 134H1235.29V123.5H1240.42C1241.7 123.5 1242.68 123.745 1243.36 124.235C1244.05 124.725 1244.4 125.39 1244.4 126.23C1244.4 126.74 1244.27 127.195 1244.02 127.595C1243.78 127.995 1243.44 128.31 1243 128.54ZM1237.71 125.33V127.805H1240.12C1240.72 127.805 1241.18 127.7 1241.49 127.49C1241.8 127.28 1241.95 126.97 1241.95 126.56C1241.95 126.15 1241.8 125.845 1241.49 125.645C1241.18 125.435 1240.72 125.33 1240.12 125.33H1237.71ZM1240.54 132.17C1241.18 132.17 1241.66 132.065 1241.98 131.855C1242.31 131.645 1242.48 131.32 1242.48 130.88C1242.48 130.01 1241.83 129.575 1240.54 129.575H1237.71V132.17H1240.54ZM1255.18 131.75H1250.3L1249.37 134H1246.88L1251.56 123.5H1253.96L1258.66 134H1256.11L1255.18 131.75ZM1254.41 129.905L1252.75 125.885L1251.08 129.905H1254.41ZM1264.7 134.18C1263.87 134.18 1263.06 134.07 1262.28 133.85C1261.51 133.62 1260.89 133.325 1260.42 132.965L1261.25 131.135C1261.7 131.465 1262.23 131.73 1262.85 131.93C1263.47 132.13 1264.09 132.23 1264.71 132.23C1265.4 132.23 1265.91 132.13 1266.24 131.93C1266.57 131.72 1266.74 131.445 1266.74 131.105C1266.74 130.855 1266.64 130.65 1266.44 130.49C1266.25 130.32 1266 130.185 1265.69 130.085C1265.39 129.985 1264.98 129.875 1264.46 129.755C1263.66 129.565 1263 129.375 1262.49 129.185C1261.98 128.995 1261.54 128.69 1261.17 128.27C1260.81 127.85 1260.63 127.29 1260.63 126.59C1260.63 125.98 1260.8 125.43 1261.13 124.94C1261.46 124.44 1261.95 124.045 1262.61 123.755C1263.28 123.465 1264.1 123.32 1265.06 123.32C1265.73 123.32 1266.38 123.4 1267.02 123.56C1267.66 123.72 1268.22 123.95 1268.7 124.25L1267.95 126.095C1266.98 125.545 1266.01 125.27 1265.04 125.27C1264.36 125.27 1263.86 125.38 1263.53 125.6C1263.21 125.82 1263.05 126.11 1263.05 126.47C1263.05 126.83 1263.23 127.1 1263.6 127.28C1263.98 127.45 1264.56 127.62 1265.33 127.79C1266.13 127.98 1266.78 128.17 1267.29 128.36C1267.8 128.55 1268.24 128.85 1268.6 129.26C1268.97 129.67 1269.15 130.225 1269.15 130.925C1269.15 131.525 1268.98 132.075 1268.64 132.575C1268.31 133.065 1267.81 133.455 1267.14 133.745C1266.47 134.035 1265.66 134.18 1264.7 134.18ZM1280.44 132.05V134H1272.31V123.5H1280.25V125.45H1274.73V127.73H1279.6V129.62H1274.73V132.05H1280.44Z" fill="black"/>
<path d="M1016.72 117C1010.8 117 1006.01 118.748 1006.01 120.905V124.109C1006.01 126.266 1010.8 128.013 1016.72 128.013C1022.63 128.013 1027.43 126.266 1027.43 124.109V120.905C1027.43 118.748 1022.63 117 1016.72 117Z" fill="#FF9100"/>
<path d="M1016.72 129.881C1011.07 129.881 1006.42 128.286 1006.01 126.265C1005.99 126.361 1006.01 131.556 1006.01 131.556C1006.01 133.714 1010.8 135.461 1016.72 135.461C1022.63 135.461 1027.43 133.713 1027.43 131.556C1027.43 131.556 1027.44 126.361 1027.42 126.265C1027.01 128.287 1022.36 129.881 1016.72 129.881Z" fill="#FF7C00"/>
<path d="M1027.42 133.803C1027.01 135.824 1022.36 137.419 1016.72 137.419C1011.07 137.419 1006.41 135.824 1006.01 133.803L1006.01 139.095C1006.01 141.252 1010.8 143 1016.72 143C1022.63 143 1027.43 141.252 1027.43 139.095L1027.42 133.803Z" fill="#FF7300"/>
<defs>
<linearGradient id="paint0_linear" x1="1069.33" y1="292.963" x2="1253.82" y2="477.493" gradientUnits="userSpaceOnUse">
<stop offset="0.1585" stop-color="#FFFCFB"/>
<stop offset="1" stop-color="#D7D7DC"/>
</linearGradient>
<linearGradient id="paint1_linear" x1="1009.41" y1="336.576" x2="1067.45" y2="394.632" gradientUnits="userSpaceOnUse">
<stop stop-color="#0072DA"/>
<stop offset="1" stop-color="#0045F0"/>
</linearGradient>
<linearGradient id="paint2_linear" x1="994.995" y1="363.844" x2="1037.73" y2="406.583" gradientUnits="userSpaceOnUse">
<stop offset="0.1585" stop-color="#FFFCFB"/>
<stop offset="1" stop-color="#E2E2E2"/>
</linearGradient>
<linearGradient id="paint3_linear" x1="549.855" y1="477.963" x2="734.347" y2="662.493" gradientUnits="userSpaceOnUse">
<stop offset="0.1585" stop-color="#FFFCFB"/>
<stop offset="1" stop-color="#D7D7DC"/>
</linearGradient>
<linearGradient id="paint4_linear" x1="466.023" y1="528" x2="548.017" y2="579.717" gradientUnits="userSpaceOnUse">
<stop stop-color="#12B366"/>
<stop offset="1" stop-color="#18CE77"/>
</linearGradient>
<linearGradient id="paint5_linear" x1="475.518" y1="548.844" x2="518.249" y2="591.583" gradientUnits="userSpaceOnUse">
<stop offset="0.1585" stop-color="#FFFCFB"/>
<stop offset="1" stop-color="#E2E2E2"/>
</linearGradient>
<linearGradient id="paint6_linear" x1="1068.98" y1="470.963" x2="1253.47" y2="655.492" gradientUnits="userSpaceOnUse">
<stop offset="0.1585" stop-color="#FFFCFB"/>
<stop offset="1" stop-color="#D7D7DC"/>
</linearGradient>
<linearGradient id="paint7_linear" x1="1000.01" y1="521" x2="1082" y2="572.717" gradientUnits="userSpaceOnUse">
<stop stop-color="#EEBD31"/>
<stop offset="1" stop-color="#E2AE18"/>
</linearGradient>
<linearGradient id="paint8_linear" x1="1009.5" y1="541.844" x2="1052.23" y2="584.583" gradientUnits="userSpaceOnUse">
<stop offset="0.1585" stop-color="#FFFCFB"/>
<stop offset="1" stop-color="#E2E2E2"/>
</linearGradient>
<linearGradient id="paint9_linear" x1="535.374" y1="292.992" x2="719.866" y2="477.521" gradientUnits="userSpaceOnUse">
<stop offset="0.1585" stop-color="#FFFCFB"/>
<stop offset="1" stop-color="#D7D7DC"/>
</linearGradient>
<linearGradient id="paint10_linear" x1="475.448" y1="336.604" x2="533.492" y2="394.66" gradientUnits="userSpaceOnUse">
<stop stop-color="#FF6C55"/>
<stop offset="1" stop-color="#FF6C55"/>
</linearGradient>
<linearGradient id="paint11_linear" x1="461.037" y1="363.872" x2="503.768" y2="406.612" gradientUnits="userSpaceOnUse">
<stop offset="0.1585" stop-color="#FFFCFB"/>
<stop offset="1" stop-color="#E7EFE7"/>
</linearGradient>
<linearGradient id="paint12_linear" x1="212.432" y1="212.336" x2="36.4717" y2="36.3403" gradientUnits="userSpaceOnUse">
<stop offset="0.1585" stop-color="#FFFCFB"/>
<stop offset="1" stop-color="#C6CDC6"/>
</linearGradient>
<linearGradient id="paint13_linear" x1="208.44" y1="208.178" x2="40.7962" y2="40.5003" gradientUnits="userSpaceOnUse">
<stop offset="0.204" stop-color="#4F5B72"/>
<stop offset="1" stop-color="#343A46"/>
</linearGradient>
<linearGradient id="paint14_linear" x1="701.185" y1="212.336" x2="525.225" y2="36.3403" gradientUnits="userSpaceOnUse">
<stop offset="0.1585" stop-color="#FFFCFB"/>
<stop offset="1" stop-color="#C6CDC6"/>
</linearGradient>
<linearGradient id="paint15_linear" x1="697.193" y1="208.178" x2="529.549" y2="40.5003" gradientUnits="userSpaceOnUse">
<stop offset="0.204" stop-color="#5EB7FC"/>
<stop offset="1" stop-color="#3098E9"/>
</linearGradient>
<linearGradient id="paint16_linear" x1="1069.88" y1="37.1108" x2="1254.37" y2="221.64" gradientUnits="userSpaceOnUse">
<stop offset="0.1585" stop-color="#FFFCFB"/>
<stop offset="1" stop-color="#D7D7DC"/>
</linearGradient>
<linearGradient id="paint17_linear" x1="1009.95" y1="80.6562" x2="1068" y2="138.712" gradientUnits="userSpaceOnUse">
<stop stop-color="#FF6B00"/>
<stop offset="1" stop-color="#FF9F00"/>
</linearGradient>
<linearGradient id="paint18_linear" x1="995.543" y1="107.992" x2="1038.27" y2="150.731" gradientUnits="userSpaceOnUse">
<stop offset="0.1585" stop-color="#FFFCFB"/>
<stop offset="1" stop-color="#EAEEEA"/>
</linearGradient>
<clipPath id="clip0">
<rect width="26" height="26" fill="white" transform="translate(1003 371)"/>
</clipPath>
<clipPath id="clip1">
<rect width="26" height="26" fill="white" transform="translate(483.523 558)"/>
</clipPath>
</defs>
</svg>
