<svg xmlns="http://www.w3.org/2000/svg" xmlns:xlink="http://www.w3.org/1999/xlink" width="1456" height="610" fill="none" xmlns:v="https://vecta.io/nano"><style><![CDATA[.B{fill-rule:evenodd}]]></style><path d="M1290.52 424.529h-274.16V346h274.16c21.75 0 39.35 17.598 39.35 39.347 0 21.584-17.6 39.182-39.35 39.182z" fill="url(#A)"/><path d="M1018.36 422.529h272.16c20.65 0 37.35-16.709 37.35-37.182 0-20.644-16.71-37.347-37.35-37.347h-272.16v74.529zm272.16 2c21.75 0 39.35-17.598 39.35-39.182 0-21.749-17.6-39.347-39.35-39.347h-274.16v78.529h274.16z" fill="#a8c1ec" class="B"/><path d="M1016.36 346c-21.758 0-39.36 17.598-39.36 39.347s17.602 39.348 39.36 39.348c11.62 0 21.91-4.981 29.22-12.95 16.77-16.602 14.12-56.946 70.58-65.745h-99.8z" fill="url(#B)"/><path d="M1016.36 415.398c16.69 0 30.22-13.529 30.22-30.216s-13.53-30.217-30.22-30.217c-16.696 0-30.227 13.529-30.227 30.217s13.531 30.216 30.227 30.216z" fill="url(#C)"/><path d="M1126.97 382.45v2.775h4.86v1.95h-4.86V391h-2.43v-10.5h7.94v1.95h-5.51zm18.21 8.55l-.02-6.3-3.09 5.19h-1.09l-3.08-5.055V391h-2.28v-10.5h2.01l3.93 6.525 3.87-6.525h2l.03 10.5h-2.28zm15.47.18a8.89 8.89 0 0 1-2.42-.33c-.77-.23-1.39-.525-1.86-.885l.83-1.83c.45.33.98.595 1.6.795a6.03 6.03 0 0 0 1.86.3c.69 0 1.2-.1 1.53-.3.33-.21.5-.485.5-.825 0-.25-.1-.455-.3-.615-.19-.17-.44-.305-.75-.405-.3-.1-.71-.21-1.23-.33l-1.97-.57a3.25 3.25 0 0 1-1.32-.915c-.36-.42-.54-.98-.54-1.68a2.89 2.89 0 0 1 .5-1.65c.33-.5.82-.895 1.48-1.185.67-.29 1.49-.435 2.45-.435a8.03 8.03 0 0 1 1.96.24c.64.16 1.2.39 1.68.69l-.75 1.845c-.97-.55-1.94-.825-2.91-.825-.68 0-1.18.11-1.51.33-.32.22-.48.51-.48.87s.18.63.55.81c.38.17.96.34 1.73.51l1.96.57a3.21 3.21 0 0 1 1.31.9c.37.41.55.965.55 1.665a2.87 2.87 0 0 1-.51 1.65c-.33.49-.83.88-1.5 1.17s-1.48.435-2.44.435zm15.74-2.13V391h-8.13v-10.5h7.94v1.95h-5.52v2.28h4.87v1.89h-4.87v2.43h5.71zm10.13 1.95l-2.03-2.925h-.12-2.11V391h-2.43v-10.5h4.54c.93 0 1.74.155 2.42.465.69.31 1.22.75 1.59 1.32s.55 1.245.55 2.025-.19 1.455-.57 2.025c-.37.56-.9.99-1.59 1.29l2.36 3.375h-2.61zm-.05-6.69c0-.59-.19-1.04-.57-1.35-.38-.32-.93-.48-1.66-.48h-1.98v3.66h1.98c.73 0 1.28-.16 1.66-.48s.57-.77.57-1.35zm15.98-3.81l-4.54 10.5h-2.4l-4.53-10.5h2.62l3.2 7.5 3.24-7.5h2.41zm10.51 8.55V391h-8.13v-10.5h7.93v1.95h-5.52v2.28h4.88v1.89h-4.88v2.43h5.72zm10.12 1.95l-2.02-2.925h-.12-2.12V391h-2.43v-10.5h4.55c.93 0 1.73.155 2.41.465.69.31 1.22.75 1.59 1.32s.56 1.245.56 2.025-.19 1.455-.57 2.025c-.37.56-.9.99-1.59 1.29l2.35 3.375h-2.61zm-.04-6.69c0-.59-.19-1.04-.57-1.35-.38-.32-.94-.48-1.67-.48h-1.98v3.66h1.98c.73 0 1.29-.16 1.67-.48s.57-.77.57-1.35zm15.02-3.81V391h-2.43v-8.55h-2.1v-1.95h4.53zm10.51 4.98c.52.26.91.6 1.18 1.02.28.42.42.905.42 1.455 0 .65-.18 1.22-.55 1.71-.37.48-.89.855-1.56 1.125-.67.26-1.45.39-2.33.39s-1.65-.13-2.32-.39c-.66-.27-1.18-.645-1.55-1.125a2.81 2.81 0 0 1-.54-1.71c0-.55.14-1.035.41-1.455.28-.42.67-.76 1.18-1.02-.39-.24-.69-.54-.9-.9-.21-.37-.31-.79-.31-1.26 0-.61.17-1.14.51-1.59s.81-.795 1.42-1.035c.61-.25 1.31-.375 2.1-.375.8 0 1.51.125 2.12.375.62.24 1.1.585 1.44 1.035s.51.98.51 1.59a2.51 2.51 0 0 1-.32 1.26c-.21.36-.51.66-.91.9zm-2.84-3.375c-.49 0-.88.12-1.18.36-.29.23-.44.55-.44.96 0 .4.15.715.44.945s.68.345 1.18.345.9-.115 1.2-.345.45-.545.45-.945a1.14 1.14 0 0 0-.45-.96c-.3-.24-.7-.36-1.2-.36zm0 7.29c.61 0 1.09-.135 1.44-.405.36-.28.54-.65.54-1.11s-.18-.825-.54-1.095c-.35-.27-.83-.405-1.44-.405-.6 0-1.07.135-1.42.405s-.53.635-.53 1.095c0 .47.18.84.53 1.11s.82.405 1.42.405z" fill="#000"/><g clip-path="url(#T)"><path d="M1024.94 378.363l-.29.011c-.29-.923-.84-1.756-1.58-2.397a5.22 5.22 0 0 0-3.61-1.266c-1.29-2.271-3.71-3.711-6.3-3.711-3.26 0-6.14 2.237-7 5.376-1.88.833-3.11 2.704-3.11 4.78 0 2.025 1.16 3.785 2.84 4.654v-1.912c0-1.26 1.03-2.285 2.29-2.285h15.64c1.26 0 2.29 1.025 2.29 2.285v2.314a4.02 4.02 0 0 0 2.84-3.837 4.02 4.02 0 0 0-4.01-4.012z" fill="#4c81f7"/><path d="M1023.82 383.137h-15.64a.76.76 0 0 0-.76.761v5.38h17.16v-5.38a.76.76 0 0 0-.76-.761zm-9.87 3.91h-4.04a.77.77 0 0 1-.77-.762.77.77 0 0 1 .77-.762h4.04a.76.76 0 1 1 0 1.524zm4.89-.007a.76.76 0 1 1 0-1.524.77.77 0 0 1 .77.762.77.77 0 0 1-.77.762zm3.25 0a.76.76 0 1 1 0-1.524.77.77 0 0 1 .77.762.77.77 0 0 1-.77.762z" fill="#2c6bf7"/><path d="M1007.42 396.238a.76.76 0 0 0 .76.762h15.64a.76.76 0 0 0 .76-.762v-5.436h-17.16v5.436zm14.67-3.3a.77.77 0 0 1 .77.761.77.77 0 0 1-.77.762.76.76 0 1 1 0-1.523zm-3.25 0a.77.77 0 0 1 .77.761.77.77 0 0 1-.77.762.76.76 0 1 1 0-1.523zm-8.93 0h4.04a.76.76 0 1 1 0 1.523h-4.04a.77.77 0 0 1-.77-.762.77.77 0 0 1 .77-.761z" fill="#004aee"/></g><path d="M756.645 609.529H496.879V531h259.766C778.398 531 796 548.598 796 570.347c0 21.584-17.602 39.182-39.355 39.182z" fill="url(#D)"/><path d="M498.879 607.529h257.766c20.654 0 37.355-16.709 37.355-37.182C794 549.703 777.294 533 756.645 533H498.879v74.529zm257.766 2c21.753 0 39.355-17.598 39.355-39.182C796 548.598 778.398 531 756.645 531H496.879v78.529h259.766z" fill="#92f2c4" class="B"/><path d="M452.494 562c0-20.527 17.705-37.011 38.32-37.011h271.713l1.996-1.989H490.814c-21.717 0-40.317 17.374-40.317 39h1.997z" fill="#34cc84"/><path d="M444.997 554.5c0-20.527 20.202-36.511 40.817-36.511h271.713l1.996-1.989H485.814C464.097 516 443 532.874 443 554.5h1.997z" fill="#7de8b5"/><path d="M496.879 531c-21.754 0-39.356 17.598-39.356 39.347s17.602 39.348 39.356 39.348c11.624 0 21.919-4.981 29.226-12.95 16.772-16.602 14.115-56.946 70.574-65.745h-99.8z" fill="url(#E)"/><path d="M496.879 600.398c16.691 0 30.222-13.529 30.222-30.216s-13.531-30.217-30.222-30.217-30.223 13.529-30.223 30.217 13.531 30.216 30.223 30.216z" fill="url(#F)"/><path d="M577.704 576.18c-.83 0-1.635-.11-2.415-.33-.77-.23-1.39-.525-1.86-.885l.825-1.83c.45.33.985.595 1.605.795a6.03 6.03 0 0 0 1.86.3c.69 0 1.2-.1 1.53-.3.33-.21.495-.485.495-.825 0-.25-.1-.455-.3-.615-.19-.17-.44-.305-.75-.405-.3-.1-.71-.21-1.23-.33l-1.965-.57a3.25 3.25 0 0 1-1.32-.915c-.36-.42-.54-.98-.54-1.68 0-.61.165-1.16.495-1.65.33-.5.825-.895 1.485-1.185.67-.29 1.485-.435 2.445-.435a8.07 8.07 0 0 1 1.965.24c.64.16 1.2.39 1.68.69l-.75 1.845c-.97-.55-1.94-.825-2.91-.825-.68 0-1.185.11-1.515.33-.32.22-.48.51-.48.87s.185.63.555.81c.38.17.955.34 1.725.51l1.965.57c.51.19.945.49 1.305.9.37.41.555.965.555 1.665a2.87 2.87 0 0 1-.51 1.65c-.33.49-.83.88-1.5 1.17s-1.485.435-2.445.435zm14.53-2.43h-4.875l-.93 2.25h-2.49l4.68-10.5h2.4l4.695 10.5h-2.55l-.93-2.25zm-.765-1.845l-1.665-4.02-1.665 4.02h3.33zm6.835-6.405h2.43v8.52h5.265V576h-7.695v-10.5zm18.682 8.55V576h-8.13v-10.5h7.935v1.95h-5.52v2.28h4.875v1.89h-4.875v2.43h5.715zm6.884 2.13c-.83 0-1.635-.11-2.415-.33-.77-.23-1.39-.525-1.86-.885l.825-1.83c.45.33.985.595 1.605.795a6.03 6.03 0 0 0 1.86.3c.69 0 1.2-.1 1.53-.3.33-.21.495-.485.495-.825 0-.25-.1-.455-.3-.615-.19-.17-.44-.305-.75-.405-.3-.1-.71-.21-1.23-.33l-1.965-.57a3.25 3.25 0 0 1-1.32-.915c-.36-.42-.54-.98-.54-1.68 0-.61.165-1.16.495-1.65.33-.5.825-.895 1.485-1.185.67-.29 1.485-.435 2.445-.435a8.07 8.07 0 0 1 1.965.24c.64.16 1.2.39 1.68.69l-.75 1.845c-.97-.55-1.94-.825-2.91-.825-.68 0-1.185.11-1.515.33-.32.22-.48.51-.48.87s.185.63.555.81c.38.17.955.34 1.725.51l1.965.57c.51.19.945.49 1.305.9.37.41.555.965.555 1.665a2.87 2.87 0 0 1-.51 1.65c-.33.49-.83.88-1.5 1.17s-1.485.435-2.445.435zm21.433 0l-1.26-1.17c-1 .78-2.17 1.17-3.51 1.17-.76 0-1.445-.12-2.055-.36-.61-.25-1.09-.595-1.44-1.035-.34-.44-.51-.935-.51-1.485a2.81 2.81 0 0 1 .54-1.71c.37-.5.96-.975 1.77-1.425-.38-.39-.655-.76-.825-1.11-.17-.36-.255-.73-.255-1.11 0-.51.135-.96.405-1.35s.65-.69 1.14-.9c.5-.22 1.075-.33 1.725-.33.91 0 1.64.22 2.19.66.55.43.825 1.015.825 1.755 0 .54-.165 1.02-.495 1.44-.32.42-.84.825-1.56 1.215l1.92 1.785a6.82 6.82 0 0 0 .525-1.635l1.875.585c-.2.93-.52 1.725-.96 2.385l1.23 1.14-1.275 1.485zm-4.275-9.225c-.35 0-.63.09-.84.27-.2.18-.3.41-.3.69a1.18 1.18 0 0 0 .165.6c.11.18.325.425.645.735.51-.27.865-.51 1.065-.72.2-.22.3-.455.3-.705 0-.26-.09-.47-.27-.63s-.435-.24-.765-.24zm-.33 7.395a3.32 3.32 0 0 0 1.965-.615l-2.535-2.37c-.47.27-.805.535-1.005.795s-.3.555-.3.885c0 .39.17.705.51.945s.795.36 1.365.36zm24.251 1.65l-.015-6.3-3.09 5.19h-1.095l-3.075-5.055V576h-2.28v-10.5h2.01l3.93 6.525 3.87-6.525h1.995l.03 10.5h-2.28zm13.187-2.25h-4.875l-.93 2.25h-2.49l4.68-10.5h2.4l4.695 10.5h-2.55l-.93-2.25zm-.765-1.845l-1.665-4.02-1.665 4.02h3.33zM690.895 576l-2.025-2.925h-.12-2.115V576h-2.43v-10.5h4.545c.93 0 1.735.155 2.415.465.69.31 1.22.75 1.59 1.32s.555 1.245.555 2.025-.19 1.455-.57 2.025c-.37.56-.9.99-1.59 1.29l2.355 3.375h-2.61zm-.045-6.69c0-.59-.19-1.04-.57-1.35-.38-.32-.935-.48-1.665-.48h-1.98v3.66h1.98c.73 0 1.285-.16 1.665-.48s.57-.77.57-1.35zm9.71 2.565l-1.41 1.47V576h-2.415v-10.5h2.415v4.905l4.65-4.905h2.7l-4.35 4.68 4.605 5.82h-2.835l-3.36-4.125zm16.909 2.175V576h-8.13v-10.5h7.935v1.95h-5.52v2.28h4.875v1.89h-4.875v2.43h5.715zm5.608-6.57h-3.36v-1.98h9.15v1.98h-3.36V576h-2.43v-8.52zm8.598-1.98h2.43V576h-2.43v-10.5zm16.052 0V576h-1.995l-5.235-6.375V576h-2.4v-10.5h2.01l5.22 6.375V565.5h2.4zm11.079 5.085h2.22v4.26c-.57.43-1.23.76-1.98.99s-1.505.345-2.265.345c-1.09 0-2.07-.23-2.94-.69-.87-.47-1.555-1.115-2.055-1.935-.49-.83-.735-1.765-.735-2.805s.245-1.97.735-2.79a5.15 5.15 0 0 1 2.07-1.935c.88-.47 1.87-.705 2.97-.705.92 0 1.755.155 2.505.465s1.38.76 1.89 1.35l-1.56 1.44c-.75-.79-1.655-1.185-2.715-1.185-.67 0-1.265.14-1.785.42s-.925.675-1.215 1.185-.435 1.095-.435 1.755c0 .65.145 1.23.435 1.74s.69.91 1.2 1.2c.52.28 1.11.42 1.77.42.7 0 1.33-.15 1.89-.45v-3.075z" fill="#000"/><g clip-path="url(#U)"><path d="M496.524 574.332v-9.915l-.842.083h-8.095c-.449 0-.813.364-.813.812v.813h-2.437a.81.81 0 0 0-.813.812v4.875c0 .448.364.812.813.812h2.437v.813c0 .448.364.812.813.812h.492l3.266 8.706c.2.522.647.9 1.196 1.011.109.023.218.034.325.034.434 0 .847-.172 1.142-.481l1.952-1.935c.499-.499.617-1.277.299-1.88l-2.727-5.455h2.158c.28.013.556.057.834.083z" fill="#10ac62"/><path d="M509.389 558.393c-.016-.027-.03-.05-.052-.076-.089-.114-.201-.207-.339-.26-.029-.015-.044-.007-.06-.012-.073-.021-.146-.045-.228-.045-.055 0-.104.021-.157.032l-.091.018c-.14.046-.26.124-.356.231-.007.007-.016.008-.023.015-2.533 3.076-6.066 5.133-9.935 5.887v10.384c3.869.754 7.402 2.81 9.935 5.886.007.008.018.011.026.021a.79.79 0 0 0 .202.156c.024.015.043.036.068.047.102.044.213.072.331.072.093 0 .184-.017.275-.048a.84.84 0 0 0 .352-.269.8.8 0 0 0 .052-.077c.078-.125.134-.263.134-.419v-21.124c0-.156-.056-.294-.134-.419z" fill="#17cb75"/></g><path d="M1290.16 602.529H1031.5V524h258.66c21.75 0 39.36 17.598 39.36 39.347 0 21.583-17.61 39.182-39.36 39.182z" fill="url(#G)"/><path d="M1032 600.529h260.16c20.65 0 37.36-16.709 37.36-37.182 0-20.644-16.71-37.347-37.36-37.347H1032v74.529zm260.16 2c21.75 0 39.36-17.598 39.36-39.182 0-21.749-17.61-39.347-39.36-39.347H1030v78.529h262.16z" fill="#f1d37f" class="B"/><path d="M987.497 553.5c0-20.527 16.683-35.511 37.303-35.511h271.71l2-1.989H1024.8c-21.72 0-39.3 15.874-39.3 37.5h1.997z" fill="#f0c344"/><path d="M979.997 547.5c0-20.527 19.187-36.511 39.803-36.511h271.71l2-1.989H1019.8c-21.718 0-41.8 16.874-41.8 38.5h1.997z" fill="#f1d37c"/><path d="M1030.86 524c-21.75 0-39.351 17.598-39.351 39.347s17.601 39.348 39.351 39.348c11.63 0 21.92-4.981 29.23-12.95 16.77-16.602 14.12-56.946 70.57-65.745h-99.8z" fill="url(#H)"/><path d="M1030.86 593.398c16.7 0 30.23-13.529 30.23-30.216s-13.53-30.217-30.23-30.217c-16.69 0-30.22 13.529-30.22 30.217s13.53 30.216 30.22 30.216z" fill="url(#I)"/><path d="M1118.28 560.45v2.775h4.86v1.95h-4.86V569h-2.43v-10.5h7.94v1.95h-5.51zm8.65-1.95h2.43V569h-2.43v-10.5zm6.43 0h2.43v8.52h5.26V569h-7.69v-10.5zm18.68 8.55V569h-8.13v-10.5h7.93v1.95h-5.52v2.28h4.88v1.89h-4.88v2.43h5.72zm12.99 1.95l-.02-6.3-3.09 5.19h-1.09l-3.08-5.055V569h-2.28v-10.5h2.01l3.93 6.525 3.87-6.525h2l.03 10.5h-2.28zm13.18-2.25h-4.87l-.93 2.25h-2.49l4.68-10.5h2.4l4.69 10.5h-2.55l-.93-2.25zm-.76-1.845l-1.67-4.02-1.66 4.02h3.33zm10.66-.03l-1.41 1.47V569h-2.42v-10.5h2.42v4.905l4.65-4.905h2.7l-4.35 4.68 4.6 5.82h-2.83l-3.36-4.125zm16.91 2.175V569h-8.13v-10.5h7.93v1.95h-5.52v2.28h4.88v1.89h-4.88v2.43h5.72zm10.12 1.95l-2.03-2.925h-.12-2.11V569h-2.43v-10.5h4.54c.93 0 1.74.155 2.42.465.69.31 1.22.75 1.59 1.32s.55 1.245.55 2.025-.19 1.455-.57 2.025c-.37.56-.9.99-1.59 1.29l2.36 3.375h-2.61zm-.05-6.69c0-.59-.19-1.04-.57-1.35-.38-.32-.93-.48-1.66-.48h-1.98v3.66h1.98c.73 0 1.28-.16 1.66-.48s.57-.77.57-1.35zm16.66 6.87c-1.07 0-2.04-.23-2.91-.69-.86-.47-1.54-1.115-2.04-1.935-.49-.83-.73-1.765-.73-2.805s.24-1.97.73-2.79a5.2 5.2 0 0 1 2.04-1.935c.87-.47 1.85-.705 2.93-.705.91 0 1.73.16 2.46.48a4.93 4.93 0 0 1 1.86 1.38l-1.56 1.44c-.71-.82-1.59-1.23-2.64-1.23-.65 0-1.23.145-1.74.435a3.04 3.04 0 0 0-1.2 1.185c-.28.51-.42 1.09-.42 1.74s.14 1.23.42 1.74c.29.51.69.91 1.2 1.2.51.28 1.09.42 1.74.42 1.05 0 1.93-.415 2.64-1.245l1.56 1.44c-.5.61-1.12 1.075-1.86 1.395s-1.57.48-2.48.48zm7.48-10.68h2.43v8.52h5.26V569h-7.69v-10.5zm10.55 0h2.43V569h-2.43v-10.5zm14.55 8.55V569h-8.13v-10.5h7.94v1.95h-5.52v2.28h4.87v1.89h-4.87v2.43h5.71zm13.07-8.55V569h-2l-5.23-6.375V569h-2.4v-10.5h2.01l5.22 6.375V558.5h2.4zm6.16 1.98h-3.36v-1.98h9.15v1.98h-3.36V569h-2.43v-8.52z" fill="#000"/><g class="B"><path d="M1039.88 556.607l-19.44-8.586c-.38-.089-.63.104-.77.58l-1.17 4.733.03 3.139c.87.298 1.24-2.098 1.9-1.875l5.66 2.367c.57.223.36 2.068.94 2.336l3.06 1.533c.37.178 1.16-2.173 1.29-1.474l3.49 20.64 5.59-22.172c.11-.551-.03-1.012-.45-1.161l-.13-.06z" fill="#eebd31"/><path d="M1031.71 559.816L1035.5 580l-19.87-10.893-5.11-17.4c-.13-.49.32-.808.74-.678l8.27 3.694c.93.288.6-1.573 1.31-1.371l6.08 2.121c.61.216.12 1.919.73 2.193l2.82 1.212c0-.015 1.11.245 1.24.938z" fill="#236bb3"/><path d="M1048.67 571.002L1038.59 567l-3.09 13 13.86-8.331c.42-.252-.21-.459-.69-.667z" fill="#c9d3eb"/></g><path d="M756.515 424.529h-274.16V346h274.16c21.754 0 39.356 17.598 39.356 39.347 0 21.583-17.602 39.182-39.356 39.182z" fill="url(#J)"/><path d="M484.355 422.529h272.16c20.655 0 37.356-16.709 37.356-37.182 0-20.644-16.707-37.347-37.356-37.347h-272.16v74.529zm272.16 2c21.754 0 39.356-17.599 39.356-39.182 0-21.749-17.602-39.347-39.356-39.347h-274.16v78.529h274.16z" fill="#f8bcb2" class="B"/><path d="M482.355 346C460.602 346 443 363.598 443 385.347s17.602 39.348 39.355 39.348c11.624 0 21.92-4.981 29.226-12.95 16.772-16.602 14.115-56.946 70.575-65.745h-99.801z" fill="url(#K)"/><path d="M482.355 415.398c16.691 0 30.222-13.529 30.222-30.216s-13.531-30.217-30.222-30.217-30.222 13.529-30.222 30.217 13.531 30.216 30.222 30.216z" fill="url(#L)"/><path d="M598.412 383.025v10.5h-2.43v-4.305h-4.77v4.305h-2.43v-10.5h2.43v4.14h4.77v-4.14h2.43zm8.649 10.68c-1.5 0-2.67-.415-3.51-1.245-.83-.83-1.245-2.015-1.245-3.555v-5.88h2.43v5.79c0 1.88.78 2.82 2.34 2.82.76 0 1.34-.225 1.74-.675.4-.46.6-1.175.6-2.145v-5.79h2.4v5.88c0 1.54-.42 2.725-1.26 3.555-.83.83-1.995 1.245-3.495 1.245zm16.366-5.64c.6.19 1.07.51 1.41.96.34.44.51.985.51 1.635 0 .92-.36 1.63-1.08 2.13-.71.49-1.75.735-3.12.735h-5.43v-10.5h5.13c1.28 0 2.26.245 2.94.735a2.32 2.32 0 0 1 1.035 1.995c0 .51-.125.965-.375 1.365a2.52 2.52 0 0 1-1.02.945zm-5.295-3.21v2.475h2.415c.6 0 1.055-.105 1.365-.315s.465-.52.465-.93-.155-.715-.465-.915c-.31-.21-.765-.315-1.365-.315h-2.415zm2.835 6.84c.64 0 1.12-.105 1.44-.315.33-.21.495-.535.495-.975 0-.87-.645-1.305-1.935-1.305h-2.835v2.595h2.835zm11.17 2.01c-.83 0-1.635-.11-2.415-.33-.77-.23-1.39-.525-1.86-.885l.825-1.83c.45.33.985.595 1.605.795a6.03 6.03 0 0 0 1.86.3c.69 0 1.2-.1 1.53-.3.33-.21.495-.485.495-.825 0-.25-.1-.455-.3-.615-.19-.17-.44-.305-.75-.405-.3-.1-.71-.21-1.23-.33l-1.965-.57a3.25 3.25 0 0 1-1.32-.915c-.36-.42-.54-.98-.54-1.68 0-.61.165-1.16.495-1.65.33-.5.825-.895 1.485-1.185.67-.29 1.485-.435 2.445-.435a8.07 8.07 0 0 1 1.965.24c.64.16 1.2.39 1.68.69l-.75 1.845c-.97-.55-1.94-.825-2.91-.825-.68 0-1.185.11-1.515.33-.32.22-.48.51-.48.87s.185.63.555.81c.38.17.955.34 1.725.51l1.965.57c.51.19.945.49 1.305.9.37.41.555.965.555 1.665a2.87 2.87 0 0 1-.51 1.65c-.33.49-.83.88-1.5 1.17s-1.485.435-2.445.435zm12.16-10.68c.93 0 1.735.155 2.415.465.69.31 1.22.75 1.59 1.32s.555 1.245.555 2.025c0 .77-.185 1.445-.555 2.025-.37.57-.9 1.01-1.59 1.32-.68.3-1.485.45-2.415.45h-2.115v2.895h-2.43v-10.5h4.545zm-.135 5.625c.73 0 1.285-.155 1.665-.465.38-.32.57-.77.57-1.35 0-.59-.19-1.04-.57-1.35-.38-.32-.935-.48-1.665-.48h-1.98v3.645h1.98zm13.162 5.055c-1.09 0-2.075-.235-2.955-.705-.87-.47-1.555-1.115-2.055-1.935-.49-.83-.735-1.76-.735-2.79s.245-1.955.735-2.775c.5-.83 1.185-1.48 2.055-1.95.88-.47 1.865-.705 2.955-.705s2.07.235 2.94.705 1.555 1.12 2.055 1.95c.5.82.75 1.745.75 2.775s-.25 1.96-.75 2.79c-.5.82-1.185 1.465-2.055 1.935s-1.85.705-2.94.705zm0-2.07c.62 0 1.18-.14 1.68-.42.5-.29.89-.69 1.17-1.2.29-.51.435-1.09.435-1.74s-.145-1.23-.435-1.74c-.28-.51-.67-.905-1.17-1.185-.5-.29-1.06-.435-1.68-.435s-1.18.145-1.68.435c-.5.28-.895.675-1.185 1.185-.28.51-.42 1.09-.42 1.74s.14 1.23.42 1.74c.29.51.685.91 1.185 1.2.5.28 1.06.42 1.68.42zm11.099-6.63h-3.36v-1.98h9.15v1.98h-3.36v8.52h-2.43v-8.52zm19.371 8.7c-1.07 0-2.04-.23-2.91-.69-.86-.47-1.54-1.115-2.04-1.935-.49-.83-.735-1.765-.735-2.805s.245-1.97.735-2.79a5.2 5.2 0 0 1 2.04-1.935c.87-.47 1.845-.705 2.925-.705.91 0 1.73.16 2.46.48a4.93 4.93 0 0 1 1.86 1.38l-1.56 1.44c-.71-.82-1.59-1.23-2.64-1.23-.65 0-1.23.145-1.74.435a3.04 3.04 0 0 0-1.2 1.185c-.28.51-.42 1.09-.42 1.74s.14 1.23.42 1.74c.29.51.69.91 1.2 1.2.51.28 1.09.42 1.74.42 1.05 0 1.93-.415 2.64-1.245l1.56 1.44c-.5.61-1.12 1.075-1.86 1.395s-1.565.48-2.475.48zm14.166-.18l-2.025-2.925h-.12-2.115v2.925h-2.43v-10.5h4.545c.93 0 1.735.155 2.415.465.69.31 1.22.75 1.59 1.32s.555 1.245.555 2.025-.19 1.455-.57 2.025c-.37.56-.9.99-1.59 1.29l2.355 3.375h-2.61zm-.045-6.69c0-.59-.19-1.04-.57-1.35-.38-.32-.935-.48-1.665-.48h-1.98v3.66h1.98c.73 0 1.285-.16 1.665-.48s.57-.77.57-1.35zm15.44 6.69l-.015-6.3-3.09 5.19h-1.095l-3.075-5.055v6.165h-2.28v-10.5h2.01l3.93 6.525 3.87-6.525h1.995l.03 10.5h-2.28z" fill="#000"/><path d="M491.802 381.675v-4.488a3.48 3.48 0 0 0 1.457-1.269 3.45 3.45 0 0 0 .547-1.847v-.103c0-1.909-1.556-3.457-3.476-3.457h-.104a3.49 3.49 0 0 0-2.458 1.013c-.652.648-1.018 1.527-1.018 2.444v.103a3.44 3.44 0 0 0 .548 1.847c.355.551.86.991 1.456 1.269v4.488a9.88 9.88 0 0 0-4.681 2.049l-12.381-9.588a3.89 3.89 0 0 0 .14-.97c.001-.77-.227-1.524-.656-2.165a3.92 3.92 0 0 0-1.756-1.438 3.94 3.94 0 0 0-2.263-.225 3.92 3.92 0 0 0-2.007 1.062c-.549.544-.923 1.238-1.076 1.993a3.88 3.88 0 0 0 .22 2.251 3.9 3.9 0 0 0 1.44 1.75 3.94 3.94 0 0 0 2.176.659c.678-.003 1.343-.183 1.929-.522l12.192 9.433a9.77 9.77 0 0 0-1.64 5.553 9.78 9.78 0 0 0 1.791 5.507l-3.709 3.688c-.299-.096-.612-.146-.926-.15a3.22 3.22 0 0 0-1.786.54c-.529.351-.941.851-1.184 1.435s-.307 1.227-.182 1.847.43 1.19.88 1.637 1.022.752 1.646.875a3.23 3.23 0 0 0 1.858-.181c.588-.242 1.09-.651 1.444-1.177a3.19 3.19 0 0 0 .543-1.776 3.13 3.13 0 0 0-.151-.921l3.668-3.649a9.93 9.93 0 0 0 4.067 1.846 9.95 9.95 0 0 0 4.469-.124 9.9 9.9 0 0 0 3.958-2.066 9.84 9.84 0 0 0 2.638-3.589 9.78 9.78 0 0 0 .781-4.376 9.81 9.81 0 0 0-1.238-4.272c-.735-1.311-1.762-2.437-3.002-3.293s-2.661-1.418-4.154-1.643zm-1.521 14.763c-.678.019-1.352-.098-1.984-.343s-1.208-.614-1.694-1.084a5.05 5.05 0 0 1-1.137-1.654c-.263-.621-.399-1.289-.399-1.963s.136-1.342.399-1.963a5.05 5.05 0 0 1 1.137-1.654c.486-.47 1.062-.839 1.694-1.084s1.306-.362 1.984-.343c1.314.045 2.559.596 3.473 1.537s1.424 2.196 1.425 3.503-.509 2.564-1.422 3.505a5.09 5.09 0 0 1-3.471 1.541" fill="#ff7a59"/><g fill="#ff6b00"><use xlink:href="#V" class="B"/><path d="M1158 323.849h9.13l-4.65 6.151-4.48-6.151z"/><path d="M1166.63 447c.28 0 .5.132.5.296v45.408c0 .164-.22.296-.5.296-.27 0-.5-.132-.5-.296v-45.408c0-.164.23-.296.5-.296z" class="B"/><path d="M1171.13 447.151H1162l4.65-6.151 4.48 6.151z"/><path d="M613.634 447c.276 0 .5.132.5.296v45.408c0 .164-.224.296-.5.296s-.5-.132-.5-.296v-45.408c0-.164.224-.296.5-.296z" class="B"/><path d="M618.134 447.151h-9.133l4.65-6.151 4.483 6.151z"/><path d="M613.501 271c.276 0 .5.17.5.379v58.242c0 .209-.224.379-.5.379s-.5-.17-.5-.379v-58.242c0-.209.224-.379.5-.379z" class="B"/><path d="M618.134 271.151h-9.133l4.65-6.151 4.483 6.151zM609.001 325h9.133l-4.65 6.151-4.483-6.151z"/><use xlink:href="#V" y="-93" class="B"/><path d="M1158 230.849h9.13l-4.65 6.151-4.48-6.151z"/><path d="M467.001 133.633c0 .276-.132.5-.296.5H258.664c-.163 0-.295-.224-.295-.5s.132-.5.295-.5h208.041c.164 0 .296.224.296.5z" class="B"/><path d="M466.85 138.133V129l6.151 4.65-6.151 4.483z"/><path d="M957.633 133.633c0 .276-.133.5-.296.5H749.296c-.163 0-.296-.224-.296-.5s.133-.5.296-.5h208.041c.163 0 .296.224.296.5z" class="B"/><path d="M957.482 138.133V129l6.151 4.65-6.151 4.483z"/><use xlink:href="#W" class="B"/><path d="M818.152 383v9.133l-6.151-4.65 6.151-4.483z"/><use xlink:href="#W" x="121" class="B"/><path d="M939.152 383v9.133l-6.151-4.65 6.151-4.483z"/></g><path d="M1144.61 263.096c-1.09 0-2.02-.192-2.8-.576-.78-.395-1.37-.939-1.78-1.632-.4-.704-.61-1.52-.61-2.448 0-1.227.28-2.352.84-3.376a6.12 6.12 0 0 1 2.36-2.448c1.03-.608 2.21-.912 3.56-.912 1.08 0 2.02.197 2.8.592.77.384 1.37.928 1.77 1.632.42.693.63 1.504.63 2.432a7.02 7.02 0 0 1-.85 3.392 6.36 6.36 0 0 1-2.37 2.448c-1.02.597-2.21.896-3.55.896zm.11-1.056c1.08 0 2.03-.251 2.86-.752a5.1 5.1 0 0 0 1.92-2.048c.46-.864.69-1.808.69-2.832 0-1.109-.36-1.995-1.07-2.656-.72-.661-1.73-.992-3.06-.992-1.07 0-2.03.256-2.86.768-.83.501-1.48 1.184-1.94 2.048-.44.853-.67 1.787-.67 2.8 0 1.12.36 2.011 1.07 2.672.72.661 1.74.992 3.06.992zm10.33-10.24h4.26c1.11 0 2.06.187 2.85.56.8.373 1.4.907 1.81 1.6.41.683.62 1.483.62 2.4 0 1.301-.29 2.453-.86 3.456-.58 1.003-1.4 1.787-2.45 2.352-1.05.555-2.26.832-3.65.832h-4.82l2.24-11.2zm2.61 10.176c1.16 0 2.18-.235 3.04-.704.88-.48 1.54-1.141 2-1.984.47-.843.71-1.803.71-2.88 0-1.109-.36-1.984-1.08-2.624-.71-.64-1.76-.96-3.15-.96h-3.17l-1.82 9.152h3.47zm16.56-4.752c.58.16 1.02.432 1.33.816s.47.88.47 1.488c0 1.12-.43 1.979-1.28 2.576s-2.01.896-3.51.896h-5.2l2.24-11.2h4.79c1.08 0 1.93.203 2.52.608.61.405.92.997.92 1.776 0 .757-.21 1.403-.63 1.936-.41.523-.96.891-1.65 1.104zm-4.97-4.448l-.82 4.064h3.57c.99 0 1.79-.208 2.38-.624.6-.427.9-1.035.9-1.824 0-.544-.21-.949-.64-1.216-.42-.267-1.02-.4-1.81-.4h-3.58zm2.08 9.248c1.13 0 2-.213 2.61-.64.6-.427.91-1.04.91-1.84 0-.619-.22-1.061-.66-1.328-.42-.267-1.08-.4-1.95-.4h-4l-.83 4.208h3.92zm12.03 1.072c-1.09 0-2.03-.192-2.82-.576-.79-.395-1.39-.939-1.81-1.632-.4-.704-.6-1.52-.6-2.448 0-1.237.27-2.368.83-3.392s1.36-1.835 2.4-2.432c1.03-.608 2.23-.912 3.58-.912.9 0 1.69.144 2.39.432.69.277 1.22.677 1.6 1.2l-.84.736c-.71-.875-1.79-1.312-3.24-1.312-1.1 0-2.07.256-2.92.768a5.2 5.2 0 0 0-1.95 2.032c-.46.853-.69 1.792-.69 2.816 0 1.12.36 2.011 1.08 2.672s1.75.992 3.08.992c1.47 0 2.65-.443 3.56-1.328l.68.784c-.49.512-1.11.907-1.87 1.184-.75.277-1.58.416-2.46.416zM861.288 383.968c0 1.141-.304 2.08-.912 2.816-.597.725-1.44 1.216-2.528 1.472L859.96 392h-1.28l-2.016-3.568c-.117.011-.309.016-.576.016h-3.184L852.2 392h-1.184l2.24-11.2h4.032c1.27 0 2.251.277 2.944.832.704.555 1.056 1.333 1.056 2.336zm-5.168 3.456c1.28 0 2.262-.283 2.944-.848.694-.565 1.04-1.397 1.04-2.496 0-.736-.25-1.296-.752-1.68s-1.216-.576-2.144-.576h-2.976l-1.136 5.6h3.024zm9.659-5.6l-.8 3.984h5.808l-.192 1.008h-5.808l-.832 4.16h6.736l-.208 1.024h-7.904l2.24-11.2h7.68l-.208 1.024h-6.512zm10.767 10.272a7.07 7.07 0 0 1-2.368-.4c-.747-.267-1.312-.608-1.696-1.024l.576-.928c.373.405.891.731 1.552.976a5.85 5.85 0 0 0 2.048.368c.992 0 1.787-.192 2.384-.576.608-.395.912-.939.912-1.632 0-.373-.112-.677-.336-.912s-.507-.421-.848-.56c-.341-.149-.805-.309-1.392-.48l-1.696-.576c-.427-.192-.795-.469-1.104-.832-.299-.373-.448-.853-.448-1.44 0-.693.187-1.291.56-1.792.384-.512.912-.901 1.584-1.168.683-.277 1.461-.416 2.336-.416a7.06 7.06 0 0 1 1.92.256c.608.16 1.125.395 1.552.704l-.496.96c-.405-.299-.869-.523-1.392-.672a5.6 5.6 0 0 0-1.648-.24c-.981 0-1.771.203-2.368.608s-.896.955-.896 1.648c0 .384.117.699.352.944s.523.443.864.592c.352.139.821.293 1.408.464.693.203 1.253.4 1.68.592.427.181.789.448 1.088.8.299.341.448.795.448 1.36 0 .704-.197 1.312-.592 1.824-.384.501-.923.885-1.616 1.152-.683.267-1.472.4-2.368.4zm10.632-10.272h-3.952l.208-1.024h9.072l-.224 1.024h-3.936L886.314 392h-1.168l2.032-10.176zm16.847 7.184h-6.256L895.833 392h-1.28l7.36-11.2h1.168l2.88 11.2h-1.184l-.752-2.992zm-.224-.96l-1.52-6.048-3.904 6.048h5.424zm10.268-7.248c1.259 0 2.24.277 2.944.832s1.056 1.333 1.056 2.336c0 1.429-.464 2.539-1.392 3.328-.917.779-2.186 1.168-3.808 1.168h-3.168l-.72 3.536h-1.168l2.24-11.2h4.016zm-1.184 6.624c1.28 0 2.267-.283 2.96-.848s1.04-1.397 1.04-2.496c0-.736-.25-1.296-.752-1.68s-1.221-.576-2.16-.576h-2.944l-1.136 5.6h2.992zm8.496-6.624h1.168l-2.24 11.2h-1.168l2.24-11.2zm437.269 1.024l-.88 4.4h5.8l-.2 1.024h-5.81l-.95 4.752h-1.16l2.24-11.2h7.68l-.21 1.024h-6.51zm20.79-1.024l-2.24 11.2h-1.13l1.77-8.88-5.79 7.456h-.56l-2.99-7.6-1.79 9.024h-1.14l2.24-11.2h.96l3.23 8.32 6.4-8.32h1.04zm7.67 0c1.26 0 2.24.277 2.94.832.71.555 1.06 1.333 1.06 2.336 0 1.429-.47 2.539-1.39 3.328-.92.779-2.19 1.168-3.81 1.168h-3.17l-.72 3.536h-1.17l2.24-11.2h4.02zm-1.19 6.624c1.28 0 2.27-.283 2.96-.848.7-.565 1.04-1.397 1.04-2.496 0-.736-.25-1.296-.75-1.68s-1.22-.576-2.16-.576h-2.94l-1.14 5.6h2.99zm15.87 4.672c-1.09 0-2.03-.192-2.82-.576-.79-.395-1.39-.939-1.81-1.632-.4-.704-.6-1.52-.6-2.448 0-1.237.27-2.368.83-3.392s1.36-1.835 2.4-2.432c1.03-.608 2.23-.912 3.58-.912.9 0 1.69.144 2.39.432.69.277 1.22.677 1.6 1.2l-.84.736c-.71-.875-1.79-1.312-3.24-1.312-1.1 0-2.07.256-2.92.768a5.2 5.2 0 0 0-1.95 2.032c-.46.853-.69 1.792-.69 2.816 0 1.12.36 2.011 1.08 2.672s1.75.992 3.08.992c1.47 0 2.65-.443 3.56-1.328l.68.784c-.49.512-1.11.907-1.87 1.184a7.13 7.13 0 0 1-2.46.416zm8.47-11.296h1.17l-2.03 10.176h6.27l-.21 1.024h-7.44l2.24-11.2zm12.18 11.296c-1.08 0-2.02-.192-2.8-.576-.78-.395-1.37-.939-1.77-1.632-.41-.704-.61-1.52-.61-2.448 0-1.227.28-2.352.83-3.376a6.21 6.21 0 0 1 2.37-2.448c1.02-.608 2.21-.912 3.55-.912 1.09 0 2.02.197 2.8.592a4.09 4.09 0 0 1 1.78 1.632c.41.693.62 1.504.62 2.432 0 1.227-.28 2.357-.85 3.392-.55 1.024-1.34 1.84-2.36 2.448-1.03.597-2.21.896-3.56.896zm.12-1.056c1.07 0 2.03-.251 2.86-.752a5.24 5.24 0 0 0 1.92-2.048c.46-.864.69-1.808.69-2.832 0-1.109-.36-1.995-1.07-2.656-.72-.661-1.74-.992-3.06-.992-1.08 0-2.03.256-2.86.768-.84.501-1.48 1.184-1.94 2.048-.45.853-.67 1.787-.67 2.8 0 1.12.35 2.011 1.07 2.672.71.661 1.73.992 3.06.992zm12.87 1.056c-1.28 0-2.27-.32-2.99-.96-.7-.64-1.05-1.531-1.05-2.672 0-.437.04-.853.12-1.248l1.28-6.416h1.17l-1.28 6.384c-.08.448-.13.827-.13 1.136 0 .896.26 1.573.77 2.032s1.25.688 2.21.688c1.1 0 1.97-.309 2.62-.928.66-.629 1.13-1.605 1.4-2.928l1.28-6.384h1.15l-1.28 6.464c-.65 3.221-2.41 4.832-5.27 4.832zm10.13-11.296h4.26c1.11 0 2.06.187 2.85.56.8.373 1.4.907 1.8 1.6.42.683.63 1.483.63 2.4 0 1.301-.29 2.453-.87 3.456-.57 1.003-1.39 1.787-2.44 2.352-1.05.555-2.27.832-3.65.832h-4.82l2.24-11.2zm2.61 10.176c1.16 0 2.18-.235 3.04-.704.87-.48 1.54-1.141 2-1.984.47-.843.7-1.803.7-2.88 0-1.109-.35-1.984-1.07-2.624-.71-.64-1.76-.96-3.15-.96h-3.17l-1.82 9.152h3.47z" fill="#434343"/><use xlink:href="#X" fill="url(#M)"/><use xlink:href="#X" opacity=".063" fill="#6d6d6d"/><path d="M124.539 242.866c65.467 0 118.539-53.061 118.539-118.515S190.006 5.836 124.539 5.836 6 58.897 6 124.351s53.072 118.515 118.539 118.515z" fill="url(#N)"/><path d="M114.09 159.05V161h-8.13v-10.5h7.935v1.95h-5.52v2.28h4.875v1.89h-4.875v2.43h5.715zm13.063-8.55V161h-1.995l-5.235-6.375V161h-2.4v-10.5h2.01l5.22 6.375V150.5h2.4zm3.985 0h4.77c1.14 0 2.145.22 3.015.66.88.43 1.56 1.04 2.04 1.83.49.79.735 1.71.735 2.76s-.245 1.97-.735 2.76c-.48.79-1.16 1.405-2.04 1.845-.87.43-1.875.645-3.015.645h-4.77v-10.5zm4.65 8.505c1.05 0 1.885-.29 2.505-.87.63-.59.945-1.385.945-2.385s-.315-1.79-.945-2.37c-.62-.59-1.455-.885-2.505-.885h-2.22v6.51h2.22zM74.31 179.18c-1.07 0-2.04-.23-2.91-.69-.86-.47-1.54-1.115-2.04-1.935-.49-.83-.735-1.765-.735-2.805s.245-1.97.735-2.79a5.2 5.2 0 0 1 2.04-1.935c.87-.47 1.845-.705 2.925-.705.91 0 1.73.16 2.46.48a4.93 4.93 0 0 1 1.86 1.38l-1.56 1.44c-.71-.82-1.59-1.23-2.64-1.23-.65 0-1.23.145-1.74.435a3.04 3.04 0 0 0-1.2 1.185c-.28.51-.42 1.09-.42 1.74s.14 1.23.42 1.74c.29.51.69.91 1.2 1.2.51.28 1.09.42 1.74.42 1.05 0 1.93-.415 2.64-1.245l1.56 1.44c-.5.61-1.12 1.075-1.86 1.395s-1.565.48-2.475.48zm12.053 0c-1.5 0-2.67-.415-3.51-1.245-.83-.83-1.245-2.015-1.245-3.555v-5.88h2.43v5.79c0 1.88.78 2.82 2.34 2.82.76 0 1.34-.225 1.74-.675.4-.46.6-1.175.6-2.145v-5.79h2.4v5.88c0 1.54-.42 2.725-1.26 3.555-.83.83-1.995 1.245-3.495 1.245zm12.106 0c-.83 0-1.635-.11-2.415-.33-.77-.23-1.39-.525-1.86-.885l.825-1.83c.45.33.985.595 1.605.795a6.03 6.03 0 0 0 1.86.3c.69 0 1.2-.1 1.53-.3.33-.21.495-.485.495-.825 0-.25-.1-.455-.3-.615-.19-.17-.44-.305-.75-.405-.3-.1-.71-.21-1.23-.33l-1.965-.57a3.25 3.25 0 0 1-1.32-.915c-.36-.42-.54-.98-.54-1.68 0-.61.165-1.16.495-1.65.33-.5.825-.895 1.485-1.185.67-.29 1.485-.435 2.445-.435a8.07 8.07 0 0 1 1.965.24c.64.16 1.2.39 1.68.69l-.75 1.845c-.97-.55-1.94-.825-2.91-.825-.68 0-1.185.11-1.515.33-.32.22-.48.51-.48.87s.185.63.555.81c.38.17.955.34 1.725.51l1.965.57c.51.19.945.49 1.305.9.37.41.555.965.555 1.665a2.87 2.87 0 0 1-.51 1.65c-.33.49-.83.88-1.5 1.17s-1.485.435-2.445.435zm9.644-8.7h-3.36v-1.98h9.15v1.98h-3.36V179h-2.43v-8.52zm13.536 8.7c-1.09 0-2.075-.235-2.955-.705-.87-.47-1.555-1.115-2.055-1.935-.49-.83-.735-1.76-.735-2.79s.245-1.955.735-2.775c.5-.83 1.185-1.48 2.055-1.95.88-.47 1.865-.705 2.955-.705s2.07.235 2.94.705 1.555 1.12 2.055 1.95c.5.82.75 1.745.75 2.775s-.25 1.96-.75 2.79c-.5.82-1.185 1.465-2.055 1.935s-1.85.705-2.94.705zm0-2.07c.62 0 1.18-.14 1.68-.42.5-.29.89-.69 1.17-1.2.29-.51.435-1.09.435-1.74s-.145-1.23-.435-1.74c-.28-.51-.67-.905-1.17-1.185-.5-.29-1.06-.435-1.68-.435s-1.18.145-1.68.435c-.5.28-.895.675-1.185 1.185-.28.51-.42 1.09-.42 1.74s.14 1.23.42 1.74c.29.51.685.91 1.185 1.2.5.28 1.06.42 1.68.42zm18.626 1.89l-.015-6.3-3.09 5.19h-1.095L133 172.835V179h-2.28v-10.5h2.01l3.93 6.525 3.87-6.525h1.995l.03 10.5h-2.28zm14.401-1.95V179h-8.13v-10.5h7.935v1.95h-5.52v2.28h4.875v1.89h-4.875v2.43h5.715zM164.8 179l-2.025-2.925h-.12-2.115V179h-2.43v-10.5h4.545c.93 0 1.735.155 2.415.465.69.31 1.22.75 1.59 1.32s.555 1.245.555 2.025-.19 1.455-.57 2.025c-.37.56-.9.99-1.59 1.29L167.41 179h-2.61zm-.045-6.69c0-.59-.19-1.04-.57-1.35-.38-.32-.935-.48-1.665-.48h-1.98v3.66h1.98c.73 0 1.285-.16 1.665-.48s.57-.77.57-1.35zm9.335 6.87c-.83 0-1.635-.11-2.415-.33-.77-.23-1.39-.525-1.86-.885l.825-1.83c.45.33.985.595 1.605.795a6.03 6.03 0 0 0 1.86.3c.69 0 1.2-.1 1.53-.3.33-.21.495-.485.495-.825 0-.25-.1-.455-.3-.615-.19-.17-.44-.305-.75-.405-.3-.1-.71-.21-1.23-.33l-1.965-.57a3.25 3.25 0 0 1-1.32-.915c-.36-.42-.54-.98-.54-1.68 0-.61.165-1.16.495-1.65.33-.5.825-.895 1.485-1.185.67-.29 1.485-.435 2.445-.435a8.07 8.07 0 0 1 1.965.24c.64.16 1.2.39 1.68.69l-.75 1.845c-.97-.55-1.94-.825-2.91-.825-.68 0-1.185.11-1.515.33-.32.22-.48.51-.48.87s.185.63.555.81c.38.17.955.34 1.725.51l1.965.57c.51.19.945.49 1.305.9.37.41.555.965.555 1.665a2.87 2.87 0 0 1-.51 1.65c-.33.49-.83.88-1.5 1.17s-1.485.435-2.445.435z" fill="#fff"/><path d="M145.939 75.996a1.23 1.23 0 0 1-.243-.025 1.19 1.19 0 0 1-.234-.071 1.22 1.22 0 0 1-.216-.115 1.14 1.14 0 0 1-.19-.155c-.057-.058-.11-.121-.155-.19a1.22 1.22 0 0 1-.115-.216 1.13 1.13 0 0 1-.072-.234 1.25 1.25 0 0 1-.025-.244 1.25 1.25 0 0 1 .025-.244 1.16 1.16 0 0 1 .072-.235 1.25 1.25 0 0 1 .115-.215 1.17 1.17 0 0 1 .155-.19c.057-.057.121-.11.19-.156a1.14 1.14 0 0 1 .216-.114 1.35 1.35 0 0 1 .234-.073 1.28 1.28 0 0 1 .487 0 1.2 1.2 0 0 1 .234.073 1.35 1.35 0 0 1 .216.114c.068.045.132.099.19.156s.11.121.156.19a1.23 1.23 0 0 1 .114.215c.031.075.056.155.072.235s.024.163.024.244a1.18 1.18 0 0 1-.024.244 1.13 1.13 0 0 1-.072.234 1.2 1.2 0 0 1-.114.216 1.29 1.29 0 0 1-.156.19 1.18 1.18 0 0 1-.19.155 1.28 1.28 0 0 1-.216.115c-.076.031-.154.056-.234.071s-.163.025-.244.025zm6.051 4.887a1.25 1.25 0 1 0-2.225 1.14 24.79 24.79 0 0 1-4.553 28.918c-4.696 4.695-10.938 7.281-17.579 7.281s-12.882-2.586-17.578-7.281c-9.693-9.694-9.693-25.466 0-35.16 7.951-7.952 20.294-9.578 30.015-3.955a1.25 1.25 0 1 0 1.252-2.164 27.39 27.39 0 0 0-33.035 4.351 27.18 27.18 0 0 0-8.013 19.347c0 6.891 2.53 13.393 7.15 18.445l-1.744 1.745-2.061-2.061a1.25 1.25 0 0 0-.884-.366c-.332 0-.65.131-.884.366l-9.266 9.266c-2.111 2.111-2.111 5.547 0 7.658a5.38 5.38 0 0 0 7.658 0l9.266-9.266a1.25 1.25 0 0 0 0-1.768l-2.061-2.061 1.744-1.745c5.052 4.619 11.552 7.148 18.442 7.148 7.308 0 14.178-2.846 19.346-8.014 4.176-4.176 6.843-9.462 7.712-15.286a27.23 27.23 0 0 0-2.702-16.539zm-45.133 37.381l-8.382 8.382a2.89 2.89 0 0 1-2.061.854c-.779 0-1.51-.303-2.061-.854a2.92 2.92 0 0 1 0-4.122l8.382-8.382 1.177 1.177-2.329 2.329a1.25 1.25 0 0 0 .884 2.134c.32 0 .64-.122.884-.366l2.329-2.329 1.177 1.177zm-.024-24.9a20.8 20.8 0 0 0 2.795 10.421 20.93 20.93 0 0 0 7.348 7.445 20.77 20.77 0 0 0 21.312.002 1.25 1.25 0 0 0 .609-1.073v-9.763c0-2.448-1.991-4.44-4.438-4.44h-.458c1.848-1.714 3.007-4.161 3.007-6.875a9.39 9.39 0 0 0-9.375-9.375 9.39 9.39 0 0 0-9.374 9.375 9.35 9.35 0 0 0 3.007 6.875h-.458c-2.447 0-4.438 1.992-4.438 4.44v7.39c-4.388-3.443-7.037-8.785-7.037-14.422 0-10.091 8.209-18.302 18.3-18.302s18.301 8.21 18.301 18.302a18.24 18.24 0 0 1-1.141 6.376 1.25 1.25 0 0 0 .736 1.607 1.25 1.25 0 0 0 1.607-.736c.861-2.317 1.298-4.755 1.298-7.247a20.83 20.83 0 0 0-20.801-20.802c-11.47 0-20.8 9.332-20.8 20.802zm13.926-4.282c0-3.791 3.084-6.875 6.874-6.875s6.875 3.084 6.875 6.875c0 3.77-3.051 6.842-6.813 6.875h-.124c-3.762-.033-6.812-3.105-6.812-6.875zm-1.889 11.315a1.94 1.94 0 0 1 1.938-1.94h6.753.072.073 6.753a1.94 1.94 0 0 1 1.938 1.94v9.038a18.28 18.28 0 0 1-8.764 2.231c-3.073 0-6.087-.769-8.763-2.231v-9.038h0z" fill="#d6d8dc"/><use xlink:href="#Y" fill="url(#O)"/><use xlink:href="#Y" opacity=".063" fill="#6d6d6d"/><path d="M613.292 242.866c65.467 0 118.539-53.061 118.539-118.515S678.759 5.836 613.292 5.836 494.753 58.897 494.753 124.351s53.072 118.515 118.539 118.515z" fill="url(#P)"/><path d="M645.753 135h5.024v21.751h-5.024V135zm19.978 4.785c2.067 0 3.732.622 4.993 1.865 1.282 1.243 1.923 3.086 1.923 5.531v9.57h-4.838v-8.824c0-1.326-.29-2.31-.869-2.952-.579-.663-1.416-.995-2.512-.995-1.22 0-2.192.383-2.916 1.15-.723.746-1.085 1.864-1.085 3.356v8.265h-4.838v-16.717h4.621v1.958c.641-.705 1.437-1.243 2.388-1.616.951-.394 1.995-.591 3.133-.591zM685.278 157c-1.778 0-3.38-.363-4.807-1.088-1.406-.745-2.512-1.771-3.319-3.076-.785-1.305-1.178-2.786-1.178-4.443s.393-3.139 1.178-4.444c.807-1.305 1.913-2.32 3.319-3.045 1.427-.746 3.029-1.119 4.807-1.119 1.758 0 3.288.373 4.591 1.119 1.323.725 2.284 1.771 2.884 3.138l-3.753 2.02c-.868-1.533-2.119-2.299-3.753-2.299-1.261 0-2.305.414-3.132 1.243s-1.241 1.957-1.241 3.387.414 2.558 1.241 3.387 1.871 1.243 3.132 1.243c1.654 0 2.905-.767 3.753-2.3l3.753 2.051c-.6 1.326-1.561 2.362-2.884 3.107-1.303.746-2.833 1.119-4.591 1.119z" fill="#193187"/><g fill="#fff"><path d="M548.671 157.361c-1.731 0-3.41-.227-5.038-.682-1.606-.475-2.9-1.084-3.88-1.828l1.721-3.779c.939.681 2.055 1.229 3.349 1.642s2.586.619 3.88.619c1.439 0 2.503-.206 3.192-.619.688-.434 1.033-1.002 1.033-1.704a1.55 1.55 0 0 0-.626-1.271c-.397-.351-.918-.63-1.565-.836-.626-.207-1.481-.434-2.566-.682l-4.1-1.177c-1.063-.393-1.981-1.023-2.753-1.89-.751-.868-1.127-2.024-1.127-3.47 0-1.26.344-2.396 1.033-3.408.688-1.033 1.721-1.849 3.098-2.448 1.398-.599 3.098-.899 5.101-.899 1.398 0 2.764.166 4.099.496s2.504.806 3.505 1.425l-1.565 3.811c-2.023-1.136-4.047-1.704-6.07-1.704-1.419 0-2.473.227-3.162.682-.667.454-1 1.053-1 1.797s.385 1.301 1.157 1.673c.793.351 1.993.702 3.599 1.053l4.1 1.178a6.66 6.66 0 0 1 2.722 1.859c.772.847 1.158 1.993 1.158 3.439 0 1.239-.355 2.375-1.064 3.408-.689 1.012-1.732 1.818-3.129 2.417s-3.099.898-5.102.898zm22.366-17.288c1.565 0 2.984.361 4.256 1.084 1.294.702 2.305 1.704 3.035 3.005.731 1.281 1.096 2.779 1.096 4.493s-.365 3.222-1.096 4.523c-.73 1.281-1.741 2.283-3.035 3.006-1.272.702-2.691 1.053-4.256 1.053-2.149 0-3.839-.671-5.07-2.014V163h-4.881v-22.679h4.662v1.92c1.21-1.445 2.973-2.168 5.289-2.168zm-.845 13.198c1.252 0 2.274-.413 3.067-1.239.814-.847 1.221-1.973 1.221-3.377s-.407-2.52-1.221-3.346c-.793-.847-1.815-1.271-3.067-1.271s-2.284.424-3.098 1.271c-.792.826-1.189 1.941-1.189 3.346s.397 2.53 1.189 3.377c.814.826 1.847 1.239 3.098 1.239zm28.992-4.554a55.81 55.81 0 0 1-.094 1.301h-12.737c.23 1.033.772 1.849 1.627 2.448s1.92.898 3.193.898c.876 0 1.648-.124 2.315-.372a5.8 5.8 0 0 0 1.909-1.239l2.598 2.789c-1.586 1.797-3.902 2.695-6.948 2.695-1.898 0-3.577-.361-5.038-1.084-1.46-.744-2.587-1.766-3.38-3.068s-1.188-2.778-1.188-4.43c0-1.632.385-3.098 1.157-4.4a8.18 8.18 0 0 1 3.223-3.067c1.377-.744 2.911-1.115 4.6-1.115 1.649 0 3.14.351 4.476 1.053a7.6 7.6 0 0 1 3.129 3.036c.772 1.302 1.158 2.82 1.158 4.555zm-8.731-4.988c-1.106 0-2.034.309-2.785.929s-1.21 1.467-1.377 2.541h8.292c-.167-1.054-.625-1.89-1.376-2.51-.751-.64-1.67-.96-2.754-.96zm18.314-3.656c2.607 0 4.61.619 6.008 1.859 1.398 1.218 2.096 3.067 2.096 5.546v9.511h-4.568v-2.076c-.918 1.55-2.629 2.324-5.133 2.324-1.293 0-2.419-.217-3.379-.65-.939-.434-1.659-1.033-2.16-1.797s-.751-1.632-.751-2.603c0-1.549.585-2.768 1.753-3.656 1.189-.888 3.014-1.332 5.476-1.332h3.88c0-1.054-.322-1.859-.969-2.417-.647-.578-1.618-.867-2.911-.867-.897 0-1.783.144-2.659.433-.856.269-1.586.641-2.191 1.116l-1.753-3.377c.918-.641 2.013-1.136 3.286-1.488a15.11 15.11 0 0 1 3.975-.526zm-.376 13.911c.834 0 1.575-.186 2.222-.558.647-.392 1.105-.96 1.376-1.704v-1.704h-3.348c-2.003 0-3.004.651-3.004 1.952 0 .62.24 1.116.72 1.487.5.351 1.179.527 2.034.527zm20.128-3.532l-2.348 2.293v4.244h-4.881V134h4.881v13.013l7.136-6.692h5.82l-7.01 7.064 7.636 9.604h-5.914l-5.32-6.537zm-25.456-55.691l-1.058 5.317-1.685-5.465c-.212-.689-.943-1.075-1.632-.863-.467.144-.793.525-.891.97l-1.659 5.363-1.057-5.339c-.14-.707-.826-1.167-1.534-1.028s-1.168.827-1.028 1.534l1.948 9.772a1.53 1.53 0 0 0 1.438 1.012c.667-.008 1.242-.427 1.447-1.043l.009-.027 1.712-5.533 1.706 5.536.019.056c.218.607.793 1.011 1.436 1.011.666-.008 1.24-.427 1.446-1.043.017-.052 1.945-9.721 1.945-9.721.141-.707-.318-1.395-1.026-1.536s-1.395.318-1.536 1.026zm19.034.51a1.31 1.31 0 0 0-1.026-1.536c-.707-.141-1.395.318-1.536 1.026l-1.059 5.321-1.684-5.468c-.212-.689-.943-1.076-1.632-.864-.467.144-.794.525-.891.97l-1.661 5.359-1.055-5.334c-.14-.707-.827-1.168-1.535-1.028s-1.167.827-1.027 1.534l1.948 9.773a1.53 1.53 0 0 0 1.436 1.011c.666-.007 1.24-.426 1.445-1.042l.009-.027 1.714-5.534 1.704 5.535.019.057a1.53 1.53 0 0 0 2.885-.032c.017-.052 1.946-9.721 1.946-9.721zm6.741 10.764c.66 0 1.236-.405 1.454-1.011l.018-.057 1.705-5.535 1.714 5.534c.003.008.005.017.008.026.206.617.78 1.036 1.429 1.043.659 0 1.235-.405 1.453-1.012.022-.061 1.948-9.772 1.948-9.772.14-.707-.32-1.394-1.028-1.534s-1.394.32-1.534 1.028l-1.056 5.335-1.66-5.359a1.3 1.3 0 0 0-.891-.97c-.689-.212-1.42.174-1.632.864l-1.682 5.462-1.058-5.314c-.14-.707-.828-1.166-1.535-1.026s-1.167.828-1.026 1.536l1.945 9.721c.206.617.779 1.036 1.428 1.043z"/><path d="M615.544 110.674c-.721 0-1.306.585-1.306 1.306s.585 1.306 1.306 1.306h.004c.721 0 1.304-.585 1.304-1.306a1.31 1.31 0 0 0-1.308-1.306zm38.341 7.714l-6.19-6.19 2.301-2.301a1.31 1.31 0 0 0 .302-1.376c-.177-.478-.615-.81-1.124-.85l-4.839-.378v-17.84c0-1.66-1.352-3.01-3.014-3.01h-6.379a20.03 20.03 0 0 0 .716-5.328c0-11.091-9.023-20.115-20.114-20.115s-20.114 9.023-20.114 20.115a20.12 20.12 0 0 0 .713 5.328h-6.38c-1.66 0-3.01 1.351-3.01 3.01v20.819c0 1.662 1.35 3.014 3.01 3.014H609.7c.722 0 1.306-.585 1.306-1.306s-.584-1.306-1.306-1.306h-19.937c-.216 0-.398-.184-.398-.402V89.453c0-.216.182-.399.398-.399h35.787 7.587 8.184c.218 0 .403.183.403.399v17.636l-4.3-.336c-.38-.03-.755.108-1.025.378a1.31 1.31 0 0 0-.379 1.025l.197 2.518h-14.829c-.721 0-1.306.585-1.306 1.306s.585 1.306 1.306 1.306h15.033l.518 6.621a1.31 1.31 0 0 0 .85 1.124c.478.176 1.015.058 1.375-.302l2.301-2.301 6.19 6.19a1.31 1.31 0 0 0 1.847 0l4.383-4.384c.51-.51.51-1.337 0-1.846zm-55.018-31.946a17.39 17.39 0 0 1-.777-4.022h5.48c.051 1.369.18 2.714.39 4.022h-5.093zm4.703-6.634h-5.479a17.36 17.36 0 0 1 2.216-7.297c1.239.488 2.601.903 4.05 1.243a32.47 32.47 0 0 0-.787 6.054zm-1.767-9.523a17.61 17.61 0 0 1 6.275-4.999 17.72 17.72 0 0 0-1.232 1.882c-.702 1.236-1.298 2.604-1.785 4.07-1.157-.268-2.25-.586-3.258-.953zm12.435 16.156h-7.628a30.37 30.37 0 0 1-.427-4.022h8.055v4.022zm0-6.634h-8.056a29.6 29.6 0 0 1 .75-5.54 50.9 50.9 0 0 0 7.306.655v4.885zm0-7.501c-2.247-.046-4.476-.234-6.574-.566 1.461-4.191 3.851-7.209 6.574-7.952v8.517zm2.612-8.517c2.709.739 5.086 3.728 6.549 7.882-2.079.351-4.3.559-6.549.624V63.79zm7.625 22.652h-7.625V82.42h8.055a30.38 30.38 0 0 1-.43 4.022zm-7.625-6.634v-4.896c2.502-.069 4.975-.309 7.288-.718a29.49 29.49 0 0 1 .768 5.615h-8.056 0zm7.392-12.64a17.38 17.38 0 0 0-1.232-1.882 17.62 17.62 0 0 1 6.171 4.87c-.981.377-2.049.705-3.186.983-.48-1.428-1.066-2.763-1.753-3.971zm7.976 19.274h-5.093c.211-1.312.342-2.657.393-4.022h5.479a17.39 17.39 0 0 1-.779 4.022zm-4.7-6.634a32.41 32.41 0 0 0-.809-6.157c1.434-.356 2.775-.786 3.988-1.289 1.288 2.221 2.101 4.749 2.301 7.446h-5.48zm21.06 42.038l-6.189-6.19a1.31 1.31 0 0 0-1.847 0l-1.22 1.221-.579-7.402 7.402.578-1.22 1.221c-.51.509-.51 1.336 0 1.846l6.189 6.19-2.536 2.536zM592.076 172.5l-3.435 10.5h-2.61l-2.31-7.11-2.385 7.11h-2.595l-3.45-10.5h2.52l2.37 7.38 2.475-7.38h2.25l2.4 7.44 2.445-7.44h2.325zm10.987 8.55V183h-8.13v-10.5h7.935v1.95h-5.52v2.28h4.875v1.89h-4.875v2.43h5.715zm11.143-3.51c.6.19 1.07.51 1.41.96.34.44.51.985.51 1.635 0 .92-.36 1.63-1.08 2.13-.71.49-1.75.735-3.12.735h-5.43v-10.5h5.13c1.28 0 2.26.245 2.94.735a2.32 2.32 0 0 1 1.035 1.995c0 .51-.125.965-.375 1.365a2.52 2.52 0 0 1-1.02.945zm-5.295-3.21v2.475h2.415c.6 0 1.055-.105 1.365-.315s.465-.52.465-.93-.155-.715-.465-.915c-.31-.21-.765-.315-1.365-.315h-2.415zm2.835 6.84c.64 0 1.12-.105 1.44-.315.33-.21.495-.535.495-.975 0-.87-.645-1.305-1.935-1.305h-2.835v2.595h2.835zm11.17 2.01c-.83 0-1.635-.11-2.415-.33-.77-.23-1.39-.525-1.86-.885l.825-1.83c.45.33.985.595 1.605.795a6.03 6.03 0 0 0 1.86.3c.69 0 1.2-.1 1.53-.3.33-.21.495-.485.495-.825 0-.25-.1-.455-.3-.615-.19-.17-.44-.305-.75-.405-.3-.1-.71-.21-1.23-.33l-1.965-.57a3.25 3.25 0 0 1-1.32-.915c-.36-.42-.54-.98-.54-1.68 0-.61.165-1.16.495-1.65.33-.5.825-.895 1.485-1.185.67-.29 1.485-.435 2.445-.435a8.07 8.07 0 0 1 1.965.24c.64.16 1.2.39 1.68.69l-.75 1.845c-.97-.55-1.94-.825-2.91-.825-.68 0-1.185.11-1.515.33-.32.22-.48.51-.48.87s.185.63.555.81c.38.17.955.34 1.725.51l1.965.57c.51.19.945.49 1.305.9.37.41.555.965.555 1.665a2.87 2.87 0 0 1-.51 1.65c-.33.49-.83.88-1.5 1.17s-1.485.435-2.445.435zm7.616-10.68h2.43V183h-2.43v-10.5zm8.596 1.98h-3.36v-1.98h9.15v1.98h-3.36V183h-2.43v-8.52zm16.728 6.57V183h-8.13v-10.5h7.935v1.95h-5.52v2.28h4.875v1.89h-4.875v2.43h5.715z"/></g><path opacity=".5" d="M1291.02 168.695h-274.16V90h274.16c21.75 0 39.36 17.598 39.36 39.347s-17.61 39.348-39.36 39.348z" fill="url(#Q)"/><path opacity=".5" d="M1018.86 166.695h272.16c20.65 0 37.36-16.703 37.36-37.348S1311.67 92 1291.02 92h-272.16v74.695zm272.16 2c21.75 0 39.36-17.598 39.36-39.348S1312.77 90 1291.02 90h-274.16v78.695h274.16z" fill="#fbbb60" class="B"/><path d="M1016.86 90c-21.752 0-39.354 17.598-39.354 39.347s17.602 39.348 39.354 39.348c11.63 0 21.92-4.981 29.23-12.95 16.77-16.602 14.11-56.946 70.57-65.745h-99.8z" fill="url(#R)"/><path d="M1016.86 159.564c16.69 0 30.22-13.528 30.22-30.216s-13.53-30.217-30.22-30.217-30.221 13.529-30.221 30.217 13.531 30.216 30.221 30.216z" fill="url(#S)"/><path d="M1120.68 134l-.01-6.3-3.09 5.19h-1.1l-3.07-5.055V134h-2.28v-10.5h2.01l3.93 6.525 3.87-6.525h1.99l.03 10.5h-2.28zm11.31-3.72V134h-2.43v-3.75l-4.06-6.75h2.58l2.8 4.665 2.81-4.665h2.38l-4.08 6.78zm15.8 3.9a8.89 8.89 0 0 1-2.42-.33c-.77-.23-1.39-.525-1.86-.885l.83-1.83c.45.33.98.595 1.6.795a6.03 6.03 0 0 0 1.86.3c.69 0 1.2-.1 1.53-.3.33-.21.5-.485.5-.825 0-.25-.1-.455-.3-.615-.19-.17-.44-.305-.75-.405-.3-.1-.71-.21-1.23-.33l-1.97-.57a3.25 3.25 0 0 1-1.32-.915c-.36-.42-.54-.98-.54-1.68a2.89 2.89 0 0 1 .5-1.65c.33-.5.82-.895 1.48-1.185.67-.29 1.49-.435 2.45-.435a8.03 8.03 0 0 1 1.96.24c.64.16 1.2.39 1.68.69l-.75 1.845c-.97-.55-1.94-.825-2.91-.825-.68 0-1.18.11-1.51.33-.32.22-.48.51-.48.87s.18.63.55.81c.38.17.96.34 1.73.51l1.96.57a3.21 3.21 0 0 1 1.31.9c.37.41.55.965.55 1.665a2.87 2.87 0 0 1-.51 1.65c-.33.49-.83.88-1.5 1.17s-1.48.435-2.44.435zm18.97.945a3.36 3.36 0 0 1-1.25.96 3.77 3.77 0 0 1-1.59.33c-.78 0-1.48-.17-2.11-.51-.63-.33-1.35-.92-2.16-1.77a5.96 5.96 0 0 1-2.55-.915c-.74-.49-1.32-1.12-1.74-1.89-.41-.78-.62-1.64-.62-2.58 0-1.03.25-1.955.74-2.775a5.27 5.27 0 0 1 2.05-1.95c.88-.47 1.87-.705 2.96-.705s2.07.235 2.94.705a5.27 5.27 0 0 1 2.05 1.95c.5.82.75 1.745.75 2.775 0 1.22-.34 2.29-1.03 3.21-.68.92-1.59 1.56-2.72 1.92.25.26.49.445.72.555a1.71 1.71 0 0 0 .77.18c.65 0 1.22-.26 1.71-.78l1.08 1.29zm-9.56-6.375c0 .65.14 1.23.42 1.74a3.19 3.19 0 0 0 1.19 1.2c.5.28 1.06.42 1.68.42s1.18-.14 1.68-.42c.5-.29.89-.69 1.17-1.2.29-.51.43-1.09.43-1.74s-.14-1.23-.43-1.74c-.28-.51-.67-.905-1.17-1.185-.5-.29-1.06-.435-1.68-.435s-1.18.145-1.68.435a3.08 3.08 0 0 0-1.19 1.185c-.28.51-.42 1.09-.42 1.74zm12.36-5.25h2.43v8.52h5.26V134h-7.69v-10.5zm16.3 0h4.77c1.14 0 2.14.22 3.01.66.88.43 1.56 1.04 2.04 1.83.49.79.74 1.71.74 2.76s-.25 1.97-.74 2.76c-.48.79-1.16 1.405-2.04 1.845-.87.43-1.87.645-3.01.645h-4.77v-10.5zm4.65 8.505c1.05 0 1.88-.29 2.5-.87.63-.59.95-1.385.95-2.385s-.32-1.79-.95-2.37c-.62-.59-1.45-.885-2.5-.885h-2.22v6.51h2.22zm16.01-.255h-4.87l-.93 2.25h-2.49l4.68-10.5h2.4L1210 134h-2.55l-.93-2.25zm-.76-1.845l-1.67-4.02-1.66 4.02h3.33zm8.48-4.425h-3.36v-1.98h9.15v1.98h-3.36V134h-2.43v-8.52zm14.98 6.27h-4.87l-.93 2.25h-2.49l4.68-10.5h2.4l4.69 10.5h-2.55l-.93-2.25zm-.76-1.845l-1.67-4.02-1.66 4.02h3.33zm14.54-1.365c.6.19 1.07.51 1.41.96.34.44.51.985.51 1.635 0 .92-.36 1.63-1.08 2.13-.71.49-1.75.735-3.12.735h-5.43v-10.5h5.13c1.28 0 2.26.245 2.94.735.69.49 1.04 1.155 1.04 1.995 0 .51-.13.965-.38 1.365a2.52 2.52 0 0 1-1.02.945zm-5.29-3.21v2.475h2.41c.6 0 1.06-.105 1.37-.315s.46-.52.46-.93-.15-.715-.46-.915c-.31-.21-.77-.315-1.37-.315h-2.41zm2.83 6.84c.64 0 1.12-.105 1.44-.315.33-.21.5-.535.5-.975 0-.87-.65-1.305-1.94-1.305h-2.83v2.595h2.83zm14.64-.42h-4.88l-.93 2.25h-2.49l4.68-10.5h2.4l4.7 10.5h-2.55l-.93-2.25zm-.77-1.845l-1.66-4.02-1.67 4.02h3.33zm10.29 4.275a8.89 8.89 0 0 1-2.42-.33c-.77-.23-1.39-.525-1.86-.885l.83-1.83c.45.33.98.595 1.6.795a6.03 6.03 0 0 0 1.86.3c.69 0 1.2-.1 1.53-.3.33-.21.5-.485.5-.825 0-.25-.1-.455-.3-.615-.19-.17-.44-.305-.75-.405-.3-.1-.71-.21-1.23-.33l-1.97-.57a3.25 3.25 0 0 1-1.32-.915c-.36-.42-.54-.98-.54-1.68a2.89 2.89 0 0 1 .5-1.65c.33-.5.82-.895 1.48-1.185.67-.29 1.49-.435 2.45-.435a8.03 8.03 0 0 1 1.96.24c.64.16 1.2.39 1.68.69l-.75 1.845c-.97-.55-1.94-.825-2.91-.825-.68 0-1.18.11-1.51.33-.32.22-.48.51-.48.87s.18.63.55.81c.38.17.96.34 1.73.51l1.96.57a3.21 3.21 0 0 1 1.31.9c.37.41.55.965.55 1.665a2.87 2.87 0 0 1-.51 1.65c-.33.49-.83.88-1.5 1.17s-1.48.435-2.44.435zm15.74-2.13V134h-8.13v-10.5h7.94v1.95h-5.52v2.28h4.87v1.89h-4.87v2.43h5.71z" fill="#000"/><path d="M1016.72 117c-5.92 0-10.71 1.748-10.71 3.905v3.204c0 2.157 4.79 3.904 10.71 3.904 5.91 0 10.71-1.747 10.71-3.904v-3.204c0-2.157-4.8-3.905-10.71-3.905z" fill="#ff9100"/><path d="M1016.72 129.881c-5.65 0-10.3-1.595-10.71-3.616-.02.096 0 5.291 0 5.291 0 2.158 4.79 3.905 10.71 3.905 5.91 0 10.71-1.748 10.71-3.905l-.01-5.291c-.41 2.022-5.06 3.616-10.7 3.616z" fill="#ff7c00"/><path d="M1027.42 133.803c-.41 2.021-5.06 3.616-10.7 3.616-5.65 0-10.31-1.595-10.71-3.616v5.292c0 2.157 4.79 3.905 10.71 3.905 5.91 0 10.71-1.748 10.71-3.905l-.01-5.292z" fill="#ff7300"/><defs><linearGradient id="A" x1="1069.33" y1="292.963" x2="1253.82" y2="477.493" xlink:href="#Z"><stop offset=".159" stop-color="#fffcfb"/><stop offset="1" stop-color="#d7d7dc"/></linearGradient><linearGradient id="B" x1="1009.41" y1="336.576" x2="1067.45" y2="394.632" xlink:href="#Z"><stop stop-color="#0072da"/><stop offset="1" stop-color="#0045f0"/></linearGradient><linearGradient id="C" x1="994.995" y1="363.844" x2="1037.73" y2="406.583" xlink:href="#Z"><stop offset=".159" stop-color="#fffcfb"/><stop offset="1" stop-color="#e2e2e2"/></linearGradient><linearGradient id="D" x1="549.855" y1="477.963" x2="734.347" y2="662.493" xlink:href="#Z"><stop offset=".159" stop-color="#fffcfb"/><stop offset="1" stop-color="#d7d7dc"/></linearGradient><linearGradient id="E" x1="466.023" y1="528" x2="548.017" y2="579.717" xlink:href="#Z"><stop stop-color="#12b366"/><stop offset="1" stop-color="#18ce77"/></linearGradient><linearGradient id="F" x1="475.518" y1="548.844" x2="518.249" y2="591.583" xlink:href="#Z"><stop offset=".159" stop-color="#fffcfb"/><stop offset="1" stop-color="#e2e2e2"/></linearGradient><linearGradient id="G" x1="1068.98" y1="470.963" x2="1253.47" y2="655.492" xlink:href="#Z"><stop offset=".159" stop-color="#fffcfb"/><stop offset="1" stop-color="#d7d7dc"/></linearGradient><linearGradient id="H" x1="1000.01" y1="521" x2="1082" y2="572.717" xlink:href="#Z"><stop stop-color="#eebd31"/><stop offset="1" stop-color="#e2ae18"/></linearGradient><linearGradient id="I" x1="1009.5" y1="541.844" x2="1052.23" y2="584.583" xlink:href="#Z"><stop offset=".159" stop-color="#fffcfb"/><stop offset="1" stop-color="#e2e2e2"/></linearGradient><linearGradient id="J" x1="535.374" y1="292.992" x2="719.866" y2="477.521" xlink:href="#Z"><stop offset=".159" stop-color="#fffcfb"/><stop offset="1" stop-color="#d7d7dc"/></linearGradient><linearGradient id="K" x1="475.448" y1="336.604" x2="533.492" y2="394.66" xlink:href="#Z"><stop stop-color="#ff6c55"/></linearGradient><linearGradient id="L" x1="461.037" y1="363.872" x2="503.768" y2="406.612" xlink:href="#Z"><stop offset=".159" stop-color="#fffcfb"/><stop offset="1" stop-color="#e7efe7"/></linearGradient><linearGradient id="M" x1="212.432" y1="212.336" x2="36.472" y2="36.34" xlink:href="#Z"><stop offset=".159" stop-color="#fffcfb"/><stop offset="1" stop-color="#c6cdc6"/></linearGradient><linearGradient id="N" x1="208.44" y1="208.178" x2="40.796" y2="40.5" xlink:href="#Z"><stop offset=".204" stop-color="#4f5b72"/><stop offset="1" stop-color="#343a46"/></linearGradient><linearGradient id="O" x1="701.185" y1="212.336" x2="525.225" y2="36.34" xlink:href="#Z"><stop offset=".159" stop-color="#fffcfb"/><stop offset="1" stop-color="#c6cdc6"/></linearGradient><linearGradient id="P" x1="697.193" y1="208.178" x2="529.549" y2="40.5" xlink:href="#Z"><stop offset=".204" stop-color="#5eb7fc"/><stop offset="1" stop-color="#3098e9"/></linearGradient><linearGradient id="Q" x1="1069.88" y1="37.111" x2="1254.37" y2="221.64" xlink:href="#Z"><stop offset=".159" stop-color="#fffcfb"/><stop offset="1" stop-color="#d7d7dc"/></linearGradient><linearGradient id="R" x1="1009.95" y1="80.656" x2="1068" y2="138.712" xlink:href="#Z"><stop stop-color="#ff6b00"/><stop offset="1" stop-color="#ff9f00"/></linearGradient><linearGradient id="S" x1="995.543" y1="107.992" x2="1038.27" y2="150.731" xlink:href="#Z"><stop offset=".159" stop-color="#fffcfb"/><stop offset="1" stop-color="#eaeeea"/></linearGradient><clipPath id="T"><path fill="#fff" transform="translate(1003 371)" d="M0 0h26v26H0z"/></clipPath><clipPath id="U"><path fill="#fff" transform="translate(483.523 558)" d="M0 0h26v26H0z"/></clipPath><path id="V" d="M1162.5 324c-.28 0-.5-.132-.5-.296v-45.408c0-.164.22-.296.5-.296s.5.132.5.296v45.408c0 .164-.22.296-.5.296z"/><path id="W" d="M816.001 387.5c0-.276.069-.5.154-.5h23.692c.085 0 .154.224.154.5s-.069.5-.154.5h-23.692c-.085 0-.154-.224-.154-.5z"/><path id="X" d="M124.376 248.703c68.692 0 124.377-55.674 124.377-124.352S193.068 0 124.376 0 0 55.674 0 124.351s55.685 124.352 124.376 124.352z"/><path id="Y" d="M613.129 248.703c68.692 0 124.377-55.674 124.377-124.352S681.821 0 613.129 0 488.753 55.674 488.753 124.351s55.685 124.352 124.376 124.352z"/><linearGradient id="Z" gradientUnits="userSpaceOnUse"/></defs></svg>