<svg xmlns="http://www.w3.org/2000/svg" width="586" height="564" fill="none" xmlns:v="https://vecta.io/nano"><g clip-path="url(#B)"><path d="M512.978 344.043l-78.633 7.071 7.256-87.115 63.646-5.724c33.699-3.03 57.563-31.491 54.536-65.052s-31.586-57.309-65.277-54.279l-44.932 4.041 7.927-79.658C462.294 32.822 437.14 5.009 402.769.582c-30.618-4.765-58.558 20.303-63.019 54.539l-9.988 98.639-116.076 10.438 7.927-79.658c4.802-30.506-20.343-58.318-54.714-62.746-30.628-4.765-58.567 20.303-63.028 54.538l-9.997 98.64-101.081 9.091c-33.7 3.031-57.554 31.491-54.536 65.053 3.028 33.562 39.074 56.635 72.774 53.604l78.623-7.071-7.247 87.114-63.655 5.722c-33.7 3.036-57.555 31.496-54.527 65.06 3.019 33.555 31.586 57.304 65.276 54.277l44.924-4.048-7.91 79.666c-4.801 30.501 20.343 58.316 54.715 62.74 23.129 5.436 58.889-16.576 63.028-54.537l9.979-98.642 116.076-10.432-7.918 79.656c-4.811 30.501 20.343 58.316 54.714 62.74 23.139 5.445 58.898-16.567 63.019-54.537l9.997-98.632 101.09-9.099c33.699-3.027 57.545-31.486 54.526-65.051-14.252-32.55-42.809-56.296-72.764-53.604zm-198.445 17.846l-116.058 10.439 7.247-87.116 116.067-10.438-7.256 87.115z" fill="url(#A)" fill-opacity=".5"/><path d="M432.978 351.489l-.18 2.125 2.128-.192 78.826-7.077c28.862-2.591 56.852 20.241 71.023 52.315 2.774 32.474-20.367 59.947-53.063 62.878l-101.338 9.097-1.482.135-.144 1.47-10.012 98.722h-.009c-2.012 18.464-11.71 33.048-23.752 42.36-12.096 9.349-26.312 13.239-37.222 10.676l-.09-.027-.09-.009c-33.728-4.338-57.929-31.47-53.314-60.745l.009-.053.009-.045 7.939-79.738.215-2.151-2.164.197-116.353 10.443-1.482.134-.152 1.47-10.004 98.713c-2.012 18.473-11.728 33.057-23.761 42.37-12.087 9.348-26.302 13.229-37.222 10.675l-.09-.027-.098-.009c-33.729-4.338-57.921-31.47-53.305-60.744l.009-.054.009-.054 7.929-79.729.216-2.151-2.155.188-45.034 4.043C-4.031 509.644-31.788 486.599-34.724 454s20.241-60.225 53.035-63.165l63.812-5.736 1.499-.135.126-1.497 7.265-87.196.18-2.125-2.128.191-78.817 7.077c-16.442 1.477-33.504-3.411-46.812-12.771-13.299-9.355-22.728-23.088-24.183-39.257-2.945-32.6 20.241-60.22 53.036-63.165l101.33-9.1 1.491-.133.144-1.472 10.004-98.702c4.391-33.521 31.681-57.597 61.127-53.023l.026.004.018.003c33.738 4.339 57.921 31.468 53.314 60.747l-.009.05-.009.05-7.947 79.729-.207 2.158 2.156-.195 116.362-10.447 1.472-.133.153-1.472 10.013-98.703c4.382-33.521 31.672-57.597 61.108-53.023l.027.004.027.003c33.729 4.339 57.93 31.467 53.314 60.747l-.018.05v.051l-7.938 79.73-.216 2.157 2.164-.195 45.044-4.044c32.794-2.945 60.542 20.102 63.479 52.702 2.945 32.601-20.241 60.221-53.036 63.166l-63.802 5.729-1.5.135-.126 1.502-7.273 87.195zM314.82 364.207l1.508-.135.126-1.502 7.274-87.194.171-2.125-2.129.191-116.353 10.447-1.499.136-.126 1.501-7.274 87.194-.179 2.125 2.137-.19 116.344-10.448z" stroke="#ebecee" stroke-opacity=".3" stroke-width="4"/></g><defs><linearGradient id="A" x1="234.163" y1="14.297" x2="289.768" y2="632.658" gradientUnits="userSpaceOnUse"><stop stop-color="#f8f8f8"/><stop offset="1" stop-color="#e9e7e7"/></linearGradient><clipPath id="B"><path fill="#fff" d="M0 0h586v564H0z"/></clipPath></defs></svg>