<svg xmlns="http://www.w3.org/2000/svg" width="64" height="64" fill="none" xmlns:v="https://vecta.io/nano"><g clip-path="url(#A)"><g fill="#7f8284"><path d="M60.187 28.624L50.158 17.609c-1.922-1.928-5.261-1.941-7.218.016-.632.632-1.064 1.392-1.288 2.203-1.947-1.493-4.917-1.331-6.712.464-.632.632-1.064 1.392-1.293 2.2-1.941-1.493-4.914-1.322-6.706.467-.621.621-1.048 1.365-1.28 2.152l-4.725-4.725c-1.986-1.984-5.213-1.989-7.221.016a5.1 5.1 0 0 0 0 7.202l18.154 18.154-10.762 1.691C18.194 47.863 16 50.391 16 53.332c0 2.205 1.794 4 4 4h25.143a14.59 14.59 0 0 0 10.376-4.298l4.192-4.194c2.768-2.765 4.291-6.445 4.291-10.357 0-3.653-1.355-7.154-3.813-9.858zm-2.365 18.333l-4.192 4.194c-2.269 2.267-5.285 3.514-8.488 3.514H20c-.733 0-1.333-.597-1.333-1.333 0-1.621 1.211-3.016 2.832-3.25l13.373-2.101c.496-.077.904-.427 1.061-.904s.029-1-.325-1.355L15.6 25.715c-.944-.947-.944-2.485.016-3.448a2.43 2.43 0 0 1 1.717-.709 2.42 2.42 0 0 1 1.717.712l7.829 7.829c.019.021.043.043.064.064l5.45 5.448c.52.52 1.365.52 1.885 0s.52-1.365 0-1.885l-5.496-5.496c-.899-.949-.883-2.456.061-3.402a2.49 2.49 0 0 1 3.429 0l2.621 2.624c.016.016.029.032.045.045l2.784 2.781c.52.52 1.365.52 1.885 0s.52-1.365 0-1.885l-2.816-2.813c-.909-.949-.899-2.466.051-3.419a2.49 2.49 0 0 1 3.429 0l2.784 2.794.008.008.011.005.011.008c.531.491 1.352.477 1.858-.035.517-.52.517-1.363-.003-1.883l-.16-.16a2.44 2.44 0 0 1 .059-3.405c.917-.912 2.555-.872 3.386-.045l9.984 10.973c2.013 2.213 3.12 5.075 3.12 8.064 0 3.197-1.248 6.208-3.509 8.472z"/><path d="M43.074 24.968h.003z"/></g><g fill="#ff6b00"><path d="M28.257 19.078c-1.944-4.298-6.229-7.077-10.925-7.077-6.616 0-11.999 5.384-11.999 12 0 4.693 2.779 8.981 7.074 10.925a1.34 1.34 0 0 0 .549.117c.509 0 .992-.293 1.216-.784.301-.672.005-1.461-.667-1.765C10.162 30.981 8 27.648 8 24c0-5.146 4.186-9.333 9.333-9.333 3.648 0 6.981 2.162 8.493 5.506a1.33 1.33 0 0 0 1.765.667c.669-.301.968-1.093.666-1.763zm5.808.467A17.34 17.34 0 0 0 17.333 6.668C7.776 6.668 0 14.443 0 24a17.34 17.34 0 0 0 12.88 16.733c.115.032.229.045.341.045a1.33 1.33 0 0 0 1.288-.989 1.33 1.33 0 0 0-.947-1.632A14.67 14.67 0 0 1 2.667 24c0-8.088 6.581-14.666 14.666-14.666A14.67 14.67 0 0 1 31.49 20.23c.187.709.893 1.136 1.632.947.709-.189 1.131-.92.944-1.632z"/></g></g><defs><clipPath id="A"><path fill="#fff" d="M0 0h64v64H0z"/></clipPath></defs></svg>