<svg xmlns="http://www.w3.org/2000/svg" width="66" height="64" fill="none" xmlns:v="https://vecta.io/nano"><g fill="#ff6b00"><path d="M35.555 56.76a7.25 7.25 0 0 0 7.24 7.24H58.31a7.25 7.25 0 0 0 7.24-7.24V41.244a7.25 7.25 0 0 0-7.24-7.24H42.795a7.25 7.25 0 0 0-7.24 7.24V56.76zm27.927 0a5.18 5.18 0 0 1-5.172 5.172H42.795a5.18 5.18 0 0 1-5.172-5.172V44.347h25.859V56.76zM37.623 41.244c.002-1.371.547-2.686 1.517-3.655s2.284-1.515 3.655-1.517H58.31c1.371.002 2.686.547 3.655 1.517a5.18 5.18 0 0 1 1.517 3.655v1.034H37.623v-1.034zM0 22.756a7.25 7.25 0 0 0 7.24 7.24h15.515a7.25 7.25 0 0 0 7.24-7.24V7.24A7.25 7.25 0 0 0 22.756 0H7.24A7.25 7.25 0 0 0 0 7.24v15.515zm27.927 0a5.18 5.18 0 0 1-5.172 5.172H7.24a5.18 5.18 0 0 1-5.172-5.172V10.344h25.859v12.412zM2.069 7.24A5.18 5.18 0 0 1 7.24 2.069h15.515a5.18 5.18 0 0 1 5.172 5.172v1.034H2.069V7.24z"/><path d="M42.496 38.442a1.03 1.03 0 0 0-.53-.281 1.04 1.04 0 0 0-.596.06 1.03 1.03 0 0 0-.463.381c-.113.17-.174.369-.174.574a1.03 1.03 0 0 0 .637.955 1.03 1.03 0 0 0 .596.06 1.04 1.04 0 0 0 .53-.281 1.08 1.08 0 0 0 .217-.341 1.07 1.07 0 0 0 .083-.393.97.97 0 0 0-.083-.393.95.95 0 0 0-.217-.341zM6.94 4.437a1.04 1.04 0 0 0-.53-.281 1.03 1.03 0 0 0-1.059.441 1.04 1.04 0 0 0-.174.574 1.03 1.03 0 0 0 .174.574 1.04 1.04 0 0 0 .463.381c.189.079.396.1.596.06a1.04 1.04 0 0 0 .53-.281 1.08 1.08 0 0 0 .217-.341 1.07 1.07 0 0 0 .083-.393.97.97 0 0 0-.083-.393c-.047-.128-.122-.244-.217-.341zm38.753 33.725c-.065.011-.128.032-.186.062a.81.81 0 0 0-.187.093 1.77 1.77 0 0 0-.154.124 1.05 1.05 0 0 0 0 1.469l.154.124a.81.81 0 0 0 .187.093.66.66 0 0 0 .186.062 1.56 1.56 0 0 0 .207.021 1.04 1.04 0 0 0 .578-.172 1.03 1.03 0 0 0 .383-.465c.078-.189.099-.399.059-.6s-.14-.386-.286-.531c-.123-.118-.273-.205-.437-.254s-.337-.057-.504-.026zM10.137 4.158a.66.66 0 0 0-.186.062.81.81 0 0 0-.187.093 1.67 1.67 0 0 0-.154.124 1.05 1.05 0 0 0 0 1.469l.154.124a.81.81 0 0 0 .187.093.66.66 0 0 0 .186.062 1.54 1.54 0 0 0 .207.021 1.04 1.04 0 0 0 .962-.637c.079-.189.099-.399.059-.6s-.14-.386-.286-.531c-.123-.118-.273-.205-.437-.254s-.337-.057-.504-.026zm39.506 34.066a1.07 1.07 0 0 0-.341.217 1.05 1.05 0 0 0 0 1.469 1.08 1.08 0 0 0 .341.217 1.11 1.11 0 0 0 .393.083 1.04 1.04 0 0 0 .578-.172 1.03 1.03 0 0 0 .383-.465c.078-.189.099-.399.059-.6s-.14-.386-.286-.531a1.02 1.02 0 0 0-.531-.279c-.201-.038-.408-.017-.597.062zM14.089 4.22a1.07 1.07 0 0 0-.341.217 1.05 1.05 0 0 0 0 1.469c.099.094.215.167.341.217a1.11 1.11 0 0 0 .393.083 1.04 1.04 0 0 0 .578-.172 1.03 1.03 0 0 0 .383-.465c.078-.189.099-.399.059-.6s-.14-.386-.286-.531a1.02 1.02 0 0 0-.531-.279c-.201-.038-.408-.017-.597.062z"/></g><path d="M51.45 27.664l3.758 3.238 3.237-3.758-.22-2.965-2.397 2.775c-.913-4.43-3.324-8.411-6.828-11.271s-7.887-4.426-12.411-4.433v2.069a17.61 17.61 0 0 1 17.097 13.494l-2.457-2.116.22 2.968zM17.592 38.276l-3.758-3.237-3.237 3.758.22 2.965 2.397-2.775c.913 4.43 3.324 8.411 6.828 11.271s7.887 4.426 12.41 4.433v-2.069a17.61 17.61 0 0 1-17.097-13.494l2.457 2.116-.22-2.969z" fill="#7f8284"/></svg>