<svg xmlns="http://www.w3.org/2000/svg" xmlns:xlink="http://www.w3.org/1999/xlink" width="64" height="64" fill="none" xmlns:v="https://vecta.io/nano"><path d="M56.734 60.182H7.266C3.26 60.182 0 56.923 0 52.917V10.976C0 6.97 3.26 3.71 7.266 3.71h49.469C60.74 3.71 64 6.97 64 10.976v41.941c0 4.006-3.26 7.266-7.266 7.266zM7.266 5.874a5.11 5.11 0 0 0-5.101 5.101v41.941a5.11 5.11 0 0 0 5.101 5.102h49.469a5.11 5.11 0 0 0 5.101-5.102V10.976a5.11 5.11 0 0 0-5.101-5.101H7.266z" fill="#7f8284"/><g fill="#ff6b00"><use xlink:href="#B"/><use xlink:href="#B" y="7.824"/><use xlink:href="#B" y="-15.647"/><use xlink:href="#B" y="-7.823"/></g><path d="M62.918 18.2H1.082a1.082 1.082 0 0 1 0-2.164h61.836a1.082 1.082 0 1 1 0 2.164zM15.6 14.343a3.37 3.37 0 0 1-3.368-3.367A3.37 3.37 0 0 1 15.6 7.609a3.37 3.37 0 0 1 3.367 3.367 3.37 3.37 0 0 1-3.367 3.367zm0-4.57c-.664 0-1.203.54-1.203 1.203s.54 1.203 1.204 1.203 1.203-.54 1.203-1.203-.54-1.203-1.203-1.203zm-7.797 4.57a3.37 3.37 0 0 1-3.367-3.367 3.37 3.37 0 0 1 3.367-3.367 3.37 3.37 0 0 1 3.368 3.367 3.37 3.37 0 0 1-3.368 3.367zm0-4.57c-.663 0-1.203.54-1.203 1.203s.54 1.203 1.203 1.203 1.204-.54 1.204-1.203-.54-1.203-1.203-1.203zm15.593 4.57a3.37 3.37 0 0 1-3.367-3.367 3.37 3.37 0 0 1 3.367-3.367 3.37 3.37 0 0 1 3.368 3.367 3.37 3.37 0 0 1-3.368 3.367zm0-4.57c-.664 0-1.203.54-1.203 1.203s.54 1.203 1.203 1.203 1.204-.54 1.204-1.203-.54-1.203-1.204-1.203z" fill="#7f8284"/><path d="M29.063 51.485H9.43a1.08 1.08 0 0 1-1.082-1.082V26.932c0-.597.484-1.082 1.082-1.082h19.633c.598 0 1.082.485 1.082 1.082v23.471a1.08 1.08 0 0 1-1.082 1.082zm-18.551-2.164h17.469V28.014H10.512v21.307z" fill="#ff6b00"/><defs ><path id="B" d="M54.233 43.661H37.229a1.08 1.08 0 0 1-1.082-1.082c0-.597.484-1.082 1.082-1.082h17.004c.597 0 1.082.485 1.082 1.082a1.08 1.08 0 0 1-1.082 1.082z"/></defs></svg>