<svg xmlns="http://www.w3.org/2000/svg" width="64" height="64" fill="none" xmlns:v="https://vecta.io/nano"><g clip-path="url(#A)"><g fill="#7f8284"><path d="M3.57 19.711L19.702 3.579l1.378 1.378L4.948 21.089 3.57 19.711z"/><path d="M12.5 25C5.608 25 0 19.392 0 12.5S5.608 0 12.5 0 25 5.608 25 12.5 19.392 25 12.5 25zm0-23.077C6.669 1.923 1.923 6.667 1.923 12.5S6.669 23.077 12.5 23.077 23.077 18.333 23.077 12.5 18.331 1.923 12.5 1.923zM9.333 64H4c-2.205 0-4-1.795-4-4V44c0-2.205 1.795-4 4-4h5.333c2.205 0 4 1.795 4 4v16c0 2.205-1.795 4-4 4zM4 42.667c-.733 0-1.333.597-1.333 1.333v16c0 .736.6 1.333 1.333 1.333h5.333c.733 0 1.333-.597 1.333-1.333V44c0-.736-.6-1.333-1.333-1.333H4zM25.333 64H20c-2.205 0-4-1.795-4-4V33.334c0-2.205 1.795-4 4-4h5.333c1.491 0 2.835.808 3.504 2.109.339.656.08 1.459-.573 1.797a1.34 1.34 0 0 1-1.797-.573c-.208-.411-.643-.667-1.133-.667H20c-.733 0-1.333.597-1.333 1.333V60c0 .736.6 1.333 1.333 1.333h5.333c.491 0 .925-.256 1.136-.667.339-.656 1.152-.904 1.797-.573.653.339.912 1.141.573 1.797-.671 1.302-2.015 2.11-3.506 2.11zm8-36C32.597 28 32 27.403 32 26.667v-9.333c0-2.205 1.795-4 4-4h5.333c2.205 0 4 1.795 4 4v5.333c0 .736-.597 1.333-1.333 1.333s-1.333-.597-1.333-1.333v-5.333c0-.736-.6-1.333-1.333-1.333H36c-.733 0-1.333.597-1.333 1.333v9.333c0 .736-.597 1.333-1.333 1.333zM60 29.333c-.736 0-1.333-.597-1.333-1.333V4c0-.736-.6-1.333-1.333-1.333H52c-.733 0-1.333.597-1.333 1.333v18.667c0 .736-.597 1.333-1.333 1.333S48 23.403 48 22.667V4c0-2.205 1.795-4 4-4h5.333c2.205 0 4 1.795 4 4v24c0 .736-.597 1.333-1.333 1.333z"/></g><path d="M48 32c-8.822 0-16 7.178-16 16s7.178 16 16 16 16-7.178 16-16-7.178-16-16-16zm9.138 11.414L45.609 54.943a1.33 1.33 0 0 1-1.885 0l-6.195-6.195c-.26-.26-.26-.682 0-.943l.943-.943c.261-.26.682-.26.943 0l5.252 5.253 10.586-10.586c.26-.26.682-.26.943 0l.943.943c.261.26.261.683 0 .943z" fill="#ff6b00"/></g><defs><clipPath id="A"><path fill="#fff" d="M0 0h64v64H0z"/></clipPath></defs></svg>