<svg width="64" height="64" viewBox="0 0 64 64" fill="none" xmlns="http://www.w3.org/2000/svg">
<g clip-path="url(#clip0)">
<path d="M32 8C29.7947 8 28 6.20533 28 4C28 1.79467 29.7947 0 32 0C34.2053 0 36 1.79467 36 4C36 6.20533 34.2053 8 32 8ZM32 2.66667C31.2667 2.66667 30.6667 3.264 30.6667 4C30.6667 4.736 31.2667 5.33333 32 5.33333C32.7333 5.33333 33.3333 4.736 33.3333 4C33.3333 3.264 32.7333 2.66667 32 2.66667Z" fill="#7F8284"/>
<path d="M32 64C29.7947 64 28 62.2053 28 60C28 57.7947 29.7947 56 32 56C34.2053 56 36 57.7947 36 60C36 62.2053 34.2053 64 32 64ZM32 58.6667C31.2667 58.6667 30.6667 59.264 30.6667 60C30.6667 60.736 31.2667 61.3333 32 61.3333C32.7333 61.3333 33.3333 60.736 33.3333 60C33.3333 59.264 32.7333 58.6667 32 58.6667Z" fill="#7F8284"/>
<path d="M4 36C1.79467 36 0 34.2053 0 32C0 29.7947 1.79467 28 4 28C6.20533 28 8 29.7947 8 32C8 34.2053 6.20533 36 4 36ZM4 30.6667C3.26667 30.6667 2.66667 31.264 2.66667 32C2.66667 32.736 3.26667 33.3333 4 33.3333C4.73333 33.3333 5.33333 32.736 5.33333 32C5.33333 31.264 4.73333 30.6667 4 30.6667Z" fill="#7F8284"/>
<path d="M60 36C57.7947 36 56 34.2053 56 32C56 29.7947 57.7947 28 60 28C62.2053 28 64 29.7947 64 32C64 34.2053 62.2053 36 60 36ZM60 30.6667C59.2667 30.6667 58.6667 31.264 58.6667 32C58.6667 32.736 59.2667 33.3333 60 33.3333C60.7333 33.3333 61.3333 32.736 61.3333 32C61.3333 31.264 60.7333 30.6667 60 30.6667Z" fill="#7F8284"/>
<path d="M51.8001 16.1974C50.7761 16.1974 49.7521 15.808 48.9708 15.0294C47.4108 13.4694 47.4108 10.9307 48.9708 9.37068C50.5281 7.81068 53.0694 7.81068 54.6268 9.37068C56.1868 10.9307 56.1868 13.4694 54.6268 15.0294C53.8454 15.808 52.8241 16.1974 51.8001 16.1974ZM51.8001 10.8694C51.4588 10.8694 51.1174 10.9974 50.8561 11.2587C50.3361 11.7787 50.3361 12.624 50.8561 13.1467C51.3761 13.664 52.2214 13.664 52.7414 13.1467C53.2614 12.6267 53.2614 11.7787 52.7414 11.2587C52.4828 10.9974 52.1414 10.8694 51.8001 10.8694Z" fill="#7F8284"/>
<path d="M12.1995 55.7974C11.1755 55.7974 10.1489 55.408 9.3702 54.6294C7.8102 53.0694 7.8102 50.5307 9.3702 48.9707C10.9275 47.4134 13.4635 47.416 15.0262 48.9707C16.5862 50.5307 16.5862 53.0694 15.0262 54.6294C14.2502 55.408 13.2235 55.7974 12.1995 55.7974ZM12.1995 50.4667C11.8582 50.4667 11.5169 50.5974 11.2555 50.856C10.7355 51.376 10.7355 52.2214 11.2555 52.7414C11.7755 53.2614 12.6209 53.2614 13.1409 52.7414C13.6609 52.2214 13.6609 51.376 13.1409 50.8534C12.8822 50.5974 12.5409 50.4667 12.1995 50.4667Z" fill="#7F8284"/>
<path d="M12.2001 16.1974C11.1761 16.1974 10.1521 15.808 9.37079 15.0294C7.81346 13.4694 7.81346 10.9334 9.37346 9.37337C10.9308 7.81337 13.4721 7.81337 15.0295 9.37337C16.5895 10.9334 16.5895 13.472 15.0295 15.032C14.2508 15.808 13.2241 16.1974 12.2001 16.1974ZM12.2001 10.8694C11.8588 10.8694 11.5175 10.9974 11.2561 11.2587C10.7361 11.7787 10.7361 12.624 11.2561 13.1467C11.7761 13.664 12.6215 13.6667 13.1415 13.1467C13.6615 12.6267 13.6615 11.7814 13.1415 11.2614C12.8828 10.9974 12.5415 10.8694 12.2001 10.8694Z" fill="#7F8284"/>
<path d="M51.8001 55.7974C50.7761 55.7974 49.7494 55.408 48.9708 54.6294C47.4108 53.0694 47.4108 50.5307 48.9708 48.9707C50.5281 47.4134 53.0641 47.416 54.6268 48.9707C56.1868 50.5307 56.1868 53.0694 54.6268 54.6294C53.8481 55.408 52.8241 55.7974 51.8001 55.7974ZM51.8001 50.4667C51.4588 50.4667 51.1174 50.5974 50.8561 50.856C50.3361 51.376 50.3361 52.2214 50.8561 52.7414C51.3761 53.2614 52.2214 53.2614 52.7414 52.7414C53.2614 52.2214 53.2614 51.376 52.7414 50.8534C52.4828 50.5974 52.1414 50.4667 51.8001 50.4667Z" fill="#7F8284"/>
<path d="M30.667 6.66675H33.3337V20.0001H30.667V6.66675Z" fill="#7F8284"/>
<path d="M30.667 41.3333H33.3337V57.3333H30.667V41.3333Z" fill="#7F8284"/>
<path d="M6.66699 30.6667H16.667V33.3334H6.66699V30.6667Z" fill="#7F8284"/>
<path d="M48 30.6667H57.3333V33.3334H48V30.6667Z" fill="#7F8284"/>
<path d="M13.1338 15.0203L15.0194 13.1346L25.0716 23.1869L23.186 25.0725L13.1338 15.0203Z" fill="#7F8284"/>
<path d="M40.3018 42.1968L42.1874 40.3112L50.8537 48.9775L48.9681 50.8631L40.3018 42.1968Z" fill="#7F8284"/>
<path d="M13.1299 48.9758L21.717 40.3887L23.6026 42.2743L15.0155 50.8614L13.1299 48.9758Z" fill="#7F8284"/>
<path d="M38.9189 23.1938L48.9712 13.1416L50.8568 15.0272L40.8046 25.0795L38.9189 23.1938Z" fill="#7F8284"/>
<path d="M40.3497 42.6668H22.2617C18.0723 42.6668 14.667 39.1974 14.667 34.9334C14.667 31.0161 17.5417 27.7708 21.2563 27.2668C22.443 22.2934 26.8857 18.6667 32.0003 18.6667C36.0297 18.6667 39.7443 20.9201 41.6723 24.4667C46.027 25.1094 49.3337 28.9361 49.3337 33.5121C49.3337 38.5601 45.3017 42.6668 40.3497 42.6668ZM32.0003 21.3334C27.843 21.3334 24.275 24.5067 23.6937 28.7174C23.603 29.3761 23.0403 29.8667 22.3737 29.8667C19.5443 29.8667 17.3337 32.1388 17.3337 34.9334C17.3337 37.7281 19.5443 40.0001 22.2617 40.0001H40.3497C43.835 40.0001 46.667 37.0908 46.667 33.5121C46.667 30.0747 44.059 27.2374 40.731 27.0481C40.235 27.0214 39.7977 26.7201 39.5923 26.2694C38.227 23.2721 35.2457 21.3334 32.0003 21.3334Z" fill="#FF6B00"/>
</g>
<defs>
<clipPath id="clip0">
<rect width="64" height="64" fill="white"/>
</clipPath>
</defs>
</svg>
