<svg width="64" height="64" viewBox="0 0 64 64" fill="none" xmlns="http://www.w3.org/2000/svg">
<g clip-path="url(#clip0)">
<path d="M62.9434 20.6928H1.0566C0.472877 20.6928 0 20.2199 0 19.6362C0 19.0531 0.472877 18.5796 1.0566 18.5796H62.9434C63.5271 18.5796 64 19.0531 64 19.6362C64 20.2199 63.5271 20.6928 62.9434 20.6928Z" fill="#7F8284"/>
<path d="M18.0527 15.6367C16.2096 15.6367 14.709 14.1361 14.709 12.293C14.709 10.4492 16.2096 8.94922 18.0527 8.94922C19.8965 8.94922 21.3965 10.4492 21.3965 12.293C21.3965 14.1361 19.8965 15.6367 18.0527 15.6367ZM18.0527 11.0624C17.3747 11.0624 16.8222 11.6143 16.8222 12.293C16.8222 12.9716 17.3747 13.5235 18.0527 13.5235C18.7314 13.5235 19.2833 12.9716 19.2833 12.293C19.2833 11.6143 18.7314 11.0624 18.0527 11.0624Z" fill="#7F8284"/>
<path d="M7.7793 15.6042C5.93555 15.6042 4.43555 14.1042 4.43555 12.2605C4.43555 10.4167 5.93555 8.91675 7.7793 8.91675C9.62305 8.91675 11.123 10.4167 11.123 12.2605C11.123 14.1042 9.62305 15.6042 7.7793 15.6042ZM7.7793 11.03C7.10123 11.03 6.54875 11.5824 6.54875 12.2605C6.54875 12.9392 7.10123 13.491 7.7793 13.491C8.45795 13.491 9.00984 12.9392 9.00984 12.2605C9.00984 11.5824 8.45795 11.03 7.7793 11.03Z" fill="#7F8284"/>
<path fill-rule="evenodd" clip-rule="evenodd" d="M34.6117 30.0334C34.8918 29.848 35.2463 29.8159 35.555 29.9478C37.4544 30.7582 39.0425 32.1239 40.1466 33.8966C42.2729 37.3094 42.1038 41.7774 39.7256 45.0141C39.4135 45.4395 39.0681 45.8427 38.699 46.2119L36.1633 48.7476L36.1631 59.9999H34.1631L34.1633 48.333C34.1633 48.0678 34.2689 47.8136 34.4564 47.6262L37.2849 44.7977C37.5825 44.5001 37.8612 44.1744 38.1139 43.8305C40.0122 41.2465 40.1469 37.679 38.4492 34.9544C37.8494 33.9914 37.0729 33.179 36.163 32.553L36.163 37.8468C36.162 39.4997 34.8175 40.8462 33.1633 40.8473L30.0916 40.8466C29.2902 40.8469 28.5369 40.5348 27.9703 39.9682C27.4036 39.4016 27.0915 38.6482 27.0915 37.8465L27.0916 32.5534C26.6897 32.8296 26.3136 33.1429 25.9676 33.4888C25.5301 33.9263 25.1399 34.4167 24.8053 34.9543C23.1075 37.6789 23.2424 41.2461 25.1405 43.8305C25.3949 44.1761 25.674 44.502 25.9695 44.7976L28.798 47.6261C28.9855 47.8136 29.0911 48.0678 29.0911 48.3329L29.0913 59.9999L27.0913 59.9999L27.0912 48.7473L24.5554 46.2116C24.1887 45.8449 23.8436 45.4421 23.5291 45.015C21.1508 41.7769 20.9819 37.3088 23.1081 33.896C24.2116 32.1255 25.7992 30.7595 27.6986 29.9478C28.0076 29.8163 28.3622 29.8476 28.6422 30.0331C28.9226 30.2182 29.0918 30.5317 29.0914 30.8676L29.0918 37.8468C29.0918 38.114 29.1957 38.365 29.3845 38.5539C29.5734 38.7427 29.8244 38.8466 30.0913 38.8463L33.163 38.847C33.7144 38.8474 34.1632 38.3979 34.1629 37.8464V30.8676C34.1629 30.532 34.3296 30.2181 34.6117 30.0334Z" fill="#FF6B00"/>
<path fill-rule="evenodd" clip-rule="evenodd" d="M40 60.2392H56.9057C60.8172 60.2392 64 57.057 64 53.1449V10.8678C64 6.95622 60.8172 3.77344 56.9057 3.77344H7.09434C3.18278 3.77344 0 6.95622 0 10.8678V53.1449C0 57.057 3.18278 60.2392 7.09434 60.2392H23V58.126H7.09434C4.34788 58.126 2.11321 55.8914 2.11321 53.1449V10.8678C2.11321 8.12132 4.34788 5.88665 7.09434 5.88665H56.9057C59.6521 5.88665 61.8868 8.12132 61.8868 10.8678V53.1449C61.8868 55.8914 59.6521 58.126 56.9057 58.126H40V60.2392Z" fill="#7F8284"/>
<path d="M28.3266 15.6686C26.4834 15.6686 24.9834 14.1686 24.9834 12.3248C24.9834 10.4817 26.4834 8.98169 28.3266 8.98169C30.1703 8.98169 31.6703 10.4817 31.6703 12.3248C31.6703 14.1686 30.1703 15.6686 28.3266 15.6686ZM28.3266 11.0943C27.6485 11.0943 27.0966 11.6462 27.0966 12.3248C27.0966 13.0035 27.6485 13.5554 28.3266 13.5554C29.0052 13.5554 29.5571 13.0035 29.5571 12.3248C29.5571 11.6462 29.0052 11.0943 28.3266 11.0943Z" fill="#7F8284"/>
</g>
<defs>
<clipPath id="clip0">
<rect width="64" height="64" fill="white"/>
</clipPath>
</defs>
</svg>
