<svg width="689" height="602" viewBox="0 0 689 602" fill="none" xmlns="http://www.w3.org/2000/svg">
<g clip-path="url(#clip0)">
<path opacity="0.3" d="M177.545 558.564C294.469 627.595 484.115 627.595 601.04 558.564C717.965 489.532 717.965 377.57 601.04 308.396C484.115 239.364 294.469 239.364 177.545 308.396C60.4773 377.57 60.4773 489.532 177.545 558.564Z" fill="#D7D7D7"/>
<path d="M82.5599 292.528C80.7062 291.529 79.2803 288.962 79.2803 286.822V81.0111C79.2803 78.8717 80.7062 76.3044 82.5599 75.306L156.137 32.8031C157.991 31.8047 160.842 31.6621 162.553 32.6605C164.265 33.6588 165.69 36.0835 165.69 38.2229V51.9152C165.69 54.0546 167.116 54.9103 168.97 53.7693L260.941 0.854555C262.795 -0.143837 265.647 -0.286464 267.358 0.711927C269.069 1.71032 270.495 4.13498 270.495 6.27439V322.765L202.479 361.844L82.5599 292.528Z" fill="#174972"/>
<path d="M267.215 0.713181C265.504 -0.285211 262.652 -0.285211 260.799 0.855808L168.827 54.0558C166.974 55.0542 165.548 54.1984 165.548 52.2017V38.5094C165.548 36.37 164.122 33.9454 162.411 32.947C160.7 31.9486 157.848 31.9486 155.994 33.0896L82.5598 75.3073C81.7042 75.8778 80.8487 76.7336 80.2783 77.732L122.485 102.121L270.352 16.6874V6.27565C270.352 4.13624 268.926 1.71157 267.215 0.713181Z" fill="#2982CC"/>
<path d="M267.073 4.42149L168.828 61.1872C166.974 62.1856 165.548 61.3298 165.548 59.333V38.5094C165.548 36.37 164.122 35.5143 162.269 36.6553L88.8343 78.873C86.9806 79.8714 85.5547 82.4387 85.5547 84.5781V283.401C85.5547 285.54 86.9806 288.107 88.8343 289.106L208.753 358.423L270.353 322.908V6.27565C270.353 4.13624 268.784 3.28047 267.073 4.42149Z" fill="#1B5889"/>
<path d="M86.4102 286.538C86.9805 287.537 87.8361 288.535 88.6916 288.963L208.611 358.28L270.21 322.766V180.424L86.4102 286.538Z" fill="#0D3D5E"/>
<path d="M101.382 331.894L100.527 331.323C99.1007 330.468 97.96 328.471 97.96 326.759V133.642C97.96 131.93 99.1007 129.934 100.527 129.078L298.586 14.6907C300.012 13.8349 302.436 13.8349 303.861 14.6907L304.717 15.2612C306.143 16.1169 307.284 18.1137 307.284 19.8252V212.943C307.284 214.654 306.143 216.651 304.717 217.507L106.658 331.894C105.09 332.75 102.808 332.75 101.382 331.894Z" fill="#F5F5F5"/>
<path d="M110.08 137.635L98.5303 130.932C98.1026 131.788 97.8174 132.643 97.8174 133.499V326.617C97.8174 328.328 98.9581 330.325 100.384 331.181L101.24 331.751C102.665 332.607 105.09 332.607 106.515 331.751L110.08 329.754V137.635Z" fill="#E1E1E1"/>
<path d="M103.949 330.325V137.208C103.949 135.496 105.09 133.499 106.516 132.644L304.575 18.2564C306.001 17.4007 307.141 18.1138 307.141 19.8253V212.943C307.141 214.654 306.001 216.651 304.575 217.507L106.658 331.894C105.09 332.75 103.949 332.037 103.949 330.325Z" fill="#ECECEC"/>
<path d="M119.634 139.347L291.742 39.9357C293.595 38.9373 295.021 39.793 295.021 41.7898V190.693C295.021 192.832 293.595 195.399 291.742 196.398L119.634 295.952C117.78 296.95 116.354 296.094 116.354 294.098V145.195C116.354 142.913 117.78 140.345 119.634 139.347Z" fill="white"/>
<path d="M138.314 353.288L137.458 352.717C136.032 351.862 134.892 349.865 134.892 348.153V155.036C134.892 153.324 136.032 151.328 137.458 150.472L335.517 36.0847C336.943 35.2289 339.367 35.2289 340.793 36.0847L341.649 36.6552C343.075 37.511 344.215 39.5078 344.215 41.2193V234.337C344.215 236.048 343.075 238.045 341.649 238.901L143.59 353.288C142.164 354.001 139.74 354.001 138.314 353.288Z" fill="#F9CE64"/>
<path d="M147.154 159.029L135.605 152.326C135.177 153.182 134.892 154.037 134.892 154.893V348.011C134.892 349.722 136.032 351.719 137.458 352.575L138.314 353.145C139.74 354.001 142.164 354.001 143.59 353.145L147.154 351.148V159.029Z" fill="#C9971C"/>
<path d="M140.881 351.719V158.602C140.881 156.89 142.022 154.893 143.447 154.037L341.506 39.6503C342.932 38.7946 344.073 39.5077 344.073 41.2192V234.337C344.073 236.048 342.932 238.045 341.506 238.901L143.447 353.288C142.164 354.001 140.881 353.431 140.881 351.719Z" fill="#EEBD31"/>
<path d="M156.566 160.741L328.673 61.3297C330.527 60.3313 331.953 61.1871 331.953 63.1839V212.087C331.953 214.226 330.527 216.794 328.673 217.792L156.566 317.203C154.712 318.202 153.286 317.346 153.286 315.349V166.446C153.286 164.307 154.712 161.739 156.566 160.741Z" fill="#C9D3EB"/>
<path d="M175.244 374.539L174.389 373.969C172.963 373.113 171.822 371.116 171.822 369.405V176.287C171.822 174.576 172.963 172.579 174.389 171.723L372.448 57.3362C373.874 56.4804 376.298 56.4804 377.724 57.3362L378.579 57.9067C380.005 58.7624 381.146 60.7592 381.146 62.4707V255.588C381.146 257.3 380.005 259.296 378.579 260.152L180.52 374.539C179.094 375.395 176.67 375.395 175.244 374.539Z" fill="#F5F5F5"/>
<path d="M184.085 180.424L172.535 173.72C172.107 174.576 171.822 175.432 171.822 176.287V369.405C171.822 371.116 172.963 373.113 174.389 373.969L175.244 374.539C176.67 375.395 179.094 375.395 180.52 374.539L184.085 372.543V180.424Z" fill="#E1E1E1"/>
<path d="M177.954 373.113V179.996C177.954 178.284 179.095 176.287 180.521 175.432L378.58 61.0445C380.006 60.1887 381.146 60.9019 381.146 62.6134V255.731C381.146 257.442 380.006 259.439 378.58 260.295L180.521 374.682C179.095 375.395 177.954 374.682 177.954 373.113Z" fill="#ECECEC"/>
<path d="M193.496 181.993L365.604 82.7239C367.458 81.7255 368.883 82.5812 368.883 84.578V233.481C368.883 235.62 367.458 238.188 365.604 239.186L193.496 338.597C191.643 339.596 190.217 338.74 190.217 336.743V187.84C190.217 185.701 191.643 183.134 193.496 181.993Z" fill="white"/>
<path d="M208.754 358.28L227.148 347.583V368.977L208.754 358.28Z" fill="#0D3D5E"/>
<path d="M227.148 209.092V365.126C227.148 367.265 225.722 368.121 223.868 366.98L208.611 358.137L202.479 361.703L230 377.535C231.853 378.533 234.705 378.533 236.559 377.535L427.203 267.426C429.057 266.428 430.483 263.861 430.483 261.721V98.8407C430.483 96.7013 429.057 94.2766 427.346 93.2782C425.634 92.2799 422.783 92.2799 420.929 93.4209L230.285 203.529C228.716 204.385 227.148 206.952 227.148 209.092Z" fill="#174972"/>
<path d="M239.553 212.372L430.625 102.121V98.8407C430.625 96.7013 429.199 94.2766 427.488 93.2782C425.777 92.2799 422.925 92.2799 421.071 93.4209L230.427 203.529C229.571 204.1 228.716 204.955 228.146 205.954L239.553 212.372Z" fill="#2982CC"/>
<path d="M427.203 96.8439L236.701 206.952C234.848 207.951 233.422 210.518 233.422 212.657V375.823C233.422 377.962 234.848 378.818 236.701 377.677L427.346 267.569C429.199 266.571 430.625 264.003 430.625 261.864V98.8407C430.483 96.7013 429.057 95.8455 427.203 96.8439Z" fill="#236BB3"/>
<path d="M437.653 479.57L329.854 541.899C328.856 542.469 328 544.038 328 545.179V545.892C328 547.176 328.856 548.602 329.854 549.173L419.829 601.089C420.827 601.659 422.538 601.659 423.679 601.089L531.477 538.761C532.476 538.19 533.331 536.621 533.331 535.48V534.767C533.331 533.484 532.476 532.057 531.477 531.487L441.503 479.57C440.362 479 438.651 479 437.653 479.57Z" fill="#375A64"/>
<path d="M328 545.036V545.75C328 547.033 328.856 548.459 329.854 549.03L419.829 600.946C420.399 601.232 421.112 601.374 421.682 601.374V591.676L332.42 540.044L329.854 541.471C328.713 542.469 328 543.895 328 545.036Z" fill="#1A2E35"/>
<path d="M329.854 541.756L437.653 479.428C438.651 478.857 440.362 478.857 441.503 479.428L531.477 531.344C532.476 531.915 532.476 532.913 531.477 533.484L423.536 595.954C422.538 596.525 420.827 596.525 419.686 595.954L329.711 544.038C328.713 543.325 328.713 542.469 329.854 541.756Z" fill="#2B454E"/>
<path d="M343.257 544.038L413.127 584.402C414.125 584.972 415.836 584.972 416.976 584.402L511.372 529.918C512.37 529.347 512.37 528.349 511.372 527.778L441.502 487.415C440.504 486.844 438.793 486.844 437.652 487.415L343.257 541.899C342.116 542.469 342.116 543.325 343.257 544.038Z" fill="white"/>
<path d="M569.451 490.551V423.563L656.396 373.196V440.184L569.451 490.551Z" fill="#ECECEC"/>
<path d="M569.451 423.563L460.686 360.604V427.76L569.451 490.551V423.563Z" fill="#E7E7E7"/>
<path d="M569.451 423.563L659.082 371.685L547.631 307.383L458 359.093L569.451 423.563Z" fill="#F0F0F0"/>
<path d="M569.451 423.563V440.184L659.082 388.474V371.685L569.451 423.563Z" fill="#ECECEC"/>
<path d="M569.451 440.184L656.396 389.985V393.678L569.451 443.878V440.184Z" fill="#E7E7E7"/>
<path d="M458 359.093L569.451 423.563V440.184L458 375.882V359.093Z" fill="#ECECEC"/>
<path opacity="0.5" d="M569.451 440.184L460.686 377.393V381.087L569.451 443.878V440.184Z" fill="#E1E1E1"/>
<path d="M597.985 433.636L627.694 416.512C629.037 415.84 630.044 416.344 630.044 417.855V435.483C630.044 436.994 629.037 438.841 627.694 439.513L597.985 456.637C596.642 457.309 595.635 456.805 595.635 455.294V437.666C595.803 436.155 596.81 434.476 597.985 433.636Z" fill="#E1E1E1"/>
<path d="M599.999 435.651L625.848 420.709C626.687 420.205 627.358 420.541 627.358 421.548V434.812C627.358 435.819 626.687 436.994 625.848 437.498L599.999 452.44C599.16 452.944 598.488 452.608 598.488 451.601V438.337C598.488 437.33 599.16 436.155 599.999 435.651Z" fill="white"/>
<path d="M569.451 415.001V348.012L656.396 297.813V364.801L569.451 415.001Z" fill="#ECECEC"/>
<path d="M569.451 348.012L460.686 285.221V352.209L569.451 415.001V348.012Z" fill="#E7E7E7"/>
<path d="M569.451 348.012L659.082 296.302L547.631 232L458 283.71L569.451 348.012Z" fill="#F5F5F5"/>
<path d="M569.451 348.012V364.801L659.082 313.091V296.302L569.451 348.012Z" fill="#ECECEC"/>
<path d="M569.451 364.801L656.396 314.602V318.296L569.451 368.495V364.801Z" fill="#E7E7E7"/>
<path d="M458 283.71L569.451 348.012V364.801L458 300.499V283.71Z" fill="#ECECEC"/>
<path opacity="0.5" d="M569.451 364.801L460.686 302.01V305.704L569.451 368.495V364.801Z" fill="#E1E1E1"/>
<path d="M597.985 358.254L627.694 341.129C629.037 340.457 630.044 340.961 630.044 342.472V360.1C630.044 361.611 629.037 363.458 627.694 364.13L597.985 381.255C596.642 381.926 595.635 381.422 595.635 379.911V362.283C595.803 360.772 596.81 358.925 597.985 358.254Z" fill="#E1E1E1"/>
<path d="M599.999 360.268L625.848 345.326C626.687 344.822 627.358 345.158 627.358 346.165V359.429C627.358 360.436 626.687 361.611 625.848 362.115L599.999 377.057C599.16 377.561 598.488 377.225 598.488 376.218V362.954C598.488 361.947 599.16 360.772 599.999 360.268Z" fill="white"/>
<path d="M651.697 367.488L569.451 415.001L465.386 354.896L462.7 356.407L569.451 417.855L654.382 368.999L651.697 367.488Z" fill="#E1E1E1"/>
<path fill-rule="evenodd" clip-rule="evenodd" d="M286.893 323.764L90.4022 241.468C86.5522 240.612 83.9856 242.466 82.5597 247.031L70.7246 292.386L71.0098 322.48C79.8504 325.333 83.5578 302.37 90.2596 304.509L147.439 327.187C153.285 329.326 151.146 347.012 156.992 349.58L187.934 364.27C191.642 365.982 199.627 343.447 200.91 350.15L236.273 547.974L292.739 335.459C293.88 330.182 292.454 325.761 288.176 324.335L286.893 323.764Z" fill="#EEBD31"/>
<path fill-rule="evenodd" clip-rule="evenodd" d="M200.625 348.439L236.416 547.974L48.6231 440.291L0.284761 268.282C-0.998558 263.433 3.27917 260.295 7.27172 261.579L85.4116 298.091C94.2523 300.944 91.1153 282.545 97.817 284.542L155.281 305.508C161.127 307.647 156.422 324.477 162.268 327.187L188.933 339.168C188.933 339.025 199.342 341.593 200.625 348.439Z" fill="#236BB3"/>
<path fill-rule="evenodd" clip-rule="evenodd" d="M369.452 461.4L267.5 422.89L236.272 547.974L376.439 467.818C380.717 465.393 374.301 463.396 369.452 461.4Z" fill="#C9D3EB"/>
</g>
<defs>
<clipPath id="clip0">
<rect width="689" height="602" fill="white"/>
</clipPath>
</defs>
</svg>
