<svg width="111" height="58" viewBox="0 0 111 58" fill="none" xmlns="http://www.w3.org/2000/svg">
<path fill-rule="evenodd" clip-rule="evenodd" d="M0.337891 52.3287H4.00701V38.0854L9.6648 50.5068C10.3365 51.9965 11.2335 52.5211 13.0257 52.5211C14.8185 52.5211 15.7149 51.9965 16.3866 50.5068L22.0444 38.0854V52.3287H25.6853V38.1126C25.6853 36.733 25.1247 36.0692 23.9766 35.7104C21.2039 34.8547 19.3269 35.6002 18.487 37.45L12.9416 49.6784L7.56439 37.45C6.7521 35.6002 4.84755 34.8547 2.07484 35.7104C0.898459 36.0692 0.338519 36.7324 0.338519 38.1126V52.3287H0.337891ZM28.7379 40.7345H32.3788V48.5741C32.3512 49.0152 32.5188 50.0094 34.5357 50.0372C35.5439 50.0638 42.4057 50.0372 42.4615 50.0372V40.7066H46.1306C46.1583 40.7066 46.1306 53.4312 46.1306 53.4869C46.1583 56.6334 42.1816 57.2953 40.3611 57.351H28.8221V54.9222C28.8221 54.9222 40.3335 54.95 40.3611 54.9222C42.7139 54.7013 42.4339 53.5425 42.4339 53.1559V52.2168H34.6757C31.0625 52.1623 28.7656 50.6157 28.7379 48.8216C28.7379 48.6564 28.8221 40.818 28.7379 40.7345ZM107.412 31.7083C105.172 31.6532 103.463 31.8462 101.978 32.481C101.559 32.6468 100.914 32.6468 100.831 33.1714C101.055 33.391 101.11 33.7504 101.279 34.0548C101.643 34.6073 102.231 35.3515 102.763 35.7382C103.324 36.1805 103.912 36.6216 104.528 37.0083C105.648 37.6703 106.88 38.0291 107.916 38.6929C108.561 39.0783 109.177 39.5763 109.793 40.0175C110.073 40.2383 110.297 40.5699 110.661 40.7073V40.6528C110.465 40.4041 110.409 40.0453 110.241 39.7681L109.401 38.9404C108.589 37.8917 107.552 36.9526 106.459 36.1805C105.591 35.573 103.631 34.7174 103.267 33.7238C103.238 33.696 103.21 33.696 103.21 33.6682C103.827 33.5846 104.555 33.365 105.115 33.2258C106.068 32.9784 106.936 33.0328 107.916 32.7847C108.364 32.6461 108.812 32.536 109.261 32.3981V32.1494C108.757 31.6526 108.421 30.9628 107.861 30.521C106.433 29.3066 104.864 28.1194 103.267 27.1259C102.371 26.5462 101.279 26.1874 100.327 25.7184C100.018 25.5804 99.4575 25.4976 99.2346 25.2216C98.7293 24.6141 98.4782 23.8136 98.0859 23.0959C97.2642 21.5215 96.4983 19.9195 95.7896 18.2927C95.3138 17.2162 94.9767 16.1397 94.3898 15.1455C91.4764 10.453 88.3673 7.6103 83.5224 4.822C82.4866 4.24232 81.2544 3.99424 79.9374 3.69048C79.2375 3.6348 78.5375 3.60758 77.837 3.5519C77.4164 3.3861 76.9688 2.8621 76.5482 2.6134C74.9519 1.61983 70.8346 -0.560937 69.6576 2.30963C68.9012 4.10374 70.7781 5.87063 71.4498 6.78191C71.9268 7.41666 72.5138 8.13492 72.8509 8.85194C73.0737 9.32088 73.102 9.79045 73.2985 10.2872C73.7743 11.5295 74.1666 12.8819 74.7548 14.0134C75.0624 14.5931 75.3982 15.2006 75.7906 15.7252C76.0147 16.029 76.4352 16.167 76.4905 16.6637C76.0982 17.2156 76.0712 18.044 75.8471 18.7338C74.8665 21.853 75.2306 25.69 76.687 28.0081C77.1358 28.6979 78.1716 30.2161 79.6285 29.637C80.889 29.1124 80.6084 27.5663 80.9725 26.1589C81.0573 25.8551 81.0008 25.6343 81.1684 25.4134V25.4685C81.5325 26.2412 81.9248 26.9867 82.3171 27.7315C83.1571 29.0845 84.6699 30.5198 85.9586 31.4577C86.6021 31.9545 87.1344 32.8107 88.0026 33.086V33.0303H87.9191C87.7508 32.7829 87.4985 32.6721 87.3026 32.4785C86.7986 31.9817 86.2386 31.3742 85.818 30.8223C84.6705 29.2763 83.6341 27.5651 82.6819 25.7982C82.233 24.9426 81.8407 24.0041 81.4779 23.1485C81.3366 22.8175 81.3366 22.3207 81.029 22.1271C80.6084 22.7618 80.0215 23.2865 79.6838 24.0319C79.1797 25.2192 79.0962 26.6817 78.9286 28.1726C78.8156 28.2277 78.8439 28.1999 78.7874 28.2555C77.8922 28.0347 77.5834 27.1234 77.2475 26.3507C76.4359 24.3908 76.267 21.2443 76.9952 18.9806C77.191 18.4009 78.0605 16.579 77.6964 16.0271C77.5269 15.5025 76.9952 15.1715 76.6876 14.7577C76.2953 14.2609 75.9312 13.5983 75.6518 13.0186C74.9802 11.4726 74.6713 9.76137 73.9425 8.21596C73.5784 7.47048 73.0191 6.725 72.5427 6.09025C72.0103 5.34477 71.4221 4.82077 71.0028 3.93732C70.8628 3.63356 70.667 3.13678 70.8628 2.80518C70.9463 2.58432 71.0311 2.50142 71.2539 2.41852C71.618 2.1426 72.655 2.52926 73.0461 2.6666C74.0549 3.10832 74.923 3.49498 75.7912 4.07467C76.2118 4.35059 76.6324 4.87459 77.1364 5.01317H77.697C78.5934 5.20619 79.6009 5.06823 80.4408 5.31693C81.9254 5.75803 83.2694 6.44846 84.4747 7.22178C88.1714 9.51267 91.1689 12.7699 93.241 16.6619C93.5769 17.2966 93.7168 17.8763 93.9974 18.5389C94.5863 19.8919 95.3414 21.2715 95.9296 22.5688C96.4902 23.894 97.0784 25.2192 97.89 26.295C98.3389 26.8747 100.019 27.1784 100.775 27.4816C101.307 27.7024 102.175 27.9505 102.68 28.2549C103.66 28.8068 104.584 29.4972 105.509 30.1319C105.956 30.4388 107.356 31.1286 107.412 31.7083Z" fill="#00678C"/>
<path fill-rule="evenodd" clip-rule="evenodd" d="M78.8438 7.72156C78.457 7.72168 78.0717 7.76821 77.6963 7.86014V7.9152H77.7798C78.0039 8.35692 78.3962 8.66068 78.6762 9.04673C78.8721 9.48845 79.0968 9.93018 79.2927 10.3719L79.3762 10.289C79.7685 10.0409 79.9367 9.59919 79.9367 8.90939C79.7968 8.74358 79.7685 8.55056 79.6291 8.35692C79.4327 8.08038 79.0968 7.94242 78.8438 7.72156Z" fill="#00678C"/>
<path fill-rule="evenodd" clip-rule="evenodd" d="M48.96 52.3284H59.4626C60.6949 52.3284 61.8989 52.0797 62.8511 51.6374C64.4192 50.921 65.2039 49.954 65.2039 48.6845V46.0348C65.2039 45.0141 64.3075 44.0205 62.6001 43.3851C61.6754 43.0263 60.5549 42.8605 59.4626 42.8605H55.0377C53.5531 42.8605 52.8532 42.4182 52.685 41.4531C52.6567 41.3429 52.6567 41.2322 52.6567 41.1221V39.4932C52.6567 39.383 52.6567 39.3001 52.685 39.19C52.8532 38.4445 53.2449 38.2237 54.5336 38.1136C54.6454 38.1136 54.7854 38.0857 54.8977 38.0857H65.3445V35.6847H55.066C53.5814 35.6847 52.8249 35.7948 52.125 35.9879C49.9405 36.6777 48.9882 37.7269 48.9882 39.5767V41.6745C48.9882 43.3035 50.8645 44.6831 53.9737 45.0141C54.3378 45.0141 54.6736 45.0419 55.0377 45.0419H58.8192C58.9592 45.0419 59.0985 45.0419 59.2103 45.0697C60.3873 45.1799 60.8631 45.3729 61.2272 45.7861C61.423 46.007 61.5078 46.2006 61.5078 46.4493V48.5472C61.5078 48.7959 61.3396 49.1275 60.9755 49.4028C60.6666 49.6794 60.1343 49.8452 59.4344 49.8996C59.2944 49.8996 59.1833 49.9274 59.042 49.9274H48.96V52.3284ZM88.0027 48.1315C88.0027 50.616 89.8514 51.9956 93.6329 52.2721C93.9687 52.3 94.3328 52.3278 94.6686 52.3278H104.191V49.9256H94.6121C92.4552 49.9256 91.6436 49.401 91.6436 48.1315V35.6835H88.0021V48.1315H88.0027ZM67.529 48.2694V39.7134C67.529 37.5326 69.0689 36.2081 72.1498 35.7936C72.4587 35.7379 72.8228 35.7379 73.1303 35.7379H80.0756C80.4115 35.7379 80.7203 35.7379 81.0844 35.7936C84.1371 36.2081 85.7052 37.5326 85.7052 39.7134V48.2694C85.7052 50.0369 85.0335 50.9748 83.5206 51.5823L87.1339 54.7845H82.8772L79.9639 52.2171L77.0223 52.3829H73.1297C72.458 52.3829 71.7575 52.3006 70.9728 52.0797C68.6496 51.4716 67.529 50.2572 67.529 48.2694ZM71.4781 48.0498C71.4781 48.1878 71.5064 48.2973 71.5346 48.4365C71.7587 49.4294 72.7104 49.9819 74.1385 49.9819H77.4724L74.4197 47.2765H78.6764L81.3368 49.623C81.8138 49.3743 82.1497 48.9877 82.2614 48.4909C82.2896 48.353 82.2896 48.2434 82.2896 48.1321V39.907C82.2896 39.8235 82.2896 39.714 82.2614 39.6027C82.0373 38.6648 81.0857 38.1408 79.6845 38.1408H74.1391C72.5145 38.1408 71.4788 38.8306 71.4788 39.907V48.0498H71.4781ZM105.872 52.3284H106.405V50.3407H107.133V49.9262H105.144V50.3407H105.872V52.3284ZM109.962 52.3284H110.437V49.9262H109.709L109.066 51.583L108.422 49.9262H107.666V52.3284H108.17V50.5065L108.87 52.3284H109.234L109.934 50.5065H109.962V52.3284H109.962Z" fill="#CE8B2C"/>
<path fill-rule="evenodd" clip-rule="evenodd" d="M1.15039 29.6933V20.6393H4.00659C4.6789 20.6393 5.15535 20.695 5.49119 20.8051C5.91115 20.9709 6.24698 21.2468 6.52696 21.6885C6.77931 22.1024 6.91929 22.627 6.91929 23.2346C6.91929 24.0629 6.69582 24.7249 6.27523 25.2223C5.85528 25.7463 5.12647 25.995 4.09071 25.995H2.15791V29.694H1.15039V29.6933ZM2.15854 24.9458H4.11896C4.73539 24.9458 5.18297 24.8078 5.46357 24.5319C5.74417 24.256 5.88352 23.8415 5.88352 23.2896C5.88352 22.9308 5.79941 22.6271 5.65942 22.3784C5.51944 22.1024 5.3512 21.9372 5.15535 21.8543C4.9595 21.7436 4.59478 21.7158 4.09134 21.7158H2.15854V24.9458ZM7.90044 25.2768C7.90044 23.7586 8.23691 22.5714 8.93684 21.7436C9.63676 20.9152 10.4773 20.5013 11.5131 20.5013C12.1854 20.5013 12.8018 20.6671 13.3335 21.0532C13.8941 21.412 14.314 21.9638 14.6499 22.6543C14.9581 23.3719 15.1257 24.2003 15.1257 25.166C15.1257 26.519 14.8175 27.6233 14.201 28.4511C13.5011 29.3896 12.6047 29.8585 11.5124 29.8585C10.3926 29.8585 9.49615 29.3617 8.82384 28.4232C8.20866 27.5683 7.90044 26.519 7.90044 25.2768ZM8.93684 25.3046C8.93684 26.4083 9.18856 27.2917 9.69326 27.8992C10.1691 28.5061 10.7855 28.8377 11.5137 28.8377C12.2419 28.8377 12.8583 28.5061 13.3341 27.8992C13.8382 27.2645 14.0906 26.3532 14.0906 25.1394C14.0906 24.3661 13.9506 23.6763 13.6982 23.0688C13.5024 22.5998 13.2218 22.2132 12.8301 21.9372C12.4465 21.6655 11.9854 21.5206 11.5131 21.5234C10.7566 21.5234 10.1408 21.8271 9.66501 22.434C9.16094 23.0688 8.93684 24.0073 8.93684 25.3046ZM17.6756 29.6933L15.6869 20.6393H16.695L17.8438 26.5741C17.9838 27.1816 18.0673 27.8163 18.1796 28.4239L18.5155 26.7677L19.9718 20.6399H21.1482L22.2122 25.2223C22.475 26.278 22.6806 27.3467 22.828 28.4239C22.9121 27.8442 23.0239 27.1816 23.1921 26.4646L24.3685 20.6399H25.4049L23.3327 29.694H22.3522L20.7559 22.7928L20.5035 21.7442C20.4476 22.1309 20.3635 22.4897 20.3077 22.7928L18.6837 29.6933H17.6756ZM26.3295 29.6933V20.6393H31.7632V21.7164H27.3101V24.4768H31.4833V25.5533H27.3101V28.6447H31.9315V29.6933H26.3295ZM33.3037 29.6933V20.6393H36.637C37.3375 20.6393 37.8692 20.7222 38.1774 20.888C38.5139 21.0538 38.7933 21.3576 39.0174 21.7436C39.2132 22.1303 39.3256 22.5992 39.3256 23.0966C39.3256 23.7864 39.1573 24.3383 38.7932 24.78C38.4292 25.1939 37.8968 25.4704 37.1969 25.5805C37.4769 25.7463 37.701 25.9121 37.841 26.0773C38.1492 26.4361 38.4015 26.8228 38.625 27.2367L39.942 29.6933H38.6815L37.6734 27.8163C37.281 27.0715 37.0011 26.5741 36.8052 26.326C36.6094 26.0779 36.4129 25.9121 36.217 25.8014C36.0488 25.7185 35.7971 25.6634 35.4606 25.6634H34.3125V29.6933H33.3037ZM34.3118 24.642H36.4405C36.9163 24.642 37.2804 24.587 37.5045 24.4762C37.7562 24.3655 37.9527 24.1725 38.0927 23.9516C38.2327 23.7035 38.2885 23.427 38.2885 23.1232C38.2885 22.6543 38.1768 22.2954 37.8962 22.0195C37.6162 21.7714 37.2239 21.6329 36.6922 21.6329H34.3118V24.642ZM40.9219 29.6933V20.6393H46.3556V21.7164H41.93V24.4768H46.075V25.5533H41.93V28.6447H46.5514V29.6933H40.9219ZM47.8954 29.6933V20.6393H50.4999C51.144 20.6393 51.6204 20.695 51.9563 20.8051C52.4045 20.9431 52.7685 21.219 53.1044 21.6056C53.4126 21.9923 53.665 22.4612 53.8608 23.0409C54.029 23.6206 54.1125 24.311 54.1125 25.1116C54.1125 26.133 53.9726 27.0164 53.6643 27.7334C53.3561 28.4511 52.9644 28.9479 52.4879 29.2516C52.0121 29.5554 51.3674 29.6933 50.6116 29.6933H47.8954ZM48.9042 28.6447H50.5005C51.1446 28.6447 51.6211 28.534 51.9569 28.3137C52.2934 28.1207 52.5451 27.7891 52.7409 27.3202C52.965 26.7133 53.0774 25.9678 53.0774 25.1122C53.0774 24.2009 52.9657 23.456 52.7133 22.9314C52.461 22.4068 52.1245 22.048 51.7328 21.8822C51.4804 21.7721 51.0605 21.7164 50.4723 21.7164H48.9036V28.6447H48.9042ZM58.6781 29.6933V20.6393H61.5079C62.0955 20.6393 62.5437 20.7222 62.8801 20.9152C63.216 21.081 63.4966 21.3569 63.6931 21.7158C63.9159 22.1024 64.0289 22.4891 64.0289 22.958C64.0289 23.3719 63.9159 23.7314 63.7483 24.0623C63.5524 24.3933 63.3007 24.6692 62.9649 24.8623C63.3821 25.0236 63.7422 25.302 64.0006 25.6628C64.2517 26.0495 64.3647 26.5184 64.3647 27.0709C64.3647 27.6233 64.2517 28.0916 64.0289 28.5061C63.8048 28.92 63.4966 29.2238 63.1042 29.4174C62.7401 29.6104 62.2078 29.6933 61.5361 29.6933H58.6781ZM59.6875 24.449H61.312C61.7314 24.449 62.0402 24.4218 62.2085 24.3661C62.4878 24.2832 62.6843 24.118 62.8236 23.925C62.9649 23.732 63.0195 23.4554 63.0195 23.0972C63.0195 22.7656 62.9642 22.4897 62.8513 22.2688C62.7113 22.048 62.5437 21.91 62.3189 21.8271C62.1231 21.7442 61.7301 21.7164 61.1984 21.7164H59.6868V24.449H59.6875ZM59.6875 28.6447H61.5631C61.9555 28.6447 62.2631 28.5897 62.4595 28.534C62.733 28.4294 62.9609 28.2343 63.1042 27.9821C63.2725 27.7613 63.3271 27.4303 63.3271 27.0715C63.3271 26.7127 63.2718 26.4367 63.1319 26.188C62.9906 25.9672 62.796 25.7742 62.543 25.6634C62.3189 25.5533 61.9266 25.4976 61.4225 25.4976H59.6862V28.6447H59.6875ZM67.8367 29.6933V25.8564L64.9529 20.6393H66.1569L67.6403 23.3719C67.9244 23.8758 68.1862 24.3916 68.4249 24.9179C68.649 24.4212 68.9008 23.8965 69.2378 23.3169L70.6942 20.6393H71.8417L68.8455 25.8564V29.6933H67.8367Z" fill="#00678C"/>
</svg>
