<svg width="522" height="450" viewBox="0 0 522 450" fill="none" xmlns="http://www.w3.org/2000/svg">
<g clip-path="url(#clip0)">
<path d="M128.16 305.006C96.4401 305.006 66.5806 297.369 43.8678 283.271C20.2739 268.683 7.15532 249.102 6.76372 227.955C6.37212 206.807 19.0012 186.737 42.1056 171.464C65.1121 156.19 95.9506 147.575 128.845 146.987C196.788 145.91 252.688 180.471 253.374 223.941C254.059 267.508 199.333 303.831 131.292 304.908C130.313 305.006 129.237 305.006 128.16 305.006ZM131.88 147.966C130.803 147.966 129.824 147.966 128.747 147.966C96.0485 148.456 65.4058 157.169 42.4972 172.247C19.6865 187.324 7.25322 207.101 7.64482 227.955C7.93852 248.711 20.9592 268.096 44.2594 282.488C67.6575 296.88 98.496 304.516 131.195 304.027C198.648 302.95 252.982 267.117 252.297 224.039C251.709 181.646 197.962 147.966 131.88 147.966Z" fill="url(#paint0_linear)"/>
<path d="M128.159 310.685C57.8673 310.685 0.693759 274.753 0.0084591 229.521C-0.383141 207.297 12.8333 186.149 37.2104 170.093C61.4896 154.037 93.9924 144.833 128.747 144.246V144.442V144.246C163.501 143.659 196.298 151.785 221.066 167.156C245.933 182.429 259.835 203.185 260.129 225.409C260.422 247.634 247.304 268.781 222.927 284.838C198.647 300.894 166.145 310.097 131.39 310.685C130.313 310.685 129.236 310.685 128.159 310.685ZM132.075 144.736C130.999 144.736 129.824 144.736 128.747 144.736C94.0903 145.323 61.6854 154.428 37.5041 170.485C13.3228 186.541 0.204259 207.493 0.497959 229.521C1.18326 275.145 59.9232 311.272 131.39 310.195C166.047 309.608 198.452 300.502 222.633 284.446C246.814 268.39 259.933 247.438 259.639 225.409C259.345 203.381 245.444 182.821 220.773 167.547C196.885 152.764 165.459 144.736 132.075 144.736Z" fill="url(#paint1_linear)"/>
<path d="M128.453 296.88C69.2235 296.88 21.0568 266.333 20.3715 228.053C19.7841 189.086 68.4403 156.68 128.942 155.701C189.445 154.722 239.178 185.66 239.765 224.528C240.059 243.522 228.898 261.536 208.241 275.145C187.78 288.656 160.466 296.39 131.292 296.88C130.313 296.88 129.334 296.88 128.453 296.88ZM131.684 158.442C130.803 158.442 129.824 158.442 128.942 158.442C70.0067 159.421 22.6232 190.555 23.2106 227.955C23.798 265.354 72.2584 295.02 131.096 294.041C159.781 293.551 186.508 286.012 206.577 272.795C226.353 259.676 237.122 242.543 236.828 224.528C236.339 187.716 189.347 158.442 131.684 158.442Z" fill="url(#paint2_linear)"/>
<path d="M131.195 290.908C187.879 290.027 233.304 259.97 232.717 223.745L232.619 209.255L27.5186 213.759V227.074C28.106 263.201 74.5105 291.887 131.195 290.908Z" fill="url(#paint3_linear)"/>
<path d="M129.041 146.596C72.4544 147.477 26.9309 177.534 27.5183 213.759C28.1057 249.983 74.5103 278.572 131.096 277.691C187.683 276.809 233.206 246.753 232.619 210.528C232.031 174.303 185.627 145.715 129.041 146.596Z" fill="url(#paint4_linear)"/>
<path d="M130.998 266.725C177.599 265.942 214.996 241.27 214.507 211.409V199.464L45.7275 203.185V214.15C46.217 243.913 84.398 267.41 130.998 266.725Z" fill="url(#paint5_linear)"/>
<path d="M129.236 147.869C82.6357 148.652 45.2379 173.324 45.7274 203.185C46.2169 232.948 84.3979 256.543 130.998 255.76C177.599 254.977 214.996 230.305 214.507 200.444C214.017 170.68 175.836 147.183 129.236 147.869Z" fill="url(#paint6_linear)"/>
<path opacity="0.31" d="M130.177 228.017C154.94 228.017 175.015 221.135 175.015 212.646C175.015 204.157 154.94 197.275 130.177 197.275C105.414 197.275 85.3389 204.157 85.3389 212.646C85.3389 221.135 105.414 228.017 130.177 228.017Z" fill="url(#paint7_linear)"/>
<path d="M334.942 446.867L131.017 329.185C127.394 327.129 125.632 324.388 125.534 321.451C125.534 321.353 125.534 311.464 125.534 311.367C125.632 307.842 128.177 314.01 133.268 311.073L248.986 244.302C258.286 238.917 272.384 238.329 280.412 243.029L484.337 360.809C486.981 362.375 488.939 355.815 489.624 357.871C489.82 358.557 489.722 367.858 489.722 368.543C489.82 372.166 487.177 375.984 481.988 378.921L366.368 445.594C357.068 450.979 342.97 451.567 334.942 446.867Z" fill="#FF6B00"/>
<path d="M334.942 436.979L131.017 319.199C122.989 314.597 123.968 306.471 133.268 301.087L248.986 234.315C258.286 228.931 272.384 228.343 280.412 233.043L484.337 350.724C492.365 355.326 491.386 363.452 482.086 368.837L366.368 435.706C357.067 440.993 342.97 441.58 334.942 436.979Z" fill="url(#paint8_linear)"/>
<path d="M348.55 436C343.948 436 339.837 435.118 336.9 433.454L133.072 315.674C131.799 314.989 129.646 313.423 129.646 311.366C129.646 309.213 131.799 306.667 135.324 304.611L251.041 237.84C255.349 235.392 261.027 233.924 266.803 233.924C271.405 233.924 275.516 234.805 278.453 236.469L482.379 354.249C483.652 354.934 485.805 356.501 485.805 358.557C485.805 360.711 483.652 363.256 480.127 365.312L364.41 432.083C360.004 434.629 354.228 436 348.55 436Z" fill="url(#paint9_linear)"/>
<path d="M482.085 367.172L366.367 433.944C357.067 439.328 342.969 439.916 334.941 435.216L131.016 317.535C127.687 315.576 125.925 313.031 125.631 310.387C125.24 313.716 127.002 316.849 131.016 319.199L334.941 436.979C342.969 441.58 357.067 441.091 366.367 435.706L482.085 368.935C487.568 365.802 490.113 361.69 489.721 357.969C489.232 361.102 486.686 364.529 482.085 367.172Z" fill="white"/>
<path d="M371.165 393.607L205.616 297.954C202.288 295.995 202.679 292.667 206.497 290.513L268.664 254.582C272.482 252.33 278.258 252.134 281.586 254.092L447.135 349.745C450.464 351.703 450.072 355.032 446.254 357.186L384.088 393.117C380.27 395.271 374.493 395.467 371.165 393.607Z" fill="#999999"/>
<path d="M272.285 261.631L282.859 267.799C284.229 268.582 286.383 268.582 287.754 267.799C289.124 267.016 289.124 265.743 287.754 264.96L277.18 258.792C275.81 258.008 273.656 258.008 272.285 258.792C270.915 259.575 270.915 260.848 272.285 261.631ZM290.495 272.107L295.488 275.044C296.858 275.827 299.012 275.827 300.383 275.044C301.753 274.261 301.753 272.988 300.383 272.205L295.39 269.267C294.019 268.484 291.865 268.484 290.495 269.267C289.124 270.051 289.124 271.323 290.495 272.107ZM303.026 279.352L308.019 282.289C309.389 283.072 311.543 283.072 312.914 282.289C314.284 281.506 314.284 280.233 312.914 279.45L307.921 276.512C306.55 275.729 304.397 275.729 303.026 276.512C301.655 277.296 301.655 278.568 303.026 279.352ZM315.655 286.597L320.648 289.534C322.018 290.317 324.172 290.317 325.543 289.534C326.913 288.751 326.913 287.478 325.543 286.695L320.55 283.757C319.179 282.974 317.026 282.974 315.655 283.757C314.284 284.639 314.284 285.813 315.655 286.597ZM328.186 293.939L333.179 296.877C334.55 297.66 336.703 297.66 338.074 296.877C339.445 296.093 339.445 294.821 338.074 294.037L333.081 291.1C331.711 290.317 329.557 290.317 328.186 291.1C326.816 291.883 326.816 293.156 328.186 293.939ZM340.815 301.184L345.808 304.122C347.179 304.905 349.333 304.905 350.703 304.122C352.074 303.338 352.074 302.066 350.703 301.282L345.71 298.345C344.34 297.562 342.186 297.562 340.815 298.345C339.445 299.128 339.445 300.401 340.815 301.184ZM353.346 308.429L358.339 311.367C359.71 312.15 361.864 312.15 363.234 311.367C364.605 310.583 364.605 309.311 363.234 308.527L358.241 305.59C356.871 304.807 354.717 304.807 353.346 305.59C351.976 306.373 351.976 307.646 353.346 308.429ZM365.976 315.674L370.968 318.612C372.339 319.395 374.493 319.395 375.863 318.612C377.234 317.828 377.234 316.556 375.863 315.772L370.871 312.835C369.5 312.052 367.346 312.052 365.976 312.835C364.605 313.618 364.605 314.891 365.976 315.674ZM378.507 322.919L383.5 325.857C384.87 326.64 387.024 326.64 388.395 325.857C389.765 325.073 389.765 323.801 388.395 323.017L383.402 320.08C382.031 319.297 379.877 319.297 378.507 320.08C377.136 320.961 377.234 322.136 378.507 322.919ZM391.136 330.262L396.129 333.199C397.499 333.983 399.653 333.983 401.024 333.199C402.394 332.416 402.394 331.143 401.024 330.36L396.031 327.423C394.66 326.64 392.506 326.64 391.136 327.423C389.765 328.206 389.765 329.479 391.136 330.262ZM403.667 337.507L408.66 340.444C410.031 341.228 412.184 341.228 413.555 340.444C414.926 339.661 414.926 338.388 413.555 337.605L408.562 334.668C407.191 333.885 405.038 333.885 403.667 334.668C402.394 335.451 402.394 336.724 403.667 337.507ZM416.296 344.752L421.289 347.689C422.66 348.473 424.813 348.473 426.184 347.689C427.555 346.906 427.555 345.633 426.184 344.85L421.191 341.913C419.821 341.13 417.667 341.13 416.296 341.913C414.926 342.696 414.926 343.969 416.296 344.752ZM429.121 352.193L434.114 355.13C435.485 355.913 437.638 355.913 439.009 355.13C440.38 354.347 440.38 353.074 439.009 352.291L434.016 349.354C432.645 348.57 430.492 348.57 429.121 349.354C427.75 350.137 427.75 351.41 429.121 352.193ZM260.929 268.582L265.237 271.128C266.803 272.009 269.25 272.009 270.817 271.128L275.124 268.582C276.691 267.701 276.691 266.232 275.124 265.351L270.817 262.806C269.25 261.925 266.803 261.925 265.237 262.806L260.929 265.351C259.46 266.232 259.46 267.603 260.929 268.582ZM283.446 278.275L287.754 275.729C289.32 274.848 289.32 273.379 287.754 272.498L283.446 269.953C281.88 269.072 279.432 269.072 277.866 269.953L273.558 272.498C271.992 273.379 271.992 274.848 273.558 275.729L277.866 278.275C279.432 279.156 281.88 279.156 283.446 278.275ZM286.187 283.072L290.495 285.618C292.061 286.499 294.509 286.499 296.075 285.618L300.383 283.072C301.949 282.191 301.949 280.722 300.383 279.841L296.075 277.296C294.509 276.414 292.061 276.414 290.495 277.296L286.187 279.841C284.621 280.722 284.621 282.191 286.187 283.072ZM298.718 290.317L303.026 292.863C304.592 293.744 307.04 293.744 308.606 292.863L312.914 290.317C314.48 289.436 314.48 287.967 312.914 287.086L308.606 284.541C307.04 283.659 304.592 283.659 303.026 284.541L298.718 287.086C297.152 287.967 297.152 289.436 298.718 290.317ZM325.543 294.429L321.235 291.883C319.669 291.002 317.221 291.002 315.655 291.883L311.347 294.429C309.781 295.31 309.781 296.779 311.347 297.66L315.655 300.205C317.221 301.087 319.669 301.087 321.235 300.205L325.543 297.66C327.011 296.779 327.011 295.31 325.543 294.429ZM338.074 301.674L333.767 299.128C332.2 298.247 329.753 298.247 328.186 299.128L323.879 301.674C322.312 302.555 322.312 304.024 323.879 304.905L328.186 307.45C329.753 308.332 332.2 308.332 333.767 307.45L338.074 304.905C339.641 304.024 339.641 302.555 338.074 301.674ZM350.703 308.919L346.396 306.373C344.829 305.492 342.382 305.492 340.815 306.373L336.508 308.919C334.941 309.8 334.941 311.269 336.508 312.15L340.815 314.695C342.382 315.576 344.829 315.576 346.396 314.695L350.703 312.15C352.172 311.269 352.172 309.8 350.703 308.919ZM363.234 316.262L358.927 313.716C357.36 312.835 354.913 312.835 353.346 313.716L349.039 316.262C347.472 317.143 347.472 318.612 349.039 319.493L353.346 322.038C354.913 322.919 357.36 322.919 358.927 322.038L363.234 319.493C364.801 318.514 364.801 317.143 363.234 316.262ZM375.863 323.507L371.556 320.961C369.989 320.08 367.542 320.08 365.976 320.961L361.668 323.507C360.102 324.388 360.102 325.857 361.668 326.738L365.976 329.283C367.542 330.164 369.989 330.164 371.556 329.283L375.863 326.738C377.43 325.759 377.332 324.388 375.863 323.507ZM388.395 330.752L384.087 328.206C382.521 327.325 380.073 327.325 378.507 328.206L374.199 330.752C372.633 331.633 372.633 333.101 374.199 333.983L378.507 336.528C380.073 337.409 382.521 337.409 384.087 336.528L388.395 333.983C389.961 333.101 389.961 331.633 388.395 330.752ZM386.828 341.228L391.136 343.773C392.702 344.654 395.15 344.654 396.716 343.773L401.024 341.228C402.59 340.346 402.59 338.878 401.024 337.997L396.716 335.451C395.15 334.57 392.702 334.57 391.136 335.451L386.828 337.997C385.262 338.878 385.262 340.346 386.828 341.228ZM413.555 345.242L409.247 342.696C407.681 341.815 405.233 341.815 403.667 342.696L399.359 345.242C397.793 346.123 397.793 347.591 399.359 348.473L403.667 351.018C405.233 351.899 407.681 351.899 409.247 351.018L413.555 348.473C415.121 347.591 415.121 346.123 413.555 345.242ZM432.058 355.913L422.17 350.137C420.604 349.256 418.156 349.256 416.59 350.137L412.282 352.682C410.716 353.564 410.716 355.032 412.282 355.913L422.17 361.69C423.737 362.571 426.184 362.571 427.75 361.69L432.058 359.144C433.527 358.263 433.527 356.794 432.058 355.913ZM249.279 275.24L259.167 281.016C260.733 281.897 263.181 281.897 264.747 281.016L269.055 278.471C270.621 277.589 270.621 276.121 269.055 275.24L259.167 269.463C257.6 268.582 255.153 268.582 253.586 269.463L249.279 272.009C247.81 272.988 247.81 274.358 249.279 275.24ZM267.488 285.715L271.796 288.261C273.362 289.142 275.81 289.142 277.376 288.261L281.684 285.715C283.25 284.834 283.25 283.366 281.684 282.485L277.376 279.939C275.81 279.058 273.362 279.058 271.796 279.939L267.488 282.485C265.922 283.464 265.922 284.834 267.488 285.715ZM284.425 295.506C285.991 296.387 288.439 296.387 290.005 295.506L294.313 292.96C295.879 292.079 295.879 290.611 294.313 289.73L290.005 287.184C288.439 286.303 285.991 286.303 284.425 287.184L280.117 289.73C278.551 290.611 278.551 292.079 280.117 292.96L284.425 295.506ZM296.956 302.751C298.523 303.632 300.97 303.632 302.536 302.751L306.844 300.205C308.41 299.324 308.41 297.856 306.844 296.975L302.536 294.429C300.97 293.548 298.523 293.548 296.956 294.429L292.649 296.975C291.082 297.856 291.082 299.324 292.649 300.205L296.956 302.751ZM309.585 301.87L305.278 304.415C303.711 305.296 303.711 306.765 305.278 307.646L309.585 310.192C311.152 311.073 313.599 311.073 315.166 310.192L319.473 307.646C321.04 306.765 321.04 305.296 319.473 304.415L315.166 301.87C313.599 300.989 311.054 300.989 309.585 301.87ZM322.41 308.919L317.515 311.758C316.145 312.541 316.145 313.814 317.515 314.695L322.41 317.535C323.781 318.318 326.032 318.318 327.403 317.535L332.298 314.695C333.669 313.912 333.669 312.639 332.298 311.758L327.403 308.919C326.032 308.136 323.781 308.136 322.41 308.919ZM334.941 316.262L330.046 319.101C328.676 319.884 328.676 321.157 330.046 322.038L334.941 324.877C336.312 325.661 338.564 325.661 339.934 324.877L344.829 322.038C346.2 321.255 346.2 319.982 344.829 319.101L339.934 316.262C338.564 315.479 336.312 315.479 334.941 316.262ZM347.57 323.507L342.675 326.346C341.305 327.129 341.305 328.402 342.675 329.283L347.57 332.122C348.941 332.906 351.193 332.906 352.563 332.122L357.458 329.283C358.829 328.5 358.829 327.227 357.458 326.346L352.563 323.507C351.193 322.724 348.941 322.724 347.57 323.507ZM360.102 330.752L355.207 333.591C353.836 334.374 353.836 335.647 355.207 336.528L360.102 339.367C361.472 340.151 363.724 340.151 365.094 339.367L369.989 336.528C371.36 335.745 371.36 334.472 369.989 333.591L365.094 330.752C363.724 329.969 361.472 329.969 360.102 330.752ZM372.731 337.997L367.836 340.836C366.465 341.619 366.465 342.892 367.836 343.773L372.731 346.612C374.101 347.396 376.353 347.396 377.724 346.612L382.619 343.773C383.989 342.99 383.989 341.717 382.619 340.836L377.724 337.997C376.353 337.213 374.101 337.213 372.731 337.997ZM390.353 353.857L395.248 351.018C396.618 350.235 396.618 348.962 395.248 348.081L390.353 345.242C388.982 344.458 386.73 344.458 385.36 345.242L380.465 348.081C379.094 348.864 379.094 350.137 380.465 351.018L385.36 353.857C386.73 354.641 388.982 354.641 390.353 353.857ZM402.982 361.102L407.877 358.263C409.247 357.48 409.247 356.207 407.877 355.326L402.982 352.487C401.611 351.703 399.359 351.703 397.989 352.487L393.094 355.326C391.723 356.109 391.723 357.382 393.094 358.263L397.989 361.102C399.359 361.886 401.611 361.886 402.982 361.102ZM420.604 362.767L415.709 359.927C414.338 359.144 412.086 359.144 410.716 359.927L405.821 362.767C404.45 363.55 404.45 364.823 405.821 365.704L410.716 368.543C412.086 369.326 414.338 369.326 415.709 368.543L420.604 365.704C422.072 364.921 421.974 363.648 420.604 362.767ZM237.433 281.799L253.195 290.904C254.565 291.688 256.817 291.688 258.188 290.904L263.083 288.065C264.453 287.282 264.453 286.009 263.083 285.128L247.321 276.023C245.95 275.24 243.699 275.24 242.328 276.023L237.433 278.862C235.964 279.743 235.964 281.016 237.433 281.799ZM260.831 295.408L265.726 298.247C267.097 299.031 269.348 299.031 270.719 298.247L275.614 295.408C276.985 294.625 276.985 293.352 275.614 292.471L270.719 289.632C269.348 288.848 267.097 288.848 265.726 289.632L260.831 292.471C259.46 293.254 259.46 294.625 260.831 295.408ZM273.46 302.653L278.355 305.492C279.726 306.275 281.977 306.275 283.348 305.492L288.243 302.653C289.614 301.87 289.614 300.597 288.243 299.716L283.348 296.877C281.977 296.093 279.726 296.093 278.355 296.877L273.46 299.716C272.09 300.597 272.09 301.87 273.46 302.653ZM285.991 309.898L290.886 312.737C292.257 313.52 294.509 313.52 295.879 312.737L300.774 309.898C302.145 309.115 302.145 307.842 300.774 306.961L295.879 304.122C294.509 303.338 292.257 303.338 290.886 304.122L285.991 306.961C284.621 307.842 284.621 309.115 285.991 309.898ZM308.508 319.982L313.403 317.143C314.774 316.36 314.774 315.087 313.403 314.206L308.508 311.367C307.138 310.583 304.886 310.583 303.515 311.367L298.62 314.206C297.25 314.989 297.25 316.262 298.62 317.143L303.515 319.982C304.886 320.765 307.138 320.863 308.508 319.982ZM321.137 327.325L326.032 324.486C327.403 323.703 327.403 322.43 326.032 321.549L321.137 318.709C319.767 317.926 317.515 317.926 316.145 318.709L311.25 321.549C309.879 322.332 309.879 323.605 311.25 324.486L316.145 327.325C317.515 328.108 319.767 328.108 321.137 327.325ZM333.669 334.57L338.564 331.731C339.934 330.948 339.934 329.675 338.564 328.794L333.669 325.954C332.298 325.171 330.046 325.171 328.676 325.954L323.781 328.794C322.41 329.577 322.41 330.85 323.781 331.731L328.676 334.57C330.046 335.353 332.298 335.353 333.669 334.57ZM346.298 341.815L351.193 338.976C352.563 338.193 352.563 336.92 351.193 336.039L346.298 333.199C344.927 332.416 342.675 332.416 341.305 333.199L336.41 336.039C335.039 336.822 335.039 338.095 336.41 338.976L341.305 341.815C342.675 342.598 344.927 342.598 346.298 341.815ZM358.829 349.06L363.724 346.221C365.094 345.438 365.094 344.165 363.724 343.284L358.829 340.444C357.458 339.661 355.207 339.661 353.836 340.444L348.941 343.284C347.57 344.067 347.57 345.34 348.941 346.221L353.836 349.06C355.207 349.843 357.458 349.843 358.829 349.06ZM371.458 356.305L376.353 353.466C377.724 352.682 377.724 351.41 376.353 350.529L371.458 347.689C370.087 346.906 367.836 346.906 366.465 347.689L361.57 350.529C360.199 351.312 360.199 352.585 361.57 353.466L366.465 356.305C367.836 357.088 370.087 357.186 371.458 356.305ZM374.101 360.809L378.996 363.648C380.367 364.431 382.619 364.431 383.989 363.648L388.884 360.809C390.255 360.025 390.255 358.753 388.884 357.871L383.989 355.032C382.619 354.249 380.367 354.249 378.996 355.032L374.101 357.871C372.731 358.655 372.731 360.025 374.101 360.809ZM408.954 369.522L396.52 362.375C395.15 361.592 392.898 361.592 391.527 362.375L386.632 365.214C385.262 365.998 385.262 367.27 386.632 368.151L399.066 375.299C400.436 376.082 402.688 376.082 404.059 375.299L408.954 372.459C410.324 371.676 410.324 370.305 408.954 369.522ZM225.783 288.946L248.202 301.87C249.768 302.751 252.314 302.751 253.88 301.87L258.09 299.422C259.656 298.541 259.656 297.072 258.09 296.191L235.671 283.268C234.104 282.387 231.559 282.387 229.993 283.268L225.783 285.715C224.216 286.597 224.216 287.967 225.783 288.946ZM256.523 306.667L260.733 309.115C262.3 309.996 264.845 309.996 266.411 309.115L270.621 306.667C272.187 305.786 272.187 304.317 270.621 303.436L266.411 300.989C264.845 300.108 262.3 300.108 260.733 300.989L256.523 303.436C254.957 304.317 254.957 305.786 256.523 306.667ZM269.153 313.912L273.362 316.36C274.929 317.241 277.474 317.241 279.04 316.36L283.25 313.912C284.817 313.031 284.817 311.562 283.25 310.681L279.04 308.234C277.474 307.352 274.929 307.352 273.362 308.234L269.153 310.681C267.488 311.562 267.586 313.031 269.153 313.912ZM281.684 321.157L285.893 323.605C287.46 324.486 290.005 324.486 291.572 323.605L295.781 321.157C297.348 320.276 297.348 318.807 295.781 317.926L291.572 315.479C290.005 314.597 287.46 314.597 285.893 315.479L281.684 317.926C280.117 318.807 280.117 320.276 281.684 321.157ZM294.313 328.5L298.523 330.948C300.089 331.829 302.634 331.829 304.201 330.948L308.41 328.5C309.977 327.619 309.977 326.15 308.41 325.269L304.201 322.821C302.634 321.94 300.089 321.94 298.523 322.821L294.313 325.269C292.649 326.052 292.746 327.521 294.313 328.5ZM306.844 335.745L311.054 338.193C312.62 339.074 315.166 339.074 316.732 338.193L320.942 335.745C322.508 334.864 322.508 333.395 320.942 332.514L316.732 330.066C315.166 329.185 312.62 329.185 311.054 330.066L306.844 332.514C305.278 333.395 305.278 334.864 306.844 335.745ZM319.473 342.99L323.683 345.438C325.249 346.319 327.795 346.319 329.361 345.438L333.571 342.99C335.137 342.109 335.137 340.64 333.571 339.759L329.361 337.311C327.795 336.43 325.249 336.43 323.683 337.311L319.473 339.759C317.907 340.64 317.907 342.109 319.473 342.99ZM332.004 350.235L336.214 352.682C337.78 353.564 340.326 353.564 341.892 352.682L346.102 350.235C347.668 349.354 347.668 347.885 346.102 347.004L341.892 344.556C340.326 343.675 337.78 343.675 336.214 344.556L332.004 347.004C330.438 347.885 330.438 349.354 332.004 350.235ZM344.633 357.48L348.843 359.927C350.409 360.809 352.955 360.809 354.521 359.927L358.731 357.48C360.297 356.599 360.297 355.13 358.731 354.249L354.521 351.801C352.955 350.92 350.409 350.92 348.843 351.801L344.633 354.249C343.067 355.13 343.067 356.599 344.633 357.48ZM357.165 364.823L361.374 367.27C362.941 368.151 365.486 368.151 367.052 367.27L371.262 364.823C372.829 363.942 372.829 362.473 371.262 361.592L367.052 359.144C365.486 358.263 362.941 358.263 361.374 359.144L357.165 361.592C355.598 362.375 355.598 363.844 357.165 364.823ZM369.794 372.068L374.003 374.515C375.57 375.396 378.115 375.396 379.682 374.515L383.891 372.068C385.458 371.187 385.458 369.718 383.891 368.837L379.682 366.389C378.115 365.508 375.57 365.508 374.003 366.389L369.794 368.837C368.227 369.718 368.227 371.187 369.794 372.068ZM396.716 376.278L392.506 373.83C390.94 372.949 388.395 372.949 386.828 373.83L382.619 376.278C381.052 377.159 381.052 378.627 382.619 379.508L386.828 381.956C388.395 382.837 390.94 382.837 392.506 381.956L396.716 379.508C398.283 378.627 398.283 377.159 396.716 376.278ZM233.811 295.604L224.021 289.925C222.454 289.044 219.909 289.044 218.343 289.925L214.133 292.373C212.566 293.254 212.566 294.723 214.133 295.604L223.923 301.282C225.489 302.163 228.035 302.163 229.601 301.282L233.811 298.835C235.377 297.954 235.377 296.485 233.811 295.604ZM246.342 302.849L242.132 300.401C240.566 299.52 238.02 299.52 236.454 300.401L232.244 302.849C230.678 303.73 230.678 305.199 232.244 306.08L236.454 308.527C238.02 309.408 240.566 309.408 242.132 308.527L246.342 306.08C248.006 305.296 248.006 303.828 246.342 302.849ZM258.971 310.192L254.761 307.744C253.195 306.863 250.649 306.863 249.083 307.744L244.873 310.192C243.307 311.073 243.307 312.541 244.873 313.423L249.083 315.87C250.649 316.751 253.195 316.751 254.761 315.87L258.971 313.423C260.537 312.541 260.537 311.073 258.971 310.192ZM347.081 361.004L267.39 314.989C265.824 314.108 263.279 314.108 261.712 314.989L257.502 317.437C255.936 318.318 255.936 319.786 257.502 320.668L337.193 366.683C338.759 367.564 341.305 367.564 342.871 366.683L347.081 364.235C348.647 363.354 348.647 361.886 347.081 361.004ZM359.612 368.249L355.402 365.802C353.836 364.921 351.291 364.921 349.724 365.802L345.514 368.249C343.948 369.131 343.948 370.599 345.514 371.48L349.724 373.928C351.291 374.809 353.836 374.809 355.402 373.928L359.612 371.48C361.178 370.697 361.178 369.228 359.612 368.249ZM372.241 375.592L368.031 373.145C366.465 372.263 363.92 372.263 362.353 373.145L358.144 375.592C356.577 376.473 356.577 377.942 358.144 378.823L362.353 381.271C363.92 382.152 366.465 382.152 368.031 381.271L372.241 378.823C373.808 377.942 373.808 376.473 372.241 375.592ZM385.066 382.935L380.856 380.487C379.29 379.606 376.745 379.606 375.178 380.487L370.968 382.935C369.402 383.816 369.402 385.285 370.968 386.166L375.178 388.614C376.745 389.495 379.29 389.495 380.856 388.614L385.066 386.166C386.632 385.285 386.632 383.914 385.066 382.935Z" fill="url(#paint10_linear)"/>
<path d="M481.106 349.158L284.621 235.686C276.985 231.28 270.817 219.532 270.817 209.35V55.1492C270.817 44.967 276.985 40.3655 284.621 44.7712L481.106 158.243C488.743 162.649 494.91 174.397 494.91 184.58V338.682C494.812 348.864 488.645 353.564 481.106 349.158Z" fill="url(#paint11_linear)"/>
<path d="M482.869 341.228L288.44 228.931C282.272 225.014 278.552 217.28 278.552 209.35V54.4638C278.552 52.6036 280.608 51.4288 282.272 52.4078C282.468 52.5057 282.566 52.6036 282.664 52.7016L477.191 165.096C484.435 169.306 487.079 176.747 487.079 184.677V339.172C487.079 341.228 484.925 342.5 483.163 341.423C483.065 341.326 482.967 341.228 482.869 341.228Z" fill="url(#paint12_linear)"/>
<path d="M477.191 164.999L282.664 52.6036C282.566 52.5057 282.468 52.5057 282.272 52.3099C280.608 51.3309 278.552 52.5057 278.552 54.3659V209.252C278.552 217.182 282.37 225.014 288.44 228.833L482.869 341.228C482.967 341.228 483.065 341.325 483.163 341.423C484.925 342.402 487.079 341.13 487.079 339.172V184.58C487.079 176.649 484.533 169.209 477.191 164.999ZM485.61 339.074C485.61 339.759 485.023 340.151 484.533 340.151C484.337 340.151 484.142 340.151 484.044 340.053L289.223 227.56C283.74 224.035 280.118 216.888 280.118 209.252V54.4638C280.118 53.8764 280.608 53.5827 280.999 53.5827C281.195 53.5827 281.293 53.5827 281.489 53.6806L476.505 166.369C484.044 170.677 485.61 178.705 485.61 184.677V339.074Z" fill="url(#paint13_linear)"/>
<path d="M485.023 156.187L288.538 42.7152C285.503 40.9529 282.762 40.6592 280.51 41.5404C280.216 41.6383 276.398 43.6943 276.104 43.8901C278.454 42.7152 281.391 43.0089 284.72 44.8691L481.205 158.341C488.841 162.747 495.009 174.495 495.009 184.677V338.78C495.009 345.144 492.561 349.256 488.939 350.529C489.233 350.529 489.624 350.431 490.114 350.137C490.31 350.039 494.421 347.689 494.617 347.591C497.26 345.731 498.827 342.011 498.827 336.822V182.524C498.729 172.341 492.561 160.593 485.023 156.187Z" fill="#FF6B00"/>
<path d="M481.792 157.949L285.307 44.4775C282.174 42.7152 279.335 42.4215 276.985 43.4005C278.943 43.1068 281.195 43.5963 283.643 44.967L480.128 158.439C487.764 162.845 493.932 174.593 493.932 184.775V338.878C493.932 344.85 491.778 348.962 488.449 350.333C492.659 349.647 495.596 345.34 495.596 338.388V184.286C495.498 174.104 489.33 162.355 481.792 157.949Z" fill="url(#paint14_radial)"/>
<path d="M483.949 362.234L272.873 241.658L276.985 234.413L489.111 357.071L483.949 362.234Z" fill="url(#paint15_linear)"/>
<ellipse cx="129.076" cy="122.63" rx="83.2059" ry="83.1754" fill="#5EB7FC"/>
<path d="M99.334 133.384H105.734V161.029H99.334V133.384Z" fill="#193187"/>
<path d="M124.781 139.466C127.415 139.466 129.535 140.256 131.142 141.835C132.775 143.415 133.591 145.758 133.591 148.865V161.029H127.428V149.813C127.428 148.128 127.059 146.877 126.322 146.061C125.584 145.219 124.518 144.797 123.122 144.797C121.568 144.797 120.33 145.284 119.408 146.259C118.486 147.206 118.025 148.628 118.025 150.524V161.029H111.862V139.782H117.749V142.27C118.565 141.375 119.579 140.69 120.791 140.216C122.002 139.716 123.332 139.466 124.781 139.466Z" fill="#193187"/>
<path d="M149.681 161.344C147.416 161.344 145.374 160.884 143.557 159.962C141.766 159.014 140.357 157.711 139.33 156.053C138.329 154.394 137.829 152.511 137.829 150.405C137.829 148.299 138.329 146.417 139.33 144.758C140.357 143.099 141.766 141.809 143.557 140.888C145.374 139.94 147.416 139.466 149.681 139.466C151.919 139.466 153.868 139.94 155.528 140.888C157.213 141.809 158.438 143.139 159.202 144.876L154.421 147.443C153.315 145.495 151.722 144.521 149.641 144.521C148.034 144.521 146.704 145.047 145.651 146.101C144.597 147.154 144.071 148.589 144.071 150.405C144.071 152.222 144.597 153.657 145.651 154.71C146.704 155.763 148.034 156.289 149.641 156.289C151.748 156.289 153.342 155.315 154.421 153.367L159.202 155.974C158.438 157.659 157.213 158.975 155.528 159.923C153.868 160.871 151.919 161.344 149.681 161.344Z" fill="#193187"/>
<path d="M77.2132 123.726C75.0272 123.726 72.9074 123.437 70.853 122.857C68.825 122.252 67.192 121.475 65.9541 120.527L68.1267 115.709C69.3119 116.578 70.7215 117.276 72.3544 117.802C73.9874 118.329 75.6196 118.592 77.2526 118.592C79.0699 118.592 80.4135 118.329 81.2826 117.802C82.1518 117.249 82.5863 116.525 82.5863 115.63C82.5863 114.972 82.323 114.432 81.7962 114.011C81.2958 113.564 80.637 113.208 79.8206 112.945C79.0304 112.682 77.951 112.392 76.5814 112.076C74.4744 111.576 72.7492 111.076 71.406 110.575C70.0628 110.075 68.9042 109.272 67.9297 108.166C66.9816 107.061 66.5071 105.586 66.5071 103.743C66.5071 102.137 66.9416 100.689 67.8108 99.3991C68.6799 98.0827 69.9836 97.0428 71.7219 96.2793C73.4865 95.5158 75.6332 95.1339 78.1616 95.1339C79.9262 95.1339 81.6514 95.3446 83.337 95.7659C85.0226 96.1871 86.4975 96.7927 87.7617 97.5825L85.7861 102.44C83.2313 100.992 80.677 100.268 78.1222 100.268C76.3313 100.268 75.0007 100.558 74.1316 101.137C73.2888 101.716 72.868 102.479 72.868 103.427C72.868 104.375 73.3548 105.086 74.3293 105.56C75.3301 106.007 76.8449 106.455 78.8729 106.903C80.9799 107.403 82.7051 107.903 84.0483 108.403C85.3916 108.903 86.5371 109.693 87.4852 110.773C88.4597 111.852 88.9465 113.313 88.9465 115.156C88.9465 116.736 88.4989 118.184 87.6034 119.501C86.7342 120.791 85.4175 121.817 83.6529 122.581C81.8883 123.344 79.7416 123.726 77.2132 123.726Z" fill="white"/>
<path d="M105.448 101.69C107.424 101.69 109.215 102.15 110.822 103.072C112.455 103.967 113.731 105.244 114.653 106.903C115.575 108.535 116.036 110.444 116.036 112.629C116.036 114.814 115.575 116.736 114.653 118.395C113.731 120.027 112.455 121.304 110.822 122.225C109.215 123.121 107.424 123.568 105.448 123.568C102.736 123.568 100.602 122.713 99.0481 121.001V130.914H92.8857V102.006H98.7716V104.454C100.299 102.611 102.525 101.69 105.448 101.69ZM104.382 118.513C105.962 118.513 107.253 117.987 108.254 116.934C109.281 115.854 109.794 114.419 109.794 112.629C109.794 110.839 109.281 109.417 108.254 108.364C107.253 107.284 105.962 106.745 104.382 106.745C102.802 106.745 101.498 107.284 100.471 108.364C99.4699 109.417 98.9693 110.839 98.9693 112.629C98.9693 114.419 99.4699 115.854 100.471 116.934C101.498 117.987 102.802 118.513 104.382 118.513Z" fill="white"/>
<path d="M140.982 112.708C140.982 112.787 140.942 113.34 140.863 114.367H124.784C125.073 115.683 125.758 116.723 126.838 117.486C127.918 118.25 129.262 118.632 130.868 118.632C131.974 118.632 132.949 118.474 133.791 118.158C134.661 117.815 135.464 117.289 136.201 116.578L139.48 120.132C137.479 122.423 134.555 123.568 130.71 123.568C128.313 123.568 126.193 123.107 124.35 122.186C122.506 121.238 121.083 119.935 120.083 118.276C119.082 116.618 118.582 114.735 118.582 112.629C118.582 110.549 119.069 108.68 120.043 107.021C121.044 105.336 122.401 104.033 124.113 103.111C125.851 102.164 127.786 101.69 129.92 101.69C132 101.69 133.884 102.137 135.569 103.032C137.255 103.928 138.572 105.218 139.52 106.903C140.494 108.561 140.982 110.496 140.982 112.708ZM129.959 106.35C128.563 106.35 127.392 106.745 126.443 107.534C125.495 108.324 124.916 109.404 124.705 110.773H135.174C134.963 109.43 134.384 108.364 133.436 107.574C132.488 106.758 131.329 106.35 129.959 106.35Z" fill="white"/>
<path d="M153.079 101.69C156.371 101.69 158.9 102.479 160.664 104.059C162.429 105.612 163.311 107.969 163.311 111.128V123.252H157.543V120.606C156.385 122.581 154.225 123.568 151.064 123.568C149.431 123.568 148.009 123.292 146.798 122.739C145.613 122.186 144.704 121.422 144.072 120.448C143.439 119.474 143.123 118.368 143.123 117.131C143.123 115.156 143.861 113.603 145.336 112.471C146.837 111.339 149.141 110.773 152.249 110.773H157.148C157.148 109.43 156.74 108.403 155.924 107.692C155.107 106.955 153.882 106.587 152.249 106.587C151.116 106.587 149.998 106.771 148.892 107.14C147.812 107.482 146.89 107.956 146.126 108.561L143.913 104.257C145.072 103.44 146.455 102.809 148.061 102.361C149.694 101.913 151.367 101.69 153.079 101.69ZM152.605 119.421C153.659 119.421 154.594 119.185 155.41 118.711C156.227 118.21 156.806 117.486 157.148 116.539V114.367H152.921C150.393 114.367 149.128 115.196 149.128 116.855C149.128 117.644 149.431 118.276 150.037 118.75C150.669 119.198 151.525 119.421 152.605 119.421Z" fill="white"/>
<path d="M178.015 114.919L175.052 117.842V123.252H168.889V93.9492H175.052V110.536L184.059 102.006H191.407L182.558 111.01L192.197 123.252H184.731L178.015 114.919Z" fill="white"/>
<path d="M449.746 192.577L450.059 132.084L449.746 192.577Z" fill="#F3F7FF"/>
<path d="M449.75 192.577L449.594 243.222C449.594 246.036 451.627 249.475 453.972 250.881L517.146 287.302C519.647 288.709 521.68 287.615 521.68 284.801L521.837 234.156L449.75 192.577Z" fill="#F3F7FF"/>
<path d="M485.87 206.958C474.455 200.393 465.229 184.449 465.385 171.475C465.385 158.345 474.611 153.186 486.026 159.751C497.441 166.317 506.667 182.26 506.51 195.234C506.51 208.365 497.285 213.523 485.87 206.958ZM517.613 166.004L454.439 129.583C451.937 128.176 449.904 129.27 449.904 132.084L449.748 192.577L521.835 234.156L521.991 173.663C522.147 170.85 520.114 167.411 517.613 166.004Z" fill="#384B8F"/>
<path d="M501.04 229.155L469.922 211.179C469.453 210.866 469.141 211.179 469.141 211.648V211.804C469.141 212.273 469.453 212.898 469.922 213.054L501.04 231.03C501.509 231.343 501.822 231.03 501.822 230.561V230.405C501.822 229.936 501.509 229.311 501.04 229.155Z" fill="#384B8F"/>
<path d="M507.136 239.783L463.822 214.773C463.353 214.461 463.04 214.773 463.04 215.242V215.399C463.04 215.868 463.353 216.493 463.822 216.649L507.136 241.659C507.605 241.972 507.918 241.659 507.918 241.19V241.034C507.918 240.721 507.605 240.096 507.136 239.783Z" fill="#384B8F"/>
<path d="M507.136 246.036L463.822 221.026C463.353 220.713 463.04 221.026 463.04 221.495V221.651C463.04 222.12 463.353 222.745 463.822 222.902L507.136 247.912C507.605 248.224 507.918 247.912 507.918 247.443V247.286C507.918 246.974 507.605 246.349 507.136 246.036Z" fill="#384B8F"/>
<path d="M501.04 249.943L469.922 231.967C469.453 231.655 469.141 231.967 469.141 232.436V232.593C469.141 233.062 469.453 233.687 469.922 233.843L501.04 251.819C501.509 252.132 501.822 251.819 501.822 251.35V251.194C501.822 250.725 501.509 250.1 501.04 249.943Z" fill="#384B8F"/>
<path d="M507.136 260.73L463.822 235.72C463.353 235.407 463.04 235.72 463.04 236.189V236.345C463.04 236.814 463.353 237.439 463.822 237.595L507.136 262.605C507.605 262.918 507.918 262.605 507.918 262.136V261.98C507.918 261.511 507.605 260.886 507.136 260.73Z" fill="#384B8F"/>
<path d="M507.136 266.982L463.822 241.972C463.353 241.659 463.04 241.972 463.04 242.441V242.597C463.04 243.066 463.353 243.691 463.822 243.848L507.136 268.858C507.605 269.17 507.918 268.858 507.918 268.389V268.233C507.918 267.764 507.449 267.138 507.136 266.982Z" fill="#384B8F"/>
<path d="M485.873 203.362C485.091 202.894 484.309 202.425 483.684 201.956C483.371 201.799 483.059 201.487 482.746 201.174C478.993 198.204 475.553 193.984 473.207 189.451C470.393 184.292 468.672 178.509 468.672 173.194C468.672 162.096 476.491 157.719 486.186 163.19C495.881 168.817 503.543 182.26 503.543 193.202C503.543 198.204 501.979 201.799 499.321 203.831C496.975 205.707 493.692 206.02 489.939 204.926C489.626 204.769 489.313 204.769 489.001 204.613C487.906 204.3 486.968 203.831 485.873 203.362ZM486.03 159.751C474.615 153.186 465.389 158.501 465.389 171.475C465.389 184.605 474.615 200.393 485.873 206.958C497.288 213.523 506.514 208.208 506.514 195.234C506.67 182.104 497.445 166.316 486.03 159.751Z" fill="white"/>
<path d="M486.028 163.346C476.49 157.875 468.515 162.252 468.515 173.35C468.515 178.509 470.235 184.292 473.049 189.607C475.551 194.14 478.835 198.36 482.588 201.33C482.901 201.643 483.213 201.799 483.526 202.112C484.308 202.581 484.933 203.206 485.715 203.519C486.654 204.144 487.748 204.613 488.686 204.925C488.999 205.082 489.312 205.238 489.625 205.238C493.377 206.332 496.505 206.02 499.007 204.144C501.665 202.112 503.229 198.517 503.229 193.515C503.385 182.416 495.567 168.817 486.028 163.346Z" fill="#384B8F"/>
<path d="M481.65 186.95C479.461 186.481 474.77 185.231 474.301 185.856C474.144 186.168 473.675 187.732 473.206 189.607C475.708 194.14 478.992 198.361 482.745 201.331L481.65 186.95Z" fill="white"/>
<path d="M486.028 167.88C482.588 166.004 481.806 168.505 481.806 168.505C478.522 167.254 479.148 173.663 479.461 175.383C479.304 175.539 479.304 175.852 479.304 176.008C479.304 177.258 480.086 178.978 480.868 179.447L481.024 179.603C481.024 179.916 481.181 180.228 481.181 180.541C481.493 181.791 482.119 183.511 482.901 185.23C482.901 185.856 482.744 186.637 482.588 186.794L486.028 191.952L489.468 190.858V190.701C489.312 190.232 489.156 189.451 489.156 188.669C490.094 188.044 490.563 186.95 490.876 186.012C491.032 185.856 491.032 185.543 491.032 185.23L491.188 185.387C491.814 185.856 492.752 184.918 492.752 183.824C492.752 183.198 492.596 182.729 492.283 182.26C494.316 177.571 491.501 172.1 487.123 168.661C486.966 168.349 486.497 168.192 486.028 167.88Z" fill="white"/>
<path d="M490.876 192.264L489.781 205.082C493.534 206.176 496.662 205.864 499.164 203.988C498.694 201.8 498.382 200.08 498.069 199.455C497.6 198.361 493.221 194.453 490.876 192.264Z" fill="white"/>
<path d="M486.341 192.577L484.308 193.046L484.777 195.234L483.683 201.956C484.464 202.425 485.09 203.05 485.872 203.363C486.81 203.988 487.905 204.457 488.843 204.769L487.748 196.797L488.217 195.234L486.341 192.577Z" fill="white"/>
<path d="M484.15 119.266L486.496 126.3C486.496 126.457 486.652 126.613 486.652 126.613L492.282 130.833C492.594 131.146 492.594 131.771 492.125 131.928L488.685 133.803C488.372 133.96 488.372 134.272 488.372 134.429L489.154 139.899C489.311 140.525 488.372 140.837 488.06 140.368L483.838 135.366C483.681 135.21 483.525 135.054 483.369 135.21L478.521 135.366C478.052 135.366 477.739 135.054 477.896 134.585L478.834 128.801C478.834 128.645 478.834 128.489 478.677 128.332L475.081 122.08C474.768 121.611 475.237 120.829 475.863 121.142L480.085 122.861C480.398 123.018 480.71 122.861 480.867 122.549L482.743 119.11C483.212 118.641 483.994 118.641 484.15 119.266Z" fill="#5EB7FC"/>
<path d="M502.601 130.208L504.946 137.242C504.946 137.399 505.103 137.555 505.103 137.555L510.732 141.775C511.045 142.088 511.045 142.713 510.575 142.87L507.135 144.745C506.823 144.902 506.823 145.214 506.823 145.371L507.604 150.842C507.761 151.467 506.823 151.779 506.51 151.311L502.288 146.309C502.132 146.152 501.975 145.996 501.819 146.152L496.971 146.309C496.502 146.309 496.19 145.996 496.346 145.527L497.284 139.743C497.284 139.587 497.284 139.431 497.128 139.274L493.531 133.022C493.218 132.553 493.688 131.771 494.313 132.084L498.535 133.803C498.848 133.96 499.161 133.803 499.317 133.491L501.193 130.052C501.819 129.583 502.444 129.583 502.601 130.208Z" fill="#5EB7FC"/>
<path opacity="0.19" d="M457.881 131.459L454.441 129.427C451.939 128.02 449.907 129.114 449.907 131.928L449.75 192.421L449.594 243.066C449.594 245.879 451.627 249.318 453.972 250.725L457.725 252.914V131.459H457.881Z" fill="#3D3D3D"/>
<path d="M334.66 126.457L334.973 29.5428L334.504 207.427C334.504 211.96 337.631 217.431 341.541 219.775L442.555 278.08C446.465 280.425 449.748 278.549 449.748 274.016L449.905 193.046L334.66 126.457Z" fill="#F3F7FF"/>
<path d="M392.366 149.435C374.227 138.962 359.528 113.483 359.528 92.5369C359.528 71.591 374.383 63.1501 392.522 73.7794C410.661 84.2523 425.36 109.731 425.36 130.677C425.36 151.623 410.505 159.908 392.366 149.435ZM443.029 83.7834L342.015 25.4788C338.105 23.1341 334.822 25.0099 334.822 29.5429L334.509 126.457L449.753 193.046L450.066 96.1321C450.222 91.599 446.939 86.1281 443.029 83.7834Z" fill="#FF6B00"/>
<path d="M416.599 184.761L366.873 156.156C366.248 155.844 365.622 156.156 365.622 156.781V157.094C365.622 157.876 366.091 158.814 366.873 159.126L416.599 187.731C417.224 188.044 417.85 187.888 417.85 187.106V186.793C417.85 186.012 417.224 185.074 416.599 184.761Z" fill="#1C4C7F"/>
<path d="M426.293 201.956L357.021 161.94C356.396 161.627 355.771 161.94 355.771 162.565V162.878C355.771 163.659 356.24 164.597 357.021 164.91L426.293 204.926C426.919 205.238 427.544 204.926 427.544 204.301V203.988C427.544 203.206 427.075 202.425 426.293 201.956Z" fill="#1C4C7F"/>
<path d="M426.293 211.96L357.021 171.943C356.396 171.631 355.771 171.943 355.771 172.569V172.881C355.771 173.663 356.24 174.601 357.021 174.913L426.293 214.929C426.919 215.242 427.544 215.086 427.544 214.304V213.992C427.544 213.21 426.919 212.272 426.293 211.96Z" fill="#1C4C7F"/>
<path d="M416.441 218.056L366.716 189.45C366.09 189.138 365.465 189.45 365.465 190.076V190.388C365.465 191.17 365.934 192.108 366.716 192.42L416.441 221.026C417.067 221.338 417.692 221.182 417.692 220.4V220.088C417.692 219.306 417.223 218.368 416.441 218.056Z" fill="#1C4C7F"/>
<path d="M426.293 235.251L357.021 195.235C356.396 194.922 355.771 195.235 355.771 195.86V196.172C355.771 196.954 356.24 197.892 357.021 198.205L426.293 238.221C426.919 238.533 427.544 238.221 427.544 237.595V237.283C427.388 236.501 426.919 235.563 426.293 235.251Z" fill="#1C4C7F"/>
<path d="M426.293 245.255L357.021 205.238C356.396 204.926 355.771 205.082 355.771 205.864V206.176C355.771 206.958 356.24 207.896 357.021 208.208L426.293 248.224C426.919 248.537 427.544 248.381 427.544 247.599V247.287C427.388 246.505 426.919 245.567 426.293 245.255Z" fill="#1C4C7F"/>
<path d="M392.362 143.651C391.111 143.026 390.017 142.244 388.766 141.306C388.296 140.994 387.827 140.525 387.202 140.212C381.103 135.523 375.787 128.801 371.878 121.455C367.343 113.17 364.528 103.948 364.528 95.5068C364.528 77.8435 377.038 70.6531 392.518 79.5629C407.843 88.4728 420.352 109.888 420.196 127.551C420.196 135.523 417.538 141.306 413.316 144.589C409.406 147.403 404.246 148.184 398.461 146.308C397.991 146.152 397.366 145.996 396.897 145.839C395.489 145.214 393.926 144.433 392.362 143.651ZM392.518 73.7794C374.38 63.3064 359.524 71.7473 359.524 92.5369C359.524 113.326 374.223 138.805 392.362 149.435C410.501 159.908 425.356 151.467 425.356 130.677C425.356 109.888 410.657 84.2523 392.518 73.7794Z" fill="white"/>
<path d="M392.518 79.5626C377.193 70.6528 364.684 77.8432 364.527 95.5065C364.527 103.791 367.342 113.014 371.877 121.454C375.942 128.801 381.259 135.366 387.201 140.212C387.67 140.681 388.139 140.993 388.765 141.306C389.859 142.244 391.11 142.869 392.361 143.651C393.925 144.589 395.489 145.37 397.052 145.839C397.521 145.995 398.147 146.152 398.616 146.308C404.558 148.184 409.718 147.402 413.471 144.589C417.693 141.462 420.195 135.523 420.351 127.551C420.351 110.044 407.842 88.4725 392.518 79.5626Z" fill="#FF6B00"/>
<path d="M385.48 117.234C382.04 116.609 374.378 114.421 373.596 115.515C373.283 115.984 372.502 118.485 371.72 121.455C375.785 128.801 381.102 135.366 387.044 140.212L385.48 117.234Z" fill="white"/>
<path d="M392.987 88.1603C392.987 88.1603 392.831 88.1603 392.987 88.1603C387.201 85.0341 384.543 87.5351 383.448 89.8798C382.823 91.1303 382.666 92.5371 382.823 94.2565L383.136 98.1643C382.51 98.3206 382.041 98.7896 382.041 100.04C382.041 101.916 383.292 104.729 384.387 105.355L384.699 105.511C384.856 105.98 384.856 106.605 385.012 107.074C385.481 109.106 386.419 111.92 387.827 114.577C387.827 115.671 387.67 116.766 387.358 117.234L392.987 125.675L398.46 123.8V123.643C398.147 123.018 397.991 121.611 397.834 120.361C399.242 119.423 400.18 117.547 400.649 116.14C400.805 115.828 400.962 115.359 400.962 114.89C401.118 115.046 401.118 115.046 401.274 115.046C402.369 115.671 403.62 114.421 403.62 112.389C403.62 110.982 402.995 109.575 402.056 108.794L402.213 104.261C401.9 93.6313 393.925 88.6293 392.987 88.1603Z" fill="white"/>
<path d="M400.336 125.988L398.616 146.465C404.558 148.34 409.718 147.559 413.471 144.745C412.846 141.306 412.22 138.493 411.751 137.555C411.126 135.523 403.933 129.427 400.336 125.988Z" fill="white"/>
<path d="M392.988 126.457L389.86 127.082L390.642 130.521L388.766 141.306C389.86 142.244 391.111 142.869 392.362 143.651C393.926 144.589 395.49 145.37 397.053 145.839L395.333 133.178L396.271 130.677L392.988 126.457Z" fill="white"/>
<path d="M364.84 3.90739L367.811 12.6609C367.811 12.8172 367.967 12.9735 368.124 13.1298L375.16 18.4445C375.629 18.7571 375.629 19.5386 375.004 19.8513L370.626 22.196C370.313 22.3523 370.156 22.6649 370.156 22.9775L371.095 29.8553C371.251 30.6368 370.156 31.1058 369.687 30.4805L364.371 24.228C364.214 24.0717 363.902 23.9154 363.745 23.9154L357.647 24.0717C357.178 24.0717 356.709 23.6028 356.865 23.1338L358.116 15.7871C358.116 15.6308 358.116 15.4745 357.96 15.1619L353.425 7.34627C352.956 6.72102 353.738 5.93946 354.519 6.09577L359.836 8.28414C360.149 8.44045 360.618 8.28414 360.931 7.97151L363.433 3.75108C363.745 3.12583 364.684 3.12583 364.84 3.90739Z" fill="#FF6B00"/>
<path d="M388.141 17.6628L391.112 26.4163C391.112 26.5726 391.268 26.7289 391.424 26.8852L398.461 32.1998C398.93 32.5125 398.93 33.294 398.305 33.6066L393.926 35.9513C393.614 36.1077 393.457 36.4203 393.457 36.7329L394.395 43.6107C394.552 44.3922 393.457 44.8612 392.988 44.2359L387.672 37.9834C387.515 37.8271 387.202 37.6708 387.046 37.6708L380.948 37.8271C380.478 37.8271 380.009 37.3581 380.166 36.8892L381.417 29.5425C381.417 29.3862 381.417 29.2299 381.26 28.9173L376.726 21.1016C376.257 20.4764 377.038 19.6948 377.82 19.8511L383.137 22.0395C383.449 22.1958 383.919 22.0395 384.231 21.7269L386.733 17.5065C387.046 16.8812 387.984 16.8812 388.141 17.6628Z" fill="#FF6B00"/>
<path d="M412.066 31.1051L415.037 39.8586C415.037 40.015 415.194 40.1713 415.35 40.3276L422.387 45.6422C422.856 45.9548 422.856 46.7364 422.23 47.049L417.852 49.3937C417.539 49.55 417.383 49.8627 417.383 50.1753L418.321 57.053C418.478 57.8346 417.383 58.3035 416.914 57.6783L411.597 51.4258C411.441 51.2695 411.128 51.1131 410.972 51.1131L404.873 51.2695C404.404 51.2695 403.935 50.8005 404.092 50.3316L405.342 42.9849C405.342 42.8286 405.342 42.6723 405.186 42.3596L400.651 34.544C400.182 33.9188 400.964 33.1372 401.746 33.2935L407.063 35.4819C407.375 35.6382 407.844 35.4819 408.157 35.1693L410.659 30.9488C410.972 30.3236 411.91 30.3236 412.066 31.1051Z" fill="#FF6B00"/>
<path d="M435.362 44.861L438.333 53.6145C438.333 53.7708 438.49 53.9271 438.646 54.0834L445.683 59.3981C446.152 59.7107 446.152 60.4922 445.526 60.8049L441.148 63.1496C440.835 63.3059 440.679 63.6185 440.679 63.9311L441.617 70.8089C441.774 71.5904 440.679 72.0594 440.21 71.4341L434.893 65.1816C434.737 65.0253 434.424 64.869 434.268 64.869L428.169 65.0253C427.7 65.0253 427.231 64.5564 427.387 64.0874L428.638 56.7408C428.638 56.5844 428.638 56.4281 428.482 56.1155L423.947 48.2999C423.478 47.6746 424.26 46.8931 425.042 47.0494L430.358 49.2377C430.671 49.3941 431.14 49.2377 431.453 48.9251L433.955 44.7047C434.268 44.0794 435.206 44.2357 435.362 44.861Z" fill="#FF6B00"/>
<path d="M262.575 83.4717L262.732 22.9787L262.419 134.273C262.419 137.087 264.452 140.526 266.797 141.933L329.971 178.353C332.473 179.76 334.505 178.666 334.505 175.852L334.662 125.207L262.575 83.4717Z" fill="#F3F7FF"/>
<path d="M298.694 97.8519C287.279 91.2868 278.053 75.3429 278.209 62.369C278.209 49.2387 287.435 44.0804 298.85 50.6455C310.265 57.2107 319.491 73.1545 319.335 86.1285C319.335 99.2587 309.952 104.417 298.694 97.8519ZM330.437 56.898L267.263 20.4772C264.761 19.0704 262.729 20.1646 262.729 22.9782L262.572 83.4712L334.659 125.05L334.815 64.5573C334.815 61.7437 332.782 58.3048 330.437 56.898Z" fill="#5EB7FC"/>
<path d="M313.864 120.049L282.747 102.073C282.278 101.76 281.965 102.073 281.965 102.541V102.698C281.965 103.167 282.278 103.792 282.747 103.948L313.864 121.924C314.333 122.237 314.646 121.924 314.646 121.455V121.299C314.646 120.83 314.177 120.205 313.864 120.049Z" fill="#1C4C7F"/>
<path d="M319.963 130.677L276.648 105.667C276.179 105.355 275.866 105.667 275.866 106.136V106.293C275.866 106.762 276.179 107.387 276.648 107.543L319.963 132.553C320.432 132.866 320.744 132.553 320.744 132.084V131.928C320.744 131.615 320.275 130.99 319.963 130.677Z" fill="#1C4C7F"/>
<path d="M319.963 136.93L276.648 111.92C276.179 111.608 275.866 111.92 275.866 112.389V112.545C275.866 113.014 276.179 113.64 276.648 113.796L319.963 138.806C320.432 139.119 320.744 138.806 320.744 138.337V138.181C320.588 137.868 320.275 137.243 319.963 136.93Z" fill="#1C4C7F"/>
<path d="M313.708 140.838L282.59 122.862C282.121 122.55 281.809 122.862 281.809 123.331V123.487C281.809 123.956 282.121 124.582 282.59 124.738L313.708 142.714C314.177 143.027 314.49 142.714 314.49 142.245V142.089C314.49 141.62 314.177 140.994 313.708 140.838Z" fill="#1C4C7F"/>
<path d="M319.807 151.467L276.493 126.457C276.024 126.144 275.711 126.457 275.711 126.926V127.082C275.711 127.551 276.024 128.177 276.493 128.333L319.807 153.343C320.276 153.655 320.589 153.343 320.589 152.874V152.718C320.589 152.405 320.276 151.78 319.807 151.467Z" fill="#1C4C7F"/>
<path d="M319.807 157.72L276.493 132.71C276.024 132.398 275.711 132.71 275.711 133.179V133.335C275.711 133.804 276.024 134.43 276.493 134.586L319.807 159.596C320.276 159.909 320.589 159.596 320.589 159.127V158.971C320.589 158.658 320.276 158.033 319.807 157.72Z" fill="#1C4C7F"/>
<path d="M298.697 94.2571C297.916 93.7882 297.134 93.3192 296.508 92.8503C296.196 92.694 295.883 92.3813 295.57 92.0687C295.101 91.7561 294.632 91.2872 294.319 90.9745C291.035 88.1609 288.221 84.4094 286.031 80.3453C286.031 80.189 285.875 80.0326 285.875 79.8763C283.217 74.718 281.497 69.2471 281.497 64.0888C281.497 52.9906 289.315 48.6138 299.01 54.0848C308.549 59.5557 316.367 73.1549 316.367 84.0968C316.367 89.0988 314.804 92.694 312.145 94.726C311.989 94.8823 311.676 95.0387 311.52 95.195C309.331 96.6018 306.516 96.9144 303.232 95.9765C303.076 95.9765 302.919 95.8202 302.763 95.8202C302.45 95.6639 302.138 95.6639 301.825 95.5076C300.574 95.195 299.636 94.726 298.697 94.2571ZM298.697 50.4896C287.282 43.9244 278.057 49.2391 278.057 62.213C278.057 75.3433 287.282 91.1308 298.541 97.696C309.956 104.261 319.182 98.9465 319.182 85.9725C319.338 72.9986 310.112 57.0547 298.697 50.4896Z" fill="white"/>
<path d="M298.697 54.2408C289.158 48.7699 281.184 53.1467 281.184 64.2448C281.184 69.4032 282.747 74.8741 285.562 80.0324C285.562 80.1887 285.718 80.345 285.718 80.5014C287.907 84.5655 290.722 88.1607 294.006 91.1306C294.475 91.4432 294.944 91.9122 295.257 92.2248C295.57 92.5374 295.882 92.6937 296.195 93.0064C296.977 93.4753 297.759 94.1006 298.384 94.4132C299.323 95.0384 300.417 95.5074 301.355 95.82C301.668 95.9763 301.981 96.1326 302.294 96.1326C302.45 96.1326 302.606 96.2889 302.763 96.2889C305.89 97.2268 308.705 96.9142 311.05 95.5074C311.207 95.351 311.519 95.1947 311.676 95.0384C314.334 93.0064 315.898 89.4112 315.898 84.4092C316.21 73.1547 308.392 59.7118 298.697 54.2408Z" fill="#5EB7FC"/>
<path d="M300.104 60.6498C298.697 59.8683 296.977 59.5556 295.569 60.6498C295.569 60.6498 295.256 60.3372 294.787 60.1809C293.693 59.5556 291.66 58.7741 291.816 61.4314C291.973 64.245 291.347 68.3092 289.94 70.0286C289.314 70.8102 289.784 72.3733 290.722 73.4675C291.973 74.718 293.536 76.4374 295.413 77.8442C295.256 78.0005 295.1 78.1568 294.787 78.0005C293.536 77.5316 286.812 74.718 286.343 76.1248C286.187 76.5937 285.874 78.3132 285.562 80.0326C285.562 80.1889 285.718 80.3452 285.718 80.5015C287.907 84.5657 290.722 88.1609 294.005 91.1308C293.38 88.1609 293.38 85.8162 293.38 85.8162C293.536 85.9725 295.726 88.0045 298.384 89.5677C301.199 91.1308 303.231 91.4434 303.388 91.5997C303.388 91.5997 303.388 94.1007 302.762 96.2891C305.89 97.227 308.704 96.9144 311.05 95.5075C310.737 93.1629 310.424 90.9745 310.268 90.0366C309.799 88.0045 303.075 83.1588 301.824 82.0647C301.511 81.9083 301.355 81.4394 301.198 81.1268C302.762 81.752 304.482 82.0647 306.202 81.9083C307.297 81.752 307.766 80.6578 307.297 79.251C306.828 76.9063 306.046 73.1548 306.046 70.6538C306.202 67.6839 303.388 62.5256 300.104 60.6498Z" fill="white"/>
<path opacity="0.19" d="M330.441 56.8983L326.062 54.3973V176.008L330.128 178.353C332.63 179.76 334.663 178.666 334.663 175.852L334.819 125.207L334.976 64.7139C334.819 61.744 332.786 58.3051 330.441 56.8983Z" fill="#3D3D3D"/>
<path d="M281.029 0.625253L283.531 7.81563C283.531 7.97194 283.687 8.12825 283.843 8.12825L289.629 12.3487C290.098 12.6613 289.942 13.2866 289.473 13.4429L285.876 15.3186C285.563 15.4749 285.563 15.7876 285.563 15.9439L286.345 21.5711C286.502 22.1964 285.563 22.6653 285.094 22.0401L280.716 16.8818C280.56 16.7254 280.403 16.5691 280.247 16.5691L275.399 16.7254C274.93 16.7254 274.618 16.4128 274.774 15.9439L275.712 9.84769C275.712 9.69138 275.712 9.53507 275.556 9.37875L271.803 2.96994C271.49 2.34469 272.116 1.71944 272.585 2.03206L276.963 3.7515C277.276 3.90782 277.589 3.7515 277.745 3.43888L279.778 0C280.091 0.156313 280.872 0.156315 281.029 0.625253Z" fill="#5EB7FC"/>
<path d="M299.949 11.8798L302.451 19.0702C302.451 19.2265 302.607 19.3828 302.763 19.3828L308.549 23.6033C309.018 23.9159 308.862 24.5411 308.393 24.6975L304.796 26.5732C304.483 26.7295 304.483 27.0422 304.483 27.1985L305.265 32.8257C305.422 33.451 304.483 33.9199 304.014 33.2947L299.636 28.1363C299.48 27.98 299.323 27.8237 299.167 27.8237L294.319 27.98C293.85 27.98 293.538 27.6674 293.694 27.1985L294.632 21.1023C294.632 20.946 294.632 20.7896 294.476 20.6333L290.723 14.2245C290.41 13.5993 291.036 12.974 291.505 13.2866L295.883 15.0061C296.196 15.1624 296.509 15.0061 296.665 14.6935L298.698 11.2546C299.01 11.2546 299.792 11.4109 299.949 11.8798Z" fill="#5EB7FC"/>
<path d="M319.65 22.978L322.152 30.1684C322.152 30.3247 322.308 30.481 322.465 30.481L328.25 34.7015C328.719 35.0141 328.563 35.6394 328.094 35.7957L324.497 37.6714C324.185 37.8277 324.185 38.1404 324.185 38.2967L324.966 43.9239C325.123 44.5492 324.185 45.0181 323.715 44.3929L319.337 39.2345C319.181 39.0782 319.024 38.9219 318.868 38.9219L314.021 39.0782C313.551 39.0782 313.239 38.7656 313.395 38.2967L314.333 32.2005C314.333 32.0442 314.333 31.8879 314.177 31.7315L310.424 25.3227C310.111 24.6975 310.737 24.0722 311.206 24.3848L315.584 26.1043C315.897 26.2606 316.21 26.1043 316.366 25.7917L318.399 22.3528C318.712 22.3528 319.337 22.3528 319.65 22.978Z" fill="#5EB7FC"/>
</g>
<defs>
<linearGradient id="paint0_linear" x1="6.76333" y1="225.984" x2="253.388" y2="225.984" gradientUnits="userSpaceOnUse">
<stop stop-color="#40A6F4"/>
<stop offset="1" stop-color="#9BCFF7"/>
</linearGradient>
<linearGradient id="paint1_linear" x1="0.0084591" y1="227.45" x2="260.142" y2="227.45" gradientUnits="userSpaceOnUse">
<stop stop-color="#40A6F4"/>
<stop offset="1" stop-color="#C6E6FF"/>
</linearGradient>
<linearGradient id="paint2_linear" x1="20.3747" y1="226.279" x2="239.779" y2="226.279" gradientUnits="userSpaceOnUse">
<stop stop-color="#40A6F4"/>
<stop offset="1" stop-color="#193187"/>
</linearGradient>
<linearGradient id="paint3_linear" x1="27.527" y1="250.094" x2="232.731" y2="250.094" gradientUnits="userSpaceOnUse">
<stop stop-color="#6B6B6B"/>
<stop offset="0.1905" stop-color="#707070"/>
<stop offset="0.4152" stop-color="#7E7E7E"/>
<stop offset="0.657" stop-color="#969696"/>
<stop offset="0.9093" stop-color="#B7B7B7"/>
<stop offset="1" stop-color="#C5C5C5"/>
</linearGradient>
<linearGradient id="paint4_linear" x1="27.5212" y1="212.143" x2="232.633" y2="212.143" gradientUnits="userSpaceOnUse">
<stop stop-color="#525252"/>
<stop offset="0.4022" stop-color="#5E5E5E"/>
<stop offset="0.6747" stop-color="#616161"/>
<stop offset="1" stop-color="#D6D6D6"/>
</linearGradient>
<linearGradient id="paint5_linear" x1="45.7361" y1="233.102" x2="214.52" y2="233.102" gradientUnits="userSpaceOnUse">
<stop stop-color="#6B6B6B"/>
<stop offset="0.1905" stop-color="#707070"/>
<stop offset="0.4152" stop-color="#7E7E7E"/>
<stop offset="0.657" stop-color="#969696"/>
<stop offset="0.9093" stop-color="#B7B7B7"/>
<stop offset="1" stop-color="#C5C5C5"/>
</linearGradient>
<linearGradient id="paint6_linear" x1="45.7311" y1="201.816" x2="214.52" y2="201.816" gradientUnits="userSpaceOnUse">
<stop stop-color="#C5C5C5"/>
<stop offset="0.3103" stop-color="#CBCBCB"/>
<stop offset="0.6946" stop-color="#DADADA"/>
<stop offset="1" stop-color="#EBEBEB"/>
</linearGradient>
<linearGradient id="paint7_linear" x1="85.3473" y1="212.646" x2="175.024" y2="212.646" gradientUnits="userSpaceOnUse">
<stop stop-color="#6B6B6B"/>
<stop offset="0.1905" stop-color="#707070"/>
<stop offset="0.4152" stop-color="#7E7E7E"/>
<stop offset="0.657" stop-color="#969696"/>
<stop offset="0.9093" stop-color="#B7B7B7"/>
<stop offset="1" stop-color="#C5C5C5"/>
</linearGradient>
<linearGradient id="paint8_linear" x1="125.571" y1="334.968" x2="489.75" y2="334.968" gradientUnits="userSpaceOnUse">
<stop stop-color="#C8C8C8"/>
<stop offset="0.2285" stop-color="#CFCFCF"/>
<stop offset="0.549" stop-color="#E1E1E1"/>
<stop offset="0.5808" stop-color="#E3E3E3"/>
<stop offset="0.9935" stop-color="#F3F3F3"/>
<stop offset="1" stop-color="#F3F3F3"/>
</linearGradient>
<linearGradient id="paint9_linear" x1="129.644" y1="334.968" x2="485.677" y2="334.968" gradientUnits="userSpaceOnUse">
<stop stop-color="#C8C8C8"/>
<stop offset="0.2038" stop-color="#CCCCCC"/>
<stop offset="0.3938" stop-color="#D7D7D7"/>
<stop offset="0.5202" stop-color="#E3E3E3"/>
<stop offset="0.8152" stop-color="#F3F3F3"/>
<stop offset="1" stop-color="white"/>
</linearGradient>
<linearGradient id="paint10_linear" x1="280.241" y1="251.281" x2="373.237" y2="397.216" gradientUnits="userSpaceOnUse">
<stop stop-color="#C5C5C5"/>
<stop offset="0.3103" stop-color="#CBCBCB"/>
<stop offset="0.6946" stop-color="#DADADA"/>
<stop offset="1" stop-color="#EBEBEB"/>
</linearGradient>
<linearGradient id="paint11_linear" x1="144.578" y1="-10.0148" x2="523.461" y2="319.068" gradientUnits="userSpaceOnUse">
<stop stop-color="#BFBFBF"/>
<stop offset="0.3103" stop-color="#CBCBCB"/>
<stop offset="0.6946" stop-color="#DADADA"/>
<stop offset="1" stop-color="#EBEBEB"/>
</linearGradient>
<linearGradient id="paint12_linear" x1="213.198" y1="-2.88784" x2="573.195" y2="420.656" gradientUnits="userSpaceOnUse">
<stop stop-color="#B7B7B7"/>
<stop offset="0.1016" stop-color="#C0C0C0"/>
<stop offset="0.3915" stop-color="#D3D3D3"/>
<stop offset="0.6883" stop-color="#DEDEDE"/>
<stop offset="1" stop-color="#E2E2E2"/>
</linearGradient>
<linearGradient id="paint13_linear" x1="265.067" y1="57.8607" x2="508.289" y2="344.598" gradientUnits="userSpaceOnUse">
<stop stop-color="#BFBFBF"/>
<stop offset="0.3103" stop-color="#CBCBCB"/>
<stop offset="0.6946" stop-color="#DADADA"/>
<stop offset="1" stop-color="#EBEBEB"/>
</linearGradient>
<radialGradient id="paint14_radial" cx="0" cy="0" r="1" gradientUnits="userSpaceOnUse" gradientTransform="translate(490.1 174.824) scale(31.6505 31.6522)">
<stop stop-color="white"/>
<stop offset="1" stop-color="#EAE9E9"/>
</radialGradient>
<linearGradient id="paint15_linear" x1="272.875" y1="300.112" x2="493.603" y2="300.112" gradientUnits="userSpaceOnUse">
<stop stop-color="#C8C8C8"/>
<stop offset="0.2038" stop-color="#CCCCCC"/>
<stop offset="0.3938" stop-color="#D7D7D7"/>
<stop offset="0.5202" stop-color="#E3E3E3"/>
<stop offset="0.8152" stop-color="#F3F3F3"/>
<stop offset="1" stop-color="#E8E8E8"/>
</linearGradient>
<clipPath id="clip0">
<rect width="521.637" height="450" fill="white"/>
</clipPath>
</defs>
</svg>
