<svg width="224" height="80" viewBox="0 0 224 80" fill="none" xmlns="http://www.w3.org/2000/svg">
<path d="M80.0416 33.1L73.15 30.8V20.8333L80.05 22.8778L80.0416 33.1Z" fill="#F68D11"/>
<path d="M81.5833 22.8778L88.4833 20.8333L88.4593 30.7931L81.5833 33.1V22.8778Z" fill="#F68D11"/>
<path d="M86.95 19.064L80.3906 17L73.9167 19.064L80.4 20.8334L86.95 19.064Z" fill="#F68D11"/>
<path d="M97.6749 33.1L90.7833 30.8V20.8333L97.6833 22.8778L97.6749 33.1Z" fill="#F68D11"/>
<path d="M99.2167 22.8778L106.117 20.8333L106.093 30.7931L99.2167 33.1V22.8778Z" fill="#F68D11"/>
<path d="M104.583 19.064L98.4098 17L92.3167 19.064L98.4186 20.8334L104.583 19.064Z" fill="#F68D11"/>
<path d="M53.2167 37.4444L46.3167 35.4V45.3666L53.2083 47.6666L53.2167 37.4444Z" fill="#F68D11"/>
<path d="M55.5167 37.4444L62.4167 35.4L62.3927 45.3599L55.5167 47.6666V37.4444Z" fill="#F68D11"/>
<path d="M60.8833 34.3973L54.3239 32.3333L47.85 34.3973L54.3334 36.1666L60.8833 34.3973Z" fill="#F68D11"/>
<path d="M70.8416 47.6666L63.95 45.3666V35.4L70.85 37.4444L70.8416 47.6666Z" fill="#F68D11"/>
<path d="M73.15 37.4444L80.05 35.4L80.026 45.3599L73.15 47.6666V37.4444Z" fill="#F68D11"/>
<path d="M78.5167 34.3973L71.9572 32.3333L65.4833 34.3973L71.9667 36.1666L78.5167 34.3973Z" fill="#F68D11"/>
<path d="M62.4083 63L55.5167 60.5562V49.9667L62.4167 52.1389L62.4083 63Z" fill="#F68D11"/>
<path d="M63.95 52.1389L70.85 49.9667L70.8261 60.5491L63.95 63V52.1389Z" fill="#F68D11"/>
<path d="M69.3167 48.9639L62.7572 46.8999L56.2833 48.9639L62.7667 50.7333L69.3167 48.9639Z" fill="#F68D11"/>
<path d="M93.4113 53.7999L92.8904 53.8017C92.6992 53.8017 92.4556 53.923 92.3957 54.1196L90.8154 59.3493L89.2523 54.131C89.2053 53.9674 89.0412 53.8017 88.8181 53.8017H88.2013C87.9792 53.8017 87.8172 53.9696 87.7723 54.1343L86.3182 59.2984L84.8159 54.1183C84.7565 53.9289 84.5068 53.8017 84.311 53.8017L83.5613 53.8004C83.4012 53.8004 83.2523 53.8651 83.1725 53.9691C83.1184 54.0396 83.1034 54.1196 83.1284 54.1891L85.4494 61.9075C85.5006 62.0698 85.6503 62.2333 85.8693 62.2333H86.6147C86.816 62.2333 86.9925 62.0954 87.0434 61.8999L88.472 56.7585L90.0266 61.9057C90.0734 62.0633 90.2238 62.2333 90.4438 62.2333H91.1772C91.3812 62.2333 91.5529 62.1001 91.6033 61.9051L93.8374 54.1923C93.8637 54.118 93.8485 54.0355 93.7952 53.9659C93.7167 53.8635 93.5696 53.7999 93.4113 53.7999Z" fill="#100F0D"/>
<path d="M99.7349 57.1148H95.7314C95.8235 56.0822 96.553 55.0115 97.7889 54.9702C99.1041 55.0097 99.7058 56.0559 99.7349 57.1148ZM97.786 53.7999C95.0816 53.7999 93.85 55.9974 93.85 58.039C93.85 60.587 95.3811 62.2333 97.7507 62.2333C99.4466 62.2333 100.739 61.4458 101.298 60.0698C101.328 59.9911 101.318 59.9057 101.272 59.8291C101.215 59.7362 101.107 59.666 100.979 59.6402L100.229 59.5083C100.027 59.4792 99.7963 59.589 99.7199 59.7481C99.3553 60.5127 98.6906 60.9464 97.8564 60.9691C97.0538 60.9462 96.3168 60.508 95.9791 59.8532C95.7047 59.3183 95.6641 58.7911 95.6596 58.255L101.095 58.2532C101.209 58.2532 101.327 58.2071 101.41 58.1296C101.48 58.0653 101.517 57.9854 101.517 57.9053C101.503 55.9205 100.516 53.7999 97.786 53.7999Z" fill="#100F0D"/>
<path d="M107.537 57.9362C107.537 58.4297 107.449 60.8938 105.734 60.9569C105.159 60.9344 104.578 60.5896 104.253 60.0797C104.014 59.6941 103.875 59.1609 103.839 58.5013V57.0516C103.867 55.941 104.633 54.7222 105.728 54.6751C107.449 54.7444 107.537 57.4036 107.537 57.9362ZM106.003 53.3987H105.867C105.018 53.3987 104.351 53.7584 103.839 54.4959L103.838 51.098C103.838 50.9071 103.645 50.7333 103.432 50.7333H102.693C102.5 50.7333 102.284 50.8893 102.283 51.098V61.7051C102.284 61.8978 102.477 62.0728 102.69 62.0728L102.907 62.0716C103.112 62.0716 103.258 61.9031 103.307 61.7465L103.538 60.9978C104.075 61.7761 104.884 62.2333 105.75 62.2333H105.882C108.163 62.2333 109.183 59.9699 109.183 57.7269C109.183 56.6104 108.914 55.5428 108.443 54.798C107.9 53.9349 106.965 53.3987 106.003 53.3987Z" fill="#100F0D"/>
<path d="M118.064 57.8163C117.525 57.48 116.876 57.3676 116.226 57.255L114.98 57.0546C114.086 56.927 113.569 56.719 113.569 56.0345C113.569 55.3108 114.433 55.0342 115.166 55.017C116.061 55.0366 116.734 55.3831 117.061 55.9924C117.138 56.136 117.31 56.2326 117.489 56.2326C117.52 56.2326 117.551 56.2296 117.58 56.2241L118.358 56.075C118.485 56.0507 118.603 55.9752 118.667 55.877C118.718 55.7991 118.729 55.7141 118.698 55.6381C118.222 54.4355 117.014 53.7999 115.187 53.7999C113.536 53.8031 111.771 54.4402 111.771 56.2195C111.771 57.4357 112.652 58.208 114.391 58.5153L115.785 58.7459C116.551 58.8731 117.334 59.0993 117.334 59.8126C117.334 60.8687 115.918 60.9763 115.49 60.984C114.529 60.966 113.441 60.5942 113.177 59.8069C113.124 59.6339 112.873 59.5114 112.653 59.5512L111.84 59.6968C111.717 59.7192 111.605 59.7882 111.54 59.8815C111.485 59.9592 111.47 60.0462 111.495 60.1256C111.915 61.432 113.368 62.2197 115.383 62.233L115.428 62.2333C117.227 62.2333 119.15 61.5647 119.15 59.6892C119.15 58.9257 118.754 58.2431 118.064 57.8163Z" fill="#100F0D"/>
<path d="M125.215 57.1155H121.61C121.693 56.0818 122.349 55.0106 123.462 54.9712C124.645 55.0096 125.187 56.0557 125.215 57.1155ZM123.46 53.7999C121.025 53.7999 119.917 55.9976 119.917 58.0392C119.917 60.5872 121.295 62.2333 123.428 62.2333C124.954 62.2333 126.118 61.4456 126.621 60.0699C126.648 59.9911 126.639 59.9055 126.597 59.8287C126.546 59.7357 126.449 59.6655 126.334 59.6402L125.657 59.5082C125.499 59.482 125.278 59.5656 125.2 59.7484C124.872 60.5125 124.274 60.9463 123.524 60.9699C122.8 60.9463 122.137 60.5081 121.835 59.8535C121.587 59.3198 121.55 58.7921 121.547 58.2547L126.438 58.2534C126.54 58.2534 126.645 58.2076 126.72 58.1306C126.783 58.066 126.817 57.986 126.817 57.9055C126.805 55.9208 125.918 53.7999 123.46 53.7999Z" fill="#100F0D"/>
<path d="M131.844 53.8161C131.751 53.8052 131.662 53.7999 131.576 53.7999C130.779 53.7999 130.133 54.2617 129.684 55.144L129.685 54.3714C129.685 54.1843 129.51 54.0199 129.311 54.0199H128.718C128.524 54.0199 128.352 54.1849 128.351 54.3744L128.35 61.8795C128.35 62.0679 128.522 62.2333 128.717 62.2333L129.409 62.233C129.589 62.233 129.791 62.0824 129.793 61.8795L129.793 58.0958C129.793 57.4718 129.848 57.0018 130.127 56.4457C130.526 55.6536 131.084 55.265 131.831 55.2587C132.019 55.2573 132.183 55.0828 132.183 54.8852V54.1832C132.183 53.9995 132.034 53.8382 131.844 53.8161Z" fill="#100F0D"/>
<path d="M140.197 53.8004L139.626 53.8007C139.447 53.8007 139.218 53.9297 139.162 54.119L137.31 59.9641L135.418 54.1249C135.362 53.931 135.132 53.8007 134.952 53.8007L134.136 53.7999C133.986 53.7999 133.842 53.867 133.767 53.9706C133.718 54.0399 133.704 54.1186 133.729 54.1919L136.317 61.9024C136.367 62.055 136.499 62.2333 136.708 62.2333H137.695C137.877 62.2333 138.025 62.1094 138.093 61.9018L140.604 54.1944C140.629 54.1212 140.616 54.0423 140.567 53.9728C140.492 53.8682 140.347 53.8004 140.197 53.8004Z" fill="#100F0D"/>
<path d="M142.15 50.7334C141.727 50.7334 141.383 51.0772 141.383 51.5002C141.383 51.9231 141.727 52.2667 142.15 52.2667C142.573 52.2667 142.917 51.9231 142.917 51.5002C142.917 51.0772 142.573 50.7334 142.15 50.7334Z" fill="#100F0D"/>
<path d="M142.525 53.8007L141.776 53.7999C141.573 53.7999 141.387 53.9702 141.387 54.1569L141.383 61.8783C141.383 61.9717 141.43 62.0645 141.511 62.1334C141.584 62.1959 141.679 62.2321 141.774 62.2321L142.528 62.2333H142.528C142.735 62.2314 142.917 62.0657 142.917 61.8788V54.1569C142.917 53.9671 142.733 53.8007 142.525 53.8007Z" fill="#100F0D"/>
<path d="M150.191 59.04L149.559 59.0425C149.383 59.0425 149.235 59.1535 149.169 59.3462C148.939 60.3886 148.416 60.9288 147.623 60.9527C146.08 60.9046 145.96 58.6517 145.96 57.9623C145.96 56.5876 146.415 55.1041 147.684 55.0649C148.45 55.0896 149.007 55.6648 149.174 56.6022C149.206 56.7935 149.346 56.9382 149.538 56.9634L150.214 56.9703C150.416 56.9474 150.574 56.7873 150.573 56.5888C150.334 54.8949 149.213 53.7999 147.715 53.7999L147.663 53.8014L147.604 53.7999C145.425 53.7999 144.45 55.9293 144.45 58.0395C144.45 59.9742 145.272 62.2333 147.592 62.2333H147.703C149.164 62.2333 150.266 61.1611 150.582 59.4227C150.589 59.3398 150.562 59.257 150.506 59.1897C150.433 59.1024 150.318 59.0465 150.191 59.04Z" fill="#100F0D"/>
<path d="M157.236 57.1155H153.231C153.322 56.0815 154.052 55.0106 155.289 54.9712C156.604 55.0096 157.206 56.0557 157.236 57.1155ZM155.286 53.7999C152.582 53.7999 151.35 55.9976 151.35 58.0392C151.35 60.5872 152.881 62.2333 155.251 62.2333C156.947 62.2333 158.239 61.4461 158.799 60.0702C158.828 59.9909 158.818 59.905 158.771 59.8287C158.714 59.735 158.609 59.6665 158.479 59.6402L157.729 59.5082C157.552 59.482 157.307 59.5656 157.221 59.7484C156.855 60.5125 156.19 60.9463 155.357 60.9701C154.553 60.9463 153.817 60.5081 153.48 59.8535C153.205 59.319 153.164 58.7913 153.16 58.2547L158.595 58.2539C158.71 58.2539 158.828 58.2076 158.911 58.1298C158.981 58.0648 159.018 57.9848 159.017 57.9055C159.004 55.9208 158.018 53.7999 155.286 53.7999Z" fill="#100F0D"/>
<path d="M165.707 57.8163C165.22 57.4797 164.636 57.3674 164.052 57.255L162.93 57.0546C162.127 56.927 161.661 56.719 161.661 56.0345C161.661 55.1011 162.863 55.0231 163.097 55.017C163.903 55.0366 164.509 55.3831 164.803 55.9927C164.873 56.1363 165.028 56.2326 165.189 56.2326C165.217 56.2326 165.245 56.2296 165.272 56.2241L165.971 56.075C166.086 56.0507 166.192 55.9749 166.249 55.8769C166.295 55.7989 166.305 55.7141 166.277 55.6381C165.85 54.4355 164.762 53.7999 163.116 53.7999C161.631 53.8031 160.043 54.4402 160.043 56.2195C160.043 57.436 160.835 58.2083 162.4 58.5153L163.656 58.7459C164.345 58.8731 165.05 59.0993 165.05 59.8126C165.05 60.8687 163.775 60.9763 163.39 60.984C162.588 60.9675 161.562 60.6483 161.309 59.8079C161.262 59.6339 161.037 59.5116 160.835 59.5512L160.104 59.6968C159.994 59.7195 159.893 59.789 159.834 59.8825C159.785 59.9603 159.771 60.0467 159.794 60.1256C160.171 61.432 161.479 62.2197 163.292 62.233L163.333 62.2333C164.953 62.2333 166.683 61.5647 166.683 59.6892C166.683 58.9253 166.327 58.2425 165.707 57.8163Z" fill="#100F0D"/>
<path fill-rule="evenodd" clip-rule="evenodd" d="M131.89 37.764V35.8779C131.891 35.5919 132.104 35.4 132.36 35.4002L140.655 35.4C140.919 35.4 141.133 35.5966 141.133 35.8759V37.4933C141.131 37.764 140.906 38.118 140.508 38.6802L136.212 44.9292C137.806 44.8906 139.494 45.1338 140.942 45.9634C141.27 46.1504 141.357 46.4279 141.383 46.6988V48.7113C141.383 48.9888 141.085 49.3095 140.772 49.1425C138.219 47.7798 134.831 47.631 132.007 49.1582C131.719 49.315 131.417 48.9992 131.417 48.7217V46.8095C131.417 46.5044 131.423 45.9802 131.725 45.5134L136.704 38.2391L132.37 38.2381C132.104 38.2381 131.892 38.0458 131.89 37.764Z" fill="#100F0D"/>
<path fill-rule="evenodd" clip-rule="evenodd" d="M100.77 49.2H98.1511C97.9023 49.1838 97.7031 48.9971 97.6833 48.7591L97.6852 35.3951C97.6852 35.1277 97.9116 34.9141 98.1902 34.9141L100.628 34.9127C100.884 34.9269 101.088 35.1185 101.105 35.3615V37.1076H101.154C101.789 35.4195 102.986 34.6333 104.599 34.6333C106.236 34.6333 107.262 35.4195 107.996 37.1076C108.632 35.4195 110.073 34.6333 111.614 34.6333C112.713 34.6333 113.909 35.0825 114.642 36.0944C115.473 37.2199 115.302 38.8499 115.302 40.2847L115.3 48.7185C115.3 48.9851 115.074 49.2 114.796 49.2H112.181C111.918 49.1838 111.711 48.9749 111.711 48.7197V41.6344C111.711 41.0723 111.759 39.6656 111.637 39.1318C111.441 38.2311 110.855 37.9794 110.098 37.9794C109.462 37.9794 108.802 38.4012 108.533 39.0747C108.265 39.7507 108.289 40.8755 108.289 41.6344V48.7185C108.289 48.9851 108.063 49.2 107.784 49.2H105.169C104.907 49.1838 104.7 48.9749 104.7 48.7197L104.696 41.6344C104.696 40.1438 104.941 37.9512 103.084 37.9512C101.203 37.9512 101.276 40.0879 101.276 41.6344L101.274 48.7185C101.275 48.9851 101.049 49.2 100.77 49.2Z" fill="#100F0D"/>
<path fill-rule="evenodd" clip-rule="evenodd" d="M148.643 37.3085C146.773 37.3085 146.655 39.8742 146.655 41.475C146.655 43.0749 146.631 46.4957 148.62 46.4957C150.584 46.4957 150.678 43.7367 150.678 42.0539C150.678 40.9505 150.631 39.6266 150.3 38.5781C150.015 37.6672 149.448 37.3085 148.643 37.3085ZM148.62 34.6333C152.382 34.6333 154.417 37.8885 154.417 42.0255C154.417 46.0269 152.168 49.2 148.62 49.2C144.928 49.2 142.917 45.9438 142.917 41.8882C142.917 37.805 144.951 34.6333 148.62 34.6333Z" fill="#100F0D"/>
<path fill-rule="evenodd" clip-rule="evenodd" d="M159.574 49.2H157.156C156.912 49.1838 156.72 48.9749 156.72 48.7197L156.717 35.3497C156.737 35.1061 156.938 34.9141 157.182 34.9141L159.434 34.9127C159.646 34.9253 159.82 35.0802 159.865 35.2872V37.3321H159.911C160.589 35.504 161.542 34.6333 163.217 34.6333C164.305 34.6333 165.37 35.0539 166.049 36.2072C166.683 37.2754 166.683 39.0747 166.683 40.3685V48.7785C166.656 49.0156 166.459 49.2 166.22 49.2H163.786C163.561 49.1843 163.381 49.0063 163.353 48.7785V41.522C163.353 40.0598 163.512 37.922 161.835 37.922C161.247 37.922 160.704 38.3448 160.431 38.9908C160.091 39.8061 160.046 40.6215 160.046 41.522V48.7185C160.042 48.9851 159.832 49.2 159.574 49.2Z" fill="#100F0D"/>
<path fill-rule="evenodd" clip-rule="evenodd" d="M127.765 48.987C127.595 49.1378 127.351 49.1479 127.159 49.0463C126.307 48.3427 126.154 48.0165 125.688 47.3474C124.28 48.7725 123.282 49.2 121.458 49.2C119.297 49.2 117.617 47.8755 117.617 45.2272C117.617 43.1587 118.745 41.7516 120.353 41.0614C121.745 40.4544 123.69 40.3438 125.178 40.1777V39.8471C125.178 39.2405 125.226 38.5229 124.866 37.999C124.554 37.53 123.954 37.3374 123.425 37.3374C122.446 37.3374 121.577 37.8358 121.363 38.8683C121.319 39.0976 121.149 39.3253 120.917 39.3364L118.43 39.0688C118.22 39.0218 117.987 38.855 118.048 38.5367C118.619 35.539 121.344 34.6333 123.786 34.6333C125.034 34.6333 126.667 34.9641 127.651 35.902C128.899 37.0612 128.779 38.6059 128.779 40.2889V44.2598C128.779 45.4542 129.279 45.9785 129.749 46.6223C129.911 46.8545 129.948 47.1296 129.739 47.2999C129.215 47.7361 128.284 48.5388 127.772 48.9927L127.765 48.987ZM125.178 42.7717C125.178 43.7651 125.202 44.5935 124.698 45.4756C124.29 46.1935 123.641 46.6345 122.921 46.6345C121.937 46.6345 121.361 45.8899 121.361 44.7859C121.361 42.6155 123.322 42.2204 125.178 42.2204V42.7717Z" fill="#100F0D"/>
<path fill-rule="evenodd" clip-rule="evenodd" d="M94.0327 48.987C93.863 49.1378 93.6176 49.1479 93.4257 49.0463C92.5736 48.3427 92.4211 48.0165 91.9548 47.3474C90.547 48.7725 89.549 49.2 87.7241 49.2C85.5637 49.2 83.8833 47.8755 83.8833 45.2272C83.8833 43.1587 85.0121 41.7516 86.6204 41.0614C88.0129 40.4544 89.9574 40.3438 91.4454 40.1777V39.8471C91.4454 39.2405 91.4937 38.5229 91.1332 37.999C90.8214 37.53 90.2206 37.3374 89.6933 37.3374C88.7145 37.3374 87.8438 37.8358 87.6305 38.8683C87.586 39.0976 87.4171 39.3253 87.1849 39.3364L84.6974 39.0688C84.4874 39.0218 84.2542 38.855 84.3144 38.5367C84.8859 35.539 87.6108 34.6333 90.0525 34.6333C91.3016 34.6333 92.9334 34.9641 93.9179 35.902C95.1661 37.0612 95.0456 38.6059 95.0456 40.2889V44.2598C95.0456 45.4542 95.5458 45.9785 96.0143 46.6223C96.1778 46.8545 96.2148 47.1296 96.0063 47.2999C95.4819 47.7361 94.5501 48.5388 94.0386 48.9927L94.0327 48.987ZM91.4454 42.7717C91.4454 43.7651 91.4689 44.5935 90.9657 45.4756C90.5578 46.1935 89.9088 46.6345 89.1896 46.6345C88.2043 46.6345 87.6287 45.8899 87.6287 44.7859C87.6287 42.6155 89.5889 42.2204 91.4454 42.2204V42.7717Z" fill="#100F0D"/>
</svg>
