<svg width="64" height="64" viewBox="0 0 64 64" fill="none" xmlns="http://www.w3.org/2000/svg">
<path d="M54.8779 25.2083C55.1381 24.2735 55.2696 23.3086 55.2696 22.3285C55.2696 16.4413 50.5013 11.6517 44.6402 11.6517C44.2188 11.6517 43.8009 11.6759 43.3902 11.7242C42.5492 9.62242 41.1574 7.80778 39.3255 6.43677C37.1952 4.84262 34.6615 4 31.9984 4C29.3354 4 26.8019 4.84262 24.6716 6.43677C22.8396 7.80778 21.4478 9.6222 20.6069 11.7238C20.197 11.6759 19.779 11.6517 19.3567 11.6517C13.4975 11.6517 8.73047 16.4413 8.73047 22.3285C8.73047 23.3086 8.86199 24.2735 9.12219 25.2083C6.55729 26.8173 5 29.6095 5 32.7022C5 37.5791 8.94887 41.5468 13.8027 41.5468H15.4695V45.1036C15.4695 46.3803 16.5032 47.4189 17.7739 47.4189H18.204C18.4965 48.4335 18.8999 49.4111 19.4095 50.3399L19.1077 50.6432C18.6717 51.0784 18.4311 51.6594 18.43 52.279C18.429 52.9001 18.6688 53.4838 19.1047 53.9217L21.5176 56.3493C22.4183 57.2485 23.8803 57.2471 24.7754 56.348L25.0829 56.0401C26.0066 56.5512 26.9786 56.9558 27.9877 57.2493V57.6817C27.9877 58.9601 29.0229 60 30.2951 60H33.7048C34.9771 60 36.0122 58.96 36.0122 57.6817V57.249C37.0192 56.9554 37.9907 56.5511 38.9152 56.0403L39.2202 56.3469C40.1194 57.2503 41.5825 57.2502 42.4817 56.3468L44.8973 53.9197C45.792 53.0149 45.7909 51.5462 44.8948 50.6457L44.5896 50.339C45.0978 49.4103 45.5011 48.433 45.7947 47.4189H46.2231C47.4955 47.4189 48.5305 46.3803 48.5305 45.1036V41.5468H50.1973C55.0511 41.5468 59 37.5791 59 32.7022C59.0001 29.6095 57.4428 26.8173 54.8779 25.2083ZM46.3532 45.1036C46.3532 45.1717 46.2923 45.2314 46.2232 45.2314H44.9519C44.4431 45.2314 44.002 45.5855 43.89 46.0842C43.5835 47.4471 43.0495 48.7412 42.3031 49.9302C42.0318 50.3623 42.0944 50.9257 42.4541 51.287L43.355 52.1923C43.4027 52.2402 43.4015 52.3287 43.3551 52.3756L40.9422 54.8C40.913 54.8293 40.8765 54.8354 40.8512 54.8354C40.8257 54.8354 40.7892 54.8292 40.7602 54.8001L39.8592 53.8948C39.4994 53.5334 38.9385 53.4704 38.5084 53.7431C37.3235 54.4941 36.0373 55.0293 34.6855 55.334C34.1884 55.446 33.835 55.8894 33.835 56.4012V57.6817C33.835 57.7502 33.773 57.8125 33.705 57.8125H30.2953C30.226 57.8125 30.1654 57.7514 30.1654 57.6817V56.4012C30.1654 55.8891 29.8119 55.4457 29.3145 55.3338C27.9601 55.0292 26.6743 54.4942 25.493 53.7437C25.0632 53.4706 24.5025 53.5328 24.1425 53.8935L23.2372 54.8C23.1888 54.8484 23.1024 54.8473 23.0556 54.8005L20.6453 52.3756C20.6142 52.3443 20.6077 52.3078 20.6077 52.2825C20.6078 52.2475 20.6195 52.2179 20.6452 52.1923L21.5462 51.287C21.9064 50.9252 21.9687 50.3608 21.6963 49.9285C20.9477 48.7408 20.4143 47.448 20.1109 46.0862C19.9996 45.5866 19.5581 45.2314 19.0484 45.2314H17.7739C17.7051 45.2314 17.6469 45.1729 17.6469 45.1036V41.5468H22.7185C22.6003 42.1502 22.5386 42.7658 22.5386 43.3891C22.5386 48.6301 26.7823 52.894 31.9985 52.894C37.2165 52.894 41.4616 48.6301 41.4616 43.3891C41.4616 42.7673 41.3993 42.1519 41.28 41.5468H46.3533V45.1036H46.3532ZM50.1974 39.3593H36.8861C36.2849 39.3593 35.7974 39.8491 35.7974 40.453C35.7974 41.057 36.2849 41.5468 36.8861 41.5468H39.0476C39.2038 42.1477 39.2842 42.7645 39.2842 43.3891C39.2842 47.424 36.0158 50.7065 31.9985 50.7065C27.9829 50.7065 24.716 47.4238 24.716 43.3891C24.716 42.7617 24.7956 42.145 24.9502 41.5468H27.111C27.7122 41.5468 28.1997 41.057 28.1997 40.453C28.1997 39.8491 27.7122 39.3593 27.111 39.3593H13.8027C10.1495 39.3593 7.17742 36.3729 7.17742 32.7022C7.17742 30.1302 8.60843 27.8343 10.912 26.7103C11.4185 26.4631 11.6539 25.8687 11.4546 25.3395C11.0919 24.3761 10.908 23.3632 10.908 22.3286C10.908 17.6476 14.698 13.8393 19.3568 13.8393C19.9572 13.8393 20.5426 13.9 21.0969 14.0194C21.6458 14.1379 22.1945 13.8173 22.3636 13.2794C23.6971 9.03759 27.5691 6.1875 31.9984 6.1875C36.428 6.1875 40.2999 9.03748 41.6333 13.2794C41.8023 13.8168 42.3501 14.1376 42.8989 14.0196C43.4569 13.8999 44.0427 13.8393 44.6401 13.8393C49.3006 13.8393 53.0921 17.6476 53.0921 22.3286C53.0921 23.3632 52.9082 24.3762 52.5455 25.3395C52.3462 25.8687 52.5816 26.4631 53.0881 26.7103C55.3917 27.8343 56.8227 30.1302 56.8227 32.7022C56.8227 36.3729 53.8506 39.3593 50.1974 39.3593Z" fill="#7F8284"/>
<path d="M44 19C43.4478 19 43 19.5284 43 20.18V31.82C43 32.4716 43.4478 33 44 33C44.5522 33 45 32.4716 45 31.82V20.18C45 19.5284 44.5523 19 44 19Z" fill="#FF6B00"/>
<path d="M34.9514 19H32.0406C31.4752 19 31 19.5289 31 20.1622V31.8378C31 32.4796 31.466 33 32.0406 33C32.6152 33 33.0811 32.4796 33.0811 31.8378V27.9224C33.7283 27.918 34.5237 27.9134 34.9514 27.9134C37.1838 27.9134 39 25.9141 39 23.4567C39 20.9993 37.1838 19 34.9514 19ZM34.9514 25.5888C34.5256 25.5888 33.7417 25.5933 33.0965 25.5978C33.0934 24.855 33.0901 23.9434 33.0901 23.4566C33.0901 23.044 33.0875 22.098 33.085 21.3243H34.9515C36.018 21.3243 36.919 22.3007 36.919 23.4566C36.919 24.6124 36.0179 25.5888 34.9514 25.5888Z" fill="#FF6B00"/>
<path d="M23.1705 19.9174C23.1679 19.9094 23.1651 19.9012 23.1623 19.8933C22.9728 19.3507 22.5233 19 22.0172 19C21.511 19 21.0615 19.3507 20.872 19.8933C20.8696 19.9003 20.8672 19.9072 20.865 19.9141L17.0662 31.4239C16.8683 32.0237 17.1291 32.6951 17.6488 32.9235C18.1686 33.152 18.7502 32.851 18.9482 32.2512L19.6471 30.1337H24.3592L25.0508 32.2479C25.2029 32.7132 25.5861 33 25.993 33C26.1111 33 26.2313 32.9758 26.3484 32.9248C26.8687 32.6982 27.1312 32.0276 26.9349 31.4272L23.1705 19.9174ZM20.4142 27.8095L22.0138 22.9627L23.5991 27.8095H20.4142Z" fill="#FF6B00"/>
<path d="M31.9985 40C31.4471 40 31 40.4478 31 41C31 41.5522 31.4471 42 31.9985 42H32.0043C32.5557 42 33 41.5522 33 41C33 40.4478 32.55 40 31.9985 40Z" fill="#7F8284"/>
</svg>
