<svg width="586" height="569" viewBox="0 0 586 569" fill="none" xmlns="http://www.w3.org/2000/svg">
<g clip-path="url(#clip0)">
<path opacity="0.08" d="M391.139 445.389C391.139 448.754 388.834 452.65 385.998 454.421C383.161 456.015 380.856 454.775 380.856 451.41C380.856 448.045 383.161 444.149 385.998 442.379C388.834 440.785 391.139 442.024 391.139 445.389Z" fill="black"/>
<path opacity="0.08" d="M407.984 435.649C407.984 439.014 405.679 442.91 402.842 444.681C400.005 446.275 397.7 445.035 397.7 441.67C397.7 438.305 400.005 434.409 402.842 432.638C405.679 431.045 407.984 432.461 407.984 435.649Z" fill="black"/>
<path opacity="0.08" d="M424.828 426.086C424.828 429.451 422.523 433.347 419.686 435.118C416.849 436.711 414.544 435.472 414.544 432.107C414.544 428.742 416.849 424.846 419.686 423.075C422.523 421.304 424.828 422.721 424.828 426.086Z" fill="black"/>
<path opacity="0.08" d="M441.495 416.346C441.495 419.711 439.19 423.607 436.353 425.378C433.516 426.971 431.211 425.732 431.211 422.367C431.211 419.002 433.516 415.106 436.353 413.335C439.19 411.741 441.495 412.981 441.495 416.346Z" fill="black"/>
<path opacity="0.08" d="M135.995 453.89C135.995 457.254 133.69 461.15 130.853 462.921C128.016 464.515 125.711 463.276 125.711 459.911C125.711 456.546 128.016 452.65 130.853 450.879C133.69 449.285 135.995 450.702 135.995 453.89Z" fill="black"/>
<path opacity="0.08" d="M150.179 445.743C150.179 449.108 147.874 453.004 145.037 454.775C142.2 456.369 139.895 455.129 139.895 451.764C139.895 448.4 142.2 444.504 145.037 442.733C147.874 441.139 150.179 442.379 150.179 445.743Z" fill="black"/>
<path opacity="0.08" d="M135.995 437.42C135.995 440.785 133.69 444.681 130.853 446.452C128.016 448.046 125.711 446.806 125.711 443.441C125.711 440.076 128.016 436.18 130.853 434.409C133.69 432.815 135.995 434.232 135.995 437.42Z" fill="black"/>
<path opacity="0.08" d="M150.179 429.274C150.179 432.638 147.874 436.534 145.037 438.305C142.2 440.076 139.895 438.66 139.895 435.295C139.895 431.93 142.2 428.034 145.037 426.263C147.874 424.669 150.179 425.909 150.179 429.274Z" fill="black"/>
<path opacity="0.08" d="M128.725 109.975L118.441 115.996V104.131L128.725 98.1096V109.975Z" fill="black"/>
<path opacity="0.08" d="M143.087 101.651L132.803 107.673V95.6303L143.087 89.6091V101.651Z" fill="black"/>
<path opacity="0.08" d="M128.902 125.559L118.441 131.403V119.538L128.902 113.517V125.559Z" fill="black"/>
<path opacity="0.08" d="M143.087 117.236L132.803 123.257V111.214L143.087 105.37V117.236Z" fill="black"/>
<path d="M523.943 6.72956C522.169 7.79212 520.396 9.20886 518.801 11.1569C518.623 1.23967 511.354 -2.83347 502.666 2.30223C499.829 3.89607 497.169 6.37537 494.864 9.03177C490.963 2.12514 482.807 0.5313 473.41 6.02119C460.112 13.6362 449.474 32.231 449.474 47.461C449.474 48.7006 449.651 49.9403 449.651 51.0028C447.701 50.4715 445.396 50.8257 442.913 52.4196C436.53 56.1385 431.388 64.9932 431.388 72.254C431.388 79.5148 436.53 82.5254 442.913 78.8064L523.943 32.0539C529.971 28.512 534.936 20.0115 534.936 12.9278C534.936 6.02119 529.971 3.1877 523.943 6.72956Z" fill="#E8E8E8"/>
<path d="M538.304 19.4803C536.531 20.5428 534.758 21.9596 533.163 23.9076C532.985 13.9904 525.716 9.91726 517.028 15.053C514.191 16.6468 511.531 19.1261 509.226 21.7825C505.325 14.8759 497.169 13.282 487.772 18.7719C474.474 26.3869 463.835 44.9817 463.835 60.2117C463.835 61.4513 464.013 62.691 464.013 63.7536C462.062 63.2223 459.757 63.5765 457.275 65.1703C450.892 68.8893 445.75 77.7439 445.75 85.0047C445.75 92.2655 450.892 95.2761 457.275 91.5572L538.304 44.8046C544.333 41.2627 549.297 32.7623 549.297 25.6785C549.297 18.5948 544.51 15.9384 538.304 19.4803Z" fill="#E2E2E2"/>
<path d="M552.844 32.0538C551.07 33.1163 549.297 34.5331 547.702 36.4811C547.524 26.5639 540.255 22.4908 531.567 27.6264C528.73 29.2203 526.07 31.6996 523.765 34.356C519.864 27.4494 511.708 25.8555 502.311 31.3454C489.013 38.9604 478.375 57.5552 478.375 72.7852C478.375 74.0248 478.552 75.2645 478.552 76.327C476.602 75.7958 474.297 76.1499 471.814 77.7438C465.431 81.4627 460.289 90.3174 460.289 97.5782C460.289 104.839 465.431 107.85 471.814 104.131L552.844 57.3781C558.872 53.8362 563.837 45.3358 563.837 38.252C563.837 31.5225 558.872 28.689 552.844 32.0538Z" fill="#CECECE"/>
<path d="M512.063 296.277L471.992 273.078L512.063 250.055L552.134 273.078L512.063 296.277Z" fill="url(#paint0_linear)"/>
<path d="M512.063 281.932C511.531 281.932 510.999 281.755 510.467 281.578L470.396 258.556C469.509 258.025 468.8 256.962 468.8 255.9C468.8 254.837 469.332 253.774 470.396 253.243L510.467 230.221C511.354 229.69 512.595 229.69 513.481 230.221L553.553 253.243C554.439 253.774 555.149 254.837 555.149 255.9C555.149 256.962 554.617 258.025 553.553 258.556L513.481 281.578C513.127 281.755 512.595 281.932 512.063 281.932ZM478.02 255.722L512.063 275.38L546.106 255.722L512.063 236.065L478.02 255.722Z" fill="#E2E2E2"/>
<path d="M552.134 237.836L512.063 260.858V214.637L552.134 191.615V237.836Z" fill="url(#paint1_linear)"/>
<path d="M512.063 214.637L471.992 191.615L512.063 168.416L552.134 191.615L512.063 214.637Z" fill="url(#paint2_linear)"/>
<path d="M512.063 260.858L471.992 237.836V191.615L512.063 214.637V260.858Z" fill="url(#paint3_linear)"/>
<path d="M497.701 235.888L486.353 229.513V216.585L497.701 222.96V235.888Z" fill="#E2E2E2"/>
<path d="M500.893 191.615L512.063 185.062L523.233 191.438L512.063 197.99L500.893 191.615Z" fill="white"/>
<path d="M83.689 278.213L43.6176 255.191L83.689 231.992L123.583 255.191L83.689 278.213Z" fill="url(#paint4_linear)"/>
<path d="M83.689 263.869C83.1571 263.869 82.6252 263.691 82.0932 263.514L42.0218 240.492C41.1353 239.961 40.4261 238.898 40.4261 237.836C40.4261 236.773 40.958 235.711 42.0218 235.179L82.0932 212.157C82.9798 211.626 84.2209 211.626 85.1075 212.157L125.179 235.179C126.065 235.711 126.775 236.773 126.775 237.836C126.775 238.898 126.243 239.961 125.179 240.492L85.1075 263.514C84.5755 263.869 84.2209 263.869 83.689 263.869ZM49.646 237.836L83.689 257.493L117.732 237.836L83.689 218.179L49.646 237.836Z" fill="#E2E2E2"/>
<path d="M123.583 219.772L83.689 242.795V196.75L123.583 173.551V219.772Z" fill="url(#paint5_linear)"/>
<path d="M83.689 196.75L43.6176 173.551L83.689 150.529L123.583 173.551L83.689 196.75Z" fill="url(#paint6_linear)"/>
<path d="M83.689 242.795L43.6176 219.772V173.551L83.689 196.75V242.795Z" fill="url(#paint7_linear)"/>
<path d="M69.1498 217.824L57.9795 211.449V198.521L69.1498 205.074V217.824Z" fill="url(#paint8_linear)"/>
<path d="M489.978 224.109L373.421 291.303L376.435 296.518L492.991 229.324L489.978 224.109Z" fill="#E2E2E2"/>
<path d="M278.372 459.379L175.711 400.23C171.988 398.105 172.343 394.209 176.775 391.73L285.642 328.862C290.074 326.383 296.635 326.028 300.358 328.331L403.019 387.48C406.743 389.605 406.388 393.501 401.955 395.98L293.089 458.848C288.656 461.327 282.096 461.505 278.372 459.379Z" fill="url(#paint9_linear)"/>
<path d="M284.755 439.899C281.741 439.899 279.081 439.368 276.776 438.128L174.116 378.979C171.456 377.562 170.038 375.26 170.038 372.604C170.038 369.77 171.988 367.114 175.179 365.166L284.046 302.298C289.365 299.287 297.167 298.933 301.777 301.767L404.438 360.916C407.097 362.332 408.516 364.635 408.516 367.291C408.516 370.124 406.565 372.781 403.374 374.729L294.507 437.42C291.67 439.014 288.124 439.899 284.755 439.899ZM279.968 432.815C282.805 434.409 288.301 434.232 291.67 432.284L400.537 369.416C402.133 368.531 402.664 367.645 402.664 367.291C402.664 367.114 402.31 366.583 401.601 366.228L298.94 307.079C296.103 305.486 290.606 305.663 287.238 307.611L178.371 370.479C176.775 371.364 176.243 372.25 176.243 372.604C176.243 372.781 176.598 373.312 177.307 373.666L279.968 432.815Z" fill="#E2E2E2"/>
<path d="M285.819 147.519C285.819 147.519 229.435 152.831 195.392 155.488L285.465 411.919L404.615 343.206L404.792 343.029C406.211 342.144 407.275 340.019 407.275 337.185V86.5986C407.275 83.9422 406.565 81.1087 405.147 78.6294L285.819 147.519Z" fill="url(#paint10_linear)"/>
<path d="M400.005 72.6082L295.216 12.2195C293.443 11.1569 291.67 11.1569 290.429 11.8653L170.747 80.5774L176.421 101.474L206.386 186.833L212.059 190.021L405.324 78.6294C403.906 75.973 402.133 73.8478 400.005 72.6082Z" fill="url(#paint11_linear)"/>
<path d="M280.5 411.564L175.711 351.176C171.633 348.873 168.264 342.498 168.264 337.008V86.5986C168.264 81.1087 171.633 78.6294 175.711 81.1087L280.5 141.497C284.578 143.8 287.947 150.175 287.947 155.665V406.074C287.769 411.387 284.578 413.866 280.5 411.564Z" fill="url(#paint12_linear)"/>
<path d="M282.628 140.258L177.839 79.6919C175.534 78.2752 173.406 78.6294 171.988 80.0461C173.052 79.869 174.293 80.0461 175.534 80.9316L280.323 141.32C284.401 143.623 287.769 149.998 287.769 155.488V405.897C287.769 408.2 287.238 409.971 286.174 411.033C288.479 410.679 290.074 408.377 290.074 404.658V154.248C290.074 148.935 286.706 142.56 282.628 140.258Z" fill="white"/>
<path d="M273.762 396.511L182.094 343.738C178.548 341.613 175.711 336.123 175.711 331.341V98.8179C175.711 94.0364 178.548 91.9113 182.094 93.8593L273.762 146.633C277.308 148.758 280.145 154.248 280.145 159.03V391.73C280.323 396.334 277.486 398.636 273.762 396.511Z" fill="url(#paint13_linear)"/>
<path d="M273.762 396.511L182.094 343.738C178.548 341.613 175.711 336.123 175.711 331.341V98.8179C175.711 94.0364 178.548 91.9113 182.094 93.8593L273.762 146.633C277.308 148.758 280.145 154.248 280.145 159.03V391.73C280.323 396.334 277.486 398.636 273.762 396.511Z" fill="url(#paint14_linear)"/>
<path d="M273.762 396.511L182.094 343.738C178.548 341.613 175.711 336.123 175.711 331.341V98.8179C175.711 94.0364 178.548 91.9113 182.094 93.8593L273.762 146.633C277.308 148.758 280.145 154.248 280.145 159.03V391.73C280.323 396.334 277.486 398.636 273.762 396.511Z" fill="url(#paint15_linear)"/>
<path d="M276.776 394.74L185.109 341.967C181.562 339.842 178.726 334.352 178.726 329.57V97.047C178.726 95.4532 179.08 94.0365 179.612 93.151C177.307 93.151 175.711 95.2761 175.711 98.818V331.518C175.711 336.3 178.548 341.79 182.094 343.915L273.762 396.688C276.067 398.105 278.195 397.574 279.259 395.626C278.549 395.449 277.663 395.272 276.776 394.74Z" fill="url(#paint16_linear)"/>
<path d="M273.762 289.724L239.719 270.067L185.463 301.412L280.323 356.134V302.121C280.323 297.339 277.486 291.849 273.762 289.724Z" fill="url(#paint17_linear)"/>
<path d="M273.762 242.086L239.719 222.429L185.463 253.775L280.323 308.496V254.483C280.323 249.524 277.486 244.034 273.762 242.086Z" fill="url(#paint18_linear)"/>
<path d="M273.762 194.448L239.719 174.791L185.463 206.137L280.323 260.858V206.845C280.323 201.886 277.486 196.396 273.762 194.448Z" fill="url(#paint19_linear)"/>
<path d="M273.762 146.633L239.719 126.976L185.463 158.321L280.323 213.043V159.03C280.323 154.248 277.486 148.758 273.762 146.633Z" fill="url(#paint20_linear)"/>
<path d="M273.762 146.633L198.407 103.245L185.463 110.683L280.323 165.405V159.03C280.323 154.248 277.486 148.758 273.762 146.633Z" fill="url(#paint21_linear)"/>
<path d="M280.323 165.405L185.463 110.683V140.789L280.323 195.511V165.405Z" fill="url(#paint22_linear)"/>
<path d="M280.323 213.043L185.463 158.321V188.427L280.323 243.149V213.043Z" fill="url(#paint23_linear)"/>
<path d="M280.323 260.681L185.463 206.136V236.242L280.323 290.787V260.681Z" fill="url(#paint24_linear)"/>
<path d="M280.323 308.319L185.463 253.774V283.88L280.323 338.602V308.319Z" fill="url(#paint25_linear)"/>
<path d="M280.323 356.134L185.463 301.412V331.518L280.323 386.24V356.134Z" fill="url(#paint26_linear)"/>
<path d="M271.989 184.708L200.534 143.445C198.584 142.206 196.811 139.195 196.811 136.539V128.393C196.811 125.736 198.407 124.496 200.534 125.559L271.989 166.822C273.939 168.061 275.713 171.072 275.713 173.728V181.875C275.535 184.708 273.939 185.948 271.989 184.708Z" fill="url(#paint27_linear)"/>
<path opacity="0.3" d="M204.081 142.028C202.13 140.788 200.357 137.777 200.357 135.121V126.975C200.357 126.621 200.357 126.089 200.534 125.735H200.357C198.407 124.495 196.634 125.735 196.634 128.569V136.715C196.634 139.371 198.229 142.559 200.357 143.621L271.812 184.884C273.585 185.947 275.003 185.061 275.358 183.29L204.081 142.028Z" fill="#06033E"/>
<path d="M249.471 162.749L206.563 137.956C205.854 137.601 205.322 136.362 205.322 135.476C205.322 134.591 205.854 134.059 206.563 134.591L249.471 159.384C250.18 159.738 250.712 160.978 250.712 161.863C250.89 162.571 250.18 163.103 249.471 162.749Z" fill="white"/>
<path d="M271.989 232.169L200.534 190.906C198.584 189.667 196.811 186.656 196.811 184V175.853C196.811 173.197 198.407 171.957 200.534 173.02L271.989 214.283C273.939 215.522 275.713 218.533 275.713 221.189V229.336C275.535 232.169 273.939 233.409 271.989 232.169Z" fill="url(#paint28_linear)"/>
<path opacity="0.3" d="M204.081 189.488C202.13 188.249 200.357 185.238 200.357 182.582V174.436C200.357 174.081 200.357 173.55 200.534 173.196H200.357C198.407 171.956 196.634 173.196 196.634 176.029V184.176C196.634 186.832 198.229 190.02 200.357 191.082L271.812 232.345C273.585 233.408 275.003 232.522 275.358 230.751L204.081 189.488Z" fill="#06033E"/>
<path d="M249.471 210.032L206.563 185.239C205.854 184.885 205.322 183.646 205.322 182.76C205.322 181.875 205.854 181.343 206.563 181.875L249.471 206.668C250.18 207.022 250.712 208.262 250.712 209.147C250.89 210.032 250.18 210.387 249.471 210.032Z" fill="white"/>
<path d="M271.989 279.984L200.534 238.721C198.584 237.482 196.811 234.471 196.811 231.815V223.669C196.811 221.012 198.407 219.772 200.534 220.835L271.989 262.098C273.939 263.337 275.713 266.348 275.713 269.004V277.151C275.535 279.984 273.939 281.224 271.989 279.984Z" fill="url(#paint29_linear)"/>
<path opacity="0.3" d="M204.081 237.304C202.13 236.064 200.357 233.053 200.357 230.397V222.251C200.357 221.897 200.357 221.365 200.534 221.011H200.357C198.407 219.771 196.634 221.011 196.634 223.845V231.991C196.634 234.647 198.229 237.835 200.357 238.897L271.812 280.16C273.585 281.223 275.003 280.337 275.358 278.566L204.081 237.304Z" fill="#06033E"/>
<path d="M249.471 257.848L206.563 233.055C205.854 232.7 205.322 231.461 205.322 230.575C205.322 229.69 205.854 229.158 206.563 229.69L249.471 254.483C250.18 254.837 250.712 256.077 250.712 256.962C250.89 257.848 250.18 258.202 249.471 257.848Z" fill="#D4ECFF"/>
<path d="M271.989 328.154L200.534 286.891C198.584 285.651 196.811 282.641 196.811 279.984V271.838C196.811 269.182 198.407 267.942 200.534 269.004L271.989 310.267C273.939 311.507 275.713 314.517 275.713 317.174V325.32C275.535 328.154 273.939 329.393 271.989 328.154Z" fill="url(#paint30_linear)"/>
<path opacity="0.3" d="M204.081 285.473C202.13 284.233 200.357 281.223 200.357 278.566V270.42C200.357 270.066 200.357 269.535 200.534 269.181H200.357C198.407 267.941 196.634 269.181 196.634 272.014V280.16C196.634 282.817 198.229 286.004 200.357 287.067L271.812 328.33C273.585 329.392 275.003 328.507 275.358 326.736L204.081 285.473Z" fill="#06033E"/>
<path d="M249.471 306.194L206.563 281.401C205.854 281.047 205.322 279.807 205.322 278.922C205.322 278.036 205.854 277.505 206.563 278.036L249.471 302.829C250.18 303.183 250.712 304.423 250.712 305.309C250.89 306.017 250.18 306.548 249.471 306.194Z" fill="#BCBCBC"/>
<path d="M271.989 375.615L200.534 334.352C198.584 333.112 196.811 330.102 196.811 327.445V319.299C196.811 316.643 198.407 315.403 200.534 316.465L271.989 357.728C273.939 358.968 275.713 361.978 275.713 364.635V372.781C275.535 375.437 273.939 376.677 271.989 375.615Z" fill="url(#paint31_linear)"/>
<path opacity="0.3" d="M204.081 332.758C202.13 331.518 200.357 328.508 200.357 325.851V317.705C200.357 317.351 200.357 316.82 200.534 316.465H200.357C198.407 315.226 196.634 316.465 196.634 319.299V327.445C196.634 330.101 198.229 333.289 200.357 334.352L271.812 375.614C273.585 376.677 275.003 375.791 275.358 374.021L204.081 332.758Z" fill="#06033E"/>
<path d="M249.471 353.478L206.563 328.685C205.854 328.331 205.322 327.091 205.322 326.205C205.322 325.32 205.854 324.789 206.563 325.32L249.471 350.113C250.18 350.467 250.712 351.707 250.712 352.592C250.89 353.478 250.18 353.832 249.471 353.478Z" fill="#D4ECFF"/>
<path d="M185.463 110.683L192.91 114.933V145.216L185.463 140.789V110.683Z" fill="url(#paint32_linear)"/>
<path d="M185.463 158.321L192.91 162.749V192.854L185.463 188.427V158.321Z" fill="url(#paint33_linear)"/>
<path d="M185.463 206.136L192.91 210.387V240.492L185.463 236.242V206.136Z" fill="url(#paint34_linear)"/>
<path d="M185.463 253.774L192.91 258.025V288.13L185.463 283.88V253.774Z" fill="url(#paint35_linear)"/>
<path d="M185.463 301.412L192.91 305.663V335.769L185.463 331.518V301.412Z" fill="url(#paint36_linear)"/>
<path d="M257.589 166.503C258.182 166.16 258.187 165.059 257.599 164.042C257.012 163.026 256.054 162.48 255.461 162.822C254.867 163.164 254.862 164.266 255.45 165.282C256.037 166.299 256.995 166.845 257.589 166.503Z" fill="#D4ECFF"/>
<path d="M264.365 169.301C264.365 170.186 263.656 170.718 262.769 170.186C261.883 169.655 261.173 168.593 261.173 167.53C261.173 166.468 261.883 166.113 262.769 166.645C263.656 167.176 264.365 168.416 264.365 169.301Z" fill="#BCBCBC"/>
<path d="M270.748 173.02C270.748 173.905 270.039 174.437 269.152 173.905C268.266 173.374 267.556 172.312 267.556 171.249C267.556 170.186 268.266 169.832 269.152 170.364C270.216 170.895 270.748 172.135 270.748 173.02Z" fill="#D4ECFF"/>
<path d="M257.982 213.22C257.982 214.106 257.273 214.637 256.386 214.106C255.5 213.574 254.79 212.512 254.79 211.449C254.79 210.564 255.5 210.032 256.386 210.564C257.273 211.095 257.982 212.335 257.982 213.22Z" fill="#BCBCBC"/>
<path d="M264.365 216.939C264.365 217.825 263.656 218.356 262.769 217.825C261.883 217.293 261.173 216.231 261.173 215.168C261.173 214.106 261.883 213.751 262.769 214.283C263.656 214.814 264.365 216.054 264.365 216.939Z" fill="#D4ECFF"/>
<path d="M270.748 220.658C270.748 221.544 270.039 222.075 269.152 221.544C268.266 221.012 267.556 219.95 267.556 218.887C267.556 218.002 268.266 217.47 269.152 218.002C270.216 218.533 270.748 219.773 270.748 220.658Z" fill="white"/>
<path d="M257.982 261.212C257.982 262.098 257.273 262.629 256.386 262.098C255.5 261.566 254.79 260.504 254.79 259.441C254.79 258.379 255.5 258.025 256.386 258.556C257.273 259.087 257.982 260.327 257.982 261.212Z" fill="white"/>
<path d="M264.365 264.931C264.365 265.817 263.656 266.348 262.769 265.817C261.883 265.285 261.173 264.223 261.173 263.16C261.173 262.098 261.883 261.744 262.769 262.275C263.656 262.806 264.365 264.046 264.365 264.931Z" fill="#BCBCBC"/>
<path d="M270.748 268.65C270.748 269.536 270.039 270.067 269.152 269.536C268.266 269.004 267.556 267.942 267.556 266.879C267.556 265.817 268.266 265.463 269.152 265.994C270.216 266.525 270.748 267.765 270.748 268.65Z" fill="white"/>
<path d="M257.982 308.673C257.982 309.559 257.273 310.09 256.386 309.559C255.5 309.027 254.79 307.965 254.79 306.902C254.79 305.84 255.5 305.486 256.386 306.017C257.273 306.548 257.982 307.611 257.982 308.673Z" fill="white"/>
<path d="M264.365 312.215C264.365 313.101 263.656 313.632 262.769 313.101C261.883 312.569 261.173 311.507 261.173 310.444C261.173 309.382 261.883 309.028 262.769 309.559C263.656 310.09 264.365 311.33 264.365 312.215Z" fill="#D4ECFF"/>
<path d="M270.748 315.934C270.748 316.82 270.039 317.351 269.152 316.82C268.266 316.288 267.556 315.226 267.556 314.163C267.556 313.278 268.266 312.746 269.152 313.278C270.216 313.809 270.748 315.049 270.748 315.934Z" fill="#D4ECFF"/>
<path d="M257.982 356.488C257.982 357.374 257.273 357.905 256.386 357.374C255.5 356.843 254.79 355.78 254.79 354.718C254.79 353.832 255.5 353.301 256.386 353.832C257.273 354.363 257.982 355.603 257.982 356.488Z" fill="white"/>
<path d="M264.365 360.207C264.365 361.093 263.656 361.624 262.769 361.093C261.883 360.562 261.173 359.499 261.173 358.436C261.173 357.374 261.883 357.02 262.769 357.551C263.656 358.082 264.365 359.322 264.365 360.207Z" fill="#BCBCBC"/>
<path d="M270.748 363.926C270.748 364.812 270.039 365.343 269.152 364.812C268.266 364.281 267.556 363.218 267.556 362.155C267.556 361.093 268.266 360.739 269.152 361.27C270.216 361.801 270.748 363.041 270.748 363.926Z" fill="#D4ECFF"/>
<path d="M303.55 377.74V164.52L303.904 164.342L393.09 112.808V326.028L392.735 326.205L303.55 377.74ZM305.323 165.405V374.552L391.494 324.789V115.819L305.323 165.405Z" fill="url(#paint37_linear)"/>
<path d="M370.04 208.616L329.969 231.638C327.309 233.232 325.181 231.461 325.181 227.919V205.782C325.181 202.24 327.309 197.99 329.969 196.573L370.04 173.551C372.7 171.957 374.827 173.728 374.827 177.27V199.407C375.005 202.949 372.877 207.199 370.04 208.616Z" fill="url(#paint38_linear)"/>
<path d="M371.104 173.197C371.281 173.905 371.458 174.614 371.458 175.499V197.636C371.458 201.178 369.331 205.428 366.671 206.845L326.6 229.867C326.245 230.044 325.891 230.221 325.713 230.221C326.422 232.169 328.195 232.877 330.146 231.638L370.217 208.616C372.877 207.022 375.005 202.949 375.005 199.407V177.27C375.005 174.082 373.232 172.489 371.104 173.197Z" fill="url(#paint39_linear)"/>
<path d="M362.77 195.334C363.48 194.979 364.189 195.334 364.189 196.042V201.178C364.189 202.063 363.657 203.126 362.77 203.48C362.061 203.834 361.352 203.48 361.352 202.772V197.636C361.529 196.75 362.061 195.688 362.77 195.334Z" fill="white"/>
<path d="M357.097 199.23C357.806 198.875 358.515 199.23 358.515 199.938V204.365C358.515 205.251 357.983 206.313 357.097 206.668C356.387 207.022 355.678 206.668 355.678 205.959V201.532C355.678 200.823 356.387 199.761 357.097 199.23Z" fill="white"/>
<path d="M351.245 197.636C351.955 197.282 352.664 197.636 352.664 198.344V207.73C352.664 208.616 352.132 209.678 351.245 210.032C350.536 210.387 349.827 210.032 349.827 209.324V199.938C350.004 199.053 350.536 198.167 351.245 197.636Z" fill="#BCBCBC"/>
<path d="M345.572 195.511C346.281 195.157 346.99 195.511 346.99 196.219V210.918C346.99 211.803 346.458 212.866 345.572 213.22C344.862 213.574 344.153 213.22 344.153 212.512V197.813C344.33 197.105 344.862 196.042 345.572 195.511Z" fill="white"/>
<path d="M339.898 200.469C340.607 200.115 341.316 200.469 341.316 201.178V214.283C341.316 215.168 340.784 216.231 339.898 216.585C339.189 216.939 338.479 216.585 338.479 215.876V202.772C338.479 201.886 339.189 200.824 339.898 200.469Z" fill="white"/>
<path d="M334.047 209.855C334.756 209.501 335.465 209.855 335.465 210.564V217.647C335.465 218.533 334.933 219.595 334.047 219.95C333.337 220.304 332.628 219.95 332.628 219.241V212.157C332.806 211.272 333.337 210.209 334.047 209.855Z" fill="white"/>
<path d="M361.529 192.854C361.529 193.74 362.061 194.094 362.77 193.563C363.48 193.208 364.012 192.146 364.012 191.26C364.012 190.375 363.48 190.021 362.77 190.552C362.061 190.906 361.529 191.969 361.529 192.854Z" fill="#BCBCBC"/>
<path d="M363.757 187.883C364.295 186.951 364.32 185.958 363.811 185.665C363.302 185.371 362.453 185.889 361.914 186.82C361.376 187.752 361.352 188.745 361.86 189.039C362.369 189.332 363.218 188.815 363.757 187.883Z" fill="white"/>
<path opacity="0.58" d="M515.077 191.615H509.049V82.7025L515.077 79.1606V191.615Z" fill="url(#paint40_linear)"/>
<path d="M281.032 567.583L219.861 532.342C216.137 530.217 216.492 526.321 220.925 523.841L279.968 489.839C284.223 487.36 290.784 487.006 294.684 489.308L355.855 524.55C359.579 526.675 359.224 530.571 354.792 533.05L295.748 567.052C291.316 569.531 284.755 569.708 281.032 567.583Z" fill="url(#paint41_linear)"/>
<path d="M287.415 553.239C284.401 553.239 281.564 552.53 279.259 551.291L218.088 516.049C215.428 514.455 213.832 511.976 213.832 509.32C213.832 506.309 215.783 503.476 219.152 501.528L278.195 467.526C283.691 464.338 291.493 464.161 296.28 466.995L357.451 502.236C360.111 503.83 361.706 506.309 361.706 508.966C361.706 511.976 359.756 514.81 356.387 516.758L297.344 550.759C294.507 552.353 290.961 553.239 287.415 553.239ZM282.805 545.27C285.464 546.863 290.784 546.509 293.975 544.738L353.018 510.736C354.437 509.851 354.792 509.143 354.792 508.966C354.792 508.966 354.614 508.611 354.082 508.257L292.911 472.839C290.252 471.245 284.932 471.599 281.741 473.37L222.698 507.372C221.279 508.257 220.925 508.966 220.925 509.143C220.925 509.143 221.102 509.497 221.634 509.851L282.805 545.27Z" fill="#E2E2E2"/>
<path d="M358.338 487.183V466.109H310.997L294.684 456.723C290.961 454.598 284.401 454.775 279.968 457.254L264.719 466.109H217.378V487.714C217.201 489.131 218.088 490.548 219.861 491.611L281.032 526.852C284.755 528.977 291.316 528.8 295.748 526.321L354.792 492.319C357.274 490.902 358.515 488.954 358.338 487.183Z" fill="url(#paint42_linear)"/>
<path d="M287.769 455.129C284.932 455.129 282.096 455.838 279.968 457.254L264.719 466.109H217.378V487.714C217.201 489.131 218.088 490.548 219.861 491.61L281.032 526.852C282.805 527.915 285.287 528.446 287.769 528.269V455.129Z" fill="url(#paint43_radial)"/>
<path d="M222.698 466.109H217.378V487.714C217.201 489.131 218.088 490.548 219.861 491.61L222.698 493.204V466.109Z" fill="url(#paint44_linear)"/>
<path d="M281.918 527.383C285.11 528.8 289.897 528.623 293.621 527.206V502.59H281.918V527.383Z" fill="url(#paint45_linear)"/>
<path d="M281.032 505.247L219.861 470.005C216.137 467.88 216.492 463.984 220.925 461.505L279.968 427.503C284.223 425.023 290.784 424.669 294.684 426.971L355.855 462.213C359.579 464.338 359.224 468.234 354.792 470.713L295.748 504.715C291.316 507.195 284.755 507.549 281.032 505.247Z" fill="url(#paint46_linear)"/>
<path d="M354.792 466.463L295.748 500.465C291.493 502.944 284.933 503.299 281.032 500.996L219.861 465.932C218.974 465.401 218.442 464.869 217.91 464.338C216.669 466.463 217.201 468.588 219.861 470.182L281.032 505.424C284.755 507.549 291.316 507.372 295.748 504.892L354.792 470.891C358.16 468.943 359.224 466.286 357.806 464.161C357.097 464.869 356.033 465.755 354.792 466.463Z" fill="white"/>
<path d="M335.82 492.85C335.82 494.444 334.756 496.392 333.337 497.1C331.919 497.809 330.855 497.277 330.855 495.684C330.855 494.09 331.919 492.142 333.337 491.433C334.756 490.548 335.82 491.256 335.82 492.85Z" fill="#D4ECFF"/>
<path d="M343.798 488.246C343.798 489.839 342.735 491.787 341.316 492.496C339.898 493.204 338.834 492.673 338.834 491.079C338.834 489.485 339.898 487.537 341.316 486.829C342.735 485.943 343.798 486.652 343.798 488.246Z" fill="#D4ECFF"/>
<path d="M351.777 483.641C351.777 485.235 350.713 487.183 349.295 487.891C347.877 488.6 346.813 488.069 346.813 486.475C346.813 484.881 347.877 482.933 349.295 482.224C350.536 481.339 351.777 482.047 351.777 483.641Z" fill="#D4ECFF"/>
<path d="M284.578 483.463L256.031 466.994C254.258 465.931 254.436 464.16 256.563 463.098L284.223 447.159C286.174 445.92 289.365 445.92 291.138 446.805L319.685 463.275C321.458 464.337 321.28 466.108 319.153 467.171L291.493 483.109C289.542 484.349 286.351 484.526 284.578 483.463Z" fill="url(#paint47_linear)"/>
<path d="M287.415 469.651L283.514 467.349C283.337 467.172 283.337 466.994 283.514 466.817L287.415 464.692C287.769 464.515 288.124 464.515 288.301 464.692L292.202 466.995C292.379 467.172 292.379 467.349 292.202 467.526L288.301 469.651C288.124 469.828 287.592 469.828 287.415 469.651Z" fill="#D4ECFF"/>
<path d="M256.031 466.994C256.209 466.994 256.386 466.817 256.563 466.817L284.223 450.879C286.174 449.639 289.365 449.639 291.138 450.525L319.685 466.994C321.28 465.755 321.458 464.338 319.685 463.276L291.138 446.806C289.365 445.743 286.351 445.92 284.223 447.16L256.563 463.098C254.436 464.161 254.258 465.932 256.031 466.994Z" fill="url(#paint48_linear)"/>
<path d="M505.325 411.918L444.154 376.677C440.431 374.552 440.785 370.656 445.218 368.176L504.261 334.175C508.517 331.695 515.077 331.341 518.978 333.643L580.149 368.885C583.872 371.01 583.518 374.906 579.085 377.385L520.042 411.387C515.609 413.867 509.049 414.044 505.325 411.918Z" fill="url(#paint49_linear)"/>
<path d="M511.708 397.574C508.694 397.574 505.857 396.866 503.552 395.626L442.381 360.384C439.722 358.791 438.126 356.311 438.126 353.655C438.126 350.644 440.076 347.811 443.445 345.863L502.488 311.861C507.985 308.673 515.786 308.496 520.574 311.33L581.745 346.571C584.404 348.165 586 350.644 586 353.301C586 356.311 584.05 359.145 580.681 361.093L521.638 394.918C518.801 396.689 515.077 397.574 511.708 397.574ZM506.921 389.605C509.581 391.199 514.9 390.844 518.091 389.074L577.135 355.072C578.553 354.186 578.908 353.478 578.908 353.301C578.908 353.301 578.73 352.947 578.199 352.592L517.028 317.351C514.368 315.757 509.049 316.111 505.857 317.882L446.814 351.884C445.395 352.769 445.041 353.478 445.041 353.655C445.041 353.655 445.218 354.009 445.75 354.363L506.921 389.605Z" fill="#E2E2E2"/>
<path d="M582.631 331.518V310.444H535.29L518.978 301.058C515.254 298.933 508.694 299.11 504.261 301.589L489.013 310.444H441.672V332.049C441.495 333.466 442.381 334.883 444.154 335.945L505.325 371.187C509.049 373.312 515.609 373.135 520.042 370.656L579.085 336.654C581.567 335.06 582.631 333.289 582.631 331.518Z" fill="url(#paint50_linear)"/>
<path d="M512.063 299.464C509.226 299.464 506.389 300.173 504.261 301.589L489.013 310.444H441.672V332.049C441.495 333.466 442.381 334.883 444.154 335.946L505.325 371.187C507.098 372.25 509.581 372.781 512.063 372.604V299.464Z" fill="url(#paint51_radial)"/>
<path d="M446.991 310.267H441.672V331.872C441.495 333.289 442.381 334.706 444.154 335.768L446.991 337.362V310.267Z" fill="url(#paint52_linear)"/>
<path d="M506.212 371.718C509.403 373.135 514.191 372.958 517.914 371.541V346.925H506.212V371.718Z" fill="url(#paint53_linear)"/>
<path d="M505.325 349.582L444.154 314.34C440.431 312.215 440.785 308.319 445.218 305.84L504.261 271.838C508.517 269.359 515.077 269.004 518.978 271.307L580.149 306.548C583.872 308.673 583.518 312.569 579.085 315.049L520.042 349.05C515.609 351.53 509.049 351.884 505.325 349.582Z" fill="url(#paint54_linear)"/>
<path d="M579.085 310.798L520.042 344.8C515.786 347.279 509.226 347.634 505.325 345.331L444.154 310.09C443.268 309.559 442.736 309.027 442.204 308.496C440.963 310.621 441.495 312.746 444.154 314.34L505.325 349.582C509.049 351.707 515.609 351.53 520.042 349.05L579.085 315.048C582.454 313.1 583.518 310.444 582.099 308.319C581.39 309.027 580.326 310.09 579.085 310.798Z" fill="white"/>
<path d="M560.113 337.008C560.113 338.602 559.049 340.55 557.631 341.258C556.212 341.967 555.149 341.435 555.149 339.842C555.149 338.248 556.212 336.3 557.631 335.591C558.872 334.883 560.113 335.414 560.113 337.008Z" fill="#D4ECFF"/>
<path d="M568.092 332.404C568.092 333.997 567.028 335.946 565.61 336.654C564.191 337.362 563.127 336.831 563.127 335.237C563.127 333.643 564.191 331.695 565.61 330.987C566.851 330.279 568.092 330.987 568.092 332.404Z" fill="#D4ECFF"/>
<path d="M575.893 327.976C575.893 329.57 574.83 331.518 573.411 332.227C571.993 332.935 570.929 332.404 570.929 330.81C570.929 329.216 571.993 327.268 573.411 326.56C574.83 325.674 575.893 326.382 575.893 327.976Z" fill="#D4ECFF"/>
<path d="M508.871 327.799L480.325 311.33C478.552 310.267 478.729 308.496 480.857 307.434L508.517 291.495C510.467 290.256 513.659 290.256 515.432 291.141L543.978 307.611C545.751 308.673 545.574 310.444 543.446 311.507L515.786 327.445C513.659 328.685 510.644 328.685 508.871 327.799Z" fill="url(#paint55_linear)"/>
<path d="M511.708 313.986L507.808 311.684C507.63 311.507 507.63 311.329 507.808 311.152L511.708 309.027C512.063 308.85 512.418 308.85 512.595 309.027L516.496 311.329C516.673 311.507 516.673 311.684 516.496 311.861L512.595 313.986C512.24 313.986 511.886 313.986 511.708 313.986Z" fill="#D4ECFF"/>
<path d="M480.325 311.152C480.502 311.152 480.68 310.975 480.857 310.975L508.517 295.037C510.467 293.797 513.659 293.797 515.432 294.683L543.978 311.152C545.574 309.913 545.751 308.496 543.978 307.433L515.432 290.964C513.659 289.901 510.644 290.078 508.517 291.318L480.857 307.256C478.729 308.496 478.552 310.267 480.325 311.152Z" fill="url(#paint56_linear)"/>
<path d="M67.1994 430.159L6.02842 394.917C2.30497 392.792 2.65958 388.896 7.09226 386.417L66.1355 352.415C70.3909 349.936 76.9513 349.582 80.852 351.884L142.023 387.125C145.746 389.25 145.392 393.146 140.959 395.626L81.9159 429.628C77.4832 432.107 70.9228 432.284 67.1994 430.159Z" fill="url(#paint57_linear)"/>
<path d="M73.5825 415.814C70.5682 415.814 67.7313 415.106 65.4263 413.866L4.25537 378.625C1.59576 377.031 0 374.552 0 371.895C0 368.885 1.95038 366.051 5.31921 364.103L64.3625 330.101C69.859 326.914 77.6605 326.737 82.4478 329.57L143.619 364.812C146.278 366.406 147.874 368.885 147.874 371.541C147.874 374.552 145.924 377.385 142.555 379.333L83.5116 413.335C80.6747 414.929 77.1286 415.814 73.5825 415.814ZM68.9725 407.845C71.6321 409.439 76.9513 409.085 80.1428 407.314L139.186 373.312C140.605 372.427 140.959 371.718 140.959 371.541C140.959 371.541 140.782 371.187 140.25 370.833L79.079 335.591C76.4194 333.998 71.1002 334.352 67.9086 336.123L8.86536 370.124C7.4469 371.01 7.09228 371.718 7.09228 371.895C7.09228 371.895 7.26959 372.25 7.80151 372.604L68.9725 407.845Z" fill="#E2E2E2"/>
<path d="M144.505 349.759V328.685H97.1643L80.852 319.299C77.1286 317.174 70.5682 317.351 66.1355 319.83L50.8871 328.685H3.54614V350.29C3.36883 351.707 4.25536 353.124 6.02844 354.186L67.1994 389.428C70.9228 391.553 77.4832 391.376 81.9159 388.896L140.959 354.894C143.441 353.301 144.683 351.53 144.505 349.759Z" fill="url(#paint58_linear)"/>
<path d="M73.9371 317.705C71.1001 317.705 68.2632 318.413 66.1355 319.83L50.8871 328.685H3.54614V350.29C3.36883 351.707 4.25536 353.123 6.02843 354.186L67.1994 389.428C68.9725 390.49 71.4548 391.021 73.9371 390.844V317.705Z" fill="url(#paint59_radial)"/>
<path d="M8.86535 328.685H3.54614V350.29C3.36883 351.707 4.25536 353.124 6.02844 354.186L8.86535 355.78V328.685Z" fill="url(#paint60_linear)"/>
<path d="M68.086 389.959C71.2775 391.376 76.0648 391.199 79.7882 389.782V365.166H68.086V389.959Z" fill="url(#paint61_linear)"/>
<path d="M67.1994 367.822L6.02842 332.581C2.30497 330.456 2.65958 326.56 7.09226 324.08L66.1355 290.078C70.3909 287.599 76.9513 287.245 80.852 289.547L142.023 324.789C145.746 326.914 145.392 330.81 140.959 333.289L81.9159 367.291C77.4832 369.77 70.9228 370.124 67.1994 367.822Z" fill="url(#paint62_linear)"/>
<path d="M140.959 329.039L81.9159 363.041C77.6605 365.52 71.1002 365.874 67.1994 363.572L6.02845 328.508C5.14192 327.976 4.61 327.445 4.07808 326.914C2.83693 329.039 3.36885 331.164 6.02845 332.758L67.1994 367.999C70.9229 370.124 77.4832 369.947 81.9159 367.468L140.959 333.466C144.328 331.518 145.392 328.862 143.973 326.737C143.264 327.445 142.378 328.33 140.959 329.039Z" fill="white"/>
<path d="M121.987 355.249C121.987 356.842 120.923 358.79 119.505 359.499C118.087 360.207 117.023 359.676 117.023 358.082C117.023 356.488 118.087 354.54 119.505 353.832C120.923 353.123 121.987 353.832 121.987 355.249Z" fill="#D4ECFF"/>
<path d="M129.966 350.821C129.966 352.415 128.902 354.363 127.484 355.072C126.065 355.78 125.002 355.249 125.002 353.655C125.002 352.061 126.065 350.113 127.484 349.405C128.902 348.519 129.966 349.227 129.966 350.821Z" fill="#D4ECFF"/>
<path d="M137.945 346.217C137.945 347.811 136.881 349.759 135.463 350.467C134.044 351.175 132.98 350.644 132.98 349.05C132.98 347.456 134.044 345.508 135.463 344.8C136.881 343.915 137.945 344.623 137.945 346.217Z" fill="#D4ECFF"/>
<path d="M70.7455 346.039L42.1991 329.569C40.426 328.507 40.6033 326.736 42.731 325.673L70.3909 309.735C72.3413 308.495 75.5328 308.495 77.3059 309.381L105.852 325.85C107.625 326.913 107.448 328.684 105.32 329.746L77.6605 345.685C75.7101 346.924 72.5186 347.101 70.7455 346.039Z" fill="url(#paint63_linear)"/>
<path d="M73.5824 332.227L69.6817 329.924C69.5044 329.747 69.5044 329.57 69.6817 329.393L73.5824 327.268C73.9371 327.091 74.2917 327.091 74.469 327.268L78.3697 329.57C78.547 329.747 78.547 329.924 78.3697 330.101L74.469 332.227C74.2917 332.227 73.7598 332.404 73.5824 332.227Z" fill="#D4ECFF"/>
<path d="M42.1991 329.57C42.3764 329.57 42.5537 329.393 42.731 329.393L70.3909 313.455C72.3413 312.215 75.5328 312.215 77.3059 313.101L105.852 329.57C107.448 328.331 107.625 326.914 105.852 325.851L77.3059 309.382C75.5328 308.319 72.5186 308.496 70.3909 309.736L42.731 325.674C40.6033 326.737 40.426 328.508 42.1991 329.57Z" fill="url(#paint64_linear)"/>
<path d="M497.701 502.59L457.63 479.391L497.701 456.369L537.772 479.391L497.701 502.59Z" fill="url(#paint65_linear)"/>
<path d="M497.701 488.246C497.169 488.246 496.637 488.069 496.105 487.891L456.034 464.869C455.147 464.338 454.438 463.275 454.438 462.213C454.438 461.15 454.97 460.088 456.034 459.557L496.105 436.534C496.992 436.003 498.233 436.003 499.12 436.534L539.191 459.557C540.078 460.088 540.787 461.15 540.787 462.213C540.787 463.275 540.255 464.338 539.191 464.869L499.12 487.891C498.765 488.069 498.233 488.246 497.701 488.246ZM463.658 462.036L497.701 481.693L531.744 462.036L497.701 442.379L463.658 462.036Z" fill="#E2E2E2"/>
<path d="M537.773 444.149L497.701 467.171V420.95L537.773 397.928V444.149Z" fill="url(#paint66_linear)"/>
<path d="M497.701 420.95L457.63 397.928L497.701 374.729L537.772 397.928L497.701 420.95Z" fill="url(#paint67_linear)"/>
<path d="M497.701 467.171L457.63 444.149V397.928L497.701 420.95V467.171Z" fill="url(#paint68_linear)"/>
<path d="M483.162 442.201L471.992 435.826V422.898L483.162 429.274V442.201Z" fill="white"/>
</g>
<defs>
<linearGradient id="paint0_linear" x1="472.009" y1="273.144" x2="552.117" y2="273.144" gradientUnits="userSpaceOnUse">
<stop offset="0.00615385" stop-opacity="0.08"/>
<stop offset="1" stop-opacity="0.08"/>
</linearGradient>
<linearGradient id="paint1_linear" x1="512.064" y1="226.204" x2="552.117" y2="226.204" gradientUnits="userSpaceOnUse">
<stop offset="0.00615385" stop-color="#D15800"/>
<stop offset="1" stop-color="#C76925"/>
</linearGradient>
<linearGradient id="paint2_linear" x1="472.01" y1="191.559" x2="552.116" y2="191.559" gradientUnits="userSpaceOnUse">
<stop offset="0.00615385" stop-color="#FF994F"/>
<stop offset="1" stop-color="#FFB27A"/>
</linearGradient>
<linearGradient id="paint3_linear" x1="472.01" y1="226.204" x2="512.064" y2="226.204" gradientUnits="userSpaceOnUse">
<stop offset="0.00615385" stop-color="#FF730E"/>
<stop offset="0.5967" stop-color="#FD730F"/>
<stop offset="0.8091" stop-color="#F67211"/>
<stop offset="0.9603" stop-color="#EB7016"/>
<stop offset="1" stop-color="#E66F18"/>
</linearGradient>
<linearGradient id="paint4_linear" x1="43.5526" y1="255.158" x2="123.661" y2="255.158" gradientUnits="userSpaceOnUse">
<stop offset="0.00615385" stop-opacity="0.08"/>
<stop offset="1" stop-opacity="0.08"/>
</linearGradient>
<linearGradient id="paint5_linear" x1="83.6073" y1="208.217" x2="123.661" y2="208.217" gradientUnits="userSpaceOnUse">
<stop offset="0.00615385" stop-color="#D15800"/>
<stop offset="1" stop-color="#C76925"/>
</linearGradient>
<linearGradient id="paint6_linear" x1="43.5536" y1="173.573" x2="123.66" y2="173.573" gradientUnits="userSpaceOnUse">
<stop offset="0.00615385" stop-color="#FF994F"/>
<stop offset="1" stop-color="#FFB27A"/>
</linearGradient>
<linearGradient id="paint7_linear" x1="43.5536" y1="208.217" x2="83.6073" y2="208.217" gradientUnits="userSpaceOnUse">
<stop offset="0.00615385" stop-color="#FF730E"/>
<stop offset="0.5967" stop-color="#FD730F"/>
<stop offset="0.8091" stop-color="#F67211"/>
<stop offset="0.9603" stop-color="#EB7016"/>
<stop offset="1" stop-color="#E66F18"/>
</linearGradient>
<linearGradient id="paint8_linear" x1="57.9789" y1="208.217" x2="69.1817" y2="208.217" gradientUnits="userSpaceOnUse">
<stop stop-color="#C5C5C5"/>
<stop offset="0.3103" stop-color="#CBCBCB"/>
<stop offset="0.6946" stop-color="#DADADA"/>
<stop offset="1" stop-color="#EBEBEB"/>
</linearGradient>
<linearGradient id="paint9_linear" x1="173.103" y1="393.755" x2="405.53" y2="393.755" gradientUnits="userSpaceOnUse">
<stop offset="0.00615385" stop-opacity="0.08"/>
<stop offset="1" stop-opacity="0.08"/>
</linearGradient>
<linearGradient id="paint10_linear" x1="276.98" y1="245.244" x2="445.963" y2="245.244" gradientUnits="userSpaceOnUse">
<stop offset="0.00615385" stop-color="#BCBCBC"/>
<stop offset="0.0287389" stop-color="#BDBDBD"/>
<stop offset="0.3078" stop-color="#C4C4C4"/>
<stop offset="1" stop-color="#C6C6C6"/>
</linearGradient>
<linearGradient id="paint11_linear" x1="170.779" y1="100.674" x2="405.318" y2="100.674" gradientUnits="userSpaceOnUse">
<stop stop-color="#EBEBEB"/>
<stop offset="1" stop-color="#C5C5C5"/>
</linearGradient>
<linearGradient id="paint12_linear" x1="168.26" y1="246.31" x2="287.821" y2="246.31" gradientUnits="userSpaceOnUse">
<stop offset="0.00615385" stop-color="#FF994F"/>
<stop offset="1" stop-color="#FFB27A"/>
</linearGradient>
<linearGradient id="paint13_linear" x1="171.742" y1="229.721" x2="267.046" y2="214.953" gradientUnits="userSpaceOnUse">
<stop stop-color="#3919BB"/>
<stop offset="1" stop-color="#6507FA"/>
</linearGradient>
<linearGradient id="paint14_linear" x1="171.742" y1="229.721" x2="267.046" y2="214.953" gradientUnits="userSpaceOnUse">
<stop stop-color="#3919BB"/>
<stop offset="1" stop-color="#6507FA"/>
</linearGradient>
<linearGradient id="paint15_linear" x1="175.781" y1="245.196" x2="280.3" y2="245.196" gradientUnits="userSpaceOnUse">
<stop offset="0.00615385" stop-color="#D15800"/>
<stop offset="1" stop-color="#C76925"/>
</linearGradient>
<linearGradient id="paint16_linear" x1="175.781" y1="245.195" x2="279.374" y2="245.195" gradientUnits="userSpaceOnUse">
<stop offset="0.00615385" stop-color="#FF6B00"/>
<stop offset="1" stop-color="#FF8730"/>
</linearGradient>
<linearGradient id="paint17_linear" x1="185.486" y1="313.074" x2="280.3" y2="313.074" gradientUnits="userSpaceOnUse">
<stop offset="0.00615385" stop-color="#D05A04"/>
<stop offset="0.1692" stop-color="#E06913"/>
<stop offset="0.4163" stop-color="#F17A23"/>
<stop offset="0.6827" stop-color="#FC842D"/>
<stop offset="1" stop-color="#FF8730"/>
</linearGradient>
<linearGradient id="paint18_linear" x1="185.486" y1="265.404" x2="280.3" y2="265.404" gradientUnits="userSpaceOnUse">
<stop offset="0.00615385" stop-color="#D05A04"/>
<stop offset="0.1692" stop-color="#E06913"/>
<stop offset="0.4163" stop-color="#F17A23"/>
<stop offset="0.6827" stop-color="#FC842D"/>
<stop offset="1" stop-color="#FF8730"/>
</linearGradient>
<linearGradient id="paint19_linear" x1="185.486" y1="217.734" x2="280.3" y2="217.734" gradientUnits="userSpaceOnUse">
<stop offset="0.00615385" stop-color="#D05A04"/>
<stop offset="0.1692" stop-color="#E06913"/>
<stop offset="0.4163" stop-color="#F17A23"/>
<stop offset="0.6827" stop-color="#FC842D"/>
<stop offset="1" stop-color="#FF8730"/>
</linearGradient>
<linearGradient id="paint20_linear" x1="185.486" y1="170.063" x2="280.3" y2="170.063" gradientUnits="userSpaceOnUse">
<stop offset="0.00615385" stop-color="#D05A04"/>
<stop offset="0.1692" stop-color="#E06913"/>
<stop offset="0.4163" stop-color="#F17A23"/>
<stop offset="0.6827" stop-color="#FC842D"/>
<stop offset="1" stop-color="#FF8730"/>
</linearGradient>
<linearGradient id="paint21_linear" x1="185.486" y1="134.31" x2="280.3" y2="134.31" gradientUnits="userSpaceOnUse">
<stop offset="0.00615385" stop-color="#D05A04"/>
<stop offset="0.1692" stop-color="#E06913"/>
<stop offset="0.4163" stop-color="#F17A23"/>
<stop offset="0.6827" stop-color="#FC842D"/>
<stop offset="1" stop-color="#FF8730"/>
</linearGradient>
<linearGradient id="paint22_linear" x1="185.486" y1="153.117" x2="280.3" y2="153.117" gradientUnits="userSpaceOnUse">
<stop offset="0.00615385" stop-color="#FF994F"/>
<stop offset="1" stop-color="#FFB27A"/>
</linearGradient>
<linearGradient id="paint23_linear" x1="185.486" y1="200.787" x2="280.3" y2="200.787" gradientUnits="userSpaceOnUse">
<stop offset="0.00615385" stop-color="#FF994F"/>
<stop offset="1" stop-color="#FFB27A"/>
</linearGradient>
<linearGradient id="paint24_linear" x1="185.486" y1="248.457" x2="280.3" y2="248.457" gradientUnits="userSpaceOnUse">
<stop offset="0.00615385" stop-color="#FF994F"/>
<stop offset="1" stop-color="#FFB27A"/>
</linearGradient>
<linearGradient id="paint25_linear" x1="185.486" y1="296.128" x2="280.3" y2="296.128" gradientUnits="userSpaceOnUse">
<stop offset="0.00615385" stop-color="#FF994F"/>
<stop offset="1" stop-color="#FFB27A"/>
</linearGradient>
<linearGradient id="paint26_linear" x1="185.486" y1="343.798" x2="280.3" y2="343.798" gradientUnits="userSpaceOnUse">
<stop offset="0.00615385" stop-color="#FF994F"/>
<stop offset="1" stop-color="#FFB27A"/>
</linearGradient>
<linearGradient id="paint27_linear" x1="196.872" y1="155.295" x2="275.589" y2="155.295" gradientUnits="userSpaceOnUse">
<stop offset="0.00615385" stop-color="#D05902"/>
<stop offset="0.0259906" stop-color="#D35B03"/>
<stop offset="0.1863" stop-color="#E76507"/>
<stop offset="0.3701" stop-color="#F46D0B"/>
<stop offset="0.5981" stop-color="#FD720C"/>
<stop offset="1" stop-color="#FF730D"/>
</linearGradient>
<linearGradient id="paint28_linear" x1="196.872" y1="202.671" x2="275.589" y2="202.671" gradientUnits="userSpaceOnUse">
<stop offset="0.00615385" stop-color="#D05902"/>
<stop offset="0.0259906" stop-color="#D35B03"/>
<stop offset="0.1863" stop-color="#E76507"/>
<stop offset="0.3701" stop-color="#F46D0B"/>
<stop offset="0.5981" stop-color="#FD720C"/>
<stop offset="1" stop-color="#FF730D"/>
</linearGradient>
<linearGradient id="paint29_linear" x1="196.872" y1="250.488" x2="275.589" y2="250.488" gradientUnits="userSpaceOnUse">
<stop offset="0.00615385" stop-color="#D05902"/>
<stop offset="0.0259906" stop-color="#D35B03"/>
<stop offset="0.1863" stop-color="#E76507"/>
<stop offset="0.3701" stop-color="#F46D0B"/>
<stop offset="0.5981" stop-color="#FD720C"/>
<stop offset="1" stop-color="#FF730D"/>
</linearGradient>
<linearGradient id="paint30_linear" x1="196.872" y1="298.747" x2="275.589" y2="298.747" gradientUnits="userSpaceOnUse">
<stop offset="0.00615385" stop-color="#D05902"/>
<stop offset="0.0259906" stop-color="#D35B03"/>
<stop offset="0.1863" stop-color="#E76507"/>
<stop offset="0.3701" stop-color="#F46D0B"/>
<stop offset="0.5981" stop-color="#FD720C"/>
<stop offset="1" stop-color="#FF730D"/>
</linearGradient>
<linearGradient id="paint31_linear" x1="196.872" y1="346.05" x2="275.589" y2="346.05" gradientUnits="userSpaceOnUse">
<stop offset="0.00615385" stop-color="#D05902"/>
<stop offset="0.0259906" stop-color="#D35B03"/>
<stop offset="0.1863" stop-color="#E76507"/>
<stop offset="0.3701" stop-color="#F46D0B"/>
<stop offset="0.5981" stop-color="#FD720C"/>
<stop offset="1" stop-color="#FF730D"/>
</linearGradient>
<linearGradient id="paint32_linear" x1="185.486" y1="127.932" x2="192.952" y2="127.932" gradientUnits="userSpaceOnUse">
<stop offset="0.00615385" stop-color="#FF6B00"/>
<stop offset="1" stop-color="#FF8730"/>
</linearGradient>
<linearGradient id="paint33_linear" x1="185.486" y1="175.602" x2="192.952" y2="175.602" gradientUnits="userSpaceOnUse">
<stop offset="0.00615385" stop-color="#FF6B00"/>
<stop offset="1" stop-color="#FF8730"/>
</linearGradient>
<linearGradient id="paint34_linear" x1="185.486" y1="223.273" x2="192.952" y2="223.273" gradientUnits="userSpaceOnUse">
<stop offset="0.00615385" stop-color="#FF6B00"/>
<stop offset="1" stop-color="#FF8730"/>
</linearGradient>
<linearGradient id="paint35_linear" x1="185.486" y1="270.943" x2="192.952" y2="270.943" gradientUnits="userSpaceOnUse">
<stop offset="0.00615385" stop-color="#FF6B00"/>
<stop offset="1" stop-color="#FF8730"/>
</linearGradient>
<linearGradient id="paint36_linear" x1="185.486" y1="318.613" x2="192.952" y2="318.613" gradientUnits="userSpaceOnUse">
<stop offset="0.00615385" stop-color="#FF6B00"/>
<stop offset="1" stop-color="#FF8730"/>
</linearGradient>
<linearGradient id="paint37_linear" x1="303.606" y1="245.233" x2="393.298" y2="245.233" gradientUnits="userSpaceOnUse">
<stop offset="0.00615385" stop-color="#D15800"/>
<stop offset="1" stop-color="#C76925"/>
</linearGradient>
<linearGradient id="paint38_linear" x1="325.227" y1="202.669" x2="374.981" y2="202.669" gradientUnits="userSpaceOnUse">
<stop offset="0.00615385" stop-color="#D15800"/>
<stop offset="1" stop-color="#C76925"/>
</linearGradient>
<linearGradient id="paint39_linear" x1="325.589" y1="202.669" x2="374.981" y2="202.669" gradientUnits="userSpaceOnUse">
<stop offset="0.00615385" stop-color="#FF6B00"/>
<stop offset="1" stop-color="#FF8730"/>
</linearGradient>
<linearGradient id="paint40_linear" x1="509.018" y1="135.396" x2="515.109" y2="135.396" gradientUnits="userSpaceOnUse">
<stop stop-color="#C5C5C5"/>
</linearGradient>
<linearGradient id="paint41_linear" x1="217.29" y1="528.393" x2="358.343" y2="528.393" gradientUnits="userSpaceOnUse">
<stop offset="0.00615385" stop-opacity="0.08"/>
<stop offset="1" stop-opacity="0.08"/>
</linearGradient>
<linearGradient id="paint42_linear" x1="217.3" y1="491.796" x2="358.335" y2="491.796" gradientUnits="userSpaceOnUse">
<stop offset="0.00615385" stop-color="#D15800"/>
<stop offset="1" stop-color="#C76925"/>
</linearGradient>
<radialGradient id="paint43_radial" cx="0" cy="0" r="1" gradientUnits="userSpaceOnUse" gradientTransform="translate(221.186 459.904) scale(77.346 77.2526)">
<stop stop-color="#FFB179"/>
<stop offset="0.1674" stop-color="#FFAD72"/>
<stop offset="0.4038" stop-color="#FFA360"/>
<stop offset="0.6814" stop-color="#FF9142"/>
<stop offset="0.9881" stop-color="#FF7918"/>
<stop offset="1" stop-color="#FF7816"/>
</radialGradient>
<linearGradient id="paint44_linear" x1="217.3" y1="479.666" x2="222.672" y2="479.666" gradientUnits="userSpaceOnUse">
<stop stop-color="#FF8129"/>
<stop offset="1" stop-color="#FF9B53"/>
</linearGradient>
<linearGradient id="paint45_linear" x1="281.96" y1="515.516" x2="293.673" y2="515.516" gradientUnits="userSpaceOnUse">
<stop stop-color="#FF7614"/>
<stop offset="1" stop-color="#C76925"/>
</linearGradient>
<linearGradient id="paint46_linear" x1="217.29" y1="466.119" x2="358.343" y2="466.119" gradientUnits="userSpaceOnUse">
<stop offset="0.00615385" stop-color="#FF994F"/>
<stop offset="1" stop-color="#FFB27A"/>
</linearGradient>
<linearGradient id="paint47_linear" x1="254.814" y1="465.102" x2="320.82" y2="465.102" gradientUnits="userSpaceOnUse">
<stop offset="0.00615385" stop-color="#FF6B00"/>
<stop offset="1" stop-color="#FF8730"/>
</linearGradient>
<linearGradient id="paint48_linear" x1="254.814" y1="456.527" x2="320.811" y2="456.527" gradientUnits="userSpaceOnUse">
<stop offset="0.00615385" stop-color="#D15800"/>
<stop offset="1" stop-color="#C76925"/>
</linearGradient>
<linearGradient id="paint49_linear" x1="441.537" y1="372.697" x2="582.591" y2="372.697" gradientUnits="userSpaceOnUse">
<stop offset="0.00615385" stop-opacity="0.08"/>
<stop offset="1" stop-opacity="0.08"/>
</linearGradient>
<linearGradient id="paint50_linear" x1="441.547" y1="336.1" x2="582.582" y2="336.1" gradientUnits="userSpaceOnUse">
<stop offset="0.00615385" stop-color="#D15800"/>
<stop offset="1" stop-color="#C76925"/>
</linearGradient>
<radialGradient id="paint51_radial" cx="0" cy="0" r="1" gradientUnits="userSpaceOnUse" gradientTransform="translate(445.433 304.208) scale(77.3462 77.2528)">
<stop stop-color="#FF9C54"/>
<stop offset="0.2104" stop-color="#FF984D"/>
<stop offset="0.5075" stop-color="#FF8D3B"/>
<stop offset="0.8548" stop-color="#FF7C1D"/>
<stop offset="1" stop-color="#FF730E"/>
</radialGradient>
<linearGradient id="paint52_linear" x1="441.547" y1="323.97" x2="446.919" y2="323.97" gradientUnits="userSpaceOnUse">
<stop stop-color="#FF7614"/>
<stop offset="1" stop-color="#FF9B53"/>
</linearGradient>
<linearGradient id="paint53_linear" x1="506.208" y1="359.82" x2="517.92" y2="359.82" gradientUnits="userSpaceOnUse">
<stop stop-color="#FF7614"/>
<stop offset="1" stop-color="#C76925"/>
</linearGradient>
<linearGradient id="paint54_linear" x1="441.537" y1="310.423" x2="582.591" y2="310.423" gradientUnits="userSpaceOnUse">
<stop offset="0.00615385" stop-color="#FF994F"/>
<stop offset="1" stop-color="#FFB27A"/>
</linearGradient>
<linearGradient id="paint55_linear" x1="479.062" y1="309.406" x2="545.068" y2="309.406" gradientUnits="userSpaceOnUse">
<stop offset="0.00615385" stop-color="#FF6B00"/>
<stop offset="1" stop-color="#FF8730"/>
</linearGradient>
<linearGradient id="paint56_linear" x1="479.062" y1="300.831" x2="545.058" y2="300.831" gradientUnits="userSpaceOnUse">
<stop offset="0.00615385" stop-color="#D15800"/>
<stop offset="1" stop-color="#C76925"/>
</linearGradient>
<linearGradient id="paint57_linear" x1="3.47537" y1="390.956" x2="144.529" y2="390.956" gradientUnits="userSpaceOnUse">
<stop offset="0.00615385" stop-opacity="0.08"/>
<stop offset="1" stop-opacity="0.08"/>
</linearGradient>
<linearGradient id="paint58_linear" x1="3.4855" y1="354.36" x2="144.52" y2="354.36" gradientUnits="userSpaceOnUse">
<stop offset="0.00615385" stop-color="#D15800"/>
<stop offset="1" stop-color="#C76925"/>
</linearGradient>
<radialGradient id="paint59_radial" cx="0" cy="0" r="1" gradientUnits="userSpaceOnUse" gradientTransform="translate(7.37118 322.468) scale(77.3461 77.2528)">
<stop stop-color="#FF9B53"/>
<stop offset="0.2255" stop-color="#FF974C"/>
<stop offset="0.544" stop-color="#FF8C3A"/>
<stop offset="0.9163" stop-color="#FF7B1C"/>
<stop offset="1" stop-color="#FF7614"/>
</radialGradient>
<linearGradient id="paint60_linear" x1="3.4855" y1="342.23" x2="8.85755" y2="342.23" gradientUnits="userSpaceOnUse">
<stop stop-color="#FF7614"/>
<stop offset="1" stop-color="#FF9B53"/>
</linearGradient>
<linearGradient id="paint61_linear" x1="68.1459" y1="378.079" x2="79.8583" y2="378.079" gradientUnits="userSpaceOnUse">
<stop stop-color="#FF7614"/>
<stop offset="1" stop-color="#C76925"/>
</linearGradient>
<linearGradient id="paint62_linear" x1="3.47537" y1="328.683" x2="144.529" y2="328.683" gradientUnits="userSpaceOnUse">
<stop offset="0.00615385" stop-color="#FF994F"/>
<stop offset="1" stop-color="#FFB27A"/>
</linearGradient>
<linearGradient id="paint63_linear" x1="40.9998" y1="327.665" x2="107.006" y2="327.665" gradientUnits="userSpaceOnUse">
<stop offset="0.00615385" stop-color="#FF6B00"/>
<stop offset="1" stop-color="#FF8730"/>
</linearGradient>
<linearGradient id="paint64_linear" x1="40.9998" y1="319.091" x2="106.996" y2="319.091" gradientUnits="userSpaceOnUse">
<stop offset="0.00615385" stop-color="#D15800"/>
<stop offset="1" stop-color="#C76925"/>
</linearGradient>
<linearGradient id="paint65_linear" x1="457.584" y1="479.461" x2="537.692" y2="479.461" gradientUnits="userSpaceOnUse">
<stop offset="0.00615385" stop-opacity="0.08"/>
<stop offset="1" stop-opacity="0.08"/>
</linearGradient>
<linearGradient id="paint66_linear" x1="497.639" y1="432.521" x2="537.692" y2="432.521" gradientUnits="userSpaceOnUse">
<stop offset="0.00615385" stop-color="#D15800"/>
<stop offset="1" stop-color="#C76925"/>
</linearGradient>
<linearGradient id="paint67_linear" x1="457.585" y1="397.876" x2="537.691" y2="397.876" gradientUnits="userSpaceOnUse">
<stop offset="0.00615385" stop-color="#FF994F"/>
<stop offset="1" stop-color="#FFB27A"/>
</linearGradient>
<linearGradient id="paint68_linear" x1="457.585" y1="432.521" x2="497.639" y2="432.521" gradientUnits="userSpaceOnUse">
<stop offset="0.00615385" stop-color="#FF730E"/>
<stop offset="0.5967" stop-color="#FD730F"/>
<stop offset="0.8091" stop-color="#F67211"/>
<stop offset="0.9603" stop-color="#EB7016"/>
<stop offset="1" stop-color="#E66F18"/>
</linearGradient>
<clipPath id="clip0">
<rect width="586" height="569" fill="white"/>
</clipPath>
</defs>
</svg>
