<svg width="52" height="52" viewBox="0 0 52 52" fill="none" xmlns="http://www.w3.org/2000/svg">
<path d="M52 36.1667C52 34.4207 50.5419 33 48.75 33H16.25C14.4581 33 13 34.4207 13 36.1667V40.3889C13 41.2017 13.325 41.9385 13.845 42.5C13.325 43.0616 13 43.7983 13 44.6111V48.8333C13 50.5793 14.4581 52 16.25 52H48.75C50.5419 52 52 50.5793 52 48.8333V44.6111C52 43.7983 51.675 43.0615 51.155 42.5C51.675 41.9384 52 41.2017 52 40.3889V36.1667ZM49.8334 48.8333C49.8334 49.416 49.348 49.8889 48.75 49.8889H16.25C15.652 49.8889 15.1666 49.416 15.1666 48.8333V44.6111C15.1666 44.0284 15.652 43.5555 16.25 43.5555H48.75C49.348 43.5555 49.8334 44.0284 49.8334 44.6111V48.8333ZM49.8334 40.3889C49.8334 40.9716 49.348 41.4445 48.75 41.4445H16.25C15.652 41.4445 15.1666 40.9716 15.1666 40.3889V36.1667C15.1666 35.584 15.652 35.1111 16.25 35.1111H48.75C49.348 35.1111 49.8334 35.584 49.8334 36.1667V40.3889Z" fill="#FF6B00"/>
<path d="M10.0383 47.8961C5.1729 46.4476 2.14996 44.1524 2.14996 41.9067V35.4487C3.74745 36.9445 6.17688 38.2339 9.36539 39.1902C9.46859 39.2203 9.57391 39.2353 9.67499 39.2353C10.1373 39.2353 10.5651 38.9366 10.7049 38.4702C10.8769 37.9008 10.5544 37.3033 9.98459 37.1313C5.15143 35.6828 2.14996 33.3963 2.14996 31.1612V24.6754C5.59638 27.9033 12.8677 30.0867 21.4999 30.0867C30.1322 30.0867 37.4035 27.9032 40.8499 24.6754V29.0123C40.8499 29.6055 41.3316 30.0869 41.925 30.0869C42.5184 30.0869 43 29.6055 43 29.0123V9.67077C43 4.24869 33.5551 0 21.5001 0C9.44501 0 0 4.24869 0 9.67077V41.9067C0 45.2399 3.43573 48.1712 9.42556 49.9549C9.52876 49.985 9.63196 50 9.73304 50C10.1974 50 10.6231 49.6991 10.7607 49.2328C10.9327 48.6633 10.6081 48.0658 10.0383 47.8961ZM21.4999 2.14903C32.9035 2.14903 40.8499 6.11404 40.8499 9.67077C40.8499 13.2275 32.9035 17.1925 21.4999 17.1925C10.0964 17.1925 2.14996 13.2275 2.14996 9.67077C2.14996 6.11404 10.0964 2.14903 21.4999 2.14903ZM2.14996 13.9302C5.59648 17.1581 12.8677 19.3415 21.4999 19.3415C30.1322 19.3415 37.4035 17.1581 40.8499 13.9302V20.4161C40.8499 23.9728 32.9035 27.9378 21.4999 27.9378C10.0964 27.9378 2.14996 23.9728 2.14996 20.4161V13.9302Z" fill="#7F8284"/>
<path d="M46.9 46H38.1C37.4928 46 37 46.448 37 47C37 47.552 37.4928 48 38.1 48H46.9C47.5072 48 48 47.552 48 47C48 46.448 47.5072 46 46.9 46Z" fill="#FF6B00"/>
<path d="M18.5 37C17.672 37 17 37.448 17 38C17 38.552 17.672 39 18.5 39C19.328 39 20 38.5519 20 37.9999C20 37.4479 19.328 37 18.5 37Z" fill="#FF6B00"/>
<path d="M18.5 46C17.672 46 17 46.448 17 47C17 47.552 17.672 48 18.5 48C19.328 48 20 47.552 20 47C20 46.448 19.328 46 18.5 46Z" fill="#FF6B00"/>
<path d="M46.9 37H38.1C37.4928 37 37 37.448 37 38C37 38.552 37.4928 39 38.1 39H46.9C47.5072 39 48 38.552 48 38C47.9999 37.4479 47.5072 37 46.9 37Z" fill="#FF6B00"/>
</svg>
