<svg width="224" height="80" viewBox="0 0 224 80" fill="none" xmlns="http://www.w3.org/2000/svg">
<g clip-path="url(#clip0)">
<path d="M66.0537 19H72.5582V49.4311C69.2216 50.0714 66.7717 50.3278 64.1106 50.3278C56.1696 50.3273 52.0303 46.6991 52.0303 39.7402C52.0303 33.0376 56.4233 28.6835 63.2234 28.6835C64.2793 28.6835 65.0817 28.7686 66.0537 29.0247V19ZM66.0537 34.318C65.2935 34.0621 64.6599 33.9768 63.8572 33.9768C60.5626 33.9768 58.6617 36.0261 58.6617 39.6118C58.6617 43.1128 60.4781 45.0337 63.815 45.0337C64.533 45.0337 65.1245 44.9913 66.0537 44.8632V34.318Z" fill="#092E20"/>
<path d="M82.9054 29.153V44.3933C82.9054 49.6444 82.5251 52.1633 81.385 54.3404C80.3288 56.4326 78.9348 57.7556 76.0628 59.2076L70.0226 56.3045C72.8949 54.9383 74.2886 53.7433 75.1756 51.9069C76.105 50.0289 76.4009 47.8513 76.4009 42.1309V29.153H82.9054ZM76.4009 19.0352H82.9054V25.7804H76.4009V19.0352ZM86.8344 30.647C89.7069 29.2813 92.4522 28.6837 95.4512 28.6837C98.7881 28.6837 100.984 29.5798 101.956 31.3303C102.505 32.3121 102.674 33.5928 102.674 36.3253V49.6871C99.7589 50.114 96.0845 50.4131 93.3814 50.4131C87.9328 50.4131 85.4826 48.4913 85.4826 44.2225C85.4826 39.6115 88.735 37.4771 96.718 36.7938V35.3424C96.718 34.1472 96.1267 33.7205 94.4792 33.7205C92.0718 33.7205 89.3685 34.4036 86.8339 35.7271L86.8344 30.647ZM97.0142 41.1063C92.7056 41.5332 91.3116 42.2162 91.3116 43.924C91.3116 45.2044 92.1143 45.802 93.8882 45.802C94.8599 45.802 95.7466 45.7169 97.0139 45.5035L97.0142 41.1063ZM105.842 30.1775C109.685 29.153 112.853 28.6837 116.063 28.6837C119.4 28.6837 121.808 29.4518 123.244 30.9461C124.596 32.3545 125.018 33.8913 125.018 37.1791V50.0713H118.513V37.4352C118.513 34.9166 117.669 33.977 115.346 33.977C114.459 33.977 113.656 34.0623 112.346 34.4465V50.0713H105.842V30.1775ZM127.547 53.6574C129.828 54.8529 132.109 55.4073 134.516 55.4073C138.782 55.4073 140.598 53.6574 140.598 49.4734V49.3453C139.331 49.9854 138.064 50.2418 136.374 50.2418C130.672 50.2418 127.039 46.4423 127.039 40.4233C127.039 32.9519 132.404 28.7258 141.907 28.7258C144.695 28.7258 147.272 29.0244 150.397 29.6647L148.17 34.4069C146.438 34.0654 148.031 34.3611 146.722 34.2331V34.9164L146.806 37.6908L146.848 41.2771C146.891 42.1733 146.891 43.07 146.933 43.9664V45.7599C146.933 51.3949 146.469 54.0415 145.075 56.2189C143.048 59.421 139.541 61.0002 134.557 61.0002C132.023 61.0002 129.827 60.616 127.546 59.7196L127.547 53.6574ZM140.472 34.0196H139.796C138.529 33.977 137.051 34.3182 136.037 34.9585C134.475 35.8552 133.671 37.4776 133.671 39.7828C133.671 43.0703 135.277 44.9485 138.149 44.9485C139.036 44.9485 139.754 44.7775 140.598 44.5216V42.2592C140.598 41.4905 140.557 40.6362 140.557 39.7403L140.515 36.7095L140.472 34.5322L140.472 34.0196ZM160.496 28.598C167 28.598 170.971 32.7393 170.971 39.4415C170.971 46.3151 166.832 50.6268 160.242 50.6268C153.737 50.6268 149.724 46.4855 149.724 39.826C149.725 32.9095 153.864 28.598 160.496 28.598ZM160.368 45.3327C162.86 45.3327 164.339 43.2407 164.339 39.612C164.339 36.0262 162.903 33.8916 160.411 33.8916C157.834 33.8916 156.355 35.9838 156.355 39.612C156.356 43.241 157.834 45.3327 160.368 45.3327Z" fill="#092E20"/>
</g>
<defs>
<clipPath id="clip0">
<rect width="119" height="42" fill="white" transform="translate(52 19)"/>
</clipPath>
</defs>
</svg>
