<svg width="413" height="485" viewBox="0 0 413 485" fill="none" xmlns="http://www.w3.org/2000/svg">
<path d="M63.4284 233.846H137.429L123.334 152.981H63.4284C31.7141 152.981 7.04773 128.37 7.04773 96.7275C7.04773 65.0847 31.7141 40.4737 63.4284 40.4737H105.715L91.619 -33.3594C84.5714 -61.4863 105.714 -89.6132 137.429 -96.6449C165.619 -103.677 193.81 -82.5815 200.857 -50.9387L218.476 40.4737H327.714L313.619 -33.3594C306.572 -61.4863 327.715 -89.6132 359.429 -96.6449C387.619 -103.677 415.81 -82.5815 422.858 -50.9387L440.477 40.4737H535.62C567.334 40.4737 592 65.0847 592 96.7275C592 128.37 560.286 152.981 528.572 152.981H454.572L468.667 233.846H528.572C560.286 233.846 584.953 258.457 584.953 290.1C584.953 321.743 560.286 346.354 528.572 346.354H486.286L500.381 420.187C507.429 448.314 486.286 476.44 454.572 483.472C433.429 490.504 398.191 472.925 391.143 437.766L373.524 346.354H264.286L278.381 420.187C285.429 448.314 264.286 476.44 232.572 483.472C211.429 490.504 176.19 472.925 169.143 437.766L151.524 346.354H56.3809C24.6666 346.354 0.000244141 321.743 0.000244141 290.1C10.5717 258.457 35.2379 233.846 63.4284 233.846ZM250.191 233.846H359.429L345.333 152.981H236.096L250.191 233.846Z" fill="url(#paint0_linear)" fill-opacity="0.5"/>
<path d="M139.399 233.503L139.807 235.846H137.429H63.4284C36.5439 235.846 12.4888 259.352 2.00116 290.424C2.16864 320.801 25.8753 344.354 56.3809 344.354H151.524H153.175L153.488 345.975L171.104 437.373C171.104 437.376 171.105 437.379 171.106 437.382C174.513 454.368 184.725 467.108 196.651 474.757C208.641 482.447 222.106 484.845 231.94 481.574L232.038 481.542L232.139 481.52C263.058 474.664 283.145 447.427 276.441 420.673L276.427 420.618L276.417 420.562L262.322 346.729L261.868 344.354H264.286H373.524H375.175L375.488 345.975L393.104 437.373C393.105 437.376 393.105 437.379 393.106 437.382C396.513 454.368 406.725 467.108 418.651 474.757C430.641 482.447 444.106 484.845 453.941 481.574L454.038 481.542L454.139 481.52C485.058 474.664 505.145 447.427 498.441 420.673L498.428 420.618L498.417 420.562L484.321 346.729L483.868 344.354H486.286H528.572C559.186 344.354 582.953 320.634 582.953 290.1C582.953 259.566 559.186 235.846 528.572 235.846H468.667H466.985L466.697 234.189L452.601 153.325L452.193 150.981H454.572H528.572C543.932 150.981 559.335 145.013 570.884 135.196C582.426 125.387 590 111.847 590 96.7275C590 66.1935 566.234 42.4737 535.62 42.4737H440.477H438.825L438.513 40.8522L420.899 -50.5318C414.02 -81.3564 386.732 -101.394 359.913 -94.7044L359.888 -94.698L359.862 -94.6923C328.942 -87.8369 308.855 -60.6001 315.559 -33.8455L315.573 -33.7903L315.584 -33.7344L329.679 40.0986L330.132 42.4737H327.714H218.476H216.825L216.513 40.8522L198.899 -50.5318C192.02 -81.3564 164.732 -101.394 137.913 -94.7044L137.887 -94.698L137.862 -94.6923C106.942 -87.8369 86.8552 -60.6001 93.559 -33.8455L93.5728 -33.7903L93.5835 -33.7345L107.679 40.0986L108.133 42.4737H105.715H63.4284C32.8145 42.4737 9.04773 66.1935 9.04773 96.7275C9.04773 127.261 32.8145 150.981 63.4284 150.981H123.334H125.015L125.304 152.638L139.399 233.503ZM250.191 235.846H248.509L248.22 234.189L234.125 153.325L233.717 150.981H236.096H345.333H347.015L347.304 152.638L361.399 233.503L361.808 235.846H359.429H250.191Z" stroke="#FF8A00" stroke-opacity="0.4" stroke-width="4"/>
<defs>
<linearGradient id="paint0_linear" x1="296" y1="-97.9999" x2="296" y2="485" gradientUnits="userSpaceOnUse">
<stop stop-color="#FF9900"/>
<stop offset="1" stop-color="#FF6B00"/>
</linearGradient>
</defs>
</svg>
