<svg width="95" height="58" viewBox="0 0 95 58" fill="none" xmlns="http://www.w3.org/2000/svg">
<path d="M51.1599 26.8383C50.0571 24.8889 49.6294 22.9394 49.8995 20.878C50.3947 17.0912 53.0731 14.5143 57.102 13.8421C59.1727 13.4836 61.2209 13.5508 63.2466 13.9093C63.8768 14.0214 64.507 14.0662 65.1372 14.0662C74.5904 14.0662 84.0437 14.0662 93.4969 14.0438C94.3297 14.0438 94.7123 14.1782 94.6223 15.1193C94.5097 16.1501 94.9374 17.5169 94.4197 18.1443C93.8795 18.7717 92.4615 18.3011 91.4262 18.3236C89.8957 18.346 88.3426 18.3908 86.8121 18.3011C85.8668 18.2563 85.5742 18.458 85.5742 19.4887C85.6192 27.7346 85.5967 35.9804 85.6192 44.2487C85.6192 45.1674 85.4841 45.5931 84.4488 45.4811C83.481 45.369 82.4906 45.3914 81.5228 45.4587C80.7575 45.5259 80.6225 45.2122 80.6225 44.5176C80.645 36.1821 80.6225 27.869 80.6675 19.5335C80.6675 18.4804 80.3524 18.2787 79.3621 18.3011C75.7158 18.3684 72.0921 18.3236 68.4458 18.3236C68.0632 18.3236 67.523 18.1443 67.433 18.7269C67.2304 19.9369 66.5552 19.5335 65.8349 19.2647C63.5392 18.4132 61.1984 17.8306 58.7 18.0547C56.8094 18.2339 55.4139 19.2198 54.9637 20.7659C54.4461 22.5361 55.0088 24.1494 56.5618 25.3146C57.8672 26.2781 59.3752 26.8607 60.8382 27.5105C62.7514 28.362 64.687 29.1238 66.3076 30.5131C70.2464 33.8517 70.0664 40.3498 65.925 43.442C64.2369 44.6968 62.3237 45.3466 60.208 45.5259C56.8769 45.8172 53.6358 45.6155 50.4622 44.4503C49.742 44.1815 49.3818 43.8229 49.4494 42.9939C49.5394 42.0752 49.4944 41.1341 49.4494 40.193C49.4268 39.4535 49.5169 39.1622 50.3497 39.5432C52.4879 40.4843 54.7387 41.0444 57.0569 41.2685C58.3849 41.403 59.6678 41.3357 60.9508 40.9996C62.5263 40.5739 63.6067 39.6328 63.9668 38.0195C64.3719 36.2717 63.7867 34.7704 62.3463 33.8069C59.9829 32.216 57.5521 30.9612 54.4911 31.0284C47.5137 31.1853 40.5363 31.0957 33.5589 31.0732C32.7262 31.0732 32.3885 31.2077 32.411 32.1488C32.4786 34.7704 32.4561 37.3697 32.411 39.9913C32.3885 40.7307 32.6136 40.9324 33.3564 40.91C36.8451 40.8876 40.3338 40.9324 43.8224 40.91C44.5652 40.91 44.9028 41.0444 44.8353 41.8735C44.7678 42.6578 44.7453 43.442 44.8353 44.2263C44.9253 45.1674 44.7002 45.4587 43.6649 45.4587C38.4206 45.3914 33.1538 45.5035 27.9095 45.3914C25.7263 45.3466 23.7456 45.6603 21.945 46.8703C20.8421 47.6098 20.0543 47.2961 19.1765 46.5118C17.7586 45.257 16.7232 43.7109 15.7104 42.1424C13.8872 39.2743 12.1316 36.3613 10.376 33.4708C10.1059 33.0227 9.79084 32.7538 9.22815 32.7762C8.05775 32.7762 6.90986 32.7538 5.73946 32.6866C5.08673 32.6418 4.92918 32.8882 4.95169 33.4932C4.9742 37.1232 4.92918 40.7307 4.9967 44.3607C5.01921 45.3242 4.72661 45.5483 3.8263 45.4811C2.90349 45.3914 1.93566 45.3914 1.01285 45.4811C0.112538 45.5707 0 45.2122 0 44.4279C0.0225077 34.9721 0.0225073 25.5387 0.0225073 16.0828C0.0225073 15.6347 0.0675227 15.1865 0.0225073 14.7384C-0.0450157 14.1782 0.202568 14.0662 0.720245 14.0662C4.05138 14.0886 7.40502 14.0662 10.7362 14.111C12.5143 14.1334 14.2474 14.5816 15.8454 15.321C18.6364 16.6206 20.0093 18.9734 20.2794 21.9759C20.5495 25.225 19.6717 28.0259 16.9258 30.0425C16.4981 30.3562 16.093 30.7371 15.6203 30.8716C14.4724 31.2077 14.4499 31.6782 15.0576 32.6418C16.7007 35.2634 18.2537 37.9523 20.0318 40.4843C20.392 40.9996 20.7521 41.2237 21.4048 41.2013C23.1604 41.1565 24.9385 41.1565 26.6941 41.2013C27.2793 41.2013 27.5719 41.1117 27.5269 40.4395C27.3693 37.5041 27.3243 34.5688 27.3918 31.6558C27.5269 25.9868 27.3918 20.3402 27.4819 14.6936C27.4819 14.1558 27.6844 14.0886 28.1346 14.0886C33.4914 14.0886 38.8708 14.111 44.2276 14.0886C44.7227 14.0886 44.8578 14.2454 44.8353 14.716C44.7903 15.6571 44.7678 16.5758 44.8353 17.5169C44.8803 18.2339 44.6327 18.3684 43.9575 18.3684C40.4688 18.346 36.9801 18.3908 33.4914 18.3684C32.6586 18.3684 32.3885 18.5476 32.4336 19.3991C32.5011 21.6398 32.4786 23.8805 32.4336 26.1213C32.4336 26.7038 32.5686 26.8831 33.1763 26.8831C39.1408 26.8383 45.0604 26.8383 51.1599 26.8383ZM52.3528 27.3985C52.1503 27.4433 52.0602 27.4881 51.9702 27.4881C45.488 27.4881 39.0058 27.4881 32.5011 27.5105C31.7583 27.5105 31.7583 27.1744 31.7583 26.6366C31.7808 23.9478 31.8033 21.2589 31.7583 18.57C31.7358 17.8306 31.9834 17.6289 32.7037 17.6513C35.8997 17.6737 39.0733 17.6513 42.2694 17.6513C44.2051 17.6513 44.1376 17.6513 44.2051 15.7243C44.2276 14.828 43.9125 14.716 43.1247 14.716C38.5556 14.7608 33.9641 14.7608 29.395 14.716C28.4272 14.6936 28.1571 14.8953 28.1571 15.9036C28.2021 24.2391 28.1796 32.5521 28.2021 40.8876C28.2021 41.6718 28.0221 41.8959 27.2343 41.8735C25.1636 41.8063 23.1154 41.8287 21.0447 41.8735C20.392 41.8959 20.0318 41.6494 19.6717 41.1565C17.601 38.2211 15.7329 35.1738 13.9322 32.0816C13.4821 31.2973 13.5496 31.0284 14.4049 30.6699C18.3212 28.9222 19.8968 26.3453 19.6267 22.2C19.4691 19.7352 18.5238 17.6289 16.273 16.3293C14.9001 15.5227 13.3921 15.1417 11.8165 14.9401C8.53041 14.5591 5.22178 14.8728 1.93566 14.716C0.877799 14.6712 0.742752 15.0521 0.742752 15.9484C0.76526 24.6872 0.76526 33.426 0.76526 42.1648C0.76526 44.8313 0.76526 44.7864 3.46618 44.7864C4.23144 44.7864 4.36649 44.54 4.36649 43.8453C4.34398 40.193 4.36649 36.5182 4.34398 32.8658C4.34398 32.216 4.43401 31.9247 5.17676 31.9695C6.63976 32.0592 8.10276 32.0816 9.56576 32.0592C10.2185 32.0592 10.5786 32.3056 10.8937 32.8434C12.2667 35.1065 13.6396 37.3921 15.0576 39.6104C16.3856 41.6719 17.5335 43.8678 19.3116 45.6379C20.1444 46.467 20.8646 46.8255 22.035 46.1085C23.2504 45.369 24.4883 44.6744 26.0864 44.7192C31.4207 44.8089 36.7325 44.764 42.0668 44.764C44.2276 44.764 44.1601 44.764 44.2276 42.6129C44.2501 41.7167 43.935 41.6046 43.1472 41.6046C39.726 41.627 36.3274 41.5822 32.9062 41.6046C32.0734 41.6046 31.7358 41.4702 31.7583 40.5291C31.8258 37.5041 31.8258 34.4791 31.7583 31.4542C31.7358 30.6251 31.9609 30.401 32.8162 30.401C40.6939 30.4234 48.5716 30.401 56.4492 30.401C56.8094 30.401 57.192 30.3786 57.5521 30.5355C59.1277 31.2077 60.7257 31.8799 62.1887 32.7986C64.3719 34.1654 65.1822 35.9804 64.7096 38.2884C64.3044 40.2154 62.7064 41.4926 60.3206 41.8735C57.5071 42.3217 54.8062 41.7615 52.1278 40.9548C50.1921 40.3722 50.2596 40.3498 50.1696 42.4337C50.1246 43.4196 50.4847 43.8453 51.385 44.0694C55.3689 45.1226 59.3527 45.5259 63.3141 44.0694C66.4652 42.9042 68.2433 40.6635 68.4458 37.28C68.6484 34.0534 67.3204 31.6334 64.507 30.0425C62.954 29.1686 61.3334 28.4068 59.6678 27.7122C58.3849 27.1744 57.1245 26.5918 56.0441 25.7179C54.3785 24.3735 53.7933 22.4913 54.3785 20.5195C54.8737 18.8165 56.4492 17.6513 58.52 17.4049C60.9283 17.1136 63.2015 17.6065 65.4523 18.3684C66.1275 18.5924 66.8253 19.1526 67.1179 17.8978C67.2304 17.4497 67.7706 17.6513 68.1082 17.6513C72.2046 17.6289 76.2785 17.6737 80.3749 17.6289C81.2302 17.6289 81.4103 17.8306 81.4103 18.6597C81.3652 26.5694 81.3877 34.4791 81.3877 42.4113C81.3877 44.764 81.3877 44.7192 83.7736 44.7864C84.7189 44.8089 85.034 44.6296 85.0115 43.5989C84.9665 35.3082 84.989 27.0175 84.9665 18.7269C84.9665 17.8978 85.1015 17.5617 86.0468 17.6065C88.14 17.6962 90.2558 17.6289 92.349 17.6289C93.992 17.6289 93.902 17.6289 94.0146 16.0156C94.1046 14.8728 93.6994 14.6936 92.6416 14.716C83.6835 14.7608 74.7255 14.7384 65.7449 14.7384C64.6645 14.7384 63.5842 14.6936 62.5038 14.4919C60.7482 14.1782 58.9926 14.223 57.237 14.5143C52.3979 15.321 49.877 18.9286 50.7323 23.7461C50.9124 25.0905 51.6326 26.2109 52.3528 27.3985Z" fill="#6F2629"/>
<path d="M52.5104 54.6008C52.5104 53.8614 52.4879 53.0995 52.5104 52.3601C52.5104 52.136 52.3528 51.7775 52.758 51.7327C53.0281 51.6879 53.4107 51.5758 53.5232 51.9792C53.7033 52.5393 53.8834 52.1808 54.1084 52.024C55.0538 51.4414 56.0441 51.3742 56.8994 52.136C57.282 52.4721 57.4171 52.2929 57.7097 52.0688C58.4974 51.4638 59.3978 51.4414 60.253 51.8671C61.0408 52.248 61.1083 53.0323 61.1083 53.7941C61.1083 54.8473 61.0858 55.878 61.1083 56.9311C61.1308 57.4241 60.9733 57.5585 60.4781 57.5809C59.9379 57.5809 59.8704 57.3569 59.8704 56.9087C59.8929 55.9452 59.8929 54.9593 59.8704 53.9958C59.8479 53.3236 59.7129 52.6962 58.8801 52.6514C58.0023 52.6066 57.5296 53.0995 57.4846 53.9062C57.4171 54.8697 57.4171 55.8332 57.4396 56.8191C57.4396 57.2672 57.4171 57.5809 56.8094 57.5809C56.2242 57.5809 56.1341 57.3345 56.1566 56.8415C56.1791 55.878 56.1566 54.8921 56.1566 53.9286C56.1566 53.2788 55.9991 52.6962 55.2338 52.6514C54.4461 52.5841 53.9059 52.9651 53.8609 53.7941C53.7933 54.7128 53.8158 55.6539 53.7483 56.5726C53.7258 56.976 54.0184 57.5585 53.1631 57.5809C52.3078 57.6033 52.5329 57.0432 52.5329 56.6174C52.4879 55.9228 52.5104 55.273 52.5104 54.6008Z" fill="#292929"/>
<path d="M74.703 55.6092C74.9956 54.5112 75.3332 53.4133 75.5583 52.3153C75.6933 51.5983 76.1885 51.6207 76.6386 51.7551C77.2238 51.912 76.7962 52.3601 76.7287 52.629C76.346 54.0631 75.8734 55.4971 75.5357 56.9312C75.4007 57.5362 75.0631 57.5362 74.5679 57.581C74.0277 57.6258 73.8702 57.3793 73.7351 56.9312C73.42 55.6764 73.0599 54.4216 72.6548 52.9651C72.2496 54.3992 71.8895 55.6316 71.5744 56.8864C71.4393 57.3793 71.2368 57.6034 70.6516 57.581C70.0889 57.581 69.8863 57.3569 69.7738 56.8415C69.4137 55.4075 68.9635 53.9734 68.5809 52.5394C68.5134 52.3153 68.0857 51.8672 68.7159 51.7551C69.1211 51.6879 69.6162 51.5759 69.7738 52.2257C70.0439 53.3684 70.3365 54.4888 70.8542 55.6092C71.1693 54.5336 71.5519 53.4581 71.7995 52.3601C71.9345 51.7551 72.2721 51.7551 72.7673 51.7103C73.33 51.6655 73.465 51.9792 73.5776 52.4049C73.8702 53.4805 74.1628 54.556 74.4779 55.6092C74.5454 55.5867 74.6354 55.6092 74.703 55.6092Z" fill="#292929"/>
<path d="M25.4787 10.8173C24.826 10.7948 24.2182 10.7948 23.6781 10.4811C22.8003 9.96578 22.6202 8.89023 23.3855 8.21802C23.7231 7.90432 23.6781 7.59062 23.7906 7.2321C24.1282 6.13415 23.6105 5.32749 23.408 4.38639C23.1829 3.33325 23.9031 2.48178 25.0285 2.36974C26.1089 2.28011 27.1893 2.36974 28.2696 2.39215C28.4722 2.39215 28.6297 2.41456 28.6523 2.66103C28.6748 2.92992 28.5622 3.08677 28.2921 3.10918C27.887 3.15399 27.7745 3.26603 27.842 3.75899C28.1121 5.30508 27.3918 6.11174 25.7488 6.20137C25.3661 6.22378 24.7809 6.06693 24.7809 6.64951C24.7809 7.34414 25.4111 7.07525 25.8163 7.12007C26.2664 7.16488 26.7166 7.14247 27.1667 7.20969C27.887 7.32173 28.4497 7.65784 28.5397 8.4645C28.6297 9.27116 28.3822 9.94337 27.6169 10.3467C26.9192 10.7276 26.1764 10.7948 25.4787 10.8173ZM25.9063 8.24042C25.6812 8.24042 25.5237 8.24042 25.3886 8.24042C24.7584 8.24042 24.0832 8.33005 24.0832 9.11431C24.0607 9.94337 24.826 9.89856 25.3886 9.98819C25.5237 10.0106 25.6812 10.0106 25.8388 9.98819C26.514 9.83134 27.4593 9.85374 27.3693 8.91264C27.3018 7.99395 26.4015 8.33005 25.9063 8.24042ZM24.5784 4.29676C24.6009 5.01379 24.9385 5.41712 25.6587 5.43953C26.4015 5.43953 26.7391 4.96898 26.7391 4.29676C26.7391 3.57973 26.424 3.06436 25.5912 3.10918C24.826 3.13159 24.5784 3.62454 24.5784 4.29676Z" fill="#292929"/>
<path d="M4.45653 2.86261C4.45653 1.98873 4.47904 1.33892 4.45653 0.666709C4.43403 0.128936 4.72663 0.084122 5.15427 0.0617148C5.62693 0.0393076 5.71696 0.26338 5.71696 0.666709C5.69446 2.97465 5.71696 5.305 5.69446 7.61294C5.69446 7.83701 5.85201 8.17312 5.44687 8.24034C5.19929 8.26274 4.83917 8.37478 4.72663 8.08349C4.52406 7.47849 4.29898 7.72497 3.98387 7.97145C3.51121 8.35238 2.94852 8.39719 2.38583 8.32997C1.418 8.21793 0.787782 7.61294 0.585213 6.71665C0.270105 5.39463 0.180074 4.00538 1.19292 2.90743C1.89066 2.16799 2.79096 2.1904 3.69127 2.5041C3.89384 2.57132 4.09641 2.68336 4.45653 2.86261ZM4.52406 5.3274C4.52406 3.98297 4.05139 3.35557 3.10607 3.33316C2.16075 3.31076 1.62057 4.09501 1.64307 5.43944C1.66558 6.71665 2.20577 7.41127 3.15109 7.36646C4.11892 7.29924 4.52406 6.67184 4.52406 5.3274ZM4.41152 2.92984L4.45653 2.97465V2.90743L4.41152 2.92984Z" fill="#292929"/>
<path d="M90.4358 54.1526C91.7413 53.4356 92.1014 51.3741 94.1946 51.7774C93.6319 52.3824 93.1818 52.9874 92.6416 53.458C92.0564 53.9734 91.9663 54.3991 92.529 55.0265C93.1818 55.7659 93.7444 56.6174 94.3522 57.4241C93.0917 57.9394 92.6416 57.0431 92.0789 56.3261C91.7413 55.9004 91.6062 55.0265 90.9085 55.2282C90.1882 55.4298 90.4808 56.2365 90.4583 56.8191C90.4358 57.2896 90.4133 57.5585 89.8056 57.5809C89.1529 57.5809 89.1979 57.2448 89.1979 56.8191C89.1979 54.5783 89.1979 52.3376 89.1979 50.0969C89.1979 49.6936 89.1754 49.3799 89.7606 49.3799C90.3008 49.3799 90.4808 49.5815 90.4583 50.0969C90.4133 51.4189 90.4358 52.741 90.4358 54.1526Z" fill="#292929"/>
<path d="M15.1477 5.88745C15.1477 6.44763 15.1702 7.00781 15.1477 7.56799C15.1477 7.79206 15.3277 8.12817 14.9451 8.2178C14.675 8.28502 14.3374 8.37465 14.2023 7.97132C14.0673 7.52318 13.8647 7.5904 13.5946 7.85929C13.122 8.30743 12.5368 8.35224 11.9291 8.32984C10.9612 8.30743 10.3985 7.79207 10.2635 6.85096C10.1284 5.90986 10.5336 5.23765 11.4339 4.92394C11.9966 4.74469 12.6043 4.74469 13.1895 4.63265C13.4821 4.58784 13.9322 4.81191 13.9322 4.25173C13.9322 3.82599 13.7972 3.42266 13.302 3.31063C12.8294 3.19859 12.3342 3.24341 11.884 3.44507C11.5014 3.60192 11.1863 3.66914 11.0062 3.15378C10.7812 2.52637 11.3439 2.5936 11.6365 2.48156C12.1992 2.3023 12.8069 2.23508 13.4146 2.3023C14.63 2.45915 15.1477 2.99693 15.1927 4.18451C15.1702 4.76709 15.1477 5.32727 15.1477 5.88745ZM13.2345 5.48412C12.4467 5.57375 11.5914 5.48412 11.5464 6.55967C11.5239 7.25429 12.0191 7.41114 12.6268 7.36633C13.4821 7.29911 13.8647 6.78374 13.9322 5.97708C13.9547 5.3945 13.5946 5.3945 13.2345 5.48412Z" fill="#292929"/>
<path d="M50.9349 55.273C50.9349 55.8332 50.9574 56.3934 50.9349 56.9535C50.9349 57.1552 51.0474 57.4465 50.7548 57.5137C50.4847 57.5585 50.1246 57.693 49.9895 57.2897C49.787 56.7071 49.5619 57.0208 49.2918 57.2224C48.7966 57.6258 48.1889 57.6706 47.6037 57.6258C46.6809 57.5585 46.1632 57.0656 46.0282 56.1693C45.8931 55.2954 46.2307 54.6456 47.0635 54.2871C47.6487 54.0406 48.3015 53.9958 48.9317 53.951C49.2018 53.9286 49.6744 54.1526 49.6969 53.5925C49.7194 53.0995 49.5169 52.7186 48.9767 52.6066C48.4365 52.5169 47.9413 52.6066 47.4462 52.8306C47.086 52.9875 46.906 52.8082 46.7709 52.4945C46.5909 52.0688 46.861 51.9792 47.1536 51.8895C47.9863 51.5982 48.8416 51.531 49.6969 51.7551C50.5297 51.9792 50.9124 52.5841 50.9349 53.4132C50.9574 54.0182 50.9349 54.6456 50.9349 55.273ZM49.0217 54.78C48.2564 54.8697 47.3786 54.78 47.3111 55.8332C47.2661 56.5278 47.7613 56.6847 48.369 56.6623C49.2243 56.595 49.6294 56.0797 49.6969 55.273C49.742 54.7128 49.4268 54.668 49.0217 54.78Z" fill="#292929"/>
<path d="M67.2979 56.3262C67.433 56.8639 67.5005 57.2224 66.9828 57.4465C65.8124 57.9619 63.8768 57.6034 63.134 56.7071C62.3012 55.6988 62.3012 53.5701 63.1565 52.5169C63.8543 51.6655 65.2497 51.3518 66.3301 51.8223C67.2529 52.2256 67.8156 53.346 67.7256 54.4215C67.6806 54.9369 67.388 54.9145 67.0503 54.9145C66.1951 54.9145 65.3173 54.9593 64.462 54.8921C63.7642 54.8473 63.7192 55.1162 63.9218 55.6763C64.1694 56.3037 64.597 56.6399 65.2722 56.6847C65.9475 56.7295 66.6002 56.595 67.2979 56.3262ZM65.0697 54.063C65.4748 53.7045 66.3076 54.4888 66.3751 53.5925C66.4201 52.9427 65.8349 52.5618 65.1372 52.5842C64.4395 52.6066 63.8993 52.9875 63.9218 53.6373C63.9443 54.3767 64.687 53.7717 65.0697 54.063Z" fill="#292929"/>
<path d="M34.9094 5.34993C34.9094 7.20972 33.874 8.35249 32.186 8.35249C30.4304 8.35249 29.4175 7.23213 29.4175 5.30511C29.4175 3.35569 30.4304 2.28014 32.231 2.32495C33.9191 2.34736 34.9319 3.49013 34.9094 5.34993ZM33.649 5.37233C33.6715 4.00549 33.1763 3.31087 32.186 3.31087C31.2406 3.31087 30.723 3.98309 30.7005 5.2603C30.678 6.58232 31.2181 7.32176 32.186 7.32176C33.1088 7.34417 33.6265 6.67195 33.649 5.37233Z" fill="#292929"/>
<path d="M83.0758 54.6903C83.0533 56.5501 81.9955 57.6705 80.3074 57.6481C78.5743 57.6257 77.5839 56.4829 77.5839 54.5559C77.6064 52.6737 78.5743 51.6206 80.3299 51.6206C82.0855 51.5981 83.0983 52.7633 83.0758 54.6903ZM81.8154 54.6007C81.8154 53.3011 81.3427 52.6289 80.3974 52.6065C79.4071 52.5841 78.8669 53.3011 78.8669 54.6231C78.8669 55.9227 79.4296 56.6622 80.4199 56.6174C81.3427 56.595 81.8154 55.9003 81.8154 54.6007Z" fill="#292929"/>
<path d="M16.7232 5.21532C16.7232 4.47588 16.7457 3.71403 16.7232 2.9746C16.6782 2.19035 17.421 2.25757 17.556 2.48164C17.9386 3.15385 18.2087 2.77293 18.6139 2.57127C20.3019 1.69739 21.8324 2.59367 21.8775 4.49829C21.9 5.55142 21.855 6.58215 21.9 7.63529C21.9225 8.15066 21.6974 8.26269 21.2473 8.26269C20.7521 8.26269 20.5945 8.10584 20.617 7.61288C20.6395 6.64937 20.617 5.66346 20.617 4.69995C20.617 3.96051 20.437 3.33311 19.5367 3.3107C18.7039 3.2883 18.1412 3.69163 18.0737 4.52069C17.9836 5.52902 17.9836 6.53734 18.0062 7.52326C18.0062 8.03862 17.8711 8.21788 17.3084 8.24028C16.7232 8.24028 16.7457 7.94899 16.7457 7.54566C16.7232 6.78382 16.7232 5.99957 16.7232 5.21532Z" fill="#292929"/>
<path d="M37.8804 55.0715C37.8804 54.5561 37.8804 54.0183 37.8804 53.503C37.8804 53.3237 37.8804 53.1221 37.8579 52.9428C37.8354 52.3602 36.8676 53.01 36.9576 52.2706C37.0251 51.7552 37.8354 52.0017 37.8579 51.4191C37.8804 50.971 37.9029 50.5228 38.128 50.1195C38.5556 49.3576 40.1762 48.9991 40.8514 49.4473C41.054 49.5817 41.0315 49.7386 40.9865 49.9178C40.9415 50.1419 40.8514 50.366 40.5813 50.366C40.3112 50.366 40.0637 50.3212 39.7936 50.3436C39.2759 50.3884 39.1859 50.7693 39.1408 51.2398C39.0958 51.8 39.456 51.7104 39.7936 51.7104C40.1537 51.7104 40.5588 51.576 40.5363 52.2034C40.5138 52.7635 40.1312 52.6739 39.8386 52.6291C39.1633 52.5619 39.1183 52.9428 39.1408 53.4357C39.1634 54.5561 39.1408 55.6765 39.1633 56.7968C39.1859 57.2898 39.0958 57.5363 38.5106 57.5363C37.9479 57.5363 37.8129 57.357 37.8354 56.8192C37.9029 56.259 37.8804 55.6541 37.8804 55.0715Z" fill="#292929"/>
<path d="M8.73297 6.13404C8.73297 7.09755 8.75548 8.06106 8.73297 9.02456C8.68795 10.3466 7.87767 10.974 6.59473 10.7947C6.23461 10.7499 5.94201 10.6827 5.96452 10.2121C5.98703 9.764 6.23461 9.764 6.54972 9.78641C7.3825 9.83122 7.51755 9.29345 7.51755 8.62123C7.51755 6.87347 7.49504 5.12571 7.51755 3.37795C7.51755 2.99703 7.17993 2.39204 8.08024 2.36963C9.02557 2.36963 8.71046 2.99703 8.73297 3.44517C8.75548 4.34146 8.73297 5.23775 8.73297 6.13404Z" fill="#292929"/>
<path d="M42.8996 52.6065C43.4173 52.0688 43.845 51.6654 44.4977 51.643C44.8128 51.6206 45.263 51.4862 45.263 52.0015C45.263 52.36 45.3305 52.741 44.6327 52.7858C43.3948 52.853 42.9897 53.4132 42.9447 54.6904C42.9221 55.4298 42.9221 56.1693 42.9447 56.9087C42.9672 57.3793 42.8321 57.5585 42.3144 57.5585C41.8193 57.5585 41.6842 57.4241 41.6842 56.9311C41.7067 55.5195 41.6617 54.1078 41.7067 52.6962C41.7067 52.36 41.3916 51.8447 42.0443 51.7102C42.7196 51.5758 42.7196 52.1136 42.8996 52.6065Z" fill="#292929"/>
<path d="M85.6867 52.5394C86.1819 52.0688 86.677 51.5983 87.3973 51.5983C87.6899 51.5983 88.0725 51.5535 88.005 52.0016C87.96 52.3153 88.0725 52.6738 87.4648 52.7411C86.0468 52.8979 85.7317 53.346 85.7092 54.8025C85.7092 55.4299 85.6867 56.0573 85.7092 56.7071C85.7092 57.1777 85.7542 57.5586 85.0565 57.5586C84.2687 57.5586 84.4938 57.0432 84.4938 56.6623C84.4713 55.3627 84.4488 54.0631 84.5163 52.7635C84.5388 52.4274 84.1112 51.8448 84.8764 51.7103C85.5516 51.5759 85.4391 52.2033 85.6867 52.5394Z" fill="#292929"/>
<path d="M8.8005 0.846095C8.77799 1.27183 8.57543 1.54072 8.12528 1.54072C7.74265 1.54072 7.49506 1.38387 7.45005 0.980538C7.40503 0.532394 7.6076 0.263508 8.03525 0.218694C8.4854 0.196287 8.73298 0.442766 8.8005 0.846095Z" fill="#292929"/>
<path d="M4.4115 2.92988L4.47872 2.90747L4.45631 2.97469L4.4115 2.92988Z" fill="#FDFDFD"/>
<path d="M49.0217 54.7801C49.4043 54.6681 49.742 54.7129 49.6969 55.2731C49.6294 56.0797 49.2243 56.5951 48.369 56.6623C47.7613 56.7071 47.2661 56.5503 47.3111 55.8332C47.3786 54.7801 48.2564 54.8697 49.0217 54.7801Z" fill="#FDFDFD"/>
<path d="M65.0697 54.0631C64.687 53.7942 63.9668 54.3992 63.9218 53.6374C63.8993 52.9876 64.4394 52.5842 65.1372 52.5842C65.8349 52.5618 66.4201 52.9203 66.3751 53.5926C66.3076 54.4888 65.4748 53.7046 65.0697 54.0631Z" fill="#FDFDFD"/>
<path d="M81.8154 54.6008C81.8154 55.9004 81.3427 56.595 80.4199 56.6174C79.4296 56.6622 78.8669 55.9228 78.8669 54.6232C78.8669 53.3012 79.4071 52.5617 80.3974 52.6065C81.3202 52.6289 81.7929 53.3012 81.8154 54.6008Z" fill="#FDFDFD"/>
<path d="M6.81981 29.2807C6.21211 29.2135 4.99669 29.7064 4.52403 29.1238C4.07388 28.5861 4.36648 27.4209 4.34397 26.547C4.32146 23.8581 4.34397 21.1917 4.32146 18.5028C4.32146 17.8306 4.47902 17.6065 5.17675 17.629C7.08991 17.7186 8.98055 17.5841 10.8937 17.8754C14.1348 18.346 15.8904 20.2506 15.8904 23.2756C15.8904 26.5246 14.0898 28.6085 10.8712 29.079C9.63327 29.2583 8.35034 29.2807 6.81981 29.2807ZM5.0192 23.4772C5.0192 24.9561 5.0192 26.4574 5.0192 27.9363C5.0192 28.3396 5.0192 28.6309 5.6044 28.6085C7.40501 28.5413 9.20563 28.6533 10.9837 28.3396C13.7522 27.8466 15.1476 26.1885 15.1702 23.41C15.1927 20.6091 13.9322 19.1078 11.0738 18.5701C9.25064 18.2339 7.42752 18.346 5.58189 18.3012C5.0192 18.2788 5.0192 18.5925 5.0192 18.9958C5.04171 20.4971 5.0192 21.9984 5.0192 23.4772Z" fill="#6F2629"/>
</svg>
