<svg width="64" height="64" viewBox="0 0 64 64" fill="none" xmlns="http://www.w3.org/2000/svg">
<path d="M12.173 37C11.9839 37 11.7934 36.9214 11.638 36.7615L6.29053 31.2602C6.10606 31.0702 6 30.7928 6 30.4997C6 30.2072 6.10653 29.9297 6.29053 29.7397L11.638 24.2384C11.9853 23.8807 12.5069 23.9314 12.8029 24.3509C13.0985 24.771 13.057 25.4012 12.7093 25.7583L8.10101 30.4997L12.7093 35.2411C13.057 35.5988 13.0985 36.2289 12.8029 36.6484C12.6392 36.8808 12.4068 37 12.173 37Z" fill="#FF6B00"/>
<path d="M22.8268 37C22.593 37 22.3606 36.8808 22.1973 36.6484C21.9013 36.2289 21.9432 35.5988 22.2905 35.2411L26.8989 30.4997L22.2905 25.7583C21.9432 25.4012 21.9013 24.771 22.1973 24.3509C22.4929 23.9314 23.015 23.8807 23.3618 24.2384L28.7095 29.7397C28.8939 29.9297 29 30.2072 29 30.4997C29 30.7928 28.8939 31.0702 28.7095 31.2602L23.3618 36.7615C23.2064 36.9214 23.0159 37 22.8268 37Z" fill="#FF6B00"/>
<path d="M15.83 40C15.7732 40 15.7158 39.9935 15.658 39.9804C15.2103 39.8782 14.9236 39.4014 15.018 38.9161L18.3602 21.7133C18.4545 21.228 18.8939 20.9172 19.342 21.0195C19.7897 21.1217 20.0764 21.598 19.982 22.0838L16.6398 39.2866C16.5575 39.7097 16.2134 40 15.83 40Z" fill="#FF6B00"/>
<path d="M26.9057 60.2394H7.09434C3.18278 60.2394 0 57.0572 0 53.1451V10.8679C0 6.95637 3.18278 3.77359 7.09434 3.77359H26.9057C30.8172 3.77359 34 6.95637 34 10.8679V53.1451C34 57.0572 30.8172 60.2394 26.9057 60.2394ZM7.09434 5.8868C4.34788 5.8868 2.11321 8.12147 2.11321 10.8679V53.1451C2.11321 55.8915 4.34788 58.1262 7.09434 58.1262H26.9057C29.6521 58.1262 31.8868 55.8915 31.8868 53.1451V10.8679C31.8868 8.12147 29.6521 5.8868 26.9057 5.8868H7.09434Z" fill="#7F8284"/>
<path d="M21.8514 56H13.1486C13.0665 56 13 55.5525 13 55C13 54.4481 13.0665 54 13.1486 54H21.8514C21.9335 54 22 54.4481 22 55C22 55.5525 21.9335 56 21.8514 56Z" fill="#7F8284"/>
</svg>
