<svg width="121" height="60" viewBox="0 0 121 60" fill="none" xmlns="http://www.w3.org/2000/svg">
<path fill-rule="evenodd" clip-rule="evenodd" d="M5.33829 52.3287H9.00741V38.0854L14.6652 50.5068C15.3369 51.9965 16.2339 52.5211 18.0261 52.5211C19.8189 52.5211 20.7153 51.9965 21.387 50.5068L27.0448 38.0854V52.3287H30.6857V38.1126C30.6857 36.733 30.1251 36.0692 28.977 35.7104C26.2042 34.8547 24.3273 35.6002 23.4874 37.45L17.942 49.6784L12.5648 37.45C11.7525 35.6002 9.84795 34.8547 7.07523 35.7104C5.89886 36.0692 5.33892 36.7324 5.33892 38.1126V52.3287H5.33829ZM33.7383 40.7345H37.3792V48.5741C37.3516 49.0152 37.5192 50.0094 39.5361 50.0372C40.5443 50.0638 47.4061 50.0372 47.4619 50.0372V40.7066H51.131C51.1587 40.7066 51.131 53.4312 51.131 53.4869C51.1587 56.6334 47.1819 57.2953 45.3615 57.351H33.8225V54.9222C33.8225 54.9222 45.3339 54.95 45.3615 54.9222C47.7143 54.7013 47.4343 53.5425 47.4343 53.1559V52.2168H39.6761C36.0629 52.1623 33.766 50.6157 33.7383 48.8216C33.7383 48.6564 33.8225 40.818 33.7383 40.7345ZM112.413 31.7083C110.173 31.6532 108.463 31.8462 106.979 32.481C106.56 32.6468 105.915 32.6468 105.831 33.1714C106.055 33.391 106.111 33.7504 106.279 34.0548C106.643 34.6073 107.232 35.3515 107.764 35.7382C108.324 36.1805 108.912 36.6216 109.528 37.0083C110.649 37.6703 111.881 38.0291 112.917 38.6929C113.561 39.0783 114.177 39.5763 114.794 40.0175C115.073 40.2383 115.298 40.5699 115.662 40.7073V40.6528C115.466 40.4041 115.409 40.0453 115.241 39.7681L114.401 38.9404C113.59 37.8917 112.553 36.9526 111.46 36.1805C110.591 35.573 108.631 34.7174 108.267 33.7238C108.239 33.696 108.21 33.696 108.21 33.6682C108.827 33.5846 109.556 33.365 110.116 33.2258C111.069 32.9784 111.936 33.0328 112.916 32.7847C113.365 32.6461 113.812 32.536 114.261 32.3981V32.1494C113.757 31.6526 113.421 30.9628 112.861 30.521C111.433 29.3066 109.864 28.1194 108.268 27.1259C107.371 26.5462 106.279 26.1874 105.327 25.7184C105.018 25.5804 104.458 25.4976 104.235 25.2216C103.73 24.6141 103.479 23.8136 103.086 23.0959C102.265 21.5215 101.499 19.9195 100.79 18.2927C100.314 17.2162 99.9771 16.1397 99.3902 15.1455C96.4768 10.453 93.3677 7.6103 88.5228 4.822C87.487 4.24232 86.2548 3.99424 84.9378 3.69048C84.2379 3.6348 83.5379 3.60758 82.8374 3.5519C82.4168 3.3861 81.9692 2.8621 81.5486 2.6134C79.9523 1.61983 75.835 -0.560937 74.658 2.30963C73.9016 4.10374 75.7785 5.87063 76.4502 6.78191C76.9272 7.41666 77.5142 8.13492 77.8513 8.85194C78.0741 9.32088 78.1024 9.79045 78.2989 10.2872C78.7747 11.5295 79.167 12.8819 79.7552 14.0134C80.0628 14.5931 80.3986 15.2006 80.791 15.7252C81.0151 16.029 81.4356 16.167 81.4909 16.6637C81.0986 17.2156 81.0716 18.044 80.8475 18.7338C79.8669 21.853 80.231 25.69 81.6874 28.0081C82.1362 28.6979 83.172 30.2161 84.6289 29.637C85.8894 29.1124 85.6088 27.5663 85.9729 26.1589C86.0577 25.8551 86.0012 25.6343 86.1688 25.4134V25.4685C86.5329 26.2412 86.9252 26.9867 87.3175 27.7315C88.1574 29.0845 89.6703 30.5198 90.959 31.4577C91.6025 31.9545 92.1348 32.8107 93.003 33.086V33.0303H92.9195C92.7512 32.7829 92.4989 32.6721 92.303 32.4785C91.799 31.9817 91.239 31.3742 90.8184 30.8223C89.6709 29.2763 88.6345 27.5651 87.6823 25.7982C87.2334 24.9426 86.8411 24.0041 86.4782 23.1485C86.337 22.8175 86.337 22.3207 86.0294 22.1271C85.6088 22.7618 85.0219 23.2865 84.6842 24.0319C84.1801 25.2192 84.0966 26.6817 83.929 28.1726C83.816 28.2277 83.8443 28.1999 83.7878 28.2555C82.8926 28.0347 82.5838 27.1234 82.2479 26.3507C81.4363 24.3908 81.2674 21.2443 81.9956 18.9806C82.1914 18.4009 83.0609 16.579 82.6968 16.0271C82.5273 15.5025 81.9956 15.1715 81.688 14.7577C81.2957 14.2609 80.9316 13.5983 80.6522 13.0186C79.9806 11.4726 79.6717 9.76137 78.9429 8.21596C78.5788 7.47048 78.0195 6.725 77.5431 6.09025C77.0107 5.34477 76.4225 4.82077 76.0032 3.93732C75.8632 3.63356 75.6674 3.13678 75.8632 2.80518C75.9467 2.58432 76.0315 2.50142 76.2543 2.41852C76.6184 2.1426 77.6554 2.52926 78.0465 2.6666C79.0553 3.10832 79.9234 3.49498 80.7916 4.07467C81.2122 4.35059 81.6328 4.87459 82.1368 5.01317H82.6974C83.5938 5.20619 84.6013 5.06823 85.4412 5.31693C86.9258 5.75803 88.2698 6.44846 89.4751 7.22178C93.1718 9.51267 96.1693 12.7699 98.2414 16.6619C98.5773 17.2966 98.7172 17.8763 98.9978 18.5389C99.5866 19.8919 100.342 21.2715 100.93 22.5688C101.491 23.894 102.079 25.2192 102.89 26.295C103.339 26.8747 105.019 27.1784 105.776 27.4816C106.308 27.7024 107.175 27.9505 107.681 28.2549C108.661 28.8068 109.585 29.4972 110.509 30.1319C110.956 30.4388 112.356 31.1286 112.413 31.7083Z" fill="#00678C"/>
<path fill-rule="evenodd" clip-rule="evenodd" d="M83.8441 7.72156C83.4573 7.72168 83.072 7.76821 82.6966 7.86014V7.9152H82.7801C83.0042 8.35692 83.3965 8.66068 83.6765 9.04673C83.8724 9.48845 84.0971 9.93018 84.293 10.3719L84.3765 10.289C84.7688 10.0409 84.937 9.59919 84.937 8.90939C84.7971 8.74358 84.7688 8.55056 84.6294 8.35692C84.433 8.08038 84.0971 7.94242 83.8441 7.72156Z" fill="#00678C"/>
<path fill-rule="evenodd" clip-rule="evenodd" d="M53.9603 52.3284H64.463C65.6952 52.3284 66.8992 52.0797 67.8515 51.6374C69.4196 50.921 70.2043 49.954 70.2043 48.6845V46.0348C70.2043 45.0141 69.3079 44.0205 67.6004 43.3851C66.6758 43.0263 65.5553 42.8605 64.463 42.8605H60.0381C58.5535 42.8605 57.8536 42.4182 57.6853 41.4531C57.6571 41.3429 57.6571 41.2322 57.6571 41.1221V39.4932C57.6571 39.383 57.6571 39.3001 57.6853 39.19C57.8536 38.4445 58.2453 38.2237 59.534 38.1136C59.6457 38.1136 59.7857 38.0857 59.8981 38.0857H70.3449V35.6847H60.0663C58.5817 35.6847 57.8253 35.7948 57.1254 35.9879C54.9409 36.6777 53.9886 37.7269 53.9886 39.5767V41.6745C53.9886 43.3035 55.8649 44.6831 58.9741 45.0141C59.3381 45.0141 59.674 45.0419 60.0381 45.0419H63.8196C63.9595 45.0419 64.0989 45.0419 64.2106 45.0697C65.3877 45.1799 65.8635 45.3729 66.2276 45.7861C66.4234 46.007 66.5082 46.2006 66.5082 46.4493V48.5472C66.5082 48.7959 66.3399 49.1275 65.9758 49.4028C65.667 49.6794 65.1347 49.8452 64.4347 49.8996C64.2948 49.8996 64.1837 49.9274 64.0424 49.9274H53.9603V52.3284ZM93.0031 48.1315C93.0031 50.616 94.8517 51.9956 98.6332 52.2721C98.9691 52.3 99.3331 52.3278 99.669 52.3278H109.192V49.9256H99.6125C97.4556 49.9256 96.6439 49.401 96.6439 48.1315V35.6835H93.0024V48.1315H93.0031ZM72.5294 48.2694V39.7134C72.5294 37.5326 74.0693 36.2081 77.1502 35.7936C77.459 35.7379 77.8231 35.7379 78.1307 35.7379H85.076C85.4118 35.7379 85.7207 35.7379 86.0848 35.7936C89.1374 36.2081 90.7055 37.5326 90.7055 39.7134V48.2694C90.7055 50.0369 90.0339 50.9748 88.521 51.5823L92.1343 54.7845H87.8776L84.9643 52.2171L82.0227 52.3829H78.1301C77.4584 52.3829 76.7579 52.3006 75.9732 52.0797C73.6499 51.4716 72.5294 50.2572 72.5294 48.2694ZM76.4785 48.0498C76.4785 48.1878 76.5068 48.2973 76.535 48.4365C76.7591 49.4294 77.7108 49.9819 79.1389 49.9819H82.4728L79.4201 47.2765H83.6768L86.3371 49.623C86.8142 49.3743 87.15 48.9877 87.2618 48.4909C87.29 48.353 87.29 48.2434 87.29 48.1321V39.907C87.29 39.8235 87.29 39.714 87.2618 39.6027C87.0377 38.6648 86.086 38.1408 84.6849 38.1408H79.1395C77.5149 38.1408 76.4791 38.8306 76.4791 39.907V48.0498H76.4785ZM110.873 52.3284H111.405V50.3407H112.133V49.9262H110.145V50.3407H110.873V52.3284ZM114.962 52.3284H115.438V49.9262H114.71L114.066 51.583L113.423 49.9262H112.666V52.3284H113.17V50.5065L113.87 52.3284H114.234L114.934 50.5065H114.963V52.3284H114.962Z" fill="#CE8B2C"/>
<path fill-rule="evenodd" clip-rule="evenodd" d="M6.15045 29.6933V20.6393H9.00665C9.67896 20.6393 10.1554 20.695 10.4913 20.8051C10.9112 20.9709 11.247 21.2468 11.527 21.6885C11.7794 22.1024 11.9194 22.627 11.9194 23.2346C11.9194 24.0629 11.6959 24.7249 11.2753 25.2223C10.8553 25.7463 10.1265 25.995 9.09077 25.995H7.15797V29.694H6.15045V29.6933ZM7.1586 24.9458H9.11902C9.73546 24.9458 10.183 24.8078 10.4636 24.5319C10.7442 24.256 10.8836 23.8415 10.8836 23.2896C10.8836 22.9308 10.7995 22.6271 10.6595 22.3784C10.5195 22.1024 10.3513 21.9372 10.1554 21.8543C9.95956 21.7436 9.59484 21.7158 9.0914 21.7158H7.1586V24.9458ZM12.9005 25.2768C12.9005 23.7586 13.237 22.5714 13.9369 21.7436C14.6368 20.9152 15.4774 20.5013 16.5131 20.5013C17.1854 20.5013 17.8019 20.6671 18.3336 21.0532C18.8941 21.412 19.3141 21.9638 19.6499 22.6543C19.9581 23.3719 20.1258 24.2003 20.1258 25.166C20.1258 26.519 19.8175 27.6233 19.2011 28.4511C18.5012 29.3896 17.6048 29.8585 16.5125 29.8585C15.3926 29.8585 14.4962 29.3617 13.8239 28.4232C13.2087 27.5683 12.9005 26.519 12.9005 25.2768ZM13.9369 25.3046C13.9369 26.4083 14.1886 27.2917 14.6933 27.8992C15.1691 28.5061 15.7856 28.8377 16.5138 28.8377C17.2419 28.8377 17.8584 28.5061 18.3342 27.8992C18.8383 27.2645 19.0906 26.3532 19.0906 25.1394C19.0906 24.3661 18.9506 23.6763 18.6983 23.0688C18.5024 22.5998 18.2218 22.2132 17.8301 21.9372C17.4466 21.6655 16.9855 21.5206 16.5131 21.5234C15.7567 21.5234 15.1409 21.8271 14.6651 22.434C14.161 23.0688 13.9369 24.0073 13.9369 25.3046ZM22.6756 29.6933L20.687 20.6393H21.6951L22.8439 26.5741C22.9838 27.1816 23.0673 27.8163 23.1797 28.4239L23.5155 26.7677L24.9719 20.6399H26.1483L27.2123 25.2223C27.4751 26.278 27.6807 27.3467 27.8281 28.4239C27.9122 27.8442 28.0239 27.1816 28.1922 26.4646L29.3685 20.6399H30.4049L28.3328 29.694H27.3523L25.7559 22.7928L25.5036 21.7442C25.4477 22.1309 25.3636 22.4897 25.3077 22.7928L23.6838 29.6933H22.6756ZM31.3296 29.6933V20.6393H36.7633V21.7164H32.3101V24.4768H36.4833V25.5533H32.3101V28.6447H36.9315V29.6933H31.3296ZM38.3038 29.6933V20.6393H41.637C42.3376 20.6393 42.8693 20.7222 43.1775 20.888C43.514 21.0538 43.7933 21.3576 44.0174 21.7436C44.2133 22.1303 44.3256 22.5992 44.3256 23.0966C44.3256 23.7864 44.1574 24.3383 43.7933 24.78C43.4292 25.1939 42.8969 25.4704 42.197 25.5805C42.4769 25.7463 42.701 25.9121 42.841 26.0773C43.1493 26.4361 43.4016 26.8228 43.6251 27.2367L44.9421 29.6933H43.6816L42.6734 27.8163C42.2811 27.0715 42.0011 26.5741 41.8053 26.326C41.6094 26.0779 41.4129 25.9121 41.2171 25.8014C41.0488 25.7185 40.7971 25.6634 40.4607 25.6634H39.3125V29.6933H38.3038ZM39.3119 24.642H41.4406C41.9164 24.642 42.2805 24.587 42.5046 24.4762C42.7563 24.3655 42.9528 24.1725 43.0928 23.9516C43.2327 23.7035 43.2886 23.427 43.2886 23.1232C43.2886 22.6543 43.1769 22.2954 42.8963 22.0195C42.6163 21.7714 42.224 21.6329 41.6923 21.6329H39.3119V24.642ZM45.922 29.6933V20.6393H51.3557V21.7164H46.9301V24.4768H51.0751V25.5533H46.9301V28.6447H51.5515V29.6933H45.922ZM52.8955 29.6933V20.6393H55.5C56.144 20.6393 56.6205 20.695 56.9563 20.8051C57.4045 20.9431 57.7686 21.219 58.1044 21.6056C58.4127 21.9923 58.665 22.4612 58.8609 23.0409C59.0291 23.6206 59.1126 24.311 59.1126 25.1116C59.1126 26.133 58.9726 27.0164 58.6644 27.7334C58.3562 28.4511 57.9645 28.9479 57.488 29.2516C57.0122 29.5554 56.3675 29.6933 55.6117 29.6933H52.8955ZM53.9043 28.6447H55.5006C56.1447 28.6447 56.6211 28.534 56.957 28.3137C57.2934 28.1207 57.5451 27.7891 57.741 27.3202C57.9651 26.7133 58.0775 25.9678 58.0775 25.1122C58.0775 24.2009 57.9657 23.456 57.7134 22.9314C57.461 22.4068 57.1245 22.048 56.7328 21.8822C56.4805 21.7721 56.0605 21.7164 55.4724 21.7164H53.9036V28.6447H53.9043ZM63.6781 29.6933V20.6393H66.508C67.0955 20.6393 67.5437 20.7222 67.8802 20.9152C68.216 21.081 68.4966 21.3569 68.6931 21.7158C68.916 22.1024 69.0289 22.4891 69.0289 22.958C69.0289 23.3719 68.916 23.7314 68.7484 24.0623C68.5525 24.3933 68.3008 24.6692 67.9649 24.8623C68.3821 25.0236 68.7422 25.302 69.0007 25.6628C69.2518 26.0495 69.3648 26.5184 69.3648 27.0709C69.3648 27.6233 69.2518 28.0916 69.0289 28.5061C68.8048 28.92 68.4966 29.2238 68.1043 29.4174C67.7402 29.6104 67.2079 29.6933 66.5362 29.6933H63.6781ZM64.6875 24.449H66.3121C66.7314 24.449 67.0403 24.4218 67.2085 24.3661C67.4879 24.2832 67.6843 24.118 67.8237 23.925C67.9649 23.732 68.0196 23.4554 68.0196 23.0972C68.0196 22.7656 67.9643 22.4897 67.8513 22.2688C67.7113 22.048 67.5437 21.91 67.319 21.8271C67.1231 21.7442 66.7302 21.7164 66.1985 21.7164H64.6869V24.449H64.6875ZM64.6875 28.6447H66.5632C66.9555 28.6447 67.2631 28.5897 67.4596 28.534C67.733 28.4294 67.961 28.2343 68.1043 27.9821C68.2725 27.7613 68.3271 27.4303 68.3271 27.0715C68.3271 26.7127 68.2719 26.4367 68.1319 26.188C67.9907 25.9672 67.7961 25.7742 67.5431 25.6634C67.319 25.5533 66.9267 25.4976 66.4226 25.4976H64.6863V28.6447H64.6875ZM72.8368 29.6933V25.8564L69.953 20.6393H71.157L72.6403 23.3719C72.9245 23.8758 73.1863 24.3916 73.425 24.9179C73.6491 24.4212 73.9008 23.8965 74.2379 23.3169L75.6943 20.6393H76.8418L73.8456 25.8564V29.6933H72.8368Z" fill="#00678C"/>
</svg>
