<svg width="100" height="52" viewBox="0 0 100 52" fill="none" xmlns="http://www.w3.org/2000/svg">
<path d="M50 51.6968C77.6142 51.6968 100 40.1241 100 25.8484C100 11.5727 77.6142 0 50 0C22.3858 0 0 11.5727 0 25.8484C0 40.1241 22.3858 51.6968 50 51.6968Z" fill="#8993BE"/>
<path fill-rule="evenodd" clip-rule="evenodd" d="M14.041 41.1533L19.5207 13.6042H32.1914C37.6707 13.9445 40.4105 16.6651 40.4105 21.427C40.4105 29.5897 33.9039 34.3512 28.0816 34.011H21.9179L20.548 41.1533H14.041ZM23.2875 28.9096L25 18.706H29.4519C31.8492 18.706 33.5613 19.7263 33.5613 21.7669C33.2191 27.5491 30.4793 28.5694 27.3972 28.9096H23.2879H23.2875ZM39.1375 34.011L44.6168 6.46228H51.1238L49.7539 13.6042H55.9179C61.3976 13.9445 63.4523 16.6651 62.7675 20.0665L60.3703 34.011H53.5211L55.9183 21.427C56.2605 19.7263 56.2605 18.706 53.8636 18.706H48.7265L45.6445 34.011H39.1375ZM59.9316 41.1533L65.4109 13.6042H78.082C83.5617 13.9445 86.3015 16.6651 86.3015 21.427C86.3015 29.5897 79.7945 34.3512 73.9726 34.011H67.8082L66.4382 41.1533H59.9316ZM69.1777 28.9096L70.8902 18.706H75.3425C77.7398 18.706 79.4519 19.7263 79.4519 21.7669C79.1097 27.5491 76.3699 28.5694 73.2879 28.9096H69.1781H69.1777Z" fill="#232531"/>
</svg>
