<svg width="40" height="40" viewBox="0 0 40 40" fill="none" xmlns="http://www.w3.org/2000/svg">
<path d="M40 20.635C40 21.8623 39.0293 22.8572 37.832 22.8572H31.6376L35.6438 31.0697C36.3645 32.5472 35.3163 34.2857 33.7046 34.2857H30.1901C29.369 34.2857 28.6182 33.8102 28.251 33.0573L23.5042 23.3264C23.3536 23.0178 23.2753 22.6776 23.2753 22.3326V7.93658C23.2753 6.70928 24.2459 5.71436 25.4433 5.71436H37.832C39.0293 5.71436 40 6.70928 40 7.93658V20.635Z" fill="#434343"/>
<path d="M15.5323 5.71436C16.7297 5.71436 17.7004 6.70928 17.7004 7.93658V20.635C17.7004 21.8623 16.7297 22.8572 15.5323 22.8572H9.33799L13.3441 31.0697C14.0649 32.5472 13.0167 34.2857 11.405 34.2857H7.89048C7.0693 34.2857 6.3186 33.8102 5.95135 33.0573L1.20452 23.3264C1.054 23.0178 0.975632 22.6776 0.975632 22.3326V7.93658C0.975632 6.70928 1.94629 5.71436 3.14365 5.71436H15.5323Z" fill="#434343"/>
</svg>
