<svg width="224" height="80" viewBox="0 0 224 80" fill="none" xmlns="http://www.w3.org/2000/svg">
<path d="M61.5136 63.0004L34.9425 62.2272C31.7256 62.0868 28.0157 58.1807 28.0622 54.9202L28.189 27.6638C28.2354 24.3923 31.8757 21.296 35.0818 21.3306L61.2957 22.3153C64.4894 22.3627 68.1546 25.377 68.1081 28.6375V56.4684C68.1081 60.0207 65.3396 63.0004 61.5136 63.0004Z" fill="url(#paint0_radial)"/>
<path fill-rule="evenodd" clip-rule="evenodd" d="M28.2518 27.6646C28.2518 27.6647 28.2518 27.6648 28.2518 27.6649L28.125 54.9211L28.125 54.9214C28.1021 56.5287 29.0066 58.305 30.324 59.6998C31.6411 61.0945 33.3585 62.0945 34.9453 62.1639C34.9455 62.1639 34.9456 62.1639 34.9457 62.1639L61.5141 62.937C61.5144 62.937 61.5147 62.937 61.515 62.937C65.3064 62.9366 68.0464 59.9852 68.0464 56.4686V28.6373L68.0464 28.6368C68.0693 27.0313 67.1776 25.4791 65.8765 24.3196C64.5757 23.1605 62.8747 22.4026 61.2953 22.3791L61.2946 22.3791L35.0817 21.3944C35.0814 21.3944 35.0812 21.3944 35.0809 21.3944C33.4967 21.3775 31.7997 22.1348 30.4921 23.3054C29.1841 24.4764 28.2748 26.0525 28.2518 27.6646ZM61.5141 63.0006L61.5124 63.0641L34.9413 62.2909L34.9408 62.2909L34.9404 62.2909C33.3104 62.2198 31.5646 61.1966 30.2343 59.7881C28.9042 58.3798 27.977 56.573 28.0004 54.9198C28.0004 54.9197 28.0004 54.9196 28.0004 54.9195L28.1273 27.6634L28.1273 27.6631C28.1508 26.0039 29.0848 24.3962 30.41 23.2098C31.7354 22.0233 33.4613 21.2497 35.083 21.2673L35.0838 21.2673L61.2971 22.252C61.2973 22.252 61.2976 22.252 61.2978 22.252C62.9119 22.2762 64.64 23.049 65.9584 24.2239C67.2766 25.3984 68.1943 26.9833 68.1709 28.6381V56.4686C68.1709 60.0563 65.3742 63.0642 61.5141 63.0642V63.0006Z" fill="#2C2C2C"/>
<path d="M30.348 52.785L34.5759 51.742C34.7474 52.258 35.4261 53.5363 36.0227 54.0524C36.6193 54.5685 38.2965 54.8493 39.4111 54.7435C40.5256 54.6378 41.0776 53.6403 41.1347 52.9018C41.1811 52.1742 40.8364 51.6581 40.1809 51.3189C39.5254 50.9797 38.7913 50.7792 37.7571 50.4637C36.7229 50.1591 34.8742 49.7361 33.4149 48.7277C31.9681 47.7193 31.6108 45.4088 31.6001 44.5882C31.5894 43.7676 31.7841 42.5586 32.3003 41.6797C32.8183 40.788 34.5062 38.8641 37.8607 38.8641C41.2151 38.8641 42.6172 39.9546 43.3853 40.5874C44.1551 41.2202 45.384 43.485 45.384 43.485L41.5241 44.9037C40.8686 42.9452 39.6522 42.276 37.9857 42.276C36.3192 42.276 35.9298 43.3555 35.9298 43.9992C35.9298 44.6448 36.2978 45.4179 37.8821 45.841C39.4664 46.2641 42.0867 46.9315 43.3388 47.7521C44.591 48.5727 45.7395 50.274 45.7395 52.2562C45.7395 54.2384 44.9821 55.3179 44.3266 56.0565C43.6711 56.7841 42.0867 58.4727 38.7091 58.4727C35.46 58.4617 32.1753 56.9956 30.348 52.785ZM59.7216 52.2927C59.7216 52.2927 60.3539 44.2709 53.0127 44.2709C46.3735 44.2709 46.6254 51.2259 46.6254 51.7055C46.6254 53.7114 47.7739 58.8593 53.3807 58.8593C58.9875 58.8593 59.7216 54.0506 59.7216 54.0506L55.8956 53.5929C55.7117 54.0852 55.333 55.8559 53.5415 55.8559C51.7499 55.8559 51.1748 54.3788 51.0372 53.8974C50.8997 53.416 50.9336 52.2909 50.9336 52.2909L59.7216 52.2927ZM50.8997 49.9695C50.8997 49.9695 50.7961 46.9315 53.37 46.9315C55.9439 46.9315 55.7706 49.9695 55.7706 49.9695H50.8997Z" fill="white"/>
<path fill-rule="evenodd" clip-rule="evenodd" d="M37.8622 38.8961C34.5211 38.8961 32.8423 40.8117 32.3286 41.6961L32.3286 41.6962C31.8162 42.5685 31.6221 43.7711 31.6328 44.588C31.6381 44.9951 31.7296 45.7745 32 46.5774C32.2704 47.3806 32.7185 48.2029 33.434 48.7016C34.6897 49.5693 36.2349 50.0021 37.301 50.3007C37.4694 50.3478 37.6258 50.3917 37.7672 50.4333L37.7674 50.4334L37.7675 50.4334C37.9019 50.4744 38.0312 50.5134 38.156 50.5511C38.9907 50.8032 39.6235 50.9943 40.1965 51.2907C40.5279 51.4622 40.7829 51.6795 40.9489 51.9479C41.1151 52.2166 41.1909 52.5343 41.1673 52.904L41.1673 52.9042L41.1673 52.9044C41.1094 53.653 40.5499 54.6677 39.4155 54.7753C38.8548 54.8286 38.1539 54.7845 37.5184 54.6626C36.8844 54.5409 36.309 54.3406 36.0041 54.0768C35.7018 53.8153 35.3809 53.3631 35.1148 52.9138C34.8576 52.4796 34.6494 52.0443 34.5573 51.7798L30.3932 52.8072C32.2177 56.9779 35.4811 58.4302 38.7107 58.4411C42.0757 58.441 43.6523 56.7599 44.3052 56.0352C44.9574 55.3004 45.7099 54.2281 45.7099 52.2564C45.7099 50.2864 44.5679 48.5945 43.3236 47.779C42.7013 47.3712 41.7368 47.0002 40.7273 46.678C39.8331 46.3925 38.9063 46.1461 38.1553 45.9464C38.0591 45.9208 37.9658 45.896 37.8758 45.8719C37.08 45.6594 36.5857 45.358 36.2903 45.025C35.9943 44.6915 35.9002 44.3288 35.9002 43.9994C35.9002 43.6718 35.9992 43.2328 36.3111 42.8752C36.6238 42.5168 37.147 42.2444 37.9872 42.2444C38.8244 42.2444 39.5519 42.4125 40.153 42.8293C40.7481 43.2419 41.216 43.8959 41.5448 44.863L45.3405 43.4679C45.3315 43.4517 45.3193 43.4296 45.3042 43.4023C45.2691 43.3392 45.2182 43.2484 45.1546 43.1374C45.0275 42.9155 44.8501 42.613 44.6486 42.2907C44.4472 41.9685 44.2219 41.6268 43.9991 41.3264C43.776 41.0256 43.5567 40.768 43.3673 40.6123L43.3673 40.6123C42.9841 40.2966 42.4444 39.8681 41.5829 39.5182C40.7212 39.1681 39.536 38.8961 37.8622 38.8961ZM30.3496 52.7852L30.3423 52.7543L34.5978 51.7044L34.6069 51.7319C34.6916 51.9869 34.903 52.4333 35.1681 52.8809C35.4333 53.3288 35.7501 53.7738 36.0444 54.0283C36.3361 54.2807 36.8975 54.4787 37.5299 54.6001C38.1608 54.7211 38.8558 54.7646 39.4097 54.7121C40.5044 54.6082 41.0487 53.6281 41.1052 52.8996C41.128 52.5418 41.0546 52.2378 40.8963 51.9818C40.7377 51.7255 40.4925 51.5151 40.1684 51.3474C39.6008 51.0538 38.9741 50.8645 38.1386 50.6122C38.0138 50.5745 37.8844 50.5354 37.7499 50.4944C37.6095 50.453 37.4538 50.4094 37.286 50.3625C36.2207 50.0642 34.6641 49.6284 33.399 48.7542L33.3989 48.7541C32.6676 48.2444 32.2136 47.4073 31.9411 46.598C31.6684 45.7884 31.5759 45.0023 31.5705 44.5888C31.5598 43.7645 31.755 42.5491 32.2751 41.6636C32.7974 40.7644 34.4945 38.8325 37.8622 38.8325C39.5428 38.8325 40.7359 39.1057 41.6059 39.4591C42.476 39.8126 43.0215 40.2457 43.4064 40.5628C43.6019 40.7235 43.8249 40.9863 44.0487 41.2881C44.2729 41.5903 44.4992 41.9335 44.7011 42.2565C44.9031 42.5796 45.081 42.8829 45.2084 43.1053C45.2721 43.2166 45.3232 43.3076 45.3583 43.3709C45.3759 43.4026 45.3895 43.4272 45.3987 43.444C45.4033 43.4524 45.4068 43.4588 45.4092 43.4632L45.4119 43.4681L45.4127 43.4696L45.4128 43.4697C45.4128 43.4697 45.4128 43.4697 45.4064 43.4734L45.4128 43.4698L45.4305 43.5024L41.5064 44.9447L41.4962 44.9141C41.17 43.9396 40.7055 43.2892 40.1181 42.8819C39.5305 42.4744 38.8165 42.3079 37.9872 42.3079C37.161 42.3079 36.6562 42.5752 36.3576 42.9175C36.0582 43.2607 35.9625 43.6833 35.9625 43.9994C35.9625 44.3155 36.0523 44.6622 36.3364 44.9824C36.6211 45.3032 37.103 45.5999 37.8915 45.8104C37.9814 45.8344 38.0747 45.8592 38.1709 45.8848C38.9218 46.0845 39.8501 46.3313 40.7459 46.6173C41.7557 46.9397 42.7273 47.3127 43.3572 47.7255C44.6171 48.5512 45.7721 50.262 45.7721 52.2564C45.7721 54.2489 45.0101 55.3357 44.3512 56.078L44.3511 56.0782C43.6929 56.8087 42.1008 58.5046 38.7106 58.5046H38.7105C35.4511 58.4937 32.154 57.0218 30.3211 52.7981L30.3496 52.7852ZM49.1973 45.3394C50.1133 44.6756 51.3489 44.2393 53.0143 44.2393C54.8555 44.2393 56.1992 44.7424 57.1784 45.4992C58.1573 46.2557 58.7694 47.2639 59.1507 48.2705C59.5319 49.2771 59.6827 50.2831 59.7383 51.0371C59.7661 51.4142 59.7701 51.7285 59.7671 51.9486C59.7656 52.0587 59.7624 52.1452 59.7596 52.2043C59.7581 52.2339 59.7568 52.2566 59.7558 52.2719C59.7553 52.2796 59.7549 52.2854 59.7546 52.2894L59.7543 52.2938L59.7542 52.295L59.7542 52.2953C59.7542 52.2954 59.7542 52.2954 59.7232 52.2929L59.7542 52.2954L59.7519 52.3247L50.9655 52.3228C50.9654 52.3282 50.9653 52.3343 50.9651 52.341C50.9645 52.3726 50.9637 52.4183 50.9632 52.4747C50.9621 52.5874 50.9622 52.7427 50.9665 52.9129C50.9753 53.2548 51.0012 53.6525 51.0687 53.8887C51.1367 54.1269 51.3131 54.6114 51.6936 55.0359C52.0733 55.4594 52.6569 55.8243 53.543 55.8243C54.4264 55.8243 54.9602 55.3887 55.2973 54.8911C55.567 54.4931 55.7097 54.0578 55.8039 53.7704C55.828 53.6968 55.849 53.6328 55.8681 53.5817L55.8767 53.5586L59.7589 54.023L59.7539 54.0556L59.7232 54.0508C59.7539 54.0556 59.7539 54.0557 59.7539 54.0557L59.7539 54.0559L59.7538 54.0567L59.7533 54.0594C59.7529 54.0618 59.7523 54.0654 59.7515 54.07C59.75 54.0793 59.7475 54.093 59.7441 54.1109C59.7373 54.1465 59.7266 54.1986 59.7109 54.2648C59.6797 54.3972 59.6288 54.5862 59.5502 54.8127C59.393 55.2658 59.1247 55.8699 58.6801 56.4742C57.7902 57.6839 56.196 58.8912 53.3822 58.8912C50.5676 58.8912 48.8693 57.5982 47.876 56.0522C46.8839 54.5081 46.5958 52.7132 46.5958 51.7057C46.5958 51.693 46.5956 51.6758 46.5954 51.6542C46.5914 51.269 46.5733 49.5058 47.3024 47.7959C47.6875 46.8926 48.2816 46.003 49.1973 45.3394ZM59.6868 54.0784L55.9178 53.6275C55.9019 53.6719 55.8843 53.7255 55.8644 53.7864C55.7705 54.0731 55.624 54.5207 55.3485 54.9273C55.0024 55.4381 54.4511 55.8878 53.543 55.8878C52.6376 55.8878 52.0379 55.5141 51.6477 55.0788C51.2583 54.6444 51.0784 54.1497 51.0089 53.9065C50.9388 53.6613 50.913 53.2556 50.9043 52.9146C50.8999 52.7434 50.8999 52.5873 50.9009 52.4741C50.9014 52.4174 50.9022 52.3715 50.9029 52.3396C50.9032 52.3237 50.9035 52.3114 50.9037 52.303C50.9038 52.2995 50.9039 52.2967 50.9039 52.2946L50.904 52.2934L50.9041 52.2909L50.9041 52.2901L50.9041 52.2901L50.905 52.2592L59.6941 52.2611C59.695 52.2464 59.6962 52.2263 59.6974 52.2012C59.7002 52.1428 59.7034 52.057 59.7049 51.9477C59.7078 51.7292 59.7038 51.4168 59.6762 51.0418C59.6209 50.2918 59.471 49.2923 59.0926 48.2934C58.7143 47.2946 58.1081 46.2974 57.1408 45.5498C56.1738 44.8025 54.8437 44.3029 53.0143 44.3029C51.3601 44.3029 50.1375 44.736 49.2334 45.3912C48.3291 46.0466 47.7413 46.9258 47.3595 47.8212C46.6359 49.5182 46.6538 51.2693 46.6577 51.6542C46.6579 51.6757 46.6581 51.693 46.6581 51.7057C46.6581 52.7041 46.9442 54.486 47.9281 56.0173C48.9107 57.5468 50.5901 58.8276 53.3822 58.8276C56.1753 58.8276 57.7515 57.6307 58.6304 56.436C59.0702 55.8381 59.3358 55.2401 59.4915 54.7915C59.5693 54.5673 59.6196 54.3805 59.6504 54.2499C59.6658 54.1847 59.6763 54.1335 59.683 54.0987C59.6844 54.0911 59.6857 54.0844 59.6868 54.0784ZM50.9319 49.9379H55.7422C55.7423 49.9368 55.7423 49.9357 55.7423 49.9346C55.743 49.9127 55.7436 49.8804 55.7434 49.8392C55.7431 49.7569 55.7399 49.6391 55.728 49.4977C55.7042 49.2147 55.6458 48.838 55.5079 48.4618C55.37 48.0856 55.1531 47.7113 54.8129 47.4311C54.4732 47.1512 54.0085 46.9634 53.3715 46.9634C52.7345 46.9634 52.2653 47.1512 51.919 47.4313C51.5723 47.7116 51.3467 48.0861 51.2001 48.4624C51.0536 48.8387 50.9865 49.2154 50.9562 49.4984C50.9411 49.6399 50.9351 49.7577 50.933 49.84C50.9319 49.8811 50.9317 49.9134 50.9319 49.9354C50.9319 49.9362 50.9319 49.9371 50.9319 49.9379ZM55.7721 49.9697C55.8032 49.9715 55.8032 49.9715 55.8032 49.9715L55.8032 49.9713L55.8033 49.9709L55.8034 49.9691L55.8035 49.9663L55.8037 49.9624C55.8039 49.9565 55.8043 49.9478 55.8046 49.9365C55.8052 49.9139 55.8058 49.8809 55.8057 49.839C55.8054 49.7552 55.8021 49.6357 55.79 49.4923C55.7659 49.2056 55.7067 48.8228 55.5662 48.4395C55.4257 48.0562 55.2033 47.671 54.852 47.3816C54.5003 47.0918 54.0215 46.8999 53.3715 46.8999C52.7216 46.8999 52.2385 47.0918 51.8804 47.3814C51.5227 47.6707 51.2915 48.0557 51.1423 48.4389C50.993 48.8222 50.925 49.2049 50.8943 49.4915C50.879 49.6349 50.8729 49.7545 50.8707 49.8383C50.8696 49.8802 50.8695 49.9132 50.8696 49.9357C50.8696 49.9398 50.8696 49.9435 50.8697 49.9468C50.8697 49.9529 50.8698 49.9578 50.8699 49.9616C50.87 49.9646 50.87 49.9668 50.8701 49.9684L50.8701 49.9701L50.8701 49.9706L50.8701 49.9707C50.8701 49.9707 50.8701 49.9708 50.9013 49.9697L50.8701 49.9708L50.8712 50.0015H55.8015L55.8032 49.9715L55.7721 49.9697Z" fill="#2C2C2C"/>
<path d="M29.5097 30.4903V43.9882C29.5097 43.9882 31.0726 51.1182 35.9649 51.2586C40.8572 51.3991 59.1476 52.1613 60.8016 52.0792C62.4556 51.9972 66.8103 49.6758 66.8103 45.1717V31.8161C66.8103 29.2248 65.3403 24.1809 59.7335 23.911C54.1285 23.6411 38.378 23.2308 36.599 23.2308C33.6911 23.2181 29.5097 24.3559 29.5097 30.4903Z" fill="url(#paint1_radial)"/>
<path d="M46.4889 32.531L54.1962 42.442L72.358 27.0075L69.8538 21.8706L54.7714 34.9819L49.395 28.7782L46.4889 32.531Z" fill="url(#paint2_linear)"/>
<path fill-rule="evenodd" clip-rule="evenodd" d="M69.8673 21.8032L72.4098 27.0187L54.1901 42.5023L46.4359 32.5311L49.3931 28.7122L54.7754 34.9227L69.8673 21.8032ZM69.8402 21.9381L54.7672 35.0411L49.3967 28.8443L46.5418 32.531L54.2023 42.3817L72.3061 26.9964L69.8402 21.9381Z" fill="#0C0000"/>
<path d="M46.914 32.4253L54.4392 39.3912L66.7655 29.4803L65.3419 26.1487L54.7392 35.3667L49.3968 29.2213L46.914 32.4253Z" fill="url(#paint3_radial)"/>
<path d="M85.5104 53C84.0409 53 82.6169 52.7941 81.2382 52.3824C79.8776 51.9706 78.7982 51.4246 78 50.7442L79.2245 48.032C80.0046 48.6407 80.957 49.1419 82.0817 49.5358C83.2246 49.9118 84.3675 50.0997 85.5104 50.0997C86.9254 50.0997 87.9775 49.876 88.6669 49.4284C89.3744 48.9808 89.7281 48.39 89.7281 47.656C89.7281 47.1189 89.5286 46.6803 89.1295 46.3402C88.7485 45.9821 88.2587 45.7046 87.6601 45.5077C87.0614 45.3107 86.2451 45.087 85.211 44.8363C83.7598 44.4962 82.5806 44.156 81.6735 43.8159C80.7846 43.4757 80.0136 42.9476 79.3606 42.2315C78.7256 41.4974 78.4082 40.5128 78.4082 39.2775C78.4082 38.2391 78.6894 37.2992 79.2517 36.4578C79.8322 35.5985 80.6939 34.9182 81.8368 34.4169C82.9978 33.9156 84.4128 33.665 86.0818 33.665C87.2428 33.665 88.3857 33.8082 89.5105 34.0946C90.6352 34.3811 91.6057 34.7928 92.4221 35.3299L91.3064 38.0422C90.4719 37.5588 89.6012 37.1918 88.6941 36.9412C87.7871 36.6905 86.9072 36.5652 86.0546 36.5652C84.6577 36.5652 83.6146 36.798 82.9253 37.2634C82.2541 37.7289 81.9185 38.3465 81.9185 39.1164C81.9185 39.6535 82.1089 40.0921 82.4899 40.4322C82.889 40.7724 83.3879 41.0409 83.9865 41.2379C84.5852 41.4348 85.4015 41.6586 86.4356 41.9092C87.8506 42.2315 89.0116 42.5716 89.9186 42.9297C90.8257 43.2698 91.5967 43.798 92.2316 44.5141C92.8847 45.2302 93.2112 46.1969 93.2112 47.4143C93.2112 48.4527 92.921 49.3926 92.3404 50.234C91.7781 51.0754 90.9164 51.7468 89.7554 52.2481C88.5943 52.7494 87.1793 53 85.5104 53Z" fill="#484848"/>
<path d="M108.42 45.6419C108.42 45.8747 108.402 46.2059 108.365 46.6356H96.9638C97.1634 47.6918 97.6804 48.5332 98.5149 49.1598C99.3675 49.7685 100.42 50.0729 101.671 50.0729C103.268 50.0729 104.583 49.5537 105.617 48.5153L107.44 50.5831C106.787 51.3529 105.962 51.9348 104.964 52.3286C103.966 52.7225 102.842 52.9194 101.59 52.9194C99.9934 52.9194 98.5875 52.6061 97.372 51.9795C96.1566 51.3529 95.2132 50.4847 94.542 49.3747C93.8889 48.2468 93.5624 46.9757 93.5624 45.5614C93.5624 44.165 93.8799 42.9118 94.5148 41.8018C95.1679 40.6739 96.0659 39.7967 97.2087 39.1701C98.3516 38.5435 99.6396 38.2302 101.073 38.2302C102.488 38.2302 103.749 38.5435 104.855 39.1701C105.98 39.7788 106.851 40.6471 107.467 41.7749C108.102 42.8849 108.42 44.1739 108.42 45.6419ZM101.073 40.9156C99.9843 40.9156 99.0591 41.2379 98.2972 41.8824C97.5534 42.509 97.0999 43.3504 96.9366 44.4066H105.182C105.037 43.3683 104.592 42.5269 103.848 41.8824C103.105 41.2379 102.179 40.9156 101.073 40.9156Z" fill="#484848"/>
<path d="M110.054 32.8056H113.456V52.7315H110.054V32.8056Z" fill="#484848"/>
<path d="M129.948 45.6419C129.948 45.8747 129.93 46.2059 129.893 46.6356H118.492C118.691 47.6918 119.208 48.5332 120.043 49.1598C120.895 49.7685 121.948 50.0729 123.199 50.0729C124.796 50.0729 126.111 49.5537 127.145 48.5153L128.968 50.5831C128.315 51.3529 127.49 51.9348 126.492 52.3286C125.494 52.7225 124.369 52.9194 123.118 52.9194C121.521 52.9194 120.115 52.6061 118.9 51.9795C117.684 51.3529 116.741 50.4847 116.07 49.3747C115.417 48.2468 115.09 46.9757 115.09 45.5614C115.09 44.165 115.408 42.9118 116.043 41.8018C116.696 40.6739 117.594 39.7967 118.737 39.1701C119.88 38.5435 121.168 38.2302 122.601 38.2302C124.016 38.2302 125.276 38.5435 126.383 39.1701C127.508 39.7788 128.379 40.6471 128.995 41.7749C129.63 42.8849 129.948 44.1739 129.948 45.6419ZM122.601 40.9156C121.512 40.9156 120.587 41.2379 119.825 41.8824C119.081 42.509 118.628 43.3504 118.465 44.4066H126.71C126.564 43.3683 126.12 42.5269 125.376 41.8824C124.632 41.2379 123.707 40.9156 122.601 40.9156Z" fill="#484848"/>
<path d="M139.827 38.2302C141.66 38.2302 143.129 38.7583 144.236 39.8146C145.342 40.8708 145.896 42.4373 145.896 44.5141V52.7315H142.494V44.9437C142.494 43.6905 142.195 42.7506 141.596 42.124C140.998 41.4795 140.145 41.1573 139.038 41.1573C137.787 41.1573 136.798 41.5332 136.072 42.2852C135.347 43.0192 134.984 44.0844 134.984 45.4808V52.7315H131.582V38.3913H134.821V40.2442C135.383 39.5818 136.09 39.0806 136.943 38.7404C137.796 38.4003 138.757 38.2302 139.827 38.2302Z" fill="#484848"/>
<path d="M148.578 38.3913H151.979V52.7315H148.578V38.3913ZM150.292 36.0281C149.675 36.0281 149.158 35.8402 148.741 35.4642C148.324 35.0703 148.115 34.587 148.115 34.0141C148.115 33.4412 148.324 32.9668 148.741 32.5908C149.158 32.1969 149.675 32 150.292 32C150.909 32 151.426 32.188 151.843 32.5639C152.26 32.922 152.469 33.3785 152.469 33.9335C152.469 34.5243 152.26 35.0256 151.843 35.4373C151.444 35.8312 150.927 36.0281 150.292 36.0281Z" fill="#484848"/>
<path d="M168.879 38.3913V52.7315H165.641V50.9054C165.097 51.5499 164.417 52.0512 163.6 52.4092C162.784 52.7494 161.904 52.9194 160.961 52.9194C159.02 52.9194 157.487 52.3913 156.362 51.335C155.255 50.2609 154.702 48.6765 154.702 46.5818V38.3913H158.104V46.1253C158.104 47.4143 158.394 48.3811 158.974 49.0256C159.573 49.6522 160.417 49.9655 161.505 49.9655C162.72 49.9655 163.682 49.5985 164.389 48.8645C165.115 48.1125 165.478 47.0384 165.478 45.6419V38.3913H168.879Z" fill="#484848"/>
<path d="M190.041 38.2302C191.873 38.2302 193.324 38.7583 194.395 39.8146C195.465 40.8529 196 42.4194 196 44.5141V52.7315H192.599V44.9437C192.599 43.6905 192.317 42.7506 191.755 42.124C191.193 41.4795 190.385 41.1573 189.333 41.1573C188.19 41.1573 187.274 41.5332 186.585 42.2852C185.895 43.0192 185.551 44.0754 185.551 45.454V52.7315H182.149V44.9437C182.149 43.6905 181.868 42.7506 181.306 42.124C180.743 41.4795 179.936 41.1573 178.884 41.1573C177.723 41.1573 176.798 41.5243 176.108 42.2583C175.437 42.9923 175.102 44.0575 175.102 45.454V52.7315H171.7V38.3913H174.938V40.2174C175.483 39.5729 176.163 39.0806 176.979 38.7404C177.796 38.4003 178.703 38.2302 179.7 38.2302C180.789 38.2302 181.75 38.4361 182.585 38.8478C183.437 39.2417 184.109 39.8325 184.598 40.6202C185.197 39.8683 185.968 39.2864 186.911 38.8747C187.855 38.445 188.898 38.2302 190.041 38.2302Z" fill="#484848"/>
<defs>
<radialGradient id="paint0_radial" cx="0" cy="0" r="1" gradientUnits="userSpaceOnUse" gradientTransform="translate(32.807 60.3333) scale(32.2325 32.9069)">
<stop stop-color="#2B2B2B"/>
<stop offset="1" stop-color="#838383"/>
</radialGradient>
<radialGradient id="paint1_radial" cx="0" cy="0" r="1" gradientUnits="userSpaceOnUse" gradientTransform="translate(41.3517 18.7637) scale(31.1472 31.7989)">
<stop stop-color="white" stop-opacity="0.8"/>
<stop offset="1" stop-color="white" stop-opacity="0.2"/>
</radialGradient>
<linearGradient id="paint2_linear" x1="48.0472" y1="43.2929" x2="63.0863" y2="25.9729" gradientUnits="userSpaceOnUse">
<stop stop-color="#227716"/>
<stop offset="1" stop-color="#20B228"/>
</linearGradient>
<radialGradient id="paint3_radial" cx="0" cy="0" r="1" gradientUnits="userSpaceOnUse" gradientTransform="translate(54.9245 37.0284) rotate(-38.7764) scale(10.2709 29.3482)">
<stop stop-color="white" stop-opacity="0.4"/>
<stop offset="0.998" stop-color="white" stop-opacity="0"/>
</radialGradient>
</defs>
</svg>
