<svg width="224" height="80" viewBox="0 0 224 80" fill="none" xmlns="http://www.w3.org/2000/svg">
<path d="M121.505 32.1773C119.23 32.1773 117.536 33.3179 117.536 36.0628C117.536 38.131 118.652 39.5666 121.383 39.5666C123.697 39.5666 125.268 38.1746 125.268 35.9774C125.268 33.4875 123.862 32.1775 121.505 32.1775V32.1773ZM116.955 51.5584C116.417 52.2329 115.88 52.9497 115.88 53.7955C115.88 55.483 117.988 55.9909 120.883 55.9909C123.282 55.9909 126.549 55.8194 126.549 53.5426C126.549 52.1894 124.977 52.1056 122.991 51.9785L116.955 51.5584H116.955ZM129.195 32.305C129.938 33.2763 130.725 34.6276 130.725 36.5697C130.725 41.2558 127.127 44 121.918 44C120.593 44 119.394 43.8315 118.651 43.6208L117.286 45.858L121.338 46.1108C128.492 46.5762 132.709 46.7877 132.709 52.4009C132.709 57.2574 128.533 60 121.338 60C113.853 60 111 58.0577 111 54.7228C111 52.8221 111.827 51.8112 113.275 50.4158C111.909 49.8267 111.455 48.7718 111.455 47.6314C111.455 46.7019 111.909 45.8577 112.655 45.055C113.399 44.2536 114.226 43.4504 115.218 42.5218C113.192 41.5088 111.662 39.3133 111.662 36.1886C111.662 31.3341 114.805 28 121.131 28C122.909 28 123.985 28.1671 124.936 28.422H133V32.0097L129.195 32.3053" fill="#413000"/>
<path d="M141.432 25.3131C139.032 25.3131 137.643 23.9563 137.643 21.6139C137.643 19.2744 139.032 18 141.432 18C143.874 18 145.263 19.2744 145.263 21.6139C145.263 23.9562 143.874 25.3131 141.432 25.3131ZM136 49.9997V46.7561L138.148 46.4694C138.738 46.386 138.822 46.2638 138.822 45.6461V33.569C138.822 33.1181 138.696 32.8293 138.273 32.707L136 31.9258L136.463 28.5996H145.179V45.6464C145.179 46.3049 145.219 46.3863 145.853 46.4697L148 46.7564V50H136" fill="#413000"/>
<path d="M164 48.3075C162.3 49.1955 159.812 50 157.56 50C152.859 50 151.082 47.9699 151.082 43.184V32.0932C151.082 31.8397 151.082 31.6696 150.765 31.6696H148V27.902C151.477 27.4775 152.859 25.6144 153.294 21H157.047V27.0136C157.047 27.3088 157.047 27.4367 157.363 27.4367H162.933V31.6695H157.047V41.7871C157.047 44.2852 157.601 45.2581 159.732 45.2581C160.84 45.2581 161.984 44.9626 162.932 44.5813L164 48.3079" fill="#413000"/>
<path d="M101.189 37.5848L82.4139 18.811C81.3336 17.7297 79.5801 17.7297 78.4985 18.811L74.6 22.71L79.5451 27.6553C80.6947 27.2672 82.0124 27.5274 82.9283 28.4436C83.849 29.3655 84.1074 30.6944 83.7095 31.848L88.4758 36.6144C89.6288 36.217 90.9592 36.4737 91.88 37.3961C93.1673 38.6831 93.1673 40.7684 91.88 42.0557C90.5925 43.3434 88.5073 43.3434 87.2191 42.0557C86.2512 41.087 86.0118 39.6648 86.502 38.4722L82.057 34.027L82.0566 45.7244C82.3705 45.8798 82.6666 46.0871 82.9281 46.3475C84.215 47.6343 84.215 49.7193 82.9281 51.0083C81.6409 52.295 79.5547 52.295 78.2687 51.0083C76.9817 49.7194 76.9817 47.6345 78.2687 46.3475C78.5868 46.03 78.9549 45.7897 79.3476 45.6286V33.8224C78.9547 33.662 78.5871 33.4235 78.2685 33.1034C77.2936 32.1292 77.0588 30.6983 77.5588 29.5011L72.6839 24.6252L59.8112 37.498C58.7296 38.5802 58.7296 40.3338 59.8112 41.4152L78.5854 60.189C79.6663 61.2703 81.4192 61.2703 82.5016 60.189L101.189 41.5039C102.27 40.422 102.27 38.6679 101.189 37.5864" fill="#F05133"/>
</svg>
