<svg width="173" height="46" viewBox="0 0 173 46" fill="none" xmlns="http://www.w3.org/2000/svg">
<path d="M41.865 46C41.6852 46.0004 41.5084 45.9539 41.3519 45.8652C41.1953 45.7765 41.0645 45.6485 40.9721 45.4938L33.1216 32.3606L18.4396 36.3656C18.2159 36.4197 17.9806 36.3978 17.7707 36.3033C17.5608 36.2087 17.3882 36.047 17.2799 35.8433L0.122174 3.49585C0.0433768 3.34769 0.00147393 3.18262 3.8183e-05 3.0147C-0.00139757 2.84679 0.0376765 2.68102 0.113928 2.53152C0.19018 2.38203 0.301347 2.25325 0.437951 2.15616C0.574555 2.05908 0.732543 1.99657 0.898442 1.97396L15.4655 0.00991173C15.6667 -0.018139 15.8718 0.0136589 16.0552 0.101366C16.2386 0.189074 16.3923 0.328834 16.4973 0.503326L34.0671 29.9384L54.5025 24.3634L47.6886 14.7114C47.5903 14.5742 47.5268 14.4151 47.5035 14.2478C47.4802 14.0805 47.4979 13.91 47.5549 13.751C47.612 13.5921 47.7068 13.4495 47.8311 13.3354C47.9554 13.2214 48.1055 13.1395 48.2684 13.0966L57.828 10.8298C58.019 10.7842 58.219 10.7939 58.4047 10.8577C58.5904 10.9215 58.7543 11.0368 58.8774 11.1902L67.1512 21.5519C67.259 21.6868 67.3317 21.8465 67.3626 22.0165C67.3935 22.1866 67.3818 22.3617 67.3284 22.5261C67.2749 22.6904 67.1816 22.8389 67.0567 22.958C66.9318 23.0771 66.7793 23.1632 66.6129 23.2084L57.9238 25.5858L65.5316 36.3191C65.6248 36.4508 65.6861 36.6024 65.7109 36.762C65.7356 36.9216 65.723 37.0847 65.674 37.2385C65.6251 37.3924 65.5411 37.5327 65.4288 37.6483C65.3165 37.764 65.1789 37.8519 65.0268 37.9051L42.194 45.9359C42.088 45.9752 41.9763 45.9968 41.8634 46H41.865ZM35.2012 31.7903L42.317 43.6931L63.0542 36.4121L55.8122 26.1721L35.2012 31.7903ZM2.65703 3.82426L18.7143 34.134L32.0402 30.5071L15.0693 2.16459L2.65703 3.82426ZM50.3081 14.7723L56.6971 23.7851L64.6227 21.6224L57.7274 13.0101L50.3081 14.7723ZM78.0796 11.626H80.1561V33.9578H78.0876L78.0796 11.626ZM100.441 17.8465V33.9578H98.4016V31.1703C97.6109 32.1636 96.6158 32.9774 95.485 33.5541C93.9461 34.2919 92.215 34.5267 90.536 34.2252C88.857 33.9236 87.3147 33.1011 86.1266 31.8736C85.341 31.0821 84.7223 30.14 84.3077 29.1034C83.893 28.0669 83.6908 26.9571 83.7132 25.8405C83.6963 24.7345 83.9035 23.6366 84.3222 22.6133C84.7408 21.5901 85.3624 20.6627 86.149 19.8875C86.9051 19.0907 87.8176 18.4597 88.829 18.0342C89.8404 17.6088 90.9287 17.3981 92.0253 17.4156C93.2712 17.3996 94.5011 17.6879 95.6064 18.2598C96.7288 18.8708 97.6923 19.7378 98.4192 20.791V17.8433L100.441 17.8465ZM92.1834 19.4485C91.0597 19.4412 89.9548 19.738 88.9853 20.3079C88.0157 20.8777 87.2174 21.6993 86.6745 22.6862C85.5197 24.7015 85.5197 27.1798 86.6745 29.1951C87.2224 30.1963 88.029 31.031 89.0097 31.6109C89.9608 32.1804 91.0486 32.4794 92.1563 32.476C93.2839 32.4763 94.392 32.1802 95.37 31.6173C96.3491 31.0774 97.1589 30.2716 97.7052 29.2944C98.2624 28.2797 98.5449 27.1364 98.5246 25.9783C98.5482 25.1151 98.3977 24.2562 98.082 23.4528C97.7664 22.6495 97.2921 21.9185 96.6877 21.3036C96.1049 20.699 95.4039 20.2217 94.6285 19.9016C93.8531 19.5816 93.0201 19.4257 92.1819 19.4437L92.1834 19.4485ZM104.31 17.8465H106.421V20.2015C106.95 19.3885 107.627 18.6834 108.418 18.1237C109.062 17.6815 109.823 17.4417 110.603 17.4348C111.252 17.4562 111.885 17.6455 112.44 17.9843L111.357 19.7465C111.007 19.5783 110.627 19.483 110.239 19.4661C109.491 19.4891 108.779 19.7927 108.244 20.3168C107.512 21.0384 107.002 21.9552 106.774 22.9585C106.53 23.877 106.407 25.7321 106.407 28.5238V33.9754H104.295L104.31 17.8465ZM130.185 17.8465V33.9578H128.147V31.1703C127.357 32.1636 126.362 32.9774 125.231 33.5541C123.692 34.2919 121.961 34.5267 120.282 34.2252C118.603 33.9236 117.06 33.1011 115.872 31.8736C115.087 31.0821 114.468 30.14 114.053 29.1034C113.639 28.0669 113.437 26.9571 113.459 25.8405C113.427 23.6057 114.305 21.451 115.898 19.8875C116.654 19.0907 117.567 18.4597 118.578 18.0342C119.589 17.6088 120.678 17.3981 121.774 17.4156C123.02 17.3996 124.25 17.6879 125.355 18.2598C126.478 18.8708 127.441 19.7378 128.168 20.791V17.8433L130.185 17.8465ZM121.928 19.4485C120.804 19.4412 119.699 19.738 118.729 20.3079C117.76 20.8777 116.962 21.6993 116.419 22.6862C115.264 24.7015 115.264 27.1798 116.419 29.1951C116.967 30.1963 117.773 31.031 118.754 31.6109C119.705 32.1804 120.793 32.4794 121.9 32.476C123.028 32.4763 124.136 32.1802 125.114 31.6173C126.093 31.0774 126.903 30.2716 127.449 29.2944C128.007 28.2797 128.289 27.1364 128.269 25.9783C128.295 25.1126 128.146 24.2506 127.83 23.4444C127.515 22.6382 127.04 21.9045 126.433 21.2876C125.851 20.6834 125.151 20.2063 124.376 19.8863C123.601 19.5662 122.769 19.4101 121.931 19.4277L121.928 19.4485ZM133.321 17.8465H135.525L140.917 29.5892L146.252 17.8465H148.457L141.109 33.9594H140.742L133.321 17.8465ZM165.118 28.6119L166.875 29.5299C166.382 30.5497 165.712 31.473 164.896 32.2565C164.161 32.9385 163.303 33.4736 162.369 33.8328C161.352 34.2076 160.275 34.3911 159.192 34.3743C156.572 34.3743 154.522 33.5199 153.042 31.8111C151.613 30.2037 150.828 28.1224 150.838 25.9686C150.817 23.9854 151.48 22.055 152.715 20.5219C153.455 19.539 154.42 18.749 155.528 18.2182C156.636 17.6874 157.856 17.4313 159.083 17.4717C160.346 17.4301 161.6 17.692 162.741 18.2354C163.882 18.7788 164.877 19.588 165.643 20.5956C166.806 22.0694 167.391 23.9117 167.4 26.1224H152.937C152.913 27.8318 153.555 29.4818 154.726 30.7234C155.273 31.3054 155.936 31.7658 156.672 32.0749C157.407 32.384 158.199 32.5348 158.997 32.5176C159.812 32.5182 160.62 32.3734 161.385 32.0899C162.105 31.8335 162.773 31.4493 163.357 30.9557C164.056 30.279 164.649 29.5002 165.116 28.6456L165.118 28.6119ZM165.118 24.2866C164.91 23.3276 164.499 22.4245 163.913 21.6385C163.35 20.9496 162.635 20.4022 161.824 20.0397C160.973 19.6392 160.043 19.4309 159.102 19.4309C157.603 19.4005 156.149 19.9461 155.037 20.956C154.21 21.7036 153.584 22.809 153.16 24.2721L165.118 24.2866ZM170.932 11.6436H173V33.9754H170.932V11.6436Z" fill="#EF533F"/>
</svg>
