<svg width="64" height="64" viewBox="0 0 64 64" fill="none" xmlns="http://www.w3.org/2000/svg">
<g clip-path="url(#clip0)">
<path d="M62.9434 20.6928H1.0566C0.472877 20.6928 0 20.2199 0 19.6362C0 19.0531 0.472877 18.5796 1.0566 18.5796H62.9434C63.5271 18.5796 64 19.0531 64 19.6362C64 20.2199 63.5271 20.6928 62.9434 20.6928Z" fill="#7F8284"/>
<path d="M18.053 15.6368C16.2099 15.6368 14.7093 14.1362 14.7093 12.293C14.7093 10.4493 16.2099 8.94928 18.053 8.94928C19.8968 8.94928 21.3968 10.4493 21.3968 12.293C21.3968 14.1362 19.8968 15.6368 18.053 15.6368ZM18.053 11.0625C17.375 11.0625 16.8225 11.6144 16.8225 12.293C16.8225 12.9717 17.375 13.5236 18.053 13.5236C18.7317 13.5236 19.2836 12.9717 19.2836 12.293C19.2836 11.6144 18.7317 11.0625 18.053 11.0625Z" fill="#7F8284"/>
<path d="M7.77948 15.6044C5.93573 15.6044 4.43573 14.1044 4.43573 12.2606C4.43573 10.4169 5.93573 8.91687 7.77948 8.91687C9.62323 8.91687 11.1232 10.4169 11.1232 12.2606C11.1232 14.1044 9.62323 15.6044 7.77948 15.6044ZM7.77948 11.0301C7.10141 11.0301 6.54894 11.5826 6.54894 12.2606C6.54894 12.9393 7.10141 13.4912 7.77948 13.4912C8.45813 13.4912 9.01002 12.9393 9.01002 12.2606C9.01002 11.5826 8.45813 11.0301 7.77948 11.0301Z" fill="#7F8284"/>
<path fill-rule="evenodd" clip-rule="evenodd" d="M34.6113 30.0335C34.8914 29.8481 35.246 29.816 35.5546 29.9479C37.454 30.7583 39.0421 32.124 40.1463 33.8967C42.2725 37.3095 42.1035 41.7775 39.7252 45.0142C39.4131 45.4396 39.0678 45.8428 38.6987 46.2119L36.1629 48.7477L36.1627 60L34.1627 60L34.1629 48.333C34.1629 48.0679 34.2686 47.8137 34.456 47.6262L37.2846 44.7977C37.5822 44.5001 37.8608 44.1745 38.1135 43.8306C40.0119 41.2465 40.1465 37.6791 38.4488 34.9545C37.849 33.9915 37.0725 33.1791 36.1627 32.553L36.1627 37.8469C36.1616 39.4998 34.8171 40.8463 33.1629 40.8473L30.0913 40.8466C29.2899 40.847 28.5365 40.5349 27.9699 39.9682C27.4033 39.4016 27.0911 38.6483 27.0911 37.8465L27.0912 32.5535C26.6893 32.8297 26.3132 33.143 25.9673 33.4889C25.5298 33.9264 25.1396 34.4167 24.805 34.9544C23.1072 37.6789 23.2421 41.2461 25.1401 43.8306C25.3946 44.1762 25.6736 44.5021 25.9692 44.7976L28.7977 47.6261C28.9851 47.8136 29.0908 48.0678 29.0908 48.333L29.091 60H27.0909L27.0908 48.7474L24.5551 46.2116C24.1883 45.8449 23.8433 45.4421 23.5287 45.015C21.1505 41.777 20.9816 37.3089 23.1078 33.8961C24.2113 32.1255 25.7989 30.7596 27.6982 29.9478C28.0072 29.8163 28.3618 29.8477 28.6418 30.0331C28.9222 30.2182 29.0914 30.5317 29.091 30.8677L29.0914 37.8468C29.0914 38.1141 29.1953 38.3651 29.3842 38.554C29.573 38.7428 29.8241 38.8467 30.091 38.8464L33.1626 38.8471C33.714 38.8474 34.1629 38.3979 34.1625 37.8465V30.8677C34.1625 30.5321 34.3292 30.2182 34.6113 30.0335Z" fill="#FF6B00"/>
<path fill-rule="evenodd" clip-rule="evenodd" d="M40 60.2394H56.9056C60.8173 60.2394 64 57.0572 64 53.145V10.8679C64 6.95636 60.8173 3.77356 56.9056 3.77356H7.09436C3.18274 3.77356 0 6.95636 0 10.8679V53.145C0 57.0572 3.18274 60.2394 7.09436 60.2394H23V58.1262H7.09436C4.3479 58.1262 2.11316 55.8915 2.11316 53.145V10.8679C2.11316 8.12146 4.3479 5.88678 7.09436 5.88678H56.9056C59.6521 5.88678 61.8868 8.12146 61.8868 10.8679V53.145C61.8868 55.8915 59.6521 58.1262 56.9056 58.1262H40V60.2394Z" fill="#7F8284"/>
<path d="M28.3267 15.6686C26.4835 15.6686 24.9835 14.1686 24.9835 12.3249C24.9835 10.4817 26.4835 8.98172 28.3267 8.98172C30.1704 8.98172 31.6704 10.4817 31.6704 12.3249C31.6704 14.1686 30.1704 15.6686 28.3267 15.6686ZM28.3267 11.0943C27.6486 11.0943 27.0967 11.6462 27.0967 12.3249C27.0967 13.0035 27.6486 13.5554 28.3267 13.5554C29.0053 13.5554 29.5572 13.0035 29.5572 12.3249C29.5572 11.6462 29.0053 11.0943 28.3267 11.0943Z" fill="#7F8284"/>
</g>
<defs>
<clipPath id="clip0">
<rect width="64" height="64" fill="white"/>
</clipPath>
</defs>
</svg>
