<svg width="64" height="64" viewBox="0 0 64 64" fill="none" xmlns="http://www.w3.org/2000/svg">
<path d="M25.2512 44.8502C25.0095 44.8502 24.766 44.7671 24.5673 44.5979L17.73 38.7759C17.4941 38.5749 17.3585 38.2812 17.3585 37.9711C17.3585 37.6615 17.4947 37.3679 17.73 37.1669L24.5673 31.3449C25.0112 30.9664 25.6781 31.02 26.0566 31.464C26.4346 31.9086 26.3815 32.5755 25.9369 32.9534L20.0448 37.9711L25.9369 42.9888C26.3815 43.3673 26.4346 44.0342 26.0566 44.4782C25.8473 44.724 25.5502 44.8502 25.2512 44.8502Z" fill="#FF6B00"/>
<path d="M38.7488 44.8502C38.4498 44.8502 38.1527 44.724 37.9439 44.4782C37.5654 44.0342 37.6191 43.3673 38.063 42.9888L43.9551 37.9711L38.063 32.9534C37.6191 32.5755 37.5654 31.9086 37.9439 31.464C38.3219 31.02 38.9893 30.9664 39.4327 31.3449L46.27 37.1669C46.5059 37.3679 46.6415 37.6615 46.6415 37.9711C46.6415 38.2812 46.5059 38.5749 46.27 38.7759L39.4327 44.5979C39.234 44.7671 38.9905 44.8502 38.7488 44.8502Z" fill="#FF6B00"/>
<path d="M29.5796 49.217C29.5071 49.217 29.434 49.2093 29.3603 49.194C28.7895 49.0737 28.424 48.513 28.5443 47.9422L32.8055 27.7105C32.9257 27.1397 33.4859 26.7742 34.0572 26.8945C34.628 27.0147 34.9935 27.5749 34.8733 28.1462L30.6121 48.378C30.5071 48.8756 30.0684 49.217 29.5796 49.217Z" fill="#FF6B00"/>
<path d="M56.9057 60.2394H7.09434C3.18278 60.2394 0 57.0572 0 53.1451V10.8679C0 6.95637 3.18278 3.77359 7.09434 3.77359H56.9057C60.8172 3.77359 64 6.95637 64 10.8679V53.1451C64 57.0572 60.8172 60.2394 56.9057 60.2394ZM7.09434 5.8868C4.34788 5.8868 2.11321 8.12147 2.11321 10.8679V53.1451C2.11321 55.8915 4.34788 58.1262 7.09434 58.1262H56.9057C59.6521 58.1262 61.8868 55.8915 61.8868 53.1451V10.8679C61.8868 8.12147 59.6521 5.8868 56.9057 5.8868H7.09434Z" fill="#7F8284"/>
<path d="M62.9434 20.6928H1.0566C0.472877 20.6928 0 20.2199 0 19.6362C0 19.0531 0.472877 18.5796 1.0566 18.5796H62.9434C63.5271 18.5796 64 19.0531 64 19.6362C64 20.2199 63.5271 20.6928 62.9434 20.6928Z" fill="#7F8284"/>
<path d="M18.053 15.6368C16.2099 15.6368 14.7093 14.1362 14.7093 12.293C14.7093 10.4493 16.2099 8.9493 18.053 8.9493C19.8968 8.9493 21.3968 10.4493 21.3968 12.293C21.3968 14.1362 19.8968 15.6368 18.053 15.6368ZM18.053 11.0625C17.375 11.0625 16.8225 11.6144 16.8225 12.293C16.8225 12.9717 17.375 13.5236 18.053 13.5236C18.7317 13.5236 19.2836 12.9717 19.2836 12.293C19.2836 11.6144 18.7317 11.0625 18.053 11.0625Z" fill="#7F8284"/>
<path d="M7.77948 15.6044C5.93573 15.6044 4.43573 14.1044 4.43573 12.2606C4.43573 10.4169 5.93573 8.91687 7.77948 8.91687C9.62323 8.91687 11.1232 10.4169 11.1232 12.2606C11.1232 14.1044 9.62323 15.6044 7.77948 15.6044ZM7.77948 11.0301C7.10141 11.0301 6.54894 11.5826 6.54894 12.2606C6.54894 12.9393 7.10141 13.4912 7.77948 13.4912C8.45813 13.4912 9.01002 12.9393 9.01002 12.2606C9.01002 11.5826 8.45813 11.0301 7.77948 11.0301Z" fill="#7F8284"/>
<path d="M28.3267 15.6686C26.4835 15.6686 24.9835 14.1686 24.9835 12.3249C24.9835 10.4817 26.4835 8.98172 28.3267 8.98172C30.1704 8.98172 31.6704 10.4817 31.6704 12.3249C31.6704 14.1686 30.1704 15.6686 28.3267 15.6686ZM28.3267 11.0943C27.6486 11.0943 27.0967 11.6462 27.0967 12.3249C27.0967 13.0035 27.6486 13.5554 28.3267 13.5554C29.0053 13.5554 29.5572 13.0035 29.5572 12.3249C29.5572 11.6462 29.0053 11.0943 28.3267 11.0943Z" fill="#7F8284"/>
</svg>
