<svg width="64" height="64" viewBox="0 0 64 64" fill="none" xmlns="http://www.w3.org/2000/svg">
<path d="M56.9057 60.2394H7.09434C3.18278 60.2394 0 57.0572 0 53.1451V10.8679C0 6.95637 3.18278 3.77359 7.09434 3.77359H56.9057C60.8172 3.77359 64 6.95637 64 10.8679V53.1451C64 57.0572 60.8172 60.2394 56.9057 60.2394ZM7.09434 5.8868C4.34788 5.8868 2.11321 8.12147 2.11321 10.8679V53.1451C2.11321 55.8915 4.34788 58.1262 7.09434 58.1262H56.9057C59.6521 58.1262 61.8868 55.8915 61.8868 53.1451V10.8679C61.8868 8.12147 59.6521 5.8868 56.9057 5.8868H7.09434Z" fill="#7F8284"/>
<path d="M62.9434 20.6928H1.0566C0.472877 20.6928 0 20.2199 0 19.6362C0 19.0531 0.472877 18.5796 1.0566 18.5796H62.9434C63.5271 18.5796 64 19.0531 64 19.6362C64 20.2199 63.5271 20.6928 62.9434 20.6928Z" fill="#7F8284"/>
<path d="M18.0531 15.6368C16.2099 15.6368 14.7093 14.1362 14.7093 12.293C14.7093 10.4493 16.2099 8.94928 18.0531 8.94928C19.8968 8.94928 21.3968 10.4493 21.3968 12.293C21.3968 14.1362 19.8968 15.6368 18.0531 15.6368ZM18.0531 11.0625C17.375 11.0625 16.8225 11.6144 16.8225 12.293C16.8225 12.9717 17.375 13.5236 18.0531 13.5236C18.7317 13.5236 19.2836 12.9717 19.2836 12.293C19.2836 11.6144 18.7317 11.0625 18.0531 11.0625Z" fill="#7F8284"/>
<path d="M7.77948 15.6044C5.93573 15.6044 4.43573 14.1044 4.43573 12.2606C4.43573 10.4169 5.93573 8.91687 7.77948 8.91687C9.62323 8.91687 11.1232 10.4169 11.1232 12.2606C11.1232 14.1044 9.62323 15.6044 7.77948 15.6044ZM7.77948 11.0301C7.10142 11.0301 6.54894 11.5826 6.54894 12.2606C6.54894 12.9393 7.10142 13.4912 7.77948 13.4912C8.45814 13.4912 9.01003 12.9393 9.01003 12.2606C9.01003 11.5826 8.45814 11.0301 7.77948 11.0301Z" fill="#7F8284"/>
<path d="M28.3267 15.6686C26.4835 15.6686 24.9835 14.1686 24.9835 12.3249C24.9835 10.4817 26.4835 8.98172 28.3267 8.98172C30.1704 8.98172 31.6704 10.4817 31.6704 12.3249C31.6704 14.1686 30.1704 15.6686 28.3267 15.6686ZM28.3267 11.0943C27.6486 11.0943 27.0967 11.6462 27.0967 12.3249C27.0967 13.0035 27.6486 13.5554 28.3267 13.5554C29.0053 13.5554 29.5572 13.0035 29.5572 12.3249C29.5572 11.6462 29.0053 11.0943 28.3267 11.0943Z" fill="#7F8284"/>
<path d="M20.0433 31.4305C19.4671 31.4305 19 31.8976 19 32.4738V42.5262C19 43.1024 19.4671 43.5695 20.0433 43.5695C20.6196 43.5695 21.0866 43.1024 21.0866 42.5262V32.4738C21.0866 31.8976 20.6196 31.4305 20.0433 31.4305Z" fill="#FF6B00"/>
<path d="M25.026 28.4157C24.4498 28.4157 23.9827 28.8828 23.9827 29.459V45.541C23.9827 46.1172 24.4498 46.5843 25.026 46.5843C25.6023 46.5843 26.0693 46.1172 26.0693 45.541V29.459C26.0693 28.8828 25.6023 28.4157 25.026 28.4157Z" fill="#FF6B00"/>
<path d="M30.0087 24.2198C29.4325 24.2198 28.9654 24.6868 28.9654 25.2631V49.7368C28.9654 50.313 29.4325 50.7801 30.0087 50.7801C30.585 50.7801 31.052 50.313 31.052 49.7368V25.2631C31.052 24.687 30.585 24.2198 30.0087 24.2198Z" fill="#FF6B00"/>
<path d="M34.9913 30.3016C34.415 30.3016 33.948 30.7687 33.948 31.3449V43.6551C33.948 44.2314 34.415 44.6984 34.9913 44.6984C35.5675 44.6984 36.0346 44.2314 36.0346 43.6551V31.3449C36.0346 30.7687 35.5675 30.3016 34.9913 30.3016Z" fill="#FF6B00"/>
<path d="M39.974 31.4305C39.3977 31.4305 38.9307 31.8976 38.9307 32.4738V42.5262C38.9307 43.1024 39.3977 43.5695 39.974 43.5695C40.5502 43.5695 41.0173 43.1024 41.0173 42.5262V32.4738C41.0173 31.8976 40.5501 31.4305 39.974 31.4305Z" fill="#FF6B00"/>
<path d="M44.9567 34.7714C44.3804 34.7714 43.9134 35.2384 43.9134 35.8147V39.1854C43.9134 39.7616 44.3804 40.2287 44.9567 40.2287C45.5329 40.2287 46 39.7616 46 39.1854V35.8147C46 35.2384 45.5329 34.7714 44.9567 34.7714Z" fill="#FF6B00"/>
</svg>
