<svg width="64" height="64" viewBox="0 0 64 64" fill="none" xmlns="http://www.w3.org/2000/svg">
<path d="M56.7343 60.1824H7.2657C3.25966 60.1824 0 56.9227 0 52.9167V10.9758C0 6.96981 3.25966 3.71014 7.2657 3.71014H56.7343C60.7403 3.71014 64 6.96981 64 10.9758V52.9167C64 56.9227 60.7403 60.1824 56.7343 60.1824ZM7.2657 5.8744C4.4529 5.8744 2.16425 8.16304 2.16425 10.9758V52.9167C2.16425 55.7295 4.4529 58.0181 7.2657 58.0181H56.7343C59.5471 58.0181 61.8357 55.7295 61.8357 52.9167V10.9758C61.8357 8.16304 59.5471 5.8744 56.7343 5.8744H7.2657Z" fill="#7F8284"/>
<path d="M54.2331 43.6612H37.2289C36.631 43.6612 36.1467 43.1769 36.1467 42.5791C36.1467 41.9819 36.631 41.497 37.2289 41.497H54.2331C54.8303 41.497 55.3152 41.9819 55.3152 42.5791C55.3152 43.1769 54.8309 43.6612 54.2331 43.6612Z" fill="#FF6B00"/>
<path d="M54.2331 51.4849H37.2289C36.631 51.4849 36.1467 51.0006 36.1467 50.4028C36.1467 49.8056 36.631 49.3206 37.2289 49.3206H54.2331C54.8303 49.3206 55.3152 49.8056 55.3152 50.4028C55.3152 51.0006 54.8309 51.4849 54.2331 51.4849Z" fill="#FF6B00"/>
<path d="M54.2331 28.0139H37.2289C36.631 28.0139 36.1467 27.5296 36.1467 26.9318C36.1467 26.3345 36.631 25.8496 37.2289 25.8496H54.2331C54.8303 25.8496 55.3152 26.3345 55.3152 26.9318C55.3152 27.5296 54.8309 28.0139 54.2331 28.0139Z" fill="#FF6B00"/>
<path d="M54.2331 35.8376H37.2289C36.631 35.8376 36.1467 35.3533 36.1467 34.7554C36.1467 34.1582 36.631 33.6733 37.2289 33.6733H54.2331C54.8303 33.6733 55.3152 34.1582 55.3152 34.7554C55.3152 35.3533 54.8309 35.8376 54.2331 35.8376Z" fill="#FF6B00"/>
<path d="M62.9179 18.1999H1.08213C0.484299 18.1999 0 17.7156 0 17.1178C0 16.5199 0.484299 16.0356 1.08213 16.0356H62.9179C63.5157 16.0356 64 16.5199 64 17.1178C64 17.7156 63.5157 18.1999 62.9179 18.1999Z" fill="#7F8284"/>
<path d="M15.6002 14.343C13.7434 14.343 12.2325 12.8327 12.2325 10.9758C12.2325 9.11895 13.7434 7.60869 15.6002 7.60869C17.4571 7.60869 18.9674 9.11895 18.9674 10.9758C18.9674 12.8327 17.4571 14.343 15.6002 14.343ZM15.6002 9.77294C14.9366 9.77294 14.3967 10.3128 14.3967 10.9758C14.3967 11.6389 14.9366 12.1787 15.6002 12.1787C16.2633 12.1787 16.8031 11.6389 16.8031 10.9758C16.8031 10.3128 16.2633 9.77294 15.6002 9.77294Z" fill="#7F8284"/>
<path d="M7.80314 14.343C5.94686 14.343 4.43599 12.8327 4.43599 10.9758C4.43599 9.11895 5.94686 7.60869 7.80314 7.60869C9.66002 7.60869 11.1709 9.11895 11.1709 10.9758C11.1709 12.8327 9.66002 14.343 7.80314 14.343ZM7.80314 9.77294C7.1401 9.77294 6.60024 10.3128 6.60024 10.9758C6.60024 11.6389 7.1401 12.1787 7.80314 12.1787C8.46679 12.1787 9.00664 11.6389 9.00664 10.9758C9.00664 10.3128 8.46679 9.77294 7.80314 9.77294Z" fill="#7F8284"/>
<path d="M23.3967 14.343C21.5399 14.343 20.0296 12.8327 20.0296 10.9758C20.0296 9.11895 21.5399 7.60869 23.3967 7.60869C25.2536 7.60869 26.7645 9.11895 26.7645 10.9758C26.7645 12.8327 25.2536 14.343 23.3967 14.343ZM23.3967 9.77294C22.7331 9.77294 22.1938 10.3128 22.1938 10.9758C22.1938 11.6389 22.7337 12.1787 23.3967 12.1787C24.0604 12.1787 24.6002 11.6389 24.6002 10.9758C24.6002 10.3128 24.0604 9.77294 23.3967 9.77294Z" fill="#7F8284"/>
<path d="M29.0628 51.4849H9.42995C8.83212 51.4849 8.34782 51.0006 8.34782 50.4028V26.9318C8.34782 26.3345 8.83212 25.8496 9.42995 25.8496H29.0628C29.6606 25.8496 30.1449 26.3345 30.1449 26.9318V50.4028C30.1449 51.0006 29.6606 51.4849 29.0628 51.4849ZM10.5121 49.3207H27.9807V28.0139H10.5121V49.3207Z" fill="#FF6B00"/>
</svg>
