<svg width="64" height="64" viewBox="0 0 64 64" fill="none" xmlns="http://www.w3.org/2000/svg">
<path d="M56.7343 60.1824H7.2657C3.25966 60.1824 0 56.9227 0 52.9167V10.9758C0 6.96981 3.25966 3.71014 7.2657 3.71014H56.7343C60.7403 3.71014 64 6.96981 64 10.9758V52.9167C64 56.9227 60.7403 60.1824 56.7343 60.1824ZM7.2657 5.8744C4.4529 5.8744 2.16425 8.16304 2.16425 10.9758V52.9167C2.16425 55.7295 4.4529 58.0181 7.2657 58.0181H56.7343C59.5471 58.0181 61.8357 55.7295 61.8357 52.9167V10.9758C61.8357 8.16304 59.5471 5.8744 56.7343 5.8744H7.2657Z" fill="#7F8284"/>
<path d="M62.9179 18.1999H1.08213C0.484299 18.1999 0 17.7156 0 17.1178C0 16.5199 0.484299 16.0356 1.08213 16.0356H62.9179C63.5157 16.0356 64 16.5199 64 17.1178C64 17.7156 63.5157 18.1999 62.9179 18.1999Z" fill="#7F8284"/>
<path d="M15.6002 14.343C13.7434 14.343 12.2325 12.8327 12.2325 10.9758C12.2325 9.11895 13.7434 7.60869 15.6002 7.60869C17.4571 7.60869 18.9674 9.11895 18.9674 10.9758C18.9674 12.8327 17.4571 14.343 15.6002 14.343ZM15.6002 9.77294C14.9366 9.77294 14.3967 10.3128 14.3967 10.9758C14.3967 11.6389 14.9366 12.1787 15.6002 12.1787C16.2633 12.1787 16.8031 11.6389 16.8031 10.9758C16.8031 10.3128 16.2633 9.77294 15.6002 9.77294Z" fill="#7F8284"/>
<path d="M7.80315 14.343C5.94687 14.343 4.436 12.8327 4.436 10.9758C4.436 9.11895 5.94687 7.60869 7.80315 7.60869C9.66004 7.60869 11.1709 9.11895 11.1709 10.9758C11.1709 12.8327 9.66004 14.343 7.80315 14.343ZM7.80315 9.77294C7.14011 9.77294 6.60026 10.3128 6.60026 10.9758C6.60026 11.6389 7.14011 12.1787 7.80315 12.1787C8.4668 12.1787 9.00666 11.6389 9.00666 10.9758C9.00666 10.3128 8.4668 9.77294 7.80315 9.77294Z" fill="#7F8284"/>
<path d="M23.3968 14.343C21.5399 14.343 20.0296 12.8327 20.0296 10.9758C20.0296 9.11895 21.5399 7.60869 23.3968 7.60869C25.2536 7.60869 26.7645 9.11895 26.7645 10.9758C26.7645 12.8327 25.2536 14.343 23.3968 14.343ZM23.3968 9.77294C22.7331 9.77294 22.1939 10.3128 22.1939 10.9758C22.1939 11.6389 22.7337 12.1787 23.3968 12.1787C24.0604 12.1787 24.6003 11.6389 24.6003 10.9758C24.6003 10.3128 24.0604 9.77294 23.3968 9.77294Z" fill="#7F8284"/>
<path d="M31.7821 30.2143C27.609 30.2143 24.2142 33.6093 24.2142 37.7822C24.2142 41.9551 27.609 45.3501 31.7821 45.3501C32.9826 45.3501 34.1803 45.0597 35.2457 44.5104C35.7471 44.2519 35.9439 43.6359 35.6854 43.1345C35.4268 42.6331 34.8109 42.4368 34.3096 42.6948C33.5213 43.1013 32.671 43.3074 31.7821 43.3074C28.7354 43.3074 26.2567 40.8287 26.2567 37.7821C26.2567 34.7354 28.7354 32.2567 31.7821 32.2567C34.8288 32.2567 37.3075 34.7354 37.3075 37.7821C37.3075 38.671 37.1013 39.5212 36.695 40.3094C36.4365 40.8106 36.6333 41.4265 37.1347 41.6852C37.6358 41.9433 38.2517 41.7472 38.5105 41.2456C39.0599 40.1806 39.3502 38.9829 39.3502 37.7821C39.35 33.6091 35.9552 30.2143 31.7821 30.2143Z" fill="#FF6B00"/>
<path d="M48.5428 34.0375H44.2476C43.9956 33.2001 43.6591 32.3905 43.2417 31.6182L46.2816 28.5785C46.4731 28.3869 46.5806 28.1272 46.5806 27.8562C46.5806 27.5852 46.4731 27.3257 46.2816 27.134L42.4302 23.2825C42.0312 22.8838 41.3846 22.8838 40.9858 23.2825L37.9461 26.3224C37.1737 25.9052 36.3643 25.5685 35.5267 25.3165V21.0213C35.5267 20.4571 35.0696 20 34.5055 20H29.0587C28.4945 20 28.0374 20.4571 28.0374 21.0213V25.3165C27.1999 25.5685 26.3904 25.905 25.618 26.3224L22.5783 23.2825C22.1793 22.8838 21.5328 22.8838 21.134 23.2825L17.2825 27.134C17.0911 27.3255 16.9835 27.5852 16.9835 27.8562C16.9835 28.1272 17.0911 28.3867 17.2825 28.5785L20.3224 31.6182C19.9052 32.3905 19.5685 33.1999 19.3165 34.0375H15.0213C14.4571 34.0375 14 34.4946 14 35.0588V40.5056C14 41.0698 14.4571 41.5269 15.0213 41.5269H19.3166C19.5687 42.3646 19.905 43.174 20.3224 43.9462L17.2827 46.9858C17.0911 47.1774 16.9835 47.4371 16.9835 47.7081C16.9835 47.979 17.0911 48.2386 17.2825 48.4303L21.134 52.2817C21.5328 52.6803 22.1795 52.6806 22.5782 52.2817L25.618 49.242C26.3904 49.6592 27.1998 49.9959 28.0374 50.2479V54.543C28.0374 55.1071 28.4945 55.5643 29.0587 55.5643H34.5055C35.0696 55.5643 35.5267 55.1071 35.5267 54.543V50.2479C36.3642 49.9959 37.1737 49.6594 37.9461 49.242L40.9859 52.2817C41.3846 52.6804 42.0313 52.6804 42.4302 52.2817L46.2816 48.4303C46.4731 48.2387 46.5806 47.979 46.5806 47.7081C46.5806 47.4371 46.4731 47.1775 46.2815 46.9858L43.2417 43.9462C43.659 43.1739 43.9954 42.3646 44.2475 41.5269H48.5428C49.107 41.5269 49.5641 41.0698 49.5641 40.5056V35.0588C49.5641 34.4946 49.1069 34.0375 48.5428 34.0375ZM47.5216 39.4843H43.4634C42.9887 39.4843 42.5765 39.8114 42.4687 40.2738C42.197 41.4399 41.7357 42.5495 41.0976 43.5723C40.846 43.9755 40.9059 44.4989 41.2421 44.835L44.1153 47.7081L41.7081 50.1153L38.8347 47.2421C38.4987 46.9061 37.9755 46.8464 37.5722 47.0977C36.5494 47.736 35.4396 48.1972 34.2737 48.4688C33.8113 48.5767 33.4842 48.9887 33.4842 49.4636V53.5216H30.0799V49.4636C30.0799 48.9889 29.7528 48.5767 29.2904 48.4688C28.1245 48.1972 27.0147 47.7358 25.992 47.0977C25.5886 46.8462 25.0651 46.9063 24.7294 47.2421L21.8561 50.1153L19.4488 47.7081L22.322 44.835C22.6582 44.4988 22.718 43.9754 22.4664 43.5722C21.8284 42.5498 21.3672 41.4401 21.0954 40.2738C20.9876 39.8114 20.5755 39.4843 20.1007 39.4843H16.0426V36.0801H20.1007C20.5754 36.0801 20.9876 35.753 21.0954 35.2906C21.3671 34.1247 21.8284 33.0149 22.4665 31.9921C22.7182 31.5889 22.6582 31.0655 22.3222 30.7294L19.4488 27.8562L21.8561 25.449L24.7293 28.3223C25.0653 28.6584 25.5888 28.7183 25.992 28.4667C27.0147 27.8284 28.1245 27.3672 29.2904 27.0956C29.7528 26.9877 30.0799 26.5757 30.0799 26.1008V22.0427H33.4842V26.1008C33.4842 26.5755 33.8113 26.9877 34.2737 27.0956C35.4396 27.3672 36.5494 27.8286 37.5722 28.4667C37.9755 28.7183 38.4991 28.658 38.8349 28.3223L41.7081 25.449L44.1153 27.8562L41.2419 30.7294C40.9059 31.0656 40.8461 31.589 41.0976 31.9921C41.7358 33.0149 42.197 34.1247 42.4687 35.2906C42.5765 35.753 42.9886 36.0801 43.4634 36.0801H47.5216V39.4843Z" fill="#FF6B00"/>
</svg>
