<svg width="487" height="609" viewBox="0 0 487 609" fill="none" xmlns="http://www.w3.org/2000/svg">
<path fill-rule="evenodd" clip-rule="evenodd" d="M321.897 557.89C320.672 562.039 318.299 566.353 314.039 569.875C304.98 577.363 289.527 578.101 277.922 576.731C265.432 575.257 252.583 572.011 239.404 577.241C233.346 579.644 228.034 582.875 221.915 585.217C215.377 587.719 208.428 589.487 201.353 590.587C188.358 592.606 174.158 592.752 163.627 588.485C154.354 584.728 148.036 577.112 135.356 577.24C122.128 577.374 108.51 584.697 96.6585 588.915C83.2461 593.688 67.1295 597.676 52.8701 597.077C39.2043 596.504 27.6595 591.235 20.491 584.288C6.16679 570.409 4.90662 551.735 13.5892 533.981C17.2761 526.443 21.9346 517.961 31.2089 512.115C34.0755 510.308 36.7112 509.476 40.2396 508.598C43.4035 507.812 45.8104 506.582 48.4766 505.144C54.3333 501.987 61.1331 499.985 68.1372 498.994C95.341 495.15 122.624 503.518 139.624 514.848C143.652 517.532 147.676 519.809 154.218 519.422C161.046 519.019 168.023 516.97 174.584 515.199C181.068 513.45 187.466 511.344 194.138 510.149C201.127 508.899 207.738 509.048 214.211 510.102C226.371 512.081 238.446 508.635 246.021 514.766C253.317 520.672 256.775 529.209 269.423 530.589C282.827 532.051 298.351 533.824 310.758 537.827C315.895 539.485 320.666 542.216 322.405 545.974C324.072 549.578 323.049 553.988 321.897 557.89Z" fill="#F0F8FF"/>
<path fill-rule="evenodd" clip-rule="evenodd" d="M194.738 253.49C199.346 248.081 202.464 241.453 201.943 234.025C200.442 212.625 170.651 217.333 164.857 228.134C159.062 238.935 159.75 266.333 167.24 268.263C170.226 269.033 176.589 267.147 183.065 263.244L179 292H203L194.738 253.49Z" fill="#F0D1B5"/>
<path fill-rule="evenodd" clip-rule="evenodd" d="M178.536 215.685C181.699 215.167 190.216 214.81 191.787 214.81C192.79 214.81 193.878 215.039 194.473 214.118C194.959 213.363 194.781 212.087 194.926 211.211C195.095 210.193 195.335 209.189 195.577 208.187C196.267 205.337 197.31 202.625 198.769 200.079C201.507 195.302 205.519 191.56 210.583 189.383C216.176 186.979 222.504 186.428 228.52 186.916C234.957 187.438 240.784 189.563 246.862 191.562C252.654 193.468 258.72 194.218 264.778 193.288C270.881 192.35 275.493 189.042 280.641 185.902C285.911 182.688 291.934 180.586 298.165 181.069C303.98 181.52 309.341 183.922 314.15 187.129C318.649 190.131 322.362 193.742 324.458 198.824C326.713 204.291 326.711 210.292 323.003 215.123C317.628 222.127 307.65 223.938 299.349 223.758C294.547 223.654 289.832 222.777 285.299 221.183C279.253 219.056 274.029 215.452 268.373 212.528C265.719 211.156 262.975 210.029 260.099 209.217C257.309 208.429 254.56 208.067 252.034 209.753C249.361 211.537 246.966 213.289 243.908 214.405C240.974 215.476 237.867 216.075 234.742 216.051C228.661 216.004 222.667 214.109 216.761 212.84C211.946 211.806 206.793 210.774 201.883 211.769C199.834 212.184 196.841 213.041 196.101 215.17C208.556 217.427 213.447 232.83 209.936 244.137C208.041 250.24 196.65 257.374 192.221 254.166C189.415 252.133 191.119 249.465 192.221 247.703C194.332 244.33 195.055 239.997 191.148 237.648C187.778 235.622 184.235 240.433 184.168 240.427C183.242 240.354 175.24 235.829 169.726 229.224C164.287 229.547 163.461 225.96 164.76 223.027C166.059 220.094 174.166 216.402 178.536 215.685Z" fill="#191847"/>
<path d="M213 549C170.474 549 136 516.093 136 475.5C136 434.907 170.474 402 213 402C255.526 402 290 434.907 290 475.5C290 516.093 255.526 549 213 549Z" fill="#C5CFD6"/>
<path fill-rule="evenodd" clip-rule="evenodd" d="M67.4907 537.66C80.3035 509.301 89.5695 484.608 93.2889 471.58C99.6574 449.272 104.502 429.643 105.727 422.313C108.647 404.832 83.2647 403.814 79.9097 412.502C74.8319 425.651 65.9671 468.853 55.3154 534.107L67.4907 537.66ZM216.112 448.663C204.356 444.017 163.188 429.475 143.333 425.361C137.627 424.179 132.097 423.081 126.898 422.088C111.444 419.138 103.437 447.017 118.321 449.159C155.388 454.494 207.937 460.003 212.434 460.621C218.737 461.488 223.5 451.584 216.112 448.663Z" fill="#F0D1B5"/>
<path fill-rule="evenodd" clip-rule="evenodd" d="M117.413 414.416L181 382.047V375H173.438C111.92 390.676 80.4846 400.722 79.1313 405.138C79.1168 405.185 79.1034 405.233 79.0913 405.281C79.0603 405.321 79.0299 405.362 79 405.403C66.8085 422.17 59.5071 504.027 57.1106 510.156L80.4723 513.641C89.4087 480.503 118 457.418 117.241 417.729C117.446 416.565 117.497 415.461 117.413 414.416Z" fill="#1F28CF"/>
<path fill-rule="evenodd" clip-rule="evenodd" d="M175.717 433.64C181.535 432.476 186.893 431.436 191.477 430.632C221.091 425.438 229.726 409.586 224.62 375H170.058C161.145 377.56 114.826 396.985 90.7934 407.316C74.8874 414.154 79.9015 438.804 88.909 445.219C88.958 445.613 89.1201 445.88 89.4087 446C137.863 466.083 176.195 455.545 189 458.912L194.923 440.228L175.717 433.64Z" fill="#2B44FF"/>
<path fill-rule="evenodd" clip-rule="evenodd" d="M212.092 445.694C215.267 445.997 217.521 446.474 218.853 447.124C220.474 447.915 222.707 449.338 225.554 451.395C224.636 453.275 216.395 470.173 200.829 502.089C195.831 501.282 193.851 499.375 194.888 496.367C195.925 493.359 196.761 490.849 197.397 488.835L198.385 460.15C198.404 459.598 198.867 459.166 199.419 459.185C199.428 459.185 199.438 459.186 199.447 459.186L203.86 459.464C206.367 457.434 208.021 455.598 208.823 453.955C209.474 452.62 209.833 450.514 209.902 447.637L209.902 447.637C209.929 446.533 210.846 445.659 211.95 445.685C211.997 445.686 212.045 445.689 212.092 445.694Z" fill="#FF6B00"/>
<path fill-rule="evenodd" clip-rule="evenodd" d="M73.3219 532.402C74.4406 535.388 75 537.623 75 539.106C75 540.909 74.6996 543.54 74.0988 547C72.0068 547 53.2062 547 17.6969 547C16.2313 542.155 17.0773 539.539 20.2352 539.152C23.393 538.766 26.0163 538.417 28.105 538.106L54.32 526.419C54.8244 526.194 55.4157 526.421 55.6405 526.925C55.6444 526.934 55.6481 526.942 55.6517 526.951L57.3368 531.039C60.2601 532.403 62.6356 533.085 64.4633 533.085C65.9483 533.085 67.999 532.485 70.6155 531.286L70.6155 531.285C71.6196 530.825 72.8067 531.266 73.267 532.27C73.2869 532.313 73.3052 532.357 73.3219 532.402Z" fill="#FF6B00"/>
<path fill-rule="evenodd" clip-rule="evenodd" d="M119 347.617L82.7654 331.704C76.418 325.379 70.2886 320.572 64.3773 317.282C62.6097 316.719 59.5899 316.549 62.8118 321.255C66.0338 325.961 69.2111 331.056 67.9237 332.705C66.6363 334.355 62.907 332.534 61.4337 335.216C60.4514 337.004 66.7377 339.143 80.2925 341.633L107.43 362.439L119 347.617ZM265.492 352L245 356.066C265.608 394.471 276.66 414.826 278.155 417.13C281.52 422.315 278.38 431.817 277.221 436.821C284.496 438.515 281.627 427.565 290.833 429.851C299.236 431.938 306.361 437.293 314.196 430.071C315.159 429.183 315.865 426.407 312.58 424.984C304.397 421.437 292.308 414.796 290.348 412.218C287.674 408.702 279.389 388.629 265.492 352Z" fill="#F0D1B5"/>
<path fill-rule="evenodd" clip-rule="evenodd" d="M189.305 275.332L180.658 273.849C161.824 292.119 154.138 336.012 141.586 341.823C129.719 347.316 112.896 342 92.9002 334.823L86.7765 348.505C104.945 368.161 143.651 384.767 159.34 375.287C184.424 360.13 190.214 305.994 189.305 275.332Z" fill="#E9680B"/>
<path fill-rule="evenodd" clip-rule="evenodd" d="M227 384C192.328 384 166.824 384 150.489 384C146.992 384 147.651 378.952 148.157 376.404C153.989 347.004 176.759 315.312 176.759 273.461L198.828 270C217.083 299.358 223.395 335.505 227 384Z" fill="#DDE3E9"/>
<path fill-rule="evenodd" clip-rule="evenodd" d="M234.631 354.233C250.229 382.368 263.339 402.623 273.963 415L290 411.859C279.669 347.791 249.753 300.504 200.252 270H196.269L191.514 270C171.701 337.537 166.239 382.537 175.128 405H244C242.91 388.563 239.417 371.181 234.631 354.233H234.631Z" fill="#FF6B00"/>
<path fill-rule="evenodd" clip-rule="evenodd" d="M392.381 265.208C401.214 286.197 416.229 300.781 424.182 322.605C428.898 335.547 430.864 349.62 430.983 364.032C431.048 371.86 430.911 379.694 430.875 387.522C430.839 395.156 430.632 402.741 429.984 410.327C429.332 417.952 428.603 425.487 428.282 433.159C428.031 439.137 427.917 446.091 425.891 451.544C424.279 455.881 420.183 456.516 419.097 451.256C418.493 448.333 418.569 445.068 418.636 442.063C418.721 438.208 418.945 434.359 419.06 430.504C419.519 415.036 418.923 399.566 419.235 384.092C419.539 368.973 421.482 353.871 419.332 338.853C417.556 326.452 413.046 315.802 407.862 305.593C402.874 295.771 397.445 286.187 394.075 275.014C393.107 271.806 392.359 268.481 392 265.03C392.157 264.957 392.284 265.016 392.381 265.208Z" fill="#C1DEE2"/>
<path fill-rule="evenodd" clip-rule="evenodd" d="M389.974 306.617C391.723 307.88 392.7 309.728 393.882 311.551C395.352 313.817 397.081 315.863 398.551 318.131C401.615 322.86 404.308 327.879 407.102 332.799C412.406 342.137 416.433 352.091 418.427 362.895C420.495 374.092 421.052 385.648 421.919 397.012C422.839 409.056 423.765 421.188 423.887 433.279C423.942 438.696 424.235 444.446 423.584 449.825C423.179 453.173 421.668 456.027 418.261 456C411.025 455.942 407.627 447.927 406.208 441.354C404.119 431.674 403.702 421.393 404.033 411.494C404.432 399.558 406.504 387.802 407.4 375.912C408.35 363.325 407.814 350.96 403.486 339.109C401.3 333.12 398.763 327.274 396.484 321.325C395.514 318.792 394.719 316.19 393.409 313.831C391.951 311.208 390.142 308.826 389 306C389.324 306.206 389.649 306.411 389.974 306.617Z" fill="#89C5CC"/>
<path fill-rule="evenodd" clip-rule="evenodd" d="M473.334 281.518C473.556 281.345 473.778 281.173 474 281C473.361 283.693 472.207 285.88 471.324 288.341C470.531 290.554 470.129 293.058 469.595 295.477C468.34 301.158 466.89 306.711 465.706 312.44C463.36 323.777 463.804 335.99 465.342 348.568C466.795 360.45 469.092 372.313 470.187 384.192C471.095 394.043 471.485 404.202 470.619 413.601C470.031 419.984 468.103 427.606 462.848 426.962C460.374 426.659 459.084 423.681 458.564 420.32C457.729 414.922 457.554 409.246 457.229 403.878C456.502 391.896 456.358 379.951 456.214 368.092C456.078 356.904 455.705 345.494 456.452 334.587C457.173 324.063 459.428 314.58 462.653 305.83C464.351 301.22 465.97 296.502 467.878 292.108C468.793 290.001 469.911 288.139 470.827 286.033C471.563 284.339 472.148 282.601 473.334 281.518Z" fill="#C1DEE2"/>
<path fill-rule="evenodd" clip-rule="evenodd" d="M392.209 341.302C393.166 339.695 395.272 344.993 395.593 345.66C395.457 345.328 395.321 344.997 395.184 344.667C397.083 347.825 398.821 351.113 399.901 354.734C400.97 358.319 401.888 361.977 402.891 365.587C404.774 372.361 407.202 378.943 408.907 385.778C410.569 392.438 410.988 398.986 410.585 405.875C410.167 413.035 409.911 420.306 410.399 427.462C410.632 430.88 411.743 434.064 412.504 437.354C413.266 440.648 413.866 443.986 414.767 447.239C414.974 446.815 415 448.232 415 448.339C414.994 449.152 414.881 449.833 414.619 450.604C413.948 452.586 412.691 454.269 410.778 454.816C407.322 455.803 404.112 452.659 402.998 449.339C401.399 444.575 400.517 439.311 399.755 434.304C399.057 429.713 398.891 425.094 399.099 420.44C399.508 411.261 401.169 402.202 401.618 393.026C402.107 383.036 400.128 373.649 398.471 363.925C397.673 359.239 396.91 354.598 395.356 350.134C394.727 348.326 393.907 346.731 393.048 345.061C392.558 344.112 391.569 342.418 392.209 341.302Z" fill="#C1DEE2"/>
<path fill-rule="evenodd" clip-rule="evenodd" d="M420.252 325.697C419.856 337.142 419.172 348.5 417.646 359.824C416.089 371.38 414.3 382.897 412.802 394.463C411.343 405.722 409.815 417.168 410.018 428.585C410.168 436.993 408.774 451.219 418.113 455.369C427.572 459.572 429.601 441.623 430.222 435.699C431.412 424.333 431.027 412.847 430.449 401.419C429.856 389.689 428.866 378.02 427.64 366.334C426.277 353.353 425.208 340.314 424.349 327.296C423.925 320.857 423.82 314.429 423.937 307.988C424.048 301.911 423.817 295.77 421.656 290C421.543 290.082 421.431 290.164 421.318 290.246" fill="#69A1AC"/>
<path fill-rule="evenodd" clip-rule="evenodd" d="M469.083 361.955C467.382 364.433 465.667 366.887 464.061 369.512C461.186 374.209 458.587 379.432 457.805 386.147C456.169 400.2 457.481 415.379 457.798 429.863C457.863 432.822 457.489 435.693 458.655 438.51C459.713 441.064 461.691 443.01 463.576 443C467.611 442.977 466.995 433.095 467.002 428.746C467.014 421.123 466.159 413.422 466.233 405.806C466.306 398.26 466.765 390.694 467.859 383.528C468.967 376.275 470.589 369.309 472.729 362.81C473.026 361.908 475.158 354.937 473.144 356.139" fill="#89C5CC"/>
<path fill-rule="evenodd" clip-rule="evenodd" d="M451.262 287C448.609 287 448.625 300.226 448.546 301.925C448.257 308.055 448.325 314.188 448.143 320.319C447.744 333.701 447.254 347.2 445.243 360.426C444.161 367.547 442.907 374.636 441.557 381.702C440.204 388.789 438.387 395.867 437.497 403.044C436.642 409.943 437.125 416.977 437.242 423.91C437.359 430.885 437.57 437.874 438.484 444.788C438.709 446.494 438.974 448.195 439.257 449.891C439.492 451.305 439.355 453.058 439.754 454.401C440.393 456.552 443.133 457.256 444.978 456.92C449.97 456.009 453.159 449.74 454.865 445.16C457.043 439.311 458.199 432.967 459.339 426.804C460.631 419.821 461.388 412.732 461.743 405.623C462.466 391.175 461.539 376.712 460.504 362.31C459.928 354.301 459.263 346.327 458.246 338.367C457.232 330.441 455.932 322.55 455.086 314.601C454.471 308.825 453.865 303.04 453.467 297.241C453.371 295.859 453.291 287 451.262 287Z" fill="#69A1AC"/>
<path fill-rule="evenodd" clip-rule="evenodd" d="M447.941 383.139C447.508 369.253 441.927 308.259 440.657 291.467C440.339 287.264 437.282 269.765 436.885 265C435.81 266.347 435.901 287.309 435.913 292.126C435.926 296.891 435.335 301.576 435.031 306.315C434.721 311.151 427.572 373.601 426.645 378.247C424.799 387.491 423.564 396.976 422.611 406.428C421.683 415.639 420.24 425.358 421.482 434.618C421.767 436.75 422.219 438.848 422.955 440.806C423.749 442.922 424.294 444.879 424.932 447.093C425.958 450.659 427.815 453.789 430.668 455.262C436.517 458.281 439.658 451.447 441.251 445.497C443.793 435.995 445.426 426.338 446.191 416.359C447.037 405.318 448.287 394.255 447.941 383.139Z" fill="#89C5CC"/>
<path d="M475 424H388C386.895 424 386 424.895 386 426V513C386 514.105 386.895 515 388 515H475C476.105 515 477 514.105 477 513V426C477 424.895 476.105 424 475 424Z" fill="#FAF9F9"/>
<path d="M384 434H378C376.895 434 376 434.895 376 436V545C376 546.105 376.895 547 378 547H384C385.105 547 386 546.105 386 545V436C386 434.895 385.105 434 384 434Z" fill="#C5CFD6"/>
<path d="M434 434H428C426.895 434 426 434.895 426 436V545C426 546.105 426.895 547 428 547H434C435.105 547 436 546.105 436 545V436C436 434.895 435.105 434 434 434Z" fill="#C5CFD6"/>
<path d="M485 434H479C477.895 434 477 434.895 477 436V545C477 546.105 477.895 547 479 547H485C486.105 547 487 546.105 487 545V436C487 434.895 486.105 434 485 434Z" fill="#C5CFD6"/>
<path d="M343 106C372.271 106 396 82.2711 396 53C396 23.7289 372.271 0 343 0C313.729 0 290 23.7289 290 53C290 82.2711 313.729 106 343 106Z" fill="#F2F2F2"/>
<path d="M343 14C344.657 14 346 12.6569 346 11C346 9.34315 344.657 8 343 8C341.343 8 340 9.34315 340 11C340 12.6569 341.343 14 343 14Z" fill="black" fill-opacity="0.1"/>
<path d="M301 56C302.657 56 304 54.6569 304 53C304 51.3431 302.657 50 301 50C299.343 50 298 51.3431 298 53C298 54.6569 299.343 56 301 56Z" fill="black" fill-opacity="0.1"/>
<path d="M385 56C386.657 56 388 54.6569 388 53C388 51.3431 386.657 50 385 50C383.343 50 382 51.3431 382 53C382 54.6569 383.343 56 385 56Z" fill="black" fill-opacity="0.1"/>
<path d="M343 98C344.657 98 346 96.6569 346 95C346 93.3431 344.657 92 343 92C341.343 92 340 93.3431 340 95C340 96.6569 341.343 98 343 98Z" fill="black" fill-opacity="0.1"/>
<path fill-rule="evenodd" clip-rule="evenodd" d="M343 17L345 52H341L343 17Z" fill="#AFB9C5"/>
<path fill-rule="evenodd" clip-rule="evenodd" d="M360.698 70.6984L342.314 55.142L345.142 52.3136L360.698 70.6984Z" fill="#AFB9C5"/>
<path d="M343 57C345.209 57 347 55.2091 347 53C347 50.7909 345.209 49 343 49C340.791 49 339 50.7909 339 53C339 55.2091 340.791 57 343 57Z" fill="#C5CFD6"/>
</svg>
