<svg xmlns="http://www.w3.org/2000/svg" xmlns:xlink="http://www.w3.org/1999/xlink" width="487" height="609" fill="none" xmlns:v="https://vecta.io/nano"><g fill-rule="evenodd"><path d="M321.897 557.89c-1.225 4.149-3.598 8.463-7.858 11.985-9.059 7.488-24.512 8.226-36.117 6.856-12.49-1.474-25.339-4.72-38.518.51-6.058 2.403-11.37 5.634-17.489 7.976-6.538 2.502-13.487 4.27-20.562 5.37-12.995 2.019-27.195 2.165-37.726-2.102-9.273-3.757-15.591-11.373-28.271-11.245-13.228.134-26.846 7.457-38.697 11.675-13.412 4.773-29.529 8.761-43.788 8.162-13.666-.573-25.211-5.842-32.379-12.789-14.324-13.879-15.584-32.553-6.902-50.307 3.687-7.538 8.345-16.02 17.62-21.866 2.867-1.807 5.502-2.639 9.031-3.517 3.164-.786 5.571-2.016 8.237-3.454 5.857-3.157 12.657-5.159 19.661-6.15 27.204-3.844 54.487 4.524 71.487 15.854 4.028 2.684 8.052 4.961 14.594 4.574 6.828-.403 13.805-2.452 20.366-4.223 6.484-1.749 12.882-3.855 19.554-5.05 6.989-1.25 13.6-1.101 20.073-.047 12.16 1.979 24.235-1.467 31.81 4.664 7.296 5.906 10.754 14.443 23.402 15.823 13.404 1.462 28.928 3.235 41.335 7.238 5.137 1.658 9.908 4.389 11.647 8.147 1.667 3.604.644 8.014-.508 11.916z" fill="#f0f8ff"/><path d="M194.738 253.49c4.608-5.409 7.726-12.037 7.205-19.465-1.501-21.4-31.292-16.692-37.086-5.891s-5.107 38.199 2.383 40.129c2.986.77 9.349-1.116 15.825-5.019L179 292h24l-8.262-38.51z" fill="#f0d1b5"/><path d="M178.536 215.685c3.163-.518 11.68-.875 13.251-.875 1.003 0 2.091.229 2.686-.692.486-.755.308-2.031.453-2.907.169-1.018.409-2.022.651-3.024.69-2.85 1.733-5.562 3.192-8.108 2.738-4.777 6.75-8.519 11.814-10.696 5.593-2.404 11.921-2.955 17.937-2.467 6.437.522 12.264 2.647 18.342 4.646 5.792 1.906 11.858 2.656 17.916 1.726 6.103-.938 10.715-4.246 15.863-7.386 5.27-3.214 11.293-5.316 17.524-4.833 5.815.451 11.176 2.853 15.985 6.06 4.499 3.002 8.212 6.613 10.308 11.695 2.255 5.467 2.253 11.468-1.455 16.299-5.375 7.004-15.353 8.815-23.654 8.635-4.802-.104-9.517-.981-14.05-2.575-6.046-2.127-11.27-5.731-16.926-8.655-2.654-1.372-5.398-2.499-8.274-3.311-2.79-.788-5.539-1.15-8.065.536-2.673 1.784-5.068 3.536-8.126 4.652-2.934 1.071-6.041 1.67-9.166 1.646-6.081-.047-12.075-1.942-17.981-3.211-4.815-1.034-9.968-2.066-14.878-1.071-2.049.415-5.042 1.272-5.782 3.401 12.455 2.257 17.346 17.66 13.835 28.967-1.895 6.103-13.286 13.237-17.715 10.029-2.806-2.033-1.102-4.701 0-6.463 2.111-3.373 2.834-7.706-1.073-10.055-3.37-2.026-6.913 2.785-6.98 2.779-.926-.073-8.928-4.598-14.442-11.203-5.439.323-6.265-3.264-4.966-6.197s9.406-6.625 13.776-7.342z" fill="#191847"/></g><path d="M213 549c-42.526 0-77-32.907-77-73.5s34.474-73.5 77-73.5 77 32.907 77 73.5-34.474 73.5-77 73.5z" fill="#c5cfd6"/><g fill-rule="evenodd"><path d="M67.491 537.66c12.813-28.359 22.079-53.052 25.798-66.08 6.368-22.308 11.213-41.937 12.438-49.267 2.92-17.481-22.462-18.499-25.817-9.811-5.078 13.149-13.943 56.351-24.594 121.605l12.175 3.553zm148.621-88.997c-11.756-4.646-52.924-19.188-72.779-23.302l-16.435-3.273c-15.454-2.95-23.461 24.929-8.577 27.071 37.067 5.335 89.616 10.844 94.113 11.462 6.303.867 11.066-9.037 3.678-11.958z" fill="#f0d1b5"/><path d="M117.413 414.416L181 382.047V375h-7.562c-61.518 15.676-92.953 25.722-94.307 30.138a2.85 2.85 0 0 0-.04.143 5.23 5.23 0 0 0-.091.122c-12.192 16.767-19.493 98.624-21.889 104.753l23.362 3.485c8.936-33.138 37.528-56.223 36.769-95.912a13.03 13.03 0 0 0 .172-3.313z" fill="#1f28cf"/><path d="M175.717 433.64l15.76-3.008c29.614-5.194 38.249-21.046 33.143-55.632h-54.562c-8.913 2.56-55.232 21.985-79.265 32.316-15.906 6.838-10.892 31.488-1.884 37.903.049.394.211.661.5.781 48.454 20.083 86.786 9.545 99.591 12.912l5.923-18.684-19.206-6.588z" fill="#2b44ff"/><path d="M212.092 445.694c3.175.303 5.429.78 6.761 1.43 1.621.791 3.854 2.214 6.701 4.271l-24.725 50.694c-4.998-.807-6.978-2.714-5.941-5.722l2.509-7.532.988-28.685a1 1 0 0 1 1.034-.965l.028.001 4.413.278c2.507-2.03 4.161-3.866 4.963-5.509.651-1.335 1.01-3.441 1.079-6.318h0c.027-1.104.944-1.978 2.048-1.952a1.69 1.69 0 0 1 .142.009zm-138.77 86.708c1.119 2.986 1.678 5.221 1.678 6.704 0 1.803-.3 4.434-.901 7.894H17.697c-1.466-4.845-.62-7.461 2.538-7.848l7.87-1.046 26.215-11.687a1 1 0 0 1 1.321.506l.011.026 1.685 4.088c2.923 1.364 5.299 2.046 7.127 2.046 1.485 0 3.536-.6 6.152-1.799v-.001a2 2 0 0 1 2.651.985 1.83 1.83 0 0 1 .055.132z" fill="#ff6b00"/><path d="M119 347.617l-36.235-15.913c-6.347-6.325-12.477-11.132-18.388-14.422-1.768-.563-4.787-.733-1.566 3.973s6.399 9.801 5.112 11.45-5.017-.171-6.49 2.511c-.982 1.788 5.304 3.927 18.859 6.417l27.138 20.806L119 347.617zM265.492 352L245 356.066l33.155 61.064c3.365 5.185.225 14.687-.934 19.691 7.275 1.694 4.406-9.256 13.612-6.97 8.403 2.087 15.528 7.442 23.363.22.963-.888 1.669-3.664-1.616-5.087-8.183-3.547-20.272-10.188-22.232-12.766-2.674-3.516-10.959-23.589-24.856-60.218z" fill="#f0d1b5"/><path d="M189.305 275.332l-8.647-1.483c-18.834 18.27-26.52 62.163-39.072 67.974-11.867 5.493-28.69.177-48.686-7l-6.124 13.682c18.168 19.656 56.875 36.262 72.564 26.782 25.084-15.157 30.874-69.293 29.965-99.955z" fill="#e9680b"/><path d="M227 384h-76.511c-3.497 0-2.838-5.048-2.332-7.596 5.832-29.4 28.602-61.092 28.602-102.943L198.828 270c18.255 29.358 24.567 65.505 28.172 114z" fill="#dde3e9"/><path d="M234.631 354.233c15.598 28.135 28.708 48.39 39.332 60.767L290 411.859C279.669 347.791 249.753 300.504 200.252 270h-3.983-4.755c-19.813 67.537-25.275 112.537-16.386 135H244c-1.09-16.437-4.583-33.819-9.369-50.767h0z" fill="#ff6b00"/><path d="M392.381 265.208c8.833 20.989 23.848 35.573 31.801 57.397 4.716 12.942 6.682 27.015 6.801 41.427l-.108 23.49c-.036 7.634-.243 15.219-.891 22.805-.652 7.625-1.381 15.16-1.702 22.832-.251 5.978-.365 12.932-2.391 18.385-1.612 4.337-5.708 4.972-6.794-.288-.604-2.923-.528-6.188-.461-9.193l.424-11.559c.459-15.468-.137-30.938.175-46.412.304-15.119 2.247-30.221.097-45.239-1.776-12.401-6.286-23.051-11.47-33.26-4.988-9.822-10.417-19.406-13.787-30.579-.968-3.208-1.716-6.533-2.075-9.984.157-.073.284-.014.381.178z" fill="#c1dee2"/><path d="M389.974 306.617c1.749 1.263 2.726 3.111 3.908 4.934l4.669 6.58c3.064 4.729 5.757 9.748 8.551 14.668 5.304 9.338 9.331 19.292 11.325 30.096 2.068 11.197 2.625 22.753 3.492 34.117.92 12.044 1.846 24.176 1.968 36.267.055 5.417.348 11.167-.303 16.546-.405 3.348-1.916 6.202-5.323 6.175-7.236-.058-10.634-8.073-12.053-14.646-2.089-9.68-2.506-19.961-2.175-29.86.399-11.936 2.471-23.692 3.367-35.582.95-12.587.414-24.952-3.914-36.803-2.186-5.989-4.723-11.835-7.002-17.784-.97-2.533-1.765-5.135-3.075-7.494-1.458-2.623-3.267-5.005-4.409-7.831l.974.617z" fill="#89c5cc"/><path d="M473.334 281.518L474 281c-.639 2.693-1.793 4.88-2.676 7.341-.793 2.213-1.195 4.717-1.729 7.136l-3.889 16.963c-2.346 11.337-1.902 23.55-.364 36.128 1.453 11.882 3.75 23.745 4.845 35.624.908 9.851 1.298 20.01.432 29.409-.588 6.383-2.516 14.005-7.771 13.361-2.474-.303-3.764-3.281-4.284-6.642-.835-5.398-1.01-11.074-1.335-16.442-.727-11.982-.871-23.927-1.015-35.786-.136-11.188-.509-22.598.238-33.505.721-10.524 2.976-20.007 6.201-28.757 1.698-4.61 3.317-9.328 5.225-13.722.915-2.107 2.033-3.969 2.949-6.075.736-1.694 1.321-3.432 2.507-4.515zm-81.125 59.784c.957-1.607 3.063 3.691 3.384 4.358l-.409-.993c1.899 3.158 3.637 6.446 4.717 10.067 1.069 3.585 1.987 7.243 2.99 10.853 1.883 6.774 4.311 13.356 6.016 20.191 1.662 6.66 2.081 13.208 1.678 20.097-.418 7.16-.674 14.431-.186 21.587.233 3.418 1.344 6.602 2.105 9.892s1.362 6.632 2.263 9.885c.207-.424.233.993.233 1.1-.006.813-.119 1.494-.381 2.265-.671 1.982-1.928 3.665-3.841 4.212-3.456.987-6.666-2.157-7.78-5.477-1.599-4.764-2.481-10.028-3.243-15.035-.698-4.591-.864-9.21-.656-13.864.409-9.179 2.07-18.238 2.519-27.414.489-9.99-1.49-19.377-3.147-29.101-.798-4.686-1.561-9.327-3.115-13.791-.629-1.808-1.449-3.403-2.308-5.073-.49-.949-1.479-2.643-.839-3.759z" fill="#c1dee2"/><path d="M420.252 325.697c-.396 11.445-1.08 22.803-2.606 34.127l-4.844 34.639c-1.459 11.259-2.987 22.705-2.784 34.122.15 8.408-1.244 22.634 8.095 26.784 9.459 4.203 11.488-13.746 12.109-19.67 1.19-11.366.805-22.852.227-34.28-.593-11.73-1.583-23.399-2.809-35.085-1.363-12.981-2.432-26.02-3.291-39.038-.424-6.439-.529-12.867-.412-19.308.111-6.077-.12-12.218-2.281-17.988l-.338.246" fill="#69a1ac"/><path d="M469.083 361.955l-5.022 7.557c-2.875 4.697-5.474 9.92-6.256 16.635-1.636 14.053-.324 29.232-.007 43.716.065 2.959-.309 5.83.857 8.647 1.058 2.554 3.036 4.5 4.921 4.49 4.035-.023 3.419-9.905 3.426-14.254.012-7.623-.843-15.324-.769-22.94.073-7.546.532-15.112 1.626-22.278 1.108-7.253 2.73-14.219 4.87-20.718.297-.902 2.429-7.873.415-6.671" fill="#89c5cc"/><path d="M451.262 287c-2.653 0-2.637 13.226-2.716 14.925-.289 6.13-.221 12.263-.403 18.394-.399 13.382-.889 26.881-2.9 40.107-1.082 7.121-2.336 14.21-3.686 21.276-1.353 7.087-3.17 14.165-4.06 21.342-.855 6.899-.372 13.933-.255 20.866.117 6.975.328 13.964 1.242 20.878a150.91 150.91 0 0 0 .773 5.103c.235 1.414.098 3.167.497 4.51.639 2.151 3.379 2.855 5.224 2.519 4.992-.911 8.181-7.18 9.887-11.76 2.178-5.849 3.334-12.193 4.474-18.356 1.292-6.983 2.049-14.072 2.404-21.181.723-14.448-.204-28.911-1.239-43.313-.576-8.009-1.241-15.983-2.258-23.943l-3.16-23.766-1.619-17.36c-.096-1.382-.176-10.241-2.205-10.241z" fill="#69a1ac"/><path d="M447.941 383.139c-.433-13.886-6.014-74.88-7.284-91.672-.318-4.203-3.375-21.702-3.772-26.467-1.075 1.347-.984 22.309-.972 27.126.013 4.765-.578 9.45-.882 14.189-.31 4.836-7.459 67.286-8.386 71.932-1.846 9.244-3.081 18.729-4.034 28.181-.928 9.211-2.371 18.93-1.129 28.19.285 2.132.737 4.23 1.473 6.188.794 2.116 1.339 4.073 1.977 6.287 1.026 3.566 2.883 6.696 5.736 8.169 5.849 3.019 8.99-3.815 10.583-9.765 2.542-9.502 4.175-19.159 4.94-29.138.846-11.041 2.096-22.104 1.75-33.22z" fill="#89c5cc"/></g><path d="M475 424h-87a2 2 0 0 0-2 2v87a2 2 0 0 0 2 2h87a2 2 0 0 0 2-2v-87a2 2 0 0 0-2-2z" fill="#faf9f9"/><g fill="#c5cfd6"><use xlink:href="#B"/><use xlink:href="#B" x="50"/><use xlink:href="#B" x="101"/></g><path d="M343 106c29.271 0 53-23.729 53-53S372.271 0 343 0s-53 23.729-53 53 23.729 53 53 53z" fill="#f2f2f2"/><path d="M343 14a3 3 0 1 0 0-6 3 3 0 1 0 0 6zm-42 42a3 3 0 1 0 0-6 3 3 0 1 0 0 6zm84 0a3 3 0 1 0 0-6 3 3 0 1 0 0 6zm-42 42a3 3 0 1 0 0-6 3 3 0 1 0 0 6z" fill-opacity=".1" fill="#000"/><path d="M343 17l2 35h-4l2-35zm17.698 53.698l-18.384-15.556 2.828-2.828 15.556 18.385z" fill-rule="evenodd" fill="#afb9c5"/><path d="M343 57a4 4 0 1 0 0-8 4 4 0 1 0 0 8z" fill="#c5cfd6"/><defs ><path id="B" d="M384 434h-6a2 2 0 0 0-2 2v109a2 2 0 0 0 2 2h6a2 2 0 0 0 2-2V436a2 2 0 0 0-2-2z"/></defs></svg>