<svg xmlns="http://www.w3.org/2000/svg" width="22" height="22" fill="#43484c" xmlns:v="https://vecta.io/nano"><path d="M15.929 0H6.071A6.08 6.08 0 0 0 0 6.071v9.858A6.08 6.08 0 0 0 6.071 22h9.858A6.08 6.08 0 0 0 22 15.929V6.071A6.08 6.08 0 0 0 15.929 0zm4.12 15.929c0 2.271-1.848 4.119-4.119 4.119H6.071c-2.271 0-4.119-1.848-4.119-4.119V6.071c0-2.271 1.848-4.119 4.119-4.119h9.858c2.271 0 4.119 1.848 4.119 4.119v9.858h0zM11 5.331c-3.126 0-5.669 2.543-5.669 5.669S7.874 16.669 11 16.669s5.669-2.543 5.669-5.669S14.126 5.331 11 5.331zm0 9.385A3.72 3.72 0 0 1 7.283 11 3.72 3.72 0 0 1 11 7.283 3.72 3.72 0 0 1 14.717 11 3.72 3.72 0 0 1 11 14.717zm5.907-11.04c-.376 0-.746.152-1.011.419a1.44 1.44 0 0 0-.42 1.012c0 .376.154.746.42 1.012a1.44 1.44 0 0 0 1.011.419c.377 0 .746-.154 1.012-.419a1.44 1.44 0 0 0 .419-1.012 1.44 1.44 0 0 0-1.431-1.431z"/></svg>