<svg width="640" height="410" viewBox="0 0 640 410" fill="none" xmlns="http://www.w3.org/2000/svg">
<g opacity="0.03">
<path opacity="0.03" d="M609.324 210.264L351.651 397.534L18.1263 239.351L327.669 43.7703L609.324 210.264Z" fill="black"/>
</g>
<path d="M233.412 91.142C241.778 83.1083 260.183 80.615 273.847 86.1556C284.723 90.588 289.185 100.007 283.05 106.933C279.704 110.811 273.848 113.581 267.434 114.966C264.366 115.52 264.087 118.014 266.876 118.845L322.37 137.683L355.277 105.547C357.508 103.608 362.806 103.885 364.2 106.101C366.431 109.703 370.893 113.027 377.586 114.966C390.135 118.568 405.473 116.351 413.002 109.426C421.089 101.946 416.906 92.2502 403.8 87.8177C397.943 85.8785 391.251 85.3245 385.116 85.8785C380.932 86.4326 377.865 83.6623 380.096 81.7231L412.723 49.588L270.222 1.10827C264.087 -1.10794 256 0.277191 252.375 3.60151L168.715 85.0475L224.209 103.885C226.998 104.716 230.344 103.608 230.065 101.669C228.671 98.3447 229.786 94.4664 233.412 91.142Z" fill="url(#paint0_linear)"/>
<path d="M384.837 85.8786C390.972 85.3246 397.665 85.8786 403.521 87.8178C406.031 88.6489 407.983 89.757 409.656 90.8651L412.445 88.0948V49.5881L379.538 81.7232C377.586 83.6624 380.933 86.4327 384.837 85.8786Z" fill="url(#paint1_linear)"/>
<path d="M416.907 103.054C416.349 105.27 415.234 107.487 413.003 109.426C405.473 116.074 390.136 118.568 377.587 114.966C370.894 113.027 366.432 109.703 364.201 106.101C362.807 103.885 357.508 103.608 355.277 105.547L322.371 137.683L266.876 118.845C264.088 118.014 264.367 115.52 267.434 114.966C273.848 113.581 279.704 110.811 283.051 106.933C289.186 100.007 284.724 90.588 273.848 86.1555C260.184 80.615 241.499 83.1082 233.412 91.142C230.066 94.4663 228.95 98.3447 229.787 101.946C230.345 103.885 226.719 104.993 223.931 104.162L168.436 85.3244V123.831L223.931 142.669C226.719 143.5 230.066 142.392 229.787 140.453C228.672 136.851 229.787 132.973 233.412 129.649C240.105 123.277 253.212 120.507 265.203 122.446V154.858C264.924 155.689 265.482 156.797 266.876 157.351L322.371 176.189L355.277 144.054C357.508 142.115 362.807 142.392 364.201 144.608C366.432 148.21 370.894 151.534 377.587 153.473C390.136 157.074 405.473 154.858 413.003 147.933C416.349 144.885 417.743 141.284 416.907 137.96V103.054Z" fill="url(#paint2_linear)"/>
<path d="M360.296 142.669V104.162C358.344 103.885 356.392 104.439 355.276 105.548L322.37 137.683V176.189L355.276 144.054C356.392 142.946 358.623 142.392 360.296 142.669Z" fill="url(#paint3_linear)"/>
<path d="M266.876 118.568C264.088 117.736 264.367 115.243 267.434 114.689C273.848 113.304 279.704 110.534 283.051 106.655C289.186 99.7297 284.724 90.3108 273.848 85.8784C260.184 80.3378 241.499 82.8311 233.412 90.8648C230.066 94.1892 228.95 98.0676 229.787 101.669C230.345 103.608 226.72 104.716 223.931 103.885L168.436 85.0473V123.554L223.931 142.392C226.72 143.223 230.066 142.115 229.787 140.176C228.672 136.574 229.787 132.696 233.412 129.372C240.105 123 253.212 120.23 265.203 122.169V154.581C264.924 155.412 265.482 156.52 266.876 157.074L322.371 175.912V137.682L266.876 118.568Z" fill="#999999"/>
<path d="M416.908 137.959V103.054C416.35 105.27 415.235 107.486 413.004 109.426C405.475 116.074 390.137 118.567 377.588 114.966C370.895 113.027 366.433 109.703 364.202 106.101C363.366 104.439 360.019 103.885 357.51 104.439C358.346 104.162 359.183 104.162 360.298 104.162V142.669C361.971 142.946 363.645 143.5 364.202 144.608C366.433 148.209 370.895 151.534 377.588 153.473C390.137 157.074 405.475 154.858 413.004 147.932C416.35 144.885 417.466 141.284 416.908 137.959Z" fill="#999999"/>
<path d="M356.392 104.716C356.113 104.993 355.556 104.993 355.556 105.27C355.556 105.27 356.113 104.993 356.392 104.716Z" fill="#999999"/>
<path d="M357.509 104.439C357.23 104.439 356.951 104.716 356.393 104.716C356.951 104.439 357.23 104.439 357.509 104.439Z" fill="#999999"/>
<path d="M220.027 102.777L168.436 85.3243L220.027 102.777Z" fill="url(#paint4_linear)"/>
<path d="M223.931 142.669L220.027 141.284L223.931 142.669C224.21 142.669 224.767 142.946 225.046 142.946C224.767 142.946 224.489 142.669 223.931 142.669Z" fill="url(#paint5_linear)"/>
<path d="M228.394 142.392C228.115 142.669 228.115 142.669 228.394 142.392V142.392Z" fill="url(#paint6_linear)"/>
<path d="M264.925 117.182C264.646 116.074 265.483 115.243 267.435 114.689C273.849 113.304 279.705 110.534 283.051 106.655C289.186 99.7297 284.725 90.3108 273.849 85.8784C260.184 80.3378 241.5 82.8311 233.413 90.8648C230.067 94.1892 228.951 98.0675 229.788 101.669C230.067 102.5 229.23 103.331 228.115 103.885V142.392C228.393 142.115 230.067 141.284 229.788 140.453C228.672 136.851 229.788 132.973 233.413 129.649C240.106 123.277 253.213 120.507 265.204 122.169V117.182H264.925Z" fill="url(#paint7_linear)"/>
<path d="M379.539 82.8311C379.817 82.5541 379.817 82.5541 379.539 82.8311L412.724 50.4189L410.772 49.8649L379.817 80.0608C378.981 80.8919 378.981 82 379.539 82.8311Z" fill="#B3B3B3"/>
<path d="M413.003 107.763C405.473 114.412 390.136 116.905 377.587 113.304C370.894 111.365 366.432 108.04 364.201 104.439C362.807 102.223 357.508 101.946 355.277 103.885L322.371 135.743L266.876 116.905C266.319 116.628 266.04 116.628 265.761 116.351C264.646 117.459 264.924 118.844 266.876 119.676L322.371 138.513L355.277 106.378C357.508 104.439 362.807 104.716 364.201 106.932C366.432 110.534 370.894 113.858 377.587 115.797C390.136 119.399 405.473 117.182 413.003 110.257C416.349 107.209 417.465 103.885 416.907 100.838C416.628 103.331 415.234 105.547 413.003 107.763Z" fill="#B3B3B3"/>
<path d="M229.508 101.392C228.672 102.5 226.162 103.054 223.931 102.223L170.388 83.9393L168.436 85.8785L223.931 104.716C226.72 105.547 230.066 104.439 229.787 102.5C229.787 102.223 229.508 101.946 229.508 101.392Z" fill="#B3B3B3"/>
<path d="M285.56 99.4526C286.397 93.635 281.935 87.5404 273.569 84.2161C259.905 78.6755 241.22 81.1688 233.133 89.2026C230.066 92.2498 228.95 95.5742 229.229 98.6215C229.508 96.1282 230.902 93.912 233.133 91.6958C241.499 83.662 259.905 81.1688 273.569 86.7093C280.82 89.7566 285.003 94.4661 285.56 99.4526Z" fill="#B3B3B3"/>
<path d="M175.964 208.324C164.531 201.676 164.81 190.872 177.359 184.5C187.398 179.513 204.409 179.513 214.448 184.777C220.025 187.547 223.372 191.426 223.929 195.304C224.208 197.243 228.112 198.074 230.622 196.689L276.078 170.649L229.786 144.054C226.718 142.392 228.67 139.344 232.853 139.344C239.546 139.067 246.239 137.405 251.258 134.358C260.461 128.54 260.182 119.122 250.701 113.304C240.104 106.932 222.535 106.655 211.938 113.027C207.197 115.797 204.409 119.399 204.13 123C203.851 125.493 198.831 126.601 195.764 124.662L149.472 98.0674L32.6266 165.108C27.607 168.155 27.607 172.865 32.6266 175.635L150.03 242.953L195.485 216.912C197.716 215.527 196.322 213.311 193.254 213.034C186.84 212.757 180.705 211.094 175.964 208.324Z" fill="url(#paint8_linear)"/>
<path d="M251.26 134.358C246.24 137.406 239.547 139.345 232.855 139.345C228.672 139.622 226.72 142.392 229.787 144.054L257.953 160.122V125.493C257.395 128.818 255.164 131.865 251.26 134.358Z" fill="url(#paint9_linear)"/>
<path d="M230.623 196.689C228.392 198.074 224.209 197.243 223.93 195.304C223.373 191.426 220.026 187.547 214.449 184.777C204.41 179.791 187.399 179.514 177.36 184.5C164.811 190.595 164.532 201.676 175.965 208.324C180.706 211.095 187.12 212.757 193.255 213.034C195.207 213.034 196.601 214.142 196.601 214.973V219.128C203.015 219.128 209.429 220.514 214.17 223.007C219.747 225.777 223.094 229.656 223.652 233.534C223.93 235.473 227.835 236.304 230.344 234.919L273.848 209.987L275.8 209.71V170.649L230.623 196.689Z" fill="url(#paint10_linear)"/>
<path d="M32.9057 175.635C30.3959 174.25 29.0015 172.311 29.0015 170.372V208.047C28.7227 210.263 29.8381 212.48 32.9057 214.142L150.309 281.459V242.953L32.9057 175.635Z" fill="url(#paint11_linear)"/>
<path d="M195.484 216.912L150.029 242.953V281.459L195.484 255.419C196.321 255.142 196.599 254.588 196.599 254.034V253.757V219.405V215.25C196.599 215.804 196.321 216.358 195.484 216.912Z" fill="url(#paint12_linear)"/>
<path d="M195.484 216.912L150.029 242.953V281.459L195.484 255.419C196.321 255.142 196.599 254.588 196.599 254.034V253.757V219.405V215.25C196.599 215.804 196.321 216.358 195.484 216.912Z" fill="url(#paint13_linear)"/>
<g style="mix-blend-mode:darken">
<path d="M195.208 215.25L150.032 241.291L32.9075 173.973C31.2343 172.865 29.84 171.757 29.2823 170.372C28.1668 172.865 29.5611 175.635 32.9075 177.297L150.311 244.615L195.766 218.574C197.16 217.743 196.881 216.081 195.208 215.25Z" fill="white"/>
</g>
<path d="M251.26 132.696C246.24 135.743 239.547 137.682 232.855 137.682C228.95 137.96 226.998 140.453 229.229 142.115C230.066 141.561 231.181 141.007 232.855 141.007C239.547 140.73 246.24 139.068 251.26 136.02C256.558 132.696 258.789 128.264 257.953 124.108C257.395 127.155 255.164 130.203 251.26 132.696Z" fill="#FF6B00"/>
<path d="M230.624 195.027C228.393 196.412 224.21 195.581 223.931 193.642C223.373 189.763 220.027 185.885 214.449 183.115C204.41 178.128 187.399 177.851 177.36 182.838C170.109 186.439 166.763 191.703 167.878 196.689C168.715 192.811 171.783 188.932 177.36 186.162C187.399 181.176 204.41 181.176 214.449 186.439C220.027 189.209 223.373 193.088 223.931 196.966C224.21 198.905 228.114 199.736 230.624 198.351L276.079 172.588L273.011 170.926L230.624 195.027Z" fill="#FF6B00"/>
<path d="M440.331 128.541C451.765 135.189 451.486 145.993 438.937 152.365C428.897 157.351 411.887 157.351 401.847 152.088C396.27 149.318 392.924 145.439 392.366 141.561C392.087 139.622 388.183 138.791 385.673 140.176L340.218 166.216L386.51 192.811C389.577 194.473 387.625 197.52 383.442 197.52C376.749 197.797 370.057 199.459 365.037 202.507C355.834 208.324 356.113 217.743 365.595 223.561C376.192 229.932 393.76 230.209 404.357 223.838C409.098 221.068 411.887 217.466 412.165 213.865C412.444 211.372 417.464 210.264 420.531 212.203L466.823 238.797L583.39 172.034C588.409 168.986 588.409 164.277 583.39 161.507L465.987 94.1892L420.531 120.23C418.301 121.615 419.695 123.831 422.762 124.108C429.176 124.385 435.311 125.77 440.331 128.541Z" fill="url(#paint14_linear)"/>
<path d="M440.331 128.541C451.765 135.189 451.486 145.993 438.937 152.365C428.897 157.351 411.887 157.351 401.847 152.088C396.27 149.318 392.924 145.439 392.366 141.561C392.087 139.622 388.183 138.791 385.673 140.176L340.218 166.216L386.51 192.811C389.577 194.473 387.625 197.52 383.442 197.52C376.749 197.797 370.057 199.459 365.037 202.507C355.834 208.324 356.113 217.743 365.595 223.561C376.192 229.932 393.76 230.209 404.357 223.838C409.098 221.068 411.887 217.466 412.165 213.865C412.444 211.372 417.464 210.264 420.531 212.203L466.823 238.797L583.39 172.034C588.409 168.986 588.409 164.277 583.39 161.507L465.987 94.1892L420.531 120.23C418.301 121.615 419.695 123.831 422.762 124.108C429.176 124.385 435.311 125.77 440.331 128.541Z" fill="url(#paint15_linear)"/>
<path d="M438.936 152.365C451.485 146.27 451.764 135.189 440.331 128.54C435.59 125.77 429.176 124.108 423.041 123.831C421.089 123.831 419.695 122.723 419.695 121.615V155.966C426.387 156.243 433.638 155.135 438.936 152.365Z" fill="url(#paint16_linear)"/>
<path d="M587.295 205V166.493C587.295 168.433 586.179 170.372 583.391 172.034L466.824 238.797V277.304L583.391 210.541C585.9 209.156 587.295 206.939 587.295 205Z" fill="url(#paint17_linear)"/>
<path d="M587.295 205V166.493C587.295 168.433 586.179 170.372 583.391 172.034L466.824 238.797V277.304L583.391 210.541C585.9 209.156 587.295 206.939 587.295 205Z" fill="url(#paint18_linear)"/>
<path d="M364.758 202.784C369.778 199.737 376.47 197.797 383.163 197.797C387.346 197.52 389.298 194.75 386.231 193.088L340.218 166.216V204.723L358.344 214.973H358.623C357.229 210.818 359.46 206.108 364.758 202.784Z" fill="url(#paint19_linear)"/>
<path d="M420.532 212.48C419.138 211.649 417.185 211.372 415.233 211.926V250.433C416.907 250.155 418.859 250.155 420.532 250.987L466.824 277.581V238.797L420.532 212.48Z" fill="url(#paint20_linear)"/>
<path d="M412.166 214.142C411.887 217.743 409.098 221.344 404.357 224.115C393.76 230.209 376.192 230.209 365.595 223.838C361.412 221.344 359.181 218.297 358.344 215.25H358.065V250.986C357.786 255.142 360.296 259.297 365.316 262.344C375.913 268.716 393.481 268.993 404.078 262.621C408.819 259.851 411.608 256.25 411.887 252.648C411.887 251.54 413.281 250.432 415.233 250.155V211.648C413.56 212.203 412.166 213.034 412.166 214.142Z" fill="url(#paint21_linear)"/>
<path d="M412.166 214.142C411.887 217.743 409.098 221.344 404.357 224.115C393.76 230.209 376.192 230.209 365.595 223.838C361.412 221.344 359.181 218.297 358.344 215.25H358.065V250.986C357.786 255.142 360.296 259.297 365.316 262.344C375.913 268.716 393.481 268.993 404.078 262.621C408.819 259.851 411.608 256.25 411.887 252.648C411.887 251.54 413.281 250.432 415.233 250.155V211.648C413.56 212.203 412.166 213.034 412.166 214.142Z" fill="url(#paint22_linear)"/>
<path d="M386.789 194.75C388.183 193.642 388.183 191.98 386.231 191.149L343.007 166.216L339.939 167.878L386.231 194.473C386.51 194.473 386.789 194.75 386.789 194.75Z" fill="#FF6B00"/>
<path d="M422.764 125.77C429.178 126.047 435.313 127.709 440.054 130.48C444.794 133.25 447.583 136.851 448.141 140.453C448.977 135.743 446.189 130.757 440.054 127.155C435.313 124.385 428.899 122.723 422.764 122.446C421.927 122.446 421.369 122.169 420.812 121.892L420.533 122.169C418.302 123.277 419.696 125.493 422.764 125.77Z" fill="#FF6B00"/>
<path d="M420.531 210.818C417.464 209.155 412.444 210.263 412.165 212.48C411.886 216.081 409.097 219.682 404.357 222.453C393.76 228.547 376.191 228.547 365.594 222.176C361.411 219.682 358.901 216.358 358.344 213.311C357.507 217.743 360.017 222.176 365.594 225.777C376.191 232.149 393.76 232.426 404.357 226.054C409.097 223.284 411.886 219.682 412.165 216.081C412.444 213.588 417.464 212.48 420.531 214.419L466.544 240.736V237.412L420.531 210.818Z" fill="#FF6B00"/>
<path d="M583.391 173.696C586.737 171.757 587.853 169.264 586.737 166.77C586.18 168.155 585.064 169.264 583.391 170.372L466.825 237.135L466.546 236.858V240.182L466.825 240.459L583.391 173.696Z" fill="#FF6B00"/>
<path d="M377.585 247.662C368.662 255.419 349.699 257.081 336.592 251.263C325.995 246.554 322.649 236.858 329.341 230.209C333.245 226.331 339.102 223.838 345.794 222.73C348.862 222.176 349.42 219.682 346.91 218.851L293.367 198.074L257.115 229.101C254.884 231.04 249.306 230.486 248.191 228.27C246.518 224.392 242.056 221.068 235.642 218.851C223.651 214.696 207.755 216.635 199.947 223.007C191.023 230.209 194.37 240.182 206.919 244.892C212.496 247.108 219.189 247.939 225.603 247.385C229.786 247.108 232.574 249.878 230.344 251.818L194.091 282.845L331.851 336.034C337.986 338.25 346.073 337.419 349.978 334.095L441.725 255.419L388.182 234.642C385.394 233.534 381.768 234.919 382.326 236.581C382.884 240.736 381.489 244.338 377.585 247.662Z" fill="url(#paint23_linear)"/>
<path d="M349.978 334.372C346.073 337.696 337.707 338.804 331.851 336.311L194.091 283.122V321.628L331.851 374.818C337.986 377.034 346.073 376.203 349.978 372.878L441.725 294.203V255.696L349.978 334.372Z" fill="url(#paint24_linear)"/>
<path d="M225.602 247.939C219.188 248.493 212.774 247.662 206.918 245.446C199.668 242.675 195.485 238.243 194.927 233.811V270.101C194.648 273.425 196.042 276.473 198.831 279.243L230.064 252.371C232.574 250.155 229.785 247.662 225.602 247.939Z" fill="url(#paint25_linear)"/>
<path d="M345.794 223.007C339.101 224.115 333.245 226.608 329.341 230.486C322.648 237.135 325.995 246.831 336.591 251.541C340.217 253.203 344.121 254.034 348.304 254.588V221.622C348.025 222.176 347.188 222.73 345.794 223.007Z" fill="url(#paint26_linear)"/>
<path d="M329.62 228.824C326.831 231.594 325.716 234.919 326.273 238.243C326.552 236.027 327.668 234.088 329.62 232.149C333.524 228.27 339.38 225.777 346.073 224.669C349.14 224.115 349.698 221.899 347.467 220.79C347.188 221.067 346.631 221.067 346.073 221.067C339.101 222.453 333.245 224.946 329.62 228.824Z" fill="#FF6B00"/>
<path d="M207.197 247.108C212.774 249.324 219.467 250.155 225.881 249.601C227.833 249.324 229.506 249.878 230.343 250.71L230.621 250.432C232.852 248.493 230.064 245.723 225.881 246C219.467 246.554 213.053 245.723 207.197 243.507C200.225 240.737 196.042 236.581 195.205 232.149C194.09 237.966 198.273 243.784 207.197 247.108Z" fill="#FF6B00"/>
<path d="M349.978 332.709C346.073 336.034 337.707 337.142 331.851 334.649L196.879 282.568L194.091 285.061L331.851 337.973C337.986 340.189 346.073 339.358 349.978 336.034L441.725 257.358L438.936 256.25L349.978 332.709Z" fill="#FF6B00"/>
<path d="M339.66 410C338.266 410 336.872 409.723 335.477 409.169L193.813 354.595L194.371 352.932L335.756 407.784C339.103 409.169 342.728 408.338 345.517 406.122L440.889 325.507L442.005 326.892L346.632 407.507C344.68 409.169 342.17 410 339.66 410Z" fill="url(#paint27_linear)"/>
<path d="M149.752 313.872L0 227.993L0.836601 226.608L150.588 312.487L149.752 313.872Z" fill="url(#paint28_linear)"/>
<path d="M467.101 312.21L466.264 310.547L639.162 209.987L639.999 211.649L467.101 312.21Z" fill="url(#paint29_linear)"/>
<defs>
<linearGradient id="paint0_linear" x1="441.777" y1="-187.665" x2="285.543" y2="112.062" gradientUnits="userSpaceOnUse">
<stop stop-color="#EDEDED"/>
<stop offset="0.3103" stop-color="#CBCBCB"/>
<stop offset="0.6946" stop-color="#DADADA"/>
<stop offset="1" stop-color="#EBEBEB"/>
</linearGradient>
<linearGradient id="paint1_linear" x1="332.95" y1="112.34" x2="598.605" y2="-32.3202" gradientUnits="userSpaceOnUse">
<stop stop-color="#B3B3B3"/>
<stop offset="0.2038" stop-color="#CCCCCC"/>
<stop offset="0.3938" stop-color="#D7D7D7"/>
<stop offset="0.5202" stop-color="#E3E3E3"/>
<stop offset="0.8152" stop-color="#F3F3F3"/>
<stop offset="1" stop-color="white"/>
</linearGradient>
<linearGradient id="paint2_linear" x1="315.855" y1="141.735" x2="426.226" y2="278.477" gradientUnits="userSpaceOnUse">
<stop offset="0.0353535" stop-color="#A3A3A3"/>
<stop offset="0.2945" stop-color="#7733DC"/>
<stop offset="0.7943" stop-color="#975CED"/>
<stop offset="1" stop-color="#A56EF4"/>
</linearGradient>
<linearGradient id="paint3_linear" x1="346.243" y1="136.753" x2="611.898" y2="-7.90717" gradientUnits="userSpaceOnUse">
<stop stop-color="#B3B3B3"/>
<stop offset="0.2038" stop-color="#CCCCCC"/>
<stop offset="0.3938" stop-color="#D7D7D7"/>
<stop offset="0.5202" stop-color="#E3E3E3"/>
<stop offset="0.8152" stop-color="#F3F3F3"/>
<stop offset="1" stop-color="white"/>
</linearGradient>
<linearGradient id="paint4_linear" x1="121.605" y1="110.148" x2="269.998" y2="76.6617" gradientUnits="userSpaceOnUse">
<stop stop-color="#B3B3B3"/>
<stop offset="0.2038" stop-color="#CCCCCC"/>
<stop offset="0.3938" stop-color="#D7D7D7"/>
<stop offset="0.5202" stop-color="#E3E3E3"/>
<stop offset="0.8152" stop-color="#F3F3F3"/>
<stop offset="1" stop-color="white"/>
</linearGradient>
<linearGradient id="paint5_linear" x1="215.329" y1="143.681" x2="230.161" y2="140.334" gradientUnits="userSpaceOnUse">
<stop stop-color="#B3B3B3"/>
<stop offset="0.2038" stop-color="#CCCCCC"/>
<stop offset="0.3938" stop-color="#D7D7D7"/>
<stop offset="0.5202" stop-color="#E3E3E3"/>
<stop offset="0.8152" stop-color="#F3F3F3"/>
<stop offset="1" stop-color="white"/>
</linearGradient>
<linearGradient id="paint6_linear" x1="228.111" y1="142.553" x2="228.367" y2="142.495" gradientUnits="userSpaceOnUse">
<stop stop-color="#B3B3B3"/>
<stop offset="0.2038" stop-color="#CCCCCC"/>
<stop offset="0.3938" stop-color="#D7D7D7"/>
<stop offset="0.5202" stop-color="#E3E3E3"/>
<stop offset="0.8152" stop-color="#F3F3F3"/>
<stop offset="1" stop-color="white"/>
</linearGradient>
<linearGradient id="paint7_linear" x1="231.719" y1="112.838" x2="283.897" y2="112.838" gradientUnits="userSpaceOnUse">
<stop stop-color="#B3B3B3"/>
<stop offset="0.2038" stop-color="#CCCCCC"/>
<stop offset="0.3938" stop-color="#D7D7D7"/>
<stop offset="0.5202" stop-color="#E3E3E3"/>
<stop offset="0.8152" stop-color="#F3F3F3"/>
<stop offset="1" stop-color="white"/>
</linearGradient>
<linearGradient id="paint8_linear" x1="313.92" y1="-135.729" x2="139.365" y2="199.146" gradientUnits="userSpaceOnUse">
<stop offset="0.00615385" stop-color="#FF6B00"/>
<stop offset="1" stop-color="#FF8730"/>
</linearGradient>
<linearGradient id="paint9_linear" x1="237.756" y1="148.979" x2="298.755" y2="130.592" gradientUnits="userSpaceOnUse">
<stop stop-color="#FF6B00"/>
<stop offset="0.1052" stop-color="#FF740F"/>
<stop offset="0.2727" stop-color="#FF8730"/>
<stop offset="0.7525" stop-color="#DE5D00"/>
<stop offset="0.8939" stop-color="#FF7B1C"/>
<stop offset="1" stop-color="#FF6B00"/>
</linearGradient>
<linearGradient id="paint10_linear" x1="167.975" y1="203.363" x2="276.703" y2="203.363" gradientUnits="userSpaceOnUse">
<stop stop-color="#FF6B00"/>
<stop offset="0.1052" stop-color="#FF740F"/>
<stop offset="0.2727" stop-color="#FF8730"/>
<stop offset="0.7525" stop-color="#DE5D00"/>
<stop offset="0.8939" stop-color="#FF7B1C"/>
<stop offset="1" stop-color="#FF6B00"/>
</linearGradient>
<linearGradient id="paint11_linear" x1="-83.8122" y1="264.538" x2="270.253" y2="184.64" gradientUnits="userSpaceOnUse">
<stop stop-color="#FF6B00"/>
<stop offset="0.1052" stop-color="#FF740F"/>
<stop offset="0.2727" stop-color="#FF8730"/>
<stop offset="0.7525" stop-color="#DE5D00"/>
<stop offset="0.8939" stop-color="#FF7B1C"/>
<stop offset="1" stop-color="#FF6B00"/>
</linearGradient>
<linearGradient id="paint12_linear" x1="159.768" y1="227.965" x2="216.809" y2="314.321" gradientUnits="userSpaceOnUse">
<stop stop-color="#FF6B00"/>
<stop offset="0.1052" stop-color="#FF740F"/>
<stop offset="0.2727" stop-color="#FF8730"/>
<stop offset="0.7525" stop-color="#DE5D00"/>
<stop offset="0.8939" stop-color="#FF7B1C"/>
<stop offset="1" stop-color="#FF6B00"/>
</linearGradient>
<linearGradient id="paint13_linear" x1="180.62" y1="259.119" x2="203.782" y2="294.184" gradientUnits="userSpaceOnUse">
<stop stop-color="#FF6B00"/>
<stop offset="0.1052" stop-color="#FF740F"/>
<stop offset="0.2727" stop-color="#FF8730"/>
<stop offset="0.7525" stop-color="#DE5D00"/>
<stop offset="0.8939" stop-color="#FF7B1C"/>
<stop offset="1" stop-color="#FF6B00"/>
</linearGradient>
<linearGradient id="paint14_linear" x1="340.137" y1="166.514" x2="587.186" y2="166.514" gradientUnits="userSpaceOnUse">
<stop offset="0.0353535" stop-color="#9F19AB"/>
<stop offset="0.2438" stop-color="#AE25B1"/>
<stop offset="0.6455" stop-color="#D744BF"/>
<stop offset="1" stop-color="#FF63CE"/>
</linearGradient>
<linearGradient id="paint15_linear" x1="611.163" y1="-112.175" x2="436.608" y2="222.701" gradientUnits="userSpaceOnUse">
<stop offset="0.00615385" stop-color="#FF6B00"/>
<stop offset="1" stop-color="#FF8730"/>
</linearGradient>
<linearGradient id="paint16_linear" x1="467.522" y1="138.963" x2="409.319" y2="138.963" gradientUnits="userSpaceOnUse">
<stop stop-color="#FF6B00"/>
<stop offset="0.1052" stop-color="#FF740F"/>
<stop offset="0.2727" stop-color="#FF8730"/>
<stop offset="0.7525" stop-color="#DE5D00"/>
<stop offset="0.8939" stop-color="#FF7B1C"/>
<stop offset="1" stop-color="#FF6B00"/>
</linearGradient>
<linearGradient id="paint17_linear" x1="511.831" y1="190.674" x2="556.712" y2="284.463" gradientUnits="userSpaceOnUse">
<stop stop-color="#FF6B00"/>
<stop offset="0.1052" stop-color="#FF740F"/>
<stop offset="0.2727" stop-color="#FF8730"/>
<stop offset="0.7525" stop-color="#DE5D00"/>
<stop offset="0.8939" stop-color="#FF7B1C"/>
<stop offset="1" stop-color="#FF6B00"/>
</linearGradient>
<linearGradient id="paint18_linear" x1="486.933" y1="233.906" x2="757.697" y2="152.291" gradientUnits="userSpaceOnUse">
<stop stop-color="#FF6B00"/>
<stop offset="0.1052" stop-color="#FF740F"/>
<stop offset="0.2727" stop-color="#FF8730"/>
<stop offset="0.7525" stop-color="#DE5D00"/>
<stop offset="0.8939" stop-color="#FF7B1C"/>
<stop offset="1" stop-color="#FF6B00"/>
</linearGradient>
<linearGradient id="paint19_linear" x1="285.114" y1="204.955" x2="440.819" y2="169.819" gradientUnits="userSpaceOnUse">
<stop stop-color="#FF6B00"/>
<stop offset="0.1052" stop-color="#FF740F"/>
<stop offset="0.2727" stop-color="#FF8730"/>
<stop offset="0.7525" stop-color="#DE5D00"/>
<stop offset="0.8939" stop-color="#FF7B1C"/>
<stop offset="1" stop-color="#FF6B00"/>
</linearGradient>
<linearGradient id="paint20_linear" x1="398.914" y1="253.975" x2="492.866" y2="232.774" gradientUnits="userSpaceOnUse">
<stop stop-color="#FF6B00"/>
<stop offset="0.1052" stop-color="#FF740F"/>
<stop offset="0.2727" stop-color="#FF8730"/>
<stop offset="0.7525" stop-color="#DE5D00"/>
<stop offset="0.8939" stop-color="#FF7B1C"/>
<stop offset="1" stop-color="#FF6B00"/>
</linearGradient>
<linearGradient id="paint21_linear" x1="393.762" y1="247.173" x2="438.643" y2="340.962" gradientUnits="userSpaceOnUse">
<stop offset="0.0353535" stop-color="#9F19AB"/>
<stop offset="0.2438" stop-color="#AE25B1"/>
<stop offset="0.6455" stop-color="#D744BF"/>
<stop offset="1" stop-color="#FF63CE"/>
</linearGradient>
<linearGradient id="paint22_linear" x1="422.515" y1="239.452" x2="356.394" y2="239.452" gradientUnits="userSpaceOnUse">
<stop stop-color="#FF6B00"/>
<stop offset="0.1052" stop-color="#FF740F"/>
<stop offset="0.2727" stop-color="#FF8730"/>
<stop offset="0.7525" stop-color="#DE5D00"/>
<stop offset="0.8939" stop-color="#FF7B1C"/>
<stop offset="1" stop-color="#FF6B00"/>
</linearGradient>
<linearGradient id="paint23_linear" x1="440.133" y1="12.4633" x2="290.058" y2="300.375" gradientUnits="userSpaceOnUse">
<stop offset="0.00615385" stop-color="#FF6B00"/>
<stop offset="1" stop-color="#FF8730"/>
</linearGradient>
<linearGradient id="paint24_linear" x1="194.533" y1="315.967" x2="442.108" y2="315.967" gradientUnits="userSpaceOnUse">
<stop stop-color="#FF6B00"/>
<stop offset="0.1052" stop-color="#FF740F"/>
<stop offset="0.2727" stop-color="#FF8730"/>
<stop offset="0.7525" stop-color="#DE5D00"/>
<stop offset="0.8939" stop-color="#FF7B1C"/>
<stop offset="1" stop-color="#FF6B00"/>
</linearGradient>
<linearGradient id="paint25_linear" x1="148.818" y1="267.093" x2="276.489" y2="238.283" gradientUnits="userSpaceOnUse">
<stop stop-color="#FF6B00"/>
<stop offset="0.1052" stop-color="#FF740F"/>
<stop offset="0.2727" stop-color="#FF8730"/>
<stop offset="0.7525" stop-color="#DE5D00"/>
<stop offset="0.8939" stop-color="#FF7B1C"/>
<stop offset="1" stop-color="#FF6B00"/>
</linearGradient>
<linearGradient id="paint26_linear" x1="349.009" y1="238.002" x2="276.075" y2="238.002" gradientUnits="userSpaceOnUse">
<stop stop-color="#FF6B00"/>
<stop offset="0.1052" stop-color="#FF740F"/>
<stop offset="0.2727" stop-color="#FF8730"/>
<stop offset="0.7525" stop-color="#DE5D00"/>
<stop offset="0.8939" stop-color="#FF7B1C"/>
<stop offset="1" stop-color="#FF6B00"/>
</linearGradient>
<linearGradient id="paint27_linear" x1="193.912" y1="367.825" x2="442.358" y2="367.825" gradientUnits="userSpaceOnUse">
<stop stop-color="#FF6B00"/>
<stop offset="0.1052" stop-color="#FF740F"/>
<stop offset="0.2727" stop-color="#FF8730"/>
<stop offset="0.7525" stop-color="#DE5D00"/>
<stop offset="0.8939" stop-color="#FF7B1C"/>
<stop offset="1" stop-color="#FF6B00"/>
</linearGradient>
<linearGradient id="paint28_linear" x1="0" y1="270.184" x2="150.563" y2="270.184" gradientUnits="userSpaceOnUse">
<stop stop-color="#FF6B00"/>
<stop offset="0.1052" stop-color="#FF740F"/>
<stop offset="0.2727" stop-color="#FF8730"/>
<stop offset="0.7525" stop-color="#DE5D00"/>
<stop offset="0.8939" stop-color="#FF7B1C"/>
<stop offset="1" stop-color="#FF6B00"/>
</linearGradient>
<linearGradient id="paint29_linear" x1="466.332" y1="261.084" x2="640.015" y2="261.084" gradientUnits="userSpaceOnUse">
<stop stop-color="#FF6B00"/>
<stop offset="0.1052" stop-color="#FF740F"/>
<stop offset="0.2727" stop-color="#FF8730"/>
<stop offset="0.7525" stop-color="#DE5D00"/>
<stop offset="0.8939" stop-color="#FF7B1C"/>
<stop offset="1" stop-color="#FF6B00"/>
</linearGradient>
</defs>
</svg>
