<svg xmlns="http://www.w3.org/2000/svg" xmlns:xlink="http://www.w3.org/1999/xlink" width="640" height="410" fill="none" xmlns:v="https://vecta.io/nano"><path opacity=".001" d="M609.324 210.264l-257.673 187.27L18.126 239.351 327.669 43.77l281.655 166.494z" fill="#000"/><path d="M233.412 91.142c8.366-8.034 26.771-10.527 40.435-4.986 10.876 4.432 15.338 13.851 9.203 20.777-3.346 3.878-9.202 6.648-15.616 8.033-3.068.554-3.347 3.048-.558 3.879l55.494 18.838 32.907-32.136c2.231-1.939 7.529-1.662 8.923.554 2.231 3.602 6.693 6.926 13.386 8.865 12.549 3.602 27.887 1.385 35.416-5.54 8.087-7.48 3.904-17.176-9.202-21.608-5.857-1.939-12.549-2.493-18.684-1.939-4.184.554-7.251-2.216-5.02-4.155l32.627-32.135-142.501-48.48C264.087-1.108 256 .277 252.375 3.602l-83.66 81.446 55.494 18.838c2.789.831 6.135-.277 5.856-2.216-1.394-3.324-.279-7.203 3.347-10.527z" fill="url(#A)"/><path d="M384.837 85.879c6.135-.554 12.828 0 18.684 1.939 2.51.831 4.462 1.939 6.135 3.047l2.789-2.77V49.588l-32.907 32.135c-1.952 1.939 1.395 4.709 5.299 4.155z" fill="url(#B)"/><path d="M416.907 103.054c-.558 2.216-1.673 4.433-3.904 6.372-7.53 6.648-22.867 9.142-35.416 5.54-6.693-1.939-11.155-5.263-13.386-8.865-1.394-2.216-6.693-2.493-8.924-.554l-32.906 32.136-55.495-18.838c-2.788-.831-2.509-3.325.558-3.879 6.414-1.385 12.27-4.155 15.617-8.033 6.135-6.926 1.673-16.345-9.203-20.778-13.664-5.541-32.349-3.047-40.436 4.986-3.346 3.324-4.462 7.203-3.625 10.804.558 1.939-3.068 3.047-5.856 2.216l-55.495-18.838v38.507l55.495 18.838c2.788.831 6.135-.277 5.856-2.216-1.115-3.602 0-7.48 3.625-10.804 6.693-6.372 19.8-9.142 31.791-7.203v32.412c-.279.831.279 1.939 1.673 2.493l55.495 18.838 32.906-32.135c2.231-1.939 7.53-1.662 8.924.554 2.231 3.602 6.693 6.926 13.386 8.865 12.549 3.601 27.886 1.385 35.416-5.54 3.346-3.048 4.74-6.649 3.904-9.973v-34.906z" fill="url(#C)"/><path d="M360.296 142.669v-38.507c-1.952-.277-3.904.277-5.02 1.386l-32.906 32.135v38.506l32.906-32.135c1.116-1.108 3.347-1.662 5.02-1.385z" fill="url(#D)"/><g fill="#999"><path d="M266.876 118.568c-2.788-.832-2.509-3.325.558-3.879 6.414-1.385 12.27-4.155 15.617-8.034 6.135-6.925 1.673-16.344-9.203-20.777-13.664-5.541-32.349-3.047-40.436 4.986-3.346 3.324-4.462 7.203-3.625 10.804.558 1.939-3.067 3.047-5.856 2.216l-55.495-18.838v38.507l55.495 18.838c2.789.831 6.135-.277 5.856-2.216-1.115-3.602 0-7.48 3.625-10.804 6.693-6.372 19.8-9.142 31.791-7.203v32.412c-.279.831.279 1.939 1.673 2.493l55.495 18.838v-38.23l-55.495-19.114zm150.032 19.391v-34.905c-.558 2.216-1.673 4.432-3.904 6.372-7.529 6.648-22.867 9.141-35.416 5.54-6.693-1.939-11.155-5.263-13.386-8.865-.836-1.662-4.183-2.216-6.692-1.662.836-.277 1.673-.277 2.788-.277v38.507c1.673.277 3.347.831 3.904 1.939 2.231 3.601 6.693 6.926 13.386 8.865 12.549 3.601 27.887 1.385 35.416-5.541 3.346-3.047 4.462-6.648 3.904-9.973zm-60.516-33.243c-.279.277-.836.277-.836.554 0 0 .557-.277.836-.554z"/><path d="M357.509 104.439c-.279 0-.558.277-1.116.277.558-.277.837-.277 1.116-.277z"/></g><path d="M220.027 102.777l-51.591-17.453 51.591 17.453z" fill="url(#E)"/><path d="M223.931 142.669l-3.904-1.385 3.904 1.385c.279 0 .836.277 1.115.277-.279 0-.557-.277-1.115-.277z" fill="url(#F)"/><path d="M228.394 142.392c-.279.277-.279.277 0 0h0z" fill="url(#G)"/><path d="M264.925 117.182c-.279-1.108.558-1.939 2.51-2.493 6.414-1.385 12.27-4.155 15.616-8.034 6.135-6.925 1.674-16.344-9.202-20.777-13.665-5.541-32.349-3.047-40.436 4.986-3.346 3.324-4.462 7.203-3.625 10.804.279.831-.558 1.662-1.673 2.216v38.507c.278-.277 1.952-1.108 1.673-1.939-1.116-3.602 0-7.48 3.625-10.804 6.693-6.372 19.8-9.142 31.791-7.48v-4.987h-.279z" fill="url(#H)"/><path d="M379.539 82.831c.278-.277.278-.277 0 0l33.185-32.412-1.952-.554-30.955 30.196c-.836.831-.836 1.939-.278 2.77zm33.464 24.932c-7.53 6.649-22.867 9.142-35.416 5.541-6.693-1.939-11.155-5.264-13.386-8.865-1.394-2.216-6.693-2.493-8.924-.554l-32.906 31.858-55.495-18.838c-.557-.277-.836-.277-1.115-.554-1.115 1.108-.837 2.493 1.115 3.325l55.495 18.837 32.906-32.135c2.231-1.939 7.53-1.662 8.924.554 2.231 3.602 6.693 6.926 13.386 8.865 12.549 3.602 27.886 1.385 35.416-5.54 3.346-3.048 4.462-6.372 3.904-9.419-.279 2.493-1.673 4.709-3.904 6.925zm-183.495-6.371c-.836 1.108-3.346 1.662-5.577.831l-53.543-18.284-1.952 1.939 55.495 18.837c2.789.831 6.135-.277 5.856-2.216 0-.277-.279-.554-.279-1.108zm56.052-1.939c.837-5.818-3.625-11.912-11.991-15.237-13.664-5.541-32.349-3.047-40.436 4.987-3.067 3.047-4.183 6.372-3.904 9.419.279-2.493 1.673-4.709 3.904-6.926 8.366-8.034 26.772-10.527 40.436-4.987 7.251 3.047 11.434 7.757 11.991 12.743z" fill="#b3b3b3"/><path d="M175.964 208.324c-11.433-6.648-11.154-17.452 1.395-23.824 10.039-4.987 27.05-4.987 37.089.277 5.577 2.77 8.924 6.649 9.481 10.527.279 1.939 4.183 2.77 6.693 1.385l45.456-26.04-46.292-26.595c-3.068-1.662-1.116-4.71 3.067-4.71 6.693-.277 13.386-1.939 18.405-4.986 9.203-5.818 8.924-15.236-.557-21.054-10.597-6.372-28.166-6.649-38.763-.277-4.741 2.77-7.529 6.372-7.808 9.973-.279 2.493-5.299 3.601-8.366 1.662l-46.292-26.595-116.845 67.041c-5.02 3.047-5.02 7.757 0 10.527l117.403 67.318 45.455-26.041c2.231-1.385.837-3.601-2.231-3.878-6.414-.277-12.549-1.94-17.29-4.71z" fill="url(#I)"/><path d="M251.26 134.358c-5.02 3.048-11.713 4.987-18.405 4.987-4.183.277-6.135 3.047-3.068 4.709l28.166 16.068v-34.629c-.558 3.325-2.789 6.372-6.693 8.865z" fill="url(#J)"/><path d="M230.623 196.689c-2.231 1.385-6.414.554-6.693-1.385-.557-3.878-3.904-7.757-9.481-10.527-10.039-4.986-27.05-5.263-37.089-.277-12.549 6.095-12.828 17.176-1.395 23.824 4.741 2.771 11.155 4.433 17.29 4.71 1.952 0 3.346 1.108 3.346 1.939v4.155c6.414 0 12.828 1.386 17.569 3.879 5.577 2.77 8.924 6.649 9.482 10.527.278 1.939 4.183 2.77 6.692 1.385l43.504-24.932 1.952-.277v-39.061l-45.177 26.04z" fill="url(#K)"/><path d="M32.906 175.635c-2.51-1.385-3.904-3.324-3.904-5.263v37.675c-.279 2.216.837 4.433 3.904 6.095l117.403 67.317v-38.506L32.906 175.635z" fill="url(#L)"/><use xlink:href="#e" fill="url(#M)"/><use xlink:href="#e" fill="url(#N)"/><path d="M195.208 215.25l-45.176 26.041-117.125-67.318c-1.673-1.108-3.067-2.216-3.625-3.601-1.116 2.493.279 5.263 3.625 6.925l117.404 67.318 45.455-26.041c1.394-.831 1.115-2.493-.558-3.324z" fill="#fff" style="mix-blend-mode:darken"/><path d="M251.26 132.696c-5.02 3.047-11.713 4.986-18.405 4.986-3.905.278-5.857 2.771-3.626 4.433.837-.554 1.952-1.108 3.626-1.108 6.692-.277 13.385-1.939 18.405-4.987 5.298-3.324 7.529-7.756 6.693-11.912-.558 3.047-2.789 6.095-6.693 8.588zm-20.636 62.331c-2.231 1.385-6.414.554-6.693-1.385-.558-3.879-3.904-7.757-9.482-10.527-10.039-4.987-27.05-5.264-37.089-.277-7.251 3.601-10.597 8.865-9.482 13.851.837-3.878 3.905-7.757 9.482-10.527 10.039-4.986 27.05-4.986 37.089.277 5.578 2.77 8.924 6.649 9.482 10.527.279 1.939 4.183 2.77 6.693 1.385l45.455-25.763-3.068-1.662-42.387 24.101z" fill="#ff6b00"/><use xlink:href="#f" fill="url(#O)"/><use xlink:href="#f" fill="url(#P)"/><path d="M438.936 152.365c12.549-6.095 12.828-17.176 1.395-23.825-4.741-2.77-11.155-4.432-17.29-4.709-1.952 0-3.346-1.108-3.346-2.216v34.351c6.692.277 13.943-.831 19.241-3.601z" fill="url(#Q)"/><use xlink:href="#g" fill="url(#R)"/><use xlink:href="#g" fill="url(#S)"/><path d="M364.758 202.784c5.02-3.047 11.712-4.987 18.405-4.987 4.183-.277 6.135-3.047 3.068-4.709l-46.013-26.872v38.507l18.126 10.25h.279c-1.394-4.155.837-8.865 6.135-12.189z" fill="url(#T)"/><path d="M420.532 212.48c-1.394-.831-3.347-1.108-5.299-.554v38.507c1.674-.278 3.626-.278 5.299.554l46.292 26.594v-38.784l-46.292-26.317z" fill="url(#U)"/><use xlink:href="#h" fill="url(#V)"/><use xlink:href="#h" fill="url(#W)"/><g fill="#ff6b00"><path d="M386.789 194.75c1.394-1.108 1.394-2.77-.558-3.601l-43.224-24.933-3.068 1.662 46.292 26.595c.279 0 .558.277.558.277zm35.975-68.98c6.414.277 12.549 1.939 17.29 4.71s7.529 6.371 8.087 9.973c.836-4.71-1.952-9.696-8.087-13.298-4.741-2.77-11.155-4.432-17.29-4.709-.837 0-1.395-.277-1.952-.554l-.279.277c-2.231 1.108-.837 3.324 2.231 3.601zm-2.233 85.048c-3.067-1.663-8.087-.555-8.366 1.662-.279 3.601-3.068 7.202-7.808 9.973-10.597 6.094-28.166 6.094-38.763-.277-4.183-2.494-6.693-5.818-7.25-8.865-.837 4.432 1.673 8.865 7.25 12.466 10.597 6.372 28.166 6.649 38.763.277 4.74-2.77 7.529-6.372 7.808-9.973.279-2.493 5.299-3.601 8.366-1.662l46.013 26.317v-3.324l-46.013-26.594z"/><path d="M583.391 173.696c3.346-1.939 4.462-4.432 3.346-6.926-.557 1.385-1.673 2.494-3.346 3.602l-116.566 66.763-.279-.277v3.324l.279.277 116.566-66.763z"/></g><path d="M377.585 247.662c-8.923 7.757-27.886 9.419-40.993 3.601-10.597-4.709-13.943-14.405-7.251-21.054 3.904-3.878 9.761-6.371 16.453-7.479 3.068-.554 3.626-3.048 1.116-3.879l-53.543-20.777-36.252 31.027c-2.231 1.939-7.809 1.385-8.924-.831-1.673-3.878-6.135-7.202-12.549-9.419-11.991-4.155-27.887-2.216-35.695 4.156-8.924 7.202-5.577 17.175 6.972 21.885 5.577 2.216 12.27 3.047 18.684 2.493 4.183-.277 6.971 2.493 4.741 4.433l-36.253 31.027 137.76 53.189c6.135 2.216 14.222 1.385 18.127-1.939l91.747-78.676-53.543-20.777c-2.788-1.108-6.414.277-5.856 1.939.558 4.155-.837 7.757-4.741 11.081z" fill="url(#X)"/><path d="M349.978 334.372c-3.905 3.324-12.271 4.432-18.127 1.939l-137.76-53.189v38.506l137.76 53.19c6.135 2.216 14.222 1.385 18.127-1.94l91.747-78.675v-38.507l-91.747 78.676z" fill="url(#Y)"/><path d="M225.602 247.939c-6.414.554-12.828-.277-18.684-2.493-7.25-2.771-11.433-7.203-11.991-11.635v36.29c-.279 3.324 1.115 6.372 3.904 9.142l31.233-26.872c2.51-2.216-.279-4.709-4.462-4.432z" fill="url(#Z)"/><path d="M345.794 223.007c-6.693 1.108-12.549 3.601-16.453 7.479-6.693 6.649-3.346 16.345 7.25 21.055 3.626 1.662 7.53 2.493 11.713 3.047v-32.966c-.279.554-1.116 1.108-2.51 1.385z" fill="url(#a)"/><path d="M329.62 228.824c-2.789 2.77-3.904 6.095-3.347 9.419.279-2.216 1.395-4.155 3.347-6.094 3.904-3.879 9.76-6.372 16.453-7.48 3.067-.554 3.625-2.77 1.394-3.879-.279.277-.836.277-1.394.277-6.972 1.386-12.828 3.879-16.453 7.757zm-122.423 18.284c5.577 2.216 12.27 3.047 18.684 2.493 1.952-.277 3.625.277 4.462 1.109l.278-.278c2.231-1.939-.557-4.709-4.74-4.432-6.414.554-12.828-.277-18.684-2.493-6.972-2.77-11.155-6.926-11.992-11.358-1.115 5.817 3.068 11.635 11.992 14.959zm142.781 85.601c-3.905 3.325-12.271 4.433-18.127 1.94l-134.972-52.081-2.788 2.493 137.76 52.912c6.135 2.216 14.222 1.385 18.127-1.939l91.747-78.676-2.789-1.108-88.958 76.459z" fill="#ff6b00"/><path d="M339.66 410c-1.394 0-2.788-.277-4.183-.831l-141.664-54.574.558-1.663 141.385 54.852c3.347 1.385 6.972.554 9.761-1.662l95.372-80.615 1.116 1.385-95.373 80.615c-1.952 1.662-4.462 2.493-6.972 2.493z" fill="url(#b)"/><path d="M149.752 313.872L0 227.993l.837-1.385 149.751 85.879-.836 1.385z" fill="url(#c)"/><path d="M467.101 312.21l-.837-1.663 172.898-100.56.837 1.662L467.101 312.21z" fill="url(#d)"/><defs><linearGradient id="A" x1="441.777" y1="-187.665" x2="285.543" y2="112.062" xlink:href="#i"><stop stop-color="#ededed"/><stop offset=".31" stop-color="#cbcbcb"/><stop offset=".695" stop-color="#dadada"/><stop offset="1" stop-color="#ebebeb"/></linearGradient><linearGradient id="B" x1="332.95" y1="112.34" x2="598.605" y2="-32.32" xlink:href="#i"><stop stop-color="#b3b3b3"/><stop offset=".204" stop-color="#ccc"/><stop offset=".394" stop-color="#d7d7d7"/><stop offset=".52" stop-color="#e3e3e3"/><stop offset=".815" stop-color="#f3f3f3"/><stop offset="1" stop-color="#fff"/></linearGradient><linearGradient id="C" x1="315.855" y1="141.735" x2="426.226" y2="278.477" xlink:href="#i"><stop offset=".035" stop-color="#a3a3a3"/><stop offset=".295" stop-color="#7733dc"/><stop offset=".794" stop-color="#975ced"/><stop offset="1" stop-color="#a56ef4"/></linearGradient><linearGradient id="D" x1="346.243" y1="136.753" x2="611.898" y2="-7.907" xlink:href="#i"><stop stop-color="#b3b3b3"/><stop offset=".204" stop-color="#ccc"/><stop offset=".394" stop-color="#d7d7d7"/><stop offset=".52" stop-color="#e3e3e3"/><stop offset=".815" stop-color="#f3f3f3"/><stop offset="1" stop-color="#fff"/></linearGradient><linearGradient id="E" x1="121.605" y1="110.148" x2="269.998" y2="76.662" xlink:href="#i"><stop stop-color="#b3b3b3"/><stop offset=".204" stop-color="#ccc"/><stop offset=".394" stop-color="#d7d7d7"/><stop offset=".52" stop-color="#e3e3e3"/><stop offset=".815" stop-color="#f3f3f3"/><stop offset="1" stop-color="#fff"/></linearGradient><linearGradient id="F" x1="215.329" y1="143.681" x2="230.161" y2="140.334" xlink:href="#i"><stop stop-color="#b3b3b3"/><stop offset=".204" stop-color="#ccc"/><stop offset=".394" stop-color="#d7d7d7"/><stop offset=".52" stop-color="#e3e3e3"/><stop offset=".815" stop-color="#f3f3f3"/><stop offset="1" stop-color="#fff"/></linearGradient><linearGradient id="G" x1="228.111" y1="142.553" x2="228.367" y2="142.495" xlink:href="#i"><stop stop-color="#b3b3b3"/><stop offset=".204" stop-color="#ccc"/><stop offset=".394" stop-color="#d7d7d7"/><stop offset=".52" stop-color="#e3e3e3"/><stop offset=".815" stop-color="#f3f3f3"/><stop offset="1" stop-color="#fff"/></linearGradient><linearGradient id="H" x1="231.719" y1="112.838" x2="283.897" y2="112.838" xlink:href="#i"><stop stop-color="#b3b3b3"/><stop offset=".204" stop-color="#ccc"/><stop offset=".394" stop-color="#d7d7d7"/><stop offset=".52" stop-color="#e3e3e3"/><stop offset=".815" stop-color="#f3f3f3"/><stop offset="1" stop-color="#fff"/></linearGradient><linearGradient id="I" x1="313.92" y1="-135.729" x2="139.365" y2="199.146" xlink:href="#i"><stop offset=".006" stop-color="#ff6b00"/><stop offset="1" stop-color="#ff8730"/></linearGradient><linearGradient id="J" x1="237.756" y1="148.979" x2="298.755" y2="130.592" xlink:href="#i"><stop stop-color="#ff6b00"/><stop offset=".105" stop-color="#ff740f"/><stop offset=".273" stop-color="#ff8730"/><stop offset=".753" stop-color="#de5d00"/><stop offset=".894" stop-color="#ff7b1c"/><stop offset="1" stop-color="#ff6b00"/></linearGradient><linearGradient id="K" x1="167.975" y1="203.363" x2="276.703" y2="203.363" xlink:href="#i"><stop stop-color="#ff6b00"/><stop offset=".105" stop-color="#ff740f"/><stop offset=".273" stop-color="#ff8730"/><stop offset=".753" stop-color="#de5d00"/><stop offset=".894" stop-color="#ff7b1c"/><stop offset="1" stop-color="#ff6b00"/></linearGradient><linearGradient id="L" x1="-83.812" y1="264.538" x2="270.253" y2="184.64" xlink:href="#i"><stop stop-color="#ff6b00"/><stop offset=".105" stop-color="#ff740f"/><stop offset=".273" stop-color="#ff8730"/><stop offset=".753" stop-color="#de5d00"/><stop offset=".894" stop-color="#ff7b1c"/><stop offset="1" stop-color="#ff6b00"/></linearGradient><linearGradient id="M" x1="159.768" y1="227.965" x2="216.809" y2="314.321" xlink:href="#i"><stop stop-color="#ff6b00"/><stop offset=".105" stop-color="#ff740f"/><stop offset=".273" stop-color="#ff8730"/><stop offset=".753" stop-color="#de5d00"/><stop offset=".894" stop-color="#ff7b1c"/><stop offset="1" stop-color="#ff6b00"/></linearGradient><linearGradient id="N" x1="180.62" y1="259.119" x2="203.782" y2="294.184" xlink:href="#i"><stop stop-color="#ff6b00"/><stop offset=".105" stop-color="#ff740f"/><stop offset=".273" stop-color="#ff8730"/><stop offset=".753" stop-color="#de5d00"/><stop offset=".894" stop-color="#ff7b1c"/><stop offset="1" stop-color="#ff6b00"/></linearGradient><linearGradient id="O" x1="340.137" y1="166.514" x2="587.186" y2="166.514" xlink:href="#i"><stop offset=".035" stop-color="#9f19ab"/><stop offset=".244" stop-color="#ae25b1"/><stop offset=".646" stop-color="#d744bf"/><stop offset="1" stop-color="#ff63ce"/></linearGradient><linearGradient id="P" x1="611.163" y1="-112.175" x2="436.608" y2="222.701" xlink:href="#i"><stop offset=".006" stop-color="#ff6b00"/><stop offset="1" stop-color="#ff8730"/></linearGradient><linearGradient id="Q" x1="467.522" y1="138.963" x2="409.319" y2="138.963" xlink:href="#i"><stop stop-color="#ff6b00"/><stop offset=".105" stop-color="#ff740f"/><stop offset=".273" stop-color="#ff8730"/><stop offset=".753" stop-color="#de5d00"/><stop offset=".894" stop-color="#ff7b1c"/><stop offset="1" stop-color="#ff6b00"/></linearGradient><linearGradient id="R" x1="511.831" y1="190.674" x2="556.712" y2="284.463" xlink:href="#i"><stop stop-color="#ff6b00"/><stop offset=".105" stop-color="#ff740f"/><stop offset=".273" stop-color="#ff8730"/><stop offset=".753" stop-color="#de5d00"/><stop offset=".894" stop-color="#ff7b1c"/><stop offset="1" stop-color="#ff6b00"/></linearGradient><linearGradient id="S" x1="486.933" y1="233.906" x2="757.697" y2="152.291" xlink:href="#i"><stop stop-color="#ff6b00"/><stop offset=".105" stop-color="#ff740f"/><stop offset=".273" stop-color="#ff8730"/><stop offset=".753" stop-color="#de5d00"/><stop offset=".894" stop-color="#ff7b1c"/><stop offset="1" stop-color="#ff6b00"/></linearGradient><linearGradient id="T" x1="285.114" y1="204.955" x2="440.819" y2="169.819" xlink:href="#i"><stop stop-color="#ff6b00"/><stop offset=".105" stop-color="#ff740f"/><stop offset=".273" stop-color="#ff8730"/><stop offset=".753" stop-color="#de5d00"/><stop offset=".894" stop-color="#ff7b1c"/><stop offset="1" stop-color="#ff6b00"/></linearGradient><linearGradient id="U" x1="398.914" y1="253.975" x2="492.866" y2="232.774" xlink:href="#i"><stop stop-color="#ff6b00"/><stop offset=".105" stop-color="#ff740f"/><stop offset=".273" stop-color="#ff8730"/><stop offset=".753" stop-color="#de5d00"/><stop offset=".894" stop-color="#ff7b1c"/><stop offset="1" stop-color="#ff6b00"/></linearGradient><linearGradient id="V" x1="393.762" y1="247.173" x2="438.643" y2="340.962" xlink:href="#i"><stop offset=".035" stop-color="#9f19ab"/><stop offset=".244" stop-color="#ae25b1"/><stop offset=".646" stop-color="#d744bf"/><stop offset="1" stop-color="#ff63ce"/></linearGradient><linearGradient id="W" x1="422.515" y1="239.452" x2="356.394" y2="239.452" xlink:href="#i"><stop stop-color="#ff6b00"/><stop offset=".105" stop-color="#ff740f"/><stop offset=".273" stop-color="#ff8730"/><stop offset=".753" stop-color="#de5d00"/><stop offset=".894" stop-color="#ff7b1c"/><stop offset="1" stop-color="#ff6b00"/></linearGradient><linearGradient id="X" x1="440.133" y1="12.463" x2="290.058" y2="300.375" xlink:href="#i"><stop offset=".006" stop-color="#ff6b00"/><stop offset="1" stop-color="#ff8730"/></linearGradient><linearGradient id="Y" x1="194.533" y1="315.967" x2="442.108" y2="315.967" xlink:href="#i"><stop stop-color="#ff6b00"/><stop offset=".105" stop-color="#ff740f"/><stop offset=".273" stop-color="#ff8730"/><stop offset=".753" stop-color="#de5d00"/><stop offset=".894" stop-color="#ff7b1c"/><stop offset="1" stop-color="#ff6b00"/></linearGradient><linearGradient id="Z" x1="148.818" y1="267.093" x2="276.489" y2="238.283" xlink:href="#i"><stop stop-color="#ff6b00"/><stop offset=".105" stop-color="#ff740f"/><stop offset=".273" stop-color="#ff8730"/><stop offset=".753" stop-color="#de5d00"/><stop offset=".894" stop-color="#ff7b1c"/><stop offset="1" stop-color="#ff6b00"/></linearGradient><linearGradient id="a" x1="349.009" y1="238.002" x2="276.075" y2="238.002" xlink:href="#i"><stop stop-color="#ff6b00"/><stop offset=".105" stop-color="#ff740f"/><stop offset=".273" stop-color="#ff8730"/><stop offset=".753" stop-color="#de5d00"/><stop offset=".894" stop-color="#ff7b1c"/><stop offset="1" stop-color="#ff6b00"/></linearGradient><linearGradient id="b" x1="193.912" y1="367.825" x2="442.358" y2="367.825" xlink:href="#i"><stop stop-color="#ff6b00"/><stop offset=".105" stop-color="#ff740f"/><stop offset=".273" stop-color="#ff8730"/><stop offset=".753" stop-color="#de5d00"/><stop offset=".894" stop-color="#ff7b1c"/><stop offset="1" stop-color="#ff6b00"/></linearGradient><linearGradient id="c" x1="0" y1="270.184" x2="150.563" y2="270.184" xlink:href="#i"><stop stop-color="#ff6b00"/><stop offset=".105" stop-color="#ff740f"/><stop offset=".273" stop-color="#ff8730"/><stop offset=".753" stop-color="#de5d00"/><stop offset=".894" stop-color="#ff7b1c"/><stop offset="1" stop-color="#ff6b00"/></linearGradient><linearGradient id="d" x1="466.332" y1="261.084" x2="640.015" y2="261.084" xlink:href="#i"><stop stop-color="#ff6b00"/><stop offset=".105" stop-color="#ff740f"/><stop offset=".273" stop-color="#ff8730"/><stop offset=".753" stop-color="#de5d00"/><stop offset=".894" stop-color="#ff7b1c"/><stop offset="1" stop-color="#ff6b00"/></linearGradient><path id="e" d="M195.484 216.912l-45.455 26.041v38.506l45.455-26.04c.837-.277 1.115-.831 1.115-1.385v-.277-34.352-4.155c0 .554-.278 1.108-1.115 1.662z"/><path id="f" d="M440.331 128.541c11.434 6.648 11.155 17.452-1.394 23.824-10.04 4.986-27.05 4.986-37.09-.277-5.577-2.77-8.923-6.649-9.481-10.527-.279-1.939-4.183-2.77-6.693-1.385l-45.455 26.04 46.292 26.595c3.067 1.662 1.115 4.709-3.068 4.709-6.693.277-13.385 1.939-18.405 4.987-9.203 5.817-8.924 15.236.558 21.054 10.597 6.371 28.165 6.648 38.762.277 4.741-2.77 7.53-6.372 7.808-9.973.279-2.493 5.299-3.601 8.366-1.662l46.292 26.594 116.567-66.763c5.019-3.048 5.019-7.757 0-10.527L465.987 94.189l-45.456 26.041c-2.23 1.385-.836 3.601 2.231 3.878 6.414.277 12.549 1.662 17.569 4.433z"/><path id="g" d="M587.295 205v-38.507c0 1.94-1.116 3.879-3.904 5.541l-116.567 66.763v38.507l116.567-66.763c2.509-1.385 3.904-3.602 3.904-5.541z"/><path id="h" d="M412.166 214.142c-.279 3.601-3.068 7.202-7.809 9.973-10.597 6.094-28.165 6.094-38.762-.277-4.183-2.494-6.414-5.541-7.251-8.588h-.279v35.736c-.279 4.156 2.231 8.311 7.251 11.358 10.597 6.372 28.165 6.649 38.762.277 4.741-2.77 7.53-6.371 7.809-9.973 0-1.108 1.394-2.216 3.346-2.493v-38.507c-1.673.555-3.067 1.386-3.067 2.494z"/><linearGradient id="i" gradientUnits="userSpaceOnUse"/></defs></svg>