<svg xmlns="http://www.w3.org/2000/svg" xmlns:xlink="http://www.w3.org/1999/xlink" width="24" height="24" fill="none" xmlns:v="https://vecta.io/nano"><path d="M22.203 4.138H1.797A1.8 1.8 0 0 0 0 5.936v12.129a1.8 1.8 0 0 0 1.797 1.797h20.405A1.8 1.8 0 0 0 24 18.065V5.936a1.8 1.8 0 0 0-1.797-1.797z" fill="#f5f5f5"/><path d="M.099 5.348h23.802a1.8 1.8 0 0 0-1.698-1.21H1.797a1.8 1.8 0 0 0-1.699 1.21zM24 8.977H0v1.21h24v-1.21zm0-2.42H0v1.21h24v-1.21zM0 12.191c0 .229.185.414.414.414H24v-1.21H0v.796zm24 4.043H0v1.209h24v-1.209zm-.099 2.419H.099a1.8 1.8 0 0 0 1.699 1.21h20.405a1.8 1.8 0 0 0 1.698-1.21zM24 13.815H0v1.21h24v-1.21z" fill="#ff4b55"/><path d="M.414 12.605h10.345c.229 0 .414-.185.414-.414V4.552c0-.229-.185-.414-.414-.414H1.797A1.8 1.8 0 0 0 0 5.936v6.256c0 .229.185.414.414.414z" fill="#41479b"/><g fill="#f5f5f5"><path d="M1.163 5.088l.092.275.29.002c.037 0 .053.048.023.07l-.233.172.087.276c.011.036-.029.065-.06.043l-.236-.168-.236.168c-.031.022-.071-.008-.06-.044l.087-.276-.233-.172c-.03-.022-.015-.07.023-.07l.29-.002.092-.275c.012-.036.062-.036.074 0zm0 1.437l.092.275.29.002c.037 0 .053.048.023.07l-.233.172.087.276c.011.036-.029.065-.06.043l-.236-.168-.236.168c-.03.022-.071-.007-.06-.043l.087-.276-.233-.172c-.03-.022-.015-.07.023-.07l.29-.002.092-.275c.012-.036.062-.036.074 0z"/><use xlink:href="#B"/><use xlink:href="#B" y="1.437"/><use xlink:href="#C"/><use xlink:href="#C" x="1.115" y="-5.043"/><use xlink:href="#B" x="1.115" y="-0.733"/><use xlink:href="#B" x="1.115" y="0.704"/><use xlink:href="#B" x="1.115" y="2.141"/><use xlink:href="#B" x="2.23" y="-2.874"/><use xlink:href="#B" x="2.23" y="-1.437"/><use xlink:href="#B" x="2.23" y="-0.001"/><use xlink:href="#B" x="2.23" y="1.437"/><use xlink:href="#B" x="2.23" y="2.873"/><use xlink:href="#C" x="3.345" y="-5.043"/><use xlink:href="#B" x="3.345" y="-0.733"/><use xlink:href="#B" x="3.345" y="0.704"/><use xlink:href="#B" x="3.345" y="2.141"/><path d="M5.624 5.088l.092.275.29.002c.038 0 .053.048.023.07l-.233.172.087.276c.011.036-.029.065-.06.044l-.236-.168-.236.168c-.031.022-.071-.008-.06-.043l.087-.276-.233-.172c-.03-.022-.015-.07.023-.07l.29-.002.092-.275c.012-.036.062-.036.074 0z"/><use xlink:href="#D"/><use xlink:href="#D" y="1.436"/><use xlink:href="#D" y="2.874"/><use xlink:href="#D" y="4.31"/><use xlink:href="#C" x="5.575" y="-5.043"/><use xlink:href="#B" x="5.575" y="-0.733"/><use xlink:href="#B" x="5.575" y="0.704"/><use xlink:href="#B" x="5.575" y="2.141"/><use xlink:href="#B" x="6.691" y="-2.874"/><use xlink:href="#B" x="6.691" y="-1.437"/><use xlink:href="#B" x="6.691" y="-0.001"/><use xlink:href="#B" x="6.691" y="1.437"/><use xlink:href="#B" x="6.691" y="2.873"/><use xlink:href="#C" x="7.807" y="-5.043"/><use xlink:href="#B" x="7.807" y="-0.733"/><use xlink:href="#B" x="7.807" y="0.704"/><use xlink:href="#B" x="7.807" y="2.141"/><use xlink:href="#B" x="8.921" y="-2.874"/><use xlink:href="#B" x="8.921" y="-1.437"/><use xlink:href="#B" x="8.921" y="-0.001"/><use xlink:href="#B" x="8.921" y="1.437"/><use xlink:href="#B" x="8.921" y="2.873"/></g><defs ><path id="B" d="M1.163 7.962l.092.275.29.002c.037 0 .053.048.023.07l-.233.172.087.276c.011.036-.029.065-.06.043l-.236-.168-.236.168c-.031.022-.071-.008-.06-.043l.087-.276-.233-.172c-.03-.022-.015-.07.023-.07l.29-.002.092-.275c.012-.036.062-.036.074 0z"/><path id="C" d="M1.163 10.835l.092.275.29.002c.037 0 .053.048.023.07l-.233.172.087.276c.011.036-.029.065-.06.044l-.236-.168-.236.168c-.031.022-.071-.008-.06-.044l.087-.276-.233-.172c-.03-.022-.015-.07.023-.07l.29-.002.092-.275c.012-.036.062-.036.074 0z"/><path id="D" d="M5.624 6.525l.092.275.29.002c.038 0 .053.048.023.07l-.233.172.087.276c.011.036-.029.065-.06.043l-.236-.168-.236.168c-.031.022-.071-.008-.06-.043l.087-.276-.233-.172c-.03-.022-.015-.07.023-.07l.29-.002.092-.275c.012-.036.062-.036.074 0z"/></defs></svg>