<svg xmlns="http://www.w3.org/2000/svg" xmlns:xlink="http://www.w3.org/1999/xlink" width="652" height="390" fill="none" xmlns:v="https://vecta.io/nano"><path opacity=".5" d="M320.207 390c-3.676 0-7.72-1.101-11.029-2.937L37.131 230.655c-6.985-4.038-11.029-11.014-11.029-19.092s4.044-15.053 11.029-19.092L348.147 14.402c6.985-4.039 15.441-4.039 22.058 0l269.474 156.407c6.985 4.039 11.029 11.015 11.029 19.092s-4.044 15.053-11.029 19.092l-308.443 178.07c-3.676 2.203-7.353 2.937-11.029 2.937zm38.969-377.067c-3.309 0-6.985.734-9.926 2.57L38.233 193.94c-6.25 3.671-10.294 10.28-10.294 17.623s3.676 13.952 10.294 17.624l271.68 156.774c6.25 3.672 13.97 3.672 20.22 0l308.443-178.069c6.25-3.672 9.926-10.281 9.926-17.624s-3.676-13.952-9.926-17.623L369.47 15.87c-2.941-2.203-6.618-2.937-10.294-2.937z" fill="url(#A)"/><path d="M331.604 359.526l263.959-152.369c12.132-6.975 12.132-24.232 0-31.208L365.426 41.571a17.61 17.61 0 0 0-18.014 0L81.246 193.94c-12.132 6.976-12.132 24.599 0 31.575L313.59 359.526c5.514 3.305 12.499 3.305 18.014 0z" fill="url(#B)"/><g opacity=".5"><use xlink:href="#M" fill="url(#C)"/><use xlink:href="#M" fill="url(#C)"/><use xlink:href="#M" fill="url(#C)"/><use xlink:href="#M" fill="url(#C)"/><use xlink:href="#M" fill="url(#C)"/></g><g opacity=".5"><use xlink:href="#N" fill="url(#D)"/><use xlink:href="#N" fill="url(#D)"/><use xlink:href="#N" fill="url(#D)"/><use xlink:href="#N" fill="url(#D)"/><use xlink:href="#N" fill="url(#D)"/><use xlink:href="#N" fill="url(#D)"/><use xlink:href="#N" fill="url(#D)"/><use xlink:href="#N" fill="url(#D)"/><use xlink:href="#N" fill="url(#D)"/><use xlink:href="#N" fill="url(#D)"/><use xlink:href="#N" fill="url(#D)"/><use xlink:href="#N" fill="url(#D)"/><use xlink:href="#N" fill="url(#D)"/><use xlink:href="#N" fill="url(#D)"/><use xlink:href="#N" fill="url(#D)"/><use xlink:href="#N" fill="url(#D)"/><use xlink:href="#N" fill="url(#D)"/><use xlink:href="#N" fill="url(#D)"/><use xlink:href="#N" fill="url(#D)"/><use xlink:href="#N" fill="url(#D)"/><use xlink:href="#N" fill="url(#D)"/><use xlink:href="#N" fill="url(#D)"/><use xlink:href="#N" fill="url(#D)"/><use xlink:href="#N" fill="url(#D)"/></g><path opacity=".5" d="M515.788 311.062c-4.044-2.203-10.294-2.203-14.338 0s-4.044 5.874 0 8.077 10.294 2.203 14.338 0 4.044-5.874 0-8.077zm-32.72 18.725c-4.044-2.203-10.293-2.203-14.337 0s-4.044 5.874 0 8.077 10.293 2.203 14.337 0c4.044-1.836 4.044-5.507 0-8.077zm-33.087 19.092c-4.043-2.203-10.293-2.203-14.337 0s-4.044 5.874 0 8.077 10.294 2.203 14.337 0 4.044-5.874 0-8.077zm-32.719 19.092c-4.044-2.203-10.293-2.203-14.337 0s-4.044 5.874 0 8.077 10.293 2.203 14.337 0 4.044-5.874 0-8.077zm229.77-132.91c-4.044-2.203-10.294-2.203-14.337 0s-4.044 5.875 0 8.078 10.293 2.202 14.337 0c4.044-1.836 4.044-5.508 0-8.078zm-32.719 19.092c-4.044-2.203-10.294-2.203-14.338 0s-4.044 5.875 0 8.078 10.294 2.202 14.338 0 4.044-5.875 0-8.078zm-32.719 19.092c-4.044-2.203-10.294-2.203-14.338 0s-4.044 5.875 0 8.077 10.294 2.203 14.338 0 4.044-5.874 0-8.077zm-33.087 18.725c-4.044-2.203-10.294-2.203-14.338 0s-4.044 5.874 0 8.077 10.294 2.203 14.338 0 4.044-5.874 0-8.077z" fill="url(#E)"/><path d="M525.346 99.214L392.263 22.112 210.286 50.383l-48.895 105.006 133.082 76.735 181.978-28.271 48.895-104.639z" fill="url(#F)"/><path d="M525.346 99.214l-48.895 104.639v52.87l48.895-105.006V99.214z" fill="url(#G)"/><path d="M161.391 155.389v52.503l133.082 76.735v-52.503l-133.082-76.735z" fill="url(#H)"/><path d="M294.474 232.124l181.977-28.271v52.87l-181.977 27.904v-52.503z" fill="url(#I)"/><path d="M524.243 101.417v48.097L475.348 254.52 293.37 282.424l-131.979-76.001v1.469l133.082 76.735 181.978-27.904 48.895-105.006V99.214l-1.103 2.203z" fill="url(#J)"/><use xlink:href="#O" opacity=".25" fill="url(#K)"/><use xlink:href="#O" opacity=".25" fill="url(#K)"/><use xlink:href="#O" opacity=".25" fill="url(#K)"/><use xlink:href="#O" opacity=".25" fill="url(#K)"/><path d="M225.726 90.035l161.758-24.967 101.466 58.377 6.985-15.053-108.451-62.416-161.758 24.966-34.925 74.9 6.985 4.038 27.94-59.846z" fill="url(#L)"/><defs><linearGradient id="A" x1="721.68" y1="173.281" x2="-614.294" y2="268.942" xlink:href="#P"><stop offset=".006" stop-color="#ff6b00"/><stop offset="1" stop-color="#ff8730"/></linearGradient><linearGradient id="B" x1="580.143" y1="334.608" x2="1.448" y2="11.423" xlink:href="#P"><stop offset=".006" stop-color="#ff6b00"/><stop offset="1" stop-color="#ff8730"/></linearGradient><linearGradient id="C" x1="464.975" y1="106.242" x2="656.019" y2="-1.025" xlink:href="#P"><stop offset=".006" stop-color="#ff6b00"/><stop offset="1" stop-color="#ff8730"/></linearGradient><linearGradient id="D" x1="221.906" y1="247.49" x2="-8.408" y2="383.356" xlink:href="#P"><stop offset=".006" stop-color="#ff730e"/><stop offset="1" stop-color="#ff8730"/></linearGradient><linearGradient id="E" x1="675.925" y1="221.848" x2="223.744" y2="473.721" xlink:href="#P"><stop offset=".006" stop-color="#ff6b00"/><stop offset="1" stop-color="#ff8730"/></linearGradient><linearGradient id="F" x1="521.594" y1="136.066" x2="178.303" y2="118.986" xlink:href="#P"><stop stop-color="#c8c8c8"/><stop offset=".204" stop-color="#ccc"/><stop offset=".394" stop-color="#d7d7d7"/><stop offset=".52" stop-color="#e3e3e3"/><stop offset=".815" stop-color="#f3f3f3"/><stop offset="1" stop-color="#fff"/></linearGradient><linearGradient id="G" x1="546.603" y1="99.945" x2="429.649" y2="300.127" xlink:href="#P"><stop stop-color="#c8c8c8"/><stop offset=".229" stop-color="#cfcfcf"/><stop offset=".549" stop-color="#e1e1e1"/><stop offset=".581" stop-color="#e3e3e3"/><stop offset=".994" stop-color="#f3f3f3"/></linearGradient><linearGradient id="H" x1="336.613" y1="266.729" x2="111.52" y2="169.788" xlink:href="#P"><stop stop-color="#c8c8c8"/><stop offset=".204" stop-color="#ccc"/><stop offset=".394" stop-color="#d7d7d7"/><stop offset=".52" stop-color="#e3e3e3"/><stop offset=".815" stop-color="#f3f3f3"/><stop offset="1" stop-color="#fff"/></linearGradient><linearGradient id="I" x1="604.51" y1="191.163" x2="333.131" y2="257.342" xlink:href="#P"><stop stop-color="#c8c8c8"/><stop offset=".229" stop-color="#cfcfcf"/><stop offset=".549" stop-color="#e1e1e1"/><stop offset=".581" stop-color="#e3e3e3"/><stop offset=".994" stop-color="#f3f3f3"/></linearGradient><linearGradient id="J" x1="537.476" y1="136.407" x2="181.248" y2="291.871" xlink:href="#P"><stop stop-color="#d0cfcf"/><stop offset="1" stop-color="#fff" stop-opacity="0"/></linearGradient><linearGradient id="K" x1="197.924" y1="136.822" x2="488.774" y2="136.822" xlink:href="#P"><stop offset=".006" stop-color="#ff6b00"/><stop offset="1" stop-color="#ff8730"/></linearGradient><linearGradient id="L" x1="168.961" y1="104.996" x2="486.349" y2="87.188" xlink:href="#P"><stop stop-color="#f3f3f3"/><stop offset=".394" stop-color="#d7d7d7"/><stop offset=".805" stop-color="#e3e3e3"/><stop offset=".902" stop-color="#ccc"/><stop offset="1" stop-color="#fff"/></linearGradient><path id="M" d="M542.573 79.489l50.366-29.005c1.103.734 2.573.367 3.676 0 1.103-.734 1.103-1.469 0-2.203s-2.573-.734-3.676 0c-.735.367-.735 1.101-.735 1.469l-50.366 29.005.735.734zm-40.807-8.444l90.07-52.136c1.103.367 2.206.367 3.309-.367s1.103-1.469 0-2.203-2.574-.734-3.677 0c-.735.367-1.103 1.101-.367 1.836l-88.232 51.034V54.522l67.644-38.918c1.103.367 2.206.367 3.309-.367s1.103-1.469 0-2.203-2.573-.734-3.676 0c-.736.367-1.103 1.101-.368 1.836l-68.012 39.286v16.889zm-38.234 30.841c-1.102-.367-2.205-.367-3.308.367s-1.103 1.469 0 2.203a3.34 3.34 0 0 0 3.676 0c.735-.367 1.103-1.101.368-1.835l148.155-85.18c1.103.367 2.206.367 3.309-.367s1.103-1.469 0-2.203-2.573-.734-3.676 0c-.736.367-1.103 1.101-.368 1.836l-148.156 85.18zm148.891-72.329l-82.717 47.73c-1.103-.367-2.206-.367-3.309.367s-1.102 1.469 0 2.203 2.574.734 3.677 0c.735-.367 1.103-1.102.367-1.836l80.144-46.261v15.42l-49.998 28.638c-1.103-.367-2.206-.367-3.308.367s-1.103 1.469 0 2.203 2.573.734 3.676 0c.735-.367 1.103-1.102.368-1.836l50.365-29.005.735-17.99zM513.898 54.89l1.103.734 90.805-52.503c1.103.367 2.206.367 3.309-.367s1.103-1.469 0-2.203-2.574-.734-3.677 0c-.735.367-1.103 1.101-.367 1.836L513.898 54.89zm-61.762 44.058c1.103.734 2.573.734 3.676 0 .735-.367 1.103-1.101.368-1.836l33.454-19.092V51.585l81.615-46.996c1.103.367 2.205.367 3.308-.367s1.103-1.469 0-2.203-2.573-.734-3.676 0c-.735.367-1.103 1.101-.368 1.836l-82.349 47.363v26.435l-33.087 19.092c-1.103-.367-2.206-.367-3.309.367-.735.367-.735 1.469.368 1.836zm198.521-53.972c-1.103-.734-2.573-.734-3.676 0-.736.367-1.103 1.101-.368 1.836l-80.144 46.261h-48.527l-35.293 20.194c-1.103-.367-2.206 0-2.941.367-1.103.734-1.103 1.469 0 2.203s2.574.734 3.677 0c1.102-.367 1.102-1.469.367-1.836l34.558-19.826h48.527l80.511-46.261c1.103.367 2.206.367 3.309-.367 1.103-1.101 1.103-1.836 0-2.57zM511.325 85.73h51.1l41.543-23.865c1.103.367 2.206.367 3.309-.367s1.102-1.469 0-2.203-2.574-.734-3.677 0c-.735.367-1.103 1.101-.367 1.836l-41.175 23.865h-51.101l-58.821 33.778c-1.103-.367-2.206-.367-3.309.367s-1.103 1.469 0 2.203a3.34 3.34 0 0 0 3.676 0c.736-.367 1.103-1.101.368-1.835l58.454-33.779z"/><path id="N" d="M108.911 299.406l-50.366 29.005c-1.103-.734-2.574-.367-3.676 0-1.103.735-1.103 1.469 0 2.203a3.34 3.34 0 0 0 3.676 0c.735-.367.735-1.101.735-1.468l50.365-29.005-.735-.735zm79.041-22.763c1.103.367 2.206.367 3.308-.367s1.103-1.469 0-2.203a3.34 3.34 0 0 0-3.676 0c-.735.367-1.103 1.101-.367 1.835l-148.156 85.18c-1.103-.367-2.206-.367-3.309.367s-1.103 1.469 0 2.203 2.573.734 3.676 0c.735-.367 1.103-1.101.368-1.836l148.156-85.179zm-102.937 9.179h48.527l35.293-20.194c1.103.367 2.206 0 2.941-.367 1.103-.734 1.103-1.469 0-2.203s-2.573-.734-3.676 0c-1.103.367-1.103 1.469-.368 1.836l-34.557 19.826H84.647L4.136 331.349c-1.103-.368-2.206-.368-3.309.367s-1.103 1.468 0 2.203 2.573.734 3.676 0c.735-.367 1.103-1.102.368-1.836l80.144-46.261zm-45.954 63.15l82.717-47.73c1.103.367 2.206.367 3.309-.367s1.103-1.469 0-2.203-2.574-.734-3.677 0c-.735.367-1.102 1.101-.367 1.836l-80.512 46.628v-15.42l49.998-28.638c1.103.367 2.206.367 3.309-.367s1.103-1.469 0-2.203a3.34 3.34 0 0 0-3.676 0c-.735.367-1.103 1.101-.368 1.835l-50.366 29.006-.368 17.623zm111.025-41.488l-90.07 52.135c-1.103-.367-2.206-.367-3.309.368s-1.103 1.468 0 2.203 2.573.734 3.676 0c.735-.368 1.103-1.102.368-1.836l87.864-50.667v14.686l-67.644 38.918c-1.103-.367-2.206-.367-3.309.367s-1.103 1.469 0 2.203 2.573.734 3.676 0c.735-.367 1.103-1.101.368-1.836l68.012-39.285.368-17.256zm-12.132 16.154l-1.103-.734-91.173 52.503c-1.103-.367-2.206-.367-3.309.367s-1.103 1.469 0 2.203 2.573.734 3.676 0c.735-.367 1.103-1.101.368-1.836l91.541-52.503zm65.071-66.087c-1.103-.735-2.574-.735-3.677 0-.735.367-1.103 1.101-.367 1.835l-58.454 33.779H89.426L47.884 317.03c-1.103-.368-2.206-.368-3.309.367s-1.103 1.468 0 2.203 2.573.734 3.676 0c.735-.367 1.103-1.102.368-1.836l41.175-23.865h51.101l58.821-33.778c1.103.367 2.206.367 3.309-.367s1.103-1.836 0-2.203zm-3.677 22.029c-1.103-.734-2.573-.734-3.676 0-.735.367-1.103 1.101-.368 1.836l-33.454 19.459v26.435l-81.614 46.628c-1.103-.367-2.206-.367-3.309.368s-1.103 1.468 0 2.203 2.573.734 3.676 0c.735-.368 1.103-1.102.368-1.836l81.982-47.363v-26.435l33.087-19.092c1.103.367 2.205.367 3.308-.367 1.103-.367 1.103-1.102 0-1.836z"/><path id="O" d="M197.786 149.881l27.94-59.478 161.758-25.334 101.467 58.377-27.94 59.846-161.758 24.967-101.467-58.378z"/><linearGradient id="P" gradientUnits="userSpaceOnUse"/></defs></svg>