<svg xmlns="http://www.w3.org/2000/svg" xmlns:xlink="http://www.w3.org/1999/xlink" width="730" height="514" fill="none" xmlns:v="https://vecta.io/nano"><style><![CDATA[.B{opacity:.4}.C{fill:#232323}.D{fill:#999}.E{fill:#c4c4c4}.F{fill:#fff}.G{fill:#f0f8ff}.H{fill:#ff6b00}.I{fill:#fc8230}.J{fill:#06033e}.K{opacity:.61}.L{fill:#ff8f3f}.M{fill:#e87323}.N{fill:#fc9956}]]></style><g clip-path="url(#f)"><path opacity=".07" d="M390.331 328.62l179.185 102.12c30.601 17.502 68.172 17.332 98.603-.169l41.821-24.129c4.25-2.379 4.25-8.496 0-11.044L485.874 265.581c-2.04-1.19-4.42-1.19-6.46 0l-89.253 51.994c-4.08 2.379-4.08 8.496.17 11.045z" fill="#000"/><g fill="#4c4c4c"><path d="M397.812 312.478l21.25-12.064-9.52-12.404s-15.64 15.123-15.13 16.312l3.4 8.156zm156.233 89.716l32.131-18.691s-21.93-11.384-22.95-11.384-14.281 8.666-14.281 8.666l5.1 21.409z"/></g><path d="M603.347 414.258c0 5.778-2.041 9.856-5.271 11.725-.17 0-10.2 5.947-10.2 5.947-3.4 1.869-1.19-2.379-6.29-5.268-10.2-5.947-18.531-20.22-18.531-31.944 0-5.777-5.44-5.777-2.04-7.816.17 0 10.881-5.947 10.881-6.117 3.4-1.869 7.99-1.53 12.92 1.359 10.2 5.947 18.531 20.39 18.531 32.114z" class="C"/><path d="M592.466 420.375c0 11.725-8.33 16.482-18.53 10.535s-18.531-20.22-18.531-31.944 8.331-16.482 18.531-10.535c10.2 5.777 18.53 20.22 18.53 31.944z" fill="#333"/><path d="M574.786 387.921c-4.93-2.888-9.35-3.228-12.75-1.529 3.06-.85 6.97-.17 11.05 2.209 10.201 5.947 18.531 20.22 18.531 31.944 0 6.117-2.21 10.365-5.78 12.065 4.59-1.19 7.48-5.778 7.48-12.744.17-11.725-8.16-25.998-18.531-31.945z" class="D"/><path d="M574.616 393.529c-7.82-4.588-14.28-.85-14.28 8.156s6.46 20.05 14.28 24.638 14.281.849 14.281-8.156-6.46-20.051-14.281-24.638zm5.441 18.011l4.42-.34c.68 0 1.53.85 1.7 1.869.34 1.359.34 2.549.34 3.908 0 1.19-.17 2.379-.34 3.399-.17.679-1.02.679-1.7-.17l-4.42-5.438c-.341-.509-.681-1.019-.681-1.529v-.34-.34c0-.679.34-1.019.681-1.019zm2.89-4.418l-4.421.34c-.34 0-.85-.17-1.19-.68-.17-.17-.34-.34-.34-.51-.34-.509-.68-1.019-.68-1.529v-5.777c0-.85.68-1.189 1.53-.51 2.04 1.869 3.911 4.248 5.441 6.797.34.849.17 1.869-.34 1.869zm-10.031-10.195v5.777c0 .51-.17.85-.68.85h-.34c-.34 0-.85-.17-1.19-.68l-4.42-5.437c-.68-.85-.85-1.869-.34-2.209 1.53-.85 3.4-1.02 5.44-.51.85.34 1.53 1.359 1.53 2.209zm-8.16 2.889l4.42 5.437c.34.51.68 1.019.68 1.529v.34.34c0 .51-.17.849-.68.849l-4.42.34c-.68 0-1.53-.849-1.7-1.869-.34-1.359-.34-2.549-.34-3.908s.17-2.379.34-3.398c.17-.68 1.02-.51 1.7.34zm1.53 12.913l4.42-.34c.34 0 .85.17 1.19.68.17.17.34.34.34.51.34.51.68 1.019.68 1.529v5.777c0 .85-.68 1.19-1.53.51-2.04-1.869-3.91-4.248-5.44-6.797-.51-.849-.34-1.869.34-1.869zm9.86 10.195v-5.777c0-.51.17-.849.68-.849h.34c.34 0 .85.169 1.19.679l4.421 5.438c.68.849.85 1.869.34 2.208-1.53.85-3.401 1.02-5.441.51-.68-.34-1.53-1.359-1.53-2.209z" class="C"/><path d="M573.766 393.868c-7.82-4.587-14.281-.849-14.281 8.156s6.461 20.051 14.281 24.638 14.28.85 14.28-8.156-6.46-20.05-14.28-24.638zm5.44 18.012l4.42-.34c.68 0 1.53.849 1.7 1.869.34 1.359.34 2.549.34 3.908 0 1.189-.17 2.379-.34 3.398-.17.68-1.02.68-1.7-.17l-4.42-5.437c-.34-.51-.68-1.019-.68-1.529v-.34-.34c0-.68.17-1.019.68-1.019zm2.72-4.418l-4.42.34c-.34 0-.85-.17-1.19-.68-.17-.17-.34-.34-.34-.51-.34-.51-.68-1.019-.68-1.529v-5.777c0-.85.68-1.19 1.53-.51 2.04 1.869 3.91 4.248 5.44 6.797.51.849.34 1.869-.34 1.869zm-9.86-10.195v5.777c0 .51-.17.85-.68.85h-.34c-.34 0-.85-.17-1.19-.68l-4.42-5.437c-.681-.85-.851-1.87-.341-2.209 1.531-.85 3.401-1.02 5.441-.51.85.34 1.53 1.359 1.53 2.209zm-8.331 2.888l4.421 5.438c.34.509.68 1.019.68 1.529v.34.34c0 .509-.17.849-.68.849l-4.421.34c-.68 0-1.53-.85-1.7-1.869-.34-1.359-.34-2.549-.34-3.908 0-1.19.17-2.379.34-3.398.17-.68 1.02-.51 1.7.339zm1.701 12.914l4.42-.34c.34 0 .85.17 1.19.68.17.17.34.34.34.51.34.509.68 1.019.68 1.529v5.777c0 .85-.68 1.19-1.53.51-2.04-1.869-3.91-4.248-5.441-6.797-.51-.849-.34-1.699.341-1.869zm9.86 10.195v-5.777c0-.51.17-.85.68-.85h.34c.34 0 .85.17 1.19.68l4.42 5.437c.68.85.85 1.869.34 2.209-1.53.85-3.4 1.02-5.44.51-.85-.34-1.53-1.359-1.53-2.209z" class="D"/><path d="M447.453 326.751c0 5.777-2.04 9.855-5.27 11.724-.17 0-10.2 5.947-10.2 5.947-3.4 1.87-1.19-2.378-6.291-5.267-10.2-5.947-18.53-20.22-18.53-31.944 0-5.778-5.44-5.778-2.04-7.817.17 0 10.88-5.947 10.88-6.117 3.4-1.869 7.99-1.529 12.921 1.36 10.2 5.947 18.53 20.39 18.53 32.114z" class="C"/><path d="M431.3 344.768c7.214-4.215 7.147-17.746-.151-30.222s-19.061-19.173-26.275-14.958-7.147 17.746.151 30.223 19.061 19.173 26.275 14.957z" fill="#333"/><path d="M419.062 300.414c-4.93-2.889-9.35-3.229-12.75-1.529 3.06-.85 6.97-.17 11.05 2.208 10.2 5.948 18.53 20.221 18.53 31.945 0 6.117-2.21 10.365-5.78 12.064 4.59-1.189 7.48-5.777 7.48-12.744 0-11.724-8.33-25.997-18.53-31.944z" class="D"/><path d="M418.722 306.021c-7.82-4.588-14.281-.849-14.281 8.156s6.461 20.05 14.281 24.638 14.28.85 14.28-8.156-6.46-20.05-14.28-24.638zm5.44 18.011l4.42-.339c.68 0 1.53.849 1.7 1.869.34 1.359.34 2.548.34 3.908 0 1.189-.17 2.379-.34 3.398-.17.68-1.02.68-1.7-.17l-4.42-5.437c-.34-.51-.68-1.02-.68-1.529v-.34-.34c0-.68.34-1.02.68-1.02zm2.89-4.417l-4.42.339c-.34 0-.85-.17-1.19-.679-.17-.17-.34-.34-.34-.51-.34-.51-.68-1.02-.68-1.529v-5.778c0-.849.68-1.189 1.53-.509 2.04 1.869 3.91 4.248 5.44 6.796.34.85.34 1.7-.34 1.87zm-9.86-10.196v5.778c0 .509-.17.849-.68.849h-.34c-.34 0-.85-.17-1.19-.679l-4.42-5.438c-.68-.849-.85-1.869-.34-2.209 1.53-.849 3.4-1.019 5.44-.509.68.339 1.53 1.359 1.53 2.208zm-8.33 2.889l4.42 5.437c.34.51.68 1.02.68 1.53v.34.339c0 .51-.17.85-.68.85l-4.42.34c-.68 0-1.531-.85-1.701-1.869-.34-1.36-.34-2.549-.34-3.908 0-1.19.17-2.379.34-3.399.17-.679 1.021-.51 1.701.34zm1.53 12.914l4.42-.34c.34 0 .85.17 1.19.68.17.17.34.339.34.509.34.51.68 1.02.68 1.53v5.777c0 .849-.68 1.189-1.53.51-2.04-1.87-3.91-4.248-5.44-6.797-.34-.85-.34-1.869.34-1.869zm9.86 10.195v-5.777c0-.51.17-.85.68-.85h.34c.34 0 .85.17 1.19.68l4.42 5.437c.68.85.85 1.869.34 2.209-1.53.85-3.4 1.019-5.44.51-.68-.34-1.53-1.36-1.53-2.209z" class="C"/><path d="M417.871 306.361c-7.82-4.588-14.28-.85-14.28 8.156s6.46 20.05 14.28 24.638 14.281.85 14.281-8.156-6.461-20.05-14.281-24.638zm5.44 18.011l4.421-.34c.68 0 1.53.85 1.7 1.869.34 1.36.34 2.549.34 3.909 0 1.189-.17 2.378-.34 3.398-.17.68-1.02.68-1.7-.17l-4.421-5.437c-.34-.51-.68-1.02-.68-1.53v-.339-.34c0-.68.34-1.02.68-1.02zm2.72-4.418l-4.42.34c-.34 0-.85-.17-1.19-.679-.17-.17-.34-.34-.34-.51-.34-.51-.68-1.02-.68-1.53v-5.777c0-.849.68-1.189 1.53-.509 2.04 1.869 3.91 4.247 5.44 6.796.51.85.34 1.869-.34 1.869zm-9.86-10.195v5.777c0 .51-.17.85-.68.85h-.34c-.34 0-.85-.17-1.19-.68l-4.42-5.437c-.68-.85-.85-1.869-.34-2.209 1.53-.849 3.4-1.019 5.44-.51.85.34 1.53 1.36 1.53 2.209zm-8.16 2.889l4.42 5.437c.34.51.68 1.02.68 1.53v.339.34c0 .51-.17.85-.68.85l-4.42.34c-.68 0-1.53-.85-1.7-1.869-.34-1.36-.34-2.549-.34-3.909 0-1.189.17-2.378.34-3.398.17-.68 1.02-.51 1.7.34zm1.53 12.914l4.42-.34c.34 0 .85.17 1.19.679.17.17.34.34.34.51.34.51.68 1.02.68 1.529v5.778c0 .849-.68 1.189-1.53.509-2.04-1.869-3.91-4.248-5.44-6.796-.51-.85-.34-1.869.34-1.869zm9.86 10.195v-5.778c0-.509.17-.849.68-.849h.34c.34 0 .85.17 1.19.68l4.42 5.437c.68.85.85 1.869.34 2.209-1.53.849-3.4 1.019-5.44.51-.85-.34-1.53-1.36-1.53-2.209z" class="D"/><path d="M634.798 281.893s3.74-10.535 7.48-6.287 2.04 20.05 2.04 20.05l-9.52-13.763z" fill="url(#B)"/><path d="M708.41 351.729c-5.95-11.045-67.832-65.758-100.643-91.416-32.811-25.827-77.522-45.028-88.062-48.596s-39.611-5.947-54.402-5.437c-17 .339-67.152 33.134-73.782 38.571 0 0-9.35 37.042-9.35 41.12 0 3.738 7.82 20.39 15.64 26.677v-1.869c0-13.594 9.691-19.201 21.591-12.234 11.9 6.796 21.591 23.448 21.591 37.212 0 .679-.001 1.529-.171 2.209l113.224 64.568c-.51-2.549-.85-4.927-.85-7.306 0-13.594 9.69-19.201 21.59-12.234 11.901 6.796 21.591 23.448 21.591 37.212 0 2.209-.34 4.248-.68 6.117l5.78 3.228c17.51 9.855 53.211-4.588 87.552-23.788 33.491-19.201 25.331-42.989 19.381-54.034z" fill="url(#C)"/><path d="M568.156 353.428c-22.1-22.429-24.141-41.12-37.911-61.85-13.6-20.73-64.432-42.309-74.632-43.839-9.35-1.359-46.241.17-64.092-3.228 0 0-.17 0-.17.17 0 0-9.35 37.042-9.35 41.12 0 3.738 7.82 20.39 15.64 26.677v-1.869c0-13.594 9.691-19.201 21.591-12.234 11.9 6.797 21.591 23.448 21.591 37.212 0 .679 0 1.529-.17 2.209l113.223 64.568c-.51-2.549-.85-4.927-.85-7.306 0-13.594 9.69-19.201 21.59-12.234 11.901 6.796 21.591 23.448 21.591 37.212 0 2.209-.34 4.248-.68 6.117l5.78 3.228c5.1 2.889 11.73 3.738 19.381 2.889.85-10.195 1.36-24.808-3.231-30.076-7.14-8.665-32.98-32.114-49.301-48.766z" class="E"/><path d="M453.913 242.472l52.191-29.735s-23.291-6.797-46.071.849-43.181 23.109-42.161 27.017c1.19 3.908 30.26 3.398 36.041 1.869z" fill="#333"/><g class="C"><path d="M467.683 213.416c5.44-1.869 11.05-2.888 16.321-3.568-7.311 0-15.641.849-23.971 3.568-22.781 7.646-43.181 23.109-42.161 27.017.17.85 1.53 1.359 3.57 1.869.85-4.927 22.44-20.9 46.241-28.886zm71.573 79.521c1.87-7.476 52.702-34.833 57.632-35.002s54.911 38.571 53.211 47.916-58.141 45.708-76.842 38.232c-20.741-8.326-35.531-44.689-34.001-51.146z"/></g><path d="M541.296 293.617c1.87-7.306 51.171-33.813 56.101-33.983 4.76-.17 53.382 37.551 51.682 46.557-1.7 9.175-56.442 44.518-74.632 37.042-20.231-7.986-34.681-43.329-33.151-49.616z" fill="#333"/><g class="C"><path d="M642.278 293.447c1.02 1.869 1.53 3.399 1.36 4.418-1.7 9.685-58.311 46.218-79.222 40.61 2.72 2.379 5.78 4.418 9.01 5.608 18.701 7.646 75.142-28.716 76.842-38.232.34-2.379-2.89-7.136-7.99-12.404zm-92.823 52.335l-133.113-77.483s29.751-19.37 52.531-11.384 56.952 31.944 63.072 46.218c6.12 14.103 17.51 42.649 17.51 42.649z"/></g><path d="M545.886 342.723l-125.974-73.234s28.221-18.351 49.642-10.875c21.59 7.477 53.721 30.076 59.671 43.669l16.661 40.44z" fill="#494949"/><path d="M642.277 395.228s6.801 12.404 10.371 12.574 12.75-3.059 30.941-13.764c11.73-6.796 16.83-11.554 18.02-15.122 1.19-3.739-1.7-16.822-1.7-16.822s-6.97 8.156-25.671 18.861c-14.96 8.326-31.961 14.273-31.961 14.273z" fill="#333"/><path d="M699.909 362.094l-1.19 1.189c.85 3.908 2.04 11.725 1.19 14.443-1.19 3.738-6.29 8.326-18.02 15.123-18.361 10.705-27.541 13.933-30.941 13.763-.34 0-.68-.17-1.02-.34 1.02.85 1.87 1.53 2.72 1.53 3.57.17 12.75-3.059 30.941-13.764 11.73-6.796 16.83-11.554 18.02-15.122 1.19-3.739-1.7-16.822-1.7-16.822z" class="C"/><path d="M637.348 396.077l8.84 13.934s-11.22 2.718-18.701 2.208c-7.48-.339-13.43-5.437-15.64-9.345-2.38-3.908-2.72-11.215-2.72-11.215s9.01 4.078 15.98 5.098 12.241-.68 12.241-.68z" class="F"/><path d="M637.348 396.077l8.84 13.934s-12.92-1.7-22.781-6.797c-10.03-5.098-14.28-11.555-14.28-11.555s9.01 4.078 15.98 5.098 12.241-.68 12.241-.68z" class="D"/><path d="M702.97 361.074l1.7 15.463s8.33-6.797 8.84-12.404-4.08-11.724-4.08-11.724-1.36 4.587-6.46 8.665z" class="F"/><path d="M702.97 361.074l1.7 15.463s4.08-9.006 4.59-14.613.34-9.515.34-9.515-1.53 4.587-6.63 8.665z" class="D"/><path d="M394.751 241.622s-4.08 1.87-5.44 4.078c-1.36 2.379-3.23 22.43-3.23 22.43l12.41-20.73c.68-1.869-3.74-5.778-3.74-5.778z" fill="#d62d69"/><path d="M638.368 402.024l-3.57 7.477s-10.71-6.627-9.69-8.836c1.19-2.379 13.26 1.359 13.26 1.359z" fill="url(#D)"/><path d="M633.607 407.292c0 1.869 1.36 2.549 2.89 1.699 1.7-1.019 2.891-3.228 2.891-5.098s-1.361-2.548-2.891-1.699c-1.53 1.02-2.89 3.229-2.89 5.098z" class="G"/><path d="M630.038 401.854l-3.57 7.477s-10.881-6.627-9.691-9.006c1.021-2.209 13.261 1.529 13.261 1.529z" fill="url(#E)"/><path d="M625.277 407.122c0 1.869 1.36 2.719 3.06 1.699s3.06-3.228 3.06-5.097-1.36-2.719-3.06-1.7-3.06 3.229-3.06 5.098z" class="G"/><path d="M623.407 397.607l-3.06 6.626s-9.52-5.947-8.5-7.986c.85-2.039 11.56 1.36 11.56 1.36z" fill="#ff7918"/><path d="M619.327 402.194c0 1.7 1.19 2.379 2.55 1.53s2.55-2.889 2.55-4.588-1.19-2.379-2.55-1.529c-1.36 1.019-2.55 2.888-2.55 4.587z" fill="#ff9f59"/><path d="M709.6 362.774l-3.06 6.626s-4.08-4.587-3.06-6.626c1.02-1.87 6.12 0 6.12 0z" fill="url(#F)"/><path d="M705.52 367.531c0 1.699 1.19 2.379 2.55 1.529 1.53-.849 2.55-2.888 2.55-4.587s-1.19-2.379-2.55-1.53-2.55 2.889-2.55 4.588z" class="G"/><path d="M711.47 357.166l-2.38 5.098s-3.4-2.549-2.72-4.078 5.1-1.02 5.1-1.02z" fill="url(#G)"/><path d="M708.24 360.904c0 1.36.85 1.87 2.04 1.19s2.04-2.209 2.04-3.568-.85-1.869-2.04-1.19-2.04 2.209-2.04 3.568z" class="G"/><path d="M416.172 267.96l135.154 79.011 23.97 25.148-2.38 2.549-20.91-7.137-151.985-88.357 16.151-11.214z" fill="url(#H)"/><path d="M397.811 312.478v-1.869c0-8.156 3.4-13.424 8.84-14.783l-23.8-13.763c-.34 1.869-.51 3.228-.51 3.738-.17 3.738 7.65 20.22 15.47 26.677z" fill="url(#I)"/><path d="M605.557 404.403s16.15 9.686 22.78 9.855c10.371.17 31.111-4.927 52.192-17.671 32.301-19.88 33.491-32.624 33.491-32.624s2.55 15.462 1.53 22.769-7.48 16.652-35.701 31.435c-27.201 14.273-49.302 16.991-59.842 15.802-10.71-1.19-18.53-4.588-18.53-4.588l4.08-24.978z" class="E"/><path d="M629.527 416.297c10.371.17 31.111-4.927 52.192-17.671 24.82-15.293 31.281-26.337 32.811-30.755l-.51-4.078s-1.19 12.744-33.491 32.624c-20.911 12.914-41.651 18.011-52.192 17.672-6.63-.17-22.78-9.856-22.78-9.856s12.24 11.895 23.97 12.064z" fill="url(#J)"/><use xlink:href="#g" fill="url(#K)"/><use xlink:href="#g" class="E"/><g class="C"><path d="M533.985 336.776l15.471 9.006-12.071-29.906-3.4 20.9zm-78.032-81.9c-19.721.34-39.611 13.254-39.611 13.254l25.671 14.952c.68-3.228 1.36-7.306 2.38-11.384 1.36-6.457 8.67-14.103 11.56-16.822z"/></g><path d="M546.396 285.801c36.551 10.875 74.972 10.535 97.412 9.515-13.26-14.952-43.181-37.382-46.921-37.212-3.74 0-35.871 16.822-50.491 27.697z" fill="#545454"/><path d="M685.629 413.409C710.28 399.476 713 390.81 714.02 387.072c1.7-5.608-1.02.17-6.8 5.777-5.781 5.777-7.991 7.136-24.651 16.822-12.24 6.966-26.351 12.913-38.591 15.462-11.56 2.549-15.301 3.059-15.811 3.908-.85 1.53 18.531 6.117 57.462-15.632z" class="D"/><path d="M713.68 385.542c0 .34-.17.68-.34 1.19-1.19 3.568-3.74 12.404-28.391 26.337-33.491 18.861-52.531 18.011-56.611 16.312 1.53 1.699 20.91 4.588 57.291-15.972C710.28 399.476 713 390.81 714.02 387.072c.85-2.549.68-2.719-.34-1.53z" fill="url(#L)"/><path d="M651.288 304.152s0 .34-.34.85c6.29 5.097 53.892 42.819 47.772 51.485-6.631 9.515-51.002 38.911-68.512 33.473-15.981-4.927-47.092-39.421-51.342-44.348-1.19.34-2.04.51-2.04.51s35.361 40.78 53.552 46.387 64.091-24.808 70.892-34.493c6.8-9.855-49.982-53.864-49.982-53.864z" class="E"/><path opacity=".2" d="M637.348 396.077s-4.59 13.424-20.911 7.307c-6.8-2.549-7.31-11.725-7.31-11.725s9.01 4.078 15.98 5.098 12.241-.68 12.241-.68z" class="F"/><path d="M480.434 305.511l13.77 7.986 4.93-40.95-7.65-4.757-11.05 37.721z" class="C"/><path d="M548.265 344.932s-17.17 13.933-26.01 9.346 17-15.123 17-15.123l9.01 5.777z" fill="#4c4c4c"/><path d="M537.726 331.679c-2.55-.17-15.13.849-17.17 6.287s29.24 9.005 30.26 7.816c.85-1.19-7.48-13.594-13.09-14.103z" class="E"/><path d="M537.215 332.698c-2.04-.17-11.9.34-13.43 4.248s21.59 6.287 22.44 5.607c.68-1.019-4.59-9.515-9.01-9.855z" fill="url(#M)"/><path d="M422.802 267.79c28.901 7.646 58.141 8.835 79.732 8.326-10.88-7.477-22.951-14.104-32.811-17.502-17.51-6.117-39.441 4.758-46.921 9.176z" fill="#545454"/><path d="M683.249 374.328c0 2.039-2.72 5.437-6.29 7.476-3.4 2.039-6.29 1.869-6.29-.17s2.72-5.437 6.29-7.476c3.4-2.039 6.29-2.039 6.29.17z" fill="url(#N)"/><path d="M549.795 346.461c-.17.34-3.74 9.516-4.59 23.109-.51 10.195-.68 18.011-.68 21.41l-57.802-33.304c-.17-4.248-.51-21.41 1.02-40.101 1.701-21.409 9.521-47.406 9.521-47.576l-1.87-.51c0 .17-7.821 26.337-9.521 48.086-1.36 17.332-1.19 33.474-1.02 39.251l-32.981-19.03c-1.02-2.039-6.8-14.613-13.09-28.716-6.63-14.783-1.19-27.187-1.19-27.357l-1.87-.85c-.17.51-5.95 13.254 1.19 29.056l13.26 29.056.17.34 96.393 55.563v-1.699c0-.17 0-9.516.68-22.939.68-13.254 4.42-22.259 4.42-22.429l-2.04-1.36z" fill="url(#O)"/><g opacity=".29" class="H"><path d="M621.367 463.704c-.17 0-.17 0 0 0h-3.4a.8.8 0 1 1 0-1.699h3.4a.8.8 0 0 1 .85.85c-.17.51-.51.849-.85.849zm5.1 0a.8.8 0 1 1 0-1.699h3.4a.8.8 0 1 1 0 1.699h-3.4zm-13.6-.339c-.17 0-.17 0 0 0-1.19 0-2.38-.17-3.4-.17-.51 0-.85-.51-.85-.85 0-.51.51-.849.85-.849 1.19.169 2.21.169 3.4.169.51 0 .85.51.85.85-.17.51-.51.85-.85.85zm21.93 0a.8.8 0 1 1 0-1.7c1.19 0 2.21-.169 3.4-.169a.8.8 0 1 1 0 1.699l-3.4.17h0zm-30.43-.68s-.17 0 0 0l-3.571-.34c-.51 0-.85-.51-.68-1.019 0-.51.51-.85 1.02-.68 1.19.17 2.211.34 3.401.34.51 0 .85.509.68 1.019-.17.34-.51.68-.85.68zm38.931 0c-.51 0-.85-.34-.85-.68 0-.51.34-.849.68-1.019 1.19-.17 2.21-.34 3.4-.34.51 0 .85.34 1.02.68 0 .509-.34.849-.68 1.019-1.19 0-2.21.17-3.57.34h0zm-47.432-1.189l-3.57-.51c-.51 0-.85-.51-.68-1.02 0-.509.51-.679 1.02-.679l3.4.509c.51 0 .85.51.68 1.02 0 .34-.34.68-.85.68zm55.932 0c-.34 0-.85-.34-.85-.68 0-.51.17-.85.68-1.02l3.4-.509c.51 0 .85.17 1.02.679 0 .51-.17.85-.68 1.02l-3.57.51zm-64.262-1.53h-.17c-1.19-.17-2.21-.51-3.4-.679-.51-.17-.68-.51-.68-1.02.17-.51.51-.68 1.02-.68 1.02.34 2.21.51 3.23.68.51.17.68.51.68 1.02s-.34.679-.68.679zm72.592 0c-.34 0-.68-.34-.85-.679-.17-.51.17-.85.68-1.02 1.19-.17 2.21-.51 3.23-.68.51-.17.85.17 1.02.68s-.17.85-.68 1.02c-1.02.339-2.21.509-3.4.679h0zm-80.922-2.039h-.17l-3.23-.849c-.51-.17-.68-.68-.51-1.02.17-.51.68-.68 1.02-.51 1.02.34 2.21.68 3.23.85.51.17.68.51.68 1.02-.17.339-.51.509-1.02.509zm89.252 0c-.34 0-.68-.17-.85-.679s.17-.85.68-1.02c1.02-.34 2.21-.68 3.23-.85.51-.169.85.17 1.02.51.17.51-.17.85-.51 1.02l-3.23 1.019h-.34zm-97.242-2.379h-.34c-1.02-.339-2.21-.679-3.23-1.189-.51-.17-.68-.68-.51-1.02.17-.509.68-.679 1.02-.509l3.23 1.189c.51.17.68.68.51 1.02 0 .339-.34.509-.68.509zm105.233 0c-.34 0-.68-.17-.851-.509-.17-.51.171-.85.511-1.02 1.02-.34 2.21-.68 3.23-1.189.51-.17.85 0 1.02.509s0 .85-.51 1.02l-3.23 1.189c0-.17 0 0-.17 0zm-113.224-3.058h-.34c-1.02-.51-2.04-.85-3.23-1.359-.51-.17-.68-.68-.51-1.19s.68-.68 1.19-.51l3.06 1.36c.51.17.68.679.51 1.189-.17.34-.34.51-.68.51zm121.214 0c-.34 0-.68-.17-.85-.51-.17-.51 0-.849.51-1.189l3.06-1.36c.51-.17.85 0 1.19.51s0 .85-.51 1.19c-1.02.509-2.04.849-3.23 1.359.17 0 0 0-.17 0zm-129.034-3.398c-.17 0-.34 0-.34-.17l-3.06-1.53c-.34-.17-.51-.679-.34-1.189.17-.34.68-.51 1.19-.34l3.06 1.529c.34.17.51.68.34 1.19-.17.34-.51.51-.85.51zm136.854-.17c-.34 0-.68-.17-.68-.51-.17-.34 0-.85.34-1.19l3.06-1.529c.34-.17.85 0 1.19.34.17.34 0 .85-.34 1.189l-3.06 1.53c-.34.17-.34.17-.51.17zm-144.334-3.908c-.17 0-.34 0-.51-.17l-2.89-1.869c-.34-.34-.51-.85-.17-1.19s.85-.51 1.19-.17c.85.68 1.87 1.19 2.89 1.869.34.17.51.85.34 1.19a1.3 1.3 0 0 1-.85.34zm151.814-.17c-.34 0-.51-.17-.68-.34-.17-.34-.17-.85.34-1.19 1.02-.509 1.87-1.189 2.89-1.869.34-.34.85-.17 1.19.17s.17.85-.17 1.19l-2.89 1.869c-.51.17-.51.17-.68.17zm-158.784-4.588c-.17 0-.34 0-.51-.17l-2.72-2.039c-.34-.34-.34-.85-.17-1.189.34-.34.85-.34 1.19-.17l2.72 2.039c.34.339.51.849.17 1.189-.17.17-.51.34-.68.34zm165.754 0c-.34 0-.51-.17-.68-.34-.34-.34-.17-.85.17-1.189l2.72-2.039c.34-.34.85-.17 1.19.17s.17.849-.17 1.189l-2.72 2.039c-.17 0-.34.17-.51.17zm-172.384-5.438c-.17 0-.34.001-.51-.169-.85-.85-1.7-1.53-2.38-2.379a.82.82 0 1 1 1.19-1.19l2.38 2.379a.82.82 0 0 1 0 1.19c-.17.17-.51.169-.68.169zm179.015 0c-.17 0-.51-.169-.68-.339a.82.82 0 0 1 0-1.19c.85-.849 1.7-1.529 2.38-2.379a.82.82 0 1 1 1.19 1.19c-.85.849-1.53 1.699-2.38 2.379-.17.17-.34.339-.51.339zm-184.796-6.117c-.17 0-.51-.169-.68-.339l-2.04-2.719c-.34-.34-.17-.85.17-1.189s.85-.17 1.19.169l2.04 2.719c.34.34.17.85-.17 1.19-.17.169-.34.169-.51.169zm190.576-.169c-.17 0-.34 0-.51-.17-.34-.34-.34-.85-.17-1.19l2.04-2.718c.34-.34.85-.51 1.19-.17s.51.849.17 1.189l-2.04 2.719c-.17.34-.51.34-.68.34zm-195.506-6.797c-.34 0-.51-.17-.68-.51-.51-1.019-1.19-2.039-1.53-3.058-.17-.51 0-.85.34-1.19.34-.17.85 0 1.19.34l1.53 2.889c.17.339.17.849-.34 1.189-.17.34-.34.34-.51.34zm200.266-.17c-.17 0-.34 0-.34-.17-.34-.17-.51-.68-.34-1.189l1.53-2.889c.17-.51.68-.68 1.19-.34.51.17.68.68.34 1.19l-1.53 3.058c-.34.17-.51.34-.85.34zm-203.666-7.476c-.34 0-.68-.17-.85-.51l-1.02-3.398c-.17-.51.17-.85.68-1.02s.85.17 1.02.68c.17 1.019.51 2.209.85 3.228.17.51-.17.85-.51 1.02 0-.17 0 0-.17 0zm207.066-.17h-.34c-.51-.17-.68-.68-.51-1.02.34-1.019.68-2.209.85-3.228.17-.51.51-.68 1.02-.68.51.17.68.51.68 1.02l-.85 3.398c-.17.17-.51.51-.85.51zm-208.766-8.156a.8.8 0 0 1-.85-.85c-.17-1.189-.17-2.379-.17-3.398a.8.8 0 1 1 1.7 0c0 1.019 0 2.209.17 3.228 0 .51-.34 1.02-.85 1.02zm210.466-.17c-.51 0-.85-.51-.85-.85.17-1.019.17-2.039.17-3.228a.8.8 0 1 1 1.7 0c0 1.019 0 2.209-.17 3.228a.8.8 0 0 1-.85.85z"/></g><g class="H"><path opacity=".51" d="M525.654 309.25c-26.351 0-52.702-5.778-72.762-17.332-19.551-11.215-30.261-26.337-30.261-42.309s10.71-30.925 30.261-42.31c40.121-23.109 105.573-23.109 145.694 0 19.55 11.215 30.26 26.337 30.26 42.31s-10.71 30.925-30.26 42.309l-.17-.34.17.34c-20.231 11.554-46.582 17.332-72.932 17.332zm0-118.603c-26.181 0-52.532 5.777-72.422 17.332-19.211 11.044-29.921 25.827-29.921 41.63 0 15.632 10.54 30.415 29.921 41.629 39.951 23.109 104.892 23.109 144.844 0 19.21-11.044 29.92-25.827 29.92-41.629 0-15.633-10.54-30.416-29.92-41.63-20.061-11.555-46.242-17.332-72.422-17.332z"/><path opacity=".29" d="M525.655 325.222c-33.491 0-66.982-7.307-92.483-22.089-24.821-14.274-38.421-33.304-38.421-53.524s13.6-39.251 38.421-53.524c51.001-29.396 133.794-29.396 184.795 0 24.821 14.273 38.421 33.303 38.421 53.524s-13.6 39.25-38.421 53.524c-25.501 14.782-58.822 22.089-92.312 22.089zm0-150.547c-33.321 0-66.642 7.306-91.973 21.919-24.481 14.104-38.081 32.964-38.081 52.845s13.43 38.741 38.081 52.844c50.831 29.226 133.284 29.226 184.115 0 24.481-14.103 38.081-32.964 38.081-52.844s-13.43-38.741-38.081-52.845c-25.501-14.613-58.822-21.919-92.142-21.919z"/><path opacity=".8" d="M525.655 296.676c-20.741 0-41.651-4.588-57.462-13.764-15.47-8.835-23.8-20.73-23.8-33.303s8.5-24.468 23.8-33.304c31.621-18.181 83.133-18.181 114.753 0 15.471 8.836 23.801 20.73 23.801 33.304s-8.5 24.468-23.801 33.303l-.17-.339.17.339c-15.81 9.176-36.551 13.764-57.291 13.764zm0-93.285c-20.571 0-41.311 4.588-56.952 13.593-15.13 8.666-23.46 20.391-23.46 32.625s8.33 23.958 23.46 32.624c31.451 18.181 82.622 18.181 114.073 0 15.131-8.666 23.461-20.39 23.461-32.624 0-12.404-8.33-23.959-23.461-32.625-15.81-9.175-36.551-13.593-57.121-13.593z"/></g><path d="M493.524 231.088l-1.87 1.359c-.85.68-.85 2.039.17 2.549l64.262 37.891c.51.34 1.19.34 1.7 0l7.31-4.418c.68-.509.68-1.529 0-1.869l-3.91-2.209-64.262-35.682-3.4 2.379z" class="C"/><mask id="A" mask-type="alpha" maskUnits="userSpaceOnUse" x="491" y="172" width="113" height="100"><path d="M559 272l-68-39.5 2.5-60.5h110l-7.5 80.5-37 19.5z" class="E"/></mask><g mask="url(#A)"><path d="M561.853 254.043c0-20.39-14.28-45.198-31.96-55.393-8.841-5.098-16.831-5.608-22.611-2.209l-6.12 3.568 1.7.17c-3.23 3.908-5.1 9.685-5.1 16.992 0 20.39 14.28 45.198 31.961 55.393 6.12 3.568 11.73 4.757 16.66 4.248l-.17 1.699 6.12-3.568.17-.17c5.78-3.569 9.35-10.705 9.35-20.73z" fill="url(#P)"/><path d="M546.394 278.367c12.521-7.226 12.549-30.608.062-52.226s-32.762-33.283-45.284-26.057-12.549 30.607-.061 52.225 32.761 33.283 45.283 26.058z" class="L"/><path d="M534.509 263.49l4.76-23.618-26.351-23.449-4.76 23.449 26.351 23.618z" class="M"/><path d="M532.639 264.68l4.93-23.449-26.351-23.619-4.93 23.619 26.351 23.449z" class="N"/><path d="M506.288 241.231h15.641l-10.711-23.619-4.93 23.619z" class="I"/><path d="M537.569 241.231h-15.64l10.71 23.449 4.93-23.449z" class="I"/></g><path d="M635.137 220.043c0-19.031-13.26-41.97-29.75-51.485-8.161-4.758-15.641-5.267-21.081-2.039l-5.61 3.228 1.7.17c-2.89 3.569-4.76 9.006-4.76 15.803 0 19.03 13.26 41.969 29.751 51.485 5.61 3.228 10.88 4.418 15.47 3.908l-.17 1.529 5.78-3.398.17-.17c5.27-3.059 8.5-9.686 8.5-19.031z" fill="url(#Q)"/><path d="M620.782 242.615c11.627-6.71 11.653-28.422.057-48.495s-30.421-30.906-42.049-24.196-11.653 28.421-.057 48.494 30.421 30.907 42.049 24.197z" class="L"/><path d="M565.775 138.143c11.05-15.463 13.6-41.97 5.61-59.131-3.91-8.666-9.69-13.254-15.98-13.933l-6.461-.51 1.19 1.019c-4.59 1.189-9.01 4.588-12.92 10.195-11.05 15.462-13.6 41.97-5.61 59.131 2.72 5.948 6.29 10.026 10.2 12.065l-1.02 1.189 6.63.51h.34c6.12.509 12.581-2.889 18.021-10.535z" fill="url(#R)"/><path d="M569.107 108.739c2.217-23.073-6.819-42.817-20.184-44.1s-25.996 16.38-28.214 39.453 6.819 42.817 20.183 44.1 25.997-16.381 28.215-39.453z" class="L"/><path d="M493.354 234.316l.17-3.228-1.87 1.529c-.85.679-.85 2.039.17 2.549l1.53 1.019v-1.189-.68z" fill="#1c4684"/><path opacity=".07" d="M247.867 490.551L2.381 348.84c-3.57-2.039-3.06-5.607 1.02-7.986l157.594-90.906c4.08-2.378 10.37-2.718 13.94-.509L420.422 391.15c3.57 2.039 3.06 5.607-1.02 7.986l-157.594 90.906c-4.08 2.378-10.371 2.548-13.941.509z" fill="#000"/><path d="M488.424 179.773L243.787 38.741c-1.7-1.02-3.4-1.189-4.93-.68l-4.59 1.529 1.53.34c-.68.68-1.19 1.699-1.53 2.719l-55.251 179.433c-1.361 4.418.68 9.855 4.42 12.064l244.636 141.202c.51.339 1.19.509 1.87.679l-.68 1.36 4.25-1.53c1.7-.679 3.23-2.209 3.911-4.587l55.251-179.433c1.53-4.418-.34-9.855-4.25-12.064z" fill="url(#S)"/><path d="M419.402 382.144L177.996 242.812c-3.571-2.039-9.691-1.869-13.941.51L7.991 333.378l-5.27-2.039 1.53 7.306c.17 1.02 1.02 2.209 2.38 2.889l243.786 140.691c3.571 2.039 9.691 1.87 13.941-.509l156.404-90.226c1.87-1.19 3.06-2.549 3.4-3.908l1.53-7.137-6.29 1.699z" class="H"/><path d="M250.587 475.939L5.1 334.227c-3.57-2.039-3.06-5.607 1.02-7.986l157.595-90.905c4.08-2.379 10.37-2.719 13.94-.51l245.487 141.541c3.57 2.039 3.06 5.607-1.02 7.986l-157.595 90.906c-4.08 2.549-10.37 2.719-13.94.68z" fill="url(#T)"/><path d="M422.121 382.484L264.527 473.39c-4.08 2.379-10.37 2.718-13.94.509L5.1 332.358c-1.19-.679-1.87-1.529-2.21-2.548-.51 1.699.17 3.228 2.21 4.417l245.487 141.712c3.57 2.039 9.86 1.869 13.94-.51l157.594-90.906c2.72-1.529 3.74-3.738 3.23-5.437-.34 1.189-1.36 2.378-3.23 3.398z" fill="url(#U)"/><g class="B J"><use xlink:href="#h" class="B"/><use xlink:href="#i" class="B"/><use xlink:href="#j" class="B"/><use xlink:href="#k" class="B"/><use xlink:href="#l" class="B"/><use xlink:href="#m" class="B"/><use xlink:href="#n" class="B"/><use xlink:href="#o" class="B"/><use xlink:href="#p" class="B"/><use xlink:href="#q" class="B"/><use xlink:href="#r" class="B"/><use xlink:href="#s" class="B"/><use xlink:href="#t" class="B"/><use xlink:href="#u" class="B"/><use xlink:href="#v" class="B"/><use xlink:href="#w" class="B"/><use xlink:href="#x" class="B"/><use xlink:href="#y" class="B"/><use xlink:href="#z" class="B"/><use xlink:href="#AA" class="B"/><use xlink:href="#AB" class="B"/><use xlink:href="#AC" class="B"/><use xlink:href="#AD" class="B"/><path d="M274.048 368.211l-8.33-4.758c-.68-.34-.51-1.019.17-1.529l8.16-4.758c.85-.509 1.87-.509 2.55-.17l8.331 4.758c.68.34.51 1.02-.17 1.529l-8.161 4.758c-.68.51-1.87.51-2.55.17z" class="B"/><use xlink:href="#AE" class="B"/><path d="M299.548 382.994l-8.33-4.758c-.68-.34-.51-1.019.17-1.529l8.16-4.758c.85-.51 1.87-.51 2.55-.17l8.331 4.758c.68.34.51 1.019-.17 1.529l-8.161 4.758c-.68.51-1.87.51-2.55.17z" class="B"/><use xlink:href="#AF" class="B"/><use xlink:href="#AG" class="B"/><use xlink:href="#AH" class="B"/><use xlink:href="#AI" class="B"/><path d="M193.295 307.211l-8.33-4.758c-.68-.34-.51-1.02.17-1.529l8.16-4.758c.85-.51 1.87-.51 2.55-.17l8.331 4.758c.68.34.51 1.019-.17 1.529l-8.161 4.758c-.68.509-1.87.679-2.55.17z" class="B"/><use xlink:href="#AJ" class="B"/><use xlink:href="#AK" class="B"/><use xlink:href="#AL" class="B"/><use xlink:href="#AM" class="B"/><use xlink:href="#AN" class="B"/><use xlink:href="#AO" class="B"/><use xlink:href="#AP" class="B"/><use xlink:href="#AQ" class="B"/><use xlink:href="#AR" class="B"/><use xlink:href="#AS" class="B"/><use xlink:href="#AT" class="B"/><use xlink:href="#AU" class="B"/><path d="M187.345 289.369l-8.33-4.757c-.68-.34-.51-1.02.17-1.53l8.16-4.757c.85-.51 1.87-.51 2.55-.17l8.33 4.757c.68.34.51 1.02-.17 1.53l-8.16 4.757c-.68.51-1.87.68-2.55.17z" class="B"/><use xlink:href="#AV" class="B"/><use xlink:href="#AW" class="B"/><use xlink:href="#AX" class="B"/><use xlink:href="#AY" class="B"/><use xlink:href="#AZ" class="B"/><use xlink:href="#Aa" class="B"/><use xlink:href="#Ab" class="B"/><path d="M325.899 354.278l-8.33-4.758c-.68-.34-.51-1.019.17-1.529l2.72-1.529c.85-.51 1.87-.51 2.55-.17l8.33 4.757c.68.34.51 1.02-.17 1.53l-2.72 1.529c-.68.51-1.87.51-2.55.17z" class="B"/><use xlink:href="#Ac" class="B"/><use xlink:href="#Ad" class="B"/><use xlink:href="#Ae" class="B"/><use xlink:href="#Af" class="B"/><path d="M251.268 326.241l-8.33-4.757c-.68-.34-.51-1.02.17-1.53l8.16-4.757c.85-.51 1.87-.51 2.55-.17l8.33 4.757c.68.34.51 1.02-.17 1.53l-8.16 4.757c-.68.51-1.87.68-2.55.17zm12.75 7.477l-8.33-4.758c-.68-.34-.51-1.019.17-1.529l8.16-4.758c.85-.51 1.87-.51 2.55-.17l8.33 4.758c.68.34.51 1.019-.17 1.529l-8.16 4.758c-.68.51-1.87.51-2.55.17z" class="B"/><use xlink:href="#Ag" class="B"/><use xlink:href="#Ah" class="B"/><use xlink:href="#Ai" class="B"/><use xlink:href="#Aj" class="B"/><path d="M328.109 370.59l-8.33-4.758c-.68-.34-.51-1.02.17-1.529l8.16-4.758c.85-.51 1.87-.51 2.55-.17l8.33 4.758c.68.34.51 1.019-.17 1.529l-8.16 4.758c-.68.51-1.87.51-2.55.17z" class="B"/><use xlink:href="#Ak" class="B"/><use xlink:href="#Al" class="B"/><use xlink:href="#Am" class="B"/><use xlink:href="#An" class="B"/><use xlink:href="#Ao" class="B"/><use xlink:href="#Ap" class="B"/><use xlink:href="#Aq" class="B"/><use xlink:href="#Ar" class="B"/><use xlink:href="#As" class="B"/><use xlink:href="#At" class="B"/><use xlink:href="#Au" class="B"/></g><g class="D"><use xlink:href="#h"/><use xlink:href="#i"/><use xlink:href="#j"/><use xlink:href="#k"/><use xlink:href="#l"/><use xlink:href="#m"/><use xlink:href="#n"/><use xlink:href="#o"/><use xlink:href="#p"/><use xlink:href="#q"/><use xlink:href="#r"/><use xlink:href="#s"/><use xlink:href="#t"/><use xlink:href="#u"/><use xlink:href="#v"/><use xlink:href="#w"/><use xlink:href="#x"/><use xlink:href="#y"/><use xlink:href="#z"/><use xlink:href="#AA"/><use xlink:href="#AB"/><use xlink:href="#AC"/><use xlink:href="#AD"/><path d="M274.048 368.211l-8.33-4.758c-.68-.34-.51-1.019.17-1.529l8.16-4.758c.85-.509 1.87-.509 2.55-.17l8.331 4.758c.68.34.51 1.02-.17 1.529l-8.161 4.758c-.68.51-1.87.51-2.55.17z"/><use xlink:href="#AE"/><path d="M299.548 382.994l-8.33-4.758c-.68-.34-.51-1.019.17-1.529l8.16-4.758c.85-.51 1.87-.51 2.55-.17l8.331 4.758c.68.34.51 1.019-.17 1.529l-8.161 4.758c-.68.51-1.87.51-2.55.17z"/><use xlink:href="#AF"/><use xlink:href="#AG"/><use xlink:href="#AH"/><use xlink:href="#AI"/><path d="M193.295 307.211l-8.33-4.758c-.68-.34-.51-1.02.17-1.529l8.16-4.758c.85-.51 1.87-.51 2.55-.17l8.331 4.758c.68.34.51 1.019-.17 1.529l-8.161 4.758c-.68.509-1.87.679-2.55.17z"/><use xlink:href="#AJ"/><use xlink:href="#AK"/><use xlink:href="#AL"/><use xlink:href="#AM"/><use xlink:href="#AN"/><use xlink:href="#AO"/><use xlink:href="#AP"/><use xlink:href="#AQ"/><use xlink:href="#AR"/><use xlink:href="#AS"/><use xlink:href="#AT"/><use xlink:href="#AU"/><path d="M187.345 289.369l-8.33-4.757c-.68-.34-.51-1.02.17-1.53l8.16-4.757c.85-.51 1.87-.51 2.55-.17l8.33 4.757c.68.34.51 1.02-.17 1.53l-8.16 4.757c-.68.51-1.87.68-2.55.17z"/><use xlink:href="#AV"/><use xlink:href="#AW"/><use xlink:href="#AX"/><use xlink:href="#AY"/><use xlink:href="#AZ"/><use xlink:href="#Aa"/><use xlink:href="#Ab"/><path d="M325.899 354.278l-8.33-4.758c-.68-.34-.51-1.019.17-1.529l2.72-1.529c.85-.51 1.87-.51 2.55-.17l8.33 4.757c.68.34.51 1.02-.17 1.53l-2.72 1.529c-.68.51-1.87.51-2.55.17z"/><use xlink:href="#Ac"/><use xlink:href="#Ad"/><use xlink:href="#Ae"/><use xlink:href="#Af"/><path d="M251.268 326.241l-8.33-4.757c-.68-.34-.51-1.02.17-1.53l8.16-4.757c.85-.51 1.87-.51 2.55-.17l8.33 4.757c.68.34.51 1.02-.17 1.53l-8.16 4.757c-.68.51-1.87.68-2.55.17zm12.75 7.477l-8.33-4.758c-.68-.34-.51-1.019.17-1.529l8.16-4.758c.85-.51 1.87-.51 2.55-.17l8.33 4.758c.68.34.51 1.019-.17 1.529l-8.16 4.758c-.68.51-1.87.51-2.55.17z"/><use xlink:href="#Ag"/><use xlink:href="#Ah"/><use xlink:href="#Ai"/><use xlink:href="#Aj"/><path d="M328.109 370.59l-8.33-4.758c-.68-.34-.51-1.02.17-1.529l8.16-4.758c.85-.51 1.87-.51 2.55-.17l8.33 4.758c.68.34.51 1.019-.17 1.529l-8.16 4.758c-.68.51-1.87.51-2.55.17z"/><use xlink:href="#Ak"/><use xlink:href="#Al"/><use xlink:href="#Am"/><use xlink:href="#An"/><use xlink:href="#Ao"/><use xlink:href="#Ap"/><use xlink:href="#Aq"/><use xlink:href="#Ar"/><use xlink:href="#As"/><use xlink:href="#At"/><use xlink:href="#Au"/></g><path d="M423.992 376.877L179.356 235.845c-3.911-2.209-5.781-7.646-4.421-12.064l55.252-179.433c1.36-4.418 5.61-6.287 9.52-4.078l244.637 141.202c3.91 2.209 5.78 7.646 4.42 12.064l-55.251 179.433c-1.36 4.417-5.611 6.117-9.521 3.908z" fill="url(#V)"/><use xlink:href="#Av" fill="url(#W)"/><use xlink:href="#Av" class="B J"/><use xlink:href="#Av" fill="url(#X)"/><g fill="#f50" class="K"><path d="M264.018 17.332l-21.59-12.574V0l21.59 12.574v4.758zm11.221 6.456l-7.82-4.588v-4.758l7.82 4.588v4.758zm8.5 4.928l-5.27-3.059V20.9l5.27 3.059v4.758zm-29.581-6.117l-11.73-6.967v-4.758l11.73 6.967v4.758zm17.851 10.195l-14.45-8.326V19.71l14.45 8.326v4.758zm8.499 4.928l-5.27-3.059v-4.758l5.27 3.059v4.758zm8.331 4.757l-5.27-3.058v-4.758l5.27 3.058v4.758zm-37.911-10.874l-8.5-5.097V21.75l8.5 4.928v4.928zm6.29 3.568l-3.06-1.699v-4.758l3.06 1.699v4.758zm8.5 4.928l-5.27-3.058v-4.758l5.27 3.058v4.758zm8.161 15.632l-31.451-18.351v-4.758l31.451 18.351v4.758zm11.22 6.287l-7.821-4.418v-4.758l7.821 4.418v4.758zm-34.171-8.666l-8.5-5.097v-4.758l8.5 5.097v4.758zm20.061 11.554l-16.831-9.685v-4.758l16.831 9.685v4.758zm8.67 4.928l-5.44-3.058V62.02l5.44 3.059v4.758zm-19.891-.51l-17.34-10.195v-4.758l17.34 10.195v4.758zm15.98 9.176l-12.58-7.306v-4.758l12.58 7.307v4.758zm11.901 6.797l-8.501-4.928v-4.758l8.501 4.928v4.758zm-39.441-11.725l-5.78-3.398v-4.928l5.78 3.568v4.758zm11.221 6.287l-7.821-4.418v-4.758l7.821 4.418v4.758zm15.81 9.176L262.658 81.9v-4.758l12.581 7.136v4.758zm-14.791 2.379l-18.02-10.365v-4.928l18.02 10.535v4.758zm20.23 11.724l-16.83-9.855v-4.758l16.83 9.855v4.758zm8.671 4.927l-5.27-3.058v-4.758l5.27 3.059v4.757zm8.33 4.758l-5.44-3.058v-4.758l5.44 3.058v4.758zm-44.541-14.783l-10.71-6.117v-4.928l10.71 6.287v4.758zm45.391-60.83l15.131 8.666V41.12l-15.131-8.666v4.758zm3.231 12.744l11.9 6.797v-4.758l-11.9-6.797v4.758zm3.229 12.744l8.671 4.928V62.87l-8.671-4.928V62.7zm-3.91 8.665l12.58 7.137v-4.758l-12.58-7.137v4.758zm3.91 13.084l8.671 4.928v-4.758l-8.671-4.928v4.758zm-2.21 9.685l10.881 6.117v-4.757l-10.881-6.117v4.758zm4.931 13.594l5.95 3.398v-4.758l-5.95-3.398v4.758zm-5.611 7.816l11.56 6.457v-4.758l-11.56-6.457v4.758zm.68 11.214l10.881 6.117v-4.757l-10.881-6.117v4.757zm-41.651-24.128l-4.59-2.549v-4.757l4.59 2.549v4.758zm13.771 7.986l-10.541-5.947v-4.758l10.541 5.947v4.758zm73.272-44.858L326.41 53.184v-4.758L348.171 61v4.758zm11.05 6.287l-7.821-4.418v-4.758l7.821 4.418v4.758zm8.67 5.098l-5.27-3.058v-4.758l5.27 3.058v4.758zm-29.581-6.287l-11.9-6.797v-4.758l11.9 6.797v4.758zm17.85 10.365l-14.62-8.496v-4.758l14.62 8.496v4.758zm8.501 4.927l-5.27-3.058v-4.758l5.27 3.058v4.758zm8.33 4.758l-5.44-3.058V83.09l5.44 3.058v4.758zM335.08 79.861l-8.67-4.928v-4.758l8.67 4.928v4.758zm6.121 3.568l-2.89-1.699v-4.758l2.89 1.699v4.758zm8.67 5.098l-5.27-3.058v-4.928l5.27 3.228v4.758zm8.16 15.462L326.41 85.808V81.05l31.621 18.181v4.757zm11.051 6.457l-7.82-4.587v-4.758l7.82 4.588v4.757zm-34.002-8.835l-8.67-4.928v-4.758l8.67 4.928v4.758zm20.061 11.554l-16.83-9.685v-4.758l16.83 9.685v4.758zm8.5 5.097l-5.27-3.058v-4.928l5.27 3.229v4.757zm-19.72-.679l-17.511-10.025V102.8l17.511 10.025v4.758zm15.98 9.345l-12.581-7.306v-4.758l12.581 7.307v4.757zm11.9 6.797l-8.5-4.928v-4.757l8.5 4.927v4.758zm-39.441-11.894l-5.95-3.399v-4.757l5.95 3.398v4.758zm11.221 6.457l-7.82-4.588v-4.758l7.82 4.588v4.758zm15.81 9.175l-12.58-7.306v-4.758l12.58 7.306v4.758zm-14.79 2.379l-18.191-10.535v-4.758l18.191 10.535v4.758zm20.231 11.554l-17.001-9.685v-4.758l17.001 9.686v4.757zm8.67 5.098l-5.271-3.059v-4.757l5.271 3.058v4.758zm8.16 4.758l-5.27-3.059v-4.758l5.27 3.059v4.758zm-44.372-14.783l-10.88-6.287v-4.758l10.88 6.287v4.758zm45.392-60.831l14.96 8.666v-4.758l-14.96-8.666v4.758zm3.23 12.744l11.73 6.797v-4.758l-11.73-6.797v4.758zm3.23 12.744l8.5 4.928v-4.758l-8.5-4.928v4.758zm-3.911 8.666l12.411 7.136v-4.757l-12.411-7.137v4.758zm3.911 13.083l8.5 4.928v-4.758l-8.5-4.927v4.757zm-2.21 9.516l10.71 6.287v-4.758l-10.71-6.287v4.758zm4.93 13.763l5.78 3.398v-4.757l-5.78-3.399v4.758zm-5.611 7.646l11.39 6.627v-4.758l-11.39-6.626v4.757zm.681 11.215l10.71 6.287v-4.758l-10.71-6.287v4.758zm-41.651-23.958l-4.591-2.719v-4.758l4.591 2.719v4.758zm13.6 7.816l-10.37-5.947v-4.758l10.37 5.947v4.758zm-94.863-43.499l-21.59-12.574v-4.758l21.59 12.574v4.758zm11.221 6.287l-7.82-4.418v-4.758l7.82 4.418v4.758zm8.5 5.097l-5.27-3.058v-4.758l5.27 3.059v4.757zm-29.581-6.287l-11.73-6.796v-4.758l11.73 6.797v4.757zm17.851 10.195l-14.45-8.325v-4.758l14.45 8.326v4.757z" class="K"/><use xlink:href="#Aw" class="K"/><path d="M288.839 140.522l-5.27-3.059v-4.758l5.27 3.059v4.758zm-37.911-11.045l-8.5-4.928v-4.757l8.5 4.927v4.758zm6.29 3.568l-3.06-1.699v-4.758l3.06 1.7v4.757zm8.5 4.928l-5.27-3.059v-4.757l5.27 3.058v4.758zm8.161 15.632l-31.451-18.181v-4.758l31.451 18.182v4.757zm11.22 6.457l-7.821-4.588v-4.757l7.821 4.587v4.758zm-34.171-8.836l-8.5-4.927v-4.758l8.5 4.928v4.757zm20.061 11.555l-16.831-9.685v-4.758l16.831 9.685v4.758zm8.67 4.927l-5.44-3.058v-4.758l5.44 3.059v4.757zm-19.891-.509l-17.34-10.025v-4.758l17.34 10.025v4.758zm15.98 9.345l-12.58-7.306v-4.758l12.58 7.306v4.758zm11.901 6.797l-8.501-4.928v-4.757l8.501 4.927v4.758zm-39.441-11.894l-5.78-3.399v-4.757l5.78 3.398v4.758zm11.221 6.456l-7.821-4.587v-4.758l7.821 4.588v4.757zm15.81 9.176l-12.581-7.306v-4.758l12.581 7.306v4.758zm-14.791 2.209l-18.02-10.365v-4.758l18.02 10.365v4.758zm20.23 11.724l-16.83-9.685v-4.758l16.83 9.686v4.757zm8.671 5.098l-5.27-3.059v-4.757l5.27 3.058v4.758zm8.33 4.757l-5.44-3.058v-4.758l5.44 3.059v4.757zm-44.541-14.782l-10.71-6.287v-4.758l10.71 6.287v4.758zm45.391-60.831l15.131 8.666v-4.758l-15.131-8.665v4.757zm3.231 12.744l11.9 6.797v-4.758l-11.9-6.797v4.758zm3.229 12.744l8.671 4.927v-4.757l-8.671-4.928v4.758zm-3.91 8.666l12.58 7.136v-4.758l-12.58-7.136v4.758zm3.91 13.083l8.671 4.928v-4.758l-8.671-4.927v4.757zm-2.21 9.516l10.881 6.287v-4.758l-10.881-6.287v4.758zm4.931 13.763l5.95 3.398v-4.757l-5.95-3.399v4.758zm-5.611 7.646l11.56 6.627v-4.758l-11.56-6.626v4.757zm.68 11.215l10.881 6.287v-4.758l-10.881-6.287v4.758zm-41.651-23.959l-4.59-2.718v-4.758l4.59 2.719v4.757zm13.771 7.817l-10.541-5.948v-4.757l10.541 5.947v4.758zm8.5 36.702l-17.51-10.195v-4.758l17.51 10.195v4.758zm12.07 6.796l-6.97-3.908v-4.757l6.97 3.908v4.757zm52.702-88.357l-21.761-12.573v-4.758l21.761 12.574v4.757zm11.05 6.457L351.4 165.5v-4.758l7.821 4.588v4.757zm8.67 4.928l-5.27-3.059v-4.757l5.27 3.058v4.758zm-29.581-6.117l-11.9-6.967v-4.757l11.9 6.966v4.758zm17.85 10.195l-14.62-8.326v-4.758l14.62 8.326v4.758zm8.501 4.927l-5.27-3.058v-4.758l5.27 3.059v4.757zm8.33 4.758l-5.44-3.058v-4.758l5.44 3.058v4.758zm-37.911-10.875l-8.67-5.097v-4.758l8.67 4.928v4.927zm6.121 3.569l-2.89-1.699v-4.758l2.89 1.699v4.758zm8.67 4.927l-5.27-3.058v-4.758l5.27 3.059v4.757zm8.16 15.633l-31.621-18.351v-4.758l31.621 18.351v4.758zm11.051 6.287l-7.82-4.418v-4.758l7.82 4.418v4.758zm-34.002-8.666l-8.67-5.098v-4.757l8.67 5.097v4.758zm20.061 11.554l-16.83-9.685v-4.758l16.83 9.686v4.757zm8.5 4.928l-5.27-3.059v-4.757l5.27 3.058v4.758zm-19.72-.51L326.41 205.43v-4.758l17.511 10.195v4.758zm15.98 9.176l-12.581-7.307v-4.757l12.581 7.306v4.758zm11.9 6.796l-8.5-4.927v-4.758l8.5 4.928v4.757zm-39.441-11.724l-5.95-3.398v-4.928l5.95 3.568v4.758zm11.221 6.287l-7.82-4.418v-4.758l7.82 4.418v4.758zm15.81 9.175l-12.58-7.136v-4.758l12.58 7.137v4.757zm-14.79 2.379l-18.191-10.365v-4.927l18.191 10.535v4.757zm20.231 11.725l-17.001-9.856v-4.757l17.001 9.855v4.758zm8.67 4.927l-5.271-3.058v-4.758l5.271 3.059v4.757zm8.16 4.758l-5.27-3.059v-4.757l5.27 3.058v4.758zm-44.372-14.783l-10.88-6.117v-4.758l10.88 6.117v4.758zm45.392-60.83l14.96 8.666v-4.758l-14.96-8.666v4.758zm3.23 12.744l11.73 6.796v-4.757l-11.73-6.797v4.758zm3.23 12.743l8.5 4.928v-4.758l-8.5-4.927v4.757zm-3.911 8.666l12.411 7.137v-4.758l-12.411-7.137v4.758zm3.911 13.084l8.5 4.927v-4.757l-8.5-4.928v4.758zm-2.21 9.685l10.71 6.117v-4.758l-10.71-6.117v4.758zm4.93 13.593l5.78 3.399v-4.758l-5.78-3.398v4.757zm-5.611 7.817l11.39 6.456v-4.757l-11.39-6.457v4.758zm.681 11.214l10.71 6.117v-4.757l-10.71-6.117v4.757zm-41.651-24.128l-4.591-2.549v-4.758l4.591 2.549v4.758zm13.6 7.986l-10.37-5.947v-4.758l10.37 5.947v4.758zm8.669 36.532l-17.51-10.025v-4.758l17.51 10.026v4.757zm11.902 6.967l-6.801-4.078v-4.758l6.801 4.078v4.758z" class="K"/></g><path d="M135.494 400.325c-2.21 0-4.25-.509-5.95-1.359l-64.261-37.042c-1.7-1.02-2.72-2.379-2.72-3.908 0-1.869 1.36-3.568 3.57-4.928l33.151-19.03c4.081-2.379 10.03-2.549 13.6-.51l64.262 37.042c1.7 1.019 2.72 2.379 2.72 3.908 0 1.869-1.36 3.568-3.57 4.927l-33.321 19.031c-2.21 1.36-4.93 1.869-7.481 1.869zm-28.73-66.437c-2.38 0-4.76.509-6.63 1.699l-33.151 19.031c-1.7 1.019-2.55 2.208-2.55 3.228 0 1.189.85 1.869 1.7 2.379l64.261 37.212c2.89 1.699 8.331 1.529 11.731-.51l33.151-19.031c1.7-1.019 2.55-2.209 2.55-3.228 0-1.19-.85-1.869-1.7-2.379l-64.262-37.042c-1.36-1.02-3.23-1.359-5.1-1.359z" class="D"/><path opacity=".38" d="M433.342 495.764c-4.59 0-9.18-1.19-13.26-3.569l-48.621-28.036c-2.04-1.189-3.4-3.398-3.4-5.777s1.19-4.588 3.4-5.777l48.621-28.037a26.43 26.43 0 0 1 26.521 0l48.621 28.037c2.04 1.189 3.4 3.398 3.4 5.777s-1.19 4.588-3.4 5.777l-48.621 28.036c-4.08 2.379-8.671 3.569-13.261 3.569zm-11.73-6.287c7.14 4.248 16.15 4.248 23.461 0l48.621-28.037c1.19-.679 1.7-1.869 1.7-3.058 0-1.36-.68-2.379-1.7-3.059l-48.621-28.036c-7.141-4.248-16.151-4.248-23.461 0l-48.621 28.036c-1.19.68-1.7 1.869-1.7 3.059 0 1.359.68 2.379 1.7 3.058l48.621 28.037z" class="H"/><path opacity=".07" d="M433.321 477.401c18.403 0 33.321-8.596 33.321-19.2S451.724 439 433.321 439 400 447.596 400 458.201s14.918 19.2 33.321 19.2z" fill="#000"/><path d="M482.643 339.835H387.44l8.841 102.97c0 5.777 3.74 11.384 11.39 15.802 15.13 8.666 39.611 8.666 54.741 0 7.481-4.418 11.391-10.025 11.391-15.802l8.84-102.97z" fill="url(#Y)"/><path d="M482.643 339.835H387.44l1.53 16.991c2.211 2.719 5.101 5.438 8.841 7.987 18.19 11.894 48.111 14.273 68.512 5.607l-3.231 75.273c-.17 3.229-1.19 6.457-3.4 9.006-3.06 3.568-9.01 7.816-20.4 10.365 8.33-.51 16.49-2.719 22.95-6.457 7.481-4.418 11.391-10.025 11.391-15.802l7.14-82.58 1.87-20.39z" class="B E"/><g class="J"><path d="M435.042 367.191c26.289 0 47.601-12.248 47.601-27.356s-21.312-27.357-47.601-27.357-47.602 12.248-47.602 27.357 21.312 27.356 47.602 27.356z" class="B"/><use xlink:href="#Ax" class="B"/></g><path d="M485.363 338.645c0-.17 0-.17 0 0l-.85-9.345v.17c-.34-6.967-5.27-13.933-14.45-19.201-19.381-11.214-50.662-11.214-69.872 0-9.52 5.438-14.281 12.574-14.451 19.711l-1.02 7.986v.679.17c-.51 7.816 4.421 15.803 14.791 21.75 19.72 11.384 51.681 11.384 71.232 0 10.37-6.117 15.3-14.103 14.62-21.92z" fill="url(#Z)"/><use xlink:href="#Ax" fill="url(#a)"/><path d="M433.171 353.768c22.628 0 40.971-10.574 40.971-23.619s-18.343-23.618-40.971-23.618-40.971 10.574-40.971 23.618 18.344 23.619 40.971 23.619z" fill="url(#b)"/><path d="M410.901 317.066c15.981-9.176 41.991-9.176 57.972 0 .17.17.34.17.51.34-1.53-1.36-3.4-2.719-5.44-3.908-15.981-9.176-41.991-9.176-57.972 0-15.81 9.175-15.98 23.788-.51 33.133-10.2-9.175-8.33-21.579 5.44-29.565z" class="B J"/><path d="M406.142 317.576c15.98-9.176 41.991-9.176 57.971 0 7.14 4.078 11.05 9.345 11.901 14.612 1.02-6.796-2.891-13.593-11.901-18.69-15.98-9.176-41.991-9.176-57.971 0-8.841 5.097-12.921 12.064-11.901 18.69.85-5.267 4.76-10.534 11.901-14.612z" fill="url(#c)"/><path d="M470.402 310.269c-19.38-11.384-50.831-11.724-70.212-.68s-19.55 29.056-.34 40.441 50.661 11.554 70.212.679c19.381-11.044 19.551-29.055.34-40.44zm-6.46 36.702c-5.27 3.059-11.73 5.098-18.701 6.117l-.68-2.379c-.34-1.019-1.19-1.699-2.21-1.699h-14.79c-1.02 0-1.87.68-2.21 1.699l-.68 2.379c-6.8-1.019-13.261-3.058-18.701-6.117-15.98-9.175-15.98-24.128 0-33.473 15.981-9.176 41.991-9.176 57.972 0 16.15 9.175 16.15 24.128 0 33.473z" fill="url(#d)"/><g class="F"><path d="M463.943 311.798c-15.981-9.175-41.991-9.175-57.972 0-8.33 4.758-12.41 11.215-11.9 17.502.34-5.777 4.42-11.385 11.9-15.802 15.981-9.176 41.991-9.176 57.972 0 7.65 4.417 11.56 10.025 11.9 15.802.51-6.287-3.4-12.744-11.9-17.502zm5.95 37.212c-19.55 11.045-50.831 10.705-70.212-.679-9.18-5.438-13.94-12.404-14.28-19.371-.34 7.476 4.42 15.293 14.28 21.07 19.211 11.384 50.662 11.554 70.212.679 10.2-5.777 15.13-13.423 14.62-21.239-.17 7.136-5.1 14.273-14.62 19.54z"/></g><path d="M439.462 354.278h-8.84a1.16 1.16 0 0 1-1.19-1.19v-.17a1.16 1.16 0 0 1 1.19-1.189h8.84a1.16 1.16 0 0 1 1.19 1.189v.17c-.17.68-.51 1.19-1.19 1.19z" fill="url(#e)"/><path d="M439.462 351.899h-8.84a1.16 1.16 0 0 0-1.19 1.189v.17.34c.17-.51.51-.85 1.02-.85h8.84c.51 0 .85.34 1.02.85v-.34-.17c.17-.679-.17-1.189-.85-1.189z" class="D"/><path opacity=".5" d="M438.103 353.088s26.52-8.835 15.81-39.421-31.791-39.76-23.291-64.228c0 0-13.26 19.71-.85 46.557 12.411 26.677 15.131 23.619 14.961 36.532-.17 15.123-12.411 20.73-12.411 20.73h5.781v-.17z" class="F"/><path d="M539.594 129.307l15.981-14.783-6.971-31.095-15.98 14.783 6.97 31.095z" class="M"/><path d="M537.554 129.307l15.981-14.783-6.971-31.095-15.98 14.783 6.97 31.095z" class="N"/><g class="I"><path d="M530.584 98.212l11.56 8.156 4.42-22.939-15.98 14.783z"/><path d="M553.534 114.524l-11.39-8.156-4.59 22.939 15.98-14.783z"/></g><path d="M609.977 228.369l4.76-21.24-23.46-21.409-4.76 21.069 23.46 21.58z" class="M"/><path d="M608.277 229.558l4.76-21.239-23.46-21.58-4.761 21.24 23.461 21.579z" class="N"/><g class="I"><path d="M584.816 207.979l14.111.17-9.35-21.41-4.761 21.24z"/><path d="M613.037 208.319l-14.11-.17 9.35 21.409 4.76-21.239z"/></g></g><defs><linearGradient id="B" x1="634.782" y1="285.222" x2="644.628" y2="285.222" xlink:href="#Ay"><stop stop-color="#ccc"/></linearGradient><linearGradient id="C" x1="382.157" y1="319.136" x2="713.884" y2="319.136" xlink:href="#Ay"><stop stop-color="#ccc"/></linearGradient><linearGradient id="D" x1="625.102" y1="404.695" x2="638.338" y2="404.695" xlink:href="#Ay"><stop stop-color="#ccc"/></linearGradient><linearGradient id="E" x1="616.672" y1="404.509" x2="630.021" y2="404.509" xlink:href="#Ay"><stop stop-color="#ccc"/></linearGradient><linearGradient id="F" x1="703.339" y1="365.694" x2="709.674" y2="365.694" xlink:href="#Ay"><stop stop-color="#ccc"/></linearGradient><linearGradient id="G" x1="706.166" y1="359.732" x2="711.416" y2="359.732" xlink:href="#Ay"><stop stop-color="#ccc"/></linearGradient><linearGradient id="H" x1="400.029" y1="321.287" x2="575.34" y2="321.287" xlink:href="#Ay"><stop stop-color="#ccc"/></linearGradient><linearGradient id="I" x1="384.605" y1="310.184" x2="394.49" y2="289.084" xlink:href="#Ay"><stop stop-color="#9c9c9c"/><stop offset=".005" stop-color="#9d9d9d"/><stop offset=".315" stop-color="#c7c7c7"/><stop offset=".595" stop-color="#e6e6e6"/><stop offset=".833" stop-color="#f8f8f8"/><stop offset="1" stop-color="#fff"/></linearGradient><linearGradient id="J" x1="605.595" y1="390.072" x2="714.519" y2="390.072" xlink:href="#Ay"><stop stop-color="#ccc"/></linearGradient><linearGradient id="K" x1="663.196" y1="435.879" x2="658.662" y2="405.382" xlink:href="#Ay"><stop stop-color="#9c9c9c"/><stop offset=".005" stop-color="#9d9d9d"/><stop offset=".315" stop-color="#c7c7c7"/><stop offset=".595" stop-color="#e6e6e6"/><stop offset=".833" stop-color="#f8f8f8"/><stop offset="1" stop-color="#fff"/></linearGradient><linearGradient id="L" x1="628.264" y1="407.674" x2="714.525" y2="407.674" xlink:href="#Ay"><stop stop-color="#ccc"/></linearGradient><linearGradient id="M" x1="523.711" y1="337.588" x2="546.24" y2="337.588" xlink:href="#Ay"><stop stop-color="#ccc"/></linearGradient><linearGradient id="N" x1="670.68" y1="377.898" x2="683.168" y2="377.898" xlink:href="#Ay"><stop stop-color="#ccc"/></linearGradient><linearGradient id="O" x1="433.301" y1="331.788" x2="551.6" y2="331.788" xlink:href="#Ay"><stop stop-color="#ccc"/></linearGradient><linearGradient id="P" x1="497.735" y1="236.46" x2="561.827" y2="236.46" xlink:href="#Ay"><stop offset=".006" stop-color="#ff6b00"/><stop offset="1" stop-color="#ff8730"/></linearGradient><linearGradient id="Q" x1="575.611" y1="203.616" x2="635.113" y2="203.616" xlink:href="#Ay"><stop offset=".006" stop-color="#ff6b00"/><stop offset="1" stop-color="#ff8730"/></linearGradient><linearGradient id="R" x1="526.923" y1="106.714" x2="576.025" y2="106.714" xlink:href="#Ay"><stop offset=".006" stop-color="#ff6b00"/><stop offset="1" stop-color="#ff8730"/></linearGradient><linearGradient id="S" x1="178.592" y1="207.585" x2="493.206" y2="207.585" xlink:href="#Ay"><stop stop-color="#c8c8c8"/><stop offset=".204" stop-color="#ccc"/><stop offset=".394" stop-color="#d7d7d7"/><stop offset=".52" stop-color="#e3e3e3"/><stop offset=".815" stop-color="#f3f3f3"/><stop offset="1" stop-color="#fff"/></linearGradient><linearGradient id="T" x1="2.712" y1="355.34" x2="425.529" y2="355.34" xlink:href="#Ay"><stop stop-color="#c8c8c8"/><stop offset=".204" stop-color="#ccc"/><stop offset=".394" stop-color="#d7d7d7"/><stop offset=".52" stop-color="#e3e3e3"/><stop offset=".815" stop-color="#f3f3f3"/><stop offset="1" stop-color="#fff"/></linearGradient><linearGradient id="U" x1="2.727" y1="403.58" x2="425.478" y2="403.58" xlink:href="#Ay"><stop stop-color="#adadad"/><stop offset=".012" stop-color="#b3b3b3"/><stop offset=".026" stop-color="#c3c3c3"/><stop offset=".03" stop-color="#c8c8c8"/><stop offset=".055" stop-color="#c6c6c6"/><stop offset=".063" stop-color="#bfbfbf"/><stop offset=".07" stop-color="#b4b4b4"/><stop offset=".071" stop-color="#b0b0b0"/><stop offset=".092" stop-color="#bababa"/><stop offset=".128" stop-color="#d5d5d5"/><stop offset=".172" stop-color="#fff"/><stop offset=".204" stop-color="#f5f5f5"/><stop offset=".259" stop-color="#dbdbdb"/><stop offset=".303" stop-color="#c2c2c2"/><stop offset=".379" stop-color="#a8a8a8"/><stop offset=".471" stop-color="#909090"/><stop offset=".556" stop-color="#828282"/><stop offset=".626" stop-color="#7d7d7d"/><stop offset=".65" stop-color="#7e7e7e"/><stop offset=".658" stop-color="#858585"/><stop offset=".664" stop-color="#919191"/><stop offset=".667" stop-color="#999"/><stop offset=".778" stop-color="#d8d8d8"/><stop offset=".789" stop-color="#d2d2d2"/><stop offset=".85" stop-color="#b3b3b3"/><stop offset=".903" stop-color="#a1a1a1"/><stop offset=".939" stop-color="#9a9a9a"/><stop offset=".965" stop-color="#9d9d9d"/><stop offset=".981" stop-color="#a6a6a6"/><stop offset=".985" stop-color="#a9a9a9"/></linearGradient><linearGradient id="V" x1="174.494" y1="208.591" x2="489.205" y2="208.591" xlink:href="#Ay"><stop stop-color="#c8c8c8"/><stop offset=".394" stop-color="#d7d7d7"/><stop offset=".537" stop-color="#e3e3e3"/><stop offset="1" stop-color="#cacaca"/></linearGradient><linearGradient id="W" x1="179.762" y1="208.611" x2="483.937" y2="208.611" xlink:href="#Ay"><stop stop-color="#3919bb"/><stop offset="1" stop-color="#6507fa"/></linearGradient><linearGradient id="X" x1="179.762" y1="208.611" x2="483.937" y2="208.611" xlink:href="#Ay"><stop stop-color="#eaeaea"/><stop offset=".824" stop-color="#e0e0e0"/></linearGradient><linearGradient id="Y" x1="387.399" y1="402.523" x2="482.503" y2="402.523" xlink:href="#Ay"><stop stop-color="#c8c8c8"/><stop offset=".204" stop-color="#ccc"/><stop offset=".394" stop-color="#d7d7d7"/><stop offset=".52" stop-color="#e3e3e3"/><stop offset=".815" stop-color="#f3f3f3"/><stop offset="1" stop-color="#fff"/></linearGradient><linearGradient id="Z" x1="384.643" y1="335.533" x2="485.384" y2="335.533" xlink:href="#Ay"><stop offset=".006" stop-color="#ff6b00"/><stop offset="1" stop-color="#ff8730"/></linearGradient><linearGradient id="a" x1="394.03" y1="330.202" x2="475.972" y2="330.202" xlink:href="#Ay"><stop offset=".006" stop-color="#ff6b00"/><stop offset="1" stop-color="#ff8730"/></linearGradient><linearGradient id="b" x1="392.159" y1="330.202" x2="474.101" y2="330.202" xlink:href="#Ay"><stop offset=".006" stop-color="#ff6b00"/><stop offset="1" stop-color="#ff8730"/></linearGradient><linearGradient id="c" x1="394.047" y1="319.455" x2="497.328" y2="319.455" xlink:href="#Ay"><stop stop-color="#ff6b00"/><stop offset=".051" stop-color="#ff740f"/><stop offset=".149" stop-color="#ff8c38"/><stop offset=".273" stop-color="#ffae73"/><stop offset=".753" stop-color="#ff6b00"/><stop offset=".894" stop-color="#ff8f3d"/><stop offset="1" stop-color="#ff6b00"/></linearGradient><linearGradient id="d" x1="385.398" y1="330.17" x2="484.554" y2="330.17" xlink:href="#Ay"><stop stop-color="#ff6b00"/><stop offset=".149" stop-color="#ff8c38"/><stop offset=".273" stop-color="#ffae73"/><stop offset=".894" stop-color="#ff8f3d"/><stop offset="1" stop-color="#ff6b00"/></linearGradient><linearGradient id="e" x1="429.513" y1="353.056" x2="440.525" y2="353.056" xlink:href="#Ay"><stop stop-color="#383838"/><stop offset=".927" stop-color="#2b2b2b"/></linearGradient><clipPath id="f"><path d="M0 0h730v514H0z" class="F"/></clipPath><path id="g" d="M715.38 386.562c.34-2.039.34-4.928.17-7.816-5.78 5.607-16.151 15.292-26.521 22.939-15.81 11.554-55.251 23.958-69.872 16.821-1.87-.849-6.97-3.738-14.62-7.986l-3.23 18.691s7.99 3.399 18.53 4.588c10.71 1.189 32.641-1.529 59.842-15.802 28.391-14.783 34.681-24.129 35.701-31.435z"/><path id="h" d="M122.234 311.289l-8.33-4.758c-.68-.34-.51-1.02.17-1.529l9.86-5.608c.85-.509 1.87-.509 2.55-.169l8.33 4.757c.68.34.51 1.02-.17 1.529l-9.86 5.608c-.68.509-1.87.509-2.55.17z"/><path id="i" d="M134.984 318.765l-8.33-4.758c-.68-.34-.51-1.019.17-1.529l9.86-5.607c.85-.51 1.87-.51 2.55-.17l8.33 4.758c.68.339.51 1.019-.17 1.529l-9.86 5.607c-.68.34-1.87.51-2.55.17z"/><path id="j" d="M147.905 326.071l-8.33-4.757c-.681-.34-.511-1.02.17-1.53l9.86-5.607c.85-.51 1.87-.51 2.55-.17l8.33 4.758c.68.34.51 1.019-.17 1.529l-9.86 5.608c-.85.509-2.04.509-2.55.169z"/><path id="k" d="M165.585 319.954l-8.33-4.757c-.68-.34-.51-1.02.17-1.53l8.16-4.757c.85-.51 1.87-.51 2.55-.17l8.331 4.758c.68.339.51 1.019-.17 1.529l-8.161 4.757c-.85.51-1.87.51-2.55.17z"/><path id="l" d="M178.335 327.431l-8.33-4.758c-.68-.34-.51-1.019.17-1.529l8.16-4.758c.85-.51 1.87-.51 2.55-.17l8.331 4.758c.68.34.51 1.019-.17 1.529l-8.161 4.758c-.68.51-1.87.51-2.55.17z"/><path id="m" d="M191.085 334.737l-8.33-4.757c-.68-.34-.51-1.02.17-1.53l8.16-4.757c.85-.51 1.87-.51 2.55-.17l8.331 4.757c.68.34.51 1.02-.17 1.53l-8.161 4.757c-.68.51-1.87.51-2.55.17z"/><path id="n" d="M204.005 342.214l-8.33-4.758c-.68-.34-.51-1.02.17-1.529l8.16-4.758c.85-.51 1.87-.51 2.55-.17l8.331 4.758c.68.34.51 1.019-.17 1.529l-8.161 4.758c-.85.34-1.87.509-2.55.17z"/><path id="o" d="M216.756 349.52l-8.33-4.758c-.68-.34-.51-1.019.17-1.529l8.16-4.758c.85-.509 1.87-.509 2.55-.17l8.331 4.758c.68.34.51 1.02-.17 1.529l-8.161 4.758c-.68.51-1.87.51-2.55.17z"/><path id="p" d="M229.506 356.826l-8.33-4.757c-.68-.34-.51-1.02.17-1.529l8.16-4.758c.85-.51 1.87-.51 2.55-.17l8.331 4.758c.68.339.51 1.019-.17 1.529l-8.161 4.758c-.68.509-1.87.679-2.55.169z"/><path id="q" d="M242.427 364.303l-8.33-4.758c-.68-.34-.51-1.019.17-1.529l8.16-4.758c.85-.51 1.87-.51 2.55-.17l8.331 4.758c.68.34.51 1.019-.17 1.529l-8.161 4.758c-.85.51-2.04.51-2.55.17z"/><path id="r" d="M255.177 371.609l-8.33-4.757c-.68-.34-.51-1.02.17-1.53l8.16-4.757c.85-.51 1.87-.51 2.55-.17l8.331 4.757c.68.34.51 1.02-.171 1.53l-8.16 4.757c-.68.51-1.87.68-2.55.17z"/><path id="s" d="M267.928 379.086l-8.33-4.758c-.68-.34-.51-1.02.17-1.529l8.16-4.758c.85-.51 1.87-.51 2.55-.17l8.33 4.758c.681.34.511 1.019-.17 1.529l-8.16 4.758c-.68.509-1.87.509-2.55.17z"/><path id="t" d="M280.678 386.392l-8.33-4.758c-.68-.339-.51-1.019.17-1.529l8.16-4.758c.85-.509 1.87-.509 2.55-.169l8.33 4.757c.681.34.511 1.02-.17 1.529l-8.16 4.758c-.68.51-1.87.68-2.55.17z"/><path id="u" d="M184.456 316.556l-8.331-4.758c-.68-.34-.51-1.019.17-1.529l8.161-4.758c.85-.509 1.87-.509 2.55-.17l8.33 4.758c.68.34.51 1.02-.17 1.529l-8.16 4.758c-.85.34-1.87.51-2.55.17z"/><path id="v" d="M171.366 308.91l-8.331-4.758c-.68-.34-.51-1.019.17-1.529l8.161-4.758c.85-.51 1.87-.51 2.55-.17l8.33 4.758c.68.34.51 1.019-.17 1.529l-8.16 4.758c-.68.51-1.87.679-2.55.17z"/><path id="w" d="M158.445 301.433l-17.851-10.365c-.68-.339-.51-1.019.17-1.529l8.16-4.758c.85-.509 1.87-.509 2.55-.169l17.851 10.365c.68.339.51 1.019-.17 1.529l-8.16 4.757c-.85.51-1.87.51-2.55.17z"/><path id="x" d="M167.456 292.258l-14.451-8.326c-.68-.34-.51-1.02.17-1.529l8.16-4.758c.85-.51 1.87-.51 2.55-.17l14.451 8.326c.68.34.51 1.02-.17 1.529l-8.16 4.758c-.68.51-1.87.68-2.55.17z"/><path id="y" d="M197.206 323.862l-8.331-4.757c-.68-.34-.51-1.02.17-1.529l8.161-4.758c.85-.51 1.87-.51 2.55-.17l8.33 4.758c.68.339.51 1.019-.17 1.529l-8.16 4.758c-.68.509-1.87.509-2.55.169z"/><path id="z" d="M209.956 331.169l-8.331-4.758c-.68-.34-.51-1.019.17-1.529l8.161-4.758c.85-.509 1.87-.509 2.55-.17l8.33 4.758c.68.34.51 1.02-.17 1.529l-8.16 4.758c-.68.51-1.87.68-2.55.17z"/><path id="AA" d="M222.876 338.645l-8.33-4.757c-.68-.34-.51-1.02.17-1.53l8.16-4.757c.85-.51 1.87-.51 2.55-.17l8.331 4.757c.68.34.51 1.02-.17 1.53l-8.161 4.757c-.85.51-2.04.51-2.55.17z"/><path id="AB" d="M235.627 345.952l-8.33-4.758c-.68-.34-.51-1.019.17-1.529l8.16-4.758c.85-.51 1.87-.51 2.55-.17l8.331 4.758c.68.34.51 1.019-.17 1.529l-8.161 4.758c-.68.51-1.87.68-2.55.17z"/><path id="AC" d="M248.377 353.428l-8.33-4.758c-.68-.339-.51-1.019.17-1.529l8.16-4.758c.85-.509 1.87-.509 2.55-.169l8.331 4.757c.68.34.51 1.02-.17 1.529l-8.161 4.758c-.68.51-1.87.51-2.55.17z"/><path id="AD" d="M261.127 360.735l-8.33-4.758c-.68-.34-.51-1.02.17-1.529l8.16-4.758c.85-.51 1.87-.51 2.55-.17l8.331 4.758c.68.34.51 1.019-.17 1.529l-8.161 4.758c-.68.509-1.87.679-2.55.17z"/><path id="AE" d="M286.798 375.517l-8.33-4.757c-.68-.34-.51-1.02.17-1.53l8.16-4.757c.85-.51 1.87-.51 2.55-.17l8.331 4.758c.68.339.51 1.019-.17 1.529l-8.161 4.757c-.68.51-1.87.68-2.55.17z"/><path id="AF" d="M322.329 396.077l-18.02-10.365c-.68-.339-.51-1.019.17-1.529l8.16-4.758c.85-.509 1.87-.509 2.55-.169l18.021 10.364c.68.34.51 1.02-.17 1.53l-8.161 4.757c-.68.51-1.87.51-2.55.17z"/><path id="AG" d="M347.32 381.634l-15.3-8.835c-.68-.34-.51-1.02.17-1.53l8.16-4.757c.85-.51 1.87-.51 2.55-.17l15.301 8.836c.68.339.51 1.019-.17 1.529l-8.161 4.757c-.68.51-1.87.68-2.55.17z"/><path id="AH" d="M219.646 322.333l-8.33-4.757c-.68-.34-.51-1.02.17-1.53l8.16-4.757c.85-.51 1.87-.51 2.55-.17l8.33 4.757c.68.34.51 1.02-.17 1.53l-8.16 4.757c-.68.51-1.87.68-2.55.17z"/><path id="AI" d="M206.556 314.857l-8.33-4.758c-.68-.34-.51-1.019.17-1.529l8.16-4.758c.85-.51 1.87-.51 2.55-.17l8.33 4.758c.68.34.51 1.019-.17 1.529l-8.16 4.758c-.85.51-1.87.51-2.55.17z"/><path id="AJ" d="M180.206 299.734l-8.331-4.757c-.68-.34-.51-1.02.17-1.53l8.161-4.757c.85-.51 1.87-.51 2.55-.17l8.33 4.757c.68.34.51 1.02-.17 1.53l-8.16 4.757c-.68.51-1.87.51-2.55.17z"/><path id="AK" d="M232.397 329.81l-8.33-4.758c-.68-.34-.51-1.02.17-1.529l8.16-4.758c.85-.51 1.87-.51 2.55-.17l8.33 4.758c.68.34.51 1.019-.17 1.529l-8.16 4.758c-.68.509-1.87.509-2.55.17z"/><path id="AL" d="M245.147 337.116l-8.33-4.758c-.68-.339-.51-1.019.17-1.529l8.16-4.758c.85-.509 1.87-.509 2.55-.169l8.33 4.757c.68.34.51 1.02-.17 1.529l-8.16 4.758c-.68.51-1.87.68-2.55.17z"/><path id="AM" d="M258.068 344.592l-8.33-4.757c-.68-.34-.51-1.02.17-1.53l8.16-4.757c.85-.51 1.87-.51 2.55-.17l8.33 4.758c.68.339.51 1.019-.17 1.529l-8.16 4.757c-.68.51-1.87.51-2.55.17z"/><path id="AN" d="M270.818 351.899l-8.33-4.758c-.68-.34-.51-1.019.17-1.529l8.16-4.758c.85-.51 1.87-.51 2.55-.17l8.33 4.758c.68.34.51 1.019-.17 1.529l-8.16 4.758c-.68.51-1.87.68-2.55.17z"/><path id="AO" d="M283.569 359.375l-8.33-4.757c-.68-.34-.51-1.02.17-1.53l8.16-4.757c.85-.51 1.87-.51 2.55-.17l8.33 4.757c.68.34.51 1.02-.17 1.53l-8.16 4.757c-.68.51-1.87.51-2.55.17z"/><path id="AP" d="M296.489 366.682l-8.331-4.758c-.68-.34-.51-1.02.17-1.529l8.161-4.758c.85-.51 1.87-.51 2.55-.17l8.33 4.758c.68.34.51 1.019-.17 1.529l-8.16 4.758c-.85.509-1.87.679-2.55.17z"/><path id="AQ" d="M309.239 374.158l-8.331-4.758c-.68-.339-.51-1.019.17-1.529l8.161-4.758c.85-.509 1.87-.509 2.55-.169l8.33 4.757c.68.34.51 1.02-.17 1.529l-8.16 4.758c-.68.51-1.87.51-2.55.17z"/><path id="AR" d="M321.99 381.464l-8.331-4.757c-.68-.34-.51-1.02.17-1.529l8.161-4.758c.85-.51 1.87-.51 2.55-.17l8.33 4.758c.68.339.51 1.019-.17 1.529l-8.16 4.758c-.68.509-1.87.679-2.55.169z"/><path id="AS" d="M334.91 388.941l-8.331-4.758c-.68-.34-.51-1.019.17-1.529l8.161-4.758c.85-.509 1.87-.509 2.55-.17l8.33 4.758c.68.34.51 1.02-.17 1.529l-8.16 4.758c-.85.51-2.04.51-2.55.17z"/><path id="AT" d="M212.846 304.152l-8.33-4.758c-.68-.339-.51-1.019.17-1.529l8.16-4.758c.85-.509 1.87-.509 2.55-.169l8.33 4.757c.68.34.51 1.02-.17 1.53l-8.16 4.757c-.68.51-1.87.51-2.55.17z"/><path id="AU" d="M200.096 296.846l-8.33-4.758c-.68-.34-.51-1.02.17-1.529l8.16-4.758c.85-.51 1.87-.51 2.55-.17l8.33 4.758c.68.34.51 1.019-.17 1.529l-8.16 4.758c-.68.51-1.87.51-2.55.17z"/><path id="AV" d="M174.595 282.063l-8.33-4.758c-.68-.34-.51-1.019.17-1.529l8.16-4.758c.85-.51 1.87-.51 2.55-.17l8.33 4.758c.68.34.51 1.019-.17 1.529l-8.16 4.758c-.68.51-1.87.51-2.55.17z"/><path id="AW" d="M187.686 274.586l-8.33-4.757c-.68-.34-.51-1.02.17-1.53l2.72-1.529c.85-.51 1.87-.51 2.55-.17l8.33 4.758c.68.34.51 1.02-.17 1.529l-2.72 1.53c-.68.509-1.87.509-2.55.169z"/><path id="AX" d="M204.346 284.102l-8.33-4.758c-.68-.34-.51-1.019.17-1.529l2.72-1.529c.85-.51 1.87-.51 2.55-.17l8.33 4.757c.68.34.51 1.02-.17 1.53l-2.72 1.529c-.68.51-1.87.51-2.55.17z"/><path id="AY" d="M217.096 291.408l-8.33-4.757c-.68-.34-.51-1.02.17-1.53l2.72-1.529c.85-.51 1.87-.51 2.55-.17l8.33 4.758c.68.34.51 1.019-.17 1.529l-2.72 1.529c-.68.51-1.87.51-2.55.17z"/><path id="AZ" d="M229.677 298.715l-8.33-4.758c-.68-.34-.51-1.019.17-1.529l2.72-1.529c.85-.51 1.87-.51 2.55-.17l8.33 4.757c.68.34.51 1.02-.17 1.53l-2.72 1.529c-.68.51-1.87.679-2.55.17z"/><path id="Aa" d="M242.427 306.021l-8.33-4.758c-.68-.339-.51-1.019.17-1.529l2.72-1.529c.85-.51 1.87-.51 2.55-.17l8.33 4.758c.68.34.51 1.019-.17 1.529l-2.72 1.529c-.68.51-1.87.68-2.55.17z"/><path id="Ab" d="M313.32 346.971l-8.33-4.757c-.68-.34-.51-1.02.17-1.53l2.72-1.529c.85-.51 1.87-.51 2.55-.17l8.33 4.758c.68.34.51 1.019-.17 1.529l-2.72 1.529c-.85.51-1.87.51-2.55.17z"/><path id="Ac" d="M338.65 361.584l-8.33-4.758c-.68-.339-.51-1.019.17-1.529l2.72-1.529c.85-.51 1.87-.51 2.55-.17l8.33 4.758c.68.34.51 1.019-.17 1.529l-2.72 1.529c-.68.51-1.87.51-2.55.17z"/><path id="Ad" d="M351.4 368.891l-8.33-4.758c-.68-.34-.51-1.02.17-1.529l2.72-1.53c.85-.509 1.87-.509 2.55-.17l8.33 4.758c.68.34.51 1.02-.17 1.529l-2.72 1.53c-.85.509-2.04.509-2.55.17z"/><path id="Ae" d="M225.596 311.458l-8.33-4.757c-.68-.34-.51-1.02.17-1.529l8.16-4.758c.85-.51 1.87-.51 2.55-.17l8.33 4.758c.68.339.51 1.019-.17 1.529l-8.16 4.758c-.68.509-1.87.679-2.55.169z"/><path id="Af" d="M238.517 318.935l-8.33-4.758c-.68-.34-.51-1.019.17-1.529l8.16-4.758c.85-.509 1.87-.509 2.55-.17l8.33 4.758c.68.34.51 1.02-.17 1.529l-8.16 4.758c-.68.51-1.87.51-2.55.17z"/><path id="Ag" d="M276.938 341.024l-8.33-4.758c-.68-.339-.51-1.019.17-1.529l8.16-4.757c.85-.51 1.87-.51 2.55-.17l8.33 4.757c.68.34.51 1.02-.17 1.53l-8.16 4.757c-.85.51-1.87.68-2.55.17z"/><path id="Ah" d="M289.688 348.5l-8.33-4.757c-.68-.34-.51-1.02.17-1.529l8.16-4.758c.85-.51 1.87-.51 2.55-.17l8.33 4.758c.68.339.51 1.019-.17 1.529l-8.16 4.758c-.68.509-1.87.509-2.55.169z"/><path id="Ai" d="M302.439 355.807l-8.33-4.758c-.68-.34-.51-1.019.17-1.529l8.16-4.758c.85-.509 1.87-.509 2.55-.17l8.33 4.758c.68.34.51 1.02-.17 1.529l-8.16 4.758c-.68.51-1.87.68-2.55.17z"/><path id="Aj" d="M315.359 363.283l-8.33-4.757c-.68-.34-.51-1.02.17-1.53l8.16-4.757c.85-.51 1.87-.51 2.55-.17l8.33 4.757c.68.34.51 1.02-.17 1.53l-8.16 4.757c-.85.51-1.87.51-2.55.17z"/><path id="Ak" d="M152.495 312.478l-24.481-14.103c-.68-.34-.51-1.02.17-1.529l8.16-4.758c.85-.51 1.87-.51 2.55-.17l24.481 14.103c.68.34.51 1.02-.17 1.529l-8.16 4.758c-.68.51-1.87.51-2.55.17z"/><path id="Al" d="M309.749 403.214l-24.481-14.103c-.68-.34-.51-1.02.17-1.53l8.16-4.757c.85-.51 1.87-.51 2.55-.17l24.481 14.103c.68.34.51 1.019-.17 1.529l-8.16 4.758c-.68.51-1.87.51-2.55.17z"/><path id="Am" d="M258.578 389.96l-8.331-4.757c-.68-.34-.51-1.02.17-1.53l9.861-5.607c.85-.51 1.87-.51 2.55-.17l8.33 4.758c.68.34.51 1.019-.17 1.529l-9.86 5.607c-.68.51-1.87.51-2.55.17z"/><path id="An" d="M165.585 336.266l-13.26-7.646c-.681-.34-.511-1.019.17-1.529l9.86-5.607c.85-.51 1.87-.51 2.55-.17l13.26 7.646c.68.34.51 1.02-.17 1.529l-9.86 5.608c-.68.509-1.87.679-2.55.169z"/><path id="Ao" d="M246.167 382.824l-13.26-7.646c-.68-.34-.51-1.02.17-1.53l9.86-5.607c.85-.51 1.87-.51 2.55-.17l13.26 7.646c.68.34.51 1.02-.17 1.53l-9.86 5.607c-.68.51-1.87.51-2.55.17z"/><path id="Ap" d="M184.115 346.971l-13.26-7.646c-.68-.34-.51-1.02.17-1.529l9.86-5.608c.85-.509 1.87-.509 2.55-.169l13.26 7.646c.68.34.51 1.019-.17 1.529l-9.86 5.607c-.85.51-1.87.51-2.55.17z"/><path id="Aq" d="M183.436 332.188l57.631 33.304c.68.34.68 1.02 0 1.53l-10.03 5.777c-.68.34-1.87.34-2.55 0l-57.632-33.474 12.581-7.137z"/><path id="Ar" d="M294.279 403.384l9.18 5.267c.51.34.51.85-.17 1.19l-4.08 2.379c-.68.339-1.53.339-2.21.169l-9.18-5.267c-.51-.34-.51-.85.17-1.189l4.08-2.379c.85-.51 1.7-.51 2.21-.17z"/><path id="As" d="M281.359 395.907l9.18 5.268c.51.34.51.849-.17 1.189l-4.08 2.379c-.68.34-1.53.34-2.21.17l-9.18-5.267c-.51-.34-.51-.85.17-1.19l4.08-2.379c.85-.509 1.7-.509 2.21-.17z"/><path id="At" d="M268.608 388.601l9.18 5.267c.51.34.51.85-.17 1.19l-4.08 2.379c-.68.34-1.53.34-2.21.17l-9.18-5.268c-.51-.34-.51-.849.17-1.189l4.08-2.379c.68-.51 1.7-.51 2.21-.17z"/><path id="Au" d="M288.499 391.83l9.18 5.267c.51.34.51.849-.17 1.189l-4.08 2.379c-.68.34-1.53.34-2.21.17l-9.181-5.267c-.51-.34-.51-.85.17-1.19l4.08-2.379c.68-.509 1.701-.509 2.211-.169z"/><path id="Av" d="M421.612 370.59L184.456 233.636c-3.74-2.039-5.61-7.306-4.25-11.554l52.871-171.616c1.36-4.248 5.44-5.947 9.01-3.908l237.157 136.954c3.74 2.039 5.61 7.306 4.25 11.554l-52.871 171.617c-1.19 4.248-5.27 6.117-9.011 3.908z"/><path id="Aw" d="M280.508 135.764l-5.27-3.059v-4.757l5.27 3.058v4.758z"/><path id="Ax" d="M435.042 353.768c22.628 0 40.972-10.574 40.972-23.619s-18.344-23.618-40.972-23.618-40.971 10.574-40.971 23.618 18.344 23.619 40.971 23.619z"/><linearGradient id="Ay" gradientUnits="userSpaceOnUse"/></defs></svg>