<svg xmlns="http://www.w3.org/2000/svg" width="80" height="75" fill="none" xmlns:v="https://vecta.io/nano"><path d="M68.152 13.683c-2.73-1.578-5.178-2.346-7.263-2.655-.544-1.189-1.877-2.586-4.586-4.133-8.889-5.076-17.772-.053-17.772-.053l-11.854 6.841 5.924 3.418 11.848-6.841s2.965-1.712 5.924 0c2.965 1.712 0 3.423 0 3.423l-11.848 6.841 5.924 3.418 11.859-6.847c.176-.101 3.045-1.653 5.913.005 2.965 1.712 0 3.418 0 3.418L50.374 27.36l5.924 3.423 14.813-8.553s5.924-3.418-2.959-8.548z" fill="#f16822"/><path d="M26.677 13.683s-2.965 1.712-2.965 5.13v17.085s0 3.423-2.965 1.712-2.965-5.13-2.965-5.13V15.394c0-.213.011-.421.032-.624.325-3.007 2.927-4.511 2.927-4.511l-5.924-3.418c-.187.107-2.965 1.818-2.965 5.13v17.085s0 3.423-2.965 1.712-2.965-5.13-2.965-5.13V8.553c0-3.418 2.965-5.13 2.965-5.13L2.965 0S0 1.712 0 5.13v17.085s0 10.265 8.889 15.394c2.725 1.573 4.612 1.696 5.924 1.114 1.312 2.096 3.199 4.154 5.924 5.727 8.889 5.13 8.889-5.13 8.889-5.13V22.236c0-3.423 2.965-5.13 2.965-5.13l-5.914-3.423z" fill="#808285"/><path d="M35.566 29.114l5.924 3.418v6.841l-5.924-3.418v-6.841zm14.808-1.749s-2.965 1.712-2.965 5.13V49.58s0 3.423-2.965 1.712-2.965-5.13-2.965-5.13l-5.924-3.423s0 10.265 8.889 15.394 8.889-5.13 8.889-5.13V35.918c0-3.418 2.965-5.13 2.965-5.13l-5.924-3.423zm17.778 17.101L80 51.307v-6.841l-11.848-6.841s-8.889-5.002-8.889 5.13 8.889 15.394 8.889 15.394l2.965 1.712s2.965 1.712 2.965 5.13c0 3.423-2.965 1.712-2.965 1.712L59.263 59.86v6.841l11.848 6.841S80 78.672 80 68.413 74.076 54.73 74.076 54.73l-5.924-3.418s-2.965-1.712-2.965-5.13c0-3.429 2.965-1.717 2.965-1.717z" fill="#bcbec0"/></svg>