<svg width="152" height="49" viewBox="0 0 152 49" fill="none" xmlns="http://www.w3.org/2000/svg">
<g clip-path="url(#clip0)">
<path d="M48.6317 26.6006C48.6317 26.8549 48.4219 27.0618 48.1714 27.0618H39.3051C39.5265 29.2851 41.1751 31.3132 43.4936 31.3132C45.0781 31.3132 46.2549 30.6983 47.1403 29.4152C47.2685 29.2378 47.4607 29.1254 47.7054 29.2319C47.8394 29.291 47.9326 29.4152 47.9559 29.5571C47.9792 29.7049 47.9384 29.7877 47.8977 29.8704C47.0064 31.4492 45.2296 32.2238 43.4878 32.2238C40.5052 32.2238 38.3789 29.5157 38.3789 26.6183C38.3789 23.721 40.5052 21.0129 43.4878 21.0129C46.4704 21.007 48.6258 23.7092 48.6317 26.6006ZM47.6821 26.1631C47.4899 23.9398 45.8121 21.9117 43.4936 21.9117C41.1751 21.9117 39.5265 23.9398 39.3051 26.1631H47.6821ZM59.3912 21.2317C59.6475 21.2317 59.8339 21.4564 59.8339 21.6811C59.8339 21.9412 59.6417 22.1305 59.3912 22.1305H57.0144V31.597C57.0144 31.8217 56.8222 32.0464 56.5717 32.0464C56.3154 32.0464 56.129 31.8217 56.129 31.597V22.1305H53.8454C53.5891 22.1305 53.4027 21.9353 53.4027 21.6811C53.4027 21.4564 53.5949 21.2317 53.8454 21.2317H56.129V17.7667C56.129 17.548 56.2746 17.3469 56.4843 17.3114C56.7814 17.2641 57.0144 17.4711 57.0144 17.7549V21.2317H59.3912ZM73.8907 25.8083V31.5438C73.8907 31.804 73.6693 31.9932 73.448 31.9932C73.1916 31.9932 73.0052 31.7981 73.0052 31.5438V25.8083C73.0052 23.8748 71.9275 21.9412 69.8012 21.9412C67.0749 21.9412 65.8982 24.3596 66.0555 26.8371C66.0555 26.9022 66.0846 27.1919 66.0846 27.2215V31.5261C66.0846 31.7448 65.939 31.9459 65.7293 31.9814C65.4322 32.0287 65.1992 31.8217 65.1992 31.5379V12.6994C65.1992 12.4747 65.3914 12.25 65.6419 12.25C65.8982 12.25 66.0846 12.4747 66.0846 12.6994V23.3603C66.8478 21.9767 68.2109 21.0425 69.7954 21.0425C72.3994 21.0425 73.8907 23.3603 73.8907 25.8083ZM89.7883 26.6006C89.7883 26.8549 89.5786 27.0618 89.3281 27.0618H80.4559C80.6773 29.2851 82.3259 31.3132 84.6444 31.3132C86.2289 31.3132 87.4057 30.6983 88.2911 29.4152C88.4193 29.2378 88.6115 29.1254 88.8562 29.2319C88.9902 29.291 89.0834 29.4152 89.1067 29.5571C89.13 29.7049 89.0892 29.7877 89.0484 29.8704C88.1572 31.4492 86.3804 32.2238 84.6386 32.2238C81.656 32.2238 79.5297 29.5157 79.5297 26.6183C79.5297 23.721 81.656 21.0129 84.6386 21.0129C87.627 21.007 89.7825 23.7092 89.7883 26.6006ZM88.8329 26.1631C88.6407 23.9398 86.9629 21.9117 84.6444 21.9117C82.3259 21.9117 80.6773 23.9398 80.4559 26.1631H88.8329ZM100.67 21.6515C100.67 21.9412 100.513 22.1009 100.257 22.1364C97.6526 22.5207 96.4817 24.6789 96.4817 27.1919V31.4965C96.4817 31.7153 96.3361 31.9163 96.1263 31.9518C95.8292 31.9991 95.5962 31.7921 95.5962 31.5083V21.6988C95.5962 21.48 95.7419 21.279 95.9516 21.2435C96.2487 21.1962 96.4817 21.4032 96.4817 21.687V23.6855C97.2099 22.432 98.6721 21.2376 100.192 21.2376C100.414 21.2317 100.67 21.3973 100.67 21.6515ZM115.234 26.6006C115.234 26.8549 115.024 27.0618 114.774 27.0618H105.907C106.129 29.2851 107.777 31.3132 110.096 31.3132C111.68 31.3132 112.857 30.6983 113.742 29.4152C113.871 29.2378 114.063 29.1254 114.307 29.2319C114.441 29.291 114.535 29.4152 114.558 29.5571C114.581 29.7049 114.541 29.7877 114.5 29.8704C113.608 31.4492 111.832 32.2238 110.09 32.2238C107.107 32.2238 104.981 29.5157 104.981 26.6183C104.981 23.721 107.107 21.0129 110.09 21.0129C113.073 21.007 115.228 23.7092 115.234 26.6006ZM114.284 26.1631C114.092 23.9398 112.414 21.9117 110.096 21.9117C107.777 21.9117 106.129 23.9398 105.907 26.1631H114.284ZM129.547 21.7639V31.597C129.547 31.8572 129.325 32.0464 129.104 32.0464C128.848 32.0464 128.661 31.8513 128.661 31.597V29.7285C127.933 31.2127 126.628 32.2711 124.98 32.2711C122.347 32.2711 120.884 29.9532 120.884 27.5053V21.7402C120.884 21.5155 121.077 21.2908 121.327 21.2908C121.583 21.2908 121.77 21.5155 121.77 21.7402V27.5053C121.77 29.4388 122.848 31.3723 124.974 31.3723C127.956 31.3723 128.656 28.54 128.656 25.4121V21.7402C128.656 21.48 128.912 21.214 129.226 21.3086C129.419 21.3736 129.547 21.5628 129.547 21.7639ZM151.975 25.7728V31.5379C151.975 31.7981 151.753 31.9873 151.532 31.9873C151.276 31.9873 151.089 31.7921 151.089 31.5379V25.7728C151.089 23.8393 150.012 21.9412 147.885 21.9412C145.217 21.9412 144.204 24.8386 144.204 27.0914V31.5379C144.204 31.7981 143.982 31.9873 143.761 31.9873C143.505 31.9873 143.318 31.7921 143.318 31.5379V25.7728C143.318 23.8393 142.24 21.9412 140.114 21.9412C137.417 21.9412 136.304 24.0995 136.403 26.9672C136.403 27.0323 136.432 27.1623 136.403 27.1919V31.5261C136.403 31.7448 136.258 31.9459 136.042 31.9814C135.745 32.0287 135.512 31.8217 135.512 31.5379V21.6988C135.512 21.48 135.658 21.279 135.867 21.2435C136.164 21.1962 136.397 21.4032 136.397 21.687V23.3308C137.161 21.9472 138.524 21.0425 140.108 21.0425C141.914 21.0425 143.312 22.2014 143.883 23.9102C144.611 22.2369 146.039 21.0425 147.879 21.0425C150.483 21.0425 151.975 23.3249 151.975 25.7728Z" fill="black"/>
<g opacity="0.6">
<path opacity="0.6" d="M14.9 18.1172L0.0800781 24.9584L14.9 33.8455L29.714 24.9584L14.9 18.1172Z" fill="#010101"/>
</g>
<g opacity="0.45">
<path opacity="0.45" d="M0.0800781 24.9583L14.9 33.8454V0L0.0800781 24.9583Z" fill="#010101"/>
</g>
<g opacity="0.8">
<path opacity="0.8" d="M14.8994 0V33.8454L29.7136 24.9583L14.8994 0Z" fill="#010101"/>
</g>
<path opacity="0.45" d="M0.0800781 27.8083L14.9 49.0002V36.6954L0.0800781 27.8083Z" fill="#CCCCCC"/>
<path opacity="0.8" d="M14.8994 36.6954V49.0002L29.7252 27.8083L14.8994 36.6954Z" fill="#5C5C5C"/>
</g>
<defs>
<clipPath id="clip0">
<rect width="152" height="49" fill="white"/>
</clipPath>
</defs>
</svg>
